<?xml version="1.0" encoding="UTF-8" standalone="no"?>
<svg
   width="32"
   height="32"
   version="1.1"
   id="svg221"
   sodipodi:docname="image-loading.svg"
   inkscape:version="1.2.1 (9c6d41e410, 2022-07-14)"
   xmlns:inkscape="http://www.inkscape.org/namespaces/inkscape"
   xmlns:sodipodi="http://sodipodi.sourceforge.net/DTD/sodipodi-0.dtd"
   xmlns:xlink="http://www.w3.org/1999/xlink"
   xmlns="http://www.w3.org/2000/svg"
   xmlns:svg="http://www.w3.org/2000/svg">
  <sodipodi:namedview
     id="namedview223"
     pagecolor="#ffffff"
     bordercolor="#666666"
     borderopacity="1.0"
     inkscape:showpageshadow="2"
     inkscape:pageopacity="0.0"
     inkscape:pagecheckerboard="0"
     inkscape:deskcolor="#d1d1d1"
     showgrid="false"
     inkscape:zoom="7.375"
     inkscape:cx="16.474576"
     inkscape:cy="16.338983"
     inkscape:window-width="1920"
     inkscape:window-height="1002"
     inkscape:window-x="0"
     inkscape:window-y="0"
     inkscape:window-maximized="1"
     inkscape:current-layer="svg221" />
  <defs
     id="defs209">
    <linearGradient
       inkscape:collect="always"
       id="linearGradient877">
      <stop
         style="stop-color:#f2f2f2;stop-opacity:1"
         offset="0"
         id="stop873" />
      <stop
         style="stop-color:#4d4d4d;stop-opacity:1"
         offset="1"
         id="stop875" />
    </linearGradient>
    <filter
       id="d"
       x="-0.035999999"
       y="-0.035999999"
       width="1.072"
       height="1.072"
       color-interpolation-filters="sRGB">
      <feGaussianBlur
         stdDeviation="0.45"
         id="feGaussianBlur196" />
    </filter>
    <linearGradient
       id="a"
       x1="16"
       x2="16"
       y1="1"
       y2="31"
       gradientUnits="userSpaceOnUse"
       gradientTransform="translate(-61.569497,-26.389831)">
      <stop
         stop-color="#eef0f0"
         offset="0"
         id="stop199" />
      <stop
         stop-color="#363636"
         offset="1"
         id="stop201" />
    </linearGradient>
    <radialGradient
       id="b"
       cx="16"
       cy="16"
       r="8"
       gradientUnits="userSpaceOnUse"
       gradientTransform="matrix(1.2500003,0,0,1.2500003,-16.90172,-43.318521)">
      <stop
         stop-color="#b3b3b3"
         offset="0"
         id="stop204" />
      <stop
         stop-color="#313131"
         offset="1"
         id="stop206" />
    </radialGradient>
    <linearGradient
       id="a-3"
       x1="16"
       x2="16"
       y1="1"
       y2="31"
       gradientUnits="userSpaceOnUse"
       gradientTransform="translate(-55.032024,-26.83259)">
      <stop
         stop-color="#333"
         offset="0"
         id="stop211" />
      <stop
         stop-color="#808080"
         offset="1"
         id="stop213" />
    </linearGradient>
    <filter
       id="b-3"
       x="-0.035967001"
       y="-0.036033062"
       width="1.071934"
       height="1.0720661"
       color-interpolation-filters="sRGB">
      <feGaussianBlur
         stdDeviation="0.179835"
         id="feGaussianBlur216-6" />
    </filter>
    <radialGradient
       id="b-6"
       cx="16"
       cy="16"
       r="8"
       gradientUnits="userSpaceOnUse"
       gradientTransform="matrix(1.2500003,0,0,1.2500003,-4.000001,-5.000009)">
      <stop
         stop-color="#b3b3b3"
         offset="0"
         id="stop204-7" />
      <stop
         stop-color="#313131"
         offset="1"
         id="stop206-5" />
    </radialGradient>
    <linearGradient
       inkscape:collect="always"
       xlink:href="#linearGradient877"
       id="linearGradient879"
       x1="16"
       y1="1"
       x2="16"
       y2="31"
       gradientUnits="userSpaceOnUse" />
  </defs>
  <path
     d="M0 0h32v32H0z"
     fill="none"
     id="path215" />
  <path
     d="M 1,4.75 C 1,2.67887 2.67893,1 4.75,1 h 22.5 C 29.32113,1 31,2.67887 31,4.75 v 22.5 C 31,29.32112 29.32113,31 27.25,31 H 4.75 C 2.67893,31 1,29.32112 1,27.25 Z"
     id="path736"
     style="fill:#606c86;fill-opacity:1;stroke-width:1.875" />
  <path
     d="M 1,4.51562 C 1,2.57406 2.67893,1 4.75,1 h 22.5 C 29.32113,1 31,2.57406 31,4.51562 V 25.60937 C 31,27.55094 29.32113,29.125 27.25,29.125 H 4.75 C 2.67893,29.125 1,27.55094 1,25.60937 Z"
     id="path738"
     style="fill-opacity:1;fill:url(#linearGradient879)" />
  <path
     d="M 16.54624,9.582509 H 15.71376 L 14.88,15.41624 19.047491,18.75 v -0.83376 l -2.5,-3.333731 z"
     fill-rule="evenodd"
     opacity="0.5"
     id="path217-3" />
  <path
     d="M 16,5 C 10.48,5 6,9.48 6,15 6,20.52 10.48,25 16,25 21.52,25 26,20.52 26,15 26,9.48 21.52,5 16,5 Z m 0,2.5 c 4.14,0 7.5,3.36 7.5,7.5 0,4.14 -3.36,7.5 -7.5,7.5 -4.14,0 -7.5,-3.36 -7.5,-7.5 0,-4.14 3.360001,-7.5 7.5,-7.5 z"
     fill-rule="evenodd"
     opacity="0.5"
     id="path219-5" />
</svg>
