<?xml version="1.0" encoding="UTF-8" standalone="no"?>
<svg
   id="svg4306"
   width="22"
   height="22"
   version="1.1"
   style="enable-background:new"
   sodipodi:docname="maximize.svg"
   inkscape:version="1.2.1 (9c6d41e410, 2022-07-14)"
   xmlns:inkscape="http://www.inkscape.org/namespaces/inkscape"
   xmlns:sodipodi="http://sodipodi.sourceforge.net/DTD/sodipodi-0.dtd"
   xmlns="http://www.w3.org/2000/svg"
   xmlns:svg="http://www.w3.org/2000/svg"
   xmlns:rdf="http://www.w3.org/1999/02/22-rdf-syntax-ns#"
   xmlns:cc="http://creativecommons.org/ns#"
   xmlns:dc="http://purl.org/dc/elements/1.1/">
  <metadata
     id="metadata28">
    <rdf:RDF>
      <cc:Work
         rdf:about="">
        <dc:format>image/svg+xml</dc:format>
        <dc:type
           rdf:resource="http://purl.org/dc/dcmitype/StillImage" />
      </cc:Work>
    </rdf:RDF>
  </metadata>
  <defs
     id="defs26" />
  <sodipodi:namedview
     inkscape:document-rotation="0"
     pagecolor="#cccccc"
     bordercolor="#000000"
     borderopacity="1"
     objecttolerance="10"
     gridtolerance="10"
     guidetolerance="10"
     inkscape:pageopacity="0"
     inkscape:pageshadow="2"
     inkscape:window-width="1920"
     inkscape:window-height="1002"
     id="namedview24"
     showgrid="false"
     inkscape:zoom="8.0000004"
     inkscape:cx="18.749999"
     inkscape:cy="26.437499"
     inkscape:window-x="0"
     inkscape:window-y="0"
     inkscape:window-maximized="1"
     inkscape:current-layer="svg4306"
     inkscape:snap-bbox="true"
     inkscape:bbox-nodes="true"
     inkscape:lockguides="false"
     inkscape:pagecheckerboard="0"
     inkscape:showpageshadow="2"
     inkscape:deskcolor="#808080">
    <inkscape:grid
       type="xygrid"
       id="grid853"
       originx="0"
       originy="0" />
  </sodipodi:namedview>
  <style
     type="text/css"
     id="current-color-scheme" />
  <g
     id="pressed-inactive-center"
     transform="translate(22,22)">
    <rect
       style="opacity:0.00100002;fill:#000000;fill-opacity:1;fill-rule:nonzero;stroke:none;stroke-width:2;stroke-linecap:round;stroke-linejoin:round;stroke-miterlimit:4;stroke-dasharray:none;stroke-opacity:1"
       y="0"
       x="22"
       height="22"
       width="22"
       id="rect4266-3-6-5" />
    <rect
       width="18.663559"
       height="18.663555"
       rx="9.3317795"
       ry="9.3317776"
       x="23.668221"
       y="1.66822"
       id="rect3000-9-3-6"
       style="color:#000000;display:inline;overflow:visible;visibility:visible;fill:#7580bc;fill-opacity:1;stroke:#000405;stroke-width:1.33644;stroke-opacity:0.01;marker:none;enable-background:accumulate" />
    <path
       d="m 39.040408,14.499994 a 0.48278835,0.48278835 0 0 1 -0.34117,-0.141622 l -5.69369,-5.6936783 -5.693679,5.6936783 a 0.48278835,0.48278835 0 0 1 -0.68234,-0.682335 l 6.034859,-6.0348493 a 0.48278835,0.48278835 0 0 1 0.68233,0 l 6.03486,6.0348493 a 0.48278835,0.48278835 0 0 1 -0.34117,0.823957 z"
       id="path4-3-7"
       style="fill:#d1d5e9;fill-opacity:1;stroke-width:0.160926;enable-background:new" />
  </g>
  <g
     id="pressed-center"
     transform="translate(22,22)">
    <rect
       id="rect4266-3-6"
       width="22"
       height="22"
       x="22"
       y="-22"
       style="opacity:0.00100002;fill:#000000;fill-opacity:1;fill-rule:nonzero;stroke:none;stroke-width:2;stroke-linecap:round;stroke-linejoin:round;stroke-miterlimit:4;stroke-dasharray:none;stroke-opacity:1" />
    <rect
       width="18.663559"
       height="18.663555"
       rx="9.3317795"
       ry="9.3317776"
       x="23.668221"
       y="-20.331779"
       id="rect3000-9-3-5"
       style="color:#000000;display:inline;overflow:visible;visibility:visible;fill:#7580bc;fill-opacity:1;stroke:#000405;stroke-width:1.33644;stroke-opacity:0.01;marker:none;enable-background:accumulate" />
    <path
       d="m 39.040409,-7.5000131 a 0.48278835,0.48278835 0 0 1 -0.34117,-0.141622 l -5.69369,-5.6936709 -5.69368,5.6936709 a 0.48278835,0.48278835 0 0 1 -0.68234,-0.682335 l 6.03486,-6.0348419 a 0.48278835,0.48278835 0 0 1 0.68233,0 l 6.03486,6.0348419 a 0.48278835,0.48278835 0 0 1 -0.34117,0.823957 z"
       id="path4-3-3"
       style="fill:#d1d5e9;fill-opacity:1;stroke-width:0.160926;enable-background:new" />
  </g>
  <g
     id="inactive-center"
     transform="translate(22,22)">
    <rect
       style="opacity:0.00100002;fill:#000000;fill-opacity:1;fill-rule:nonzero;stroke:none;stroke-width:2;stroke-linecap:round;stroke-linejoin:round;stroke-miterlimit:4;stroke-dasharray:none;stroke-opacity:1"
       y="0"
       x="-22"
       height="22"
       width="22"
       id="rect4266-9" />
    <rect
       width="18.663601"
       height="18.663599"
       rx="9.3318005"
       ry="9.3317995"
       x="-20.3318"
       y="1.6682"
       id="rect3000-9-3"
       style="color:#000000;display:inline;overflow:visible;visibility:visible;opacity:0.01;fill:#006499;fill-opacity:0.01;stroke:#000405;stroke-width:1.3364;stroke-opacity:0.317647;marker:none;enable-background:accumulate" />
    <path
       d="m -4.959592,14.499994 a 0.48278835,0.48278835 0 0 1 -0.34117,-0.141622 l -5.69369,-5.6936783 -5.69368,5.6936783 a 0.48278835,0.48278835 0 0 1 -0.68234,-0.682335 l 6.03486,-6.0348493 a 0.48278835,0.48278835 0 0 1 0.68233,0 l 6.03486,6.0348493 a 0.48278835,0.48278835 0 0 1 -0.34117,0.823957 z"
       id="path4-3"
       style="fill:#7580bc;fill-opacity:1;stroke-width:0.160926;enable-background:new" />
  </g>
  <g
     id="hover-center"
     transform="translate(22,22)">
    <g
       style="enable-background:new"
       id="g1112"
       transform="translate(0,-22)">
      <rect
         style="opacity:0.00100002;fill:#000000;fill-opacity:1;fill-rule:nonzero;stroke:none;stroke-width:2;stroke-linecap:round;stroke-linejoin:round;stroke-miterlimit:4;stroke-dasharray:none;stroke-opacity:1"
         y="0"
         x="0"
         height="22"
         width="22"
         id="rect4266-3" />
    </g>
    <rect
       width="18.663559"
       height="18.663555"
       rx="9.3317795"
       ry="9.3317776"
       x="1.66822"
       y="-20.331779"
       id="rect3000-9-3-56"
       style="color:#000000;display:inline;overflow:visible;visibility:visible;fill:#7580bc;fill-opacity:0.60000002;stroke:#4e4e7e;stroke-width:1.33644;stroke-opacity:0.01;marker:none;enable-background:accumulate" />
    <path
       d="m 17.040413,-7.5000135 a 0.48278835,0.48278835 0 0 1 -0.34117,-0.141622 l -5.69369,-5.6936705 -5.69368,5.6936705 a 0.48278835,0.48278835 0 0 1 -0.68234,-0.682335 l 6.03486,-6.0348415 a 0.48278835,0.48278835 0 0 1 0.68233,0 l 6.03486,6.0348415 a 0.48278835,0.48278835 0 0 1 -0.34117,0.823957 z"
       id="path4-3-2"
       style="fill:#d1d5e9;fill-opacity:1;stroke-width:0.160926;enable-background:new" />
  </g>
  <g
     id="active-center"
     transform="translate(22,22)">
    <rect
       id="rect4266"
       width="22"
       height="22"
       x="-22"
       y="-22"
       style="opacity:0.00100002;fill:#000000;fill-opacity:1;fill-rule:nonzero;stroke:none;stroke-width:2;stroke-linecap:round;stroke-linejoin:round;stroke-miterlimit:4;stroke-dasharray:none;stroke-opacity:1" />
    <rect
       width="18.663601"
       height="18.663599"
       rx="9.3318005"
       ry="9.3317995"
       x="-20.3318"
       y="-20.3318"
       id="rect3000-9-3-9"
       style="color:#000000;display:inline;overflow:visible;visibility:visible;opacity:0.01;fill:#006499;fill-opacity:0.01;stroke:#000405;stroke-width:1.3364;stroke-opacity:0.317647;marker:none;enable-background:accumulate" />
    <path
       d="m -4.959597,-7.5000153 a 0.48278835,0.48278835 0 0 1 -0.34117,-0.141622 l -5.69369,-5.6936687 -5.69368,5.6936687 a 0.48278835,0.48278835 0 0 1 -0.68234,-0.682335 l 6.03486,-6.0348397 a 0.48278835,0.48278835 0 0 1 0.68233,0 l 6.03486,6.0348397 a 0.48278835,0.48278835 0 0 1 -0.34117,0.823957 z"
       id="path4-3-1"
       style="fill:#d1d5e9;fill-opacity:1;stroke-width:0.160926;enable-background:new" />
  </g>
  <g
     id="hover-inactive-center"
     transform="translate(22,22)">
    <rect
       id="rect4266-3-67"
       width="22"
       height="22"
       x="0"
       y="0"
       style="opacity:0.00100002;fill:#000000;fill-opacity:1;fill-rule:nonzero;stroke:none;stroke-width:2;stroke-linecap:round;stroke-linejoin:round;stroke-miterlimit:4;stroke-dasharray:none;stroke-opacity:1" />
    <rect
       width="18.663559"
       height="18.663555"
       rx="9.3317795"
       ry="9.3317776"
       x="1.66822"
       y="1.66822"
       id="rect3000-9-3-0"
       style="color:#000000;display:inline;overflow:visible;visibility:visible;fill:#7580bc;fill-opacity:0.60000002;stroke:#000405;stroke-width:1.33644;stroke-opacity:0.01;marker:none;enable-background:accumulate" />
    <path
       d="m 17.040409,14.499994 a 0.48278835,0.48278835 0 0 1 -0.34117,-0.141622 L 11.005547,8.6646937 5.3118671,14.358372 a 0.48278835,0.48278835 0 0 1 -0.68234,-0.682335 L 10.664387,7.6411877 a 0.48278835,0.48278835 0 0 1 0.68233,0 l 6.034862,6.0348493 a 0.48278835,0.48278835 0 0 1 -0.34117,0.823957 z"
       id="path4-3-9"
       style="fill:#d1d5e9;fill-opacity:1;stroke-width:0.160926;enable-background:new" />
  </g>
</svg>
