<?xml version="1.0" encoding="UTF-8" standalone="no"?>
<svg
   id="svg4306"
   width="22"
   height="22"
   version="1.1"
   style="enable-background:new"
   sodipodi:docname="minimize.svg"
   inkscape:version="1.2.1 (9c6d41e410, 2022-07-14)"
   xmlns:inkscape="http://www.inkscape.org/namespaces/inkscape"
   xmlns:sodipodi="http://sodipodi.sourceforge.net/DTD/sodipodi-0.dtd"
   xmlns="http://www.w3.org/2000/svg"
   xmlns:svg="http://www.w3.org/2000/svg"
   xmlns:rdf="http://www.w3.org/1999/02/22-rdf-syntax-ns#"
   xmlns:cc="http://creativecommons.org/ns#"
   xmlns:dc="http://purl.org/dc/elements/1.1/">
  <g
     id="pressed-inactive-center"
     transform="translate(44,22)">
    <rect
       style="opacity:0.00100002;fill:#000000;fill-opacity:1;fill-rule:nonzero;stroke:none;stroke-width:2;stroke-linecap:round;stroke-linejoin:round;stroke-miterlimit:4;stroke-dasharray:none;stroke-opacity:1"
       y="0"
       x="0"
       height="22"
       width="22"
       id="rect4266-3-6-5" />
    <rect
       width="18.66358"
       height="18.663567"
       rx="9.33179"
       ry="9.3317833"
       x="1.668215"
       y="1.668215"
       id="rect3000-9-3-3-6-9"
       style="color:#000000;display:inline;overflow:visible;visibility:visible;fill:#7580bc;fill-opacity:1;stroke:#000405;stroke-width:1.33643;stroke-opacity:0.01;marker:none;enable-background:accumulate" />
    <path
       d="m 4.9823559,8 a 0.48278835,0.48278835 0 0 1 0.341174,0.141622 l 5.6936871,5.693682 5.69368,-5.693682 a 0.48278835,0.48278835 0 0 1 0.68234,0.682335 l -6.034856,6.034853 a 0.48278835,0.48278835 0 0 1 -0.682334,0 L 4.6411889,8.823957 A 0.48278835,0.48278835 0 0 1 4.9823559,8 Z"
       id="path4-3-3-7-1"
       style="fill:#d1d5e9;fill-opacity:1;stroke-width:0.160926;enable-background:new" />
  </g>
  <g
     id="hover-inactive-center"
     transform="translate(22,22)">
    <rect
       id="rect4266-3-67"
       width="22"
       height="22"
       x="0"
       y="0"
       style="opacity:0.00100002;fill:#000000;fill-opacity:1;fill-rule:nonzero;stroke:none;stroke-width:2;stroke-linecap:round;stroke-linejoin:round;stroke-miterlimit:4;stroke-dasharray:none;stroke-opacity:1" />
    <rect
       width="18.66358"
       height="18.663567"
       rx="9.33179"
       ry="9.3317833"
       x="1.668215"
       y="1.668215"
       id="rect3000-9-3-3-6-2"
       style="color:#000000;display:inline;overflow:visible;visibility:visible;fill:#7580bc;fill-opacity:0.60000002;stroke:#000405;stroke-width:1.33643;stroke-opacity:0.01;marker:none;enable-background:accumulate" />
    <path
       d="m 4.9823621,8 a 0.48278835,0.48278835 0 0 1 0.341174,0.141622 l 5.6936869,5.693682 5.693684,-5.693682 a 0.48278835,0.48278835 0 0 1 0.682339,0.682335 l -6.034859,6.034853 a 0.48278835,0.48278835 0 0 1 -0.682334,0 L 4.6411951,8.823957 A 0.48278835,0.48278835 0 0 1 4.9823621,8 Z"
       id="path4-3-3-7-7"
       style="fill:#d1d5e9;fill-opacity:1;stroke-width:0.160926;enable-background:new" />
  </g>
  <metadata
     id="metadata28">
    <rdf:RDF>
      <cc:Work
         rdf:about="">
        <dc:format>image/svg+xml</dc:format>
        <dc:type
           rdf:resource="http://purl.org/dc/dcmitype/StillImage" />
      </cc:Work>
    </rdf:RDF>
  </metadata>
  <defs
     id="defs26" />
  <sodipodi:namedview
     inkscape:document-rotation="0"
     pagecolor="#cccccc"
     bordercolor="#000000"
     borderopacity="1"
     objecttolerance="10"
     gridtolerance="10"
     guidetolerance="10"
     inkscape:pageopacity="0"
     inkscape:pageshadow="2"
     inkscape:window-width="1920"
     inkscape:window-height="1002"
     id="namedview24"
     showgrid="false"
     inkscape:zoom="7.9999996"
     inkscape:cx="24.500001"
     inkscape:cy="21.687501"
     inkscape:window-x="0"
     inkscape:window-y="0"
     inkscape:window-maximized="1"
     inkscape:current-layer="svg4306"
     inkscape:snap-bbox="true"
     inkscape:bbox-nodes="true"
     inkscape:lockguides="true"
     inkscape:pagecheckerboard="0"
     inkscape:showpageshadow="2"
     inkscape:deskcolor="#808080">
    <inkscape:grid
       type="xygrid"
       id="grid853"
       originx="0"
       originy="0" />
  </sodipodi:namedview>
  <style
     type="text/css"
     id="current-color-scheme" />
  <g
     id="inactive-center"
     transform="translate(44,22)">
    <rect
       style="opacity:0.00100002;fill:#000000;fill-opacity:1;fill-rule:nonzero;stroke:none;stroke-width:2;stroke-linecap:round;stroke-linejoin:round;stroke-miterlimit:4;stroke-dasharray:none;stroke-opacity:1"
       y="0"
       x="-44"
       height="22"
       width="22"
       id="rect4266-9" />
    <rect
       width="18.663624"
       height="18.66361"
       rx="9.3318119"
       ry="9.3318052"
       x="-42.331806"
       y="1.668195"
       id="rect3000-9-3-3"
       style="color:#000000;display:inline;overflow:visible;visibility:visible;opacity:0.01;fill:#006499;fill-opacity:0.01;stroke:#000405;stroke-width:1.33639;stroke-opacity:0.317647;marker:none;enable-background:accumulate" />
    <path
       d="m -39.017642,8 a 0.48278835,0.48278835 0 0 1 0.341174,0.141622 l 5.693687,5.693682 5.693684,-5.693682 a 0.48278835,0.48278835 0 0 1 0.682339,0.682335 l -6.034859,6.034853 a 0.48278835,0.48278835 0 0 1 -0.682334,0 L -39.358809,8.823957 A 0.48278835,0.48278835 0 0 1 -39.017642,8 Z"
       id="path4-3-3"
       style="fill:#7580bc;fill-opacity:1;stroke-width:0.160926;enable-background:new" />
  </g>
  <g
     id="active-center"
     transform="translate(44,22)">
    <rect
       id="rect4266"
       width="22"
       height="22"
       x="-44"
       y="-22"
       style="opacity:0.00100002;fill:#000000;fill-opacity:1;fill-rule:nonzero;stroke:none;stroke-width:2;stroke-linecap:round;stroke-linejoin:round;stroke-miterlimit:4;stroke-dasharray:none;stroke-opacity:1" />
    <rect
       width="18.663628"
       height="18.66361"
       rx="9.3318129"
       ry="9.3318052"
       x="-42.331806"
       y="-20.331804"
       id="rect3000-9-3-3-6"
       style="color:#000000;display:inline;overflow:visible;visibility:visible;opacity:0.01;fill:#006499;fill-opacity:0.01;stroke:#000405;stroke-width:1.33639;stroke-opacity:0.317647;marker:none;enable-background:accumulate" />
    <path
       d="m -39.017641,-14 a 0.48278835,0.48278835 0 0 1 0.341174,0.141622 l 5.693687,5.693682 5.693684,-5.693682 a 0.48278835,0.48278835 0 0 1 0.682339,0.682335 l -6.034859,6.034853 a 0.48278835,0.48278835 0 0 1 -0.682334,0 l -6.034858,-6.034853 A 0.48278835,0.48278835 0 0 1 -39.017641,-14 Z"
       id="path4-3-3-7"
       style="fill:#d1d5e9;fill-opacity:1;stroke-width:0.160926;enable-background:new" />
  </g>
  <g
     id="hover-center"
     transform="translate(22)">
    <g
       id="g27">
      <rect
         style="opacity:0.00100002;fill:#000000;fill-opacity:1;fill-rule:nonzero;stroke:none;stroke-width:2;stroke-linecap:round;stroke-linejoin:round;stroke-miterlimit:4;stroke-dasharray:none;stroke-opacity:1"
         y="0"
         x="0"
         height="22"
         width="22"
         id="rect4266-3" />
    </g>
    <rect
       width="18.663624"
       height="18.663609"
       rx="9.3318119"
       ry="9.3318043"
       x="1.668195"
       y="1.668195"
       id="rect3000-9-3-3-6-5"
       style="color:#000000;display:inline;overflow:visible;visibility:visible;fill:#7580bc;fill-opacity:0.60000002;stroke:#4e4e7e;stroke-width:1.33639;stroke-opacity:0.01;marker:none;enable-background:accumulate" />
    <path
       d="m 4.9823561,8 a 0.48278835,0.48278835 0 0 1 0.341174,0.141622 l 5.6936869,5.693682 5.69368,-5.693682 a 0.48278835,0.48278835 0 0 1 0.68234,0.682335 l -6.034856,6.034853 a 0.48278835,0.48278835 0 0 1 -0.682334,0 L 4.6411891,8.823957 A 0.48278835,0.48278835 0 0 1 4.9823561,8 Z"
       id="path4-3-3-7-3"
       style="fill:#d1d5e9;fill-opacity:1;stroke-width:0.160926;enable-background:new" />
  </g>
  <g
     id="pressed-center"
     transform="translate(44)">
    <rect
       id="rect4266-3-6"
       width="22"
       height="22"
       x="0"
       y="0"
       style="opacity:0.00100002;fill:#000000;fill-opacity:1;fill-rule:nonzero;stroke:none;stroke-width:2;stroke-linecap:round;stroke-linejoin:round;stroke-miterlimit:4;stroke-dasharray:none;stroke-opacity:1" />
    <rect
       width="18.66358"
       height="18.663567"
       rx="9.33179"
       ry="9.3317833"
       x="1.668215"
       y="1.668215"
       id="rect3000-9-3-3-6-56"
       style="color:#000000;display:inline;overflow:visible;visibility:visible;fill:#7580bc;fill-opacity:1;stroke:#000405;stroke-width:1.33643;stroke-opacity:0.01;marker:none;enable-background:accumulate" />
    <path
       d="m 4.9823561,8 a 0.48278835,0.48278835 0 0 1 0.341174,0.141622 l 5.6936869,5.693682 5.69368,-5.693682 a 0.48278835,0.48278835 0 0 1 0.68234,0.682335 l -6.034856,6.034853 a 0.48278835,0.48278835 0 0 1 -0.682334,0 L 4.6411891,8.823957 A 0.48278835,0.48278835 0 0 1 4.9823561,8 Z"
       id="path4-3-3-7-2"
       style="fill:#d1d5e9;fill-opacity:1;stroke-width:0.160926;enable-background:new" />
  </g>
</svg>
