<?xml version="1.0" encoding="UTF-8" standalone="no"?>
<svg
   id="svg4306"
   width="22"
   height="22"
   version="1.1"
   style="enable-background:new"
   sodipodi:docname="restore.svg"
   inkscape:version="1.2.1 (9c6d41e410, 2022-07-14)"
   xmlns:inkscape="http://www.inkscape.org/namespaces/inkscape"
   xmlns:sodipodi="http://sodipodi.sourceforge.net/DTD/sodipodi-0.dtd"
   xmlns="http://www.w3.org/2000/svg"
   xmlns:svg="http://www.w3.org/2000/svg"
   xmlns:rdf="http://www.w3.org/1999/02/22-rdf-syntax-ns#"
   xmlns:cc="http://creativecommons.org/ns#"
   xmlns:dc="http://purl.org/dc/elements/1.1/">
  <g
     id="pressed-center"
     transform="translate(44)">
    <rect
       id="rect4266-3-6"
       width="22"
       height="22"
       x="0"
       y="0"
       style="opacity:0.00100002;fill:#000000;fill-opacity:1;fill-rule:nonzero;stroke:none;stroke-width:2;stroke-linecap:round;stroke-linejoin:round;stroke-miterlimit:4;stroke-dasharray:none;stroke-opacity:1" />
    <rect
       width="18.663559"
       height="18.663555"
       rx="9.3317795"
       ry="9.3317776"
       x="1.66822"
       y="1.66822"
       id="rect3000-9-3-3-7-5-9-7-3-9"
       style="color:#000000;display:inline;overflow:visible;visibility:visible;fill:#7580bc;fill-opacity:1;stroke:#000405;stroke-width:1.33644;stroke-opacity:0.01;marker:none;enable-background:accumulate" />
    <path
       d="m 4.9823638,9.9999997 a 0.48278835,0.48278835 0 0 1 0.341174,0.1416223 l 5.6936852,5.693682 5.693684,-5.693682 a 0.48278835,0.48278835 0 0 1 0.682339,0.682335 l -6.034859,6.034853 a 0.48278835,0.48278835 0 0 1 -0.682334,0 L 4.6411958,10.823957 a 0.48278835,0.48278835 0 0 1 0.341168,-0.8239573 z"
       id="path4-3-3-5-6-1-0-6-2"
       style="fill:#d1d5e9;fill-opacity:1;stroke-width:0.160926;enable-background:new" />
    <path
       d="M 17.04041,12 A 0.48278835,0.48278835 0 0 1 16.699236,11.858378 L 11.005549,6.1646957 5.3118668,11.858378 A 0.48278835,0.48278835 0 0 1 4.6295278,11.176043 L 10.664385,5.1411907 a 0.48278835,0.48278835 0 0 1 0.682334,0 l 6.034857,6.0348523 A 0.48278835,0.48278835 0 0 1 17.04041,12 Z"
       id="path4-36-6-3-2-2-9-0-0"
       style="fill:#d1d5e9;fill-opacity:1;stroke-width:0.160926;enable-background:new" />
  </g>
  <g
     id="hover-center"
     transform="translate(22)">
    <rect
       style="opacity:0.00100002;fill:#000000;fill-opacity:1;fill-rule:nonzero;stroke:none;stroke-width:2;stroke-linecap:round;stroke-linejoin:round;stroke-miterlimit:4;stroke-dasharray:none;stroke-opacity:1"
       y="0"
       x="0"
       height="22"
       width="22"
       id="rect4266-3" />
    <rect
       width="18.663559"
       height="18.663555"
       rx="9.3317795"
       ry="9.3317776"
       x="1.66822"
       y="1.66822"
       id="rect3000-9-3-3-7-5-1"
       style="color:#000000;display:inline;overflow:visible;visibility:visible;fill:#7580bc;fill-opacity:0.60000002;stroke:#4e4e7e;stroke-width:1.33644;stroke-opacity:0.01;marker:none;enable-background:accumulate" />
    <path
       d="m 4.9823657,10.000001 a 0.48278835,0.48278835 0 0 1 0.341174,0.141622 l 5.6936863,5.693682 5.693679,-5.693682 a 0.48278835,0.48278835 0 0 1 0.68234,0.682335 l -6.034855,6.034853 a 0.48278835,0.48278835 0 0 1 -0.682334,0 L 4.6411977,10.823958 a 0.48278835,0.48278835 0 0 1 0.341168,-0.823957 z"
       id="path4-3-3-5-6-8"
       style="fill:#d1d5e9;fill-opacity:1;stroke-width:0.160926;enable-background:new" />
    <path
       d="m 17.040415,12.000001 a 0.48278835,0.48278835 0 0 1 -0.34118,-0.141622 L 11.005552,6.1646967 5.3118687,11.858379 A 0.48278835,0.48278835 0 0 1 4.6295297,11.176044 L 10.664388,5.1411917 a 0.48278835,0.48278835 0 0 1 0.682334,0 l 6.034853,6.0348523 a 0.48278835,0.48278835 0 0 1 -0.34116,0.823957 z"
       id="path4-36-6-3-2-7"
       style="fill:#d1d5e9;fill-opacity:1;stroke-width:0.160926;enable-background:new" />
  </g>
  <g
     id="active-center">
    <rect
       id="rect4266"
       width="22"
       height="22"
       x="0"
       y="0"
       style="opacity:0.00100002;fill:#000000;fill-opacity:1;fill-rule:nonzero;stroke:none;stroke-width:2;stroke-linecap:round;stroke-linejoin:round;stroke-miterlimit:4;stroke-dasharray:none;stroke-opacity:1" />
    <rect
       width="16.797197"
       height="16.797194"
       rx="8.3985987"
       ry="8.3985968"
       x="2.6013999"
       y="2.6014018"
       id="rect3000-9-3-3-7-6"
       style="color:#000000;display:inline;overflow:visible;visibility:visible;fill:#006499;fill-opacity:0.01;stroke:#000405;stroke-width:1.2028;stroke-opacity:0.317647;marker:none;enable-background:accumulate;opacity:0.01" />
    <path
       d="m 4.9823648,10 a 0.48278835,0.48278835 0 0 1 0.341174,0.141622 l 5.6936862,5.693682 5.69368,-5.693682 a 0.48278835,0.48278835 0 0 1 0.68234,0.682335 l -6.03486,6.034853 a 0.48278835,0.48278835 0 0 1 -0.68233,0 L 4.6411968,10.823957 A 0.48278835,0.48278835 0 0 1 4.9823648,10 Z"
       id="path4-3-3-5-2"
       style="fill:#d1d5e9;fill-opacity:1;stroke-width:0.160926;enable-background:new" />
    <path
       d="m 17.040415,12 a 0.48278835,0.48278835 0 0 1 -0.34118,-0.141622 L 11.005555,6.1646969 5.3118678,11.858378 A 0.48278835,0.48278835 0 0 1 4.6295288,11.176043 L 10.664387,5.1411909 a 0.48278835,0.48278835 0 0 1 0.682338,0 l 6.03485,6.0348521 A 0.48278835,0.48278835 0 0 1 17.040415,12 Z"
       id="path4-36-6-3-6"
       style="fill:#d1d5e9;fill-opacity:1;stroke-width:0.160926;enable-background:new" />
  </g>
  <metadata
     id="metadata28">
    <rdf:RDF>
      <cc:Work
         rdf:about="">
        <dc:format>image/svg+xml</dc:format>
        <dc:type
           rdf:resource="http://purl.org/dc/dcmitype/StillImage" />
      </cc:Work>
    </rdf:RDF>
  </metadata>
  <defs
     id="defs26" />
  <sodipodi:namedview
     inkscape:document-rotation="0"
     pagecolor="#cccccc"
     bordercolor="#000000"
     borderopacity="1"
     objecttolerance="10"
     gridtolerance="10"
     guidetolerance="10"
     inkscape:pageopacity="0"
     inkscape:pageshadow="2"
     inkscape:window-width="1920"
     inkscape:window-height="1002"
     id="namedview24"
     showgrid="false"
     inkscape:zoom="8"
     inkscape:cx="14.875"
     inkscape:cy="19.4375"
     inkscape:window-x="0"
     inkscape:window-y="0"
     inkscape:window-maximized="1"
     inkscape:current-layer="svg4306"
     inkscape:snap-bbox="true"
     inkscape:bbox-nodes="true"
     inkscape:lockguides="true"
     inkscape:pagecheckerboard="0"
     inkscape:showpageshadow="2"
     inkscape:deskcolor="#808080">
    <inkscape:grid
       type="xygrid"
       id="grid853"
       originx="0"
       originy="0" />
  </sodipodi:namedview>
  <style
     type="text/css"
     id="current-color-scheme" />
  <g
     id="inactive-center"
     transform="translate(0,22)">
    <rect
       style="opacity:0.00100002;fill:#000000;fill-opacity:1;fill-rule:nonzero;stroke:none;stroke-width:2;stroke-linecap:round;stroke-linejoin:round;stroke-miterlimit:4;stroke-dasharray:none;stroke-opacity:1"
       y="0"
       x="0"
       height="22"
       width="22"
       id="rect4266-9" />
    <rect
       width="16.797197"
       height="16.797194"
       rx="8.3985987"
       ry="8.3985968"
       x="2.6013999"
       y="2.6014009"
       id="rect3000-9-3-3"
       style="color:#000000;display:inline;overflow:visible;visibility:visible;fill:#006499;fill-opacity:0.01;stroke:#000405;stroke-width:1.2028;stroke-opacity:0.317647;marker:none;enable-background:accumulate;opacity:0.01" />
    <path
       d="m 4.982359,9.999999 a 0.48278835,0.48278835 0 0 1 0.341174,0.141622 l 5.693686,5.693682 5.693684,-5.693682 a 0.48278835,0.48278835 0 0 1 0.682339,0.682335 l -6.034859,6.034853 a 0.48278835,0.48278835 0 0 1 -0.682334,0 L 4.641191,10.823956 A 0.48278835,0.48278835 0 0 1 4.982359,9.999999 Z"
       id="path4-3-3"
       style="fill:#7580bc;fill-opacity:1;stroke-width:0.160926;enable-background:new" />
    <path
       d="M 17.040406,11.999999 A 0.48278835,0.48278835 0 0 1 16.699232,11.858377 L 11.005545,6.164696 5.311862,11.858377 A 0.48278835,0.48278835 0 0 1 4.629523,11.176042 L 10.664381,5.14119 a 0.48278835,0.48278835 0 0 1 0.682334,0 l 6.034857,6.034852 a 0.48278835,0.48278835 0 0 1 -0.341166,0.823957 z"
       id="path4-36-6"
       style="fill:#7580bc;fill-opacity:1;stroke-width:0.160926;enable-background:new" />
  </g>
  <g
     id="pressed-inactive-center"
     transform="translate(44,22)">
    <rect
       style="opacity:0.00100002;fill:#000000;fill-opacity:1;fill-rule:nonzero;stroke:none;stroke-width:2;stroke-linecap:round;stroke-linejoin:round;stroke-miterlimit:4;stroke-dasharray:none;stroke-opacity:1"
       y="0"
       x="0"
       height="22"
       width="22"
       id="rect4266-3-6-5" />
    <rect
       width="18.663559"
       height="18.663555"
       rx="9.3317795"
       ry="9.3317776"
       x="1.66822"
       y="1.66822"
       id="rect3000-9-3-3-7-5-9-7"
       style="color:#000000;display:inline;overflow:visible;visibility:visible;fill:#7580bc;fill-opacity:1;stroke:#000405;stroke-width:1.33644;stroke-opacity:0.01;marker:none;enable-background:accumulate" />
    <path
       d="m 4.982362,10.000002 a 0.48278835,0.48278835 0 0 1 0.341174,0.141622 l 5.693686,5.693682 5.693684,-5.693682 a 0.48278835,0.48278835 0 0 1 0.682339,0.682335 l -6.034859,6.034853 a 0.48278835,0.48278835 0 0 1 -0.682334,0 L 4.641194,10.823959 a 0.48278835,0.48278835 0 0 1 0.341168,-0.823957 z"
       id="path4-3-3-5-6-1-0"
       style="fill:#d1d5e9;fill-opacity:1;stroke-width:0.160926;enable-background:new" />
    <path
       d="M 17.040409,12.000002 A 0.48278835,0.48278835 0 0 1 16.699235,11.85838 L 11.005548,6.164698 5.311865,11.85838 A 0.48278835,0.48278835 0 0 1 4.629526,11.176045 l 6.034858,-6.034852 a 0.48278835,0.48278835 0 0 1 0.682334,0 l 6.034857,6.034852 a 0.48278835,0.48278835 0 0 1 -0.341166,0.823957 z"
       id="path4-36-6-3-2-2-9"
       style="fill:#d1d5e9;fill-opacity:1;stroke-width:0.160926;enable-background:new" />
  </g>
  <g
     id="hover-inactive-center"
     transform="translate(22,22)">
    <rect
       id="rect4266-3-67"
       width="22"
       height="22"
       x="0"
       y="0"
       style="opacity:0.00100002;fill:#000000;fill-opacity:1;fill-rule:nonzero;stroke:none;stroke-width:2;stroke-linecap:round;stroke-linejoin:round;stroke-miterlimit:4;stroke-dasharray:none;stroke-opacity:1" />
    <rect
       width="18.663559"
       height="18.663555"
       rx="9.3317795"
       ry="9.3317776"
       x="1.66822"
       y="1.66822"
       id="rect3000-9-3-3-7-5-9-2"
       style="color:#000000;display:inline;overflow:visible;visibility:visible;fill:#7580bc;fill-opacity:0.60000002;stroke:#000405;stroke-width:1.33644;stroke-opacity:0.01;marker:none;enable-background:accumulate" />
    <path
       d="m 4.9823656,10 a 0.48278835,0.48278835 0 0 1 0.341174,0.141622 l 5.6936864,5.693682 5.693684,-5.693682 a 0.48278835,0.48278835 0 0 1 0.682339,0.682335 L 11.35839,16.85881 a 0.48278835,0.48278835 0 0 1 -0.682334,0 L 4.6411976,10.823957 A 0.48278835,0.48278835 0 0 1 4.9823656,10 Z"
       id="path4-3-3-5-6-1-3"
       style="fill:#d1d5e9;fill-opacity:1;stroke-width:0.160926;enable-background:new" />
    <path
       d="M 17.040413,12 A 0.48278835,0.48278835 0 0 1 16.699239,11.858378 L 11.005552,6.164696 5.3118686,11.858378 A 0.48278835,0.48278835 0 0 1 4.6295296,11.176043 L 10.664388,5.141191 a 0.48278835,0.48278835 0 0 1 0.682334,0 l 6.034857,6.034852 A 0.48278835,0.48278835 0 0 1 17.040413,12 Z"
       id="path4-36-6-3-2-2-7"
       style="fill:#d1d5e9;fill-opacity:1;stroke-width:0.160926;enable-background:new" />
  </g>
</svg>
