<?xml version="1.0" encoding="UTF-8" standalone="no"?>
<svg
   width="64"
   height="64"
   version="1.1"
   id="svg7426"
   sodipodi:docname="1cestart.svg"
   inkscape:version="1.4 (e7c3feb100, 2024-10-09)"
   xmlns:inkscape="http://www.inkscape.org/namespaces/inkscape"
   xmlns:sodipodi="http://sodipodi.sourceforge.net/DTD/sodipodi-0.dtd"
   xmlns:xlink="http://www.w3.org/1999/xlink"
   xmlns="http://www.w3.org/2000/svg"
   xmlns:svg="http://www.w3.org/2000/svg">
  <sodipodi:namedview
     id="namedview7428"
     pagecolor="#ffffff"
     bordercolor="#666666"
     borderopacity="1.0"
     inkscape:showpageshadow="2"
     inkscape:pageopacity="0.0"
     inkscape:pagecheckerboard="0"
     inkscape:deskcolor="#d1d1d1"
     showgrid="false"
     inkscape:zoom="6.9532167"
     inkscape:cx="26.390663"
     inkscape:cy="38.471403"
     inkscape:window-width="1920"
     inkscape:window-height="1004"
     inkscape:window-x="0"
     inkscape:window-y="0"
     inkscape:window-maximized="1"
     inkscape:current-layer="svg7426">
    <inkscape:grid
       id="grid1"
       units="px"
       originx="0"
       originy="0"
       spacingx="1"
       spacingy="1"
       empcolor="#0099e5"
       empopacity="0.30196078"
       color="#0099e5"
       opacity="0.14901961"
       empspacing="5"
       dotted="false"
       gridanglex="30"
       gridanglez="30"
       visible="false" />
  </sodipodi:namedview>
  <defs
     id="defs7410">
    <linearGradient
       id="linearGradient10050">
      <stop
         style="stop-color:#a3be8c;stop-opacity:1;"
         offset="0"
         id="stop10046" />
      <stop
         style="stop-color:#739755;stop-opacity:1;"
         offset="1"
         id="stop10048" />
    </linearGradient>
    <linearGradient
       id="linearGradient4154">
      <stop
         offset="0"
         style="stop-color:#000000;stop-opacity:1"
         id="stop7390" />
      <stop
         offset="1"
         style="stop-color:#000000;stop-opacity:0"
         id="stop7392" />
    </linearGradient>
    <linearGradient
       id="linearGradient4192">
      <stop
         style="stop-color:#272b2d;stop-opacity:1"
         offset="0"
         id="stop7395" />
      <stop
         style="stop-color:#33393e;stop-opacity:1"
         offset="1"
         id="stop7397" />
    </linearGradient>
    <linearGradient
       id="linearGradient4140">
      <stop
         style="stop-color:#279646;stop-opacity:1"
         offset="0"
         id="stop7400" />
      <stop
         style="stop-color:#76ff68;stop-opacity:1"
         offset="1"
         id="stop7402" />
    </linearGradient>
    <linearGradient
       xlink:href="#linearGradient4140"
       id="linearGradient4146"
       x1="24.705"
       y1="43.938999"
       x2="25.061001"
       y2="4.4050002"
       gradientUnits="userSpaceOnUse"
       gradientTransform="translate(107.1821,-36.883996)" />
    <linearGradient
       xlink:href="#linearGradient4192"
       id="linearGradient4166"
       x1="31"
       y1="34"
       x2="31"
       y2="24"
       gradientUnits="userSpaceOnUse"
       gradientTransform="translate(107.1821,-36.883996)" />
    <linearGradient
       xlink:href="#linearGradient4192"
       id="linearGradient4168"
       x1="18"
       y1="34"
       x2="18"
       y2="24"
       gradientUnits="userSpaceOnUse"
       gradientTransform="translate(107.1821,-36.883996)" />
    <linearGradient
       xlink:href="#linearGradient4154"
       id="linearGradient4182"
       x1="13"
       y1="24"
       x2="30"
       y2="41"
       gradientUnits="userSpaceOnUse"
       gradientTransform="translate(107.1821,-36.883996)" />
    <linearGradient
       xlink:href="#linearGradient4154"
       id="linearGradient4190"
       x1="29"
       y1="26"
       x2="36"
       y2="33"
       gradientUnits="userSpaceOnUse"
       gradientTransform="translate(107.1821,-36.883996)" />
    <linearGradient
       inkscape:collect="always"
       xlink:href="#linearGradient22063-0"
       id="linearGradient22065-6"
       x1="-22"
       y1="5.1111121"
       x2="-6.4444442"
       y2="-9.1111107"
       gradientUnits="userSpaceOnUse"
       gradientTransform="matrix(3.6250002,0,0,3.6250002,82.750001,39.249999)" />
    <linearGradient
       inkscape:collect="always"
       id="linearGradient22063-0">
      <stop
         style="stop-color:#b380ff;stop-opacity:1"
         offset="0"
         id="stop22059-6" />
      <stop
         style="stop-color:#1a80e2;stop-opacity:1;"
         offset="1"
         id="stop22061-2" />
    </linearGradient>
    <linearGradient
       inkscape:collect="always"
       xlink:href="#linearGradient1"
       id="linearGradient3"
       x1="16.926458"
       y1="10.156886"
       x2="42.881199"
       y2="41.530052"
       gradientUnits="userSpaceOnUse"
       gradientTransform="matrix(1.1406251,0,0,1.1428576,-12.726034,61.815289)" />
    <linearGradient
       id="linearGradient1"
       inkscape:collect="always">
      <stop
         style="stop-color:#ffffff;stop-opacity:1;"
         offset="0"
         id="stop1" />
      <stop
         style="stop-color:#eab8ea;stop-opacity:1;"
         offset="1"
         id="stop3" />
    </linearGradient>
  </defs>
  <path
     d="m 2.9999985,10.25 c 0,-4.004175 3.245938,-7.25 7.2500005,-7.25 h 43.500003 c 4.004173,0 7.25,3.245825 7.25,7.25 v 43.5 c 0,4.004173 -3.245827,7.25 -7.25,7.25 H 10.249999 C 6.2459365,61 2.9999985,57.754173 2.9999985,53.75 Z"
     id="path736-7"
     style="fill:#606c86;fill-opacity:1;stroke-width:3.625" />
  <path
     d="M 2.9999985,9.796875 C 2.9999985,6.043188 6.2459365,3 10.249999,3 h 43.500003 c 4.004173,0 7.25,3.043188 7.25,6.796875 v 40.781249 c 0,3.753693 -3.245827,6.796876 -7.25,6.796876 H 10.249999 c -4.0040625,0 -7.2500005,-3.043183 -7.2500005,-6.796876 z"
     id="path738-9"
     style="fill:url(#linearGradient22065-6);fill-opacity:1;stroke-width:3.625" />
  <g
     id="g1"
     transform="translate(12.586385,-61.635732)">
    <g
       id="g924"
       style="opacity:0.440563;stroke-width:2.1034"
       transform="matrix(2.0704313,0,0,2.0327867,-15.628143,59.194363)">
      <path
         style="fill:#6b00d4;fill-opacity:0.309001;stroke-width:0.864889"
         d="m 10.890981,9.676859 c -0.9111662,0 -1.6447052,0.733537 -1.6447052,1.644705 v 3.700584 c 0,0.911168 0.733539,1.644704 1.6447052,1.644704 h 1.644705 c 0.911166,0 1.644705,-0.733536 1.644705,-1.644704 v -3.700584 c 0,-0.911168 -0.733539,-1.644705 -1.644705,-1.644705 z m 5.756465,0 c -0.911166,0 -1.644703,0.733537 -1.644703,1.644705 v 3.700584 c 0,0.911168 0.733537,1.644704 1.644703,1.644704 h 1.644704 c 0.776262,0 1.419441,-0.534142 1.594111,-1.25521 l -1.232727,-0.528427 c -0.112352,0.32011 -0.413112,0.550109 -0.77256,0.550109 h -0.822352 c -0.455582,0 -0.822353,-0.366769 -0.822353,-0.822353 v -2.87823 c 0,-0.455585 0.366771,-0.822353 0.822353,-0.822353 h 0.822352 c 0.359448,0 0.660201,0.229992 0.77256,0.550108 L 19.886261,10.93207 C 19.711589,10.211001 19.068412,9.676859 18.29215,9.676859 Z m 5.756463,0 c -0.911164,0 -1.644702,0.733537 -1.644702,1.644705 v 3.700584 c 0,0.911168 0.733538,1.644704 1.644702,1.644704 h 1.644705 c 0.776262,0 1.419441,-0.534142 1.594112,-1.25521 L 24.41,14.883215 c -0.112352,0.32011 -0.413115,0.550109 -0.772562,0.550109 h -0.82235 c -0.455584,0 -0.822355,-0.366769 -0.822355,-0.822353 v -2.87823 c 0,-0.455585 0.366771,-0.822353 0.822355,-0.822353 h 0.82235 c 0.359447,0 0.660201,0.229992 0.772562,0.550108 L 25.642726,10.93207 C 25.468053,10.211001 24.824876,9.676859 24.048614,9.676859 Z m -11.101752,1.233529 h 0.822353 c 0.455584,0 0.822352,0.366768 0.822352,0.822353 v 2.87823 c 0,0.455584 -0.366768,0.822353 -0.822352,0.822353 h -0.822353 c -0.455583,0 -0.822352,-0.366769 -0.822352,-0.822353 v -2.87823 c 0,-0.455585 0.366769,-0.822353 0.822352,-0.822353 z m 2.467058,6.989993 c -0.911168,0 -1.644705,0.733537 -1.644705,1.644705 v 5.345287 h 1.233528 v -3.289409 h 2.467055 v -1.233527 h -2.467055 v -1.233528 h 3.700584 v -1.233528 z m 4.522935,0 v 1.233528 h 1.644705 v 5.756464 h 1.233529 v -5.756464 h 1.644704 v -1.233528 z"
         id="path918" />
      <path
         d="m 11.506435,9.95294 c -0.911166,0 -1.6447052,0.733537 -1.6447052,1.644705 v 3.700584 c 0,0.911168 0.7335392,1.644704 1.6447052,1.644704 h 1.644705 c 0.911166,0 1.644705,-0.733536 1.644705,-1.644704 v -3.700584 c 0,-0.911168 -0.733539,-1.644705 -1.644705,-1.644705 z m 5.756465,0 c -0.911166,0 -1.644703,0.733537 -1.644703,1.644705 v 3.700584 c 0,0.911168 0.733537,1.644704 1.644703,1.644704 h 1.644704 c 0.776262,0 1.419441,-0.534142 1.594111,-1.25521 l -1.232727,-0.528427 c -0.112352,0.32011 -0.413112,0.550109 -0.77256,0.550109 h -0.822352 c -0.455582,0 -0.822353,-0.366769 -0.822353,-0.822353 v -2.87823 c 0,-0.455585 0.366771,-0.822353 0.822353,-0.822353 h 0.822352 c 0.359448,0 0.660201,0.229992 0.77256,0.550108 l 1.232727,-0.528426 C 20.327043,10.487082 19.683866,9.95294 18.907604,9.95294 Z m 5.756463,0 c -0.911164,0 -1.644702,0.733537 -1.644702,1.644705 v 3.700584 c 0,0.911168 0.733538,1.644704 1.644702,1.644704 h 1.644705 c 0.776262,0 1.419441,-0.534142 1.594112,-1.25521 l -1.232726,-0.528427 c -0.112352,0.32011 -0.413115,0.550109 -0.772562,0.550109 h -0.82235 c -0.455584,0 -0.822355,-0.366769 -0.822355,-0.822353 v -2.87823 c 0,-0.455585 0.366771,-0.822353 0.822355,-0.822353 h 0.82235 c 0.359447,0 0.660201,0.229992 0.772562,0.550108 L 26.25818,11.208151 C 26.083507,10.487082 25.44033,9.95294 24.664068,9.95294 Z m -11.101752,1.233529 h 0.822353 c 0.455584,0 0.822352,0.366768 0.822352,0.822353 v 2.87823 c 0,0.455584 -0.366768,0.822353 -0.822352,0.822353 h -0.822353 c -0.455583,0 -0.822352,-0.366769 -0.822352,-0.822353 v -2.87823 c 0,-0.455585 0.366769,-0.822353 0.822352,-0.822353 z m 2.467058,6.989993 c -0.911168,0 -1.644705,0.733537 -1.644705,1.644705 v 5.345287 h 1.233528 v -3.289409 h 2.467055 V 20.643518 H 13.973492 V 19.40999 h 3.700584 v -1.233528 z m 4.522935,0 v 1.233528 h 1.644705 v 5.756464 h 1.233529 V 19.40999 h 1.644704 v -1.233528 z"
         id="path920"
         style="fill:#6700cc;fill-opacity:0.3" />
    </g>
    <path
       d="m 5.642863,78.352396 c -1.8865048,0 -3.405248,1.491125 -3.405248,3.343338 v 7.522498 c 0,1.85221 1.5187432,3.343332 3.405248,3.343332 h 3.4052502 c 1.8865098,0 3.4052508,-1.491122 3.4052508,-3.343332 v -7.522498 c 0,-1.852213 -1.518741,-3.343338 -3.4052508,-3.343338 z m 11.918366,0 c -1.886506,0 -3.405244,1.491125 -3.405244,3.343338 v 7.522498 c 0,1.85221 1.518738,3.343332 3.405244,3.343332 h 3.405244 c 1.607197,0 2.938856,-1.085795 3.300502,-2.551582 L 21.7147,88.935815 c -0.23262,0.650712 -0.85532,1.118252 -1.599538,1.118252 h -1.702623 c -0.94325,0 -1.702624,-0.745567 -1.702624,-1.671673 V 82.53157 c 0,-0.926111 0.759374,-1.671678 1.702624,-1.671678 h 1.702623 c 0.744218,0 1.366895,0.467525 1.599538,1.118261 l 2.552275,-1.074174 C 23.905322,79.438192 22.57367,78.352396 20.966473,78.352396 Z m 11.918358,0 c -1.886498,0 -3.405241,1.491125 -3.405241,3.343338 v 7.522498 c 0,1.85221 1.518743,3.343332 3.405241,3.343332 h 3.405251 c 1.607192,0 2.938856,-1.085795 3.300496,-2.551582 l -2.55227,-1.074167 c -0.232619,0.650712 -0.855331,1.118252 -1.599539,1.118252 h -1.702624 c -0.943246,0 -1.702626,-0.745567 -1.702626,-1.671673 V 82.53157 c 0,-0.926111 0.75938,-1.671678 1.702626,-1.671678 h 1.702624 c 0.744208,0 1.366906,0.467525 1.599539,1.118261 l 2.55227,-1.074174 C 35.823691,79.438192 34.49203,78.352396 32.884838,78.352396 Z M 6.4941752,80.859892 h 1.702626 c 0.9432554,0 1.7026234,0.745567 1.7026234,1.671678 v 5.850824 c 0,0.926106 -0.759368,1.671673 -1.7026234,1.671673 h -1.702626 c -0.9432547,0 -1.7026231,-0.745567 -1.7026231,-1.671673 V 82.53157 c 0,-0.926111 0.7593684,-1.671678 1.7026231,-1.671678 z m 5.1078728,14.209173 c -1.8865106,0 -3.4052468,1.49112 -3.4052468,3.343333 v 10.865782 h 2.5539328 v -6.68663 h 5.107869 v -2.50747 h -5.107869 v -2.507513 h 7.661805 v -2.507502 z m 9.364425,0 v 2.507502 h 3.40525 v 11.701613 h 2.553935 V 97.576567 h 3.405243 v -2.507502 z"
       id="path10"
       style="fill:url(#linearGradient3);fill-opacity:1;stroke-width:1.14174" />
  </g>
</svg>
