<?xml version="1.0" encoding="UTF-8" standalone="no"?>
<svg
   width="64"
   height="64"
   version="1.1"
   id="svg5623"
   sodipodi:docname="amsynth.svg"
   inkscape:version="1.3.2 (091e20ef0f, 2023-11-25)"
   xmlns:inkscape="http://www.inkscape.org/namespaces/inkscape"
   xmlns:sodipodi="http://sodipodi.sourceforge.net/DTD/sodipodi-0.dtd"
   xmlns:xlink="http://www.w3.org/1999/xlink"
   xmlns="http://www.w3.org/2000/svg"
   xmlns:svg="http://www.w3.org/2000/svg">
  <sodipodi:namedview
     id="namedview5625"
     pagecolor="#ffffff"
     bordercolor="#666666"
     borderopacity="1.0"
     inkscape:showpageshadow="2"
     inkscape:pageopacity="0.0"
     inkscape:pagecheckerboard="0"
     inkscape:deskcolor="#d1d1d1"
     showgrid="false"
     inkscape:zoom="4.9166667"
     inkscape:cx="24.406779"
     inkscape:cy="24.305085"
     inkscape:window-width="1920"
     inkscape:window-height="994"
     inkscape:window-x="0"
     inkscape:window-y="0"
     inkscape:window-maximized="1"
     inkscape:current-layer="svg5623" />
  <defs
     id="defs5611">
    <linearGradient
       id="a"
       y1="40"
       x1="43"
       y2="4"
       x2="13"
       gradientUnits="userSpaceOnUse"
       gradientTransform="translate(96.426145,-47.468069)">
      <stop
         stop-color="#f27935"
         id="stop5601" />
      <stop
         offset="1"
         stop-color="#f2784b"
         id="stop5603" />
    </linearGradient>
    <linearGradient
       id="b"
       y1="27.129999"
       x1="24.129999"
       y2="41"
       x2="38"
       gradientUnits="userSpaceOnUse"
       gradientTransform="translate(96.426145,-47.468069)">
      <stop
         stop-color="#292c2f"
         id="stop5606" />
      <stop
         offset="1"
         stop-opacity="0"
         id="stop5608" />
    </linearGradient>
    <linearGradient
       inkscape:collect="always"
       xlink:href="#linearGradient22063-0"
       id="linearGradient22065-6"
       x1="-22"
       y1="5.1111121"
       x2="-6.4444442"
       y2="-9.1111107"
       gradientUnits="userSpaceOnUse"
       gradientTransform="matrix(3.6250002,0,0,3.6250002,82.750001,39.249999)" />
    <linearGradient
       inkscape:collect="always"
       id="linearGradient22063-0">
      <stop
         style="stop-color:#ebcb8b;stop-opacity:1;"
         offset="0"
         id="stop22059-6" />
      <stop
         style="stop-color:#d08770;stop-opacity:1;"
         offset="1"
         id="stop22061-2" />
    </linearGradient>
    <linearGradient
       inkscape:collect="always"
       xlink:href="#linearGradient2546"
       id="linearGradient2548"
       x1="9.5045633"
       y1="7.9633036"
       x2="9.5045633"
       y2="70.504845"
       gradientUnits="userSpaceOnUse"
       gradientTransform="matrix(1.8093525,0,0,1.8103999,-1.0136312,-2.5007547)" />
    <linearGradient
       inkscape:collect="always"
       id="linearGradient2546">
      <stop
         style="stop-color:#ffffff;stop-opacity:1;"
         offset="0"
         id="stop2542" />
      <stop
         style="stop-color:#ee4f22;stop-opacity:0.97647059"
         offset="1"
         id="stop2544" />
    </linearGradient>
  </defs>
  <path
     d="m 2.9999985,10.25 c 0,-4.004175 3.245938,-7.25 7.2500005,-7.25 h 43.500003 c 4.004173,0 7.25,3.245825 7.25,7.25 v 43.5 c 0,4.004173 -3.245827,7.25 -7.25,7.25 H 10.249999 C 6.2459365,61 2.9999985,57.754173 2.9999985,53.75 Z"
     id="path736-7"
     style="fill:#606c86;fill-opacity:1;stroke-width:3.625" />
  <path
     d="M 2.9999985,9.7968747 C 2.9999985,6.043188 6.2459365,3 10.249999,3 h 43.500003 c 4.004173,0 7.25,3.043188 7.25,6.7968747 V 50.578124 c 0,3.753693 -3.245827,6.796876 -7.25,6.796876 H 10.249999 c -4.0040625,0 -7.2500005,-3.043183 -7.2500005,-6.796876 z"
     id="path738-9"
     style="fill:url(#linearGradient22065-6);fill-opacity:1;stroke-width:3.625" />
  <path
     style="color:#000000;fill:#200000;fill-opacity:0.0559602;stroke-width:3.99844;stroke-linecap:round;stroke-linejoin:round;-inkscape-stroke:none"
     d="m 22.322933,12.910111 c -2.37364,-0.0024 -4.299602,1.921259 -4.301577,4.296245 V 42.96037 c -0.0057,2.378129 1.924814,4.30665 4.301577,4.30406 2.373688,-0.0017 4.296339,-1.928987 4.293746,-4.30406 V 22.930706 c 0,0 -0.348423,-2.156463 3.118852,-2.156463 3.467347,0 3.118793,2.156463 3.118793,2.156463 v 19.959363 c -0.0057,2.374983 1.920155,4.302085 4.293759,4.304047 h 6.510903 c 2.373716,-0.0017 4.296344,-1.92897 4.293751,-4.304047 -0.0017,-2.372038 -1.923064,-4.294518 -4.293751,-4.296243 h -2.209354 v -21.38747 c -0.0051,-2.374986 -1.927931,-4.298596 -4.301549,-4.296245 z"
     id="path3661"
     sodipodi:nodetypes="cccccczcccccccccc" />
  <path
     style="color:#000000;fill:#200000;fill-opacity:0.0559602;stroke-width:3.99844;stroke-linecap:round;stroke-linejoin:round;-inkscape-stroke:none"
     d="m 22.792446,13.374662 c -2.373622,-0.0024 -4.299641,1.921253 -4.301597,4.296242 V 43.42492 c -0.0058,2.378131 1.92482,4.30664 4.301597,4.304053 C 25.16611,47.727272 27.088761,45.8 27.086209,43.42492 V 23.395248 c 0,0 -0.34848,-2.156458 3.118803,-2.156458 3.467386,0 3.11879,2.156458 3.11879,2.156458 v 19.959367 c -0.0057,2.374987 1.920162,4.302079 4.293769,4.304056 h 6.510916 c 2.373715,-0.0017 4.296366,-1.92897 4.293741,-4.304056 -0.0017,-2.372033 -1.923074,-4.294519 -4.293741,-4.296241 h -2.209324 v -21.38747 c -0.0051,-2.374989 -1.927969,-4.298599 -4.301592,-4.296242 z"
     id="path3897"
     sodipodi:nodetypes="cccccczcccccccccc" />
  <path
     style="color:#000000;fill:#200000;fill-opacity:0.0559602;stroke-width:3.99844;stroke-linecap:round;stroke-linejoin:round;-inkscape-stroke:none"
     d="m 23.370161,14.145676 c -2.373596,-0.0024 -4.299601,1.921262 -4.301585,4.296245 v 25.754032 c -0.0058,2.378119 1.924802,4.30665 4.301585,4.304043 2.37372,-0.0017 4.296355,-1.928971 4.293777,-4.304043 V 24.166271 c 0,0 -0.348527,-2.156461 3.118829,-2.156461 3.467376,0 3.118817,2.156461 3.118817,2.156461 V 44.12564 c -0.0058,2.374973 1.92014,4.302085 4.293788,4.304048 h 6.510883 c 2.373713,-0.0017 4.296332,-1.92898 4.293742,-4.304048 -0.0018,-2.372036 -1.923088,-4.294522 -4.293742,-4.296246 H 42.496902 V 18.441921 c -0.0042,-2.374983 -1.927937,-4.298594 -4.30153,-4.296245 z"
     id="path3899"
     sodipodi:nodetypes="cccccczcccccccccc" />
  <path
     style="color:#000000;fill:url(#linearGradient2548);fill-opacity:1;stroke-width:3.99844;stroke-linecap:round;stroke-linejoin:round;-inkscape-stroke:none"
     d="m 21.801573,12.500002 c -2.373618,-0.0024 -4.299592,1.921256 -4.30156,4.296242 v 25.754012 c -0.0058,2.378146 1.924797,4.306654 4.30156,4.304063 2.37372,-0.0018 4.29634,-1.928969 4.293757,-4.304063 V 22.520592 c 0,0 -0.34848,-2.156459 3.118837,-2.156459 3.467371,0 3.118819,2.156459 3.118819,2.156459 v 19.959365 c -0.0058,2.374984 1.92015,4.302092 4.293752,4.30405 h 6.5109 c 2.37371,-0.0017 4.29635,-1.928966 4.293781,-4.30405 -0.0018,-2.372034 -1.923124,-4.294518 -4.293781,-4.296242 H 40.928304 V 16.796244 c -0.0051,-2.374986 -1.927945,-4.298598 -4.301566,-4.296242 z"
     id="path1074"
     sodipodi:nodetypes="cccccczcccccccccc" />
</svg>
