<?xml version="1.0" encoding="UTF-8" standalone="no"?>
<svg
   width="64"
   height="64"
   version="1.1"
   id="svg324"
   sodipodi:docname="apifox.svg"
   inkscape:version="1.4 (unknown)"
   xmlns:inkscape="http://www.inkscape.org/namespaces/inkscape"
   xmlns:sodipodi="http://sodipodi.sourceforge.net/DTD/sodipodi-0.dtd"
   xmlns:xlink="http://www.w3.org/1999/xlink"
   xmlns="http://www.w3.org/2000/svg"
   xmlns:svg="http://www.w3.org/2000/svg">
  <defs
     id="defs328">
    <linearGradient
       inkscape:collect="always"
       xlink:href="#linearGradient22063"
       id="linearGradient22065"
       x1="-14"
       y1="6"
       x2="-14"
       y2="-9.999999"
       gradientUnits="userSpaceOnUse"
       gradientTransform="matrix(3.6250002,0,0,3.6250002,82.750004,39.249999)" />
    <linearGradient
       inkscape:collect="always"
       id="linearGradient22063">
      <stop
         style="stop-color:#b64954;stop-opacity:1;"
         offset="0"
         id="stop22059" />
      <stop
         style="stop-color:#b90000;stop-opacity:1;"
         offset="1"
         id="stop22061" />
    </linearGradient>
    <linearGradient
       xlink:href="#linearGradient4801"
       id="linearGradient4809"
       x1="21.974001"
       y1="13.094"
       x2="39.379002"
       y2="30.499001"
       gradientUnits="userSpaceOnUse"
       gradientTransform="matrix(1.512535,0,0,1.512535,0.23675899,-4.728635)" />
    <linearGradient
       id="linearGradient4801">
      <stop
         style="stop-color:#000000;stop-opacity:1;"
         offset="0"
         id="stop176-3" />
      <stop
         style="stop-color:#000000;stop-opacity:0;"
         offset="1"
         id="stop178" />
    </linearGradient>
    <linearGradient
       xlink:href="#linearGradient4801"
       id="linearGradient4811"
       x1="21.948999"
       y1="22.740999"
       x2="34.498001"
       y2="35.291"
       gradientUnits="userSpaceOnUse"
       gradientTransform="matrix(1.512535,0,0,1.512535,0.23675899,-4.728635)" />
  </defs>
  <sodipodi:namedview
     id="namedview326"
     pagecolor="#ffffff"
     bordercolor="#666666"
     borderopacity="1.0"
     inkscape:showpageshadow="2"
     inkscape:pageopacity="0.0"
     inkscape:pagecheckerboard="0"
     inkscape:deskcolor="#d1d1d1"
     showgrid="false"
     inkscape:zoom="3.6875"
     inkscape:cx="47.728814"
     inkscape:cy="99.118644"
     inkscape:window-width="1920"
     inkscape:window-height="996"
     inkscape:window-x="0"
     inkscape:window-y="0"
     inkscape:window-maximized="1"
     inkscape:current-layer="svg324" />
  <path
     d="m 2.999999,10.25 c 0,-4.004175 3.24594,-7.25 7.25,-7.25 h 43.500005 c 4.00417,0 7.25,3.245825 7.25,7.25 v 43.5 c 0,4.004173 -3.24583,7.25 -7.25,7.25 H 10.249999 c -4.00406,0 -7.25,-3.245827 -7.25,-7.25 z"
     id="path736"
     style="fill:#606c86;fill-opacity:1;stroke-width:3.625" />
  <path
     d="M 2.999999,9.796875 C 2.999999,6.043188 6.245939,3 10.249999,3 h 43.500005 c 4.00417,0 7.25,3.043188 7.25,6.796875 v 40.781249 c 0,3.753693 -3.24583,6.796876 -7.25,6.796876 H 10.249999 c -4.00406,0 -7.25,-3.043183 -7.25,-6.796876 z"
     id="path738"
     style="fill:url(#linearGradient22065);fill-opacity:1;stroke-width:3.625" />
  <g
     id="g1"
     transform="translate(-21.999982,-95.000015)">
    <path
       style="opacity:0.2;stroke-width:1.05408"
       d="m 61.740191,109.05556 c 1.300285,1.67055 2.120463,3.65994 2.374565,5.75814 0.0096,0.073 0.01933,0.14665 0.02679,0.2206 4.59e-4,0.006 4.59e-4,0.0118 0,0.0164 0.0077,0.0758 0.015,0.15218 0.02062,0.22886 v 0.0393 c 0.0067,0.0758 0.01006,0.15102 0.0145,0.22678 0.0047,0.0758 0.0099,0.1531 0.01228,0.22883 0,0.0536 -0.0014,0.1072 0.0041,0.16082 -4.66e-4,0.009 -4.66e-4,0.0182 0,0.0269 v 0.0969 0.17728 c 0.0033,2.39797 -0.733572,4.73751 -2.111408,6.70442 0.151588,0.71396 0.228017,1.44323 0.228203,2.17298 2.82e-4,0.49228 -0.03339,0.98255 -0.102785,1.46994 0.667298,-0.15711 1.315939,-0.38015 1.938708,-0.66591 0.462553,-0.21069 0.910048,-0.45544 1.336327,-0.73188 0.08722,0.30212 0.161537,0.60959 0.219984,0.92361 0.124502,0.64939 0.186141,1.3098 0.18503,1.97093 2.81e-4,0.52563 -0.03846,1.05125 -0.117179,1.57095 0.92177,-0.0953 1.825227,-0.31348 2.689108,-0.64736 0.453372,-0.17483 0.893953,-0.38138 1.317828,-0.61847 0.06361,0.35326 0.109043,0.70994 0.135686,1.06791 0.01982,0.2599 0.0287,0.52275 0.0287,0.78755 4.65e-4,0.72374 -0.07289,1.44403 -0.222035,2.15235 1.085518,-0.0445 2.156985,-0.25672 3.176359,-0.63087 0.731128,-1.94835 1.104279,-4.01225 1.101958,-6.09213 0.0083,-0.45635 -0.0046,-0.9066 -0.03913,-1.35241 -0.102119,-1.32678 -0.357773,-2.63803 -0.760685,-3.9068 -0.160215,0.43019 -0.36324,0.84308 -0.606482,1.23285 -0.314692,-2.07221 -1.04443,-4.05911 -2.146369,-5.84472 -1.10203,-1.78562 -2.553529,-3.33205 -4.268042,-4.54798 -1.189875,-0.84728 -2.494253,-1.52404 -3.873299,-2.01007 -0.185519,-0.0659 -0.373398,-0.12827 -0.563297,-0.18556 z m -15.799533,0.0206 c -1.605591,0.72681 -3.109298,1.65809 -4.473632,2.77085 -3.457159,2.81281 -5.888802,6.68018 -6.920134,11.00499 -0.364502,1.53329 -0.548309,3.10225 -0.546863,4.67784 -0.0058,3.39242 0.848631,6.73181 2.483521,9.70825 0.110788,-0.97765 0.360652,-1.93547 0.742166,-2.843 1.231779,2.96332 3.185076,5.57567 5.682501,7.60123 2.497382,2.02557 5.460514,3.40168 8.62446,4.0037 -0.543627,-0.70463 -0.992621,-1.47545 -1.338383,-2.2946 1.68444,0.54401 3.437237,0.84104 5.207577,0.88444 0.156788,0 0.315152,0.006 0.472863,0.006 2.812531,0.004 5.589181,-0.63759 8.112553,-1.87403 -0.420152,-0.23607 -0.82394,-0.49933 -1.206813,-0.79167 2.802431,-1.06898 5.281232,-2.83804 7.199739,-5.13553 0.889299,-1.06363 1.647984,-2.22896 2.259431,-3.47177 -0.952302,0.34478 -1.948917,0.54989 -2.960487,0.60817 -0.215223,0.0148 -0.433415,0.0207 -0.649664,0.0207 h -0.215865 c 0.132845,-0.51371 0.225123,-1.03695 0.277547,-1.56477 0.03348,-0.34091 0.05145,-0.68696 0.05145,-1.03701 1.9e-4,-0.39106 -0.02169,-0.78039 -0.06571,-1.16895 -1.018629,0.50329 -2.114982,0.83547 -3.242152,0.98547 -0.313564,0.0424 -0.62959,0.0696 -0.951874,0.0824 0.102667,-0.50771 0.166523,-1.02068 0.191197,-1.53798 0.0086,-0.1718 0.01228,-0.34589 0.01228,-0.51953 6.52e-4,-0.74305 -0.07892,-1.48375 -0.236424,-2.21007 -0.797459,0.46826 -1.653964,0.82772 -2.547245,1.06998 -0.322935,0.0873 -0.652207,0.16126 -0.98683,0.21854 l -0.0086,-0.0118 c 0.09737,-0.48479 0.160925,-0.97626 0.187089,-1.46994 0.01109,-0.18481 0.0145,-0.36877 0.0145,-0.56282 1.76e-4,-0.62816 -0.05548,-1.25389 -0.168588,-1.87197 -1.100258,1.14906 -2.423593,2.06231 -3.889754,2.6863 -1.466247,0.62411 -3.045607,0.94421 -4.640147,0.94218 -1.882694,0.003 -3.738827,-0.44403 -5.411111,-1.30501 0.760978,-0.2938 1.484972,-0.67641 2.156625,-1.13803 -1.783789,-0.85296 -3.288536,-2.18955 -4.34204,-3.85731 -1.053512,-1.66768 -1.612284,-3.59836 -1.611825,-5.56848 -3.35e-4,-0.63132 0.0567,-1.26122 0.170643,-1.88227 0.111794,-0.61556 0.279538,-1.21877 0.50164,-1.80393 0.218838,-0.57718 0.489106,-1.13475 0.807968,-1.66373 0.360966,-0.6034 0.782571,-1.16767 1.258206,-1.68642 z"
       id="path4" />
    <path
       style="fill:#ffffff;stroke-width:1.05408"
       d="m 61.740191,108.00001 c 1.300285,1.67053 2.120463,3.65993 2.374565,5.75813 0.0096,0.073 0.01933,0.14665 0.02679,0.22062 4.59e-4,0.006 4.59e-4,0.0118 0,0.0164 0.0077,0.0758 0.015,0.15217 0.02062,0.22883 v 0.0393 c 0.0067,0.0758 0.01006,0.15102 0.0145,0.22678 0.0047,0.0758 0.0099,0.15309 0.01228,0.22884 0,0.0535 -0.0014,0.10734 0.0041,0.1608 -4.66e-4,0.009 -4.66e-4,0.0182 0,0.0269 v 0.0969 0.17731 c 0.0033,2.39797 -0.733572,4.73751 -2.111408,6.70442 0.151588,0.71395 0.228017,1.44323 0.228203,2.17296 2.82e-4,0.4923 -0.03339,0.98256 -0.102785,1.46995 0.667298,-0.1571 1.315939,-0.38014 1.938708,-0.66591 0.462553,-0.21068 0.910048,-0.45544 1.336327,-0.73188 0.08722,0.3021 0.161537,0.6096 0.219984,0.92361 0.124502,0.64939 0.186141,1.30982 0.18503,1.97093 2.81e-4,0.52564 -0.03846,1.05126 -0.117179,1.57096 0.92177,-0.0954 1.825227,-0.31348 2.689108,-0.64735 0.453372,-0.17484 0.893953,-0.3814 1.317828,-0.61848 0.06361,0.35326 0.109043,0.70993 0.135686,1.06791 0.01982,0.2599 0.0287,0.52274 0.0287,0.78754 4.65e-4,0.72374 -0.07289,1.44403 -0.222035,2.15234 1.085518,-0.0445 2.156985,-0.25671 3.176359,-0.63085 0.731128,-1.94835 1.104279,-4.01225 1.101958,-6.09213 0.0083,-0.45635 -0.0046,-0.9066 -0.03913,-1.35242 -0.102119,-1.32678 -0.357773,-2.63803 -0.760685,-3.9068 -0.160215,0.4302 -0.36324,0.84309 -0.606482,1.23286 -0.314677,-2.07221 -1.044415,-4.05912 -2.146352,-5.84473 -1.102031,-1.78562 -2.553533,-3.33206 -4.268042,-4.54798 -1.189877,-0.84726 -2.494255,-1.52404 -3.8733,-2.01007 -0.185519,-0.0659 -0.373398,-0.12827 -0.563296,-0.18556 z m -15.799533,0.0207 c -1.605591,0.7268 -3.109298,1.65809 -4.473632,2.77084 -3.457159,2.81281 -5.888802,6.68019 -6.920134,11.00499 -0.364502,1.5333 -0.548309,3.10227 -0.546863,4.67784 -0.0058,3.39243 0.848631,6.73181 2.483521,9.70824 0.110788,-0.97764 0.360652,-1.93544 0.742166,-2.843 1.231779,2.96331 3.185076,5.57569 5.682501,7.60124 2.497382,2.02559 5.460514,3.40169 8.62446,4.00369 -0.543627,-0.70462 -0.992621,-1.47543 -1.338383,-2.29459 1.68444,0.544 3.437237,0.84104 5.207577,0.88444 0.156788,0 0.315152,0.006 0.472863,0.006 2.812531,0.004 5.589181,-0.63758 8.112553,-1.87402 -0.420152,-0.23608 -0.82394,-0.49935 -1.206813,-0.79169 2.802431,-1.06898 5.281232,-2.83804 7.199739,-5.13552 0.889299,-1.06362 1.647984,-2.22898 2.259431,-3.47179 -0.952302,0.34478 -1.948917,0.5499 -2.960487,0.60819 -0.215223,0.0148 -0.433415,0.0206 -0.649664,0.0206 h -0.215865 c 0.132845,-0.51371 0.225123,-1.03694 0.277547,-1.56478 0.03348,-0.34091 0.05145,-0.68694 0.05145,-1.037 1.9e-4,-0.39106 -0.02169,-0.78039 -0.06571,-1.16895 -1.018629,0.50328 -2.114982,0.83546 -3.242152,0.98547 -0.313564,0.0424 -0.62959,0.0696 -0.951874,0.0825 0.102667,-0.50771 0.166523,-1.02067 0.191197,-1.53798 0.0086,-0.17179 0.01228,-0.34589 0.01228,-0.51953 6.52e-4,-0.74304 -0.07892,-1.48375 -0.236424,-2.21007 -0.797459,0.46828 -1.653964,0.82772 -2.547245,1.06999 -0.322935,0.0873 -0.652207,0.16127 -0.98683,0.21853 l -0.0086,-0.0118 c 0.09737,-0.4848 0.160925,-0.97627 0.187089,-1.46995 0.01109,-0.18481 0.0145,-0.36876 0.0145,-0.56281 1.76e-4,-0.62816 -0.05548,-1.25389 -0.168588,-1.87197 -1.100258,1.14906 -2.423593,2.06231 -3.889754,2.68629 -1.466247,0.62409 -3.045607,0.94422 -4.640147,0.94218 -1.882694,0.003 -3.738827,-0.44402 -5.411111,-1.305 0.760978,-0.29383 1.484972,-0.67642 2.156625,-1.13804 -1.783789,-0.85296 -3.288536,-2.18953 -4.34204,-3.8573 -1.053512,-1.66768 -1.612284,-3.59837 -1.611825,-5.56849 -3.35e-4,-0.63131 0.0567,-1.26122 0.170643,-1.88226 0.111794,-0.61556 0.279538,-1.21876 0.50164,-1.80393 0.218838,-0.57719 0.489106,-1.13475 0.807968,-1.66373 0.360966,-0.60341 0.782571,-1.16768 1.258206,-1.68642 z"
       id="path5" />
  </g>
</svg>
