<?xml version="1.0" encoding="UTF-8" standalone="no"?>
<!-- Generator: Adobe Illustrator 19.0.0, SVG Export Plug-In . SVG Version: 6.00 Build 0)  -->

<svg
   version="1.1"
   id="Layer_1"
   x="0px"
   y="0px"
   viewBox="0 0 64 64"
   xml:space="preserve"
   sodipodi:docname="conky-logomark-violet.svg"
   width="64"
   height="64"
   inkscape:version="1.3.2 (091e20ef0f, 2023-11-25)"
   xmlns:inkscape="http://www.inkscape.org/namespaces/inkscape"
   xmlns:sodipodi="http://sodipodi.sourceforge.net/DTD/sodipodi-0.dtd"
   xmlns:xlink="http://www.w3.org/1999/xlink"
   xmlns="http://www.w3.org/2000/svg"
   xmlns:svg="http://www.w3.org/2000/svg"><defs
   id="defs250"><linearGradient
   inkscape:collect="always"
   xlink:href="#linearGradient22063"
   id="linearGradient22065"
   x1="-22"
   y1="5.1111121"
   x2="-6.4444442"
   y2="-9.1111107"
   gradientUnits="userSpaceOnUse"
   gradientTransform="matrix(3.6250002,0,0,3.6250002,82.75,39.249999)" /><linearGradient
   inkscape:collect="always"
   id="linearGradient22063"><stop
     style="stop-color:#ccaaff;stop-opacity:1"
     offset="0"
     id="stop22059" /><stop
     style="stop-color:#9955ff;stop-opacity:1"
     offset="1"
     id="stop22061" /></linearGradient>
	
		

	
	
	
	
	
	

		
		
		
	
		
	
		
			
	
		
	</defs><sodipodi:namedview
   id="namedview248"
   pagecolor="#ffffff"
   bordercolor="#666666"
   borderopacity="1.0"
   inkscape:showpageshadow="2"
   inkscape:pageopacity="0.0"
   inkscape:pagecheckerboard="0"
   inkscape:deskcolor="#d1d1d1"
   showgrid="false"
   inkscape:zoom="2.4689245"
   inkscape:cx="130.42116"
   inkscape:cy="51.641919"
   inkscape:window-width="1920"
   inkscape:window-height="994"
   inkscape:window-x="0"
   inkscape:window-y="0"
   inkscape:window-maximized="1"
   inkscape:current-layer="Layer_1" />
<style
   type="text/css"
   id="style230">
	.st0{fill:#B19DCB;}
	.st1{opacity:0.4;fill:#666699;}
	.st2{fill:#583494;}
	.st3{opacity:0.4;fill:#3D296D;}
</style>


<path
   d="M 3,10.25 C 3,6.245825 6.24594,3 10.25,3 h 43.5 C 57.75417,3 61,6.245825 61,10.25 v 43.5 C 61,57.754173 57.75417,61 53.75,61 H 10.25 C 6.24594,61 3,57.754173 3,53.75 Z"
   id="path736"
   style="fill:#606c86;fill-opacity:1;stroke-width:3.625" /><path
   d="M 3,9.7968752 C 3,6.043188 6.24594,3 10.25,3 h 43.5 C 57.75418,3 61,6.043188 61,9.7968752 V 50.578124 C 61,54.331817 57.75418,57.375 53.75,57.375 H 10.25 C 6.24594,57.375 3,54.331817 3,50.578124 Z"
   id="path738"
   style="fill:url(#linearGradient22065);fill-opacity:1;stroke-width:3.625" /><rect
   style="fill:#6600ff;fill-opacity:1;stroke:none;stroke-width:3.54331"
   id="rect825"
   width="6.4795094"
   height="6.351634"
   x="38.723545"
   y="4.8364143" /><rect
   y="4.8364143"
   x="50.615452"
   height="6.351634"
   width="6.4795094"
   id="rect827"
   style="fill:#6600ff;fill-opacity:1;stroke:none;stroke-width:3.54331" /><ellipse
   ry="5.305759"
   rx="5.4161615"
   cy="88.959816"
   cx="177.65685"
   style="fill:none;stroke:none;stroke-width:3.54331"
   id="path3303" /><ellipse
   ry="2.6528795"
   rx="2.7080808"
   cy="8.0127144"
   cx="47.907383"
   id="path3305"
   style="fill:none;stroke:none;stroke-width:3.54331" /><ellipse
   ry="2.6528795"
   rx="2.7080808"
   cy="8.0127144"
   cx="36.015461"
   style="fill:none;stroke:none;stroke-width:3.54331"
   id="path3307" /><rect
   y="4.8364143"
   x="26.831606"
   height="6.351634"
   width="6.4795094"
   id="rect3309"
   style="fill:#6600ff;fill-opacity:1;stroke:none;stroke-width:3.54331"
   ry="0" /><ellipse
   ry="2.6528795"
   rx="2.7080808"
   cy="128.75185"
   cx="185.77737"
   style="fill:none;stroke:none;stroke-width:3.54331"
   id="path3317" /><path
   style="fill:#7740cb;fill-opacity:1;stroke-width:1.97015"
   d="M 17.405791,53.149401 28.74023,36.341084 17.071207,17.859987 l 7.500138,0.0098 9.298141,14.531721 -13.902652,20.75058 h -2.561043 z"
   id="path4205"
   inkscape:connector-curvature="0" /><path
   style="fill:#d1beed;fill-opacity:1;stroke-width:1.97015"
   d="M 39.590405,53.161913 30.356444,38.60515 44.37485,17.844913 h 2.497721 L 35.491845,34.732416 47.090643,53.161913 h -7.500239 z"
   id="path17-8"
   inkscape:connector-curvature="0" /></svg>
