<?xml version="1.0" encoding="UTF-8" standalone="no"?>
<svg
   width="64"
   height="64"
   version="1.1"
   id="svg23117"
   sodipodi:docname="anydesk.svg"
   inkscape:version="1.2.1 (9c6d41e410, 2022-07-14)"
   xmlns:inkscape="http://www.inkscape.org/namespaces/inkscape"
   xmlns:sodipodi="http://sodipodi.sourceforge.net/DTD/sodipodi-0.dtd"
   xmlns:xlink="http://www.w3.org/1999/xlink"
   xmlns="http://www.w3.org/2000/svg"
   xmlns:svg="http://www.w3.org/2000/svg">
  <sodipodi:namedview
     id="namedview23119"
     pagecolor="#ffffff"
     bordercolor="#666666"
     borderopacity="1.0"
     inkscape:showpageshadow="2"
     inkscape:pageopacity="0.0"
     inkscape:pagecheckerboard="0"
     inkscape:deskcolor="#d1d1d1"
     showgrid="false"
     inkscape:zoom="4.9166667"
     inkscape:cx="24.508474"
     inkscape:cy="8.2372881"
     inkscape:window-width="1920"
     inkscape:window-height="998"
     inkscape:window-x="0"
     inkscape:window-y="0"
     inkscape:window-maximized="1"
     inkscape:current-layer="svg23117" />
  <defs
     id="defs23105">
    <linearGradient
       id="a"
       y1="547.63397"
       y2="499.67899"
       x2="388.86499"
       gradientUnits="userSpaceOnUse"
       gradientTransform="translate(-453.04388,-539.81483)"
       x1="428.81601">
      <stop
         stop-color="#2a2c2f"
         id="stop23090" />
      <stop
         offset="1"
         stop-color="#536161"
         id="stop23092" />
    </linearGradient>
    <linearGradient
       id="b"
       y1="44"
       y2="12"
       x2="14"
       gradientUnits="userSpaceOnUse"
       x1="36"
       gradientTransform="translate(-68.473879,-40.014831)">
      <stop
         stop-color="#536161"
         style="stop-color:#bfc9c9;stop-opacity:1"
         id="stop23095" />
      <stop
         offset="1"
         stop-color="#f4f5f5"
         style="stop-color:#fbfbfb;stop-opacity:1"
         id="stop23097" />
    </linearGradient>
    <linearGradient
       id="c"
       y1="527.01398"
       x1="406.50101"
       y2="539.82501"
       x2="419.974"
       gradientUnits="userSpaceOnUse"
       gradientTransform="translate(-453.04388,-539.81483)">
      <stop
         stop-color="#292c2f"
         id="stop23100" />
      <stop
         offset="1"
         stop-opacity="0"
         id="stop23102" />
    </linearGradient>
    <linearGradient
       inkscape:collect="always"
       xlink:href="#linearGradient22063"
       id="linearGradient22065"
       x1="-14"
       y1="6"
       x2="-14"
       y2="-9.999999"
       gradientUnits="userSpaceOnUse"
       gradientTransform="matrix(3.6250002,0,0,3.6250002,82.750005,39.249999)" />
    <linearGradient
       inkscape:collect="always"
       id="linearGradient22063">
      <stop
         style="stop-color:#bf616a;stop-opacity:1;"
         offset="0"
         id="stop22059" />
      <stop
         style="stop-color:#d6949d;stop-opacity:1;"
         offset="1"
         id="stop22061" />
    </linearGradient>
    <linearGradient
       id="c-3"
       gradientUnits="userSpaceOnUse"
       x1="13"
       x2="27"
       y1="16"
       y2="30"
       gradientTransform="matrix(2,0,0,2,0,0.9779996)">
      <stop
         offset="0"
         id="stop157" />
      <stop
         offset="1"
         stop-opacity="0"
         id="stop159" />
    </linearGradient>
    <linearGradient
       id="b-6"
       gradientUnits="userSpaceOnUse"
       x1="6"
       x2="48"
       y1="9"
       y2="51"
       gradientTransform="matrix(2,0,0,2,0,0.9779996)">
      <stop
         offset="0"
         stop-color="#fcfcfc"
         id="stop152" />
      <stop
         offset="1"
         stop-color="#e74c3c"
         id="stop154" />
    </linearGradient>
    <linearGradient
       id="a-3"
       y1="32.998001"
       x1="34.5"
       y2="11.998"
       gradientUnits="userSpaceOnUse"
       x2="11.786">
      <stop
         stop-color="#dd1627"
         id="stop151" />
      <stop
         offset="1"
         stop-color="#df3e52"
         id="stop153" />
    </linearGradient>
    <linearGradient
       id="b-67"
       y1="10.38"
       x1="46.23"
       y2="35.662998"
       x2="73.029999"
       gradientUnits="userSpaceOnUse"
       gradientTransform="translate(-52)">
      <stop
         stop-color="#f8bac0"
         stop-opacity=".731"
         id="stop156" />
      <stop
         offset="1"
         stop-color="#f8bac0"
         stop-opacity="0"
         id="stop158" />
    </linearGradient>
    <linearGradient
       id="a-35"
       y1="32.998001"
       x1="34.5"
       y2="11.998"
       gradientUnits="userSpaceOnUse"
       x2="11.786"
       gradientTransform="translate(69.385804,-36.717377)">
      <stop
         stop-color="#dd1627"
         id="stop151-6" />
      <stop
         offset="1"
         stop-color="#df3e52"
         id="stop153-2" />
    </linearGradient>
    <linearGradient
       inkscape:collect="always"
       xlink:href="#b-67"
       id="linearGradient868"
       gradientUnits="userSpaceOnUse"
       gradientTransform="translate(-52)"
       x1="46.23"
       y1="10.38"
       x2="73.029999"
       y2="35.662998" />
    <linearGradient
       id="a-9"
       y1="32.998001"
       x1="34.5"
       y2="11.998"
       gradientUnits="userSpaceOnUse"
       x2="11.786"
       gradientTransform="matrix(1.1718437,0,0,1.1718437,3.1850126,4.706508)">
      <stop
         stop-color="#dd1627"
         id="stop151-3"
         offset="0"
         style="stop-color:#bf616a;stop-opacity:1;" />
      <stop
         offset="1"
         stop-color="#df3e52"
         id="stop153-6" />
    </linearGradient>
    <linearGradient
       inkscape:collect="always"
       xlink:href="#b-67"
       id="linearGradient1048"
       gradientUnits="userSpaceOnUse"
       gradientTransform="translate(-52)"
       x1="46.23"
       y1="10.38"
       x2="73.029999"
       y2="35.662998" />
  </defs>
  <path
     d="M 3,10.25 C 3,6.245825 6.245938,3 10.25,3 h 43.500005 c 4.00417,0 7.25,3.245825 7.25,7.25 v 43.5 c 0,4.004173 -3.24583,7.25 -7.25,7.25 H 10.25 C 6.245938,61 3,57.754173 3,53.75 Z"
     id="path736"
     style="fill:#606c86;fill-opacity:1;stroke-width:3.625" />
  <path
     d="M 3,9.796875 C 3,6.043188 6.245938,3 10.25,3 h 43.500005 c 4.00417,0 7.25,3.043188 7.25,6.796875 v 40.781249 c 0,3.753693 -3.24583,6.796876 -7.25,6.796876 H 10.25 C 6.245938,57.375 3,54.331817 3,50.578124 Z"
     id="path738"
     style="fill:url(#linearGradient22065);fill-opacity:1;stroke-width:3.625" />
  <use
     xlink:href="#c"
     id="use164"
     transform="translate(-82.546399,-28.175004)" />
  <use
     xlink:href="#c"
     id="use164-7"
     transform="translate(69.385804,-36.717377)" />
  <use
     xlink:href="#c"
     id="use168-0"
     style="color:#000000;fill:url(#linearGradient868)"
     transform="translate(69.385804,-36.717377)" />
  <use
     xlink:href="#c"
     id="use164-6"
     transform="matrix(1.1718437,0,0,1.1718437,-26.829206,-56.665225)" />
  <path
     d="M 10.25123,48.886187 31.282308,10.288 53.835612,52.034931 c 0,0 0.130075,0.322257 -0.457019,0.155855 -0.551938,-0.157027 -1.024191,-0.619905 -1.596051,-0.570687 -0.481628,0.04101 -0.768729,0.738261 -1.24567,0.662091 -0.682013,-0.108981 -1.031222,-1.408556 -1.721438,-1.388634 -0.608187,0.01758 -0.458191,1.183562 -1.36637,1.256216 -0.805056,0.06797 -0.67381,-2.140958 -1.484726,-2.208925 -0.549594,-0.0457 -0.672638,2.27572 -1.354652,2.274548 -0.721855,0 0.0293,-3.339754 -1.011301,-3.394831 -0.814431,-0.04336 -0.366787,2.930781 -1.098017,2.934297 -1.008958,0.0047 -0.15234,-4.871355 -1.396838,-4.850261 -0.884742,0.01406 0.06679,4.51277 -1.085127,4.498707 -1.060519,-0.01289 -0.03867,-6.961923 -1.229264,-6.87755 -0.982005,0.06914 0.1207,6.215459 -0.95974,6.241239 -1.30895,0.03047 -0.0059,-8.56149 -1.305434,-8.572036 -1.149579,-0.01055 -0.119528,7.600578 -1.171844,7.600578 -1.281997,0 0.0035,-9.82005 -1.215202,-9.884502 -1.326527,-0.07031 0.324601,9.864581 -1.121454,9.854034 -1.395666,-0.01055 0.398427,-12.467245 -1.218717,-12.586773 -1.324184,-0.09726 0.362099,11.661017 -0.997239,11.712578 -1.427306,0.0539 0.431238,-13.696509 -1.257389,-13.700025 -1.236295,-0.0035 0.08672,13.173867 -1.194108,13.359018 -1.183562,-0.261321 0.236712,-14.546096 -1.146063,-14.550783 -1.427306,-0.0047 0.241399,14.202746 -1.236296,14.235557 -1.238638,0.01641 0.526158,-14.25665 -1.100361,-14.202745 -1.495272,0.04453 0.05742,14.144153 -1.171843,14.120716 -1.326528,-0.01523 0.339834,-13.04262 -1.147235,-12.960591 -1.133173,0.585922 -0.04336,10.076684 -1.130829,13.090666 -1.191765,-1.183562 0.08555,-9.33022 -1.239811,-10.764556 -1.087471,1.565583 -0.236712,10.962597 -1.121454,10.997753 -1.086299,0.05273 -0.05273,-7.372069 -1.217546,-7.44238 -0.697247,-0.04219 -1.067549,8.410323 -1.921823,8.443134 -0.992552,0.09961 -0.88357,-4.75417 -1.570271,-4.738936 -0.795682,0.101951 -0.587094,5.310796 -1.631206,5.323686 -0.599984,0.142965 -0.745293,-2.05307 -1.281997,-2.001509 -0.481628,0.0457 -0.57186,2.309704 -1.367542,2.717506 -0.7277147,0.09843 -0.3738177,-0.693732 0.192183,-1.930027"
     id="path166-1"
     style="color:#000000;fill:#e81c2d;stroke-width:1.17184;fill-opacity:1" />
  <use
     xlink:href="#c"
     id="use168-8"
     style="color:#000000;fill:url(#linearGradient1048)"
     transform="matrix(1.1718437,0,0,1.1718437,-26.829206,-56.665225)" />
</svg>
