<?xml version="1.0" encoding="UTF-8" standalone="no"?>
<svg
   width="64"
   height="64"
   viewBox="0 0 64 64"
   version="1.1"
   id="svg52"
   sodipodi:docname="artikulate.svg"
   inkscape:version="1.2.1 (9c6d41e410, 2022-07-14)"
   xmlns:inkscape="http://www.inkscape.org/namespaces/inkscape"
   xmlns:sodipodi="http://sodipodi.sourceforge.net/DTD/sodipodi-0.dtd"
   xmlns:xlink="http://www.w3.org/1999/xlink"
   xmlns="http://www.w3.org/2000/svg"
   xmlns:svg="http://www.w3.org/2000/svg">
  <sodipodi:namedview
     id="namedview54"
     pagecolor="#a4a4a4"
     bordercolor="#eeeeee"
     borderopacity="1"
     inkscape:pageshadow="0"
     inkscape:pageopacity="0"
     inkscape:pagecheckerboard="0"
     showgrid="false"
     inkscape:zoom="5.2604167"
     inkscape:cx="36.40396"
     inkscape:cy="10.930693"
     inkscape:window-width="1920"
     inkscape:window-height="1002"
     inkscape:window-x="0"
     inkscape:window-y="0"
     inkscape:window-maximized="1"
     inkscape:current-layer="svg52"
     inkscape:showpageshadow="2"
     inkscape:deskcolor="#c9c9c9" />
  <defs
     id="defs32">
    <linearGradient
       xlink:href="#linearGradient4393"
       id="linearGradient4399"
       x1="424.44101"
       y1="502.85001"
       x2="440.87799"
       y2="529.57599"
       gradientUnits="userSpaceOnUse"
       gradientTransform="matrix(0.69224711,0,0,0.69224711,-215.22899,-357.13539)" />
    <linearGradient
       id="linearGradient4393">
      <stop
         style="stop-color:#000000;stop-opacity:1;"
         offset="0"
         id="stop3" />
      <stop
         style="stop-color:#000000;stop-opacity:0;"
         offset="1"
         id="stop5" />
    </linearGradient>
    <linearGradient
       xlink:href="#linearGradient4274"
       id="linearGradient4217"
       gradientUnits="userSpaceOnUse"
       gradientTransform="matrix(0.69224711,0,0,0.69224711,-199.3073,1639.8968)"
       x1="390.57101"
       y1="498.298"
       x2="442.57101"
       y2="498.298" />
    <linearGradient
       id="linearGradient4274">
      <stop
         offset="0"
         style="stop-color:#ffffff;stop-opacity:1;"
         id="stop9" />
      <stop
         offset="1"
         style="stop-color:#ffffff;stop-opacity:0.48760331"
         id="stop11" />
    </linearGradient>
    <linearGradient
       xlink:href="#linearGradient4227"
       id="linearGradient4225"
       gradientUnits="userSpaceOnUse"
       x1="396.57101"
       y1="498.798"
       x2="426.57101"
       y2="511.798"
       gradientTransform="matrix(0.69224711,0,0,0.69224711,-199.3073,-360.21214)" />
    <linearGradient
       id="linearGradient4227">
      <stop
         offset="0"
         style="stop-color:#f5f5f5;stop-opacity:1"
         id="stop21" />
      <stop
         offset="1"
         style="stop-color:#f9f9f9;stop-opacity:1"
         id="stop23" />
    </linearGradient>
    <style
       id="current-color-scheme"
       type="text/css">      .ColorScheme-Highlight {
        color:#3593e6;
      }
</style>
    <linearGradient
       id="d"
       gradientUnits="userSpaceOnUse"
       x1="4"
       x2="18.999998"
       xlink:href="#c"
       y1="5"
       y2="20"
       gradientTransform="matrix(2.7999616,0,0,2.7999616,1.095156,-2.3992319)" />
    <linearGradient
       id="c">
      <stop
         offset="0"
         stop-color="#292c2f"
         id="stop265" />
      <stop
         offset="1"
         stop-opacity="0"
         id="stop267" />
    </linearGradient>
    <linearGradient
       id="b"
       gradientUnits="userSpaceOnUse"
       x1="13.280776"
       x2="28.280775"
       xlink:href="#c"
       y1="5.088388"
       y2="20.088388"
       gradientTransform="matrix(2.7999616,0,0,2.7999616,1.095156,-2.3992319)" />
    <linearGradient
       id="c-3"
       gradientUnits="userSpaceOnUse"
       x1="5"
       x2="5"
       y1="20"
       y2="7"
       gradientTransform="matrix(3.4390082,0,0,3.4390082,-5.8290972,-4.015561)">
      <stop
         offset="0"
         stop-color="#999a9c"
         id="stop164" />
      <stop
         offset="1"
         stop-color="#f4f5f5"
         id="stop166" />
    </linearGradient>
    <linearGradient
       id="c-36"
       gradientTransform="matrix(-1.5178835,-0.40671565,0.40671565,-1.5178835,-118.80345,45.942209)"
       gradientUnits="userSpaceOnUse"
       x1="-80.458"
       x2="-73.210999"
       y1="16.417999"
       y2="43.464001">
      <stop
         offset="0"
         stop-color="#b0b4b8"
         id="stop161" />
      <stop
         offset="1"
         stop-color="#dadcde"
         id="stop163" />
    </linearGradient>
    <linearGradient
       id="d-7"
       gradientUnits="userSpaceOnUse"
       x1="18"
       x2="24"
       xlink:href="#b-5"
       y1="22"
       y2="28"
       gradientTransform="matrix(1.5714286,0,0,1.5714286,6.857142,6.6025957)" />
    <linearGradient
       id="b-5">
      <stop
         offset="0"
         stop-color="#292c2f"
         id="stop174" />
      <stop
         offset="1"
         stop-color="#0b0000"
         stop-opacity="0"
         id="stop176" />
    </linearGradient>
    <linearGradient
       id="e"
       gradientUnits="userSpaceOnUse"
       x1="13.667"
       x2="18.885"
       xlink:href="#b-5"
       y1="8.6660004"
       y2="13.885"
       gradientTransform="matrix(1.5714286,0,0,1.5714286,6.857142,6.6025957)" />
    <linearGradient
       id="f"
       gradientUnits="userSpaceOnUse"
       x1="17.666"
       x2="23"
       xlink:href="#b-5"
       y1="9.3330002"
       y2="14.667"
       gradientTransform="matrix(1.5714286,0,0,1.5714286,6.857142,6.6025957)" />
    <linearGradient
       id="g"
       gradientUnits="userSpaceOnUse"
       x1="21.666"
       x2="21.666"
       xlink:href="#a"
       y1="16"
       y2="6.6669998"
       gradientTransform="matrix(1.5714286,0,0,1.5714286,6.857142,6.6025957)" />
    <linearGradient
       id="a">
      <stop
         offset="0"
         stop-color="#f67400"
         id="stop169" />
      <stop
         offset="1"
         stop-color="#f39c1f"
         id="stop171" />
    </linearGradient>
    <linearGradient
       id="h"
       gradientUnits="userSpaceOnUse"
       x1="11"
       x2="11"
       xlink:href="#a"
       y1="14"
       y2="2"
       gradientTransform="matrix(1.5714286,0,0,1.5714286,6.857142,6.6025957)" />
    <linearGradient
       id="i"
       gradientUnits="userSpaceOnUse"
       x1="15"
       x2="15"
       y1="28"
       y2="15"
       gradientTransform="matrix(1.5714286,0,0,1.5714286,6.857142,6.6025957)">
      <stop
         offset="0"
         stop-color="#375a7d"
         id="stop154" />
      <stop
         offset=".154"
         stop-color="#3b85b5"
         id="stop156" />
      <stop
         offset="1"
         stop-color="#7cbcec"
         id="stop158" />
    </linearGradient>
    <linearGradient
       id="d-3"
       gradientUnits="userSpaceOnUse"
       x1="16"
       x2="0"
       xlink:href="#a-6"
       y1="28"
       y2="12"
       gradientTransform="matrix(1.6363635,0,0,1.6363635,5.8,3.800818)" />
    <linearGradient
       id="a-6">
      <stop
         offset="0"
         stop-color="#f58273"
         id="stop188" />
      <stop
         offset="1"
         stop-color="#ffafa5"
         id="stop190" />
    </linearGradient>
    <linearGradient
       id="e-7"
       gradientUnits="userSpaceOnUse"
       x1="12"
       x2="6"
       xlink:href="#a-6"
       y1="12"
       y2="6"
       gradientTransform="matrix(1.6363635,0,0,1.6363635,5.8,3.800818)" />
    <linearGradient
       id="f-5"
       gradientUnits="userSpaceOnUse"
       x1="12"
       x2="6"
       xlink:href="#b-3"
       y1="12"
       y2="6"
       gradientTransform="matrix(1.6363635,0,0,1.6363635,5.8,3.800818)" />
    <linearGradient
       id="b-3">
      <stop
         offset="0"
         stop-color="#ffafa5"
         id="stop183" />
      <stop
         offset="1"
         stop-color="#ffe5e1"
         id="stop185" />
    </linearGradient>
    <linearGradient
       id="g-5"
       gradientUnits="userSpaceOnUse"
       x1="22"
       x2="16"
       xlink:href="#b-3"
       y1="12"
       y2="6"
       gradientTransform="matrix(1.6363635,0,0,1.6363635,5.8,3.800818)" />
    <linearGradient
       id="h-6"
       gradientUnits="userSpaceOnUse"
       x1="32"
       x2="26"
       y1="12"
       y2="6"
       gradientTransform="matrix(1.6363635,0,0,1.6363635,5.8,3.800818)">
      <stop
         offset="0"
         stop-color="#f36957"
         id="stop197" />
      <stop
         offset="1"
         stop-color="#ff9487"
         id="stop199" />
    </linearGradient>
    <linearGradient
       id="i-2"
       gradientUnits="userSpaceOnUse"
       x1="27"
       x2="23"
       xlink:href="#c-9"
       y1="16"
       y2="12"
       gradientTransform="matrix(1.6363635,0,0,1.6363635,5.8,3.800818)" />
    <linearGradient
       id="c-9">
      <stop
         offset="0"
         stop-color="#bf4231"
         id="stop178" />
      <stop
         offset="1"
         stop-color="#e05e4c"
         id="stop180" />
    </linearGradient>
    <linearGradient
       id="j"
       gradientUnits="userSpaceOnUse"
       x1="16"
       x2="16"
       y1="28"
       y2="12"
       gradientTransform="matrix(1.6363635,0,0,1.6363635,5.8,3.800818)">
      <stop
         offset="0"
         stop-color="#dc4732"
         id="stop204" />
      <stop
         offset="1"
         stop-color="#f36957"
         id="stop206" />
    </linearGradient>
    <linearGradient
       id="k"
       gradientUnits="userSpaceOnUse"
       x1="16"
       x2="0"
       xlink:href="#c-9"
       y1="28"
       y2="12"
       gradientTransform="matrix(1.6363635,0,0,1.6363635,5.8,3.800818)" />
    <linearGradient
       id="l"
       gradientUnits="userSpaceOnUse"
       x1="16"
       x2="16"
       xlink:href="#a-6"
       y1="12"
       y2="6"
       gradientTransform="matrix(1.6363635,0,0,1.6363635,5.8,3.800818)" />
    <linearGradient
       id="a-3"
       gradientTransform="matrix(-1.5178835,-0.40671565,0.40671565,-1.5178835,-23.044805,74.362762)"
       gradientUnits="userSpaceOnUse"
       x1="-27.382999"
       x2="-20.311001"
       y1="21.552999"
       y2="47.945999">
      <stop
         offset="0"
         stop-color="#afb4b9"
         id="stop200" />
      <stop
         offset="1"
         stop-color="#cfd2d5"
         id="stop202" />
    </linearGradient>
    <linearGradient
       id="b-6"
       gradientUnits="userSpaceOnUse"
       x1="24"
       x2="8"
       y1="24"
       y2="8"
       gradientTransform="matrix(1.5714286,0,0,1.5714286,6.85715,6.177143)">
      <stop
         offset="0"
         stop-color="#bf4231"
         id="stop210" />
      <stop
         offset="1"
         stop-color="#f58273"
         id="stop212" />
    </linearGradient>
    <linearGradient
       id="c-7"
       gradientUnits="userSpaceOnUse"
       x1="106.079"
       x2="106.079"
       y1="196.506"
       y2="29.136"
       gradientTransform="matrix(0.1408294,-0.1408294,0.1408294,0.1408294,0.38541398,28.012714)">
      <stop
         offset="0"
         stop-color="#375a7d"
         id="stop205" />
      <stop
         offset="1"
         stop-color="#54a3d8"
         id="stop207" />
    </linearGradient>
    <linearGradient
       id="e-3"
       y1="541.79999"
       y2="505.79999"
       gradientUnits="userSpaceOnUse"
       x2="0">
      <stop
         stop-color="#2e62f2"
         id="stop222" />
      <stop
         offset="1"
         stop-color="#29cdfa"
         id="stop224" />
    </linearGradient>
    <linearGradient
       id="f-6"
       y1="528.56"
       x1="414.75"
       y2="518.69"
       gradientUnits="userSpaceOnUse"
       x2="399.39999">
      <stop
         stop-color="#292c2f"
         id="stop227" />
      <stop
         offset="1"
         stop-opacity="0"
         id="stop229" />
    </linearGradient>
    <linearGradient
       xlink:href="#f-6"
       id="g-7"
       y1="519.31"
       x1="417.57001"
       y2="528.31"
       gradientUnits="userSpaceOnUse"
       x2="426.57001" />
    <linearGradient
       id="h-5"
       y1="541.79999"
       y2="505.79999"
       gradientUnits="userSpaceOnUse"
       x2="0">
      <stop
         stop-color="#7cbaf8"
         id="stop233" />
      <stop
         offset="1"
         stop-color="#f4fcff"
         id="stop235" />
    </linearGradient>
    <linearGradient
       id="a-35"
       y1="49.848999"
       x1="88.5"
       y2="2.602"
       gradientUnits="userSpaceOnUse"
       x2="38.189999"
       gradientTransform="matrix(0.52778,0,0,0.5,361.46,497.53)">
      <stop
         stop-color="#046526"
         id="stop206-6" />
      <stop
         offset="1"
         stop-color="#22d156"
         id="stop208" />
    </linearGradient>
    <linearGradient
       id="b-2"
       y1="-434.29999"
       x1="-424.95001"
       y2="-426.88"
       gradientUnits="userSpaceOnUse"
       x2="-415.03"
       gradientTransform="matrix(0.99522,0.0977,-0.0977,0.99522,387.52,478.56)">
      <stop
         id="stop211" />
      <stop
         offset="1"
         stop-opacity="0"
         id="stop213" />
    </linearGradient>
    <linearGradient
       id="c-91"
       y1="546.22998"
       x1="429.98001"
       y2="529.91998"
       gradientUnits="userSpaceOnUse"
       x2="413.67999">
      <stop
         stop-color="#633677"
         id="stop216" />
      <stop
         offset="1"
         stop-color="#824bac"
         id="stop218" />
    </linearGradient>
    <linearGradient
       xlink:href="#b-2"
       id="d-2"
       y1="-434.29999"
       x1="-424.95001"
       y2="-426.88"
       gradientUnits="userSpaceOnUse"
       x2="-415.03"
       gradientTransform="matrix(0.99522,0.0977,-0.0977,0.99522,799.06,1009.51)" />
    <linearGradient
       inkscape:collect="always"
       xlink:href="#f-6"
       id="linearGradient452"
       gradientUnits="userSpaceOnUse"
       x1="414.75"
       y1="528.56"
       x2="399.39999"
       y2="518.69" />
    <linearGradient
       inkscape:collect="always"
       xlink:href="#b-2"
       id="linearGradient454"
       gradientUnits="userSpaceOnUse"
       gradientTransform="matrix(0.99522,0.0977,-0.0977,0.99522,387.52,478.56)"
       x1="-424.95001"
       y1="-434.29999"
       x2="-415.03"
       y2="-426.88" />
  </defs>
  <path
     d="m 2.9999985,10.25 c 0,-4.0041748 3.245938,-7.25 7.2500005,-7.25 h 43.500003 c 4.004173,0 7.249999,3.2458252 7.249999,7.25 v 43.5 c 0,4.004173 -3.245827,7.25 -7.25,7.25 H 10.249999 C 6.2459365,61 2.9999985,57.754173 2.9999985,53.75 Z"
     id="path736"
     style="fill:#606c86;fill-opacity:1;stroke-width:3.625" />
  <path
     d="M 2.9999985,9.796875 C 2.9999985,6.0431877 6.2459365,3 10.249999,3 h 43.500003 c 4.004173,0 7.249999,3.0431877 7.249999,6.796875 v 40.781249 c 0,3.753693 -3.245827,6.796876 -7.25,6.796876 H 10.249999 c -4.0040625,0 -7.2500005,-3.043183 -7.2500005,-6.796876 z"
     id="path738"
     style="fill:#3b4252;fill-opacity:1;stroke-width:3.625" />
  <g
     transform="translate(-376.57,-491.8)"
     id="g272">
    <g
       transform="matrix(0.94445,0,0,0.94445,22.698,29.1)"
       id="g250">
      <rect
         width="36"
         x="390.57001"
         y="505.79999"
         rx="18"
         height="36"
         id="rect240"
         style="fill:url(#e-3)" />
      <g
         fill-rule="evenodd"
         id="g246">
        <path
           opacity="0.2"
           d="m 411.91,506.12 -3.824,0.49 -5.316,3.069 -1.931,3.345 c 0,0 -2.538,1.788 -2.92,1.685 -3.236,-0.038 -4.974,0.855 -5.889,1.989 -0.387,0.904 -0.69,1.851 -0.927,2.825 -0.006,0.978 0.208,1.738 0.208,1.738 9.08,8.172 18.16,11.695 27.23,17.54 0.572,-0.38 1.117,-0.792 1.64,-1.233 0.03,-0.025 0.058,-0.052 0.088,-0.078 0.463,-0.396 0.904,-0.818 1.323,-1.258 0.093,-0.097 0.18,-0.199 0.271,-0.299 0.363,-0.399 0.711,-0.812 1.037,-1.243 0.074,-0.097 0.147,-0.195 0.218,-0.294 0.354,-0.488 0.687,-0.993 0.992,-1.517 0.023,-0.039 0.048,-0.076 0.07,-0.116 1.369,-2.396 2.203,-5.141 2.345,-8.08 0,-0.008 0.002,-0.017 0.003,-0.025 v -0.003 l -2.345,-9.819 c -2.571,-4.485 -7.01,-7.741 -12.277,-8.721"
           id="path242"
           style="fill:url(#linearGradient452)" />
        <path
           opacity="0.2"
           d="m 425.3,517.17 -5.537,8.563 5.296,5.296 c 0.966,-2.211 1.512,-4.652 1.512,-7.227 0,-2.347 -0.46,-4.579 -1.271,-6.632"
           id="path244"
           style="fill:url(#g-7)" />
      </g>
      <path
         d="m 408.32,505.81 c -1.379,0.019 -2.714,0.198 -4,0.507 -0.338,0.304 -0.838,0.458 -1.399,0.442 -0.201,0.192 -0.154,0.55 -0.264,0.814 -0.092,0.221 -0.416,0.458 -0.638,0.439 -0.164,-0.014 -0.351,-0.244 -0.352,-0.397 -10e-4,-0.184 0.256,-0.287 0.116,-0.492 -1.433,0.581 -2.766,1.347 -3.985,2.258 0.327,-0.12 0.688,-0.323 0.984,-0.329 0.049,-0.001 0.094,0.004 0.138,0.015 0.199,0.052 0.724,0.627 0.286,0.814 -0.041,0.018 -0.642,0.083 -0.746,0.065 -0.152,-0.026 -0.243,-0.236 -0.397,-0.264 -0.258,-0.045 -0.586,0.223 -0.809,0.103 -2.453,1.98 -4.356,4.596 -5.497,7.599 0.105,-0.061 0.212,-0.124 0.306,-0.173 0.321,-0.167 0.593,-0.437 0.967,-0.462 0.187,-0.004 0.456,0.05 0.635,0.088 0.165,0.034 0.299,0.145 0.442,0.156 0.406,0.031 0.502,-0.285 0.834,-0.462 0.342,0.048 0.57,-0.057 0.879,-0.023 0.211,0.023 0.363,0.249 0.527,0.261 0.138,0.014 0.261,-0.128 0.394,-0.108 0.13,0.02 0.353,0.303 0.374,0.462 0.027,0.198 -0.145,0.376 -0.088,0.593 0.207,0.211 0.583,0.253 0.879,0.374 0.193,-0.159 0.026,-0.453 0,-0.683 -0.004,-0.101 0.014,-0.191 0,-0.284 -0.018,-0.158 -0.087,-0.304 -0.088,-0.439 -0.004,-0.625 0.505,-0.918 0.924,-1.165 0.182,-0.108 0.325,-0.295 0.482,-0.374 0.222,-0.112 0.388,-0.138 0.573,-0.241 0.333,-0.187 0.619,-0.338 0.879,-0.55 0.12,-0.284 0.013,-0.664 0.023,-0.944 0.12,-0.074 0.224,0.033 0.352,0.023 0.201,-0.042 0.218,-0.326 0.331,-0.439 0.066,-0.065 0.247,-0.111 0.329,-0.176 0.2,-0.157 0.265,-0.394 0.439,-0.462 0.063,-0.025 0.208,-0.019 0.306,-0.045 0.13,-0.035 0.315,-0.189 0.527,-0.261 0.138,-0.048 0.455,-0.058 0.507,-0.11 0.065,-0.066 0,-0.252 0.023,-0.352 0.107,-0.496 0.854,-0.601 1.296,-0.768 0.31,-0.117 0.627,-0.332 0.967,-0.266 -0.067,0.236 -0.383,0.153 -0.329,0.439 0.074,0.397 0.605,-0.115 0.746,-0.173 0.268,-0.113 0.728,-0.181 1.08,-0.309 0.308,-0.113 0.861,-0.285 0.57,-0.638 -0.242,-0.014 -0.359,0.284 -0.57,0.374 -0.146,0.023 -0.119,-0.121 -0.244,-0.133 -0.118,-0.014 -0.185,0.109 -0.306,0.088 -0.121,-0.02 -0.29,-0.21 -0.309,-0.352 -0.048,-0.367 0.31,-0.517 0.462,-0.791 -0.1,-0.332 -0.559,-0.069 -0.836,-0.198 0.026,-0.198 0.231,-0.334 0.462,-0.372 0.189,-0.032 0.613,-0.015 0.726,0.085 0.065,0.055 0.005,0.194 0.11,0.286 0.112,0.101 0.249,0.092 0.394,0.068 0.053,-0.25 -0.325,-0.188 -0.284,-0.354 0.297,-0.194 0.779,-0.034 1.143,-0.088 0.209,-0.031 0.43,-0.179 0.615,-0.284 0.176,-0.1 0.406,-0.275 0.593,-0.11 0.051,0.179 -0.164,0.24 -0.264,0.329 -0.336,0.299 -0.683,0.642 -0.944,0.989 0.16,0.156 0.452,0.078 0.723,0.11 0.106,0.014 0.239,0.046 0.352,0.065 0.131,0.023 0.272,0.016 0.374,0.043 0.185,0.045 0.234,0.244 0.417,0.244 0.301,-0.001 0.303,-0.327 0.133,-0.53 0.054,-0.207 0.138,-0.314 0.065,-0.46 -0.135,-0.271 -0.632,-0.014 -0.658,-0.352 -0.016,-0.219 0.184,-0.21 0.264,-0.374 -0.036,-0.423 0.347,-0.454 0.306,-0.834 -0.018,-0.159 -0.153,-0.16 -0.264,-0.309 -0.058,-0.076 -0.084,-0.227 -0.153,-0.286 -0.23,-0.194 -0.697,-0.157 -0.726,-0.527 -0.004,-0.125 0.014,-0.238 0.025,-0.357 -0.212,-0.01 -0.421,-0.03 -0.635,-0.033 z m -8.563,4.312 c 0.103,0.014 0.227,0.124 0.352,0.133 0.117,0.004 0.214,-0.064 0.286,-0.045 0.184,0.048 0.261,0.326 0.088,0.462 -0.144,0.018 -0.201,-0.062 -0.309,-0.043 -0.298,0.051 -0.412,0.635 -0.635,0.615 -0.21,-0.018 -0.324,-0.53 -0.11,-0.683 0.014,-0.133 -0.097,-0.155 -0.09,-0.286 0.063,-0.081 0.244,-0.168 0.419,-0.153 m -0.989,0.068 c 0.061,0.003 0.107,0.016 0.131,0.043 -0.029,0.234 -0.213,0.22 -0.394,0.329 -0.312,0.189 -0.493,0.476 -0.593,0.879 -0.029,0.117 -0.336,0.428 -0.485,0.397 -0.348,-0.073 0.096,-0.716 0.176,-0.814 0.088,-0.108 0.205,-0.204 0.309,-0.329 0.1,-0.121 0.167,-0.284 0.264,-0.352 0.106,-0.073 0.409,-0.16 0.593,-0.153 m 2.602,0.791 c 0.112,0.003 0.21,0.02 0.256,0.065 -0.072,0.29 -0.695,0.213 -0.924,0.108 0.015,-0.109 0.185,-0.139 0.329,-0.153 0.101,-0.004 0.228,-0.023 0.339,-0.02 m -1.424,0.535 c 0.074,-0.003 0.15,0.014 0.229,0.035 -0.202,0.169 -0.421,0.264 -0.768,0.374 -0.167,0.053 -0.456,0.119 -0.485,-0.068 -0.035,-0.229 0.244,-0.175 0.397,-0.196 0.192,-0.026 0.403,-0.138 0.628,-0.146 m 22.08,0.326 c 0.017,0.165 0.019,0.322 -0.025,0.5 -0.06,0.238 -0.274,0.454 -0.264,0.66 0.014,0.106 0.13,0.208 0.156,0.352 0.014,0.076 -0.036,0.24 0,0.309 0.112,0.216 0.416,0.033 0.615,0.065 0.194,0.031 0.419,0.31 0.417,0.527 -0.003,0.152 -0.145,0.404 -0.241,0.55 -0.192,0.291 -0.451,0.304 -0.726,0.46 -0.229,0.13 -0.328,0.347 -0.462,0.573 -0.146,0.244 -0.236,0.392 -0.176,0.746 -0.196,0.39 -0.495,0.628 -0.902,0.814 -0.12,0.054 -0.284,0.073 -0.394,0.153 -0.088,0.063 -0.139,0.234 -0.264,0.374 -0.154,0.172 -0.316,0.243 -0.397,0.374 -0.063,0.101 -0.084,0.304 -0.153,0.439 -0.094,0.185 -0.294,0.275 -0.417,0.462 -0.056,0.087 -0.094,0.261 -0.156,0.374 -0.139,0.253 -0.377,0.435 -0.352,0.658 0.026,0.215 0.27,0.252 0.286,0.439 0.004,0.106 -0.07,0.171 -0.065,0.286 0.004,0.169 0.117,0.287 0.131,0.417 0.033,0.326 -0.112,0.457 -0.173,0.681 -0.029,0.107 -0.017,0.226 -0.045,0.309 -0.054,0.163 -0.282,0.312 -0.286,0.505 -0.003,0.137 0.142,0.247 0.153,0.439 0.004,0.133 -0.066,0.275 -0.043,0.397 0.047,0.239 0.475,0.517 0.66,0.703 0.249,0.249 0.573,0.441 0.681,0.703 0.09,0.222 0.09,0.513 0.264,0.681 0.128,0.124 0.341,0.2 0.505,0.329 0.153,0.12 0.321,0.224 0.485,0.352 0.268,0.209 0.671,0.627 1.097,0.595 0.223,-0.016 0.451,-0.199 0.703,-0.244 0.26,-0.046 0.597,-0.07 0.859,-0.043 0.201,0.02 0.407,0.14 0.615,0.131 0.22,-0.014 0.473,-0.177 0.723,-0.286 0.396,-0.172 0.971,-0.386 1.549,-0.354 0.111,-0.81 0.188,-1.632 0.188,-2.473 0,-3.406 -0.953,-6.574 -2.584,-9.284 -0.076,-0.005 -0.145,-0.016 -0.229,-0.013 -0.223,0.014 -0.589,0.014 -0.593,-0.264 -0.002,-0.228 0.215,-0.278 0.475,-0.294 -0.486,-0.743 -1.03,-1.441 -1.617,-2.102 m -27.475,8.247 c -0.365,0.02 -0.604,0.037 -0.811,0.131 -0.476,0.216 -0.384,0.86 -0.859,1.012 -0.164,0.053 -0.389,0.054 -0.57,0.088 -0.156,0.028 -0.346,0.114 -0.507,0.111 -0.19,-0.004 -0.522,-0.187 -0.635,-0.309 -0.078,-0.084 -0.205,-0.379 -0.289,-0.575 -0.115,0.633 -0.194,1.277 -0.241,1.931 0.039,0.007 0.08,0.018 0.113,0.018 0.208,10e-4 0.431,-0.215 0.66,-0.221 0.539,-0.015 0.773,0.686 1.208,0.902 0.109,0.054 0.253,0.057 0.394,0.088 0.114,0.025 0.199,0.073 0.309,0.11 0.232,0.079 0.517,0.07 0.703,0.153 0.28,0.124 0.485,0.65 0.726,0.791 0.014,0.142 -0.026,0.334 0.023,0.439 0.114,0.154 0.275,0.12 0.462,0.221 0.224,0.121 0.292,0.432 0.505,0.527 0.073,0.033 0.258,0.03 0.374,0.065 0.291,0.088 0.386,0.425 0.635,0.352 0.164,-0.048 0.152,-0.218 0.178,-0.374 0.108,-0.117 0.226,-0.303 0.394,-0.306 0.273,-0.014 0.297,0.282 0.397,0.547 0.056,0.15 0.203,0.281 0.241,0.439 0.068,0.273 0.035,1.09 -0.023,1.253 -0.069,0.2 -0.34,0.285 -0.507,0.507 -0.079,0.104 -0.116,0.256 -0.176,0.329 -0.108,0.131 -0.269,0.165 -0.349,0.286 -0.046,0.068 -0.089,0.214 -0.133,0.306 -0.132,0.28 -0.309,0.478 -0.198,0.814 0.046,0.138 0.263,0.232 0.264,0.394 0.001,0.191 -0.408,0.363 -0.439,0.573 -0.023,0.156 0.126,0.435 0.176,0.638 0.036,0.153 0.326,0.249 0.417,0.352 0.154,0.173 0.278,0.418 0.419,0.635 0.279,0.428 0.497,0.949 0.768,1.364 0.143,0.217 0.344,0.412 0.439,0.638 0.049,0.114 0.043,0.249 0.088,0.352 0.157,0.355 0.85,0.726 1.208,0.902 0.168,0.082 0.354,0.111 0.507,0.196 0.233,0.13 0.693,0.479 0.811,0.683 0.105,0.184 0.17,0.63 0.221,0.922 0.068,0.386 0.004,0.682 0.023,1.1 0.014,0.226 0.085,0.454 0.088,0.681 0.001,0.079 -0.042,0.138 -0.045,0.218 -0.004,0.274 0.069,0.583 0.045,0.859 -0.002,0.059 -0.008,0.104 -0.018,0.156 2.157,0.91 4.53,1.414 7.03,1.414 0.261,0 0.515,-0.029 0.773,-0.04 0.005,-0.041 0.012,-0.082 0.02,-0.116 0.08,-0.223 0.285,-0.297 0.417,-0.462 0.1,-0.124 0.146,-0.27 0.241,-0.394 0.103,-0.135 0.196,-0.255 0.264,-0.374 0.065,-0.401 -0.16,-0.681 -0.065,-1.032 0.105,-0.395 0.65,-0.636 1.032,-0.814 0.132,-0.061 0.267,-0.161 0.374,-0.198 0.265,-0.092 0.594,-0.042 0.836,-0.131 0.412,-0.151 0.455,-0.592 0.658,-0.967 0.096,-0.178 0.222,-0.356 0.241,-0.482 0.016,-0.114 -0.041,-0.22 -0.023,-0.354 0.02,-0.133 0.139,-0.248 0.176,-0.394 0.048,-0.19 0.068,-0.468 0.068,-0.681 0,-0.174 -0.081,-0.328 -0.088,-0.485 -0.028,-0.57 0.206,-0.634 0.417,-0.944 0.106,-0.154 0.145,-0.329 0.218,-0.439 0.354,-0.528 0.969,-0.783 0.924,-1.582 -0.015,-0.264 -0.18,-0.862 -0.374,-0.947 -0.111,-0.048 -0.366,-0.004 -0.527,-0.065 -0.519,-0.194 -0.825,-0.838 -1.364,-0.879 -0.115,-0.014 -0.22,0.047 -0.349,0.045 -0.213,-0.014 -0.535,-0.149 -0.771,-0.176 -0.15,-0.016 -0.349,0.044 -0.439,0 -0.137,-0.067 -0.152,-0.319 -0.264,-0.394 -0.089,-0.061 -0.26,-0.081 -0.394,-0.133 -0.216,-0.083 -0.388,-0.181 -0.638,-0.198 -0.077,-0.004 -0.174,0.037 -0.264,0.023 -0.138,-0.023 -0.247,-0.186 -0.374,-0.264 -0.16,-0.097 -0.308,-0.145 -0.374,-0.284 0.144,-0.473 -0.255,-0.605 -0.352,-0.879 -0.046,-0.128 -0.025,-0.282 -0.065,-0.397 -0.057,-0.164 -0.219,-0.258 -0.397,-0.394 -0.318,-0.245 -0.6,-0.474 -1.055,-0.53 -0.2,-0.025 -0.396,0.06 -0.638,0.045 -0.256,-0.016 -0.577,-0.241 -0.768,-0.46 -0.186,-0.214 -0.277,-0.405 -0.439,-0.507 -0.154,-0.099 -0.357,-0.096 -0.462,-0.196 -0.047,-0.044 -0.038,-0.118 -0.088,-0.221 -0.077,-0.16 -0.207,-0.248 -0.111,-0.439 -0.175,-0.09 -0.18,0.166 -0.372,0.133 -0.171,-0.242 -0.315,-0.357 -0.703,-0.286 -0.178,0.033 -0.278,0.258 -0.485,0.264 -0.17,0.014 -0.303,-0.189 -0.527,-0.221 -0.169,-0.023 -0.362,0.046 -0.482,0.023 -0.188,-0.037 -0.245,-0.194 -0.417,-0.306 -0.126,-0.082 -0.369,-0.223 -0.439,-0.221 -0.221,0.014 -0.378,0.47 -0.683,0.309 -0.148,-0.188 0.241,-0.287 0.065,-0.462 -0.133,-0.133 -0.245,0.06 -0.352,0.133 -0.122,0.084 -0.237,0.169 -0.372,0.218 -0.302,0.113 -0.49,0.054 -0.726,0.176 -0.218,0.113 -0.228,0.303 -0.352,0.527 -0.101,0.184 -0.333,0.451 -0.485,0.462 -0.184,0.014 -0.36,-0.257 -0.527,-0.329 -0.503,-0.218 -0.747,0.193 -1.165,0.198 -0.388,0.014 -0.941,-0.625 -0.922,-0.989 0.004,-0.222 0.127,-0.561 0.153,-0.836 0.023,-0.219 0.173,-0.35 0.176,-0.55 0.004,-0.267 -0.354,-0.473 -0.527,-0.505 -0.411,-0.076 -0.981,0.166 -1.451,-0.023 -0.09,-0.149 0.105,-0.252 0.156,-0.397 0.028,-0.082 0.013,-0.193 0.043,-0.284 0.052,-0.14 0.198,-0.248 0.264,-0.397 0.049,-0.113 0.061,-0.276 0.11,-0.417 0.057,-0.16 0.163,-0.262 0.176,-0.374 0.016,-0.148 -0.04,-0.319 -0.156,-0.417 m 5.876,4.653 c 0.149,0.014 0.167,0.322 0.015,0.347 -0.164,0.026 -0.247,-0.258 -0.088,-0.331 0.027,-0.014 0.051,-0.016 0.073,-0.015"
         id="path248"
         style="fill:url(#h-5)" />
    </g>
    <g
       transform="translate(2,2)"
       id="g260">
      <g
         color="#000000"
         id="g256">
        <path
           d="m 385.57,500.8 v 15 h 9 l 6,5 v -5 h 5 v -15 z"
           id="path252"
           style="fill:url(#a-35)" />
        <path
           opacity="0.2"
           d="m 11.375,4.875 6.5,5.688 v 4.063 H 12 l -2.375,-3 0.875,-0.713 2.796,3.374 L 13.233,13.412 9.981,9.8 11.069,7.598 9.018,5.671 9.937,4.752 Z"
           transform="translate(384.57,499.8)"
           id="path254"
           style="fill:url(#linearGradient454)" />
      </g>
      <path
         d="m 388.79,484.34 c 0,-0.681 -0.344,-1.021 -1.031,-1.021 -0.4,0 -0.821,0.137 -1.263,0.411 l -0.174,-0.595 c 0.439,-0.3 0.949,-0.45 1.529,-0.45 0.494,0 0.905,0.124 1.234,0.373 0.355,0.271 0.532,0.69 0.532,1.258 0,0.477 -0.155,0.931 -0.465,1.36 -0.142,0.194 -0.287,0.387 -0.436,0.581 -0.387,0.5 -0.666,1.031 -0.837,1.592 h -0.436 c 0.023,-0.5 0.189,-1.024 0.498,-1.573 0.129,-0.229 0.258,-0.452 0.387,-0.668 0.306,-0.513 0.46,-0.936 0.46,-1.268 m -0.731,5.415 c -0.094,0.103 -0.231,0.155 -0.411,0.155 -0.181,0 -0.319,-0.052 -0.416,-0.155 -0.094,-0.106 -0.14,-0.234 -0.14,-0.382 0,-0.148 0.047,-0.274 0.14,-0.377 0.097,-0.103 0.236,-0.155 0.416,-0.155 0.181,0 0.318,0.052 0.411,0.155 0.094,0.103 0.14,0.231 0.14,0.382 0,0.148 -0.047,0.274 -0.14,0.377"
         transform="translate(7.081,21.779)"
         id="path258"
         style="fill:#ffffff;fill-opacity:1" />
    </g>
    <g
       transform="translate(-2,-2)"
       id="g270">
      <g
         color="#000000"
         id="g266">
        <path
           d="m 431.57,546.8 v -15 h -9 l -6,-5 v 5 h -5 v 15 z"
           id="path262"
           style="fill:url(#c-91)" />
        <path
           opacity="0.2"
           d="m 422.07,535.64 6.719,5.75 0.625,4.188 h -5.875 l -2.375,-3 0.875,-0.713 2.796,3.374 -0.063,-0.875 -3.252,-3.612 -0.325,-5.05 z"
           id="path264"
           style="fill:url(#d-2)" />
      </g>
      <path
         d="m 410.54,487.64 c -0.094,0.106 -0.231,0.16 -0.411,0.16 -0.181,0 -0.319,-0.055 -0.416,-0.165 -0.094,-0.113 -0.14,-0.244 -0.14,-0.392 0,-0.148 0.047,-0.277 0.14,-0.387 0.097,-0.11 0.236,-0.165 0.416,-0.165 0.181,0 0.318,0.055 0.411,0.165 0.097,0.11 0.145,0.24 0.145,0.392 0,0.152 -0.048,0.282 -0.145,0.392 m -0.576,-1.926 -0.281,-4.467 v -0.576 h 0.852 v 0.576 l -0.252,4.467 h -0.319"
         transform="translate(11.49,54.978)"
         id="path268"
         style="fill:#ffffff;fill-opacity:1" />
    </g>
  </g>
</svg>
