<?xml version="1.0" encoding="UTF-8" standalone="no"?>
<svg
   version="1.1"
   viewBox="0 0 64 64"
   id="svg32"
   sodipodi:docname="audacity.svg"
   width="64"
   height="64"
   inkscape:version="1.2.1 (9c6d41e410, 2022-07-14)"
   xmlns:inkscape="http://www.inkscape.org/namespaces/inkscape"
   xmlns:sodipodi="http://sodipodi.sourceforge.net/DTD/sodipodi-0.dtd"
   xmlns:xlink="http://www.w3.org/1999/xlink"
   xmlns="http://www.w3.org/2000/svg"
   xmlns:svg="http://www.w3.org/2000/svg">
  <sodipodi:namedview
     id="namedview34"
     pagecolor="#ffffff"
     bordercolor="#666666"
     borderopacity="1.0"
     inkscape:showpageshadow="2"
     inkscape:pageopacity="0.0"
     inkscape:pagecheckerboard="0"
     inkscape:deskcolor="#d1d1d1"
     showgrid="false"
     inkscape:zoom="7.375"
     inkscape:cx="16.338983"
     inkscape:cy="37.898305"
     inkscape:window-width="1920"
     inkscape:window-height="998"
     inkscape:window-x="0"
     inkscape:window-y="0"
     inkscape:window-maximized="1"
     inkscape:current-layer="svg32" />
  <defs
     id="defs12">
    <linearGradient
       id="b"
       x1="-41.259998"
       x2="-2.994"
       y1="-0.88300002"
       y2="37.956001"
       gradientTransform="matrix(0.73180945,0,0,0.72091894,416.0252,517.69779)"
       gradientUnits="userSpaceOnUse">
      <stop
         stop-color="#21c9fb"
         offset="0"
         id="stop2" />
      <stop
         stop-color="#1a86f2"
         offset="1"
         id="stop4" />
    </linearGradient>
    <linearGradient
       id="a"
       x1="4"
       x2="44"
       y1="4"
       y2="44"
       gradientTransform="matrix(0.69444447,0,0,0.69444447,384.01587,515.24246)"
       gradientUnits="userSpaceOnUse">
      <stop
         offset="0"
         id="stop7" />
      <stop
         stop-opacity="0"
         offset="1"
         id="stop9" />
    </linearGradient>
    <linearGradient
       inkscape:collect="always"
       xlink:href="#linearGradient22063"
       id="linearGradient22065"
       x1="-22"
       y1="5.1111121"
       x2="-6.4444442"
       y2="-9.1111107"
       gradientUnits="userSpaceOnUse"
       gradientTransform="matrix(3.6250002,0,0,3.6250002,82.750001,39.249999)" />
    <linearGradient
       inkscape:collect="always"
       id="linearGradient22063">
      <stop
         style="stop-color:#88c0d0;stop-opacity:1;"
         offset="0"
         id="stop22059" />
      <stop
         style="stop-color:#5e81ac;stop-opacity:1;"
         offset="1"
         id="stop22061" />
    </linearGradient>
    <linearGradient
       gradientTransform="matrix(0.33944754,0,0,0.33992701,9.6992503,10.420578)"
       xlink:href="#linearGradient3360"
       id="linearGradient3366"
       x1="-1.414"
       y1="88.047997"
       x2="154.149"
       y2="89.816002"
       gradientUnits="userSpaceOnUse" />
    <linearGradient
       id="linearGradient3360">
      <stop
         style="stop-color:#ffcc00;stop-opacity:1;"
         offset="0"
         id="stop158" />
      <stop
         offset=".245"
         style="stop-color:#ffff00;stop-opacity:1"
         id="stop160" />
      <stop
         offset=".586"
         style="stop-color:#ff0000;stop-opacity:1"
         id="stop162" />
      <stop
         style="stop-color:#ffcc00;stop-opacity:0;"
         offset="1"
         id="stop164" />
    </linearGradient>
    <linearGradient
       gradientTransform="matrix(0.33944754,0,0,0.33992701,9.6992503,10.420578)"
       xlink:href="#linearGradient3347"
       id="linearGradient3359"
       x1="-23.688"
       y1="-24.028"
       x2="146.72501"
       y2="140.728"
       gradientUnits="userSpaceOnUse" />
    <linearGradient
       id="linearGradient3347">
      <stop
         style="stop-color:#5e81ac;stop-opacity:1;"
         offset="0"
         id="stop146" />
      <stop
         offset="0.252"
         style="stop-color:#5e81ac;stop-opacity:1;"
         id="stop148" />
      <stop
         style="stop-color:#456285;stop-opacity:1;"
         offset="0.45899999"
         id="stop150" />
      <stop
         offset="0.89899999"
         style="stop-color:#233143;stop-opacity:1;"
         id="stop152" />
      <stop
         style="stop-color:#5e81ac;stop-opacity:0.07962073;"
         offset="1"
         id="stop154" />
    </linearGradient>
  </defs>
  <path
     d="m 2.9999985,10.25 c 0,-4.004175 3.245938,-7.25 7.2500005,-7.25 h 43.500003 c 4.004173,0 7.25,3.245825 7.25,7.25 v 43.5 c 0,4.004173 -3.245827,7.25 -7.25,7.25 H 10.249999 C 6.2459365,61 2.9999985,57.754173 2.9999985,53.75 Z"
     id="path736"
     style="fill:#606c86;fill-opacity:1;stroke-width:3.625" />
  <path
     d="M 2.9999985,9.796875 C 2.9999985,6.043188 6.2459365,3 10.249999,3 h 43.500003 c 4.004173,0 7.25,3.043188 7.25,6.796875 v 40.781249 c 0,3.753693 -3.245827,6.796876 -7.25,6.796876 H 10.249999 c -4.0040625,0 -7.2500005,-3.043183 -7.2500005,-6.796876 z"
     id="path738"
     style="fill:url(#linearGradient22065);fill-opacity:1;stroke-width:3.625" />
  <path
     d="m 29.175818,47.652755 c -0.776001,-3.306216 -1.488626,-6.252163 -1.583631,-6.546545 -0.202116,-0.626321 -0.490906,-0.708386 -0.594892,-0.169038 -0.08123,0.421523 -1.303246,9.858562 -1.309579,10.113525 -0.009,0.376933 -0.248294,-0.260248 -1.22536,-3.267884 l -1.00671,-3.098847 0.008,-2.704461 0.008,-2.704447 0.612965,2.008713 c 0.33714,1.104795 0.672312,2.109368 0.744851,2.232385 0.240078,0.407177 0.423578,0.147717 0.574971,-0.813023 0.156108,-0.990723 0.968352,-8.634359 1.109683,-10.442731 0.04483,-0.573287 0.119052,-1.042347 0.16501,-1.042347 0.04598,0 0.432271,1.483221 0.858494,3.296063 0.907404,3.859394 2.226545,8.957574 2.390873,9.240198 0.156184,0.268596 0.335353,0.247615 0.481109,-0.05638 0.104288,-0.217456 1.390845,-9.346907 1.893709,-13.437737 l 0.166214,-1.352222 0.157116,0.619762 c 0.0865,0.340878 0.596768,2.521346 1.134132,4.845476 1.493163,6.458141 1.609802,6.87381 1.928879,6.87381 0.08951,0 0.192161,-0.08868 0.228061,-0.197195 0.101636,-0.307123 0.404872,-2.496064 0.823471,-5.944164 0.210663,-1.73535 0.422985,-3.247377 0.471817,-3.360051 0.05975,-0.137902 0.321321,0.513464 0.800122,1.992578 l 0.711365,2.19744 -0.007,2.571193 -0.007,2.571177 -0.349094,-1.106908 c -0.358864,-1.137915 -0.540485,-1.445011 -0.741476,-1.253862 -0.117101,0.111343 -0.446713,2.252143 -1.187635,7.71332 -0.466311,3.437145 -0.569139,4.064871 -0.636778,3.887653 -0.02369,-0.06211 -0.544793,-2.572048 -1.158061,-5.577922 -1.361003,-6.670697 -1.355957,-6.649191 -1.577819,-6.726475 -0.377219,-0.131384 -0.28971,-0.64226 -1.403276,8.191381 -0.48831,3.873556 -0.928845,7.136439 -0.978995,7.250845 -0.0572,0.130717 -0.615312,-2.025197 -1.502049,-5.803305 z"
     style="fill:url(#linearGradient3366);fill-opacity:1;stroke:none;stroke-width:2.5261;stroke-miterlimit:4;stroke-dasharray:none;stroke-dashoffset:0;stroke-opacity:1"
     id="path169" />
  <path
     d="m 31.60407,11.461747 c -2.020418,-0.0063 -4.032782,0.325024 -6.056367,0.993892 -6.073691,2.007527 -10.521366,6.911614 -12.192931,13.445046 -0.61794,2.415444 -0.632514,2.642891 -0.621218,9.644762 0.009,5.869137 0.02359,6.373696 0.196236,7.22411 0.614641,3.025575 2.594028,5.398704 5.405315,6.568154 0.304431,0.12665 0.617485,0.253215 0.940776,0.350571 0.123047,0.03715 0.266565,0.05922 0.3905,0.109534 0.271567,0.110363 0.504955,0.264492 0.617885,0.362506 0.809548,0.702544 2.180913,-0.547526 2.457356,-1.319593 0.008,-0.02362 0.01715,-0.306572 0.02523,-0.631376 -0.0851,-0.469636 -0.135061,-0.953112 -0.132594,-1.448017 l 0.06106,-12.220195 c 0.003,-0.584934 0.06438,-1.154315 0.182307,-1.702953 l -0.185636,-0.174596 c -0.384656,-0.361853 -0.002,-1.134372 -0.823773,-1.138176 -0.679728,-0.003 -0.844872,0.0324 -1.374364,0.295434 -0.330941,0.164286 -0.909185,0.387311 -1.284867,0.495936 -1.025537,0.296597 -2.250902,0.954421 -3.175682,1.704294 -0.454592,0.368613 -0.84998,0.669907 -0.878461,0.669907 -0.02841,0 -0.04064,-0.992152 -0.02648,-2.205557 l 0.02523,-2.206199 0.284437,-0.03111 c 0.15636,-0.01708 0.279354,-0.0818 0.31358,-0.116858 0.03411,-0.0351 0.164969,-0.533139 0.249942,-1.133309 1.135312,-8.018617 5.843747,-13.036506 13.320008,-14.195934 1.405505,-0.217962 4.025521,-0.217952 5.259445,0 4.720224,0.833775 8.865033,3.994273 11.087732,8.455009 0.962327,1.931327 1.43541,3.567802 1.685964,5.835868 0.08337,0.754026 0.145542,0.950675 0.239337,1.033734 0.037,0.03265 0.06103,0.0714 0.124632,0.07959 0.441499,0.05747 0.461824,0.209868 0.460127,2.297164 -6.73e-4,1.072939 -0.04023,2.010879 -0.08682,2.084718 -0.06692,0.105816 -0.205363,0.02507 -0.655025,-0.382431 -0.834829,-0.75646 -2.032786,-1.434692 -3.164418,-1.791256 -0.535039,-0.168577 -1.198466,-0.414038 -1.473825,-0.545743 -0.97161,-0.464701 -1.737999,-0.684746 -2.33013,-0.130904 l -0.293051,0.274206 6.71e-4,0.04448 c 0.09981,0.506907 0.153151,1.031112 0.153151,1.5682 v 14.175421 c 0,0.447619 -0.0383,0.886004 -0.108068,1.313224 0.01646,0.46511 0.04375,0.70891 0.08756,0.794057 0.06702,0.130456 0.328439,0.339474 0.580773,0.46474 0.372265,0.184787 -0.127761,0.288516 0.499644,0.287493 0.8395,-9.64e-4 1.110795,-0.188318 1.550719,-0.54375 0.06802,-0.06371 0.458531,-0.220822 0.692152,-0.325986 0.213636,-0.09617 0.479086,-0.138979 0.734588,-0.225734 1.416555,-0.480994 2.354402,-1.075468 3.48199,-2.208185 1.119533,-1.124638 1.720325,-2.069295 2.218341,-3.487565 0.734479,-2.525393 0.351386,-5.323385 0.367303,-7.943809 0.02992,-7.645814 0.02239,-7.797857 -0.543643,-10.11881 -0.845228,-3.46579 -2.534866,-6.457899 -5.04,-8.926409 -2.033796,-2.004044 -4.466397,-3.497661 -7.142328,-4.385183 -2.055526,-0.681754 -4.083677,-1.026007 -6.104074,-1.032403 z"
     clip-path="none"
     style="fill:url(#linearGradient3359);fill-opacity:1;stroke-width:1.04772"
     id="path171" />
  <path
     d="m 39.950423,50.508144 c -0.179154,-0.04543 -0.416177,-0.150215 -0.578703,-0.271629 l -0.252977,-0.188992 -0.01777,-3.078815 c -0.009,-1.693355 -0.06866,-5.668641 -0.130869,-8.834009 -0.08467,-4.310231 -0.08552,-5.806804 -0.003,-5.960829 0.383564,-0.717331 2.548296,-0.90474 3.331164,-0.288405 l 0.249307,0.196269 -0.01143,8.778696 c -0.006,4.646283 -0.03924,8.589155 -0.0749,9.008617 -9.73e-4,0.01373 -0.003,0.02362 -0.003,0.02966 -2.75e-4,9.69e-4 -3.37e-4,0.003 -6.73e-4,0.003 -0.002,0.006 -0.004,0.01413 -0.006,0.02117 -0.11263,0.366846 -0.666029,0.604753 -1.491405,0.639163 -0.282057,0.01188 -0.60815,9.63e-4 -0.829092,-0.02437 -0.0735,-0.008 -0.108848,-0.01318 -0.153588,-0.02447 z"
     style="fill:#0f2d61;stroke:#0f2d61;stroke-width:0.686933;stroke-miterlimit:4;stroke-dasharray:none;stroke-opacity:1"
     id="path173" />
  <path
     d="m 21.24141,50.356631 c -0.694433,-0.194242 -0.645255,0.208411 -0.743998,-6.092118 -0.08407,-5.362826 -0.07253,-11.734429 0.02154,-12.060995 0.149126,-0.516822 2.124164,-0.775999 3.038007,-0.398674 0.856842,0.353812 0.810173,-0.07265 0.692947,6.336191 -0.0572,3.120593 -0.104391,7.020155 -0.104877,8.665709 -9.71e-4,1.749663 -0.04239,3.06388 -0.100627,3.165212 -0.168578,0.294019 -0.855488,0.48368 -1.719435,0.474708 -0.435142,-0.005 -0.922769,-0.04512 -1.083623,-0.09003 z"
     style="fill:#0f2d61;stroke:#0f2d61;stroke-width:0.70499;stroke-miterlimit:4;stroke-dasharray:none;stroke-opacity:1"
     id="path175" />
  <path
     d="m 13.044858,33.883449 0.008,-2.261693 0.0182,-1.114108 h 1.018833 1.018852 l 0.02725,1.908916 0.02723,1.908916 -0.486391,0.499544 c -0.562622,0.577851 -1.148533,1.42448 -1.397713,2.019674 -0.09539,0.228004 -0.139678,0.611606 -0.217415,0.414554 -0.008,-0.022 -0.0318,-1.519107 -0.01725,-3.375803 z"
     style="fill:#0f2d61;stroke:#0f2d61;stroke-width:0.640295;stroke-miterlimit:4;stroke-dasharray:none;stroke-opacity:1"
     id="path177" />
  <path
     d="m 50.164627,33.840866 -0.02758,-3.373275 H 49.07842 48.019806 l -0.02828,1.907475 -0.03012,1.884958 0.507252,0.521709 c 0.572803,0.589131 1.193347,1.423418 1.452268,2.018147 0.09594,0.220205 0.120229,0.366649 0.223108,0.413645 9.71e-4,3.39e-4 0.002,6.62e-4 0.003,6.62e-4 1.52e-4,0 3.04e-4,-4.7e-5 3.47e-4,-1.53e-4 0.02473,-0.0621 0.03259,-1.528256 0.01755,-3.373128 z"
     style="fill:#0f2d61;stroke:#0f2d61;stroke-width:0.644515;stroke-miterlimit:4;stroke-dasharray:none;stroke-opacity:1"
     id="path179" />
</svg>
