<?xml version="1.0" encoding="UTF-8" standalone="no"?>
<svg
   width="64"
   height="64"
   version="1.1"
   id="svg23117"
   sodipodi:docname="bomber.svg"
   inkscape:version="1.2.1 (9c6d41e410, 2022-07-14)"
   xmlns:inkscape="http://www.inkscape.org/namespaces/inkscape"
   xmlns:sodipodi="http://sodipodi.sourceforge.net/DTD/sodipodi-0.dtd"
   xmlns:xlink="http://www.w3.org/1999/xlink"
   xmlns="http://www.w3.org/2000/svg"
   xmlns:svg="http://www.w3.org/2000/svg">
  <sodipodi:namedview
     id="namedview23119"
     pagecolor="#ffffff"
     bordercolor="#666666"
     borderopacity="1.0"
     inkscape:showpageshadow="2"
     inkscape:pageopacity="0.0"
     inkscape:pagecheckerboard="0"
     inkscape:deskcolor="#d1d1d1"
     showgrid="false"
     inkscape:zoom="4.9166667"
     inkscape:cx="87.355932"
     inkscape:cy="24.508474"
     inkscape:window-width="1920"
     inkscape:window-height="1002"
     inkscape:window-x="0"
     inkscape:window-y="0"
     inkscape:window-maximized="1"
     inkscape:current-layer="svg23117"
     showguides="false" />
  <defs
     id="defs23105">
    <linearGradient
       id="a"
       y1="547.63397"
       y2="499.67899"
       x2="388.86499"
       gradientUnits="userSpaceOnUse"
       gradientTransform="translate(-453.04388,-539.81483)"
       x1="428.81601">
      <stop
         stop-color="#2a2c2f"
         id="stop23090" />
      <stop
         offset="1"
         stop-color="#536161"
         id="stop23092" />
    </linearGradient>
    <linearGradient
       id="b"
       y1="44"
       y2="12"
       x2="14"
       gradientUnits="userSpaceOnUse"
       x1="36"
       gradientTransform="translate(-68.473879,-40.014831)">
      <stop
         stop-color="#536161"
         style="stop-color:#bfc9c9;stop-opacity:1"
         id="stop23095" />
      <stop
         offset="1"
         stop-color="#f4f5f5"
         style="stop-color:#fbfbfb;stop-opacity:1"
         id="stop23097" />
    </linearGradient>
    <linearGradient
       id="c"
       y1="527.01398"
       x1="406.50101"
       y2="539.82501"
       x2="419.974"
       gradientUnits="userSpaceOnUse"
       gradientTransform="translate(-453.04388,-539.81483)">
      <stop
         stop-color="#292c2f"
         id="stop23100" />
      <stop
         offset="1"
         stop-opacity="0"
         id="stop23102" />
    </linearGradient>
    <linearGradient
       inkscape:collect="always"
       xlink:href="#linearGradient22063"
       id="linearGradient22065"
       x1="-14"
       y1="6"
       x2="-14"
       y2="-9.999999"
       gradientUnits="userSpaceOnUse"
       gradientTransform="matrix(3.6250002,0,0,3.6250002,82.750005,39.249999)" />
    <linearGradient
       inkscape:collect="always"
       id="linearGradient22063">
      <stop
         style="stop-color:#292f3a;stop-opacity:1;"
         offset="0"
         id="stop22059" />
      <stop
         style="stop-color:#535e75;stop-opacity:1;"
         offset="1"
         id="stop22061" />
    </linearGradient>
    <linearGradient
       gradientTransform="matrix(1.4175135,0,0,1.4175135,-0.97261301,0.3330346)"
       id="b-3"
       y1="23.774559"
       x1="22.540125"
       y2="35.804409"
       x2="35.770538"
       gradientUnits="userSpaceOnUse">
      <stop
         stop-color="#292c2f"
         id="stop12" />
      <stop
         offset="1"
         stop-color="#292c2f"
         stop-opacity="0"
         id="stop14" />
    </linearGradient>
    <linearGradient
       xlink:href="#linearGradient4564"
       id="linearGradient4570"
       x1="18.653"
       y1="20.191"
       x2="7.4320002"
       y2="8.5249996"
       gradientUnits="userSpaceOnUse"
       gradientTransform="matrix(0.99999999,0,0,1.1578948,8.0000025,3.1451316)" />
    <linearGradient
       id="linearGradient4564">
      <stop
         style="stop-color:#ffa92d;stop-opacity:1;"
         offset="0"
         id="stop4566" />
      <stop
         style="stop-color:#ffc169;stop-opacity:1"
         offset="1"
         id="stop4568" />
    </linearGradient>
    <linearGradient
       xlink:href="#linearGradient4574"
       id="linearGradient4580"
       x1="28.615"
       y1="21.502001"
       x2="39.939999"
       y2="10.118"
       gradientUnits="userSpaceOnUse"
       gradientTransform="matrix(0.99999999,0,0,1.1578948,8.0000025,3.1451316)" />
    <linearGradient
       id="linearGradient4574">
      <stop
         style="stop-color:#bf4231;stop-opacity:1;"
         offset="0"
         id="stop4576" />
      <stop
         style="stop-color:#f58273;stop-opacity:1"
         offset="1"
         id="stop4578" />
    </linearGradient>
    <linearGradient
       xlink:href="#linearGradient4590"
       id="linearGradient4596"
       x1="33.241001"
       y1="30.191"
       x2="40.393002"
       y2="37.416"
       gradientUnits="userSpaceOnUse"
       gradientTransform="matrix(0.99999999,0,0,1.1578948,8.0000025,3.1451316)" />
    <linearGradient
       id="linearGradient4590">
      <stop
         id="stop4594"
         offset="0"
         style="stop-color:#54d883;stop-opacity:1" />
      <stop
         id="stop4592"
         offset="1"
         style="stop-color:#3bb566;stop-opacity:1;" />
    </linearGradient>
    <linearGradient
       xlink:href="#linearGradient4582"
       id="linearGradient4588"
       x1="19.830999"
       y1="26.561001"
       x2="9.6899996"
       y2="37.881001"
       gradientUnits="userSpaceOnUse"
       gradientTransform="matrix(0.99999999,0,0,1.1578948,8.0000025,3.1451316)" />
    <linearGradient
       id="linearGradient4582">
      <stop
         id="stop4586"
         offset="0"
         style="stop-color:#7cbcec;stop-opacity:1" />
      <stop
         id="stop4584"
         offset="1"
         style="stop-color:#3b85b5;stop-opacity:1;" />
    </linearGradient>
    <linearGradient
       xlink:href="#linearGradient4626"
       id="linearGradient4632"
       x1="23.693001"
       y1="21.277"
       x2="34.937"
       y2="32.521999"
       gradientUnits="userSpaceOnUse"
       gradientTransform="matrix(1.1,0,0,1.1,5.6000025,4.5346056)" />
    <linearGradient
       id="linearGradient4626">
      <stop
         style="stop-color:#000000;stop-opacity:1;"
         offset="0"
         id="stop4628" />
      <stop
         style="stop-color:#000000;stop-opacity:0;"
         offset="1"
         id="stop4630" />
    </linearGradient>
    <linearGradient
       xlink:href="#linearGradient4598"
       id="linearGradient4604"
       x1="27.197001"
       y1="33.474998"
       x2="21.365999"
       y2="14.901"
       gradientUnits="userSpaceOnUse"
       gradientTransform="matrix(1.1,0,0,1.32,5.6000025,-0.74539444)" />
    <linearGradient
       id="linearGradient4598">
      <stop
         style="stop-color:#172525;stop-opacity:1;"
         offset="0"
         id="stop4600" />
      <stop
         style="stop-color:#334545;stop-opacity:1"
         offset="1"
         id="stop4602" />
    </linearGradient>
    <linearGradient
       xlink:href="#linearGradient4656"
       id="linearGradient4662"
       x1="19.025"
       y1="15.232"
       x2="29.945999"
       y2="31.764999"
       gradientUnits="userSpaceOnUse"
       gradientTransform="matrix(1.1,0,0,1.1,6.7000025,4.5346056)" />
    <linearGradient
       id="linearGradient4656">
      <stop
         style="stop-color:#ffffff;stop-opacity:1;"
         offset="0"
         id="stop4658" />
      <stop
         style="stop-color:#536161;stop-opacity:1"
         offset="1"
         id="stop4660" />
    </linearGradient>
    <linearGradient
       id="d"
       gradientTransform="matrix(2.114694,2.114694,-2.114694,2.114694,3.2088125,-828.15895)"
       gradientUnits="userSpaceOnUse"
       x1="210.5"
       x2="210.5"
       y1="188"
       y2="193.5">
      <stop
         offset="0"
         stop-color="#9b9ea2"
         id="stop17" />
      <stop
         offset="1"
         stop-color="#1a1b1e"
         id="stop19" />
    </linearGradient>
    <linearGradient
       id="a-3"
       gradientTransform="matrix(3.4959872,0,0,3.4959871,1.30074,3.299862)"
       gradientUnits="userSpaceOnUse"
       x1="8.5"
       x2="0.5"
       y1="7.6373668"
       y2="-0.371815">
      <stop
         offset="0"
         stop-color="#4f5356"
         id="stop2" />
      <stop
         offset="1"
         stop-color="#9b9ea2"
         stop-opacity="1"
         id="stop4" />
    </linearGradient>
    <radialGradient
       id="b-6"
       cx="16"
       cy="17"
       gradientUnits="userSpaceOnUse"
       r="11">
      <stop
         offset="0"
         stop-color="#3dd425"
         stop-opacity=".954751"
         id="stop7" />
      <stop
         offset="1"
         stop-color="#59f07c"
         id="stop9" />
    </radialGradient>
    <linearGradient
       id="c-7"
       gradientUnits="userSpaceOnUse"
       x1="14.541744"
       x2="26.541744"
       y1="16"
       y2="28"
       gradientTransform="matrix(1.5,0,0,1.5,8.0000025,7.0414438)">
      <stop
         offset="0"
         id="stop12-5" />
      <stop
         offset="1"
         stop-opacity="0"
         id="stop14-3" />
    </linearGradient>
    <linearGradient
       xlink:href="#linearGradient564"
       id="linearGradient4309"
       x1="7.6230001"
       y1="16.497"
       x2="46"
       y2="40"
       gradientUnits="userSpaceOnUse"
       gradientTransform="matrix(1.1277754,0,0,1.1277754,4.5436767,1.4778)" />
    <linearGradient
       id="linearGradient564">
      <stop
         style="stop-color:#5e98d7;stop-opacity:1"
         offset="0"
         id="stop223" />
      <stop
         style="stop-color:#3363ac;stop-opacity:1"
         offset="1"
         id="stop225" />
    </linearGradient>
    <linearGradient
       xlink:href="#linearGradient4626"
       id="linearGradient4419"
       x1="4"
       y1="29"
       x2="15.409"
       y2="40.409"
       gradientUnits="userSpaceOnUse"
       gradientTransform="matrix(1.1277754,0,0,1.1277754,4.5436767,3.7338968)" />
    <linearGradient
       xlink:href="#linearGradient4626"
       id="linearGradient4407"
       x1="10"
       y1="8"
       x2="33.004002"
       y2="31.004"
       gradientUnits="userSpaceOnUse"
       gradientTransform="matrix(1.1277754,0,0,1.1277754,4.5436767,3.7338968)" />
    <linearGradient
       x1="27.719999"
       y1="14.786"
       x2="27.719999"
       y2="24.357"
       id="linearGradient3432"
       xlink:href="#linearGradient4321"
       gradientUnits="userSpaceOnUse"
       gradientTransform="matrix(1.0609217,0,0,1.4140536,-9.076381,-2.5141373)"
       spreadMethod="pad" />
    <linearGradient
       id="linearGradient4321">
      <stop
         offset="0"
         style="stop-color:#ffffff;stop-opacity:1"
         id="stop213" />
      <stop
         offset="1"
         style="stop-color:#b1b1b1;stop-opacity:1"
         id="stop215" />
    </linearGradient>
    <linearGradient
       xlink:href="#linearGradient4192"
       id="linearGradient4333"
       x1="17"
       y1="18"
       x2="11.574"
       y2="9.3629999"
       gradientUnits="userSpaceOnUse"
       gradientTransform="matrix(1.1277754,0,0,1.1277754,4.5436767,1.4778)" />
    <linearGradient
       id="linearGradient4192">
      <stop
         style="stop-color:#44a3c8;stop-opacity:1"
         offset="0"
         id="stop198" />
      <stop
         style="stop-color:#8dcdda;stop-opacity:1"
         offset="1"
         id="stop200" />
    </linearGradient>
    <linearGradient
       xlink:href="#linearGradient4313"
       id="linearGradient4319"
       x1="12"
       y1="18"
       x2="14"
       y2="20"
       gradientUnits="userSpaceOnUse"
       gradientTransform="matrix(1.1277754,0,0,1.1277754,5.1075644,1.5905776)" />
    <linearGradient
       id="linearGradient4313">
      <stop
         style="stop-color:#ffffff;stop-opacity:1;"
         offset="0"
         id="stop218" />
      <stop
         style="stop-color:#ffffff;stop-opacity:0;"
         offset="1"
         id="stop220" />
    </linearGradient>
    <linearGradient
       xlink:href="#linearGradient4192"
       id="linearGradient4350"
       x1="13"
       y1="38"
       x2="4"
       y2="30"
       gradientUnits="userSpaceOnUse"
       gradientTransform="matrix(1.1277754,0,0,1.1277754,4.5436767,1.4778)" />
    <linearGradient
       gradientTransform="matrix(0.33710364,0,0,0.33162938,257.3899,363.04509)"
       xlink:href="#linearGradient3347"
       id="linearGradient3353"
       x1="376.91901"
       y1="410.05899"
       x2="528.57098"
       y2="561.711"
       gradientUnits="userSpaceOnUse" />
    <linearGradient
       id="linearGradient3347">
      <stop
         style="stop-color:#006680;stop-opacity:1;"
         offset="0"
         id="stop215-3" />
      <stop
         offset=".252"
         style="stop-color:#80b3ff;stop-opacity:1"
         id="stop217" />
      <stop
         style="stop-color:#0066ff;stop-opacity:1"
         offset=".459"
         id="stop219" />
      <stop
         offset=".899"
         style="stop-color:#002255;stop-opacity:1"
         id="stop221" />
      <stop
         style="stop-color:#006680;stop-opacity:0;"
         offset="1"
         id="stop223-6" />
    </linearGradient>
    <linearGradient
       xlink:href="#linearGradient4239"
       id="linearGradient4245"
       x1="4.2480001"
       y1="13.866"
       x2="45.924999"
       y2="27.392"
       gradientUnits="userSpaceOnUse"
       gradientTransform="matrix(1.282701,0,0,1.282701,0.2858989,0.8405834)" />
    <linearGradient
       id="linearGradient4239">
      <stop
         style="stop-color:#eff0f1;stop-opacity:1"
         offset="0"
         id="stop219-3" />
      <stop
         style="stop-color:#b7bbbf;stop-opacity:1"
         offset="1"
         id="stop221-6" />
    </linearGradient>
    <linearGradient
       xlink:href="#linearGradient4148"
       id="linearGradient4154"
       x1="3.516"
       y1="23.827"
       x2="18.132"
       y2="23.768"
       gradientUnits="userSpaceOnUse"
       gradientTransform="matrix(1.282701,0,0,1.282701,1.5686025,0.8405834)" />
    <linearGradient
       id="linearGradient4148">
      <stop
         style="stop-color:#da4453;stop-opacity:1"
         offset="0"
         id="stop214" />
      <stop
         style="stop-color:#ffc536;stop-opacity:1"
         offset="1"
         id="stop216" />
    </linearGradient>
    <linearGradient
       xlink:href="#linearGradient4231"
       id="linearGradient4237"
       x1="13.52"
       y1="21.188999"
       x2="27"
       y2="23.5"
       gradientUnits="userSpaceOnUse"
       gradientTransform="matrix(1.282701,0,0,1.282701,0.2858989,0.8405834)" />
    <linearGradient
       id="linearGradient4231">
      <stop
         style="stop-color:#424649;stop-opacity:1;"
         offset="0"
         id="stop224" />
      <stop
         style="stop-color:#2a2c2f;stop-opacity:1"
         offset="1"
         id="stop226" />
    </linearGradient>
    <linearGradient
       xlink:href="#linearGradient4231"
       id="linearGradient4253"
       x1="41.282001"
       y1="17.466"
       x2="40.402"
       y2="21.048"
       gradientUnits="userSpaceOnUse"
       gradientTransform="matrix(1.282701,0,0,1.282701,0.2858989,0.8405834)" />
  </defs>
  <path
     d="M 3,10.25 C 3,6.245825 6.245938,3 10.25,3 h 43.500005 c 4.00417,0 7.25,3.245825 7.25,7.25 v 43.5 c 0,4.004173 -3.24583,7.25 -7.25,7.25 H 10.25 C 6.245938,61 3,57.754173 3,53.75 Z"
     id="path736"
     style="fill:#606c86;fill-opacity:1;stroke-width:3.625" />
  <path
     d="M 3,9.796875 C 3,6.043188 6.245938,3 10.25,3 h 43.500005 c 4.00417,0 7.25,3.043188 7.25,6.796875 v 40.781249 c 0,3.753693 -3.24583,6.796876 -7.25,6.796876 H 10.25 C 6.245938,57.375 3,54.331817 3,50.578124 Z"
     id="path738"
     style="fill:url(#linearGradient22065);fill-opacity:1;stroke-width:3.625" />
  <path
     style="fill:url(#linearGradient4245);fill-opacity:1;stroke-width:1.28273"
     d="m 20.809146,16.233 c 0,0 5.52363,7.732131 4.640099,8.218336 -1.051839,0.578804 -1.962239,1.355793 -2.71354,2.050998 -3.20927,-0.008 -4.491974,-0.008 -4.491974,-0.008 v 8.979004 l 4.491974,0.0054 c 0,0 6.98337,1.966892 12.117808,2.566062 1.029213,0.120469 -16.609782,8.974028 -16.609782,8.974028 4.39711,0.0016 42.527535,-9.33076 41.057881,-18.065723 -3.378473,-5.168597 -15.345637,-7.365347 -15.345637,-7.365347 0,0 -2.7979,-0.213472 -4.2614,-0.213472 -2.948174,0 -5.657587,0.298318 -8.058908,0.833919 -1.720445,-1.3307 -10.826521,-5.974901 -10.826521,-5.974901 z"
     id="path235" />
  <path
     style="opacity:0.15;fill:#000000;fill-opacity:1;stroke-width:1.28273"
     d="m 20.809146,16.233 c 0,0 3.42507,4.806208 4.426811,7.064876 0.07213,-0.04221 0.139566,-0.08991 0.212877,-0.130277 0.599025,-0.329623 -1.698682,-3.897393 -3.271843,-6.220593 C 21.850881,16.779316 20.809146,16.233 20.809146,16.233 Z m 38.460959,12.601544 c -1.560252,7.197604 -27.554583,14.481106 -37.534061,16.397037 -1.129983,0.572324 -3.492313,1.786245 -3.492313,1.786245 4.416824,0.0016 42.860888,-9.414728 41.026374,-18.183282 z m -41.026374,5.35627 v 1.282707 l 4.491945,0.0057 c 0,0 5.713797,1.600068 10.607338,2.349945 1.02878,-0.598559 1.719939,-1.042712 1.510653,-1.067205 C 29.71923,36.162687 22.735676,34.196446 22.735676,34.196446 Z"
     id="path237" />
  <path
     style="fill:url(#linearGradient4154);fill-opacity:1;fill-rule:evenodd;stroke-width:1.28273"
     d="m 12.342743,25.211915 c -1.031866,1.546239 -0.190613,2.219537 0.899851,2.34689 -1.282845,0.486115 -2.137345,-0.748645 -3.1396,-1.043567 -0.627059,-0.184516 -2.1208841,0.647735 -3.4035886,-0.02062 0.4656634,1.282704 2.3109233,0.3525 2.9378416,0.936721 0.2972274,0.276983 1.452248,1.588949 0.63673,2.636251 C 9.4584728,31.114882 8.6575744,29.19158 7.3657156,29.059999 6.7560705,28.997869 5.385116,30.051545 4.134,29.523186 c 1.2827045,1.317296 1.793399,0.734407 2.6600833,1.503682 0.866655,0.769261 1.7662991,1.965237 0.8021842,3.08271 -0.6055801,0.701866 -2.3526384,0.575687 -2.179563,1.363939 0.2895377,-0.438072 2.4761156,-0.01846 3.2527106,-0.607886 2.5461989,-1.585479 4.0118579,-0.05644 2.5862509,0.958803 -0.419955,0.279509 -1.077635,-0.139522 -1.8036407,-0.06822 -1.2155366,0.119448 -2.5512474,0.64653 -2.7598887,1.054726 0.4095805,-0.118834 1.4132801,-0.252623 2.4462922,0.124433 0.8946482,0.326554 1.8014602,1.170322 2.4845512,1.10349 2.73371,-0.267448 3.506967,-3.350611 6.620751,-1.282702 v -11.54425 c -0.481749,0.207805 -0.949075,0.784659 -2.836797,1.09926 -1.887826,0.314614 -3.281322,0.391302 -3.064191,-1.099259 z"
     id="path239" />
  <path
     style="fill:url(#linearGradient4237);fill-opacity:1;stroke-width:1.28273"
     d="m 22.091847,26.494605 v -1.28269 h -5.13081 v 11.544307 h 5.13081 v -1.282701 c 7.696176,0 12.889462,-2.874341 12.827039,-4.489464 -0.06157,-1.59161 -5.130863,-4.489451 -12.827039,-4.489452 z"
     id="path241" />
  <path
     style="fill:url(#linearGradient4253);fill-opacity:1;stroke:none;stroke-width:2.56539;stroke-linecap:round;stroke-linejoin:round;stroke-miterlimit:4;stroke-dasharray:none;stroke-opacity:1"
     d="m 43.92274,21.584271 a 10.150576,4.4956013 15 0 0 8.685858,6.74169 10.150576,4.4956013 15 0 0 6.689049,0.656384 C 59.052459,27.429485 57.566538,25.895379 54.412356,24.435266 51.713491,23.023159 48.064263,22.002814 43.92274,21.584271 Z"
     id="path243" />
  <path
     style="opacity:0.2;fill:#000000;fill-opacity:1;stroke-width:1.28273"
     d="m 34.688332,30.375277 c -1.079063,1.63046 -5.884997,3.815535 -12.596485,3.815535 v 1.282709 c 7.696176,0 12.889462,-2.874341 12.827039,-4.489464 -0.0088,-0.186985 -0.089,-0.392559 -0.230554,-0.60878 z m -12.596485,5.098244 h -5.13081 v 1.282701 h 5.13081 z"
     id="path245" />
</svg>
