<?xml version="1.0" encoding="UTF-8" standalone="no"?>
<svg
   width="64"
   height="64"
   version="1.1"
   viewBox="0 0 16.933 16.933"
   id="svg392"
   sodipodi:docname="brasero.svg"
   inkscape:version="1.2.1 (9c6d41e410, 2022-07-14)"
   xmlns:inkscape="http://www.inkscape.org/namespaces/inkscape"
   xmlns:sodipodi="http://sodipodi.sourceforge.net/DTD/sodipodi-0.dtd"
   xmlns:xlink="http://www.w3.org/1999/xlink"
   xmlns="http://www.w3.org/2000/svg"
   xmlns:svg="http://www.w3.org/2000/svg"
   xmlns:rdf="http://www.w3.org/1999/02/22-rdf-syntax-ns#"
   xmlns:cc="http://creativecommons.org/ns#"
   xmlns:dc="http://purl.org/dc/elements/1.1/">
  <sodipodi:namedview
     id="namedview394"
     pagecolor="#ffffff"
     bordercolor="#666666"
     borderopacity="1.0"
     inkscape:showpageshadow="2"
     inkscape:pageopacity="0.0"
     inkscape:pagecheckerboard="0"
     inkscape:deskcolor="#d1d1d1"
     showgrid="false"
     inkscape:zoom="3.6875"
     inkscape:cx="32"
     inkscape:cy="32.135593"
     inkscape:window-width="1920"
     inkscape:window-height="1008"
     inkscape:window-x="0"
     inkscape:window-y="0"
     inkscape:window-maximized="1"
     inkscape:current-layer="svg392" />
  <defs
     id="defs370">
    <filter
       id="filter1057"
       x="-0.026999999"
       y="-0.026999999"
       width="1.054"
       height="1.054"
       color-interpolation-filters="sRGB">
      <feGaussianBlur
         stdDeviation="0.61875"
         id="feGaussianBlur349" />
    </filter>
    <linearGradient
       id="linearGradient1053"
       x1="-127"
       x2="-72"
       y1="60"
       y2="5"
       gradientTransform="matrix(0.26458,0,0,0.26458,3.748105,-11.86354)"
       gradientUnits="userSpaceOnUse">
      <stop
         stop-color="#323741"
         offset="0"
         id="stop352" />
      <stop
         stop-color="#465064"
         offset="1"
         id="stop354" />
    </linearGradient>
    <filter
       id="filter957"
       x="-0.06244679"
       y="-0.05773772"
       width="1.1248936"
       height="1.1154754"
       color-interpolation-filters="sRGB">
      <feGaussianBlur
         stdDeviation="0.97449244"
         id="feGaussianBlur357" />
    </filter>
    <linearGradient
       id="linearGradient927"
       x1="22.676"
       x2="23.373"
       y1="47.124"
       y2="5.5176"
       gradientTransform="matrix(0.31633,0,0,0.31633,-30.168695,-10.86469)"
       gradientUnits="userSpaceOnUse">
      <stop
         stop-color="#ff9913"
         offset="0"
         id="stop360" />
      <stop
         stop-color="#faee18"
         offset="1"
         id="stop362" />
    </linearGradient>
    <linearGradient
       id="linearGradient935"
       x1="24.677"
       x2="24.989"
       y1="45.614"
       y2="25.619"
       gradientTransform="matrix(0.31633,0,0,0.31633,-30.168795,-10.86469)"
       gradientUnits="userSpaceOnUse">
      <stop
         stop-color="#fade17"
         offset="0"
         id="stop365" />
      <stop
         stop-color="#fade17"
         stop-opacity="0"
         offset="1"
         id="stop367" />
    </linearGradient>
    <linearGradient
       inkscape:collect="always"
       xlink:href="#linearGradient22063"
       id="linearGradient22065"
       x1="-14"
       y1="6"
       x2="-14"
       y2="-9.999999"
       gradientUnits="userSpaceOnUse"
       gradientTransform="matrix(0.95909574,0,0,0.95909574,21.89384,10.384691)" />
    <linearGradient
       inkscape:collect="always"
       id="linearGradient22063">
      <stop
         style="stop-color:#292f3a;stop-opacity:1;"
         offset="0"
         id="stop22059" />
      <stop
         style="stop-color:#535e75;stop-opacity:1;"
         offset="1"
         id="stop22061" />
    </linearGradient>
    <linearGradient
       id="linearGradient3861"
       x1="23"
       x2="23"
       y1="290.01785"
       y2="188.14763"
       gradientTransform="matrix(0.27951231,0,0,0.2728573,25.148704,-79.150047)"
       gradientUnits="userSpaceOnUse">
      <stop
         stop-color="#eff0f1"
         offset="0"
         id="stop253" />
      <stop
         stop-color="#bdc3c7"
         offset="1"
         id="stop255" />
    </linearGradient>
    <linearGradient
       id="linearGradient1066"
       x1="23.064789"
       x2="23.064789"
       y1="2.9331775"
       y2="-9.4093714"
       gradientUnits="userSpaceOnUse"
       gradientTransform="matrix(1.0564245,0,0,1.0564245,25.148704,-11.228547)">
      <stop
         stop-color="#da4453"
         offset="0"
         id="stop258" />
      <stop
         stop-color="#ed1515"
         offset="1"
         id="stop260" />
    </linearGradient>
    <linearGradient
       id="linearGradient4626">
      <stop
         style="stop-color:#000000;stop-opacity:1;"
         offset="0"
         id="stop4628" />
      <stop
         style="stop-color:#000000;stop-opacity:0;"
         offset="1"
         id="stop4630" />
    </linearGradient>
    <radialGradient
       id="radialGradient1353"
       cx="2.6748774"
       cy="4.5400662"
       r="1.7617654"
       gradientTransform="matrix(3.7078548,0,0,3.4702059,28.197438,3.245035)"
       gradientUnits="userSpaceOnUse"
       xlink:href="#linearGradient4626" />
    <radialGradient
       id="radialGradient1341"
       cx="2.6748774"
       cy="4.5400662"
       r="1.7617654"
       gradientTransform="matrix(0.98103659,0,0,0.91815864,0.28626415,0.85858219)"
       gradientUnits="userSpaceOnUse"
       xlink:href="#linearGradient4626" />
    <radialGradient
       id="radialGradient1345"
       cx="2.6748774"
       cy="4.5400662"
       r="1.7617654"
       gradientTransform="matrix(0.98103659,0,0,0.91815864,2.6715797,0.85858219)"
       gradientUnits="userSpaceOnUse"
       xlink:href="#linearGradient4626" />
    <radialGradient
       id="radialGradient1349"
       cx="2.6748774"
       cy="4.5400662"
       r="1.7617654"
       gradientTransform="matrix(0.98103659,0,0,0.91815864,5.0466293,0.85858219)"
       gradientUnits="userSpaceOnUse"
       xlink:href="#linearGradient4626" />
    <radialGradient
       id="radialGradient1385"
       cx="2.6748774"
       cy="4.5400662"
       r="1.7617654"
       gradientTransform="matrix(3.7078548,0,0,3.4702059,28.197438,12.153046)"
       gradientUnits="userSpaceOnUse"
       xlink:href="#linearGradient4626" />
    <radialGradient
       id="radialGradient1405"
       cx="2.6748774"
       cy="4.5400662"
       r="1.7617654"
       gradientTransform="matrix(3.7078548,0,0,3.4702059,1.0819432,21.211459)"
       gradientUnits="userSpaceOnUse"
       xlink:href="#linearGradient4626" />
    <radialGradient
       id="radialGradient1407"
       cx="2.6748774"
       cy="4.5400662"
       r="1.7617654"
       gradientTransform="matrix(3.7078548,0,0,3.4702059,10.097309,21.211459)"
       gradientUnits="userSpaceOnUse"
       xlink:href="#linearGradient4626" />
    <radialGradient
       id="radialGradient1409"
       cx="2.6748774"
       cy="4.5400662"
       r="1.7617654"
       gradientTransform="matrix(3.7078548,0,0,3.4702059,19.073875,21.211459)"
       gradientUnits="userSpaceOnUse"
       xlink:href="#linearGradient4626" />
    <radialGradient
       id="radialGradient1411"
       cx="2.6748774"
       cy="4.5400662"
       r="1.7617654"
       gradientTransform="matrix(3.7078548,0,0,3.4702059,28.197438,21.211459)"
       gradientUnits="userSpaceOnUse"
       xlink:href="#linearGradient4626" />
    <linearGradient
       id="linearGradient1439"
       x1="23.281746"
       x2="23.281746"
       y1="11.251275"
       y2="2.2961013"
       gradientUnits="userSpaceOnUse">
      <stop
         stop-color="#bdc3c7"
         offset="0"
         id="stop272" />
      <stop
         stop-color="#eff0f1"
         offset="1"
         id="stop274" />
    </linearGradient>
    <linearGradient
       id="linearGradient1441"
       x1="22.997158"
       x2="22.997158"
       y1="25.901901"
       y2="4.0953283"
       gradientTransform="matrix(3.7795276,0,0,3.7795276,-64.000003,0)"
       gradientUnits="userSpaceOnUse">
      <stop
         stop-color="#7f8c8d"
         offset="0"
         id="stop277" />
      <stop
         stop-color="#bdc3c7"
         offset="1"
         id="stop279" />
    </linearGradient>
    <linearGradient
       id="linearGradient1501"
       x1="19.511889"
       x2="19.511889"
       y1="5.8208332"
       y2="2.3392355"
       gradientUnits="userSpaceOnUse">
      <stop
         stop-color="#16a085"
         offset="0"
         id="stop282" />
      <stop
         stop-color="#fff"
         offset="1"
         id="stop284" />
    </linearGradient>
    <linearGradient
       id="linearGradient1509"
       x1="19.511889"
       x2="19.511889"
       y1="5.8208332"
       y2="3.0994468"
       gradientTransform="translate(2.3918707,4.7625003)"
       gradientUnits="userSpaceOnUse"
       xlink:href="#linearGradient1515" />
    <linearGradient
       id="linearGradient1515">
      <stop
         stop-color="#f39c1f"
         offset="0"
         id="stop243" />
      <stop
         stop-color="#fff"
         offset="1"
         id="stop245" />
    </linearGradient>
    <linearGradient
       id="linearGradient1505"
       x1="19.511889"
       x2="19.511889"
       y1="5.8208332"
       y2="3.0994468"
       gradientTransform="translate(4.7625,2.38125)"
       gradientUnits="userSpaceOnUse">
      <stop
         stop-color="#16a085"
         offset="0"
         id="stop287" />
      <stop
         stop-color="#d9faf4"
         offset="1"
         id="stop289" />
    </linearGradient>
    <linearGradient
       id="linearGradient1525"
       x1="19.511889"
       x2="19.511889"
       y1="5.8208332"
       y2="3.0994468"
       gradientTransform="translate(7.143749,-0.03049597)"
       gradientUnits="userSpaceOnUse"
       xlink:href="#linearGradient1515" />
    <linearGradient
       inkscape:collect="always"
       xlink:href="#linearGradient927"
       id="linearGradient1859"
       gradientUnits="userSpaceOnUse"
       gradientTransform="matrix(0.31633,0,0,0.31633001,1.0608757,-0.41466944)"
       x1="22.676"
       y1="47.124"
       x2="23.373"
       y2="5.5176" />
    <linearGradient
       inkscape:collect="always"
       xlink:href="#linearGradient935"
       id="linearGradient1861"
       gradientUnits="userSpaceOnUse"
       gradientTransform="matrix(0.31633,0,0,0.31633001,1.0607757,-0.41466944)"
       x1="24.677"
       y1="45.614"
       x2="24.989"
       y2="25.619" />
  </defs>
  <metadata
     id="metadata372">
    <rdf:RDF>
      <cc:Work
         rdf:about="">
        <dc:format>image/svg+xml</dc:format>
        <dc:type
           rdf:resource="http://purl.org/dc/dcmitype/StillImage" />
      </cc:Work>
    </rdf:RDF>
  </metadata>
  <path
     d="m 0.7937335,2.7119263 c 0,-1.059417 0.858805,-1.91819195 1.918192,-1.91819195 H 14.221075 c 1.059415,0 1.918191,0.85877495 1.918191,1.91819195 V 14.221074 c 0,1.059417 -0.858776,1.918192 -1.918191,1.918192 H 2.7119255 c -1.059387,0 -1.918192,-0.858775 -1.918192,-1.918192 z"
     id="path736"
     style="fill:#606c86;fill-opacity:1;stroke-width:0.959096" />
  <path
     d="m 0.7937335,2.5920394 c 0,-0.993144 0.858805,-1.79830505 1.918192,-1.79830505 H 14.221075 c 1.059415,0 1.918191,0.80516095 1.918191,1.79830495 V 13.381865 c 0,0.993145 -0.858776,1.798305 -1.918191,1.798305 H 2.7119255 c -1.059387,0 -1.918192,-0.80516 -1.918192,-1.798305 z"
     id="path738"
     style="fill:url(#linearGradient22065);fill-opacity:1;stroke-width:0.959096" />
  <path
     d="m 7.6336757,1.3232106 6.35e-4,0.0019 c 1.3726,2.2364001 0.15152,2.6062001 -0.12242,4.3371002 a 1.898,1.8980001 0 0 1 1.1404,-0.3830701 1.898,1.8980001 0 0 1 1.8979993,1.8980001 1.898,1.8980001 0 0 1 -1.8979993,1.8980001 1.898,1.8980001 0 0 1 -1.898,-1.8980001 1.898,1.8980001 0 0 1 0.29608,-1.0138 c -0.17714,-0.25305 -0.41312,-0.45425 -0.92874,-0.56781 1.2653,2.2143 -1.5089,1.9669 -1.2457,3.8950001 -0.34099,-0.09395 -0.65354,-0.72914 -0.39542,-1.5124001 -0.89078,1.0999001 -0.57351,2.0469992 0.05947,2.9958992 -0.63266,-0.63266 -1.6671,-0.63077 -1.9834,-1.5205991 -0.19834,1.1488991 0.30304,2.2332991 1.1954,3.1016991 1.2928,1.179 3.0124,1.898 4.9,1.898 0.9996,0 1.9520993,-0.20182 2.8190993,-0.56654 1.501,-0.74085 2.8344,-2.0571 2.8897,-3.5632 -0.29419,0.43621 -1.5975,1.2814 -2.1804,1.2814 1.5336,-1.2653 1.8512,-3.1632992 0.4843,-4.9821992 0.10123,1.1862 -0.53744,1.8205 -1.0973,2.2238001 0.87623,-1.6705001 0.87623,-3.5736002 -0.84016,-5.2493002 0.13729,0.41028 0.24231,0.73166 0.14836,1.1071 C 10.9708,4.2445507 9.6007807,2.1149906 7.6331807,1.3228906 Z"
     fill="url(#linearGradient927)"
     id="path382-3"
     style="fill:url(#linearGradient1859);stroke-width:0.31633" />
  <path
     d="M 10.237675,8.4419108 C 9.6050157,8.7582409 9.2886857,9.3909009 9.6050157,10.02351 9.2716057,9.7732909 9.1899957,9.4088809 9.2004357,8.9929109 a 1.898,1.8980001 0 0 1 -0.5463,0.08225 1.898,1.8980001 0 0 1 -1.2748,-0.4944301 c -0.65986,0.6854801 -1.2561,1.4180999 -1.2561,2.3923992 0,1.5816 1.0714,2.847 2.5901,2.847 h 0.05979 C 10.589525,13.75845 11.652325,11.69973 10.177025,9.9647307 9.9236457,9.7053409 9.9198457,9.0745809 10.237445,8.4419308 Z"
     fill="url(#linearGradient935)"
     id="path384-5"
     style="fill:url(#linearGradient1861);stroke-width:0.31633" />
  <circle
     cx="8.6526756"
     cy="7.1773109"
     r="0.94898999"
     fill="#ffffff"
     opacity="0.5"
     id="circle386-6"
     style="stroke-width:0.31633" />
</svg>
