<?xml version="1.0" encoding="UTF-8" standalone="no"?>
<svg
   width="64"
   height="64"
   version="1.1"
   id="svg23117"
   sodipodi:docname="calindori.svg"
   inkscape:version="1.2.1 (9c6d41e410, 2022-07-14)"
   xmlns:inkscape="http://www.inkscape.org/namespaces/inkscape"
   xmlns:sodipodi="http://sodipodi.sourceforge.net/DTD/sodipodi-0.dtd"
   xmlns:xlink="http://www.w3.org/1999/xlink"
   xmlns="http://www.w3.org/2000/svg"
   xmlns:svg="http://www.w3.org/2000/svg">
  <sodipodi:namedview
     id="namedview23119"
     pagecolor="#ffffff"
     bordercolor="#666666"
     borderopacity="1.0"
     inkscape:showpageshadow="2"
     inkscape:pageopacity="0.0"
     inkscape:pagecheckerboard="0"
     inkscape:deskcolor="#d1d1d1"
     showgrid="false"
     inkscape:zoom="4.9166667"
     inkscape:cx="24.508474"
     inkscape:cy="24.508474"
     inkscape:window-width="1920"
     inkscape:window-height="1002"
     inkscape:window-x="0"
     inkscape:window-y="0"
     inkscape:window-maximized="1"
     inkscape:current-layer="svg23117" />
  <defs
     id="defs23105">
    <linearGradient
       id="a"
       y1="547.63397"
       y2="499.67899"
       x2="388.86499"
       gradientUnits="userSpaceOnUse"
       gradientTransform="translate(-453.04388,-539.81483)"
       x1="428.81601">
      <stop
         stop-color="#2a2c2f"
         id="stop23090" />
      <stop
         offset="1"
         stop-color="#536161"
         id="stop23092" />
    </linearGradient>
    <linearGradient
       id="b"
       y1="44"
       y2="12"
       x2="14"
       gradientUnits="userSpaceOnUse"
       x1="36"
       gradientTransform="translate(-68.473879,-40.014831)">
      <stop
         stop-color="#536161"
         style="stop-color:#bfc9c9;stop-opacity:1"
         id="stop23095" />
      <stop
         offset="1"
         stop-color="#f4f5f5"
         style="stop-color:#fbfbfb;stop-opacity:1"
         id="stop23097" />
    </linearGradient>
    <linearGradient
       id="c"
       y1="527.01398"
       x1="406.50101"
       y2="539.82501"
       x2="419.974"
       gradientUnits="userSpaceOnUse"
       gradientTransform="translate(-453.04388,-539.81483)">
      <stop
         stop-color="#292c2f"
         id="stop23100" />
      <stop
         offset="1"
         stop-opacity="0"
         id="stop23102" />
    </linearGradient>
    <linearGradient
       inkscape:collect="always"
       xlink:href="#linearGradient22063"
       id="linearGradient22065"
       x1="-14"
       y1="6"
       x2="-14"
       y2="-9.999999"
       gradientUnits="userSpaceOnUse"
       gradientTransform="matrix(3.6250002,0,0,3.6250002,82.750005,39.249999)" />
    <linearGradient
       inkscape:collect="always"
       id="linearGradient22063">
      <stop
         style="stop-color:#292f3a;stop-opacity:1;"
         offset="0"
         id="stop22059" />
      <stop
         style="stop-color:#535e75;stop-opacity:1;"
         offset="1"
         id="stop22061" />
    </linearGradient>
    <linearGradient
       gradientTransform="matrix(1.4175135,0,0,1.4175135,-0.97261301,0.3330346)"
       id="b-3"
       y1="23.774559"
       x1="22.540125"
       y2="35.804409"
       x2="35.770538"
       gradientUnits="userSpaceOnUse">
      <stop
         stop-color="#292c2f"
         id="stop12" />
      <stop
         offset="1"
         stop-color="#292c2f"
         stop-opacity="0"
         id="stop14" />
    </linearGradient>
    <linearGradient
       xlink:href="#linearGradient4564"
       id="linearGradient4570"
       x1="18.653"
       y1="20.191"
       x2="7.4320002"
       y2="8.5249996"
       gradientUnits="userSpaceOnUse"
       gradientTransform="matrix(0.99999999,0,0,1.1578948,8.0000025,3.1451316)" />
    <linearGradient
       id="linearGradient4564">
      <stop
         style="stop-color:#ffa92d;stop-opacity:1;"
         offset="0"
         id="stop4566" />
      <stop
         style="stop-color:#ffc169;stop-opacity:1"
         offset="1"
         id="stop4568" />
    </linearGradient>
    <linearGradient
       xlink:href="#linearGradient4574"
       id="linearGradient4580"
       x1="28.615"
       y1="21.502001"
       x2="39.939999"
       y2="10.118"
       gradientUnits="userSpaceOnUse"
       gradientTransform="matrix(0.99999999,0,0,1.1578948,8.0000025,3.1451316)" />
    <linearGradient
       id="linearGradient4574">
      <stop
         style="stop-color:#bf4231;stop-opacity:1;"
         offset="0"
         id="stop4576" />
      <stop
         style="stop-color:#f58273;stop-opacity:1"
         offset="1"
         id="stop4578" />
    </linearGradient>
    <linearGradient
       xlink:href="#linearGradient4590"
       id="linearGradient4596"
       x1="33.241001"
       y1="30.191"
       x2="40.393002"
       y2="37.416"
       gradientUnits="userSpaceOnUse"
       gradientTransform="matrix(0.99999999,0,0,1.1578948,8.0000025,3.1451316)" />
    <linearGradient
       id="linearGradient4590">
      <stop
         id="stop4594"
         offset="0"
         style="stop-color:#54d883;stop-opacity:1" />
      <stop
         id="stop4592"
         offset="1"
         style="stop-color:#3bb566;stop-opacity:1;" />
    </linearGradient>
    <linearGradient
       xlink:href="#linearGradient4582"
       id="linearGradient4588"
       x1="19.830999"
       y1="26.561001"
       x2="9.6899996"
       y2="37.881001"
       gradientUnits="userSpaceOnUse"
       gradientTransform="matrix(0.99999999,0,0,1.1578948,8.0000025,3.1451316)" />
    <linearGradient
       id="linearGradient4582">
      <stop
         id="stop4586"
         offset="0"
         style="stop-color:#7cbcec;stop-opacity:1" />
      <stop
         id="stop4584"
         offset="1"
         style="stop-color:#3b85b5;stop-opacity:1;" />
    </linearGradient>
    <linearGradient
       xlink:href="#linearGradient4626"
       id="linearGradient4632"
       x1="23.693001"
       y1="21.277"
       x2="34.937"
       y2="32.521999"
       gradientUnits="userSpaceOnUse"
       gradientTransform="matrix(1.1,0,0,1.1,5.6000025,4.5346056)" />
    <linearGradient
       id="linearGradient4626">
      <stop
         style="stop-color:#000000;stop-opacity:1;"
         offset="0"
         id="stop4628" />
      <stop
         style="stop-color:#000000;stop-opacity:0;"
         offset="1"
         id="stop4630" />
    </linearGradient>
    <linearGradient
       xlink:href="#linearGradient4598"
       id="linearGradient4604"
       x1="27.197001"
       y1="33.474998"
       x2="21.365999"
       y2="14.901"
       gradientUnits="userSpaceOnUse"
       gradientTransform="matrix(1.1,0,0,1.32,5.6000025,-0.74539444)" />
    <linearGradient
       id="linearGradient4598">
      <stop
         style="stop-color:#172525;stop-opacity:1;"
         offset="0"
         id="stop4600" />
      <stop
         style="stop-color:#334545;stop-opacity:1"
         offset="1"
         id="stop4602" />
    </linearGradient>
    <linearGradient
       xlink:href="#linearGradient4656"
       id="linearGradient4662"
       x1="19.025"
       y1="15.232"
       x2="29.945999"
       y2="31.764999"
       gradientUnits="userSpaceOnUse"
       gradientTransform="matrix(1.1,0,0,1.1,6.7000025,4.5346056)" />
    <linearGradient
       id="linearGradient4656">
      <stop
         style="stop-color:#ffffff;stop-opacity:1;"
         offset="0"
         id="stop4658" />
      <stop
         style="stop-color:#536161;stop-opacity:1"
         offset="1"
         id="stop4660" />
    </linearGradient>
    <linearGradient
       id="d"
       gradientTransform="matrix(2.114694,2.114694,-2.114694,2.114694,3.2088125,-828.15895)"
       gradientUnits="userSpaceOnUse"
       x1="210.5"
       x2="210.5"
       y1="188"
       y2="193.5">
      <stop
         offset="0"
         stop-color="#9b9ea2"
         id="stop17" />
      <stop
         offset="1"
         stop-color="#1a1b1e"
         id="stop19" />
    </linearGradient>
    <linearGradient
       id="a-3"
       gradientTransform="matrix(3.4959872,0,0,3.4959871,1.30074,3.299862)"
       gradientUnits="userSpaceOnUse"
       x1="8.5"
       x2="0.5"
       y1="7.6373668"
       y2="-0.371815">
      <stop
         offset="0"
         stop-color="#4f5356"
         id="stop2" />
      <stop
         offset="1"
         stop-color="#9b9ea2"
         stop-opacity="1"
         id="stop4" />
    </linearGradient>
    <radialGradient
       id="b-6"
       cx="16"
       cy="17"
       gradientUnits="userSpaceOnUse"
       r="11">
      <stop
         offset="0"
         stop-color="#3dd425"
         stop-opacity=".954751"
         id="stop7" />
      <stop
         offset="1"
         stop-color="#59f07c"
         id="stop9" />
    </radialGradient>
    <linearGradient
       id="c-7"
       gradientUnits="userSpaceOnUse"
       x1="14.541744"
       x2="26.541744"
       y1="16"
       y2="28"
       gradientTransform="matrix(1.5,0,0,1.5,8.0000025,7.0414438)">
      <stop
         offset="0"
         id="stop12-5" />
      <stop
         offset="1"
         stop-opacity="0"
         id="stop14-3" />
    </linearGradient>
    <linearGradient
       xlink:href="#linearGradient564"
       id="linearGradient4309"
       x1="7.6230001"
       y1="16.497"
       x2="46"
       y2="40"
       gradientUnits="userSpaceOnUse"
       gradientTransform="matrix(1.1277754,0,0,1.1277754,4.5436767,1.4778)" />
    <linearGradient
       id="linearGradient564">
      <stop
         style="stop-color:#5e98d7;stop-opacity:1"
         offset="0"
         id="stop223" />
      <stop
         style="stop-color:#3363ac;stop-opacity:1"
         offset="1"
         id="stop225" />
    </linearGradient>
    <linearGradient
       xlink:href="#linearGradient4626"
       id="linearGradient4419"
       x1="4"
       y1="29"
       x2="15.409"
       y2="40.409"
       gradientUnits="userSpaceOnUse"
       gradientTransform="matrix(1.1277754,0,0,1.1277754,4.5436767,3.7338968)" />
    <linearGradient
       xlink:href="#linearGradient4626"
       id="linearGradient4407"
       x1="10"
       y1="8"
       x2="33.004002"
       y2="31.004"
       gradientUnits="userSpaceOnUse"
       gradientTransform="matrix(1.1277754,0,0,1.1277754,4.5436767,3.7338968)" />
    <linearGradient
       x1="27.719999"
       y1="14.786"
       x2="27.719999"
       y2="24.357"
       id="linearGradient3432"
       xlink:href="#linearGradient4321"
       gradientUnits="userSpaceOnUse"
       gradientTransform="matrix(1.0609217,0,0,1.4140536,-9.076381,-2.5141373)"
       spreadMethod="pad" />
    <linearGradient
       id="linearGradient4321">
      <stop
         offset="0"
         style="stop-color:#ffffff;stop-opacity:1"
         id="stop213" />
      <stop
         offset="1"
         style="stop-color:#b1b1b1;stop-opacity:1"
         id="stop215" />
    </linearGradient>
    <linearGradient
       xlink:href="#linearGradient4192"
       id="linearGradient4333"
       x1="17"
       y1="18"
       x2="11.574"
       y2="9.3629999"
       gradientUnits="userSpaceOnUse"
       gradientTransform="matrix(1.1277754,0,0,1.1277754,4.5436767,1.4778)" />
    <linearGradient
       id="linearGradient4192">
      <stop
         style="stop-color:#44a3c8;stop-opacity:1"
         offset="0"
         id="stop198" />
      <stop
         style="stop-color:#8dcdda;stop-opacity:1"
         offset="1"
         id="stop200" />
    </linearGradient>
    <linearGradient
       xlink:href="#linearGradient4313"
       id="linearGradient4319"
       x1="12"
       y1="18"
       x2="14"
       y2="20"
       gradientUnits="userSpaceOnUse"
       gradientTransform="matrix(1.1277754,0,0,1.1277754,5.1075644,1.5905776)" />
    <linearGradient
       id="linearGradient4313">
      <stop
         style="stop-color:#ffffff;stop-opacity:1;"
         offset="0"
         id="stop218" />
      <stop
         style="stop-color:#ffffff;stop-opacity:0;"
         offset="1"
         id="stop220" />
    </linearGradient>
    <linearGradient
       xlink:href="#linearGradient4192"
       id="linearGradient4350"
       x1="13"
       y1="38"
       x2="4"
       y2="30"
       gradientUnits="userSpaceOnUse"
       gradientTransform="matrix(1.1277754,0,0,1.1277754,4.5436767,1.4778)" />
    <linearGradient
       gradientTransform="matrix(0.33710364,0,0,0.33162938,257.3899,363.04509)"
       xlink:href="#linearGradient3347"
       id="linearGradient3353"
       x1="376.91901"
       y1="410.05899"
       x2="528.57098"
       y2="561.711"
       gradientUnits="userSpaceOnUse" />
    <linearGradient
       id="linearGradient3347">
      <stop
         style="stop-color:#006680;stop-opacity:1;"
         offset="0"
         id="stop215-3" />
      <stop
         offset=".252"
         style="stop-color:#80b3ff;stop-opacity:1"
         id="stop217" />
      <stop
         style="stop-color:#0066ff;stop-opacity:1"
         offset=".459"
         id="stop219" />
      <stop
         offset=".899"
         style="stop-color:#002255;stop-opacity:1"
         id="stop221" />
      <stop
         style="stop-color:#006680;stop-opacity:0;"
         offset="1"
         id="stop223-6" />
    </linearGradient>
    <linearGradient
       id="d-3"
       y1="15"
       x1="12"
       y2="8"
       x2="24"
       gradientUnits="userSpaceOnUse">
      <stop
         stop-color="#2e5d89"
         id="stop229" />
      <stop
         offset="1"
         stop-color="#1b92f4"
         id="stop231" />
    </linearGradient>
    <linearGradient
       id="e"
       y1="10.361"
       x1="9.4040003"
       y2="15.713"
       x2="14.756"
       gradientUnits="userSpaceOnUse">
      <stop
         id="stop234" />
      <stop
         offset="1"
         stop-opacity="0"
         id="stop236" />
    </linearGradient>
    <linearGradient
       id="a-6"
       y1="37"
       x1="13"
       y2="24"
       x2="8"
       gradientUnits="userSpaceOnUse">
      <stop
         stop-color="#ec4c21"
         id="stop214" />
      <stop
         offset="1"
         stop-color="#ec7b0f"
         id="stop216" />
    </linearGradient>
    <linearGradient
       id="b-7"
       y1="33"
       x1="36"
       y2="40"
       x2="23"
       gradientUnits="userSpaceOnUse">
      <stop
         stop-color="#06a370"
         id="stop219-5" />
      <stop
         offset="1"
         stop-color="#22d1b0"
         id="stop221-3" />
    </linearGradient>
    <linearGradient
       id="c-5"
       y1="12"
       x1="33"
       y2="24"
       x2="38"
       gradientUnits="userSpaceOnUse">
      <stop
         stop-color="#faae2a"
         id="stop224" />
      <stop
         offset="1"
         stop-color="#ffc35a"
         id="stop226" />
    </linearGradient>
    <linearGradient
       xlink:href="#e"
       id="f"
       y1="30.280001"
       x1="34.209999"
       y2="35.790001"
       x2="39.723999"
       gradientUnits="userSpaceOnUse" />
    <linearGradient
       xlink:href="#e"
       id="g"
       y1="34.209999"
       x1="17.725"
       y2="41.873001"
       x2="25.386999"
       gradientUnits="userSpaceOnUse" />
    <linearGradient
       id="linearGradient3861"
       x1="23"
       x2="23"
       y1="290.01785"
       y2="188.14763"
       gradientTransform="matrix(1.0564453,0,0,1.031292,6.6453155,-250.07093)"
       gradientUnits="userSpaceOnUse">
      <stop
         stop-color="#eff0f1"
         offset="0"
         id="stop253" />
      <stop
         stop-color="#bdc3c7"
         offset="1"
         id="stop255" />
    </linearGradient>
    <linearGradient
       id="linearGradient1066"
       x1="23.064789"
       x2="23.064789"
       y1="2.9331775"
       y2="-9.4093714"
       gradientUnits="userSpaceOnUse"
       gradientTransform="matrix(3.9928643,0,0,3.9928643,6.6453155,6.6453088)">
      <stop
         stop-color="#da4453"
         offset="0"
         id="stop258" />
      <stop
         stop-color="#ed1515"
         offset="1"
         id="stop260" />
    </linearGradient>
    <radialGradient
       id="radialGradient1341"
       cx="2.6748774"
       cy="4.5400662"
       r="1.7617654"
       gradientTransform="matrix(0.98103659,0,0,0.91815864,0.28626415,0.85858219)"
       gradientUnits="userSpaceOnUse"
       xlink:href="#linearGradient4626" />
    <radialGradient
       id="radialGradient1345"
       cx="2.6748774"
       cy="4.5400662"
       r="1.7617654"
       gradientTransform="matrix(0.98103659,0,0,0.91815864,2.6715797,0.85858219)"
       gradientUnits="userSpaceOnUse"
       xlink:href="#linearGradient4626" />
    <radialGradient
       id="radialGradient1349"
       cx="2.6748774"
       cy="4.5400662"
       r="1.7617654"
       gradientTransform="matrix(0.98103659,0,0,0.91815864,5.0466293,0.85858219)"
       gradientUnits="userSpaceOnUse"
       xlink:href="#linearGradient4626" />
    <radialGradient
       id="radialGradient1353"
       cx="2.6748774"
       cy="4.5400662"
       r="1.7617654"
       gradientTransform="matrix(3.7078548,0,0,3.4702059,28.197438,3.245035)"
       gradientUnits="userSpaceOnUse"
       xlink:href="#linearGradient4626" />
    <radialGradient
       id="radialGradient632"
       cx="2.6748774"
       cy="4.5400662"
       r="1.7617654"
       gradientTransform="matrix(0.98103659,0,0,0.91815864,0.28626415,0.85858219)"
       gradientUnits="userSpaceOnUse"
       xlink:href="#linearGradient4626" />
    <radialGradient
       id="radialGradient640"
       cx="2.6748774"
       cy="4.5400662"
       r="1.7617654"
       gradientTransform="matrix(0.98103659,0,0,0.91815864,2.6715797,0.85858219)"
       gradientUnits="userSpaceOnUse"
       xlink:href="#linearGradient4626" />
    <radialGradient
       id="radialGradient648"
       cx="2.6748774"
       cy="4.5400662"
       r="1.7617654"
       gradientTransform="matrix(0.98103659,0,0,0.91815864,5.0466293,0.85858219)"
       gradientUnits="userSpaceOnUse"
       xlink:href="#linearGradient4626" />
    <radialGradient
       id="radialGradient1385"
       cx="2.6748774"
       cy="4.5400662"
       r="1.7617654"
       gradientTransform="matrix(3.7078548,0,0,3.4702059,28.197438,12.153046)"
       gradientUnits="userSpaceOnUse"
       xlink:href="#linearGradient4626" />
    <radialGradient
       id="radialGradient1405"
       cx="2.6748774"
       cy="4.5400662"
       r="1.7617654"
       gradientTransform="matrix(3.7078548,0,0,3.4702059,1.0819432,21.211459)"
       gradientUnits="userSpaceOnUse"
       xlink:href="#linearGradient4626" />
    <radialGradient
       id="radialGradient1407"
       cx="2.6748774"
       cy="4.5400662"
       r="1.7617654"
       gradientTransform="matrix(3.7078548,0,0,3.4702059,10.097309,21.211459)"
       gradientUnits="userSpaceOnUse"
       xlink:href="#linearGradient4626" />
    <radialGradient
       id="radialGradient1409"
       cx="2.6748774"
       cy="4.5400662"
       r="1.7617654"
       gradientTransform="matrix(3.7078548,0,0,3.4702059,19.073875,21.211459)"
       gradientUnits="userSpaceOnUse"
       xlink:href="#linearGradient4626" />
    <radialGradient
       id="radialGradient1411"
       cx="2.6748774"
       cy="4.5400662"
       r="1.7617654"
       gradientTransform="matrix(3.7078548,0,0,3.4702059,28.197438,21.211459)"
       gradientUnits="userSpaceOnUse"
       xlink:href="#linearGradient4626" />
    <linearGradient
       id="linearGradient1439"
       x1="23.281746"
       x2="23.281746"
       y1="11.251275"
       y2="2.2961013"
       gradientUnits="userSpaceOnUse">
      <stop
         stop-color="#bdc3c7"
         offset="0"
         id="stop272" />
      <stop
         stop-color="#eff0f1"
         offset="1"
         id="stop274" />
    </linearGradient>
    <linearGradient
       id="linearGradient1441"
       x1="22.997158"
       x2="22.997158"
       y1="25.901901"
       y2="4.0953283"
       gradientTransform="matrix(3.7795276,0,0,3.7795276,-64.000003,0)"
       gradientUnits="userSpaceOnUse">
      <stop
         stop-color="#7f8c8d"
         offset="0"
         id="stop277" />
      <stop
         stop-color="#bdc3c7"
         offset="1"
         id="stop279" />
    </linearGradient>
    <linearGradient
       id="linearGradient1501"
       x1="19.511889"
       x2="19.511889"
       y1="5.8208332"
       y2="2.3392355"
       gradientUnits="userSpaceOnUse">
      <stop
         stop-color="#16a085"
         offset="0"
         id="stop282" />
      <stop
         stop-color="#fff"
         offset="1"
         id="stop284" />
    </linearGradient>
    <linearGradient
       id="linearGradient1509"
       x1="19.511889"
       x2="19.511889"
       y1="5.8208332"
       y2="3.0994468"
       gradientTransform="translate(2.3918707,4.7625003)"
       gradientUnits="userSpaceOnUse"
       xlink:href="#linearGradient1515" />
    <linearGradient
       id="linearGradient1515">
      <stop
         stop-color="#f39c1f"
         offset="0"
         id="stop243" />
      <stop
         stop-color="#fff"
         offset="1"
         id="stop245" />
    </linearGradient>
    <linearGradient
       id="linearGradient1505"
       x1="19.511889"
       x2="19.511889"
       y1="5.8208332"
       y2="3.0994468"
       gradientTransform="translate(4.7625,2.38125)"
       gradientUnits="userSpaceOnUse">
      <stop
         stop-color="#16a085"
         offset="0"
         id="stop287" />
      <stop
         stop-color="#d9faf4"
         offset="1"
         id="stop289" />
    </linearGradient>
    <linearGradient
       id="linearGradient1525"
       x1="19.511889"
       x2="19.511889"
       y1="5.8208332"
       y2="3.0994468"
       gradientTransform="translate(7.143749,-0.03049597)"
       gradientUnits="userSpaceOnUse"
       xlink:href="#linearGradient1515" />
    <radialGradient
       inkscape:collect="always"
       xlink:href="#linearGradient4626"
       id="radialGradient748"
       gradientUnits="userSpaceOnUse"
       gradientTransform="matrix(0.98103659,0,0,0.91815864,0.28626415,0.85858219)"
       cx="2.6748774"
       cy="4.5400662"
       r="1.7617654" />
    <radialGradient
       inkscape:collect="always"
       xlink:href="#linearGradient4626"
       id="radialGradient750"
       gradientUnits="userSpaceOnUse"
       gradientTransform="matrix(0.98103659,0,0,0.91815864,2.6715797,0.85858219)"
       cx="2.6748774"
       cy="4.5400662"
       r="1.7617654" />
    <radialGradient
       inkscape:collect="always"
       xlink:href="#linearGradient4626"
       id="radialGradient752"
       gradientUnits="userSpaceOnUse"
       gradientTransform="matrix(0.98103659,0,0,0.91815864,5.0466293,0.85858219)"
       cx="2.6748774"
       cy="4.5400662"
       r="1.7617654" />
  </defs>
  <path
     d="M 3,10.25 C 3,6.245825 6.245938,3 10.25,3 h 43.500005 c 4.00417,0 7.25,3.245825 7.25,7.25 v 43.5 c 0,4.004173 -3.24583,7.25 -7.25,7.25 H 10.25 C 6.245938,61 3,57.754173 3,53.75 Z"
     id="path736"
     style="fill:#606c86;fill-opacity:1;stroke-width:3.625" />
  <path
     d="M 3,9.796875 C 3,6.043188 6.245938,3 10.25,3 h 43.500005 c 4.00417,0 7.25,3.043188 7.25,6.796875 v 40.781249 c 0,3.753693 -3.24583,6.796876 -7.25,6.796876 H 10.25 C 6.245938,57.375 3,54.331817 3,50.578124 Z"
     id="path738"
     style="fill:url(#linearGradient22065);fill-opacity:1;stroke-width:3.625" />
  <rect
     x="10.871096"
     y="10.871098"
     width="42.257809"
     height="41.201366"
     rx="6.3386674"
     ry="6.3386674"
     fill="#0000ff"
     style="stroke-width:3.99286;paint-order:normal"
     id="rect298" />
  <rect
     x="10.871096"
     y="10.871096"
     width="42.257809"
     height="42.257809"
     rx="6.3386693"
     ry="6.3386693"
     fill="#99a3a5"
     stroke-width="1.05641"
     style="paint-order:markers fill stroke"
     id="rect300" />
  <rect
     x="10.871096"
     y="10.871096"
     width="42.257809"
     height="41.201366"
     rx="6.3363004"
     ry="6.3363004"
     fill="url(#linearGradient3861)"
     stroke-width="1.05641"
     style="fill:url(#linearGradient3861);paint-order:markers fill stroke"
     id="rect302" />
  <path
     d="m 17.209761,10.871095 c -3.511618,0 -6.338667,2.827048 -6.338667,6.338671 v 2.112891 h 42.257798 v -2.112891 c 0,-3.511623 -2.82701,-6.338671 -6.33862,-6.338671 z"
     fill="url(#linearGradient1066)"
     style="fill:url(#linearGradient1066);stroke-width:3.99286;paint-order:normal"
     id="path312" />
  <g
     transform="matrix(3.992864,0,0,3.992864,6.6453135,25.625857)"
     opacity="0.2"
     id="g338">
    <path
       transform="translate(0,-4.7536164)"
       d="M 1.9048215,5.7122724 2.6902079,6.4976589 H 5.4283523 V 5.8451724 L 3.6045858,4.0214058"
       fill="url(#radialGradient1341)"
       opacity="1"
       style="fill:url(#radialGradient748);paint-order:normal"
       id="path314" />
    <path
       transform="translate(0,-4.7536164)"
       d="M 4.2901371,5.7122724 5.0755235,6.4976589 H 7.8136679 V 5.8451724 L 5.9899014,4.0214058"
       fill="url(#radialGradient1345)"
       opacity="1"
       style="fill:url(#radialGradient750);paint-order:normal"
       id="path316" />
    <path
       transform="translate(0,-4.7536164)"
       d="M 6.6651867,5.7122724 7.4505731,6.4976589 H 10.188717 V 5.8451724 L 8.364951,4.0214058"
       fill="url(#radialGradient1349)"
       opacity="1"
       style="fill:url(#radialGradient752);paint-order:normal"
       id="path318" />
    <path
       transform="matrix(0.26458333,0,0,0.26458333,0,-4.7536164)"
       d="m 40.738281,15.199219 -6.423828,6.390625 2.96875,2.96875 H 44 v -6.097656 z"
       fill="url(#radialGradient1353)"
       opacity="1"
       style="fill:url(#radialGradient1353);paint-order:normal"
       id="path320" />
    <path
       transform="translate(0,-2.3967052)"
       d="M 1.9048215,5.7122724 2.6902079,6.4976589 H 5.4283523 V 5.8451724 L 3.6045858,4.0214058"
       fill="url(#radialGradient1341)"
       opacity="1"
       style="fill:url(#radialGradient1341);paint-order:normal"
       id="path322" />
    <path
       transform="translate(0,-2.3967052)"
       d="M 4.2901371,5.7122724 5.0755235,6.4976589 H 7.8136679 V 5.8451724 L 5.9899014,4.0214058"
       fill="url(#radialGradient1345)"
       opacity="1"
       style="fill:url(#radialGradient1345);paint-order:normal"
       id="path324" />
    <path
       transform="translate(0,-2.3967052)"
       d="M 6.6651867,5.7122724 7.4505731,6.4976589 H 10.188717 V 5.8451724 L 8.364951,4.0214058"
       fill="url(#radialGradient1349)"
       opacity="1"
       style="fill:url(#radialGradient1349);paint-order:normal"
       id="path326" />
    <path
       transform="matrix(0.26458333,0,0,0.26458333,0,-4.7536164)"
       d="m 40.738281,24.107422 -6.423828,6.390625 2.96875,2.96875 H 44 v -6.097656 z"
       fill="url(#radialGradient1385)"
       opacity="1"
       style="fill:url(#radialGradient1385);paint-order:normal"
       id="path328" />
    <path
       transform="matrix(0.26458333,0,0,0.26458333,0,-4.7536164)"
       d="m 13.623047,33.166016 -6.4238282,6.390625 3.4335932,3.433593 C 10.700203,42.992181 10.766106,43 10.833984,43 h 11 l -1.316406,-2.941406 z"
       fill="url(#radialGradient1405)"
       opacity="1"
       style="fill:url(#radialGradient1405);paint-order:normal"
       id="path330" />
    <path
       transform="matrix(0.26458333,0,0,0.26458333,0,-4.7536164)"
       d="M 22.638672,33.166016 16.214844,39.556641 19.658203,43 H 30.847656 L 29.53125,40.058594 Z"
       fill="url(#radialGradient1407)"
       opacity="1"
       style="fill:url(#radialGradient1407);paint-order:normal"
       id="path332" />
    <path
       transform="matrix(0.26458333,0,0,0.26458333,0,-4.7536164)"
       d="M 31.615234,33.166016 25.191406,39.556641 28.634766,43 h 8.53125 c 0.866467,0 1.691674,-0.167365 2.453125,-0.458984 l -1.111329,-2.482422 z"
       fill="url(#radialGradient1409)"
       opacity="1"
       style="fill:url(#radialGradient1409);paint-order:normal"
       id="path334" />
    <path
       transform="matrix(0.26458333,0,0,0.26458333,0,-4.7536164)"
       d="m 40.738281,33.166016 -6.423828,6.390625 3.416016,3.416015 c 3.437224,-0.279022 6.133869,-3.078382 6.257812,-6.558594 z"
       fill="url(#radialGradient1411)"
       opacity="1"
       style="fill:url(#radialGradient1411);paint-order:normal"
       id="path336" />
  </g>
  <g
     transform="matrix(3.992864,0,0,3.992864,-51.726373,8.0048428)"
     shape-rendering="auto"
     id="g346">
    <path
       d="m 18.306641,1.5683594 c 0,-0.1563847 -0.128761,-0.2871094 -0.285157,-0.2871094 -0.156395,0 -0.285156,0.1307247 -0.285156,0.2871094 0,0.1563846 0.128761,0.2851562 0.285156,0.2851562 0.156396,0 0.285157,-0.1287716 0.285157,-0.2851562 z m -0.197266,0 c 0,0.050309 -0.03828,0.087891 -0.08789,0.087891 -0.04961,0 -0.08789,-0.037581 -0.08789,-0.087891 0,-0.050309 0.03828,-0.089844 0.08789,-0.089844 0.04961,0 0.08789,0.039534 0.08789,0.089844 z"
       color="#000000"
       color-rendering="auto"
       dominant-baseline="auto"
       fill="#232629"
       image-rendering="auto"
       solid-color="#000000"
       style="font-variant-ligatures:normal;font-variant-position:normal;font-variant-caps:normal;font-variant-numeric:normal;font-variant-alternates:normal;font-feature-settings:normal;text-indent:0;text-decoration-line:none;text-decoration-style:solid;text-decoration-color:#000000;text-transform:none;text-orientation:mixed;white-space:normal;shape-padding:0;isolation:auto;mix-blend-mode:normal;paint-order:markers fill stroke"
       id="path340" />
    <path
       d="m 18.115234,-0.2109375 c -0.05619,-0.0164115 -0.120321,-0.004845 -0.167968,0.0234375 -0.0953,0.0565655 -0.145674,0.15565464 -0.189454,0.28710937 -0.08755,0.26289977 -0.111409,0.6274567 -0.06641,0.95507813 0.04715,0.3431878 0.236328,0.578125 0.236328,0.578125 a 0.11131392,0.11131392 0 1 0 0.173828,-0.1386719 c 0,0 -0.151226,-0.1905298 -0.189453,-0.46875 -0.04036,-0.29378453 -0.01397,-0.64346049 0.05664,-0.85546872 0.03449,-0.10355718 0.07869,-0.15429016 0.08984,-0.16210938 0.0025,0.00148774 0.0054,0.00235329 0.01758,0.01757813 0.04138,0.05185364 0.09426,0.18819729 0.121094,0.35937499 a 0.11174276,0.11174276 0 1 0 0.220703,-0.0351562 C 18.387781,0.15701908 18.338322,-0.0025989 18.25,-0.11328125 18.21464,-0.15759848 18.171429,-0.194526 18.115234,-0.2109375 Z"
       color="#000000"
       color-rendering="auto"
       dominant-baseline="auto"
       fill="#bdc3c7"
       image-rendering="auto"
       solid-color="#000000"
       style="font-variant-ligatures:normal;font-variant-position:normal;font-variant-caps:normal;font-variant-numeric:normal;font-variant-alternates:normal;font-feature-settings:normal;text-indent:0;text-decoration-line:none;text-decoration-style:solid;text-decoration-color:#000000;text-transform:none;text-orientation:mixed;white-space:normal;shape-padding:0;isolation:auto;mix-blend-mode:normal;paint-order:markers fill stroke"
       id="path342" />
    <path
       d="m 18.207031,-0.16015625 -0.148437,0.16601563 c 0.0037,0.00328219 0.01479,0.01605398 0.01758,0.01953125 0.06596,0.0826527 0.146743,0.36999135 0.146484,0.69140625 L 18.445312,0.71875 C 18.445595,0.3677309 18.39029,0.06252405 18.25,-0.11328125 c -0.01522,-0.0190027 -0.02829,-0.0336972 -0.04297,-0.046875 z"
       color="#000000"
       color-rendering="auto"
       dominant-baseline="auto"
       fill="#9ca5ac"
       image-rendering="auto"
       solid-color="#000000"
       style="font-variant-ligatures:normal;font-variant-position:normal;font-variant-caps:normal;font-variant-numeric:normal;font-variant-alternates:normal;font-feature-settings:normal;text-indent:0;text-decoration-line:none;text-decoration-style:solid;text-decoration-color:#000000;text-transform:none;text-orientation:mixed;white-space:normal;shape-padding:0;isolation:auto;mix-blend-mode:normal;paint-order:markers fill stroke"
       id="path344" />
  </g>
  <g
     transform="matrix(3.992864,0,0,3.992864,-28.08325,8.0012288)"
     shape-rendering="auto"
     id="g354">
    <path
       d="m 18.306641,1.5683594 c 0,-0.1563847 -0.128761,-0.2871094 -0.285157,-0.2871094 -0.156395,0 -0.285156,0.1307247 -0.285156,0.2871094 0,0.1563846 0.128761,0.2851562 0.285156,0.2851562 0.156396,0 0.285157,-0.1287716 0.285157,-0.2851562 z m -0.197266,0 c 0,0.050309 -0.03828,0.087891 -0.08789,0.087891 -0.04961,0 -0.08789,-0.037581 -0.08789,-0.087891 0,-0.050309 0.03828,-0.089844 0.08789,-0.089844 0.04961,0 0.08789,0.039534 0.08789,0.089844 z"
       color="#000000"
       color-rendering="auto"
       dominant-baseline="auto"
       fill="#232629"
       image-rendering="auto"
       solid-color="#000000"
       style="font-variant-ligatures:normal;font-variant-position:normal;font-variant-caps:normal;font-variant-numeric:normal;font-variant-alternates:normal;font-feature-settings:normal;text-indent:0;text-decoration-line:none;text-decoration-style:solid;text-decoration-color:#000000;text-transform:none;text-orientation:mixed;white-space:normal;shape-padding:0;isolation:auto;mix-blend-mode:normal;paint-order:markers fill stroke"
       id="path348" />
    <path
       d="m 18.115234,-0.2109375 c -0.05619,-0.0164115 -0.120321,-0.004845 -0.167968,0.0234375 -0.0953,0.0565655 -0.145674,0.15565464 -0.189454,0.28710937 -0.08755,0.26289977 -0.111409,0.6274567 -0.06641,0.95507813 0.04715,0.3431878 0.236328,0.578125 0.236328,0.578125 0.09114,0.1263844 0.276804,-0.021733 0.173828,-0.1386719 -0.04899,-0.055627 -0.151226,-0.1905298 -0.189453,-0.46875 -0.04036,-0.29378453 -0.01397,-0.64346049 0.05664,-0.85546872 0.03449,-0.10355718 0.07869,-0.15429016 0.08984,-0.16210938 0.0025,0.00148774 0.0054,0.00235329 0.01758,0.01757813 0.04138,0.05185364 0.09426,0.18819729 0.121094,0.35937499 0.0234,0.14718946 0.244101,0.11203326 0.220703,-0.0351562 C 18.387781,0.15701908 18.338322,-0.0025989 18.25,-0.11328125 18.21464,-0.15759848 18.171429,-0.194526 18.115234,-0.2109375 Z"
       color="#000000"
       color-rendering="auto"
       dominant-baseline="auto"
       fill="#bdc3c7"
       image-rendering="auto"
       solid-color="#000000"
       style="font-variant-ligatures:normal;font-variant-position:normal;font-variant-caps:normal;font-variant-numeric:normal;font-variant-alternates:normal;font-feature-settings:normal;text-indent:0;text-decoration-line:none;text-decoration-style:solid;text-decoration-color:#000000;text-transform:none;text-orientation:mixed;white-space:normal;shape-padding:0;isolation:auto;mix-blend-mode:normal;paint-order:markers fill stroke"
       id="path350" />
    <path
       d="m 18.207031,-0.16015625 -0.148437,0.16601563 c 0.0037,0.00328219 0.01479,0.01605398 0.01758,0.01953125 0.06596,0.0826527 0.146743,0.36999135 0.146484,0.69140625 L 18.445312,0.71875 C 18.445595,0.3677309 18.39029,0.06252405 18.25,-0.11328125 c -0.01522,-0.0190027 -0.02829,-0.0336972 -0.04297,-0.046875 z"
       color="#000000"
       color-rendering="auto"
       dominant-baseline="auto"
       fill="#9ca5ac"
       image-rendering="auto"
       solid-color="#000000"
       style="font-variant-ligatures:normal;font-variant-position:normal;font-variant-caps:normal;font-variant-numeric:normal;font-variant-alternates:normal;font-feature-settings:normal;text-indent:0;text-decoration-line:none;text-decoration-style:solid;text-decoration-color:#000000;text-transform:none;text-orientation:mixed;white-space:normal;shape-padding:0;isolation:auto;mix-blend-mode:normal;paint-order:markers fill stroke"
       id="path352" />
  </g>
  <g
     transform="matrix(3.992864,0,0,3.992864,-60.967181,6.6453088)"
     id="g368">
    <g
       fill="url(#linearGradient1439)"
       id="g358"
       style="fill:url(#linearGradient1439)">
      <path
         transform="matrix(0.26458333,0,0,0.26458333,16.933334,0)"
         d="m 35.023438,14.882812 c -0.554,1e-6 -1,0.446 -1,1 v 5 c 0,0.554001 0.446,1 1,1 h 5 c 0.553999,10e-7 1,-0.445999 1,-1 v -5 c 0,-0.554 -0.446001,-1 -1,-1 z M 8.023438,15 c -0.5539992,0 -1,0.446 -1,1 v 5 c 0,0.554 0.4460008,1 1,1 h 5 c 0.553999,0 1,-0.446 1,-1 v -5 c 0,-0.554 -0.446001,-1 -1,-1 z m 9,0 c -0.554,0 -1,0.446 -1,1 v 5 c 0,0.554 0.446,1 1,1 h 5 c 0.553999,0 1,-0.446 1,-1 v -5 c 0,-0.554 -0.446001,-1 -1,-1 z M 26,15 c -0.553999,0 -1,0.446 -1,1 v 5 c 0,0.554 0.446001,1 1,1 h 5 c 0.553999,0 1,-0.446 1,-1 v -5 c 0,-0.554 -0.446001,-1 -1,-1 z m 9.023438,8.882812 c -0.554,10e-7 -1,0.446 -1,1 v 5 c 0,0.554001 0.446,1 1,1 h 5 c 0.553999,0 1,-0.445999 1,-1 v -5 c 0,-0.554 -0.446001,-1 -1,-1 z M 8.0234385,24 c -0.5539992,0 -1,0.446 -1,1 v 5 c 0,0.554 0.4460008,1 1,1 h 5.0000005 c 0.553999,0 1,-0.446 1,-1 v -5 c 0,-0.554 -0.446001,-1 -1,-1 z m 9.0000005,0 c -0.554,0 -1,0.446 -1,1 v 5 c 0,0.554 0.446,1 1,1 h 5 c 0.553999,0 1,-0.446 1,-1 v -5 c 0,-0.554 -0.446001,-1 -1,-1 z m 8.976562,0 c -0.553999,0 -1,0.446 -1,1 v 5 c 0,0.554 0.446001,1 1,1 h 5 c 0.553999,0 1,-0.446 1,-1 v -5 c 0,-0.554 -0.446001,-1 -1,-1 z m 9.046875,8.882812 c -0.553999,0 -1,0.446 -1,1 v 5 c 0,0.554001 0.446001,1 1,1 h 5 c 0.553999,0 1,-0.445999 1,-1 v -5 c 0,-0.554 -0.446001,-1 -1,-1 z M 8.046876,33 c -0.5539992,0 -1,0.446 -1,1 v 5 c 0,0.554 0.4460008,1 1,1 h 5 c 0.553999,0 1,-0.446 1,-1 v -5 c 0,-0.554 -0.446001,-1 -1,-1 z m 9,0 c -0.553999,0 -1,0.446 -1,1 v 5 c 0,0.554 0.446001,1 1,1 h 5 c 0.553999,0 1,-0.446 1,-1 v -5 c 0,-0.554 -0.446001,-1 -1,-1 z m 8.976563,0 c -0.554,0 -1,0.446 -1,1 v 5 c 0,0.554 0.446,1 1,1 h 5 c 0.553999,0 1,-0.446 1,-1 v -5 c 0,-0.554 -0.446001,-1 -1,-1 z"
         fill="url(#linearGradient1441)"
         style="fill:url(#linearGradient1441);paint-order:markers fill stroke"
         id="path356" />
    </g>
    <path
       d="m 18.791619,5.5562497 c 0,0.1465791 0.118004,0.2645833 0.264583,0.2645833 h 1.322917 c 0.135585,0 0.242474,-0.1024218 0.258382,-0.2335773 v -0.031006 z"
       fill="url(#linearGradient1501)"
       style="fill:url(#linearGradient1501);paint-order:markers fill stroke"
       id="path360" />
    <path
       d="m 21.18349,10.31875 c 0,0.146579 0.118004,0.264583 0.264583,0.264583 h 1.322917 c 0.135585,0 0.242474,-0.102421 0.258382,-0.233577 v -0.03101 z"
       fill="url(#linearGradient1509)"
       style="fill:url(#linearGradient1509);paint-order:markers fill stroke"
       id="path362" />
    <path
       d="m 23.554119,7.9374997 c 0,0.1465791 0.118004,0.2645833 0.264583,0.2645833 h 1.322917 c 0.135585,0 0.242474,-0.1024218 0.258382,-0.2335773 v -0.031006 z"
       fill="url(#linearGradient1505)"
       style="fill:url(#linearGradient1505);paint-order:markers fill stroke"
       id="path364" />
    <path
       d="m 25.935369,5.5257538 c 0,0.146579 0.118004,0.264583 0.264583,0.264583 h 1.322917 c 0.135585,0 0.242474,-0.102421 0.258382,-0.233577 v -0.03101 z"
       fill="url(#linearGradient1525)"
       style="fill:url(#linearGradient1525);paint-order:markers fill stroke"
       id="path366" />
  </g>
</svg>
