<?xml version="1.0" encoding="UTF-8" standalone="no"?>
<svg
   width="64"
   height="64"
   viewBox="0 0 64 64"
   version="1.1"
   id="svg22024"
   sodipodi:docname="calligrastage.svg"
   inkscape:version="1.2.1 (9c6d41e410, 2022-07-14)"
   xmlns:inkscape="http://www.inkscape.org/namespaces/inkscape"
   xmlns:sodipodi="http://sodipodi.sourceforge.net/DTD/sodipodi-0.dtd"
   xmlns:xlink="http://www.w3.org/1999/xlink"
   xmlns="http://www.w3.org/2000/svg"
   xmlns:svg="http://www.w3.org/2000/svg">
  <g
     id="g1839"
     transform="translate(83.864408,53.674014)">
    <path
       d="m -80.864408,-42.627139 c 0,-4.004175 3.245938,-7.25 7.25,-7.25 h 43.500003 c 4.004173,0 7.25,3.245825 7.25,7.25 v 43.5 c 0,4.004173 -3.245827,7.25 -7.25,7.25 h -43.500003 c -4.004062,0 -7.25,-3.245827 -7.25,-7.25 z"
       id="path736"
       style="fill:#606c86;fill-opacity:1;stroke-width:3.625" />
    <path
       d="m -80.864408,-43.877139 c 0,-3.753687 3.245938,-6.796875 7.25,-6.796875 h 43.500003 c 4.004173,0 7.25,3.043188 7.25,6.796875 V -3.09589 c 0,3.753693 -3.245827,6.796876 -7.25,6.796876 h -43.500003 c -4.004062,0 -7.25,-3.043183 -7.25,-6.796876 z"
       id="path738"
       style="fill:url(#linearGradient22065);fill-opacity:1;stroke-width:3.625" />
    <path
       d="m 57.988,30.758 -1.3966,0.97826 -0.01536,-0.02335"
       opacity="0.21"
       stroke-width="0.059762"
       id="path2693"
       transform="matrix(1.6506278,0,0,1.6506278,-132.48982,-52.670146)"
       style="fill:#4c566a;stroke-linecap:round;stroke-linejoin:round;filter:url(#filter8973)" />
    <path
       d="m 56.576,31.713 -0.61685,-0.94005 1.3966,-0.97826 0.63219,0.96342"
       opacity="0.21"
       stroke-width="0.059762"
       id="path2695"
       transform="matrix(1.6506278,0,0,1.6506278,-132.48982,-52.670146)"
       style="fill:#4c566a;stroke-linecap:round;stroke-linejoin:round;filter:url(#filter8973)" />
    <rect
       transform="matrix(1.3519632,-0.94698166,0.90556743,1.3800404,-132.48982,-52.670146)"
       x="29.917"
       y="53.383999"
       width="1.7052"
       height="3.9507999"
       stroke-width="0.11068"
       id="rect2697"
       style="opacity:0.3;fill:#4c566a;stroke-linecap:round;stroke-linejoin:round;filter:url(#filter8973)" />
    <rect
       transform="matrix(1.3519632,-0.94698166,0.90556743,1.3800404,-132.48982,-52.670146)"
       x="29.917"
       y="53.033001"
       width="1.7052"
       height="0.35152"
       opacity="0.21"
       stroke-width="0.033015"
       id="rect2699"
       style="fill:#4c566a;stroke-linecap:round;stroke-linejoin:round;filter:url(#filter8973)" />
    <rect
       transform="matrix(1.3519632,-0.94698166,0.90556743,1.3800404,-132.48982,-52.670146)"
       x="29.917"
       y="49.082001"
       width="1.7052"
       height="3.9507999"
       stroke-width="0.11068"
       id="rect2701"
       style="opacity:0.3;fill:#4c566a;stroke-linecap:round;stroke-linejoin:round;filter:url(#filter8973)" />
    <path
       d="m 51.282,21.981 c 0,0 -0.76445,0.50433 -0.48256,0.9281 l 0.63217,0.96338 1.3965,-0.9782 -0.61603,-0.93879 C 52.20698,21.94709 52.2018,21.93877 52.19641,21.93058 51.89188,21.46537 51.28197,21.981 51.28197,21.981 Z"
       opacity="0.21"
       stroke-width="0.059762"
       id="path2703"
       transform="matrix(1.6506278,0,0,1.6506278,-132.48982,-52.670146)"
       style="fill:#4c566a;stroke-linecap:round;stroke-linejoin:round;filter:url(#filter8973)" />
    <path
       d="m 57.988,30.757 a 0.77379,0.85484 46.974 0 1 -0.27305,1.138 0.77379,0.85484 46.974 0 1 -1.1243,-0.15924 0.77379,0.85484 46.974 0 1 0.27305,-1.138 0.77379,0.85484 46.974 0 1 1.1243,0.15924 z"
       stroke-width="0.13891"
       id="path2707"
       transform="matrix(1.6506278,0,0,1.6506278,-132.48982,-52.670146)"
       style="opacity:0.3;fill:#4c566a;stroke-linecap:round;stroke-linejoin:round;filter:url(#filter8973)" />
    <path
       d="m 57.988,30.757 a 0.77379,0.85484 46.974 0 1 -0.27305,1.138 0.77379,0.85484 46.974 0 1 -1.1243,-0.15924 0.77379,0.85484 46.974 0 1 0.27305,-1.138 0.77379,0.85484 46.974 0 1 1.1243,0.15924 z"
       opacity="0.3"
       stroke-width="0.13891"
       id="path2709"
       transform="matrix(1.6506278,0,0,1.6506278,-132.48982,-52.670146)"
       style="fill:#4c566a;stroke-linecap:round;stroke-linejoin:round;filter:url(#filter8973)" />
    <rect
       x="61.478001"
       y="3.6529"
       width="23.650999"
       height="16.063999"
       fill="url(#linearGradient3871)"
       filter="url(#filter4787)"
       id="rect2713"
       style="fill:url(#linearGradient3871)"
       transform="matrix(1.589373,-0.37857148,0.45940272,1.6048229,-174.94595,-21.087364)" />
    <rect
       x="-60.928192"
       y="-53.755787"
       width="36.3447"
       height="24.31979"
       fill="#eceff4"
       id="rect2715"
       transform="matrix(0.97278562,-0.23170702,0.27520953,0.96138427,0,0)"
       style="stroke-width:1.65147" />
    <rect
       x="-59.392387"
       y="-52.459255"
       width="14.766618"
       height="1.9774332"
       id="rect2717"
       transform="matrix(0.97278562,-0.23170702,0.27520953,0.96138427,0,0)"
       style="fill:#81a1c1;stroke-width:1.65147" />
    <rect
       id="rect2406"
       x="-59.392387"
       y="-48.042835"
       width="5.2379174"
       height="3.1821551"
       fill="#81a1c1"
       transform="matrix(0.97278562,-0.23170702,0.27520953,0.96138427,0,0)"
       style="stroke-width:1.65147" />
    <use
       id="use2408"
       transform="translate(1.215488,4.24604)"
       width="100%"
       height="100%"
       fill="#81a1c1"
       xlink:href="#rect2406"
       x="0"
       y="0" />
    <use
       transform="translate(1.215488,4.24604)"
       width="100%"
       height="100%"
       xlink:href="#use2408"
       id="use2721"
       x="0"
       y="0"
       style="fill:#81a1c1" />
    <rect
       x="-59.392387"
       y="-33.025791"
       width="2.0800378"
       height="1.5124041"
       id="rect2723"
       transform="matrix(0.97278562,-0.23170702,0.27520953,0.96138427,0,0)"
       style="fill:#81a1c1;stroke-width:1.65147" />
    <path
       d="m -65.005972,-33.853205 8.371705,-1.994049 0.448721,1.56751 -5.041027,1.219649 0.344454,1.46808 -3.248026,0.798025 z"
       id="path2725"
       style="fill:#81a1c1;stroke-width:0.121935;stroke-linecap:round;stroke-linejoin:round" />
    <path
       d="m -63.790346,-29.606683 8.371704,-1.99405 0.448721,1.567511 -1.676961,0.418359 0.344454,1.468081 -6.612093,1.599306 z"
       id="path2727"
       style="fill:#81a1c1;stroke-width:0.121935;stroke-linecap:round;stroke-linejoin:round" />
    <path
       d="m -62.575226,-25.361927 6.689671,-1.593407 0.448721,1.567511 -6.684599,1.611124 z"
       id="path2729"
       style="fill:#81a1c1;stroke-width:0.121935;stroke-linecap:round;stroke-linejoin:round" />
    <rect
       x="-55.935196"
       y="-33.025791"
       width="8.5209494"
       height="1.5124041"
       id="rect2733"
       transform="matrix(0.97278562,-0.23170702,0.27520953,0.96138427,0,0)"
       style="fill:#81a1c1;stroke-width:1.65147" />
    <rect
       transform="matrix(0.27520953,0.96138427,-0.97278562,0.23170702,0,0)"
       x="-49.297634"
       y="38.938393"
       width="15.086984"
       height="2.9593687"
       fill="#88c0d0"
       stroke-width="0.155773"
       id="rect2737"
       style="stroke:#2e3440;stroke-linecap:round;stroke-linejoin:round" />
    <rect
       transform="matrix(0.27520953,0.96138427,-0.97278562,0.23170702,0,0)"
       x="-42.093342"
       y="34.61525"
       width="7.8828573"
       height="2.9593687"
       fill="#ebcb8b"
       stroke-width="0.112599"
       id="rect2739"
       style="stroke:#2e3440;stroke-linecap:round;stroke-linejoin:round" />
    <rect
       transform="matrix(0.27520953,0.96138427,-0.97278562,0.23170702,0,0)"
       x="-38.582836"
       y="30.29212"
       width="4.3720207"
       height="2.9593687"
       fill="#d08770"
       stroke-width="0.0838546"
       id="rect2741"
       style="stroke:#2e3440;stroke-linecap:round;stroke-linejoin:round" />
    <rect
       transform="matrix(0.27520953,0.96138427,-0.97278562,0.23170702,0,0)"
       x="-45.951221"
       y="25.968985"
       width="11.740571"
       height="2.9593687"
       fill="#a3be8c"
       stroke-width="0.137415"
       id="rect2743"
       style="stroke:#2e3440;stroke-linecap:round;stroke-linejoin:round" />
    <rect
       x="61.495998"
       y="3.6591001"
       width="23.650999"
       height="16.063999"
       fill="url(#linearGradient6253)"
       filter="url(#filter4787-5)"
       id="rect2747"
       style="fill:url(#linearGradient6253)"
       transform="matrix(1.589373,-0.37857148,0.45940272,1.6048229,-174.94595,-21.087364)" />
    <ellipse
       transform="matrix(1.340937,0,0,1.340937,-154.19888,-42.188659)"
       cx="73.675003"
       cy="9.2702999"
       rx="0.86624998"
       ry="0.73057997"
       fill="#bf616a"
       filter="url(#filter6996)"
       style="mix-blend-mode:normal"
       id="ellipse2751" />
    <path
       d="m 77.869,17.151 -4.4234,-7.6986 0.23428,-0.12442 4.7738,7.4124 z"
       fill="#bf616a"
       filter="url(#filter8929)"
       opacity="0.8"
       id="path2753"
       transform="matrix(1.6506278,0,0,1.6506278,-176.74645,-44.833295)" />
    <path
       d="m -36.542133,-2.592577 -2.30526,1.614745 -0.0253,-0.03855"
       fill="#4c566a"
       opacity="0.7"
       stroke-width="0.098645"
       id="path2755"
       style="stroke-linecap:round;stroke-linejoin:round" />
    <path
       d="m -38.872813,-1.016226 -1.01819,-1.551674 2.30526,-1.61474 1.04351,1.590248"
       fill="#4c566a"
       opacity="0.7"
       stroke-width="0.098645"
       id="path2757"
       style="stroke-linecap:round;stroke-linejoin:round" />
    <rect
       transform="matrix(0.819059,-0.5737093,0.54862084,0.83607127,0,0)"
       x="-31.95738"
       y="-31.523155"
       width="2.8146539"
       height="6.5212898"
       fill="#2e3440"
       stroke-width="0.182692"
       id="rect2759"
       style="stroke-linecap:round;stroke-linejoin:round" />
    <rect
       transform="matrix(0.819059,-0.5737093,0.54862084,0.83607127,0,0)"
       x="-31.95738"
       y="-32.102524"
       width="2.8146539"
       height="0.58022779"
       fill="#4c566a"
       opacity="0.7"
       stroke-width="0.0544954"
       id="rect2761"
       style="stroke-linecap:round;stroke-linejoin:round" />
    <rect
       transform="matrix(0.819059,-0.5737093,0.54862084,0.83607127,0,0)"
       x="-31.95738"
       y="-38.624142"
       width="2.8146539"
       height="6.5212898"
       fill="#2e3440"
       stroke-width="0.182692"
       id="rect2763"
       style="stroke-linecap:round;stroke-linejoin:round" />
    <path
       d="m -47.611239,-17.080135 c 0,0 -1.261822,0.832461 -0.796527,1.531948 l 1.043478,1.590181 2.305101,-1.614642 -1.016834,-1.549596 c -0.0083,-0.01398 -0.01701,-0.02759 -0.0257,-0.04112 -0.502665,-0.76789 -1.5094,0.08323 -1.5094,0.08323 z"
       fill="#4c566a"
       opacity="0.7"
       stroke-width="0.098645"
       id="path2765"
       style="stroke-linecap:round;stroke-linejoin:round" />
    <path
       d="m -47.611239,-17.080135 c -0.488486,0.370288 -1.184556,0.940709 -0.796691,1.531899 l 1.04346,1.590181 2.305101,-1.614642 -1.016834,-1.549596 -4.38e-4,-6.65e-4 -4.35e-4,-6.65e-4 -4.38e-4,-6.65e-4 -4.38e-4,-6.66e-4 -4.35e-4,-6.65e-4 -8.73e-4,-0.0013 -8.73e-4,-0.0013 3.1e-4,-0.0012 -4.35e-4,-6.65e-4 -4.38e-4,-6.65e-4 -4.39e-4,-6.65e-4 -8.69e-4,-0.0013 -8.77e-4,-0.0013 -4.35e-4,-6.66e-4 -4.34e-4,-6.65e-4 -4.39e-4,-6.65e-4 -4.38e-4,-6.65e-4 -4.35e-4,-6.65e-4 -4.35e-4,-6.66e-4 -4.38e-4,-6.65e-4 -4.38e-4,-6.65e-4 -8.7e-4,-0.0013 -8.77e-4,-0.0013 -4.34e-4,-6.69e-4 -4.35e-4,-6.61e-4 -4.38e-4,-6.66e-4 -4.39e-4,-6.69e-4 -4.34e-4,-6.65e-4 -4.39e-4,-6.65e-4 -4.35e-4,-6.65e-4 -4.38e-4,-6.65e-4 -8.69e-4,-0.0013 -8.77e-4,-0.0013 -4.35e-4,-6.66e-4 -4.38e-4,-6.65e-4 -4.35e-4,-6.65e-4 -4.38e-4,-6.65e-4 -8.7e-4,-0.0013 -8.76e-4,-0.0013 -4.35e-4,-6.65e-4 -4.39e-4,-6.69e-4 -4.34e-4,-6.62e-4 -4.39e-4,-6.65e-4 -4.34e-4,-6.69e-4 -4.39e-4,-6.61e-4 -4.34e-4,-6.66e-4 -4.39e-4,-6.69e-4 -4.35e-4,-6.65e-4 -4.38e-4,-6.65e-4 -4.35e-4,-6.65e-4 -4.38e-4,-6.65e-4 c -0.387965,-0.591128 -1.020716,-0.287028 -1.509219,0.08326 z m 0.247216,3.122824 8.49182,12.941085 0.0253,0.03859 2.3051,-1.614646 -8.517238,-12.979712 z"
       fill="url(#linearGradient4773)"
       stroke-width="0.098645"
       id="path2767"
       style="fill:url(#linearGradient4773);stroke-linecap:round;stroke-linejoin:round" />
    <path
       d="m -36.542133,-2.594225 a 1.2772393,1.4110226 46.974 0 1 -0.4507,1.878413 1.2772393,1.4110226 46.974 0 1 -1.8558,-0.262833 1.2772393,1.4110226 46.974 0 1 0.4507,-1.878417 1.2772393,1.4110226 46.974 0 1 1.8558,0.262837 z"
       fill="#eceff4"
       stroke-width="0.229289"
       id="path2769"
       style="stroke-linecap:round;stroke-linejoin:round" />
    <path
       d="m -36.542133,-2.594225 a 1.2772393,1.4110226 46.974 0 1 -0.4507,1.878413 1.2772393,1.4110226 46.974 0 1 -1.8558,-0.262833 1.2772393,1.4110226 46.974 0 1 0.4507,-1.878417 1.2772393,1.4110226 46.974 0 1 1.8558,0.262837 z"
       fill="url(#linearGradient7079)"
       stroke-width="0.229289"
       id="path2771"
       style="fill:url(#linearGradient7079);stroke-linecap:round;stroke-linejoin:round" />
  </g>
  <sodipodi:namedview
     id="namedview22026"
     pagecolor="#ffffff"
     bordercolor="#666666"
     borderopacity="1.0"
     inkscape:showpageshadow="2"
     inkscape:pageopacity="0.0"
     inkscape:pagecheckerboard="0"
     inkscape:deskcolor="#d1d1d1"
     showgrid="false"
     inkscape:zoom="4.9166667"
     inkscape:cx="24.711864"
     inkscape:cy="24.508474"
     inkscape:window-width="1920"
     inkscape:window-height="1008"
     inkscape:window-x="0"
     inkscape:window-y="0"
     inkscape:window-maximized="1"
     inkscape:current-layer="svg22024" />
  <defs
     id="defs22004">
    <linearGradient
       id="linearGradient4212">
      <stop
         style="stop-color:#000000;stop-opacity:1;"
         offset="0"
         id="stop21980" />
      <stop
         style="stop-color:#000000;stop-opacity:0;"
         offset="1"
         id="stop21982" />
    </linearGradient>
    <linearGradient
       id="linearGradient4198">
      <stop
         style="stop-color:#272b2d;stop-opacity:1;"
         offset="0"
         id="stop21985" />
      <stop
         style="stop-color:#3e4447;stop-opacity:1"
         offset="1"
         id="stop21987" />
    </linearGradient>
    <linearGradient
       id="linearGradient4185">
      <stop
         style="stop-color:#acacac;stop-opacity:1"
         offset="0"
         id="stop21990" />
      <stop
         style="stop-color:#cbcbcb;stop-opacity:1"
         offset="1"
         id="stop21992" />
    </linearGradient>
    <linearGradient
       id="linearGradient4144">
      <stop
         style="stop-color:#3b962d;stop-opacity:1"
         offset="0"
         id="stop21995" />
      <stop
         style="stop-color:#93d169;stop-opacity:1"
         offset="1"
         id="stop21997" />
    </linearGradient>
    <linearGradient
       xlink:href="#linearGradient4144"
       id="linearGradient4150"
       x1="25"
       y1="1046.3621"
       x2="25"
       y2="1010.362"
       gradientUnits="userSpaceOnUse"
       gradientTransform="translate(86.850772,-1045.9604)" />
    <radialGradient
       xlink:href="#linearGradient4185"
       id="radialGradient4191"
       cx="24"
       cy="1025.3621"
       fx="24"
       fy="1025.3621"
       r="2"
       gradientTransform="matrix(1,0,0,0.9998745,86.850772,-1045.8317)"
       gradientUnits="userSpaceOnUse" />
    <linearGradient
       xlink:href="#linearGradient4198"
       id="linearGradient4204"
       x1="24"
       y1="1032.3621"
       x2="24"
       y2="1018.362"
       gradientUnits="userSpaceOnUse"
       gradientTransform="translate(86.850772,-1045.9604)" />
    <linearGradient
       xlink:href="#linearGradient4212"
       id="linearGradient4218"
       x1="20"
       y1="17"
       x2="38"
       y2="35"
       gradientUnits="userSpaceOnUse"
       gradientTransform="translate(86.850772,-41.5982)" />
    <radialGradient
       xlink:href="#linearGradient4185"
       id="radialGradient4191-8"
       cx="24"
       cy="1025.3621"
       fx="24"
       fy="1025.3621"
       r="2"
       gradientTransform="matrix(1.3333244,0,0,1.3331571,-53.621395,-1399.2795)"
       gradientUnits="userSpaceOnUse" />
    <radialGradient
       xlink:href="#linearGradient4185"
       id="radialGradient4191-8-3"
       cx="24"
       cy="1025.3621"
       fx="24"
       fy="1025.3621"
       r="2"
       gradientTransform="matrix(1.3999917,0,0,1.3998155,-2.0999057,-1415.0207)"
       gradientUnits="userSpaceOnUse" />
    <linearGradient
       xlink:href="#linearGradient4167"
       id="linearGradient4161"
       x1="-44"
       y1="-24"
       x2="-4"
       y2="-24"
       gradientUnits="userSpaceOnUse"
       gradientTransform="translate(-7.193816,-7.9352386)" />
    <linearGradient
       id="linearGradient4167">
      <stop
         style="stop-color:#009467;stop-opacity:1"
         offset="0"
         id="stop477" />
      <stop
         style="stop-color:#87d770;stop-opacity:1"
         offset="1"
         id="stop479" />
    </linearGradient>
    <filter
       id="filter3361"
       x="-0.059532827"
       y="-0.053060671"
       width="1.1191359"
       height="1.1061065"
       color-interpolation-filters="sRGB">
      <feGaussianBlur
         stdDeviation="2.2148613"
         id="feGaussianBlur48" />
    </filter>
    <radialGradient
       id="radialGradient3496"
       cx="48.311001"
       cy="33.129002"
       r="51.5"
       fx="15.957"
       fy="45.862999"
       gradientTransform="matrix(0.36846206,0.6381858,-0.7284049,0.42055631,56.929314,1.2169183)"
       gradientUnits="userSpaceOnUse">
      <stop
         stop-color="#fafafa"
         offset="0"
         id="stop54" />
      <stop
         stop-color="#fafafa"
         offset=".5"
         id="stop56" />
      <stop
         stop-color="#eee"
         offset="1"
         id="stop58" />
    </radialGradient>
    <linearGradient
       id="linearGradient3498"
       x1="59.139999"
       x2="107.97"
       y1="108.25"
       y2="74.751999"
       gradientUnits="userSpaceOnUse"
       xlink:href="#linearGradient4212" />
    <clipPath
       id="clipPath3611">
      <path
         d="M 89,7 5,25 24,124 90,110 108,104 104.8691,84.759 89.0001,7 Z"
         fill-rule="evenodd"
         id="path42" />
    </clipPath>
    <filter
       id="filter3627"
       x="-0.029626011"
       y="-0.044235748"
       width="1.059252"
       height="1.0884715"
       color-interpolation-filters="sRGB">
      <feGaussianBlur
         stdDeviation="1.6272834"
         id="feGaussianBlur45" />
    </filter>
    <linearGradient
       id="linearGradient3500"
       x1="105.81"
       x2="95.146004"
       y1="102.51"
       y2="96.352997"
       gradientTransform="matrix(0.091811,0,0,0.091811,25.081,1.1596)"
       gradientUnits="userSpaceOnUse"
       xlink:href="#linearGradient3194" />
    <linearGradient
       id="linearGradient3194">
      <stop
         stop-color="#fff"
         offset="0"
         id="stop25" />
      <stop
         stop-color="#fff"
         stop-opacity="0"
         offset="1"
         id="stop27" />
    </linearGradient>
    <linearGradient
       id="linearGradient3502"
       x1="34.993999"
       x2="11.875"
       y1="52.387001"
       y2="62.297001"
       gradientTransform="matrix(0.091811,0,0,0.091811,25.265,1.1596)"
       gradientUnits="userSpaceOnUse"
       xlink:href="#linearGradient4212" />
    <radialGradient
       id="radialGradient3506"
       cx="69.028999"
       cy="100.39"
       r="3.9445"
       fx="67.564003"
       fy="100.63"
       gradientUnits="userSpaceOnUse"
       xlink:href="#linearGradient4212" />
    <filter
       id="filter3678"
       x="-0.42359658"
       y="-0.42147447"
       width="1.8471932"
       height="1.8429489"
       color-interpolation-filters="sRGB">
      <feGaussianBlur
         stdDeviation="1.3924326"
         id="feGaussianBlur51" />
    </filter>
    <linearGradient
       id="linearGradient1253"
       x1="28"
       x2="32"
       y1="42"
       y2="42"
       gradientTransform="matrix(0.42917381,-0.06290392,0.06290392,0.42917381,2.9074621,13.650523)"
       gradientUnits="userSpaceOnUse"
       xlink:href="#linearGradient3641" />
    <linearGradient
       id="linearGradient3641">
      <stop
         stop-color="#fff"
         offset="0"
         id="stop20" />
      <stop
         stop-color="#e5e5e5"
         offset="1"
         id="stop22" />
    </linearGradient>
    <linearGradient
       id="linearGradient1255"
       x1="26.919001"
       x2="31.961"
       y1="37.049"
       y2="43.625"
       gradientTransform="matrix(0.34333905,-0.05032162,0.05032162,0.34333905,6.0105161,16.878303)"
       gradientUnits="userSpaceOnUse"
       xlink:href="#linearGradient3650" />
    <linearGradient
       id="linearGradient3650">
      <stop
         stop-color="#4b4b4b"
         offset="0"
         id="stop15" />
      <stop
         stop-color="#4b4b4b"
         stop-opacity="0"
         offset="1"
         id="stop17" />
    </linearGradient>
    <linearGradient
       id="linearGradient3508"
       x1="28"
       x2="32"
       y1="42"
       y2="42"
       gradientTransform="matrix(0.42917381,-0.06290392,0.06290392,0.42917381,4.4193031,23.951073)"
       gradientUnits="userSpaceOnUse"
       xlink:href="#linearGradient3641" />
    <linearGradient
       id="linearGradient3510"
       x1="26.919001"
       x2="31.961"
       y1="37.049"
       y2="43.625"
       gradientTransform="matrix(0.34333905,-0.05032162,0.05032162,0.34333905,7.5223571,27.178475)"
       gradientUnits="userSpaceOnUse"
       xlink:href="#linearGradient3650" />
    <linearGradient
       id="linearGradient2346"
       x1="61.768002"
       x2="71.775002"
       y1="73.5"
       y2="73.5"
       gradientTransform="matrix(0.055423,0.036535,-0.036535,0.055423,33.276,-0.7082)"
       gradientUnits="userSpaceOnUse">
      <stop
         stop-color="#eaeaea"
         offset="0"
         id="stop110" />
      <stop
         stop-color="#f2f2f2"
         offset=".22222"
         id="stop112" />
      <stop
         stop-color="#d0d0d0"
         offset=".75"
         id="stop114" />
      <stop
         stop-color="#dcdcdc"
         offset="1"
         id="stop116" />
    </linearGradient>
    <linearGradient
       id="linearGradient2343"
       x1="63.491001"
       x2="73.838997"
       y1="148.67999"
       y2="150.8"
       gradientTransform="matrix(0.055423,0.036535,-0.036535,0.055423,33.166,-0.54194)"
       gradientUnits="userSpaceOnUse">
      <stop
         stop-color="#c0c0c0"
         offset="0"
         id="stop105" />
      <stop
         stop-color="#4b4b4b"
         offset="1"
         id="stop107" />
    </linearGradient>
    <linearGradient
       id="linearGradient2339"
       x1="65.730003"
       x2="70.036003"
       y1="74.084999"
       y2="74.084999"
       gradientTransform="matrix(0.055423,0.036535,-0.036535,0.055423,33.276,-0.7082)"
       gradientUnits="userSpaceOnUse"
       spreadMethod="reflect"
       xlink:href="#linearGradient4212" />
    <linearGradient
       id="linearGradient2336"
       x1="70"
       x2="68.223"
       y1="70.140999"
       y2="70.140999"
       gradientTransform="matrix(0.055423,0.036535,-0.036535,0.055423,33.276,-0.7082)"
       gradientUnits="userSpaceOnUse"
       xlink:href="#linearGradient4212" />
    <clipPath
       id="clipPath3344">
      <path
         d="m 62.656,4 c -0.98341,0 -1.7812,0.79784 -1.7812,1.7812 v 2.25 c -0.48866,0.066098 -0.875,0.46168 -0.875,0.96875 v 48 c 0,0.55317 0.44683,1 1,1 -0.55317,0 -1,0.44683 -1,1 v 52 l 1,31 c 0,0.55317 0.44683,1 1,1 h 6 c 0.55317,0 1,-0.44683 1,-1 l 1,-31 v -52 c 0,-0.55317 -0.44683,-1 -1,-1 0.55317,0 1,-0.44683 1,-1 v -48 c 0,-0.55317 -0.44683,-1 -1,-1 v -2.2188 c 0,-0.98341 -0.79784,-1.7812 -1.7812,-1.7812 h -4.5625 z"
         opacity="0.31"
         id="path39" />
    </clipPath>
    <filter
       id="filter3360"
       x="-0.38626"
       y="-0.027788489"
       width="1.77252"
       height="1.055577"
       color-interpolation-filters="sRGB">
      <feGaussianBlur
         stdDeviation="0.745"
         id="feGaussianBlur36" />
    </filter>
    <linearGradient
       id="linearGradient2332"
       x1="60.02"
       x2="65.488998"
       y1="73.639"
       y2="73.674004"
       gradientTransform="matrix(0.055423,0.036535,-0.036535,0.055423,33.276,-0.7082)"
       gradientUnits="userSpaceOnUse">
      <stop
         stop-color="#fff"
         stop-opacity="0"
         offset="0"
         id="stop96" />
      <stop
         stop-color="#fff"
         offset=".5"
         id="stop98" />
      <stop
         stop-color="#fff"
         stop-opacity="0"
         offset="1"
         id="stop100" />
    </linearGradient>
    <linearGradient
       id="linearGradient2329"
       x1="63.993999"
       x2="63.993999"
       y1="58"
       y2="56.995998"
       gradientTransform="matrix(0.055423,0.036535,-0.036535,0.055423,33.276,-0.7082)"
       gradientUnits="userSpaceOnUse"
       xlink:href="#linearGradient4212" />
    <linearGradient
       id="linearGradient2326"
       x1="63.993999"
       x2="63.993999"
       y1="58"
       y2="56.995998"
       gradientTransform="matrix(0.055423,0.036535,0.036535,-0.055423,29.038,5.7209)"
       gradientUnits="userSpaceOnUse"
       xlink:href="#linearGradient4212" />
    <linearGradient
       id="linearGradient3532"
       x1="65.348999"
       x2="72.099998"
       y1="58"
       y2="58"
       gradientUnits="userSpaceOnUse"
       spreadMethod="reflect"
       xlink:href="#linearGradient4212" />
    <clipPath
       id="clipPath3451">
      <path
         d="m 62.656,4 c -0.98341,0 -1.7812,0.79784 -1.7812,1.7812 v 2.25 c -0.48866,0.066098 -0.875,0.46168 -0.875,0.96875 v 48 c 0,0.55317 0.44683,1 1,1 -0.55317,0 -1,0.44683 -1,1 v 52 l 1,31 c 0,0.55317 0.44683,1 1,1 h 6 c 0.55317,0 1,-0.44683 1,-1 l 1,-31 v -52 c 0,-0.55317 -0.44683,-1 -1,-1 0.55317,0 1,-0.44683 1,-1 v -48 c 0,-0.55317 -0.44683,-1 -1,-1 v -2.2188 c 0,-0.98341 -0.79784,-1.7812 -1.7812,-1.7812 h -4.5625 z"
         opacity="0.705"
         id="path33" />
    </clipPath>
    <filter
       id="filter3523"
       x="-0.064800003"
       y="-0.32400001"
       width="1.1296"
       height="1.648"
       color-interpolation-filters="sRGB">
      <feGaussianBlur
         stdDeviation="0.27"
         id="feGaussianBlur30" />
    </filter>
    <linearGradient
       id="linearGradient2320"
       x1="65"
       x2="74.249001"
       y1="8"
       y2="8"
       gradientTransform="matrix(0.055423,0.036535,-0.036535,0.055423,33.276,-0.7082)"
       gradientUnits="userSpaceOnUse"
       spreadMethod="reflect">
      <stop
         stop-color="#fff"
         offset="0"
         id="stop89" />
      <stop
         offset="1"
         id="stop91" />
    </linearGradient>
    <linearGradient
       id="linearGradient2317"
       x1="64.755997"
       x2="64.755997"
       y1="139.99001"
       y2="142.3"
       gradientTransform="matrix(0.055423,0.036535,-0.036535,0.055423,33.166,-0.54194)"
       gradientUnits="userSpaceOnUse">
      <stop
         stop-color="#323232"
         offset="0"
         id="stop84" />
      <stop
         stop-color="#323232"
         stop-opacity="0"
         offset="1"
         id="stop86" />
    </linearGradient>
    <radialGradient
       id="radialGradient2313"
       cx="59.373001"
       cy="49.395"
       r="1.5"
       fx="58.936001"
       fy="50.037998"
       gradientTransform="matrix(0.087067,0.050268,-0.11729,0.20316,35.245,-8.6069)"
       gradientUnits="userSpaceOnUse">
      <stop
         stop-color="#404040"
         offset="0"
         id="stop79" />
      <stop
         stop-color="#efefef"
         offset="1"
         id="stop81" />
    </radialGradient>
    <linearGradient
       id="linearGradient2310"
       x1="59.514999"
       x2="62.331001"
       y1="26.312"
       y2="26.312"
       gradientTransform="matrix(0.083135,0.054803,-0.036535,0.055423,31.585,-1.8225)"
       gradientUnits="userSpaceOnUse"
       spreadMethod="reflect">
      <stop
         stop-color="#ececec"
         offset="0"
         id="stop74" />
      <stop
         stop-color="#080808"
         offset="1"
         id="stop76" />
    </linearGradient>
    <linearGradient
       id="linearGradient2307"
       x1="61.000999"
       x2="60.5"
       y1="31.586"
       y2="31.586"
       gradientTransform="matrix(0.055423,0.036535,-0.0045669,0.0069279,32.851,-0.0040773)"
       gradientUnits="userSpaceOnUse">
      <stop
         stop-opacity="0"
         offset="0"
         id="stop69" />
      <stop
         stop-color="#080808"
         offset="1"
         id="stop71" />
    </linearGradient>
    <linearGradient
       id="linearGradient2304"
       x1="62"
       x2="70.921997"
       y1="153.77"
       y2="144.84"
       gradientTransform="matrix(0.055423,0.036535,-0.036535,0.055423,33.166,-0.54194)"
       gradientUnits="userSpaceOnUse"
       xlink:href="#linearGradient3194" />
    <filter
       id="filter8712"
       x="-0.089868449"
       y="-0.099181515"
       width="1.1797369"
       height="1.198363"
       color-interpolation-filters="sRGB">
      <feGaussianBlur
         stdDeviation="2.4002968"
         id="feGaussianBlur282" />
    </filter>
    <filter
       id="filter6218"
       x="-0.71996567"
       y="-0.69793542"
       width="2.4399313"
       height="2.3958708"
       color-interpolation-filters="sRGB">
      <feGaussianBlur
         stdDeviation="1.2908984"
         id="feGaussianBlur317" />
    </filter>
    <filter
       id="filter881"
       x="-0.7199657"
       y="-0.6979354"
       width="2.4399314"
       height="2.3958707"
       color-interpolation-filters="sRGB">
      <feGaussianBlur
         stdDeviation="1.2908984"
         id="feGaussianBlur879" />
    </filter>
    <filter
       id="filter885"
       x="-0.7199657"
       y="-0.6979354"
       width="2.4399314"
       height="2.3958707"
       color-interpolation-filters="sRGB">
      <feGaussianBlur
         stdDeviation="1.2908984"
         id="feGaussianBlur883" />
    </filter>
    <linearGradient
       id="linearGradient1316"
       x1="33.566002"
       x2="38.130001"
       y1="-81.992996"
       y2="-77.429001"
       gradientUnits="userSpaceOnUse"
       gradientTransform="matrix(0.58164295,0,0,0.58164295,30.017663,63.146901)">
      <stop
         stop-color="#eceff4"
         stop-opacity=".4"
         offset="0"
         id="stop285" />
      <stop
         stop-color="#2e3440"
         stop-opacity="0"
         offset="1"
         id="stop287" />
    </linearGradient>
    <linearGradient
       id="linearGradient2497"
       x1="18.874001"
       x2="22.466"
       y1="-66.984001"
       y2="-63.342999"
       gradientTransform="matrix(0.58156846,-0.00930954,0.00930954,0.58156846,30.714045,63.477314)"
       gradientUnits="userSpaceOnUse">
      <stop
         stop-color="#d8dee9"
         stop-opacity=".3"
         offset="0"
         id="stop290" />
      <stop
         stop-color="#4c566a"
         stop-opacity=".5"
         offset=".031351"
         id="stop292" />
      <stop
         stop-color="#d8dee9"
         stop-opacity=".4"
         offset=".074845"
         id="stop294" />
      <stop
         stop-color="#4c566a"
         offset=".45469"
         id="stop296" />
      <stop
         stop-color="#d8dee9"
         stop-opacity=".4"
         offset=".92844"
         id="stop298" />
      <stop
         stop-color="#4c566a"
         stop-opacity=".5"
         offset=".94952"
         id="stop300" />
      <stop
         stop-color="#d8dee9"
         stop-opacity=".3"
         offset="1"
         id="stop302" />
    </linearGradient>
    <linearGradient
       id="linearGradient3547"
       x1="28.743"
       x2="24.305"
       y1="-44.886002"
       y2="-46.075001"
       gradientUnits="userSpaceOnUse"
       gradientTransform="matrix(0.58164295,0,0,0.58164295,18.97808,60.265964)">
      <stop
         stop-color="#4c566a"
         offset="0"
         id="stop305" />
      <stop
         stop-color="#d8dee9"
         stop-opacity=".6"
         offset="1"
         id="stop307" />
    </linearGradient>
    <linearGradient
       id="linearGradient5427"
       x1="22.632999"
       x2="26.813999"
       y1="-45.414001"
       y2="-43.141998"
       gradientUnits="userSpaceOnUse"
       gradientTransform="matrix(0.58164295,0,0,0.58164295,18.97808,60.265964)">
      <stop
         stop-opacity="0"
         offset="0"
         id="stop310" />
      <stop
         stop-color="#4c566a"
         stop-opacity=".7"
         offset=".49655"
         id="stop312" />
      <stop
         stop-color="#d8dee9"
         stop-opacity="0"
         offset="1"
         id="stop314" />
    </linearGradient>
    <filter
       id="filter3361-3"
       x="-0.059532827"
       y="-0.053060671"
       width="1.1191359"
       height="1.1061065"
       color-interpolation-filters="sRGB">
      <feGaussianBlur
         stdDeviation="2.2148613"
         id="feGaussianBlur48-6" />
    </filter>
    <radialGradient
       id="radialGradient3496-7"
       cx="48.311001"
       cy="33.129002"
       r="51.5"
       fx="15.957"
       fy="45.862999"
       gradientTransform="matrix(0.36846206,0.6381858,-0.7284049,0.42055631,56.849356,-0.59558169)"
       gradientUnits="userSpaceOnUse">
      <stop
         stop-color="#fafafa"
         offset="0"
         id="stop54-5" />
      <stop
         stop-color="#fafafa"
         offset=".5"
         id="stop56-3" />
      <stop
         stop-color="#eee"
         offset="1"
         id="stop58-5" />
    </radialGradient>
    <clipPath
       id="clipPath3611-6">
      <path
         d="M 89,7 5,25 24,124 90,110 108,104 104.8691,84.759 89.0001,7 Z"
         fill-rule="evenodd"
         id="path42-2" />
    </clipPath>
    <filter
       id="filter3627-9"
       x="-0.029626011"
       y="-0.044235748"
       width="1.059252"
       height="1.0884715"
       color-interpolation-filters="sRGB">
      <feGaussianBlur
         stdDeviation="1.6272834"
         id="feGaussianBlur45-1" />
    </filter>
    <radialGradient
       id="radialGradient3506-0"
       cx="69.028999"
       cy="100.39"
       r="3.9445"
       fx="67.564003"
       fy="100.63"
       gradientUnits="userSpaceOnUse"
       xlink:href="#linearGradient4212" />
    <filter
       id="filter3678-9"
       x="-0.42359658"
       y="-0.42147447"
       width="1.8471932"
       height="1.8429489"
       color-interpolation-filters="sRGB">
      <feGaussianBlur
         stdDeviation="1.3924326"
         id="feGaussianBlur51-3" />
    </filter>
    <linearGradient
       id="linearGradient1253-6"
       x1="28"
       x2="32"
       y1="42"
       y2="42"
       gradientTransform="matrix(0.42917381,-0.06290392,0.06290392,0.42917381,2.8275035,11.838023)"
       gradientUnits="userSpaceOnUse"
       xlink:href="#linearGradient3641" />
    <linearGradient
       id="linearGradient1255-2"
       x1="26.919001"
       x2="31.961"
       y1="37.049"
       y2="43.625"
       gradientTransform="matrix(0.34333905,-0.05032162,0.05032162,0.34333905,5.9305575,15.065803)"
       gradientUnits="userSpaceOnUse"
       xlink:href="#linearGradient3650" />
    <linearGradient
       id="linearGradient3508-8"
       x1="28"
       x2="32"
       y1="42"
       y2="42"
       gradientTransform="matrix(0.42917381,-0.06290392,0.06290392,0.42917381,4.3393445,22.138573)"
       gradientUnits="userSpaceOnUse"
       xlink:href="#linearGradient3641" />
    <linearGradient
       id="linearGradient3510-7"
       x1="26.919001"
       x2="31.961"
       y1="37.049"
       y2="43.625"
       gradientTransform="matrix(0.34333905,-0.05032162,0.05032162,0.34333905,7.4423985,25.365975)"
       gradientUnits="userSpaceOnUse"
       xlink:href="#linearGradient3650" />
    <clipPath
       id="clipPath3344-5">
      <path
         d="m 62.656,4 c -0.98341,0 -1.7812,0.79784 -1.7812,1.7812 v 2.25 c -0.48866,0.066098 -0.875,0.46168 -0.875,0.96875 v 48 c 0,0.55317 0.44683,1 1,1 -0.55317,0 -1,0.44683 -1,1 v 52 l 1,31 c 0,0.55317 0.44683,1 1,1 h 6 c 0.55317,0 1,-0.44683 1,-1 l 1,-31 v -52 c 0,-0.55317 -0.44683,-1 -1,-1 0.55317,0 1,-0.44683 1,-1 v -48 c 0,-0.55317 -0.44683,-1 -1,-1 v -2.2188 c 0,-0.98341 -0.79784,-1.7812 -1.7812,-1.7812 h -4.5625 z"
         opacity="0.31"
         id="path39-9" />
    </clipPath>
    <filter
       id="filter3360-2"
       x="-0.38626"
       y="-0.027788489"
       width="1.77252"
       height="1.055577"
       color-interpolation-filters="sRGB">
      <feGaussianBlur
         stdDeviation="0.745"
         id="feGaussianBlur36-2" />
    </filter>
    <clipPath
       id="clipPath3451-3">
      <path
         d="m 62.656,4 c -0.98341,0 -1.7812,0.79784 -1.7812,1.7812 v 2.25 c -0.48866,0.066098 -0.875,0.46168 -0.875,0.96875 v 48 c 0,0.55317 0.44683,1 1,1 -0.55317,0 -1,0.44683 -1,1 v 52 l 1,31 c 0,0.55317 0.44683,1 1,1 h 6 c 0.55317,0 1,-0.44683 1,-1 l 1,-31 v -52 c 0,-0.55317 -0.44683,-1 -1,-1 0.55317,0 1,-0.44683 1,-1 v -48 c 0,-0.55317 -0.44683,-1 -1,-1 v -2.2188 c 0,-0.98341 -0.79784,-1.7812 -1.7812,-1.7812 h -4.5625 z"
         opacity="0.705"
         id="path33-6" />
    </clipPath>
    <filter
       id="filter3523-1"
       x="-0.064800003"
       y="-0.32400001"
       width="1.1296"
       height="1.648"
       color-interpolation-filters="sRGB">
      <feGaussianBlur
         stdDeviation="0.27"
         id="feGaussianBlur30-2" />
    </filter>
    <radialGradient
       id="radialGradient2313-4"
       cx="59.373001"
       cy="49.395"
       r="1.5"
       fx="58.936001"
       fy="50.037998"
       gradientTransform="matrix(0.087067,0.050268,-0.11729,0.20316,35.245,-8.6069)"
       gradientUnits="userSpaceOnUse">
      <stop
         stop-color="#404040"
         offset="0"
         id="stop79-7" />
      <stop
         stop-color="#efefef"
         offset="1"
         id="stop81-8" />
    </radialGradient>
    <linearGradient
       inkscape:collect="always"
       xlink:href="#linearGradient22063"
       id="linearGradient22065"
       x1="-22"
       y1="5.1111121"
       x2="-6.4444442"
       y2="-9.1111107"
       gradientUnits="userSpaceOnUse"
       gradientTransform="matrix(3.6250002,0,0,3.6250002,-1.114405,-14.424015)" />
    <linearGradient
       inkscape:collect="always"
       id="linearGradient22063">
      <stop
         style="stop-color:#ebcb8b;stop-opacity:1;"
         offset="0"
         id="stop22059" />
      <stop
         style="stop-color:#b48ead;stop-opacity:1;"
         offset="1"
         id="stop22061" />
    </linearGradient>
    <filter
       id="filter8973"
       x="-0.47030081"
       y="-1.8890701"
       width="1.9406016"
       height="4.7781402"
       color-interpolation-filters="sRGB">
      <feGaussianBlur
         stdDeviation="0.2766858"
         id="feGaussianBlur2680" />
    </filter>
    <filter
       id="filter677"
       x="-0.47030082"
       y="-1.8890702"
       width="1.9406016"
       height="4.7781401"
       color-interpolation-filters="sRGB">
      <feGaussianBlur
         stdDeviation="0.2766858"
         id="feGaussianBlur675" />
    </filter>
    <filter
       id="filter681"
       x="-0.47030082"
       y="-1.8890702"
       width="1.9406016"
       height="4.7781401"
       color-interpolation-filters="sRGB">
      <feGaussianBlur
         stdDeviation="0.2766858"
         id="feGaussianBlur679" />
    </filter>
    <filter
       id="filter685"
       x="-0.47030082"
       y="-1.8890702"
       width="1.9406016"
       height="4.7781401"
       color-interpolation-filters="sRGB">
      <feGaussianBlur
         stdDeviation="0.2766858"
         id="feGaussianBlur683" />
    </filter>
    <filter
       id="filter689"
       x="-0.47030082"
       y="-1.8890702"
       width="1.9406016"
       height="4.7781401"
       color-interpolation-filters="sRGB">
      <feGaussianBlur
         stdDeviation="0.2766858"
         id="feGaussianBlur687" />
    </filter>
    <filter
       id="filter693"
       x="-0.47030082"
       y="-1.8890702"
       width="1.9406016"
       height="4.7781401"
       color-interpolation-filters="sRGB">
      <feGaussianBlur
         stdDeviation="0.2766858"
         id="feGaussianBlur691" />
    </filter>
    <filter
       id="filter697"
       x="-0.47030082"
       y="-1.8890702"
       width="1.9406016"
       height="4.7781401"
       color-interpolation-filters="sRGB">
      <feGaussianBlur
         stdDeviation="0.2766858"
         id="feGaussianBlur695" />
    </filter>
    <filter
       id="filter701"
       x="-0.47030082"
       y="-1.8890702"
       width="1.9406016"
       height="4.7781401"
       color-interpolation-filters="sRGB">
      <feGaussianBlur
         stdDeviation="0.2766858"
         id="feGaussianBlur699" />
    </filter>
    <linearGradient
       id="linearGradient3871"
       x1="73.658997"
       x2="73.658997"
       y1="3.1859"
       y2="20.118999"
       gradientTransform="matrix(0.88602,0,0,0.91884,8.3397,0.94261)"
       gradientUnits="userSpaceOnUse">
      <stop
         stop-color="#4c566a"
         stop-opacity=".8"
         offset="0"
         id="stop2638" />
      <stop
         stop-color="#eceff4"
         stop-opacity=".3"
         offset=".49364"
         id="stop2640" />
      <stop
         stop-color="#4c566a"
         stop-opacity=".8"
         offset="1"
         id="stop2642" />
    </linearGradient>
    <filter
       id="filter4787"
       x="-0.062970578"
       y="-0.092711477"
       width="1.1259412"
       height="1.185423"
       color-interpolation-filters="sRGB">
      <feGaussianBlur
         stdDeviation="0.62054878"
         id="feGaussianBlur2645" />
    </filter>
    <linearGradient
       id="linearGradient6253"
       x1="73.658997"
       x2="73.658997"
       y1="3.1859"
       y2="20.118999"
       gradientTransform="matrix(0.88602,0,0,0.91884,8.3574,0.94881)"
       gradientUnits="userSpaceOnUse">
      <stop
         stop-color="#d8dee9"
         stop-opacity="0"
         offset="0"
         id="stop2651" />
      <stop
         stop-color="#eceff4"
         stop-opacity=".8"
         offset=".49364"
         id="stop2653" />
      <stop
         stop-color="#d8dee9"
         stop-opacity="0"
         offset="1"
         id="stop2655" />
    </linearGradient>
    <filter
       id="filter4787-5"
       x="-0.062970578"
       y="-0.092711477"
       width="1.1259412"
       height="1.185423"
       color-interpolation-filters="sRGB">
      <feGaussianBlur
         stdDeviation="0.62054878"
         id="feGaussianBlur2648" />
    </filter>
    <filter
       id="filter6996"
       x="-0.46729944"
       y="-0.55407778"
       width="1.9345989"
       height="2.1081556"
       color-interpolation-filters="sRGB">
      <feGaussianBlur
         stdDeviation="0.33733176"
         id="feGaussianBlur2658" />
    </filter>
    <filter
       id="filter8929"
       x="-0.13835256"
       y="-0.088569463"
       width="1.2767051"
       height="1.1771389"
       color-interpolation-filters="sRGB">
      <feGaussianBlur
         stdDeviation="0.28870029"
         id="feGaussianBlur2677" />
    </filter>
    <linearGradient
       id="linearGradient4773"
       x1="240.2"
       x2="234.33"
       y1="94.523003"
       y2="94.523003"
       gradientTransform="matrix(0.38357287,-0.26867267,0.22354452,0.34065655,-155.3147,21.257347)"
       gradientUnits="userSpaceOnUse">
      <stop
         stop-color="#2e3440"
         stop-opacity=".8"
         offset="0"
         id="stop2661" />
      <stop
         stop-color="#eceff4"
         stop-opacity=".7"
         offset=".10402"
         id="stop2663" />
      <stop
         stop-color="#4c566a"
         stop-opacity=".6"
         offset=".36006"
         id="stop2665" />
      <stop
         stop-color="#4c566a"
         stop-opacity=".6"
         offset=".82385"
         id="stop2667" />
      <stop
         stop-color="#eceff4"
         stop-opacity=".4"
         offset="1"
         id="stop2669" />
    </linearGradient>
    <linearGradient
       id="linearGradient7079"
       x1="56.514999"
       x2="58.070999"
       y1="31.466"
       y2="30.996"
       gradientUnits="userSpaceOnUse"
       gradientTransform="matrix(1.6506278,0,0,1.6506278,-132.25873,-53.362584)">
      <stop
         stop-color="#4c566a"
         offset="0"
         id="stop2672" />
      <stop
         stop-color="#4c566a"
         stop-opacity=".5"
         offset="1"
         id="stop2674" />
    </linearGradient>
  </defs>
</svg>
