<?xml version="1.0" encoding="UTF-8" standalone="no"?>
<svg
   version="1.1"
   viewBox="0 0 64 64"
   id="svg32"
   sodipodi:docname="audacity.svg"
   width="64"
   height="64"
   inkscape:version="1.2.1 (9c6d41e410, 2022-07-14)"
   xmlns:inkscape="http://www.inkscape.org/namespaces/inkscape"
   xmlns:sodipodi="http://sodipodi.sourceforge.net/DTD/sodipodi-0.dtd"
   xmlns:xlink="http://www.w3.org/1999/xlink"
   xmlns="http://www.w3.org/2000/svg"
   xmlns:svg="http://www.w3.org/2000/svg">
  <sodipodi:namedview
     id="namedview34"
     pagecolor="#ffffff"
     bordercolor="#666666"
     borderopacity="1.0"
     inkscape:showpageshadow="2"
     inkscape:pageopacity="0.0"
     inkscape:pagecheckerboard="0"
     inkscape:deskcolor="#d1d1d1"
     showgrid="false"
     inkscape:zoom="7.375"
     inkscape:cx="16.338983"
     inkscape:cy="37.898305"
     inkscape:window-width="1920"
     inkscape:window-height="998"
     inkscape:window-x="0"
     inkscape:window-y="0"
     inkscape:window-maximized="1"
     inkscape:current-layer="svg32" />
  <defs
     id="defs12">
    <linearGradient
       id="b"
       x1="-41.259998"
       x2="-2.994"
       y1="-0.88300002"
       y2="37.956001"
       gradientTransform="matrix(0.73180945,0,0,0.72091894,416.0252,517.69779)"
       gradientUnits="userSpaceOnUse">
      <stop
         stop-color="#21c9fb"
         offset="0"
         id="stop2" />
      <stop
         stop-color="#1a86f2"
         offset="1"
         id="stop4" />
    </linearGradient>
    <linearGradient
       id="a"
       x1="4"
       x2="44"
       y1="4"
       y2="44"
       gradientTransform="matrix(0.69444447,0,0,0.69444447,384.01587,515.24246)"
       gradientUnits="userSpaceOnUse">
      <stop
         offset="0"
         id="stop7" />
      <stop
         stop-opacity="0"
         offset="1"
         id="stop9" />
    </linearGradient>
    <linearGradient
       inkscape:collect="always"
       xlink:href="#linearGradient22063"
       id="linearGradient22065"
       x1="-22"
       y1="5.1111121"
       x2="-6.4444442"
       y2="-9.1111107"
       gradientUnits="userSpaceOnUse"
       gradientTransform="matrix(3.6250002,0,0,3.6250002,82.750001,39.249999)" />
    <linearGradient
       inkscape:collect="always"
       id="linearGradient22063">
      <stop
         style="stop-color:#88c0d0;stop-opacity:1;"
         offset="0"
         id="stop22059" />
      <stop
         style="stop-color:#5e81ac;stop-opacity:1;"
         offset="1"
         id="stop22061" />
    </linearGradient>
    <linearGradient
       gradientTransform="matrix(0.33944754,0,0,0.33992701,9.6992503,10.420578)"
       xlink:href="#linearGradient3360"
       id="linearGradient3366"
       x1="-1.414"
       y1="88.047997"
       x2="154.149"
       y2="89.816002"
       gradientUnits="userSpaceOnUse" />
    <linearGradient
       id="linearGradient3360">
      <stop
         style="stop-color:#ffcc00;stop-opacity:1;"
         offset="0"
         id="stop158" />
      <stop
         offset=".245"
         style="stop-color:#ffff00;stop-opacity:1"
         id="stop160" />
      <stop
         offset=".586"
         style="stop-color:#ff0000;stop-opacity:1"
         id="stop162" />
      <stop
         style="stop-color:#ffcc00;stop-opacity:0;"
         offset="1"
         id="stop164" />
    </linearGradient>
    <linearGradient
       gradientTransform="matrix(0.33944754,0,0,0.33992701,9.6992503,10.420578)"
       xlink:href="#linearGradient3347"
       id="linearGradient3359"
       x1="-23.688"
       y1="-24.028"
       x2="146.72501"
       y2="140.728"
       gradientUnits="userSpaceOnUse" />
    <linearGradient
       id="linearGradient3347">
      <stop
         style="stop-color:#5e81ac;stop-opacity:1;"
         offset="0"
         id="stop146" />
      <stop
         offset="0.252"
         style="stop-color:#5e81ac;stop-opacity:1;"
         id="stop148" />
      <stop
         style="stop-color:#456285;stop-opacity:1;"
         offset="0.45899999"
         id="stop150" />
      <stop
         offset="0.89899999"
         style="stop-color:#233143;stop-opacity:1;"
         id="stop152" />
      <stop
         style="stop-color:#5e81ac;stop-opacity:0.07962073;"
         offset="1"
         id="stop154" />
    </linearGradient>
    <linearGradient
       id="e"
       y1="45"
       y2="24"
       x2="0"
       gradientUnits="userSpaceOnUse"
       gradientTransform="matrix(1.0774876,0,0,1.0774873,7.17948,4.6902606)">
      <stop
         stop-color="#60c0f4"
         id="stop18" />
      <stop
         offset="1"
         stop-color="#b9e9ff"
         id="stop20" />
    </linearGradient>
    <linearGradient
       inkscape:collect="always"
       xlink:href="#b-3"
       id="linearGradient566"
       gradientUnits="userSpaceOnUse"
       x1="24"
       y1="30"
       x2="38"
       y2="44"
       gradientTransform="matrix(1.0774876,0,0,1.0774873,7.17948,4.6902606)" />
    <linearGradient
       id="b-3"
       y1="30"
       x1="24"
       y2="44"
       x2="38"
       gradientUnits="userSpaceOnUse">
      <stop
         id="stop7-6" />
      <stop
         offset="1"
         stop-opacity="0"
         id="stop9-7" />
    </linearGradient>
    <linearGradient
       id="a-5"
       y1="30"
       x1="34"
       y2="28"
       x2="24"
       gradientUnits="userSpaceOnUse"
       gradientTransform="matrix(1.0774876,0,0,1.0774873,7.17948,4.6902606)">
      <stop
         stop-color="#f39c12"
         id="stop2-3" />
      <stop
         offset="1"
         stop-color="#ffc35a"
         id="stop4-5" />
    </linearGradient>
    <linearGradient
       id="f"
       y1="23"
       x1="32"
       y2="22"
       x2="25"
       gradientUnits="userSpaceOnUse"
       gradientTransform="matrix(1.0774876,0,0,1.0774873,6.1019929,4.6902606)">
      <stop
         stop-color="#cea476"
         id="stop23" />
      <stop
         offset="1"
         stop-color="#dab58b"
         id="stop25" />
    </linearGradient>
    <linearGradient
       xlink:href="#b-3"
       id="g"
       y1="24"
       x1="25"
       y2="38"
       x2="39"
       gradientUnits="userSpaceOnUse"
       gradientTransform="matrix(1.0774876,0,0,1.0774873,7.17948,4.6902606)" />
    <linearGradient
       id="c"
       y1="37"
       y2="4"
       x2="0"
       gradientUnits="userSpaceOnUse"
       gradientTransform="matrix(1.0774876,0,0,1.0774873,5.0245048,4.6902606)">
      <stop
         stop-color="#da4453"
         id="stop12" />
      <stop
         offset="1"
         stop-color="#ff7336"
         id="stop14" />
    </linearGradient>
    <linearGradient
       xlink:href="#b-3"
       id="d"
       y1="22.313"
       x1="20.438"
       y2="25.406"
       x2="23.531"
       gradientUnits="userSpaceOnUse"
       gradientTransform="matrix(1.0774876,0,0,1.0774873,5.0245048,4.6902606)" />
  </defs>
  <path
     d="m 2.9999985,10.25 c 0,-4.004175 3.245938,-7.25 7.2500005,-7.25 h 43.500003 c 4.004173,0 7.25,3.245825 7.25,7.25 v 43.5 c 0,4.004173 -3.245827,7.25 -7.25,7.25 H 10.249999 C 6.2459365,61 2.9999985,57.754173 2.9999985,53.75 Z"
     id="path736"
     style="fill:#606c86;fill-opacity:1;stroke-width:3.625" />
  <path
     d="M 2.9999985,9.796875 C 2.9999985,6.043188 6.2459365,3 10.249999,3 h 43.500003 c 4.004173,0 7.25,3.043188 7.25,6.796875 v 40.781249 c 0,3.753693 -3.245827,6.796876 -7.25,6.796876 H 10.249999 c -4.0040625,0 -7.2500005,-3.043183 -7.2500005,-6.796876 z"
     id="path738"
     style="fill:url(#linearGradient22065);fill-opacity:1;stroke-width:3.625" />
  <path
     fill="url(#e)"
     d="m 33.039172,30.549938 c 0,0 -1.077493,0.503198 -1.077493,2.154974 0,1.651788 1.077493,2.154973 1.077493,2.154973 v 2.154974 c 0,0 -6.464922,2.011672 -6.464922,8.619894 0,6.464923 3.160268,6.464923 6.464922,6.464923 h 10.774872 c 3.304654,0 6.464925,0 6.464925,-6.464923 0,-6.608222 -6.464925,-8.619894 -6.464925,-8.619894 v -2.154974 c 0,0 1.077482,-0.503185 1.077482,-2.154973 0,-1.651776 -1.077482,-2.154974 -1.077482,-2.154974 z"
     id="path31"
     style="fill:url(#e);fill-rule:evenodd;stroke-width:1.0775" />
  <path
     fill="#65c2f5"
     d="m 35.194147,30.549938 v 8.052061 l -1.514946,0.471943 c 0,0 -1.226187,0.386818 -2.504079,1.437366 -1.277907,1.050548 -2.445898,2.522399 -2.445898,5.12453 0,2.881203 0.577533,3.55786 1.039773,3.868175 0.461164,0.310319 1.618381,0.441772 3.270175,0.441772 h 10.774872 c 1.65179,0 2.809005,-0.131453 3.270175,-0.441772 0.461162,-0.310315 1.039775,-0.986972 1.039775,-3.868175 0,-2.601058 -1.168002,-4.073982 -2.445899,-5.12453 -1.277897,-1.050548 -2.504083,-1.437366 -2.504083,-1.437366 L 41.65907,38.601999 v -8.052061 z"
     id="path33"
     style="fill-rule:evenodd;stroke-width:1.0775" />
  <path
     opacity="0.2"
     fill="url(#b)"
     d="m 33.039172,37.014859 14.609649,14.609646 c 1.551583,-0.655114 2.630148,-2.218541 2.630148,-5.989752 0,-6.608222 -6.464925,-8.619894 -6.464925,-8.619894 z"
     id="path35"
     style="fill:url(#linearGradient566);fill-rule:evenodd;stroke-width:1.0775" />
  <rect
     width="10.774867"
     x="33.039173"
     y="34.859882"
     fill="url(#a)"
     height="2.1549735"
     stroke-linecap="round"
     id="rect39"
     style="fill:url(#a-5);stroke-width:2.155;stroke-linejoin:bevel" />
  <path
     fill="#34495e"
     d="m 29.528723,42.4023 c -0.481642,0.840443 -0.799499,1.882375 -0.799499,3.232453 0,2.881203 0.577533,3.557872 1.039773,3.868187 0.461164,0.310321 1.618381,0.441762 3.270175,0.441762 h 10.774872 c 1.65179,0 2.809005,-0.131441 3.270175,-0.441762 0.461162,-0.310315 1.039775,-0.986984 1.039775,-3.868187 0,-1.350078 -0.318941,-2.39201 -0.799498,-3.232453 z"
     id="path41"
     style="stroke-width:2.155;stroke-linejoin:bevel" />
  <rect
     width="10.774867"
     x="33.039173"
     y="28.394957"
     fill="url(#f)"
     rx="1.0656348"
     height="2.1549735"
     id="rect45"
     style="fill:url(#f);stroke-width:4.31003;stroke-linecap:round;stroke-linejoin:bevel" />
  <rect
     width="6.4649234"
     x="35.194164"
     y="30.549974"
     fill="#cea476"
     height="3.2324607"
     id="rect47"
     style="stroke-width:4.31003;stroke-linecap:round;stroke-linejoin:bevel" />
  <path
     opacity="0.2"
     fill="url(#g)"
     fill-rule="evenodd"
     d="M 34.116654,30.549938 50.24556,46.678839 c 0.02047,-0.329704 0.03344,-0.673423 0.03344,-1.044086 0,-6.608222 -6.464925,-8.619894 -6.464925,-8.619894 v -2.154974 c 0,0 1.077484,-0.503185 1.077484,-2.154973 0,-1.651776 -1.077484,-2.154974 -1.077484,-2.154974 z"
     id="path53"
     style="fill:url(#g);stroke-width:1.0775" />
  <path
     fill="url(#c)"
     d="m 41.656915,9.000199 -2.51055,1.231571 c -2.512701,1.232651 -5.165464,4.040585 -5.165464,4.040585 l 0.394352,3.172114 c -0.148694,0.216571 -0.304926,0.447156 -0.462241,0.677742 l -1.11627,-2.000891 -1.816652,2.260567 1.28329,2.200229 c -0.007,0.01187 -0.01724,0.0248 -0.02485,0.03663 l -1.606525,-1.825259 c 0,0 -1.04624,1.231568 -4.25608,5.820588 -3.209828,4.589013 -5.862609,9.931199 -5.862609,9.931199 l 0.123921,3.628975 c -0.172401,0.255361 -0.355571,0.532277 -0.524742,0.781173 l -0.505344,-2.972782 -1.116271,1.848964 -0.280148,1.783247 -0.626015,0.753163 c 0,0 -1.036549,3.877876 -0.838291,4.578237 0.198262,0.701441 2.82733,-0.676658 2.82733,-0.676658 l 0.138995,-0.923399 2.128048,-0.684211 -2.368315,-0.471937 c 0.05713,-0.09586 0.127145,-0.212276 0.185331,-0.309249 0.283376,0.08725 0.6174,0.185328 1.243415,0.299545 1.500944,0.273684 2.510551,-0.272603 2.510551,-0.272603 l 1.077479,-1.371638 c 0,0 -0.83721,0.582916 -1.78001,0.753161 -0.927722,0.16916 -2.506232,-0.220881 -2.553643,-0.232741 0.08296,-0.136835 0.171328,-0.284459 0.256439,-0.423444 0.398674,-0.101284 3.989944,-1.038702 6.100734,-2.527788 2.233638,-1.575286 6.665339,-6.437989 6.665339,-6.437989 0,0 -1.068863,-0.0092 -3.371459,-0.04413 -2.16575,-0.03233 -4.087983,-0.01724 -4.30995,0 0.100188,-0.160541 0,-1.077483 0,-1.077483 l 9.251306,-1.448153 c 0,0 0.594779,-1.130284 1.502017,-2.944771 0.907248,-1.814483 3.254019,-6.380876 3.254019,-6.380876 0,0 -1.575288,-0.04528 -2.982491,-0.238121 -1.342544,-0.18533 -2.612904,-0.508572 -2.732501,-0.538743 0.01618,-0.02481 0.03342,-0.05067 0.0496,-0.07545 0.195021,-0.09051 1.450296,-0.668048 2.386632,-0.960042 1.011758,-0.314628 4.095532,-0.75101 4.095532,-0.75101 0,0 0.02479,-0.436387 0.24674,-1.331776 0.221964,-0.896468 0.665889,-2.954466 0.665889,-2.954466 l -5.366969,3.023416 c 0.226273,-0.310314 0.439608,-0.587224 0.6605,-0.880305 l 4.903645,-2.869333 c 0,0 0.04958,-0.629251 0.147614,-1.45245 C 41.677373,9.920404 41.655823,8.997 41.655823,8.997"
     id="path57"
     style="fill:url(#c);fill-rule:evenodd;stroke-width:1.0775" />
  <path
     fill="#31363b"
     d="m 41.65907,9.000199 c 0,0 -4.97907,5.323864 -9.936584,12.14867 -4.957525,6.824799 -9.98616,14.544995 -15.013705,23.359911 -4.365979,7.654475 -2.786384,7.59629 -2.786384,7.59629 0,0 0.495644,-1.27574 3.96191,-7.284886 3.314359,-5.744087 7.506853,-13.162583 14.518069,-23.38686 3.341289,-4.872399 9.25561,-12.42773 9.25561,-12.42773"
     id="path59"
     style="fill-rule:evenodd;stroke-width:1.0775" />
  <path
     opacity="0.2"
     fill="url(#d)"
     d="m 41.656915,9.000199 -0.761786,0.951433 -2.776679,3.55355 -4.279779,5.419753 c 0.195021,-0.09051 1.449211,-0.668039 2.386631,-0.960039 1.011759,-0.31463 4.095533,-0.751012 4.095533,-0.751012 0,0 0.02586,-0.436373 0.247812,-1.331764 0.221965,-0.896477 0.664817,-2.954479 0.664817,-2.954479 l -4.633194,2.595665 c 0.226271,-0.310308 0.439615,-0.586146 0.660497,-0.87922 l 4.170957,-2.441589 c 0,0 0.04847,-0.629253 0.147611,-1.452451 0.09913,-0.823203 0.07758,-1.746607 0.07758,-1.746607 m -7.818244,9.92258 -8.341916,11.627158 9.251306,-1.448142 c 0,0 0.59585,-1.131367 1.503101,-2.945851 0.907249,-1.814483 3.254006,-6.380876 3.254006,-6.380876 0,0 -1.575285,-0.04415 -2.982479,-0.23812 -1.342557,-0.185331 -2.613987,-0.508574 -2.733583,-0.538746 0.01621,-0.02481 0.03448,-0.05067 0.05067,-0.07546 m -8.341918,11.627162 -8.582191,14.567618 c 0.624943,0.219808 2.656012,-0.845827 2.656012,-0.845827 l 0.138991,-0.921248 2.130197,-0.684203 -2.369395,-0.473013 c 0.05705,-0.09589 0.12714,-0.210117 0.185322,-0.307092 0.28339,0.08725 0.617402,0.184257 1.243431,0.298472 1.500931,0.273673 2.508381,-0.27153 2.508381,-0.27153 l 1.088268,-1.371637 c 0,0 -0.838289,0.581843 -1.780007,0.753159 -0.92772,0.169161 -2.505166,-0.221972 -2.552576,-0.233811 0.08295,-0.136848 0.170245,-0.283382 0.25429,-0.423457 0.398668,-0.101271 3.989938,-1.038693 6.100729,-2.527789 2.233637,-1.575285 6.665339,-6.437978 6.665339,-6.437978 0,0 -1.068861,-0.0092 -3.37146,-0.04416 -2.16575,-0.0323 -4.087983,-0.01724 -4.309949,0 0.100188,-0.160551 0,-1.077489 0,-1.077489"
     id="path61"
     style="fill:url(#d);fill-rule:evenodd;stroke-width:1.0775" />
</svg>
