<?xml version="1.0" encoding="UTF-8" standalone="no"?>
<svg
   width="64"
   height="64"
   viewBox="0 0 64 64"
   version="1.1"
   id="svg22024"
   sodipodi:docname="choqok.svg"
   inkscape:version="1.2.1 (9c6d41e410, 2022-07-14)"
   xmlns:inkscape="http://www.inkscape.org/namespaces/inkscape"
   xmlns:sodipodi="http://sodipodi.sourceforge.net/DTD/sodipodi-0.dtd"
   xmlns:xlink="http://www.w3.org/1999/xlink"
   xmlns="http://www.w3.org/2000/svg"
   xmlns:svg="http://www.w3.org/2000/svg">
  <sodipodi:namedview
     id="namedview22026"
     pagecolor="#ffffff"
     bordercolor="#666666"
     borderopacity="1.0"
     inkscape:showpageshadow="2"
     inkscape:pageopacity="0.0"
     inkscape:pagecheckerboard="0"
     inkscape:deskcolor="#d1d1d1"
     showgrid="false"
     inkscape:zoom="4.9166667"
     inkscape:cx="24.508474"
     inkscape:cy="24.508474"
     inkscape:window-width="1920"
     inkscape:window-height="1002"
     inkscape:window-x="0"
     inkscape:window-y="0"
     inkscape:window-maximized="1"
     inkscape:current-layer="svg22024" />
  <defs
     id="defs22004">
    <linearGradient
       id="linearGradient4212">
      <stop
         style="stop-color:#000000;stop-opacity:1;"
         offset="0"
         id="stop21980" />
      <stop
         style="stop-color:#000000;stop-opacity:0;"
         offset="1"
         id="stop21982" />
    </linearGradient>
    <linearGradient
       id="linearGradient4198">
      <stop
         style="stop-color:#272b2d;stop-opacity:1;"
         offset="0"
         id="stop21985" />
      <stop
         style="stop-color:#3e4447;stop-opacity:1"
         offset="1"
         id="stop21987" />
    </linearGradient>
    <linearGradient
       id="linearGradient4185">
      <stop
         style="stop-color:#acacac;stop-opacity:1"
         offset="0"
         id="stop21990" />
      <stop
         style="stop-color:#cbcbcb;stop-opacity:1"
         offset="1"
         id="stop21992" />
    </linearGradient>
    <linearGradient
       id="linearGradient4144">
      <stop
         style="stop-color:#3b962d;stop-opacity:1"
         offset="0"
         id="stop21995" />
      <stop
         style="stop-color:#93d169;stop-opacity:1"
         offset="1"
         id="stop21997" />
    </linearGradient>
    <linearGradient
       xlink:href="#linearGradient4144"
       id="linearGradient4150"
       x1="25"
       y1="1046.3621"
       x2="25"
       y2="1010.362"
       gradientUnits="userSpaceOnUse"
       gradientTransform="translate(86.850772,-1045.9604)" />
    <radialGradient
       xlink:href="#linearGradient4185"
       id="radialGradient4191"
       cx="24"
       cy="1025.3621"
       fx="24"
       fy="1025.3621"
       r="2"
       gradientTransform="matrix(1,0,0,0.9998745,86.850772,-1045.8317)"
       gradientUnits="userSpaceOnUse" />
    <linearGradient
       xlink:href="#linearGradient4198"
       id="linearGradient4204"
       x1="24"
       y1="1032.3621"
       x2="24"
       y2="1018.362"
       gradientUnits="userSpaceOnUse"
       gradientTransform="translate(86.850772,-1045.9604)" />
    <linearGradient
       xlink:href="#linearGradient4212"
       id="linearGradient4218"
       x1="20"
       y1="17"
       x2="38"
       y2="35"
       gradientUnits="userSpaceOnUse"
       gradientTransform="translate(86.850772,-41.5982)" />
    <linearGradient
       inkscape:collect="always"
       xlink:href="#linearGradient22063-0"
       id="linearGradient22065-6"
       x1="-13.999999"
       y1="6"
       x2="-13.999999"
       y2="-9.999999"
       gradientUnits="userSpaceOnUse"
       gradientTransform="matrix(3.6250002,0,0,3.6250002,82.750001,39.249999)" />
    <linearGradient
       inkscape:collect="always"
       id="linearGradient22063-0">
      <stop
         style="stop-color:#a3be8c;stop-opacity:1;"
         offset="0"
         id="stop22059-6" />
      <stop
         style="stop-color:#8fbcbb;stop-opacity:1;"
         offset="1"
         id="stop22061-2" />
    </linearGradient>
    <radialGradient
       xlink:href="#linearGradient4185"
       id="radialGradient4191-8"
       cx="24"
       cy="1025.3621"
       fx="24"
       fy="1025.3621"
       r="2"
       gradientTransform="matrix(1.3333244,0,0,1.3331571,-53.621395,-1399.2795)"
       gradientUnits="userSpaceOnUse" />
    <radialGradient
       xlink:href="#linearGradient4185"
       id="radialGradient4191-8-3"
       cx="24"
       cy="1025.3621"
       fx="24"
       fy="1025.3621"
       r="2"
       gradientTransform="matrix(1.3999917,0,0,1.3998155,-2.0999057,-1415.0207)"
       gradientUnits="userSpaceOnUse" />
    <linearGradient
       xlink:href="#linearGradient4167"
       id="linearGradient4161"
       x1="-44"
       y1="-24"
       x2="-4"
       y2="-24"
       gradientUnits="userSpaceOnUse"
       gradientTransform="translate(-7.193816,-7.9352386)" />
    <linearGradient
       id="linearGradient4167">
      <stop
         style="stop-color:#009467;stop-opacity:1"
         offset="0"
         id="stop477" />
      <stop
         style="stop-color:#87d770;stop-opacity:1"
         offset="1"
         id="stop479" />
    </linearGradient>
    <linearGradient
       id="a"
       y1="44"
       y2="8.0699997"
       x2="0"
       gradientUnits="userSpaceOnUse">
      <stop
         stop-color="#42a603"
         id="stop162" />
      <stop
         offset="1"
         stop-color="#78da06"
         id="stop164" />
    </linearGradient>
    <linearGradient
       xlink:href="#c"
       id="h"
       y1="518.79999"
       x1="418.57001"
       y2="525.79999"
       x2="425.57001"
       gradientUnits="userSpaceOnUse" />
    <linearGradient
       id="c"
       y1="529.47998"
       x1="410.03"
       y2="538.66998"
       x2="417.07999"
       gradientUnits="userSpaceOnUse">
      <stop
         id="stop172" />
      <stop
         offset="1"
         stop-opacity="0"
         id="stop174" />
    </linearGradient>
    <linearGradient
       xlink:href="#c"
       id="g"
       y1="518.98999"
       x1="393.76001"
       y2="525.90997"
       x2="400.69"
       gradientUnits="userSpaceOnUse" />
    <linearGradient
       id="f"
       y1="529.39001"
       x1="417.19"
       y2="532.27002"
       x2="420.64001"
       gradientUnits="userSpaceOnUse">
      <stop
         stop-color="#f39c12"
         id="stop183" />
      <stop
         offset="1"
         stop-color="#f5ab35"
         id="stop185" />
    </linearGradient>
    <linearGradient
       id="d"
       y1="511.79999"
       x1="388.57001"
       y2="527.59003"
       x2="400.57001"
       gradientUnits="userSpaceOnUse">
      <stop
         stop-color="#ffffff"
         id="stop177" />
      <stop
         offset="1"
         stop-color="#d9fafd"
         id="stop179" />
    </linearGradient>
    <linearGradient
       xlink:href="#d"
       id="e"
       y1="507.79999"
       x1="418.57001"
       y2="523.31"
       x2="430.07001"
       gradientUnits="userSpaceOnUse" />
    <linearGradient
       id="b"
       y1="519.46002"
       x1="406.13"
       y2="525.15002"
       x2="416.44"
       gradientUnits="userSpaceOnUse"
       gradientTransform="matrix(1.27402,-0.19577,0.10158,1,-166.77,85.12)">
      <stop
         stop-color="#ffc35a"
         id="stop167" />
      <stop
         offset="1"
         stop-color="#faae2a"
         id="stop169" />
    </linearGradient>
    <linearGradient
       xlink:href="#a"
       id="i"
       y1="508.04999"
       x1="419.63"
       y2="504.42001"
       x2="422.26001"
       gradientUnits="userSpaceOnUse" />
    <linearGradient
       id="linearGradient517"
       y1="44"
       y2="8.0699997"
       x2="0"
       gradientUnits="userSpaceOnUse">
      <stop
         stop-color="#42a603"
         id="stop513" />
      <stop
         offset="1"
         stop-color="#78da06"
         id="stop515" />
    </linearGradient>
    <linearGradient
       inkscape:collect="always"
       xlink:href="#a"
       id="linearGradient547"
       gradientUnits="userSpaceOnUse"
       y1="44"
       x2="0"
       y2="8.0699997" />
    <linearGradient
       inkscape:collect="always"
       xlink:href="#d"
       id="linearGradient549"
       gradientUnits="userSpaceOnUse"
       x1="388.57001"
       y1="511.79999"
       x2="400.57001"
       y2="527.59003" />
    <linearGradient
       inkscape:collect="always"
       xlink:href="#c"
       id="linearGradient551"
       gradientUnits="userSpaceOnUse"
       x1="410.03"
       y1="529.47998"
       x2="417.07999"
       y2="538.66998" />
  </defs>
  <path
     d="m 2.9999985,10.25 c 0,-4.004175 3.245938,-7.25 7.2500005,-7.25 h 43.500003 c 4.004173,0 7.25,3.245825 7.25,7.25 v 43.5 c 0,4.004173 -3.245827,7.25 -7.25,7.25 H 10.249999 C 6.2459365,61 2.9999985,57.754173 2.9999985,53.75 Z"
     id="path736-7"
     style="fill:#606c86;fill-opacity:1;stroke-width:3.625" />
  <path
     d="M 2.9999985,9.796875 C 2.9999985,6.043188 6.2459365,3 10.249999,3 h 43.500003 c 4.004173,0 7.25,3.043188 7.25,6.796875 v 40.781249 c 0,3.753693 -3.245827,6.796876 -7.25,6.796876 H 10.249999 c -4.0040625,0 -7.2500005,-3.043183 -7.2500005,-6.796876 z"
     id="path738-9"
     style="fill:url(#linearGradient22065-6);fill-opacity:1;stroke-width:3.625" />
  <g
     transform="matrix(1.21,0,0,1.21,-462.22989,-602.448)"
     id="g243">
    <g
       fill-rule="evenodd"
       id="g201">
      <path
         fill="url(#a)"
         d="m 4,8 v 30 h 24 l 7,6 v -6 h 9 V 8 Z"
         transform="translate(384.57,499.8)"
         id="path193"
         style="fill:url(#linearGradient547)" />
      <path
         opacity="0.1"
         fill="url(#h)"
         d="m 418.57,518.8 10,10 v -10 z"
         id="path195"
         style="fill:url(#h)" />
      <path
         opacity="0.1"
         fill="url(#g)"
         d="m 398.82,513.67 10,10 -11.25,9.625 -9,-9 z"
         id="path197"
         style="fill:url(#g)" />
      <path
         fill="url(#f)"
         d="m 400.57,529.8 c 7.883,7.515 15.183,7.239 18.736,2.951 3.554,-4.288 0.895,-7.951 0.895,-7.951 z"
         id="path199"
         style="fill:url(#f)" />
    </g>
    <g
       stroke-linejoin="round"
       color="#000000"
       stroke-width="3"
       id="g213">
      <path
         fill="url(#d)"
         d="m 393.07,510.8 c -1.69,0 -3.246,0.056 -4.5,1 v 12.491 c 1.254,0.944 2.81,1.509 4.5,1.509 4.142,0 8.531,-1.858 8.531,-6 0,-4.142 -4.389,-9 -8.531,-9"
         id="path203"
         style="fill:url(#linearGradient549)" />
      <path
         fill="url(#e)"
         d="m 419.57,507.8 c -2.132,2.607 -3.492,5.765 -2.482,8.842 1.413,4.304 6.287,4.841 10.289,3.527 0.421,-0.138 0.816,-0.319 1.193,-0.525 v -11.843 z"
         id="path205"
         style="fill:url(#e)" />
      <g
         fill="#31363b"
         stroke-linecap="round"
         id="g211">
        <circle
           cx="395.07001"
           cy="518.29999"
           r="3.5"
           id="circle207" />
        <circle
           cx="421.07001"
           cy="514.29999"
           r="3.5"
           id="circle209" />
      </g>
    </g>
    <g
       fill-rule="evenodd"
       id="g241">
      <path
         fill="#192629"
         d="m 401.57,529.8 c 5.99,6.172 13.883,5.86 16.583,2.339 2.701,-3.522 0.68,-6.53 0.68,-6.53 z"
         id="path215" />
      <path
         fill="#da4453"
         d="m 416.02,531.65 c -2.06,0.073 -4.539,0.715 -6.829,1.883 3.244,0.942 5.47,0.429 7.243,-0.677 0.643,-0.401 1.115,-0.693 1.269,-1.121 -0.516,-0.076 -1.08,-0.107 -1.683,-0.085"
         id="path217" />
      <path
         opacity="0.2"
         fill="url(#c)"
         d="m 400.57,529.8 8,8 h 4 l 7,6 v -6 h 9 v -5 l -8,-8 z"
         id="path219"
         style="fill:url(#linearGradient551)" />
      <path
         fill="url(#b)"
         d="m 400.57,529.8 c 0,0 1.432,-4.319 8.931,-6.267 7.499,-1.948 11.07,1.267 11.07,1.267 0.999,2.908 -8.664,7.427 -8.664,7.427 0,0 -10.699,0.576 -11.334,-2.427"
         id="path221"
         style="fill:url(#b)" />
      <path
         fill="url(#i)"
         d="m 428.57,507.8 c 0,-3 -4.75,-4 -4.75,-4 0,0 -0.589,1.268 0,2 -2.25,-2 -4.25,-1 -4.25,-1 0,0 0.504,1.312 1.25,2 -1.199,-0.575 -2.5,0 -2.5,0 0,0 0.679,1 1.25,1 z"
         id="path223"
         style="fill:url(#i)" />
      <g
         fill="#31363b"
         transform="matrix(1.03136,0,0,1,-13.438,0)"
         id="g231">
        <path
           d="m 428.57,519.8 c 0,0 4.126,-0.491 3.695,-1.531 -0.431,-1.039 -3.695,1.531 -3.695,1.531"
           id="path225" />
        <path
           d="m 428.57,519.8 c 0,0 2.974,-2.902 2,-3.464 -0.974,-0.562 -2,3.464 -2,3.464"
           id="path227" />
        <path
           d="m 428.57,519.8 c 0,0 3.573,2.122 3.864,1.035 0.291,-1.087 -3.864,-1.035 -3.864,-1.035"
           id="path229" />
      </g>
      <g
         fill="#31363b"
         transform="matrix(1.03138,0,0,1,-12.192,0)"
         id="g239">
        <path
           d="m 388.57,526.8 c 0,0 -3.573,2.122 -3.864,1.035 -0.291,-1.087 3.864,-1.035 3.864,-1.035"
           id="path233" />
        <path
           d="m 388.57,526.8 c 0,0 -4.126,-0.491 -3.696,-1.531 0.431,-1.039 3.696,1.531 3.696,1.531"
           id="path235" />
        <path
           d="m 388.57,526.8 c 0,0 -1.543,3.858 -2.435,3.173 -0.893,-0.685 2.435,-3.173 2.435,-3.173"
           id="path237" />
      </g>
    </g>
  </g>
</svg>
