<?xml version="1.0" encoding="UTF-8" standalone="no"?>
<svg
   width="64"
   height="64"
   version="1.1"
   id="svg23117"
   sodipodi:docname="boxy.svg"
   inkscape:version="1.3.2 (091e20ef0f, 2023-11-25)"
   xmlns:inkscape="http://www.inkscape.org/namespaces/inkscape"
   xmlns:sodipodi="http://sodipodi.sourceforge.net/DTD/sodipodi-0.dtd"
   xmlns:xlink="http://www.w3.org/1999/xlink"
   xmlns="http://www.w3.org/2000/svg"
   xmlns:svg="http://www.w3.org/2000/svg">
  <sodipodi:namedview
     id="namedview23119"
     pagecolor="#ffffff"
     bordercolor="#666666"
     borderopacity="1.0"
     inkscape:showpageshadow="2"
     inkscape:pageopacity="0.0"
     inkscape:pagecheckerboard="0"
     inkscape:deskcolor="#d1d1d1"
     showgrid="false"
     inkscape:zoom="4.9166667"
     inkscape:cx="24.406779"
     inkscape:cy="24.508474"
     inkscape:window-width="1920"
     inkscape:window-height="994"
     inkscape:window-x="0"
     inkscape:window-y="0"
     inkscape:window-maximized="1"
     inkscape:current-layer="svg23117" />
  <defs
     id="defs23105">
    <linearGradient
       id="a"
       y1="547.63397"
       y2="499.67899"
       x2="388.86499"
       gradientUnits="userSpaceOnUse"
       gradientTransform="translate(-453.04388,-539.81483)"
       x1="428.81601">
      <stop
         stop-color="#2a2c2f"
         id="stop23090" />
      <stop
         offset="1"
         stop-color="#536161"
         id="stop23092" />
    </linearGradient>
    <linearGradient
       id="b"
       y1="44"
       y2="12"
       x2="14"
       gradientUnits="userSpaceOnUse"
       x1="36"
       gradientTransform="translate(-68.473879,-40.014831)">
      <stop
         stop-color="#536161"
         style="stop-color:#bfc9c9;stop-opacity:1"
         id="stop23095" />
      <stop
         offset="1"
         stop-color="#f4f5f5"
         style="stop-color:#fbfbfb;stop-opacity:1"
         id="stop23097" />
    </linearGradient>
    <linearGradient
       id="c"
       y1="527.01398"
       x1="406.50101"
       y2="539.82501"
       x2="419.974"
       gradientUnits="userSpaceOnUse"
       gradientTransform="translate(-453.04388,-539.81483)">
      <stop
         stop-color="#292c2f"
         id="stop23100" />
      <stop
         offset="1"
         stop-opacity="0"
         id="stop23102" />
    </linearGradient>
    <linearGradient
       inkscape:collect="always"
       xlink:href="#linearGradient22063"
       id="linearGradient22065"
       x1="-14"
       y1="6"
       x2="-14"
       y2="-9.999999"
       gradientUnits="userSpaceOnUse"
       gradientTransform="matrix(3.6250002,0,0,3.6250002,82.750005,39.249999)" />
    <linearGradient
       inkscape:collect="always"
       id="linearGradient22063">
      <stop
         style="stop-color:#292f3a;stop-opacity:1;"
         offset="0"
         id="stop22059" />
      <stop
         style="stop-color:#535e75;stop-opacity:1;"
         offset="1"
         id="stop22061" />
    </linearGradient>
    <linearGradient
       gradientTransform="matrix(1.4175135,0,0,1.4175135,-0.97261301,0.3330346)"
       id="b-3"
       y1="23.774559"
       x1="22.540125"
       y2="35.804409"
       x2="35.770538"
       gradientUnits="userSpaceOnUse">
      <stop
         stop-color="#292c2f"
         id="stop12" />
      <stop
         offset="1"
         stop-color="#292c2f"
         stop-opacity="0"
         id="stop14" />
    </linearGradient>
    <linearGradient
       xlink:href="#linearGradient4564"
       id="linearGradient4570"
       x1="18.653"
       y1="20.191"
       x2="7.4320002"
       y2="8.5249996"
       gradientUnits="userSpaceOnUse"
       gradientTransform="matrix(0.99999999,0,0,1.1578948,8.0000025,3.1451316)" />
    <linearGradient
       id="linearGradient4564">
      <stop
         style="stop-color:#ffa92d;stop-opacity:1;"
         offset="0"
         id="stop4566" />
      <stop
         style="stop-color:#ffc169;stop-opacity:1"
         offset="1"
         id="stop4568" />
    </linearGradient>
    <linearGradient
       xlink:href="#linearGradient4574"
       id="linearGradient4580"
       x1="28.615"
       y1="21.502001"
       x2="39.939999"
       y2="10.118"
       gradientUnits="userSpaceOnUse"
       gradientTransform="matrix(0.99999999,0,0,1.1578948,8.0000025,3.1451316)" />
    <linearGradient
       id="linearGradient4574">
      <stop
         style="stop-color:#bf4231;stop-opacity:1;"
         offset="0"
         id="stop4576" />
      <stop
         style="stop-color:#f58273;stop-opacity:1"
         offset="1"
         id="stop4578" />
    </linearGradient>
    <linearGradient
       xlink:href="#linearGradient4590"
       id="linearGradient4596"
       x1="33.241001"
       y1="30.191"
       x2="40.393002"
       y2="37.416"
       gradientUnits="userSpaceOnUse"
       gradientTransform="matrix(0.99999999,0,0,1.1578948,8.0000025,3.1451316)" />
    <linearGradient
       id="linearGradient4590">
      <stop
         id="stop4594"
         offset="0"
         style="stop-color:#54d883;stop-opacity:1" />
      <stop
         id="stop4592"
         offset="1"
         style="stop-color:#3bb566;stop-opacity:1;" />
    </linearGradient>
    <linearGradient
       xlink:href="#linearGradient4582"
       id="linearGradient4588"
       x1="19.830999"
       y1="26.561001"
       x2="9.6899996"
       y2="37.881001"
       gradientUnits="userSpaceOnUse"
       gradientTransform="matrix(0.99999999,0,0,1.1578948,8.0000025,3.1451316)" />
    <linearGradient
       id="linearGradient4582">
      <stop
         id="stop4586"
         offset="0"
         style="stop-color:#7cbcec;stop-opacity:1" />
      <stop
         id="stop4584"
         offset="1"
         style="stop-color:#3b85b5;stop-opacity:1;" />
    </linearGradient>
    <linearGradient
       xlink:href="#linearGradient4626"
       id="linearGradient4632"
       x1="23.693001"
       y1="21.277"
       x2="34.937"
       y2="32.521999"
       gradientUnits="userSpaceOnUse"
       gradientTransform="matrix(1.1,0,0,1.1,5.6000025,4.5346056)" />
    <linearGradient
       id="linearGradient4626">
      <stop
         style="stop-color:#000000;stop-opacity:1;"
         offset="0"
         id="stop4628" />
      <stop
         style="stop-color:#000000;stop-opacity:0;"
         offset="1"
         id="stop4630" />
    </linearGradient>
    <linearGradient
       xlink:href="#linearGradient4598"
       id="linearGradient4604"
       x1="27.197001"
       y1="33.474998"
       x2="21.365999"
       y2="14.901"
       gradientUnits="userSpaceOnUse"
       gradientTransform="matrix(1.1,0,0,1.32,5.6000025,-0.74539444)" />
    <linearGradient
       id="linearGradient4598">
      <stop
         style="stop-color:#172525;stop-opacity:1;"
         offset="0"
         id="stop4600" />
      <stop
         style="stop-color:#334545;stop-opacity:1"
         offset="1"
         id="stop4602" />
    </linearGradient>
    <linearGradient
       xlink:href="#linearGradient4656"
       id="linearGradient4662"
       x1="19.025"
       y1="15.232"
       x2="29.945999"
       y2="31.764999"
       gradientUnits="userSpaceOnUse"
       gradientTransform="matrix(1.1,0,0,1.1,6.7000025,4.5346056)" />
    <linearGradient
       id="linearGradient4656">
      <stop
         style="stop-color:#ffffff;stop-opacity:1;"
         offset="0"
         id="stop4658" />
      <stop
         style="stop-color:#536161;stop-opacity:1"
         offset="1"
         id="stop4660" />
    </linearGradient>
    <linearGradient
       id="d"
       gradientTransform="matrix(2.114694,2.114694,-2.114694,2.114694,3.2088125,-828.15895)"
       gradientUnits="userSpaceOnUse"
       x1="210.5"
       x2="210.5"
       y1="188"
       y2="193.5">
      <stop
         offset="0"
         stop-color="#9b9ea2"
         id="stop17" />
      <stop
         offset="1"
         stop-color="#1a1b1e"
         id="stop19" />
    </linearGradient>
    <linearGradient
       id="a-3"
       gradientTransform="matrix(3.4959872,0,0,3.4959871,1.30074,3.299862)"
       gradientUnits="userSpaceOnUse"
       x1="8.5"
       x2="0.5"
       y1="7.6373668"
       y2="-0.371815">
      <stop
         offset="0"
         stop-color="#4f5356"
         id="stop2" />
      <stop
         offset="1"
         stop-color="#9b9ea2"
         stop-opacity="1"
         id="stop4" />
    </linearGradient>
    <radialGradient
       id="b-6"
       cx="16"
       cy="17"
       gradientUnits="userSpaceOnUse"
       r="11">
      <stop
         offset="0"
         stop-color="#3dd425"
         stop-opacity=".954751"
         id="stop7" />
      <stop
         offset="1"
         stop-color="#59f07c"
         id="stop9" />
    </radialGradient>
    <linearGradient
       id="c-7"
       gradientUnits="userSpaceOnUse"
       x1="14.541744"
       x2="26.541744"
       y1="16"
       y2="28"
       gradientTransform="matrix(1.5,0,0,1.5,8.0000025,7.0414438)">
      <stop
         offset="0"
         id="stop12-5" />
      <stop
         offset="1"
         stop-opacity="0"
         id="stop14-3" />
    </linearGradient>
    <linearGradient
       xlink:href="#linearGradient564"
       id="linearGradient4309"
       x1="7.6230001"
       y1="16.497"
       x2="46"
       y2="40"
       gradientUnits="userSpaceOnUse"
       gradientTransform="matrix(1.1277754,0,0,1.1277754,4.5436767,1.4778)" />
    <linearGradient
       id="linearGradient564">
      <stop
         style="stop-color:#5e98d7;stop-opacity:1"
         offset="0"
         id="stop223" />
      <stop
         style="stop-color:#3363ac;stop-opacity:1"
         offset="1"
         id="stop225" />
    </linearGradient>
    <linearGradient
       xlink:href="#linearGradient4626"
       id="linearGradient4419"
       x1="4"
       y1="29"
       x2="15.409"
       y2="40.409"
       gradientUnits="userSpaceOnUse"
       gradientTransform="matrix(1.1277754,0,0,1.1277754,4.5436767,3.7338968)" />
    <linearGradient
       xlink:href="#linearGradient4626"
       id="linearGradient4407"
       x1="10"
       y1="8"
       x2="33.004002"
       y2="31.004"
       gradientUnits="userSpaceOnUse"
       gradientTransform="matrix(1.1277754,0,0,1.1277754,4.5436767,3.7338968)" />
    <linearGradient
       x1="27.719999"
       y1="14.786"
       x2="27.719999"
       y2="24.357"
       id="linearGradient3432"
       xlink:href="#linearGradient4321"
       gradientUnits="userSpaceOnUse"
       gradientTransform="matrix(1.0609217,0,0,1.4140536,-9.076381,-2.5141373)"
       spreadMethod="pad" />
    <linearGradient
       id="linearGradient4321">
      <stop
         offset="0"
         style="stop-color:#ffffff;stop-opacity:1"
         id="stop213" />
      <stop
         offset="1"
         style="stop-color:#b1b1b1;stop-opacity:1"
         id="stop215" />
    </linearGradient>
    <linearGradient
       xlink:href="#linearGradient4192"
       id="linearGradient4333"
       x1="17"
       y1="18"
       x2="11.574"
       y2="9.3629999"
       gradientUnits="userSpaceOnUse"
       gradientTransform="matrix(1.1277754,0,0,1.1277754,4.5436767,1.4778)" />
    <linearGradient
       id="linearGradient4192">
      <stop
         style="stop-color:#44a3c8;stop-opacity:1"
         offset="0"
         id="stop198" />
      <stop
         style="stop-color:#8dcdda;stop-opacity:1"
         offset="1"
         id="stop200" />
    </linearGradient>
    <linearGradient
       xlink:href="#linearGradient4313"
       id="linearGradient4319"
       x1="12"
       y1="18"
       x2="14"
       y2="20"
       gradientUnits="userSpaceOnUse"
       gradientTransform="matrix(1.1277754,0,0,1.1277754,5.1075644,1.5905776)" />
    <linearGradient
       id="linearGradient4313">
      <stop
         style="stop-color:#ffffff;stop-opacity:1;"
         offset="0"
         id="stop218" />
      <stop
         style="stop-color:#ffffff;stop-opacity:0;"
         offset="1"
         id="stop220" />
    </linearGradient>
    <linearGradient
       xlink:href="#linearGradient4192"
       id="linearGradient4350"
       x1="13"
       y1="38"
       x2="4"
       y2="30"
       gradientUnits="userSpaceOnUse"
       gradientTransform="matrix(1.1277754,0,0,1.1277754,4.5436767,1.4778)" />
    <linearGradient
       gradientTransform="matrix(0.33710364,0,0,0.33162938,257.3899,363.04509)"
       xlink:href="#linearGradient3347"
       id="linearGradient3353"
       x1="376.91901"
       y1="410.05899"
       x2="528.57098"
       y2="561.711"
       gradientUnits="userSpaceOnUse" />
    <linearGradient
       id="linearGradient3347">
      <stop
         style="stop-color:#006680;stop-opacity:1;"
         offset="0"
         id="stop215-3" />
      <stop
         offset=".252"
         style="stop-color:#80b3ff;stop-opacity:1"
         id="stop217" />
      <stop
         style="stop-color:#0066ff;stop-opacity:1"
         offset=".459"
         id="stop219" />
      <stop
         offset=".899"
         style="stop-color:#002255;stop-opacity:1"
         id="stop221" />
      <stop
         style="stop-color:#006680;stop-opacity:0;"
         offset="1"
         id="stop223-6" />
    </linearGradient>
    <linearGradient
       id="b-36"
       y1="38"
       y2="13"
       x2="0"
       gradientUnits="userSpaceOnUse">
      <stop
         stop-color="#f39c12"
         id="stop219-7" />
      <stop
         offset="1"
         stop-color="#f5ab35"
         id="stop221-5" />
    </linearGradient>
    <linearGradient
       id="a-35"
       y1="42"
       x1="27"
       y2="38"
       x2="21"
       gradientUnits="userSpaceOnUse">
      <stop
         stop-color="#95a5a6"
         id="stop214" />
      <stop
         offset="1"
         stop-color="#eff0f1"
         id="stop216" />
    </linearGradient>
    <linearGradient
       xlink:href="#e"
       id="h"
       y1="40"
       x1="21"
       y2="42"
       x2="23"
       gradientUnits="userSpaceOnUse"
       gradientTransform="translate(1,2)" />
    <linearGradient
       id="e"
       y1="17.997999"
       y2="32.998001"
       x1="23"
       gradientUnits="userSpaceOnUse"
       x2="38">
      <stop
         stop-color="#292c2f"
         id="stop230" />
      <stop
         offset="1"
         stop-opacity="0"
         id="stop232" />
    </linearGradient>
    <linearGradient
       xlink:href="#e"
       id="g"
       y1="40"
       x1="20"
       y2="44"
       x2="24"
       gradientUnits="userSpaceOnUse"
       gradientTransform="translate(0,-2)" />
    <linearGradient
       xlink:href="#e"
       id="f"
       y1="40"
       x1="21"
       y2="42"
       x2="23"
       gradientUnits="userSpaceOnUse" />
    <linearGradient
       xlink:href="#a-35"
       id="c-6"
       y1="47.745998"
       x1="12.05"
       y2="42.400002"
       x2="11.415"
       gradientUnits="userSpaceOnUse" />
    <linearGradient
       id="d-2"
       y1="37"
       y2="17"
       x1="28"
       gradientUnits="userSpaceOnUse"
       x2="24"
       gradientTransform="translate(0,1)">
      <stop
         stop-color="#f7bb5d"
         id="stop225-9" />
      <stop
         offset="1"
         stop-color="#fce3bc"
         id="stop227" />
    </linearGradient>
    <linearGradient
       inkscape:collect="always"
       xlink:href="#linearGradient4212"
       id="linearGradient1742"
       gradientUnits="userSpaceOnUse"
       gradientTransform="matrix(1.05,0,0,1.05,6.7999968,5.2999996)"
       x1="40.262001"
       y1="16.121"
       x2="24.035999"
       y2="7.3169999" />
    <linearGradient
       id="linearGradient4212">
      <stop
         style="stop-color:#cd7223;stop-opacity:1"
         offset="0"
         id="stop2-3" />
      <stop
         style="stop-color:#ffc169;stop-opacity:1"
         offset="1"
         id="stop4-6" />
    </linearGradient>
    <linearGradient
       inkscape:collect="always"
       xlink:href="#linearGradient4204"
       id="linearGradient1744"
       gradientUnits="userSpaceOnUse"
       gradientTransform="matrix(1.05,0,0,1.05,6.7999968,5.2999996)"
       x1="42.560001"
       y1="31.190001"
       x2="29.652"
       y2="18.775999" />
    <linearGradient
       id="linearGradient4204">
      <stop
         style="stop-color:#ffa92d;stop-opacity:1"
         offset="0"
         id="stop7-7" />
      <stop
         style="stop-color:#edf573;stop-opacity:1"
         offset="1"
         id="stop9-5" />
    </linearGradient>
    <linearGradient
       inkscape:collect="always"
       xlink:href="#linearGradient4196"
       id="linearGradient1746"
       gradientUnits="userSpaceOnUse"
       gradientTransform="matrix(1.05,0,0,1.05,6.7999968,5.2999996)"
       x1="33.953999"
       y1="41.036999"
       x2="25.384001"
       y2="31.490999" />
    <linearGradient
       id="linearGradient4196">
      <stop
         style="stop-color:#2b4d37;stop-opacity:1"
         offset="0"
         id="stop12-3" />
      <stop
         style="stop-color:#3bb566;stop-opacity:1"
         offset="1"
         id="stop14-5" />
    </linearGradient>
    <linearGradient
       inkscape:collect="always"
       xlink:href="#linearGradient4188"
       id="linearGradient1748"
       gradientUnits="userSpaceOnUse"
       gradientTransform="matrix(1.05,0,0,1.05,6.7999968,5.2999996)"
       x1="21.153"
       y1="41.487999"
       x2="14.308"
       y2="30.856001" />
    <linearGradient
       id="linearGradient4188">
      <stop
         style="stop-color:#375a7d;stop-opacity:1"
         offset="0"
         id="stop17-6" />
      <stop
         style="stop-color:#54a3d8;stop-opacity:1"
         offset="1"
         id="stop19-2" />
    </linearGradient>
    <linearGradient
       inkscape:collect="always"
       xlink:href="#linearGradient4174"
       id="linearGradient1750"
       gradientUnits="userSpaceOnUse"
       gradientTransform="matrix(1.05,0,0,1.05,6.7018698,5.2999996)"
       x1="16.92"
       y1="29.540001"
       x2="5.9169998"
       y2="11.505" />
    <linearGradient
       id="linearGradient4174">
      <stop
         style="stop-color:#68377d;stop-opacity:1"
         offset="0"
         id="stop22" />
      <stop
         style="stop-color:#cb7cec;stop-opacity:1"
         offset="1"
         id="stop24" />
    </linearGradient>
    <linearGradient
       inkscape:collect="always"
       xlink:href="#linearGradient4574"
       id="linearGradient1756"
       gradientUnits="userSpaceOnUse"
       gradientTransform="matrix(1.05,0,0,1.05,6.7999968,5.2999996)"
       x1="21.523001"
       y1="22.219"
       x2="13.091"
       y2="6.4580002" />
    <linearGradient
       inkscape:collect="always"
       xlink:href="#linearGradient4174"
       id="linearGradient13"
       gradientUnits="userSpaceOnUse"
       gradientTransform="matrix(0.09843327,0,0,0.09842756,6.8954708,5.3568346)"
       x1="272.35001"
       y1="268.70001"
       x2="220.97"
       y2="231.53999" />
  </defs>
  <path
     d="M 3,10.25 C 3,6.245825 6.245938,3 10.25,3 h 43.500005 c 4.00417,0 7.25,3.245825 7.25,7.25 v 43.5 c 0,4.004173 -3.24583,7.25 -7.25,7.25 H 10.25 C 6.245938,61 3,57.754173 3,53.75 Z"
     id="path736"
     style="fill:#606c86;fill-opacity:1;stroke-width:3.625" />
  <path
     d="M 3,9.796875 C 3,6.043188 6.245938,3 10.25,3 h 43.500005 c 4.00417,0 7.25,3.043188 7.25,6.796875 v 40.781249 c 0,3.753693 -3.24583,6.796876 -7.25,6.796876 H 10.25 C 6.245938,57.375 3,54.331817 3,50.578124 Z"
     id="path738"
     style="fill:url(#linearGradient22065);fill-opacity:1;stroke-width:3.625" />
  <circle
     style="fill:#33393e;fill-opacity:1;stroke:none;stroke-width:2.1;stroke-linecap:round;stroke-linejoin:round;stroke-miterlimit:4;stroke-dasharray:none;stroke-opacity:0"
     cx="31.999987"
     cy="30.499992"
     r="20.474998"
     id="circle51-6" />
  <path
     style="fill:url(#linearGradient1742);fill-opacity:1;stroke-width:1.05"
     d="m 35.821524,9.898145 -5.006797,14.158391 19.71212,-3.294839 C 47.606304,15.19043 42.225367,11.097024 35.817376,9.898145"
     id="path53-1" />
  <path
     style="fill:url(#linearGradient1744);fill-opacity:1;stroke-width:1.05"
     d="M 51.823364,23.847048 36.97709,26.619197 49.708095,41.932909 c 3.397288,-5.297471 4.276141,-11.973234 2.115269,-18.085861"
     id="path55-8" />
  <path
     style="fill:url(#linearGradient1746);fill-opacity:1;stroke-width:1.05"
     d="M 47.791816,44.257042 37.952332,32.870798 30.967075,51.480391 c 6.316792,0.272756 12.576583,-2.308569 16.825775,-7.223349"
     id="path57-7" />
  <path
     style="fill:url(#linearGradient1748);fill-opacity:1;stroke-width:1.05"
     d="m 28.048605,51.112224 5.006797,-14.158396 -19.712124,3.294843 c 2.920544,5.571266 8.301478,9.664669 14.709473,10.863553"
     id="path59-9" />
  <path
     style="fill:url(#linearGradient1750);fill-opacity:1;stroke-width:1.05"
     d="M 12.176633,37.142581 27.02291,34.370428 14.291904,19.056711 c -3.397283,5.297472 -4.276141,11.973246 -2.115271,18.08587"
     id="path61-2" />
  <path
     style="fill:url(#linearGradient1756);fill-opacity:1;stroke-width:1.05"
     d="M 16.16122,16.742955 26.000698,28.129199 32.985962,9.5196069 C 26.66917,9.2468516 20.409378,11.828176 16.160184,16.742955"
     id="path67-3" />
  <path
     style="opacity:0.15;fill:#000000;fill-opacity:1;stroke-width:1.05"
     d="m 11.018457,29.964746 c -0.03717,2.402731 0.329127,4.831074 1.158692,7.17773 l 0.264551,-0.0492 a 21.000001,21.000001 0 0 1 -1.423243,-7.12853 z m 41.96719,0.246094 c -0.100438,3.775284 -1.226356,7.47441 -3.277152,10.672265 l -0.06765,-0.08207 a 21.000001,21.000001 0 0 1 -0.377343,0.596779 l 0.445015,0.535259 c 2.240398,-3.49351 3.377047,-7.586735 3.277152,-11.722267 z m -39.102248,9.948338 -0.539355,0.09025 c 2.919942,5.570114 8.297852,9.663159 14.704104,10.862984 l 0.352733,-0.994631 a 21.000001,21.000001 0 0 1 -1.00078,-0.194829 c -0.506854,-0.111646 -1.00888,-0.236131 -1.501174,-0.383496 a 21.000001,21.000001 0 0 1 -0.06765,-0.01843 21.000001,21.000001 0 0 1 -0.164064,-0.05534 C 25.038502,49.269419 24.42307,49.044874 23.821484,48.792963 19.64945,47.045911 16.163956,43.999787 13.883399,40.159173 Z m 33.46465,3.584762 a 21.000001,21.000001 0 0 1 -12.604107,6.500981 c -0.07299,0.0095 -0.146289,0.01739 -0.219429,0.02664 a 21.000001,21.000001 0 0 1 -2.020023,0.159963 c -0.0098,3.06e-4 -0.0205,0.0017 -0.03075,0.002 a 21.000001,21.000001 0 0 1 -0.01843,0 21.000001,21.000001 0 0 1 -0.455283,0.0164 21.000001,21.000001 0 0 1 -0.299416,-0.01434 c -0.114232,-9.42e-4 -0.228165,0.0027 -0.342476,0 l -0.391703,1.043845 c 6.316791,0.27276 12.577465,-2.308067 16.826664,-7.222848 h -0.002 z"
     id="path69-7" />
  <path
     style="opacity:0.1;stroke-width:0.737143"
     d="m 32.132428,18.599587 c -1.945086,0 -3.5546,1.61106 -3.5546,3.556466 0,0.276657 0.102728,0.522897 0.163806,0.783218 -0.632764,-1.001278 -1.698548,-1.709516 -2.955892,-1.709516 -1.944701,0 -3.556464,1.609124 -3.556464,3.554596 0,1.257589 0.709622,2.323135 1.711403,2.955869 -0.261007,-0.06135 -0.50795,-0.163789 -0.785094,-0.163789 -1.944741,0 -3.554595,1.609986 -3.554595,3.554582 0,1.944748 1.610267,3.554594 3.554595,3.554594 0.276923,0 0.524131,-0.102652 0.785094,-0.163804 -1.001788,0.632944 -1.711403,1.699985 -1.711403,2.957766 0,1.944449 1.608918,3.554588 3.554589,3.554588 1.259036,0 2.325409,-0.710466 2.957767,-1.713279 -0.06155,0.26155 -0.163806,0.509042 -0.163806,0.786971 0,1.945322 1.610064,3.554594 3.5546,3.554594 1.944234,0 3.554577,-1.609405 3.554577,-3.554594 0,-0.277303 -0.102571,-0.524175 -0.163796,-0.785095 0.632481,1.001804 1.69762,1.711403 2.955876,1.711403 1.945608,0 3.554599,-1.610009 3.554599,-3.554588 0,-1.258103 -0.709355,-2.324908 -1.711397,-2.957766 0.26186,0.06163 0.510933,0.163804 0.788862,0.163804 1.944092,0 3.552707,-1.609568 3.552707,-3.554594 0,-1.944873 -1.6082,-3.554582 -3.552707,-3.554582 -0.277814,0 -0.52568,0.102353 -0.786983,0.163789 1.001687,-0.632706 1.711397,-1.698196 1.711397,-2.955869 0,-1.944781 -1.609993,-3.554596 -3.554583,-3.554596 -1.258782,0 -2.325348,0.710056 -2.957771,1.713282 0.06161,-0.261399 0.163796,-0.508975 0.163796,-0.786984 0,-1.9461 -1.610343,-3.556466 -3.554577,-3.556466 z"
     id="path9-3" />
  <path
     style="fill:#3f3f3f;stroke-width:0.737143"
     d="m 32.132428,17.862443 c -1.945086,0 -3.5546,1.611067 -3.5546,3.556468 0,0.276661 0.102728,0.522899 0.163806,0.783221 -0.632764,-1.001282 -1.698548,-1.709514 -2.955892,-1.709514 -1.944701,0 -3.556464,1.609124 -3.556464,3.554577 0,1.257595 0.709622,2.323147 1.711403,2.955888 -0.261007,-0.06131 -0.50795,-0.163802 -0.785094,-0.163802 -1.944741,0 -3.554595,1.609994 -3.554595,3.554595 0,1.944741 1.610267,3.554581 3.554595,3.554581 0.276923,0 0.524131,-0.102639 0.785094,-0.163791 -1.001788,0.632937 -1.711403,1.699979 -1.711403,2.957763 0,1.944445 1.608918,3.554585 3.554589,3.554585 1.259036,0 2.325409,-0.710474 2.957767,-1.713275 -0.06155,0.261546 -0.163806,0.509038 -0.163806,0.786973 0,1.945323 1.610064,3.554587 3.5546,3.554587 1.944234,0 3.554577,-1.609405 3.554577,-3.554587 0,-0.277316 -0.102571,-0.524182 -0.163796,-0.785097 0.632481,1.001795 1.69762,1.711399 2.955876,1.711399 1.945608,0 3.554599,-1.610003 3.554599,-3.554585 0,-1.258107 -0.709355,-2.324924 -1.711397,-2.957763 0.26186,0.06161 0.510933,0.163791 0.788862,0.163791 1.944092,0 3.552707,-1.609562 3.552707,-3.554581 0,-1.944879 -1.6082,-3.554595 -3.552707,-3.554595 -0.277814,0 -0.52568,0.102359 -0.786983,0.163802 1.001687,-0.632706 1.711397,-1.698203 1.711397,-2.955888 0,-1.944763 -1.609993,-3.554577 -3.554583,-3.554577 -1.258782,0 -2.325348,0.710053 -2.957771,1.713281 0.06161,-0.26141 0.163796,-0.508983 0.163796,-0.786988 0,-1.946102 -1.610343,-3.556468 -3.554577,-3.556468 z"
     id="path10-6" />
  <path
     style="opacity:0.2;stroke-width:0.737143"
     d="m 35.296393,32.441747 h 3.904923 c 0.343349,0.357425 0.825975,0.579311 1.361951,0.579311 1.042984,0 1.889161,-0.845626 1.889161,-1.890023 0,-1.04384 -0.846177,-1.889889 -1.889161,-1.889889 -0.534862,0 -1.018602,0.223008 -1.361951,0.580005 h -3.904923 l 2.760676,-2.761839 c 0.01258,0 0.02426,0.0014 0.03692,0.0014 1.043817,0 1.88985,-0.846183 1.88985,-1.890022 0,-1.043981 -0.846033,-1.889884 -1.88985,-1.889884 -1.043967,0 -1.889991,0.845904 -1.889991,1.889884 0,0.01164 6.95e-4,0.02424 6.95e-4,0.03606 l -2.760817,2.761282 V 24.06387 c 0.356577,-0.344183 0.5793,-0.826545 0.5793,-1.361278 0,-1.045369 -0.847004,-1.891137 -1.889987,-1.891137 -1.044103,0 -1.890556,0.846323 -1.890556,1.891137 0,0.534733 0.222592,1.017095 0.57944,1.361278 v 3.904156 l -2.761094,-2.761304 c 0,-0.01176 5.59e-4,-0.02437 5.59e-4,-0.03606 0,-1.04398 -0.84561,-1.889886 -1.88985,-1.889886 -1.044231,0 -1.890964,0.845909 -1.890964,1.889886 0,1.043837 0.845895,1.890019 1.890132,1.890019 0.01193,0 0.02426,-0.0014 0.03592,-0.0014 l 2.761787,2.761846 H 25.0635 c -0.343752,-0.357683 -0.826519,-0.579981 -1.361388,-0.579981 -1.043825,0 -1.889716,0.84604 -1.889716,1.88988 0,1.044393 0.845891,1.890023 1.889716,1.890023 0.534869,0 1.018326,-0.22189 1.361388,-0.579311 h 3.905063 l -2.761787,2.761149 c -0.01165,0 -0.02398,-0.0014 -0.03592,-0.0014 -1.044237,0 -1.890132,0.845907 -1.890132,1.890859 0,1.04328 0.845895,1.890166 1.890132,1.890166 1.044094,0 1.890129,-0.846886 1.890129,-1.890166 0,-0.01264 -7.37e-4,-0.02441 -7.37e-4,-0.03679 l 2.760947,-2.761565 v 3.905411 c -0.356571,0.34335 -0.57901,0.825716 -0.57901,1.361563 0,1.043969 0.846588,1.889741 1.890682,1.889741 1.042985,0 1.889431,-0.845772 1.889431,-1.889741 0,-0.53502 -0.222582,-1.018213 -0.579011,-1.361563 v -3.905389 l 2.760952,2.761563 c 0,0.01238 -7.37e-4,0.02345 -7.37e-4,0.03677 0,1.043281 0.845756,1.890166 1.88985,1.890166 1.043957,0 1.889995,-0.846885 1.889995,-1.890166 0,-1.044951 -0.846038,-1.890859 -1.889995,-1.890859 -0.01262,0 -0.02398,0.0014 -0.03664,0.0014 z"
     id="path11-7" />
  <path
     style="fill:#ffffff;stroke-width:0.737143"
     d="m 35.296393,31.704651 h 3.904923 c 0.343349,0.35742 0.825975,0.579311 1.361951,0.579311 1.042984,0 1.889161,-0.845629 1.889161,-1.890023 0,-1.04384 -0.846177,-1.889893 -1.889161,-1.889893 -0.534862,0 -1.018602,0.223006 -1.361951,0.580009 h -3.904923 l 2.760676,-2.761839 c 0.01258,0 0.02426,0.0014 0.03692,0.0014 1.043817,0 1.88985,-0.846183 1.88985,-1.890023 0,-1.043981 -0.846033,-1.889882 -1.88985,-1.889882 -1.043967,0 -1.889991,0.845902 -1.889991,1.889882 0,0.01164 6.95e-4,0.02424 6.95e-4,0.03606 l -2.760817,2.76128 v -3.904164 c 0.356577,-0.344182 0.5793,-0.826545 0.5793,-1.36128 0,-1.045367 -0.847004,-1.891137 -1.889987,-1.891137 -1.044103,0 -1.890556,0.846324 -1.890556,1.891137 0,0.534735 0.222592,1.017098 0.57944,1.36128 v 3.904156 l -2.761094,-2.761304 c 0,-0.01176 5.59e-4,-0.0244 5.59e-4,-0.03606 0,-1.043983 -0.84561,-1.889888 -1.88985,-1.889888 -1.044231,0 -1.890964,0.845907 -1.890964,1.889888 0,1.043835 0.845895,1.890018 1.890132,1.890018 0.01193,0 0.02426,-0.0014 0.03592,-0.0014 l 2.761787,2.761841 H 25.0635 c -0.343752,-0.357678 -0.826519,-0.579981 -1.361388,-0.579981 -1.043825,0 -1.889716,0.846043 -1.889716,1.889883 0,1.044396 0.845891,1.890024 1.889716,1.890024 0.534869,0 1.018326,-0.22189 1.361388,-0.579313 h 3.905063 l -2.761787,2.761151 c -0.01165,0 -0.02398,-0.0014 -0.03592,-0.0014 -1.044237,0 -1.890132,0.845908 -1.890132,1.89086 0,1.04328 0.845895,1.890165 1.890132,1.890165 1.044094,0 1.890129,-0.846885 1.890129,-1.890165 0,-0.01265 -7.37e-4,-0.02441 -7.37e-4,-0.03678 l 2.760947,-2.761565 v 3.905409 c -0.356571,0.343351 -0.57901,0.825716 -0.57901,1.361565 0,1.043971 0.846588,1.889741 1.890682,1.889741 1.042985,0 1.889431,-0.84577 1.889431,-1.889741 0,-0.535021 -0.222582,-1.018214 -0.579011,-1.361565 v -3.905409 l 2.760952,2.761565 c 0,0.01238 -7.37e-4,0.02344 -7.37e-4,0.03678 0,1.04328 0.845756,1.890165 1.88985,1.890165 1.043957,0 1.889995,-0.846885 1.889995,-1.890165 0,-1.04495 -0.846038,-1.89086 -1.889995,-1.89086 -0.01262,0 -0.02398,0.0014 -0.03664,0.0014 z"
     id="path12-5" />
  <circle
     style="fill:url(#linearGradient13);stroke-width:1.05"
     cy="30.549994"
     cx="32.099979"
     r="3.1499999"
     id="circle63-0-6" />
</svg>
