<?xml version="1.0" encoding="UTF-8" standalone="no"?>
<!-- Created with Inkscape (http://www.inkscape.org/) -->

<svg
   width="64.0px"
   height="64.0px"
   viewBox="0 0 64.0 64.0"
   version="1.1"
   id="SVGRoot"
   sodipodi:docname="com.github.paolostivanin.OTPClient.svg"
   inkscape:version="1.3.2 (091e20ef0f, 2023-11-25)"
   xmlns:inkscape="http://www.inkscape.org/namespaces/inkscape"
   xmlns:sodipodi="http://sodipodi.sourceforge.net/DTD/sodipodi-0.dtd"
   xmlns:xlink="http://www.w3.org/1999/xlink"
   xmlns="http://www.w3.org/2000/svg"
   xmlns:svg="http://www.w3.org/2000/svg">
  <sodipodi:namedview
     id="namedview475"
     pagecolor="#ffffff"
     bordercolor="#666666"
     borderopacity="1.0"
     inkscape:showpageshadow="2"
     inkscape:pageopacity="0.0"
     inkscape:pagecheckerboard="0"
     inkscape:deskcolor="#d1d1d1"
     inkscape:document-units="px"
     showgrid="true"
     inkscape:zoom="9.5144351"
     inkscape:cx="42.672003"
     inkscape:cy="32.109105"
     inkscape:window-width="1920"
     inkscape:window-height="994"
     inkscape:window-x="0"
     inkscape:window-y="0"
     inkscape:window-maximized="1"
     inkscape:current-layer="layer1">
    <inkscape:grid
       type="xygrid"
       id="grid598"
       originx="0"
       originy="0"
       spacingy="1"
       spacingx="1"
       units="px"
       visible="true" />
  </sodipodi:namedview>
  <defs
     id="defs470">
    <linearGradient
       inkscape:collect="always"
       id="linearGradient5461">
      <stop
         style="stop-color:#c7c7c7;stop-opacity:1;"
         offset="0"
         id="stop5457" />
      <stop
         style="stop-color:#c6cfd2;stop-opacity:1;"
         offset="1"
         id="stop5459" />
    </linearGradient>
    <linearGradient
       inkscape:collect="always"
       xlink:href="#linearGradient22063"
       id="linearGradient22065"
       x1="-14"
       y1="6"
       x2="-14"
       y2="-9.999999"
       gradientUnits="userSpaceOnUse"
       gradientTransform="matrix(3.6250002,0,0,3.6250002,82.750005,39.249999)" />
    <linearGradient
       inkscape:collect="always"
       id="linearGradient22063">
      <stop
         style="stop-color:#292f3a;stop-opacity:1;"
         offset="0"
         id="stop22059" />
      <stop
         style="stop-color:#535e75;stop-opacity:1;"
         offset="1"
         id="stop22061" />
    </linearGradient>
    <linearGradient
       inkscape:collect="always"
       xlink:href="#linearGradient5461"
       id="linearGradient5463"
       x1="3.710207"
       y1="60.03688"
       x2="61.079586"
       y2="3.2810159"
       gradientUnits="userSpaceOnUse"
       gradientTransform="translate(-0.49999785)" />
    <filter
       id="filter1823"
       x="-0.094081325"
       y="-0.093198477"
       width="1.1881626"
       height="1.186397"
       color-interpolation-filters="sRGB">
      <feGaussianBlur
         stdDeviation="0.17090543"
         id="feGaussianBlur2" />
    </filter>
    <filter
       id="filter1"
       x="-0.094081327"
       y="-0.093198478"
       width="1.1881626"
       height="1.186397"
       color-interpolation-filters="sRGB">
      <feGaussianBlur
         stdDeviation="0.17090543"
         id="feGaussianBlur1" />
    </filter>
    <filter
       id="filter3"
       x="-0.094081327"
       y="-0.093198478"
       width="1.1881626"
       height="1.186397"
       color-interpolation-filters="sRGB">
      <feGaussianBlur
         stdDeviation="0.17090543"
         id="feGaussianBlur3" />
    </filter>
    <filter
       id="filter4"
       x="-0.094081327"
       y="-0.093198478"
       width="1.1881626"
       height="1.186397"
       color-interpolation-filters="sRGB">
      <feGaussianBlur
         stdDeviation="0.17090543"
         id="feGaussianBlur4" />
    </filter>
    <filter
       id="filter5"
       x="-0.094081327"
       y="-0.093198478"
       width="1.1881626"
       height="1.186397"
       color-interpolation-filters="sRGB">
      <feGaussianBlur
         stdDeviation="0.17090543"
         id="feGaussianBlur5" />
    </filter>
    <filter
       id="filter3393"
       x="-0.58427982"
       y="-0.33101304"
       width="2.1685596"
       height="1.6620261"
       color-interpolation-filters="sRGB">
      <feGaussianBlur
         stdDeviation="0.19991353"
         id="feGaussianBlur6" />
    </filter>
    <filter
       id="filter7"
       x="-0.58427984"
       y="-0.33101305"
       width="2.1685596"
       height="1.662026"
       color-interpolation-filters="sRGB">
      <feGaussianBlur
         stdDeviation="0.19991353"
         id="feGaussianBlur7" />
    </filter>
    <filter
       id="filter8"
       x="-0.58427984"
       y="-0.33101305"
       width="2.1685596"
       height="1.662026"
       color-interpolation-filters="sRGB">
      <feGaussianBlur
         stdDeviation="0.19991353"
         id="feGaussianBlur8" />
    </filter>
    <filter
       id="filter9"
       x="-0.58427984"
       y="-0.33101305"
       width="2.1685596"
       height="1.662026"
       color-interpolation-filters="sRGB">
      <feGaussianBlur
         stdDeviation="0.19991353"
         id="feGaussianBlur9" />
    </filter>
    <filter
       id="filter10"
       x="-0.58427984"
       y="-0.33101305"
       width="2.1685596"
       height="1.662026"
       color-interpolation-filters="sRGB">
      <feGaussianBlur
         stdDeviation="0.19991353"
         id="feGaussianBlur10" />
    </filter>
    <filter
       id="filter11"
       x="-0.58427984"
       y="-0.33101305"
       width="2.1685596"
       height="1.662026"
       color-interpolation-filters="sRGB">
      <feGaussianBlur
         stdDeviation="0.19991353"
         id="feGaussianBlur11" />
    </filter>
    <filter
       id="filter12"
       x="-0.58427984"
       y="-0.33101305"
       width="2.1685596"
       height="1.662026"
       color-interpolation-filters="sRGB">
      <feGaussianBlur
         stdDeviation="0.19991353"
         id="feGaussianBlur12" />
    </filter>
  </defs>
  <g
     inkscape:label="Layer 1"
     inkscape:groupmode="layer"
     id="layer1">
    <path
       d="M 3,10.249999 C 3,6.245825 6.245938,3 10.25,3 h 43.500005 c 4.00417,0 7.25,3.245825 7.25,7.249999 v 43.5 c 0,4.004173 -3.24583,7.25 -7.25,7.25 H 10.25 c -4.004062,0 -7.25,-3.245827 -7.25,-7.25 z"
       id="path736"
       style="fill:#555f77;fill-opacity:1;stroke-width:3.625" />
    <path
       d="M 3,9.796875 C 3,6.043188 6.245938,3 10.25,3 h 43.500005 c 4.00417,0 7.25,3.043188 7.25,6.796875 v 40.781249 c 0,3.753692 -3.24583,6.796875 -7.25,6.796875 H 10.25 C 6.245938,57.374999 3,54.331816 3,50.578124 Z"
       id="path738"
       style="fill:url(#linearGradient22065);fill-opacity:1;stroke-width:3.625" />
    <rect
       ry="6.4440002"
       y="3"
       x="3"
       height="54.375"
       width="58"
       id="rect1045-5"
       rx="6.5229988"
       style="fill:url(#linearGradient5463);fill-opacity:1" />
    <circle
       cx="32"
       cy="31"
       r="21"
       fill="#fa6e6e"
       id="circle1"
       style="stroke-width:0.777779" />
    <circle
       cx="32"
       cy="31"
       r="17.111111"
       fill="#ffffff"
       id="circle2"
       style="stroke-width:0.777779" />
    <path
       d="m 32.004688,17.304107 c -0.27385,0 -2.52391,-0.103445 -4.72031,0.966776 -1.68077,0.818223 -0.43875,3.306334 1.22332,2.449995 1.45687,-0.751327 2.85761,-0.67744 3.49699,-0.67744 6.11716,0 10.95654,4.839332 10.95654,10.956553 0,6.117221 -4.83938,10.956557 -10.95654,10.956557 -6.11727,0 -10.95583,-4.838559 -10.95655,-10.956557 0,-0.63777 -0.0737,-2.039329 0.67742,-3.496881 0.8563,-1.662118 -1.63178,-2.904228 -2.44999,-1.223448 -1.06944,2.196443 -0.966,4.445776 -0.966,4.721108 0.002,7.577108 6.11721,13.695108 13.69589,13.695108 7.57784,0 13.69591,-6.11722 13.69591,-13.695887 0,-7.577883 -6.11807,-13.695884 -13.69668,-13.695884 z"
       fill="#fa6e6e"
       id="path2"
       style="stroke-width:0.777779" />
    <rect
       x="30.173729"
       y="23.695885"
       width="3.6524448"
       height="14.609009"
       ry="1.8262224"
       style="stroke-width:0.777779;paint-order:stroke fill markers;fill:#c83771"
       id="rect2" />
    <rect
       transform="rotate(-120)"
       x="-44.673157"
       y="4.9080772"
       width="3.6524448"
       height="14.609009"
       ry="1.8262224"
       style="stroke-width:0.777779;paint-order:stroke fill markers;fill:#c83771"
       id="rect3" />
    <rect
       transform="rotate(120)"
       x="9.0207062"
       y="-50.517906"
       width="3.6524448"
       height="14.609009"
       ry="1.8262224"
       style="stroke-width:0.777779;paint-order:stroke fill markers;fill:#c83771"
       id="rect4" />
  </g>
</svg>
