<?xml version="1.0" encoding="UTF-8" standalone="no"?>
<svg
   width="64"
   height="64"
   version="1.1"
   id="svg32"
   sodipodi:docname="bottles_wine.svg"
   inkscape:version="1.3.2 (091e20ef0f, 2023-11-25)"
   xmlns:inkscape="http://www.inkscape.org/namespaces/inkscape"
   xmlns:sodipodi="http://sodipodi.sourceforge.net/DTD/sodipodi-0.dtd"
   xmlns:xlink="http://www.w3.org/1999/xlink"
   xmlns="http://www.w3.org/2000/svg"
   xmlns:svg="http://www.w3.org/2000/svg">
  <sodipodi:namedview
     id="namedview34"
     pagecolor="#ffffff"
     bordercolor="#666666"
     borderopacity="1.0"
     inkscape:showpageshadow="2"
     inkscape:pageopacity="0.0"
     inkscape:pagecheckerboard="0"
     inkscape:deskcolor="#d1d1d1"
     showgrid="true"
     inkscape:zoom="9.8333334"
     inkscape:cx="36"
     inkscape:cy="39.508474"
     inkscape:window-width="1920"
     inkscape:window-height="994"
     inkscape:window-x="0"
     inkscape:window-y="0"
     inkscape:window-maximized="1"
     inkscape:current-layer="svg32">
    <inkscape:grid
       id="grid1"
       units="px"
       originx="0"
       originy="0"
       spacingx="1"
       spacingy="1"
       empcolor="#0099e5"
       empopacity="0.30196078"
       color="#0099e5"
       opacity="0.14901961"
       empspacing="5"
       dotted="false"
       gridanglex="30"
       gridanglez="30"
       visible="true" />
  </sodipodi:namedview>
  <defs
     id="defs20">
    <linearGradient
       id="c"
       y1="523.79999"
       x1="403.57001"
       y2="536.79999"
       x2="416.57001"
       gradientUnits="userSpaceOnUse"
       gradientTransform="translate(-278.40057,-549.68001)">
      <stop
         stop-color="#292c2f"
         id="stop2" />
      <stop
         offset="1"
         stop-opacity="0"
         id="stop4" />
    </linearGradient>
    <linearGradient
       xlink:href="#b-2"
       id="linearGradient4189"
       x1="14.369"
       y1="22.521999"
       x2="26.521999"
       y2="22.521999"
       gradientUnits="userSpaceOnUse" />
    <linearGradient
       x1="428.81601"
       gradientTransform="translate(-384.57,-499.8)"
       gradientUnits="userSpaceOnUse"
       x2="388.86499"
       y2="499.67899"
       y1="547.63397"
       id="a-8">
      <stop
         stop-color="#2a2c2f"
         id="stop8" />
      <stop
         stop-color="#536161"
         offset="1"
         id="stop10" />
    </linearGradient>
    <linearGradient
       x1="36"
       gradientUnits="userSpaceOnUse"
       x2="14"
       y2="12"
       y1="44"
       id="b-2">
      <stop
         style="stop-color:#bfc9c9;stop-opacity:1"
         stop-color="#536161"
         id="stop13" />
      <stop
         style="stop-color:#fbfbfb;stop-opacity:1"
         stop-color="#f4f5f5"
         offset="1"
         id="stop15" />
    </linearGradient>
    <linearGradient
       xlink:href="#a-8"
       id="linearGradient4424"
       x1="25"
       y1="44"
       x2="25"
       y2="4"
       gradientUnits="userSpaceOnUse"
       gradientTransform="translate(106.16943,-49.880009)" />
    <linearGradient
       xlink:href="#b-2"
       id="linearGradient4428"
       gradientUnits="userSpaceOnUse"
       x1="31.586"
       y1="36.345001"
       x2="1.2029999"
       y2="6.723" />
    <linearGradient
       inkscape:collect="always"
       xlink:href="#linearGradient22063-0"
       id="linearGradient22065-6"
       x1="-22"
       y1="5.1111121"
       x2="-6.4444442"
       y2="-9.1111107"
       gradientUnits="userSpaceOnUse"
       gradientTransform="matrix(3.6250002,0,0,3.6250002,82.750001,39.249999)" />
    <linearGradient
       inkscape:collect="always"
       id="linearGradient22063-0">
      <stop
         style="stop-color:#363d4b;stop-opacity:1;"
         offset="0"
         id="stop22059-6" />
      <stop
         style="stop-color:#606f85;stop-opacity:1;"
         offset="1"
         id="stop22061-2" />
    </linearGradient>
    <linearGradient
       xlink:href="#b-2"
       id="linearGradient4189-7"
       x1="14.369"
       y1="22.521999"
       x2="26.521999"
       y2="22.521999"
       gradientUnits="userSpaceOnUse" />
    <linearGradient
       xlink:href="#b-2"
       id="linearGradient4428-5"
       gradientUnits="userSpaceOnUse"
       x1="31.586"
       y1="36.345001"
       x2="1.2029999"
       y2="6.723" />
    <linearGradient
       xlink:href="#b-2"
       id="linearGradient4189-7-7"
       x1="14.369"
       y1="22.521999"
       x2="26.521999"
       y2="22.521999"
       gradientUnits="userSpaceOnUse" />
    <linearGradient
       xlink:href="#b-2"
       id="linearGradient4428-5-3"
       gradientUnits="userSpaceOnUse"
       x1="31.586"
       y1="36.345001"
       x2="1.2029999"
       y2="6.723" />
    <linearGradient
       inkscape:collect="always"
       xlink:href="#linearGradient26"
       id="linearGradient1"
       gradientUnits="userSpaceOnUse"
       gradientTransform="matrix(2.6249493,0,0,2.7692444,11.00022,7.8461397)"
       x1="1.1238592"
       y1="14.717066"
       x2="14.125163"
       y2="1.3246276" />
    <linearGradient
       id="linearGradient26"
       inkscape:collect="always">
      <stop
         style="stop-color:#00ccff;stop-opacity:1"
         offset="0"
         id="stop25" />
      <stop
         style="stop-color:#ffd42a;stop-opacity:1"
         offset="1"
         id="stop26" />
    </linearGradient>
  </defs>
  <path
     d="m 2.9999985,10.25 c 0,-4.004175 3.245938,-7.25 7.2499995,-7.25 h 43.500003 c 4.004173,0 7.25,3.245825 7.25,7.25 v 43.5 c 0,4.004173 -3.245827,7.25 -7.25,7.25 H 10.249998 C 6.2459365,61 2.9999985,57.754173 2.9999985,53.75 Z"
     id="path736-7"
     style="fill:#606c86;fill-opacity:1;stroke-width:3.625" />
  <path
     d="M 2.9999985,9.7968752 C 2.9999985,6.043188 6.2459365,3 10.249998,3 h 43.500003 c 4.004173,0 7.25,3.043188 7.25,6.7968752 V 50.578124 c 0,3.753693 -3.245827,6.796876 -7.25,6.796876 H 10.249998 c -4.0040615,0 -7.2499995,-3.043183 -7.2499995,-6.796876 z"
     id="path738-9"
     style="fill:url(#linearGradient22065-6);fill-opacity:1;stroke-width:3.625" />
  <path
     fill-rule="evenodd"
     d="m 29.87593,40.064314 c -0.0741,-1.019256 -0.1113,-2.040769 -0.10935,-3.062256 0,-1.206 0.10935,-2.277042 0.22492,-3.402042 h -3.59221 c 0.22056,0.843818 0.34744,1.901279 0.34744,3.233297 0,1.329745 -0.1269,2.387233 -0.34744,3.231001 z M 19.77239,36.833313 c 0,-1.33202 0.1269,-2.389479 0.34746,-3.233297 h -3.59223 c 0.1158,1.125 0.2249,2.196042 0.2249,3.402042 0,1.206 -0.0443,2.184779 -0.1092,3.062256 h 3.47635 c -0.22059,-0.843768 -0.34743,-1.901256 -0.34752,-3.231001 z m 10.22372,4.666522 h -4.17338 c -0.63804,1.05072 -1.54921,1.435505 -2.56303,1.435505 -1.01385,0 -1.92501,-0.384791 -2.56301,-1.435505 h -4.17345 l -0.0387,0.400343 c -0.1203,1.255533 -0.23385,2.441296 -0.23385,4.018555 0,1.167745 0.87402,2.081264 1.9884,2.081264 h 10.0424 c 1.11433,0 1.98835,-0.913519 1.98835,-2.081264 0,-1.577259 -0.11385,-2.763022 -0.23386,-4.018555 z M 26.04997,15.710249 H 20.4694 c -0.41516,0 -0.75387,-0.348843 -0.75387,-0.778467 V 14.214003 C 19.71553,12.992247 20.67917,12 21.86569,12 h 2.78805 c 1.18647,0 2.15007,0.992247 2.15007,2.214003 v 0.717779 c 0,0.429627 -0.33647,0.778467 -0.75384,0.778467 z m 0.67299,7.301251 -0.56592,-5.877 c -0.0369,0.0011 -0.0722,0.0123 -0.1068,0.0123 h -5.5806 c -0.0356,0 -0.0699,-0.0085 -0.10485,-0.0123 l -0.56822,5.877 C 18.97036,23.783256 16.25,26.544012 16.25,29.401501 c 0,1.012514 0.0611,1.91033 0.138,2.763021 h 4.30886 c 0.63802,-1.05301 1.54917,-1.435509 2.56302,-1.435509 1.01386,0 1.92502,0.382313 2.56303,1.435509 H 30.134 c 0.077,-0.852691 0.13575,-1.750507 0.13575,-2.763021 0,-2.855215 -2.72037,-5.616001 -3.5463,-6.390001 z m 20.63323,17.052814 c -0.0743,-1.019256 -0.1113,-2.040769 -0.10935,-3.062256 0,-1.206 0.10935,-2.277042 0.2249,-3.402042 H 43.8796 c 0.22057,0.843816 0.34764,1.901279 0.34764,3.233297 0,1.329745 -0.1269,2.387233 -0.34764,3.231001 h 3.47643 z M 37.25258,36.833313 c 0,-1.332018 0.12675,-2.389481 0.34766,-3.233297 h -3.59219 c 0.11565,1.125 0.22496,2.196042 0.22496,3.402042 0,1.206 -0.0442,2.184779 -0.10935,3.062256 h 3.4764 c -0.22062,-0.843768 -0.34751,-1.901256 -0.34751,-3.231001 z m 10.22376,4.666522 h -4.17339 c -0.63798,1.05072 -1.5492,1.435505 -2.56308,1.435505 -1.01382,0 -1.92496,-0.384791 -2.56305,-1.435505 h -4.17337 l -0.0387,0.400343 c -0.1203,1.255533 -0.23391,2.441296 -0.23391,4.018555 0,1.167755 0.87403,2.081267 1.98838,2.081267 h 10.0424 c 1.11436,0 1.98834,-0.913512 1.98834,-2.081267 0,-1.577257 -0.11385,-2.763021 -0.23393,-4.018555 l -0.0404,-0.400343 z M 43.53019,15.710249 h -5.58051 c -0.41523,0 -0.75389,-0.348843 -0.75389,-0.778467 V 14.214003 C 37.19579,12.992247 38.15936,12 39.34588,12 h 2.78808 c 1.18644,0 2.15007,0.992247 2.15007,2.214003 v 0.717779 c 0,0.429627 -0.33642,0.778467 -0.75384,0.778467 z m 0.67294,7.301251 -0.56587,-5.877 c -0.0377,0.0011 -0.0723,0.0123 -0.1071,0.0123 h -5.58042 c -0.0356,0 -0.0699,-0.0085 -0.10485,-0.0123 l -0.56814,5.877 c -0.82592,0.771756 -3.54632,3.532512 -3.54632,6.390001 0,1.012514 0.061,1.91033 0.1377,2.763021 h 4.30889 c 0.63801,-1.05301 1.54921,-1.435509 2.56306,-1.435509 1.01382,0 1.92498,0.382313 2.56302,1.435509 h 4.31106 c 0.0765,-0.852691 0.1359,-1.750507 0.1359,-2.763021 0,-2.855215 -2.72038,-5.616001 -3.54634,-6.390001 z"
     id="path22-3-7"
     style="isolation:isolate;fill:url(#linearGradient1);stroke-width:2.69613" />
</svg>
