<?xml version="1.0" encoding="UTF-8" standalone="no"?>
<svg
   height="64"
   width="64"
   version="1.1"
   id="svg10"
   sodipodi:docname="compton.svg"
   inkscape:version="1.4.2 (unknown)"
   xmlns:inkscape="http://www.inkscape.org/namespaces/inkscape"
   xmlns:sodipodi="http://sodipodi.sourceforge.net/DTD/sodipodi-0.dtd"
   xmlns:xlink="http://www.w3.org/1999/xlink"
   xmlns="http://www.w3.org/2000/svg"
   xmlns:svg="http://www.w3.org/2000/svg"
   xmlns:rdf="http://www.w3.org/1999/02/22-rdf-syntax-ns#"
   xmlns:cc="http://creativecommons.org/ns#"
   xmlns:dc="http://purl.org/dc/elements/1.1/">
  <metadata
     id="metadata16">
    <rdf:RDF>
      <cc:Work
         rdf:about="">
        <dc:format>image/svg+xml</dc:format>
        <dc:type
           rdf:resource="http://purl.org/dc/dcmitype/StillImage" />
      </cc:Work>
    </rdf:RDF>
  </metadata>
  <defs
     id="defs14">
    <linearGradient
       id="c"
       x1="31.458"
       x2="31.458"
       y1="51.726002"
       y2="62.897999"
       gradientTransform="matrix(0.36079,0,0,0.36079,-2.8832,-9.4399)"
       gradientUnits="userSpaceOnUse">
      <stop
         stop-color="#1776ff"
         offset="0"
         id="stop292" />
      <stop
         stop-color="#2fceff"
         offset="1"
         id="stop294" />
    </linearGradient>
    <linearGradient
       id="d"
       x1="31.458"
       x2="31.458"
       y1="36.897999"
       y2="59.897999"
       gradientTransform="matrix(0.36079,0,0,0.36079,-2.8832,-9.4399)"
       gradientUnits="userSpaceOnUse">
      <stop
         stop-color="#ff5514"
         offset="0"
         id="stop297" />
      <stop
         stop-color="#ff9014"
         offset="1"
         id="stop299" />
    </linearGradient>
    <linearGradient
       id="a"
       x1="31.458"
       x2="31.458"
       y1="46.897999"
       y2="56.897999"
       gradientTransform="matrix(0.36079,0,0,0.36079,-2.8832,-9.4399)"
       gradientUnits="userSpaceOnUse">
      <stop
         stop-color="#c0e5fb"
         offset="0"
         id="stop302" />
      <stop
         stop-color="#c3faff"
         offset="1"
         id="stop304" />
    </linearGradient>
    <linearGradient
       gradientTransform="matrix(1.0394952,0,0,1.0394363,-448.49881,-520.66414)"
       gradientUnits="userSpaceOnUse"
       x2="426.69501"
       y2="499.92099"
       y1="547.67499"
       id="a-6"
       x1="389.32001">
      <stop
         stop-color="#18222a"
         style="stop-color:#436077;stop-opacity:1;"
         id="stop216"
         offset="0" />
      <stop
         stop-color="#566069"
         offset="1"
         style="stop-color:#6d7983;stop-opacity:1"
         id="stop218" />
    </linearGradient>
    <linearGradient
       id="e"
       x1="8.4461002"
       x2="24.603001"
       y1="6.2688999"
       y2="24.570999"
       gradientUnits="userSpaceOnUse"
       gradientTransform="translate(0.254427,-38.49298)">
      <stop
         stop-opacity=".2088"
         offset="0"
         id="stop4" />
      <stop
         stop-opacity="0"
         offset="1"
         id="stop6" />
    </linearGradient>
    <linearGradient
       id="d-3"
       x1="7.8488002"
       x2="14.108"
       y1="3.5121"
       y2="14.183"
       gradientUnits="userSpaceOnUse"
       gradientTransform="translate(0.254427,-38.49298)">
      <stop
         stop-opacity=".2088"
         offset="0"
         id="stop14" />
      <stop
         stop-opacity="0"
         offset="1"
         id="stop16" />
    </linearGradient>
    <linearGradient
       id="c-6"
       x1="31.458"
       x2="31.458"
       y1="51.726002"
       y2="62.897999"
       gradientTransform="matrix(0.36079,0,0,0.36079,-2.8832,-9.4399)"
       gradientUnits="userSpaceOnUse">
      <stop
         stop-color="#1776ff"
         offset="0"
         id="stop292-7"
         style="stop-color:#55ddff;stop-opacity:1" />
      <stop
         stop-color="#2fceff"
         offset="1"
         id="stop294-5"
         style="stop-color:#00ccff;stop-opacity:1" />
    </linearGradient>
    <linearGradient
       id="d-35"
       x1="31.458"
       x2="31.458"
       y1="36.897999"
       y2="59.897999"
       gradientTransform="matrix(0.36079,0,0,0.36079,-2.8832,-9.4399)"
       gradientUnits="userSpaceOnUse">
      <stop
         stop-color="#ff5514"
         offset="0"
         id="stop297-6"
         style="stop-color:#ffccaa;stop-opacity:1" />
      <stop
         stop-color="#ff9014"
         offset="1"
         id="stop299-2"
         style="stop-color:#ff9955;stop-opacity:1" />
    </linearGradient>
    <linearGradient
       id="a-9"
       x1="31.458"
       x2="31.458"
       y1="46.897999"
       y2="56.897999"
       gradientTransform="matrix(0.36079,0,0,0.36079,-2.8832,-9.4399)"
       gradientUnits="userSpaceOnUse">
      <stop
         stop-color="#c0e5fb"
         offset="0"
         id="stop302-1"
         style="stop-color:#e3d7f4;stop-opacity:1" />
      <stop
         stop-color="#c3faff"
         offset="1"
         id="stop304-2"
         style="stop-color:#aa87de;stop-opacity:1" />
    </linearGradient>
    <linearGradient
       inkscape:collect="always"
       xlink:href="#linearGradient22063"
       id="linearGradient22065"
       x1="-14"
       y1="6"
       x2="-14"
       y2="-9.999999"
       gradientUnits="userSpaceOnUse"
       gradientTransform="matrix(3.6250002,0,0,3.6250002,82.750002,39.249998)" />
    <linearGradient
       inkscape:collect="always"
       id="linearGradient22063">
      <stop
         style="stop-color:#292f3a;stop-opacity:1;"
         offset="0"
         id="stop22059" />
      <stop
         style="stop-color:#535e75;stop-opacity:1;"
         offset="1"
         id="stop22061" />
    </linearGradient>
    <clipPath
       id="a-3">
      <circle
         cx="8.467"
         cy="288.53"
         r="6.8790002"
         fill="#d86eb0"
         stroke-opacity="0.039"
         stroke-width="0.491"
         style="paint-order:stroke markers fill"
         id="circle2-6" />
    </clipPath>
  </defs>
  <sodipodi:namedview
     pagecolor="#ffffff"
     bordercolor="#666666"
     borderopacity="1"
     objecttolerance="10"
     gridtolerance="10"
     guidetolerance="10"
     inkscape:pageopacity="0"
     inkscape:pageshadow="2"
     inkscape:window-width="1920"
     inkscape:window-height="996"
     id="namedview12"
     showgrid="false"
     inkscape:zoom="8"
     inkscape:cx="34.1875"
     inkscape:cy="21.4375"
     inkscape:window-x="0"
     inkscape:window-y="0"
     inkscape:window-maximized="1"
     inkscape:current-layer="svg10"
     inkscape:document-rotation="0"
     inkscape:showpageshadow="2"
     inkscape:pagecheckerboard="0"
     inkscape:deskcolor="#d1d1d1">
    <inkscape:grid
       type="xygrid"
       id="grid801"
       originx="0"
       originy="0"
       spacingy="1"
       spacingx="1"
       units="px"
       visible="false" />
  </sodipodi:namedview>
  <path
     d="M 2.999999,10.25 C 2.999999,6.245825 6.245933,3 10.249993,3 h 43.500009 c 4.00417,0 7.25,3.245825 7.25,7.25 v 43.499999 c 0,4.004173 -3.24583,7.25 -7.25,7.25 H 10.249993 c -4.00406,0 -7.249994,-3.245827 -7.249994,-7.25 z"
     id="path736"
     style="fill:#606c86;fill-opacity:1;stroke-width:3.625" />
  <path
     d="M 2.999999,9.7968747 C 2.999999,6.043188 6.245933,3 10.249993,3 h 43.500009 c 4.00417,0 7.25,3.043188 7.25,6.7968747 V 50.578123 c 0,3.753693 -3.24583,6.796876 -7.25,6.796876 H 10.249993 c -4.00406,0 -7.249995,-3.043183 -7.249995,-6.796876 z"
     id="path738"
     style="fill:url(#linearGradient22065);fill-opacity:1;stroke-width:3.625" />
  <g
     id="surface1"
     transform="matrix(0.65625,0,0,0.65625,11,9.1874995)"
     style="stroke-width:1.5238">
    <path
       d="M 29.863281,0 C 28.929688,0.0625 28.007812,0.167969 27.101562,0.308594 L 25.773438,6.96875 c -2.472657,0.644531 -4.800782,1.636719 -6.921876,2.949219 l -5.6875,-3.800781 c -2.671874,1.960937 -5.03125,4.324218 -6.988281,6.996093 l 3.894531,5.84375 c -1.1875,2.0625 -2.128906,4.304688 -2.707031,6.675781 L 0.386719,27.011719 C 0.132812,28.628906 0,30.28125 0,31.964844 c 0,1.6875 0.132812,3.34375 0.386719,4.964844 L 7.5,38.332031 c 0.609375,2.28125 1.539062,4.433594 2.710938,6.414063 L 6.175781,50.8125 C 8.136719,53.492188 10.5,55.855469 13.179688,57.816406 L 19.25,53.769531 c 1.984375,1.175781 4.136719,2.121094 6.414062,2.730469 l 1.40625,7.113281 C 28.691406,63.867188 30.347656,64 32.039062,64 33.71875,64 35.375,63.867188 36.988281,63.613281 l 1.378907,-6.976562 c 2.371093,-0.578125 4.617187,-1.5 6.679687,-2.6875 l 5.835937,3.882812 c 2.675782,-1.960937 5.042969,-4.324219 7.003907,-7 l -3.785157,-5.679687 c 1.308594,-2.121094 2.285157,-4.449219 2.933594,-6.921875 l 6.65625,-1.332031 C 63.832031,35.992188 63.9375,35.070312 64,34.136719 v -4.347657 c -0.0625,-0.929687 -0.167969,-1.84375 -0.308594,-2.746093 L 57.167969,25.738281 C 56.554688,23.167969 55.566406,20.75 54.246094,18.546875 L 57.886719,13.09375 C 55.929688,10.425781 53.566406,8.0625 50.894531,6.105469 l -5.441406,3.632812 c -2.207031,-1.324219 -4.625,-2.292969 -7.195313,-2.90625 L 36.957031,0.304688 C 36.054688,0.164062 35.136719,0.0625 34.210938,0 Z m 2.941407,13.3125 c 4.976562,0 9.652343,1.933594 13.175781,5.449219 l -5.132813,5.144531 c -2.148437,-2.144531 -5.003906,-3.328125 -8.042968,-3.328125 -6.277344,0 -11.382813,5.109375 -11.382813,11.386719 0,6.273437 5.105469,11.382812 11.382813,11.382812 3.039062,0 5.894531,-1.179687 8.042968,-3.324218 l 5.132813,5.140624 c -3.523438,3.515626 -8.199219,5.449219 -13.175781,5.449219 -4.980469,0 -9.664063,-1.941406 -13.1875,-5.460937 -3.519532,-3.523438 -5.460938,-8.207032 -5.460938,-13.1875 0,-4.984375 1.941406,-9.667969 5.460938,-13.191406 3.523437,-3.519532 8.207031,-5.460938 13.1875,-5.460938 z m 0,0"
       id="path2"
       style="fill:#00ccff;stroke-width:1.5238;fill-opacity:1" />
  </g>
</svg>
