<?xml version="1.0" encoding="UTF-8" standalone="no"?>
<svg
   width="64"
   height="64"
   version="1.1"
   id="svg7426"
   sodipodi:docname="cosmigo-pro-motion-icon.svg"
   inkscape:version="1.4.2 (unknown)"
   xmlns:inkscape="http://www.inkscape.org/namespaces/inkscape"
   xmlns:sodipodi="http://sodipodi.sourceforge.net/DTD/sodipodi-0.dtd"
   xmlns:xlink="http://www.w3.org/1999/xlink"
   xmlns="http://www.w3.org/2000/svg"
   xmlns:svg="http://www.w3.org/2000/svg">
  <sodipodi:namedview
     id="namedview7428"
     pagecolor="#ffffff"
     bordercolor="#666666"
     borderopacity="1.0"
     inkscape:showpageshadow="2"
     inkscape:pageopacity="0.0"
     inkscape:pagecheckerboard="0"
     inkscape:deskcolor="#d1d1d1"
     showgrid="false"
     inkscape:zoom="6.9532167"
     inkscape:cx="26.390663"
     inkscape:cy="50.120687"
     inkscape:window-width="1920"
     inkscape:window-height="1000"
     inkscape:window-x="0"
     inkscape:window-y="0"
     inkscape:window-maximized="1"
     inkscape:current-layer="svg7426">
    <inkscape:grid
       id="grid1"
       units="px"
       originx="0"
       originy="0"
       spacingx="1"
       spacingy="1"
       empcolor="#0099e5"
       empopacity="0.30196078"
       color="#0099e5"
       opacity="0.14901961"
       empspacing="5"
       dotted="false"
       gridanglex="30"
       gridanglez="30"
       visible="false" />
  </sodipodi:namedview>
  <defs
     id="defs7410">
    <linearGradient
       id="linearGradient10050">
      <stop
         style="stop-color:#a3be8c;stop-opacity:1;"
         offset="0"
         id="stop10046" />
      <stop
         style="stop-color:#739755;stop-opacity:1;"
         offset="1"
         id="stop10048" />
    </linearGradient>
    <linearGradient
       id="linearGradient4154">
      <stop
         offset="0"
         style="stop-color:#000000;stop-opacity:1"
         id="stop7390" />
      <stop
         offset="1"
         style="stop-color:#000000;stop-opacity:0"
         id="stop7392" />
    </linearGradient>
    <linearGradient
       id="linearGradient4192">
      <stop
         style="stop-color:#272b2d;stop-opacity:1"
         offset="0"
         id="stop7395" />
      <stop
         style="stop-color:#33393e;stop-opacity:1"
         offset="1"
         id="stop7397" />
    </linearGradient>
    <linearGradient
       id="linearGradient4140">
      <stop
         style="stop-color:#279646;stop-opacity:1"
         offset="0"
         id="stop7400" />
      <stop
         style="stop-color:#76ff68;stop-opacity:1"
         offset="1"
         id="stop7402" />
    </linearGradient>
    <linearGradient
       xlink:href="#linearGradient4140"
       id="linearGradient4146"
       x1="24.705"
       y1="43.938999"
       x2="25.061001"
       y2="4.4050002"
       gradientUnits="userSpaceOnUse"
       gradientTransform="translate(107.1821,-36.883996)" />
    <linearGradient
       xlink:href="#linearGradient4192"
       id="linearGradient4166"
       x1="31"
       y1="34"
       x2="31"
       y2="24"
       gradientUnits="userSpaceOnUse"
       gradientTransform="translate(107.1821,-36.883996)" />
    <linearGradient
       xlink:href="#linearGradient4192"
       id="linearGradient4168"
       x1="18"
       y1="34"
       x2="18"
       y2="24"
       gradientUnits="userSpaceOnUse"
       gradientTransform="translate(107.1821,-36.883996)" />
    <linearGradient
       xlink:href="#linearGradient4154"
       id="linearGradient4182"
       x1="13"
       y1="24"
       x2="30"
       y2="41"
       gradientUnits="userSpaceOnUse"
       gradientTransform="translate(107.1821,-36.883996)" />
    <linearGradient
       xlink:href="#linearGradient4154"
       id="linearGradient4190"
       x1="29"
       y1="26"
       x2="36"
       y2="33"
       gradientUnits="userSpaceOnUse"
       gradientTransform="translate(107.1821,-36.883996)" />
    <linearGradient
       inkscape:collect="always"
       xlink:href="#linearGradient22063-0"
       id="linearGradient22065-6"
       x1="-22"
       y1="5.1111121"
       x2="-6.4444442"
       y2="-9.1111107"
       gradientUnits="userSpaceOnUse"
       gradientTransform="matrix(3.6250002,0,0,3.6250002,82.750001,39.249999)" />
    <linearGradient
       inkscape:collect="always"
       id="linearGradient22063-0">
      <stop
         style="stop-color:#3485fd;stop-opacity:1"
         offset="0"
         id="stop22059-6" />
      <stop
         style="stop-color:#7e36f4;stop-opacity:1"
         offset="1"
         id="stop22061-2" />
    </linearGradient>
    <radialGradient
       inkscape:collect="always"
       xlink:href="#linearGradient7"
       id="radialGradient9"
       cx="32.302387"
       cy="34"
       fx="32.302387"
       fy="34"
       r="28"
       gradientUnits="userSpaceOnUse"
       gradientTransform="matrix(0.99999997,0.99999997,-0.99999997,0.99999997,24.697613,-42.55239)" />
    <linearGradient
       id="linearGradient7"
       inkscape:collect="always">
      <stop
         style="stop-color:#384850;stop-opacity:1;"
         offset="0"
         id="stop8" />
      <stop
         style="stop-color:#384850;stop-opacity:1;"
         offset="0.59162253"
         id="stop10" />
      <stop
         style="stop-color:#eff2f6;stop-opacity:1;"
         offset="0.92173076"
         id="stop11" />
      <stop
         style="stop-color:#eff2f6;stop-opacity:1;"
         offset="1"
         id="stop9" />
    </linearGradient>
    <linearGradient
       inkscape:collect="always"
       xlink:href="#linearGradient933"
       id="linearGradient935"
       x1="63.855331"
       y1="122.63078"
       x2="63.855331"
       y2="15.286823"
       gradientUnits="userSpaceOnUse"
       gradientTransform="matrix(0.39895775,0,0,0.39895809,-2.4755796,-1.841042)" />
    <linearGradient
       inkscape:collect="always"
       id="linearGradient933">
      <stop
         style="stop-color:#ced2d9;stop-opacity:1;"
         offset="0"
         id="stop929" />
      <stop
         style="stop-color:#b9bfc9;stop-opacity:1;"
         offset="1"
         id="stop931" />
    </linearGradient>
  </defs>
  <path
     d="m 2.9999985,10.25 c 0,-4.004175 3.245938,-7.25 7.2500005,-7.25 h 43.500003 c 4.004173,0 7.25,3.245825 7.25,7.25 v 43.5 c 0,4.004173 -3.245827,7.25 -7.25,7.25 H 10.249999 C 6.2459365,61 2.9999985,57.754173 2.9999985,53.75 Z"
     id="path736-7"
     style="fill:#606c86;fill-opacity:1;stroke-width:3.625" />
  <path
     d="M 2.9999985,9.796875 C 2.9999985,6.043188 6.2459365,3 10.249999,3 h 43.500003 c 4.004173,0 7.25,3.043188 7.25,6.796875 v 40.781249 c 0,3.753693 -3.245827,6.796876 -7.25,6.796876 H 10.249999 c -4.0040625,0 -7.2500005,-3.043183 -7.2500005,-6.796876 z"
     id="path738-9"
     style="fill:url(#linearGradient22065-6);fill-opacity:1;stroke-width:3.625" />
  <g
     id="g1"
     transform="translate(8,7.25)">
    <path
       d="M 45,24 C 45,35.598112 35.598129,45 23.999999,45 12.401876,45 3.0000001,35.598112 3.0000001,24 3.0000001,12.401876 12.401876,3 23.999999,3 35.598129,3 45,12.401876 45,24 Z"
       id="path154"
       style="fill:url(#radialGradient9);stroke-width:0.999997" />
    <circle
       style="fill:url(#linearGradient935);fill-opacity:1;stroke:none;stroke-width:0.604378;stroke-linecap:round;stroke-miterlimit:4;stroke-dasharray:none;stroke-opacity:1"
       id="path1096"
       cx="24"
       cy="24"
       r="17.500126" />
    <path
       style="opacity:0;fill:#ffffff;stroke-width:0.833325"
       d="M 24.010998,6.082398 A 17.500125,17.500125 0 0 0 6.510873,23.582523 17.500125,17.500125 0 0 0 6.5242995,23.836444 17.500125,17.500125 0 0 1 24.010998,6.7073932 17.500125,17.500125 0 0 1 41.500125,24 17.500125,17.500125 0 0 0 41.51112,23.582523 17.500125,17.500125 0 0 0 24.010995,6.082398 Z M 40.113395,30.435601 C 30.48634,34.925662 20.156426,36.39793 11.326583,35.627297 a 17.500125,17.500125 0 0 0 0.708012,0.675044 c 8.558803,0.625889 18.44331,-0.837478 27.710166,-5.07816 a 17.500125,17.500125 0 0 0 0.368634,-0.78858 z"
       id="path7" />
    <g
       id="g3"
       transform="matrix(0.75,0,0,0.75,-3,-45)"
       style="stroke-width:1.33333">
      <g
         id="g2"
         style="stroke-width:1.33333">
        <circle
           r="16"
           style="opacity:0.2;stroke-width:1.33333"
           cx="36"
           cy="93"
           id="circle3" />
        <circle
           r="16"
           style="fill:#ff3636;stroke-width:1.33333"
           cx="36"
           cy="92"
           id="circle4" />
        <path
           style="fill:#924ab4;stroke-width:1.33333"
           d="m 36,76 a 16,16 0 0 0 -9.132812,2.886719 L 36,93 45.140625,78.875 A 16,16 0 0 0 36,76 Z"
           id="path4-3" />
        <path
           style="fill:#ffdb4c;stroke-width:1.33333"
           d="m 36,93 -8.220703,12.70313 A 16,16 0 0 0 36,108 a 16,16 0 0 0 8.220703,-2.29492 z"
           id="path5-6" />
        <path
           style="fill:#8bdb4c;stroke-width:1.33333"
           d="m 36,93 8.220703,12.70508 A 16,16 0 0 0 51.949219,93 Z"
           id="path6-7" />
        <path
           style="fill:#476bd7;stroke-width:1.33333"
           d="M 45.140625,78.875 36,93 H 51.949219 A 16,16 0 0 0 52,92 16,16 0 0 0 45.140625,78.875 Z"
           id="path7-3" />
        <path
           style="fill:#f1502f;stroke-width:1.33333"
           d="m 20.037109,93 a 16,16 0 0 0 7.742188,12.70313 L 36,93 Z"
           id="path8" />
        <circle
           r="12"
           style="opacity:0.1;stroke-width:1.33333"
           cx="36"
           cy="93"
           id="circle8" />
        <circle
           r="12"
           style="fill:#373e48;stroke-width:1.33333"
           cx="36"
           cy="92"
           id="circle9" />
        <path
           style="opacity:0.2;fill:#ffffff;stroke-width:1.33333"
           d="M 36,76 A 16,16 0 0 0 20,92 16,16 0 0 0 20.021484,92.580078 16,16 0 0 1 36,77 16,16 0 0 1 51.978516,92.419922 16,16 0 0 0 52,92 16,16 0 0 0 36,76 Z"
           id="path9" />
        <circle
           r="3"
           style="opacity:0.2;stroke-width:1.33333"
           cx="31"
           cy="89"
           id="circle10" />
        <circle
           r="3"
           style="fill:#ffffff;stroke-width:1.33333"
           cx="31"
           cy="88"
           id="circle11" />
      </g>
    </g>
  </g>
</svg>
