<?xml version="1.0" encoding="UTF-8" standalone="no"?>
<svg
   width="64"
   height="64"
   version="1.1"
   id="svg22"
   sodipodi:docname="distributor-logo-pop-os.svg"
   inkscape:version="1.3.2 (091e20ef0f, 2023-11-25)"
   xmlns:inkscape="http://www.inkscape.org/namespaces/inkscape"
   xmlns:sodipodi="http://sodipodi.sourceforge.net/DTD/sodipodi-0.dtd"
   xmlns="http://www.w3.org/2000/svg"
   xmlns:svg="http://www.w3.org/2000/svg"
   xmlns:rdf="http://www.w3.org/1999/02/22-rdf-syntax-ns#"
   xmlns:cc="http://creativecommons.org/ns#"
   xmlns:dc="http://purl.org/dc/elements/1.1/">
  <sodipodi:namedview
     pagecolor="#ffffff"
     bordercolor="#666666"
     borderopacity="1"
     objecttolerance="10"
     gridtolerance="10"
     guidetolerance="10"
     inkscape:pageopacity="0"
     inkscape:pageshadow="2"
     inkscape:window-width="1920"
     inkscape:window-height="996"
     id="namedview24"
     showgrid="false"
     inkscape:zoom="4.5906698"
     inkscape:cx="-16.119652"
     inkscape:cy="34.417636"
     inkscape:window-x="0"
     inkscape:window-y="0"
     inkscape:window-maximized="1"
     inkscape:current-layer="svg22"
     inkscape:showpageshadow="2"
     inkscape:pagecheckerboard="0"
     inkscape:deskcolor="#d1d1d1" />
  <metadata
     id="metadata2">
    <rdf:RDF>
      <cc:Work
         rdf:about="">
        <dc:format>image/svg+xml</dc:format>
        <dc:type
           rdf:resource="http://purl.org/dc/dcmitype/StillImage" />
      </cc:Work>
    </rdf:RDF>
  </metadata>
  <defs
     id="defs14">
    <filter
       id="filter2761"
       x="-.024"
       y="-.024"
       width="1.048"
       height="1.048"
       color-interpolation-filters="sRGB">
      <feGaussianBlur
         stdDeviation="0.14552168"
         id="feGaussianBlur4" />
    </filter>
    <linearGradient
       id="linearGradient4673"
       x1="1.2573"
       x2="15.644"
       y1="15.429"
       y2="1.1082"
       gradientTransform="matrix(3.7796,0,0,3.7796,-98.960821,0.53085)"
       gradientUnits="userSpaceOnUse">
      <stop
         stop-color="#16ff6c"
         offset="0"
         id="stop7" />
      <stop
         stop-color="#28ff61"
         offset=".47728"
         id="stop9" />
      <stop
         stop-color="#9fff1b"
         offset="1"
         id="stop11" />
    </linearGradient>
    <linearGradient
       id="linearGradient3764"
       x1="1"
       x2="47"
       gradientUnits="userSpaceOnUse"
       gradientTransform="rotate(-90,23.999998,24)">
      <stop
         style="stop-color:#43cd50;stop-opacity:1"
         id="stop2" />
      <stop
         offset="1"
         style="stop-color:#54d160;stop-opacity:1"
         id="stop4" />
    </linearGradient>
    <style
       type="text/css"
       id="style876" />
    <style
       type="text/css"
       id="style878" />
    <style
       type="text/css"
       id="style880" />
    <style
       type="text/css"
       id="style882" />
    <filter
       id="filter1057"
       x="-0.026999999"
       y="-0.026999999"
       width="1.054"
       height="1.054"
       color-interpolation-filters="sRGB">
      <feGaussianBlur
         stdDeviation="0.61875"
         id="feGaussianBlur884" />
    </filter>
    <linearGradient
       id="linearGradient1053"
       x1="-127"
       x2="-72"
       y1="60"
       y2="5"
       gradientTransform="translate(131.5,-0.51)"
       gradientUnits="userSpaceOnUse">
      <stop
         stop-color="#02db96"
         offset="0"
         id="stop887"
         style="stop-color:#14ff6e;stop-opacity:1" />
      <stop
         stop-color="#13d39b"
         offset="1"
         id="stop889"
         style="stop-color:#a0ff1e;stop-opacity:1" />
    </linearGradient>
    <style
       type="text/css"
       id="style892" />
    <style
       type="text/css"
       id="style894" />
    <style
       type="text/css"
       id="style896" />
    <linearGradient
       id="a-367"
       gradientUnits="userSpaceOnUse"
       x1="23"
       x2="37"
       y1="20"
       y2="34"
       gradientTransform="matrix(1.9622547,0,0,1.9622547,-116.93982,-48.178796)">
      <stop
         offset="0"
         stop-color="#292c2f"
         id="stop246" />
      <stop
         offset="1"
         stop-opacity="0"
         id="stop248" />
    </linearGradient>
    <linearGradient
       id="c-53"
       gradientTransform="matrix(2.0428665,-6.8308524,5.7819337,2.3633129,25.219113,34.652812)"
       gradientUnits="userSpaceOnUse"
       x1="24"
       x2="24"
       y1="35"
       y2="13">
      <stop
         offset="0"
         stop-color="#23a2cd"
         id="stop256" />
      <stop
         offset=".53"
         stop-color="#00b8f5"
         id="stop258" />
      <stop
         offset="1"
         stop-color="#2ecbff"
         id="stop260" />
    </linearGradient>
  </defs>
  <circle
     cx="-1330.8"
     cy="-1261.2"
     r="0"
     fill="#5e4aa6"
     id="circle908" />
  <circle
     cx="-1336.4259"
     cy="-1272.89"
     r="0"
     id="circle910"
     style="fill:#5e4aa6" />
  <circle
     cx="-236.87599"
     cy="-7.4350004"
     r="0"
     fill-rule="evenodd"
     id="circle912"
     style="fill:#5e4aa6" />
  <circle
     cx="-1336.4259"
     cy="-1272.89"
     r="0"
     id="circle914"
     style="fill:#5e4aa6" />
  <circle
     cx="-236.87599"
     cy="-7.4350004"
     r="0"
     fill-rule="evenodd"
     id="circle916"
     style="fill:#5e4aa6" />
  <circle
     cx="-1238.626"
     cy="-1287.89"
     r="0"
     id="circle918"
     style="fill:#5e4aa6" />
  <circle
     cx="-139.05299"
     cy="-22.4156"
     r="0"
     fill-rule="evenodd"
     id="circle920"
     style="fill:#5e4aa6" />
  <g
     transform="matrix(3.7796,0,0,3.7796,80.134,-26.68)"
     stroke-width="0.26458"
     id="g950"
     style="fill:#5e4aa6">
    <g
       transform="translate(-0.0272,0.0065001)"
       id="g938">
      <circle
         cx="-330.35001"
         cy="-328.38"
         r="0"
         id="circle922" />
      <circle
         cx="-312.10999"
         cy="-326.25"
         r="0"
         id="circle924" />
      <circle
         cx="-306.01999"
         cy="-333.07001"
         r="0"
         id="circle926" />
      <circle
         cx="-308.84"
         cy="-326.01001"
         r="0"
         id="circle928" />
      <circle
         cx="-330.35001"
         cy="-328.38"
         r="0"
         id="circle930" />
      <circle
         cx="-312.10999"
         cy="-326.25"
         r="0"
         id="circle932" />
      <circle
         cx="-306.01999"
         cy="-333.07001"
         r="0"
         id="circle934" />
      <circle
         cx="-308.84"
         cy="-326.01001"
         r="0"
         id="circle936" />
    </g>
    <g
       transform="translate(-0.02705,0.0064503)"
       id="g948">
      <circle
         cx="-330.35001"
         cy="-328.38"
         r="0"
         id="circle940" />
      <circle
         cx="-312.10999"
         cy="-326.25"
         r="0"
         id="circle942" />
      <circle
         cx="-306.01999"
         cy="-333.07001"
         r="0"
         id="circle944" />
      <circle
         cx="-308.84"
         cy="-326.01001"
         r="0"
         id="circle946" />
    </g>
  </g>
  <path
     d="M 2.9999985,10.25 C 2.9999985,6.245825 6.2459365,3 10.25,3 h 43.500002 c 4.004174,0 7.25,3.245825 7.25,7.25 v 43.5 c 0,4.004173 -3.245827,7.25 -7.25,7.25 H 10.25 C 6.2459365,61 2.9999985,57.754173 2.9999985,53.75 Z"
     id="path736"
     style="fill:#606c86;fill-opacity:1;stroke-width:3.625" />
  <path
     d="M 2.9999985,9.796875 C 2.9999985,6.043188 6.2459365,3 10.25,3 h 43.500002 c 4.004174,0 7.25,3.043188 7.25,6.796875 v 40.781249 c 0,3.753693 -3.245827,6.796876 -7.25,6.796876 H 10.25 c -4.0040635,0 -7.2500015,-3.043183 -7.2500015,-6.796876 z"
     id="path738"
     style="fill:#3b4252;fill-opacity:1;stroke-width:3.625" />
  <path
     style="fill:#9cd9de;fill-opacity:1;fill-rule:nonzero;stroke:none;stroke-width:0.962062"
     d="m 29.672375,44.124726 c -0.101294,-0.126684 -0.09693,-0.126684 0.03083,-0.03055 0.07506,0.06111 0.141062,0.126685 0.141062,0.139782 0,0.06546 -0.06607,0.02627 -0.171914,-0.109275 z m 3.879131,-0.62466 c 0.0038,-0.09166 0.02652,-0.109279 0.04856,-0.04812 0.02652,0.05681 0.02207,0.126685 -0.0038,0.152896 -0.02652,0.02627 -0.04405,-0.02191 -0.04405,-0.104896 z m 0,-0.956643 c 0.0038,-0.09166 0.02652,-0.113581 0.04856,-0.04812 0.02652,0.05681 0.02207,0.126669 -0.0038,0.15288 -0.02652,0.02627 -0.04405,-0.02192 -0.04405,-0.104894 z m -3.328112,-9.295608 c 0.05733,-0.05681 0.119016,-0.07867 0.145463,-0.05681 0.02652,0.02627 -0.02211,0.0698 -0.101294,0.100388 -0.114626,0.0436 -0.123423,0.03487 -0.04401,-0.04366 z m 3.40305,-1.935126 c 0,-0.01758 0.06606,-0.07867 0.141061,-0.139785 0.127836,-0.100398 0.132242,-0.09605 0.03083,0.03055 -0.105851,0.131046 -0.171921,0.174732 -0.171921,0.109243 z m 1.370921,-1.358524 c 0,-0.01758 0.06166,-0.07867 0.141057,-0.139785 0.127835,-0.09607 0.127835,-0.09607 0.02652,0.03055 -0.101343,0.135419 -0.167503,0.174735 -0.167503,0.109253 z m -6.889861,-2.144807 -0.317387,-0.336353 0.343833,0.31452 c 0.31739,0.292667 0.3791,0.362562 0.31739,0.362562 -0.01316,0 -0.167512,-0.152894 -0.343836,-0.340729 z m 2.719798,-2.013752 c 0,-0.131047 0.01775,-0.174731 0.03962,-0.09607 0.01775,0.07867 0.01775,0.183471 -0.0038,0.240256 -0.02208,0.05251 -0.03961,-0.01304 -0.03517,-0.144152 z m -0.09249,-0.961014 c 0.0038,-0.09607 0.02209,-0.113579 0.04856,-0.04812 0.02211,0.05681 0.02211,0.126681 -0.0038,0.152888 -0.02652,0.02627 -0.04856,-0.02194 -0.04403,-0.104895 z M 37.50566,24.48077 c 0,-0.109267 0.0177,-0.152895 0.03965,-0.100389 0.02208,0.05681 0.02208,0.144159 0,0.200939 -0.02208,0.05251 -0.03965,0.0079 -0.03965,-0.100369 z m 0,-1.314841 c 0.004,-0.131047 0.02207,-0.179098 0.03965,-0.100398 0.02208,0.07867 0.02208,0.187836 0,0.240254 -0.02208,0.0525 -0.03965,-0.0079 -0.03965,-0.139781 z M 24.938125,20.763398 c 0.0038,-0.09166 0.02211,-0.109256 0.04856,-0.04812 0.02652,0.05681 0.02212,0.126676 -0.0038,0.152885 -0.02652,0.02627 -0.04856,-0.01758 -0.04405,-0.104895 z m 3.84827,-0.170362 c -0.101318,-0.126682 -0.09694,-0.131046 0.03083,-0.03055 0.132245,0.104894 0.176326,0.170361 0.110261,0.170361 -0.01774,0 -0.07939,-0.06548 -0.141056,-0.139782 z m -0.63917,-0.720759 -0.193955,-0.21841 0.220402,0.1922 c 0.207184,0.183467 0.255668,0.24899 0.193956,0.24899 -0.01315,0 -0.114617,-0.100399 -0.220403,-0.22278 z m -3.2091,-0.06546 c 0.0038,-0.09166 0.02211,-0.113589 0.04856,-0.04812 0.02652,0.05681 0.02212,0.126675 -0.0038,0.152886 -0.02652,0.02627 -0.04856,-0.02192 -0.04405,-0.104884 z m 2.561112,-0.493609 c -0.101334,-0.122313 -0.09695,-0.126682 0.03083,-0.02627 0.132244,0.100409 0.176319,0.165992 0.110243,0.165992 -0.01775,0 -0.07939,-0.0611 -0.141062,-0.139782 z m -8.966083,-1.135742 c 0.264481,-0.262092 0.493713,-0.476139 0.515748,-0.476139 0.0221,0 -0.171917,0.214047 -0.436401,0.476139 -0.264485,0.262097 -0.493702,0.480506 -0.51575,0.480506 -0.0221,0 0.171919,-0.218409 0.436403,-0.480506 z m 16.614134,-1.253683 c -0.101315,-0.126678 -0.09694,-0.131051 0.03083,-0.03055 0.07502,0.05681 0.141057,0.122311 0.141057,0.139781 0,0.06546 -0.06605,0.0219 -0.171917,-0.109251 z M 33.93947,15.726886 c -0.101296,-0.126676 -0.09692,-0.131043 0.03083,-0.03055 0.132249,0.104895 0.176333,0.170356 0.110277,0.170356 -0.01775,0 -0.07939,-0.06545 -0.14106,-0.13978 z m -6.850186,-2.07054 c 0.06165,-0.0219 0.127826,-0.0219 0.154275,0.0038 0.03083,0.03056 -0.01775,0.04812 -0.105841,0.04369 -0.09249,-0.0038 -0.110251,-0.02193 -0.04856,-0.04812 z m 2.014498,0 c 0.05733,-0.0219 0.127832,-0.0219 0.154282,0.0038 0.02652,0.03056 -0.02208,0.04812 -0.105853,0.04369 -0.09249,-0.0038 -0.114614,-0.02193 -0.04856,-0.04812 z m 0,0"
     id="path4155" />
  <path
     style="fill:#4cb5ab;fill-opacity:1;fill-rule:nonzero;stroke:none;stroke-width:0.962062"
     d="m 38.62523,43.452016 c -0.952148,-0.406248 -1.309203,-1.777869 -0.718516,-2.725782 0.581865,-0.934804 1.719156,-1.227477 2.437677,-0.629026 0.127834,0.104895 0.312975,0.380033 0.414362,0.611552 0.154282,0.349462 0.176324,0.519821 0.145466,1.074583 -0.04407,0.816869 -0.308569,1.306109 -0.859579,1.594408 -0.405546,0.214043 -1.027089,0.244626 -1.41941,0.07435 z m 1.415001,-5.857809 c -0.797865,-0.222774 -0.841948,-3.389742 -0.119018,-9.107768 0.387912,-3.079602 0.577462,-3.892098 1.079985,-4.634701 0.321793,-0.476138 0.67003,-0.690179 1.375328,-0.8387 1.216635,-0.253357 2.675716,0.05681 3.707213,0.790652 1.15933,0.821227 1.326838,1.498304 0.758192,3.08834 -0.559829,1.5682 -1.930749,4.289609 -3.486807,6.941133 -1.388553,2.354481 -2.195236,3.459639 -2.706574,3.699888 -0.295343,0.139785 -0.312975,0.139785 -0.608319,0.0611 z m 0,0"
     id="path4157" />
  <path
     style="fill:#4cb5ab;fill-opacity:1;fill-rule:nonzero;stroke:none;stroke-width:0.962062"
     d="m 28.239745,12.000716 c -1.049129,-0.01308 -2.124704,0.15289 -3.204686,0.502349 -2.666905,0.856172 -6.691501,3.756683 -7.515811,5.416615 -0.238043,0.480507 -0.273304,0.633387 -0.268906,1.113896 0.0038,0.768813 0.145477,1.131375 1.304808,3.433431 3.20028,6.355783 7.022108,13.445429 9.098318,16.874495 1.794099,2.970397 2.503798,3.800364 3.504439,4.110514 0.449626,0.139778 0.67003,0.139778 1.168146,-0.0038 0.90366,-0.266468 1.269535,-0.969748 1.199003,-2.302062 -0.05296,-1.02217 -0.07939,-1.100797 -1.846995,-5.635022 -0.797865,-2.039968 -1.454667,-3.756685 -1.463484,-3.81784 -0.0038,-0.0611 0.27771,-0.227148 0.678844,-0.401875 2.296619,-0.987223 4.196513,-2.703941 5.527762,-5.010371 0.815496,-1.402202 1.071164,-2.393792 1.071164,-4.162924 0,-2.332639 -0.55101,-4.237189 -1.719155,-5.975749 -0.943336,-1.406528 -2.164382,-2.485476 -3.636687,-3.206237 -1.234267,-0.607188 -2.543474,-0.917328 -3.89676,-0.934802 z m -2.239317,5.001636 c 0.67003,0 1.291573,0.349455 2.182008,1.227467 1.216639,1.196898 2.036542,2.577262 2.442091,4.110512 0.264487,0.987221 0.299754,2.502999 0.07939,3.219389 -0.14987,0.489242 -0.502521,0.952273 -0.868399,1.140107 -0.304153,0.157257 -0.77582,0.139785 -1.119657,-0.03926 -0.612718,-0.318875 -1.613359,-1.611877 -2.2878,-2.944189 -0.894843,-1.769136 -1.397368,-3.376645 -1.467899,-4.717694 -0.07939,-1.43715 0.211592,-1.996283 1.040312,-1.996283 z m 0,0"
     id="path4159" />
  <path
     style="fill:#4cb5ab;fill-opacity:1;fill-rule:nonzero;stroke:none;stroke-width:0.962062"
     d="m 22.557701,46.671402 h 23.512813 c 0.9257,0 1.679486,0.746968 1.679486,1.664297 C 47.75,49.253033 46.996214,50 46.070514,50 H 22.557701 c -0.925699,0 -1.679482,-0.746967 -1.679482,-1.664301 0,-0.917329 0.753783,-1.664297 1.679482,-1.664297 z m 0,0"
     id="path4161" />
</svg>
