<?xml version="1.0" encoding="UTF-8" standalone="no"?>
<svg
   width="64"
   height="64"
   version="1.1"
   id="svg23117"
   sodipodi:docname="falkon.svg"
   inkscape:version="1.2.1 (9c6d41e410, 2022-07-14)"
   xmlns:inkscape="http://www.inkscape.org/namespaces/inkscape"
   xmlns:sodipodi="http://sodipodi.sourceforge.net/DTD/sodipodi-0.dtd"
   xmlns:xlink="http://www.w3.org/1999/xlink"
   xmlns="http://www.w3.org/2000/svg"
   xmlns:svg="http://www.w3.org/2000/svg">
  <sodipodi:namedview
     id="namedview23119"
     pagecolor="#ffffff"
     bordercolor="#666666"
     borderopacity="1.0"
     inkscape:showpageshadow="2"
     inkscape:pageopacity="0.0"
     inkscape:pagecheckerboard="0"
     inkscape:deskcolor="#d1d1d1"
     showgrid="false"
     inkscape:zoom="4.9166667"
     inkscape:cx="24.508474"
     inkscape:cy="24.508474"
     inkscape:window-width="1920"
     inkscape:window-height="1002"
     inkscape:window-x="0"
     inkscape:window-y="0"
     inkscape:window-maximized="1"
     inkscape:current-layer="svg23117" />
  <defs
     id="defs23105">
    <linearGradient
       id="a"
       y1="547.63397"
       y2="499.67899"
       x2="388.86499"
       gradientUnits="userSpaceOnUse"
       gradientTransform="translate(-453.04388,-539.81483)"
       x1="428.81601">
      <stop
         stop-color="#2a2c2f"
         id="stop23090" />
      <stop
         offset="1"
         stop-color="#536161"
         id="stop23092" />
    </linearGradient>
    <linearGradient
       id="b"
       y1="44"
       y2="12"
       x2="14"
       gradientUnits="userSpaceOnUse"
       x1="36"
       gradientTransform="translate(-68.473879,-40.014831)">
      <stop
         stop-color="#536161"
         style="stop-color:#bfc9c9;stop-opacity:1"
         id="stop23095" />
      <stop
         offset="1"
         stop-color="#f4f5f5"
         style="stop-color:#fbfbfb;stop-opacity:1"
         id="stop23097" />
    </linearGradient>
    <linearGradient
       id="c"
       y1="527.01398"
       x1="406.50101"
       y2="539.82501"
       x2="419.974"
       gradientUnits="userSpaceOnUse"
       gradientTransform="translate(-453.04388,-539.81483)">
      <stop
         stop-color="#292c2f"
         id="stop23100" />
      <stop
         offset="1"
         stop-opacity="0"
         id="stop23102" />
    </linearGradient>
    <linearGradient
       inkscape:collect="always"
       xlink:href="#linearGradient22063"
       id="linearGradient22065"
       x1="-22"
       y1="5"
       x2="-5.9999995"
       y2="-9.999999"
       gradientUnits="userSpaceOnUse"
       gradientTransform="matrix(3.6250002,0,0,3.6250002,82.750005,39.249999)" />
    <linearGradient
       inkscape:collect="always"
       id="linearGradient22063">
      <stop
         style="stop-color:#a97ea1;stop-opacity:1;"
         offset="0"
         id="stop22059" />
      <stop
         style="stop-color:#aa87de;stop-opacity:1"
         offset="1"
         id="stop22061" />
    </linearGradient>
    <linearGradient
       gradientUnits="userSpaceOnUse"
       y2="44"
       x2="-16"
       y1="4"
       x1="-56"
       id="linearGradient4702"
       xlink:href="#m"
       gradientTransform="matrix(1.4,0,0,1.4,82.5,-3.1779996)" />
    <linearGradient
       gradientUnits="userSpaceOnUse"
       x2="35"
       y2="32"
       x1="10"
       y1="7"
       id="m"
       gradientTransform="translate(85,55)">
      <stop
         id="stop27"
         stop-color="#383e51" />
      <stop
         id="stop29"
         stop-opacity="0"
         stop-color="#655c6f"
         offset="1" />
    </linearGradient>
    <linearGradient
       id="b-3"
       y1="13.1"
       x1="19"
       y2="44"
       x2="44"
       gradientUnits="userSpaceOnUse"
       gradientTransform="matrix(1.3750215,0,0,1.3750215,-1.002483,-0.9970788)">
      <stop
         stop-color="#292c2f"
         id="stop154" />
      <stop
         offset="1"
         stop-color="#292c2f"
         stop-opacity="0"
         id="stop156" />
    </linearGradient>
    <linearGradient
       id="r"
       x1="49.298"
       x2="95.398003"
       y1="81.098"
       y2="56.09"
       gradientTransform="matrix(0.37868,0,0,0.26203,4.272,4.257)"
       gradientUnits="userSpaceOnUse"
       xlink:href="#l" />
    <linearGradient
       id="l">
      <stop
         stop-color="#fff"
         offset="0"
         id="stop1665" />
      <stop
         stop-color="#dadada"
         offset="1"
         id="stop1667" />
    </linearGradient>
    <linearGradient
       id="q"
       x1="61.021"
       x2="27.009001"
       y1="119.444"
       y2="77.337997"
       gradientTransform="matrix(0.35013,0,0,0.2834,4.272,4.257)"
       gradientUnits="userSpaceOnUse"
       xlink:href="#l" />
    <linearGradient
       id="p"
       x1="87.486"
       x2="39.143002"
       y1="37.283001"
       y2="58.523998"
       gradientTransform="matrix(0.42584,0,0,0.23301,4.272,4.257)"
       gradientUnits="userSpaceOnUse">
      <stop
         stop-color="#d0d0d0"
         offset="0"
         id="stop1672" />
      <stop
         stop-color="#fff"
         offset="1"
         id="stop1674" />
    </linearGradient>
    <linearGradient
       id="o"
       x1="39.132"
       x2="-14.568"
       y1="94.823997"
       y2="160.96001"
       gradientTransform="matrix(0.36573,0,0,0.2713,4.272,4.257)"
       gradientUnits="userSpaceOnUse"
       xlink:href="#k" />
    <linearGradient
       id="k">
      <stop
         stop-color="#ffdc68"
         offset="0"
         id="stop1677" />
      <stop
         stop-color="#ce4300"
         offset="1"
         id="stop1679" />
    </linearGradient>
    <linearGradient
       id="n"
       x1="24.438999"
       x2="12.066"
       y1="54.424"
       y2="58.196999"
       gradientTransform="matrix(0.67462,0,0,0.14709,4.272,4.257)"
       gradientUnits="userSpaceOnUse"
       xlink:href="#k" />
    <linearGradient
       id="m-3"
       x1="32.174"
       x2="-13.135"
       y1="91.75"
       y2="161.326"
       gradientTransform="matrix(0.47125,0,0,0.21056,4.272,4.257)"
       gradientUnits="userSpaceOnUse"
       xlink:href="#k" />
  </defs>
  <path
     d="M 3,10.25 C 3,6.245825 6.245938,3 10.25,3 h 43.500005 c 4.00417,0 7.25,3.245825 7.25,7.25 v 43.5 c 0,4.004173 -3.24583,7.25 -7.25,7.25 H 10.25 C 6.245938,61 3,57.754173 3,53.75 Z"
     id="path736"
     style="fill:#606c86;fill-opacity:1;stroke-width:3.625" />
  <path
     d="M 3,9.796875 C 3,6.043188 6.245938,3 10.25,3 h 43.500005 c 4.00417,0 7.25,3.043188 7.25,6.796875 v 40.781249 c 0,3.753693 -3.24583,6.796876 -7.25,6.796876 H 10.25 C 6.245938,57.375 3,54.331817 3,50.578124 Z"
     id="path738"
     style="fill:url(#linearGradient22065);fill-opacity:1;stroke-width:3.625" />
  <g
     fill-rule="evenodd"
     stroke-width="3.16"
     id="g1703"
     transform="matrix(1.446741,0,0,1.446741,-5.0185453,-7.6976636)">
    <path
       d="m 11.262,43.28 c 0,0 6.247,-21.963 30.565,-19.17 0,0 -15.455,-9.218 -30.458,3.209 -4.432,10.312 -0.107,15.96 -0.107,15.96 z"
       fill="url(#r)"
       id="path1689"
       style="fill:url(#r)" />
    <path
       d="m 13.122,40.502 c 0,0 6.518,-15.79 23.918,-16.067 -13.226,3.237 0.022,14.714 0.022,14.714 0,0 -10.462,9.523 -23.94,1.353 z"
       fill="url(#q)"
       id="path1691"
       style="fill:url(#q)" />
    <path
       d="m 9.492,28.398 c 0,0 13.02,-14.388 32.463,-4.447 -0.348,-2.704 -2.648,-5.756 -6.77,-6.628 -0.912,-0.436 -7.595,-10.813 -21.96,-4.84 4.419,0.346 6.315,0.968 6.423,1.44 -7.643,-1.32 -9.908,9.606 -10.156,14.475 z"
       fill="url(#p)"
       id="path1693"
       style="fill:url(#p)" />
    <path
       d="m 28.165,16.192 c 0,0 3.331,-1.198 3.765,2.367 -3.285,0.31 -3.765,-2.367 -3.765,-2.367 z"
       fill="#202020"
       id="path1695" />
    <path
       d="m 11.175,43.35 c 0,0 5.694,-18.662 24.734,-19.385 0,0 -15.45,-2.832 -26.362,14.534 -0.06,2.457 1.628,4.852 1.628,4.852 z"
       fill="url(#o)"
       id="path1697"
       style="fill:url(#o)" />
    <path
       d="m 13.24,12.485 c 0,0 4.75,0.278 6.445,1.45 0.708,-0.147 1.31,-0.634 1.411,-1.297 -0.607,-0.253 -6.167,-0.707 -7.855,-0.153 z"
       fill="url(#n)"
       id="path1699"
       style="fill:url(#n)" />
    <path
       d="m 9.535,28.423 c 0,0 5.946,-7.175 17.948,-8.032 0,0 -16.34,0.742 -17.71,5.377 -0.382,1.115 -0.238,2.655 -0.238,2.655 z"
       fill="url(#m)"
       id="path1701"
       style="fill:url(#m-3)" />
  </g>
</svg>
