<?xml version="1.0" encoding="UTF-8" standalone="no"?>
<svg
   width="64"
   height="64"
   version="1.1"
   id="svg23117"
   sodipodi:docname="goodvibes.svg"
   inkscape:version="1.2.1 (9c6d41e410, 2022-07-14)"
   xmlns:inkscape="http://www.inkscape.org/namespaces/inkscape"
   xmlns:sodipodi="http://sodipodi.sourceforge.net/DTD/sodipodi-0.dtd"
   xmlns:xlink="http://www.w3.org/1999/xlink"
   xmlns="http://www.w3.org/2000/svg"
   xmlns:svg="http://www.w3.org/2000/svg">
  <sodipodi:namedview
     id="namedview23119"
     pagecolor="#ffffff"
     bordercolor="#666666"
     borderopacity="1.0"
     inkscape:showpageshadow="2"
     inkscape:pageopacity="0.0"
     inkscape:pagecheckerboard="0"
     inkscape:deskcolor="#d1d1d1"
     showgrid="false"
     inkscape:zoom="4.9166667"
     inkscape:cx="24.508474"
     inkscape:cy="24.508474"
     inkscape:window-width="1920"
     inkscape:window-height="1002"
     inkscape:window-x="0"
     inkscape:window-y="0"
     inkscape:window-maximized="1"
     inkscape:current-layer="svg23117" />
  <defs
     id="defs23105">
    <linearGradient
       id="a"
       y1="547.63397"
       y2="499.67899"
       x2="388.86499"
       gradientUnits="userSpaceOnUse"
       gradientTransform="translate(-453.04388,-539.81483)"
       x1="428.81601">
      <stop
         stop-color="#2a2c2f"
         id="stop23090" />
      <stop
         offset="1"
         stop-color="#536161"
         id="stop23092" />
    </linearGradient>
    <linearGradient
       id="b"
       y1="44"
       y2="12"
       x2="14"
       gradientUnits="userSpaceOnUse"
       x1="36"
       gradientTransform="translate(-68.473879,-40.014831)">
      <stop
         stop-color="#536161"
         style="stop-color:#bfc9c9;stop-opacity:1"
         id="stop23095" />
      <stop
         offset="1"
         stop-color="#f4f5f5"
         style="stop-color:#fbfbfb;stop-opacity:1"
         id="stop23097" />
    </linearGradient>
    <linearGradient
       id="c"
       y1="527.01398"
       x1="406.50101"
       y2="539.82501"
       x2="419.974"
       gradientUnits="userSpaceOnUse"
       gradientTransform="translate(-453.04388,-539.81483)">
      <stop
         stop-color="#292c2f"
         id="stop23100" />
      <stop
         offset="1"
         stop-opacity="0"
         id="stop23102" />
    </linearGradient>
    <linearGradient
       inkscape:collect="always"
       xlink:href="#linearGradient22063"
       id="linearGradient22065"
       x1="-14"
       y1="6"
       x2="-14"
       y2="-9.999999"
       gradientUnits="userSpaceOnUse"
       gradientTransform="matrix(3.6250002,0,0,3.6250002,82.750005,39.249999)" />
    <linearGradient
       inkscape:collect="always"
       id="linearGradient22063">
      <stop
         style="stop-color:#292f3a;stop-opacity:1;"
         offset="0"
         id="stop22059" />
      <stop
         style="stop-color:#535e75;stop-opacity:1;"
         offset="1"
         id="stop22061" />
    </linearGradient>
    <linearGradient
       gradientTransform="matrix(1.4175135,0,0,1.4175135,-0.97261301,0.3330346)"
       id="b-3"
       y1="23.774559"
       x1="22.540125"
       y2="35.804409"
       x2="35.770538"
       gradientUnits="userSpaceOnUse">
      <stop
         stop-color="#292c2f"
         id="stop12" />
      <stop
         offset="1"
         stop-color="#292c2f"
         stop-opacity="0"
         id="stop14" />
    </linearGradient>
    <linearGradient
       xlink:href="#linearGradient4564"
       id="linearGradient4570"
       x1="18.653"
       y1="20.191"
       x2="7.4320002"
       y2="8.5249996"
       gradientUnits="userSpaceOnUse"
       gradientTransform="matrix(0.99999999,0,0,1.1578948,8.0000025,3.1451316)" />
    <linearGradient
       id="linearGradient4564">
      <stop
         style="stop-color:#ffa92d;stop-opacity:1;"
         offset="0"
         id="stop4566" />
      <stop
         style="stop-color:#ffc169;stop-opacity:1"
         offset="1"
         id="stop4568" />
    </linearGradient>
    <linearGradient
       xlink:href="#linearGradient4574"
       id="linearGradient4580"
       x1="28.615"
       y1="21.502001"
       x2="39.939999"
       y2="10.118"
       gradientUnits="userSpaceOnUse"
       gradientTransform="matrix(0.99999999,0,0,1.1578948,8.0000025,3.1451316)" />
    <linearGradient
       id="linearGradient4574">
      <stop
         style="stop-color:#bf4231;stop-opacity:1;"
         offset="0"
         id="stop4576" />
      <stop
         style="stop-color:#f58273;stop-opacity:1"
         offset="1"
         id="stop4578" />
    </linearGradient>
    <linearGradient
       xlink:href="#linearGradient4590"
       id="linearGradient4596"
       x1="33.241001"
       y1="30.191"
       x2="40.393002"
       y2="37.416"
       gradientUnits="userSpaceOnUse"
       gradientTransform="matrix(0.99999999,0,0,1.1578948,8.0000025,3.1451316)" />
    <linearGradient
       id="linearGradient4590">
      <stop
         id="stop4594"
         offset="0"
         style="stop-color:#54d883;stop-opacity:1" />
      <stop
         id="stop4592"
         offset="1"
         style="stop-color:#3bb566;stop-opacity:1;" />
    </linearGradient>
    <linearGradient
       xlink:href="#linearGradient4582"
       id="linearGradient4588"
       x1="19.830999"
       y1="26.561001"
       x2="9.6899996"
       y2="37.881001"
       gradientUnits="userSpaceOnUse"
       gradientTransform="matrix(0.99999999,0,0,1.1578948,8.0000025,3.1451316)" />
    <linearGradient
       id="linearGradient4582">
      <stop
         id="stop4586"
         offset="0"
         style="stop-color:#7cbcec;stop-opacity:1" />
      <stop
         id="stop4584"
         offset="1"
         style="stop-color:#3b85b5;stop-opacity:1;" />
    </linearGradient>
    <linearGradient
       xlink:href="#linearGradient4626"
       id="linearGradient4632"
       x1="23.693001"
       y1="21.277"
       x2="34.937"
       y2="32.521999"
       gradientUnits="userSpaceOnUse"
       gradientTransform="matrix(1.1,0,0,1.1,5.6000025,4.5346056)" />
    <linearGradient
       id="linearGradient4626">
      <stop
         style="stop-color:#000000;stop-opacity:1;"
         offset="0"
         id="stop4628" />
      <stop
         style="stop-color:#000000;stop-opacity:0;"
         offset="1"
         id="stop4630" />
    </linearGradient>
    <linearGradient
       xlink:href="#linearGradient4598"
       id="linearGradient4604"
       x1="27.197001"
       y1="33.474998"
       x2="21.365999"
       y2="14.901"
       gradientUnits="userSpaceOnUse"
       gradientTransform="matrix(1.1,0,0,1.32,5.6000025,-0.74539444)" />
    <linearGradient
       id="linearGradient4598">
      <stop
         style="stop-color:#172525;stop-opacity:1;"
         offset="0"
         id="stop4600" />
      <stop
         style="stop-color:#334545;stop-opacity:1"
         offset="1"
         id="stop4602" />
    </linearGradient>
    <linearGradient
       xlink:href="#linearGradient4656"
       id="linearGradient4662"
       x1="19.025"
       y1="15.232"
       x2="29.945999"
       y2="31.764999"
       gradientUnits="userSpaceOnUse"
       gradientTransform="matrix(1.1,0,0,1.1,6.7000025,4.5346056)" />
    <linearGradient
       id="linearGradient4656">
      <stop
         style="stop-color:#ffffff;stop-opacity:1;"
         offset="0"
         id="stop4658" />
      <stop
         style="stop-color:#536161;stop-opacity:1"
         offset="1"
         id="stop4660" />
    </linearGradient>
    <linearGradient
       id="d"
       gradientTransform="matrix(2.114694,2.114694,-2.114694,2.114694,3.2088125,-828.15895)"
       gradientUnits="userSpaceOnUse"
       x1="210.5"
       x2="210.5"
       y1="188"
       y2="193.5">
      <stop
         offset="0"
         stop-color="#9b9ea2"
         id="stop17" />
      <stop
         offset="1"
         stop-color="#1a1b1e"
         id="stop19" />
    </linearGradient>
    <linearGradient
       id="a-3"
       gradientTransform="matrix(3.4959872,0,0,3.4959871,1.30074,3.299862)"
       gradientUnits="userSpaceOnUse"
       x1="8.5"
       x2="0.5"
       y1="7.6373668"
       y2="-0.371815">
      <stop
         offset="0"
         stop-color="#4f5356"
         id="stop2" />
      <stop
         offset="1"
         stop-color="#9b9ea2"
         stop-opacity="1"
         id="stop4" />
    </linearGradient>
    <radialGradient
       id="b-6"
       cx="16"
       cy="17"
       gradientUnits="userSpaceOnUse"
       r="11">
      <stop
         offset="0"
         stop-color="#3dd425"
         stop-opacity=".954751"
         id="stop7" />
      <stop
         offset="1"
         stop-color="#59f07c"
         id="stop9" />
    </radialGradient>
    <linearGradient
       id="c-7"
       gradientUnits="userSpaceOnUse"
       x1="14.541744"
       x2="26.541744"
       y1="16"
       y2="28"
       gradientTransform="matrix(1.5,0,0,1.5,8.0000025,7.0414438)">
      <stop
         offset="0"
         id="stop12-5" />
      <stop
         offset="1"
         stop-opacity="0"
         id="stop14-3" />
    </linearGradient>
    <linearGradient
       xlink:href="#linearGradient564"
       id="linearGradient4309"
       x1="7.6230001"
       y1="16.497"
       x2="46"
       y2="40"
       gradientUnits="userSpaceOnUse"
       gradientTransform="matrix(1.1277754,0,0,1.1277754,4.5436767,1.4778)" />
    <linearGradient
       id="linearGradient564">
      <stop
         style="stop-color:#5e98d7;stop-opacity:1"
         offset="0"
         id="stop223" />
      <stop
         style="stop-color:#3363ac;stop-opacity:1"
         offset="1"
         id="stop225" />
    </linearGradient>
    <linearGradient
       xlink:href="#linearGradient4626"
       id="linearGradient4419"
       x1="4"
       y1="29"
       x2="15.409"
       y2="40.409"
       gradientUnits="userSpaceOnUse"
       gradientTransform="matrix(1.1277754,0,0,1.1277754,4.5436767,3.7338968)" />
    <linearGradient
       xlink:href="#linearGradient4626"
       id="linearGradient4407"
       x1="10"
       y1="8"
       x2="33.004002"
       y2="31.004"
       gradientUnits="userSpaceOnUse"
       gradientTransform="matrix(1.1277754,0,0,1.1277754,4.5436767,3.7338968)" />
    <linearGradient
       x1="27.719999"
       y1="14.786"
       x2="27.719999"
       y2="24.357"
       id="linearGradient3432"
       xlink:href="#linearGradient4321"
       gradientUnits="userSpaceOnUse"
       gradientTransform="matrix(1.0609217,0,0,1.4140536,-9.076381,-2.5141373)"
       spreadMethod="pad" />
    <linearGradient
       id="linearGradient4321">
      <stop
         offset="0"
         style="stop-color:#ffffff;stop-opacity:1"
         id="stop213" />
      <stop
         offset="1"
         style="stop-color:#b1b1b1;stop-opacity:1"
         id="stop215" />
    </linearGradient>
    <linearGradient
       xlink:href="#linearGradient4192"
       id="linearGradient4333"
       x1="17"
       y1="18"
       x2="11.574"
       y2="9.3629999"
       gradientUnits="userSpaceOnUse"
       gradientTransform="matrix(1.1277754,0,0,1.1277754,4.5436767,1.4778)" />
    <linearGradient
       id="linearGradient4192">
      <stop
         style="stop-color:#44a3c8;stop-opacity:1"
         offset="0"
         id="stop198" />
      <stop
         style="stop-color:#8dcdda;stop-opacity:1"
         offset="1"
         id="stop200" />
    </linearGradient>
    <linearGradient
       xlink:href="#linearGradient4313"
       id="linearGradient4319"
       x1="12"
       y1="18"
       x2="14"
       y2="20"
       gradientUnits="userSpaceOnUse"
       gradientTransform="matrix(1.1277754,0,0,1.1277754,5.1075644,1.5905776)" />
    <linearGradient
       id="linearGradient4313">
      <stop
         style="stop-color:#ffffff;stop-opacity:1;"
         offset="0"
         id="stop218" />
      <stop
         style="stop-color:#ffffff;stop-opacity:0;"
         offset="1"
         id="stop220" />
    </linearGradient>
    <linearGradient
       xlink:href="#linearGradient4192"
       id="linearGradient4350"
       x1="13"
       y1="38"
       x2="4"
       y2="30"
       gradientUnits="userSpaceOnUse"
       gradientTransform="matrix(1.1277754,0,0,1.1277754,4.5436767,1.4778)" />
    <linearGradient
       gradientTransform="matrix(0.33710364,0,0,0.33162938,257.3899,363.04509)"
       xlink:href="#linearGradient3347"
       id="linearGradient3353"
       x1="376.91901"
       y1="410.05899"
       x2="528.57098"
       y2="561.711"
       gradientUnits="userSpaceOnUse" />
    <linearGradient
       id="linearGradient3347">
      <stop
         style="stop-color:#006680;stop-opacity:1;"
         offset="0"
         id="stop215-3" />
      <stop
         offset=".252"
         style="stop-color:#80b3ff;stop-opacity:1"
         id="stop217" />
      <stop
         style="stop-color:#0066ff;stop-opacity:1"
         offset=".459"
         id="stop219" />
      <stop
         offset=".899"
         style="stop-color:#002255;stop-opacity:1"
         id="stop221" />
      <stop
         style="stop-color:#006680;stop-opacity:0;"
         offset="1"
         id="stop223-6" />
    </linearGradient>
    <linearGradient
       id="linearGradient1102"
       x1="5"
       x2="5"
       y1="12"
       y2="11"
       gradientTransform="translate(-1.1755406,6.7163796)"
       gradientUnits="userSpaceOnUse">
      <stop
         id="stop1096"
         stop-color="#95a5a6"
         offset="0" />
      <stop
         id="stop1098"
         stop-color="#bdc3c7"
         offset="1" />
    </linearGradient>
    <linearGradient
       id="linearGradient845"
       x1="4"
       x2="4"
       y1="41"
       gradientUnits="userSpaceOnUse">
      <stop
         id="stop839"
         stop-color="#f39c1f"
         offset="0" />
      <stop
         id="stop841"
         stop-color="#fdbc4b"
         offset="1" />
    </linearGradient>
    <linearGradient
       id="linearGradient941"
       x1="7"
       x2="7"
       y1="27"
       y2="19"
       gradientUnits="userSpaceOnUse">
      <stop
         id="stop935"
         stop-color="#cacaca"
         offset="0" />
      <stop
         id="stop937"
         stop-color="#eff0f1"
         offset="1" />
    </linearGradient>
    <linearGradient
       id="linearGradient1006"
       x1="14"
       x2="14"
       y1="24"
       y2="20"
       gradientUnits="userSpaceOnUse">
      <stop
         id="stop1000"
         stop-color="#e74c3c"
         offset="0" />
      <stop
         id="stop1002"
         stop-color="#c0392b"
         offset="1" />
    </linearGradient>
    <linearGradient
       id="linearGradient1274"
       x1="40"
       x2="44"
       y1="27"
       y2="27"
       gradientUnits="userSpaceOnUse">
      <stop
         id="stop1268"
         stop-color="#1f8b4d"
         offset="0" />
      <stop
         id="stop1270"
         stop-color="#27ae60"
         offset="1" />
    </linearGradient>
    <linearGradient
       id="linearGradient1303"
       x1="40"
       x2="44"
       y1="27"
       y2="27"
       gradientTransform="translate(0,2)"
       gradientUnits="userSpaceOnUse">
      <stop
         id="stop1306"
         stop-color="#a1a52f"
         offset="0" />
      <stop
         id="stop1308"
         stop-color="#fdbc4b"
         offset="1" />
    </linearGradient>
    <linearGradient
       id="linearGradient1339"
       x1="40"
       x2="44"
       y1="27"
       y2="27"
       gradientTransform="translate(0,4)"
       gradientUnits="userSpaceOnUse">
      <stop
         id="stop1342"
         stop-color="#832932"
         offset="0" />
      <stop
         id="stop1344"
         stop-color="#c0392b"
         offset="1" />
    </linearGradient>
    <linearGradient
       id="linearGradient1263"
       x1="7"
       x2="20"
       y1="27"
       y2="40"
       gradientUnits="userSpaceOnUse"
       xlink:href="#linearGradient4626" />
    <linearGradient
       id="linearGradient1027"
       x1="7"
       x2="18"
       y1="27"
       y2="38"
       gradientUnits="userSpaceOnUse">
      <stop
         id="stop1021"
         stop-color="#95a5a6"
         offset="0" />
      <stop
         id="stop1023"
         stop-color="#7f8c8d"
         offset="1" />
    </linearGradient>
    <linearGradient
       id="linearGradient1235"
       x1="12.49489"
       x2="12.49489"
       y1="24.723755"
       y2="40.280102"
       gradientTransform="rotate(-45,12.495117,32.494796)"
       gradientUnits="userSpaceOnUse"
       xlink:href="#linearGradient1220" />
    <linearGradient
       id="linearGradient1220">
      <stop
         id="stop1216"
         stop-color="#667071"
         offset="0" />
      <stop
         id="stop1218"
         stop-color="#596364"
         offset="1" />
    </linearGradient>
    <linearGradient
       id="linearGradient1089"
       x1="13"
       x2="27"
       y1="26"
       y2="40"
       gradientTransform="translate(16)"
       gradientUnits="userSpaceOnUse"
       xlink:href="#linearGradient4626" />
    <linearGradient
       id="linearGradient1365"
       x1="21"
       x2="21"
       y1="39"
       y2="18"
       gradientUnits="userSpaceOnUse"
       xlink:href="#linearGradient1363" />
    <linearGradient
       id="linearGradient1363">
      <stop
         id="stop1359"
         stop-color="#7f8c8d"
         offset="0" />
      <stop
         id="stop1361"
         stop-color="#bdc3c7"
         offset="1" />
    </linearGradient>
    <linearGradient
       id="linearGradient1414"
       x1="21"
       x2="21"
       y1="39"
       y2="18"
       gradientTransform="matrix(0.65656568,0,0,0.65656568,-22.803139,-61.138529)"
       gradientUnits="userSpaceOnUse"
       xlink:href="#linearGradient1363" />
    <linearGradient
       id="linearGradient925"
       x1="21.999609"
       x2="40.999611"
       y1="18.999609"
       y2="37.999607"
       gradientTransform="translate(3.9020774e-4,3.9100774e-4)"
       gradientUnits="userSpaceOnUse"
       xlink:href="#linearGradient1220" />
  </defs>
  <path
     d="M 3,10.25 C 3,6.245825 6.245938,3 10.25,3 h 43.500005 c 4.00417,0 7.25,3.245825 7.25,7.25 v 43.5 c 0,4.004173 -3.24583,7.25 -7.25,7.25 H 10.25 C 6.245938,61 3,57.754173 3,53.75 Z"
     id="path736"
     style="fill:#606c86;fill-opacity:1;stroke-width:3.625" />
  <path
     d="M 3,9.796875 C 3,6.043188 6.245938,3 10.25,3 h 43.500005 c 4.00417,0 7.25,3.043188 7.25,6.796875 v 40.781249 c 0,3.753693 -3.24583,6.796876 -7.25,6.796876 H 10.25 C 6.245938,57.375 3,54.331817 3,50.578124 Z"
     id="path738"
     style="fill:url(#linearGradient22065);fill-opacity:1;stroke-width:3.625" />
  <g
     id="g931"
     transform="matrix(1.2,0,0,1.2,3.2,1.4532751)"
     stroke-miterlimit="0">
    <rect
       id="rect1094"
       transform="rotate(-15)"
       x="3.8244593"
       y="17.716379"
       width="24"
       height="1"
       fill="url(#linearGradient1102)"
       stop-color="#000000"
       stroke-width="0.388604"
       style="fill:url(#linearGradient1102)" />
    <g
       stroke-width="0.377953"
       id="g258">
      <rect
         id="rect837"
         x="4"
         y="16"
         width="40"
         height="25"
         rx="3"
         ry="3"
         fill="url(#linearGradient845)"
         style="fill:url(#linearGradient845)" />
      <path
         id="rect837-0"
         d="m 4,37 v 1 c 0,1.662 1.338,3 3,3 h 34 c 1.662,0 3,-1.338 3,-3 v -1 c 0,1.662 -1.338,3 -3,3 H 7 C 5.338,40 4,38.662 4,37 Z"
         fill="#c27d19" />
      <path
         id="rect837-0-0"
         d="m 44,20 v -1 c 0,-1.662 -1.338,-3 -3,-3 H 7 c -1.662,0 -3,1.338 -3,3 v 1 c 0,-1.662 1.338,-3 3,-3 h 34 c 1.662,0 3,1.338 3,3 z"
         fill="#fdbc4b" />
    </g>
  </g>
  <g
     id="g1016"
     transform="matrix(1.2,0,0,1.2,3.2,1.4532751)"
     stroke-miterlimit="0"
     stroke-width="0.377953">
    <rect
       id="rect933"
       x="7"
       y="19"
       width="11"
       height="5"
       rx="1"
       ry="1"
       fill="url(#linearGradient941)"
       style="fill:url(#linearGradient941)" />
    <g
       id="g267">
      <path
         id="rect933-7"
         d="m 8,19 c -0.554,0 -1,0.446 -1,1 v 1 c 0,-0.554 0.446,-1 1,-1 h 9 c 0.554,0 1,0.446 1,1 v -1 c 0,-0.554 -0.446,-1 -1,-1 z"
         fill="#18465d"
         opacity="0.35"
         stop-color="#000000"
         style="font-variation-settings:normal" />
      <path
         id="rect933-7-2"
         d="m 17,25 c 0.554,0 1,-0.446 1,-1 v -1 c 0,0.554 -0.446,1 -1,1 H 8 C 7.446,24 7,23.554 7,23 v 1 c 0,0.554 0.446,1 1,1 z"
         opacity="0.15"
         stop-color="#000000"
         style="font-variation-settings:normal" />
      <path
         id="rect957"
         d="m 8,20 v 2 h 1 v -2 z m 2,0 v 2 h 1 v -2 z m 2,0 v 2 h 1 v -2 z m 4,0 v 2 h 1 v -2 z"
         fill="#45443f"
         stop-color="#000000"
         style="font-variation-settings:normal" />
      <rect
         id="rect998"
         x="14"
         y="20"
         width="1"
         height="4"
         fill="url(#linearGradient1006)"
         stop-color="#000000"
         style="font-variation-settings:normal;fill:url(#linearGradient1006)" />
      <rect
         id="rect1008"
         x="14"
         y="19"
         width="1"
         height="1"
         fill="#9a2e22"
         stop-color="#000000"
         style="font-variation-settings:normal" />
    </g>
  </g>
  <g
     id="g1351"
     transform="matrix(1.2,0,0,1.2,3.2,1.4532751)">
    <rect
       id="rect1266"
       x="40"
       y="25"
       width="4"
       height="2"
       fill="url(#linearGradient1274)"
       stop-color="#000000"
       style="font-variation-settings:normal;fill:url(#linearGradient1274)" />
    <rect
       id="rect1266-8"
       x="40"
       y="27"
       width="4"
       height="2"
       fill="url(#linearGradient1303)"
       stop-color="#000000"
       style="font-variation-settings:normal;fill:url(#linearGradient1303)" />
    <rect
       id="rect1266-8-1"
       x="40"
       y="29"
       width="4"
       height="2"
       fill="url(#linearGradient1339)"
       stop-color="#000000"
       style="font-variation-settings:normal;fill:url(#linearGradient1339)" />
  </g>
  <g
     id="g1240"
     transform="matrix(1.2,0,0,1.2,3.2,1.4532751)">
    <path
       id="path1242"
       d="m 16.5,28.5 -8,8 3.5,3.5 h 16 z"
       fill="url(#linearGradient1263)"
       opacity="0.25"
       style="fill:url(#linearGradient1263)" />
    <g
       stroke-miterlimit="0"
       stroke-width="0.388604"
       id="g278">
      <path
         id="path1018"
         d="m 16.422954,36.563194 a 5.6549999,5.6549999 0 0 1 -7.9961476,-0.14024 5.6549999,5.6549999 0 0 1 0.1402393,-7.996148 5.6549999,5.6549999 0 0 1 7.9961473,0.14024 5.6549999,5.6549999 0 0 1 -0.140239,7.996148 z"
         fill="url(#linearGradient1027)"
         stop-color="#000000"
         style="font-variation-settings:normal;fill:url(#linearGradient1027)" />
      <path
         id="path1018-8"
         d="m 8.5372034,28.4554 a 5.6549999,5.6549999 0 0 0 -0.3756505,0.406033 l 0.7098688,0.709869 0.8024007,0.802401 0.7071066,0.707107 0.707107,-0.707107 L 10.380929,29.666596 9.5799101,28.865577 8.8700407,28.155708 A 5.6549999,5.6549999 0 0 0 8.5372034,28.4554 Z M 7.5815047,29.695599 A 5.6549999,5.6549999 0 0 0 6.8412518,32.396967 5.6549999,5.6549999 0 0 0 12.397288,38.149115 5.6549999,5.6549999 0 0 0 18.149436,32.593079 5.6549999,5.6549999 0 0 0 12.5934,26.840931 5.6549999,5.6549999 0 0 0 9.705587,27.57704 l 0.738871,0.738872 a 4.6550001,4.6550001 0 0 1 2.132369,-0.475088 4.6550001,4.6550001 0 0 1 4.572716,4.735682 4.6550001,4.6550001 0 0 1 -4.735682,4.572716 4.6550001,4.6550001 0 0 1 -4.572716,-4.735682 4.6550001,4.6550001 0 0 1 0.4792312,-1.97907 z"
         fill="url(#linearGradient1235)"
         stop-color="#000000"
         style="font-variation-settings:normal;fill:url(#linearGradient1235)" />
      <path
         id="path1018-3"
         d="M 6.9296875,32.492 A 5.6549999,5.6549999 0 0 0 8.4277344,37.42364 5.6549999,5.6549999 0 0 0 16.423828,37.562312 5.6549999,5.6549999 0 0 0 18.060547,32.492 5.6549999,5.6549999 0 0 1 16.423828,35.562312 5.6549999,5.6549999 0 0 1 8.4277344,35.42364 5.6549999,5.6549999 0 0 1 6.9296875,32.492 Z"
         opacity="0.15"
         stop-color="#000000"
         style="font-variation-settings:normal" />
    </g>
  </g>
  <g
     id="g1449"
     transform="matrix(1.2,0,0,1.2,3.2,1.4532751)">
    <path
       id="path1242-5"
       d="m 39,22 -14,14 4,4 H 44 V 27 Z"
       fill="url(#linearGradient1089)"
       opacity="0.25"
       style="fill:url(#linearGradient1089)" />
    <circle
       id="path1357"
       cx="31.5"
       cy="28.5"
       r="9.8999996"
       fill="url(#linearGradient1365)"
       stop-color="#000000"
       style="font-variation-settings:normal;fill:url(#linearGradient1365)" />
    <circle
       id="path1357-9"
       transform="rotate(135)"
       cx="-2.1213202"
       cy="-42.426407"
       r="6.5"
       fill="url(#linearGradient1414)"
       stop-color="#000000"
       style="font-variation-settings:normal;fill:url(#linearGradient1414)" />
    <circle
       id="path1357-9-7"
       transform="rotate(135)"
       cx="-2.121321"
       cy="-42.426407"
       r="2.5"
       fill="#45443f"
       stop-color="#000000"
       style="font-variation-settings:normal" />
    <path
       id="path1357-3"
       d="m 21.650391,28.5 a 9.8999996,9.8999996 0 0 0 -0.05078,1 A 9.8999996,9.8999996 0 0 0 31.5,39.400391 9.8999996,9.8999996 0 0 0 41.400391,29.5 9.8999996,9.8999996 0 0 0 41.349609,28.501953 9.8999996,9.8999996 0 0 1 31.5,37.400391 9.8999996,9.8999996 0 0 1 21.650391,28.5 Z"
       opacity="0.15"
       stop-color="#000000"
       style="font-variation-settings:normal" />
    <path
       id="path1357-5"
       d="M 31.500391,18.6 A 9.8999996,9.8999996 0 0 0 21.6,28.500391 9.8999996,9.8999996 0 0 0 31.500391,38.400782 9.8999996,9.8999996 0 0 0 41.400782,28.500391 9.8999996,9.8999996 0 0 0 31.500391,18.6 Z m 0,1 a 8.8999996,8.8999996 0 0 1 8.900391,8.900391 8.8999996,8.8999996 0 0 1 -8.900391,8.900391 A 8.8999996,8.8999996 0 0 1 22.6,28.500391 8.8999996,8.8999996 0 0 1 31.500391,19.6 Z"
       fill="url(#linearGradient925)"
       stop-color="#000000"
       style="font-variation-settings:normal;fill:url(#linearGradient925)" />
  </g>
</svg>
