<?xml version="1.0" encoding="UTF-8" standalone="no"?>
<svg
   version="1.1"
   viewBox="0 0 64 64"
   id="svg32"
   sodipodi:docname="applications-all.svg"
   width="64"
   height="64"
   inkscape:version="1.2.1 (9c6d41e410, 2022-07-14)"
   xmlns:inkscape="http://www.inkscape.org/namespaces/inkscape"
   xmlns:sodipodi="http://sodipodi.sourceforge.net/DTD/sodipodi-0.dtd"
   xmlns:xlink="http://www.w3.org/1999/xlink"
   xmlns="http://www.w3.org/2000/svg"
   xmlns:svg="http://www.w3.org/2000/svg">
  <sodipodi:namedview
     id="namedview34"
     pagecolor="#ffffff"
     bordercolor="#666666"
     borderopacity="1.0"
     inkscape:showpageshadow="2"
     inkscape:pageopacity="0.0"
     inkscape:pagecheckerboard="0"
     inkscape:deskcolor="#d1d1d1"
     showgrid="false"
     inkscape:zoom="7.375"
     inkscape:cx="16.067797"
     inkscape:cy="37.762712"
     inkscape:window-width="1920"
     inkscape:window-height="1002"
     inkscape:window-x="0"
     inkscape:window-y="0"
     inkscape:window-maximized="1"
     inkscape:current-layer="svg32" />
  <defs
     id="defs12">
    <linearGradient
       id="b"
       x1="-41.259998"
       x2="-2.994"
       y1="-0.88300002"
       y2="37.956001"
       gradientTransform="matrix(0.73180945,0,0,0.72091894,416.0252,517.69779)"
       gradientUnits="userSpaceOnUse">
      <stop
         stop-color="#21c9fb"
         offset="0"
         id="stop2" />
      <stop
         stop-color="#1a86f2"
         offset="1"
         id="stop4" />
    </linearGradient>
    <linearGradient
       id="a"
       x1="4"
       x2="44"
       y1="4"
       y2="44"
       gradientTransform="matrix(0.69444447,0,0,0.69444447,384.01587,515.24246)"
       gradientUnits="userSpaceOnUse">
      <stop
         offset="0"
         id="stop7" />
      <stop
         stop-opacity="0"
         offset="1"
         id="stop9" />
    </linearGradient>
    <linearGradient
       inkscape:collect="always"
       xlink:href="#linearGradient22063"
       id="linearGradient22065"
       x1="-22"
       y1="5.1111121"
       x2="-6.4444442"
       y2="-9.1111107"
       gradientUnits="userSpaceOnUse"
       gradientTransform="matrix(3.6250002,0,0,3.6250002,82.750001,39.249999)" />
    <linearGradient
       inkscape:collect="always"
       id="linearGradient22063">
      <stop
         style="stop-color:#88c0d0;stop-opacity:1;"
         offset="0"
         id="stop22059" />
      <stop
         style="stop-color:#5e81ac;stop-opacity:1;"
         offset="1"
         id="stop22061" />
    </linearGradient>
  </defs>
  <path
     d="m 2.9999985,10.25 c 0,-4.004175 3.245938,-7.25 7.2500005,-7.25 h 43.500003 c 4.004173,0 7.25,3.245825 7.25,7.25 v 43.5 c 0,4.004173 -3.245827,7.25 -7.25,7.25 H 10.249999 C 6.2459365,61 2.9999985,57.754173 2.9999985,53.75 Z"
     id="path736"
     style="fill:#606c86;fill-opacity:1;stroke-width:3.625" />
  <path
     d="M 2.9999985,9.796875 C 2.9999985,6.043188 6.2459365,3 10.249999,3 h 43.500003 c 4.004173,0 7.25,3.043188 7.25,6.796875 v 40.781249 c 0,3.753693 -3.245827,6.796876 -7.25,6.796876 H 10.249999 c -4.0040625,0 -7.2500005,-3.043183 -7.2500005,-6.796876 z"
     id="path738"
     style="fill:url(#linearGradient22065);fill-opacity:1;stroke-width:3.625" />
  <g
     fill="#eceff4"
     stroke-linecap="round"
     stroke-linejoin="round"
     id="g1336"
     transform="matrix(1.8181818,0,0,1.8181818,3.159091,2.699091)">
    <path
       d="M 7,5 C 5.892,5 5,5.892 5,7 v 6 c 0,1.108 0.892,2 2,2 h 6 c 1.108,0 2,-0.892 2,-2 V 7 C 15,5.892 14.108,5 13,5 Z m 0,1 h 6 c 0.554,0 1,0.446 1,1 v 6 c 0,0.554 -0.446,1 -1,1 H 7 C 6.446,14 6,13.554 6,13 V 7 C 6,6.446 6.446,6 7,6 Z"
       opacity="0.9"
       id="path1328" />
    <path
       d="m 19,5 c -1.108,0 -2,0.892 -2,2 v 6 c 0,1.108 0.892,2 2,2 h 6 c 1.108,0 2,-0.892 2,-2 V 7 C 27,5.892 26.108,5 25,5 Z m 0,1 h 6 c 0.554,0 1,0.446 1,1 v 6 c 0,0.554 -0.446,1 -1,1 h -6 c -0.554,0 -1,-0.446 -1,-1 V 7 c 0,-0.554 0.446,-1 1,-1 z"
       opacity="0.9"
       id="path1330" />
    <path
       d="m 7,17 c -1.108,0 -2,0.892 -2,2 v 6 c 0,1.108 0.892,2 2,2 h 6 c 1.108,0 2,-0.892 2,-2 v -6 c 0,-1.108 -0.892,-2 -2,-2 z m 0,1 h 6 c 0.554,0 1,0.446 1,1 v 6 c 0,0.554 -0.446,1 -1,1 H 7 C 6.446,26 6,25.554 6,25 v -6 c 0,-0.554 0.446,-1 1,-1 z"
       opacity="0.9"
       id="path1332" />
    <path
       d="m 19,17 c -1.108,0 -2,0.892 -2,2 v 6 c 0,1.108 0.892,2 2,2 h 6 c 1.108,0 2,-0.892 2,-2 v -6 c 0,-1.108 -0.892,-2 -2,-2 z m 0,1 h 6 c 0.554,0 1,0.446 1,1 v 6 c 0,0.554 -0.446,1 -1,1 h -6 c -0.554,0 -1,-0.446 -1,-1 v -6 c 0,-0.554 0.446,-1 1,-1 z"
       opacity="0.9"
       id="path1334" />
  </g>
</svg>
