<?xml version="1.0" encoding="UTF-8" standalone="no"?>
<!-- Generator: Adobe Illustrator 18.0.0, SVG Export Plug-In . SVG Version: 6.00 Build 0)  -->

<svg
   version="1.1"
   id="图层_1"
   x="0px"
   y="0px"
   viewBox="0 0 64 64"
   enable-background="new 0 0 48 48"
   xml:space="preserve"
   sodipodi:docname="hotshots.svg"
   width="64"
   height="64"
   inkscape:version="1.2.1 (9c6d41e410, 2022-07-14)"
   xmlns:inkscape="http://www.inkscape.org/namespaces/inkscape"
   xmlns:sodipodi="http://sodipodi.sourceforge.net/DTD/sodipodi-0.dtd"
   xmlns:xlink="http://www.w3.org/1999/xlink"
   xmlns="http://www.w3.org/2000/svg"
   xmlns:svg="http://www.w3.org/2000/svg"><defs
   id="defs370"><linearGradient
   inkscape:collect="always"
   xlink:href="#linearGradient22063"
   id="linearGradient22065"
   x1="-14"
   y1="6"
   x2="-14"
   y2="-9.999999"
   gradientUnits="userSpaceOnUse"
   gradientTransform="matrix(3.6250002,0,0,3.6250002,82.750005,39.249999)" /><linearGradient
   inkscape:collect="always"
   id="linearGradient22063"><stop
     style="stop-color:#292f3a;stop-opacity:1;"
     offset="0"
     id="stop22059" /><stop
     style="stop-color:#535e75;stop-opacity:1;"
     offset="1"
     id="stop22061" /></linearGradient>
	
		
	

		
	
			
			
			
			
			
			
			
			
			
			
			
			
			
			
			
			
			
				
			
				
		
				
				
			</defs><sodipodi:namedview
   id="namedview368"
   pagecolor="#ffffff"
   bordercolor="#666666"
   borderopacity="1.0"
   inkscape:showpageshadow="2"
   inkscape:pageopacity="0.0"
   inkscape:pagecheckerboard="0"
   inkscape:deskcolor="#d1d1d1"
   showgrid="false"
   inkscape:zoom="4.9166667"
   inkscape:cx="24"
   inkscape:cy="24.101695"
   inkscape:window-width="1920"
   inkscape:window-height="1008"
   inkscape:window-x="0"
   inkscape:window-y="0"
   inkscape:window-maximized="1"
   inkscape:current-layer="图层_1" />

<path
   d="M 3,10.25 C 3,6.245825 6.245938,3 10.25,3 h 43.500005 c 4.00417,0 7.25,3.245825 7.25,7.25 v 43.5 c 0,4.004173 -3.24583,7.25 -7.25,7.25 H 10.25 C 6.245938,61 3,57.754173 3,53.75 Z"
   id="path736"
   style="fill:#606c86;fill-opacity:1;stroke-width:3.625" /><path
   d="M 3,9.796875 C 3,6.043188 6.245938,3 10.25,3 h 43.500005 c 4.00417,0 7.25,3.043188 7.25,6.796875 v 40.781249 c 0,3.753693 -3.24583,6.796876 -7.25,6.796876 H 10.25 C 6.245938,57.375 3,54.331817 3,50.578124 Z"
   id="path738"
   style="fill:url(#linearGradient22065);fill-opacity:1;stroke-width:3.625" /><path
   fill="#f87411"
   d="m 52.383099,10.439733 c 0,0 -10.882848,0.211318 -6.128209,16.482757 0,0 8.980996,23.139248 -11.411132,24.935447 0,0 -12.996023,0.845269 -15.21485,-7.396107 0,0 -13.312997,-17.116709 2.958441,-20.814761 0,0 -5.916882,3.592391 -1.162242,9.192306 0,0 -3.064105,-7.396109 4.860296,-8.558358 0,0 9.614937,-1.901856 4.648985,-10.143229 0,0 6.973469,3.27542 6.550832,12.256402 0,0 1.373569,-2.535803 0.633957,-6.762149 0,-0.211321 -2.218837,-14.5809014 14.263922,-9.192308 z"
   id="path325-3"
   style="stroke-width:1.05655" /><path
   fill="#ffba23"
   d="m 33.153217,50.273058 c -3.275416,0 -10.882842,-0.633957 -12.467722,-6.128202 l -0.105658,-0.211321 -0.105661,-0.211318 c -0.105655,-0.105655 -6.550841,-8.558355 -4.543323,-14.263922 0.528294,-1.479223 1.584881,-2.641466 3.169761,-3.486733 -0.211319,0.422628 -0.422638,0.950928 -0.528293,1.58488 -0.316974,2.007509 0.422635,3.909372 2.113174,5.916882 l 1.796192,-1.056581 c 0,0 -1.162243,-2.852792 0,-4.965966 0.633955,-1.162243 2.007517,-1.901854 4.015034,-2.218828 0.211321,0 4.860297,-0.950932 6.445177,-4.437668 0.528294,-1.16224 0.633951,-2.324492 0.422639,-3.592389 1.690535,1.690536 3.381073,4.648977 3.064102,9.086642 0,0 0,1.7962 0.316971,2.535807 0.950929,-0.739607 1.58488,-2.007512 1.58488,-2.007512 0.105662,-0.105656 1.58488,-2.958442 0.73961,-7.501771 0,0 -0.633948,-4.331997 1.58488,-6.973472 1.267912,-1.37356 2.95845,-2.007509 5.28294,-2.007509 0.84527,0 1.690537,0.105656 2.641461,0.211311 -0.845268,0.5283 -1.796191,1.267906 -2.641461,2.324494 -2.32449,3.16976 -2.535809,8.030058 -0.633954,14.369578 0.105655,0.211317 4.648984,11.094161 0.105655,17.645 -1.901848,2.74713 -5.282935,5.705572 -10.037575,5.705572 l -0.316974,-0.316974 h -0.105656 c 0.105656,0 -0.739612,0 -1.796199,0 z"
   id="path327-6"
   style="stroke-width:1.05655" /><circle
   fill="#3c3d3c"
   cx="29.983461"
   cy="40.552441"
   r="12.679046"
   id="circle329-7"
   style="stroke-width:1.05655" /><circle
   fill="#040505"
   cx="29.983461"
   cy="40.552441"
   r="10.565872"
   id="circle331-5"
   style="stroke-width:1.05655" /><circle
   fill="#596366"
   cx="29.983461"
   cy="40.552441"
   r="8.4526987"
   id="circle333-3"
   style="stroke-width:1.05655" /><circle
   fill="#040505"
   cx="29.983461"
   cy="40.552441"
   r="7.3961072"
   id="circle335-5"
   style="stroke-width:1.05655" /><circle
   fill="#ea241a"
   cx="29.983461"
   cy="40.552441"
   r="6.3395228"
   id="circle337-6"
   style="stroke-width:1.05655" /><circle
   fill="#1f44ad"
   cx="29.983461"
   cy="40.552441"
   r="6.3395228"
   id="circle339-2"
   style="stroke-width:1.05655" /><circle
   fill="#2e1d56"
   cx="29.983461"
   cy="40.552441"
   r="5.2829356"
   id="circle341-9"
   style="stroke-width:1.05655" /><circle
   fill="#b0800f"
   cx="29.983461"
   cy="40.552441"
   r="4.2263494"
   id="circle343-1"
   style="stroke-width:1.05655" /><circle
   fill="#100f02"
   cx="29.983461"
   cy="40.552441"
   r="3.1697614"
   id="circle345-2"
   style="stroke-width:1.05655" /><circle
   opacity="0.5"
   fill="#e61673"
   cx="31.462671"
   cy="42.031696"
   r="4.3320045"
   id="circle347-7"
   style="stroke-width:1.05655" /><path
   fill="#ffffff"
   d="m 27.341989,39.812845 -2.324492,-1.056581 c -0.21132,0.528286 -0.316973,1.267899 -0.316973,1.901849 0,0.105663 0,0.316982 0,0.316982 h 2.641465 c 0,0 0,-0.211319 0,-0.316982 -0.105661,-0.316968 -0.105661,-0.528295 0,-0.845268 z"
   id="path349-0"
   style="opacity:0.5;stroke-width:1.05655" /><path
   fill="#ffffff"
   d="m 29.983457,35.269522 c -2.007519,0 -3.80371,1.16225 -4.754641,2.852787 l 2.324494,1.162241 c 0.422628,-0.845268 1.373559,-1.479215 2.430147,-1.479215 0.105661,0 0.316974,0 0.316974,0 v -2.535813 c 0,0 -0.211313,0 -0.316974,0 z"
   id="path351-9"
   style="opacity:0.5;stroke-width:1.05655" /><ellipse
   transform="rotate(36.222418)"
   fill="#ffffff"
   cx="47.205055"
   cy="14.918682"
   rx="0.63392907"
   ry="0.95089382"
   id="ellipse355-3"
   style="stroke-width:1.05652" /><ellipse
   transform="rotate(36.222418)"
   fill="#ffffff"
   cx="49.679588"
   cy="14.920452"
   rx="0.31696454"
   ry="0.52827406"
   id="ellipse357-6"
   style="stroke-width:1.05652" /><ellipse
   transform="rotate(36.222418)"
   opacity="0.7"
   fill="#ffffff"
   cx="53.361908"
   cy="14.829807"
   rx="0.84523892"
   ry="1.2678581"
   id="ellipse359-0"
   style="stroke-width:1.05652" /></svg>
