<?xml version="1.0" encoding="UTF-8" standalone="no"?>
<svg
   height="64"
   width="64"
   version="1.1"
   id="svg10"
   sodipodi:docname="io.gitlab.adhami3310.Impression.svg"
   inkscape:version="1.4 (unknown)"
   xmlns:inkscape="http://www.inkscape.org/namespaces/inkscape"
   xmlns:sodipodi="http://sodipodi.sourceforge.net/DTD/sodipodi-0.dtd"
   xmlns:xlink="http://www.w3.org/1999/xlink"
   xmlns="http://www.w3.org/2000/svg"
   xmlns:svg="http://www.w3.org/2000/svg"
   xmlns:rdf="http://www.w3.org/1999/02/22-rdf-syntax-ns#"
   xmlns:cc="http://creativecommons.org/ns#"
   xmlns:dc="http://purl.org/dc/elements/1.1/">
  <metadata
     id="metadata16">
    <rdf:RDF>
      <cc:Work
         rdf:about="">
        <dc:format>image/svg+xml</dc:format>
        <dc:type
           rdf:resource="http://purl.org/dc/dcmitype/StillImage" />
      </cc:Work>
    </rdf:RDF>
  </metadata>
  <defs
     id="defs14">
    <linearGradient
       id="c"
       x1="31.458"
       x2="31.458"
       y1="51.726002"
       y2="62.897999"
       gradientTransform="matrix(0.36079,0,0,0.36079,-2.8832,-9.4399)"
       gradientUnits="userSpaceOnUse">
      <stop
         stop-color="#1776ff"
         offset="0"
         id="stop292" />
      <stop
         stop-color="#2fceff"
         offset="1"
         id="stop294" />
    </linearGradient>
    <linearGradient
       id="d"
       x1="31.458"
       x2="31.458"
       y1="36.897999"
       y2="59.897999"
       gradientTransform="matrix(0.36079,0,0,0.36079,-2.8832,-9.4399)"
       gradientUnits="userSpaceOnUse">
      <stop
         stop-color="#ff5514"
         offset="0"
         id="stop297" />
      <stop
         stop-color="#ff9014"
         offset="1"
         id="stop299" />
    </linearGradient>
    <linearGradient
       id="a"
       x1="31.458"
       x2="31.458"
       y1="46.897999"
       y2="56.897999"
       gradientTransform="matrix(0.36079,0,0,0.36079,-2.8832,-9.4399)"
       gradientUnits="userSpaceOnUse">
      <stop
         stop-color="#c0e5fb"
         offset="0"
         id="stop302" />
      <stop
         stop-color="#c3faff"
         offset="1"
         id="stop304" />
    </linearGradient>
    <linearGradient
       gradientTransform="matrix(1.0394952,0,0,1.0394363,-448.49881,-520.66414)"
       gradientUnits="userSpaceOnUse"
       x2="426.69501"
       y2="499.92099"
       y1="547.67499"
       id="a-6"
       x1="389.32001">
      <stop
         stop-color="#18222a"
         style="stop-color:#436077;stop-opacity:1;"
         id="stop216"
         offset="0" />
      <stop
         stop-color="#566069"
         offset="1"
         style="stop-color:#6d7983;stop-opacity:1"
         id="stop218" />
    </linearGradient>
    <linearGradient
       id="e"
       x1="8.4461002"
       x2="24.603001"
       y1="6.2688999"
       y2="24.570999"
       gradientUnits="userSpaceOnUse"
       gradientTransform="translate(0.254427,-38.49298)">
      <stop
         stop-opacity=".2088"
         offset="0"
         id="stop4" />
      <stop
         stop-opacity="0"
         offset="1"
         id="stop6" />
    </linearGradient>
    <linearGradient
       id="d-3"
       x1="7.8488002"
       x2="14.108"
       y1="3.5121"
       y2="14.183"
       gradientUnits="userSpaceOnUse"
       gradientTransform="translate(0.254427,-38.49298)">
      <stop
         stop-opacity=".2088"
         offset="0"
         id="stop14" />
      <stop
         stop-opacity="0"
         offset="1"
         id="stop16" />
    </linearGradient>
    <linearGradient
       id="c-6"
       x1="31.458"
       x2="31.458"
       y1="51.726002"
       y2="62.897999"
       gradientTransform="matrix(0.36079,0,0,0.36079,-2.8832,-9.4399)"
       gradientUnits="userSpaceOnUse">
      <stop
         stop-color="#1776ff"
         offset="0"
         id="stop292-7"
         style="stop-color:#55ddff;stop-opacity:1" />
      <stop
         stop-color="#2fceff"
         offset="1"
         id="stop294-5"
         style="stop-color:#00ccff;stop-opacity:1" />
    </linearGradient>
    <linearGradient
       id="d-35"
       x1="31.458"
       x2="31.458"
       y1="36.897999"
       y2="59.897999"
       gradientTransform="matrix(0.36079,0,0,0.36079,-2.8832,-9.4399)"
       gradientUnits="userSpaceOnUse">
      <stop
         stop-color="#ff5514"
         offset="0"
         id="stop297-6"
         style="stop-color:#ffccaa;stop-opacity:1" />
      <stop
         stop-color="#ff9014"
         offset="1"
         id="stop299-2"
         style="stop-color:#ff9955;stop-opacity:1" />
    </linearGradient>
    <linearGradient
       id="a-9"
       x1="31.458"
       x2="31.458"
       y1="46.897999"
       y2="56.897999"
       gradientTransform="matrix(0.36079,0,0,0.36079,-2.8832,-9.4399)"
       gradientUnits="userSpaceOnUse">
      <stop
         stop-color="#c0e5fb"
         offset="0"
         id="stop302-1"
         style="stop-color:#e3d7f4;stop-opacity:1" />
      <stop
         stop-color="#c3faff"
         offset="1"
         id="stop304-2"
         style="stop-color:#aa87de;stop-opacity:1" />
    </linearGradient>
    <linearGradient
       inkscape:collect="always"
       xlink:href="#linearGradient22063"
       id="linearGradient22065"
       x1="-14"
       y1="6"
       x2="-14"
       y2="-9.999999"
       gradientUnits="userSpaceOnUse"
       gradientTransform="matrix(3.6250002,0,0,3.6250002,82.750002,39.249998)" />
    <linearGradient
       inkscape:collect="always"
       id="linearGradient22063">
      <stop
         style="stop-color:#292f3a;stop-opacity:1;"
         offset="0"
         id="stop22059" />
      <stop
         style="stop-color:#535e75;stop-opacity:1;"
         offset="1"
         id="stop22061" />
    </linearGradient>
    <clipPath
       id="a-3">
      <circle
         cx="8.467"
         cy="288.53"
         r="6.8790002"
         fill="#d86eb0"
         stroke-opacity="0.039"
         stroke-width="0.491"
         style="paint-order:stroke markers fill"
         id="circle2-6" />
    </clipPath>
    <linearGradient
       id="a-36"
       gradientUnits="userSpaceOnUse"
       x1="22.00001"
       x2="128.00002"
       y1="67"
       y2="67"
       gradientTransform="matrix(0.49528302,0,0,0.48611109,1.6037736,56.166666)">
      <stop
         offset="0"
         stop-color="#5c596d"
         id="stop1" />
      <stop
         offset="0.811321"
         stop-color="#b3b2c0"
         id="stop2" />
      <stop
         offset="1"
         stop-color="#838289"
         id="stop3" />
    </linearGradient>
    <linearGradient
       id="b"
       gradientUnits="userSpaceOnUse"
       x1="37.999992"
       x2="119.99995"
       y1="101.99996"
       y2="19.999989"
       gradientTransform="matrix(0.49528302,0,0,0.48611109,1.6037736,56.166666)">
      <stop
         offset="0"
         stop-color="#a3b6d1"
         id="stop4-7"
         style="stop-color:#7c97be;stop-opacity:1;" />
      <stop
         offset="0.195122"
         stop-color="#a9c5f0"
         id="stop5"
         style="stop-color:#85adea;stop-opacity:1;" />
      <stop
         offset="0.45122001"
         stop-color="#dbdeff"
         id="stop6-5"
         style="stop-color:#bbc1ff;stop-opacity:1;" />
      <stop
         offset="0.70731699"
         stop-color="#b7c5ef"
         id="stop7"
         style="stop-color:#859de4;stop-opacity:1;" />
      <stop
         offset="1"
         stop-color="#8fb2dd"
         id="stop8"
         style="stop-color:#6394cf;stop-opacity:1;" />
    </linearGradient>
    <linearGradient
       id="c-3"
       gradientUnits="userSpaceOnUse"
       x1="3.00001"
       x2="47.000011"
       y1="70"
       y2="70"
       gradientTransform="matrix(0.496,0,0,0.5,7.0478748,-1.375)">
      <stop
         offset="0"
         stop-color="#9a3800"
         id="stop9"
         style="stop-color:#1cb285;stop-opacity:1;" />
      <stop
         offset="0.0909091"
         stop-color="#ed5300"
         id="stop10"
         style="stop-color:#37dfad;stop-opacity:1;" />
      <stop
         offset="0.18181799"
         stop-color="#c64600"
         id="stop11"
         style="stop-color:#1fc694;stop-opacity:1;" />
      <stop
         offset="0.81818199"
         stop-color="#c64600"
         id="stop12"
         style="stop-color:#20c693;stop-opacity:1;" />
      <stop
         offset="0.909091"
         stop-color="#ed5300"
         id="stop13"
         style="stop-color:#37dfad;stop-opacity:1;" />
      <stop
         offset="1"
         stop-color="#9a3800"
         id="stop14-5"
         style="stop-color:#1cb285;stop-opacity:1;" />
    </linearGradient>
    <linearGradient
       id="d-6"
       gradientTransform="matrix(0.62,0,0,0.6111125,-0.3921252,-22.04181)"
       gradientUnits="userSpaceOnUse"
       x1="20"
       x2="44"
       y1="122.99989"
       y2="122.99989">
      <stop
         offset="0"
         stop-color="#adadaa"
         id="stop15" />
      <stop
         offset="0.0833333"
         stop-color="#d7d6d5"
         id="stop16-2" />
      <stop
         offset="0.166667"
         stop-color="#afafab"
         id="stop17" />
      <stop
         offset="0.654803"
         stop-color="#b8b8b4"
         id="stop18" />
      <stop
         offset="0.938916"
         stop-color="#a3a29f"
         id="stop19" />
      <stop
         offset="1"
         stop-color="#8d8b88"
         id="stop20" />
    </linearGradient>
    <linearGradient
       id="e-9"
       gradientTransform="matrix(0.62,0,0,0.5625015,-0.3921202,-15.625205)"
       gradientUnits="userSpaceOnUse"
       x1="19.500002"
       x2="44.5"
       y1="128.00002"
       y2="128.00002">
      <stop
         offset="0"
         stop-color="#e0e0e0"
         id="stop21" />
      <stop
         offset="1"
         stop-color="#d1ccc5"
         id="stop22" />
    </linearGradient>
    <linearGradient
       id="f"
       gradientTransform="matrix(0.57866683,0,0,0.4375005,0.9305431,0.37492)"
       gradientUnits="userSpaceOnUse"
       x1="19.500002"
       x2="44.5"
       y1="128.00002"
       y2="128.00002">
      <stop
         offset="0"
         stop-color="#545251"
         id="stop23" />
      <stop
         offset="0.471382"
         stop-color="#7d7c7a"
         id="stop24" />
      <stop
         offset="1"
         stop-color="#908e8d"
         id="stop25" />
    </linearGradient>
  </defs>
  <sodipodi:namedview
     pagecolor="#ffffff"
     bordercolor="#666666"
     borderopacity="1"
     objecttolerance="10"
     gridtolerance="10"
     guidetolerance="10"
     inkscape:pageopacity="0"
     inkscape:pageshadow="2"
     inkscape:window-width="1920"
     inkscape:window-height="998"
     id="namedview12"
     showgrid="false"
     inkscape:zoom="8"
     inkscape:cx="34.125"
     inkscape:cy="48.9375"
     inkscape:window-x="0"
     inkscape:window-y="0"
     inkscape:window-maximized="1"
     inkscape:current-layer="svg10"
     inkscape:document-rotation="0"
     inkscape:showpageshadow="2"
     inkscape:pagecheckerboard="0"
     inkscape:deskcolor="#d1d1d1">
    <inkscape:grid
       type="xygrid"
       id="grid801"
       originx="0"
       originy="0"
       spacingy="1"
       spacingx="1"
       units="px"
       visible="false" />
  </sodipodi:namedview>
  <path
     d="M 2.999999,10.25 C 2.999999,6.245825 6.245933,3 10.249993,3 h 43.500009 c 4.00417,0 7.25,3.245825 7.25,7.25 v 43.499999 c 0,4.004173 -3.24583,7.25 -7.25,7.25 H 10.249993 c -4.00406,0 -7.249994,-3.245827 -7.249994,-7.25 z"
     id="path736"
     style="fill:#606c86;fill-opacity:1;stroke-width:3.625" />
  <path
     d="M 2.999999,9.7968747 C 2.999999,6.043188 6.245933,3 10.249993,3 h 43.500009 c 4.00417,0 7.25,3.043188 7.25,6.7968747 V 50.578123 c 0,3.753693 -3.24583,6.796876 -7.25,6.796876 H 10.249993 c -4.00406,0 -7.249995,-3.043183 -7.249995,-6.796876 z"
     id="path738"
     style="fill:url(#linearGradient22065);fill-opacity:1;stroke-width:3.625" />
  <g
     id="g2"
     transform="matrix(0.60952381,0,0,0.60952381,18.380952,-23.790476)">
    <path
       d="M 38.75,62.972222 C 24.253299,62.972222 12.5,74.507863 12.5,88.73611 12.5,102.96436 24.253299,114.5 38.75,114.5 53.246701,114.5 65,102.96436 65,88.73611 65,74.507863 53.246701,62.972222 38.75,62.972222 Z m 0,22.361118 c 1.915352,0 3.466981,1.522891 3.466981,3.40277 0,1.879879 -1.551629,3.402785 -3.466981,3.402785 -1.915352,0 -3.466981,-1.522906 -3.466981,-3.402785 0,-1.879879 1.551629,-3.40277 3.466981,-3.40277 z m 0,0"
       fill="url(#a)"
       id="path28"
       style="fill:url(#a-36);stroke-width:0.490676" />
    <path
       d="M 38.75,62 C 24.253299,62 12.5,73.53564 12.5,87.76389 c 0,14.22825 11.753299,25.76389 26.25,25.76389 14.496701,0 26.25,-11.53564 26.25,-25.76389 C 65,73.53564 53.246701,62 38.75,62 Z m 0,22.328832 c 1.932765,0 3.499871,1.538081 3.499871,3.435058 0,1.896977 -1.567106,3.435058 -3.499871,3.435058 -0.08706,-0.01333 -0.172188,-0.03035 -0.257315,-0.04943 -0.284401,-0.02088 -0.566867,-0.07593 -0.83966,-0.165197 -0.152841,-0.04943 -0.301813,-0.110138 -0.44885,-0.182295 -0.270858,-0.131022 -0.526238,-0.298121 -0.752598,-0.493713 -0.104474,-0.0912 -0.201208,-0.186081 -0.294074,-0.288625 -0.199275,-0.222166 -0.369528,-0.472809 -0.503022,-0.738656 -0.07351,-0.144313 -0.135429,-0.29053 -0.185731,-0.44054 -0.09093,-0.267741 -0.147037,-0.544977 -0.168319,-0.824107 -0.01934,-0.08354 -0.03676,-0.167105 -0.0503,-0.25255 0.01354,-0.08549 0.03096,-0.168998 0.0503,-0.252551 0.02128,-0.279129 0.07739,-0.556365 0.168319,-0.824106 0.0503,-0.150015 0.112213,-0.296228 0.185731,-0.44054 0.133494,-0.265848 0.303747,-0.51649 0.503022,-0.738661 0.09287,-0.102543 0.1896,-0.197485 0.294074,-0.288625 0.22636,-0.195592 0.48174,-0.362695 0.752598,-0.493712 0.147037,-0.07212 0.296009,-0.132924 0.44885,-0.182295 0.272793,-0.08925 0.555259,-0.144313 0.83966,-0.165197 0.08513,-0.01893 0.170254,-0.03606 0.257315,-0.04943 z m 0,0"
       fill="#d1d4db"
       id="path29"
       style="stroke-width:0.490676" />
    <path
       d="m 38.75,62.972222 c -13.951117,0 -25.259434,11.098898 -25.259434,24.791668 0,13.69275 11.308317,24.79167 25.259434,24.79167 13.951117,0 25.259434,-11.09892 25.259434,-24.79167 0,-13.69277 -11.308317,-24.791668 -25.259434,-24.791668 z m 0,21.388883 c 0.147037,0 0.294074,0.0098 0.441111,0.02855 0.0078,0.0019 0.01354,0.0019 0.02128,0.0039 0.143167,0.01713 0.2844,0.04552 0.425633,0.08159 0.0078,0.0019 0.01548,0.0039 0.02322,0.0078 0.141232,0.03606 0.280531,0.08354 0.41596,0.138617 0.133494,0.05319 0.265054,0.117728 0.390809,0.187987 0.0097,0.0059 0.01741,0.0098 0.02515,0.01518 0.125756,0.07032 0.245707,0.150011 0.359854,0.235457 0.0039,0.002 0.0058,0.0039 0.0078,0.0059 0.0039,0.002 0.0058,0.0039 0.0078,0.0078 0.118016,0.08729 0.228295,0.182292 0.332768,0.284828 0.104474,0.102541 0.201209,0.210777 0.290205,0.326607 0.0039,0.002 0.0058,0.0059 0.0097,0.0078 0,0.002 0.0019,0.0039 0.0039,0.0078 0.08706,0.112033 0.168318,0.229763 0.239902,0.35319 0.0058,0.0078 0.0097,0.01713 0.01548,0.02464 0.07159,0.123427 0.137363,0.25255 0.19347,0.383572 0.05417,0.132921 0.102538,0.26964 0.141232,0.408257 0.0019,0.0078 0.0039,0.01518 0.0058,0.02464 0.03676,0.13672 0.06578,0.275337 0.08513,0.415853 0,0.0078 0.0019,0.01328 0.0019,0.02088 0.01935,0.144313 0.02903,0.288627 0.02903,0.432942 -0.0019,0.432942 -0.08899,0.862087 -0.25538,1.262749 -0.0078,0.02088 -0.01548,0.04177 -0.02322,0.06461 -0.170253,0.38737 -0.41209,0.742459 -0.713903,1.04438 -0.01934,0.01893 -0.03869,0.03802 -0.05804,0.05694 -0.307618,0.296224 -0.669406,0.533583 -1.064085,0.700684 -0.02322,0.0078 -0.04449,0.01518 -0.06578,0.02283 -0.408316,0.163319 -0.845558,0.248769 -1.286669,0.250667 -0.441111,-0.002 -0.878353,-0.08729 -1.286575,-0.25255 -0.02128,-0.0059 -0.04257,-0.01328 -0.06578,-0.02283 -0.394679,-0.165202 -0.756467,-0.402561 -1.064084,-0.698785 -0.01934,-0.01893 -0.03869,-0.03802 -0.05805,-0.05694 -0.301813,-0.30192 -0.54365,-0.657009 -0.713903,-1.046277 -0.0078,-0.02088 -0.01548,-0.04177 -0.02128,-0.06265 -0.168313,-0.400748 -0.255375,-0.829893 -0.257309,-1.262836 0.0019,-0.432943 0.08899,-0.862088 0.25538,-1.262748 0.0078,-0.02088 0.01548,-0.04177 0.02322,-0.06461 0.170253,-0.387371 0.41209,-0.742459 0.713903,-1.04438 l 0.05804,-0.05694 c 0.307618,-0.296223 0.669406,-0.533581 1.064085,-0.700683 0.02322,-0.0078 0.04449,-0.01518 0.06578,-0.02283 C 37.871647,84.44925 38.308889,84.363799 38.75,84.3619 Z m 0,0"
       id="path30"
       style="fill:url(#b);stroke-width:0.490676" />
    <path
       d="m 38.75,79.500005 c -4.651017,0 -8.419811,3.698997 -8.419811,8.263885 0,4.564887 3.768794,8.263885 8.419811,8.263885 4.651017,0 8.419811,-3.698998 8.419811,-8.263885 0,-4.564888 -3.768794,-8.263885 -8.419811,-8.263885 z m 0,4.8611 c 1.915352,0 3.466981,1.522906 3.466981,3.402785 0,1.879879 -1.551629,3.40277 -3.466981,3.40277 -1.915352,0 -3.466981,-1.522891 -3.466981,-3.40277 0,-1.879879 1.551629,-3.402785 3.466981,-3.402785 z m 0,0"
       fill="#757c9b"
       id="path31"
       style="stroke-width:0.490676" />
    <path
       d="m 38.75,80.472225 c -4.103497,0 -7.429245,3.264152 -7.429245,7.291665 0,4.027498 3.325748,7.291665 7.429245,7.291665 4.103497,0 7.429245,-3.264167 7.429245,-7.291665 0,-4.027513 -3.325748,-7.291665 -7.429245,-7.291665 z m 0,3.88888 c 0.07545,0 0.148971,0.002 0.224425,0.0078 0.01741,0.002 0.03482,0.002 0.05223,0.0039 0.05611,0.0039 0.112211,0.01142 0.168318,0.01713 0.02128,0.0039 0.04257,0.0059 0.06385,0.0078 0.0039,0.002 0.0058,0.002 0.0097,0.002 0.06577,0.01142 0.129625,0.02283 0.195405,0.03606 0.01741,0.0039 0.03289,0.0078 0.0503,0.0098 0.06191,0.01518 0.125756,0.03035 0.187666,0.04748 0.01161,0.0039 0.02515,0.0078 0.03676,0.0098 0.06771,0.02089 0.133494,0.04177 0.199273,0.06641 0.01934,0.0078 0.03869,0.01518 0.05997,0.02088 0.05417,0.02088 0.108343,0.04372 0.164449,0.06641 0.01354,0.0078 0.02902,0.01327 0.0445,0.02088 0.05997,0.0266 0.118017,0.05508 0.177992,0.08549 0.0019,0.002 0.0039,0.0039 0.0078,0.0059 0.02128,0.01142 0.04257,0.02283 0.06385,0.03606 0.04449,0.02464 0.09093,0.05123 0.135429,0.07978 0.01741,0.0098 0.03676,0.02089 0.05417,0.0323 0.06191,0.03982 0.121887,0.07978 0.179928,0.123427 0,0 0.0019,0 0.0019,0.002 0.0039,0.002 0.0058,0.0039 0.0097,0.0078 0.05223,0.03802 0.104474,0.07783 0.154776,0.121529 0.01548,0.01327 0.03095,0.0266 0.04837,0.03982 0.05417,0.04748 0.108343,0.09689 0.160579,0.148113 0.05224,0.05124 0.10254,0.104437 0.150907,0.159504 0.01354,0.01518 0.02709,0.03035 0.04257,0.04748 0.04257,0.04748 0.08319,0.09873 0.123821,0.150012 0.0019,0.0039 0.0039,0.0059 0.0078,0.0098 0,0 0,0.002 0.0019,0.002 0.04257,0.05694 0.08319,0.115831 0.123821,0.176594 0.01161,0.01713 0.02322,0.03606 0.03482,0.05319 0.02709,0.04372 0.05417,0.08925 0.08126,0.134821 0.01161,0.01893 0.02322,0.03981 0.03482,0.06265 0.0019,0.002 0.0039,0.0039 0.0058,0.0078 0.03096,0.05694 0.05997,0.113931 0.08706,0.172796 0.0078,0.01518 0.01354,0.03035 0.02128,0.04552 0.02322,0.05319 0.04643,0.106337 0.06771,0.161406 0.0058,0.01893 0.01354,0.03802 0.02128,0.0589 0.02515,0.06265 0.04643,0.127224 0.06771,0.193683 0.0019,0.01142 0.0058,0.02464 0.0097,0.03802 0.01741,0.0589 0.03289,0.121527 0.04837,0.182291 0.0019,0.01713 0.0058,0.0323 0.0097,0.04942 0.01354,0.06461 0.02515,0.129122 0.03676,0.193684 0,0.0019 0,0.0059 0.0019,0.0078 0.0019,0.02089 0.0039,0.04177 0.0078,0.06461 0.0058,0.05319 0.01354,0.108236 0.01741,0.165202 0.0019,0.01518 0.0019,0.0323 0.0039,0.04942 0.0058,0.07407 0.0078,0.14621 0.0078,0.220267 -0.0019,0.20128 -0.02128,0.400661 -0.05997,0.598144 -0.0097,0.05319 -0.02128,0.104438 -0.03482,0.155707 -0.03676,0.15381 -0.08319,0.30382 -0.139298,0.450033 -0.01741,0.04748 -0.03482,0.09496 -0.05223,0.140516 -0.08125,0.184191 -0.176058,0.358887 -0.286335,0.524088 -0.01934,0.02853 -0.04063,0.05508 -0.06191,0.08162 -0.09867,0.138618 -0.208948,0.269639 -0.326964,0.391168 -0.03869,0.03983 -0.07933,0.07978 -0.118017,0.115831 -0.125756,0.11773 -0.25925,0.225966 -0.398548,0.322807 -0.02902,0.02088 -0.05611,0.04177 -0.08319,0.06071 -0.170253,0.108236 -0.348246,0.201281 -0.533977,0.279135 -0.04837,0.01893 -0.09673,0.03606 -0.143167,0.05319 -0.150907,0.0551 -0.303748,0.10064 -0.458524,0.136719 -0.05417,0.01329 -0.106408,0.02464 -0.160579,0.03417 -0.20121,0.03801 -0.404354,0.05694 -0.609432,0.0589 -0.205078,-0.002 -0.408222,-0.02088 -0.609431,-0.0589 -0.05417,-0.0098 -0.106408,-0.02088 -0.158644,-0.03417 -0.156711,-0.03606 -0.309552,-0.08162 -0.458525,-0.136719 -0.04837,-0.01713 -0.09674,-0.03415 -0.143167,-0.05123 -0.187666,-0.07978 -0.365658,-0.172797 -0.533977,-0.281032 -0.02902,-0.01893 -0.05611,-0.03981 -0.08319,-0.06071 -0.141232,-0.0969 -0.274726,-0.205078 -0.398547,-0.320909 -0.04063,-0.03801 -0.08126,-0.07783 -0.118017,-0.115832 -0.119951,-0.123426 -0.230229,-0.254448 -0.328899,-0.391167 -0.02128,-0.02851 -0.04257,-0.05506 -0.06191,-0.08161 -0.110278,-0.1671 -0.205078,-0.341798 -0.284402,-0.524089 -0.01934,-0.04748 -0.03676,-0.09496 -0.05417,-0.140516 -0.05611,-0.148113 -0.102539,-0.298122 -0.139299,-0.450032 -0.01354,-0.05319 -0.02515,-0.104439 -0.03482,-0.157607 -0.03885,-0.197699 -0.0582,-0.397081 -0.06013,-0.598362 0.0019,-0.20128 0.02128,-0.400661 0.05997,-0.598145 0.0097,-0.05319 0.02128,-0.104436 0.03482,-0.157605 0.03676,-0.15191 0.08319,-0.301921 0.139298,-0.450033 0.01741,-0.04552 0.03482,-0.093 0.05417,-0.140517 0.07933,-0.182291 0.174124,-0.356987 0.284401,-0.524088 0.01934,-0.0266 0.04063,-0.05319 0.06191,-0.0816 0.09867,-0.136719 0.208948,-0.267741 0.328899,-0.391167 0.03676,-0.03802 0.07739,-0.07783 0.118017,-0.115832 0.123821,-0.115832 0.257315,-0.224068 0.398547,-0.320909 0.02709,-0.02088 0.05417,-0.04177 0.08319,-0.06073 0.168319,-0.108237 0.346312,-0.20128 0.533977,-0.281034 0.04643,-0.01713 0.0948,-0.03416 0.143168,-0.05123 0.148972,-0.0551 0.301813,-0.100639 0.458524,-0.136717 0.05223,-0.01325 0.104473,-0.02464 0.158644,-0.03414 0.201219,-0.03802 0.404363,-0.05696 0.609441,-0.05891 z m 0,0"
       fill="#d8dae5"
       id="path34"
       style="stroke-width:0.490676" />
  </g>
  <g
     id="g1"
     transform="matrix(0.77689158,0,0,0.78301887,-0.13144927,6.5955188)">
    <path
       d="m 30.410212,11.762857 c -7.406029,4.756678 -11.87325,12.855366 -11.879054,21.542693 0.01548,1.986224 0.266989,3.962952 0.744859,5.89411 1.590324,4.88959 4.629736,9.14305 8.62102,12.27999 1.476176,-0.56397 2.520913,-1.96343 2.520913,-3.61544 V 11.89198 c 0,-0.04372 -0.0058,-0.08549 -0.0078,-0.129123 z m 0,0"
       fill-opacity="0.129412"
       id="path32"
       style="stroke-width:0.490676" />
    <path
       d="m 12.503875,14.625 h 13.888 c 2.191313,0 3.968,1.791016 3.968,4 v 30 c 0,2.20899 -1.776687,4 -3.968,4 h -13.888 c -2.191313,0 -3.9680002,-1.79101 -3.9680002,-4 v -30 c 0,-2.208984 1.7766872,-4 3.9680002,-4 z m 0,0"
       id="path33"
       style="fill:url(#c-3);stroke-width:0.497996" />
    <path
       d="m 12.503875,5.625 h 13.888 c 2.191313,0 3.968,1.791015 3.968,4 v 32 c 0,2.20898 -1.776687,4 -3.968,4 h -13.888 c -2.191313,0 -3.9680002,-1.79102 -3.9680002,-4 v -32 c 0,-2.208985 1.7766872,-4 3.9680002,-4 z m 0,0"
       id="path35"
       style="fill:#20c997;stroke-width:0.497996" />
    <path
       d="m 14.487875,47.625 h 9.92 c 1.369813,0 2.48,1.34375 2.48,3 v 5 c 0,1.65625 -1.110187,3 -2.48,3 h -9.92 c -1.369813,0 -2.48,-1.34375 -2.48,-3 v -5 c 0,-1.65625 1.110187,-3 2.48,-3 z m 0,0"
       fill="url(#d)"
       id="path36"
       style="fill:url(#d-6);stroke-width:0.497996" />
    <path
       d="m 14.239875,54.125 h 10.416 c 1.23225,0 2.232,1.00781 2.232,2.25 0,1.24219 -0.99975,2.25 -2.232,2.25 h -10.416 c -1.23225,0 -2.232,-1.00781 -2.232,-2.25 0,-1.24219 0.99975,-2.25 2.232,-2.25 z m 0,0"
       fill="url(#e)"
       id="path37"
       style="fill:url(#e-9);stroke-width:0.497996" />
    <path
       d="m 14.239875,54.625 h 10.416 c 0.959063,0 1.736,0.78321 1.736,1.75 0,0.96679 -0.776937,1.75 -1.736,1.75 h -10.416 c -0.959063,0 -1.736,-0.78321 -1.736,-1.75 0,-0.96679 0.776937,-1.75 1.736,-1.75 z m 0,0"
       fill="url(#f)"
       id="path38"
       style="fill:url(#f);stroke-width:0.497996" />
    <path
       d="m 19.94,17.625 h -0.992 l -1.984,4 h 1.488 v 5 h -2.976 v -1.269531 c 0.61225,-0.359375 0.992,-1.015625 0.992,-1.730469 0,-1.105469 -0.887375,-2 -1.984,-2 -1.096625,0 -1.984,0.894531 -1.984,2 0,0.714844 0.37975,1.375 0.992,1.730469 V 26.625 c 0,2 1.984,2 1.984,2 h 2.976 v 1.269531 c -0.61225,0.359375 -0.992,1.015625 -0.992,1.730469 0,1.105469 0.887375,2 1.984,2 1.096625,0 1.984,-0.894531 1.984,-2 0,-0.714844 -0.37975,-1.375 -0.992,-1.730469 V 28.625 h 2.976 c 0,0 1.984,0 1.984,-2 v -1 c 0,0 1.116,-0.1875 0.992,-1 v -2 c 0.124,-1.125 -0.992,-1 -0.992,-1 h -1.984 c -1.054,0 -0.992,1 -0.992,1 v 2 c 0,1 0.992,1 0.992,1 v 1 h -2.976 v -5 h 1.488 z m 0,0"
       fill="#dd4e00"
       id="path39"
       style="fill:#168967;stroke-width:0.497996" />
    <path
       d="m 8.5358748,41.625 v 1 c 0,2.2168 1.7689372,4 3.9680002,4 h 13.888 c 2.199063,0 3.968,-1.7832 3.968,-4 v -1 c 0,2.2168 -1.768937,4 -3.968,4 h -13.888 c -2.199063,0 -3.9680002,-1.7832 -3.9680002,-4 z m 0,0"
       id="path40"
       style="fill:#1ba97f;stroke-width:0.497996" />
    <path
       d="m 14.487875,47.625 c -1.373688,0 -2.48,1.33789 -2.48,3 v 1 c 0,-1.66211 1.106312,-3 2.48,-3 h 9.92 c 1.373687,0 2.48,1.33789 2.48,3 v -1 c 0,-1.66211 -1.106313,-3 -2.48,-3 z m 0,0"
       fill-opacity="0.078431"
       id="path41"
       style="stroke-width:0.497996" />
  </g>
</svg>
