<?xml version="1.0" encoding="UTF-8" standalone="no"?>
<svg
   height="64"
   width="64"
   version="1.1"
   id="svg10"
   sodipodi:docname="solaar.svg"
   inkscape:version="1.3.2 (091e20ef0f, 2023-11-25)"
   xmlns:inkscape="http://www.inkscape.org/namespaces/inkscape"
   xmlns:sodipodi="http://sodipodi.sourceforge.net/DTD/sodipodi-0.dtd"
   xmlns:xlink="http://www.w3.org/1999/xlink"
   xmlns="http://www.w3.org/2000/svg"
   xmlns:svg="http://www.w3.org/2000/svg"
   xmlns:rdf="http://www.w3.org/1999/02/22-rdf-syntax-ns#"
   xmlns:cc="http://creativecommons.org/ns#"
   xmlns:dc="http://purl.org/dc/elements/1.1/">
  <metadata
     id="metadata16">
    <rdf:RDF>
      <cc:Work
         rdf:about="">
        <dc:format>image/svg+xml</dc:format>
        <dc:type
           rdf:resource="http://purl.org/dc/dcmitype/StillImage" />
      </cc:Work>
    </rdf:RDF>
  </metadata>
  <defs
     id="defs14">
    <linearGradient
       id="c"
       x1="31.458"
       x2="31.458"
       y1="51.726002"
       y2="62.897999"
       gradientTransform="matrix(0.36079,0,0,0.36079,-2.8832,-9.4399)"
       gradientUnits="userSpaceOnUse">
      <stop
         stop-color="#1776ff"
         offset="0"
         id="stop292" />
      <stop
         stop-color="#2fceff"
         offset="1"
         id="stop294" />
    </linearGradient>
    <linearGradient
       id="d"
       x1="31.458"
       x2="31.458"
       y1="36.897999"
       y2="59.897999"
       gradientTransform="matrix(0.36079,0,0,0.36079,-2.8832,-9.4399)"
       gradientUnits="userSpaceOnUse">
      <stop
         stop-color="#ff5514"
         offset="0"
         id="stop297" />
      <stop
         stop-color="#ff9014"
         offset="1"
         id="stop299" />
    </linearGradient>
    <linearGradient
       id="a"
       x1="31.458"
       x2="31.458"
       y1="46.897999"
       y2="56.897999"
       gradientTransform="matrix(0.36079,0,0,0.36079,-2.8832,-9.4399)"
       gradientUnits="userSpaceOnUse">
      <stop
         stop-color="#c0e5fb"
         offset="0"
         id="stop302" />
      <stop
         stop-color="#c3faff"
         offset="1"
         id="stop304" />
    </linearGradient>
    <linearGradient
       gradientTransform="matrix(1.0394952,0,0,1.0394363,-448.49881,-520.66414)"
       gradientUnits="userSpaceOnUse"
       x2="426.69501"
       y2="499.92099"
       y1="547.67499"
       id="a-6"
       x1="389.32001">
      <stop
         stop-color="#18222a"
         style="stop-color:#436077;stop-opacity:1;"
         id="stop216"
         offset="0" />
      <stop
         stop-color="#566069"
         offset="1"
         style="stop-color:#6d7983;stop-opacity:1"
         id="stop218" />
    </linearGradient>
    <linearGradient
       id="e"
       x1="8.4461002"
       x2="24.603001"
       y1="6.2688999"
       y2="24.570999"
       gradientUnits="userSpaceOnUse"
       gradientTransform="translate(0.254427,-38.49298)">
      <stop
         stop-opacity=".2088"
         offset="0"
         id="stop4" />
      <stop
         stop-opacity="0"
         offset="1"
         id="stop6" />
    </linearGradient>
    <linearGradient
       id="d-3"
       x1="7.8488002"
       x2="14.108"
       y1="3.5121"
       y2="14.183"
       gradientUnits="userSpaceOnUse"
       gradientTransform="translate(0.254427,-38.49298)">
      <stop
         stop-opacity=".2088"
         offset="0"
         id="stop14" />
      <stop
         stop-opacity="0"
         offset="1"
         id="stop16" />
    </linearGradient>
    <linearGradient
       id="c-6"
       x1="31.458"
       x2="31.458"
       y1="51.726002"
       y2="62.897999"
       gradientTransform="matrix(0.36079,0,0,0.36079,-2.8832,-9.4399)"
       gradientUnits="userSpaceOnUse">
      <stop
         stop-color="#1776ff"
         offset="0"
         id="stop292-7"
         style="stop-color:#55ddff;stop-opacity:1" />
      <stop
         stop-color="#2fceff"
         offset="1"
         id="stop294-5"
         style="stop-color:#00ccff;stop-opacity:1" />
    </linearGradient>
    <linearGradient
       id="d-35"
       x1="31.458"
       x2="31.458"
       y1="36.897999"
       y2="59.897999"
       gradientTransform="matrix(0.36079,0,0,0.36079,-2.8832,-9.4399)"
       gradientUnits="userSpaceOnUse">
      <stop
         stop-color="#ff5514"
         offset="0"
         id="stop297-6"
         style="stop-color:#ffccaa;stop-opacity:1" />
      <stop
         stop-color="#ff9014"
         offset="1"
         id="stop299-2"
         style="stop-color:#ff9955;stop-opacity:1" />
    </linearGradient>
    <linearGradient
       id="a-9"
       x1="31.458"
       x2="31.458"
       y1="46.897999"
       y2="56.897999"
       gradientTransform="matrix(0.36079,0,0,0.36079,-2.8832,-9.4399)"
       gradientUnits="userSpaceOnUse">
      <stop
         stop-color="#c0e5fb"
         offset="0"
         id="stop302-1"
         style="stop-color:#e3d7f4;stop-opacity:1" />
      <stop
         stop-color="#c3faff"
         offset="1"
         id="stop304-2"
         style="stop-color:#aa87de;stop-opacity:1" />
    </linearGradient>
    <linearGradient
       inkscape:collect="always"
       xlink:href="#linearGradient22063"
       id="linearGradient22065"
       x1="-14"
       y1="6"
       x2="-14"
       y2="-9.999999"
       gradientUnits="userSpaceOnUse"
       gradientTransform="matrix(3.6250002,0,0,3.6250002,82.750002,39.249998)" />
    <linearGradient
       inkscape:collect="always"
       id="linearGradient22063">
      <stop
         style="stop-color:#cdb9ec;stop-opacity:1;"
         offset="0"
         id="stop22059" />
      <stop
         style="stop-color:#00c0c0;stop-opacity:1;"
         offset="1"
         id="stop22061" />
    </linearGradient>
    <clipPath
       id="a-3">
      <circle
         cx="8.467"
         cy="288.53"
         r="6.8790002"
         fill="#d86eb0"
         stroke-opacity="0.039"
         stroke-width="0.491"
         style="paint-order:stroke markers fill"
         id="circle2-6" />
    </clipPath>
    <linearGradient
       id="linearGradient5322">
      <stop
         id="stop5324"
         style="stop-color:#0088ff;stop-opacity:1"
         offset="0" />
      <stop
         id="stop5326"
         style="stop-color:#02c3ff;stop-opacity:1"
         offset="1" />
    </linearGradient>
    <linearGradient
       inkscape:collect="always"
       xlink:href="#linearGradient11"
       id="linearGradient1"
       gradientUnits="userSpaceOnUse"
       x1="29.517408"
       y1="7.7983851"
       x2="29.488047"
       y2="51.897598"
       gradientTransform="matrix(1.0031649,0,0,1.0021096,2.3538511,0.51036067)" />
    <linearGradient
       id="linearGradient11"
       inkscape:collect="always">
      <stop
         style="stop-color:#acfbfe;stop-opacity:1;"
         offset="0"
         id="stop11-3" />
      <stop
         style="stop-color:#02797e;stop-opacity:1;"
         offset="1"
         id="stop12" />
    </linearGradient>
  </defs>
  <sodipodi:namedview
     pagecolor="#ffffff"
     bordercolor="#666666"
     borderopacity="1"
     objecttolerance="10"
     gridtolerance="10"
     guidetolerance="10"
     inkscape:pageopacity="0"
     inkscape:pageshadow="2"
     inkscape:window-width="1920"
     inkscape:window-height="994"
     id="namedview12"
     showgrid="true"
     inkscape:zoom="4.9798751"
     inkscape:cx="76.708751"
     inkscape:cy="-5.5222269"
     inkscape:window-x="0"
     inkscape:window-y="0"
     inkscape:window-maximized="1"
     inkscape:current-layer="svg10"
     inkscape:document-rotation="0"
     inkscape:showpageshadow="2"
     inkscape:pagecheckerboard="0"
     inkscape:deskcolor="#d1d1d1">
    <inkscape:grid
       type="xygrid"
       id="grid801"
       originx="0"
       originy="0"
       spacingy="1"
       spacingx="1"
       units="px"
       visible="true" />
  </sodipodi:namedview>
  <path
     d="M 2.999999,10.25 C 2.999999,6.245825 6.245933,3 10.249993,3 h 43.500009 c 4.00417,0 7.25,3.245825 7.25,7.25 v 43.499999 c 0,4.004173 -3.24583,7.25 -7.25,7.25 H 10.249993 c -4.00406,0 -7.249994,-3.245827 -7.249994,-7.25 z"
     id="path736"
     style="fill:#606c86;fill-opacity:1;stroke-width:3.625" />
  <path
     d="M 2.999999,9.7968747 C 2.999999,6.043188 6.245933,3 10.249993,3 h 43.500009 c 4.00417,0 7.25,3.043188 7.25,6.7968747 V 50.578123 c 0,3.753693 -3.24583,6.796876 -7.25,6.796876 H 10.249993 c -4.00406,0 -7.249995,-3.043183 -7.249995,-6.796876 z"
     id="path738"
     style="fill:url(#linearGradient22065);fill-opacity:1;stroke-width:3.625" />
  <path
     style="opacity:0.3;fill:#000000;fill-opacity:1;stroke:none;stroke-width:1.11403;stroke-dasharray:none;stroke-opacity:0.3"
     d="m 25.21665,15.397242 -4.626302,2.667614 4.177754,7.226528 a 10.681698,10.670461 0 0 0 -2.845145,4.944464 h -8.365942 v 5.335237 h 8.358115 a 10.681698,10.670461 0 0 0 2.855587,4.936644 l -4.180369,7.234345 4.626302,2.667617 4.18042,-7.23435 a 10.681698,10.670461 0 0 0 2.85297,0.398582 10.681698,10.670461 0 0 0 2.85817,-0.388137 l 4.17506,7.22392 4.62636,-2.667617 -4.1778,-7.226527 A 10.681698,10.670461 0 0 0 42.57698,35.5711 h 8.36601 V 30.235848 H 42.5848 a 10.681698,10.670461 0 0 0 -2.85555,-4.93665 l 4.18038,-7.234342 -4.62636,-2.667614 -4.18026,7.234341 a 10.681698,10.670461 0 0 0 -2.85297,-0.398579 10.681698,10.670461 0 0 0 -2.85827,0.38816 z m 7.03339,10.837185 a 6.6760605,6.6690376 0 0 1 6.67605,6.669041 6.6760605,6.6690376 0 0 1 -6.67605,6.669035 6.6760605,6.6690376 0 0 1 -6.67608,-6.669035 6.6760605,6.6690376 0 0 1 6.67608,-6.669041 z"
     id="path8-0-0" />
  <path
     d="m 25.21665,13.170332 -4.626302,2.667615 4.177754,7.226528 a 10.681698,10.670461 0 0 0 -2.845145,4.944465 h -8.365942 v 5.335238 h 8.358115 a 10.681698,10.670461 0 0 0 2.855587,4.936647 l -4.180369,7.234342 4.626302,2.66761 4.18042,-7.234334 a 10.681698,10.670461 0 0 0 2.85297,0.398572 10.681698,10.670461 0 0 0 2.85817,-0.388183 l 4.17506,7.223926 4.62636,-2.66761 -4.1778,-7.226533 a 10.681698,10.670461 0 0 0 2.84515,-4.94447 h 8.36601 V 28.00894 H 42.5848 a 10.681698,10.670461 0 0 0 -2.85555,-4.936652 l 4.18038,-7.234341 -4.62636,-2.667615 -4.18026,7.234342 a 10.681698,10.670461 0 0 0 -2.85297,-0.398579 10.681698,10.670461 0 0 0 -2.85827,0.38816 z m 7.03339,10.837186 a 6.6760605,6.6690376 0 0 1 6.67605,6.669036 6.6760605,6.6690376 0 0 1 -6.67605,6.66904 6.6760605,6.6690376 0 0 1 -6.67608,-6.66904 6.6760605,6.6690376 0 0 1 6.67608,-6.669036 z"
     id="path8-0"
     style="fill:url(#linearGradient1);fill-opacity:1;stroke:#000000;stroke-width:1.11403;stroke-dasharray:none;stroke-opacity:0.3" />
</svg>
