<?xml version="1.0" encoding="UTF-8" standalone="no"?>
<svg
   width="64"
   height="64"
   version="1.1"
   id="svg23117"
   sodipodi:docname="kaffeine.svg"
   inkscape:version="1.2.1 (9c6d41e410, 2022-07-14)"
   xmlns:inkscape="http://www.inkscape.org/namespaces/inkscape"
   xmlns:sodipodi="http://sodipodi.sourceforge.net/DTD/sodipodi-0.dtd"
   xmlns:xlink="http://www.w3.org/1999/xlink"
   xmlns="http://www.w3.org/2000/svg"
   xmlns:svg="http://www.w3.org/2000/svg">
  <sodipodi:namedview
     id="namedview23119"
     pagecolor="#ffffff"
     bordercolor="#666666"
     borderopacity="1.0"
     inkscape:showpageshadow="2"
     inkscape:pageopacity="0.0"
     inkscape:pagecheckerboard="0"
     inkscape:deskcolor="#d1d1d1"
     showgrid="false"
     inkscape:zoom="4.9166667"
     inkscape:cx="24.508474"
     inkscape:cy="24.508474"
     inkscape:window-width="1920"
     inkscape:window-height="1002"
     inkscape:window-x="0"
     inkscape:window-y="0"
     inkscape:window-maximized="1"
     inkscape:current-layer="svg23117" />
  <defs
     id="defs23105">
    <linearGradient
       id="a"
       y1="547.63397"
       y2="499.67899"
       x2="388.86499"
       gradientUnits="userSpaceOnUse"
       gradientTransform="translate(-453.04388,-539.81483)"
       x1="428.81601">
      <stop
         stop-color="#2a2c2f"
         id="stop23090" />
      <stop
         offset="1"
         stop-color="#536161"
         id="stop23092" />
    </linearGradient>
    <linearGradient
       id="b"
       y1="44"
       y2="12"
       x2="14"
       gradientUnits="userSpaceOnUse"
       x1="36"
       gradientTransform="translate(-68.473879,-40.014831)">
      <stop
         stop-color="#536161"
         style="stop-color:#bfc9c9;stop-opacity:1"
         id="stop23095" />
      <stop
         offset="1"
         stop-color="#f4f5f5"
         style="stop-color:#fbfbfb;stop-opacity:1"
         id="stop23097" />
    </linearGradient>
    <linearGradient
       id="c"
       y1="527.01398"
       x1="406.50101"
       y2="539.82501"
       x2="419.974"
       gradientUnits="userSpaceOnUse"
       gradientTransform="translate(-453.04388,-539.81483)">
      <stop
         stop-color="#292c2f"
         id="stop23100" />
      <stop
         offset="1"
         stop-opacity="0"
         id="stop23102" />
    </linearGradient>
    <linearGradient
       inkscape:collect="always"
       xlink:href="#linearGradient22063"
       id="linearGradient22065"
       x1="-14"
       y1="6"
       x2="-14"
       y2="-9.999999"
       gradientUnits="userSpaceOnUse"
       gradientTransform="matrix(3.6250002,0,0,3.6250002,82.750005,39.249999)" />
    <linearGradient
       inkscape:collect="always"
       id="linearGradient22063">
      <stop
         style="stop-color:#292f3a;stop-opacity:1;"
         offset="0"
         id="stop22059" />
      <stop
         style="stop-color:#535e75;stop-opacity:1;"
         offset="1"
         id="stop22061" />
    </linearGradient>
    <linearGradient
       gradientTransform="matrix(1.4175135,0,0,1.4175135,-0.97261301,0.3330346)"
       id="b-3"
       y1="23.774559"
       x1="22.540125"
       y2="35.804409"
       x2="35.770538"
       gradientUnits="userSpaceOnUse">
      <stop
         stop-color="#292c2f"
         id="stop12" />
      <stop
         offset="1"
         stop-color="#292c2f"
         stop-opacity="0"
         id="stop14" />
    </linearGradient>
    <linearGradient
       xlink:href="#linearGradient4564"
       id="linearGradient4570"
       x1="18.653"
       y1="20.191"
       x2="7.4320002"
       y2="8.5249996"
       gradientUnits="userSpaceOnUse"
       gradientTransform="matrix(0.99999999,0,0,1.1578948,8.0000025,3.1451316)" />
    <linearGradient
       id="linearGradient4564">
      <stop
         style="stop-color:#ffa92d;stop-opacity:1;"
         offset="0"
         id="stop4566" />
      <stop
         style="stop-color:#ffc169;stop-opacity:1"
         offset="1"
         id="stop4568" />
    </linearGradient>
    <linearGradient
       xlink:href="#linearGradient4574"
       id="linearGradient4580"
       x1="28.615"
       y1="21.502001"
       x2="39.939999"
       y2="10.118"
       gradientUnits="userSpaceOnUse"
       gradientTransform="matrix(0.99999999,0,0,1.1578948,8.0000025,3.1451316)" />
    <linearGradient
       id="linearGradient4574">
      <stop
         style="stop-color:#bf4231;stop-opacity:1;"
         offset="0"
         id="stop4576" />
      <stop
         style="stop-color:#f58273;stop-opacity:1"
         offset="1"
         id="stop4578" />
    </linearGradient>
    <linearGradient
       xlink:href="#linearGradient4590"
       id="linearGradient4596"
       x1="33.241001"
       y1="30.191"
       x2="40.393002"
       y2="37.416"
       gradientUnits="userSpaceOnUse"
       gradientTransform="matrix(0.99999999,0,0,1.1578948,8.0000025,3.1451316)" />
    <linearGradient
       id="linearGradient4590">
      <stop
         id="stop4594"
         offset="0"
         style="stop-color:#54d883;stop-opacity:1" />
      <stop
         id="stop4592"
         offset="1"
         style="stop-color:#3bb566;stop-opacity:1;" />
    </linearGradient>
    <linearGradient
       xlink:href="#linearGradient4582"
       id="linearGradient4588"
       x1="19.830999"
       y1="26.561001"
       x2="9.6899996"
       y2="37.881001"
       gradientUnits="userSpaceOnUse"
       gradientTransform="matrix(0.99999999,0,0,1.1578948,8.0000025,3.1451316)" />
    <linearGradient
       id="linearGradient4582">
      <stop
         id="stop4586"
         offset="0"
         style="stop-color:#7cbcec;stop-opacity:1" />
      <stop
         id="stop4584"
         offset="1"
         style="stop-color:#3b85b5;stop-opacity:1;" />
    </linearGradient>
    <linearGradient
       xlink:href="#linearGradient4626"
       id="linearGradient4632"
       x1="23.693001"
       y1="21.277"
       x2="34.937"
       y2="32.521999"
       gradientUnits="userSpaceOnUse"
       gradientTransform="matrix(1.1,0,0,1.1,5.6000025,4.5346056)" />
    <linearGradient
       id="linearGradient4626">
      <stop
         style="stop-color:#000000;stop-opacity:1;"
         offset="0"
         id="stop4628" />
      <stop
         style="stop-color:#000000;stop-opacity:0;"
         offset="1"
         id="stop4630" />
    </linearGradient>
    <linearGradient
       xlink:href="#linearGradient4598"
       id="linearGradient4604"
       x1="27.197001"
       y1="33.474998"
       x2="21.365999"
       y2="14.901"
       gradientUnits="userSpaceOnUse"
       gradientTransform="matrix(1.1,0,0,1.32,5.6000025,-0.74539444)" />
    <linearGradient
       id="linearGradient4598">
      <stop
         style="stop-color:#172525;stop-opacity:1;"
         offset="0"
         id="stop4600" />
      <stop
         style="stop-color:#334545;stop-opacity:1"
         offset="1"
         id="stop4602" />
    </linearGradient>
    <linearGradient
       xlink:href="#linearGradient4656"
       id="linearGradient4662"
       x1="19.025"
       y1="15.232"
       x2="29.945999"
       y2="31.764999"
       gradientUnits="userSpaceOnUse"
       gradientTransform="matrix(1.1,0,0,1.1,6.7000025,4.5346056)" />
    <linearGradient
       id="linearGradient4656">
      <stop
         style="stop-color:#ffffff;stop-opacity:1;"
         offset="0"
         id="stop4658" />
      <stop
         style="stop-color:#536161;stop-opacity:1"
         offset="1"
         id="stop4660" />
    </linearGradient>
    <linearGradient
       id="d"
       gradientTransform="matrix(2.114694,2.114694,-2.114694,2.114694,3.2088125,-828.15895)"
       gradientUnits="userSpaceOnUse"
       x1="210.5"
       x2="210.5"
       y1="188"
       y2="193.5">
      <stop
         offset="0"
         stop-color="#9b9ea2"
         id="stop17" />
      <stop
         offset="1"
         stop-color="#1a1b1e"
         id="stop19" />
    </linearGradient>
    <linearGradient
       id="a-3"
       gradientTransform="matrix(3.4959872,0,0,3.4959871,1.30074,3.299862)"
       gradientUnits="userSpaceOnUse"
       x1="8.5"
       x2="0.5"
       y1="7.6373668"
       y2="-0.371815">
      <stop
         offset="0"
         stop-color="#4f5356"
         id="stop2" />
      <stop
         offset="1"
         stop-color="#9b9ea2"
         stop-opacity="1"
         id="stop4" />
    </linearGradient>
    <radialGradient
       id="b-6"
       cx="16"
       cy="17"
       gradientUnits="userSpaceOnUse"
       r="11">
      <stop
         offset="0"
         stop-color="#3dd425"
         stop-opacity=".954751"
         id="stop7" />
      <stop
         offset="1"
         stop-color="#59f07c"
         id="stop9" />
    </radialGradient>
    <linearGradient
       id="c-7"
       gradientUnits="userSpaceOnUse"
       x1="14.541744"
       x2="26.541744"
       y1="16"
       y2="28"
       gradientTransform="matrix(1.5,0,0,1.5,8.0000025,7.0414438)">
      <stop
         offset="0"
         id="stop12-5" />
      <stop
         offset="1"
         stop-opacity="0"
         id="stop14-3" />
    </linearGradient>
    <linearGradient
       id="o"
       y1="522.23999"
       x1="385.60999"
       y2="523.27002"
       gradientUnits="userSpaceOnUse"
       x2="409.82001"
       gradientTransform="matrix(1.6436206,1.6436206,-1.6436206,1.6436206,239.87988,-1479.2895)">
      <stop
         stop-color="#ffffff"
         id="stop258" />
      <stop
         offset="1"
         stop-color="#dfe1e3"
         id="stop260" />
    </linearGradient>
    <linearGradient
       id="b-36"
       y1="522.98999"
       x1="430.51001"
       y2="523.85999"
       gradientUnits="userSpaceOnUse"
       x2="378.57999"
       gradientTransform="matrix(0.70711,0.70711,-0.70711,0.70711,113.29106,-627.456)">
      <stop
         stop-color="#fcfcfc"
         id="stop203" />
      <stop
         offset="1"
         stop-color="#e9eaeb"
         id="stop205" />
    </linearGradient>
    <linearGradient
       id="c-75"
       y1="19.868999"
       x1="-28.649"
       y2="49.804001"
       gradientUnits="userSpaceOnUse"
       x2="3.6140001"
       gradientTransform="translate(45.719,-0.92)">
      <stop
         id="stop208" />
      <stop
         offset="1"
         stop-opacity="0"
         id="stop210" />
    </linearGradient>
    <linearGradient
       id="e"
       y1="527.21002"
       x1="422.48001"
       y2="527.34003"
       gradientUnits="userSpaceOnUse"
       x2="425.85999"
       gradientTransform="matrix(0.70711,0.70711,-0.70711,0.70711,105.48,-635.28)">
      <stop
         stop-color="#f9f9f9"
         id="stop218" />
      <stop
         offset="1"
         stop-color="#f6f6f6"
         id="stop220" />
    </linearGradient>
    <linearGradient
       id="h"
       y1="33.922001"
       x1="32.640999"
       y2="34.952999"
       x2="33.609001"
       gradientUnits="userSpaceOnUse"
       gradientTransform="translate(7.8910604,8.234)">
      <stop
         stop-color="#cfcfcf"
         id="stop233" />
      <stop
         offset="1"
         stop-color="#ededed"
         stop-opacity="0"
         id="stop235" />
    </linearGradient>
    <linearGradient
       xlink:href="#c-75"
       id="m"
       y1="20.868999"
       x1="-20.15"
       y2="21.429001"
       gradientUnits="userSpaceOnUse"
       x2="-11.636"
       gradientTransform="translate(28.344,-9.795)" />
    <linearGradient
       xlink:href="#c-75"
       id="n"
       y1="19.120001"
       x1="-14.524"
       y2="19.804001"
       gradientUnits="userSpaceOnUse"
       x2="-10.761"
       gradientTransform="translate(29.344,21.21)" />
    <linearGradient
       id="j"
       y1="1.586"
       x1="12"
       y2="45.310001"
       gradientUnits="userSpaceOnUse"
       x2="11.875"
       gradientTransform="translate(7.8910604,8.234)">
      <stop
         stop-color="#e0e0e0"
         id="stop243" />
      <stop
         offset=".125"
         stop-color="#c0c0c0"
         id="stop245" />
      <stop
         offset=".66"
         stop-color="#9b9b9b"
         id="stop247" />
      <stop
         offset=".732"
         stop-color="#b3b3b3"
         id="stop249" />
      <stop
         offset="1"
         stop-color="#b1b1b1"
         id="stop251" />
    </linearGradient>
    <linearGradient
       id="d-3"
       y1="522.17999"
       x1="388.34"
       y2="523.70001"
       gradientUnits="userSpaceOnUse"
       x2="402.03"
       gradientTransform="matrix(1.025953,1.025953,-1.025953,1.025953,161.81205,-911.1701)">
      <stop
         stop-color="#ffffff"
         id="stop213" />
      <stop
         offset="1"
         stop-color="#eff0f1"
         id="stop215" />
    </linearGradient>
    <linearGradient
       id="f"
       y1="8.6269999"
       x1="9.6420002"
       y2="24.326"
       x2="23.912001"
       gradientUnits="userSpaceOnUse"
       gradientTransform="matrix(1.13742,0,0,1.13731,13.44706,14.928)">
      <stop
         stop-color="#491309"
         id="stop223" />
      <stop
         offset="1"
         stop-color="#b6642d"
         id="stop225" />
    </linearGradient>
    <linearGradient
       id="g"
       y1="15.871"
       x1="16.296"
       y2="31.01"
       x2="30.632999"
       gradientUnits="userSpaceOnUse"
       gradientTransform="translate(7.8910604,8.234)">
      <stop
         stop-color="#fee3a8"
         id="stop228" />
      <stop
         offset="1"
         stop-color="#fcdd99"
         stop-opacity="0"
         id="stop230" />
    </linearGradient>
    <radialGradient
       cx="23.747999"
       cy="23.82"
       xlink:href="#a-5"
       id="l"
       r="5.6570001"
       gradientUnits="userSpaceOnUse"
       gradientTransform="matrix(4.9331,-0.01446,0.01148,3.91554,-93.68,-69.1)" />
    <linearGradient
       id="a-5">
      <stop
         stop-color="#fcdd99"
         id="stop198" />
      <stop
         offset="1"
         stop-color="#fcdd99"
         stop-opacity="0"
         id="stop200" />
    </linearGradient>
    <radialGradient
       cx="23.731001"
       cy="23.885"
       xlink:href="#a-5"
       id="k"
       r="8.335"
       gradientUnits="userSpaceOnUse"
       gradientTransform="matrix(3.38134,-0.04028,0.04004,3.36093,-57.47,-55.43)" />
    <linearGradient
       id="i"
       y1="42.009998"
       x1="13.247"
       y2="34.887001"
       x2="8.8920002"
       gradientUnits="userSpaceOnUse"
       gradientTransform="matrix(1.31518,0,0,1.22972,4.0000604,1.012)">
      <stop
         stop-color="#d6d6d6"
         id="stop238" />
      <stop
         offset="1"
         stop-color="#7a7a7a"
         id="stop240" />
    </linearGradient>
    <linearGradient
       inkscape:collect="always"
       xlink:href="#c-75"
       id="linearGradient527"
       gradientUnits="userSpaceOnUse"
       gradientTransform="translate(45.719,-0.92)"
       x1="-28.649"
       y1="19.868999"
       x2="3.6140001"
       y2="49.804001" />
  </defs>
  <path
     d="M 3,10.25 C 3,6.245825 6.245938,3 10.25,3 h 43.500005 c 4.00417,0 7.25,3.245825 7.25,7.25 v 43.5 c 0,4.004173 -3.24583,7.25 -7.25,7.25 H 10.25 C 6.245938,61 3,57.754173 3,53.75 Z"
     id="path736"
     style="fill:#606c86;fill-opacity:1;stroke-width:3.625" />
  <path
     d="M 3,9.796875 C 3,6.043188 6.245938,3 10.25,3 h 43.500005 c 4.00417,0 7.25,3.043188 7.25,6.796875 v 40.781249 c 0,3.753693 -3.24583,6.796876 -7.25,6.796876 H 10.25 C 6.245938,57.375 3,54.331817 3,50.578124 Z"
     id="path738"
     style="fill:url(#linearGradient22065);fill-opacity:1;stroke-width:3.625" />
  <path
     id="use266"
     color="#000000"
     d="m 52.81056,32.2343 a 20.91978,20.91978 0 1 1 -41.83956,0 20.91978,20.91978 0 1 1 41.83956,0"
     style="fill:url(#o);stroke-width:2.95434" />
  <path

     d="m 31.81506,12.812 c -4.857,0 -9.714,1.861 -13.436,5.582 -7.443,7.443 -7.443,19.428 0,26.871 7.443,7.443 19.428,7.443 26.871,0 7.443,-7.443 7.443,-19.428 0,-26.871 -3.721,-3.721 -8.579,-5.582 -13.436,-5.582"
     id="path268"
     style="fill:url(#b-36)" />
  <g
     color="#000000"
     id="g274"
     transform="translate(7.8910604,8.234)">
    <path
       opacity="0.2"

       fill-rule="evenodd"
       d="M 14.32,32.762 32.4,14.089 44.783,26.593 c -0.815,7.988 -7.512,16.946 -18.46,18.17 z"
       id="path270"
       style="fill:url(#linearGradient527)" />
    <path

       stroke-width="2.324"
       d="m 30,35 4,-6 5,5 -5,5 z"
       id="path272"
       style="fill:url(#e)" />
  </g>
  <path

     d="m 36.89106,42.234 6,-4 2,2 -4.969,5.094 z"
     id="path276"
     style="fill:url(#h)" />
  <g
     fill-rule="evenodd"
     color="#000000"
     id="g282"
     transform="translate(7.8910604,8.234)">
    <path
       opacity="0.4"

       d="M 10.445,11.949 14.757,5.245 27.406,17.718 C 20.966,15.581 19.769,15.539 10.759,16.075 Z"
       id="path278"
       style="fill:url(#m)" />
    <path
       opacity="0.4"

       d="m 10.695,39.762 5.327,-3.548 7.258,8.629 c -3.44,-0.262 -4.825,-0.679 -7.397,-1.456 z"
       id="path280"
       style="fill:url(#n)" />
  </g>
  <path

     d="m 19.89106,10.765 c -1.621,0 -3.243,0.499 -3,1.469 1,4 2,28 1,30 -0.667,1.333 -3,1 -3,5 0,2.867 2.823,8 5,8 1.967,-0.008 5,-5.133 5,-8 0,-4 -2.333,-3.667 -3,-5 -1,-2 0,-26 1,-30 0.243,-0.97 -1.379,-1.469 -3,-1.469 m -0.5,1 v 1.469 l 1.125,-1.438 0.906,0.188 -1.188,1.438 1.188,1.5 -0.906,0.281 -1.125,-1.594 v 1.438 l -0.875,0.125 v -3.344 z"
     id="path284"
     style="fill:url(#j)" />
  <path
     id="use286"
     color="#000000"
     d="m 45.04281,32.32765 a 13.05819,13.05819 0 1 1 -26.11638,0 13.05819,13.05819 0 1 1 26.11638,0"
     style="fill:url(#d-3);stroke-width:2.95405" />
  <path
     id="use288"
     color="#000000"
     d="m 41.88256,31.98765 a 10.23678,10.23579 0 1 1 -20.47356,0 10.23678,10.23579 0 1 1 20.47356,0"
     style="fill:url(#f);stroke-width:1.13736" />
  <path

     d="m 28.94106,36.264 v -8.813 l 7.55,4.346 z"
     id="path290"
     style="fill:url(#g)" />
  <g
     color="#000000"
     id="g296"
     transform="translate(7.8910604,8.234)">
    <path
       opacity="0.052"

       d="m 23.425,18.18 c -0.978,0.051 -1.916,0.39 -2.757,0.883 0.324,0.911 0.839,0.863 1.554,0.447 1.809,-0.659 3.887,0.007 5.133,1.433 0.918,-0.51 0.609,-1.096 -0.109,-1.56 -1.078,-0.848 -2.448,-1.284 -3.821,-1.203 m -5,3.73 c -0.869,2.294 0.021,4.994 1.929,6.463 0.821,-0.687 0.403,-1.16 -0.23,-1.753 -1.059,-1.319 -1.223,-3.206 -0.562,-4.728 -0.385,0.042 -1.138,-0.785 -1.137,0.018 m 10.519,1.372 c -1.071,-0.129 -0.437,1.165 -0.798,1.814 -0.28,1.082 -1.044,1.991 -1.965,2.618 0.332,0.998 0.876,0.871 1.457,0.193 1.277,-1.169 1.885,-2.965 1.747,-4.691 -0.147,0.022 -0.294,0.044 -0.441,0.067 m -7.128,5.157 c -0.554,1 0.982,0.914 1.657,1.028 0.622,0.023 1.237,-0.063 1.838,-0.218 0.018,-1.192 -0.79,-0.957 -1.687,-0.852 -0.527,0.249 -1.815,-0.791 -1.808,0.042"
       id="path292"
       style="fill:url(#l)" />
    <path
       opacity="0.052"

       d="m 16.932,19.02 c -0.846,1.171 -1.324,2.559 -1.536,3.981 1.345,0.47 1.767,-0.166 1.95,-1.37 0.916,-2.686 3.602,-4.456 6.391,-4.568 C 24,15.538 23.042,15.35 21.846,15.746 19.875,16.2 18.108,17.37 16.932,19.02 m -0.341,9.189 c 1.83,3.119 5.753,4.595 9.203,3.762 -0.029,-1.578 -0.959,-1.536 -2.225,-1.357 -2.493,-0.004 -4.812,-1.561 -5.948,-3.726 -0.308,0.48 -1.954,0.582 -1.03,1.322 M 27.894,17.402 c -1.139,1.11 0.933,1.578 1.344,2.593 0.983,1.322 1.32,3.04 1.189,4.676 1.454,0.542 1.811,-0.201 1.569,-1.494 -0.162,-2.547 -1.661,-4.906 -3.771,-6.344 -0.111,0.189 -0.221,0.379 -0.332,0.568 m -0.67,12.952 c 0.637,1.561 1.957,-0.283 2.712,-0.951 0.601,-0.693 1.072,-1.478 1.45,-2.311 -1.352,-1.123 -1.829,0.023 -2.538,1.148 -0.202,0.836 -2.586,1.352 -1.623,2.115"
       id="path294"
       style="fill:url(#k)" />
  </g>
  <path

     d="m 21.93106,43.564 c 0.118,0.059 2.133,0.718 2.142,3.68 0.009,2.872 -2.84,7 -4.284,7.01 -1.57,0.009 -4.246,-4.139 -4.284,-7.01 -0.037,-2.74 2.024,-3.603 2.142,-3.68 1.459,-0.838 2.894,-0.848 4.284,0"
     id="path298"
     style="fill:url(#i)" />
  <path
     opacity="0.36"
     fill="#ffffff"
     d="m 19.89106,10.765 c -1.621,0 -3.243,0.499 -3,1.469 1,4 2,28 1,30 -0.194,0.512 0.159,0.044 0.375,-0.125 0.938,-2.512 0.331,-25.925 -0.656,-29.875 -0.225,-0.9 1.161,-1.371 2.656,-1.438 -0.127,-0.006 -0.247,-0.031 -0.375,-0.031"
     id="path300" />
</svg>
