<?xml version="1.0" encoding="UTF-8" standalone="no"?>
<!-- Created with Inkscape (http://www.inkscape.org/) -->

<svg
   version="1.1"
   width="64"
   height="64"
   id="svg3039"
   style="display:inline"
   sodipodi:docname="kipi-rajce.svg"
   inkscape:version="1.2.1 (9c6d41e410, 2022-07-14)"
   xmlns:inkscape="http://www.inkscape.org/namespaces/inkscape"
   xmlns:sodipodi="http://sodipodi.sourceforge.net/DTD/sodipodi-0.dtd"
   xmlns:xlink="http://www.w3.org/1999/xlink"
   xmlns="http://www.w3.org/2000/svg"
   xmlns:svg="http://www.w3.org/2000/svg"
   xmlns:rdf="http://www.w3.org/1999/02/22-rdf-syntax-ns#"
   xmlns:cc="http://creativecommons.org/ns#"
   xmlns:dc="http://purl.org/dc/elements/1.1/">
  <sodipodi:namedview
     id="namedview13"
     pagecolor="#ffffff"
     bordercolor="#666666"
     borderopacity="1.0"
     inkscape:showpageshadow="2"
     inkscape:pageopacity="0.0"
     inkscape:pagecheckerboard="0"
     inkscape:deskcolor="#d1d1d1"
     showgrid="false"
     inkscape:zoom="1.84375"
     inkscape:cx="64"
     inkscape:cy="64.271186"
     inkscape:window-width="1920"
     inkscape:window-height="1010"
     inkscape:window-x="0"
     inkscape:window-y="0"
     inkscape:window-maximized="1"
     inkscape:current-layer="svg3039" />
  <metadata
     id="metadata3045">
    <rdf:RDF>
      <cc:Work
         rdf:about="">
        <dc:format>image/svg+xml</dc:format>
        <dc:type
           rdf:resource="http://purl.org/dc/dcmitype/StillImage" />
      </cc:Work>
    </rdf:RDF>
  </metadata>
  <defs
     id="defs3043">
    <linearGradient
       inkscape:collect="always"
       xlink:href="#linearGradient22063"
       id="linearGradient22065"
       x1="-14"
       y1="6"
       x2="-14"
       y2="-9.999999"
       gradientUnits="userSpaceOnUse"
       gradientTransform="matrix(3.6250002,0,0,3.6250002,82.75001,39.249999)" />
    <linearGradient
       inkscape:collect="always"
       id="linearGradient22063">
      <stop
         style="stop-color:#292f3a;stop-opacity:1;"
         offset="0"
         id="stop22059" />
      <stop
         style="stop-color:#535e75;stop-opacity:1;"
         offset="1"
         id="stop22061" />
    </linearGradient>
  </defs>
  <path
     d="M 3,10.25 C 3,6.245825 6.24594,3 10.25,3 h 43.50001 c 4.00417,0 7.25,3.245825 7.25,7.25 v 43.5 c 0,4.004173 -3.24583,7.25 -7.25,7.25 H 10.25 C 6.24594,61 3,57.754173 3,53.75 Z"
     id="path736"
     style="fill:#606c86;fill-opacity:1;stroke-width:3.625" />
  <path
     d="M 3,9.796875 C 3,6.043188 6.24594,3 10.25,3 h 43.50001 c 4.00417,0 7.25,3.043188 7.25,6.796875 v 40.781249 c 0,3.753693 -3.24583,6.796876 -7.25,6.796876 H 10.25 C 6.24594,57.375 3,54.331817 3,50.578124 Z"
     id="path738"
     style="fill:url(#linearGradient22065);fill-opacity:1;stroke-width:3.625" />
  <path
     style="fill:#88c057;stroke-width:0.774007"
     d="m 43.219883,16.746531 c -1.983013,-1.270914 -5.707519,-3.041828 -9.285755,-1.405595 -0.344423,0.1579 -0.736849,-0.09061 -0.736849,-0.46981 v -3.28875 C 33.198048,10.822306 32.681805,10.2 32.050989,10.2 h -1.720622 c -0.630811,0 -1.147076,0.622306 -1.147076,1.382376 v 3.483787 c 0,0.328965 -0.297995,0.578194 -0.620756,0.511633 -1.452801,-0.299542 -5.225301,-0.765493 -8.832938,1.389337 -0.493819,0.294887 -0.207439,1.068896 0.359143,0.965185 1.679592,-0.30728 3.890135,-0.518595 5.383982,0.07128 0.391642,0.154025 0.448134,0.689634 0.09593,0.920294 -1.061169,0.692747 -3.018631,2.28564 -4.301155,5.214475 -0.218269,0.498457 0.39475,0.945061 0.815031,0.599083 1.638564,-1.349872 4.334425,-3.178836 6.620818,-2.883942 0.269372,0.03486 0.473705,0.25463 0.469839,0.526322 -0.02323,1.53408 -0.004,6.746219 1.263183,8.719165 0.199683,0.311143 0.647067,0.326624 0.864557,0.02713 0.807298,-1.109151 2.557308,-4.050366 2.485331,-8.643309 -0.004,-0.301871 0.237626,-0.547219 0.539468,-0.537165 1.153285,0.03709 3.876222,0.363016 6.03571,2.472176 0.353717,0.34597 0.939631,0.04726 0.877719,-0.443497 -0.169513,-1.342917 -0.908692,-3.373899 -3.584417,-4.949003 -0.406363,-0.23917 -0.337481,-0.847536 0.119972,-0.959759 0.924158,-0.226785 2.517067,-0.442734 5.142478,-0.356042 0.53329,0.01623 0.750785,-0.675715 0.302648,-0.962868 z"
     id="path193" />
  <path
     style="fill:#d13834;stroke-width:0.774007"
     d="m 43.822052,17.932318 c -0.072,-0.05038 -0.155579,-0.08203 -0.24303,-0.09283 -0.3096,-0.03787 -0.619982,-0.07345 -0.929591,-0.115337 -0.110678,-0.01094 -0.222137,-0.0194 -0.332038,-0.03018 -2.255463,-0.03711 -3.671109,0.159453 -4.524832,0.366878 -0.46364,0.113011 -0.547231,0.720606 -0.135457,0.962858 2.675732,1.575108 3.414129,3.606097 3.583643,4.948225 0.06197,0.490719 -0.524002,0.78949 -0.87772,0.443508 -2.159476,-2.10839 -4.882424,-2.434256 -6.035696,-2.472181 -0.301855,-0.0092 -0.544906,0.235295 -0.539471,0.537166 0.0713,4.592949 -1.678043,7.534165 -2.485341,8.643316 -0.218265,0.299528 -0.664874,0.284063 -0.864567,-0.02717 -1.26705,-1.972946 -1.286392,-7.185097 -1.263173,-8.719163 0.004,-0.270914 -0.200467,-0.491504 -0.469829,-0.526326 -2.286403,-0.295653 -4.982265,1.534088 -6.620828,2.883952 -0.420281,0.345966 -1.033301,-0.100587 -0.815031,-0.599091 1.280976,-2.924969 3.235345,-4.517106 4.297278,-5.211389 0.353711,-0.231426 0.294888,-0.769365 -0.09915,-0.921066 -0.287161,-0.11069 -0.600619,-0.192734 -0.931134,-0.250779 -0.05892,-0.01094 -0.121505,-0.01165 -0.181104,-0.0029 -1.876973,0.255427 -3.72065,0.612239 -5.51015,1.092117 -0.07904,0.02082 -0.152471,0.05887 -0.215177,0.111461 C 14.67992,22.239826 12.2,26.971326 12.2,32.23224 12.2,42.155756 21.018245,50.2 31.89533,50.2 c 10.877096,0 19.69534,-8.044244 19.69534,-17.96776 7.72e-4,-5.833671 -3.047264,-11.01795 -7.768694,-14.299736 z"
     id="path195" />
  <path
     style="fill:#ed7161;stroke-width:0.774007"
     d="m 16.378152,37.008442 c -0.264701,0 -0.52246,-0.135442 -0.66642,-0.379263 -0.578951,-0.977566 -0.958205,-2.057299 -1.127718,-3.209021 -0.0619,-0.423379 0.230657,-0.816576 0.653254,-0.878495 0.430345,-0.06661 0.816584,0.230662 0.878496,0.653261 0.137785,0.938873 0.458998,1.853741 0.928022,2.645556 0.217506,0.367645 0.09673,0.842888 -0.271671,1.060384 -0.123831,0.07272 -0.260059,0.107587 -0.393963,0.107587 z"
     id="path197" />
  <path
     style="fill:#ed7161;stroke-width:0.774007"
     d="m 15.447017,30.848905 c -0.01779,0 -0.0363,-7.63e-4 -0.05419,-0.0027 -0.427238,-0.02933 -0.748451,-0.399326 -0.719055,-0.825028 0.0727,-1.027108 0.283306,-2.024798 0.62773,-2.967538 0.146274,-0.401708 0.589005,-0.606044 0.993038,-0.461307 0.401728,0.146281 0.607595,0.59134 0.461317,0.993044 -0.294908,0.805783 -0.475239,1.661051 -0.537153,2.542644 -0.02855,0.408672 -0.368425,0.720596 -0.771692,0.720596 z"
     id="path199" />
</svg>
