<?xml version="1.0" encoding="UTF-8" standalone="no"?>
<svg
   width="64"
   height="64"
   viewBox="0 0 64 64"
   version="1.1"
   id="svg22024"
   sodipodi:docname="kirogi.svg"
   inkscape:version="1.2.1 (9c6d41e410, 2022-07-14)"
   xmlns:inkscape="http://www.inkscape.org/namespaces/inkscape"
   xmlns:sodipodi="http://sodipodi.sourceforge.net/DTD/sodipodi-0.dtd"
   xmlns:xlink="http://www.w3.org/1999/xlink"
   xmlns="http://www.w3.org/2000/svg"
   xmlns:svg="http://www.w3.org/2000/svg">
  <sodipodi:namedview
     id="namedview22026"
     pagecolor="#ffffff"
     bordercolor="#666666"
     borderopacity="1.0"
     inkscape:showpageshadow="2"
     inkscape:pageopacity="0.0"
     inkscape:pagecheckerboard="0"
     inkscape:deskcolor="#d1d1d1"
     showgrid="false"
     inkscape:zoom="4.9166667"
     inkscape:cx="24.508474"
     inkscape:cy="24.508474"
     inkscape:window-width="1920"
     inkscape:window-height="1002"
     inkscape:window-x="0"
     inkscape:window-y="0"
     inkscape:window-maximized="1"
     inkscape:current-layer="svg22024" />
  <defs
     id="defs22004">
    <linearGradient
       id="linearGradient4212">
      <stop
         style="stop-color:#000000;stop-opacity:1;"
         offset="0"
         id="stop21980" />
      <stop
         style="stop-color:#000000;stop-opacity:0;"
         offset="1"
         id="stop21982" />
    </linearGradient>
    <linearGradient
       id="linearGradient4198">
      <stop
         style="stop-color:#272b2d;stop-opacity:1;"
         offset="0"
         id="stop21985" />
      <stop
         style="stop-color:#3e4447;stop-opacity:1"
         offset="1"
         id="stop21987" />
    </linearGradient>
    <linearGradient
       id="linearGradient4185">
      <stop
         style="stop-color:#acacac;stop-opacity:1"
         offset="0"
         id="stop21990" />
      <stop
         style="stop-color:#cbcbcb;stop-opacity:1"
         offset="1"
         id="stop21992" />
    </linearGradient>
    <linearGradient
       id="linearGradient4144">
      <stop
         style="stop-color:#3b962d;stop-opacity:1"
         offset="0"
         id="stop21995" />
      <stop
         style="stop-color:#93d169;stop-opacity:1"
         offset="1"
         id="stop21997" />
    </linearGradient>
    <linearGradient
       xlink:href="#linearGradient4144"
       id="linearGradient4150"
       x1="25"
       y1="1046.3621"
       x2="25"
       y2="1010.362"
       gradientUnits="userSpaceOnUse"
       gradientTransform="translate(86.850772,-1045.9604)" />
    <radialGradient
       xlink:href="#linearGradient4185"
       id="radialGradient4191"
       cx="24"
       cy="1025.3621"
       fx="24"
       fy="1025.3621"
       r="2"
       gradientTransform="matrix(1,0,0,0.9998745,86.850772,-1045.8317)"
       gradientUnits="userSpaceOnUse" />
    <linearGradient
       xlink:href="#linearGradient4198"
       id="linearGradient4204"
       x1="24"
       y1="1032.3621"
       x2="24"
       y2="1018.362"
       gradientUnits="userSpaceOnUse"
       gradientTransform="translate(86.850772,-1045.9604)" />
    <linearGradient
       xlink:href="#linearGradient4212"
       id="linearGradient4218"
       x1="20"
       y1="17"
       x2="38"
       y2="35"
       gradientUnits="userSpaceOnUse"
       gradientTransform="translate(86.850772,-41.5982)" />
    <linearGradient
       inkscape:collect="always"
       xlink:href="#linearGradient22063-0"
       id="linearGradient22065-6"
       x1="-13.999999"
       y1="6"
       x2="-13.999999"
       y2="-9.999999"
       gradientUnits="userSpaceOnUse"
       gradientTransform="matrix(3.6250002,0,0,3.6250002,82.750001,39.249999)" />
    <linearGradient
       inkscape:collect="always"
       id="linearGradient22063-0">
      <stop
         style="stop-color:#81a662;stop-opacity:1;"
         offset="0"
         id="stop22059-6" />
      <stop
         style="stop-color:#8fbcbb;stop-opacity:1;"
         offset="1"
         id="stop22061-2" />
    </linearGradient>
    <radialGradient
       xlink:href="#linearGradient4185"
       id="radialGradient4191-8"
       cx="24"
       cy="1025.3621"
       fx="24"
       fy="1025.3621"
       r="2"
       gradientTransform="matrix(1.3333244,0,0,1.3331571,-53.621395,-1399.2795)"
       gradientUnits="userSpaceOnUse" />
    <radialGradient
       xlink:href="#linearGradient4185"
       id="radialGradient4191-8-3"
       cx="24"
       cy="1025.3621"
       fx="24"
       fy="1025.3621"
       r="2"
       gradientTransform="matrix(1.3999917,0,0,1.3998155,-2.0999057,-1415.0207)"
       gradientUnits="userSpaceOnUse" />
    <linearGradient
       xlink:href="#linearGradient4167"
       id="linearGradient4161"
       x1="-44"
       y1="-24"
       x2="-4"
       y2="-24"
       gradientUnits="userSpaceOnUse"
       gradientTransform="translate(-7.193816,-7.9352386)" />
    <linearGradient
       id="linearGradient4167">
      <stop
         style="stop-color:#009467;stop-opacity:1"
         offset="0"
         id="stop477" />
      <stop
         style="stop-color:#87d770;stop-opacity:1"
         offset="1"
         id="stop479" />
    </linearGradient>
    <linearGradient
       xlink:href="#b"
       id="linearGradient4412"
       gradientUnits="userSpaceOnUse"
       gradientTransform="matrix(1.452741,0,0,1.452741,40.243254,-1.8814501)"
       x1="-7.283"
       y1="15.656"
       x2="11.881"
       y2="33.522999" />
    <linearGradient
       id="b"
       y1="23.775"
       x1="22.540001"
       y2="44.054001"
       x2="42.646"
       gradientUnits="userSpaceOnUse"
       gradientTransform="translate(30)">
      <stop
         stop-color="#292c2f"
         id="stop167" />
      <stop
         offset="1"
         stop-color="#292c2f"
         stop-opacity="0"
         id="stop169" />
    </linearGradient>
    <linearGradient
       xlink:href="#b"
       id="linearGradient4384"
       gradientUnits="userSpaceOnUse"
       gradientTransform="matrix(1.452741,0,0,1.452741,40.243254,-1.0814501)"
       x1="-21.261"
       y1="13.899"
       x2="10.555"
       y2="48.902" />
    <linearGradient
       id="d"
       gradientTransform="matrix(1.2937002,0,0,1.1858962,0.94835675,7.0068872)"
       gradientUnits="userSpaceOnUse"
       x1="24"
       x2="24"
       xlink:href="#a"
       y1="29"
       y2="40" />
    <linearGradient
       id="a">
      <stop
         offset="0"
         stop-color="#78542e"
         id="stop172" />
      <stop
         offset="1"
         stop-color="#544020"
         id="stop174" />
    </linearGradient>
    <linearGradient
       id="e"
       gradientUnits="userSpaceOnUse"
       x1="6.3499999"
       x2="6.3499999"
       y1="293.82501"
       y2="286.15201"
       gradientTransform="matrix(4.8896372,0,0,4.8896372,0.94835675,-1386.1352)">
      <stop
         offset="0"
         stop-color="#dadedf"
         id="stop177" />
      <stop
         offset="1"
         stop-color="#fcfcfc"
         id="stop179" />
    </linearGradient>
    <linearGradient
       id="f"
       gradientUnits="userSpaceOnUse"
       x1="24"
       x2="24"
       xlink:href="#a"
       y1="9.007"
       y2="21.025999"
       gradientTransform="matrix(1.2937002,0,0,1.2937002,0.94835675,3.9886846)" />
    <linearGradient
       id="g"
       gradientUnits="userSpaceOnUse"
       x1="6.3499999"
       x2="6.3499999"
       y1="294.09"
       y2="289.85999"
       gradientTransform="matrix(4.8896372,0,0,4.8896372,0.94835675,-1386.1352)">
      <stop
         offset="0"
         stop-color="#e26b00"
         id="stop187" />
      <stop
         offset="1"
         stop-color="#ff9230"
         id="stop189" />
    </linearGradient>
    <linearGradient
       id="h"
       gradientTransform="matrix(1.2937002,0,0,1.2936873,0.94835675,3.9886846)"
       gradientUnits="userSpaceOnUse"
       x1="24"
       x2="24"
       y1="24"
       y2="21">
      <stop
         offset="0"
         stop-color="#232629"
         id="stop182" />
      <stop
         offset="1"
         stop-color="#4f535c"
         id="stop184" />
    </linearGradient>
    <linearGradient
       id="i"
       gradientUnits="userSpaceOnUse"
       x1="6.3499999"
       x2="6.3499999"
       y1="289.32599"
       y2="286.94601"
       gradientTransform="matrix(4.8896372,0,0,4.8896372,0.94835675,-1386.1352)">
      <stop
         offset="0"
         stop-color="#7e8690"
         id="stop204" />
      <stop
         offset="1"
         stop-color="#8f97a1"
         id="stop206" />
    </linearGradient>
    <linearGradient
       id="j"
       gradientTransform="matrix(1.2944825,0,0,1.2201601,0.89946075,3.5975079)"
       gradientUnits="userSpaceOnUse"
       x1="24.025"
       x2="24.025"
       y1="18.358999"
       y2="10.937">
      <stop
         offset="0"
         stop-color="#098ae7"
         id="stop209" />
      <stop
         offset="1"
         stop-color="#34a3f4"
         id="stop211" />
    </linearGradient>
  </defs>
  <path
     d="m 2.9999985,10.25 c 0,-4.004175 3.245938,-7.25 7.2500005,-7.25 h 43.500003 c 4.004173,0 7.25,3.245825 7.25,7.25 v 43.5 c 0,4.004173 -3.245827,7.25 -7.25,7.25 H 10.249999 C 6.2459365,61 2.9999985,57.754173 2.9999985,53.75 Z"
     id="path736-7"
     style="fill:#606c86;fill-opacity:1;stroke-width:3.625" />
  <path
     d="M 2.9999985,9.796875 C 2.9999985,6.043188 6.2459365,3 10.249999,3 h 43.500003 c 4.004173,0 7.25,3.043188 7.25,6.796875 v 40.781249 c 0,3.753693 -3.245827,6.796876 -7.25,6.796876 H 10.249999 c -4.0040625,0 -7.2500005,-3.043183 -7.2500005,-6.796876 z"
     id="path738-9"
     style="fill:url(#linearGradient22065-6);fill-opacity:1;stroke-width:3.625" />
  <path
     d="m 15.179063,40.21229 c 0,3.557675 -0.336363,11.948614 1.614537,13.899514 0.336363,0.336362 0.540767,0.331187 0.715416,0.331187 0.53818,0 -0.116434,-6.141194 1.551147,-9.487996 z m 33.636203,0 -3.8811,4.742705 c 1.668874,3.346802 1.012967,9.487996 1.55244,9.487996 0.173356,0 0.376467,0.0065 0.714123,-0.331187 1.9509,-1.9509 1.614537,-10.341839 1.614537,-13.899514 z"
     fill="url(#d)"
     id="path218"
     style="fill:url(#d);stroke-width:1.2937" />
  <path
     d="m 32.951035,10.443 c -1.87762,3.50098 -7.720737,3.588994 -11.304841,6.46899 -5.143899,4.136633 -7.759854,14.228843 -7.759854,19.406969 0,2.586618 1.726042,6.46899 2.591508,7.759854 2.581728,3.882372 6.566782,5.696427 10.346472,6.46899 1.696704,0.347164 7.960329,0.264041 10.346471,0 4.043731,-0.444957 7.764744,-2.591507 10.351362,-6.46899 0.865466,-1.290864 2.591508,-5.588855 2.591508,-7.759854 0,-5.178126 -2.170999,-16.003781 -7.764744,-19.406969 -2.977789,-1.843393 -7.974997,-2.581728 -9.515234,-3.266277 0.180917,-0.567198 0.94859,-0.958369 0.122243,-3.202713 z"
     fill="url(#e)"
     id="path220"
     style="fill:url(#e);stroke-width:4.88964" />
  <path
     d="m 26.026738,15.424995 a 4.5253632,4.5253632 0 0 0 -1.74132,0.280733 c -3.683164,1.420482 -4.565469,1.853872 -6.518956,3.807359 -3.12946,3.129461 -4.499489,13.563152 -2.309254,12.054698 7.202029,-4.957459 11.339281,-5.446477 12.449277,-6.073922 1.404958,-0.793038 1.219959,-2.099675 4.09068,-2.099675 2.87072,0 2.685721,1.306637 4.090679,2.099675 1.109995,0.626151 5.247248,1.116463 12.449277,6.073922 2.190235,1.508454 0.8215,-8.923943 -2.309255,-12.054698 -1.952194,-1.952193 -2.83579,-2.386877 -6.520248,-3.807359 a 4.5279505,4.5279505 0 0 0 -1.740027,-0.280733 c -1.791775,0.03364 -3.749144,0.83573 -5.970426,0.83573 -2.221284,0 -4.178651,-0.802094 -5.970427,-0.83573 z"
     fill="url(#f)"
     id="path222"
     style="fill:url(#f);stroke-width:1.2937" />
  <path
     d="m 31.997555,22.080342 c -3.789469,0 -2.963119,2.376364 -4.092625,3.393408 1.408215,-0.792121 1.222409,-2.102544 4.092625,-2.102544 2.870218,0 2.6893,1.310423 4.092627,2.102544 -1.129506,-1.017044 -0.303158,-3.393408 -4.092627,-3.393408 z"
     opacity="0.388"
     id="path224"
     style="stroke-width:4.88964" />
  <path
     d="m 31.997555,51.858226 c -5.173235,0 -12.937979,-5.173236 -12.937979,-7.759854 0,-2.591508 3.882372,-3.882371 5.173235,-6.468989 1.295755,-2.591508 3.882372,-6.46899 7.764744,-6.46899 3.882372,0 6.46899,3.877482 7.759855,6.46899 1.295753,2.586618 5.178125,3.877481 5.178125,6.464099 0,2.591508 -7.764744,7.764744 -12.93798,7.764744 z"
     fill="url(#g)"
     id="path226"
     style="fill:url(#g);stroke-width:4.88964" />
  <path
     d="m 26.594506,38.920252 c -0.738334,0 -1.06105,1.241967 -1.134395,1.858062 -0.03423,0.298268 0.347164,0.728555 0.650322,0.728555 0.684549,0 0.93881,-2.591506 0.484073,-2.591506 z m 10.806098,0 c -0.459625,0 -0.195585,2.586617 0.479185,2.586617 0.303158,0 0.689438,-0.430287 0.655212,-0.728555 -0.07334,-0.616095 -0.396061,-1.858062 -1.134397,-1.858062 z"
     opacity="0.55"
     id="path228"
     style="stroke-width:4.88964" />
  <path
     d="m 21.048579,31.156389 c -0.482549,0 -0.694716,0.900415 -0.694716,1.821529 0,0.921115 0.0621,2.059571 0.56276,2.059571 0.500662,0 0.730941,-1.080239 0.730941,-2.059571 0,-0.97933 -0.116435,-1.821529 -0.598985,-1.821529 z m 21.89717,0 c -0.48255,0 -0.598983,0.985799 -0.598983,1.821529 0,0.835731 0.3079,2.059571 0.73094,2.059571 0.42304,0 0.562761,-1.166918 0.562761,-2.059571 0,-0.892652 -0.212167,-1.821529 -0.694718,-1.821529 z"
     fill="url(#h)"
     id="path230"
     style="fill:url(#h);stroke-width:1.2937" />
  <path
     d="m 25.777937,16.310565 c -1.251747,0.09779 -2.699079,0.53786 -4.131743,1.261526 -2.170999,1.109948 -4.019281,2.459488 -5.173236,4.694052 -0.410729,0.787231 -1.916738,4.390894 0,5.657309 1.506009,0.997487 2.728418,-1.222409 5.173236,-2.591507 2.444818,-1.359319 5.603524,-1.711373 6.468989,-2.268792 1.22241,-0.79701 1.295754,-2.835989 1.295754,-4.195308 0,-1.941186 -1.545125,-2.718638 -3.633,-2.55728 z m 12.439236,0 c -2.087874,-0.161358 -3.633,0.616094 -3.633,2.55728 0,1.364209 0.06845,3.398298 1.295754,4.195308 0.865467,0.562309 4.019282,0.909473 6.46899,2.273682 2.444819,1.364208 3.667228,3.584104 5.173236,2.586617 1.911849,-1.266415 0.41073,-4.870078 0,-5.662199 -1.153954,-2.229674 -3.002237,-3.579214 -5.173236,-4.689162 a 11.334179,11.334179 0 0 0 -4.131744,-1.261526 z"
     fill="url(#i)"
     id="path234"
     style="fill:url(#i);stroke-width:4.88964" />
  <path
     d="m 25.821944,16.701736 a 11.05058,11.05058 0 0 0 -3.76502,1.090389 c -2.092765,1.002375 -3.725903,2.141661 -4.762507,4.024171 a 8.6497679,8.6497679 0 0 0 -0.772563,2.234564 3.2613879,3.2613879 0 0 0 -0.0098,1.251747 c 0.07823,0.327606 0.205365,0.518302 0.459626,0.67966 0.185806,0.117353 0.190696,0.09779 0.332496,0.06845 a 2.8506584,2.8506584 0 0 0 0.782341,-0.430287 c 0.713887,-0.508523 1.691815,-1.403326 3.051133,-2.117213 1.34954,-0.708998 2.82621,-1.124616 4.04862,-1.442443 1.227299,-0.312937 2.303019,-0.635653 2.361695,-0.67477 0.303158,-0.185806 0.54275,-0.596536 0.684549,-1.20774 0.146689,-0.611205 0.176027,-1.35443 0.176027,-1.985193 0,-0.53786 -0.146689,-0.80679 -0.381391,-1.026824 a 2.1661092,2.1661092 0 0 0 -1.22241,-0.454736 5.011878,5.011878 0 0 0 -0.987707,-0.0098 z m 12.356113,0 a 5.011878,5.011878 0 0 0 -0.987706,0.0098 2.1661092,2.1661092 0 0 0 -1.22241,0.454736 c -0.234703,0.220034 -0.381391,0.488964 -0.381391,1.026824 0,0.630763 0.02934,1.369098 0.171137,1.985192 0.146689,0.611205 0.39117,1.021934 0.689438,1.202851 0.05868,0.03912 1.134396,0.366723 2.361695,0.67966 1.227299,0.312936 2.699079,0.733445 4.048619,1.442443 1.35932,0.713887 2.337247,1.61358 3.051134,2.117213 0.356944,0.249371 0.635653,0.39606 0.782342,0.430287 0.14669,0.03423 0.14669,0.04889 0.332496,-0.07334 0.25426,-0.156468 0.381391,-0.342274 0.459625,-0.67477 a 3.2564983,3.2564983 0 0 0 -0.0098,-1.251767 8.6448783,8.6448783 0 0 0 -0.772562,-2.234563 C 45.66407,19.928902 44.030932,18.794506 41.938167,17.79213 A 11.05058,11.05058 0 0 0 38.1732,16.701736 Z"
     fill="url(#j)"
     id="path236"
     style="fill:url(#j);stroke-width:4.88964" />
</svg>
