<?xml version="1.0" encoding="UTF-8" standalone="no"?>
<svg
   width="64"
   height="64"
   version="1.1"
   id="svg23117"
   sodipodi:docname="kreversi.svg"
   inkscape:version="1.2.2 (b0a8486541, 2022-12-01)"
   xmlns:inkscape="http://www.inkscape.org/namespaces/inkscape"
   xmlns:sodipodi="http://sodipodi.sourceforge.net/DTD/sodipodi-0.dtd"
   xmlns:xlink="http://www.w3.org/1999/xlink"
   xmlns="http://www.w3.org/2000/svg"
   xmlns:svg="http://www.w3.org/2000/svg">
  <sodipodi:namedview
     id="namedview23119"
     pagecolor="#ffffff"
     bordercolor="#666666"
     borderopacity="1.0"
     inkscape:showpageshadow="2"
     inkscape:pageopacity="0.0"
     inkscape:pagecheckerboard="0"
     inkscape:deskcolor="#d1d1d1"
     showgrid="false"
     inkscape:zoom="4.9166667"
     inkscape:cx="-25.728813"
     inkscape:cy="24.508474"
     inkscape:window-width="1920"
     inkscape:window-height="994"
     inkscape:window-x="0"
     inkscape:window-y="0"
     inkscape:window-maximized="1"
     inkscape:current-layer="svg23117" />
  <defs
     id="defs23105">
    <linearGradient
       id="a"
       y1="547.63397"
       y2="499.67899"
       x2="388.86499"
       gradientUnits="userSpaceOnUse"
       gradientTransform="translate(-453.04388,-539.81483)"
       x1="428.81601">
      <stop
         stop-color="#2a2c2f"
         id="stop23090" />
      <stop
         offset="1"
         stop-color="#536161"
         id="stop23092" />
    </linearGradient>
    <linearGradient
       id="b"
       y1="44"
       y2="12"
       x2="14"
       gradientUnits="userSpaceOnUse"
       x1="36"
       gradientTransform="translate(-68.473879,-40.014831)">
      <stop
         stop-color="#536161"
         style="stop-color:#bfc9c9;stop-opacity:1"
         id="stop23095" />
      <stop
         offset="1"
         stop-color="#f4f5f5"
         style="stop-color:#fbfbfb;stop-opacity:1"
         id="stop23097" />
    </linearGradient>
    <linearGradient
       id="c"
       y1="527.01398"
       x1="406.50101"
       y2="539.82501"
       x2="419.974"
       gradientUnits="userSpaceOnUse"
       gradientTransform="translate(-453.04388,-539.81483)">
      <stop
         stop-color="#292c2f"
         id="stop23100" />
      <stop
         offset="1"
         stop-opacity="0"
         id="stop23102" />
    </linearGradient>
    <linearGradient
       inkscape:collect="always"
       xlink:href="#linearGradient22063"
       id="linearGradient22065"
       x1="-14"
       y1="6"
       x2="-14"
       y2="-9.999999"
       gradientUnits="userSpaceOnUse"
       gradientTransform="matrix(3.6250002,0,0,3.6250002,82.750005,39.249999)" />
    <linearGradient
       inkscape:collect="always"
       id="linearGradient22063">
      <stop
         style="stop-color:#4c566a;stop-opacity:1;"
         offset="0"
         id="stop22059" />
      <stop
         style="stop-color:#65738e;stop-opacity:1;"
         offset="1"
         id="stop22061" />
    </linearGradient>
  </defs>
  <path
     d="M 3,10.25 C 3,6.245825 6.245938,3 10.25,3 h 43.500005 c 4.00417,0 7.25,3.245825 7.25,7.25 v 43.5 c 0,4.004173 -3.24583,7.25 -7.25,7.25 H 10.25 C 6.245938,61 3,57.754173 3,53.75 Z"
     id="path736"
     style="fill:#8894aa;fill-opacity:1;stroke-width:3.625" />
  <path
     d="M 3,9.796875 C 3,6.043188 6.245938,3 10.25,3 h 43.500005 c 4.00417,0 7.25,3.043188 7.25,6.796875 v 40.781249 c 0,3.753693 -3.24583,6.796876 -7.25,6.796876 H 10.25 C 6.245938,57.375 3,54.331817 3,50.578124 Z"
     id="path738"
     style="fill:url(#linearGradient22065);fill-opacity:1;stroke-width:3.625" />
  <path
     style="opacity:0.2;stroke-width:0.743478"
     d="m 26.638424,11.249079 c -0.95228,0.213832 -1.879071,0.490296 -2.774362,0.840445 -1.956605,1.879985 -3.180475,4.537933 -3.180475,7.489292 0,0.20676 0.02534,0.407181 0.04096,0.610256 0.268737,-3.288392 2.052728,-6.139099 4.645188,-7.826178 0.385408,-0.408655 0.809815,-0.780761 1.268706,-1.113815 z m -3.594673,8.015989 c -0.01797,0.249791 -0.03749,0.498402 -0.03749,0.757036 0,5.696106 4.923379,8.916119 9.639798,10.316124 4.443491,1.318952 10.223162,5.346548 10.637076,10.735833 0.02402,-0.284422 0.042,-0.571791 0.042,-0.863582 0,-5.697286 -6.069118,-9.976883 -10.679066,-11.345942 -4.512478,-1.339583 -9.204903,-4.351805 -9.60231,-9.599469 z M 11.044091,30.62265 c -0.0085,0.249055 -0.0351,0.493686 -0.0351,0.745687 0,11.393099 8.882022,20.631662 19.835971,20.631662 2.484932,0 4.759912,-0.705897 6.52501,-1.986534 -1.030261,0.231369 -2.083027,0.39937 -3.165779,0.458317 1.621128,-0.168 3.128283,-0.722108 4.434491,-1.572427 1.474163,-1.565058 2.363462,-3.668014 2.363462,-6.185077 0,-0.244633 -0.01953,-0.480423 -0.03751,-0.716214 -0.388415,5.252232 -4.76441,8.528245 -10.11969,8.528245 -10.7176,0 -19.429565,-8.849509 -19.80148,-19.903659 z m 41.921423,0.01768 c -0.293931,8.507612 -5.529241,15.68301 -12.820568,18.533127 -1.585139,1.522321 -3.64867,2.53622 -5.940145,2.772011 C 44.672405,51.37957 53,42.39743 53,31.368333 53,31.122226 52.97307,30.883488 52.96552,30.64033 Z"
     id="path2" />
  <path
     style="fill:#dc3545;stroke-width:0.743478"
     d="m 33.158938,51.263323 c 10.9535,0 19.83447,-9.238563 19.83447,-20.631661 C 52.993408,19.237974 44.112438,10 33.158938,10 c -5.61172,0 -10.158982,3.587404 -10.158982,9.284247 0,5.696844 4.924875,8.915972 9.6407,10.315831 4.610998,1.368704 10.677261,5.65057 10.677261,11.347415 0,5.696843 -4.548016,10.31583 -10.158979,10.31583 z"
     id="path4" />
  <ellipse
     style="opacity:0.2;stroke-width:0.743478"
     cx="-33.503761"
     cy="-21.051331"
     transform="scale(-1)"
     id="circle6"
     rx="4.4992509"
     ry="4.4213438" />
  <ellipse
     style="fill:#ffffff;stroke-width:0.743478"
     cx="-33.503761"
     cy="-20.315792"
     transform="scale(-1)"
     id="circle8"
     rx="4.4992509"
     ry="4.4213438" />
  <path
     style="fill:#9d7ed5;stroke-width:0.743478"
     d="M 30.834469,10 C 19.881272,10 11,19.237974 11,30.631662 c 0,11.393687 8.880969,20.631661 19.834469,20.631661 5.610965,0 10.15898,-3.587404 10.15898,-9.284247 0,-5.696844 -4.924876,-8.915974 -9.640699,-10.315832 C 26.742805,30.294187 20.67639,26.013117 20.67639,20.31583 20.67639,14.618987 25.224403,10 30.835367,10 Z"
     id="path10" />
  <ellipse
     style="opacity:0.2;stroke-width:0.743478"
     cx="30.504511"
     cy="41.682541"
     id="circle12"
     rx="4.4992509"
     ry="4.4213438" />
  <ellipse
     style="fill:#ffffff;stroke-width:0.743478"
     cx="30.504511"
     cy="40.947742"
     id="circle14"
     rx="4.4992509"
     ry="4.4213438" />
  <path
     style="opacity:0.2;fill:#ffffff;stroke-width:0.743478"
     d="m 33.158694,10.000309 c -5.611715,0 -10.158693,3.587798 -10.158693,9.284642 0,0.120982 0.01463,0.233919 0.01907,0.352672 0.202232,-5.470624 4.656784,-8.900301 10.139647,-8.900301 10.835067,0 19.636007,9.039991 19.825194,20.263551 0.002,-0.123154 0.009,-0.244835 0.009,-0.368507 0,-11.393688 -8.880491,-20.632057 -19.833987,-20.632057 z m 10.138185,31.370574 c -0.220171,5.499181 -4.667873,9.892103 -10.138185,9.892103 1.791445,0 3.525967,-0.250735 5.176755,-0.713982 2.979624,-1.798161 4.981934,-5.08963 4.981934,-8.864315 0,-0.106181 -0.01636,-0.208616 -0.02049,-0.313806 z"
     id="path16" />
  <path
     style="opacity:0.2;fill:#ffffff;stroke-width:0.743478"
     d="m 30.833988,10.000309 c -10.953198,0 -19.833987,9.238371 -19.833987,20.632057 0,0.123674 0.0067,0.245351 0.0087,0.368507 0.157921,-9.368004 6.316323,-17.211222 14.649917,-19.549569 1.516894,-0.915428 3.282662,-1.450721 5.175291,-1.450995 z M 20.697269,20.635182 c -0.0054,0.139489 -0.02051,0.276589 -0.02051,0.417449 0,5.697287 6.065832,9.978358 10.675781,11.347416 4.615814,1.370171 9.42036,4.489182 9.622558,9.962638 0.0044,-0.128567 0.01909,-0.252092 0.01909,-0.382901 0,-5.696844 -4.925782,-8.916891 -9.641605,-10.316749 -4.522361,-1.34304 -10.431763,-5.492184 -10.6553,-11.027853 z"
     id="path18" />
</svg>
