<?xml version="1.0" encoding="UTF-8" standalone="no"?>
<svg
   height="64"
   width="64"
   version="1.1"
   id="svg36216"
   sodipodi:docname="libreoffice-impress.svg"
   inkscape:version="1.2.1 (9c6d41e410, 2022-07-14)"
   xmlns:inkscape="http://www.inkscape.org/namespaces/inkscape"
   xmlns:sodipodi="http://sodipodi.sourceforge.net/DTD/sodipodi-0.dtd"
   xmlns:xlink="http://www.w3.org/1999/xlink"
   xmlns="http://www.w3.org/2000/svg"
   xmlns:svg="http://www.w3.org/2000/svg">
  <defs
     id="defs36220">
    <linearGradient
       inkscape:collect="always"
       xlink:href="#linearGradient22063-0"
       id="linearGradient22065-6"
       x1="-22"
       y1="5.1111121"
       x2="-6.4444442"
       y2="-9.1111107"
       gradientUnits="userSpaceOnUse"
       gradientTransform="matrix(3.6250002,0,0,3.6250002,82.750001,39.249999)" />
    <linearGradient
       inkscape:collect="always"
       id="linearGradient22063-0">
      <stop
         style="stop-color:#cb795f;stop-opacity:1;"
         offset="0"
         id="stop22059-6" />
      <stop
         style="stop-color:#c5684b;stop-opacity:1;"
         offset="1"
         id="stop22061-2" />
    </linearGradient>
    <linearGradient
       id="c-9"
       gradientUnits="userSpaceOnUse"
       x1="4"
       x2="14.000008"
       y1="5"
       y2="14.999988"
       gradientTransform="matrix(4.0776659,0,0,4.0776659,-2.0485302,-4.0873236)">
      <stop
         offset="0"
         stop-color="#383e51"
         id="stop37292" />
      <stop
         offset="1"
         stop-color="#655c6f"
         stop-opacity="0"
         id="stop37294" />
    </linearGradient>
    <linearGradient
       id="b-7"
       gradientTransform="matrix(2.4465995,0,0,2.4465995,-968.21885,-1248.1016)"
       gradientUnits="userSpaceOnUse"
       x2="0"
       y1="531.79999"
       y2="515.79999">
      <stop
         offset="0"
         stop-color="#f7bb5d"
         id="stop37287" />
      <stop
         offset="1"
         stop-color="#fce3bc"
         id="stop37289" />
    </linearGradient>
    <linearGradient
       id="c-3"
       y1="515.79999"
       x1="400.57001"
       y2="531.79999"
       x2="416.57001"
       gradientUnits="userSpaceOnUse"
       gradientTransform="matrix(2.0714286,0,0,2.0714286,-813.65973,-1050.1789)">
      <stop
         stop-color="#383e51"
         id="stop169" />
      <stop
         offset="1"
         stop-color="#655c6f"
         stop-opacity="0"
         id="stop171" />
    </linearGradient>
    <linearGradient
       id="b-6"
       y1="531.79999"
       y2="515.79999"
       x2="0"
       gradientUnits="userSpaceOnUse"
       gradientTransform="matrix(2.0714286,0,0,2.0714286,-813.65973,-1050.1789)">
      <stop
         stop-color="#f5955f"
         id="stop164"
         offset="0"
         style="stop-color:#f9bd9b;stop-opacity:1;" />
      <stop
         offset="1"
         stop-color="#facebe"
         id="stop166" />
    </linearGradient>
  </defs>
  <sodipodi:namedview
     id="namedview36218"
     pagecolor="#ffffff"
     bordercolor="#666666"
     borderopacity="1.0"
     inkscape:showpageshadow="2"
     inkscape:pageopacity="0.0"
     inkscape:pagecheckerboard="0"
     inkscape:deskcolor="#d1d1d1"
     showgrid="true"
     showguides="false"
     inkscape:zoom="7.375"
     inkscape:cx="27.864407"
     inkscape:cy="39.79661"
     inkscape:window-width="1920"
     inkscape:window-height="1002"
     inkscape:window-x="0"
     inkscape:window-y="0"
     inkscape:window-maximized="1"
     inkscape:current-layer="svg36216">
    <inkscape:grid
       type="xygrid"
       id="grid37722" />
  </sodipodi:namedview>
  <linearGradient
     id="a"
     gradientTransform="matrix(0.27299641,0,0,0.27592872,239.47143,299.0053)"
     gradientUnits="userSpaceOnUse"
     x2="0"
     y1="785.71002"
     y2="727.71002">
    <stop
       offset="0"
       stop-color="#f39c12"
       id="stop36189" />
    <stop
       offset="1"
       stop-color="#f5ab35"
       id="stop36191" />
  </linearGradient>
  <linearGradient
     id="b"
     gradientTransform="matrix(0.6,0,0,0.6,147.628,194.72)"
     gradientUnits="userSpaceOnUse"
     x2="0"
     y1="531.79999"
     y2="515.79999">
    <stop
       offset="0"
       stop-color="#f7bb5d"
       id="stop36194" />
    <stop
       offset="1"
       stop-color="#fce3bc"
       id="stop36196" />
  </linearGradient>
  <linearGradient
     id="c"
     gradientUnits="userSpaceOnUse"
     x1="4"
     x2="14.000008"
     y1="5"
     y2="14.999988">
    <stop
       offset="0"
       stop-color="#383e51"
       id="stop36199" />
    <stop
       offset="1"
       stop-color="#655c6f"
       stop-opacity="0"
       id="stop36201" />
  </linearGradient>
  <g
     transform="translate(-309.33738,-539.74378)"
     id="g36214">
    <path
       d="m 386.56186,499.8 c 0,0 0.008,16 0,16.00376 L 398.57,515.8 v -10.5 l -5.5,-5.5 z"
       fill="url(#a)"
       stroke-width="0.387536"
       id="path36204"
       style="fill:url(#a)" />
    <path
       d="M 386.57001,514.79999 H 398.57 v 1 h -11.99999 z"
       fill="#2e3132"
       fill-opacity="0.294"
       stroke-width="0.612372"
       id="path36206" />
    <path
       d="m 398.57,503.8 v -4 h -4 z"
       fill="#b97c1b"
       id="path36208" />
    <path
       d="M 12,5 V 8 L 9,7.5 7,5.5 4.5,8 5.5,9 4,13 6,15 h 8 V 7 Z"
       fill="url(#c)"
       fill-rule="evenodd"
       opacity="0.2"
       transform="translate(384.57,499.8)"
       id="path36210"
       style="fill:url(#c)" />
    <path
       d="m 393.57,504.8 v 3 h 3 v -3 z m -5,4 v 4 h 3 v -4 z m 6.5,0 -2.5,4 h 5 z m -3.19999,-2.50001 c 0,0.99411 -0.80589,1.8 -1.8,1.8 -0.99411,0 -1.8,-0.80589 -1.8,-1.8 0,-0.99411 0.80589,-1.8 1.8,-1.8 0.99411,0 1.8,0.80589 1.8,1.8 z"
       fill="url(#b)"
       stroke-opacity="0.55"
       stroke-width="1.68"
       id="path36212"
       style="fill:url(#b)" />
  </g>
  <path
     d="m 2.9999985,10.25 c 0,-4.004175 3.245938,-7.25 7.2500005,-7.25 h 43.500003 c 4.004173,0 7.25,3.245825 7.25,7.25 v 43.5 c 0,4.004173 -3.245827,7.25 -7.25,7.25 H 10.249999 C 6.2459365,61 2.9999985,57.754173 2.9999985,53.75 Z"
     id="path736-7"
     style="fill:#606c86;fill-opacity:1;stroke-width:3.625" />
  <path
     d="M 2.9999985,9.7968746 C 2.9999985,6.043188 6.2459365,3 10.249999,3 h 43.500003 c 4.004173,0 7.25,3.043188 7.25,6.7968746 V 50.578124 c 0,3.753693 -3.245827,6.796876 -7.25,6.796876 H 10.249999 c -4.0040625,0 -7.2500005,-3.043183 -7.2500005,-6.796876 z"
     id="path738-9"
     style="fill:url(#linearGradient22065-6);fill-opacity:1;stroke-width:3.625" />
  <path
     d="M 61,17 47,3 h 4 l 10,10 z"
     fill-opacity="1.0"
     id="path28942-8-8"
     style="fill:#000000;fill-opacity:1;stroke-width:1.34206"
     sodipodi:nodetypes="ccccc" />
  <path
     opacity="0.2"
     fill="url(#c)"
     fill-rule="evenodd"
     d="M 14.021,18.264 V 45.192571 L 45.092429,76.264 H 65.786 c 0.01243,0 0.02071,-7.390857 0.02071,-16.571429 V 32.764 l -14.499995,-14.5 z"
     id="path182"
     style="fill:url(#c-3);stroke-width:2.07143" />
  <path
     fill="url(#b)"
     color-rendering="auto"
     shape-rendering="auto"
     color-interpolation-filters="linearRGB"
     image-rendering="auto"
     text-rendering="auto"
     color-interpolation="sRGB"
     color="#000000"
     d="m 14.021,18.264 v 26.928571 h 16.571429 v 4.142858 h -8.285715 v 2.071428 H 43.021 V 49.335429 H 34.735286 V 45.192571 H 51.306715 V 18.264 Z m 2.071429,2.071429 H 49.235286 V 41.049714 H 16.092429 Z M 28.521,24.478286 v 12.428571 l 10.357143,-6.214286 z"
     id="path184"
     style="fill:url(#b-6);stroke-width:2.07143" />
</svg>
