<?xml version="1.0" encoding="UTF-8" standalone="no"?>
<svg
   height="64"
   width="64"
   version="1.1"
   id="svg37943"
   sodipodi:docname="libreoffice-oasis-web.svg"
   inkscape:version="1.3.2 (091e20ef0f, 2023-11-25)"
   xmlns:inkscape="http://www.inkscape.org/namespaces/inkscape"
   xmlns:sodipodi="http://sodipodi.sourceforge.net/DTD/sodipodi-0.dtd"
   xmlns:xlink="http://www.w3.org/1999/xlink"
   xmlns="http://www.w3.org/2000/svg"
   xmlns:svg="http://www.w3.org/2000/svg">
  <defs
     id="defs37947">
    <linearGradient
       inkscape:collect="always"
       xlink:href="#linearGradient22063-0"
       id="linearGradient22065-6"
       x1="-22"
       y1="5.1111121"
       x2="-6.4444442"
       y2="-9.1111107"
       gradientUnits="userSpaceOnUse"
       gradientTransform="matrix(3.6250002,0,0,3.6250002,82.750001,39.249999)" />
    <linearGradient
       inkscape:collect="always"
       id="linearGradient22063-0">
      <stop
         style="stop-color:#5e81ac;stop-opacity:1;"
         offset="0"
         id="stop22059-6" />
      <stop
         style="stop-color:#81a1c1;stop-opacity:1;"
         offset="1"
         id="stop22061-2" />
    </linearGradient>
    <linearGradient
       id="linearGradient38749"
       gradientUnits="userSpaceOnUse"
       x1="388.57001"
       x2="398.57001"
       y1="504.79999"
       y2="514.79999"
       gradientTransform="translate(-358.36102,-516.86674)">
      <stop
         offset="0"
         stop-color="#383e51"
         id="stop37921-7" />
      <stop
         offset="1"
         stop-color="#655c6f"
         stop-opacity="0"
         id="stop37923-6" />
    </linearGradient>
    <linearGradient
       id="c-4"
       gradientTransform="matrix(4.2,0,0,4.2,-1675.594,-2180.357)"
       gradientUnits="userSpaceOnUse"
       x2="0"
       y1="531.79999"
       y2="515.79999">
      <stop
         offset="0"
         stop-color="#f5955f"
         id="stop37926-3"
         style="stop-color:#eceff4;stop-opacity:1;" />
      <stop
         offset="1"
         stop-color="#facebe"
         id="stop37928-0" />
    </linearGradient>
    <linearGradient
       inkscape:collect="always"
       xlink:href="#b"
       id="linearGradient38965"
       gradientUnits="userSpaceOnUse"
       gradientTransform="translate(-239.5511,-524.59985)"
       x1="388.57001"
       y1="504.79999"
       x2="398.57001"
       y2="514.79999" />
    <linearGradient
       id="b-2"
       gradientUnits="userSpaceOnUse"
       x1="389.57001"
       x2="398.57001"
       y1="505.79999"
       y2="514.79999"
       gradientTransform="matrix(4.7333337,0,0,4.7333337,-1824.9314,-2375.7191)">
      <stop
         offset="0"
         stop-color="#383e51"
         id="stop41746" />
      <stop
         offset="1"
         stop-color="#655c6f"
         stop-opacity="0"
         id="stop41748" />
    </linearGradient>
    <linearGradient
       id="c-2"
       gradientUnits="userSpaceOnUse"
       x1="364.02151"
       x2="364.02151"
       y1="511.8006"
       y2="504.7952"
       gradientTransform="matrix(4.7333337,0,0,4.7333337,-1824.9314,-2375.7191)">
      <stop
         offset="0"
         stop-color="#a0aab4"
         id="stop41751" />
      <stop
         offset="1"
         stop-color="#d8dce0"
         id="stop41753" />
    </linearGradient>
    <linearGradient
       id="c-3"
       gradientUnits="userSpaceOnUse"
       x1="16"
       x2="32"
       y1="16"
       y2="32"
       gradientTransform="matrix(1.4313095,0,0,1.4313095,-2.8898245,-6.1594402)">
      <stop
         offset="0"
         stop-color="#383e51"
         id="stop174" />
      <stop
         offset="1"
         stop-color="#655c6f"
         stop-opacity="0"
         id="stop176" />
    </linearGradient>
    <linearGradient
       id="b-6"
       gradientTransform="matrix(1.4313095,0,0,1.4313095,14.285887,14.834447)"
       gradientUnits="userSpaceOnUse"
       x2="0"
       y1="20"
       y2="4">
      <stop
         offset="0"
         stop-color="#60c0f4"
         id="stop169" />
      <stop
         offset="1"
         stop-color="#b9e9ff"
         id="stop171" />
    </linearGradient>
  </defs>
  <sodipodi:namedview
     id="namedview37945"
     pagecolor="#ffffff"
     bordercolor="#666666"
     borderopacity="1.0"
     inkscape:showpageshadow="2"
     inkscape:pageopacity="0.0"
     inkscape:pagecheckerboard="0"
     inkscape:deskcolor="#d1d1d1"
     showgrid="false"
     inkscape:zoom="5.462283"
     inkscape:cx="-11.167492"
     inkscape:cy="19.863489"
     inkscape:window-width="1920"
     inkscape:window-height="994"
     inkscape:window-x="0"
     inkscape:window-y="0"
     inkscape:window-maximized="1"
     inkscape:current-layer="svg37943" />
  <linearGradient
     id="a"
     gradientTransform="matrix(0.72727,0,0,0.68966,-238.8241,-522.66885)"
     gradientUnits="userSpaceOnUse"
     x2="0"
     y1="785.71002"
     y2="727.71002">
    <stop
       offset="0"
       stop-color="#f27935"
       id="stop37916" />
    <stop
       offset="1"
       stop-color="#f2784b"
       id="stop37918" />
  </linearGradient>
  <linearGradient
     id="b"
     gradientUnits="userSpaceOnUse"
     x1="388.57001"
     x2="398.57001"
     y1="504.79999"
     y2="514.79999"
     gradientTransform="translate(-358.36102,-516.86674)">
    <stop
       offset="0"
       stop-color="#383e51"
       id="stop37921" />
    <stop
       offset="1"
       stop-color="#655c6f"
       stop-opacity="0"
       id="stop37923" />
  </linearGradient>
  <linearGradient
     id="c"
     gradientTransform="translate(-253.55109,-542.59985)"
     gradientUnits="userSpaceOnUse"
     x2="0"
     y1="531.79999"
     y2="515.79999">
    <stop
       offset="0"
       stop-color="#f5955f"
       id="stop37926" />
    <stop
       offset="1"
       stop-color="#facebe"
       id="stop37928" />
  </linearGradient>
  <path
     d="m 147.0189,-24.799855 v 16 h 12 v -10.50001 l -5.49999,-5.49999 z"
     fill="url(#a)"
     id="path37931"
     style="fill:url(#a)" />
  <path
     d="m 147.01891,-9.799865 h 12 v 1.00001 h -12 z"
     fill="#2e3132"
     fill-opacity="0.294"
     id="path37933" />
  <path
     d="m 159.0189,-20.799855 v -4 h -4 z"
     fill="#b86333"
     id="path37935" />
  <path
     d="m 149.0189,-19.799855 v 6 l 1,1 v 1 l 2,2 h 7 v -8 l -2,-2 z"
     fill="url(#b)"
     fill-rule="evenodd"
     opacity="0.2"
     id="path37937"
     style="fill:url(#linearGradient38965)" />
  <path
     d="m 149.0189,-19.799855 v 6 h 3 v 1 h -2 v 1 h 6 v -1 h -2 v -1 h 3 v -6 z m 1,1 h 6 v 4 h -6 z"
     id="path37939"
     style="fill:url(#c)" />
  <path
     d="m 2.9999985,10.25 c 0,-4.004175 3.245938,-7.25 7.2500005,-7.25 h 43.500003 c 4.004173,0 7.25,3.245825 7.25,7.25 v 43.5 c 0,4.004173 -3.245827,7.25 -7.25,7.25 H 10.249999 C 6.2459365,61 2.9999985,57.754173 2.9999985,53.75 Z"
     id="path736-7"
     style="fill:#606c86;fill-opacity:1;stroke-width:3.625" />
  <path
     d="M 2.9999985,9.796875 C 2.9999985,6.043188 6.2459365,3 10.249999,3 h 43.500003 c 4.004173,0 7.25,3.043188 7.25,6.796875 v 40.781249 c 0,3.753693 -3.245827,6.796876 -7.25,6.796876 H 10.249999 c -4.0040625,0 -7.2500005,-3.043183 -7.2500005,-6.796876 z"
     id="path738-9"
     style="fill:url(#linearGradient22065-6);fill-opacity:1;stroke-width:3.625" />
  <path
     d="M 61,17 47,3 h 4 l 10,10 z"
     fill-opacity="1.0"
     id="path28942-8-8"
     style="fill:#000000;fill-opacity:1;stroke-width:1.34206"
     sodipodi:nodetypes="ccccc" />
  <path
     d="m 31.468826,16.500015 a 15.002826,15.002826 0 0 0 -8.357591,2.562851 c 0.941239,0.2268 1.910798,0.527309 2.880367,0.929871 0.7371,-0.136059 1.496884,-0.243807 2.268005,-0.306173 a 24.38101,24.38101 0 0 1 4.779811,-3.107167 15.002826,15.002826 0 0 0 -1.542239,-0.07939 15.002826,15.002826 0 0 0 -0.02837,0 z m 4.649404,0.72576 a 25.004709,25.004709 0 0 0 -4.745789,2.426762 21.546009,21.546009 0 0 1 1.729347,0.15876 20.6218,20.6218 0 0 1 10.875066,5.057642 c 0.340201,0.01062 0.680401,0.05102 1.014931,0.07932 A 15.002826,15.002826 0 0 0 36.11256,17.231404 Z m -14.940458,3.390663 a 15.002826,15.002826 0 0 0 -1.525238,1.678332 18.370807,18.370807 0 0 1 3.005101,-1.411841 14.373466,14.373466 0 0 0 -1.474201,-0.266491 z m 9.621998,0.85617 c -0.612365,-0.01702 -1.224732,0 -1.825751,0.02839 l -0.0283,0.0283 c 1.973166,1.213384 3.872615,2.783966 5.499906,4.762804 0.06238,0.07938 0.119076,0.175764 0.18711,0.260816 2.154601,-0.9072 4.354563,-1.417501 6.480814,-1.615953 A 18.586273,18.586273 0 0 0 30.799815,21.478223 Z m -5.034968,0.487622 c -2.676229,0.584009 -5.01229,1.644301 -6.605562,2.891701 a 0.9298806,0.9298806 0 0 1 -1.116975,0.02264 15.002826,15.002826 0 0 0 -1.542254,6.633902 15.002826,15.002826 0 0 0 0.192788,2.415428 c 1.3608,1.661299 2.7783,3.033451 4.235493,4.127758 -0.266492,-2.664901 -0.0568,-5.573612 0.810809,-8.465315 0.782473,-2.630877 2.137592,-5.227749 4.156107,-7.56378 z m 1.820077,0.946887 c -2.001505,2.211302 -3.311285,4.689095 -4.065391,7.212263 a 20.15687,20.15687 0 0 0 -0.555674,8.845203 c 2.177287,-5.692689 5.868465,-9.41221 9.956534,-11.589504 a 20.083167,20.083167 0 0 0 -5.329814,-4.467962 z m 15.688895,3.821589 c -2.387072,-0.02272 -4.989603,0.3969 -7.501414,1.383481 1.304101,2.007193 2.324701,4.337553 2.880361,6.962752 1.655641,-0.810798 3.362312,-1.315431 5.000944,-1.51389 0.93555,-0.113417 1.84842,-0.130451 2.715935,-0.07373 a 15.002826,15.002826 0 0 0 0.130408,-1.984497 15.002826,15.002826 0 0 0 -0.02836,-0.929882 23.184642,23.184642 0 0 0 -3.197882,-3.844251 z m -9.230766,2.160274 c -3.957669,2.018519 -7.535432,5.5396 -9.559621,11.305985 2.415418,1.122659 4.859191,1.627275 7.217911,1.70666 1.36647,-2.591181 3.220561,-4.518982 5.273103,-5.862785 a 18.461528,18.461528 0 0 0 -2.931393,-7.1442 z m 11.271967,6.446802 c -1.984501,0.034 -4.246832,0.538633 -6.344734,1.666959 0.14175,1.190699 0.192781,2.438098 0.14175,3.736546 2.670571,-0.963901 4.904553,-2.392744 6.407104,-3.906647 a 15.002826,15.002826 0 0 0 0.47628,-1.4742 c -0.2268,-0.01074 -0.447931,-0.02831 -0.680401,-0.02267 z m -27.340764,2.664901 a 15.002826,15.002826 0 0 0 3.798902,4.921542 0.9298806,0.9298806 0 0 1 0.01065,-0.034 l 0.107803,-0.436592 A 18.535234,18.535234 0 0 1 21.358549,40.580536 23.785671,23.785671 0 0 1 17.973561,37.99501 Z m 19.25534,0.102036 c -1.275751,0.963902 -2.438102,2.199974 -3.402003,3.753563 1.173691,-0.08501 2.313362,-0.266498 3.402003,-0.544344 a 21.829508,21.829508 0 0 0 0,-3.209219 z m 5.930823,2.829332 c -1.275751,0.731441 -2.687582,1.360811 -4.218483,1.842759 a 29.075783,29.075783 0 0 1 -0.30051,1.922133 15.002826,15.002826 0 0 0 4.518993,-3.764892 z m -19.23266,1.02627 c -0.034,0.130392 -0.0568,0.260816 -0.09625,0.39124 0.243816,0.64072 0.504625,1.247401 0.799471,1.774721 a 0.9298806,0.9298806 0 0 1 0.07372,0.754104 15.002826,15.002826 0 0 0 5.318459,1.553577 21.149108,21.149108 0 0 1 0.850501,-2.698921 20.440369,20.440369 0 0 1 -6.945765,-1.774721 z m 13.075037,1.332463 c -1.304101,0.283501 -2.676243,0.470609 -4.082403,0.504628 h -0.09071 a 18.217726,18.217726 0 0 0 -0.918544,2.704591 15.002826,15.002826 0 0 0 4.615387,-0.867508 c 0.19278,-0.7938 0.35154,-1.581933 0.47061,-2.341711 z"
     fill="#ffffff"
     id="path6"
     style="stroke-width:5.67" />
</svg>
