<?xml version="1.0" encoding="UTF-8" standalone="no"?>
<svg
   width="64"
   height="64"
   version="1.1"
   id="svg23117"
   sodipodi:docname="mendeleydesktop.svg"
   inkscape:version="1.2.1 (9c6d41e410, 2022-07-14)"
   xmlns:inkscape="http://www.inkscape.org/namespaces/inkscape"
   xmlns:sodipodi="http://sodipodi.sourceforge.net/DTD/sodipodi-0.dtd"
   xmlns:xlink="http://www.w3.org/1999/xlink"
   xmlns="http://www.w3.org/2000/svg"
   xmlns:svg="http://www.w3.org/2000/svg">
  <sodipodi:namedview
     id="namedview23119"
     pagecolor="#ffffff"
     bordercolor="#666666"
     borderopacity="1.0"
     inkscape:showpageshadow="2"
     inkscape:pageopacity="0.0"
     inkscape:pagecheckerboard="0"
     inkscape:deskcolor="#d1d1d1"
     showgrid="false"
     inkscape:zoom="4.9166667"
     inkscape:cx="24.508474"
     inkscape:cy="24.508474"
     inkscape:window-width="1920"
     inkscape:window-height="1002"
     inkscape:window-x="0"
     inkscape:window-y="0"
     inkscape:window-maximized="1"
     inkscape:current-layer="svg23117" />
  <defs
     id="defs23105">
    <linearGradient
       id="a"
       y1="547.63397"
       y2="499.67899"
       x2="388.86499"
       gradientUnits="userSpaceOnUse"
       gradientTransform="translate(-453.04388,-539.81483)"
       x1="428.81601">
      <stop
         stop-color="#2a2c2f"
         id="stop23090" />
      <stop
         offset="1"
         stop-color="#536161"
         id="stop23092" />
    </linearGradient>
    <linearGradient
       id="b"
       y1="44"
       y2="12"
       x2="14"
       gradientUnits="userSpaceOnUse"
       x1="36"
       gradientTransform="translate(-68.473879,-40.014831)">
      <stop
         stop-color="#536161"
         style="stop-color:#bfc9c9;stop-opacity:1"
         id="stop23095" />
      <stop
         offset="1"
         stop-color="#f4f5f5"
         style="stop-color:#fbfbfb;stop-opacity:1"
         id="stop23097" />
    </linearGradient>
    <linearGradient
       id="c"
       y1="527.01398"
       x1="406.50101"
       y2="539.82501"
       x2="419.974"
       gradientUnits="userSpaceOnUse"
       gradientTransform="translate(-453.04388,-539.81483)">
      <stop
         stop-color="#292c2f"
         id="stop23100" />
      <stop
         offset="1"
         stop-opacity="0"
         id="stop23102" />
    </linearGradient>
    <linearGradient
       inkscape:collect="always"
       xlink:href="#linearGradient22063"
       id="linearGradient22065"
       x1="-14"
       y1="6"
       x2="-14"
       y2="-9.999999"
       gradientUnits="userSpaceOnUse"
       gradientTransform="matrix(3.6250002,0,0,3.6250002,82.750005,39.249999)" />
    <linearGradient
       inkscape:collect="always"
       id="linearGradient22063">
      <stop
         style="stop-color:#87373f;stop-opacity:1;"
         offset="0"
         id="stop22059" />
      <stop
         style="stop-color:#d6949d;stop-opacity:1;"
         offset="1"
         id="stop22061" />
    </linearGradient>
    <linearGradient
       gradientUnits="userSpaceOnUse"
       y2="44"
       x2="-16"
       y1="4"
       x1="-56"
       id="linearGradient4702"
       xlink:href="#m"
       gradientTransform="matrix(1.4,0,0,1.4,82.5,-3.1779996)" />
    <linearGradient
       gradientUnits="userSpaceOnUse"
       x2="35"
       y2="32"
       x1="10"
       y1="7"
       id="m"
       gradientTransform="translate(85,55)">
      <stop
         id="stop27"
         stop-color="#383e51" />
      <stop
         id="stop29"
         stop-opacity="0"
         stop-color="#655c6f"
         offset="1" />
    </linearGradient>
    <linearGradient
       xlink:href="#linearGradient4176"
       id="linearGradient4182"
       x1="15.422"
       y1="13.478"
       x2="35.019001"
       y2="33.075001"
       gradientUnits="userSpaceOnUse"
       gradientTransform="matrix(1.6127553,0,0,1.6127553,-6.8058912,-6.7188352)" />
    <linearGradient
       id="linearGradient4176">
      <stop
         style="stop-color:#000000;stop-opacity:1;"
         offset="0"
         id="stop2794" />
      <stop
         style="stop-color:#000000;stop-opacity:0;"
         offset="1"
         id="stop2796" />
    </linearGradient>
    <linearGradient
       xlink:href="#linearGradient4144"
       id="linearGradient4150"
       x1="14.023"
       y1="8.1289997"
       x2="27.879"
       y2="34.944"
       gradientUnits="userSpaceOnUse"
       gradientTransform="matrix(1.6127553,0,0,1.6127553,-6.8058912,-6.7188352)" />
    <linearGradient
       id="linearGradient4144">
      <stop
         style="stop-color:#ffffff;stop-opacity:1;"
         offset="0"
         id="stop2789" />
      <stop
         style="stop-color:#eea9a9;stop-opacity:1"
         offset="1"
         id="stop2791" />
    </linearGradient>
  </defs>
  <path
     d="M 3,10.25 C 3,6.245825 6.245938,3 10.25,3 h 43.500005 c 4.00417,0 7.25,3.245825 7.25,7.25 v 43.5 c 0,4.004173 -3.24583,7.25 -7.25,7.25 H 10.25 C 6.245938,61 3,57.754173 3,53.75 Z"
     id="path736"
     style="fill:#606c86;fill-opacity:1;stroke-width:3.625" />
  <path
     d="M 3,9.796875 C 3,6.043188 6.245938,3 10.25,3 h 43.500005 c 4.00417,0 7.25,3.043188 7.25,6.796875 v 40.781249 c 0,3.753693 -3.24583,6.796876 -7.25,6.796876 H 10.25 C 6.245938,57.375 3,54.331817 3,50.578124 Z"
     id="path738"
     style="fill:url(#linearGradient22065);fill-opacity:1;stroke-width:3.625" />
  <path
     style="opacity:0.3;fill:url(#linearGradient4182);fill-opacity:1;stroke:none;stroke-width:3.22551;stroke-linecap:round;stroke-linejoin:round;stroke-miterlimit:4;stroke-dasharray:none;stroke-opacity:1"
     d="M 18.176084,14.461179 18.087844,35.105718 12.118751,43.862469 9.0980038,47.673863 25.679144,64.255 h 33.678848 c 2.680398,0 4.838261,-2.157861 4.838261,-4.838265 V 29.593369 L 50.91309,16.310191 37.176325,30.046957 23.26632,16.136939 Z"
     id="path2813" />
  <path
     style="fill:url(#linearGradient4150);fill-opacity:1;stroke-width:1.6126"
     d="m 18.224756,14.250666 c -2.105773,0.06556 -4.139761,1.016922 -5.697869,2.458016 -1.583456,1.46461 -2.7184582,3.476927 -2.9482632,5.640449 -0.114973,1.081813 -0.002,2.190593 0.3500169,3.217605 0.3531773,1.027164 0.9507043,1.970785 1.7436943,2.701674 0.935324,0.861955 2.104322,1.405677 3.178421,2.079985 0.537114,0.337198 1.056056,0.711359 1.50097,1.166532 0.444887,0.455177 0.814791,0.99511 1.018489,1.60239 0.181254,0.540321 0.225966,1.124121 0.145052,1.688873 -0.08086,0.564954 -0.286761,1.110048 -0.5865,1.592779 -0.599443,0.965632 -1.566007,1.668708 -2.626702,2.044639 -1.230242,0.435981 -2.585561,0.457612 -3.771261,1.006303 -0.9383402,0.434165 -1.7276012,1.191274 -2.2199762,2.1119 -0.492233,0.920673 -0.687221,2.000622 -0.567592,3.041333 0.140518,1.22292 0.716311,2.386071 1.579802,3.249701 0.8634632,0.863583 2.0060752,1.426096 3.2037302,1.612014 1.755954,0.272539 3.633064,-0.298747 4.909529,-1.554324 0.63828,-0.627782 1.125112,-1.412872 1.396909,-2.272211 0.271775,-0.859471 0.327935,-1.791287 0.151316,-2.676045 -0.134876,-0.675535 -0.400481,-1.315735 -0.646412,-1.958046 -0.245928,-0.642554 -0.476774,-1.300266 -0.536049,-1.986915 -0.104803,-1.212426 0.352294,-2.445904 1.144641,-3.358558 0.792317,-0.912645 1.899334,-1.513172 3.068095,-1.778712 0.754092,-0.171313 1.540289,-0.209666 2.301878,-0.0769 0.761593,0.132954 1.498736,0.437584 2.115798,0.910155 0.617086,0.472572 1.11028,1.114892 1.384256,1.849203 0.273988,0.734279 0.322531,1.560522 0.104133,2.313818 -0.223745,0.771524 -0.704722,1.433218 -1.191917,2.067063 -0.487197,0.633845 -0.997015,1.270464 -1.286525,2.019009 -0.319274,0.825504 -0.351187,1.75629 -0.132452,2.615082 0.218766,0.858663 0.681057,1.646301 1.28655,2.284952 0.669823,0.706709 1.51808,1.236031 2.440557,1.525472 0.922532,0.289619 1.86614,0.339711 2.831685,0.339711 0.965505,0 1.972071,-0.05009 2.894724,-0.339711 0.922532,-0.289441 1.770808,-0.818763 2.440598,-1.525472 0.60547,-0.638781 1.06778,-1.426353 1.286516,-2.284952 0.218762,-0.858824 0.186857,-1.789513 -0.132477,-2.615082 -0.289523,-0.748561 -0.799314,-1.385164 -1.286522,-2.019009 -0.48722,-0.633861 -0.968182,-1.295556 -1.191932,-2.067063 -0.218445,-0.753326 -0.169911,-1.579578 0.104086,-2.313818 0.273964,-0.734276 0.767187,-1.376618 1.384276,-1.849203 0.617088,-0.472571 1.354265,-0.777235 2.115776,-0.910155 0.761566,-0.132771 1.547788,-0.09439 2.30188,0.0769 1.16875,0.265495 2.27576,0.866021 3.068116,1.778712 0.792321,0.912641 1.249307,2.146244 1.144633,3.358558 -0.05932,0.686697 -0.290136,1.34441 -0.536041,1.986915 -0.245916,0.642393 -0.51157,1.282591 -0.646431,1.958046 -0.176577,0.884741 -0.120322,1.816446 0.151337,2.676045 0.271773,0.859308 0.758644,1.644364 1.396896,2.272211 1.276503,1.255577 3.153568,1.826928 4.909536,1.554324 1.197522,-0.185902 2.340264,-0.748431 3.203742,-1.612014 0.863486,-0.863582 1.439195,-2.026748 1.579781,-3.249701 0.11974,-1.040792 -0.07521,-2.120611 -0.567593,-3.041333 -0.492269,-0.920675 -1.281573,-1.67775 -2.219971,-2.1119 C 52.083904,38.90122 50.728633,38.879573 49.498423,38.443608 48.437749,38.0677 47.471199,37.364601 46.871741,36.398969 46.572003,35.916206 46.366142,35.371113 46.28522,34.80619 c -0.08086,-0.564789 -0.03615,-1.148588 0.14505,-1.688873 0.203705,-0.607291 0.573592,-1.147213 1.018509,-1.60239 0.444887,-0.455173 0.963848,-0.829334 1.500941,-1.166532 1.074213,-0.674243 2.243187,-1.217989 3.178418,-2.079985 0.793046,-0.730811 1.390564,-1.67451 1.743714,-2.701674 0.353153,-1.027012 0.464962,-2.135772 0.350019,-3.217605 -0.229921,-2.163522 -1.36483,-4.17577 -2.948283,-5.640449 -1.558087,-1.441159 -3.592087,-2.392362 -5.697876,-2.458016 -1.052869,-0.03277 -2.11335,0.154367 -3.083904,0.570445 -0.97053,0.416127 -1.848049,1.062624 -2.519442,1.887588 -0.769704,0.945778 -1.253456,2.095113 -1.696452,3.236787 -0.442994,1.141877 -0.861694,2.305912 -1.532495,3.326625 -1.106153,1.683089 -2.851997,3.281645 -4.843426,3.281645 -1.991422,0 -3.737233,-1.598677 -4.84342,-3.281645 -0.67078,-1.020616 -1.089508,-2.184624 -1.532496,-3.326625 C 25.081092,18.80378 24.597325,17.654412 23.82762,16.708699 23.156228,15.883674 22.278716,15.237183 21.308185,14.821111 20.337638,14.40501 19.277233,14.217859 18.224261,14.250666 Z m 13.675677,15.584853 a 3.2288972,3.2817949 0 0 1 3.22891,3.281645 3.2288972,3.2817949 0 0 1 -3.22891,3.281644 3.2288972,3.2817949 0 0 1 -3.228897,-3.281644 3.2288972,3.2817949 0 0 1 3.228897,-3.281645 z"
     id="path2815" />
</svg>
