<?xml version="1.0" encoding="UTF-8" standalone="no"?>
<svg
   width="64"
   height="64"
   version="1.1"
   id="svg40"
   sodipodi:docname="opera-beta.svg"
   inkscape:version="1.2.1 (9c6d41e410, 2022-07-14)"
   xmlns:inkscape="http://www.inkscape.org/namespaces/inkscape"
   xmlns:sodipodi="http://sodipodi.sourceforge.net/DTD/sodipodi-0.dtd"
   xmlns:xlink="http://www.w3.org/1999/xlink"
   xmlns="http://www.w3.org/2000/svg"
   xmlns:svg="http://www.w3.org/2000/svg">
  <sodipodi:namedview
     id="namedview42"
     pagecolor="#ffffff"
     bordercolor="#666666"
     borderopacity="1.0"
     inkscape:showpageshadow="2"
     inkscape:pageopacity="0.0"
     inkscape:pagecheckerboard="0"
     inkscape:deskcolor="#d1d1d1"
     showgrid="true"
     inkscape:zoom="4.9166667"
     inkscape:cx="70.576271"
     inkscape:cy="17.38983"
     inkscape:window-width="1920"
     inkscape:window-height="1004"
     inkscape:window-x="0"
     inkscape:window-y="0"
     inkscape:window-maximized="1"
     inkscape:current-layer="svg40">
    <inkscape:grid
       type="xygrid"
       id="grid710"
       originx="0"
       originy="0" />
  </sodipodi:namedview>
  <defs
     id="defs26">
    <linearGradient
       id="linearGradient4317">
      <stop
         style="stop-color:#3b85b5;stop-opacity:1"
         offset="0"
         id="stop2" />
      <stop
         style="stop-color:#7cbcec;stop-opacity:1"
         offset="1"
         id="stop4" />
    </linearGradient>
    <linearGradient
       id="linearGradient4309">
      <stop
         style="stop-color:#3bb566;stop-opacity:1;"
         offset="0"
         id="stop7" />
      <stop
         style="stop-color:#7ceca4;stop-opacity:1"
         offset="1"
         id="stop9" />
    </linearGradient>
    <linearGradient
       id="linearGradient4301">
      <stop
         style="stop-color:#ffa92d;stop-opacity:1;"
         offset="0"
         id="stop12" />
      <stop
         style="stop-color:#ffc169;stop-opacity:1"
         offset="1"
         id="stop14" />
    </linearGradient>
    <linearGradient
       id="linearGradient4293">
      <stop
         style="stop-color:#bf4231;stop-opacity:1;"
         offset="0"
         id="stop17" />
      <stop
         style="stop-color:#f58273;stop-opacity:1"
         offset="1"
         id="stop19" />
    </linearGradient>
    <linearGradient
       xlink:href="#linearGradient4293"
       id="linearGradient4299"
       x1="16"
       y1="20"
       x2="7"
       y2="7"
       gradientUnits="userSpaceOnUse" />
    <linearGradient
       xlink:href="#linearGradient4301"
       id="linearGradient4307"
       x1="39"
       y1="20"
       x2="30"
       y2="7"
       gradientUnits="userSpaceOnUse" />
    <linearGradient
       xlink:href="#linearGradient4309"
       id="linearGradient4315"
       x1="17"
       y1="40.124001"
       x2="10"
       y2="28"
       gradientUnits="userSpaceOnUse" />
    <linearGradient
       xlink:href="#linearGradient4317"
       id="linearGradient4323"
       x1="38"
       y1="42"
       x2="30"
       y2="29"
       gradientUnits="userSpaceOnUse" />
    <linearGradient
       gradientTransform="matrix(1.0499636,0,0,1.0499041,-418.62858,-585.7341)"
       gradientUnits="userSpaceOnUse"
       x2="426.69501"
       y2="499.92099"
       y1="547.67499"
       id="a-6"
       x1="389.32001">
      <stop
         stop-color="#18222a"
         style="stop-color:#1e2b35;stop-opacity:1"
         id="stop216" />
      <stop
         stop-color="#566069"
         offset="1"
         style="stop-color:#6d7983;stop-opacity:1"
         id="stop218" />
    </linearGradient>
    <linearGradient
       id="linearGradient4235">
      <stop
         style="stop-color:#abdaf9;stop-opacity:1"
         offset="0"
         id="stop7-9" />
      <stop
         style="stop-color:#7cbcec;stop-opacity:1"
         offset="1"
         id="stop9-3" />
    </linearGradient>
    <linearGradient
       id="linearGradient4255">
      <stop
         style="stop-color:#000000;stop-opacity:1;"
         offset="0"
         id="stop2-1" />
      <stop
         style="stop-color:#000000;stop-opacity:0;"
         offset="1"
         id="stop4-9" />
    </linearGradient>
    <linearGradient
       id="linearGradient4216">
      <stop
         style="stop-color:#c42c2c;stop-opacity:1"
         offset="0"
         id="stop17-4" />
      <stop
         style="stop-color:#f36856;stop-opacity:1"
         offset="1"
         id="stop19-7" />
    </linearGradient>
    <linearGradient
       id="linearGradient4224">
      <stop
         style="stop-color:#375a7d;stop-opacity:1"
         offset="0"
         id="stop12-8" />
      <stop
         style="stop-color:#54a3d8;stop-opacity:1"
         offset="1"
         id="stop14-4" />
    </linearGradient>
    <linearGradient
       xlink:href="#linearGradient4293"
       id="linearGradient4299-5"
       x1="16"
       y1="20"
       x2="7"
       y2="7"
       gradientUnits="userSpaceOnUse" />
    <linearGradient
       xlink:href="#linearGradient4301"
       id="linearGradient4307-6"
       x1="39"
       y1="20"
       x2="30"
       y2="7"
       gradientUnits="userSpaceOnUse" />
    <linearGradient
       xlink:href="#linearGradient4309"
       id="linearGradient4315-6"
       x1="17"
       y1="40.124001"
       x2="10"
       y2="28"
       gradientUnits="userSpaceOnUse" />
    <linearGradient
       xlink:href="#linearGradient4317"
       id="linearGradient4323-0"
       x1="38"
       y1="42"
       x2="30"
       y2="29"
       gradientUnits="userSpaceOnUse" />
    <filter
       id="d"
       x="-0.036"
       y="-0.03600006"
       width="1.072"
       height="1.0720001"
       color-interpolation-filters="sRGB">
      <feGaussianBlur
         stdDeviation="9"
         id="feGaussianBlur238" />
    </filter>
    <linearGradient
       id="a"
       x2="1"
       gradientTransform="matrix(0,27.855134,-27.855134,0,21.623876,10.014044)"
       gradientUnits="userSpaceOnUse"
       xlink:href="#b">
      <stop
         stop-color="#ff5a46"
         offset="0"
         id="stop231"
         style="stop-color:#d40055;stop-opacity:1" />
      <stop
         stop-color="#ff5a46"
         stop-opacity=".88235"
         offset=".3"
         id="stop233" />
      <stop
         stop-color="#7814aa"
         offset="1"
         id="stop235"
         style="stop-color:#7137c8;stop-opacity:1" />
    </linearGradient>
    <linearGradient
       id="b"
       x2="1"
       gradientTransform="matrix(0,24.636573,-24.636573,0,28.840091,12.155627)"
       gradientUnits="userSpaceOnUse">
      <stop
         stop-color="#7814aa"
         offset="0"
         id="stop224"
         style="stop-color:#b380ff;stop-opacity:1" />
      <stop
         stop-color="#ff5a46"
         stop-opacity=".88235"
         offset=".7"
         id="stop226" />
      <stop
         stop-color="#ff5a46"
         offset="1"
         id="stop228"
         style="stop-color:#d40055;stop-opacity:1" />
    </linearGradient>
    <linearGradient
       inkscape:collect="always"
       xlink:href="#linearGradient22063"
       id="linearGradient22065"
       x1="-14"
       y1="6"
       x2="-14"
       y2="-9.999999"
       gradientUnits="userSpaceOnUse"
       gradientTransform="matrix(3.6250002,0,0,3.6250002,82.75,39.249999)" />
    <linearGradient
       inkscape:collect="always"
       id="linearGradient22063">
      <stop
         style="stop-color:#292f3a;stop-opacity:1;"
         offset="0"
         id="stop22059" />
      <stop
         style="stop-color:#535e75;stop-opacity:1;"
         offset="1"
         id="stop22061" />
    </linearGradient>
    <linearGradient
       id="paint1_linear"
       x1="13.26"
       y1="11.1229"
       x2="44.327"
       y2="43.688099"
       gradientUnits="userSpaceOnUse"
       gradientTransform="matrix(1.3888883,0,0,1.3888883,98.388848,-57.136099)">
      <stop
         offset="0.046875"
         stop-color="#00022F"
         stop-opacity="0.4"
         id="stop25" />
      <stop
         offset="0.630208"
         stop-color="#00022F"
         stop-opacity="0"
         id="stop27" />
    </linearGradient>
    <linearGradient
       id="paint2_linear"
       x1="18"
       y1="36"
       x2="18"
       y2="40"
       gradientUnits="userSpaceOnUse"
       gradientTransform="matrix(1.3888883,0,0,1.3888883,98.388848,-57.136099)">
      <stop
         stop-color="#5DC6FF"
         id="stop30" />
      <stop
         offset="1"
         stop-color="#3DAEE9"
         id="stop32" />
    </linearGradient>
    <filter
       id="d-6"
       x="-0.036"
       y="-0.03600006"
       width="1.072"
       height="1.0720001"
       color-interpolation-filters="sRGB">
      <feGaussianBlur
         stdDeviation="9"
         id="feGaussianBlur238-7" />
    </filter>
    <filter
       id="d-3"
       x="-0.036"
       y="-0.03600006"
       width="1.072"
       height="1.0720001"
       color-interpolation-filters="sRGB">
      <feGaussianBlur
         stdDeviation="9"
         id="feGaussianBlur235" />
    </filter>
    <linearGradient
       id="b-6"
       x1="443.88"
       x2="443.88"
       y1="220.06"
       y2="820.06"
       gradientTransform="matrix(0.06531728,0,0,0.06531728,-2.1754799,-2.5332871)"
       gradientUnits="userSpaceOnUse">
      <stop
         stop-color="#4bd2f5"
         offset="0"
         id="stop238" />
      <stop
         stop-color="#4bd2f5"
         stop-opacity=".88235"
         offset=".16667"
         id="stop240" />
      <stop
         stop-color="#5587ff"
         offset="1"
         id="stop242" />
    </linearGradient>
    <linearGradient
       id="a-7"
       x1="643.88"
       x2="643.88"
       y1="260.06"
       y2="780.06"
       gradientTransform="matrix(0.06531728,0,0,0.06531728,-2.1754799,-2.5332871)"
       gradientUnits="userSpaceOnUse">
      <stop
         stop-color="#5587ff"
         offset="0"
         id="stop245" />
      <stop
         stop-color="#4bd2f5"
         stop-opacity=".88235"
         offset=".74547"
         id="stop247" />
      <stop
         stop-color="#4bd2f5"
         offset="1"
         id="stop249" />
    </linearGradient>
  </defs>
  <path
     d="M 3,10.25 C 3,6.245825 6.24594,3 10.25,3 h 43.5 C 57.75417,3 61,6.245825 61,10.25 v 43.5 C 61,57.754173 57.75417,61 53.75,61 H 10.25 C 6.24594,61 3,57.754173 3,53.75 Z"
     id="path736"
     style="fill:#606c86;fill-opacity:1;stroke-width:3.625" />
  <path
     d="M 3,9.796875 C 3,6.043188 6.24594,3 10.25,3 h 43.5 C 57.75417,3 61,6.043188 61,9.796875 V 50.578124 C 61,54.331817 57.75417,57.375 53.75,57.375 H 10.25 C 6.24594,57.375 3,54.331817 3,50.578124 Z"
     id="path738"
     style="fill:url(#linearGradient22065);fill-opacity:1;stroke-width:3.625" />
  <g
     transform="matrix(0.06531726,0,0,0.06531726,-1.9142979,-2.0733251)"
     fill="#010101"
     filter="url(#d)"
     opacity="0.2"
     stroke-width="93.632"
     id="g265"
     style="filter:url(#d-3)">
    <path
       d="m 518.75,213.01 c -165.67,0 -300,134.33 -300,300 0,160.9 126.69,292.18 285.73,299.64 4.7761,0.23881 9.4925,0.35821 14.269,0.35821 76.836,0 146.87,-28.896 199.94,-76.358 -35.164,23.343 -76.299,36.716 -120.24,36.716 -71.463,0 -135.4,-35.463 -178.45,-91.343 -33.194,-39.164 -54.627,-97.015 -56.119,-161.97 v -14.149 c 1.4925,-64.955 22.925,-122.87 56.119,-161.97 43.045,-55.881 107.04,-91.343 178.45,-91.343 43.94,0 85.075,13.433 120.24,36.776 -52.776,-47.224 -122.45,-76.06 -198.81,-76.358 h -1.1343 z"
       id="path261" />
    <path
       d="m 420,343.94 c 27.522,-32.478 63.104,-52.119 101.91,-52.119 87.343,0 158.15,99.045 158.15,221.13 0,122.15 -70.806,221.13 -158.15,221.13 -38.866,0 -74.388,-19.582 -101.91,-52.06 43.045,55.881 106.99,91.343 178.45,91.343 43.94,0 85.075,-13.433 120.24,-36.716 61.433,-54.925 100.06,-134.75 100.06,-223.64 0,-88.836 -38.627,-168.72 -100.06,-223.64 -35.164,-23.343 -76.299,-36.716 -120.24,-36.716 -71.463,0 -135.4,35.463 -178.45,91.343"
       id="path263" />
  </g>
  <path
     d="m 31.715476,11.444538 c -10.82072,0 -19.59566,8.774019 -19.59566,19.595584 0,10.509223 8.27502,19.084411 18.66348,19.572012 0.31189,0.01552 0.61997,0.02339 0.93199,0.02339 5.01867,0 9.59306,-1.887447 13.05989,-4.98745 -2.29667,1.524705 -4.98361,2.398203 -7.85362,2.398203 -4.66775,0 -8.84401,-2.31636 -11.65545,-5.966254 -2.16824,-2.558112 -3.56819,-6.336791 -3.66568,-10.579925 v -0.924179 c 0.0975,-4.242712 1.49732,-8.025483 3.66568,-10.579914 2.81144,-3.650006 6.99145,-5.966251 11.65545,-5.966251 2.87001,0 5.55695,0.877409 7.85362,2.402089 -3.44711,-3.084538 -7.99814,-4.967988 -12.9862,-4.987449 h -0.0742 z"
     stroke-width="6.11579"
     id="path267"
     style="fill:url(#b-6)" />
  <path
     d="m 25.265806,19.99616 c 1.79772,-2.121399 4.12185,-3.404261 6.65668,-3.404261 5.70493,0 10.32986,6.469335 10.32986,14.44392 0,7.978469 -4.6248,14.443918 -10.32986,14.443918 -2.53872,0 -4.85896,-1.279063 -6.65668,-3.400371 2.81159,3.650011 6.9884,5.966258 11.6556,5.966258 2.87008,0 5.55702,-0.877404 7.85369,-2.398192 4.01267,-3.58752 6.53562,-8.801474 6.53562,-14.607825 0,-5.802561 -2.52295,-11.020398 -6.53562,-14.607816 -2.29667,-1.52471 -4.98362,-2.39819 -7.85369,-2.39819 -4.66769,0 -8.84401,2.316339 -11.6556,5.966245"
     stroke-width="6.11579"
     id="path269"
     style="fill:url(#a-7)" />
</svg>
