<?xml version="1.0" encoding="UTF-8" standalone="no"?>
<svg
   width="64"
   height="64"
   viewBox="0 0 64 64"
   version="1.1"
   id="svg52"
   sodipodi:docname="qupzilla.svg"
   inkscape:version="1.2.1 (9c6d41e410, 2022-07-14)"
   xmlns:inkscape="http://www.inkscape.org/namespaces/inkscape"
   xmlns:sodipodi="http://sodipodi.sourceforge.net/DTD/sodipodi-0.dtd"
   xmlns:xlink="http://www.w3.org/1999/xlink"
   xmlns="http://www.w3.org/2000/svg"
   xmlns:svg="http://www.w3.org/2000/svg">
  <sodipodi:namedview
     id="namedview54"
     pagecolor="#a4a4a4"
     bordercolor="#eeeeee"
     borderopacity="1"
     inkscape:pageshadow="0"
     inkscape:pageopacity="0"
     inkscape:pagecheckerboard="0"
     showgrid="false"
     inkscape:zoom="5.2604167"
     inkscape:cx="36.40396"
     inkscape:cy="10.930693"
     inkscape:window-width="1920"
     inkscape:window-height="1002"
     inkscape:window-x="0"
     inkscape:window-y="0"
     inkscape:window-maximized="1"
     inkscape:current-layer="svg52"
     inkscape:showpageshadow="2"
     inkscape:deskcolor="#c9c9c9" />
  <defs
     id="defs32">
    <linearGradient
       xlink:href="#linearGradient4393"
       id="linearGradient4399"
       x1="424.44101"
       y1="502.85001"
       x2="440.87799"
       y2="529.57599"
       gradientUnits="userSpaceOnUse"
       gradientTransform="matrix(0.69224711,0,0,0.69224711,-215.22899,-357.13539)" />
    <linearGradient
       id="linearGradient4393">
      <stop
         style="stop-color:#000000;stop-opacity:1;"
         offset="0"
         id="stop3" />
      <stop
         style="stop-color:#000000;stop-opacity:0;"
         offset="1"
         id="stop5" />
    </linearGradient>
    <linearGradient
       xlink:href="#linearGradient4274"
       id="linearGradient4217"
       gradientUnits="userSpaceOnUse"
       gradientTransform="matrix(0.69224711,0,0,0.69224711,-199.3073,1639.8968)"
       x1="390.57101"
       y1="498.298"
       x2="442.57101"
       y2="498.298" />
    <linearGradient
       id="linearGradient4274">
      <stop
         offset="0"
         style="stop-color:#ffffff;stop-opacity:1;"
         id="stop9" />
      <stop
         offset="1"
         style="stop-color:#ffffff;stop-opacity:0.48760331"
         id="stop11" />
    </linearGradient>
    <linearGradient
       xlink:href="#linearGradient4227"
       id="linearGradient4225"
       gradientUnits="userSpaceOnUse"
       x1="396.57101"
       y1="498.798"
       x2="426.57101"
       y2="511.798"
       gradientTransform="matrix(0.69224711,0,0,0.69224711,-199.3073,-360.21214)" />
    <linearGradient
       id="linearGradient4227">
      <stop
         offset="0"
         style="stop-color:#f5f5f5;stop-opacity:1"
         id="stop21" />
      <stop
         offset="1"
         style="stop-color:#f9f9f9;stop-opacity:1"
         id="stop23" />
    </linearGradient>
    <style
       id="current-color-scheme"
       type="text/css">      .ColorScheme-Highlight {
        color:#3593e6;
      }
</style>
    <linearGradient
       id="d"
       gradientUnits="userSpaceOnUse"
       x1="4"
       x2="18.999998"
       xlink:href="#c"
       y1="5"
       y2="20"
       gradientTransform="matrix(2.7999616,0,0,2.7999616,1.095156,-2.3992319)" />
    <linearGradient
       id="c">
      <stop
         offset="0"
         stop-color="#292c2f"
         id="stop265" />
      <stop
         offset="1"
         stop-opacity="0"
         id="stop267" />
    </linearGradient>
    <linearGradient
       id="b"
       gradientUnits="userSpaceOnUse"
       x1="13.280776"
       x2="28.280775"
       xlink:href="#c"
       y1="5.088388"
       y2="20.088388"
       gradientTransform="matrix(2.7999616,0,0,2.7999616,1.095156,-2.3992319)" />
    <linearGradient
       id="c-3"
       gradientUnits="userSpaceOnUse"
       x1="5"
       x2="5"
       y1="20"
       y2="7"
       gradientTransform="matrix(3.4390082,0,0,3.4390082,-5.8290972,-4.015561)">
      <stop
         offset="0"
         stop-color="#999a9c"
         id="stop164" />
      <stop
         offset="1"
         stop-color="#f4f5f5"
         id="stop166" />
    </linearGradient>
    <linearGradient
       id="a"
       y1="543.79999"
       x1="428.57001"
       y2="503.79999"
       x2="388.57001"
       gradientUnits="userSpaceOnUse">
      <stop
         stop-color="#375a7d"
         id="stop152" />
      <stop
         offset="1"
         stop-color="#31bfa6"
         id="stop154" />
    </linearGradient>
    <linearGradient
       id="d-3"
       y1="24"
       x1="18"
       y2="37"
       x2="27.975"
       gradientUnits="userSpaceOnUse">
      <stop
         stop-color="#172525"
         id="stop169" />
      <stop
         offset="1"
         stop-color="#172525"
         stop-opacity="0"
         id="stop171" />
    </linearGradient>
    <linearGradient
       id="c-6"
       y1="25.538"
       x1="14.576"
       y2="44"
       x2="28.742001"
       gradientUnits="userSpaceOnUse">
      <stop
         stop-color="#4ce0c6"
         id="stop162" />
      <stop
         offset=".3"
         stop-color="#7fe9d6"
         id="stop164-7" />
      <stop
         offset="1"
         stop-color="#31bfa6"
         id="stop166-5" />
    </linearGradient>
    <linearGradient
       id="b-3"
       y1="12.08"
       x1="12.521"
       y2="24.797001"
       x2="22.282"
       gradientUnits="userSpaceOnUse"
       gradientTransform="translate(384.57,499.8)">
      <stop
         stop-color="#fcfcfc"
         id="stop157" />
      <stop
         offset="1"
         stop-color="#eff1f1"
         id="stop159" />
    </linearGradient>
  </defs>
  <path
     d="m 2.9999985,10.25 c 0,-4.0041748 3.245938,-7.25 7.2500005,-7.25 h 43.500003 c 4.004173,0 7.249999,3.2458252 7.249999,7.25 v 43.5 c 0,4.004173 -3.245827,7.25 -7.25,7.25 H 10.249999 C 6.2459365,61 2.9999985,57.754173 2.9999985,53.75 Z"
     id="path736"
     style="fill:#606c86;fill-opacity:1;stroke-width:3.625" />
  <path
     d="M 2.9999985,9.796875 C 2.9999985,6.0431877 6.2459365,3 10.249999,3 h 43.500003 c 4.004173,0 7.249999,3.0431877 7.249999,6.796875 v 40.781249 c 0,3.753693 -3.245827,6.796876 -7.25,6.796876 H 10.249999 c -4.0040625,0 -7.2500005,-3.043183 -7.2500005,-6.796876 z"
     id="path738"
     style="fill:#3b4252;fill-opacity:1;stroke-width:3.625" />
  <g
     fill-rule="evenodd"
     transform="matrix(1.1249997,0,0,1.1249997,-427.64394,-557.27484)"
     id="g188">
    <g
       color-rendering="auto"
       color-interpolation-filters="linearRGB"
       shape-rendering="auto"
       image-rendering="auto"
       text-rendering="auto"
       color-interpolation="sRGB"
       color="#000000"
       id="g180">
      <circle
         cx="408.57001"
         cy="523.79999"
         r="20"
         id="circle176"
         style="fill:url(#a)" />
      <path
         fill="#375a7d"
         d="M 43.980469,23.476562 A 20.00001,20.00001 0 0 1 24,43.09961 20.00001,20.00001 0 0 1 4.01953,23.623047 20.00001,20.00001 0 0 0 4,24 20.00001,20.00001 0 0 0 24,44 20.00001,20.00001 0 0 0 44,24 20.00001,20.00001 0 0 0 43.980469,23.476562"
         transform="translate(384.57,499.8)"
         id="path178" />
    </g>
    <path
       opacity="0.4"

       d="m 41,19 -6.813,1.813 -17.688,-1.188 -7.5,9.688 -0.34,4.074 9.82,9.82 a 20.00001,20.00001 0 0 0 5.519531,0.792969 20.00001,20.00001 0 0 0 20,-20 20.00001,20.00001 0 0 0 -0.138672,-2.138672 z"
       transform="translate(384.57,499.8)"
       id="path182"
       style="fill:url(#d-3)" />
    <path

       d="M 17.887,22.848 9,24 8.645,33.348 C 24.046,23.494 34,39.378 44.005,33 c -8,0 -14.673,-12.09 -24.5,-9 z"
       transform="translate(384.57,499.8)"
       id="path184"
       style="fill:url(#c-6)" />
    <path

       d="m 394.66,512.4 c -2.637,3.214 -4.08,7.243 -4.084,11.4 0.006,3.314 0.926,6.562 2.66,9.387 13.944,-17.18 21.21,-5.01 32.34,-14.387 -10,2 -12.898,-10.456 -30.916,-6.4"
       id="path186"
       style="fill:url(#b-3)" />
  </g>
</svg>
