<?xml version="1.0" encoding="UTF-8" standalone="no"?>
<svg
   width="64"
   height="64"
   viewBox="0 0 64 64"
   version="1.1"
   id="svg52"
   sodipodi:docname="r.svg"
   inkscape:version="1.2.1 (9c6d41e410, 2022-07-14)"
   xmlns:inkscape="http://www.inkscape.org/namespaces/inkscape"
   xmlns:sodipodi="http://sodipodi.sourceforge.net/DTD/sodipodi-0.dtd"
   xmlns:xlink="http://www.w3.org/1999/xlink"
   xmlns="http://www.w3.org/2000/svg"
   xmlns:svg="http://www.w3.org/2000/svg">
  <sodipodi:namedview
     id="namedview54"
     pagecolor="#a4a4a4"
     bordercolor="#eeeeee"
     borderopacity="1"
     inkscape:pageshadow="0"
     inkscape:pageopacity="0"
     inkscape:pagecheckerboard="0"
     showgrid="false"
     inkscape:zoom="5.2604167"
     inkscape:cx="36.40396"
     inkscape:cy="10.930693"
     inkscape:window-width="1920"
     inkscape:window-height="1002"
     inkscape:window-x="0"
     inkscape:window-y="0"
     inkscape:window-maximized="1"
     inkscape:current-layer="svg52"
     inkscape:showpageshadow="2"
     inkscape:deskcolor="#c9c9c9" />
  <defs
     id="defs32">
    <linearGradient
       xlink:href="#linearGradient4393"
       id="linearGradient4399"
       x1="424.44101"
       y1="502.85001"
       x2="440.87799"
       y2="529.57599"
       gradientUnits="userSpaceOnUse"
       gradientTransform="matrix(0.69224711,0,0,0.69224711,-215.22899,-357.13539)" />
    <linearGradient
       id="linearGradient4393">
      <stop
         style="stop-color:#000000;stop-opacity:1;"
         offset="0"
         id="stop3" />
      <stop
         style="stop-color:#000000;stop-opacity:0;"
         offset="1"
         id="stop5" />
    </linearGradient>
    <linearGradient
       xlink:href="#linearGradient4274"
       id="linearGradient4217"
       gradientUnits="userSpaceOnUse"
       gradientTransform="matrix(0.69224711,0,0,0.69224711,-199.3073,1639.8968)"
       x1="390.57101"
       y1="498.298"
       x2="442.57101"
       y2="498.298" />
    <linearGradient
       id="linearGradient4274">
      <stop
         offset="0"
         style="stop-color:#ffffff;stop-opacity:1;"
         id="stop9" />
      <stop
         offset="1"
         style="stop-color:#ffffff;stop-opacity:0.48760331"
         id="stop11" />
    </linearGradient>
    <linearGradient
       xlink:href="#linearGradient4227"
       id="linearGradient4225"
       gradientUnits="userSpaceOnUse"
       x1="396.57101"
       y1="498.798"
       x2="426.57101"
       y2="511.798"
       gradientTransform="matrix(0.69224711,0,0,0.69224711,-199.3073,-360.21214)" />
    <linearGradient
       id="linearGradient4227">
      <stop
         offset="0"
         style="stop-color:#f5f5f5;stop-opacity:1"
         id="stop21" />
      <stop
         offset="1"
         style="stop-color:#f9f9f9;stop-opacity:1"
         id="stop23" />
    </linearGradient>
    <style
       id="current-color-scheme"
       type="text/css">      .ColorScheme-Highlight {
        color:#3593e6;
      }
</style>
    <linearGradient
       id="d"
       gradientUnits="userSpaceOnUse"
       x1="4"
       x2="18.999998"
       xlink:href="#c"
       y1="5"
       y2="20"
       gradientTransform="matrix(2.7999616,0,0,2.7999616,1.095156,-2.3992319)" />
    <linearGradient
       id="c">
      <stop
         offset="0"
         stop-color="#292c2f"
         id="stop265" />
      <stop
         offset="1"
         stop-opacity="0"
         id="stop267" />
    </linearGradient>
    <linearGradient
       id="b"
       gradientUnits="userSpaceOnUse"
       x1="13.280776"
       x2="28.280775"
       xlink:href="#c"
       y1="5.088388"
       y2="20.088388"
       gradientTransform="matrix(2.7999616,0,0,2.7999616,1.095156,-2.3992319)" />
    <linearGradient
       id="c-3"
       gradientUnits="userSpaceOnUse"
       x1="5"
       x2="5"
       y1="20"
       y2="7"
       gradientTransform="matrix(3.4390082,0,0,3.4390082,-5.8290972,-4.015561)">
      <stop
         offset="0"
         stop-color="#999a9c"
         id="stop164" />
      <stop
         offset="1"
         stop-color="#f4f5f5"
         id="stop166" />
    </linearGradient>
    <linearGradient
       id="a"
       y1="44"
       y2="4"
       x2="0"
       gradientUnits="userSpaceOnUse">
      <stop
         stop-color="#7cbaf8"
         id="stop152" />
      <stop
         offset="1"
         stop-color="#f4fcff"
         id="stop154" />
    </linearGradient>
    <linearGradient
       id="b-3"
       y1="39"
       y2="9"
       gradientUnits="userSpaceOnUse"
       x2="0"
       gradientTransform="matrix(1.02857,0,0,1.2,-5.314,-2013.52)">
      <stop
         stop-color="#197cf1"
         id="stop157" />
      <stop
         offset="1"
         stop-color="#20bcfa"
         id="stop159" />
    </linearGradient>
    <linearGradient
       xlink:href="#c-7"
       id="d-6"
       y1="18.26"
       x1="14.59"
       y2="40.439999"
       x2="36.060001"
       gradientUnits="userSpaceOnUse" />
    <linearGradient
       id="c-7"
       y1="13.01"
       x1="25.040001"
       y2="30.26"
       x2="42.990002"
       gradientUnits="userSpaceOnUse">
      <stop
         stop-color="#292c2f"
         id="stop162" />
      <stop
         offset="1"
         stop-color="#292c2f"
         stop-opacity="0"
         id="stop164-5" />
    </linearGradient>
    <linearGradient
       id="a-3"
       y1="61.200001"
       x1="-162.28999"
       y2="505.06"
       gradientUnits="userSpaceOnUse"
       x2="737.63"
       gradientTransform="matrix(0.07988963,0.02495102,-0.02223702,0.07119775,13.078816,2.4457071)">
      <stop
         stop-color="#fafafa"
         id="stop272" />
      <stop
         offset="1"
         stop-color="#939393"
         id="stop274" />
    </linearGradient>
    <linearGradient
       id="b-6"
       y1="41"
       x1="41"
       y2="18.25"
       x2="21.129999"
       gradientUnits="userSpaceOnUse"
       gradientTransform="matrix(1.2224895,0,0,1.2224895,2.7878998,4.0691761)">
      <stop
         stop-color="#502ae3"
         id="stop277" />
      <stop
         offset="1"
         stop-color="#4db4f6"
         id="stop279" />
    </linearGradient>
  </defs>
  <path
     d="m 2.9999985,10.25 c 0,-4.0041748 3.245938,-7.25 7.2500005,-7.25 h 43.500003 c 4.004173,0 7.249999,3.2458252 7.249999,7.25 v 43.5 c 0,4.004173 -3.245827,7.25 -7.25,7.25 H 10.249999 C 6.2459365,61 2.9999985,57.754173 2.9999985,53.75 Z"
     id="path736"
     style="fill:#606c86;fill-opacity:1;stroke-width:3.625" />
  <path
     d="M 2.9999985,9.796875 C 2.9999985,6.0431877 6.2459365,3 10.249999,3 h 43.500003 c 4.004173,0 7.249999,3.0431877 7.249999,6.796875 v 40.781249 c 0,3.753693 -3.245827,6.796876 -7.25,6.796876 H 10.249999 c -4.0040625,0 -7.2500005,-3.043183 -7.2500005,-6.796876 z"
     id="path738"
     style="fill:#3b4252;fill-opacity:1;stroke-width:3.625" />
  <path
     color-interpolation-filters="linearRGB"
     color="#000000"
     image-rendering="auto"
     color-rendering="auto"
     d="M 38.104065,10.638986 A 26.160945,20.794831 17.343928 0 0 6.9339098,22.689541 26.160945,20.794831 17.343928 0 0 25.705986,50.337409 26.160945,20.794831 17.343928 0 0 56.876116,38.286833 26.160945,20.794831 17.343928 0 0 38.104065,10.638986 m 1.254211,8.047307 a 19.511701,15.5016 17.343928 0 1 14.003768,20.615362 19.511701,15.5016 17.343928 0 1 -23.246286,8.97901 19.511701,15.5016 17.343928 0 1 -14.002292,-20.611991 19.511701,15.5016 17.343928 0 1 23.24481,-8.982381"
     color-interpolation="sRGB"
     text-rendering="auto"

     shape-rendering="auto"
     id="path284"
     style="fill:url(#a-3);fill-rule:evenodd;stroke-width:1.22245" />
  <path

     d="m 53.577457,54.215691 -8.389946,0.0043 -5.717583,-8.451067 c 0,0 -0.920537,-1.583124 -1.486544,-2.04278 -0.471877,-0.382546 -0.673592,-0.519465 -1.14058,-0.519465 h -1.061121 l 0.002,11.002408 -7.283587,0.0033 v -28.11716 h 15.858159 c 0,0 6.426624,1.185821 6.557425,7.551321 0.145481,7.096549 -6.21146,9.184561 -6.21146,9.184561 0.871626,0.356967 7.883833,9.739573 8.874045,11.378926 m -12.573296,-22.017029 -5.149134,-0.0036 -0.002,4.781157 5.151567,-0.0012 c 0,0 2.386298,-0.0074 2.386298,-2.431531 0,-2.473096 -2.386298,-2.34351 -2.386298,-2.34351"
     id="path286"
     style="fill:url(#b-6);fill-rule:evenodd;stroke-width:1.22245" />
  <path
     d="m 28.496865,26.098442 v 1.222482 h 15.859354 c 0,0 6.452292,1.201705 6.556207,6.330054 -0.129588,-6.36551 -6.556207,-7.552536 -6.556207,-7.552536 z"
     id="path288"
     style="fill:#ffffff;fill-opacity:0.196;fill-rule:evenodd;stroke-width:1.22245" />
  <path
     color-interpolation-filters="linearRGB"
     color="#000000"
     image-rendering="auto"
     color-rendering="auto"
     d="m 43.386781,34.538505 c 0,2.424196 -2.387522,2.432754 -2.387522,2.432754 h -5.150341 v 1.222489 h 5.150341 c 0,0 2.387522,0.105131 2.387522,-3.655243"
     color-interpolation="sRGB"
     text-rendering="auto"
     shape-rendering="auto"
     id="path290"
     style="fill:#ffffff;fill-opacity:0.196;fill-rule:evenodd;stroke-width:1.22245" />
  <path
     color-interpolation-filters="linearRGB"
     fill-opacity="0.103"
     color="#000000"
     image-rendering="auto"
     color-rendering="auto"
     d="m 22.980475,9.6921621 a 26.160945,20.794831 17.343928 0 0 -0.730624,0.174286 c 0.245726,-0.05495 0.481663,-0.125908 0.731049,-0.174817 m 12.570952,0.262615 c 0.849625,0.1931589 1.698038,0.4205449 2.55256,0.6858129 A 26.160945,20.794831 17.343928 0 0 35.551584,9.9547881 m 2.552828,0.6852709 c 0.721261,0.224952 1.419303,0.484114 2.111234,0.751844 A 26.160945,20.794831 17.343928 0 0 38.104014,10.640059 M 20.678762,10.25327 a 26.160945,20.794831 17.343928 0 0 -0.919249,0.307991 c 0.306845,-0.101465 0.606345,-0.216376 0.919311,-0.308056 m -2.210991,0.756899 a 26.160945,20.794831 17.343928 0 0 -0.854784,0.37725 c 0.284838,-0.125929 0.562343,-0.261621 0.854508,-0.377763 m 23.076929,0.942542 c 0.343535,0.151601 0.689488,0.299518 1.024452,0.460877 a 26.160945,20.794831 17.343928 0 0 -1.024283,-0.459722 m -25.178029,0.0089 a 26.160945,20.794831 17.343928 0 0 -0.744964,0.420226 c 0.248177,-0.140586 0.489008,-0.288507 0.744506,-0.420537 m -1.953124,1.136537 a 26.160945,20.794831 17.343928 0 0 -0.641828,0.453964 c 0.213478,-0.151361 0.421303,-0.30906 0.642578,-0.453311 m 29.498668,0.01717 c 0.308054,0.166259 0.617357,0.331292 0.91686,0.50611 a 26.160945,20.794831 17.343928 0 0 -0.91686,-0.506186 m -31.280163,1.291062 a 26.160945,20.794831 17.343928 0 0 -0.558713,0.491862 c 0.186184,-0.164273 0.365884,-0.334201 0.555361,-0.491902 m 33.557338,0.0647 c 0.251833,0.165034 0.507331,0.325181 0.751833,0.496325 a 26.160945,20.794831 17.343928 0 0 -0.751833,-0.496615 m 2.06111,1.480436 c 0.232282,0.182152 0.469441,0.360636 0.694378,0.548899 A 26.160945,20.794831 17.343928 0 0 48.246846,15.951951 M 33.606872,16.511017 C 25.445533,16.317862 18.186388,21.028116 16.113056,27.668676 A 19.511701,15.5016 17.343928 0 1 39.357545,18.685862 19.511701,15.5016 17.343928 0 1 53.903252,34.943537 C 53.63002,27.755471 47.88187,20.119805 39.357459,17.46334 37.428367,16.860649 35.496834,16.555028 33.606872,16.511017 m 16.458379,1.002443 c 0.237152,0.221269 0.481662,0.436423 0.709029,0.66381 a 26.160945,20.794831 17.343928 0 0 -0.709131,-0.663774 m 1.676029,1.70048 c 0.220054,0.244502 0.449884,0.482885 0.658927,0.733496 A 26.160945,20.794831 17.343928 0 0 51.747183,19.213536 M 8.3798458,19.385485 a 26.160945,20.794831 17.343928 0 0 -0.04531,0.07875 c 0.01462,-0.02692 0.03063,-0.05264 0.0452,-0.07815 m 44.8616882,1.643026 c 0.199257,0.265283 0.410749,0.524453 0.596576,0.794618 A 26.160945,20.794831 17.343928 0 0 53.241876,21.028252 M 7.4916518,21.18584 a 26.160945,20.794831 17.343928 0 0 -0.109804,0.262644 c 0.03554,-0.0881 0.07332,-0.174815 0.109982,-0.26284 m 47.0633982,1.776282 c 0.163806,0.268944 0.342291,0.533 0.493883,0.80684 a 26.160945,20.794831 17.343928 0 0 -0.494242,-0.807037 m 1.239599,2.309285 c 0.0746,0.16015 0.161363,0.317853 0.231051,0.480437 a 26.160945,20.794831 17.343928 0 0 -0.231213,-0.480298 m -39.993747,3.67969 c -0.05986,0.297065 -0.09904,0.594131 -0.135692,0.892418 a 19.511701,15.5016 17.343928 0 1 0.136095,-0.892986 m -0.205379,1.506103 c -0.02572,0.339852 -0.03059,0.679705 -0.02804,1.019555 a 19.511701,15.5016 17.343928 0 1 0.02856,-1.019537 m -0.0221,1.550118 c 0.01593,0.34963 0.05127,0.69804 0.09527,1.045226 a 19.511701,15.5016 17.343928 0 1 -0.09542,-1.045802 m 0.167489,1.58557 c 0.05752,0.345964 0.135688,0.690706 0.22004,1.034225 A 19.511701,15.5016 17.343928 0 1 15.74172,33.591938 m 0.350841,1.566009 c 0.09658,0.337407 0.215172,0.669924 0.336198,1.002441 a 19.511701,15.5016 17.343928 0 1 -0.336823,-1.004143 m -8.3162772,0.04775 a 26.160945,20.794831 17.343928 0 0 0.319952,0.661386 c -0.10365,-0.220982 -0.223457,-0.438585 -0.320042,-0.661078 m 46.1322562,0.329496 a 19.511701,15.5016 17.343928 0 1 -0.02383,0.890603 c 0.02087,-0.295842 0.02317,-0.592907 0.02435,-0.891194 m -37.271246,1.194356 c 0.12713,0.311735 0.273838,0.619802 0.422981,0.926647 A 19.511701,15.5016 17.343928 0 1 16.637471,36.72782 m -7.8769502,0.477536 a 26.160945,20.794831 17.343928 0 0 0.527682,0.859562 c -0.176494,-0.287262 -0.363536,-0.568435 -0.528575,-0.854497 m 45.0339272,0.04298 a 19.511701,15.5016 17.343928 0 1 -0.109795,0.725843 c 0.0464,-0.239608 0.07694,-0.482883 0.10998,-0.726159 m -36.44607,0.995107 c 0.160139,0.300732 0.342299,0.59413 0.523212,0.88875 a 19.511701,15.5016 17.343928 0 1 -0.523084,-0.893404 m -7.3850647,0.895375 a 26.160945,20.794831 17.343928 0 0 0.6351257,0.850012 C 10.384326,39.704296 10.159384,39.428014 9.9625703,39.139506 m 46.4545777,0.413201 c -0.02935,0.07335 -0.05986,0.146699 -0.0904,0.220048 a 26.160945,20.794831 17.343928 0 0 0.09067,-0.219652 m -38.190566,0.165143 c 0.198053,0.295842 0.418098,0.581905 0.635704,0.86919 a 19.511701,15.5016 17.343928 0 1 -0.635129,-0.8691 m 34.575922,1.03625 a 19.511701,15.5016 17.343928 0 1 -0.733006,1.372947 c 0.271389,-0.441319 0.517112,-0.897307 0.733499,-1.372855 m -0.733025,1.372913 a 19.511701,15.5016 17.343928 0 1 -3.206629,3.55764 c 1.283614,-1.004886 2.370404,-2.199257 3.206594,-3.557443 m -3.206655,3.557636 a 19.511701,15.5016 17.343928 0 1 -1.332318,0.93358 c 0.464544,-0.289729 0.908309,-0.601464 1.332517,-0.933981 M 11.402578,41.025449 a 26.160945,20.794831 17.343928 0 0 0.64466,0.721077 c -0.215423,-0.23999 -0.439133,-0.475931 -0.640858,-0.721651 m 7.858165,0.09047 c 0.26772,0.330072 0.561121,0.647919 0.854522,0.964544 A 19.511701,15.5016 17.343928 0 1 19.26428,41.115268 m 36.226021,0.372859 c -0.02315,0.04279 -0.04777,0.08434 -0.07212,0.127139 a 26.160945,20.794831 17.343928 0 0 0.07171,-0.126547 M 20.43867,42.436098 c 0.416867,0.429093 0.855741,0.843517 1.317842,1.244494 a 19.511701,15.5016 17.343928 0 1 -1.317957,-1.243994 m 1.317831,1.244494 c 1.393639,1.205374 2.988991,2.271385 4.75427,3.149132 a 19.511701,15.5016 17.343928 0 1 -4.753865,-3.149342 m 4.754263,3.149132 c 0.568454,0.283617 1.154027,0.54523 1.757936,0.788506 A 19.511701,15.5016 17.343928 0 1 26.51166,46.830638 M 13.047768,42.816204 a 26.160945,20.794831 17.343928 0 0 0.649443,0.606469 c -0.216169,-0.197287 -0.441107,-0.398998 -0.648919,-0.606821 m 41.278568,0.473104 c -0.01346,0.01834 -0.02692,0.03423 -0.04038,0.05258 a 26.160945,20.794831 17.343928 0 0 0.04058,-0.05254 m -39.456292,1.186772 a 26.160945,20.794831 17.343928 0 0 0.730612,0.575431 c -0.245065,-0.191242 -0.490773,-0.383173 -0.731603,-0.578772 m 1.967441,1.506623 a 26.160945,20.794831 17.343928 0 0 0.807034,0.537226 c -0.270168,-0.177264 -0.543999,-0.35208 -0.806853,-0.536675 m 34.917978,0.07702 c -0.195607,0.173594 -0.383868,0.352077 -0.586804,0.518335 a 26.160945,20.794831 17.343928 0 0 0.587364,-0.518125 m -4.691785,0.823748 a 19.511701,15.5016 17.343928 0 1 -0.981327,0.539615 c 0.338626,-0.166258 0.658927,-0.3533 0.981655,-0.539118 M 19.018871,47.37774 a 26.160945,20.794831 17.343928 0 0 0.804642,0.444109 c -0.268948,-0.1467 -0.541564,-0.290953 -0.80441,-0.443764 m 31.073241,0.0048 c -0.238384,0.169927 -0.469438,0.345965 -0.716384,0.506112 a 26.160945,20.794831 17.343928 0 0 0.716317,-0.506183 m -4.646415,0.319948 a 19.511701,15.5016 17.343928 0 1 -0.935977,0.398742 c 0.320288,-0.121027 0.627133,-0.261613 0.936434,-0.398531 m -1.614068,0.625574 A 19.511701,15.5016 17.343928 0 1 42.83897,48.64372 c 0.33864,-0.0929 0.665035,-0.205377 0.993885,-0.315401 m 4.436416,0.217603 c -0.281172,0.160145 -0.556229,0.328849 -0.847174,0.477993 a 26.160945,20.794831 17.343928 0 0 0.847615,-0.477533 m -27.023698,0.01433 a 26.160945,20.794831 17.343928 0 0 1.060119,0.477536 c -0.355735,-0.156471 -0.712704,-0.310506 -1.059889,-0.477987 m 10.463283,0.147922 c 0.376526,0.09047 0.75183,0.165037 1.127138,0.235941 a 19.511701,15.5016 17.343928 0 1 -1.12699,-0.236377 m 10.391163,0.112222 A 19.511701,15.5016 17.343928 0 1 41.1077,49.036208 c 0.334955,-0.06114 0.661377,-0.13814 0.988997,-0.215157 m -8.519528,0.260393 c 0.409532,0.06479 0.815402,0.112471 1.222481,0.155256 a 19.511701,15.5016 17.343928 0 1 -1.222481,-0.155197 m 6.77622,0.06685 a 19.511701,15.5016 17.343928 0 1 -1.122215,0.138489 c 0.37898,-0.03424 0.750612,-0.08434 1.122251,-0.138141 m -4.865505,0.157701 c 0.413203,0.03178 0.82151,0.04522 1.234714,0.05499 a 19.511701,15.5016 17.343928 0 1 -1.229658,-0.05491 m 3.154121,0.01908 a 19.511701,15.5016 17.343928 0 1 -1.275021,0.05014 c 0.430314,-0.0025 0.852077,-0.02322 1.27506,-0.05011 m 7.616111,0.235941 c -0.30563,0.135695 -0.602697,0.282396 -0.916874,0.405869 a 26.160945,20.794831 17.343928 0 0 0.916874,-0.405907 m -22.673357,0.01908 a 26.160945,20.794831 17.343928 0 0 2.120256,0.756892 C 24.985208,50.111326 24.284729,49.850935 23.59035,49.580769 m 20.451026,0.841067 c -0.301966,0.100213 -0.59536,0.211498 -0.902206,0.300739 a 26.160945,20.794831 17.343928 0 0 0.902541,-0.300851 m -2.480433,0.689484 c -0.243265,0.05496 -0.479212,0.123472 -0.726158,0.172376 a 26.160945,20.794831 17.343928 0 0 0.725857,-0.171917"
     color-interpolation="sRGB"
     text-rendering="auto"
     shape-rendering="auto"
     id="path294"
     style="fill-rule:evenodd;stroke-width:1.22245" />
</svg>
