<?xml version="1.0" encoding="UTF-8" standalone="no"?>
<svg
   width="64"
   height="64"
   viewBox="0 0 64 64"
   version="1.1"
   id="svg52"
   sodipodi:docname="rekonq.svg"
   inkscape:version="1.2.1 (9c6d41e410, 2022-07-14)"
   xmlns:inkscape="http://www.inkscape.org/namespaces/inkscape"
   xmlns:sodipodi="http://sodipodi.sourceforge.net/DTD/sodipodi-0.dtd"
   xmlns:xlink="http://www.w3.org/1999/xlink"
   xmlns="http://www.w3.org/2000/svg"
   xmlns:svg="http://www.w3.org/2000/svg">
  <sodipodi:namedview
     id="namedview54"
     pagecolor="#a4a4a4"
     bordercolor="#eeeeee"
     borderopacity="1"
     inkscape:pageshadow="0"
     inkscape:pageopacity="0"
     inkscape:pagecheckerboard="0"
     showgrid="false"
     inkscape:zoom="5.2604167"
     inkscape:cx="36.40396"
     inkscape:cy="10.930693"
     inkscape:window-width="1920"
     inkscape:window-height="1002"
     inkscape:window-x="0"
     inkscape:window-y="0"
     inkscape:window-maximized="1"
     inkscape:current-layer="svg52"
     inkscape:showpageshadow="2"
     inkscape:deskcolor="#c9c9c9" />
  <defs
     id="defs32">
    <linearGradient
       xlink:href="#linearGradient4393"
       id="linearGradient4399"
       x1="424.44101"
       y1="502.85001"
       x2="440.87799"
       y2="529.57599"
       gradientUnits="userSpaceOnUse"
       gradientTransform="matrix(0.69224711,0,0,0.69224711,-215.22899,-357.13539)" />
    <linearGradient
       id="linearGradient4393">
      <stop
         style="stop-color:#000000;stop-opacity:1;"
         offset="0"
         id="stop3" />
      <stop
         style="stop-color:#000000;stop-opacity:0;"
         offset="1"
         id="stop5" />
    </linearGradient>
    <linearGradient
       xlink:href="#linearGradient4274"
       id="linearGradient4217"
       gradientUnits="userSpaceOnUse"
       gradientTransform="matrix(0.69224711,0,0,0.69224711,-199.3073,1639.8968)"
       x1="390.57101"
       y1="498.298"
       x2="442.57101"
       y2="498.298" />
    <linearGradient
       id="linearGradient4274">
      <stop
         offset="0"
         style="stop-color:#ffffff;stop-opacity:1;"
         id="stop9" />
      <stop
         offset="1"
         style="stop-color:#ffffff;stop-opacity:0.48760331"
         id="stop11" />
    </linearGradient>
    <linearGradient
       xlink:href="#linearGradient4227"
       id="linearGradient4225"
       gradientUnits="userSpaceOnUse"
       x1="396.57101"
       y1="498.798"
       x2="426.57101"
       y2="511.798"
       gradientTransform="matrix(0.69224711,0,0,0.69224711,-199.3073,-360.21214)" />
    <linearGradient
       id="linearGradient4227">
      <stop
         offset="0"
         style="stop-color:#f5f5f5;stop-opacity:1"
         id="stop21" />
      <stop
         offset="1"
         style="stop-color:#f9f9f9;stop-opacity:1"
         id="stop23" />
    </linearGradient>
    <style
       id="current-color-scheme"
       type="text/css">      .ColorScheme-Highlight {
        color:#3593e6;
      }
</style>
    <linearGradient
       id="d"
       gradientUnits="userSpaceOnUse"
       x1="4"
       x2="18.999998"
       xlink:href="#c"
       y1="5"
       y2="20"
       gradientTransform="matrix(2.7999616,0,0,2.7999616,1.095156,-2.3992319)" />
    <linearGradient
       id="c">
      <stop
         offset="0"
         stop-color="#292c2f"
         id="stop265" />
      <stop
         offset="1"
         stop-opacity="0"
         id="stop267" />
    </linearGradient>
    <linearGradient
       id="b"
       gradientUnits="userSpaceOnUse"
       x1="13.280776"
       x2="28.280775"
       xlink:href="#c"
       y1="5.088388"
       y2="20.088388"
       gradientTransform="matrix(2.7999616,0,0,2.7999616,1.095156,-2.3992319)" />
    <linearGradient
       id="c-3"
       gradientUnits="userSpaceOnUse"
       x1="5"
       x2="5"
       y1="20"
       y2="7"
       gradientTransform="matrix(3.4390082,0,0,3.4390082,-5.8290972,-4.015561)">
      <stop
         offset="0"
         stop-color="#999a9c"
         id="stop164" />
      <stop
         offset="1"
         stop-color="#f4f5f5"
         id="stop166" />
    </linearGradient>
    <linearGradient
       id="a"
       y1="44"
       y2="4"
       x2="0"
       gradientUnits="userSpaceOnUse">
      <stop
         stop-color="#7cbaf8"
         id="stop152" />
      <stop
         offset="1"
         stop-color="#f4fcff"
         id="stop154" />
    </linearGradient>
    <linearGradient
       id="b-3"
       y1="39"
       y2="9"
       gradientUnits="userSpaceOnUse"
       x2="0"
       gradientTransform="matrix(1.02857,0,0,1.2,-5.314,-2013.52)">
      <stop
         stop-color="#197cf1"
         id="stop157" />
      <stop
         offset="1"
         stop-color="#20bcfa"
         id="stop159" />
    </linearGradient>
    <linearGradient
       xlink:href="#c-7"
       id="d-6"
       y1="18.26"
       x1="14.59"
       y2="40.439999"
       x2="36.060001"
       gradientUnits="userSpaceOnUse" />
    <linearGradient
       id="c-7"
       y1="13.01"
       x1="25.040001"
       y2="30.26"
       x2="42.990002"
       gradientUnits="userSpaceOnUse">
      <stop
         stop-color="#292c2f"
         id="stop162" />
      <stop
         offset="1"
         stop-color="#292c2f"
         stop-opacity="0"
         id="stop164-5" />
    </linearGradient>
    <linearGradient
       xlink:href="#e"
       id="g"
       y1="12.375"
       x1="13.938"
       y2="28.542"
       x2="28.495001"
       gradientUnits="userSpaceOnUse" />
    <linearGradient
       id="e"
       y1="24.827"
       x1="10.281"
       y2="7.355"
       x2="3.5739999"
       gradientUnits="userSpaceOnUse"
       gradientTransform="matrix(-0.96593,0.25882,-0.25882,-0.96593,53.39,40.971)">
      <stop
         stop-color="#cfd5d5"
         id="stop188" />
      <stop
         offset="1"
         stop-color="#6f8181"
         id="stop190" />
    </linearGradient>
    <linearGradient
       xlink:href="#c-36"
       id="j"
       x1="29.653999"
       x2="19.886999"
       gradientUnits="userSpaceOnUse" />
    <linearGradient
       id="c-36"
       y1="23"
       x1="24"
       y2="39"
       x2="40"
       gradientUnits="userSpaceOnUse">
      <stop
         stop-color="#292c2f"
         id="stop178" />
      <stop
         offset="1"
         stop-opacity="0"
         id="stop180" />
    </linearGradient>
    <linearGradient
       id="b-7"
       y1="32.721001"
       y2="12.32"
       x1="33.404999"
       gradientUnits="userSpaceOnUse"
       x2="17.759001"
       gradientTransform="matrix(1.2189347,0,0,1.2189347,1.5751082,0.35219532)">
      <stop
         stop-color="#197cf1"
         id="stop173" />
      <stop
         offset="1"
         stop-color="#20bcfa"
         id="stop175" />
    </linearGradient>
    <linearGradient
       id="a-5"
       y1="12.997"
       y2="32.130001"
       x1="17.427999"
       x2="36.550999"
       gradientUnits="userSpaceOnUse"
       gradientTransform="matrix(1.2189347,0,0,1.2189347,1.5751082,0.35219532)">
      <stop
         stop-color="#abf9c7"
         id="stop168" />
      <stop
         offset="1"
         stop-color="#54d883"
         id="stop170" />
    </linearGradient>
    <linearGradient
       xlink:href="#c-36"
       id="h"
       y1="30.990999"
       x1="28.476"
       y2="41"
       x2="39.591999"
       gradientUnits="userSpaceOnUse" />
    <linearGradient
       xlink:href="#c-36"
       id="i"
       y1="13"
       x1="28"
       y2="19"
       x2="33.402"
       gradientUnits="userSpaceOnUse" />
    <linearGradient
       xlink:href="#e"
       id="f"
       y1="20.947001"
       x1="36.16"
       y2="39.029999"
       x2="49.299999"
       gradientUnits="userSpaceOnUse" />
    <linearGradient
       id="d-3"
       y1="12.911"
       x1="32.776001"
       y2="6.0840001"
       x2="27.52"
       gradientUnits="userSpaceOnUse">
      <stop
         stop-color="#95a5a6"
         id="stop183" />
      <stop
         offset="1"
         stop-color="#eff0f1"
         id="stop185" />
    </linearGradient>
    <linearGradient
       inkscape:collect="always"
       xlink:href="#c-36"
       id="linearGradient549"
       gradientUnits="userSpaceOnUse"
       x1="24"
       y1="23"
       x2="40"
       y2="39" />
    <linearGradient
       inkscape:collect="always"
       xlink:href="#e"
       id="linearGradient551"
       gradientUnits="userSpaceOnUse"
       gradientTransform="matrix(-0.96593,0.25882,-0.25882,-0.96593,53.39,40.971)"
       x1="10.281"
       y1="24.827"
       x2="3.5739999"
       y2="7.355" />
  </defs>
  <path
     d="m 2.9999985,10.25 c 0,-4.0041748 3.245938,-7.25 7.2500005,-7.25 h 43.500003 c 4.004173,0 7.249999,3.2458252 7.249999,7.25 v 43.5 c 0,4.004173 -3.245827,7.25 -7.25,7.25 H 10.249999 C 6.2459365,61 2.9999985,57.754173 2.9999985,53.75 Z"
     id="path736"
     style="fill:#606c86;fill-opacity:1;stroke-width:3.625" />
  <path
     d="M 2.9999985,9.796875 C 2.9999985,6.0431877 6.2459365,3 10.249999,3 h 43.500003 c 4.004173,0 7.249999,3.0431877 7.249999,6.796875 v 40.781249 c 0,3.753693 -3.245827,6.796876 -7.25,6.796876 H 10.249999 c -4.0040625,0 -7.2500005,-3.043183 -7.2500005,-6.796876 z"
     id="path738"
     style="fill:#3b4252;fill-opacity:1;stroke-width:3.625" />
  <g
     color="#000000"
     id="g208"
     transform="matrix(1.2189348,0,0,1.2189348,1.5750972,0.35218632)">
    <circle
       fill="#6f8181"
       cx="29.393999"
       cy="16.971001"
       stroke-linejoin="round"
       r="14.381"
       stroke-linecap="round"
       stroke-width="3"
       transform="rotate(15)"
       id="circle200" />
    <path
       color-interpolation-filters="linearRGB"
       image-rendering="auto"
       color-rendering="auto"
       fill-rule="evenodd"
       d="M 24.04,8 C 23.478,7.998 22.917,8.025 22.358,8.082 L 22.202,9.1 c -1.49,0.152 -2.897,0.482 -4.205,0.967 L 17.351,9.2 c -1,0.449 -1.952,0.999 -2.84,1.643 l 0.345,0.8 c -1.259,0.82 -2.387,1.79 -3.33,2.9 l -1.289,-0.502 c -0.683,0.945 -1.268,1.957 -1.744,3.02 l 0.928,0.744 c -0.6,1.27 -1.027,2.623 -1.24,4.03 l -2.084,0.32 c -0.128,1.226 -0.13,2.463 -0.006,3.689 l 2.041,0.311 c 0.929,8.368 7.211,14.844 15.867,14.844 9.389,0 14,-7.611 14,-17 0,7.732 -6.268,14 -14,14 -7.732,0 -14,-6.268 -14,-14 0,-7.732 6.268,-14 14,-14 7.732,0 14,6.268 14,14 0,-6.538 -4.02,-13.942 -12.205,-14.893 L 25.638,8.085 C 25.107,8.03 24.574,8.001 24.04,7.999"
       color-interpolation="sRGB"
       text-rendering="auto"

       shape-rendering="auto"
       id="path202"
       style="fill:url(#g)" />
    <path
       opacity="0.4"

       stroke-linejoin="round"
       stroke-width="3"
       d="M 24.04,8 C 23.478,7.998 22.917,8.025 22.358,8.082 L 22.202,9.1 c -1.49,0.152 -2.897,0.482 -4.205,0.967 l -0.453,8.898 H 34.382 V 13.752 C 32.372,11.328 29.524,9.541 25.794,9.107 L 25.638,8.086 C 25.107,8.031 24.574,8.002 24.04,8"
       id="path204"
       style="fill:url(#j)" />
    <path
       opacity="0.2"
       color-interpolation-filters="linearRGB"
       image-rendering="auto"
       color-rendering="auto"
       fill-rule="evenodd"
       d="M 33.19,14.807 14.803,33.194 25.539,43.928 c 0.169,-0.013 0.338,-0.02 0.506,-0.037 l 0.475,-3.102 c 1.262,-0.189 2.499,-0.519 3.688,-0.984 l 1.957,2.441 c 1.25,-0.561 2.439,-1.25 3.549,-2.055 l -1.135,-2.91 c 1,-0.794 1.91,-1.698 2.709,-2.695 l 2.893,1.127 c 0.803,-1.111 1.491,-2.301 2.051,-3.553 L 39.81,30.219 c 0.237,-0.594 0.439,-1.201 0.607,-1.818 0.158,-0.618 0.283,-1.245 0.371,-1.877 l 3.092,-0.475 c 0.018,-0.17 0.028,-0.34 0.041,-0.51 z"
       color-interpolation="sRGB"
       text-rendering="auto"

       shape-rendering="auto"
       id="path206"
       style="fill:url(#linearGradient549)" />
  </g>
  <rect
     width="31.692297"
     x="14.983393"
     y="13.760461"

     rx="15.846148"
     height="31.692297"
     id="rect210"
     style="fill:url(#b-7);stroke-width:1.21899" />
  <path
     fill="url(#a)"
     fill-rule="evenodd"
     d="m 30.829526,13.760466 c -1.150678,0 -2.269651,0.126772 -3.348424,0.357149 l -1.405415,2.812077 -2.123386,-1.591921 c -3.807951,1.830838 -6.757772,5.128055 -8.124206,9.178577 l 3.116825,-1.246972 2.376917,1.584606 0.792309,-2.376915 10.299998,-5.546149 -0.627751,-3.138759 c -0.31693,-0.01824 -0.635065,-0.03046 -0.956867,-0.03046 m 11.734688,5.203626 -0.642385,1.92714 0.79231,0.79231 -3.169238,4.753841 1.584619,5.546155 5.254831,0.658224 c 0.188931,-0.982461 0.291326,-1.995395 0.291326,-3.035147 0,-2.713349 -0.678947,-5.260922 -1.871072,-7.490354 l -1.298157,-0.432719 0.471721,-0.945895 c -0.424184,-0.628972 -0.906881,-1.212842 -1.413955,-1.773555 m -27.266347,7.47329 c -0.174312,0.867884 -0.274269,1.76502 -0.302291,2.679221 l 5.533951,2.074626 -0.792304,-2.376922 -1.584613,-2.376925 z m 5.23166,4.753847 3.96154,9.507688 v 3.437416 c 1.940544,0.843505 4.080994,1.316448 6.338459,1.316448 0.157239,0 0.312049,-0.0063 0.469288,-0.01097 l 5.076867,-8.70441 -12.676922,-7.130767 z"
     id="path212"
     style="fill:url(#a-5);stroke-width:1.21899" />
  <path
     opacity="0.2"
     fill="#172525"
     d="m 15.01995,28.997148 c -0.0072,0.203562 -0.03045,0.403467 -0.03045,0.609467 0,8.778766 7.067383,15.84615 15.846153,15.84615 8.778759,0 15.846142,-7.067384 15.846142,-15.84615 0,-0.206 -0.02314,-0.405905 -0.03049,-0.609467 -0.32058,8.491097 -7.242904,15.23668 -15.815674,15.23668 -8.569108,0 -15.493873,-6.745583 -15.815665,-15.23668"
     id="path214"
     style="stroke-width:1.21899" />
  <g
     stroke-linejoin="round"
     color="#000000"
     stroke-width="3"
     id="g220"
     transform="matrix(1.2189348,0,0,1.2189348,1.5750972,0.35218632)">
    <path
       fill="url(#e)"
       d="m 39.13,13.11 -1.779,0.614 -1.348,3.279 1,3 0.68,1.037 c 0.473,2.176 0.419,4.434 -0.156,6.586 -0.858,3.199 -2.823,5.99 -5.545,7.877 l -2.385,1.401 0.615,2.901 1.959,2.441 c 1.251,-0.558 2.44,-1.242 3.551,-2.043 l -1.139,-2.922 c 0.999,-0.795 1.905,-1.7 2.701,-2.697 l 2.914,1.135 C 41,34.608 41.686,33.418 42.245,32.166 l -2.438,-1.953 c 0.471,-1.188 0.805,-2.426 0.998,-3.689 l 3.07,-0.471 c 0.14,-1.364 0.139,-2.738 -0.002,-4.102 L 40.805,21.48 c -0.092,-0.633 -0.22,-1.26 -0.383,-1.879 -0.172,-0.614 -0.377,-1.217 -0.617,-1.809 l 1.337,-1.34 c -0.558,-1.251 -2.01,-3.343 -2.01,-3.343"
       id="path216"
       style="fill:url(#linearGradient551)" />
    <path
       opacity="0.2"
       fill="#172525"
       d="m 43.967,23.51 c -0.008,0.514 -0.036,1.027 -0.084,1.539 l -3.092,0.475 c -0.088,0.632 -0.212,1.259 -0.371,1.877 -0.168,0.617 -0.371,1.224 -0.607,1.818 l 0.268,0.215 c 0.124,-0.341 0.238,-0.685 0.34,-1.033 0.159,-0.618 0.283,-1.245 0.371,-1.877 l 3.092,-0.475 c 0.082,-0.844 0.11,-1.692 0.084,-2.539 m -2.092,8.361 c -0.484,0.992 -1.05,1.943 -1.691,2.842 l -2.893,-1.127 c -0.799,0.997 -1.708,1.902 -2.709,2.695 l 0.291,0.744 c 0.886,-0.729 1.696,-1.547 2.418,-2.439 l 2.893,1.127 c 0.804,-1.111 1.491,-2.301 2.051,-3.553 z m -11.539,6.558 c -1.188,0.465 -1.314,1.841 -0.125,1.376 l 1.957,2.441 c 1.25,-0.561 2.439,-1.25 3.549,-2.055 l -0.311,-0.795 c -1.019,0.716 -2.104,1.335 -3.238,1.85 z"
       id="path218" />
  </g>
  <g
     fill-rule="evenodd"
     id="g226"
     transform="matrix(1.2189348,0,0,1.2189348,1.5750972,0.35218632)">
    <path
       opacity="0.2"

       d="M 37,20 36.773,20.34 37,21 c -0.091,0.091 -0.197,0.18 -0.293,0.27 a 13,13 0 0 1 -0.15039,6.095703 13,13 0 0 1 -7.410157,8.572266 l 0.447,0.963 0.615,2.902 1.959,2.441 c 1.251,-0.558 2.44,-1.242 3.551,-2.043 l -1.139,-2.922 c 0.999,-0.795 1.905,-1.7 2.701,-2.697 l 2.914,1.135 c 0.802,-1.111 1.488,-2.301 2.047,-3.553 l -2.438,-1.953 c 0.471,-1.188 0.805,-2.426 0.998,-3.689 l 0.842,-0.129 z"
       id="path222"
       style="fill:url(#h)" />
    <path
       opacity="0.4"

       d="m 26,13 7,7 6,-4 -4,-4 -4.563,-0.5 z"
       id="path224"
       style="fill:url(#i)" />
  </g>
  <g
     stroke-linejoin="round"
     color="#000000"
     stroke-width="3"
     id="g232"
     transform="matrix(1.2189348,0,0,1.2189348,1.5750972,0.35218632)">
    <path

       d="M 37.746,14.12 C 36.857,13.142 35.396,11.959 33,11.001 l -2,2 c 0,0 3.189,2.866 0.242,5.795 L 25,25.001 5.68,32.269 c 0,0 1.318,2.341 2.119,3.451 l 2.922,-1.139 c 0.795,0.999 1.7,1.905 2.697,2.701 l -1.135,2.914 c 1.111,0.802 2.301,1.488 3.553,2.047 l 1.953,-2.438 c 1.188,0.471 2.426,0.805 3.689,0.998 l 0.471,3.07 c 1.364,0.14 2.738,0.139 4.102,-0.002 l 0.471,-3.068 c 0.633,-0.092 1.26,-0.22 1.879,-0.383 0.614,-0.172 1.217,-0.377 1.809,-0.617 0,0 4.354,-9.443 5.885,-13.514 C 36.86,24.253 37.001,20 37.001,20 c 0,0 1.028,-5.075 0.746,-5.881"
       id="path228"
       style="fill:url(#f)" />
    <path
       opacity="0.2"
       fill="#172525"
       d="m 29.412,39.19 c -0.961,0.266 -2.01,0.47 -2.889,0.602 l -0.475,3.102 c -1.363,0.138 -2.736,0.135 -4.098,-0.008 L 21.475,39.794 C 20.843,39.706 20.216,39.582 19.598,39.423 18.981,39.255 18.374,39.052 17.78,38.816 l -1.941,2.422 C 14.703,40.725 13.618,40.106 12.597,39.39 l -0.311,0.797 c 1.111,0.804 2.301,1.491 3.553,2.051 l 1.941,-2.422 c 0.594,0.237 1.201,0.439 1.818,0.607 0.618,0.159 1.245,0.283 1.877,0.371 l 0.475,3.092 c 1.362,0.143 2.735,0.146 4.098,0.008 l 0.475,-3.102 c 1.262,-0.189 2.499,-0.519 3.688,-0.984 l 0.053,-0.133 z m -23.1,-7.148 -0.633,0.229 c 0.733,1.328 1.32,2.23 2.129,3.449 l 2.91,-1.135 c 0.715,0.901 1.519,1.728 2.4,2.467 l 0.295,-0.758 C 12.416,35.495 11.511,34.586 10.718,33.585 L 7.808,34.72 C 7.167,33.822 6.796,33.034 6.312,32.042"
       id="path230" />
  </g>
  <g
     fill-rule="evenodd"
     id="g242"
     transform="matrix(1.2189348,0,0,1.2189348,1.5750972,0.35218632)">
    <path
       fill="#cfd5d5"
       d="m 32.776,12.911 c 0,0 -1.323,-0.889 -2.197,-1.016 C 30.001,11 29.001,12 29.001,12 h -3 v 1 c 0,0 2.125,0.998 3,1 0.875,0.002 1.814,0.885 1.814,0.885 z"
       id="path234" />
    <path
       fill="#536161"
       d="m 32,8 5,3 -1,1 h -4 l -0.369,-1.635 z"
       id="path236" />
    <path

       d="m 33,13 c 0,0 -2.457,0.085 -3,-1 L 29,10 26,8 c 0,0 0,-1 3,-1 v 1 c 0,0 2,-1 4,0 0,0 -0.776,1.38 -0.323,2.684 C 33,11.612 33,12 33,12 Z"
       id="path238"
       style="fill:url(#d-3)" />
    <path
       fill="#e05e4c"
       d="m 30,9 h 1 l 1,2 -2,-1 z"
       id="path240" />
  </g>
</svg>
