<?xml version="1.0" encoding="UTF-8" standalone="no"?>
<svg
   width="64"
   height="64"
   viewBox="0 0 64 64"
   version="1.1"
   id="svg52"
   sodipodi:docname="skrooge.svg"
   inkscape:version="1.2.1 (9c6d41e410, 2022-07-14)"
   xmlns:inkscape="http://www.inkscape.org/namespaces/inkscape"
   xmlns:sodipodi="http://sodipodi.sourceforge.net/DTD/sodipodi-0.dtd"
   xmlns:xlink="http://www.w3.org/1999/xlink"
   xmlns="http://www.w3.org/2000/svg"
   xmlns:svg="http://www.w3.org/2000/svg">
  <sodipodi:namedview
     id="namedview54"
     pagecolor="#a4a4a4"
     bordercolor="#eeeeee"
     borderopacity="1"
     inkscape:pageshadow="0"
     inkscape:pageopacity="0"
     inkscape:pagecheckerboard="0"
     showgrid="false"
     inkscape:zoom="5.2604167"
     inkscape:cx="36.40396"
     inkscape:cy="10.930693"
     inkscape:window-width="1920"
     inkscape:window-height="1002"
     inkscape:window-x="0"
     inkscape:window-y="0"
     inkscape:window-maximized="1"
     inkscape:current-layer="svg52"
     inkscape:showpageshadow="2"
     inkscape:deskcolor="#c9c9c9" />
  <defs
     id="defs32">
    <linearGradient
       xlink:href="#linearGradient4393"
       id="linearGradient4399"
       x1="424.44101"
       y1="502.85001"
       x2="440.87799"
       y2="529.57599"
       gradientUnits="userSpaceOnUse"
       gradientTransform="matrix(0.69224711,0,0,0.69224711,-215.22899,-357.13539)" />
    <linearGradient
       id="linearGradient4393">
      <stop
         style="stop-color:#000000;stop-opacity:1;"
         offset="0"
         id="stop3" />
      <stop
         style="stop-color:#000000;stop-opacity:0;"
         offset="1"
         id="stop5" />
    </linearGradient>
    <linearGradient
       xlink:href="#linearGradient4274"
       id="linearGradient4217"
       gradientUnits="userSpaceOnUse"
       gradientTransform="matrix(0.69224711,0,0,0.69224711,-199.3073,1639.8968)"
       x1="390.57101"
       y1="498.298"
       x2="442.57101"
       y2="498.298" />
    <linearGradient
       id="linearGradient4274">
      <stop
         offset="0"
         style="stop-color:#ffffff;stop-opacity:1;"
         id="stop9" />
      <stop
         offset="1"
         style="stop-color:#ffffff;stop-opacity:0.48760331"
         id="stop11" />
    </linearGradient>
    <linearGradient
       xlink:href="#linearGradient4227"
       id="linearGradient4225"
       gradientUnits="userSpaceOnUse"
       x1="396.57101"
       y1="498.798"
       x2="426.57101"
       y2="511.798"
       gradientTransform="matrix(0.69224711,0,0,0.69224711,-199.3073,-360.21214)" />
    <linearGradient
       id="linearGradient4227">
      <stop
         offset="0"
         style="stop-color:#f5f5f5;stop-opacity:1"
         id="stop21" />
      <stop
         offset="1"
         style="stop-color:#f9f9f9;stop-opacity:1"
         id="stop23" />
    </linearGradient>
    <style
       id="current-color-scheme"
       type="text/css">      .ColorScheme-Highlight {
        color:#3593e6;
      }
</style>
    <linearGradient
       id="d"
       gradientUnits="userSpaceOnUse"
       x1="4"
       x2="18.999998"
       xlink:href="#c"
       y1="5"
       y2="20"
       gradientTransform="matrix(2.7999616,0,0,2.7999616,1.095156,-2.3992319)" />
    <linearGradient
       id="c">
      <stop
         offset="0"
         stop-color="#292c2f"
         id="stop265" />
      <stop
         offset="1"
         stop-opacity="0"
         id="stop267" />
    </linearGradient>
    <linearGradient
       id="b"
       gradientUnits="userSpaceOnUse"
       x1="13.280776"
       x2="28.280775"
       xlink:href="#c"
       y1="5.088388"
       y2="20.088388"
       gradientTransform="matrix(2.7999616,0,0,2.7999616,1.095156,-2.3992319)" />
    <linearGradient
       id="c-3"
       gradientUnits="userSpaceOnUse"
       x1="5"
       x2="5"
       y1="20"
       y2="7"
       gradientTransform="matrix(3.4390082,0,0,3.4390082,-5.8290972,-4.015561)">
      <stop
         offset="0"
         stop-color="#999a9c"
         id="stop164" />
      <stop
         offset="1"
         stop-color="#f4f5f5"
         id="stop166" />
    </linearGradient>
    <linearGradient
       id="a"
       y1="44"
       y2="4"
       x2="0"
       gradientUnits="userSpaceOnUse">
      <stop
         stop-color="#7cbaf8"
         id="stop152" />
      <stop
         offset="1"
         stop-color="#f4fcff"
         id="stop154" />
    </linearGradient>
    <linearGradient
       id="b-3"
       y1="39"
       y2="9"
       gradientUnits="userSpaceOnUse"
       x2="0"
       gradientTransform="matrix(1.02857,0,0,1.2,-5.314,-2013.52)">
      <stop
         stop-color="#197cf1"
         id="stop157" />
      <stop
         offset="1"
         stop-color="#20bcfa"
         id="stop159" />
    </linearGradient>
    <linearGradient
       xlink:href="#c-7"
       id="d-6"
       y1="18.26"
       x1="14.59"
       y2="40.439999"
       x2="36.060001"
       gradientUnits="userSpaceOnUse" />
    <linearGradient
       id="c-7"
       y1="13.01"
       x1="25.040001"
       y2="30.26"
       x2="42.990002"
       gradientUnits="userSpaceOnUse">
      <stop
         stop-color="#292c2f"
         id="stop162" />
      <stop
         offset="1"
         stop-color="#292c2f"
         stop-opacity="0"
         id="stop164-5" />
    </linearGradient>
    <linearGradient
       id="a-3"
       y1="61.200001"
       x1="-162.28999"
       y2="505.06"
       gradientUnits="userSpaceOnUse"
       x2="737.63"
       gradientTransform="matrix(0.07988963,0.02495102,-0.02223702,0.07119775,13.078816,2.4457071)">
      <stop
         stop-color="#fafafa"
         id="stop272" />
      <stop
         offset="1"
         stop-color="#939393"
         id="stop274" />
    </linearGradient>
    <linearGradient
       id="b-6"
       y1="41"
       x1="41"
       y2="18.25"
       x2="21.129999"
       gradientUnits="userSpaceOnUse"
       gradientTransform="matrix(1.2224895,0,0,1.2224895,2.7878998,4.0691761)">
      <stop
         stop-color="#502ae3"
         id="stop277" />
      <stop
         offset="1"
         stop-color="#4db4f6"
         id="stop279" />
    </linearGradient>
    <linearGradient
       spreadMethod="reflect"
       id="a-36"
       x1="428.57001"
       x2="408.57001"
       gradientUnits="userSpaceOnUse"
       gradientTransform="matrix(1.1250004,0,0,1.1250004,-427.64144,-557.27525)">
      <stop
         stop-color="#2f3943"
         id="stop172" />
      <stop
         offset="1"
         stop-color="#808c9b"
         id="stop174" />
    </linearGradient>
    <linearGradient
       id="b-7"
       y1="-511.20001"
       x1="-395.07001"
       y2="-535.79999"
       x2="-419.67001"
       gradientUnits="userSpaceOnUse"
       gradientTransform="matrix(1.1250004,0,0,1.1250004,427.64142,557.27525)">
      <stop
         stop-color="#18222a"
         id="stop177" />
      <stop
         offset="1"
         stop-color="#566069"
         id="stop179" />
    </linearGradient>
    <linearGradient
       id="c-5"
       y1="-514"
       x1="-398.07001"
       y2="-533.13"
       x2="-417.20001"
       gradientUnits="userSpaceOnUse">
      <stop
         stop-color="#b97c1b"
         id="stop182" />
      <stop
         offset="1"
         stop-color="#dc8f16"
         id="stop184" />
    </linearGradient>
    <linearGradient
       xlink:href="#c-5"
       id="g"
       y1="-516.79999"
       x1="-401.07001"
       y2="-541.29999"
       x2="-425.57001"
       gradientUnits="userSpaceOnUse"
       gradientTransform="matrix(1.1250004,0,0,1.1250004,427.64142,557.27525)" />
    <linearGradient
       id="d-3"
       y1="536.87"
       x1="421.64001"
       y2="511.82001"
       gradientUnits="userSpaceOnUse"
       x2="396.59"
       gradientTransform="rotate(180,408.57,523.8)">
      <stop
         stop-color="#f39c12"
         id="stop187" />
      <stop
         offset="1"
         stop-color="#f5ab35"
         id="stop189" />
    </linearGradient>
    <linearGradient
       xlink:href="#d-3"
       id="e"
       y1="532.22998"
       x1="417"
       y2="508.73001"
       gradientUnits="userSpaceOnUse"
       x2="393.5"
       gradientTransform="matrix(-1.1250004,0,0,-1.1250004,491.64142,621.27527)" />
    <linearGradient
       xlink:href="#d-3"
       id="f"
       y1="529.62"
       x1="414.39999"
       y2="506.91"
       gradientUnits="userSpaceOnUse"
       x2="391.69"
       gradientTransform="matrix(-1.1250004,0,0,-1.1250004,491.64142,621.27527)" />
    <linearGradient
       id="b-67"
       y1="42"
       x1="42"
       y2="6"
       x2="6"
       gradientUnits="userSpaceOnUse"
       gradientTransform="matrix(1.0714267,0,0,1.0714267,5.985306,6.0733032)">
      <stop
         stop-color="#989a9b"
         id="stop2404" />
      <stop
         offset="1"
         stop-color="#f6f6f7"
         id="stop2406" />
    </linearGradient>
    <linearGradient
       id="a-5"
       y1="542.79999"
       y2="503.79999"
       x2="0"
       gradientUnits="userSpaceOnUse">
      <stop
         stop-color="#2a2c2f"
         id="stop2399" />
      <stop
         offset="1"
         stop-color="#424649"
         id="stop2401" />
    </linearGradient>
    <linearGradient
       xlink:href="#a-5"
       id="f-3"
       x1="391.57001"
       x2="461.20001"
       gradientUnits="userSpaceOnUse"
       gradientTransform="matrix(1.0714268,0,0,1.0714268,-392.86616,-561.15098)" />
    <linearGradient
       id="linearGradient2623"
       y1="542.79999"
       y2="503.79999"
       x2="0"
       gradientUnits="userSpaceOnUse">
      <stop
         stop-color="#2a2c2f"
         id="stop2619" />
      <stop
         offset="1"
         stop-color="#424649"
         id="stop2621" />
    </linearGradient>
    <linearGradient
       id="c-56"
       y1="523.79999"
       y2="549.79999"
       x2="0"
       gradientUnits="userSpaceOnUse"
       gradientTransform="matrix(0.70711,-0.70711,0.70711,0.70711,-635.28,-57.48)">
      <stop
         id="stop2409" />
      <stop
         offset="1"
         stop-opacity="0"
         id="stop2411" />
    </linearGradient>
    <linearGradient
       xlink:href="#a-5"
       id="e-2"
       y1="543.79999"
       x1="428.57001"
       y2="503.79999"
       x2="388.57001"
       gradientUnits="userSpaceOnUse"
       gradientTransform="matrix(1.0714267,0,0,1.0714267,-406.05328,-529.42577)" />
    <linearGradient
       id="linearGradient2634"
       y1="542.79999"
       y2="503.79999"
       x2="0"
       gradientUnits="userSpaceOnUse">
      <stop
         stop-color="#2a2c2f"
         id="stop2630" />
      <stop
         offset="1"
         stop-color="#424649"
         id="stop2632" />
    </linearGradient>
    <linearGradient
       xlink:href="#c-56"
       id="d-9"
       y1="520.94"
       x1="410.88"
       y2="532.63"
       x2="422.57001"
       gradientUnits="userSpaceOnUse"
       gradientTransform="matrix(1.0714267,0,0,1.0714267,-406.05328,-529.42577)" />
    <linearGradient
       id="linearGradient2641"
       y1="523.79999"
       y2="549.79999"
       x2="0"
       gradientUnits="userSpaceOnUse"
       gradientTransform="matrix(0.70711,-0.70711,0.70711,0.70711,-635.28,-57.48)">
      <stop
         id="stop2637" />
      <stop
         offset="1"
         stop-opacity="0"
         id="stop2639" />
    </linearGradient>
    <linearGradient
       id="b-36"
       y1="55.41"
       x1="41.528"
       y2="25.511"
       x2="24.264999"
       gradientUnits="userSpaceOnUse"
       gradientTransform="matrix(1.1476153,0,0,1.1476153,4.2035556,4.7445357)">
      <stop
         stop-color="#f7bb5d"
         id="stop217" />
      <stop
         offset="1"
         stop-color="#fce3bc"
         id="stop219" />
    </linearGradient>
    <linearGradient
       inkscape:collect="always"
       xlink:href="#a-7"
       id="linearGradient483"
       gradientUnits="userSpaceOnUse"
       y1="542.79999"
       x2="0"
       y2="503.79999"
       gradientTransform="matrix(1.1476153,0,0,1.1476153,-437.13484,-568.83357)" />
    <linearGradient
       id="a-7"
       y1="542.79999"
       y2="503.79999"
       x2="0"
       gradientUnits="userSpaceOnUse">
      <stop
         stop-color="#f39c12"
         id="stop212" />
      <stop
         offset="1"
         stop-color="#f5ab35"
         id="stop214" />
    </linearGradient>
    <linearGradient
       xlink:href="#a-7"
       id="f-5"
       x1="391.57001"
       x2="461.20001"
       gradientUnits="userSpaceOnUse"
       gradientTransform="matrix(1.1476155,0,0,1.1476155,-423.60847,-600.73822)" />
    <linearGradient
       id="linearGradient544"
       y1="542.79999"
       y2="503.79999"
       x2="0"
       gradientUnits="userSpaceOnUse">
      <stop
         stop-color="#f39c12"
         id="stop540" />
      <stop
         offset="1"
         stop-color="#f5ab35"
         id="stop542" />
    </linearGradient>
    <linearGradient
       inkscape:collect="always"
       xlink:href="#c-35"
       id="linearGradient485"
       gradientUnits="userSpaceOnUse"
       gradientTransform="matrix(0.81149023,-0.81149023,0.81149023,0.81149023,-724.85345,-61.22039)"
       y1="523.79999"
       x2="0"
       y2="549.79999" />
    <linearGradient
       id="c-35"
       y1="523.79999"
       y2="549.79999"
       x2="0"
       gradientUnits="userSpaceOnUse"
       gradientTransform="matrix(0.70711,-0.70711,0.70711,0.70711,-635.28,-57.48)">
      <stop
         id="stop222" />
      <stop
         offset="1"
         stop-opacity="0"
         id="stop224" />
    </linearGradient>
    <linearGradient
       id="e-6"
       y1="543.79999"
       x1="428.57001"
       y2="503.79999"
       x2="388.57001"
       gradientUnits="userSpaceOnUse"
       gradientTransform="matrix(1.1476153,0,0,1.1476153,-437.13484,-568.83357)">
      <stop
         stop-color="#f39c12"
         id="stop228" />
      <stop
         offset="1"
         stop-color="#ffc35a"
         id="stop230" />
    </linearGradient>
    <linearGradient
       xlink:href="#c-35"
       id="d-2"
       y1="520.94"
       x1="410.88"
       y2="532.63"
       x2="422.57001"
       gradientUnits="userSpaceOnUse"
       gradientTransform="matrix(1.1476153,0,0,1.1476153,-437.13484,-568.83357)" />
    <linearGradient
       id="linearGradient558"
       y1="523.79999"
       y2="549.79999"
       x2="0"
       gradientUnits="userSpaceOnUse"
       gradientTransform="matrix(0.70711,-0.70711,0.70711,0.70711,-635.28,-57.48)">
      <stop
         id="stop554" />
      <stop
         offset="1"
         stop-opacity="0"
         id="stop556" />
    </linearGradient>
  </defs>
  <path
     d="m 2.9999985,10.25 c 0,-4.0041748 3.245938,-7.25 7.2500005,-7.25 h 43.500003 c 4.004173,0 7.249999,3.2458252 7.249999,7.25 v 43.5 c 0,4.004173 -3.245827,7.25 -7.25,7.25 H 10.249999 C 6.2459365,61 2.9999985,57.754173 2.9999985,53.75 Z"
     id="path736"
     style="fill:#606c86;fill-opacity:1;stroke-width:3.625" />
  <path
     d="M 2.9999985,9.796875 C 2.9999985,6.0431877 6.2459365,3 10.249999,3 h 43.500003 c 4.004173,0 7.249999,3.0431877 7.249999,6.796875 v 40.781249 c 0,3.753693 -3.245827,6.796876 -7.25,6.796876 H 10.249999 c -4.0040625,0 -7.2500005,-3.043183 -7.2500005,-6.796876 z"
     id="path738"
     style="fill:#3b4252;fill-opacity:1;stroke-width:3.625" />
  <circle

     cx="31.746296"
     cy="32.287296"
     r="22.952295"
     id="circle236"
     style="fill:url(#linearGradient483);stroke-width:0.573805;stroke-linejoin:round" />
  <path
     fill="#b97d1b"
     d="M 54.673938,31.619354 A 22.95232,22.95232 0 0 1 31.746327,54.091996 22.95232,22.95232 0 0 1 8.8186636,31.807635 a 22.95232,22.95232 0 0 0 -0.024647,0.479667 22.95232,22.95232 0 0 0 22.9523114,22.95231 22.95232,22.95232 0 0 0 22.95231,-22.95231 22.95232,22.95232 0 0 0 -0.0248,-0.667948"
     id="path238"
     style="stroke-width:0.573805;stroke-linejoin:round" />
  <path
     opacity="0.2"

     d="m 46.354308,17.679314 -29.214825,29.214836 7.031433,7.031438 a 22.95232,22.95232 0 0 0 7.576049,1.313481 22.95232,22.95232 0 0 0 22.952303,-22.952305 22.95232,22.95232 0 0 0 -1.31349,-7.576051 z"
     id="path242"
     style="fill:url(#linearGradient485);stroke-width:2.29524;stroke-linejoin:bevel" />
  <circle

     cx="45.272709"
     cy="0.38261768"
     r="19.509462"
     stroke-linecap="round"
     transform="rotate(45)"
     id="circle244"
     style="fill:url(#f-5);stroke-width:2.29524;stroke-linejoin:bevel" />
  <path
     opacity="0.2"

     d="m 34.110418,19.421387 -0.35232,1.930286 2.18048,3.727463 4.91293,0.646104 1.65022,2.869036 -4.69831,9.10977 -5.451157,7.064719 -2.620006,-1.413861 -0.284605,1.557314 12.623838,12.623768 14.41742,-18.33545 -14.34512,-14.345192 -2.2953,0.30527 z"
     id="path248"
     style="fill:url(#d-2);fill-rule:evenodd;stroke-width:1.14756" />
  <path

     d="m 30.633133,44.268406 -8.750571,-12.692626 -0.465929,-6.024984 6.132862,-0.717256 4.303554,-5.77251 4.806189,6.490916 5.55904,0.752837 -2.61766,9.073047 -6.993583,8.858442 z"
     id="path250"
     style="fill:url(#e-6);fill-rule:evenodd;stroke-width:1.14756" />
  <path

     stroke-linejoin="round"
     stroke-width="0.573805"
     d="M 31.746327,11.630227 A 20.65704,20.65704 0 0 0 11.089248,32.287302 20.65704,20.65704 0 0 0 31.746327,52.944375 20.65704,20.65704 0 0 0 52.403388,32.287302 20.65704,20.65704 0 0 0 31.746327,11.630227 m 0,2.295232 a 18.361832,18.361832 0 0 1 18.023381,14.918997 h -4.25192 c -0.63584,0 -1.14768,0.511836 -1.14768,1.147616 0,0.635779 0.51184,1.147615 1.14768,1.147615 h 4.5479 a 18.361832,18.361832 0 0 1 0.043,1.147615 18.361832,18.361832 0 0 1 -0.0585,1.147614 h -4.53212 c -0.63584,0 -1.14762,0.511838 -1.14762,1.147616 0,0.63578 0.51178,1.147616 1.14762,1.147616 h 4.25646 A 18.361832,18.361832 0 0 1 31.746327,50.649145 18.361832,18.361832 0 0 1 13.722938,35.730148 h 4.251997 c 0.635784,0 1.147616,-0.511836 1.147616,-1.147616 0,-0.635778 -0.511832,-1.147616 -1.147616,-1.147616 h -4.544553 a 18.361832,18.361832 0 0 1 -0.04585,-1.147614 18.361832,18.361832 0 0 1 0.05822,-1.147615 h 4.532183 c 0.635778,0 1.14761,-0.511836 1.14761,-1.147615 0,-0.63578 -0.511832,-1.147616 -1.14761,-1.147616 H 13.718424 A 18.361832,18.361832 0 0 1 31.746323,13.925459 m 0,4.590461 c -0.76546,0 -1.481575,0.215752 -2.031285,0.616267 -0.539378,0.400522 -0.885956,0.930716 -1.147611,1.452886 -0.521015,1.043174 -0.784971,2.144888 -1.285333,3.155939 -0.189358,0.368386 -0.24903,0.363785 -0.372976,0.400516 -0.12394,0.03793 -0.425771,0.04595 -0.877927,-0.01948 -0.918091,-0.130838 -2.420314,-0.525616 -3.978784,0.258208 -0.882509,0.436092 -1.462059,1.270407 -1.701907,2.148336 -0.247888,0.877924 -0.227229,1.81782 -0.06884,2.790998 0.328222,1.946356 1.250902,4.055673 2.478852,5.89989 1.101708,1.647976 2.54082,4.240439 4.014361,6.455337 0.736761,1.10171 1.478125,2.111611 2.248167,2.906909 0.770058,0.790707 1.575678,1.476981 2.723299,1.476981 1.147615,0 1.950939,-0.686274 2.720979,-1.476981 0.76775,-0.795298 1.51369,-1.805199 2.2505,-2.906909 1.47356,-2.214898 2.91838,-4.807361 4.01667,-6.455337 1.22911,-1.844217 2.14827,-3.953534 2.47187,-5.89989 0.16533,-0.973178 0.17675,-1.913074 -0.062,-2.790998 -0.24444,-0.877929 -0.8171,-1.712244 -1.70418,-2.148336 -1.55737,-0.783824 -3.06304,-0.389046 -3.9765,-0.258208 -0.45563,0.06544 -0.75859,0.05744 -0.88604,0.01948 -0.11469,-0.03674 -0.17205,-0.03216 -0.36147,-0.400516 -0.50607,-1.011051 -0.77458,-2.112765 -1.29103,-3.155939 -0.26165,-0.52217 -0.60824,-1.052364 -1.15449,-1.452886 -0.543965,-0.400515 -1.25893,-0.616267 -2.024388,-0.616267 m 0,11.476152 c 0.635778,0 1.147616,0.511836 1.147616,1.147615 v 6.885692 c 0,0.635778 -0.511838,1.147615 -1.147616,1.147615 -0.635778,0 -1.147616,-0.511837 -1.147616,-1.147615 v -6.885692 c 0,-0.635779 0.511838,-1.147615 1.147616,-1.147615"
     id="path254"
     style="fill:url(#b-36)" />
</svg>
