<?xml version="1.0" encoding="UTF-8" standalone="no"?>
<svg
   width="64"
   height="64"
   viewBox="0 0 64 64"
   version="1.1"
   id="svg52"
   sodipodi:docname="skrooge-black.svg"
   inkscape:version="1.2.1 (9c6d41e410, 2022-07-14)"
   xmlns:inkscape="http://www.inkscape.org/namespaces/inkscape"
   xmlns:sodipodi="http://sodipodi.sourceforge.net/DTD/sodipodi-0.dtd"
   xmlns:xlink="http://www.w3.org/1999/xlink"
   xmlns="http://www.w3.org/2000/svg"
   xmlns:svg="http://www.w3.org/2000/svg">
  <sodipodi:namedview
     id="namedview54"
     pagecolor="#a4a4a4"
     bordercolor="#eeeeee"
     borderopacity="1"
     inkscape:pageshadow="0"
     inkscape:pageopacity="0"
     inkscape:pagecheckerboard="0"
     showgrid="false"
     inkscape:zoom="5.2604167"
     inkscape:cx="36.40396"
     inkscape:cy="10.930693"
     inkscape:window-width="1920"
     inkscape:window-height="1002"
     inkscape:window-x="0"
     inkscape:window-y="0"
     inkscape:window-maximized="1"
     inkscape:current-layer="svg52"
     inkscape:showpageshadow="2"
     inkscape:deskcolor="#c9c9c9" />
  <defs
     id="defs32">
    <linearGradient
       xlink:href="#linearGradient4393"
       id="linearGradient4399"
       x1="424.44101"
       y1="502.85001"
       x2="440.87799"
       y2="529.57599"
       gradientUnits="userSpaceOnUse"
       gradientTransform="matrix(0.69224711,0,0,0.69224711,-215.22899,-357.13539)" />
    <linearGradient
       id="linearGradient4393">
      <stop
         style="stop-color:#000000;stop-opacity:1;"
         offset="0"
         id="stop3" />
      <stop
         style="stop-color:#000000;stop-opacity:0;"
         offset="1"
         id="stop5" />
    </linearGradient>
    <linearGradient
       xlink:href="#linearGradient4274"
       id="linearGradient4217"
       gradientUnits="userSpaceOnUse"
       gradientTransform="matrix(0.69224711,0,0,0.69224711,-199.3073,1639.8968)"
       x1="390.57101"
       y1="498.298"
       x2="442.57101"
       y2="498.298" />
    <linearGradient
       id="linearGradient4274">
      <stop
         offset="0"
         style="stop-color:#ffffff;stop-opacity:1;"
         id="stop9" />
      <stop
         offset="1"
         style="stop-color:#ffffff;stop-opacity:0.48760331"
         id="stop11" />
    </linearGradient>
    <linearGradient
       xlink:href="#linearGradient4227"
       id="linearGradient4225"
       gradientUnits="userSpaceOnUse"
       x1="396.57101"
       y1="498.798"
       x2="426.57101"
       y2="511.798"
       gradientTransform="matrix(0.69224711,0,0,0.69224711,-199.3073,-360.21214)" />
    <linearGradient
       id="linearGradient4227">
      <stop
         offset="0"
         style="stop-color:#f5f5f5;stop-opacity:1"
         id="stop21" />
      <stop
         offset="1"
         style="stop-color:#f9f9f9;stop-opacity:1"
         id="stop23" />
    </linearGradient>
    <style
       id="current-color-scheme"
       type="text/css">      .ColorScheme-Highlight {
        color:#3593e6;
      }
</style>
    <linearGradient
       id="d"
       gradientUnits="userSpaceOnUse"
       x1="4"
       x2="18.999998"
       xlink:href="#c"
       y1="5"
       y2="20"
       gradientTransform="matrix(2.7999616,0,0,2.7999616,1.095156,-2.3992319)" />
    <linearGradient
       id="c">
      <stop
         offset="0"
         stop-color="#292c2f"
         id="stop265" />
      <stop
         offset="1"
         stop-opacity="0"
         id="stop267" />
    </linearGradient>
    <linearGradient
       id="b"
       gradientUnits="userSpaceOnUse"
       x1="13.280776"
       x2="28.280775"
       xlink:href="#c"
       y1="5.088388"
       y2="20.088388"
       gradientTransform="matrix(2.7999616,0,0,2.7999616,1.095156,-2.3992319)" />
    <linearGradient
       id="c-3"
       gradientUnits="userSpaceOnUse"
       x1="5"
       x2="5"
       y1="20"
       y2="7"
       gradientTransform="matrix(3.4390082,0,0,3.4390082,-5.8290972,-4.015561)">
      <stop
         offset="0"
         stop-color="#999a9c"
         id="stop164" />
      <stop
         offset="1"
         stop-color="#f4f5f5"
         id="stop166" />
    </linearGradient>
    <linearGradient
       id="a"
       y1="44"
       y2="4"
       x2="0"
       gradientUnits="userSpaceOnUse">
      <stop
         stop-color="#7cbaf8"
         id="stop152" />
      <stop
         offset="1"
         stop-color="#f4fcff"
         id="stop154" />
    </linearGradient>
    <linearGradient
       id="b-3"
       y1="39"
       y2="9"
       gradientUnits="userSpaceOnUse"
       x2="0"
       gradientTransform="matrix(1.02857,0,0,1.2,-5.314,-2013.52)">
      <stop
         stop-color="#197cf1"
         id="stop157" />
      <stop
         offset="1"
         stop-color="#20bcfa"
         id="stop159" />
    </linearGradient>
    <linearGradient
       xlink:href="#c-7"
       id="d-6"
       y1="18.26"
       x1="14.59"
       y2="40.439999"
       x2="36.060001"
       gradientUnits="userSpaceOnUse" />
    <linearGradient
       id="c-7"
       y1="13.01"
       x1="25.040001"
       y2="30.26"
       x2="42.990002"
       gradientUnits="userSpaceOnUse">
      <stop
         stop-color="#292c2f"
         id="stop162" />
      <stop
         offset="1"
         stop-color="#292c2f"
         stop-opacity="0"
         id="stop164-5" />
    </linearGradient>
    <linearGradient
       id="a-3"
       y1="61.200001"
       x1="-162.28999"
       y2="505.06"
       gradientUnits="userSpaceOnUse"
       x2="737.63"
       gradientTransform="matrix(0.07988963,0.02495102,-0.02223702,0.07119775,13.078816,2.4457071)">
      <stop
         stop-color="#fafafa"
         id="stop272" />
      <stop
         offset="1"
         stop-color="#939393"
         id="stop274" />
    </linearGradient>
    <linearGradient
       id="b-6"
       y1="41"
       x1="41"
       y2="18.25"
       x2="21.129999"
       gradientUnits="userSpaceOnUse"
       gradientTransform="matrix(1.2224895,0,0,1.2224895,2.7878998,4.0691761)">
      <stop
         stop-color="#502ae3"
         id="stop277" />
      <stop
         offset="1"
         stop-color="#4db4f6"
         id="stop279" />
    </linearGradient>
    <linearGradient
       spreadMethod="reflect"
       id="a-36"
       x1="428.57001"
       x2="408.57001"
       gradientUnits="userSpaceOnUse"
       gradientTransform="matrix(1.1250004,0,0,1.1250004,-427.64144,-557.27525)">
      <stop
         stop-color="#2f3943"
         id="stop172" />
      <stop
         offset="1"
         stop-color="#808c9b"
         id="stop174" />
    </linearGradient>
    <linearGradient
       id="b-7"
       y1="-511.20001"
       x1="-395.07001"
       y2="-535.79999"
       x2="-419.67001"
       gradientUnits="userSpaceOnUse"
       gradientTransform="matrix(1.1250004,0,0,1.1250004,427.64142,557.27525)">
      <stop
         stop-color="#18222a"
         id="stop177" />
      <stop
         offset="1"
         stop-color="#566069"
         id="stop179" />
    </linearGradient>
    <linearGradient
       id="c-5"
       y1="-514"
       x1="-398.07001"
       y2="-533.13"
       x2="-417.20001"
       gradientUnits="userSpaceOnUse">
      <stop
         stop-color="#b97c1b"
         id="stop182" />
      <stop
         offset="1"
         stop-color="#dc8f16"
         id="stop184" />
    </linearGradient>
    <linearGradient
       xlink:href="#c-5"
       id="g"
       y1="-516.79999"
       x1="-401.07001"
       y2="-541.29999"
       x2="-425.57001"
       gradientUnits="userSpaceOnUse"
       gradientTransform="matrix(1.1250004,0,0,1.1250004,427.64142,557.27525)" />
    <linearGradient
       id="d-3"
       y1="536.87"
       x1="421.64001"
       y2="511.82001"
       gradientUnits="userSpaceOnUse"
       x2="396.59"
       gradientTransform="rotate(180,408.57,523.8)">
      <stop
         stop-color="#f39c12"
         id="stop187" />
      <stop
         offset="1"
         stop-color="#f5ab35"
         id="stop189" />
    </linearGradient>
    <linearGradient
       xlink:href="#d-3"
       id="e"
       y1="532.22998"
       x1="417"
       y2="508.73001"
       gradientUnits="userSpaceOnUse"
       x2="393.5"
       gradientTransform="matrix(-1.1250004,0,0,-1.1250004,491.64142,621.27527)" />
    <linearGradient
       xlink:href="#d-3"
       id="f"
       y1="529.62"
       x1="414.39999"
       y2="506.91"
       gradientUnits="userSpaceOnUse"
       x2="391.69"
       gradientTransform="matrix(-1.1250004,0,0,-1.1250004,491.64142,621.27527)" />
    <linearGradient
       id="b-67"
       y1="42"
       x1="42"
       y2="6"
       x2="6"
       gradientUnits="userSpaceOnUse"
       gradientTransform="matrix(1.0714267,0,0,1.0714267,5.985306,6.0733032)">
      <stop
         stop-color="#989a9b"
         id="stop2404" />
      <stop
         offset="1"
         stop-color="#f6f6f7"
         id="stop2406" />
    </linearGradient>
    <linearGradient
       inkscape:collect="always"
       xlink:href="#a-5"
       id="linearGradient2562"
       gradientUnits="userSpaceOnUse"
       y1="542.79999"
       x2="0"
       y2="503.79999"
       gradientTransform="matrix(1.0714267,0,0,1.0714267,-406.05328,-529.42577)" />
    <linearGradient
       id="a-5"
       y1="542.79999"
       y2="503.79999"
       x2="0"
       gradientUnits="userSpaceOnUse">
      <stop
         stop-color="#2a2c2f"
         id="stop2399" />
      <stop
         offset="1"
         stop-color="#424649"
         id="stop2401" />
    </linearGradient>
    <linearGradient
       xlink:href="#a-5"
       id="f-3"
       x1="391.57001"
       x2="461.20001"
       gradientUnits="userSpaceOnUse"
       gradientTransform="matrix(1.0714268,0,0,1.0714268,-392.86616,-561.15098)" />
    <linearGradient
       id="linearGradient2623"
       y1="542.79999"
       y2="503.79999"
       x2="0"
       gradientUnits="userSpaceOnUse">
      <stop
         stop-color="#2a2c2f"
         id="stop2619" />
      <stop
         offset="1"
         stop-color="#424649"
         id="stop2621" />
    </linearGradient>
    <linearGradient
       inkscape:collect="always"
       xlink:href="#c-56"
       id="linearGradient2564"
       gradientUnits="userSpaceOnUse"
       gradientTransform="matrix(0.75761655,-0.75761655,0.75761655,0.75761655,-674.67061,-55.512307)"
       y1="523.79999"
       x2="0"
       y2="549.79999" />
    <linearGradient
       id="c-56"
       y1="523.79999"
       y2="549.79999"
       x2="0"
       gradientUnits="userSpaceOnUse"
       gradientTransform="matrix(0.70711,-0.70711,0.70711,0.70711,-635.28,-57.48)">
      <stop
         id="stop2409" />
      <stop
         offset="1"
         stop-opacity="0"
         id="stop2411" />
    </linearGradient>
    <linearGradient
       xlink:href="#a-5"
       id="e-2"
       y1="543.79999"
       x1="428.57001"
       y2="503.79999"
       x2="388.57001"
       gradientUnits="userSpaceOnUse"
       gradientTransform="matrix(1.0714267,0,0,1.0714267,-406.05328,-529.42577)" />
    <linearGradient
       id="linearGradient2634"
       y1="542.79999"
       y2="503.79999"
       x2="0"
       gradientUnits="userSpaceOnUse">
      <stop
         stop-color="#2a2c2f"
         id="stop2630" />
      <stop
         offset="1"
         stop-color="#424649"
         id="stop2632" />
    </linearGradient>
    <linearGradient
       xlink:href="#c-56"
       id="d-9"
       y1="520.94"
       x1="410.88"
       y2="532.63"
       x2="422.57001"
       gradientUnits="userSpaceOnUse"
       gradientTransform="matrix(1.0714267,0,0,1.0714267,-406.05328,-529.42577)" />
    <linearGradient
       id="linearGradient2641"
       y1="523.79999"
       y2="549.79999"
       x2="0"
       gradientUnits="userSpaceOnUse"
       gradientTransform="matrix(0.70711,-0.70711,0.70711,0.70711,-635.28,-57.48)">
      <stop
         id="stop2637" />
      <stop
         offset="1"
         stop-opacity="0"
         id="stop2639" />
    </linearGradient>
  </defs>
  <path
     d="m 2.9999985,10.25 c 0,-4.0041748 3.245938,-7.25 7.2500005,-7.25 h 43.500003 c 4.004173,0 7.249999,3.2458252 7.249999,7.25 v 43.5 c 0,4.004173 -3.245827,7.25 -7.25,7.25 H 10.249999 C 6.2459365,61 2.9999985,57.754173 2.9999985,53.75 Z"
     id="path736"
     style="fill:#606c86;fill-opacity:1;stroke-width:3.625" />
  <path
     d="M 2.9999985,9.796875 C 2.9999985,6.0431877 6.2459365,3 10.249999,3 h 43.500003 c 4.004173,0 7.249999,3.0431877 7.249999,6.796875 v 40.781249 c 0,3.753693 -3.245827,6.796876 -7.25,6.796876 H 10.249999 c -4.0040625,0 -7.2500005,-3.043183 -7.2500005,-6.796876 z"
     id="path738"
     style="fill:#3b4252;fill-opacity:1;stroke-width:3.625" />
  <circle

     cx="31.69953"
     cy="31.787535"
     r="21.42853"
     id="circle2419"
     style="fill:url(#linearGradient2562);stroke-width:0.535711;stroke-linejoin:round" />
  <path
     fill="#212325"
     d="M 53.105033,31.163939 A 21.428546,21.428546 0 0 1 31.699546,52.144651 21.428546,21.428546 0 0 1 10.294023,31.33972 a 21.428546,21.428546 0 0 0 -0.02301,0.447823 21.428546,21.428546 0 0 0 21.428536,21.428535 21.428546,21.428546 0 0 0 21.428544,-21.428535 21.428546,21.428546 0 0 0 -0.0234,-0.623604"
     id="path2421"
     style="stroke-width:0.535711;stroke-linejoin:round" />
  <path
     opacity="0.2"

     d="m 45.337723,18.149356 -27.275293,27.275306 6.564628,6.564629 a 21.428546,21.428546 0 0 0 7.073091,1.226282 21.428546,21.428546 0 0 0 21.428524,-21.428533 21.428546,21.428546 0 0 0 -1.22625,-7.073086 z"
     id="path2425"
     style="fill:url(#linearGradient2564);stroke-width:2.14288;stroke-linejoin:bevel" />
  <circle

     cx="44.88665"
     cy="0.062306792"
     r="18.214254"
     stroke-linecap="round"
     transform="rotate(45)"
     id="circle2427"
     style="fill:url(#f-3);stroke-width:2.14288;stroke-linejoin:bevel" />
  <path
     opacity="0.2"

     d="m 33.906685,19.775778 -0.328929,1.802138 2.035711,3.479999 4.586756,0.603211 1.5407,2.678567 -4.38638,8.504984 -5.089285,6.595702 -2.446069,-1.319998 -0.265711,1.453927 11.785735,11.785693 13.46029,-17.118184 -13.39279,-13.392832 -2.1429,0.285 z"
     id="path2431"
     style="fill:url(#d-9);fill-rule:evenodd;stroke-width:1.0714" />
  <path

     d="m 30.660259,42.973237 -8.16963,-11.849979 -0.434998,-5.624992 5.725706,-0.66964 4.017851,-5.389278 4.48713,6.05999 5.189975,0.702858 -2.4439,8.470699 -6.529277,8.270342 z"
     id="path2433"
     style="fill:url(#e-2);fill-rule:evenodd;stroke-width:1.0714" />
  <path

     stroke-linejoin="round"
     stroke-width="0.535711"
     d="M 31.699546,12.501861 A 19.28565,19.28565 0 0 0 12.413863,31.787543 19.28565,19.28565 0 0 0 31.699546,51.073221 19.28565,19.28565 0 0 0 50.985203,31.787543 19.28565,19.28565 0 0 0 31.699546,12.501861 m 0,2.142855 a 17.142815,17.142815 0 0 1 16.826847,13.928547 h -3.96969 c -0.59359,0 -1.07148,0.477853 -1.07148,1.071424 0,0.593573 0.47789,1.071429 1.07148,1.071429 h 4.246 a 17.142815,17.142815 0 0 1 0.04,1.071427 17.142815,17.142815 0 0 1 -0.0547,1.071426 h -4.23131 c -0.59359,0 -1.0714,0.477857 -1.0714,1.071427 0,0.593571 0.47781,1.071427 1.0714,1.071427 h 3.97387 A 17.142815,17.142815 0 0 1 31.699525,48.93037 17.142815,17.142815 0 0 1 14.872682,35.001823 H 18.8424 c 0.593571,0 1.071429,-0.477856 1.071429,-1.071427 0,-0.59357 -0.477858,-1.071427 -1.071429,-1.071427 h -4.242848 a 17.142815,17.142815 0 0 1 -0.04281,-1.071426 17.142815,17.142815 0 0 1 0.05438,-1.071427 h 4.231298 c 0.593576,0 1.071427,-0.477856 1.071427,-1.071429 0,-0.593571 -0.477851,-1.071424 -1.071427,-1.071424 H 14.868509 A 17.142815,17.142815 0 0 1 31.699554,14.644716 m 0,4.285709 c -0.71464,0 -1.383211,0.201424 -1.896428,0.575353 -0.50357,0.37393 -0.82714,0.868927 -1.071424,1.356429 -0.486427,0.973922 -0.732858,2.002498 -1.199997,2.946422 -0.176788,0.343928 -0.232501,0.339638 -0.348217,0.373927 -0.115714,0.03539 -0.397501,0.04289 -0.819643,-0.0182 -0.85714,-0.122147 -2.259635,-0.490717 -3.714637,0.241069 -0.823924,0.40714 -1.364994,1.18607 -1.588922,2.005709 -0.23143,0.819642 -0.212142,1.697141 -0.06427,2.605711 0.306434,1.817138 1.167857,3.786421 2.314283,5.508203 1.028571,1.538569 2.372142,3.958922 3.747852,6.026775 0.687853,1.02857 1.379998,1.971426 2.098921,2.713924 0.718929,0.738213 1.47107,1.378927 2.542499,1.378927 1.071429,0 1.821422,-0.640714 2.540351,-1.378927 0.716793,-0.742499 1.413216,-1.685355 2.101068,-2.713925 1.375733,-2.067853 2.724653,-4.488206 3.750033,-6.026775 1.14748,-1.721783 2.0057,-3.691065 2.30779,-5.508203 0.15433,-0.90857 0.16503,-1.786069 -0.0579,-2.605711 -0.22821,-0.819639 -0.76286,-1.598569 -1.59106,-2.005709 -1.45393,-0.731786 -2.85968,-0.363216 -3.712529,-0.241069 -0.42534,0.06109 -0.708211,0.0536 -0.827133,0.0182 -0.107143,-0.03429 -0.160715,-0.03001 -0.3375,-0.373927 -0.472501,-0.943928 -0.723212,-1.9725 -1.205357,-2.946422 -0.244287,-0.487502 -0.567856,-0.982499 -1.077854,-1.356429 -0.507861,-0.373929 -1.175358,-0.575353 -1.89,-0.575353 m 0,10.714262 c 0.59357,0 1.07143,0.477858 1.07143,1.071429 v 6.42856 c 0,0.59357 -0.47786,1.071427 -1.07143,1.071427 -0.59357,0 -1.071425,-0.477857 -1.071425,-1.071427 v -6.42856 c 0,-0.593571 0.477855,-1.071429 1.071425,-1.071429"
     id="path2437"
     style="fill:url(#b-67)" />
</svg>
