<?xml version="1.0" encoding="UTF-8" standalone="no"?>
<svg
   width="64"
   height="64"
   version="1.1"
   id="svg15515"
   sodipodi:docname="sonic-visualiser.svg"
   inkscape:version="1.4.2 (unknown)"
   xmlns:inkscape="http://www.inkscape.org/namespaces/inkscape"
   xmlns:sodipodi="http://sodipodi.sourceforge.net/DTD/sodipodi-0.dtd"
   xmlns:xlink="http://www.w3.org/1999/xlink"
   xmlns="http://www.w3.org/2000/svg"
   xmlns:svg="http://www.w3.org/2000/svg">
  <sodipodi:namedview
     id="namedview15517"
     pagecolor="#ffffff"
     bordercolor="#666666"
     borderopacity="1.0"
     inkscape:showpageshadow="2"
     inkscape:pageopacity="0.0"
     inkscape:pagecheckerboard="0"
     inkscape:deskcolor="#d1d1d1"
     showgrid="false"
     inkscape:zoom="4.9166667"
     inkscape:cx="24.406779"
     inkscape:cy="58.677966"
     inkscape:window-width="1920"
     inkscape:window-height="996"
     inkscape:window-x="0"
     inkscape:window-y="0"
     inkscape:window-maximized="1"
     inkscape:current-layer="svg15515" />
  <defs
     id="defs15483">
    <linearGradient
       id="linearGradient17391"
       y1="37.110001"
       x1="26.424999"
       y2="24"
       x2="44"
       gradientUnits="userSpaceOnUse">
      <stop
         stop-color="#2980b9"
         id="stop17387" />
      <stop
         offset="1"
         stop-color="#1d99f3"
         id="stop17389"
         style="stop-color:#5e81ac;stop-opacity:1;" />
    </linearGradient>
    <linearGradient
       id="linearGradient17385"
       y1="27.6"
       x1="31.537001"
       y2="31"
       x2="35.973"
       gradientUnits="userSpaceOnUse">
      <stop
         id="stop17381" />
      <stop
         offset="1"
         stop-opacity="0"
         id="stop17383"
         style="stop-color:#5e81ac;stop-opacity:0;" />
    </linearGradient>
    <linearGradient
       id="a"
       y1="37.110001"
       x1="26.424999"
       y2="24"
       x2="44"
       gradientUnits="userSpaceOnUse">
      <stop
         stop-color="#2980b9"
         id="stop15456" />
      <stop
         offset="1"
         stop-color="#1d99f3"
         id="stop15458" />
    </linearGradient>
    <linearGradient
       xlink:href="#a"
       id="b"
       y1="39.240002"
       x1="25.868999"
       y2="10.624"
       x2="24.539"
       gradientUnits="userSpaceOnUse" />
    <linearGradient
       id="c"
       y1="9.3859997"
       x1="8.8400002"
       y2="39.34"
       x2="37.922001"
       gradientUnits="userSpaceOnUse">
      <stop
         stop-color="#faf8f8"
         id="stop15462" />
      <stop
         offset="1"
         stop-color="#bfd2d2"
         id="stop15464" />
    </linearGradient>
    <linearGradient
       id="d"
       y1="16.621"
       x1="27.040001"
       y2="17.990999"
       x2="24.839001"
       gradientUnits="userSpaceOnUse">
      <stop
         stop-color="#fcfcfc"
         id="stop15467" />
      <stop
         offset="1"
         stop-color="#c7c7c7"
         id="stop15469" />
    </linearGradient>
    <linearGradient
       id="e"
       y1="27.6"
       x1="31.537001"
       y2="31"
       x2="35.973"
       gradientUnits="userSpaceOnUse">
      <stop
         id="stop15472" />
      <stop
         offset="1"
         stop-opacity="0"
         id="stop15474" />
    </linearGradient>
    <linearGradient
       xlink:href="#e"
       id="f"
       y1="19"
       x1="26"
       y2="30"
       x2="37"
       gradientUnits="userSpaceOnUse"
       gradientTransform="translate(-10,5)" />
    <linearGradient
       id="g"
       y1="23.643999"
       x1="3.783"
       y2="22.495001"
       x2="19.573999"
       gradientUnits="userSpaceOnUse">
      <stop
         stop-color="#2980b9"
         id="stop15478" />
      <stop
         offset="1"
         stop-color="#34495e"
         id="stop15480" />
    </linearGradient>
    <linearGradient
       inkscape:collect="always"
       xlink:href="#linearGradient22063-0"
       id="linearGradient22065-6"
       x1="-22"
       y1="5.1111121"
       x2="-6.4444442"
       y2="-9.1111107"
       gradientUnits="userSpaceOnUse"
       gradientTransform="matrix(3.6250002,0,0,3.6250002,82.750001,39.249999)" />
    <linearGradient
       inkscape:collect="always"
       id="linearGradient22063-0">
      <stop
         style="stop-color:#c6afe9;stop-opacity:1"
         offset="0"
         id="stop22059-6" />
      <stop
         style="stop-color:#e1e7ef;stop-opacity:1;"
         offset="1"
         id="stop22061-2" />
    </linearGradient>
    <linearGradient
       xlink:href="#linearGradient17391"
       id="b-6"
       y1="39.240002"
       x1="25.868999"
       y2="10.624"
       x2="24.539"
       gradientUnits="userSpaceOnUse" />
    <linearGradient
       xlink:href="#linearGradient17385"
       id="f-6"
       y1="19"
       x1="26"
       y2="30"
       x2="37"
       gradientUnits="userSpaceOnUse"
       gradientTransform="translate(-10,5)" />
    <linearGradient
       id="d-9"
       y1="16.621"
       x1="27.040001"
       y2="17.990999"
       x2="24.839001"
       gradientUnits="userSpaceOnUse">
      <stop
         stop-color="#fcfcfc"
         id="stop15467-4" />
      <stop
         offset="1"
         stop-color="#c7c7c7"
         id="stop15469-9" />
    </linearGradient>
    <linearGradient
       id="g-0"
       y1="23.643999"
       x1="3.783"
       y2="22.495001"
       x2="19.573999"
       gradientUnits="userSpaceOnUse">
      <stop
         stop-color="#2980b9"
         id="stop15478-9" />
      <stop
         offset="1"
         stop-color="#34495e"
         id="stop15480-1" />
    </linearGradient>
  </defs>
  <path
     d="M 2.9999985,10.250001 C 2.9999985,6.245825 6.2459365,3 10.249999,3 h 43.500003 c 4.004173,0 7.25,3.245825 7.25,7.250001 v 43.5 c 0,4.004173 -3.245827,7.25 -7.25,7.25 H 10.249999 c -4.0040625,0 -7.2500005,-3.245827 -7.2500005,-7.25 z"
     id="path736-7"
     style="fill:#606c86;fill-opacity:1;stroke-width:3.625" />
  <path
     d="M 2.9999985,9.7968755 C 2.9999985,6.043188 6.2459365,3 10.249999,3 h 43.500003 c 4.004173,0 7.25,3.043188 7.25,6.7968755 V 50.578125 c 0,3.753693 -3.245827,6.796876 -7.25,6.796876 H 10.249999 c -4.0040625,0 -7.2500005,-3.043183 -7.2500005,-6.796876 z"
     id="path738-9"
     style="fill:url(#linearGradient22065-6);fill-opacity:1;stroke-width:3.625"
     sodipodi:nodetypes="sssssssss" />
  <path
     d="m 32.00803,15.500002 c -0.669675,0 -1.016501,0.428921 -1.162791,0.64717 -0.146295,0.218265 -0.20557,0.381971 -0.263585,0.553307 -0.116024,0.341364 -0.191698,0.705589 -0.271149,1.154814 -0.158909,0.898451 -0.30394,2.106553 -0.446455,3.549437 -0.52715,6.056819 -0.890374,11.588449 -1.340637,17.198719 -0.478005,-4.49229 -0.771826,-9.04398 -1.29521,-13.4782 -0.147558,-1.23727 -0.296375,-2.27404 -0.462847,-3.06083 -0.08324,-0.39339 -0.163951,-0.717005 -0.29259,-1.038024 -0.06432,-0.16116 -0.133678,-0.323595 -0.297639,-0.530426 -0.163951,-0.206848 -0.52591,-0.553308 -1.10354,-0.553308 -0.446455,0 -0.793276,0.222077 -0.979939,0.398467 -0.187914,0.176391 -0.282499,0.333748 -0.361956,0.478416 -0.158907,0.2906 -0.247188,0.560884 -0.340515,0.876875 -0.185392,0.63196 -0.345557,1.42638 -0.506987,2.37177 -0.621769,4.00625 -1.055587,7.68999 -1.599136,11.43355 -0.329164,-2.15477 -0.514565,-4.43266 -0.783169,-6.55566 -0.08576,-0.66874 -0.168999,-1.23223 -0.263585,-1.6827 -0.04666,-0.22588 -0.08954,-0.41625 -0.177827,-0.64213 -0.04414,-0.11292 -0.08954,-0.2335 -0.227009,-0.41624 -0.137464,-0.18274 -0.469154,-0.54821 -1.066933,-0.54821 -0.460325,0 -0.725159,0.18527 -0.896713,0.31724 -0.17152,0.13197 -0.273671,0.25127 -0.36952,0.36928 -0.190439,0.23477 -0.336734,0.47334 -0.490589,0.74108 -0.307725,0.53682 -0.624296,1.18144 -0.9358,1.81469 -0.312768,0.63323 -0.621769,1.25633 -0.862631,1.66752 -0.05045,0.0851 -0.06685,0.10276 -0.108468,0.16625 H 3.0315107 c -0.017636,0.42128 -0.031508,0.84386 -0.031508,1.269 0,0.42511 0.013871,0.8477 0.031508,1.26902 H 15.611807 c 0.875262,0 1.066932,-0.43147 1.261176,-0.66876 0.198004,-0.23731 0.349342,-0.48098 0.506987,-0.75125 0.247187,-0.42258 0.494355,-0.92891 0.741556,-1.42509 0.129907,1.12052 0.258537,2.29438 0.408617,3.62301 0.198004,1.75377 0.416186,3.51261 0.674727,4.89084 0.129907,0.68908 0.263586,1.26901 0.447713,1.78169 0.09206,0.2538 0.187914,0.48985 0.379612,0.75379 0.191697,0.26395 0.591501,0.67893 1.248543,0.67893 0.446455,0 0.793276,-0.22208 0.97994,-0.39848 0.187914,-0.17642 0.282504,-0.33376 0.361955,-0.47842 0.158908,-0.2906 0.247188,-0.56088 0.340516,-0.87686 0.185391,-0.63196 0.345557,-1.42639 0.506986,-2.3718 0.563759,-3.69279 0.988758,-7.0415 1.457898,-10.42005 0.59274,5.33881 0.886607,10.44498 1.50709,15.70898 0.147557,1.23727 0.296375,2.27405 0.462847,3.06082 0.08323,0.39341 0.163952,0.71702 0.292591,1.03804 0.06432,0.16115 0.133679,0.3236 0.297638,0.53043 0.16395,0.20685 0.528437,0.5533 1.106066,0.5533 0.669675,0 1.013975,-0.42894 1.160264,-0.64717 0.146295,-0.21827 0.20557,-0.38199 0.263585,-0.55331 0.116024,-0.34135 0.19422,-0.70558 0.273671,-1.15481 0.158908,-0.89846 0.301419,-2.10657 0.443929,-3.54939 0.496882,-5.74363 0.856339,-10.93902 1.261176,-16.19485 0.474196,5.41748 0.745369,10.83733 1.261175,16.19485 0.141252,1.44288 0.285025,2.65093 0.443934,3.54939 0.07946,0.44923 0.156386,0.81346 0.27367,1.15481 0.05802,0.17132 0.117295,0.33504 0.263584,0.55331 0.146295,0.21827 0.49059,0.64717 1.160265,0.64717 0.57763,0 0.942092,-0.34519 1.106067,-0.5533 0.163951,-0.20687 0.233316,-0.36928 0.297638,-0.53043 0.129894,-0.32107 0.209355,-0.64468 0.29259,-1.03804 0.166473,-0.78677 0.315295,-1.82355 0.462848,-3.06082 0.597792,-5.48846 0.974887,-10.54284 1.50709,-15.70898 0.538495,3.47705 0.880316,6.99834 1.457898,10.42005 0.161429,0.94541 0.321595,1.73984 0.506986,2.3718 0.09207,0.31598 0.181607,0.58753 0.340515,0.87686 0.07946,0.14466 0.174042,0.30074 0.361955,0.47842 0.187914,0.1764 0.53349,0.39848 0.97994,0.39848 0.657092,0 1.056874,-0.41499 1.248544,-0.67893 0.191698,-0.26394 0.286284,-0.49997 0.379612,-0.75379 0.185391,-0.5076 0.319073,-1.0939 0.447712,-1.78169 0.259801,-1.37814 0.476719,-3.13571 0.674728,-4.89084 0.155124,-1.36927 0.288805,-2.59132 0.421229,-3.73213 0.249709,0.5254 0.498169,1.06091 0.74661,1.50884 0.148816,0.26903 0.29259,0.50759 0.483011,0.74871 0.190433,0.23984 0.377089,0.69667 1.273759,0.69667 h 12.580297 c 0.01764,-0.42132 0.03145,-0.84388 0.03145,-1.26902 0,-0.42511 -0.01383,-0.84772 -0.03145,-1.269 H 48.925458 c -0.03531,-0.0573 -0.04792,-0.0685 -0.08827,-0.14087 -0.228273,-0.41369 -0.522146,-1.03803 -0.827311,-1.67761 -0.305164,-0.63962 -0.619243,-1.29188 -0.948383,-1.84641 -0.165215,-0.27665 -0.326644,-0.52789 -0.549888,-0.77539 -0.223225,-0.24746 -0.520859,-0.6345 -1.276286,-0.6345 -0.597793,0 -0.92946,0.36421 -1.066932,0.54822 -0.137464,0.18274 -0.182871,0.3033 -0.227011,0.41624 -0.08701,0.22588 -0.129907,0.41624 -0.177827,0.64213 -0.09458,0.45049 -0.177825,1.01394 -0.263584,1.68271 -0.171516,1.33751 -0.348078,3.07987 -0.544835,4.816 -0.07189,0.64214 -0.161429,1.12437 -0.238359,1.73982 -0.609137,-3.85903 -0.957203,-7.62665 -1.599182,-11.43351 -0.16143,-0.94541 -0.321597,-1.73982 -0.506988,-2.3718 -0.09207,-0.315979 -0.181607,-0.587548 -0.340514,-0.876863 -0.07946,-0.144669 -0.174042,-0.300754 -0.361956,-0.478417 -0.187912,-0.17639 -0.53349,-0.398469 -0.97994,-0.398469 -0.577629,0 -0.939565,0.345168 -1.103541,0.553305 -0.16395,0.206848 -0.233315,0.36928 -0.297637,0.530428 -0.129908,0.321057 -0.209354,0.644676 -0.29259,1.038026 -0.166472,0.78679 -0.315294,1.82358 -0.462847,3.06084 -0.508227,4.79303 -0.884081,9.11161 -1.295211,13.47821 -0.518331,-5.79832 -0.785696,-11.45895 -1.340636,-17.19874 -0.141251,-1.442885 -0.286284,-2.65094 -0.446455,-3.54939 -0.07944,-0.44923 -0.15386,-0.813411 -0.271149,-1.154816 -0.05802,-0.171315 -0.117295,-0.33502 -0.263585,-0.553306 -0.146295,-0.218272 -0.493116,-0.647171 -1.162791,-0.647171 z"
     fill="#b2e567"
     stroke-width="0.352773"
     id="path2-3"
     style="fill:#9b73d9;fill-opacity:1;stroke-width:4.59993" />
</svg>
