<?xml version="1.0" encoding="UTF-8" standalone="no"?>
<svg
   width="64"
   height="64"
   viewBox="0 0 64 64"
   version="1.1"
   id="svg52"
   sodipodi:docname="synfig_icon.svg"
   inkscape:version="1.2.1 (9c6d41e410, 2022-07-14)"
   xmlns:inkscape="http://www.inkscape.org/namespaces/inkscape"
   xmlns:sodipodi="http://sodipodi.sourceforge.net/DTD/sodipodi-0.dtd"
   xmlns:xlink="http://www.w3.org/1999/xlink"
   xmlns="http://www.w3.org/2000/svg"
   xmlns:svg="http://www.w3.org/2000/svg">
  <sodipodi:namedview
     id="namedview54"
     pagecolor="#a4a4a4"
     bordercolor="#eeeeee"
     borderopacity="1"
     inkscape:pageshadow="0"
     inkscape:pageopacity="0"
     inkscape:pagecheckerboard="0"
     showgrid="false"
     inkscape:zoom="5.2604167"
     inkscape:cx="36.40396"
     inkscape:cy="10.930693"
     inkscape:window-width="1920"
     inkscape:window-height="1002"
     inkscape:window-x="0"
     inkscape:window-y="0"
     inkscape:window-maximized="1"
     inkscape:current-layer="svg52"
     inkscape:showpageshadow="2"
     inkscape:deskcolor="#c9c9c9" />
  <defs
     id="defs32">
    <linearGradient
       xlink:href="#linearGradient4393"
       id="linearGradient4399"
       x1="424.44101"
       y1="502.85001"
       x2="440.87799"
       y2="529.57599"
       gradientUnits="userSpaceOnUse"
       gradientTransform="matrix(0.69224711,0,0,0.69224711,-215.22899,-357.13539)" />
    <linearGradient
       id="linearGradient4393">
      <stop
         style="stop-color:#000000;stop-opacity:1;"
         offset="0"
         id="stop3" />
      <stop
         style="stop-color:#000000;stop-opacity:0;"
         offset="1"
         id="stop5" />
    </linearGradient>
    <linearGradient
       xlink:href="#linearGradient4274"
       id="linearGradient4217"
       gradientUnits="userSpaceOnUse"
       gradientTransform="matrix(0.69224711,0,0,0.69224711,-199.3073,1639.8968)"
       x1="390.57101"
       y1="498.298"
       x2="442.57101"
       y2="498.298" />
    <linearGradient
       id="linearGradient4274">
      <stop
         offset="0"
         style="stop-color:#ffffff;stop-opacity:1;"
         id="stop9" />
      <stop
         offset="1"
         style="stop-color:#ffffff;stop-opacity:0.48760331"
         id="stop11" />
    </linearGradient>
    <linearGradient
       xlink:href="#linearGradient4227"
       id="linearGradient4225"
       gradientUnits="userSpaceOnUse"
       x1="396.57101"
       y1="498.798"
       x2="426.57101"
       y2="511.798"
       gradientTransform="matrix(0.69224711,0,0,0.69224711,-199.3073,-360.21214)" />
    <linearGradient
       id="linearGradient4227">
      <stop
         offset="0"
         style="stop-color:#f5f5f5;stop-opacity:1"
         id="stop21" />
      <stop
         offset="1"
         style="stop-color:#f9f9f9;stop-opacity:1"
         id="stop23" />
    </linearGradient>
    <style
       id="current-color-scheme"
       type="text/css">      .ColorScheme-Highlight {
        color:#3593e6;
      }
</style>
    <linearGradient
       id="d"
       gradientUnits="userSpaceOnUse"
       x1="4"
       x2="18.999998"
       xlink:href="#c"
       y1="5"
       y2="20"
       gradientTransform="matrix(2.7999616,0,0,2.7999616,1.095156,-2.3992319)" />
    <linearGradient
       id="c">
      <stop
         offset="0"
         stop-color="#292c2f"
         id="stop265" />
      <stop
         offset="1"
         stop-opacity="0"
         id="stop267" />
    </linearGradient>
    <linearGradient
       id="b"
       gradientUnits="userSpaceOnUse"
       x1="13.280776"
       x2="28.280775"
       xlink:href="#c"
       y1="5.088388"
       y2="20.088388"
       gradientTransform="matrix(2.7999616,0,0,2.7999616,1.095156,-2.3992319)" />
    <linearGradient
       id="c-3"
       gradientUnits="userSpaceOnUse"
       x1="5"
       x2="5"
       y1="20"
       y2="7"
       gradientTransform="matrix(3.4390082,0,0,3.4390082,-5.8290972,-4.015561)">
      <stop
         offset="0"
         stop-color="#999a9c"
         id="stop164" />
      <stop
         offset="1"
         stop-color="#f4f5f5"
         id="stop166" />
    </linearGradient>
    <linearGradient
       id="a"
       y1="44"
       y2="4"
       x2="0"
       gradientUnits="userSpaceOnUse">
      <stop
         stop-color="#7cbaf8"
         id="stop152" />
      <stop
         offset="1"
         stop-color="#f4fcff"
         id="stop154" />
    </linearGradient>
    <linearGradient
       id="b-3"
       y1="39"
       y2="9"
       gradientUnits="userSpaceOnUse"
       x2="0"
       gradientTransform="matrix(1.02857,0,0,1.2,-5.314,-2013.52)">
      <stop
         stop-color="#197cf1"
         id="stop157" />
      <stop
         offset="1"
         stop-color="#20bcfa"
         id="stop159" />
    </linearGradient>
    <linearGradient
       xlink:href="#c-7"
       id="d-6"
       y1="18.26"
       x1="14.59"
       y2="40.439999"
       x2="36.060001"
       gradientUnits="userSpaceOnUse" />
    <linearGradient
       id="c-7"
       y1="13.01"
       x1="25.040001"
       y2="30.26"
       x2="42.990002"
       gradientUnits="userSpaceOnUse">
      <stop
         stop-color="#292c2f"
         id="stop162" />
      <stop
         offset="1"
         stop-color="#292c2f"
         stop-opacity="0"
         id="stop164-5" />
    </linearGradient>
    <linearGradient
       id="a-3"
       y1="61.200001"
       x1="-162.28999"
       y2="505.06"
       gradientUnits="userSpaceOnUse"
       x2="737.63"
       gradientTransform="matrix(0.07988963,0.02495102,-0.02223702,0.07119775,13.078816,2.4457071)">
      <stop
         stop-color="#fafafa"
         id="stop272" />
      <stop
         offset="1"
         stop-color="#939393"
         id="stop274" />
    </linearGradient>
    <linearGradient
       id="b-6"
       y1="41"
       x1="41"
       y2="18.25"
       x2="21.129999"
       gradientUnits="userSpaceOnUse"
       gradientTransform="matrix(1.2224895,0,0,1.2224895,2.7878998,4.0691761)">
      <stop
         stop-color="#502ae3"
         id="stop277" />
      <stop
         offset="1"
         stop-color="#4db4f6"
         id="stop279" />
    </linearGradient>
    <linearGradient
       spreadMethod="reflect"
       id="a-36"
       x1="428.57001"
       x2="408.57001"
       gradientUnits="userSpaceOnUse"
       gradientTransform="matrix(1.1250004,0,0,1.1250004,-427.64144,-557.27525)">
      <stop
         stop-color="#2f3943"
         id="stop172" />
      <stop
         offset="1"
         stop-color="#808c9b"
         id="stop174" />
    </linearGradient>
    <linearGradient
       id="b-7"
       y1="-511.20001"
       x1="-395.07001"
       y2="-535.79999"
       x2="-419.67001"
       gradientUnits="userSpaceOnUse"
       gradientTransform="matrix(1.1250004,0,0,1.1250004,427.64142,557.27525)">
      <stop
         stop-color="#18222a"
         id="stop177" />
      <stop
         offset="1"
         stop-color="#566069"
         id="stop179" />
    </linearGradient>
    <linearGradient
       id="c-5"
       y1="-514"
       x1="-398.07001"
       y2="-533.13"
       x2="-417.20001"
       gradientUnits="userSpaceOnUse">
      <stop
         stop-color="#b97c1b"
         id="stop182" />
      <stop
         offset="1"
         stop-color="#dc8f16"
         id="stop184" />
    </linearGradient>
    <linearGradient
       xlink:href="#c-5"
       id="g"
       y1="-516.79999"
       x1="-401.07001"
       y2="-541.29999"
       x2="-425.57001"
       gradientUnits="userSpaceOnUse"
       gradientTransform="matrix(1.1250004,0,0,1.1250004,427.64142,557.27525)" />
    <linearGradient
       id="d-3"
       y1="536.87"
       x1="421.64001"
       y2="511.82001"
       gradientUnits="userSpaceOnUse"
       x2="396.59"
       gradientTransform="rotate(180,408.57,523.8)">
      <stop
         stop-color="#f39c12"
         id="stop187" />
      <stop
         offset="1"
         stop-color="#f5ab35"
         id="stop189" />
    </linearGradient>
    <linearGradient
       xlink:href="#d-3"
       id="e"
       y1="532.22998"
       x1="417"
       y2="508.73001"
       gradientUnits="userSpaceOnUse"
       x2="393.5"
       gradientTransform="matrix(-1.1250004,0,0,-1.1250004,491.64142,621.27527)" />
    <linearGradient
       xlink:href="#d-3"
       id="f"
       y1="529.62"
       x1="414.39999"
       y2="506.91"
       gradientUnits="userSpaceOnUse"
       x2="391.69"
       gradientTransform="matrix(-1.1250004,0,0,-1.1250004,491.64142,621.27527)" />
    <linearGradient
       id="b-67"
       y1="42"
       x1="42"
       y2="6"
       x2="6"
       gradientUnits="userSpaceOnUse"
       gradientTransform="matrix(1.0714267,0,0,1.0714267,5.985306,6.0733032)">
      <stop
         stop-color="#989a9b"
         id="stop2404" />
      <stop
         offset="1"
         stop-color="#f6f6f7"
         id="stop2406" />
    </linearGradient>
    <linearGradient
       id="a-5"
       y1="542.79999"
       y2="503.79999"
       x2="0"
       gradientUnits="userSpaceOnUse">
      <stop
         stop-color="#2a2c2f"
         id="stop2399" />
      <stop
         offset="1"
         stop-color="#424649"
         id="stop2401" />
    </linearGradient>
    <linearGradient
       xlink:href="#a-5"
       id="f-3"
       x1="391.57001"
       x2="461.20001"
       gradientUnits="userSpaceOnUse"
       gradientTransform="matrix(1.0714268,0,0,1.0714268,-392.86616,-561.15098)" />
    <linearGradient
       id="linearGradient2623"
       y1="542.79999"
       y2="503.79999"
       x2="0"
       gradientUnits="userSpaceOnUse">
      <stop
         stop-color="#2a2c2f"
         id="stop2619" />
      <stop
         offset="1"
         stop-color="#424649"
         id="stop2621" />
    </linearGradient>
    <linearGradient
       id="c-56"
       y1="523.79999"
       y2="549.79999"
       x2="0"
       gradientUnits="userSpaceOnUse"
       gradientTransform="matrix(0.70711,-0.70711,0.70711,0.70711,-635.28,-57.48)">
      <stop
         id="stop2409" />
      <stop
         offset="1"
         stop-opacity="0"
         id="stop2411" />
    </linearGradient>
    <linearGradient
       xlink:href="#a-5"
       id="e-2"
       y1="543.79999"
       x1="428.57001"
       y2="503.79999"
       x2="388.57001"
       gradientUnits="userSpaceOnUse"
       gradientTransform="matrix(1.0714267,0,0,1.0714267,-406.05328,-529.42577)" />
    <linearGradient
       id="linearGradient2634"
       y1="542.79999"
       y2="503.79999"
       x2="0"
       gradientUnits="userSpaceOnUse">
      <stop
         stop-color="#2a2c2f"
         id="stop2630" />
      <stop
         offset="1"
         stop-color="#424649"
         id="stop2632" />
    </linearGradient>
    <linearGradient
       xlink:href="#c-56"
       id="d-9"
       y1="520.94"
       x1="410.88"
       y2="532.63"
       x2="422.57001"
       gradientUnits="userSpaceOnUse"
       gradientTransform="matrix(1.0714267,0,0,1.0714267,-406.05328,-529.42577)" />
    <linearGradient
       id="linearGradient2641"
       y1="523.79999"
       y2="549.79999"
       x2="0"
       gradientUnits="userSpaceOnUse"
       gradientTransform="matrix(0.70711,-0.70711,0.70711,0.70711,-635.28,-57.48)">
      <stop
         id="stop2637" />
      <stop
         offset="1"
         stop-opacity="0"
         id="stop2639" />
    </linearGradient>
    <linearGradient
       id="b-36"
       y1="55.41"
       x1="41.528"
       y2="25.511"
       x2="24.264999"
       gradientUnits="userSpaceOnUse"
       gradientTransform="matrix(1.1476153,0,0,1.1476153,4.2035556,4.7445357)">
      <stop
         stop-color="#f7bb5d"
         id="stop217" />
      <stop
         offset="1"
         stop-color="#fce3bc"
         id="stop219" />
    </linearGradient>
    <linearGradient
       id="a-7"
       y1="542.79999"
       y2="503.79999"
       x2="0"
       gradientUnits="userSpaceOnUse">
      <stop
         stop-color="#f39c12"
         id="stop212" />
      <stop
         offset="1"
         stop-color="#f5ab35"
         id="stop214" />
    </linearGradient>
    <linearGradient
       xlink:href="#a-7"
       id="f-5"
       x1="391.57001"
       x2="461.20001"
       gradientUnits="userSpaceOnUse"
       gradientTransform="matrix(1.1476155,0,0,1.1476155,-423.60847,-600.73822)" />
    <linearGradient
       id="linearGradient544"
       y1="542.79999"
       y2="503.79999"
       x2="0"
       gradientUnits="userSpaceOnUse">
      <stop
         stop-color="#f39c12"
         id="stop540" />
      <stop
         offset="1"
         stop-color="#f5ab35"
         id="stop542" />
    </linearGradient>
    <linearGradient
       id="c-35"
       y1="523.79999"
       y2="549.79999"
       x2="0"
       gradientUnits="userSpaceOnUse"
       gradientTransform="matrix(0.70711,-0.70711,0.70711,0.70711,-635.28,-57.48)">
      <stop
         id="stop222" />
      <stop
         offset="1"
         stop-opacity="0"
         id="stop224" />
    </linearGradient>
    <linearGradient
       id="e-6"
       y1="543.79999"
       x1="428.57001"
       y2="503.79999"
       x2="388.57001"
       gradientUnits="userSpaceOnUse"
       gradientTransform="matrix(1.1476153,0,0,1.1476153,-437.13484,-568.83357)">
      <stop
         stop-color="#f39c12"
         id="stop228" />
      <stop
         offset="1"
         stop-color="#ffc35a"
         id="stop230" />
    </linearGradient>
    <linearGradient
       xlink:href="#c-35"
       id="d-2"
       y1="520.94"
       x1="410.88"
       y2="532.63"
       x2="422.57001"
       gradientUnits="userSpaceOnUse"
       gradientTransform="matrix(1.1476153,0,0,1.1476153,-437.13484,-568.83357)" />
    <linearGradient
       id="linearGradient558"
       y1="523.79999"
       y2="549.79999"
       x2="0"
       gradientUnits="userSpaceOnUse"
       gradientTransform="matrix(0.70711,-0.70711,0.70711,0.70711,-635.28,-57.48)">
      <stop
         id="stop554" />
      <stop
         offset="1"
         stop-opacity="0"
         id="stop556" />
    </linearGradient>
    <linearGradient
       xlink:href="#shadow-3"
       id="linearGradient4227-3"
       gradientUnits="userSpaceOnUse"
       gradientTransform="matrix(1.125,0,0,1.125,-13.26575,-1126.5888)"
       x1="21.475"
       y1="1035.158"
       x2="34.474998"
       y2="1048.158" />
    <linearGradient
       id="shadow-3">
      <stop
         style="stop-color:#31363b;stop-opacity:0.208"
         offset="0"
         id="stop237" />
      <stop
         style="stop-color:#31363b;stop-opacity:0;"
         offset="1"
         id="stop239" />
    </linearGradient>
    <linearGradient
       xlink:href="#shadow-3"
       id="linearGradient4381"
       gradientUnits="userSpaceOnUse"
       gradientTransform="matrix(1.125,0,0,1.125,1.2239067,-1126.2178)"
       x1="21.969"
       y1="1035.3621"
       x2="35.969002"
       y2="1049.3621" />
    <linearGradient
       xlink:href="#shadow-3"
       id="linearGradient4377"
       gradientUnits="userSpaceOnUse"
       gradientTransform="matrix(1.125,0,0,1.125,-2.6679633,-1130.3599)"
       x1="21.084999"
       y1="1036.975"
       x2="35.969002"
       y2="1049.3621" />
    <linearGradient
       xlink:href="#shadow-3"
       id="linearGradient4203"
       gradientUnits="userSpaceOnUse"
       x1="23"
       y1="1035.3621"
       x2="36"
       y2="1048.3621"
       gradientTransform="matrix(1.125,0,0,1.125,19.078005,-1144.0262)" />
    <linearGradient
       xlink:href="#shadow-3"
       id="linearGradient4199"
       x1="21.969"
       y1="1035.3621"
       x2="35.969002"
       y2="1049.3621"
       gradientUnits="userSpaceOnUse"
       gradientTransform="matrix(1.125,0,0,1.125,15.703003,-1140.6512)" />
    <linearGradient
       xlink:href="#shadow-3"
       id="linearGradient4373"
       gradientUnits="userSpaceOnUse"
       gradientTransform="matrix(1.125,0,0,1.125,11.178623,-1144.604)"
       x1="21.084999"
       y1="1036.975"
       x2="35.969002"
       y2="1049.3621" />
    <linearGradient
       xlink:href="#blue-gradient-5"
       id="linearGradient4351"
       x1="24"
       y1="1008.362"
       x2="24"
       y2="1048.3621"
       gradientUnits="userSpaceOnUse"
       gradientTransform="matrix(1.125,0,0,1.125,4.4530007,-1124.9012)" />
    <linearGradient
       id="blue-gradient-5">
      <stop
         style="stop-color:#054e87;stop-opacity:1"
         offset="0"
         id="stop232" />
      <stop
         style="stop-color:#1d99f3;stop-opacity:1"
         offset="1"
         id="stop234" />
    </linearGradient>
    <linearGradient
       id="b-367"
       y1="517.79999"
       x1="399.57001"
       y2="534.79999"
       x2="416.57001"
       gradientUnits="userSpaceOnUse"
       gradientTransform="matrix(1.4785083,0,0,1.4785083,-572.01587,-742.04721)">
      <stop
         id="stop251" />
      <stop
         offset="1"
         stop-opacity="0"
         id="stop253" />
    </linearGradient>
    <linearGradient
       id="c-53"
       y1="537.79999"
       y2="508.79999"
       gradientUnits="userSpaceOnUse"
       x2="0"
       gradientTransform="matrix(1.4785083,0,0,1.4785083,-572.01587,-742.04721)">
      <stop
         stop-color="#026ddc"
         id="stop256" />
      <stop
         offset="1"
         stop-color="#28b0fd"
         id="stop258" />
    </linearGradient>
    <linearGradient
       inkscape:collect="always"
       xlink:href="#d-5"
       id="linearGradient510"
       gradientUnits="userSpaceOnUse"
       gradientTransform="matrix(1.4785083,0,0,1.4785083,-572.13558,-742.75685)"
       x1="408.64999"
       y1="525.28003"
       x2="416.64999"
       y2="533.28003" />
    <linearGradient
       id="d-5"
       y1="525.28003"
       x1="408.64999"
       y2="533.28003"
       x2="416.64999"
       gradientUnits="userSpaceOnUse"
       gradientTransform="translate(-0.081,-0.48)">
      <stop
         stop-opacity=".065"
         id="stop261" />
      <stop
         offset="1"
         stop-opacity="0"
         id="stop263" />
    </linearGradient>
    <linearGradient
       xlink:href="#d-5"
       id="e-62"
       y1="517.96002"
       x1="417.79001"
       y2="525.90997"
       gradientUnits="userSpaceOnUse"
       x2="426.22"
       gradientTransform="matrix(-1.4785083,0,0,1.4785083,636.2209,-742.75685)" />
  </defs>
  <path
     d="m 2.9999985,10.25 c 0,-4.0041748 3.245938,-7.25 7.2500005,-7.25 h 43.500003 c 4.004173,0 7.249999,3.2458252 7.249999,7.25 v 43.5 c 0,4.004173 -3.245827,7.25 -7.25,7.25 H 10.249999 C 6.2459365,61 2.9999985,57.754173 2.9999985,53.75 Z"
     id="path736"
     style="fill:#606c86;fill-opacity:1;stroke-width:3.625" />
  <path
     d="M 2.9999985,9.796875 C 2.9999985,6.0431877 6.2459365,3 10.249999,3 h 43.500003 c 4.004173,0 7.249999,3.0431877 7.249999,6.796875 v 40.781249 c 0,3.753693 -3.245827,6.796876 -7.25,6.796876 H 10.249999 c -4.0040625,0 -7.2500005,-3.043183 -7.2500005,-6.796876 z"
     id="path738"
     style="fill:#3b4252;fill-opacity:1;stroke-width:3.625" />
  <path
     opacity="0.2"

     fill-rule="evenodd"
     d="M 16.844296,45.27311 32.059618,60.488448 C 40.930692,61.966939 58.348992,44.934533 61.629722,36.83231 L 32.059618,10.219167 Z"
     id="path271"
     style="fill:url(#b-367);stroke-width:1.47852" />
  <path

     d="m 32.058145,10.217695 c -0.137509,-0.003 -0.270576,0.0503 -0.366675,0.149328 -1.376496,1.435632 -2.775157,3.047203 -4.039283,4.581896 -0.001,10e-4 0,0.003 0,0.0057 -3.115209,3.885494 -5.483787,7.877467 -7.198855,12.150354 -1.598262,3.981547 -2.532681,7.422034 -3.382824,12.443047 -0.186296,1.098532 -0.374067,2.430666 -0.504172,3.501106 -0.06518,0.535221 -0.11543,1.005382 -0.143414,1.352837 -0.01489,0.174462 -0.02213,0.316398 -0.02515,0.431724 -0.001,0.05767 0,0.10649 0,0.165592 0,0.02954 0,0.06208 0.02065,0.116829 0.01489,0.05467 0,0.164113 0.220295,0.298658 0.118262,0.07246 0.133021,0.05766 0.162647,0.0651 0.02958,0.0077 0.05176,0.01178 0.07545,0.01626 0.04728,0.0077 0.09754,0.01343 0.155252,0.01921 0.115435,0.01194 0.257256,0.02365 0.408063,0.03252 1.194633,0.06515 2.955529,0.369624 4.123562,0.711159 0.788038,0.230651 1.306999,0.421377 2.077305,0.762914 0.177403,0.07836 0.34153,0.150807 0.462773,0.204035 0.06056,0.02664 0.110868,0.04732 0.147845,0.0621 0.01782,0.0074 0.03406,0.01364 0.04724,0.01923 0.001,10e-4 0.002,0.0021 0.001,0.0021 0,0.0021 0.01489,0.0058 0.02062,0.01018 v -0.0031 c 0,10e-4 0,10e-4 0,0.0021 0.01489,0.0021 0.01489,0.0058 0.02815,0.01018 0,10e-4 0.01489,0.0058 0.01779,0.0074 0,-10e-4 -0.01619,0 -0.01926,-10e-4 0.03405,0.01779 0.07393,0.04138 0.128685,0.07085 0.130156,0.07085 0.308995,0.171505 0.504169,0.280912 1.885098,1.058624 3.294103,2.151234 5.544394,4.308372 0.297181,0.283875 0.572183,0.541141 0.78213,0.731861 0.104976,0.09465 0.192214,0.174472 0.260225,0.232133 0.03407,0.02959 0.06362,0.05326 0.09468,0.07687 0.01489,0.0114 0.03103,0.02369 0.05615,0.04137 0.01489,0.0073 0.02958,0.0178 0.05767,0.03248 0.02958,0.01352 0.05762,0.04135 0.192203,0.04879 0.161156,0.0073 0.193687,-0.02806 0.226216,-0.04291 0.03248,-0.01489 0.0503,-0.02515 0.06359,-0.03407 0.02811,-0.01783 0.04439,-0.02959 0.06056,-0.04297 0.0325,-0.02515 0.06357,-0.0503 0.100598,-0.08129 0.07394,-0.06208 0.170025,-0.147858 0.283872,-0.249872 0.227689,-0.205516 0.529303,-0.483468 0.854573,-0.792481 1.861444,-1.765341 2.763337,-2.511986 4.059989,-3.372479 2.831344,-1.879185 5.353734,-2.711585 9.225974,-3.039818 l 0.31341,-0.02656 c 0.25278,-0.0206 0.44643,-0.232046 0.44643,-0.484871 v -0.183897 c 0,-0.384412 -0.0913,-1.179847 -0.21576,-2.164535 -0.12406,-0.9847 -0.28086,-2.105408 -0.42425,-2.957029 -0.85014,-5.062366 -1.81564,-8.628526 -3.43461,-12.658938 -1.45787,-3.632694 -3.547,-7.300872 -6.042741,-10.621604 0,-0.0073 -0.01489,-0.01488 -0.0178,-0.02214 C 35.787917,14.39474 34.163046,12.30858 32.390315,10.373193 32.301575,10.275653 32.177407,10.219437 32.045824,10.215 Z"
     id="path275"
     style="fill:url(#c-53);stroke-width:1.47852" />
  <path

     d="M 42.792102,25.357611 16.479104,45.268674 c 0.0296,0.04436 0.06208,0.09315 0.150801,0.147857 0.118316,0.07245 0.136015,0.05621 0.164123,0.06356 0.02961,0.0077 0.05175,0.01343 0.07545,0.01778 0.04726,0.0077 0.09908,0.01195 0.155246,0.01778 0.115435,0.01194 0.257263,0.02662 0.406595,0.03403 1.194633,0.06512 2.955531,0.36815 4.123556,0.70969 0.788035,0.230646 1.309957,0.421374 2.078777,0.762906 0.177426,0.07836 0.340056,0.149325 0.462769,0.202565 0.06056,0.0266 0.109442,0.04732 0.147859,0.06356 0.01779,0.0074 0.03247,0.01488 0.04574,0.02061 0.001,0 0.003,0 0.0051,0 l 0.002,0.0021 c 0.0051,0.0021 0.0099,0.0031 0.02063,0.0091 h 0.002 c 0.0073,0.0021 0.0114,0.0031 0.0266,0.0091 0.0057,10e-4 0.0099,0.0074 0.01779,0.0091 -0.003,-10e-4 -0.01489,-10e-4 -0.01779,-0.0021 0.03401,0.01778 0.07243,0.04137 0.127136,0.07246 0.130158,0.07085 0.310488,0.170029 0.505648,0.279441 1.8851,1.058619 3.294119,2.151228 5.544408,4.308372 0.29718,0.283875 0.573662,0.542613 0.78213,0.733336 0.105009,0.09468 0.190723,0.171512 0.260216,0.230649 0.03404,0.02962 0.06362,0.05475 0.09597,0.07839 0.01489,0.01139 0.03103,0.02365 0.05765,0.04004 0.01351,0.0073 0.02811,0.01779 0.05762,0.03104 0.02959,0.01352 0.05615,0.04291 0.190731,0.04879 0.161157,0.0073 0.195167,-0.0281 0.227691,-0.04295 0.03249,-0.01489 0.04879,-0.0266 0.0636,-0.03407 0.02809,-0.01774 0.0444,-0.02812 0.06056,-0.04004 0.03249,-0.02515 0.06358,-0.0503 0.100599,-0.0813 0.07393,-0.06208 0.168553,-0.149322 0.282398,-0.251345 0.227688,-0.205509 0.529308,-0.48347 0.854581,-0.790995 1.861441,-1.76534 2.763329,-2.511989 4.059977,-3.372484 2.831347,-1.879184 5.353647,-2.711583 9.225987,-3.038332 l 0.31191,-0.0266 c 0.25304,-0.02032 0.44818,-0.234761 0.44818,-0.487586 v -0.18248 c 0,-0.384412 -0.0928,-1.181329 -0.21587,-2.166015 -0.12368,-0.984714 -0.28047,-2.105423 -0.42392,-2.957044 -0.85017,-5.06241 -1.81415,-8.628571 -3.43311,-12.660462 -0.22325,-0.555918 -0.48646,-1.111837 -0.73925,-1.669234"
     id="path277"
     style="fill:url(#linearGradient510);fill-rule:evenodd;stroke-width:1.47852" />
  <path

     d="m 21.2946,25.357611 26.313022,19.911063 c -0.0295,0.04436 -0.0621,0.09315 -0.15089,0.147857 -0.11804,0.07245 -0.13598,0.05621 -0.16407,0.06356 -0.0298,0.0077 -0.0514,0.01343 -0.0755,0.01778 -0.0481,0.0077 -0.0995,0.01195 -0.15525,0.01778 -0.11502,0.01194 -0.25724,0.02662 -0.40656,0.03403 -1.19464,0.06512 -2.9556,0.36815 -4.12356,0.70969 -0.78804,0.230646 -1.30999,0.421374 -2.07878,0.762906 -0.17744,0.07836 -0.34007,0.149325 -0.46281,0.202565 -0.0604,0.0266 -0.10941,0.04732 -0.14783,0.06356 -0.0177,0.0074 -0.0326,0.01488 -0.0456,0.02061 -10e-4,0 -0.003,0 -0.005,0 l -0.002,0.0021 c -0.005,0.0021 -0.0104,0.0031 -0.0207,0.0091 h -0.002 c -0.007,0.0021 -0.0115,0.0031 -0.0267,0.0091 -0.005,10e-4 -0.0104,0.0074 -0.0177,0.0091 0.003,-10e-4 0.0149,-10e-4 0.0177,-0.0021 -0.0341,0.01778 -0.0724,0.04137 -0.12716,0.07246 -0.13015,0.07085 -0.31047,0.170029 -0.50564,0.279441 -1.885101,1.058619 -3.29412,2.151228 -5.544402,4.308372 -0.29718,0.283875 -0.573665,0.542613 -0.782134,0.733336 -0.104966,0.09468 -0.190728,0.171512 -0.26022,0.230649 -0.03406,0.02962 -0.06358,0.05475 -0.09597,0.07839 -0.01489,0.01139 -0.03102,0.02365 -0.05764,0.04004 -0.01352,0.0073 -0.02807,0.01779 -0.05766,0.03104 -0.02961,0.01352 -0.05617,0.04291 -0.190729,0.04879 -0.161158,0.0073 -0.195162,-0.0281 -0.227688,-0.04295 -0.03248,-0.01489 -0.04878,-0.0266 -0.06361,-0.03407 -0.02809,-0.01774 -0.04441,-0.02812 -0.06056,-0.04004 -0.03249,-0.02515 -0.06359,-0.0503 -0.100598,-0.0813 -0.07401,-0.06192 -0.168614,-0.149155 -0.282457,-0.251178 -0.228334,-0.205378 -0.529955,-0.483342 -0.855227,-0.790867 -1.861441,-1.765343 -2.76332,-2.511988 -4.059981,-3.372483 -2.831575,-1.879238 -5.353907,-2.71164 -9.226113,-3.03839 l -0.312335,-0.02684 c -0.253111,-0.021 -0.448267,-0.235379 -0.448267,-0.488204 v -0.181925 c 0,-0.384416 0.09305,-1.181332 0.215853,-2.166017 0.124236,-0.984689 0.280921,-2.105395 0.424345,-2.957016 0.850141,-5.06241 1.814124,-8.628571 3.433088,-12.660462 0.223257,-0.555918 0.486419,-1.111838 0.739244,-1.669235"
     id="path279"
     style="fill:url(#e-62);fill-rule:evenodd;stroke-width:1.47852" />
</svg>
