<?xml version="1.0" encoding="UTF-8" standalone="no"?>
<svg
   height="64"
   width="64"
   version="1.1"
   id="svg37943"
   sodipodi:docname="system-file-manager_su.svg"
   inkscape:version="1.4 (e7c3feb100, 2024-10-09)"
   xmlns:inkscape="http://www.inkscape.org/namespaces/inkscape"
   xmlns:sodipodi="http://sodipodi.sourceforge.net/DTD/sodipodi-0.dtd"
   xmlns:xlink="http://www.w3.org/1999/xlink"
   xmlns="http://www.w3.org/2000/svg"
   xmlns:svg="http://www.w3.org/2000/svg">
  <defs
     id="defs37947">
    <linearGradient
       inkscape:collect="always"
       xlink:href="#linearGradient22063-0"
       id="linearGradient22065-6"
       x1="-22"
       y1="5.1111121"
       x2="-6.4444442"
       y2="-9.1111107"
       gradientUnits="userSpaceOnUse"
       gradientTransform="matrix(3.6250002,0,0,3.6250002,82.750001,39.249999)" />
    <linearGradient
       inkscape:collect="always"
       id="linearGradient22063-0">
      <stop
         style="stop-color:#d63384;stop-opacity:1"
         offset="0"
         id="stop22059-6" />
      <stop
         style="stop-color:#81a1c1;stop-opacity:1;"
         offset="1"
         id="stop22061-2" />
    </linearGradient>
    <linearGradient
       id="linearGradient38749"
       gradientUnits="userSpaceOnUse"
       x1="388.57001"
       x2="398.57001"
       y1="504.79999"
       y2="514.79999"
       gradientTransform="translate(-358.36102,-516.86674)">
      <stop
         offset="0"
         stop-color="#383e51"
         id="stop37921-7" />
      <stop
         offset="1"
         stop-color="#655c6f"
         stop-opacity="0"
         id="stop37923-6" />
    </linearGradient>
    <linearGradient
       id="c-4"
       gradientTransform="matrix(4.2,0,0,4.2,-1675.594,-2180.357)"
       gradientUnits="userSpaceOnUse"
       x2="0"
       y1="531.79999"
       y2="515.79999">
      <stop
         offset="0"
         stop-color="#f5955f"
         id="stop37926-3"
         style="stop-color:#eceff4;stop-opacity:1;" />
      <stop
         offset="1"
         stop-color="#facebe"
         id="stop37928-0" />
    </linearGradient>
    <linearGradient
       inkscape:collect="always"
       xlink:href="#b"
       id="linearGradient38965"
       gradientUnits="userSpaceOnUse"
       gradientTransform="translate(-239.5511,-524.59985)"
       x1="388.57001"
       y1="504.79999"
       x2="398.57001"
       y2="514.79999" />
    <linearGradient
       id="b-2"
       gradientUnits="userSpaceOnUse"
       x1="389.57001"
       x2="398.57001"
       y1="505.79999"
       y2="514.79999"
       gradientTransform="matrix(4.7333337,0,0,4.7333337,-1824.9314,-2375.7191)">
      <stop
         offset="0"
         stop-color="#383e51"
         id="stop41746" />
      <stop
         offset="1"
         stop-color="#655c6f"
         stop-opacity="0"
         id="stop41748" />
    </linearGradient>
    <linearGradient
       id="c-2"
       gradientUnits="userSpaceOnUse"
       x1="364.02151"
       x2="364.02151"
       y1="511.8006"
       y2="504.7952"
       gradientTransform="matrix(4.7333337,0,0,4.7333337,-1824.9314,-2375.7191)">
      <stop
         offset="0"
         stop-color="#a0aab4"
         id="stop41751" />
      <stop
         offset="1"
         stop-color="#d8dce0"
         id="stop41753" />
    </linearGradient>
    <linearGradient
       id="c-3"
       gradientUnits="userSpaceOnUse"
       x1="16"
       x2="32"
       y1="16"
       y2="32"
       gradientTransform="matrix(1.4313095,0,0,1.4313095,-2.8898245,-6.1594402)">
      <stop
         offset="0"
         stop-color="#383e51"
         id="stop174" />
      <stop
         offset="1"
         stop-color="#655c6f"
         stop-opacity="0"
         id="stop176" />
    </linearGradient>
    <linearGradient
       id="b-6"
       gradientTransform="matrix(1.4313095,0,0,1.4313095,14.285887,14.834447)"
       gradientUnits="userSpaceOnUse"
       x2="0"
       y1="20"
       y2="4">
      <stop
         offset="0"
         stop-color="#60c0f4"
         id="stop169" />
      <stop
         offset="1"
         stop-color="#b9e9ff"
         id="stop171" />
    </linearGradient>
  </defs>
  <sodipodi:namedview
     id="namedview37945"
     pagecolor="#ffffff"
     bordercolor="#666666"
     borderopacity="1.0"
     inkscape:showpageshadow="2"
     inkscape:pageopacity="0.0"
     inkscape:pagecheckerboard="0"
     inkscape:deskcolor="#d1d1d1"
     showgrid="false"
     inkscape:zoom="5.462283"
     inkscape:cx="18.765048"
     inkscape:cy="19.771952"
     inkscape:window-width="1920"
     inkscape:window-height="994"
     inkscape:window-x="0"
     inkscape:window-y="0"
     inkscape:window-maximized="1"
     inkscape:current-layer="svg37943" />
  <linearGradient
     id="a"
     gradientTransform="matrix(0.72727,0,0,0.68966,-238.8241,-522.66885)"
     gradientUnits="userSpaceOnUse"
     x2="0"
     y1="785.71002"
     y2="727.71002">
    <stop
       offset="0"
       stop-color="#f27935"
       id="stop37916" />
    <stop
       offset="1"
       stop-color="#f2784b"
       id="stop37918" />
  </linearGradient>
  <linearGradient
     id="b"
     gradientUnits="userSpaceOnUse"
     x1="388.57001"
     x2="398.57001"
     y1="504.79999"
     y2="514.79999"
     gradientTransform="translate(-358.36102,-516.86674)">
    <stop
       offset="0"
       stop-color="#383e51"
       id="stop37921" />
    <stop
       offset="1"
       stop-color="#655c6f"
       stop-opacity="0"
       id="stop37923" />
  </linearGradient>
  <linearGradient
     id="c"
     gradientTransform="translate(-253.55109,-542.59985)"
     gradientUnits="userSpaceOnUse"
     x2="0"
     y1="531.79999"
     y2="515.79999">
    <stop
       offset="0"
       stop-color="#f5955f"
       id="stop37926" />
    <stop
       offset="1"
       stop-color="#facebe"
       id="stop37928" />
  </linearGradient>
  <path
     d="m 147.0189,-24.799855 v 16 h 12 v -10.50001 l -5.49999,-5.49999 z"
     fill="url(#a)"
     id="path37931"
     style="fill:url(#a)" />
  <path
     d="m 147.01891,-9.799865 h 12 v 1.00001 h -12 z"
     fill="#2e3132"
     fill-opacity="0.294"
     id="path37933" />
  <path
     d="m 159.0189,-20.799855 v -4 h -4 z"
     fill="#b86333"
     id="path37935" />
  <path
     d="m 149.0189,-19.799855 v 6 l 1,1 v 1 l 2,2 h 7 v -8 l -2,-2 z"
     fill="url(#b)"
     fill-rule="evenodd"
     opacity="0.2"
     id="path37937"
     style="fill:url(#linearGradient38965)" />
  <path
     d="m 149.0189,-19.799855 v 6 h 3 v 1 h -2 v 1 h 6 v -1 h -2 v -1 h 3 v -6 z m 1,1 h 6 v 4 h -6 z"
     id="path37939"
     style="fill:url(#c)" />
  <path
     d="m 2.9999985,10.25 c 0,-4.004175 3.245938,-7.25 7.2500005,-7.25 h 43.500003 c 4.004173,0 7.25,3.245825 7.25,7.25 v 43.5 c 0,4.004173 -3.245827,7.25 -7.25,7.25 H 10.249999 C 6.2459365,61 2.9999985,57.754173 2.9999985,53.75 Z"
     id="path736-7"
     style="fill:#d2d6df;fill-opacity:1;stroke-width:3.625" />
  <path
     d="M 2.9999985,9.796875 C 2.9999985,6.043188 6.2459365,3 10.249999,3 h 43.500003 c 4.004173,0 7.25,3.043188 7.25,6.796875 v 40.781249 c 0,3.753693 -3.245827,6.796876 -7.25,6.796876 H 10.249999 c -4.0040625,0 -7.2500005,-3.043183 -7.2500005,-6.796876 z"
     id="path738-9"
     style="fill:url(#linearGradient22065-6);fill-opacity:1;stroke-width:3.625" />
  <path
     d="M 61,17 47,3 h 4 l 10,10 z"
     fill-opacity="1.0"
     id="path28942-8-8"
     style="fill:#d63384;fill-opacity:1;stroke-width:1.34206"
     sodipodi:nodetypes="ccccc" />
  <path
     d="M 51.142522,23.747513 C 51.217342,22.012189 49.567268,20.224974 48.896067,19.576939 45.186333,9.0509599 31.866623,12.730396 29.265823,13.566044 22.489312,8.7372159 17.269599,13.879828 17.222865,13.931025 c -0.251305,0.249701 -0.36315,0.640325 -0.288847,1.01365 0.07472,0.364979 0.326585,0.658295 0.652635,0.762649 2.088077,0.66918 3.663291,2.937917 4.324847,4.035473 -4.865527,6.38613 -5.042569,15.489903 -4.996024,17.832283 -6.068158,5.633738 -4.147921,11.435289 -4.054887,11.685667 0.130557,0.365097 0.428913,0.627517 0.783143,0.658253 0.02548,0 0.05636,0 0.08329,0 0.317143,0 0.624761,-0.192079 0.79247,-0.499454 1.10927,-2.006198 2.498215,-3.219012 4.119952,-3.60577 2.898711,-0.689671 5.713726,1.411306 5.741705,1.431796 0.21415,0.16654 0.484645,0.230453 0.745548,0.153635 0.251968,-0.07688 0.475253,-0.262511 0.596469,-0.525069 1.463273,-3.020511 -0.801712,-6.867069 -1.640714,-8.131737 1.071748,-5.101637 3.700505,-8.059391 5.760265,-9.65833 l -0.419159,0.781861 c -0.130597,0.262589 -0.167734,0.563499 -0.0845,0.846539 0.07458,0.294526 0.261206,0.525116 0.50362,0.648055 0.913236,0.448251 2.190281,0.493077 3.812352,0.115235 1.351814,-0.326669 2.656653,-1.107793 3.775208,-2.268072 1.463242,-1.504831 3.094697,-1.620102 3.094697,-1.620102 h 9.265409 c 0.214412,0 0.410161,-0.08332 0.577873,-0.217786 0.792463,-0.700515 1.015932,-1.463816 1.071719,-1.985691 0.07533,-0.691591 -0.120139,-1.276855 -0.297251,-1.653376 z M 44.58984,22.618579 h -0.512774 c -0.512749,0 -0.932324,-0.467426 -0.932324,-1.045678 0,-0.576319 0.419434,-1.045668 0.932324,-1.045668 h 0.512774 c 0.521967,0 0.932232,0.467425 0.932232,1.045668 0,0.576324 -0.41002,1.045678 -0.932232,1.045678 z"
     id="path49"
     style="fill:#ffffff;fill-opacity:1;stroke-width:0.0969466" />
</svg>
