<?xml version="1.0" encoding="UTF-8" standalone="no"?>
<svg
   width="64"
   height="64"
   viewBox="0 0 64 64"
   version="1.1"
   id="svg52"
   sodipodi:docname="truecrypt.svg"
   inkscape:version="1.2.1 (9c6d41e410, 2022-07-14)"
   xmlns:inkscape="http://www.inkscape.org/namespaces/inkscape"
   xmlns:sodipodi="http://sodipodi.sourceforge.net/DTD/sodipodi-0.dtd"
   xmlns:xlink="http://www.w3.org/1999/xlink"
   xmlns="http://www.w3.org/2000/svg"
   xmlns:svg="http://www.w3.org/2000/svg">
  <sodipodi:namedview
     id="namedview54"
     pagecolor="#ffffff"
     bordercolor="#000000"
     borderopacity="1"
     inkscape:pageshadow="0"
     inkscape:pageopacity="0"
     inkscape:pagecheckerboard="0"
     showgrid="false"
     inkscape:zoom="5.2604167"
     inkscape:cx="36.308911"
     inkscape:cy="41.346534"
     inkscape:window-width="1920"
     inkscape:window-height="1008"
     inkscape:window-x="0"
     inkscape:window-y="0"
     inkscape:window-maximized="1"
     inkscape:current-layer="svg52"
     inkscape:showpageshadow="2"
     inkscape:deskcolor="#cccccc" />
  <defs
     id="defs32">
    <linearGradient
       xlink:href="#linearGradient4393"
       id="linearGradient4399"
       x1="424.44101"
       y1="502.85001"
       x2="440.87799"
       y2="529.57599"
       gradientUnits="userSpaceOnUse"
       gradientTransform="matrix(0.69224711,0,0,0.69224711,-215.22899,-357.13539)" />
    <linearGradient
       id="linearGradient4393">
      <stop
         style="stop-color:#000000;stop-opacity:1;"
         offset="0"
         id="stop3" />
      <stop
         style="stop-color:#000000;stop-opacity:0;"
         offset="1"
         id="stop5" />
    </linearGradient>
    <linearGradient
       xlink:href="#linearGradient4274"
       id="linearGradient4217"
       gradientUnits="userSpaceOnUse"
       gradientTransform="matrix(0.69224711,0,0,0.69224711,-199.3073,1639.8968)"
       x1="390.57101"
       y1="498.298"
       x2="442.57101"
       y2="498.298" />
    <linearGradient
       id="linearGradient4274">
      <stop
         offset="0"
         style="stop-color:#ffffff;stop-opacity:1;"
         id="stop9" />
      <stop
         offset="1"
         style="stop-color:#ffffff;stop-opacity:0.48760331"
         id="stop11" />
    </linearGradient>
    <linearGradient
       xlink:href="#linearGradient4227"
       id="linearGradient4225"
       gradientUnits="userSpaceOnUse"
       x1="396.57101"
       y1="498.798"
       x2="426.57101"
       y2="511.798"
       gradientTransform="matrix(0.69224711,0,0,0.69224711,-199.3073,-360.21214)" />
    <linearGradient
       id="linearGradient4227">
      <stop
         offset="0"
         style="stop-color:#f5f5f5;stop-opacity:1"
         id="stop21" />
      <stop
         offset="1"
         style="stop-color:#f9f9f9;stop-opacity:1"
         id="stop23" />
    </linearGradient>
    <style
       id="current-color-scheme"
       type="text/css">      .ColorScheme-Highlight {
        color:#3593e6;
      }
</style>
    <linearGradient
       id="d"
       gradientUnits="userSpaceOnUse"
       x1="4"
       x2="18.999998"
       xlink:href="#c"
       y1="5"
       y2="20"
       gradientTransform="matrix(2.7999616,0,0,2.7999616,1.095156,-2.3992319)" />
    <linearGradient
       id="c">
      <stop
         offset="0"
         stop-color="#292c2f"
         id="stop265" />
      <stop
         offset="1"
         stop-opacity="0"
         id="stop267" />
    </linearGradient>
    <linearGradient
       id="b"
       gradientUnits="userSpaceOnUse"
       x1="13.280776"
       x2="28.280775"
       xlink:href="#c"
       y1="5.088388"
       y2="20.088388"
       gradientTransform="matrix(2.7999616,0,0,2.7999616,1.095156,-2.3992319)" />
    <linearGradient
       id="c-3"
       gradientUnits="userSpaceOnUse"
       x1="5"
       x2="5"
       y1="20"
       y2="7"
       gradientTransform="matrix(3.4390082,0,0,3.4390082,-5.8290972,-4.015561)">
      <stop
         offset="0"
         stop-color="#999a9c"
         id="stop164" />
      <stop
         offset="1"
         stop-color="#f4f5f5"
         id="stop166" />
    </linearGradient>
    <linearGradient
       id="a"
       y1="44"
       y2="4"
       x2="0"
       gradientUnits="userSpaceOnUse">
      <stop
         stop-color="#7cbaf8"
         id="stop152" />
      <stop
         offset="1"
         stop-color="#f4fcff"
         id="stop154" />
    </linearGradient>
    <linearGradient
       id="b-3"
       y1="39"
       y2="9"
       gradientUnits="userSpaceOnUse"
       x2="0"
       gradientTransform="matrix(1.02857,0,0,1.2,-5.314,-2013.52)">
      <stop
         stop-color="#197cf1"
         id="stop157" />
      <stop
         offset="1"
         stop-color="#20bcfa"
         id="stop159" />
    </linearGradient>
    <linearGradient
       xlink:href="#c-7"
       id="d-6"
       y1="18.26"
       x1="14.59"
       y2="40.439999"
       x2="36.060001"
       gradientUnits="userSpaceOnUse" />
    <linearGradient
       id="c-7"
       y1="13.01"
       x1="25.040001"
       y2="30.26"
       x2="42.990002"
       gradientUnits="userSpaceOnUse">
      <stop
         stop-color="#292c2f"
         id="stop162" />
      <stop
         offset="1"
         stop-color="#292c2f"
         stop-opacity="0"
         id="stop164-5" />
    </linearGradient>
    <linearGradient
       id="a-3"
       y1="61.200001"
       x1="-162.28999"
       y2="505.06"
       gradientUnits="userSpaceOnUse"
       x2="737.63"
       gradientTransform="matrix(0.07988963,0.02495102,-0.02223702,0.07119775,13.078816,2.4457071)">
      <stop
         stop-color="#fafafa"
         id="stop272" />
      <stop
         offset="1"
         stop-color="#939393"
         id="stop274" />
    </linearGradient>
    <linearGradient
       id="b-6"
       y1="41"
       x1="41"
       y2="18.25"
       x2="21.129999"
       gradientUnits="userSpaceOnUse"
       gradientTransform="matrix(1.2224895,0,0,1.2224895,2.7878998,4.0691761)">
      <stop
         stop-color="#502ae3"
         id="stop277" />
      <stop
         offset="1"
         stop-color="#4db4f6"
         id="stop279" />
    </linearGradient>
    <linearGradient
       spreadMethod="reflect"
       id="a-36"
       x1="428.57001"
       x2="408.57001"
       gradientUnits="userSpaceOnUse"
       gradientTransform="matrix(1.1250004,0,0,1.1250004,-427.64144,-557.27525)">
      <stop
         stop-color="#2f3943"
         id="stop172" />
      <stop
         offset="1"
         stop-color="#808c9b"
         id="stop174" />
    </linearGradient>
    <linearGradient
       id="b-7"
       y1="-511.20001"
       x1="-395.07001"
       y2="-535.79999"
       x2="-419.67001"
       gradientUnits="userSpaceOnUse"
       gradientTransform="matrix(1.1250004,0,0,1.1250004,427.64142,557.27525)">
      <stop
         stop-color="#18222a"
         id="stop177" />
      <stop
         offset="1"
         stop-color="#566069"
         id="stop179" />
    </linearGradient>
    <linearGradient
       id="c-5"
       y1="-514"
       x1="-398.07001"
       y2="-533.13"
       x2="-417.20001"
       gradientUnits="userSpaceOnUse">
      <stop
         stop-color="#b97c1b"
         id="stop182" />
      <stop
         offset="1"
         stop-color="#dc8f16"
         id="stop184" />
    </linearGradient>
    <linearGradient
       xlink:href="#c-5"
       id="g"
       y1="-516.79999"
       x1="-401.07001"
       y2="-541.29999"
       x2="-425.57001"
       gradientUnits="userSpaceOnUse"
       gradientTransform="matrix(1.1250004,0,0,1.1250004,427.64142,557.27525)" />
    <linearGradient
       id="d-3"
       y1="536.87"
       x1="421.64001"
       y2="511.82001"
       gradientUnits="userSpaceOnUse"
       x2="396.59"
       gradientTransform="rotate(180,408.57,523.8)">
      <stop
         stop-color="#f39c12"
         id="stop187" />
      <stop
         offset="1"
         stop-color="#f5ab35"
         id="stop189" />
    </linearGradient>
    <linearGradient
       xlink:href="#d-3"
       id="e"
       y1="532.22998"
       x1="417"
       y2="508.73001"
       gradientUnits="userSpaceOnUse"
       x2="393.5"
       gradientTransform="matrix(-1.1250004,0,0,-1.1250004,491.64142,621.27527)" />
    <linearGradient
       xlink:href="#d-3"
       id="f"
       y1="529.62"
       x1="414.39999"
       y2="506.91"
       gradientUnits="userSpaceOnUse"
       x2="391.69"
       gradientTransform="matrix(-1.1250004,0,0,-1.1250004,491.64142,621.27527)" />
    <linearGradient
       id="b-67"
       y1="42"
       x1="42"
       y2="6"
       x2="6"
       gradientUnits="userSpaceOnUse"
       gradientTransform="matrix(1.0714267,0,0,1.0714267,5.985306,6.0733032)">
      <stop
         stop-color="#989a9b"
         id="stop2404" />
      <stop
         offset="1"
         stop-color="#f6f6f7"
         id="stop2406" />
    </linearGradient>
    <linearGradient
       id="a-5"
       y1="542.79999"
       y2="503.79999"
       x2="0"
       gradientUnits="userSpaceOnUse">
      <stop
         stop-color="#2a2c2f"
         id="stop2399" />
      <stop
         offset="1"
         stop-color="#424649"
         id="stop2401" />
    </linearGradient>
    <linearGradient
       xlink:href="#a-5"
       id="f-3"
       x1="391.57001"
       x2="461.20001"
       gradientUnits="userSpaceOnUse"
       gradientTransform="matrix(1.0714268,0,0,1.0714268,-392.86616,-561.15098)" />
    <linearGradient
       id="linearGradient2623"
       y1="542.79999"
       y2="503.79999"
       x2="0"
       gradientUnits="userSpaceOnUse">
      <stop
         stop-color="#2a2c2f"
         id="stop2619" />
      <stop
         offset="1"
         stop-color="#424649"
         id="stop2621" />
    </linearGradient>
    <linearGradient
       id="c-56"
       y1="523.79999"
       y2="549.79999"
       x2="0"
       gradientUnits="userSpaceOnUse"
       gradientTransform="matrix(0.70711,-0.70711,0.70711,0.70711,-635.28,-57.48)">
      <stop
         id="stop2409" />
      <stop
         offset="1"
         stop-opacity="0"
         id="stop2411" />
    </linearGradient>
    <linearGradient
       xlink:href="#a-5"
       id="e-2"
       y1="543.79999"
       x1="428.57001"
       y2="503.79999"
       x2="388.57001"
       gradientUnits="userSpaceOnUse"
       gradientTransform="matrix(1.0714267,0,0,1.0714267,-406.05328,-529.42577)" />
    <linearGradient
       id="linearGradient2634"
       y1="542.79999"
       y2="503.79999"
       x2="0"
       gradientUnits="userSpaceOnUse">
      <stop
         stop-color="#2a2c2f"
         id="stop2630" />
      <stop
         offset="1"
         stop-color="#424649"
         id="stop2632" />
    </linearGradient>
    <linearGradient
       xlink:href="#c-56"
       id="d-9"
       y1="520.94"
       x1="410.88"
       y2="532.63"
       x2="422.57001"
       gradientUnits="userSpaceOnUse"
       gradientTransform="matrix(1.0714267,0,0,1.0714267,-406.05328,-529.42577)" />
    <linearGradient
       id="linearGradient2641"
       y1="523.79999"
       y2="549.79999"
       x2="0"
       gradientUnits="userSpaceOnUse"
       gradientTransform="matrix(0.70711,-0.70711,0.70711,0.70711,-635.28,-57.48)">
      <stop
         id="stop2637" />
      <stop
         offset="1"
         stop-opacity="0"
         id="stop2639" />
    </linearGradient>
    <linearGradient
       id="b-36"
       y1="55.41"
       x1="41.528"
       y2="25.511"
       x2="24.264999"
       gradientUnits="userSpaceOnUse"
       gradientTransform="matrix(1.1476153,0,0,1.1476153,4.2035556,4.7445357)">
      <stop
         stop-color="#f7bb5d"
         id="stop217" />
      <stop
         offset="1"
         stop-color="#fce3bc"
         id="stop219" />
    </linearGradient>
    <linearGradient
       id="a-7"
       y1="542.79999"
       y2="503.79999"
       x2="0"
       gradientUnits="userSpaceOnUse">
      <stop
         stop-color="#f39c12"
         id="stop212" />
      <stop
         offset="1"
         stop-color="#f5ab35"
         id="stop214" />
    </linearGradient>
    <linearGradient
       xlink:href="#a-7"
       id="f-5"
       x1="391.57001"
       x2="461.20001"
       gradientUnits="userSpaceOnUse"
       gradientTransform="matrix(1.1476155,0,0,1.1476155,-423.60847,-600.73822)" />
    <linearGradient
       id="linearGradient544"
       y1="542.79999"
       y2="503.79999"
       x2="0"
       gradientUnits="userSpaceOnUse">
      <stop
         stop-color="#f39c12"
         id="stop540" />
      <stop
         offset="1"
         stop-color="#f5ab35"
         id="stop542" />
    </linearGradient>
    <linearGradient
       id="c-35"
       y1="523.79999"
       y2="549.79999"
       x2="0"
       gradientUnits="userSpaceOnUse"
       gradientTransform="matrix(0.70711,-0.70711,0.70711,0.70711,-635.28,-57.48)">
      <stop
         id="stop222" />
      <stop
         offset="1"
         stop-opacity="0"
         id="stop224" />
    </linearGradient>
    <linearGradient
       id="e-6"
       y1="543.79999"
       x1="428.57001"
       y2="503.79999"
       x2="388.57001"
       gradientUnits="userSpaceOnUse"
       gradientTransform="matrix(1.1476153,0,0,1.1476153,-437.13484,-568.83357)">
      <stop
         stop-color="#f39c12"
         id="stop228" />
      <stop
         offset="1"
         stop-color="#ffc35a"
         id="stop230" />
    </linearGradient>
    <linearGradient
       xlink:href="#c-35"
       id="d-2"
       y1="520.94"
       x1="410.88"
       y2="532.63"
       x2="422.57001"
       gradientUnits="userSpaceOnUse"
       gradientTransform="matrix(1.1476153,0,0,1.1476153,-437.13484,-568.83357)" />
    <linearGradient
       id="linearGradient558"
       y1="523.79999"
       y2="549.79999"
       x2="0"
       gradientUnits="userSpaceOnUse"
       gradientTransform="matrix(0.70711,-0.70711,0.70711,0.70711,-635.28,-57.48)">
      <stop
         id="stop554" />
      <stop
         offset="1"
         stop-opacity="0"
         id="stop556" />
    </linearGradient>
    <linearGradient
       xlink:href="#shadow-3"
       id="linearGradient4227-3"
       gradientUnits="userSpaceOnUse"
       gradientTransform="matrix(1.125,0,0,1.125,-13.26575,-1126.5888)"
       x1="21.475"
       y1="1035.158"
       x2="34.474998"
       y2="1048.158" />
    <linearGradient
       id="shadow-3">
      <stop
         style="stop-color:#31363b;stop-opacity:0.208"
         offset="0"
         id="stop237" />
      <stop
         style="stop-color:#31363b;stop-opacity:0;"
         offset="1"
         id="stop239" />
    </linearGradient>
    <linearGradient
       xlink:href="#shadow-3"
       id="linearGradient4381"
       gradientUnits="userSpaceOnUse"
       gradientTransform="matrix(1.125,0,0,1.125,1.2239067,-1126.2178)"
       x1="21.969"
       y1="1035.3621"
       x2="35.969002"
       y2="1049.3621" />
    <linearGradient
       xlink:href="#shadow-3"
       id="linearGradient4377"
       gradientUnits="userSpaceOnUse"
       gradientTransform="matrix(1.125,0,0,1.125,-2.6679633,-1130.3599)"
       x1="21.084999"
       y1="1036.975"
       x2="35.969002"
       y2="1049.3621" />
    <linearGradient
       xlink:href="#shadow-3"
       id="linearGradient4203"
       gradientUnits="userSpaceOnUse"
       x1="23"
       y1="1035.3621"
       x2="36"
       y2="1048.3621"
       gradientTransform="matrix(1.125,0,0,1.125,19.078005,-1144.0262)" />
    <linearGradient
       xlink:href="#shadow-3"
       id="linearGradient4199"
       x1="21.969"
       y1="1035.3621"
       x2="35.969002"
       y2="1049.3621"
       gradientUnits="userSpaceOnUse"
       gradientTransform="matrix(1.125,0,0,1.125,15.703003,-1140.6512)" />
    <linearGradient
       xlink:href="#shadow-3"
       id="linearGradient4373"
       gradientUnits="userSpaceOnUse"
       gradientTransform="matrix(1.125,0,0,1.125,11.178623,-1144.604)"
       x1="21.084999"
       y1="1036.975"
       x2="35.969002"
       y2="1049.3621" />
    <linearGradient
       xlink:href="#blue-gradient-5"
       id="linearGradient4351"
       x1="24"
       y1="1008.362"
       x2="24"
       y2="1048.3621"
       gradientUnits="userSpaceOnUse"
       gradientTransform="matrix(1.125,0,0,1.125,4.4530007,-1124.9012)" />
    <linearGradient
       id="blue-gradient-5">
      <stop
         style="stop-color:#054e87;stop-opacity:1"
         offset="0"
         id="stop232" />
      <stop
         style="stop-color:#1d99f3;stop-opacity:1"
         offset="1"
         id="stop234" />
    </linearGradient>
    <linearGradient
       id="b-367"
       y1="517.79999"
       x1="399.57001"
       y2="534.79999"
       x2="416.57001"
       gradientUnits="userSpaceOnUse"
       gradientTransform="matrix(1.4785083,0,0,1.4785083,-572.01587,-742.04721)">
      <stop
         id="stop251" />
      <stop
         offset="1"
         stop-opacity="0"
         id="stop253" />
    </linearGradient>
    <linearGradient
       id="c-53"
       y1="537.79999"
       y2="508.79999"
       gradientUnits="userSpaceOnUse"
       x2="0"
       gradientTransform="matrix(1.4785083,0,0,1.4785083,-572.01587,-742.04721)">
      <stop
         stop-color="#026ddc"
         id="stop256" />
      <stop
         offset="1"
         stop-color="#28b0fd"
         id="stop258" />
    </linearGradient>
    <linearGradient
       id="d-5"
       y1="525.28003"
       x1="408.64999"
       y2="533.28003"
       x2="416.64999"
       gradientUnits="userSpaceOnUse"
       gradientTransform="translate(-0.081,-0.48)">
      <stop
         stop-opacity=".065"
         id="stop261" />
      <stop
         offset="1"
         stop-opacity="0"
         id="stop263" />
    </linearGradient>
    <linearGradient
       xlink:href="#d-5"
       id="e-62"
       y1="517.96002"
       x1="417.79001"
       y2="525.90997"
       gradientUnits="userSpaceOnUse"
       x2="426.22"
       gradientTransform="matrix(-1.4785083,0,0,1.4785083,636.2209,-742.75685)" />
    <linearGradient
       gradientTransform="matrix(1.124911,0,0,1.124911,-427.53921,-558.47602)"
       xlink:href="#1"
       id="0"
       x1="417.634"
       y1="540.79901"
       x2="399.646"
       y2="500.89301"
       gradientUnits="userSpaceOnUse" />
    <linearGradient
       id="1">
      <stop
         stop-color="#105be2"
         style="stop-color:#2579b0;stop-opacity:1"
         id="stop262" />
      <stop
         offset="1"
         stop-color="#26dbfc"
         style="stop-color:#7cbfec;stop-opacity:1"
         id="stop264" />
    </linearGradient>
    <linearGradient
       xlink:href="#linearGradient4393"
       id="linearGradient4185"
       x1="20"
       y1="16"
       x2="36"
       y2="32"
       gradientUnits="userSpaceOnUse"
       gradientTransform="matrix(1.124911,0,0,1.124911,5.069376,3.752105)" />
    <linearGradient
       xlink:href="#linearGradient4165"
       id="linearGradient4171"
       x1="19"
       y1="12"
       x2="29"
       y2="36"
       gradientUnits="userSpaceOnUse"
       gradientTransform="matrix(1.124911,0,0,1.124911,5.069376,3.752105)" />
    <linearGradient
       id="linearGradient4165">
      <stop
         style="stop-color:#ffffff;stop-opacity:1;"
         offset="0"
         id="stop256-7" />
      <stop
         style="stop-color:#7cafec;stop-opacity:1"
         offset="1"
         id="stop258-5" />
    </linearGradient>
    <linearGradient
       xlink:href="#1-6"
       id="0-3"
       y1="543.79797"
       x2="0"
       y2="503.798"
       gradientUnits="userSpaceOnUse"
       gradientTransform="matrix(1.125,0,0,1.125,-427.68132,-557.57706)" />
    <linearGradient
       id="1-6">
      <stop
         stop-color="#197cf1"
         id="stop260" />
      <stop
         offset="1"
         stop-color="#20bcfa"
         id="stop262-7" />
    </linearGradient>
  </defs>
  <path
     d="m 2.9999985,10.25 c 0,-4.0041748 3.245938,-7.25 7.2500005,-7.25 h 43.500003 c 4.004173,0 7.249999,3.2458252 7.249999,7.25 v 43.5 c 0,4.004173 -3.245827,7.25 -7.25,7.25 H 10.249999 C 6.2459365,61 2.9999985,57.754173 2.9999985,53.75 Z"
     id="path736"
     style="fill:#606c86;fill-opacity:1;stroke-width:3.625" />
  <path
     d="M 2.9999985,9.796875 C 2.9999985,6.0431877 6.2459365,3 10.249999,3 h 43.500003 c 4.004173,0 7.249999,3.0431877 7.249999,6.796875 v 40.781249 c 0,3.753693 -3.245827,6.796876 -7.25,6.796876 H 10.249999 c -4.0040625,0 -7.2500005,-3.043183 -7.2500005,-6.796876 z"
     id="path738"
     style="fill:#3b4252;fill-opacity:1;stroke-width:3.625" />
  <path
     d="m 31.961018,9.1958045 c -12.464995,0 -22.500005,10.0350095 -22.500005,22.4999995 0,12.464989 10.03501,22.5 22.500005,22.5 12.46499,0 22.5,-10.035011 22.5,-22.5 0,-12.46499 -10.03501,-22.4999995 -22.5,-22.4999995 z"
     fill="url(#0)"
     id="path267"
     style="fill:url(#0-3);stroke-width:1.125" />
  <path
     d="m 9.4742,31.695804 c -0.004,0.183139 -0.0132,0.365063 -0.0132,0.549316 0,12.160968 10.03501,21.950684 22.500038,21.950684 12.46499,0 22.5,-9.789716 22.5,-21.950684 0,-0.184253 -0.008,-0.366188 -0.0134,-0.549316 -0.29718,11.904773 -10.21034,21.401368 -22.48678,21.401368 -12.276526,0 -22.189645,-9.496595 -22.48684,-21.401368 z"
     opacity="0.15"
     id="path269"
     style="stroke-width:1.125" />
  <path
     d="m 26.771068,14.010012 c -0.523733,0 -0.971141,0.182325 -1.340328,0.551519 -0.369189,0.371334 -0.553716,0.818736 -0.553716,1.340329 0,0.521591 0.184527,0.968891 0.553716,1.335932 0.113755,0.115913 0.236002,0.215023 0.366938,0.294441 0.287635,0.17601 0.612784,0.26367 0.97339,0.26367 0.523739,0 0.966743,-0.186765 1.335939,-0.55811 0.369185,-0.367041 0.558079,-0.814342 0.558079,-1.335933 0,-0.360606 -0.0876,-0.683514 -0.263638,-0.968996 -0.07942,-0.130936 -0.178534,-0.255425 -0.294441,-0.371333 -0.369196,-0.369194 -0.8122,-0.551518 -1.335939,-0.551519 z m 4.84057,0 c -0.52372,0 -0.97116,0.182325 -1.34034,0.551519 -0.37132,0.371334 -0.55366,0.818736 -0.55366,1.340329 0,0.521591 0.18234,0.968891 0.55366,1.335932 0.11374,0.115913 0.23604,0.215023 0.36694,0.294441 0.28766,0.17601 0.6128,0.26367 0.9734,0.26367 0.52163,0 0.96458,-0.186765 1.33594,-0.55811 0.36923,-0.367041 0.55374,-0.814342 0.55374,-1.335933 0,-0.360606 -0.0879,-0.683564 -0.26148,-0.971194 -0.0793,-0.13093 -0.17847,-0.253227 -0.29226,-0.369135 -0.37136,-0.369194 -0.81431,-0.551518 -1.33594,-0.551519 z m 4.84056,0 c -0.52584,0 -0.97117,0.182325 -1.34253,0.551519 -0.36917,0.371334 -0.55369,0.818736 -0.55369,1.340329 0,0.521591 0.18452,0.968891 0.55369,1.335932 0.11592,0.115913 0.23824,0.215023 0.36913,0.294441 0.28766,0.17601 0.61286,0.26367 0.9734,0.26367 0.52164,0 0.9646,-0.186765 1.33377,-0.55811 0.37136,-0.367041 0.55592,-0.814342 0.55592,-1.335933 0,-0.360606 -0.0879,-0.683564 -0.26371,-0.971194 -0.0795,-0.13093 -0.17629,-0.253227 -0.29221,-0.369135 -0.36917,-0.369194 -0.81213,-0.551518 -1.33377,-0.551519 z m -14.519502,5.102045 c -0.523743,0 -0.971196,0.182381 -1.342535,0.553716 -0.369193,0.369192 -0.551507,0.816543 -0.551507,1.338136 0,0.521592 0.182314,0.968943 0.551507,1.338142 0.115908,0.115902 0.240403,0.215007 0.371339,0.294424 0.285477,0.173868 0.610574,0.261478 0.971196,0.261478 0.521589,0 0.966736,-0.186714 1.335932,-0.555902 0.371338,-0.369199 0.558104,-0.81655 0.558104,-1.338142 0,-0.3606 -0.08992,-0.683564 -0.268067,-0.971193 -0.07942,-0.130936 -0.176273,-0.253177 -0.290037,-0.366943 -0.369196,-0.371335 -0.814343,-0.553716 -1.335932,-0.553716 z m 19.355722,0 c -0.52377,0 -0.96895,0.182381 -1.33812,0.553716 -0.3713,0.369192 -0.55374,0.816543 -0.55374,1.338136 0,0.521592 0.18244,0.968943 0.55374,1.338142 0.11585,0.115902 0.23818,0.215007 0.36912,0.294424 0.28549,0.173868 0.6084,0.261478 0.969,0.261478 0.52158,0 0.96676,-0.186714 1.33806,-0.555902 0.36922,-0.369199 0.55374,-0.81655 0.55374,-1.338142 0,-0.3606 -0.0879,-0.68362 -0.26365,-0.973391 -0.0793,-0.128783 -0.17625,-0.250979 -0.29009,-0.364745 -0.3713,-0.371335 -0.81648,-0.553716 -1.33806,-0.553716 z m -14.51735,5.102056 c -0.523733,0 -0.971141,0.182375 -1.340328,0.553706 -0.369189,0.369202 -0.553716,0.81655 -0.553716,1.338141 0,0.523739 0.184527,0.968995 0.553716,1.340333 0.113755,0.113763 0.236002,0.212817 0.366938,0.292236 0.287635,0.173864 0.612784,0.261475 0.97339,0.261475 0.523739,0 0.966743,-0.186666 1.335939,-0.553711 0.369185,-0.371338 0.558079,-0.816594 0.558079,-1.340333 0,-0.358456 -0.0876,-0.681367 -0.263638,-0.96899 -0.07943,-0.130933 -0.178534,-0.253237 -0.294441,-0.369151 -0.369196,-0.371331 -0.8122,-0.553705 -1.335939,-0.553706 z m 4.84057,0 c -0.52372,0 -0.97116,0.182375 -1.34034,0.553706 -0.37132,0.369202 -0.55366,0.81655 -0.55366,1.338141 0,0.523739 0.18234,0.968995 0.55366,1.340333 0.11374,0.113763 0.23604,0.212817 0.36694,0.292236 0.28766,0.173864 0.6128,0.261475 0.9734,0.261475 0.52163,0 0.96458,-0.186666 1.33594,-0.553711 0.36923,-0.371338 0.55374,-0.816594 0.55374,-1.340333 0,-0.360603 -0.0879,-0.683565 -0.26148,-0.971188 -0.0793,-0.130936 -0.17847,-0.253183 -0.29226,-0.366953 -0.37136,-0.371331 -0.81431,-0.553705 -1.33594,-0.553706 z m 4.84056,0 c -0.52584,0 -0.97117,0.182375 -1.34253,0.553706 -0.36917,0.369202 -0.55369,0.81655 -0.55369,1.338141 0,0.523739 0.18452,0.968995 0.55369,1.340333 0.11592,0.113763 0.23824,0.212817 0.36913,0.292236 0.28766,0.173864 0.61286,0.261475 0.9734,0.261475 0.52164,0 0.9646,-0.186666 1.33377,-0.553711 0.37136,-0.371338 0.55592,-0.816594 0.55592,-1.340333 0,-0.360603 -0.0879,-0.683565 -0.26371,-0.971188 -0.0795,-0.130936 -0.17848,-0.253183 -0.29221,-0.366953 -0.36917,-0.371331 -0.81213,-0.553705 -1.33377,-0.553706 z m -4.84056,5.102053 c -0.52372,0 -0.97116,0.184518 -1.34034,0.553711 -0.37132,0.369192 -0.55366,0.816544 -0.55366,1.338134 0,0.523738 0.18234,0.971141 0.55366,1.340332 0.11374,0.11591 0.23604,0.212817 0.36694,0.292237 0.28766,0.17601 0.6128,0.263672 0.9734,0.263672 0.52163,0 0.96458,-0.188862 1.33594,-0.555909 0.36923,-0.369191 0.55374,-0.816594 0.55374,-1.340332 0,-0.35846 -0.0879,-0.681418 -0.26371,-0.971192 -0.0792,-0.130933 -0.17624,-0.253179 -0.29003,-0.366942 -0.37136,-0.369193 -0.81431,-0.553711 -1.33594,-0.553711 z m 0,5.102051 c -0.52372,0 -0.97116,0.186665 -1.34034,0.55371 -0.37132,0.371339 -0.55366,0.816595 -0.55366,1.340333 0,0.52159 0.18234,0.968942 0.55366,1.338135 0.11374,0.113762 0.23604,0.212817 0.36694,0.292235 0.28766,0.176011 0.6128,0.263672 0.9734,0.263672 0.52163,0 0.96458,-0.186715 1.33594,-0.555907 0.36923,-0.369193 0.55374,-0.816545 0.55374,-1.338135 0,-0.360606 -0.0879,-0.683566 -0.26148,-0.971192 -0.0793,-0.130935 -0.17847,-0.253231 -0.29226,-0.369141 -0.37136,-0.367045 -0.81431,-0.55371 -1.33594,-0.55371 z m 0,5.104247 c -0.52372,0 -0.97116,0.184468 -1.34034,0.551515 -0.37132,0.371337 -0.55366,0.816593 -0.55366,1.340331 0,0.521591 0.18234,0.968943 0.55366,1.338134 0.11374,0.113763 0.23604,0.212819 0.36694,0.292238 0.28766,0.176009 0.6128,0.263672 0.9734,0.263672 0.52163,0 0.96458,-0.186716 1.33594,-0.55591 0.36923,-0.369191 0.55374,-0.816543 0.55374,-1.338134 0,-0.360606 -0.0879,-0.683564 -0.26148,-0.971191 -0.0795,-0.130935 -0.17847,-0.253231 -0.29226,-0.36914 -0.37136,-0.367047 -0.81431,-0.551515 -1.33594,-0.551515 z m -4.84057,5.102055 c -0.523733,0 -0.971141,0.184468 -1.340328,0.55151 -0.369189,0.371341 -0.553716,0.818745 -0.553716,1.340328 0,0.521594 0.184527,0.968943 0.553716,1.338141 0.113755,0.11376 0.236002,0.212809 0.366938,0.292229 0.287635,0.176016 0.612784,0.263676 0.97339,0.263676 0.523739,0 0.966743,-0.186716 1.335939,-0.555905 0.369185,-0.369198 0.558079,-0.816547 0.558079,-1.338141 0,-0.358456 -0.0876,-0.681413 -0.263638,-0.971187 -0.07942,-0.13093 -0.178534,-0.253232 -0.294441,-0.369141 -0.369196,-0.367042 -0.8122,-0.55151 -1.335939,-0.55151 z m 4.84057,0 c -0.52372,0 -0.97116,0.184468 -1.34034,0.55151 -0.37132,0.371341 -0.55366,0.818745 -0.55366,1.340328 0,0.521594 0.18234,0.968943 0.55366,1.338141 0.11374,0.11376 0.23604,0.212809 0.36694,0.292229 0.28766,0.176016 0.6128,0.263676 0.9734,0.263676 0.52163,0 0.96458,-0.186716 1.33594,-0.555905 0.36923,-0.369198 0.55374,-0.816547 0.55374,-1.338141 0,-0.3606 -0.0879,-0.683565 -0.26148,-0.971187 -0.0793,-0.13093 -0.17847,-0.253232 -0.29226,-0.369141 -0.37136,-0.367042 -0.81431,-0.55151 -1.33594,-0.55151 z"
     fill="#ffffff"
     id="path271"
     style="stroke-width:1.125" />
  <path
     d="m 33.239838,14.930666 c 0.17383,0.28763 0.26148,0.610588 0.26148,0.971194 0,0.521591 -0.18451,0.968891 -0.55374,1.335932 -0.37136,0.371346 -0.81431,0.55811 -1.33594,0.55811 -0.3606,0 -0.68574,-0.08764 -0.9734,-0.26367 0.0789,0.128784 0.1763,0.250975 0.29006,0.364747 0.3692,0.369189 0.81661,0.558099 1.34032,0.558099 0.52377,0 0.96677,-0.18891 1.33594,-0.558099 0.36923,-0.367045 0.55592,-0.814404 0.55592,-1.338135 0,-0.521593 -0.18669,-0.968949 -0.55592,-1.338137 -0.11373,-0.113756 -0.23596,-0.210618 -0.36472,-0.290041 z m 4.83834,0 c 0.17601,0.28763 0.26371,0.610588 0.26371,0.971194 0,0.521591 -0.18456,0.968891 -0.55592,1.335932 -0.36917,0.371346 -0.81213,0.55811 -1.33377,0.55811 -0.36054,0 -0.68574,-0.08764 -0.9734,-0.26367 0.0795,0.128784 0.17636,0.250975 0.29009,0.364747 0.36917,0.369189 0.81658,0.558099 1.34029,0.558099 0.52164,0 0.96465,-0.18891 1.336,-0.558099 0.36917,-0.369192 0.55369,-0.815831 0.55369,-1.338135 0,-0.521593 -0.18452,-0.968949 -0.55369,-1.338137 -0.11379,-0.113756 -0.23606,-0.210618 -0.367,-0.290041 z m -9.67673,0.002 c 0.176006,0.285486 0.263638,0.608392 0.263638,0.968995 0,0.521597 -0.188894,0.968898 -0.558079,1.335937 -0.369196,0.371336 -0.8122,0.558105 -1.335939,0.558105 -0.360606,0 -0.685755,-0.08759 -0.97339,-0.263669 0.07943,0.128793 0.176279,0.250982 0.29004,0.364751 0.37134,0.369188 0.818793,0.558097 1.342532,0.558097 0.521586,0 0.964548,-0.188909 1.333708,-0.558097 0.37136,-0.367056 0.55809,-0.814406 0.55809,-1.338143 0,-0.521593 -0.18673,-0.968941 -0.55809,-1.338128 -0.113716,-0.113755 -0.23374,-0.210564 -0.36251,-0.287845 z m 9.67461,5.097656 c 0.17808,0.289773 0.26583,0.612793 0.26583,0.973386 0,0.521593 -0.18456,0.968953 -0.55592,1.338149 -0.36917,0.36918 -0.81213,0.555895 -1.33377,0.555895 -0.36054,0 -0.68569,-0.08758 -0.97117,-0.261473 0.0775,0.126649 0.17413,0.248786 0.28786,0.36256 0.36917,0.371327 0.81658,0.558094 1.34029,0.558094 0.52164,0 0.96465,-0.186767 1.336,-0.558094 0.36918,-0.367058 0.55369,-0.814358 0.55369,-1.335948 0,-0.52374 -0.18452,-0.968985 -0.55369,-1.340325 -0.11598,-0.115913 -0.23823,-0.212818 -0.36912,-0.292244 z m 4.84051,0 c 0.17601,0.289773 0.26365,0.612793 0.26365,0.973386 0,0.521593 -0.18452,0.968953 -0.55374,1.338149 -0.3713,0.36918 -0.81648,0.555895 -1.33806,0.555895 -0.3606,0 -0.68351,-0.08758 -0.969,-0.261473 0.0792,0.126649 0.17402,0.248786 0.28786,0.36256 0.37136,0.371327 0.8144,0.558094 1.3403,0.558094 0.52157,0 0.96671,-0.186767 1.33589,-0.558094 0.3714,-0.367058 0.55597,-0.814358 0.55597,-1.335948 0,-0.52374 -0.18457,-0.968985 -0.55597,-1.340325 -0.11368,-0.115913 -0.23596,-0.212818 -0.3669,-0.292244 z m -19.357903,0.002 c 0.178157,0.287623 0.268067,0.610585 0.268067,0.97119 0,0.521594 -0.186766,0.96895 -0.558104,1.338136 -0.369196,0.369193 -0.814343,0.555906 -1.335932,0.555906 -0.360622,0 -0.685719,-0.0876 -0.971196,-0.261474 0.07727,0.126643 0.174072,0.248788 0.287843,0.362549 0.369187,0.37134 0.816595,0.558105 1.340328,0.558105 0.523739,0 0.964602,-0.186765 1.335939,-0.558105 0.369193,-0.367047 0.558105,-0.814346 0.558105,-1.335939 0,-0.523737 -0.188912,-0.968991 -0.558105,-1.340329 -0.113767,-0.113765 -0.236013,-0.210619 -0.366945,-0.290039 z m 4.840583,0 c 0.178156,0.287623 0.265838,0.610585 0.265838,0.97119 0,0.521594 -0.188894,0.96895 -0.558079,1.338136 -0.369196,0.369193 -0.8122,0.555906 -1.335939,0.555906 -0.358459,0 -0.683563,-0.08764 -0.97119,-0.263671 0.07727,0.128793 0.174079,0.250985 0.28784,0.364746 0.37134,0.37134 0.818793,0.558105 1.342532,0.558105 0.521586,0 0.964548,-0.186765 1.333708,-0.558105 0.37136,-0.367047 0.55809,-0.814346 0.55809,-1.335939 0,-0.523737 -0.18673,-0.968991 -0.55809,-1.340329 -0.113716,-0.113765 -0.235925,-0.210619 -0.36471,-0.290039 z m 4.83836,0 c 0.17601,0.287623 0.26371,0.610585 0.26371,0.97119 0,0.521594 -0.18451,0.96895 -0.55374,1.338136 -0.37136,0.369193 -0.81431,0.555906 -1.33594,0.555906 -0.3606,0 -0.68574,-0.08764 -0.9734,-0.263671 0.0789,0.128793 0.1763,0.250985 0.29006,0.364746 0.3692,0.37134 0.81661,0.558105 1.34032,0.558105 0.52377,0 0.96677,-0.186765 1.33594,-0.558105 0.36923,-0.367047 0.55592,-0.814346 0.55592,-1.335939 0,-0.523737 -0.18669,-0.968991 -0.55592,-1.340329 -0.11373,-0.113765 -0.23601,-0.210619 -0.36695,-0.290039 z m -14.515126,5.102051 c 0.176015,0.287624 0.263675,0.610586 0.263675,0.97119 0,0.523739 -0.186719,0.968995 -0.555907,1.340333 -0.37134,0.367045 -0.814392,0.553711 -1.338136,0.553711 -0.360606,0 -0.683519,-0.08761 -0.968995,-0.261474 0.07727,0.128788 0.171883,0.250982 0.285645,0.364746 0.371339,0.369191 0.818793,0.555908 1.342536,0.555908 0.521588,0 0.966735,-0.186717 1.335932,-0.555908 0.371337,-0.369192 0.55811,-0.816544 0.55811,-1.338135 0,-0.523738 -0.186773,-0.968992 -0.55811,-1.340328 -0.113764,-0.113766 -0.23596,-0.21062 -0.36475,-0.290043 z m 4.838382,0 c 0.176008,0.287624 0.265868,0.610586 0.265868,0.97119 0,0.523739 -0.186766,0.968995 -0.558104,1.340333 -0.369196,0.367045 -0.814343,0.553711 -1.335932,0.553711 -0.360622,0 -0.685764,-0.08761 -0.973393,-0.261474 0.07942,0.128788 0.176269,0.250982 0.29004,0.364746 0.369187,0.369191 0.816595,0.555908 1.340328,0.555908 0.523739,0 0.964602,-0.186717 1.335939,-0.555908 0.369193,-0.369192 0.558105,-0.816544 0.558105,-1.338135 0,-0.523738 -0.188912,-0.968992 -0.558105,-1.340328 -0.113767,-0.113784 -0.235957,-0.210638 -0.364746,-0.29006 z m 9.678974,0 c 0.17383,0.287624 0.26148,0.610586 0.26148,0.97119 0,0.523739 -0.18451,0.968995 -0.55374,1.340333 -0.37136,0.367045 -0.81431,0.553711 -1.33594,0.553711 -0.3606,0 -0.68574,-0.08761 -0.9734,-0.261474 0.0789,0.128788 0.1763,0.250982 0.29006,0.364746 0.3692,0.369191 0.81661,0.555908 1.34032,0.555908 0.52377,0 0.96677,-0.186717 1.33594,-0.555908 0.36923,-0.369192 0.55592,-0.816544 0.55592,-1.338135 0,-0.523738 -0.18669,-0.968992 -0.55592,-1.340328 -0.11373,-0.113766 -0.23596,-0.21062 -0.36472,-0.290043 z m 4.83834,0 c 0.17601,0.287624 0.26371,0.610586 0.26371,0.97119 0,0.523739 -0.18456,0.968995 -0.55592,1.340333 -0.36917,0.367045 -0.81213,0.553711 -1.33377,0.553711 -0.36054,0 -0.68574,-0.08761 -0.9734,-0.261474 0.0795,0.128788 0.17636,0.250982 0.29009,0.364746 0.36917,0.369191 0.81658,0.555908 1.34029,0.555908 0.52164,0 0.96465,-0.186717 1.336,-0.555908 0.36917,-0.369192 0.55369,-0.816544 0.55369,-1.338135 0,-0.523738 -0.18452,-0.968992 -0.55369,-1.340328 -0.11379,-0.113766 -0.23606,-0.21062 -0.367,-0.290043 z m 4.83839,0 c 0.17601,0.287624 0.26365,0.610586 0.26365,0.97119 0,0.523739 -0.18452,0.968995 -0.55374,1.340333 -0.3713,0.367045 -0.81648,0.553711 -1.33806,0.553711 -0.3606,0 -0.68351,-0.08761 -0.969,-0.261474 0.077,0.128788 0.17402,0.250982 0.28786,0.364746 0.37136,0.369191 0.8144,0.555908 1.3403,0.555908 0.52157,0 0.96671,-0.186717 1.33589,-0.555908 0.3714,-0.369192 0.55597,-0.816544 0.55597,-1.338135 0,-0.523738 -0.18457,-0.968992 -0.55597,-1.340328 -0.11368,-0.113766 -0.23596,-0.21062 -0.3669,-0.290043 z m 4.84057,0 c 0.17601,0.287624 0.26371,0.610586 0.26371,0.97119 0,0.523739 -0.18456,0.968995 -0.55592,1.340333 -0.36917,0.367045 -0.81436,0.553711 -1.33595,0.553711 -0.36059,0 -0.68355,-0.08761 -0.97122,-0.261474 0.0795,0.128788 0.1763,0.250982 0.29003,0.364746 0.36918,0.369191 0.81441,0.555908 1.33818,0.555908 0.52158,0 0.96682,-0.186717 1.33812,-0.555908 0.36923,-0.369192 0.55375,-0.816544 0.55375,-1.338135 0,-0.523738 -0.18452,-0.968992 -0.55375,-1.340328 -0.11373,-0.113766 -0.23601,-0.21062 -0.36695,-0.290043 z m -19.35569,0.0021 c 0.176006,0.287626 0.263638,0.610537 0.263638,0.968994 0,0.52374 -0.188894,0.968995 -0.558079,1.340333 -0.369196,0.367046 -0.8122,0.553711 -1.335939,0.553711 -0.360606,0 -0.685755,-0.08761 -0.97339,-0.261474 0.07943,0.128787 0.176279,0.250983 0.29004,0.364746 0.37134,0.369191 0.818793,0.555907 1.342532,0.555907 0.521586,0 0.964548,-0.186716 1.333708,-0.555907 0.37136,-0.369192 0.55809,-0.816544 0.55809,-1.338134 0,-0.523739 -0.18673,-0.968994 -0.55809,-1.34033 -0.113716,-0.11373 -0.23374,-0.208389 -0.36251,-0.287811 z m -9.678966,5.099855 c 0.176015,0.289772 0.263675,0.612731 0.263675,0.971191 0,0.523738 -0.186719,0.97114 -0.555907,1.340331 -0.37134,0.367047 -0.814392,0.555909 -1.338136,0.555909 -0.360606,0 -0.683519,-0.08761 -0.968996,-0.261475 0.07943,0.126641 0.171884,0.248786 0.285646,0.36255 0.371339,0.369192 0.818793,0.555908 1.342536,0.555908 0.521588,0 0.966735,-0.186716 1.335932,-0.555908 0.371337,-0.369193 0.55811,-0.816545 0.55811,-1.338135 0,-0.521591 -0.186773,-0.968994 -0.55811,-1.340332 -0.113764,-0.11373 -0.23596,-0.210587 -0.36475,-0.290006 z m 4.836183,0 c 0.178157,0.289772 0.268067,0.612731 0.268067,0.971191 0,0.523738 -0.186766,0.97114 -0.558104,1.340331 -0.369196,0.367047 -0.814343,0.555909 -1.335932,0.555909 -0.360622,0 -0.685719,-0.08761 -0.971196,-0.261475 0.07727,0.126641 0.174072,0.248786 0.287843,0.36255 0.369187,0.369192 0.816595,0.555908 1.340328,0.555908 0.523739,0 0.964602,-0.186716 1.335939,-0.555908 0.369193,-0.369193 0.558105,-0.816545 0.558105,-1.338135 0,-0.521591 -0.188912,-0.968994 -0.558105,-1.340332 -0.113767,-0.11373 -0.236013,-0.210587 -0.366945,-0.290006 z m 9.678943,0 c 0.17601,0.289772 0.26371,0.612731 0.26371,0.971191 0,0.523738 -0.18451,0.97114 -0.55374,1.340331 -0.37136,0.367047 -0.81431,0.555909 -1.33594,0.555909 -0.3606,0 -0.68574,-0.08766 -0.9734,-0.263672 0.0789,0.128788 0.1763,0.250983 0.29006,0.364747 0.3692,0.369192 0.81661,0.555908 1.34032,0.555908 0.52377,0 0.96677,-0.186716 1.33594,-0.555908 0.36923,-0.369193 0.55592,-0.816545 0.55592,-1.338135 0,-0.521591 -0.18669,-0.968994 -0.55592,-1.340332 -0.11373,-0.113763 -0.23601,-0.21062 -0.36695,-0.290039 z m 4.83845,0 c 0.17808,0.287626 0.26583,0.610584 0.26583,0.971191 0,0.523738 -0.18456,0.97114 -0.55592,1.340331 -0.36917,0.367047 -0.81213,0.555909 -1.33377,0.555909 -0.36054,0 -0.68569,-0.08761 -0.97117,-0.261475 0.0775,0.126641 0.17413,0.248786 0.28786,0.36255 0.36917,0.369192 0.81658,0.555908 1.34029,0.555908 0.52164,0 0.96465,-0.186716 1.336,-0.555908 0.36918,-0.369193 0.55369,-0.816545 0.55369,-1.338135 0,-0.521591 -0.18452,-0.968994 -0.55369,-1.340332 -0.11598,-0.113763 -0.23823,-0.21062 -0.36912,-0.290039 z m 4.84051,0 c 0.17601,0.287626 0.26365,0.610584 0.26365,0.971191 0,0.523738 -0.18452,0.97114 -0.55374,1.340331 -0.3713,0.367047 -0.81648,0.555909 -1.33806,0.555909 -0.3606,0 -0.68351,-0.08761 -0.969,-0.261475 0.0792,0.126641 0.17402,0.248786 0.28786,0.36255 0.37136,0.369192 0.8144,0.555908 1.3403,0.555908 0.52157,0 0.96671,-0.186716 1.33589,-0.555908 0.3714,-0.369193 0.55597,-0.816545 0.55597,-1.338135 0,-0.521591 -0.18457,-0.968994 -0.55597,-1.340332 -0.11368,-0.113763 -0.23596,-0.21062 -0.3669,-0.290039 z m 4.8384,0 c 0.17814,0.287626 0.26588,0.610584 0.26588,0.971191 0,0.523738 -0.18456,0.97114 -0.55592,1.340331 -0.36917,0.367047 -0.81436,0.555909 -1.33595,0.555909 -0.36059,0 -0.68351,-0.08761 -0.96905,-0.261475 0.0774,0.126641 0.17413,0.248786 0.28786,0.36255 0.36918,0.369192 0.81441,0.555908 1.33818,0.555908 0.52158,0 0.96682,-0.186716 1.33812,-0.555908 0.36923,-0.369193 0.55375,-0.816545 0.55375,-1.338135 0,-0.521591 -0.18452,-0.968994 -0.55375,-1.340332 -0.11592,-0.113763 -0.23818,-0.21062 -0.36912,-0.290039 z m -19.35352,0.0023 c 0.176006,0.287626 0.263638,0.610534 0.263638,0.968994 0,0.523738 -0.188894,0.97114 -0.558079,1.340332 -0.369196,0.367045 -0.8122,0.555908 -1.335939,0.555908 -0.358459,0 -0.683563,-0.08766 -0.97119,-0.263672 0.07943,0.128788 0.174079,0.250983 0.28784,0.364747 0.37134,0.369192 0.818793,0.555908 1.342532,0.555908 0.521586,0 0.964548,-0.186716 1.333708,-0.555908 0.37136,-0.369193 0.55809,-0.816545 0.55809,-1.338135 0,-0.521592 -0.18673,-0.968994 -0.55809,-1.340332 -0.113716,-0.113788 -0.235865,-0.210594 -0.36251,-0.287867 z m 9.67673,5.099853 c 0.17601,0.289773 0.26371,0.612783 0.26371,0.973389 0,0.521591 -0.18456,0.968943 -0.55592,1.338135 -0.36917,0.369192 -0.81213,0.555907 -1.33377,0.555907 -0.36054,0 -0.68574,-0.08761 -0.9734,-0.261473 0.0795,0.128788 0.17636,0.250983 0.29009,0.364745 0.36917,0.367046 0.81658,0.553712 1.34029,0.553712 0.52164,0 0.96465,-0.186666 1.336,-0.553712 0.36917,-0.371337 0.55369,-0.81874 0.55369,-1.340332 0,-0.521591 -0.18452,-0.968942 -0.55369,-1.338134 -0.11598,-0.115876 -0.23819,-0.212785 -0.367,-0.292204 z m 4.83839,0 c 0.17601,0.289773 0.26365,0.612783 0.26365,0.973389 0,0.521591 -0.18452,0.968943 -0.55374,1.338135 -0.3713,0.369192 -0.81648,0.555907 -1.33806,0.555907 -0.3606,0 -0.68351,-0.08761 -0.969,-0.261473 0.077,0.128788 0.17402,0.250983 0.28786,0.364745 0.37136,0.367046 0.8144,0.553712 1.3403,0.553712 0.52157,0 0.96671,-0.186666 1.33589,-0.553712 0.3714,-0.371337 0.55597,-0.81874 0.55597,-1.340332 0,-0.521591 -0.18457,-0.968942 -0.55597,-1.338134 -0.11368,-0.115872 -0.23596,-0.212781 -0.3669,-0.2922 z m 4.84057,0 c 0.17601,0.289773 0.26371,0.612783 0.26371,0.973389 0,0.521591 -0.18456,0.968943 -0.55592,1.338135 -0.36917,0.369192 -0.81436,0.555907 -1.33595,0.555907 -0.36059,0 -0.68355,-0.08761 -0.97122,-0.261473 0.0795,0.128788 0.1763,0.250983 0.29003,0.364745 0.36918,0.367046 0.81441,0.553712 1.33818,0.553712 0.52158,0 0.96682,-0.186666 1.33812,-0.553712 0.36923,-0.371337 0.55375,-0.81874 0.55375,-1.340332 0,-0.521591 -0.18452,-0.968942 -0.55375,-1.338134 -0.11592,-0.115909 -0.23808,-0.212817 -0.36695,-0.292237 z m -29.034656,0.0023 c 0.176015,0.287627 0.263675,0.610586 0.263675,0.971192 0,0.52159 -0.186719,0.968942 -0.555907,1.338135 -0.37134,0.369242 -0.814392,0.555957 -1.338136,0.555957 -0.360606,0 -0.683519,-0.08761 -0.968995,-0.261474 0.07727,0.128788 0.171883,0.250983 0.285645,0.364745 0.371339,0.367047 0.818793,0.553712 1.342536,0.553712 0.521588,0 0.966735,-0.186665 1.335932,-0.553712 0.371337,-0.371338 0.55811,-0.81874 0.55811,-1.340331 0,-0.521592 -0.186773,-0.968942 -0.55811,-1.338134 -0.113764,-0.113639 -0.23596,-0.210495 -0.36475,-0.289915 z m 4.838382,0 c 0.176008,0.287627 0.265868,0.610586 0.265868,0.971192 0,0.52159 -0.186766,0.968942 -0.558104,1.338135 -0.369196,0.369192 -0.814343,0.555907 -1.335932,0.555907 -0.360622,0 -0.685764,-0.08761 -0.973393,-0.261474 0.07942,0.128788 0.176269,0.250983 0.29004,0.364746 0.369187,0.367046 0.816595,0.553711 1.340328,0.553711 0.523739,0 0.964602,-0.186665 1.335939,-0.553711 0.369193,-0.371338 0.558105,-0.81874 0.558105,-1.340332 0,-0.521592 -0.188912,-0.968942 -0.558105,-1.338134 -0.113767,-0.113537 -0.235957,-0.210394 -0.364746,-0.289813 z m 4.840584,0 c 0.176006,0.289773 0.263638,0.612733 0.263638,0.971192 0,0.52159 -0.188894,0.968942 -0.558079,1.338135 -0.369196,0.369192 -0.8122,0.555907 -1.335939,0.555907 -0.360606,0 -0.685755,-0.08766 -0.97339,-0.263672 0.07943,0.130936 0.176279,0.253181 0.29004,0.366944 0.37134,0.367046 0.818793,0.553711 1.342532,0.553711 0.521586,0 0.964548,-0.186665 1.333708,-0.553711 0.37136,-0.371303 0.55809,-0.818705 0.55809,-1.340297 0,-0.521592 -0.18673,-0.968942 -0.55809,-1.338134 -0.113716,-0.113585 -0.23374,-0.210441 -0.36251,-0.289861 z m 4.83839,0 c 0.17383,0.287627 0.26148,0.610586 0.26148,0.971192 0,0.52159 -0.18451,0.968942 -0.55374,1.338135 -0.37136,0.369192 -0.81431,0.555907 -1.33594,0.555907 -0.3606,0 -0.68574,-0.08766 -0.9734,-0.263672 0.0789,0.130936 0.1763,0.253181 0.29006,0.366944 0.3692,0.367046 0.81661,0.553711 1.34032,0.553711 0.52377,0 0.96677,-0.186665 1.33594,-0.553711 0.36923,-0.371338 0.55592,-0.81874 0.55592,-1.340332 0,-0.521592 -0.18669,-0.968942 -0.55592,-1.338134 -0.11373,-0.113764 -0.23596,-0.210621 -0.36472,-0.29004 z m 4.83834,5.099854 c 0.17601,0.289772 0.26371,0.612782 0.26371,0.973388 0,0.521591 -0.18456,0.968943 -0.55592,1.338135 -0.36917,0.369193 -0.81213,0.555909 -1.33377,0.555909 -0.36054,0 -0.68574,-0.08761 -0.9734,-0.261475 0.0795,0.128788 0.17636,0.250983 0.29009,0.364745 0.36917,0.367046 0.81658,0.553711 1.34029,0.553711 0.52164,0 0.96465,-0.186665 1.336,-0.553711 0.36917,-0.371337 0.55369,-0.816593 0.55369,-1.340331 0,-0.521591 -0.18452,-0.968943 -0.55369,-1.338135 -0.11598,-0.115787 -0.23819,-0.212696 -0.367,-0.292114 z m 4.83839,0 c 0.17601,0.289772 0.26365,0.612782 0.26365,0.973388 0,0.521591 -0.18452,0.968943 -0.55374,1.338135 -0.3713,0.369193 -0.81648,0.555909 -1.33806,0.555909 -0.3606,0 -0.68351,-0.08761 -0.969,-0.261475 0.077,0.128788 0.17402,0.250983 0.28786,0.364745 0.37136,0.367046 0.8144,0.553711 1.3403,0.553711 0.52157,0 0.96671,-0.186665 1.33589,-0.553711 0.3714,-0.371337 0.55597,-0.816593 0.55597,-1.340331 0,-0.521591 -0.18457,-0.968943 -0.55597,-1.338135 -0.11368,-0.115876 -0.23596,-0.212785 -0.3669,-0.292203 z m -19.355704,0.0023 c 0.176008,0.287627 0.265868,0.610585 0.265868,0.971191 0,0.521591 -0.186766,0.968943 -0.558104,1.338135 -0.369196,0.369192 -0.814343,0.555909 -1.335932,0.555909 -0.360622,0 -0.685764,-0.08761 -0.973393,-0.261475 0.07942,0.128788 0.176269,0.250983 0.29004,0.364745 0.369187,0.367046 0.816595,0.553712 1.340328,0.553712 0.523739,0 0.964602,-0.186666 1.335939,-0.553712 0.369193,-0.371326 0.558105,-0.816582 0.558105,-1.340321 0,-0.52159 -0.188912,-0.968942 -0.558105,-1.338134 -0.113767,-0.113432 -0.235957,-0.21029 -0.364746,-0.289708 z m 4.840584,0 c 0.176006,0.289773 0.263638,0.612732 0.263638,0.971191 0,0.521591 -0.188894,0.968943 -0.558079,1.338135 -0.369196,0.369251 -0.8122,0.555967 -1.335939,0.555967 -0.360606,0 -0.685755,-0.08766 -0.97339,-0.263671 0.07943,0.130934 0.176279,0.253179 0.29004,0.366942 0.37134,0.367046 0.818793,0.553712 1.342532,0.553712 0.521586,0 0.964548,-0.186666 1.333708,-0.553712 0.37136,-0.371338 0.55809,-0.816593 0.55809,-1.340332 0,-0.521591 -0.18673,-0.968942 -0.55809,-1.338134 -0.113716,-0.113437 -0.23374,-0.210296 -0.36251,-0.289713 z m 4.83839,0 c 0.17383,0.287627 0.26148,0.610585 0.26148,0.971191 0,0.521591 -0.18451,0.968943 -0.55374,1.338135 -0.37136,0.369192 -0.81431,0.555909 -1.33594,0.555909 -0.3606,0 -0.68574,-0.08766 -0.9734,-0.263672 0.0789,0.130934 0.1763,0.25318 0.29006,0.366942 0.3692,0.367046 0.81661,0.553712 1.34032,0.553712 0.52377,0 0.96677,-0.186666 1.33594,-0.553712 0.36923,-0.371338 0.55592,-0.816593 0.55592,-1.340332 0,-0.52159 -0.18669,-0.968942 -0.55592,-1.338134 -0.11373,-0.113762 -0.23596,-0.210621 -0.36472,-0.290039 z m 4.83834,5.099856 c 0.17601,0.289771 0.26371,0.61278 0.26371,0.973388 0,0.521592 -0.18456,0.968944 -0.55592,1.338135 -0.36917,0.369194 -0.81213,0.555911 -1.33377,0.555911 -0.36054,0 -0.68574,-0.0876 -0.9734,-0.261476 0.0795,0.128788 0.17636,0.25098 0.29009,0.364753 0.36917,0.367038 0.81658,0.5559 1.34029,0.5559 0.52164,0 0.96465,-0.188862 1.336,-0.5559 0.36917,-0.3692 0.55369,-0.816605 0.55369,-1.340341 0,-0.521592 -0.18452,-0.968945 -0.55369,-1.338133 -0.11598,-0.115857 -0.23819,-0.212761 -0.367,-0.292182 z m -9.67673,0.0022 c 0.176006,0.289772 0.263638,0.612736 0.263638,0.971193 0,0.521592 -0.188894,0.968942 -0.558079,1.338138 -0.369196,0.369189 -0.8122,0.555904 -1.335939,0.555904 -0.360606,0 -0.685755,-0.08765 -0.97339,-0.263671 0.07943,0.130935 0.176279,0.253182 0.29004,0.36695 0.37134,0.367042 0.818793,0.555899 1.342532,0.555899 0.521586,0 0.964548,-0.188857 1.333708,-0.555899 0.37136,-0.369199 0.55809,-0.816603 0.55809,-1.340339 0,-0.521592 -0.18673,-0.968944 -0.55809,-1.338133 -0.113716,-0.113475 -0.23374,-0.210335 -0.36251,-0.289749 z m 4.83839,0 c 0.17383,0.287625 0.26148,0.610586 0.26148,0.971193 0,0.521592 -0.18451,0.968942 -0.55374,1.338138 -0.37136,0.369189 -0.81431,0.555904 -1.33594,0.555904 -0.3606,0 -0.68574,-0.08765 -0.9734,-0.263671 0.0789,0.130935 0.1763,0.253182 0.29006,0.36695 0.3692,0.367042 0.81661,0.555899 1.34032,0.555899 0.52377,0 0.96677,-0.188857 1.33594,-0.555899 0.36923,-0.369199 0.55592,-0.816603 0.55592,-1.340339 0,-0.521592 -0.18669,-0.968944 -0.55592,-1.338133 -0.11373,-0.113733 -0.23596,-0.210588 -0.36472,-0.290013 z"
     fill-opacity="0.2"
     id="path273-5"
     style="stroke-width:1.125" />
  <path
     d="m 26.771068,19.112057 c -0.523733,0 -0.971141,0.182381 -1.340328,0.553716 -0.369189,0.369192 -0.553715,0.816543 -0.553716,1.338136 0,0.521592 0.184527,0.968943 0.553716,1.338142 0.115913,0.115902 0.238205,0.21281 0.369138,0.292232 0.287627,0.176009 0.612731,0.26367 0.97119,0.26367 0.523739,0 0.966743,-0.186714 1.335939,-0.555902 0.369185,-0.369199 0.558079,-0.81655 0.558079,-1.338142 0,-0.3606 -0.0876,-0.683564 -0.265838,-0.971193 -0.07943,-0.130936 -0.176334,-0.253177 -0.292241,-0.366943 -0.369196,-0.371335 -0.8122,-0.553716 -1.335939,-0.553716 z m 4.84057,0 c -0.52372,0 -0.97116,0.182381 -1.34034,0.553716 -0.37132,0.369192 -0.55366,0.816543 -0.55366,1.338136 0,0.521592 0.18234,0.968943 0.55366,1.338142 0.11374,0.115902 0.23604,0.21281 0.36694,0.292232 0.28766,0.176009 0.6128,0.26367 0.9734,0.26367 0.52163,0 0.96458,-0.186714 1.33594,-0.555902 0.36923,-0.369199 0.55374,-0.81655 0.55374,-1.338142 0,-0.3606 -0.0879,-0.683564 -0.26371,-0.971193 -0.0792,-0.130936 -0.17624,-0.253177 -0.29003,-0.366943 -0.37136,-0.371335 -0.81431,-0.553716 -1.33594,-0.553716 z m 4.84056,0 c -0.52584,0 -0.97117,0.182381 -1.34253,0.553716 -0.36917,0.369192 -0.55369,0.816543 -0.55369,1.338136 0,0.521592 0.18452,0.968943 0.55369,1.338142 0.11592,0.115902 0.24036,0.215007 0.37136,0.294424 0.28548,0.173868 0.61063,0.261478 0.97117,0.261478 0.52164,0 0.9646,-0.186714 1.33377,-0.555902 0.37136,-0.369199 0.55592,-0.81655 0.55592,-1.338142 0,-0.3606 -0.088,-0.68362 -0.26583,-0.973391 -0.0795,-0.128783 -0.17636,-0.250979 -0.29009,-0.364745 -0.36917,-0.371335 -0.81213,-0.553716 -1.33377,-0.553716 z m -19.360084,5.102056 c -0.52374,0 -0.968944,0.182375 -1.338131,0.553706 -0.371345,0.369202 -0.555913,0.81655 -0.555913,1.338141 0,0.523739 0.184568,0.968995 0.555913,1.340333 0.113761,0.113763 0.238199,0.212817 0.369136,0.292236 0.285476,0.173864 0.608389,0.261475 0.968995,0.261475 0.523744,0 0.966796,-0.186666 1.338136,-0.553711 0.369188,-0.371338 0.555907,-0.816594 0.555907,-1.340333 0,-0.360603 -0.08763,-0.683565 -0.263675,-0.971188 -0.07942,-0.130936 -0.178471,-0.253183 -0.292232,-0.366953 -0.37134,-0.371331 -0.814392,-0.553705 -1.338136,-0.553706 z m 4.840582,0 c -0.523743,0 -0.971196,0.182375 -1.342535,0.553706 -0.369193,0.369202 -0.551507,0.81655 -0.551507,1.338141 0,0.523739 0.182314,0.968995 0.551507,1.340333 0.115908,0.113763 0.238205,0.212817 0.369142,0.292236 0.287629,0.173864 0.612771,0.261475 0.973393,0.261475 0.521589,0 0.966736,-0.186666 1.335932,-0.553711 0.371338,-0.371338 0.558104,-0.816594 0.558104,-1.340333 0,-0.360603 -0.08987,-0.683565 -0.265868,-0.971188 -0.07942,-0.130936 -0.176331,-0.253183 -0.292236,-0.366953 -0.369196,-0.371331 -0.814343,-0.553705 -1.335932,-0.553706 z m 19.355722,0 c -0.52377,0 -0.96895,0.182375 -1.33812,0.553706 -0.3713,0.369202 -0.55374,0.81655 -0.55374,1.338141 0,0.523739 0.18244,0.968995 0.55374,1.340333 0.11373,0.113763 0.23818,0.212817 0.36912,0.292236 0.28549,0.173864 0.6084,0.261475 0.969,0.261475 0.52158,0 0.96676,-0.186666 1.33806,-0.553711 0.36922,-0.371338 0.55374,-0.816594 0.55374,-1.340333 0,-0.360603 -0.0879,-0.683565 -0.26365,-0.971188 -0.0793,-0.130936 -0.17625,-0.253183 -0.29009,-0.366953 -0.3713,-0.371331 -0.81648,-0.553705 -1.33806,-0.553706 z m 4.84056,0 c -0.52589,0 -0.96905,0.182375 -1.34034,0.553706 -0.36917,0.369202 -0.55152,0.81655 -0.55152,1.338141 0,0.523739 0.18235,0.968995 0.55152,1.340333 0.11592,0.113763 0.23824,0.212817 0.36912,0.292236 0.28767,0.173864 0.61063,0.261475 0.97122,0.261475 0.52159,0 0.96678,-0.186666 1.33595,-0.553711 0.37136,-0.371338 0.55592,-0.816594 0.55592,-1.340333 0,-0.360603 -0.0879,-0.683565 -0.26371,-0.971188 -0.0792,-0.130936 -0.17847,-0.253183 -0.29221,-0.366953 -0.36917,-0.371331 -0.81436,-0.553705 -1.33595,-0.553706 z m -29.036864,5.102053 c -0.52374,0 -0.968944,0.184518 -1.338131,0.553711 -0.371345,0.369192 -0.555913,0.816544 -0.555913,1.338134 0,0.523738 0.184568,0.971141 0.555913,1.340332 0.115908,0.11591 0.238199,0.215015 0.369136,0.294434 0.285476,0.173864 0.608389,0.261475 0.968995,0.261475 0.523744,0 0.966796,-0.188862 1.338136,-0.555909 0.369188,-0.369191 0.555907,-0.816594 0.555907,-1.340332 0,-0.35846 -0.08763,-0.681418 -0.263675,-0.971192 -0.07942,-0.130933 -0.178471,-0.253179 -0.292232,-0.366942 -0.37134,-0.369193 -0.814392,-0.553711 -1.338136,-0.553711 z m 4.840582,0 c -0.523743,0 -0.971196,0.184518 -1.342535,0.553711 -0.369193,0.369192 -0.551507,0.816544 -0.551507,1.338134 0,0.523738 0.182314,0.971141 0.551507,1.340332 0.115908,0.11591 0.240403,0.215015 0.371339,0.294434 0.285477,0.173864 0.610574,0.261475 0.971196,0.261475 0.521589,0 0.966736,-0.188862 1.335932,-0.555909 0.371338,-0.369191 0.558104,-0.816594 0.558104,-1.340332 0,-0.35846 -0.08992,-0.681418 -0.268067,-0.971192 -0.07943,-0.130933 -0.176273,-0.253179 -0.290037,-0.366942 -0.369196,-0.369193 -0.814343,-0.553711 -1.335932,-0.553711 z m 4.838372,0 c -0.523733,0 -0.971141,0.184518 -1.340328,0.553711 -0.369189,0.369192 -0.553716,0.816544 -0.553716,1.338134 0,0.523738 0.184527,0.971141 0.553716,1.340332 0.115913,0.11591 0.238205,0.212817 0.369138,0.292237 0.287627,0.17601 0.612731,0.263672 0.97119,0.263672 0.523739,0 0.966743,-0.188862 1.335939,-0.555909 0.369185,-0.369191 0.558079,-0.816594 0.558079,-1.340332 0,-0.35846 -0.0876,-0.681367 -0.263638,-0.968994 -0.07943,-0.130934 -0.178534,-0.253232 -0.294441,-0.36914 -0.369196,-0.369193 -0.8122,-0.553711 -1.335939,-0.553711 z m 9.68113,0 c -0.52584,0 -0.97117,0.184518 -1.34253,0.553711 -0.36917,0.369192 -0.55369,0.816544 -0.55369,1.338134 0,0.523738 0.18452,0.971141 0.55369,1.340332 0.11592,0.11591 0.24036,0.215015 0.37136,0.294434 0.28548,0.173864 0.61063,0.261475 0.97117,0.261475 0.52164,0 0.9646,-0.188862 1.33377,-0.555909 0.37136,-0.369191 0.55592,-0.816594 0.55592,-1.340332 0,-0.360606 -0.088,-0.683564 -0.26583,-0.971192 -0.0795,-0.130933 -0.17636,-0.253179 -0.29009,-0.366942 -0.36917,-0.369193 -0.81213,-0.553711 -1.33377,-0.553711 z m 4.83622,0 c -0.52377,0 -0.96895,0.184518 -1.33812,0.553711 -0.3713,0.369192 -0.55374,0.816544 -0.55374,1.338134 0,0.523738 0.18244,0.971141 0.55374,1.340332 0.11585,0.11591 0.23818,0.215015 0.36912,0.294434 0.28549,0.173864 0.6084,0.261475 0.969,0.261475 0.52158,0 0.96676,-0.188862 1.33806,-0.555909 0.36922,-0.369191 0.55374,-0.816594 0.55374,-1.340332 0,-0.360606 -0.0879,-0.683564 -0.26365,-0.971192 -0.0793,-0.130933 -0.17625,-0.253179 -0.29009,-0.366942 -0.3713,-0.369193 -0.81648,-0.553711 -1.33806,-0.553711 z m 4.84056,0 c -0.52589,0 -0.96905,0.184518 -1.34034,0.553711 -0.36917,0.369192 -0.55152,0.816544 -0.55152,1.338134 0,0.523738 0.18235,0.971141 0.55152,1.340332 0.11592,0.11591 0.24041,0.215015 0.37129,0.294434 0.28554,0.173864 0.60846,0.261475 0.96905,0.261475 0.52159,0 0.96678,-0.188862 1.33595,-0.555909 0.37136,-0.369191 0.55592,-0.816594 0.55592,-1.340332 0,-0.360606 -0.088,-0.683564 -0.26588,-0.971192 -0.0795,-0.130933 -0.1763,-0.253179 -0.29004,-0.366942 -0.36917,-0.369193 -0.81436,-0.553711 -1.33595,-0.553711 z m -29.036864,5.102051 c -0.52374,0 -0.968944,0.186665 -1.338131,0.55371 -0.371345,0.371339 -0.555913,0.816595 -0.555913,1.340333 0,0.52159 0.184568,0.968942 0.555913,1.338135 0.113761,0.115908 0.238199,0.215014 0.369136,0.294434 0.285476,0.173862 0.608389,0.261473 0.968995,0.261473 0.523744,0 0.966796,-0.186715 1.338136,-0.555907 0.369188,-0.369193 0.555907,-0.816545 0.555907,-1.338135 0,-0.360606 -0.08763,-0.683566 -0.263675,-0.971192 -0.07944,-0.130935 -0.178471,-0.253231 -0.292232,-0.369141 -0.37134,-0.367045 -0.814392,-0.55371 -1.338136,-0.55371 z m 4.840582,0 c -0.523743,0 -0.971196,0.186665 -1.342535,0.55371 -0.369193,0.371339 -0.551507,0.816595 -0.551507,1.340333 0,0.52159 0.182314,0.968942 0.551507,1.338135 0.115908,0.115908 0.238205,0.215014 0.369142,0.294434 0.287629,0.173862 0.612771,0.261473 0.973393,0.261473 0.521589,0 0.966736,-0.186715 1.335932,-0.555907 0.371338,-0.369193 0.558104,-0.816545 0.558104,-1.338135 0,-0.360606 -0.08987,-0.683566 -0.265868,-0.971192 -0.07944,-0.130935 -0.176331,-0.253231 -0.292236,-0.369141 -0.369196,-0.367045 -0.814343,-0.55371 -1.335932,-0.55371 z m 4.838372,0 c -0.523733,0 -0.971141,0.186665 -1.340328,0.55371 -0.369189,0.371339 -0.553716,0.816595 -0.553716,1.340333 0,0.52159 0.184527,0.968942 0.553716,1.338135 0.113755,0.113762 0.236002,0.212817 0.366938,0.292235 0.287635,0.176011 0.612784,0.263672 0.97339,0.263672 0.523739,0 0.966743,-0.186715 1.335939,-0.555907 0.369185,-0.369193 0.558079,-0.816545 0.558079,-1.338135 0,-0.35846 -0.0876,-0.681419 -0.263638,-0.971192 -0.07945,-0.130935 -0.178534,-0.253231 -0.294441,-0.369141 -0.369196,-0.367045 -0.8122,-0.55371 -1.335939,-0.55371 z m 9.68113,0 c -0.52584,0 -0.97117,0.186665 -1.34253,0.55371 -0.36917,0.371339 -0.55369,0.816595 -0.55369,1.340333 0,0.52159 0.18452,0.968942 0.55369,1.338135 0.11592,0.115908 0.23824,0.215014 0.36913,0.294434 0.28766,0.173862 0.61286,0.261473 0.9734,0.261473 0.52164,0 0.9646,-0.186715 1.33377,-0.555907 0.37136,-0.369193 0.55592,-0.816545 0.55592,-1.338135 0,-0.360606 -0.0879,-0.683616 -0.26371,-0.973389 -0.0795,-0.128788 -0.17848,-0.251034 -0.29221,-0.366944 -0.36917,-0.367045 -0.81213,-0.55371 -1.33377,-0.55371 z m 4.83622,0 c -0.52377,0 -0.96895,0.186665 -1.33812,0.55371 -0.3713,0.371339 -0.55374,0.816595 -0.55374,1.340333 0,0.52159 0.18244,0.968942 0.55374,1.338135 0.11373,0.115908 0.23818,0.215014 0.36912,0.294434 0.28549,0.173862 0.6084,0.261473 0.969,0.261473 0.52158,0 0.96676,-0.186715 1.33806,-0.555907 0.36922,-0.369193 0.55374,-0.816545 0.55374,-1.338135 0,-0.360606 -0.0879,-0.683616 -0.26365,-0.973389 -0.0793,-0.128788 -0.17625,-0.251034 -0.29009,-0.366944 -0.3713,-0.367045 -0.81648,-0.55371 -1.33806,-0.55371 z m 4.84056,0 c -0.52589,0 -0.96905,0.186665 -1.34034,0.55371 -0.36917,0.371339 -0.55152,0.816595 -0.55152,1.340333 0,0.52159 0.18235,0.968942 0.55152,1.338135 0.11592,0.115908 0.23824,0.215014 0.36912,0.294434 0.28767,0.173862 0.61063,0.261473 0.97122,0.261473 0.52159,0 0.96678,-0.186715 1.33595,-0.555907 0.37136,-0.369193 0.55592,-0.816545 0.55592,-1.338135 0,-0.360606 -0.0879,-0.683616 -0.26371,-0.973389 -0.0792,-0.128788 -0.17847,-0.251034 -0.29221,-0.366944 -0.36917,-0.367045 -0.81436,-0.55371 -1.33595,-0.55371 z m -24.196282,5.104247 c -0.523743,0 -0.971196,0.184468 -1.342535,0.551515 -0.369193,0.371337 -0.551507,0.816593 -0.551507,1.340331 0,0.521591 0.182314,0.968943 0.551507,1.338134 0.115908,0.11591 0.238205,0.215016 0.369142,0.294434 0.287629,0.173864 0.612771,0.261476 0.973393,0.261476 0.521589,0 0.966736,-0.186716 1.335932,-0.55591 0.371338,-0.369191 0.558104,-0.816543 0.558104,-1.338134 0,-0.360606 -0.08987,-0.683564 -0.265868,-0.971191 -0.0794,-0.130936 -0.176331,-0.253231 -0.292236,-0.36914 -0.369196,-0.367047 -0.814343,-0.551515 -1.335932,-0.551515 z m 4.838372,0 c -0.523733,0 -0.971141,0.184468 -1.340328,0.551515 -0.369189,0.371337 -0.553716,0.816593 -0.553716,1.340331 0,0.521591 0.184527,0.968943 0.553716,1.338134 0.113755,0.113763 0.236002,0.212819 0.366938,0.292238 0.287635,0.176009 0.612784,0.263672 0.97339,0.263672 0.523739,0 0.966743,-0.186716 1.335939,-0.55591 0.369185,-0.369191 0.558079,-0.816543 0.558079,-1.338134 0,-0.35846 -0.0876,-0.681418 -0.263638,-0.971191 -0.07942,-0.130936 -0.178534,-0.253231 -0.294441,-0.36914 -0.369196,-0.367047 -0.8122,-0.551515 -1.335939,-0.551515 z m 9.68113,0 c -0.52584,0 -0.97117,0.184468 -1.34253,0.551515 -0.36917,0.371337 -0.55369,0.816593 -0.55369,1.340331 0,0.521591 0.18452,0.968943 0.55369,1.338134 0.11592,0.11591 0.23824,0.215016 0.36913,0.294434 0.28766,0.173864 0.61286,0.261476 0.9734,0.261476 0.52164,0 0.9646,-0.186716 1.33377,-0.55591 0.37136,-0.369191 0.55592,-0.816543 0.55592,-1.338134 0,-0.360606 -0.0879,-0.683616 -0.26371,-0.973388 -0.0794,-0.128788 -0.17848,-0.251034 -0.29221,-0.366943 -0.36917,-0.367047 -0.81213,-0.551515 -1.33377,-0.551515 z m 4.83622,0 c -0.52377,0 -0.96895,0.184468 -1.33812,0.551515 -0.3713,0.371337 -0.55374,0.816593 -0.55374,1.340331 0,0.521591 0.18244,0.968943 0.55374,1.338134 0.11373,0.11591 0.23818,0.215016 0.36912,0.294434 0.28549,0.173864 0.6084,0.261476 0.969,0.261476 0.52158,0 0.96676,-0.186716 1.33806,-0.55591 0.36922,-0.369191 0.55374,-0.816543 0.55374,-1.338134 0,-0.360606 -0.0879,-0.683616 -0.26365,-0.973388 -0.0793,-0.128788 -0.17625,-0.251034 -0.29009,-0.366943 -0.3713,-0.367047 -0.81648,-0.551515 -1.33806,-0.551515 z m -4.83622,5.102055 c -0.52584,0 -0.97117,0.184468 -1.34253,0.55151 -0.36917,0.371341 -0.55369,0.818745 -0.55369,1.340328 0,0.521594 0.18452,0.968943 0.55369,1.338141 0.11592,0.115905 0.23824,0.215011 0.36913,0.294431 0.28766,0.173865 0.61286,0.261473 0.9734,0.261473 0.52164,0 0.9646,-0.186715 1.33377,-0.555904 0.37136,-0.369198 0.55592,-0.816547 0.55592,-1.338141 0,-0.3606 -0.0879,-0.683608 -0.26371,-0.973381 -0.0795,-0.12879 -0.17848,-0.251039 -0.29221,-0.366947 -0.36917,-0.367042 -0.81213,-0.55151 -1.33377,-0.55151 z"
     fill="#64a2f1"
     id="path275"
     style="stroke-width:1.125" />
</svg>
