<?xml version="1.0" encoding="UTF-8" standalone="no"?>
<svg
   width="64"
   height="64"
   viewBox="0 0 64 64"
   version="1.1"
   id="svg52"
   sodipodi:docname="veracrypt.svg"
   inkscape:version="1.2.1 (9c6d41e410, 2022-07-14)"
   xmlns:inkscape="http://www.inkscape.org/namespaces/inkscape"
   xmlns:sodipodi="http://sodipodi.sourceforge.net/DTD/sodipodi-0.dtd"
   xmlns:xlink="http://www.w3.org/1999/xlink"
   xmlns="http://www.w3.org/2000/svg"
   xmlns:svg="http://www.w3.org/2000/svg">
  <sodipodi:namedview
     id="namedview54"
     pagecolor="#a4a4a4"
     bordercolor="#eeeeee"
     borderopacity="1"
     inkscape:pageshadow="0"
     inkscape:pageopacity="0"
     inkscape:pagecheckerboard="0"
     showgrid="false"
     inkscape:zoom="5.2604167"
     inkscape:cx="36.40396"
     inkscape:cy="10.930693"
     inkscape:window-width="1920"
     inkscape:window-height="1002"
     inkscape:window-x="0"
     inkscape:window-y="0"
     inkscape:window-maximized="1"
     inkscape:current-layer="svg52"
     inkscape:showpageshadow="2"
     inkscape:deskcolor="#c9c9c9" />
  <defs
     id="defs32">
    <linearGradient
       xlink:href="#linearGradient4393"
       id="linearGradient4399"
       x1="424.44101"
       y1="502.85001"
       x2="440.87799"
       y2="529.57599"
       gradientUnits="userSpaceOnUse"
       gradientTransform="matrix(0.69224711,0,0,0.69224711,-215.22899,-357.13539)" />
    <linearGradient
       id="linearGradient4393">
      <stop
         style="stop-color:#000000;stop-opacity:1;"
         offset="0"
         id="stop3" />
      <stop
         style="stop-color:#000000;stop-opacity:0;"
         offset="1"
         id="stop5" />
    </linearGradient>
    <linearGradient
       xlink:href="#linearGradient4274"
       id="linearGradient4217"
       gradientUnits="userSpaceOnUse"
       gradientTransform="matrix(0.69224711,0,0,0.69224711,-199.3073,1639.8968)"
       x1="390.57101"
       y1="498.298"
       x2="442.57101"
       y2="498.298" />
    <linearGradient
       id="linearGradient4274">
      <stop
         offset="0"
         style="stop-color:#ffffff;stop-opacity:1;"
         id="stop9" />
      <stop
         offset="1"
         style="stop-color:#ffffff;stop-opacity:0.48760331"
         id="stop11" />
    </linearGradient>
    <linearGradient
       xlink:href="#linearGradient4227"
       id="linearGradient4225"
       gradientUnits="userSpaceOnUse"
       x1="396.57101"
       y1="498.798"
       x2="426.57101"
       y2="511.798"
       gradientTransform="matrix(0.69224711,0,0,0.69224711,-199.3073,-360.21214)" />
    <linearGradient
       id="linearGradient4227">
      <stop
         offset="0"
         style="stop-color:#f5f5f5;stop-opacity:1"
         id="stop21" />
      <stop
         offset="1"
         style="stop-color:#f9f9f9;stop-opacity:1"
         id="stop23" />
    </linearGradient>
    <style
       id="current-color-scheme"
       type="text/css">      .ColorScheme-Highlight {
        color:#3593e6;
      }
</style>
    <linearGradient
       id="d"
       gradientUnits="userSpaceOnUse"
       x1="4"
       x2="18.999998"
       xlink:href="#c"
       y1="5"
       y2="20"
       gradientTransform="matrix(2.7999616,0,0,2.7999616,1.095156,-2.3992319)" />
    <linearGradient
       id="c">
      <stop
         offset="0"
         stop-color="#292c2f"
         id="stop265" />
      <stop
         offset="1"
         stop-opacity="0"
         id="stop267" />
    </linearGradient>
    <linearGradient
       id="b"
       gradientUnits="userSpaceOnUse"
       x1="13.280776"
       x2="28.280775"
       xlink:href="#c"
       y1="5.088388"
       y2="20.088388"
       gradientTransform="matrix(2.7999616,0,0,2.7999616,1.095156,-2.3992319)" />
    <linearGradient
       id="c-3"
       gradientUnits="userSpaceOnUse"
       x1="5"
       x2="5"
       y1="20"
       y2="7"
       gradientTransform="matrix(3.4390082,0,0,3.4390082,-5.8290972,-4.015561)">
      <stop
         offset="0"
         stop-color="#999a9c"
         id="stop164" />
      <stop
         offset="1"
         stop-color="#f4f5f5"
         id="stop166" />
    </linearGradient>
    <linearGradient
       id="a"
       y1="44"
       y2="4"
       x2="0"
       gradientUnits="userSpaceOnUse">
      <stop
         stop-color="#7cbaf8"
         id="stop152" />
      <stop
         offset="1"
         stop-color="#f4fcff"
         id="stop154" />
    </linearGradient>
    <linearGradient
       id="b-3"
       y1="39"
       y2="9"
       gradientUnits="userSpaceOnUse"
       x2="0"
       gradientTransform="matrix(1.02857,0,0,1.2,-5.314,-2013.52)">
      <stop
         stop-color="#197cf1"
         id="stop157" />
      <stop
         offset="1"
         stop-color="#20bcfa"
         id="stop159" />
    </linearGradient>
    <linearGradient
       xlink:href="#c-7"
       id="d-6"
       y1="18.26"
       x1="14.59"
       y2="40.439999"
       x2="36.060001"
       gradientUnits="userSpaceOnUse" />
    <linearGradient
       id="c-7"
       y1="13.01"
       x1="25.040001"
       y2="30.26"
       x2="42.990002"
       gradientUnits="userSpaceOnUse">
      <stop
         stop-color="#292c2f"
         id="stop162" />
      <stop
         offset="1"
         stop-color="#292c2f"
         stop-opacity="0"
         id="stop164-5" />
    </linearGradient>
    <linearGradient
       id="a-3"
       y1="61.200001"
       x1="-162.28999"
       y2="505.06"
       gradientUnits="userSpaceOnUse"
       x2="737.63"
       gradientTransform="matrix(0.07988963,0.02495102,-0.02223702,0.07119775,13.078816,2.4457071)">
      <stop
         stop-color="#fafafa"
         id="stop272" />
      <stop
         offset="1"
         stop-color="#939393"
         id="stop274" />
    </linearGradient>
    <linearGradient
       id="b-6"
       y1="41"
       x1="41"
       y2="18.25"
       x2="21.129999"
       gradientUnits="userSpaceOnUse"
       gradientTransform="matrix(1.2224895,0,0,1.2224895,2.7878998,4.0691761)">
      <stop
         stop-color="#502ae3"
         id="stop277" />
      <stop
         offset="1"
         stop-color="#4db4f6"
         id="stop279" />
    </linearGradient>
    <linearGradient
       spreadMethod="reflect"
       id="a-36"
       x1="428.57001"
       x2="408.57001"
       gradientUnits="userSpaceOnUse"
       gradientTransform="matrix(1.1250004,0,0,1.1250004,-427.64144,-557.27525)">
      <stop
         stop-color="#2f3943"
         id="stop172" />
      <stop
         offset="1"
         stop-color="#808c9b"
         id="stop174" />
    </linearGradient>
    <linearGradient
       id="b-7"
       y1="-511.20001"
       x1="-395.07001"
       y2="-535.79999"
       x2="-419.67001"
       gradientUnits="userSpaceOnUse"
       gradientTransform="matrix(1.1250004,0,0,1.1250004,427.64142,557.27525)">
      <stop
         stop-color="#18222a"
         id="stop177" />
      <stop
         offset="1"
         stop-color="#566069"
         id="stop179" />
    </linearGradient>
    <linearGradient
       id="c-5"
       y1="-514"
       x1="-398.07001"
       y2="-533.13"
       x2="-417.20001"
       gradientUnits="userSpaceOnUse">
      <stop
         stop-color="#b97c1b"
         id="stop182" />
      <stop
         offset="1"
         stop-color="#dc8f16"
         id="stop184" />
    </linearGradient>
    <linearGradient
       xlink:href="#c-5"
       id="g"
       y1="-516.79999"
       x1="-401.07001"
       y2="-541.29999"
       x2="-425.57001"
       gradientUnits="userSpaceOnUse"
       gradientTransform="matrix(1.1250004,0,0,1.1250004,427.64142,557.27525)" />
    <linearGradient
       id="d-3"
       y1="536.87"
       x1="421.64001"
       y2="511.82001"
       gradientUnits="userSpaceOnUse"
       x2="396.59"
       gradientTransform="rotate(180,408.57,523.8)">
      <stop
         stop-color="#f39c12"
         id="stop187" />
      <stop
         offset="1"
         stop-color="#f5ab35"
         id="stop189" />
    </linearGradient>
    <linearGradient
       xlink:href="#d-3"
       id="e"
       y1="532.22998"
       x1="417"
       y2="508.73001"
       gradientUnits="userSpaceOnUse"
       x2="393.5"
       gradientTransform="matrix(-1.1250004,0,0,-1.1250004,491.64142,621.27527)" />
    <linearGradient
       xlink:href="#d-3"
       id="f"
       y1="529.62"
       x1="414.39999"
       y2="506.91"
       gradientUnits="userSpaceOnUse"
       x2="391.69"
       gradientTransform="matrix(-1.1250004,0,0,-1.1250004,491.64142,621.27527)" />
    <linearGradient
       id="b-67"
       y1="42"
       x1="42"
       y2="6"
       x2="6"
       gradientUnits="userSpaceOnUse"
       gradientTransform="matrix(1.0714267,0,0,1.0714267,5.985306,6.0733032)">
      <stop
         stop-color="#989a9b"
         id="stop2404" />
      <stop
         offset="1"
         stop-color="#f6f6f7"
         id="stop2406" />
    </linearGradient>
    <linearGradient
       id="a-5"
       y1="542.79999"
       y2="503.79999"
       x2="0"
       gradientUnits="userSpaceOnUse">
      <stop
         stop-color="#2a2c2f"
         id="stop2399" />
      <stop
         offset="1"
         stop-color="#424649"
         id="stop2401" />
    </linearGradient>
    <linearGradient
       xlink:href="#a-5"
       id="f-3"
       x1="391.57001"
       x2="461.20001"
       gradientUnits="userSpaceOnUse"
       gradientTransform="matrix(1.0714268,0,0,1.0714268,-392.86616,-561.15098)" />
    <linearGradient
       id="linearGradient2623"
       y1="542.79999"
       y2="503.79999"
       x2="0"
       gradientUnits="userSpaceOnUse">
      <stop
         stop-color="#2a2c2f"
         id="stop2619" />
      <stop
         offset="1"
         stop-color="#424649"
         id="stop2621" />
    </linearGradient>
    <linearGradient
       id="c-56"
       y1="523.79999"
       y2="549.79999"
       x2="0"
       gradientUnits="userSpaceOnUse"
       gradientTransform="matrix(0.70711,-0.70711,0.70711,0.70711,-635.28,-57.48)">
      <stop
         id="stop2409" />
      <stop
         offset="1"
         stop-opacity="0"
         id="stop2411" />
    </linearGradient>
    <linearGradient
       xlink:href="#a-5"
       id="e-2"
       y1="543.79999"
       x1="428.57001"
       y2="503.79999"
       x2="388.57001"
       gradientUnits="userSpaceOnUse"
       gradientTransform="matrix(1.0714267,0,0,1.0714267,-406.05328,-529.42577)" />
    <linearGradient
       id="linearGradient2634"
       y1="542.79999"
       y2="503.79999"
       x2="0"
       gradientUnits="userSpaceOnUse">
      <stop
         stop-color="#2a2c2f"
         id="stop2630" />
      <stop
         offset="1"
         stop-color="#424649"
         id="stop2632" />
    </linearGradient>
    <linearGradient
       xlink:href="#c-56"
       id="d-9"
       y1="520.94"
       x1="410.88"
       y2="532.63"
       x2="422.57001"
       gradientUnits="userSpaceOnUse"
       gradientTransform="matrix(1.0714267,0,0,1.0714267,-406.05328,-529.42577)" />
    <linearGradient
       id="linearGradient2641"
       y1="523.79999"
       y2="549.79999"
       x2="0"
       gradientUnits="userSpaceOnUse"
       gradientTransform="matrix(0.70711,-0.70711,0.70711,0.70711,-635.28,-57.48)">
      <stop
         id="stop2637" />
      <stop
         offset="1"
         stop-opacity="0"
         id="stop2639" />
    </linearGradient>
    <linearGradient
       id="b-36"
       y1="55.41"
       x1="41.528"
       y2="25.511"
       x2="24.264999"
       gradientUnits="userSpaceOnUse"
       gradientTransform="matrix(1.1476153,0,0,1.1476153,4.2035556,4.7445357)">
      <stop
         stop-color="#f7bb5d"
         id="stop217" />
      <stop
         offset="1"
         stop-color="#fce3bc"
         id="stop219" />
    </linearGradient>
    <linearGradient
       id="a-7"
       y1="542.79999"
       y2="503.79999"
       x2="0"
       gradientUnits="userSpaceOnUse">
      <stop
         stop-color="#f39c12"
         id="stop212" />
      <stop
         offset="1"
         stop-color="#f5ab35"
         id="stop214" />
    </linearGradient>
    <linearGradient
       xlink:href="#a-7"
       id="f-5"
       x1="391.57001"
       x2="461.20001"
       gradientUnits="userSpaceOnUse"
       gradientTransform="matrix(1.1476155,0,0,1.1476155,-423.60847,-600.73822)" />
    <linearGradient
       id="linearGradient544"
       y1="542.79999"
       y2="503.79999"
       x2="0"
       gradientUnits="userSpaceOnUse">
      <stop
         stop-color="#f39c12"
         id="stop540" />
      <stop
         offset="1"
         stop-color="#f5ab35"
         id="stop542" />
    </linearGradient>
    <linearGradient
       id="c-35"
       y1="523.79999"
       y2="549.79999"
       x2="0"
       gradientUnits="userSpaceOnUse"
       gradientTransform="matrix(0.70711,-0.70711,0.70711,0.70711,-635.28,-57.48)">
      <stop
         id="stop222" />
      <stop
         offset="1"
         stop-opacity="0"
         id="stop224" />
    </linearGradient>
    <linearGradient
       id="e-6"
       y1="543.79999"
       x1="428.57001"
       y2="503.79999"
       x2="388.57001"
       gradientUnits="userSpaceOnUse"
       gradientTransform="matrix(1.1476153,0,0,1.1476153,-437.13484,-568.83357)">
      <stop
         stop-color="#f39c12"
         id="stop228" />
      <stop
         offset="1"
         stop-color="#ffc35a"
         id="stop230" />
    </linearGradient>
    <linearGradient
       xlink:href="#c-35"
       id="d-2"
       y1="520.94"
       x1="410.88"
       y2="532.63"
       x2="422.57001"
       gradientUnits="userSpaceOnUse"
       gradientTransform="matrix(1.1476153,0,0,1.1476153,-437.13484,-568.83357)" />
    <linearGradient
       id="linearGradient558"
       y1="523.79999"
       y2="549.79999"
       x2="0"
       gradientUnits="userSpaceOnUse"
       gradientTransform="matrix(0.70711,-0.70711,0.70711,0.70711,-635.28,-57.48)">
      <stop
         id="stop554" />
      <stop
         offset="1"
         stop-opacity="0"
         id="stop556" />
    </linearGradient>
    <linearGradient
       xlink:href="#shadow-3"
       id="linearGradient4227-3"
       gradientUnits="userSpaceOnUse"
       gradientTransform="matrix(1.125,0,0,1.125,-13.26575,-1126.5888)"
       x1="21.475"
       y1="1035.158"
       x2="34.474998"
       y2="1048.158" />
    <linearGradient
       id="shadow-3">
      <stop
         style="stop-color:#31363b;stop-opacity:0.208"
         offset="0"
         id="stop237" />
      <stop
         style="stop-color:#31363b;stop-opacity:0;"
         offset="1"
         id="stop239" />
    </linearGradient>
    <linearGradient
       xlink:href="#shadow-3"
       id="linearGradient4381"
       gradientUnits="userSpaceOnUse"
       gradientTransform="matrix(1.125,0,0,1.125,1.2239067,-1126.2178)"
       x1="21.969"
       y1="1035.3621"
       x2="35.969002"
       y2="1049.3621" />
    <linearGradient
       xlink:href="#shadow-3"
       id="linearGradient4377"
       gradientUnits="userSpaceOnUse"
       gradientTransform="matrix(1.125,0,0,1.125,-2.6679633,-1130.3599)"
       x1="21.084999"
       y1="1036.975"
       x2="35.969002"
       y2="1049.3621" />
    <linearGradient
       xlink:href="#shadow-3"
       id="linearGradient4203"
       gradientUnits="userSpaceOnUse"
       x1="23"
       y1="1035.3621"
       x2="36"
       y2="1048.3621"
       gradientTransform="matrix(1.125,0,0,1.125,19.078005,-1144.0262)" />
    <linearGradient
       xlink:href="#shadow-3"
       id="linearGradient4199"
       x1="21.969"
       y1="1035.3621"
       x2="35.969002"
       y2="1049.3621"
       gradientUnits="userSpaceOnUse"
       gradientTransform="matrix(1.125,0,0,1.125,15.703003,-1140.6512)" />
    <linearGradient
       xlink:href="#shadow-3"
       id="linearGradient4373"
       gradientUnits="userSpaceOnUse"
       gradientTransform="matrix(1.125,0,0,1.125,11.178623,-1144.604)"
       x1="21.084999"
       y1="1036.975"
       x2="35.969002"
       y2="1049.3621" />
    <linearGradient
       xlink:href="#blue-gradient-5"
       id="linearGradient4351"
       x1="24"
       y1="1008.362"
       x2="24"
       y2="1048.3621"
       gradientUnits="userSpaceOnUse"
       gradientTransform="matrix(1.125,0,0,1.125,4.4530007,-1124.9012)" />
    <linearGradient
       id="blue-gradient-5">
      <stop
         style="stop-color:#054e87;stop-opacity:1"
         offset="0"
         id="stop232" />
      <stop
         style="stop-color:#1d99f3;stop-opacity:1"
         offset="1"
         id="stop234" />
    </linearGradient>
    <linearGradient
       id="b-367"
       y1="517.79999"
       x1="399.57001"
       y2="534.79999"
       x2="416.57001"
       gradientUnits="userSpaceOnUse"
       gradientTransform="matrix(1.4785083,0,0,1.4785083,-572.01587,-742.04721)">
      <stop
         id="stop251" />
      <stop
         offset="1"
         stop-opacity="0"
         id="stop253" />
    </linearGradient>
    <linearGradient
       id="c-53"
       y1="537.79999"
       y2="508.79999"
       gradientUnits="userSpaceOnUse"
       x2="0"
       gradientTransform="matrix(1.4785083,0,0,1.4785083,-572.01587,-742.04721)">
      <stop
         stop-color="#026ddc"
         id="stop256" />
      <stop
         offset="1"
         stop-color="#28b0fd"
         id="stop258" />
    </linearGradient>
    <linearGradient
       id="d-5"
       y1="525.28003"
       x1="408.64999"
       y2="533.28003"
       x2="416.64999"
       gradientUnits="userSpaceOnUse"
       gradientTransform="translate(-0.081,-0.48)">
      <stop
         stop-opacity=".065"
         id="stop261" />
      <stop
         offset="1"
         stop-opacity="0"
         id="stop263" />
    </linearGradient>
    <linearGradient
       xlink:href="#d-5"
       id="e-62"
       y1="517.96002"
       x1="417.79001"
       y2="525.90997"
       gradientUnits="userSpaceOnUse"
       x2="426.22"
       gradientTransform="matrix(-1.4785083,0,0,1.4785083,636.2209,-742.75685)" />
    <linearGradient
       xlink:href="#a-35"
       id="b-3675"
       x1="44"
       y1="44"
       x2="4"
       y2="4"
       gradientUnits="userSpaceOnUse"
       gradientTransform="matrix(1.125,0,0,1.125,5.051015,4.1524783)" />
    <linearGradient
       id="a-35">
      <stop
         stop-color="#197cf1"
         id="stop251-6" />
      <stop
         offset="1"
         stop-color="#20bcfa"
         id="stop253-2" />
    </linearGradient>
  </defs>
  <path
     d="m 2.9999985,10.25 c 0,-4.0041748 3.245938,-7.25 7.2500005,-7.25 h 43.500003 c 4.004173,0 7.249999,3.2458252 7.249999,7.25 v 43.5 c 0,4.004173 -3.245827,7.25 -7.25,7.25 H 10.249999 C 6.2459365,61 2.9999985,57.754173 2.9999985,53.75 Z"
     id="path736"
     style="fill:#606c86;fill-opacity:1;stroke-width:3.625" />
  <path
     d="M 2.9999985,9.796875 C 2.9999985,6.0431877 6.2459365,3 10.249999,3 h 43.500003 c 4.004173,0 7.249999,3.0431877 7.249999,6.796875 v 40.781249 c 0,3.753693 -3.245827,6.796876 -7.25,6.796876 H 10.249999 c -4.0040625,0 -7.2500005,-3.043183 -7.2500005,-6.796876 z"
     id="path738"
     style="fill:#3b4252;fill-opacity:1;stroke-width:3.625" />
  <path
     style="fill:url(#b-3675);fill-opacity:1;stroke:none;stroke-width:1.125px;stroke-linecap:butt;stroke-linejoin:miter;stroke-opacity:1"
     d="m 9.551,31.152482 13.5,-22.4999997 h 18 l 13.5,22.4999997 -13.5,22.5 h -18 z"
     id="path259" />
  <path
     d="m 26.86141,13.467482 c -0.52432,0 -0.972,0.181132 -1.34108,0.55125 a 1.83375,1.83375 0 0 0 -0.55347,1.33875 c 0,0.523132 0.1845,0.96975 0.55347,1.3365 a 1.82925,1.82925 0 0 0 1.33985,0.558 c 0.52432,0 0.9675,-0.185632 1.33664,-0.558 0.369,-0.36675 0.55786,-0.813368 0.55786,-1.335382 0,-0.36 -0.088,-0.684 -0.26318,-0.968618 a 1.98,1.98 0 0 0 -0.29468,-0.37125 1.814625,1.814625 0 0 0 -1.33541,-0.55125 z m 4.83968,0 c -0.52309,0 -0.97091,0.181132 -1.33991,0.55125 -0.37118,0.37125 -0.5535,0.817868 -0.5535,1.33875 0,0.523132 0.18232,0.96975 0.5535,1.3365 a 1.82925,1.82925 0 0 0 1.33991,0.558 c 0.522,0 0.96532,-0.185632 1.3365,-0.558 0.369,-0.36675 0.5535,-0.813368 0.5535,-1.335382 a 1.839375,1.839375 0 0 0 -0.5535,-1.339868 1.8225,1.8225 0 0 0 -1.3365,-0.55125 z m 4.84091,0 c -0.52541,0 -0.97091,0.181132 -1.34209,0.55125 a 1.83375,1.83375 0 0 0 -0.5535,1.33875 c 0,0.523132 0.1845,0.96975 0.5535,1.3365 a 1.82925,1.82925 0 0 0 1.34209,0.558 1.81125,1.81125 0 0 0 1.33432,-0.558 A 1.81125,1.81125 0 0 0 38.432,15.3586 1.821375,1.821375 0 0 0 37.87632,14.018732 1.8135,1.8135 0 0 0 36.542,13.467482 Z m -14.51925,5.10075 c -0.52425,0 -0.970882,0.183368 -1.342132,0.554618 a 1.8225,1.8225 0 0 0 -0.55125,1.33875 c 0,0.520882 0.181132,0.9675 0.55125,1.337632 a 1.83375,1.83375 0 0 0 1.342132,0.55575 c 0.522,0 0.9675,-0.18675 1.335368,-0.55575 0.37125,-0.370132 0.559132,-0.81675 0.559132,-1.33875 0,-0.36 -0.09,-0.684 -0.268882,-0.970882 a 1.94625,1.94625 0 0 0 -0.29025,-0.36675 1.81125,1.81125 0 0 0 -1.335368,-0.554618 z m 19.35566,0 c -0.52432,0 -0.96873,0.183368 -1.33882,0.554618 -0.37118,0.369 -0.5535,0.815632 -0.5535,1.33875 0,0.520882 0.18232,0.9675 0.55459,1.337632 a 1.825875,1.825875 0 0 0 1.33882,0.55575 c 0.52091,0 0.96518,-0.18675 1.3365,-0.55575 0.37009,-0.370132 0.55459,-0.81675 0.55459,-1.33875 a 1.83375,1.83375 0 0 0 -0.55459,-1.33875 1.82025,1.82025 0 0 0 -1.33759,-0.5535 z m -14.517,5.103 c -0.52432,0 -0.972,0.18225 -1.34108,0.5535 a 1.82475,1.82475 0 0 0 -0.55347,1.33875 c 0,0.523118 0.1845,0.9675 0.55347,1.33875 0.11367,0.11475 0.23627,0.21375 0.36676,0.2925 0.288,0.174368 0.61309,0.262118 0.97432,0.262118 0.52309,0 0.96627,-0.18675 1.33527,-0.5535 a 1.83375,1.83375 0 0 0 0.558,-1.341 1.819125,1.819125 0 0 0 -0.558,-1.33875 1.809,1.809 0 0 0 -1.33527,-0.552368 z m 4.83968,0 c -0.52309,0 -0.97091,0.18225 -1.33991,0.5535 -0.37118,0.369 -0.5535,0.81675 -0.5535,1.33875 0,0.523118 0.18232,0.9675 0.5535,1.33875 0.11373,0.11475 0.23632,0.21375 0.36682,0.2925 0.288,0.174368 0.61309,0.262118 0.97309,0.262118 0.522,0 0.96532,-0.18675 1.3365,-0.5535 0.369,-0.37125 0.5535,-0.81675 0.5535,-1.341 a 1.839375,1.839375 0 0 0 -0.5535,-1.33875 1.81575,1.81575 0 0 0 -1.3365,-0.552368 z m 4.84091,0 a 1.8225,1.8225 0 0 0 -1.34209,0.5535 1.82475,1.82475 0 0 0 -0.5535,1.33875 c 0,0.523118 0.1845,0.9675 0.5535,1.33875 a 1.84725,1.84725 0 0 0 1.34209,0.5535 c 0.522,0 0.96518,-0.185632 1.33432,-0.552382 C 38.2475,26.5321 38.432,26.0866 38.432,25.56235 A 1.821375,1.821375 0 0 0 37.87632,24.2236 1.80675,1.80675 0 0 0 36.542,23.671232 Z M 31.70109,28.7731 c -0.52309,0 -0.97091,0.1845 -1.33991,0.5535 -0.37118,0.369 -0.5535,0.81675 -0.5535,1.33875 0,0.523132 0.18232,0.970882 0.5535,1.338753 a 1.82925,1.82925 0 0 0 1.33991,0.55575 1.83375,1.83375 0 0 0 1.3365,-0.554621 c 0.369,-0.369 0.5535,-0.81675 0.5535,-1.341 a 1.8315,1.8315 0 0 0 -0.5535,-1.337632 1.823625,1.823625 0 0 0 -1.3365,-0.5535 z m 0,5.101882 c -0.52309,0 -0.97091,0.18675 -1.33991,0.5535 a 1.8225,1.8225 0 0 0 -0.5535,1.341 c 0,0.520875 0.18232,0.9675 0.5535,1.337625 a 1.82925,1.82925 0 0 0 1.33991,0.55575 c 0.522,0 0.96532,-0.18675 1.3365,-0.55575 0.369,-0.369 0.5535,-0.81675 0.5535,-1.33875 a 1.839375,1.839375 0 0 0 -0.5535,-1.33875 1.8315,1.8315 0 0 0 -1.3365,-0.554625 z m 0,5.104125 a 1.83375,1.83375 0 0 0 -1.33991,0.55125 1.8225,1.8225 0 0 0 -0.5535,1.341 c 0,0.520875 0.18232,0.968625 0.5535,1.33875 a 1.82925,1.82925 0 0 0 1.33991,0.55575 c 0.522,0 0.96532,-0.187875 1.3365,-0.556875 0.369,-0.369 0.5535,-0.81675 0.5535,-1.33875 a 1.839375,1.839375 0 0 0 -0.5535,-1.33875 1.830375,1.830375 0 0 0 -1.3365,-0.552375 z m -4.83968,5.101875 a 1.83375,1.83375 0 0 0 -1.34102,0.55125 1.83375,1.83375 0 0 0 -0.55352,1.341 c 0,0.520875 0.18449,0.968625 0.55352,1.33875 a 1.82925,1.82925 0 0 0 1.33993,0.55575 c 0.52418,0 0.9675,-0.187875 1.3365,-0.556875 0.369,-0.369 0.558,-0.81675 0.558,-1.33875 a 1.8315,1.8315 0 0 0 -0.558,-1.33875 1.8225,1.8225 0 0 0 -1.33541,-0.55125 z m 4.83968,0 a 1.83375,1.83375 0 0 0 -1.33991,0.55125 c -0.37118,0.37125 -0.5535,0.819 -0.5535,1.341 0,0.520875 0.18232,0.968625 0.5535,1.33875 a 1.82925,1.82925 0 0 0 1.33991,0.55575 c 0.522,0 0.96532,-0.187875 1.3365,-0.556875 0.369,-0.369 0.5535,-0.81675 0.5535,-1.33875 a 1.839375,1.839375 0 0 0 -0.5535,-1.33875 1.830375,1.830375 0 0 0 -1.3365,-0.55125 z"
     fill="#ffffff"
     id="path261"
     style="stroke-width:1.125" />
  <path
     d="m 33.33009,14.387732 c 0.17332,0.286868 0.261,0.60975 0.261,0.970868 0,0.522014 -0.1845,0.968632 -0.5535,1.335382 -0.37118,0.37125 -0.8145,0.559132 -1.3365,0.559132 -0.36,0 -0.68618,-0.08781 -0.97309,-0.264382 0.0789,0.129382 0.17659,0.250882 0.29018,0.3645 0.369,0.370132 0.81682,0.558 1.33991,0.558 0.52432,0 0.9675,-0.187868 1.3365,-0.558 0.369,-0.36675 0.55582,-0.8145 0.55582,-1.33875 0,-0.520882 -0.18682,-0.9675 -0.55582,-1.337618 a 2.003625,2.003625 0 0 0 -0.3645,-0.289132 z m 4.8375,0 c 0.17659,0.286868 0.26441,0.60975 0.26441,0.970868 0,0.522014 -0.1845,0.968632 -0.55582,1.335382 A 1.81125,1.81125 0 0 1 36.542,17.253114 c -0.36,0 -0.68632,-0.08781 -0.97309,-0.264382 0.079,0.129382 0.17659,0.250882 0.29018,0.3645 0.369,0.370132 0.81682,0.558 1.33991,0.558 0.522,0 0.96518,-0.187868 1.3365,-0.558 0.369,-0.369 0.5535,-0.815618 0.5535,-1.33875 0,-0.520882 -0.1845,-0.9675 -0.5535,-1.337618 a 1.94625,1.94625 0 0 0 -0.36791,-0.289132 z m -9.67609,0.002 c 0.1755,0.284621 0.26318,0.6075 0.26318,0.9675 0,0.523122 -0.189,0.96975 -0.558,1.3365 -0.369,0.37125 -0.81218,0.559121 -1.33527,0.559121 -0.36,0 -0.68632,-0.08772 -0.97432,-0.264371 0.0801,0.129371 0.17659,0.250871 0.29032,0.3645 0.37118,0.370122 0.819,0.558 1.34318,0.558 0.52091,0 0.96409,-0.187879 1.33309,-0.558 0.37132,-0.36675 0.558,-0.8145 0.558,-1.33875 0,-0.520879 -0.18668,-0.9675 -0.558,-1.337629 A 1.89,1.89 0 0 0 28.4915,14.389732 Z m 9.675,5.09625 c 0.17768,0.29025 0.2655,0.61425 0.2655,0.97425 0,0.522 -0.1845,0.968622 -0.55582,1.33875 a 1.816875,1.816875 0 0 1 -1.33418,0.55575 c -0.36,0 -0.68632,-0.08775 -0.97091,-0.262128 0.0778,0.127128 0.17441,0.248628 0.288,0.363378 0.369,0.37125 0.81682,0.558 1.33991,0.558 0.522,0 0.96518,-0.18675 1.3365,-0.558 0.369,-0.367879 0.5535,-0.8145 0.5535,-1.3365 0,-0.52425 -0.1845,-0.968628 -0.5535,-1.339878 a 1.954125,1.954125 0 0 0 -0.369,-0.292501 z m 4.83968,0 c 0.17673,0.29025 0.26441,0.61425 0.26441,0.97425 0,0.522 -0.1845,0.968622 -0.55459,1.33875 -0.37132,0.369 -0.81559,0.55575 -1.33759,0.55575 -0.36,0 -0.684,-0.08775 -0.96873,-0.262128 0.0789,0.127128 0.17332,0.248628 0.288,0.363378 0.37132,0.37125 0.81341,0.558 1.33991,0.558 0.522,0 0.9675,-0.18675 1.33541,-0.558 a 1.81125,1.81125 0 0 0 0.55691,-1.3365 c 0,-0.52425 -0.1845,-0.968628 -0.55691,-1.339878 a 1.8765,1.8765 0 0 0 -0.36682,-0.292501 z m -19.357812,0.003 c 0.178882,0.288 0.268882,0.610878 0.268882,0.970878 0,0.522 -0.18675,0.968622 -0.559132,1.33875 a 1.8225,1.8225 0 0 1 -1.335368,0.55575 c -0.36,0 -0.68625,-0.08772 -0.970882,-0.262128 0.0765,0.127128 0.17325,0.248628 0.288,0.363378 0.369,0.37125 0.815632,0.558 1.33875,0.558 0.52425,0 0.96525,-0.18675 1.3365,-0.558 0.370132,-0.367879 0.559142,-0.8145 0.559142,-1.3365 a 1.83375,1.83375 0 0 0 -0.559142,-1.339878 1.94625,1.94625 0 0 0 -0.36675,-0.29025 z m 4.840812,0 c 0.17782,0.288 0.2655,0.610878 0.2655,0.970878 0,0.522 -0.189,0.968622 -0.558,1.33875 a 1.819125,1.819125 0 0 1 -1.33527,0.55575 c -0.35891,0 -0.684,-0.08772 -0.972,-0.264378 0.079,0.129378 0.17427,0.250878 0.288,0.365628 0.37118,0.37125 0.819,0.558 1.34318,0.558 a 1.81125,1.81125 0 0 0 1.33309,-0.558 c 0.37132,-0.367879 0.558,-0.8145 0.558,-1.3365 0,-0.523128 -0.18668,-0.968628 -0.558,-1.339878 a 2.00475,2.00475 0 0 0 -0.3645,-0.29025 z m 4.8375,0 c 0.17673,0.288 0.26441,0.610878 0.26441,0.970878 0,0.522 -0.1845,0.968622 -0.5535,1.33875 -0.37118,0.369 -0.8145,0.55575 -1.3365,0.55575 -0.36,0 -0.68618,-0.08772 -0.97309,-0.264378 0.0789,0.129378 0.17659,0.250878 0.29018,0.365628 0.369,0.37125 0.81682,0.558 1.33991,0.558 0.52432,0 0.9675,-0.18675 1.3365,-0.558 0.369,-0.367879 0.55582,-0.8145 0.55582,-1.3365 0,-0.523128 -0.18682,-0.968628 -0.55582,-1.339878 a 1.94625,1.94625 0 0 0 -0.36668,-0.29025 z M 18.812,24.59086 c 0.176618,0.288 0.264368,0.610872 0.264368,0.970871 0,0.524251 -0.18675,0.96975 -0.55575,1.341 a 1.83375,1.83375 0 0 1 -1.33875,0.5535 c -0.36,0 -0.682868,-0.08771 -0.968618,-0.262121 0.07762,0.129371 0.172118,0.252 0.28575,0.365621 0.37125,0.369 0.819,0.55575 1.342118,0.55575 0.522,0 0.9675,-0.18675 1.3365,-0.55575 0.37125,-0.369 0.558,-0.81675 0.558,-1.33875 0,-0.523121 -0.18675,-0.968621 -0.558,-1.339871 A 2.003625,2.003625 0 0 0 18.812,24.59086 Z m 4.838618,0 c 0.176632,0.288 0.266632,0.610872 0.266632,0.970871 0,0.524251 -0.18675,0.96975 -0.559132,1.341 a 1.828125,1.828125 0 0 1 -1.335368,0.5535 c -0.36,0 -0.68625,-0.08771 -0.973132,-0.262121 0.07872,0.129371 0.1755,0.252 0.29025,0.365621 0.369,0.369 0.815632,0.55575 1.33875,0.55575 a 1.8225,1.8225 0 0 0 1.3365,-0.55575 c 0.370132,-0.369 0.559142,-0.81675 0.559142,-1.33875 a 1.83375,1.83375 0 0 0 -0.559142,-1.339871 2.00475,2.00475 0 0 0 -0.3645,-0.29025 z m 9.679472,0 c 0.17332,0.288 0.261,0.610872 0.261,0.970871 0,0.524251 -0.1845,0.96975 -0.5535,1.341 -0.37118,0.36675 -0.8145,0.5535 -1.3365,0.5535 -0.36,0 -0.68618,-0.08771 -0.97309,-0.262121 0.0789,0.129371 0.17659,0.252 0.29018,0.365621 0.369,0.369 0.81682,0.55575 1.33991,0.55575 0.52432,0 0.9675,-0.18675 1.3365,-0.55575 0.369,-0.369 0.55582,-0.81675 0.55582,-1.33875 0,-0.523121 -0.18682,-0.968621 -0.55582,-1.339871 a 2.00475,2.00475 0 0 0 -0.3645,-0.29025 z m 4.8375,0 c 0.17659,0.288 0.26441,0.610872 0.26441,0.970871 0,0.524251 -0.1845,0.96975 -0.55582,1.341 a 1.823625,1.823625 0 0 1 -1.33418,0.5535 c -0.36,0 -0.68632,-0.08771 -0.97309,-0.262121 0.079,0.129371 0.17659,0.252 0.29018,0.365621 0.369,0.369 0.81682,0.55575 1.33991,0.55575 0.522,0 0.96518,-0.18675 1.3365,-0.55575 0.369,-0.369 0.5535,-0.81675 0.5535,-1.33875 0,-0.523121 -0.1845,-0.968621 -0.5535,-1.339871 a 1.94625,1.94625 0 0 0 -0.36791,-0.29025 z m 4.83859,0 c 0.17673,0.288 0.26441,0.610872 0.26441,0.970871 0,0.524251 -0.1845,0.96975 -0.55459,1.341 -0.37132,0.36675 -0.81559,0.5535 -1.33759,0.5535 -0.36,0 -0.684,-0.08771 -0.96873,-0.262121 0.0765,0.129371 0.17332,0.252 0.288,0.365621 0.37132,0.369 0.81341,0.55575 1.33991,0.55575 0.522,0 0.9675,-0.18675 1.33541,-0.55575 0.37118,-0.369 0.55691,-0.81675 0.55691,-1.33875 0,-0.523121 -0.1845,-0.968621 -0.55691,-1.339871 a 1.94625,1.94625 0 0 0 -0.36682,-0.29025 z m 4.84091,0 c 0.1755,0.288 0.26332,0.610872 0.26332,0.970871 0,0.524251 -0.1845,0.96975 -0.55582,1.341 a 1.828125,1.828125 0 0 1 -1.33541,0.5535 c -0.36,0 -0.684,-0.08771 -0.972,-0.262121 0.0801,0.129371 0.17673,0.252 0.29032,0.365621 0.369,0.369 0.8145,0.55575 1.33868,0.55575 0.52091,0 0.9675,-0.18675 1.33882,-0.55575 0.36791,-0.369 0.55241,-0.81675 0.55241,-1.33875 0,-0.523121 -0.1845,-0.968621 -0.5535,-1.339871 a 1.94625,1.94625 0 0 0 -0.36682,-0.29025 z m -19.35559,0.002 c 0.1755,0.288 0.26318,0.61087 0.26318,0.96862 0,0.524251 -0.189,0.96975 -0.558,1.341 a 1.82475,1.82475 0 0 1 -1.33527,0.5535 c -0.36,0 -0.68632,-0.08775 -0.97432,-0.260999 0.0801,0.12825 0.17659,0.250879 0.29032,0.364499 0.37118,0.369 0.819,0.55575 1.34318,0.55575 0.52091,0 0.96409,-0.18675 1.33309,-0.55575 0.37132,-0.368999 0.558,-0.81675 0.558,-1.338749 0,-0.523121 -0.18668,-0.968621 -0.558,-1.339871 a 1.97775,1.97775 0 0 0 -0.36218,-0.288 z m -9.6795,5.09962 c 0.176618,0.29025 0.264368,0.61313 0.264368,0.970881 0,0.524249 -0.18675,0.972 -0.55575,1.340999 -0.37125,0.366749 -0.8145,0.55575 -1.33875,0.55575 -0.36,0 -0.682868,-0.08775 -0.968618,-0.261001 0.07875,0.126 0.172118,0.247501 0.28575,0.362251 0.37125,0.368999 0.819,0.555749 1.342118,0.555749 0.522,0 0.9675,-0.18675 1.3365,-0.555749 0.37125,-0.369001 0.558,-0.81675 0.558,-1.33875 0,-0.520879 -0.18675,-0.9675 -0.558,-1.33988 A 2.003625,2.003625 0 0 0 18.812,29.69248 Z m 4.8375,0 c 0.17775,0.29025 0.26775,0.61313 0.26775,0.970881 0,0.524249 -0.18675,0.972 -0.559132,1.340999 a 1.830375,1.830375 0 0 1 -1.335368,0.555878 c -0.36,0 -0.68625,-0.08775 -0.970882,-0.261001 0.0765,0.126 0.17325,0.247501 0.288,0.362251 0.369,0.368999 0.815632,0.555749 1.33875,0.555749 a 1.8225,1.8225 0 0 0 1.3365,-0.555698 c 0.370132,-0.368963 0.559142,-0.816713 0.559142,-1.338713 0,-0.520877 -0.18901,-0.9675 -0.559142,-1.339878 a 1.94625,1.94625 0 0 0 -0.36675,-0.29025 z m 9.67841,0 c 0.1755,0.29025 0.26318,0.61313 0.26318,0.970881 0,0.524249 -0.1845,0.972 -0.5535,1.340999 a 1.83375,1.83375 0 0 1 -1.3365,0.55575 c -0.36,0 -0.68618,-0.08775 -0.97309,-0.263251 0.0789,0.12825 0.17659,0.250871 0.29018,0.364501 0.369,0.368999 0.81682,0.555749 1.33991,0.555749 0.52432,0 0.9675,-0.18675 1.3365,-0.555749 0.369,-0.369001 0.55582,-0.81675 0.55582,-1.33875 0,-0.520879 -0.18682,-0.9675 -0.55582,-1.33988 a 1.94625,1.94625 0 0 0 -0.36668,-0.29025 z m 4.8375,0 c 0.17877,0.288 0.26659,0.61088 0.26659,0.970881 0,0.524249 -0.1845,0.972 -0.55582,1.340999 A 1.825875,1.825875 0 0 1 36.542,32.56011 c -0.36,0 -0.68632,-0.08775 -0.97091,-0.261001 0.0778,0.126 0.17441,0.247501 0.288,0.362251 0.369,0.368999 0.81682,0.555749 1.33991,0.555749 0.522,0 0.96518,-0.18675 1.3365,-0.555749 0.369,-0.369001 0.5535,-0.81675 0.5535,-1.33875 a 1.83375,1.83375 0 0 0 -0.5535,-1.33988 2.030625,2.030625 0 0 0 -0.369,-0.29025 z m 4.84077,0 c 0.17673,0.288 0.26441,0.61088 0.26441,0.970881 0,0.524249 -0.1845,0.972 -0.55459,1.340999 -0.37132,0.366749 -0.81559,0.55575 -1.33759,0.55575 -0.36,0 -0.684,-0.08775 -0.96873,-0.261001 0.0789,0.126 0.17332,0.247501 0.288,0.362251 0.37132,0.368999 0.81341,0.555749 1.33991,0.555749 0.522,0 0.9675,-0.18675 1.33541,-0.555749 0.37118,-0.369001 0.55691,-0.81675 0.55691,-1.33875 0,-0.520879 -0.1845,-0.9675 -0.55691,-1.33988 a 1.94625,1.94625 0 0 0 -0.36682,-0.29025 z m 4.83873,0 c 0.17768,0.288 0.2655,0.61088 0.2655,0.970881 0,0.524249 -0.1845,0.972 -0.55582,1.340999 a 1.830375,1.830375 0 0 1 -1.33541,0.55575 c -0.36,0 -0.684,-0.08775 -0.96968,-0.261001 0.0788,0.126 0.17441,0.247501 0.288,0.362251 0.369,0.368999 0.8145,0.555749 1.33868,0.555749 0.52091,0 0.9675,-0.18675 1.33882,-0.555749 0.36791,-0.369001 0.55241,-0.81675 0.55241,-1.33875 a 1.83375,1.83375 0 0 0 -0.5535,-1.33988 2.030625,2.030625 0 0 0 -0.369,-0.29025 z m -19.35341,0.002 c 0.1755,0.288 0.26318,0.61088 0.26318,0.96975 0,0.52313 -0.189,0.970881 -0.558,1.339881 a 1.827,1.827 0 0 1 -1.33527,0.55575 c -0.35891,0 -0.684,-0.08773 -0.972,-0.263249 0.0799,0.12825 0.17427,0.250871 0.288,0.3645 0.37118,0.368998 0.819,0.555748 1.34318,0.555748 0.52091,0 0.96409,-0.18675 1.33309,-0.555748 0.37132,-0.369 0.558,-0.816751 0.558,-1.338752 0,-0.520879 -0.18668,-0.9675 -0.558,-1.33875 A 1.9575,1.9575 0 0 0 28.4915,29.69448 Z m 9.67609,5.09963 c 0.17659,0.29025 0.26441,0.613125 0.26441,0.97425 0,0.520875 -0.1845,0.9675 -0.55582,1.33875 A 1.816875,1.816875 0 0 1 36.542,37.661735 c -0.36,0 -0.68632,-0.08775 -0.97309,-0.261 0.079,0.12825 0.17659,0.250875 0.29018,0.3645 0.369,0.36675 0.81682,0.5535 1.33991,0.5535 0.522,0 0.96518,-0.18675 1.3365,-0.5535 A 1.83375,1.83375 0 0 0 39.089,36.42536 c 0,-0.522 -0.1845,-0.96975 -0.5535,-1.33875 a 2.0115,2.0115 0 0 0 -0.36791,-0.2925 z m 4.83859,0 c 0.17673,0.29025 0.26441,0.613125 0.26441,0.97425 0,0.520875 -0.1845,0.9675 -0.55459,1.33875 -0.37132,0.367875 -0.81559,0.554625 -1.33759,0.554625 -0.36,0 -0.684,-0.08775 -0.96873,-0.261 0.0765,0.12825 0.17332,0.250875 0.288,0.3645 0.37132,0.36675 0.81341,0.5535 1.33991,0.5535 0.522,0 0.9675,-0.18675 1.33541,-0.5535 0.37118,-0.37125 0.55691,-0.819 0.55691,-1.339875 0,-0.522 -0.1845,-0.96975 -0.55691,-1.33875 a 1.8765,1.8765 0 0 0 -0.36682,-0.2925 z m 4.84091,0 c 0.1755,0.29025 0.26332,0.613125 0.26332,0.97425 0,0.520875 -0.1845,0.9675 -0.55582,1.33875 a 1.8225,1.8225 0 0 1 -1.33541,0.554625 c -0.36,0 -0.684,-0.08775 -0.972,-0.261 0.0801,0.12825 0.17673,0.250875 0.29032,0.3645 0.369,0.36675 0.8145,0.5535 1.33868,0.5535 0.52091,0 0.9675,-0.18675 1.33882,-0.5535 a 1.83375,1.83375 0 0 0 0.55241,-1.339875 c 0,-0.522 -0.1845,-0.96975 -0.5535,-1.33875 a 2.0115,2.0115 0 0 0 -0.36682,-0.2925 z M 18.812,34.79631 c 0.176618,0.288 0.264368,0.610875 0.264368,0.972 0,0.520875 -0.18675,0.968625 -0.55575,1.33875 -0.37125,0.367875 -0.8145,0.554625 -1.33875,0.554625 -0.36,0 -0.682868,-0.08775 -0.968618,-0.261 0.07762,0.12825 0.172118,0.250875 0.28575,0.3645 0.37125,0.36675 0.819,0.5535 1.342118,0.5535 0.522,0 0.9675,-0.18675 1.3365,-0.5535 0.37125,-0.37125 0.558,-0.819 0.558,-1.339875 0,-0.522 -0.18675,-0.96975 -0.558,-1.33875 A 2.003625,2.003625 0 0 0 18.812,34.797363 Z m 4.838618,0 c 0.176632,0.288 0.266632,0.610875 0.266632,0.972 0,0.520875 -0.18675,0.968625 -0.559132,1.33875 a 1.8225,1.8225 0 0 1 -1.335368,0.554705 c -0.36,0 -0.68625,-0.08775 -0.973132,-0.261 0.07872,0.12825 0.1755,0.250875 0.29025,0.3645 0.369,0.36675 0.815632,0.5535 1.33875,0.5535 0.52425,0 0.96525,-0.18675 1.3365,-0.5535 0.370132,-0.37125 0.559142,-0.819 0.559142,-1.339875 0,-0.522 -0.18901,-0.96975 -0.559142,-1.33875 a 2.003625,2.003625 0 0 0 -0.3645,-0.29025 z m 4.840882,0 c 0.1755,0.29025 0.26318,0.613125 0.26318,0.972 0,0.520875 -0.189,0.968625 -0.558,1.33875 a 1.819125,1.819125 0 0 1 -1.33527,0.554625 c -0.36,0 -0.68632,-0.08775 -0.97432,-0.26325 0.0801,0.1305 0.17659,0.253125 0.29032,0.36675 0.37118,0.36675 0.819,0.5535 1.34318,0.5535 0.52091,0 0.96409,-0.18675 1.33309,-0.5535 0.37132,-0.37125 0.558,-0.819 0.558,-1.339875 0,-0.522 -0.18668,-0.96975 -0.558,-1.33875 A 1.99125,1.99125 0 0 0 28.4915,34.79631 Z m 4.8375,0 c 0.17441,0.288 0.26209,0.610875 0.26209,0.972 0,0.520875 -0.1845,0.968625 -0.5535,1.33875 -0.37118,0.367875 -0.8145,0.554625 -1.3365,0.554625 -0.36,0 -0.68618,-0.08775 -0.97309,-0.26325 0.0789,0.1305 0.17659,0.253125 0.29018,0.36675 0.369,0.36675 0.81682,0.5535 1.33991,0.5535 0.52432,0 0.9675,-0.18675 1.3365,-0.5535 0.369,-0.37125 0.55582,-0.819 0.55582,-1.339875 0,-0.522 -0.18682,-0.96975 -0.55582,-1.33875 a 2.003625,2.003625 0 0 0 -0.3645,-0.29025 z m 4.83859,5.10075 c 0.17659,0.289125 0.26441,0.612 0.26441,0.973125 0,0.520875 -0.1845,0.968625 -0.55582,1.33875 A 1.816875,1.816875 0 0 1 36.542,42.76356 c -0.36,0 -0.68632,-0.08662 -0.97309,-0.261 0.079,0.129375 0.17659,0.250875 0.29018,0.3645 0.369,0.367875 0.81682,0.5535 1.33991,0.5535 0.522,0 0.96518,-0.185625 1.3365,-0.5535 0.369,-0.37125 0.5535,-0.81675 0.5535,-1.339875 0,-0.522 -0.1845,-0.968625 -0.5535,-1.33875 a 2.0115,2.0115 0 0 0 -0.36791,-0.292417 z m 4.83859,0 c 0.17673,0.289125 0.26441,0.612 0.26441,0.973125 0,0.520875 -0.1845,0.968625 -0.55459,1.33875 -0.37132,0.367875 -0.81559,0.554625 -1.33759,0.554625 -0.36,0 -0.684,-0.08662 -0.96873,-0.261 0.0765,0.129375 0.17332,0.250875 0.288,0.3645 0.37132,0.367875 0.81341,0.5535 1.33991,0.5535 0.522,0 0.9675,-0.185625 1.33541,-0.5535 0.37118,-0.37125 0.55691,-0.81675 0.55691,-1.339875 0,-0.522 -0.1845,-0.968625 -0.55691,-1.33875 a 1.8765,1.8765 0 0 0 -0.36682,-0.2925 z m -19.355562,0.0023 c 0.176632,0.286875 0.266632,0.60975 0.266632,0.970875 0,0.522 -0.18675,0.968625 -0.559132,1.33875 a 1.8225,1.8225 0 0 1 -1.335368,0.555158 c -0.36,0 -0.68625,-0.08663 -0.973132,-0.261 0.07872,0.129375 0.1755,0.250875 0.29025,0.3645 0.369,0.367875 0.815632,0.5535 1.33875,0.5535 0.52425,0 0.96525,-0.185625 1.3365,-0.5535 a 1.83375,1.83375 0 0 0 0.559122,-1.339627 c 0,-0.522 -0.18899,-0.968625 -0.559122,-1.33875 a 2.003625,2.003625 0 0 0 -0.3645,-0.289059 z m 4.840882,0 c 0.1755,0.289125 0.26318,0.612 0.26318,0.970875 0,0.522 -0.189,0.968625 -0.558,1.33875 a 1.819125,1.819125 0 0 1 -1.33527,0.554708 c -0.36,0 -0.68632,-0.08663 -0.97432,-0.26325 0.0801,0.131625 0.17659,0.253125 0.29032,0.36675 0.37118,0.367875 0.819,0.5535 1.34318,0.5535 0.52091,0 0.96409,-0.185625 1.33309,-0.5535 0.37132,-0.37125 0.558,-0.81675 0.558,-1.339875 0,-0.522 -0.18668,-0.968625 -0.558,-1.33875 A 1.99125,1.99125 0 0 0 28.4915,39.899443 Z m 4.8375,0 c 0.17441,0.286875 0.26209,0.60975 0.26209,0.970875 0,0.522 -0.1845,0.968625 -0.5535,1.33875 -0.37118,0.369 -0.8145,0.554625 -1.3365,0.554625 -0.36,0 -0.68618,-0.08663 -0.97309,-0.26325 0.0789,0.131625 0.17659,0.253125 0.29018,0.36675 0.369,0.367875 0.81682,0.5535 1.33991,0.5535 0.52432,0 0.9675,-0.185625 1.3365,-0.5535 0.369,-0.37125 0.55582,-0.81675 0.55582,-1.339875 0,-0.522 -0.18682,-0.968625 -0.55582,-1.33875 a 2.003625,2.003625 0 0 0 -0.3645,-0.289042 z m 4.83859,5.099625 c 0.17659,0.289125 0.26441,0.613125 0.26441,0.973125 0,0.522 -0.1845,0.968625 -0.55582,1.33875 A 1.816875,1.816875 0 0 1 36.542,47.86661 c -0.36,0 -0.68632,-0.08775 -0.97309,-0.262125 0.079,0.129375 0.17659,0.250875 0.29018,0.3645 0.369,0.367875 0.81682,0.556875 1.33991,0.556875 a 1.83375,1.83375 0 0 0 1.3365,-0.55684 c 0.369,-0.369 0.5535,-0.815625 0.5535,-1.339875 0,-0.522 -0.1845,-0.968625 -0.5535,-1.33875 a 2.0115,2.0115 0 0 0 -0.36791,-0.2925 z m -9.67609,0.0023 c 0.1755,0.289125 0.26318,0.612 0.26318,0.970875 0,0.522 -0.189,0.968625 -0.558,1.33875 a 1.819125,1.819125 0 0 1 -1.33527,0.55575 c -0.36,0 -0.68632,-0.08775 -0.97432,-0.264375 0.0801,0.131625 0.17659,0.253125 0.29032,0.36675 0.37118,0.367875 0.819,0.556875 1.34318,0.556875 0.52091,0 0.96409,-0.189 1.33309,-0.556875 a 1.8225,1.8225 0 0 0 0.558,-1.33875 c 0,-0.523125 -0.18668,-0.96975 -0.558,-1.33875 a 1.99125,1.99125 0 0 0 -0.36218,-0.29025 z m 4.8375,0 c 0.17441,0.286875 0.26209,0.610875 0.26209,0.970875 0,0.522 -0.1845,0.968625 -0.5535,1.33875 -0.37118,0.369 -0.8145,0.55575 -1.3365,0.55575 -0.36,0 -0.68618,-0.08775 -0.97309,-0.264375 0.0789,0.131625 0.17659,0.253125 0.29018,0.36675 0.369,0.367875 0.81682,0.556875 1.33991,0.556875 0.52432,0 0.9675,-0.189 1.3365,-0.556875 0.369,-0.369 0.55582,-0.815625 0.55582,-1.33875 0,-0.523125 -0.18682,-0.96975 -0.55582,-1.33875 a 2.00475,2.00475 0 0 0 -0.3645,-0.29025 z"
     fill-opacity="0.2"
     id="path263"
     style="stroke-width:1.125" />
  <path
     d="m 26.86141,18.568232 c -0.52432,0 -0.972,0.183382 -1.34108,0.554632 a 1.82475,1.82475 0 0 0 -0.55347,1.33875 c 0,0.520868 0.1845,0.9675 0.55347,1.337618 a 1.827,1.827 0 0 0 1.33985,0.55575 c 0.52432,0 0.9675,-0.18675 1.33664,-0.55575 0.369,-0.370118 0.55786,-0.81675 0.55786,-1.33875 0,-0.36 -0.088,-0.684 -0.2655,-0.970868 a 1.8765,1.8765 0 0 0 -0.2925,-0.36675 1.809,1.809 0 0 0 -1.33527,-0.554632 z m 4.83968,0 c -0.52309,0 -0.97091,0.183382 -1.33991,0.554632 -0.37118,0.369 -0.5535,0.815618 -0.5535,1.33875 0,0.520868 0.18232,0.9675 0.5535,1.337618 a 1.82925,1.82925 0 0 0 1.33991,0.55575 c 0.522,0 0.96532,-0.18675 1.3365,-0.55575 0.369,-0.370118 0.5535,-0.81675 0.5535,-1.33875 a 1.821375,1.821375 0 0 0 -0.5535,-1.33875 1.81575,1.81575 0 0 0 -1.3365,-0.5535 z m 4.84091,0 a 1.8225,1.8225 0 0 0 -1.34209,0.554632 1.82475,1.82475 0 0 0 -0.5535,1.33875 c 0,0.520868 0.1845,0.9675 0.5535,1.337618 a 1.83375,1.83375 0 0 0 1.34209,0.55575 c 0.522,0 0.96518,-0.18675 1.33432,-0.55575 0.37118,-0.370118 0.55568,-0.81675 0.55568,-1.33875 a 1.816875,1.816875 0 0 0 -0.55568,-1.33875 1.80675,1.80675 0 0 0 -1.33432,-0.5535 z m -19.360132,5.103 c -0.523118,0 -0.968618,0.18225 -1.33875,0.5535 -0.37125,0.369 -0.554618,0.81675 -0.554618,1.33875 0,0.523132 0.1845,0.9675 0.55575,1.33875 a 1.825875,1.825875 0 0 0 1.33875,0.5535 c 0.523118,0 0.966368,-0.185618 1.337618,-0.552368 0.369,-0.37125 0.55575,-0.81675 0.55575,-1.341 a 1.821375,1.821375 0 0 0 -0.55575,-1.33875 1.816875,1.816875 0 0 0 -1.33875,-0.552382 z m 4.840882,0 c -0.52425,0 -0.970882,0.18225 -1.342132,0.5535 a 1.8225,1.8225 0 0 0 -0.55125,1.33875 c 0,0.523132 0.181132,0.9675 0.55125,1.33875 a 1.84725,1.84725 0 0 0 1.342132,0.5535 c 0.522,0 0.9675,-0.185618 1.335368,-0.552368 0.37125,-0.37125 0.559132,-0.81675 0.559132,-1.341 a 1.8225,1.8225 0 0 0 -0.559132,-1.33875 1.81125,1.81125 0 0 0 -1.335368,-0.552382 z m 19.35566,0 c -0.52432,0 -0.96873,0.18225 -1.33882,0.5535 -0.37118,0.369 -0.5535,0.81675 -0.5535,1.33875 0,0.523132 0.18232,0.9675 0.55459,1.33875 a 1.825875,1.825875 0 0 0 1.33882,0.5535 c 0.52091,0 0.96518,-0.185618 1.3365,-0.552368 0.37009,-0.37125 0.55459,-0.81675 0.55459,-1.341 A 1.821375,1.821375 0 0 0 42.716,24.223614 1.82025,1.82025 0 0 0 41.37841,23.671232 Z m 4.84077,0 c -0.5265,0 -0.96968,0.18225 -1.341,0.5535 a 1.8225,1.8225 0 0 0 -0.55118,1.33875 c 0,0.523132 0.18218,0.9675 0.55118,1.33875 a 1.839375,1.839375 0 0 0 1.33991,0.5535 c 0.522,0 0.9675,-0.185618 1.3365,-0.552368 0.37132,-0.37125 0.55582,-0.81675 0.55582,-1.341 a 1.821375,1.821375 0 0 0 -0.55582,-1.33875 1.81125,1.81125 0 0 0 -1.33541,-0.552382 z M 17.183,28.7731 a 1.8225,1.8225 0 0 0 -1.33875,0.553514 c -0.37125,0.369 -0.55575,0.81675 -0.55575,1.338751 0,0.523117 0.1845,0.970867 0.55575,1.338738 a 1.825875,1.825875 0 0 0 1.33875,0.555758 c 0.523118,0.0011 0.966368,-0.187879 1.337618,-0.554629 0.369,-0.369 0.55575,-0.81675 0.55575,-1.341 a 1.8315,1.8315 0 0 0 -0.55575,-1.337618 1.82475,1.82475 0 0 0 -1.33875,-0.553514 z m 4.83975,0 c -0.52425,0 -0.970882,0.184514 -1.342132,0.553514 a 1.8225,1.8225 0 0 0 -0.55125,1.338751 c 0,0.523117 0.181132,0.970867 0.55125,1.338738 a 1.83375,1.83375 0 0 0 1.342132,0.555758 c 0.522,0.0011 0.9675,-0.187879 1.335368,-0.554629 a 1.8225,1.8225 0 0 0 0.559132,-1.341 c 0,-0.35775 -0.09,-0.680632 -0.268882,-0.970868 A 1.94625,1.94625 0 0 0 23.358118,29.326614 1.82025,1.82025 0 0 0 22.02275,28.7731 Z m 4.83743,0 c -0.52309,0 -0.97077,0.184514 -1.33868,0.553514 a 1.82475,1.82475 0 0 0 -0.55464,1.338751 c 0,0.523117 0.1845,0.970867 0.55347,1.338738 a 1.827,1.827 0 0 0 1.33985,0.555758 c 0.52432,0.0011 0.9675,-0.187879 1.33664,-0.554629 0.369,-0.369 0.55786,-0.81675 0.55786,-1.341 A 1.819125,1.819125 0 0 0 28.19682,29.326614 1.816875,1.816875 0 0 0 26.86141,28.7731 Z m 9.68182,0 c -0.52541,0 -0.97091,0.184514 -1.34209,0.553514 a 1.82475,1.82475 0 0 0 -0.5535,1.338751 c 0,0.523117 0.1845,0.970867 0.5535,1.338738 a 1.83375,1.83375 0 0 0 1.34209,0.555758 c 0.522,0.0011 0.96518,-0.187879 1.33418,-0.554629 0.37132,-0.369 0.55582,-0.81675 0.55582,-1.341 0,-0.36 -0.088,-0.682868 -0.2655,-0.970868 A 1.94625,1.94625 0 0 0 37.87618,29.326614 1.81575,1.81575 0 0 0 36.542,28.7731 Z m 4.83641,0 a 1.8225,1.8225 0 0 0 -1.33882,0.553514 c -0.37118,0.369 -0.5535,0.81675 -0.5535,1.338751 0,0.523117 0.18232,0.970867 0.55459,1.338738 a 1.825875,1.825875 0 0 0 1.33882,0.555758 c 0.52091,0.0011 0.96518,-0.187879 1.3365,-0.554629 0.37009,-0.369 0.55459,-0.81675 0.55459,-1.341 A 1.821375,1.821375 0 0 0 42.716,29.326614 1.828125,1.828125 0 0 0 41.37841,28.7731 Z m 4.84077,0 c -0.5265,0 -0.96968,0.184514 -1.341,0.553514 A 1.8225,1.8225 0 0 0 44.327,30.665365 c 0,0.523117 0.18218,0.970867 0.55118,1.338738 a 1.825875,1.825875 0 0 0 1.33991,0.555758 c 0.522,0.0011 0.9675,-0.187879 1.3365,-0.554629 0.37132,-0.369 0.55582,-0.81675 0.55582,-1.341 0,-0.36 -0.088,-0.682868 -0.2655,-0.970868 A 1.94625,1.94625 0 0 0 47.55459,29.326614 1.82025,1.82025 0 0 0 46.21918,28.7731 Z M 17.183,33.874982 c -0.52425,0 -0.96975,0.18675 -1.33875,0.5535 -0.37125,0.37125 -0.55575,0.81675 -0.55575,1.341 0,0.520875 0.1845,0.9675 0.55575,1.337625 a 1.825875,1.825875 0 0 0 1.33875,0.55575 c 0.523118,0 0.966368,-0.18675 1.337618,-0.55575 0.369,-0.369 0.55575,-0.81675 0.55575,-1.33875 a 1.821375,1.821375 0 0 0 -0.55575,-1.33875 1.83375,1.83375 0 0 0 -1.33875,-0.554625 z m 4.83975,0 c -0.52425,0 -0.970882,0.18675 -1.342132,0.5535 -0.370118,0.37125 -0.55125,0.81675 -0.55125,1.341 0,0.520875 0.181132,0.9675 0.55125,1.337625 0.115882,0.115875 0.237382,0.214875 0.369,0.29475 0.286882,0.17325 0.612,0.261 0.973132,0.261 0.522,0 0.9675,-0.18675 1.335368,-0.55575 0.37125,-0.369 0.559132,-0.81675 0.559132,-1.33875 0,-0.36 -0.09,-0.682875 -0.266632,-0.970875 a 1.954125,1.954125 0 0 0 -0.2925,-0.369 1.828125,1.828125 0 0 0 -1.335368,-0.5535 z m 4.83743,0 c -0.52309,0 -0.97077,0.18675 -1.33868,0.5535 -0.37014,0.37125 -0.55464,0.81675 -0.55464,1.341 0,0.520875 0.1845,0.9675 0.55347,1.337625 a 1.82925,1.82925 0 0 0 1.33985,0.55575 c 0.52432,0 0.9675,-0.18675 1.33664,-0.55575 0.369,-0.369 0.55786,-0.81675 0.55786,-1.33875 a 1.8315,1.8315 0 0 0 -0.55786,-1.33875 1.82475,1.82475 0 0 0 -1.33541,-0.554625 z m 9.68182,0 c -0.52541,0 -0.97091,0.18675 -1.34209,0.5535 -0.369,0.37125 -0.5535,0.81675 -0.5535,1.341 0,0.520875 0.1845,0.9675 0.5535,1.337625 0.11577,0.115875 0.2385,0.214875 0.369,0.29475 0.288,0.17325 0.61309,0.261 0.97309,0.261 0.522,0 0.96518,-0.18675 1.33418,-0.55575 0.37132,-0.369 0.55582,-0.81675 0.55582,-1.33875 A 1.83375,1.83375 0 0 0 37.87618,34.429607 1.823625,1.823625 0 0 0 36.542,33.874982 Z m 4.83641,0 c -0.52432,0 -0.96873,0.18675 -1.33882,0.5535 a 1.8225,1.8225 0 0 0 -0.5535,1.341 c 0,0.520875 0.18232,0.9675 0.55459,1.337625 a 1.825875,1.825875 0 0 0 1.33882,0.55575 c 0.52091,0 0.96518,-0.18675 1.3365,-0.55575 0.37009,-0.369 0.55459,-0.81675 0.55459,-1.33875 A 1.83375,1.83375 0 0 0 42.716,34.429607 1.837125,1.837125 0 0 0 41.37841,33.874982 Z m 4.84077,0 c -0.5265,0 -0.96968,0.18675 -1.341,0.5535 -0.369,0.37125 -0.55118,0.81675 -0.55118,1.341 0,0.520875 0.18218,0.9675 0.55118,1.337625 0.11591,0.115875 0.2385,0.214875 0.369,0.29475 0.288,0.17325 0.61091,0.261 0.972,0.261 0.52091,0 0.9675,-0.18675 1.33541,-0.55575 0.37132,-0.369 0.55582,-0.81675 0.55582,-1.33875 a 1.83375,1.83375 0 0 0 -0.55582,-1.33875 1.828125,1.828125 0 0 0 -1.33541,-0.554625 z m -24.19643,5.104125 c -0.52425,0 -0.970882,0.1845 -1.342132,0.55125 -0.370118,0.37125 -0.55125,0.81675 -0.55125,1.341 0,0.520875 0.181132,0.968625 0.55125,1.33875 a 1.84725,1.84725 0 0 0 1.342132,0.55575 c 0.522,0 0.9675,-0.187875 1.335368,-0.556875 0.37125,-0.369 0.559132,-0.81675 0.559132,-1.33875 0,-0.36 -0.09,-0.682875 -0.266632,-0.970875 a 1.954125,1.954125 0 0 0 -0.2925,-0.369 1.827,1.827 0 0 0 -1.335368,-0.55125 z m 4.83743,0 a 1.83375,1.83375 0 0 0 -1.33868,0.55125 c -0.37014,0.37125 -0.55464,0.81675 -0.55464,1.341 0,0.520875 0.1845,0.968625 0.55347,1.33875 a 1.82925,1.82925 0 0 0 1.33985,0.55575 c 0.52432,0 0.9675,-0.187875 1.33664,-0.556875 0.369,-0.369 0.55786,-0.81675 0.55786,-1.33875 a 1.8315,1.8315 0 0 0 -0.55786,-1.33875 1.8225,1.8225 0 0 0 -1.33541,-0.552375 z m 9.68182,0 c -0.52541,0 -0.97091,0.1845 -1.34209,0.55125 -0.369,0.37125 -0.5535,0.81675 -0.5535,1.341 0,0.520875 0.1845,0.968625 0.5535,1.33875 a 1.84725,1.84725 0 0 0 1.34209,0.55575 c 0.522,0 0.96518,-0.187875 1.33418,-0.556875 0.37132,-0.369 0.55582,-0.81675 0.55582,-1.33875 A 1.83375,1.83375 0 0 0 37.87618,39.531482 1.8225,1.8225 0 0 0 36.542,38.979107 Z m 4.83641,0 c -0.52432,0 -0.96873,0.1845 -1.33882,0.55125 a 1.8225,1.8225 0 0 0 -0.5535,1.341 c 0,0.520875 0.18232,0.968625 0.55459,1.33875 a 1.825875,1.825875 0 0 0 1.33882,0.55575 c 0.52091,0 0.96518,-0.187875 1.3365,-0.556875 0.37009,-0.369 0.55459,-0.81675 0.55459,-1.33875 A 1.83375,1.83375 0 0 0 42.716,39.531482 1.834875,1.834875 0 0 0 41.37841,38.979107 Z M 36.542,44.080982 c -0.52541,0 -0.97091,0.1845 -1.34209,0.55125 a 1.83375,1.83375 0 0 0 -0.5535,1.341 c 0,0.520875 0.1845,0.968625 0.5535,1.33875 0.11577,0.11475 0.2385,0.21375 0.369,0.293625 0.288,0.174375 0.61309,0.261 0.97309,0.261 0.522,0 0.96518,-0.18675 1.33418,-0.55575 0.37132,-0.369 0.55582,-0.81675 0.55582,-1.33875 a 1.83375,1.83375 0 0 0 -0.55582,-1.33875 1.8225,1.8225 0 0 0 -1.33418,-0.55125 z"
     fill="#64a2f1"
     id="path265"
     style="stroke-width:1.125" />
  <path
     style="fill:#156acd;fill-opacity:1;stroke:none;stroke-width:1.125px;stroke-linecap:butt;stroke-linejoin:miter;stroke-opacity:1"
     d="m 9.551,31.152482 13.5,22.5 h 18 l 13.5,-22.5 -13.5,21.375 h -18 z"
     id="path267" />
</svg>
