<?xml version="1.0" encoding="UTF-8" standalone="no"?>
<svg
   height="64"
   width="64"
   version="1.1"
   id="svg10"
   sodipodi:docname="7-days-to-die.svg"
   inkscape:version="1.4 (e7c3feb100, 2024-10-09)"
   xmlns:inkscape="http://www.inkscape.org/namespaces/inkscape"
   xmlns:sodipodi="http://sodipodi.sourceforge.net/DTD/sodipodi-0.dtd"
   xmlns:xlink="http://www.w3.org/1999/xlink"
   xmlns="http://www.w3.org/2000/svg"
   xmlns:svg="http://www.w3.org/2000/svg"
   xmlns:rdf="http://www.w3.org/1999/02/22-rdf-syntax-ns#"
   xmlns:cc="http://creativecommons.org/ns#"
   xmlns:dc="http://purl.org/dc/elements/1.1/">
  <metadata
     id="metadata16">
    <rdf:RDF>
      <cc:Work
         rdf:about="">
        <dc:format>image/svg+xml</dc:format>
        <dc:type
           rdf:resource="http://purl.org/dc/dcmitype/StillImage" />
      </cc:Work>
    </rdf:RDF>
  </metadata>
  <defs
     id="defs14">
    <linearGradient
       id="c"
       x1="31.458"
       x2="31.458"
       y1="51.726002"
       y2="62.897999"
       gradientTransform="matrix(0.36079,0,0,0.36079,-2.8832,-9.4399)"
       gradientUnits="userSpaceOnUse">
      <stop
         stop-color="#1776ff"
         offset="0"
         id="stop292" />
      <stop
         stop-color="#2fceff"
         offset="1"
         id="stop294" />
    </linearGradient>
    <linearGradient
       id="d"
       x1="31.458"
       x2="31.458"
       y1="36.897999"
       y2="59.897999"
       gradientTransform="matrix(0.36079,0,0,0.36079,-2.8832,-9.4399)"
       gradientUnits="userSpaceOnUse">
      <stop
         stop-color="#ff5514"
         offset="0"
         id="stop297" />
      <stop
         stop-color="#ff9014"
         offset="1"
         id="stop299" />
    </linearGradient>
    <linearGradient
       id="a"
       x1="31.458"
       x2="31.458"
       y1="46.897999"
       y2="56.897999"
       gradientTransform="matrix(0.36079,0,0,0.36079,-2.8832,-9.4399)"
       gradientUnits="userSpaceOnUse">
      <stop
         stop-color="#c0e5fb"
         offset="0"
         id="stop302" />
      <stop
         stop-color="#c3faff"
         offset="1"
         id="stop304" />
    </linearGradient>
    <linearGradient
       gradientTransform="matrix(1.0394952,0,0,1.0394363,-448.49881,-520.66414)"
       gradientUnits="userSpaceOnUse"
       x2="426.69501"
       y2="499.92099"
       y1="547.67499"
       id="a-6"
       x1="389.32001">
      <stop
         stop-color="#18222a"
         style="stop-color:#436077;stop-opacity:1;"
         id="stop216"
         offset="0" />
      <stop
         stop-color="#566069"
         offset="1"
         style="stop-color:#6d7983;stop-opacity:1"
         id="stop218" />
    </linearGradient>
    <linearGradient
       id="e"
       x1="8.4461002"
       x2="24.603001"
       y1="6.2688999"
       y2="24.570999"
       gradientUnits="userSpaceOnUse"
       gradientTransform="translate(0.254427,-38.49298)">
      <stop
         stop-opacity=".2088"
         offset="0"
         id="stop4" />
      <stop
         stop-opacity="0"
         offset="1"
         id="stop6" />
    </linearGradient>
    <linearGradient
       id="d-3"
       x1="7.8488002"
       x2="14.108"
       y1="3.5121"
       y2="14.183"
       gradientUnits="userSpaceOnUse"
       gradientTransform="translate(0.254427,-38.49298)">
      <stop
         stop-opacity=".2088"
         offset="0"
         id="stop14" />
      <stop
         stop-opacity="0"
         offset="1"
         id="stop16" />
    </linearGradient>
    <linearGradient
       id="c-6"
       x1="31.458"
       x2="31.458"
       y1="51.726002"
       y2="62.897999"
       gradientTransform="matrix(0.36079,0,0,0.36079,-2.8832,-9.4399)"
       gradientUnits="userSpaceOnUse">
      <stop
         stop-color="#1776ff"
         offset="0"
         id="stop292-7"
         style="stop-color:#55ddff;stop-opacity:1" />
      <stop
         stop-color="#2fceff"
         offset="1"
         id="stop294-5"
         style="stop-color:#00ccff;stop-opacity:1" />
    </linearGradient>
    <linearGradient
       id="d-35"
       x1="31.458"
       x2="31.458"
       y1="36.897999"
       y2="59.897999"
       gradientTransform="matrix(0.36079,0,0,0.36079,-2.8832,-9.4399)"
       gradientUnits="userSpaceOnUse">
      <stop
         stop-color="#ff5514"
         offset="0"
         id="stop297-6"
         style="stop-color:#ffccaa;stop-opacity:1" />
      <stop
         stop-color="#ff9014"
         offset="1"
         id="stop299-2"
         style="stop-color:#ff9955;stop-opacity:1" />
    </linearGradient>
    <linearGradient
       id="a-9"
       x1="31.458"
       x2="31.458"
       y1="46.897999"
       y2="56.897999"
       gradientTransform="matrix(0.36079,0,0,0.36079,-2.8832,-9.4399)"
       gradientUnits="userSpaceOnUse">
      <stop
         stop-color="#c0e5fb"
         offset="0"
         id="stop302-1"
         style="stop-color:#e3d7f4;stop-opacity:1" />
      <stop
         stop-color="#c3faff"
         offset="1"
         id="stop304-2"
         style="stop-color:#aa87de;stop-opacity:1" />
    </linearGradient>
    <linearGradient
       inkscape:collect="always"
       xlink:href="#linearGradient22063"
       id="linearGradient22065"
       x1="-14"
       y1="6"
       x2="-14"
       y2="-9.999999"
       gradientUnits="userSpaceOnUse"
       gradientTransform="matrix(3.6250002,0,0,3.6250002,82.750002,39.249998)" />
    <linearGradient
       inkscape:collect="always"
       id="linearGradient22063">
      <stop
         style="stop-color:#292f3a;stop-opacity:1;"
         offset="0"
         id="stop22059" />
      <stop
         style="stop-color:#535e75;stop-opacity:1;"
         offset="1"
         id="stop22061" />
    </linearGradient>
    <clipPath
       id="a-3">
      <circle
         cx="8.467"
         cy="288.53"
         r="6.8790002"
         fill="#d86eb0"
         stroke-opacity="0.039"
         stroke-width="0.491"
         style="paint-order:stroke markers fill"
         id="circle2-6" />
    </clipPath>
    <linearGradient
       inkscape:collect="always"
       xlink:href="#linearGradient7"
       id="linearGradient8"
       x1="32.616634"
       y1="49.714283"
       x2="32.42321"
       y2="14.279902"
       gradientUnits="userSpaceOnUse"
       gradientTransform="matrix(0.84090836,0,0,0.84444435,5.08705,0.9991669)" />
    <linearGradient
       id="linearGradient7"
       inkscape:collect="always">
      <stop
         style="stop-color:#a8cbfe;stop-opacity:1"
         offset="0"
         id="stop7" />
      <stop
         style="stop-color:#cbbbe9;stop-opacity:1"
         offset="1"
         id="stop8" />
    </linearGradient>
  </defs>
  <sodipodi:namedview
     pagecolor="#ffffff"
     bordercolor="#666666"
     borderopacity="1"
     objecttolerance="10"
     gridtolerance="10"
     guidetolerance="10"
     inkscape:pageopacity="0"
     inkscape:pageshadow="2"
     inkscape:window-width="1920"
     inkscape:window-height="998"
     id="namedview12"
     showgrid="false"
     inkscape:zoom="4.9798751"
     inkscape:cx="76.407539"
     inkscape:cy="26.807901"
     inkscape:window-x="0"
     inkscape:window-y="0"
     inkscape:window-maximized="1"
     inkscape:current-layer="svg10"
     inkscape:document-rotation="0"
     inkscape:showpageshadow="2"
     inkscape:pagecheckerboard="0"
     inkscape:deskcolor="#d1d1d1">
    <inkscape:grid
       type="xygrid"
       id="grid801"
       originx="0"
       originy="0"
       spacingy="1"
       spacingx="1"
       units="px"
       visible="false" />
  </sodipodi:namedview>
  <path
     d="M 2.999999,10.25 C 2.999999,6.245825 6.245933,3 10.249993,3 h 43.500009 c 4.00417,0 7.25,3.245825 7.25,7.25 v 43.499999 c 0,4.004173 -3.24583,7.25 -7.25,7.25 H 10.249993 c -4.00406,0 -7.249994,-3.245827 -7.249994,-7.25 z"
     id="path736"
     style="fill:#606c86;fill-opacity:1;stroke-width:3.625" />
  <path
     d="M 2.999999,9.7968747 C 2.999999,6.043188 6.245933,3 10.249993,3 h 43.500009 c 4.00417,0 7.25,3.043188 7.25,6.7968747 V 50.578123 c 0,3.753693 -3.24583,6.796876 -7.25,6.796876 H 10.249993 c -4.00406,0 -7.249995,-3.043183 -7.249995,-6.796876 z"
     id="path738"
     style="fill:url(#linearGradient22065);fill-opacity:1;stroke-width:3.625" />
  <g
     id="g1"
     transform="translate(0.0039027,3.5563926)">
    <path
       style="opacity:0.2;stroke-width:0.842677"
       d="m 31.99937,10.287911 c -1.63183,0 -2.36387,0.06269 -3.56724,0.310069 -0.99469,0.204561 -2.60601,0.665066 -2.82821,0.808163 -0.0565,0.03625 0.59163,0.712137 3.12712,3.268919 1.75829,1.773095 3.22914,3.226044 3.26833,3.226044 0.0392,0 1.51006,-1.452949 3.26843,-3.226044 2.53541,-2.556782 3.18348,-3.232651 3.12713,-3.268919 -0.22229,-0.143097 -1.83359,-0.603602 -2.8282,-0.808163 -1.20337,-0.247455 -1.93551,-0.310069 -3.56736,-0.310069 z m 11.04356,3.615277 c -0.0766,-0.03138 -7.53866,7.468439 -7.53866,7.576907 0,0.07866 3.73609,3.869271 3.8137,3.869271 0.0268,0 0.37832,-0.336672 0.78173,-0.74549 0.4035,-0.40881 1.21818,-1.216269 1.8099,-1.794443 l 1.07416,-1.048954 0.19708,0.300172 c 0.48081,0.745105 1.09763,2.170646 1.38946,3.202954 0.35917,1.270359 0.47631,2.167376 0.47631,3.641664 0,1.255498 -0.0353,1.676681 -0.23975,2.665275 -0.22104,1.068377 -0.5417,2.024565 -0.992,2.978646 -0.32134,0.680801 -0.76599,1.444792 -0.84099,1.444792 -0.0318,0 -2.51275,-2.475742 -5.51517,-5.502082 l -5.45933,-5.502084 -5.4593,5.502084 c -3.00232,3.02634 -5.48355,5.502082 -5.51517,5.502082 -0.075,0 -0.51957,-0.763991 -0.8409,-1.444792 -0.57632,-1.221188 -0.97048,-2.567609 -1.1694,-3.997915 -0.0839,-0.604771 -0.0839,-2.68723 0,-3.292014 0.14122,-1.015326 0.38297,-2.006429 0.72596,-2.958852 0.2221,-0.616962 0.78402,-1.785094 1.07735,-2.239758 l 0.19709,-0.300172 1.02819,1.002779 c 0.56565,0.551895 1.38041,1.359377 1.80989,1.794442 0.42959,0.435065 0.80158,0.791666 0.82781,0.791666 0.0774,0 3.8136,-3.790633 3.8136,-3.869271 0,-0.03951 -1.68344,-1.768638 -3.74134,-3.842882 -3.61731,-3.646062 -3.74659,-3.76908 -3.8498,-3.704337 -0.20959,0.131439 -1.01876,0.813073 -1.50118,1.263371 -4.35516,4.065677 -6.52166,10.113456 -5.75164,16.051034 0.39295,3.029941 1.51975,5.923849 3.28153,8.424654 0.62726,0.890512 1.09148,1.438035 2.01358,2.365103 0.81149,0.815922 1.91701,1.78505 2.03987,1.787847 0.0261,5.79e-4 2.49924,-2.469065 5.4954,-5.488889 2.99623,-3.019822 5.47953,-5.492186 5.51846,-5.492186 0.0389,0 2.50277,2.450859 5.4725,5.446006 2.96968,2.995157 5.43504,5.468964 5.48232,5.495486 0.21322,0.119488 2.50404,-2.029019 3.48189,-3.265625 1.68106,-2.125845 2.89381,-4.617729 3.53118,-7.247047 0.63078,-2.602008 0.699,-5.449576 0.19047,-8.01892 C 49.3913,21.380555 47.44586,17.870752 44.5736,15.179748 44.09192,14.728447 43.15924,13.950887 43.04293,13.903188 Z M 31.99937,39.935824 c -0.0391,0 -1.48498,1.429563 -3.21246,3.179859 l -3.1403,3.18316 0.27593,0.105561 c 1.29683,0.492095 3.40248,0.909704 5.04216,0.999475 0.98895,0.05405 1.02465,0.05188 1.95773,0 1.02477,-0.0568 1.74239,-0.146459 2.72308,-0.339756 0.72454,-0.142807 1.91169,-0.464786 2.43732,-0.663019 l 0.26934,-0.102271 -3.14024,-3.18316 c -1.72744,-1.750297 -3.17341,-3.179861 -3.21256,-3.179861 z"
       id="path2" />
    <path
       style="fill:#3485fd;stroke-width:0.842677"
       d="m 32.92326,46.560677 c 1.02478,-0.05679 1.74284,-0.146308 2.7235,-0.339603 0.7245,-0.142813 1.91014,-0.466273 2.43576,-0.664505 l 0.27008,-0.101792 -3.14094,-3.182351 c -1.72754,-1.750297 -3.17285,-3.182363 -3.212,-3.182363 -0.0391,0 -1.48444,1.432066 -3.21192,3.182363 l -3.1409,3.182351 0.27539,0.104507 c 1.29683,0.492096 3.402,0.909202 5.04175,0.998972 0.98896,0.05408 1.02621,0.05421 1.95928,0.0025 z"
       id="path3" />
    <path
       style="fill:url(#linearGradient8);stroke-width:0.842677"
       d="M 26.48154,37.490593 C 29.47774,34.47077 31.96108,32 32,32 c 0.039,0 2.50065,2.450592 5.47039,5.445737 2.96964,2.995159 5.43809,5.467439 5.48544,5.493959 0.21315,0.119489 2.50196,-2.027227 3.47982,-3.263833 1.68106,-2.125845 2.89559,-4.616851 3.53295,-7.246171 0.63077,-2.602007 0.69817,-5.451674 0.18967,-8.021019 -0.76643,-3.873154 -2.71118,-7.381388 -5.58341,-10.07239 -0.48168,-0.451297 -1.41591,-1.230733 -1.53223,-1.278438 -0.0766,-0.03138 -7.538,7.470228 -7.538,7.578696 0,0.07867 3.73562,3.867627 3.81322,3.867627 0.0268,0 0.37828,-0.3345 0.78168,-0.74332 0.40351,-0.408818 1.21778,-1.216345 1.80952,-1.794512 l 1.07591,-1.051212 0.19523,0.302504 c 0.4808,0.745104 1.09925,2.167876 1.39108,3.200184 0.35916,1.270363 0.47675,2.169006 0.47675,3.643294 0,1.2555 -0.0384,1.675924 -0.24279,2.664518 -0.22096,1.068374 -0.53908,2.026812 -0.98939,2.980894 -0.32133,0.680799 -0.76593,1.444604 -0.84094,1.444604 -0.0318,0 -2.51402,-2.476107 -5.51644,-5.502447 l -5.4588,-5.502449 -5.45878,5.502449 c -3.00233,3.02634 -5.48473,5.502447 -5.51636,5.502447 -0.075,0 -0.51963,-0.763805 -0.84094,-1.444604 -0.57641,-1.221189 -0.97023,-2.567934 -1.16913,-3.99824 -0.0839,-0.604771 -0.0839,-2.689571 0,-3.294355 0.1412,-1.015325 0.38472,-2.005078 0.7277,-2.957501 0.22219,-0.61696 0.78365,-1.784114 1.07709,-2.238783 l 0.19513,-0.302491 1.02861,1.003473 c 0.56566,0.551895 1.37995,1.359435 1.80952,1.7945 0.42951,0.435065 0.80244,0.791047 0.82868,0.791047 0.0775,0 3.81353,-3.788554 3.81353,-3.86719 0,-0.03951 -1.68362,-1.769058 -3.74152,-3.843304 -3.6173,-3.64606 -3.74507,-3.769132 -3.84837,-3.704396 -0.20953,0.13144 -1.02036,0.813159 -1.50277,1.263457 -4.35516,4.06568 -6.52281,10.113577 -5.75287,16.051161 0.39296,3.029941 1.51992,5.922718 3.2816,8.423523 0.62735,0.890513 1.09396,1.437936 2.01609,2.365002 0.81149,0.815923 1.9174,1.784891 2.04017,1.787689 0.026,5.79e-4 2.49832,-2.469695 5.4945,-5.489517 z"
       id="path4" />
    <path
       style="fill:#984ee5;stroke-width:0.842677"
       d="m 35.26798,13.832241 c 2.5355,-2.556781 3.18221,-3.233289 3.12586,-3.269557 -0.22221,-0.143097 -1.83291,-0.6032091 -2.82751,-0.8077791 -1.20338,-0.247455 -1.93483,-0.311298 -3.56667,-0.311298 -1.63183,0 -2.36318,0.0639 -3.56655,0.311298 -0.99469,0.20457 -2.60531,0.6646821 -2.82758,0.8077791 -0.0562,0.03625 0.59043,0.712776 3.12591,3.269557 1.75828,1.773097 3.22903,3.223822 3.26822,3.223822 0.0393,0 1.50996,-1.450725 3.26832,-3.223822 z"
       id="path5" />
    <path
       style="opacity:0.2;fill:#ffffff;stroke-width:0.842677"
       d="m 31.99937,9.4436079 c -1.63183,0 -2.36387,0.06265 -3.56724,0.310071 -0.99469,0.204556 -2.60601,0.6650641 -2.82821,0.8081611 -0.023,0.01457 0.21461,0.275593 0.55677,0.636629 0.61372,-0.196928 1.5803,-0.458222 2.27144,-0.600348 1.20337,-0.24742 1.93541,-0.310071 3.56724,-0.310071 1.63185,0 2.36399,0.06263 3.56736,0.310071 0.69104,0.142126 1.65771,0.40342 2.27143,0.600348 0.34206,-0.361033 0.57937,-0.62207 0.55677,-0.636629 -0.22229,-0.143097 -1.83359,-0.6036051 -2.8282,-0.8081611 -1.20337,-0.247459 -1.93551,-0.310071 -3.56736,-0.310071 z m 11.04356,3.6152781 c -0.0766,-0.03138 -7.53866,7.468438 -7.53866,7.576907 0,0.0082 0.23877,0.24593 0.40734,0.413981 1.08496,-1.172263 7.06131,-7.175107 7.13132,-7.146446 0.11631,0.04774 1.04899,0.825265 1.53067,1.276561 2.87226,2.691004 4.8177,6.200807 5.58413,10.073962 0.19238,0.972075 0.28652,1.985171 0.30882,3.008332 0.0257,-1.309616 -0.0639,-2.613694 -0.30882,-3.852774 -0.76643,-3.873155 -2.71187,-7.38296 -5.58413,-10.073963 -0.48168,-0.451294 -1.41436,-1.228862 -1.53067,-1.27656 z m -22.09359,0.02147 c -0.0202,-0.0042 -0.0333,1.59e-4 -0.0459,0.008 -0.20958,0.131442 -1.01877,0.813068 -1.50118,1.263366 -3.8693,3.612086 -5.97526,8.78972 -5.86337,14.063629 0.11814,-4.977937 2.20116,-9.800402 5.86337,-13.219181 0.48241,-0.450297 1.2916,-1.131929 1.50118,-1.263371 0.10331,-0.06473 0.23249,0.05825 3.84978,3.70434 1.83006,1.844672 3.01033,3.064235 3.32751,3.41736 0.17247,-0.171139 0.41384,-0.410401 0.41384,-0.418921 0,-0.03951 -1.68345,-1.768639 -3.74135,-3.842883 -3.16508,-3.190303 -3.66043,-3.682562 -3.80379,-3.712587 z m 11.05003,11.06519 -5.4593,5.502086 c -3.00232,3.026339 -5.48355,5.502083 -5.51517,5.502083 -0.075,0 -0.51957,-0.763992 -0.8409,-1.444792 -0.57632,-1.221188 -0.97048,-2.56761 -1.1694,-3.997917 -0.0208,-0.147253 -0.0188,-0.521774 -0.0298,-0.801562 -0.0196,0.517539 -0.0218,1.093029 -0.0113,1.608073 0.003,-0.260522 0.002,-0.526579 0.0113,-0.763629 0.0103,0.279788 0.009,0.654309 0.0298,0.801563 0.19892,1.430307 0.59308,2.776728 1.1694,3.997916 0.32133,0.6808 0.7659,1.444792 0.8409,1.444792 0.0318,0 2.51285,-2.475744 5.51517,-5.502083 l 5.4593,-5.502084 5.45933,5.502084 c 3.00242,3.026339 5.48357,5.502083 5.51517,5.502083 0.075,0 0.51965,-0.763992 0.84099,-1.444792 0.4503,-0.954081 0.77095,-1.91027 0.992,-2.978645 0.12693,-0.61388 0.17836,-1.068107 0.20689,-1.580035 0.003,0.105745 0.009,0.208576 0.0163,0.305122 0.003,-0.188269 0.0161,-0.306811 0.0161,-0.545921 0,-0.234613 -0.0267,-0.394439 -0.0331,-0.603645 -0.0287,0.511927 -0.0798,0.966155 -0.20691,1.580035 -0.22103,1.068375 -0.54173,2.024563 -0.99202,2.978645 -0.3213,0.6808 -0.76594,1.444792 -0.84096,1.444792 -0.0318,0 -2.51277,-2.475744 -5.51517,-5.502083 z m 0,14.946009 c -0.0391,0 -1.48498,1.429563 -3.21246,3.179861 l -3.1403,3.183159 0.27593,0.105548 c 0.10153,0.03843 0.23258,0.07202 0.34488,0.108851 l 2.51949,-2.553124 c 1.72748,-1.750297 3.17337,-3.17986 3.21246,-3.17986 0.0389,0 1.48512,1.429563 3.21256,3.17986 l 2.5063,2.53993 c 0.12005,-0.03171 0.28603,-0.0693 0.3646,-0.09896 l 0.26934,-0.102259 -3.14024,-3.18316 c -1.72744,-1.75031 -3.17341,-3.179875 -3.21256,-3.179875 z"
       id="path6" />
  </g>
</svg>
