<?xml version="1.0" encoding="UTF-8" standalone="no"?>
<svg
   height="64"
   width="64"
   version="1.1"
   id="svg24"
   sodipodi:docname="yast.svg"
   inkscape:version="1.2.1 (9c6d41e410, 2022-07-14)"
   xmlns:inkscape="http://www.inkscape.org/namespaces/inkscape"
   xmlns:sodipodi="http://sodipodi.sourceforge.net/DTD/sodipodi-0.dtd"
   xmlns:xlink="http://www.w3.org/1999/xlink"
   xmlns="http://www.w3.org/2000/svg"
   xmlns:svg="http://www.w3.org/2000/svg">
  <defs
     id="defs28">
    <linearGradient
       inkscape:collect="always"
       id="linearGradient3709">
      <stop
         style="stop-color:#b8cda7;stop-opacity:1;"
         offset="0"
         id="stop3705" />
      <stop
         style="stop-color:#89aa66;stop-opacity:1;"
         offset="1"
         id="stop3707" />
    </linearGradient>
    <linearGradient
       inkscape:collect="always"
       xlink:href="#linearGradient22063"
       id="linearGradient22065"
       x1="-22"
       y1="5.1111121"
       x2="-6.4444442"
       y2="-9.1111107"
       gradientUnits="userSpaceOnUse"
       gradientTransform="matrix(3.6250002,0,0,3.6250002,82.750001,39.25)" />
    <linearGradient
       inkscape:collect="always"
       id="linearGradient22063">
      <stop
         style="stop-color:#88c0d0;stop-opacity:1;"
         offset="0"
         id="stop22059" />
      <stop
         style="stop-color:#adc596;stop-opacity:1;"
         offset="1"
         id="stop22061" />
    </linearGradient>
    <linearGradient
       id="c-5"
       x1="61.163261"
       x2="64.927658"
       y1="105.1096"
       y2="109.0449"
       gradientUnits="userSpaceOnUse">
      <stop
         stop-color="#e6e6e6"
         offset="0"
         id="stop26493-4" />
      <stop
         stop-color="#b3b3b3"
         offset="1"
         id="stop26495-7" />
    </linearGradient>
    <linearGradient
       id="d-6"
       x1="77.166962"
       x2="64.371704"
       y1="115.71481"
       y2="112.00438"
       gradientUnits="userSpaceOnUse">
      <stop
         stop-color="#0cf"
         offset="0"
         id="stop26498-5" />
      <stop
         stop-color="#2a7fff"
         offset="1"
         id="stop26500-6" />
    </linearGradient>
    <linearGradient
       id="e-9"
       x1="68.7071"
       x2="75.81916"
       y1="113.06454"
       y2="117.91264"
       gradientUnits="userSpaceOnUse"
       xlink:href="#a-3" />
    <linearGradient
       id="a-3">
      <stop
         stop-color="#2a7fff"
         offset="0"
         id="stop26483" />
      <stop
         stop-color="#0cf"
         offset="1"
         id="stop26485" />
    </linearGradient>
    <linearGradient
       id="g-4"
       x1="77.401382"
       x2="68.670082"
       y1="106.36805"
       y2="120.35797"
       gradientUnits="userSpaceOnUse"
       xlink:href="#f" />
    <linearGradient
       id="f">
      <stop
         stop-color="#fff"
         offset="0"
         id="stop26504" />
      <stop
         stop-color="#b3b3b3"
         offset="1"
         id="stop26506" />
    </linearGradient>
    <linearGradient
       id="h-5"
       x1="68.228661"
       x2="68.16433"
       y1="112.73174"
       y2="118.55463"
       gradientUnits="userSpaceOnUse">
      <stop
         stop-color="#b3b3b3"
         offset="0"
         id="stop26510-4" />
      <stop
         stop-color="#fff"
         offset="1"
         id="stop26512-7" />
    </linearGradient>
    <linearGradient
       id="i-4"
       x1="63.36673"
       x2="71.135635"
       y1="106.86487"
       y2="104.88973"
       gradientUnits="userSpaceOnUse"
       xlink:href="#f" />
    <linearGradient
       id="j-4"
       x1="66.951469"
       x2="66.335762"
       y1="104.46095"
       y2="109.66759"
       gradientUnits="userSpaceOnUse">
      <stop
         stop-color="#ccc"
         offset="0"
         id="stop26516-3" />
      <stop
         stop-color="#b3b3b3"
         offset="1"
         id="stop26518-0" />
    </linearGradient>
    <linearGradient
       id="k-7"
       x1="62.960659"
       x2="77.488457"
       y1="115.88342"
       y2="107.31376"
       gradientUnits="userSpaceOnUse">
      <stop
         stop-color="#e6e6e6"
         offset="0"
         id="stop26521-8" />
      <stop
         stop-color="#fff"
         offset="1"
         id="stop26523-6" />
    </linearGradient>
    <linearGradient
       inkscape:collect="always"
       xlink:href="#linearGradient3709"
       id="linearGradient3711"
       x1="8.6667604"
       y1="53.088005"
       x2="55.333195"
       y2="11.087999"
       gradientUnits="userSpaceOnUse" />
  </defs>
  <sodipodi:namedview
     id="namedview26"
     pagecolor="#ffffff"
     bordercolor="#666666"
     borderopacity="1.0"
     inkscape:showpageshadow="2"
     inkscape:pageopacity="0.0"
     inkscape:pagecheckerboard="0"
     inkscape:deskcolor="#d1d1d1"
     showgrid="false"
     inkscape:zoom="4.9166667"
     inkscape:cx="24.101695"
     inkscape:cy="24.101695"
     inkscape:window-width="1920"
     inkscape:window-height="1002"
     inkscape:window-x="0"
     inkscape:window-y="0"
     inkscape:window-maximized="1"
     inkscape:current-layer="svg24" />
  <linearGradient
     id="a"
     gradientUnits="userSpaceOnUse"
     x1="44"
     x2="4"
     y1="1048.3621"
     y2="1008.362"
     gradientTransform="translate(88.679145,-1051.648)">
    <stop
       offset="0"
       stop-color="#73ba25"
       id="stop2" />
    <stop
       offset="1"
       stop-color="#35b9ab"
       id="stop4" />
  </linearGradient>
  <linearGradient
     id="b"
     gradientUnits="userSpaceOnUse"
     x1="19"
     x2="37"
     y1="1021.362"
     y2="1039.3621"
     gradientTransform="translate(88.679145,-1051.648)">
    <stop
       offset="0"
       stop-color="#292c2f"
       id="stop7" />
    <stop
       offset="1"
       stop-opacity="0"
       id="stop9" />
  </linearGradient>
  <path
     d="M 2.999999,10.25 C 2.999999,6.245825 6.245936,3 10.249998,3 h 43.500003 c 4.004173,0 7.25,3.245825 7.25,7.25 v 43.5 c 0,4.004173 -3.245827,7.25 -7.25,7.25 H 10.249998 C 6.245936,61 2.999999,57.754173 2.999999,53.75 Z"
     id="path736"
     style="fill:#606c86;fill-opacity:1;stroke-width:3.625" />
  <path
     d="M 2.999999,9.796875 C 2.999999,6.043188 6.245936,3 10.249998,3 h 43.500003 c 4.004173,0 7.25,3.043188 7.25,6.796875 v 40.78125 c 0,3.753692 -3.245827,6.796875 -7.25,6.796875 H 10.249998 c -4.004062,0 -7.249999,-3.043183 -7.249999,-6.796875 z"
     id="path738"
     style="fill:url(#linearGradient22065);fill-opacity:1;stroke-width:3.625" />
  <path
     d="m 41.298203,52.983448 a 8.4799251,8.4799251 0 0 0 -0.744992,-0.294991 73.349364,73.349364 0 0 1 -1.068323,-0.386673 l -1.331656,-0.493319 c -0.429996,-0.159988 -1.141656,-0.425 -1.579986,-0.591659 l -0.798326,-0.300001 -6.049947,0.288323 c -3.328301,0.159986 -6.341611,0.308333 -6.696608,0.330002 -0.354996,0.02164 -0.645,0.01669 -0.645,-0.02158 0,-0.06676 0.536652,-0.926658 1.856658,-2.978309 l 0.426664,-0.661662 0.01669,-4.789956 0.01669,-4.788283 0.328331,-3.281629 c 0.181658,-1.804988 0.308333,-3.313311 0.283326,-3.353298 -0.02504,-0.04002 -0.01316,-0.113356 0.02837,-0.16335 0.04173,-0.05016 0.09334,-0.32334 0.116668,-0.608328 l 0.04004,-0.516668 -0.519992,0.0533 a 3.3366378,3.3366378 0 0 0 -0.636669,0.108364 3.1983045,3.1983045 0 0 1 -0.624988,0.105 c -1.684991,0.163349 -3.016647,0.471663 -4.099961,0.951667 a 7.6432664,7.6432664 0 0 1 -0.555,0.233332 c -0.103382,0 -3.478303,1.583316 -4.054964,1.901646 -0.60832,0.338316 -0.788329,0.416667 -1.016661,0.438324 a 1.7649853,1.7649853 0 0 0 -0.351666,0.259993 c -0.341652,0.295009 -1.018318,0.556672 -1.618312,0.625004 -0.316667,0.03661 -0.558333,0 -0.975,-0.11499 -0.49332,-0.145067 -0.619999,-0.224997 -1.1766503,-0.749986 -0.486673,-0.458342 -0.686674,-0.713351 -0.905002,-1.158332 -0.255002,-0.519988 -0.281657,-0.635005 -0.29333,-1.288322 -0.0093,-0.631657 0.01159,-0.756659 0.178331,-1.048324 0.229996,-0.396674 0.829998,-0.816672 1.2666523,-0.883329 a 1.4633204,1.4633204 0 0 0 0.643336,-0.321675 c 0.183324,-0.149984 0.608324,-0.478318 0.943324,-0.728317 2.63665,-1.956648 3.794973,-2.916631 3.794973,-3.138308 0,-0.07327 1.286658,-2.263308 1.50332,-2.558299 0.228335,-0.311665 0.924991,-0.850007 1.433321,-1.10333 0.453324,-0.230003 1.533316,-0.619995 2.149981,-0.779989 1.158333,-0.29666 1.046658,-0.240012 0.899973,-0.456667 -0.07157,-0.105 -0.883325,-1.021666 -1.801628,-2.036653 -0.919999,-1.014985 -1.723321,-1.939988 -1.784979,-2.05498 -0.06163,-0.116695 -0.383343,-0.841661 -0.716662,-1.611652 -0.333326,-0.771663 -0.676673,-1.554977 -0.76333,-1.74164 -0.386668,-0.831676 -0.450002,-1.016665 -0.450002,-1.315 0,-0.373338 0.141734,-0.598326 0.483327,-0.761677 0.539997,-0.261663 0.76167,-0.126571 2.026655,1.225017 a 83.384262,83.384262 0 0 0 2.498309,2.516642 c 1.313323,1.266649 2.63998,2.786637 2.971649,3.406629 0.209998,0.389993 1.109977,1.503314 1.523314,1.879989 0.258338,0.238319 0.498325,0.39167 0.60666,0.39167 0.419997,0 1.034989,-0.411678 1.863312,-1.25 1.656656,-1.674988 3.028311,-2.966633 3.563306,-3.354971 0.666662,-0.486663 3.574969,-1.886645 5.048289,-2.433317 0.579996,-0.213319 1.126658,-0.419998 1.211656,-0.454996 0.08666,-0.03672 0.298332,-0.106616 0.469997,-0.156654 a 1.4983206,1.4983206 0 0 0 0.38833,-0.156656 0.34166368,0.34166368 0 0 1 0.194998,-0.0667 c 0.06666,0 0.649994,-0.191672 1.294988,-0.423336 2.069985,-0.741655 2.129979,-0.751656 2.561644,-0.406663 0.326664,0.259997 0.43333,0.593322 0.299999,0.93333 -0.249998,0.631661 -2.223316,3.266633 -3.316638,4.426618 -1.333322,1.413335 -2.063316,1.883323 -4.358296,2.813323 -2.65831,1.078314 -2.764975,1.134985 -3.539969,1.919981 -0.449996,0.45332 -1.239989,1.808317 -1.123324,1.923311 0.03,0.02836 0.201666,0 0.38333,-0.07156 2.229981,-0.836659 3.041641,-1.11667 4.24163,-1.473327 0.774994,-0.228338 1.478321,-0.444996 1.564986,-0.478326 a 5.166621,5.166621 0 0 1 0.626662,-0.1533 c 0.258331,-0.05016 0.521661,-0.116701 0.586661,-0.146707 0.065,-0.03344 0.469996,-0.10007 0.899992,-0.151627 a 9.2165854,9.2165854 0 0 0 0.938325,-0.146696 c 0.08667,-0.02839 0.791659,-0.02839 1.566657,0 1.218316,0.0418 1.488317,0.07508 2.003312,0.241668 2.238311,0.72832 4.211632,2.101648 6.433276,4.479954 0.929993,0.996657 1.558322,1.876653 2.121646,2.973308 0.721665,1.403321 0.803328,1.714985 1.023327,3.881631 0.293334,2.88831 0.693333,6.509951 0.898333,8.134935 0.383321,3.043305 0.619983,4.799944 0.666655,4.959948 0.02002,0.06166 0.07332,0.419997 0.119995,0.794996 0.04664,0.374999 0.204988,1.393317 0.35499,2.266649 0.148325,0.869983 0.269995,1.709976 0.269995,1.863306 0,0.27334 -0.0066,0.278338 -0.363321,0.326671 a 6.6832749,6.6832749 0 0 1 -0.645001,0.05007 c -0.236668,0 -0.373334,0.0834 -0.831663,0.493339 -0.299995,0.266661 -0.586659,0.488324 -0.636659,0.488324 -0.04831,0 -0.236665,-0.238324 -0.419996,-0.529998 l -0.330084,-0.530073 h -0.428355 c -0.388326,0 -0.483329,0.03672 -1.028327,0.398335 a 11.604894,11.604894 0 0 0 -0.753324,0.530011 c -0.08333,0.07326 -0.19,0.123299 -0.233326,0.108358 -0.130005,-0.04007 -0.268332,-0.508333 -0.273338,-0.915 l -0.005,-0.369988 -0.513331,0.05007 c -0.283375,0.02992 -0.776696,0.105005 -1.100028,0.169998 -0.73999,0.148334 -0.878313,0.111706 -0.666649,-0.178332 0.08336,-0.116693 0.52666,-0.766659 0.983325,-1.444983 l 0.83333,-1.236665 -0.126666,-1.07333 a 86.587567,86.587567 0 0 1 -0.169947,-1.548405 c -0.02504,-0.261671 -0.07503,-0.493314 -0.11167,-0.516661 -0.03661,-0.02005 -0.06668,-0.116703 -0.06668,-0.215001 0,-0.09831 -0.173332,-0.52833 -0.383329,-0.959985 l -0.62328,-1.278376 c -0.133311,-0.270001 -0.416642,-0.798336 -0.633308,-1.173326 l -0.391663,-0.679993 -0.491666,0.02004 c -0.843323,0.03673 -0.823323,0.02338 -0.879992,0.603325 -0.02668,0.281662 -0.08336,0.569999 -0.123331,0.643332 a 0.7449936,0.7449936 0 0 0 -0.07504,0.309998 c 0,0.09664 -0.05168,0.344998 -0.116663,0.549995 a 10.499906,10.499906 0 0 0 -0.233323,1.089986 c -0.0667,0.395013 -0.153332,0.889989 -0.193333,1.098323 -0.04002,0.208329 -0.113328,0.633329 -0.161665,0.946657 -0.05002,0.311666 -0.121664,0.72 -0.158332,0.908332 -0.03664,0.186667 -0.106671,0.594996 -0.155,0.908323 -0.04828,0.313328 -0.121664,0.710007 -0.161664,0.884998 -0.146666,0.649986 -0.101624,0.731657 1.243323,2.286647 0.47833,0.549985 0.778324,0.956652 0.728328,0.986646 a 5.3032866,5.3032866 0 0 1 -0.691683,0.185005 c -1.216679,0.269976 -1.59668,0.366653 -2.406673,0.614987 -0.718326,0.218331 -0.933323,0.233318 -1.23999,0.07664 z M 33.258275,49.53849 c 1.024991,-1.063342 1.324989,-1.423332 1.509987,-1.816653 0.501662,-1.066659 0.619995,-1.319994 1.086657,-2.364981 0.266664,-0.593327 0.483329,-1.166661 0.483329,-1.269995 -0.0016,-0.146699 -1.753318,-4.433293 -1.84165,-4.506627 a 62.207783,62.207783 0 0 0 -2.486645,-0.699996 0.8566592,0.8566592 0 0 1 -0.288331,-0.108364 c -0.139998,-0.106604 -0.311664,0.01672 -0.948325,0.646665 l -0.569995,0.570002 0.04665,0.403319 c 0.08833,0.73832 0.196665,1.533328 0.274998,1.991647 0.04166,0.250006 0.183332,1.134995 0.31333,1.966655 0.129998,0.833322 0.269998,1.719992 0.311664,1.969979 0.04333,0.25001 0.183332,1.134997 0.311664,1.968324 0.128335,0.833322 0.269998,1.678319 0.313331,1.879979 0.04333,0.199999 0.07834,0.449989 0.07834,0.554989 0,0.103345 0.02833,0.178336 0.06333,0.164993 a 34.333026,34.333026 0 0 0 1.341655,-1.34998 z"
     fill="#fcfcfc"
     id="path18-6"
     style="stroke-width:1.66675;fill-opacity:1;fill:url(#linearGradient3711)" />
  <path
     d="m 41.298203,52.983448 a 8.4832601,8.4832601 0 0 0 -0.744992,-0.294991 73.349364,73.349364 0 0 1 -1.068323,-0.386673 l -1.331656,-0.494987 a 193.83152,193.83152 0 0 1 -1.579986,-0.589991 l -0.798326,-0.300001 -6.049947,0.288323 c -3.328301,0.159986 -6.341611,0.308333 -6.696608,0.330002 -0.354996,0.02164 -0.645,0.01669 -0.645,-0.02158 0,-0.06676 0.536652,-0.926658 1.856658,-2.978309 l 0.426664,-0.661662 0.01669,-4.789956 0.01669,-4.788283 0.328331,-3.281629 c 0.181658,-1.804988 0.308333,-3.313311 0.283326,-3.353298 -0.02504,-0.04002 -0.01316,-0.113356 0.02837,-0.16335 0.04173,-0.05016 0.09334,-0.32334 0.116668,-0.608328 l 0.04004,-0.516668 -0.519992,0.0533 a 3.3366378,3.3366378 0 0 0 -0.636669,0.108364 3.1983045,3.1983045 0 0 1 -0.624988,0.105 c -1.684991,0.163349 -3.016647,0.471663 -4.099961,0.951667 a 7.6432664,7.6432664 0 0 1 -0.555,0.233332 c -0.103382,0 -3.478303,1.583316 -4.054964,1.901646 -0.60832,0.338316 -0.788329,0.416667 -1.016661,0.438324 a 1.7649853,1.7649853 0 0 0 -0.351666,0.259993 c -0.341652,0.295009 -1.018318,0.556672 -1.618312,0.625004 -0.316667,0.03661 -0.558333,0 -0.975,-0.11499 -0.49332,-0.145067 -0.619999,-0.224997 -1.1766503,-0.749986 -0.486673,-0.458342 -0.686674,-0.713351 -0.905002,-1.158332 -0.255002,-0.519988 -0.281657,-0.635005 -0.29333,-1.288322 -0.0093,-0.631657 0.01159,-0.756659 0.178331,-1.048324 0.229996,-0.396674 0.829998,-0.816672 1.2666523,-0.883329 a 1.4633204,1.4633204 0 0 0 0.643336,-0.321675 c 0.183324,-0.149984 0.608324,-0.478318 0.943324,-0.728317 2.63665,-1.956648 3.794973,-2.916631 3.794973,-3.138308 0,-0.07327 1.286658,-2.263308 1.50332,-2.558299 0.228335,-0.311665 0.924991,-0.850007 1.433321,-1.10333 0.453324,-0.230003 1.533316,-0.619995 2.149981,-0.779989 1.158333,-0.29666 1.046658,-0.240012 0.899973,-0.456667 A 66.316093,66.316093 0 0 0 19.6802,18.682176 c -0.919999,-1.014985 -1.723321,-1.939988 -1.784979,-2.05498 -0.06163,-0.116695 -0.383343,-0.841661 -0.716662,-1.611652 -0.333326,-0.771663 -0.676673,-1.554977 -0.76333,-1.74164 -0.386668,-0.831676 -0.450002,-1.016665 -0.450002,-1.315 0,-0.373337 0.141734,-0.598325 0.483327,-0.761677 0.539997,-0.261662 0.76167,-0.12657 2.026655,1.225017 a 83.382594,83.382594 0 0 0 2.498309,2.516642 c 1.313323,1.266649 2.63998,2.786637 2.971649,3.406629 0.209998,0.389993 1.109977,1.503314 1.523314,1.879989 0.258338,0.238319 0.498325,0.39167 0.60666,0.39167 0.419997,0 1.034989,-0.411678 1.863312,-1.25 1.656656,-1.674988 3.028311,-2.966633 3.563306,-3.354971 0.666662,-0.486663 3.574969,-1.886645 5.048289,-2.433317 0.579996,-0.213319 1.126658,-0.419998 1.211656,-0.454996 0.08666,-0.03672 0.298332,-0.106616 0.469997,-0.156654 a 1.4983206,1.4983206 0 0 0 0.38833,-0.156656 0.34166368,0.34166368 0 0 1 0.194998,-0.0667 c 0.06666,0 0.649994,-0.191672 1.294988,-0.423336 2.069985,-0.741654 2.129979,-0.751655 2.561644,-0.406663 0.326664,0.259997 0.43333,0.593322 0.299999,0.93333 -0.249998,0.631661 -2.223316,3.266633 -3.316638,4.426618 -1.333322,1.413335 -2.063316,1.883323 -4.358296,2.813323 -2.65831,1.078314 -2.764975,1.134985 -3.539969,1.919981 -0.449996,0.45332 -1.239989,1.808317 -1.123324,1.923311 0.03,0.02836 0.201666,0 0.38333,-0.07156 2.229981,-0.836659 3.041641,-1.11667 4.24163,-1.473327 0.774994,-0.228338 1.478321,-0.444996 1.564986,-0.478326 a 5.166621,5.166621 0 0 1 0.626662,-0.1533 c 0.258331,-0.05016 0.521661,-0.116701 0.586661,-0.146707 0.065,-0.03344 0.469996,-0.10007 0.899992,-0.151627 0.429996,-0.05168 0.853326,-0.116691 0.938325,-0.146696 0.08667,-0.02839 0.791659,-0.02839 1.566657,0 1.218316,0.0418 1.488317,0.07508 2.003312,0.241668 2.238311,0.72832 4.211632,2.101648 6.433276,4.479954 0.929993,0.996657 1.558322,1.876653 2.121646,2.973308 0.721665,1.403321 0.803328,1.714985 1.023327,3.881631 0.293334,2.88831 0.693333,6.509951 0.899999,8.134935 0.383318,3.043305 0.618317,4.799944 0.666656,4.959948 0.01671,0.06166 0.07159,0.419997 0.116676,0.794996 0.04495,0.374999 0.206667,1.393317 0.356668,2.266649 0.148321,0.869983 0.269994,1.709976 0.269994,1.863306 0,0.27334 -0.0066,0.278338 -0.363327,0.326671 a 6.6832749,6.6832749 0 0 1 -0.644994,0.05007 c -0.236683,0 -0.37335,0.0834 -0.831679,0.493339 -0.29997,0.266661 -0.586642,0.488324 -0.636642,0.488324 -0.04833,0 -0.236681,-0.238324 -0.419996,-0.529998 l -0.330117,-0.53008 h -0.428347 c -0.388301,0 -0.483311,0.03668 -1.028306,0.396665 a 11.596566,11.596566 0 0 0 -0.753331,0.53332 c -0.08334,0.07162 -0.188332,0.11994 -0.233321,0.106625 -0.130009,-0.03999 -0.26834,-0.508325 -0.27334,-0.914983 l -0.005,-0.37 -0.513346,0.05007 a 13.699881,13.699881 0 0 0 -1.099987,0.170013 c -0.74,0.146704 -0.878324,0.109942 -0.666657,-0.178335 0.08337,-0.116683 0.526662,-0.766658 0.983321,-1.446648 l 0.833408,-1.235012 -0.124999,-1.073314 a 86.587567,86.587567 0 0 1 -0.171643,-1.55004 c -0.02503,-0.259999 -0.07502,-0.491665 -0.111703,-0.513335 -0.0366,-0.02334 -0.06669,-0.120042 -0.06669,-0.216667 0,-0.09665 -0.173332,-0.528322 -0.383329,-0.959978 L 47.439719,42.723685 C 47.306397,42.45365 47.023066,41.923659 46.806393,41.550328 l -0.391659,-0.68166 -0.491662,0.02162 c -0.843323,0.03497 -0.82333,0.02334 -0.879995,0.603312 -0.02668,0.281681 -0.08336,0.57001 -0.123334,0.64334 a 0.7449936,0.7449936 0 0 0 -0.07505,0.308326 c 0,0.100049 -0.05168,0.346669 -0.116662,0.550002 a 10.498245,10.498245 0 0 0 -0.233327,1.091651 c -0.0667,0.395003 -0.153327,0.889998 -0.193333,1.096667 -0.04002,0.208335 -0.113317,0.633323 -0.161661,0.946656 -0.04836,0.313334 -0.120007,0.721657 -0.158327,0.908325 -0.03665,0.188335 -0.106668,0.596656 -0.155006,0.909984 -0.05002,0.311661 -0.121668,0.710007 -0.161653,0.883335 -0.146676,0.649998 -0.101626,0.733329 1.243313,2.286643 0.478327,0.551654 0.77831,0.958329 0.728325,0.988329 a 5.3032866,5.3032866 0 0 1 -0.69157,0.183328 c -1.216623,0.27162 -1.596631,0.368297 -2.406622,0.61663 -0.718328,0.216664 -0.933327,0.23165 -1.23999,0.07667 z M 42.4232,51.353466 c -0.175005,-0.388331 -0.303336,-0.716658 -0.288337,-0.733328 0.01667,-0.01669 0.224996,0.205 0.466664,0.490001 0.683328,0.808325 0.679995,0.80666 1.144988,0.699992 0.216667,-0.05007 0.394996,-0.108366 0.394996,-0.128383 0,-0.02004 -0.291666,-0.433331 -0.64999,-0.918322 a 58.926156,58.926156 0 0 1 -0.70666,-0.978333 c -0.03334,-0.05006 0.316669,-2.278298 0.776656,-4.949946 0.833326,-4.833296 0.836661,-4.856626 0.679996,-4.979952 a 155.28206,155.28206 0 0 0 -0.933325,-0.701661 9.8615807,9.8615807 0 0 1 -1.148319,-1.003319 c -0.375006,-0.423331 -0.419998,-0.568335 -0.0783,-0.258343 0.379995,0.344999 0.171664,-0.07507 -0.498327,-1.003312 -0.573327,-0.795011 -0.688333,-1.00501 -0.743331,-1.356665 -0.06835,-0.444995 -0.0034,-1.589998 0.09163,-1.589998 0.03,0 0.0767,0.251682 0.09999,0.560012 0.02669,0.349994 0.105,0.671658 0.203334,0.851656 0.08833,0.159974 0.409995,0.836657 0.716662,1.503326 0.303324,0.666657 0.594991,1.263319 0.648324,1.326648 0.103335,0.126631 1.216651,0.964999 1.786646,1.341659 0.209999,0.139983 0.38333,0.321666 0.411664,0.433333 0.02832,0.104999 0.100034,0.191663 0.16,0.191663 0.06004,0 0.436662,-0.121697 0.838325,-0.269993 0.706658,-0.26 1.00499,-0.433341 1.00499,-0.583336 0,-0.03826 0.05001,-0.178327 0.11168,-0.308325 0.721662,-1.54665 0.919988,-2.118324 0.863327,-2.50166 -0.02998,-0.214989 -0.02668,-0.21832 0.03663,-0.04651 0.139999,0.383319 0.08336,0.728327 -0.254988,1.516656 -0.185005,0.434986 -0.383338,0.873318 -0.436669,0.969978 a 0.52499538,0.52499538 0 0 0 -0.05669,0.333349 0.87832563,0.87832563 0 0 1 -0.07503,0.43332 l -0.116657,0.283315 1.066632,1.86667 c 1.111672,1.939982 1.205005,2.166637 1.401677,3.416631 0.219988,1.391657 0.491653,2.686638 0.58832,2.796636 0.07669,0.08997 0.0167,0.205 -0.324992,0.624995 -0.836664,1.030003 -1.101655,1.391657 -1.056654,1.433331 0.07162,0.07162 0.846658,-0.126664 1.168315,-0.296666 0.291665,-0.15503 0.48333,-0.131618 0.308331,0.03827 -0.146661,0.14167 -0.108347,0.211663 0.113342,0.211663 h 0.206669 l -0.05502,0.466664 c -0.06161,0.529994 -0.123317,0.53333 0.603345,-0.03824 0.299999,-0.236674 0.394993,-0.276662 0.483335,-0.203327 a 0.4666625,0.4666625 0 0 0 0.293325,0.07162 0.80499288,0.80499288 0 0 1 0.31666,0.04003 0.90999205,0.90999205 0 0 0 0.401663,0.01669 l 0.263332,-0.05007 0.105,0.455 c 0.123338,0.538321 0.213334,0.511664 0.428331,-0.126671 0.201663,-0.60333 0.228332,-0.626666 0.716661,-0.626666 0.366664,0 0.419998,-0.01669 0.383332,-0.133343 a 15.436527,15.436527 0 0 1 -0.166672,-1.04001 C 53.933029,47.541899 53.3147,43.293606 53.221369,42.73027 52.87137,40.620304 52.279709,35.22368 52.126373,32.740358 52.028063,31.177049 51.913046,30.738717 51.264719,29.443724 50.3314,27.580415 48.544743,25.5871 46.443093,24.060438 45.26477,23.203784 44.398109,22.753792 43.176455,22.365461 l -0.768325,-0.245005 -1.499985,0.03827 c -1.561652,0.03823 -2.181646,0.12838 -3.733299,0.533328 a 60.732798,60.732798 0 0 0 -5.204948,1.716637 l -1.466654,0.586654 c -0.161665,0.06495 -0.29333,0.155032 -0.29333,0.201673 0,0.22833 0.661661,1.119988 1.291655,1.739979 0.979992,0.965003 1.18999,1.106668 1.716652,1.158333 0.553328,0.05669 0.649994,0.175 0.141667,0.175 -0.526662,0 -0.888325,-0.241669 -1.953316,-1.31 -0.823326,-0.824982 -0.961658,-1.011653 -1.53832,-2.088317 -0.38833,-0.719983 0.189999,-2.301635 1.243322,-3.399965 0.73666,-0.771651 1.424988,-1.183318 2.971641,-1.786645 0.733327,-0.285 1.788317,-0.734994 2.349979,-0.999994 0.838326,-0.399997 1.128324,-0.58334 1.661652,-1.058344 1.011658,-0.899969 2.283314,-2.414972 3.408302,-4.054943 0.616663,-0.901667 0.71166,-1.109994 0.466661,-1.011662 -0.07671,0.02994 -0.366663,0.13338 -0.646657,0.228336 -3.804967,1.306653 -4.058298,1.399978 -5.541618,2.0083 -2.291648,0.941652 -3.508303,1.624984 -4.699959,2.639993 -0.271665,0.23333 -1.078324,1.029972 -1.791652,1.773317 -1.33332,1.386652 -1.869986,1.83832 -2.49331,2.096645 -0.721661,0.300004 -1.433327,0.09664 -2.074982,-0.593325 a 19.80315,19.80315 0 0 1 -1.591657,-2.023311 c -0.611647,-0.928327 -1.366642,-1.783323 -2.973295,-3.366649 a 147.09872,147.09872 0 0 1 -2.49998,-2.521655 c -0.466668,-0.489979 -0.863319,-0.878304 -0.879995,-0.863308 -0.01672,0.01672 0.09168,0.291658 0.241668,0.609995 0.150003,0.319993 0.429997,0.94666 0.618323,1.394989 0.189997,0.448327 0.41667,0.966658 0.501662,1.153325 0.616657,1.333319 0.558331,1.256653 2.891642,3.828298 l 2.271652,2.5033 -0.713328,0.130047 c -1.491653,0.268325 -3.368305,0.886664 -4.123304,1.356661 -0.613323,0.383315 -0.73999,0.543321 -1.644981,2.086643 -0.724991,1.23832 -0.881657,1.44999 -1.441645,1.969978 -0.345006,0.320006 -1.283332,1.066666 -2.08832,1.661663 -0.803338,0.594985 -1.611663,1.209988 -1.79499,1.36665 l -0.333331,0.286668 0.599993,0.321662 c 0.333326,0.176667 0.603328,0.333333 0.603328,0.349989 0,0.01672 -0.250002,-0.05485 -0.558326,-0.156655 -0.843332,-0.27665 -1.211661,-0.303321 -1.65666,-0.116675 -0.311662,0.13004 -0.40332,0.216655 -0.533321,0.503325 -0.145067,0.316669 -0.151628,0.39499 -0.06838,0.873323 0.138377,0.795 0.783322,1.633334 1.563314,2.039979 0.34334,0.176679 1.158321,0.13673 1.604998,-0.07835 0.333331,-0.16167 0.428332,-0.260001 0.64666,-0.674989 0.206667,-0.394995 0.255002,-0.576659 0.258331,-0.983344 0.0081,-0.716646 0.113346,-0.918313 0.178332,-0.346654 0.111716,0.973323 0.149989,1.248333 0.17833,1.248333 0.01672,0 0.918326,-0.423341 2.006648,-0.941657 2.144988,-1.021658 3.85164,-1.748329 4.716627,-2.006668 0.493329,-0.149991 0.989997,-0.234987 3.716638,-0.649976 1.846645,-0.278334 2.771647,-0.658344 3.583302,-1.473329 l 0.264998,-0.266666 -0.183326,0.33334 c -0.216667,0.394991 -0.631662,0.751648 -1.206658,1.043315 -0.493334,0.249994 -0.449999,0.114972 -0.61667,1.961644 a 522.49546,522.49546 0 0 1 -0.31666,3.331653 l -0.315018,3.209971 c -0.08335,0.871649 -0.11334,2.339973 -0.11334,5.713277 v 4.53996 l -0.643332,0.949998 c -0.353326,0.521658 -0.708327,1.021654 -0.789986,1.113321 -0.220017,0.24166 -0.105,0.326661 0.44166,0.326661 h 0.488329 L 25.3049,50.080137 c 0.463332,-0.586667 0.558332,-0.621665 0.329994,-0.120026 a 3.7499663,3.7499663 0 0 1 -0.288318,0.541661 c -0.06494,0.07508 -0.05007,0.113342 0.05493,0.151628 0.150026,0.05493 5.413284,-0.233338 5.483283,-0.300008 0.06168,-0.05843 -0.283325,-2.476643 -0.716654,-5.049956 -0.06833,-0.394994 -0.226663,-1.399989 -0.353345,-2.233309 -0.126663,-0.833333 -0.279977,-1.803322 -0.343311,-2.156657 a 27.429752,27.429752 0 0 1 -0.164996,-1.073329 l -0.05334,-0.429998 0.498329,-0.516661 c 0.273331,-0.28332 0.699994,-0.73832 0.944992,-1.008318 l 0.446662,-0.490006 0.258332,0.09827 c 0.479996,0.183335 6.298278,2.056662 6.388278,2.056662 0.169998,0 0.08834,-0.145032 -0.328331,-0.583339 a 4.1132979,4.1132979 0 0 1 -0.51333,-0.628324 c -0.123336,-0.246665 0.496663,0.389997 0.984992,1.011654 0.199998,0.255001 0.603328,0.741665 0.894992,1.07999 0.456663,0.529995 0.556662,0.609998 0.729993,0.57666 0.149993,-0.02661 0.199999,0 0.199999,0.08828 0,0.06831 -0.258331,1.119984 -0.574996,2.336644 -1.388318,5.339951 -1.798315,6.999945 -1.754981,7.109943 0.02999,0.07162 0.671661,0.316668 1.696652,0.646658 l 1.64999,0.531668 V 51.2416 c 0,-0.263333 -0.03333,-0.499993 -0.07833,-0.524996 -0.04498,-0.02504 -0.07667,-0.105 -0.075,-0.174996 0.0049,-0.233334 0.203331,0.10337 0.50666,0.86166 l 0.283336,0.708326 0.599989,0.02162 c 0.33333,0.01668 0.631661,0 0.66666,-0.02338 0.03334,-0.02503 -0.08168,-0.363339 -0.254994,-0.749998 z M 41.441538,34.98195 c 0.08,-0.673339 0.189998,-0.806665 0.193335,-0.233344 0.0016,0.503327 -0.0483,0.706673 -0.171671,0.706673 -0.04836,0 -0.05668,-0.173335 -0.02169,-0.473329 z m -29.89141,-1.593327 c -0.125004,-0.08828 -0.138379,-0.156654 -0.08828,-0.438341 0.07835,-0.439982 0.07835,-0.656644 0.002,-0.97665 l -0.06163,-0.266663 0.203327,0.183335 c 0.113357,0.1001 0.318333,0.393325 0.460005,0.654987 0.213331,0.399997 0.241654,0.509989 0.17666,0.69 -0.09,0.250007 -0.446654,0.328334 -0.693327,0.1533 z M 10.186808,32.63029 A 0.6533276,0.6533276 0 0 1 10.0168,32.230294 c 0,-0.125046 -0.0418,-0.266646 -0.09331,-0.316643 -0.05484,-0.05331 -0.05996,-0.09176 -0.01672,-0.09176 0.164984,0 0.508322,0.439984 0.553319,0.70666 0.0533,0.321659 -0.02994,0.351671 -0.273321,0.101591 z m 13.393216,-6.199934 c -0.24166,-0.111664 -0.414996,-0.508346 -0.414996,-0.949999 0,-0.358323 0.01157,-0.37833 0.293336,-0.499998 0.319997,-0.133344 0.448325,-0.15332 0.913322,-0.134927 0.3,0.01672 0.303334,0.01672 0.163335,0.163347 -0.07838,0.08339 -0.108347,0.15006 -0.06673,0.15006 0.11668,0 0.339995,0.423326 0.339995,0.646656 0,0.298336 -0.476665,0.718335 -0.806668,0.711649 a 1.2749889,1.2749889 0 0 1 -0.421665,-0.08499 z M 22.8517,24.667033 c 0,-0.01831 0.175,-0.120049 0.389997,-0.224994 a 1.5866527,1.5866527 0 0 1 0.841663,-0.181667 l 0.451653,0.01672 -0.429995,0.05484 c -0.236662,0.03344 -0.616656,0.12836 -0.841659,0.216672 -0.226653,0.08828 -0.411659,0.143254 -0.411659,0.12503 z m -1.249986,-1.911647 c 0,-0.106637 0.666653,-0.385002 1.304976,-0.54665 0.663339,-0.168359 1.053333,-0.200013 0.493339,-0.03827 -0.521655,0.150055 -1.466649,0.475001 -1.64499,0.566674 -0.08336,0.04497 -0.155025,0.0517 -0.155025,0.01672 z m 11.503229,-3.536623 c 0,-0.02007 0.554996,-0.556681 1.233323,-1.193335 0.678327,-0.633332 1.383321,-1.299984 1.566653,-1.478324 0.181665,-0.178345 0.331663,-0.293321 0.331663,-0.254997 0,0.0834 -1.238322,1.576653 -1.476653,1.781649 -0.269998,0.233334 -0.218332,0.349994 0.113335,0.259999 0.391664,-0.103394 0.43333,-0.01672 0.06334,0.133314 -0.166665,0.0667 -0.628327,0.271667 -1.021657,0.454997 -0.713327,0.33 -0.809993,0.366665 -0.809993,0.296668 z m 0.15333,30.319727 c 1.02499,-1.063342 1.324988,-1.423332 1.509986,-1.816653 0.501663,-1.066659 0.619995,-1.319994 1.086658,-2.364981 0.266663,-0.593327 0.483328,-1.166661 0.483328,-1.269995 -0.0017,-0.146699 -1.753318,-4.433293 -1.84165,-4.506627 A 62.207783,62.207783 0 0 0 32.009951,38.880238 0.8566592,0.8566592 0 0 1 31.72162,38.771874 c -0.139998,-0.106604 -0.311665,0.01672 -0.948326,0.646665 l -0.569995,0.570002 0.04665,0.403319 c 0.08833,0.73832 0.196665,1.533328 0.274998,1.991647 0.04166,0.250006 0.183332,1.134995 0.313331,1.966655 0.129997,0.833322 0.269998,1.719992 0.311664,1.969979 0.04333,0.25001 0.183332,1.134997 0.311664,1.968324 0.128334,0.833322 0.269997,1.678319 0.31333,1.879979 0.04333,0.199999 0.07832,0.449989 0.07832,0.554989 0,0.103345 0.02833,0.178336 0.06333,0.164993 a 34.333026,34.333026 0 0 0 1.341654,-1.34998 z"
     fill="#173f4f"
     id="path20-7"
     style="stroke-width:1.66675" />
</svg>
