<?xml version="1.0" encoding="UTF-8" standalone="no"?>
<!-- Created with Inkscape (http://www.inkscape.org/) -->

<svg
   width="64.0px"
   height="64.0px"
   viewBox="0 0 64.0 64.0"
   version="1.1"
   id="SVGRoot"
   sodipodi:docname="youtube.svg"
   inkscape:version="1.4.2 (unknown)"
   xmlns:inkscape="http://www.inkscape.org/namespaces/inkscape"
   xmlns:sodipodi="http://sodipodi.sourceforge.net/DTD/sodipodi-0.dtd"
   xmlns:xlink="http://www.w3.org/1999/xlink"
   xmlns="http://www.w3.org/2000/svg"
   xmlns:svg="http://www.w3.org/2000/svg">
  <sodipodi:namedview
     id="namedview475"
     pagecolor="#ffffff"
     bordercolor="#666666"
     borderopacity="1.0"
     inkscape:showpageshadow="2"
     inkscape:pageopacity="0.0"
     inkscape:pagecheckerboard="0"
     inkscape:deskcolor="#d1d1d1"
     inkscape:document-units="px"
     showgrid="false"
     inkscape:zoom="4.7572176"
     inkscape:cx="36.470898"
     inkscape:cy="79.353108"
     inkscape:window-width="1920"
     inkscape:window-height="998"
     inkscape:window-x="0"
     inkscape:window-y="0"
     inkscape:window-maximized="1"
     inkscape:current-layer="layer1">
    <inkscape:grid
       type="xygrid"
       id="grid598"
       originx="0"
       originy="0"
       spacingy="1"
       spacingx="1"
       units="px"
       visible="false" />
  </sodipodi:namedview>
  <defs
     id="defs470">
    <linearGradient
       id="linearGradient1"
       inkscape:collect="always">
      <stop
         style="stop-color:#373e48;stop-opacity:1"
         offset="0"
         id="stop1" />
      <stop
         style="stop-color:#6f7c91;stop-opacity:1"
         offset="1"
         id="stop3" />
    </linearGradient>
    <linearGradient
       inkscape:collect="always"
       xlink:href="#linearGradient22063"
       id="linearGradient22065"
       x1="-14"
       y1="6"
       x2="-14"
       y2="-9.999999"
       gradientUnits="userSpaceOnUse"
       gradientTransform="matrix(3.6250002,0,0,3.6250002,82.830005,39.249999)" />
    <linearGradient
       inkscape:collect="always"
       id="linearGradient22063">
      <stop
         style="stop-color:#292f3a;stop-opacity:1;"
         offset="0"
         id="stop22059" />
      <stop
         style="stop-color:#535e75;stop-opacity:1;"
         offset="1"
         id="stop22061" />
    </linearGradient>
    <linearGradient
       id="a"
       x1="30"
       x2="30"
       y1="8"
       y2="27"
       gradientUnits="userSpaceOnUse"
       gradientTransform="matrix(0.67368419,0,0,0.67368419,8.5788609,8.2380355)">
      <stop
         stop-color="#dbdbdb"
         offset="0"
         id="stop2" />
      <stop
         stop-color="#b2b2b2"
         offset="1"
         id="stop4" />
    </linearGradient>
    <linearGradient
       inkscape:collect="always"
       xlink:href="#linearGradient1"
       id="linearGradient3"
       x1="32.080002"
       y1="57.375"
       x2="32.080002"
       y2="3"
       gradientUnits="userSpaceOnUse" />
  </defs>
  <g
     inkscape:label="Layer 1"
     inkscape:groupmode="layer"
     id="layer1">
    <path
       d="M 3.0799997,10.249999 C 3.0799997,6.245825 6.3259377,3 10.33,3 h 43.500005 c 4.00417,0 7.25,3.245825 7.25,7.249999 v 43.5 c 0,4.004173 -3.24583,7.25 -7.25,7.25 H 10.33 c -4.0040623,0 -7.2500003,-3.245827 -7.2500003,-7.25 z"
       id="path736"
       style="fill:#606c86;fill-opacity:1;stroke-width:3.625" />
    <path
       d="M 3.0799997,9.796875 C 3.0799997,6.043188 6.3259377,3 10.33,3 h 43.500005 c 4.00417,0 7.25,3.043188 7.25,6.796875 v 40.781249 c 0,3.753692 -3.24583,6.796875 -7.25,6.796875 H 10.33 c -4.0040623,0 -7.2500003,-3.043183 -7.2500003,-6.796875 z"
       id="path738"
       style="fill:url(#linearGradient22065);fill-opacity:1;stroke-width:3.625" />
    <rect
       ry="6.4440002"
       y="3"
       x="3.0000005"
       height="54.375"
       width="58"
       id="rect1045-5"
       style="fill:url(#linearGradient3);fill-opacity:1;stroke-width:2.80216;stroke-linecap:round"
       rx="6.5229988" />
    <g
       id="g5"
       transform="matrix(0.78048781,0,0,0.78048781,7.0243907,5.6211463)">
      <path
         style="opacity:0.2"
         d="M 27.395341,52.964049 C 18.139423,52.784535 14.38258,52.626031 12.085292,52.318105 10.400602,52.092281 9.5732583,51.872129 8.6401443,51.401363 7.0989966,50.623849 6.1405286,49.539647 5.4488309,47.791408 4.8164229,46.19307 4.5589209,44.923584 4.3226009,42.239 4.0559149,39.20943 4.035069,38.66097 4.007377,33.94067 3.974757,28.389584 4.040417,26.570543 4.4057469,22.886033 4.5973229,20.954425 4.8765389,19.670709 5.4011889,18.309412 5.8789947,17.069705 6.3152206,16.385525 7.1085586,15.631565 8.1056385,14.683978 9.2006763,14.107939 10.583064,13.80385 12.64644,13.349958 21.972581,13 32.004813,13 c 10.032231,0 19.358373,0.349958 21.421747,0.80385 1.492218,0.328253 2.58741,0.934569 3.655973,2.024002 0.836332,0.852663 1.267084,1.627447 1.779694,3.201193 0.528192,1.621562 0.730758,3.056632 1.03089,7.303322 0.14252,2.016692 0.1425,11.300191 0,13.315891 -0.16676,2.358052 -0.371392,4.457956 -0.507654,5.209342 -0.350308,1.93178 -1.038324,3.740459 -1.814022,4.768813 -0.532195,0.70553 -1.582783,1.546182 -2.461297,1.969458 -0.889574,0.428608 -1.73712,0.641098 -3.103448,0.77811 -4.233894,0.424556 -17.162839,0.734544 -24.611299,0.590068 z"
         id="path1" />
      <path
         style="fill:#fa2235"
         d="M 27.395341,51.964049 C 18.139423,51.784535 14.38258,51.626031 12.085292,51.318105 10.400602,51.092281 9.5732583,50.872129 8.6401443,50.401363 7.0989966,49.623849 6.1405286,48.539648 5.4488309,46.791408 4.8164229,45.19307 4.5589209,43.923584 4.3226009,41.239 4.0559149,38.20943 4.035069,37.66097 4.007377,32.94067 c -0.03262,-5.551085 0.03304,-7.370127 0.3983699,-11.054637 0.191576,-1.931608 0.470792,-3.215323 0.995442,-4.57662 0.4778058,-1.239707 0.9140317,-1.923887 1.7073697,-2.677847 0.9970799,-0.947588 2.0921177,-1.523626 3.4745054,-1.827715 2.063376,-0.453892 11.389517,-0.80385 21.421749,-0.80385 10.032231,0 19.358373,0.349958 21.421747,0.80385 1.492218,0.328253 2.58741,0.934569 3.655973,2.024002 0.836332,0.852663 1.267084,1.627447 1.779694,3.201192 0.528192,1.621562 0.730758,3.056632 1.03089,7.303322 0.14252,2.016692 0.1425,11.300191 0,13.315891 -0.16676,2.358052 -0.371392,4.457956 -0.507654,5.209342 -0.350308,1.93178 -1.038324,3.74046 -1.814022,4.768814 -0.532195,0.70553 -1.582783,1.546181 -2.461297,1.969457 -0.889574,0.428608 -1.73712,0.641098 -3.103448,0.77811 -4.233894,0.424556 -17.162839,0.734544 -24.611299,0.590068 z"
         id="path2" />
      <path
         style="opacity:0.2"
         d="m 33.233163,37.530326 c 7.937213,-4.515902 7.766553,-4.416854 7.766553,-4.507516 0,-0.08484 -13.892995,-8.068501 -13.960737,-8.022557 -0.04576,0.03106 -0.05426,15.935265 -0.0092,15.985451 0.017,0.0184 0.06502,0.0192 0.10682,0.0015 0.04182,-0.0178 2.785048,-1.573296 6.095916,-3.457018 z"
         id="path3" />
      <path
         style="fill:#ffffff"
         d="m 33.233163,36.530296 c 7.937213,-4.515902 7.766553,-4.416854 7.766553,-4.507516 0,-0.08484 -13.892995,-8.068501 -13.960737,-8.022557 -0.04576,0.03106 -0.05426,15.935265 -0.0092,15.985451 0.017,0.0184 0.06502,0.0192 0.10682,0.0015 0.04182,-0.0178 2.785048,-1.573296 6.095916,-3.457018 z"
         id="path4" />
      <path
         style="opacity:0.2;fill:#ffffff"
         d="M 32.003906,12 C 21.971674,12 12.645407,12.350794 10.582031,12.804688 9.1996434,13.108776 8.1064549,13.685225 7.109375,14.632812 6.316037,15.386772 5.8801496,16.068887 5.4023438,17.308594 4.8776937,18.669891 4.597826,19.955112 4.40625,21.886719 4.1072341,24.902423 4.0138108,26.777787 4.0058594,30.363281 4.0282027,27.356268 4.1331855,25.640692 4.40625,22.886719 4.597826,20.955112 4.8776937,19.669891 5.4023438,18.308594 5.8801496,17.068887 6.316037,16.386772 7.109375,15.632812 8.1064549,14.685225 9.1996434,14.108776 10.582031,13.804688 12.645407,13.350795 21.971674,13 32.003906,13 c 10.032231,0 19.358501,0.350794 21.421875,0.804688 1.492218,0.328253 2.587687,0.934004 3.65625,2.023437 0.836332,0.852663 1.26864,1.625473 1.78125,3.199219 0.528192,1.621561 0.731118,3.057997 1.03125,7.304687 0.06958,0.983616 0.08748,3.567048 0.08594,6.263672 6.11e-4,0.138255 0.0034,0.258386 0.0039,0.396485 0.0124,-3.202115 -0.0078,-6.500323 -0.08984,-7.660157 -0.300132,-4.24669 -0.503058,-5.683126 -1.03125,-7.304687 -0.51261,-1.573746 -0.944918,-2.346556 -1.78125,-3.199219 -1.068563,-1.089433 -2.164032,-1.695184 -3.65625,-2.023437 C 51.362407,12.350795 42.036137,12 32.003906,12 Z"
         id="path5" />
    </g>
  </g>
</svg>
