<?xml version="1.0" encoding="UTF-8" standalone="no"?>
<svg
   width="64"
   height="64"
   version="1.1"
   id="svg23117"
   sodipodi:docname="zen-browser.svg"
   inkscape:version="1.4 (e7c3feb100, 2024-10-09)"
   xmlns:inkscape="http://www.inkscape.org/namespaces/inkscape"
   xmlns:sodipodi="http://sodipodi.sourceforge.net/DTD/sodipodi-0.dtd"
   xmlns:xlink="http://www.w3.org/1999/xlink"
   xmlns="http://www.w3.org/2000/svg"
   xmlns:svg="http://www.w3.org/2000/svg">
  <sodipodi:namedview
     id="namedview23119"
     pagecolor="#ffffff"
     bordercolor="#666666"
     borderopacity="1.0"
     inkscape:showpageshadow="2"
     inkscape:pageopacity="0.0"
     inkscape:pagecheckerboard="0"
     inkscape:deskcolor="#d1d1d1"
     showgrid="false"
     inkscape:zoom="4.9166667"
     inkscape:cx="24.508474"
     inkscape:cy="24.610169"
     inkscape:window-width="1920"
     inkscape:window-height="994"
     inkscape:window-x="0"
     inkscape:window-y="0"
     inkscape:window-maximized="1"
     inkscape:current-layer="svg23117" />
  <defs
     id="defs23105">
    <linearGradient
       id="a"
       y1="547.63397"
       y2="499.67899"
       x2="388.86499"
       gradientUnits="userSpaceOnUse"
       gradientTransform="translate(-453.04388,-539.81483)"
       x1="428.81601">
      <stop
         stop-color="#2a2c2f"
         id="stop23090" />
      <stop
         offset="1"
         stop-color="#536161"
         id="stop23092" />
    </linearGradient>
    <linearGradient
       id="b"
       y1="44"
       y2="12"
       x2="14"
       gradientUnits="userSpaceOnUse"
       x1="36"
       gradientTransform="translate(-68.473879,-40.014831)">
      <stop
         stop-color="#536161"
         style="stop-color:#bfc9c9;stop-opacity:1"
         id="stop23095" />
      <stop
         offset="1"
         stop-color="#f4f5f5"
         style="stop-color:#fbfbfb;stop-opacity:1"
         id="stop23097" />
    </linearGradient>
    <linearGradient
       id="c"
       y1="527.01398"
       x1="406.50101"
       y2="539.82501"
       x2="419.974"
       gradientUnits="userSpaceOnUse"
       gradientTransform="translate(-453.04388,-539.81483)">
      <stop
         stop-color="#292c2f"
         id="stop23100" />
      <stop
         offset="1"
         stop-opacity="0"
         id="stop23102" />
    </linearGradient>
    <linearGradient
       inkscape:collect="always"
       xlink:href="#linearGradient22063"
       id="linearGradient22065"
       x1="-14"
       y1="6"
       x2="-14"
       y2="-9.999999"
       gradientUnits="userSpaceOnUse"
       gradientTransform="matrix(3.6250002,0,0,3.6250002,82.750005,39.249999)" />
    <linearGradient
       inkscape:collect="always"
       id="linearGradient22063">
      <stop
         style="stop-color:#292f3a;stop-opacity:1;"
         offset="0"
         id="stop22059" />
      <stop
         style="stop-color:#535e75;stop-opacity:1;"
         offset="1"
         id="stop22061" />
    </linearGradient>
    <linearGradient
       gradientTransform="matrix(1.4175135,0,0,1.4175135,-0.97261301,0.3330346)"
       id="b-3"
       y1="23.774559"
       x1="22.540125"
       y2="35.804409"
       x2="35.770538"
       gradientUnits="userSpaceOnUse">
      <stop
         stop-color="#292c2f"
         id="stop12" />
      <stop
         offset="1"
         stop-color="#292c2f"
         stop-opacity="0"
         id="stop14" />
    </linearGradient>
    <linearGradient
       xlink:href="#linearGradient4564"
       id="linearGradient4570"
       x1="18.653"
       y1="20.191"
       x2="7.4320002"
       y2="8.5249996"
       gradientUnits="userSpaceOnUse"
       gradientTransform="matrix(0.99999999,0,0,1.1578948,8.0000025,3.1451316)" />
    <linearGradient
       id="linearGradient4564">
      <stop
         style="stop-color:#ffa92d;stop-opacity:1;"
         offset="0"
         id="stop4566" />
      <stop
         style="stop-color:#ffc169;stop-opacity:1"
         offset="1"
         id="stop4568" />
    </linearGradient>
    <linearGradient
       xlink:href="#linearGradient4574"
       id="linearGradient4580"
       x1="28.615"
       y1="21.502001"
       x2="39.939999"
       y2="10.118"
       gradientUnits="userSpaceOnUse"
       gradientTransform="matrix(0.99999999,0,0,1.1578948,8.0000025,3.1451316)" />
    <linearGradient
       id="linearGradient4574">
      <stop
         style="stop-color:#bf4231;stop-opacity:1;"
         offset="0"
         id="stop4576" />
      <stop
         style="stop-color:#f58273;stop-opacity:1"
         offset="1"
         id="stop4578" />
    </linearGradient>
    <linearGradient
       xlink:href="#linearGradient4590"
       id="linearGradient4596"
       x1="33.241001"
       y1="30.191"
       x2="40.393002"
       y2="37.416"
       gradientUnits="userSpaceOnUse"
       gradientTransform="matrix(0.99999999,0,0,1.1578948,8.0000025,3.1451316)" />
    <linearGradient
       id="linearGradient4590">
      <stop
         id="stop4594"
         offset="0"
         style="stop-color:#54d883;stop-opacity:1" />
      <stop
         id="stop4592"
         offset="1"
         style="stop-color:#3bb566;stop-opacity:1;" />
    </linearGradient>
    <linearGradient
       xlink:href="#linearGradient4582"
       id="linearGradient4588"
       x1="19.830999"
       y1="26.561001"
       x2="9.6899996"
       y2="37.881001"
       gradientUnits="userSpaceOnUse"
       gradientTransform="matrix(0.99999999,0,0,1.1578948,8.0000025,3.1451316)" />
    <linearGradient
       id="linearGradient4582">
      <stop
         id="stop4586"
         offset="0"
         style="stop-color:#7cbcec;stop-opacity:1" />
      <stop
         id="stop4584"
         offset="1"
         style="stop-color:#3b85b5;stop-opacity:1;" />
    </linearGradient>
    <linearGradient
       xlink:href="#linearGradient4626"
       id="linearGradient4632"
       x1="23.693001"
       y1="21.277"
       x2="34.937"
       y2="32.521999"
       gradientUnits="userSpaceOnUse"
       gradientTransform="matrix(1.1,0,0,1.1,5.6000025,4.5346056)" />
    <linearGradient
       id="linearGradient4626">
      <stop
         style="stop-color:#000000;stop-opacity:1;"
         offset="0"
         id="stop4628" />
      <stop
         style="stop-color:#000000;stop-opacity:0;"
         offset="1"
         id="stop4630" />
    </linearGradient>
    <linearGradient
       xlink:href="#linearGradient4598"
       id="linearGradient4604"
       x1="27.197001"
       y1="33.474998"
       x2="21.365999"
       y2="14.901"
       gradientUnits="userSpaceOnUse"
       gradientTransform="matrix(1.1,0,0,1.32,5.6000025,-0.74539444)" />
    <linearGradient
       id="linearGradient4598">
      <stop
         style="stop-color:#172525;stop-opacity:1;"
         offset="0"
         id="stop4600" />
      <stop
         style="stop-color:#334545;stop-opacity:1"
         offset="1"
         id="stop4602" />
    </linearGradient>
    <linearGradient
       xlink:href="#linearGradient4656"
       id="linearGradient4662"
       x1="19.025"
       y1="15.232"
       x2="29.945999"
       y2="31.764999"
       gradientUnits="userSpaceOnUse"
       gradientTransform="matrix(1.1,0,0,1.1,6.7000025,4.5346056)" />
    <linearGradient
       id="linearGradient4656">
      <stop
         style="stop-color:#ffffff;stop-opacity:1;"
         offset="0"
         id="stop4658" />
      <stop
         style="stop-color:#536161;stop-opacity:1"
         offset="1"
         id="stop4660" />
    </linearGradient>
    <linearGradient
       id="linearGradient6568"
       x1="27"
       x2="27"
       y1="50"
       y2="54"
       gradientTransform="translate(-88.228144,-33.961195)"
       gradientUnits="userSpaceOnUse">
      <stop
         stop-color="#51595b"
         offset="0"
         id="stop191" />
      <stop
         stop-color="#777c81"
         offset="1"
         id="stop193" />
    </linearGradient>
    <linearGradient
       id="linearGradient14245"
       x1="111.56055"
       x2="123.56055"
       y1="45.060547"
       y2="57.060547"
       gradientTransform="matrix(1.9896552,0,0,1.9896552,-207.3491,-47.529748)"
       gradientUnits="userSpaceOnUse"
       xlink:href="#linearGradient4626" />
    <linearGradient
       id="linearGradient14247"
       x1="125.43934"
       x2="133.56065"
       y1="35"
       y2="35"
       gradientTransform="matrix(1.9896552,0,0,1.9896552,-227.2457,-47.529748)"
       gradientUnits="userSpaceOnUse">
      <stop
         stop-color="#2980b9"
         offset="0"
         id="stop202" />
    </linearGradient>
    <linearGradient
       id="linearGradient14249"
       x1="115.5"
       x2="119.5"
       y1="39"
       y2="35"
       gradientTransform="matrix(1.9896552,0,0,1.9896552,-207.3491,-47.529748)"
       gradientUnits="userSpaceOnUse"
       xlink:href="#linearGradient4626" />
    <linearGradient
       id="linearGradient14251"
       x1="111.56055"
       x2="124.56055"
       y1="45.060547"
       y2="58.060547"
       gradientTransform="matrix(1.9896552,0,0,1.9896552,-190.55753,-39.691595)"
       gradientUnits="userSpaceOnUse"
       xlink:href="#linearGradient4626" />
    <linearGradient
       id="linearGradient14253"
       x1="131"
       x2="109.43934"
       y1="49"
       y2="30.939341"
       gradientTransform="matrix(1.9896552,0,0,1.9896552,-207.3491,-47.529748)"
       gradientUnits="userSpaceOnUse">
      <stop
         stop-color="#3498db"
         offset="0"
         id="stop207" />
      <stop
         stop-color="#3daee9"
         offset="1"
         id="stop209" />
    </linearGradient>
    <linearGradient
       id="b-36"
       gradientTransform="matrix(1.1250001,0,0,1.2187466,5.0000195,-3.0058606)"
       gradientUnits="userSpaceOnUse"
       x1="25.07"
       x2="25"
       y1="33.844002"
       y2="10">
      <stop
         offset="0"
         stop-color="#73ba25"
         id="stop202-7" />
      <stop
         offset="1"
         stop-color="#96cb5c"
         id="stop204" />
    </linearGradient>
    <linearGradient
       id="c-5"
       gradientUnits="userSpaceOnUse"
       x1="10"
       x2="34"
       xlink:href="#a-3"
       y1="10"
       y2="34"
       gradientTransform="matrix(1.1250001,0,0,1.1250001,5.0000195,4.6891354)" />
    <linearGradient
       id="a-3"
       gradientTransform="translate(384.57,500.8)"
       gradientUnits="userSpaceOnUse"
       x1="10"
       x2="15"
       y1="36"
       y2="41">
      <stop
         offset="0"
         stop-color="#292c2f"
         id="stop196" />
      <stop
         offset="1"
         stop-opacity="0"
         id="stop198" />
    </linearGradient>
    <linearGradient
       id="d"
       gradientTransform="matrix(1.1250001,0,0,1.1250001,5.0000195,4.6891384)"
       gradientUnits="userSpaceOnUse"
       x2="0"
       y1="20"
       y2="44">
      <stop
         offset="0"
         stop-color="#eff0f1"
         id="stop191-5" />
      <stop
         offset="1"
         stop-color="#bdc3c7"
         id="stop193-6" />
    </linearGradient>
    <linearGradient
       id="e"
       gradientTransform="matrix(1.1250001,0,0,1.1250001,20.862492,5.8141384)"
       gradientUnits="userSpaceOnUse"
       x1="9.9049997"
       x2="14.905"
       xlink:href="#a-3"
       y1="36"
       y2="41" />
    <linearGradient
       id="b-367"
       gradientTransform="matrix(1.125,0,0,1.2187467,5.0134915,-2.6949993)"
       gradientUnits="userSpaceOnUse"
       x1="25.07"
       x2="25"
       y1="33.844002"
       y2="10">
      <stop
         offset="0"
         stop-color="#73ba25"
         id="stop220" />
      <stop
         offset="1"
         stop-color="#96cb5c"
         id="stop222" />
    </linearGradient>
    <linearGradient
       id="c-53"
       gradientTransform="matrix(1.125,0,0,1.125,3.8884865,5.0000003)"
       gradientUnits="userSpaceOnUse"
       x1="11"
       x2="35"
       xlink:href="#a-3"
       y1="10"
       y2="34" />
    <linearGradient
       id="d-6"
       gradientTransform="matrix(1.125,0,0,1.125,5.0134915,5.0000024)"
       gradientUnits="userSpaceOnUse"
       x2="0"
       y1="20"
       y2="44">
      <stop
         offset="0"
         stop-color="#eff0f1"
         id="stop209-2" />
      <stop
         offset="1"
         stop-color="#bdc3c7"
         id="stop211" />
    </linearGradient>
    <linearGradient
       id="e-9"
       gradientTransform="matrix(1.125,0,0,1.125,20.875993,6.1250023)"
       gradientUnits="userSpaceOnUse"
       x1="9.9049997"
       x2="14.905"
       xlink:href="#a-3"
       y1="36"
       y2="41" />
    <linearGradient
       id="linearGradient4167">
      <stop
         id="stop4169"
         offset="0"
         style="stop-color:#5f5f5f;stop-opacity:1" />
      <stop
         style="stop-color:#7b7b7b;stop-opacity:1;"
         offset="0.0015522"
         id="stop4171" />
      <stop
         style="stop-color:#b8b8b8;stop-opacity:1;"
         offset="0.015522"
         id="stop4173" />
      <stop
         id="stop4175"
         offset="0.06901909"
         style="stop-color:#7b7b7b;stop-opacity:1;" />
      <stop
         id="stop4177"
         offset="1"
         style="stop-color:#7b7b7b;stop-opacity:1;" />
    </linearGradient>
    <linearGradient
       id="linearGradient4434">
      <stop
         style="stop-color:#23343f;stop-opacity:1;"
         offset="0"
         id="stop4436" />
      <stop
         style="stop-color:#0d2024;stop-opacity:1;"
         offset="1"
         id="stop4438" />
    </linearGradient>
    <linearGradient
       id="linearGradient3863">
      <stop
         style="stop-color:#5f5f5f;stop-opacity:1"
         offset="0"
         id="stop3865" />
      <stop
         id="stop4068"
         offset="0.007761"
         style="stop-color:#7b7b7b;stop-opacity:1;" />
      <stop
         id="stop4066"
         offset="0.015522"
         style="stop-color:#bcbcbc;stop-opacity:1;" />
      <stop
         style="stop-color:#7b7b7b;stop-opacity:1;"
         offset="0.11589409"
         id="stop4070" />
      <stop
         style="stop-color:#7b7b7b;stop-opacity:1;"
         offset="1"
         id="stop3867" />
    </linearGradient>
    <clipPath
       clipPathUnits="userSpaceOnUse"
       id="clipPath4998">
      <path
         sodipodi:nodetypes="ccccccccc"
         inkscape:connector-curvature="0"
         id="path5000"
         d="m 362.86921,919.99013 -26.45662,78.12639 c -0.19856,0.56721 1.27628,1.28121 3.09023,1.24381 h 208.38863 c 2.0093,0.0413 3.38827,-0.6766 3.18972,-1.24381 l -24.42553,-78.12639 c -0.13052,-0.36761 -0.51164,-0.63052 -0.90158,-0.62189 H 364.76563 c -0.88506,0 -1.7682,0.34496 -1.89642,0.62189 z"
         style="fill:url(#radialGradient5002);fill-opacity:1;stroke:none" />
    </clipPath>
    <linearGradient
       id="linearGradient4751">
      <stop
         id="stop4753"
         offset="0"
         style="stop-color:#0d2024;stop-opacity:1;" />
      <stop
         style="stop-color:#1d363e;stop-opacity:1;"
         offset="0.69463331"
         id="stop4755" />
      <stop
         id="stop4757"
         offset="1"
         style="stop-color:#2e4c59;stop-opacity:1;" />
    </linearGradient>
    <linearGradient
       id="linearGradient4573">
      <stop
         style="stop-color:#0d2024;stop-opacity:1;"
         offset="0"
         id="stop4575" />
      <stop
         id="stop4749"
         offset="0.67977524"
         style="stop-color:#1d363e;stop-opacity:1;" />
      <stop
         style="stop-color:#2e4c59;stop-opacity:1;"
         offset="1"
         id="stop4577" />
    </linearGradient>
    <linearGradient
       id="linearGradient4533">
      <stop
         style="stop-color:#000000;stop-opacity:1;"
         offset="0"
         id="stop4535" />
      <stop
         style="stop-color:#5b91ac;stop-opacity:0;"
         offset="1"
         id="stop4537" />
    </linearGradient>
    <linearGradient
       id="linearGradient4563">
      <stop
         style="stop-color:#000000;stop-opacity:1;"
         offset="0"
         id="stop4565" />
      <stop
         style="stop-color:#2f4a58;stop-opacity:1;"
         offset="1"
         id="stop4567" />
    </linearGradient>
    <linearGradient
       id="linearGradient4401">
      <stop
         style="stop-color:#1c2e37;stop-opacity:1;"
         offset="0"
         id="stop4403" />
      <stop
         id="stop4423"
         offset="0.23636365"
         style="stop-color:#2d627b;stop-opacity:1;" />
      <stop
         style="stop-color:#357c9d;stop-opacity:1;"
         offset="0.59327769"
         id="stop4427" />
      <stop
         id="stop4429"
         offset="0.87063479"
         style="stop-color:#9fcce0;stop-opacity:1" />
      <stop
         id="stop4421"
         offset="0.90454549"
         style="stop-color:#3e97bf;stop-opacity:1" />
      <stop
         style="stop-color:#9ecbdf;stop-opacity:1;"
         offset="0.94466507"
         id="stop4425" />
      <stop
         style="stop-color:#ffffff;stop-opacity:1;"
         offset="1"
         id="stop4405" />
    </linearGradient>
    <linearGradient
       id="linearGradient4411">
      <stop
         style="stop-color:#13191b;stop-opacity:0;"
         offset="0"
         id="stop4413" />
      <stop
         id="stop4419"
         offset="0.93114913"
         style="stop-color:#13191b;stop-opacity:0" />
      <stop
         style="stop-color:#00385c;stop-opacity:1;"
         offset="1"
         id="stop4415" />
    </linearGradient>
    <clipPath
       clipPathUnits="userSpaceOnUse"
       id="clipPath4785">
      <circle
         style="opacity:0.353591;fill:url(#radialGradient4790);fill-opacity:1;fill-rule:evenodd;stroke:none"
         id="path4788"
         transform="matrix(0.55087929,0,0,0.74447456,348.83658,72.651014)"
         cx="-397.875"
         cy="-33.375"
         r="8.125" />
    </clipPath>
    <clipPath
       clipPathUnits="userSpaceOnUse"
       id="clipPath933">
      <circle
         style="opacity:0.353591;fill:url(#radialGradient4790);fill-opacity:1;fill-rule:evenodd;stroke:none"
         id="path931"
         transform="matrix(0.55087929,0,0,0.74447456,348.83658,72.651014)"
         cx="-397.875"
         cy="-33.375"
         r="8.125" />
    </clipPath>
    <clipPath
       clipPathUnits="userSpaceOnUse"
       id="clipPath496">
      <g
         id="g500"
         transform="matrix(-4.5170201,0,0,4.5170189,271.87432,5.99733)">
        <path
           inkscape:connector-curvature="0"
           id="path498"
           d="m 13.349027,29.444789 c -0.714712,0 -1.363349,0.212293 -1.452839,0.477362 L 5.3445792,49.334837 c -0.00324,0.0095 -0.00572,0.01815 -0.00692,0.02767 -2.878e-4,0.0022 1.709e-4,0.0046 0,0.0069 v 0.01395 l 0.00692,2.995604 c -0.089487,0.293867 0.6117466,0.532719 1.5704491,0.532719 H 57.114052 c 0.958703,0 1.658698,-0.238852 1.570449,-0.532719 l 0.0069,-2.995648 c 1.47e-4,-0.0044 2.22e-4,-0.0093 0,-0.01395 -8.85e-4,-0.01173 -0.0029,-0.02267 -0.0069,-0.0346 L 52.222819,29.92204 C 52.134548,29.656971 51.484693,29.444679 50.76998,29.444679 H 13.349016 Z"
           style="fill:url(#linearGradient4237);fill-opacity:1;stroke-width:0.221385"
           sodipodi:nodetypes="cccccccsscccccscc" />
      </g>
    </clipPath>
    <clipPath
       clipPathUnits="userSpaceOnUse"
       id="clipPath502">
      <g
         id="g506"
         transform="matrix(4.5170201,0,0,4.5170189,-17.110322,802.35951)">
        <path
           inkscape:connector-curvature="0"
           id="path504"
           d="m 13.349027,29.444789 c -0.714712,0 -1.363349,0.212293 -1.452839,0.477362 L 5.3445792,49.334837 c -0.00324,0.0095 -0.00572,0.01815 -0.00692,0.02767 -2.878e-4,0.0022 1.709e-4,0.0046 0,0.0069 v 0.01395 l 0.00692,2.995604 c -0.089487,0.293867 0.6117466,0.532719 1.5704491,0.532719 H 57.114052 c 0.958703,0 1.658698,-0.238852 1.570449,-0.532719 l 0.0069,-2.995648 c 1.47e-4,-0.0044 2.22e-4,-0.0093 0,-0.01395 -8.85e-4,-0.01173 -0.0029,-0.02267 -0.0069,-0.0346 L 52.222819,29.92204 C 52.134548,29.656971 51.484693,29.444679 50.76998,29.444679 H 13.349016 Z"
           style="fill:url(#linearGradient4237);fill-opacity:1;stroke-width:0.221385"
           sodipodi:nodetypes="cccccccsscccccscc" />
      </g>
    </clipPath>
    <clipPath
       clipPathUnits="userSpaceOnUse"
       id="clipPath508">
      <g
         id="g512"
         transform="matrix(4.5170201,0,0,4.5170189,-17.110322,802.35951)">
        <path
           inkscape:connector-curvature="0"
           id="path510"
           d="m 13.349027,29.444789 c -0.714712,0 -1.363349,0.212293 -1.452839,0.477362 L 5.3445792,49.334837 c -0.00324,0.0095 -0.00572,0.01815 -0.00692,0.02767 -2.878e-4,0.0022 1.709e-4,0.0046 0,0.0069 v 0.01395 l 0.00692,2.995604 c -0.089487,0.293867 0.6117466,0.532719 1.5704491,0.532719 H 57.114052 c 0.958703,0 1.658698,-0.238852 1.570449,-0.532719 l 0.0069,-2.995648 c 1.47e-4,-0.0044 2.22e-4,-0.0093 0,-0.01395 -8.85e-4,-0.01173 -0.0029,-0.02267 -0.0069,-0.0346 L 52.222819,29.92204 C 52.134548,29.656971 51.484693,29.444679 50.76998,29.444679 H 13.349016 Z"
           style="fill:url(#linearGradient4237);fill-opacity:1;stroke-width:0.221385"
           sodipodi:nodetypes="cccccccsscccccscc" />
      </g>
    </clipPath>
    <clipPath
       clipPathUnits="userSpaceOnUse"
       id="clipPath514">
      <g
         id="g518"
         transform="matrix(4.5170201,0,0,4.5170189,-17.110322,802.35951)">
        <path
           inkscape:connector-curvature="0"
           id="path516"
           d="m 13.349027,29.444789 c -0.714712,0 -1.363349,0.212293 -1.452839,0.477362 L 5.3445792,49.334837 c -0.00324,0.0095 -0.00572,0.01815 -0.00692,0.02767 -2.878e-4,0.0022 1.709e-4,0.0046 0,0.0069 v 0.01395 l 0.00692,2.995604 c -0.089487,0.293867 0.6117466,0.532719 1.5704491,0.532719 H 57.114052 c 0.958703,0 1.658698,-0.238852 1.570449,-0.532719 l 0.0069,-2.995648 c 1.47e-4,-0.0044 2.22e-4,-0.0093 0,-0.01395 -8.85e-4,-0.01173 -0.0029,-0.02267 -0.0069,-0.0346 L 52.222819,29.92204 C 52.134548,29.656971 51.484693,29.444679 50.76998,29.444679 H 13.349016 Z"
           style="fill:url(#linearGradient4237);fill-opacity:1;stroke-width:0.221385"
           sodipodi:nodetypes="cccccccsscccccscc" />
      </g>
    </clipPath>
    <clipPath
       clipPathUnits="userSpaceOnUse"
       id="clipPath520">
      <g
         id="g524"
         transform="matrix(4.5170201,0,0,4.5170189,-17.110322,802.35951)">
        <path
           inkscape:connector-curvature="0"
           id="path522"
           d="m 13.349027,29.444789 c -0.714712,0 -1.363349,0.212293 -1.452839,0.477362 L 5.3445792,49.334837 c -0.00324,0.0095 -0.00572,0.01815 -0.00692,0.02767 -2.878e-4,0.0022 1.709e-4,0.0046 0,0.0069 v 0.01395 l 0.00692,2.995604 c -0.089487,0.293867 0.6117466,0.532719 1.5704491,0.532719 H 57.114052 c 0.958703,0 1.658698,-0.238852 1.570449,-0.532719 l 0.0069,-2.995648 c 1.47e-4,-0.0044 2.22e-4,-0.0093 0,-0.01395 -8.85e-4,-0.01173 -0.0029,-0.02267 -0.0069,-0.0346 L 52.222819,29.92204 C 52.134548,29.656971 51.484693,29.444679 50.76998,29.444679 H 13.349016 Z"
           style="fill:url(#linearGradient4237);fill-opacity:1;stroke-width:0.221385"
           sodipodi:nodetypes="cccccccsscccccscc" />
      </g>
    </clipPath>
  </defs>
  <path
     d="M 3,10.25 C 3,6.245825 6.245938,3 10.25,3 h 43.500005 c 4.00417,0 7.25,3.245825 7.25,7.25 v 43.5 c 0,4.004173 -3.24583,7.25 -7.25,7.25 H 10.25 C 6.245938,61 3,57.754173 3,53.75 Z"
     id="path736"
     style="fill:#606c86;fill-opacity:1;stroke-width:3.625" />
  <path
     d="M 3,9.796875 C 3,6.043188 6.245938,3 10.25,3 h 43.500005 c 4.00417,0 7.25,3.043188 7.25,6.796875 v 40.781249 c 0,3.753693 -3.24583,6.796876 -7.25,6.796876 H 10.25 C 6.245938,57.375 3,54.331817 3,50.578124 Z"
     id="path738"
     style="fill:url(#linearGradient22065);fill-opacity:1;stroke-width:3.625" />
  <g
     id="f"
     transform="matrix(0.89600024,0,0,0.89600024,-3.8568506,-5.2806905)">
    <path
       class="i"
       d="m 63.4352,57.677 c -0.0536,3.2125 -2.7416,5.7589 -5.9546,5.7589 H 35.4044 c -1.1221,0 -1.8295,-1.2103 -1.2751,-2.1859 1.4628,-2.5738 4.3202,-6.7829 8.5529,-9.1539 0.4406,-0.2468 0.9366,-0.3783 1.4416,-0.3783 H 57.577 c 3.2692,0 5.9129,2.6774 5.8582,5.9591 z"
       id="path3"
       style="fill:#fef9fe;stroke-width:0px" />
    <path
       class="i"
       d="m 45.8707,18.7498 c -1.4628,2.5738 -4.3202,6.7829 -8.5529,9.1539 -0.4406,0.2468 -0.9366,0.3783 -1.4416,0.3783 H 22.5195 c -3.213,0 -5.901,-2.5464 -5.9546,-5.7589 -0.0547,-3.2817 2.589,-5.9591 5.8582,-5.9591 h 22.1726 c 1.1221,0 1.8295,1.2103 1.2751,2.1859 z"
       id="path4"
       style="fill:#fef9fe;stroke-width:0px" />
    <path
       class="i"
       d="m 22.4207,63.4375 c -0.7473,0 -1.5065,-0.1438 -2.2398,-0.4475 -2.9896,-1.2383 -4.4093,-4.6657 -3.171,-7.6551 1.9045,-4.5977 4.6342,-8.7196 8.1136,-12.2511 3.6044,-3.6585 7.8551,-6.5172 12.6343,-8.4968 6.5691,-2.7211 11.6853,-7.8373 14.4061,-14.4061 1.2383,-2.9896 4.6658,-4.409 7.6551,-3.171 2.9896,1.2383 4.4093,4.6657 3.171,7.6551 -1.9045,4.5977 -4.6342,8.7196 -8.1136,12.2511 -3.6044,3.6585 -7.8551,6.5172 -12.6343,8.4968 -6.5691,2.7211 -11.6853,7.8373 -14.4061,14.4061 -0.9345,2.2562 -3.1164,3.6185 -5.4153,3.6185 z"
       id="path5"
       style="fill:#fef9fe;stroke-width:0px" />
  </g>
</svg>
