<?xml version="1.0" encoding="UTF-8" standalone="no"?>
<!-- Created with Inkscape (http://www.inkscape.org/) -->

<svg
   width="64"
   version="1.1"
   height="64"
   id="svg3307"
   sodipodi:docname="plasmavault.svg"
   inkscape:version="1.2.1 (9c6d41e410, 2022-07-14)"
   xmlns:inkscape="http://www.inkscape.org/namespaces/inkscape"
   xmlns:sodipodi="http://sodipodi.sourceforge.net/DTD/sodipodi-0.dtd"
   xmlns:xlink="http://www.w3.org/1999/xlink"
   xmlns="http://www.w3.org/2000/svg"
   xmlns:svg="http://www.w3.org/2000/svg">
  <sodipodi:namedview
     id="namedview3309"
     pagecolor="#ffffff"
     bordercolor="#666666"
     borderopacity="1.0"
     inkscape:showpageshadow="2"
     inkscape:pageopacity="0.0"
     inkscape:pagecheckerboard="0"
     inkscape:deskcolor="#d1d1d1"
     showgrid="false"
     inkscape:zoom="5.2149125"
     inkscape:cx="47.460048"
     inkscape:cy="18.121109"
     inkscape:window-width="1920"
     inkscape:window-height="1002"
     inkscape:window-x="0"
     inkscape:window-y="0"
     inkscape:window-maximized="1"
     inkscape:current-layer="layer1" />
  <defs
     id="defs5455">
    <linearGradient
       id="linearGradient1641"
       gradientUnits="userSpaceOnUse"
       x2="0"
       y1="30"
       y2="8">
      <stop
         offset="0"
         stop-color="#cea476"
         id="stop1637"
         style="stop-color:#4c566a;stop-opacity:1;" />
      <stop
         offset="1"
         stop-color="#dab58b"
         id="stop1639"
         style="stop-color:#2e3440;stop-opacity:1;" />
    </linearGradient>
    <linearGradient
       inkscape:collect="always"
       xlink:href="#linearGradient22063-0"
       id="linearGradient22065-6"
       x1="-22"
       y1="5.1111121"
       x2="-6.4444442"
       y2="-9.1111107"
       gradientUnits="userSpaceOnUse"
       gradientTransform="matrix(3.6250002,0,0,3.6250002,467.32143,555.048)" />
    <linearGradient
       inkscape:collect="always"
       id="linearGradient22063-0">
      <stop
         style="stop-color:#5faac0;stop-opacity:1;"
         offset="0"
         id="stop22059-6" />
      <stop
         style="stop-color:#8fbcbb;stop-opacity:1;"
         offset="1"
         id="stop22061-2" />
    </linearGradient>
    <linearGradient
       id="b"
       gradientTransform="matrix(1.0062171,0,0,0.92307428,-418.26514,-495.31942)"
       gradientUnits="userSpaceOnUse"
       x1="388.423"
       x2="388.423"
       y1="557.79797"
       y2="505.798">
      <stop
         offset="0"
         stop-color="#7f8c8d"
         id="stop13" />
      <stop
         offset="1"
         stop-color="#afb0b3"
         id="stop15" />
    </linearGradient>
    <linearGradient
       id="d"
       gradientTransform="matrix(0.89441142,0,0,0.92307428,-28.621713,-33.965714)"
       gradientUnits="userSpaceOnUse"
       x1="1.3329999"
       x2="1.3329999"
       y1="48.714001"
       y2="9.7139997">
      <stop
         offset="0"
         stop-color="#eef1f2"
         id="stop19" />
      <stop
         offset="1"
         stop-color="#f9fafb"
         id="stop21" />
    </linearGradient>
    <linearGradient
       id="f"
       gradientUnits="userSpaceOnUse"
       x1="-11.306"
       x2="-11.306"
       y1="23.620001"
       y2="7.6199999"
       gradientTransform="matrix(1.7142857,0,0,1.7142857,-27.42857,-31.857142)">
      <stop
         offset="0"
         stop-color="#3e3e3e"
         id="stop2" />
      <stop
         offset="1"
         stop-color="#5c5c5c"
         id="stop4" />
    </linearGradient>
    <linearGradient
       id="a"
       gradientTransform="matrix(0.57142824,0,0,0.57142824,-222.46924,732.04922)"
       gradientUnits="userSpaceOnUse"
       x2="0"
       xlink:href="#b-3"
       y1="543.79797"
       y2="503.798" />
    <linearGradient
       id="b-3">
      <stop
         offset="0"
         stop-color="#2f3943"
         id="stop2771" />
      <stop
         offset="1"
         stop-color="#808c9b"
         id="stop2773" />
    </linearGradient>
    <linearGradient
       id="c"
       gradientTransform="matrix(0.63636312,0,0,0.63636312,-248.99977,698.03648)"
       gradientUnits="userSpaceOnUse"
       x2="0"
       xlink:href="#b-3"
       y1="499.798"
       y2="547.79797" />
    <linearGradient
       id="e"
       gradientUnits="userSpaceOnUse"
       x1="8"
       x2="20"
       y1="6"
       y2="20">
      <stop
         offset="0"
         id="stop2782" />
      <stop
         offset="1"
         stop-opacity="0"
         id="stop2784" />
    </linearGradient>
    <linearGradient
       id="d-6"
       gradientUnits="userSpaceOnUse"
       x1="11"
       x2="11"
       y1="17"
       y2="6">
      <stop
         offset="0"
         stop-color="#ffd42a"
         id="stop2777" />
      <stop
         offset="1"
         stop-color="#ffdf62"
         id="stop2779" />
    </linearGradient>
    <filter
       id="filter6437"
       x="-0.10795185"
       y="-0.10804809"
       width="1.2159037"
       height="1.2160962"
       color-interpolation-filters="sRGB">
      <feGaussianBlur
         stdDeviation="0.41036932"
         id="feGaussianBlur438" />
    </filter>
    <linearGradient
       id="linearGradient6207"
       x1="7.6350002"
       x2="8.7609997"
       y1="5.7037001"
       y2="14.001"
       gradientUnits="userSpaceOnUse"
       gradientTransform="matrix(4.3479357,0,0,4.3479357,436.80937,445.11776)">
      <stop
         stop-color="#2e3440"
         offset="0"
         id="stop433" />
      <stop
         stop-color="#4c566a"
         offset="1"
         id="stop435" />
    </linearGradient>
    <linearGradient
       id="c-3"
       gradientUnits="userSpaceOnUse"
       x2="0"
       xlink:href="#linearGradient1641"
       y1="8"
       y2="2"
       gradientTransform="matrix(1.5714286,0,0,1.5714286,391.42858,522.21129)" />
    <linearGradient
       id="b-6"
       gradientUnits="userSpaceOnUse"
       x2="0"
       y1="30"
       y2="8">
      <stop
         offset="0"
         stop-color="#cea476"
         id="stop164" />
      <stop
         offset="1"
         stop-color="#dab58b"
         id="stop166" />
    </linearGradient>
    <linearGradient
       id="d-7"
       gradientUnits="userSpaceOnUse"
       x2="0"
       xlink:href="#linearGradient1641"
       y1="30"
       y2="8"
       gradientTransform="matrix(1.5714286,0,0,1.5714286,391.42858,522.21129)" />
    <linearGradient
       id="linearGradient331"
       gradientUnits="userSpaceOnUse"
       x2="0"
       y1="30"
       y2="8">
      <stop
         offset="0"
         stop-color="#cea476"
         id="stop327" />
      <stop
         offset="1"
         stop-color="#dab58b"
         id="stop329" />
    </linearGradient>
    <linearGradient
       id="e-5"
       gradientUnits="userSpaceOnUse"
       x1="16"
       x2="16"
       xlink:href="#linearGradient22063-0"
       y1="8"
       y2="2" />
    <linearGradient
       id="a-3"
       gradientTransform="matrix(0.66667,0,0,0.66667,-256.38,-333.867)"
       gradientUnits="userSpaceOnUse"
       x2="0"
       y1="512.79999"
       y2="503.79999">
      <stop
         offset="0"
         stop-color="#ebc69a"
         id="stop172" />
      <stop
         offset="1"
         stop-color="#f4e0c8"
         stop-opacity="0"
         id="stop174" />
    </linearGradient>
    <linearGradient
       id="f-5"
       gradientUnits="userSpaceOnUse"
       x1="16"
       x2="16.000002"
       xlink:href="#linearGradient22063-0"
       y1="11"
       y2="8.000001" />
    <linearGradient
       id="linearGradient342"
       gradientTransform="matrix(0.66667,0,0,0.66667,-256.38,-333.867)"
       gradientUnits="userSpaceOnUse"
       x2="0"
       y1="512.79999"
       y2="503.79999">
      <stop
         offset="0"
         stop-color="#ebc69a"
         id="stop338" />
      <stop
         offset="1"
         stop-color="#f4e0c8"
         stop-opacity="0"
         id="stop340" />
    </linearGradient>
    <linearGradient
       id="g"
       gradientUnits="userSpaceOnUse"
       x1="34"
       x2="48"
       y1="16"
       y2="30"
       gradientTransform="matrix(1.7428574,0,0,1.7428574,386.08571,515.12533)">
      <stop
         offset="0"
         stop-color="#292c2f"
         id="stop196" />
      <stop
         offset="1"
         stop-opacity="0"
         id="stop198" />
    </linearGradient>
    <linearGradient
       id="h"
       gradientUnits="userSpaceOnUse"
       x1="30"
       x2="30"
       xlink:href="#a-36"
       y1="30"
       y2="8"
       gradientTransform="matrix(1.7428574,0,0,1.7428574,386.08571,515.12533)" />
    <linearGradient
       id="a-36"
       gradientUnits="userSpaceOnUse"
       x2="0"
       y1="30"
       y2="8">
      <stop
         offset="0"
         stop-color="#cfd2d5"
         id="stop222" />
      <stop
         offset="1"
         stop-color="#eff0f1"
         id="stop224" />
    </linearGradient>
    <linearGradient
       xlink:href="#a-7"
       id="b-36"
       gradientUnits="userSpaceOnUse"
       x1="61"
       y1="58"
       x2="60.838001"
       y2="7.0430002"
       gradientTransform="matrix(0.88461477,0,0,0.88461468,335.36471,519.31236)" />
    <linearGradient
       id="a-7">
      <stop
         stop-color="#3e3e3e"
         id="stop204" />
      <stop
         offset="1"
         stop-color="#494949"
         id="stop206" />
    </linearGradient>
    <linearGradient
       id="c-5"
       y1="527.01398"
       x1="406.50101"
       y2="539.82501"
       x2="419.974"
       gradientUnits="userSpaceOnUse"
       gradientTransform="matrix(1.2264828,0,0,1.2264827,-90.239404,-91.09302)">
      <stop
         stop-color="#292c2f"
         id="stop209" />
      <stop
         offset="1"
         stop-opacity="0"
         id="stop211" />
    </linearGradient>
  </defs>
  <metadata
     id="metadata5458" />
  <g
     inkscape:label="Capa 1"
     inkscape:groupmode="layer"
     id="layer1"
     transform="translate(-384.57143,-515.798)">
    <path
       d="m 387.57143,526.048 c 0,-4.00417 3.24594,-7.25 7.25,-7.25 h 43.5 c 4.00418,0 7.25,3.24583 7.25,7.25 v 43.5 c 0,4.00417 -3.24582,7.25 -7.25,7.25 h -43.5 c -4.00406,0 -7.25,-3.24583 -7.25,-7.25 z"
       id="path736-7"
       style="fill:#606c86;fill-opacity:1;stroke-width:3.625" />
    <path
       d="m 387.57143,525.59488 c 0,-3.75369 3.24594,-6.79688 7.25,-6.79688 h 43.5 c 4.00418,0 7.25,3.04319 7.25,6.79688 v 40.78124 c 0,3.7537 -3.24582,6.79688 -7.25,6.79688 h -43.5 c -4.00406,0 -7.25,-3.04318 -7.25,-6.79688 z"
       id="path738-9"
       style="fill:url(#linearGradient22065-6);fill-opacity:1;stroke-width:3.625" />
    <path
       d="m 398.57044,524.62002 a 6.5753415,6.5753409 0 0 0 -6.59037,6.59038 v 31.0367 a 6.5753415,6.5753409 0 0 0 6.59037,6.5904 h 3.4686 a 6.6523028,6.6523022 0 0 0 1.173,0.10789 h 31.71698 a 6.5753415,6.5753409 0 0 0 6.58942,-6.58944 v -27.60714 a 6.5753415,6.5753409 0 0 0 -6.59036,-6.59032 h -18.17885 l -3.53843,-3.53847 h -11.15234 z"
       fill="#2d2d2d"
       id="path217"
       style="stroke-width:0.884619" />
    <path
       d="m 411.44163,533.46621 -3.53853,1.76918 -1.76919,0.88462 -0.0142,0.002 h -9.33983 a 4.826458,4.8264575 0 0 0 -4.46115,2.95103 c -0.22736,0.53783 -0.33345,1.13583 -0.35116,1.75337 l -0.004,0.95359 2.18235,-1.64538 4.14974,-3.12975 h 9.6069 l 0.78729,-0.78735 0.0974,-0.0973 z"
       fill-opacity="0.235"
       id="path219"
       style="stroke-width:0.884619" />
    <path
       d="m 391.96769,538.72341 v 0.33356 c 0.005,-0.13718 0.0646,-0.25476 0.0778,-0.39018 -0.0206,0.018 -0.0548,0.0362 -0.0778,0.0564 z"
       id="path221"
       style="stroke-width:0.884619" />
    <path
       d="m 438.04376,529.04305 c -0.19468,-0.10607 -0.33972,-0.28128 -0.54583,-0.368 a 6.5965724,6.5965718 0 0 0 -2.56891,-0.51656 h -18.17979 l -3.53843,-3.53847 2.65386,4.42303 h 1.76926 z"
       fill="#ffffff"
       fill-opacity="0.235"
       fill-rule="evenodd"
       id="path223"
       style="stroke-width:0.884619" />
    <path
       d="m 411.44163,533.46621 -3.53853,3.53842 h -10.21727 a 6.5744567,6.5744561 0 0 0 -6.0729,4.0206 6.5965724,6.5965718 0 0 0 -0.51748,2.5689 v 20.43637 a 6.5753415,6.5753409 0 0 0 6.59038,6.58949 h 38.12693 a 6.5753415,6.5753409 0 0 0 6.59032,-6.59038 v -23.97308 a 6.5753415,6.5753409 0 0 0 -6.59032,-6.59032 z"

       fill-rule="evenodd"
       id="path225"
       style="fill:url(#b-36);stroke-width:0.884619" />
    <path
       d="m 411.44163,533.46621 -3.53853,3.53842 h 3.53853 z m 0,3.53842 v 3.53841 h 3.53843 v -3.53841 z m 3.53843,0 h 3.5384 v -3.53842 h -3.5384 z m 3.5384,0 v 3.53841 h 3.53848 v -3.53841 z m 3.53848,0 h 3.53848 v -3.53842 h -3.53848 z m 3.53848,0 v 3.53841 h 3.53849 v -3.53841 z m 3.53849,0 h 3.53847 v -3.53842 h -3.53847 z m 3.53847,0 v 3.53841 h 3.5384 v -3.53841 z m 3.5384,0 h 3.53843 v -2.10098 c -0.43783,-0.33442 -0.85183,-0.70415 -1.36669,-0.92087 -0.667,-0.28129 -1.41274,-0.38925 -2.17174,-0.43701 z m 3.53843,0 v 3.53841 h 2.65387 v -0.48651 a 6.5965724,6.5965718 0 0 0 -0.51664,-2.56976 c -0.0768,-0.18138 -0.23263,-0.30964 -0.32463,-0.48214 z m 0,3.53841 h -3.53843 v 3.53849 h 3.53843 z m -3.53843,3.53849 h -3.5384 V 547.62 h 3.5384 z m 0,3.53847 v 3.53849 h 3.53843 V 547.62 Z m 0,3.53849 h -3.5384 v 3.53847 h 3.5384 z m -3.5384,0 V 547.62 h -3.53847 v 3.53849 z M 429.13391,547.62 v -3.53847 h -3.53849 V 547.62 Z m -3.53849,-3.53847 v -3.53849 h -3.53848 v 3.53849 z m -3.53848,0 h -3.53848 V 547.62 h 3.53848 z m -3.53848,0 v -3.53849 h -3.5384 v 3.53849 z m 10.61545,0 h 3.53847 v -3.53849 h -3.53847 z m -17.69228,-3.53849 h -3.53853 v 3.53849 h 3.53853 z m -3.53853,3.53849 h -3.53843 V 547.62 h 3.53843 z m 0,3.53847 v 3.53849 h 3.53853 V 547.62 Z m 0,3.53849 h -3.53843 v 3.53847 h 3.53843 z m -3.53843,0 V 547.62 h -3.53846 v 3.53849 z M 400.82621,547.62 v -3.53847 h -3.53843 V 547.62 Z m -3.53843,-3.53847 v -3.53849 h -3.53853 v 3.53849 z m -3.53853,-3.53849 v -2.10091 c -0.23259,0.17784 -0.52102,0.28221 -0.72714,0.48921 -0.45818,0.45819 -0.77842,1.03407 -1.08545,1.6117 z m 3.53853,0 h 3.53843 v -3.53841 h -3.53843 v 0.0798 z m 3.53843,0 v 3.53849 h 3.53846 v -3.53849 z m 3.53846,0 h 3.53843 v -3.53841 h -3.53843 z"
       opacity="0.6"
       fill="#5f5f5f"
       id="path227"
       style="stroke-width:0.884619" />
    <path
       d="m 406.47364,563.60322 6.44879,6.4488 h 22.47896 l 6.85582,-8.68507 -21.96944,-20.82391 3.31016,16.09559 z"
       opacity="0.4"

       fill-rule="evenodd"
       id="path229"
       style="fill:url(#c-5);stroke-width:0.884619" />
    <path
       d="m 416.74923,539.54349 c -4.22131,0 -7.07683,2.97492 -7.07683,7.30688 l 1.76923,0.0548 c 0,-3.11382 2.6396,-5.47752 5.3076,-5.47752 2.668,0 5.30771,2.36453 5.30771,5.47752 v 4.25324 h -15.92303 v 12.38457 h 21.23074 v -12.38461 h -3.53846 v -4.25322 c 0,-4.11081 -2.85553,-7.36178 -7.07696,-7.36178 z"
       fill="#d1d8d8"
       id="path231"
       style="stroke-width:0.884619" />
    <path
       d="m 411.44163,533.46621 -3.53853,3.53842 h -10.21727 a 6.5965724,6.5965718 0 0 0 -2.56978,0.51661 c -0.20613,0.0862 -0.35212,0.2618 -0.54585,0.368 h 14.21757 z"
       fill="#ffffff"
       fill-opacity="0.235"
       fill-rule="evenodd"
       id="path233"
       style="stroke-width:0.884619" />
    <path
       d="m 392.54357,567.98377 c 0.17426,0.22656 0.276,0.50784 0.47766,0.70956 a 6.5744567,6.5744561 0 0 0 4.6646,1.92666 h 38.12862 a 6.5744567,6.5744561 0 0 0 4.66285,-1.92666 c 0.2026,-0.20172 0.30433,-0.483 0.4786,-0.70956 z"
       fill-opacity="0.235"
       id="path235"
       style="stroke-width:0.884619" />
  </g>
</svg>
