<?xml version="1.0" encoding="UTF-8" standalone="no"?>
<!-- Created with Inkscape (http://www.inkscape.org/) -->

<svg
   width="64"
   version="1.1"
   height="64"
   id="svg20"
   sodipodi:docname="preferences-other.svg"
   inkscape:version="1.2.1 (9c6d41e410, 2022-07-14)"
   xmlns:inkscape="http://www.inkscape.org/namespaces/inkscape"
   xmlns:sodipodi="http://sodipodi.sourceforge.net/DTD/sodipodi-0.dtd"
   xmlns:xlink="http://www.w3.org/1999/xlink"
   xmlns="http://www.w3.org/2000/svg"
   xmlns:svg="http://www.w3.org/2000/svg">
  <sodipodi:namedview
     id="namedview22"
     pagecolor="#ffffff"
     bordercolor="#666666"
     borderopacity="1.0"
     inkscape:showpageshadow="2"
     inkscape:pageopacity="0.0"
     inkscape:pagecheckerboard="0"
     inkscape:deskcolor="#d1d1d1"
     showgrid="false"
     inkscape:zoom="7.375"
     inkscape:cx="16.067797"
     inkscape:cy="16.067797"
     inkscape:window-width="1920"
     inkscape:window-height="1002"
     inkscape:window-x="0"
     inkscape:window-y="0"
     inkscape:window-maximized="1"
     inkscape:current-layer="layer1" />
  <defs
     id="defs5455">
    <linearGradient
       inkscape:collect="always"
       id="linearGradient4303">
      <stop
         style="stop-color:#c6cdd1"
         id="stop4305" />
      <stop
         offset="1"
         style="stop-color:#e0e5e7"
         id="stop4307" />
    </linearGradient>
    <linearGradient
       inkscape:collect="always"
       id="linearGradient4159">
      <stop
         style="stop-color:#2a2c2f"
         id="stop4161" />
      <stop
         offset="1"
         style="stop-color:#424649"
         id="stop4163" />
    </linearGradient>
    <linearGradient
       inkscape:collect="always"
       id="linearGradient4227">
      <stop
         style="stop-color:#292c2f"
         id="stop4229" />
      <stop
         offset="1"
         style="stop-opacity:0"
         id="stop4231" />
    </linearGradient>
    <linearGradient
       id="c-3"
       gradientUnits="userSpaceOnUse"
       x1="5"
       x2="5"
       y1="20"
       y2="7"
       gradientTransform="matrix(3.4390082,0,0,3.4390082,378.74233,511.78244)">
      <stop
         offset="0"
         stop-color="#999a9c"
         id="stop164" />
      <stop
         offset="1"
         stop-color="#f4f5f5"
         id="stop166" />
    </linearGradient>
    <linearGradient
       inkscape:collect="always"
       xlink:href="#linearGradient4303"
       id="linearGradient4238-3"
       y1="545.79797"
       y2="517.79797"
       x2="0"
       gradientUnits="userSpaceOnUse"
       gradientTransform="matrix(1.6071438,0,0,1.6071438,-227.20439,-307.9068)" />
    <linearGradient
       inkscape:collect="always"
       xlink:href="#linearGradient4159"
       id="linearGradient4370-5"
       y1="30"
       y2="1.999974"
       x2="0"
       gradientUnits="userSpaceOnUse"
       gradientTransform="matrix(1.6071438,0,0,1.6071438,390.85714,521.05473)" />
    <linearGradient
       inkscape:collect="always"
       xlink:href="#linearGradient4227"
       id="linearGradient1273"
       gradientUnits="userSpaceOnUse"
       gradientTransform="matrix(1.6071438,0,0,1.6071438,390.85714,521.05473)"
       x1="9.0000095"
       y1="9"
       x2="23"
       y2="22.999973" />
  </defs>
  <metadata
     id="metadata5458" />
  <g
     inkscape:label="Capa 1"
     inkscape:groupmode="layer"
     id="layer1"
     transform="translate(-384.57143,-515.798)">
    <path
       d="m 387.57143,526.048 c 0,-4.00417 3.24594,-7.25 7.25,-7.25 h 43.5 c 4.00417,0 7.25,3.24583 7.25,7.25 v 43.5 c 0,4.00417 -3.24583,7.25 -7.25,7.25 h -43.5 c -4.00406,0 -7.25,-3.24583 -7.25,-7.25 z"
       id="path736"
       style="fill:#606c86;fill-opacity:1;stroke-width:3.625" />
    <path
       d="m 387.57143,525.59487 c 0,-3.75368 3.24594,-6.79687 7.25,-6.79687 h 43.5 c 4.00418,0 7.25,3.04319 7.25,6.79687 v 40.78125 c 0,3.7537 -3.24583,6.79688 -7.25,6.79688 h -43.5 c -4.00406,0 -7.25,-3.04318 -7.25,-6.79688 z"
       id="path738"
       style="fill:#3b4252;fill-opacity:1;stroke-width:3.625" />
    <rect
       width="44.999989"
       x="394.07141"
       y="524.26898"
       rx="22.499994"
       height="45"
       style="fill:url(#linearGradient4238-3);stroke-width:1.60699"
       id="rect4175-9" />
    <path
       inkscape:connector-curvature="0"
       style="opacity:0.2;fill:url(#linearGradient1273);fill-rule:evenodd;stroke-width:1.60699"
       id="path4175-1"
       d="m 405.96491,545.16201 -0.16026,3.21395 1.60746,1.60728 17.63136,17.6314 c 5.60755,-2.26984 10.0721,-6.72284 12.35478,-12.32324 l -10.04934,-10.20994 -0.8278,-0.5625 -4.48495,0.64305 -0.13223,2.67085 -2.5914,-2.7514 -0.82762,-0.5625 -4.48472,0.64305 -0.13248,2.67085 -2.59128,-2.7514 -0.82771,-0.5625 z" />
    <path
       inkscape:connector-curvature="0"
       style="fill:url(#linearGradient4370-5);stroke-width:1.60699"
       id="rect4176-2"
       d="m 416.57143,543.55468 c -1.78072,0 -3.21428,1.43356 -3.21428,3.21428 0,1.78072 1.43356,3.21428 3.21428,3.21428 1.78072,0 3.21428,-1.43356 3.21428,-3.21428 0,-1.78072 -1.43356,-3.21428 -3.21428,-3.21428 z m -8.03572,0 c -1.78055,0 -3.21429,1.43356 -3.21429,3.21428 0,1.78072 1.43374,3.21428 3.21429,3.21428 1.78071,0 3.21445,-1.43356 3.21445,-3.21428 0,-1.78072 -1.43374,-3.21428 -3.21445,-3.21428 z m 16.07144,0 c -1.78072,0 -3.21445,1.43356 -3.21445,3.21428 0,1.78072 1.43373,3.21428 3.21445,3.21428 1.78057,0 3.21429,-1.43356 3.21429,-3.21428 0,-1.78072 -1.43372,-3.21428 -3.21429,-3.21428 z" />
  </g>
</svg>
