<?xml version="1.0" encoding="UTF-8" standalone="no"?>
<svg
   width="64"
   height="64"
   viewBox="0 0 64 64"
   version="1.1"
   id="svg52"
   sodipodi:docname="yast-release-notes.svg"
   inkscape:version="1.2.1 (9c6d41e410, 2022-07-14)"
   xmlns:inkscape="http://www.inkscape.org/namespaces/inkscape"
   xmlns:sodipodi="http://sodipodi.sourceforge.net/DTD/sodipodi-0.dtd"
   xmlns:xlink="http://www.w3.org/1999/xlink"
   xmlns="http://www.w3.org/2000/svg"
   xmlns:svg="http://www.w3.org/2000/svg">
  <sodipodi:namedview
     id="namedview54"
     pagecolor="#a4a4a4"
     bordercolor="#eeeeee"
     borderopacity="1"
     inkscape:pageshadow="0"
     inkscape:pageopacity="0"
     inkscape:pagecheckerboard="0"
     showgrid="false"
     inkscape:zoom="5.2604167"
     inkscape:cx="36.40396"
     inkscape:cy="10.930693"
     inkscape:window-width="1920"
     inkscape:window-height="1002"
     inkscape:window-x="0"
     inkscape:window-y="0"
     inkscape:window-maximized="1"
     inkscape:current-layer="svg52"
     inkscape:showpageshadow="2"
     inkscape:deskcolor="#c9c9c9" />
  <defs
     id="defs32">
    <linearGradient
       xlink:href="#linearGradient4393"
       id="linearGradient4399"
       x1="424.44101"
       y1="502.85001"
       x2="440.87799"
       y2="529.57599"
       gradientUnits="userSpaceOnUse"
       gradientTransform="matrix(0.69224711,0,0,0.69224711,-215.22899,-357.13539)" />
    <linearGradient
       id="linearGradient4393">
      <stop
         style="stop-color:#000000;stop-opacity:1;"
         offset="0"
         id="stop3" />
      <stop
         style="stop-color:#000000;stop-opacity:0;"
         offset="1"
         id="stop5" />
    </linearGradient>
    <linearGradient
       xlink:href="#linearGradient4274"
       id="linearGradient4217"
       gradientUnits="userSpaceOnUse"
       gradientTransform="matrix(0.69224711,0,0,0.69224711,-199.3073,1639.8968)"
       x1="390.57101"
       y1="498.298"
       x2="442.57101"
       y2="498.298" />
    <linearGradient
       id="linearGradient4274">
      <stop
         offset="0"
         style="stop-color:#ffffff;stop-opacity:1;"
         id="stop9" />
      <stop
         offset="1"
         style="stop-color:#ffffff;stop-opacity:0.48760331"
         id="stop11" />
    </linearGradient>
    <linearGradient
       xlink:href="#linearGradient4227"
       id="linearGradient4225"
       gradientUnits="userSpaceOnUse"
       x1="396.57101"
       y1="498.798"
       x2="426.57101"
       y2="511.798"
       gradientTransform="matrix(0.69224711,0,0,0.69224711,-199.3073,-360.21214)" />
    <linearGradient
       id="linearGradient4227">
      <stop
         offset="0"
         style="stop-color:#f5f5f5;stop-opacity:1"
         id="stop21" />
      <stop
         offset="1"
         style="stop-color:#f9f9f9;stop-opacity:1"
         id="stop23" />
    </linearGradient>
    <style
       id="current-color-scheme"
       type="text/css">      .ColorScheme-Highlight {
        color:#3593e6;
      }
</style>
    <linearGradient
       id="d"
       gradientUnits="userSpaceOnUse"
       x1="4"
       x2="18.999998"
       xlink:href="#c"
       y1="5"
       y2="20"
       gradientTransform="matrix(2.7999616,0,0,2.7999616,1.095156,-2.3992319)" />
    <linearGradient
       id="c">
      <stop
         offset="0"
         stop-color="#292c2f"
         id="stop265" />
      <stop
         offset="1"
         stop-opacity="0"
         id="stop267" />
    </linearGradient>
    <linearGradient
       id="b"
       gradientUnits="userSpaceOnUse"
       x1="13.280776"
       x2="28.280775"
       xlink:href="#c"
       y1="5.088388"
       y2="20.088388"
       gradientTransform="matrix(2.7999616,0,0,2.7999616,1.095156,-2.3992319)" />
    <linearGradient
       id="c-3"
       gradientUnits="userSpaceOnUse"
       x1="5"
       x2="5"
       y1="20"
       y2="7"
       gradientTransform="matrix(3.4390082,0,0,3.4390082,-5.8290972,-4.015561)">
      <stop
         offset="0"
         stop-color="#999a9c"
         id="stop164" />
      <stop
         offset="1"
         stop-color="#f4f5f5"
         id="stop166" />
    </linearGradient>
    <linearGradient
       id="b-3"
       y1="34"
       y2="14"
       x2="0"
       gradientUnits="userSpaceOnUse"
       gradientTransform="matrix(1.6928952,0,0,1.6928952,-16.633171,-7.4066154)">
      <stop
         stop-color="#b40000"
         id="stop157" />
      <stop
         offset="1"
         stop-color="#b40000"
         id="stop159" />
    </linearGradient>
    <linearGradient
       id="c-6"
       y1="523.79999"
       x1="403.57001"
       y2="536.79999"
       x2="416.57001"
       gradientUnits="userSpaceOnUse"
       gradientTransform="matrix(1.6928952,0,0,1.6928952,-659.20537,-853.51564)">
      <stop
         stop-color="#292c2f"
         id="stop162" />
      <stop
         offset="1"
         stop-opacity="0"
         id="stop164-7" />
    </linearGradient>
    <linearGradient
       id="d-5"
       y1="34"
       y2="14"
       gradientUnits="userSpaceOnUse"
       x2="0"
       gradientTransform="matrix(1.6928952,0,0,1.6928952,-16.633171,-7.4066154)">
      <stop
         stop-color="#ec0000"
         id="stop167" />
      <stop
         offset="1"
         stop-color="#ff2020"
         id="stop169" />
    </linearGradient>
    <linearGradient
       id="a"
       gradientTransform="matrix(-1,0,0,1,52,-3)"
       gradientUnits="userSpaceOnUse"
       x1="29"
       x2="26"
       y1="29"
       y2="4">
      <stop
         offset="0"
         stop-color="#cfd2d5"
         id="stop169-3" />
      <stop
         offset="1"
         stop-color="#eff0f1"
         id="stop171" />
    </linearGradient>
    <linearGradient
       id="b-6"
       gradientTransform="matrix(-1,0,0,1,32.001,0)"
       gradientUnits="userSpaceOnUse"
       x1="2"
       x2="30"
       y1="30"
       y2="2">
      <stop
         offset="0"
         stop-color="#eff0f1"
         id="stop179" />
      <stop
         offset="1"
         stop-color="#fcfcfc"
         id="stop181" />
    </linearGradient>
    <linearGradient
       id="c-7"
       gradientTransform="matrix(-1,0,0,1,32.001,0)"
       gradientUnits="userSpaceOnUse"
       x1="2.0009999"
       x2="29.999001"
       y1="29.997999"
       y2="2">
      <stop
         offset="0"
         stop-color="#31363b"
         id="stop189" />
      <stop
         offset="1"
         stop-color="#4f575f"
         id="stop191" />
    </linearGradient>
    <linearGradient
       id="d-53"
       gradientUnits="userSpaceOnUse"
       x1="23.000999"
       x2="15.001"
       y1="20"
       y2="12">
      <stop
         offset="0"
         stop-color="#7ceca4"
         id="stop184" />
      <stop
         offset="1"
         stop-color="#7cbcec"
         id="stop186" />
    </linearGradient>
    <linearGradient
       id="e"
       gradientUnits="userSpaceOnUse"
       x1="30"
       x2="25"
       y1="30"
       y2="2">
      <stop
         offset="0"
         stop-color="#6f7881"
         id="stop164-5" />
      <stop
         offset="1"
         stop-color="#bdc3c7"
         id="stop166-6" />
    </linearGradient>
    <linearGradient
       id="f"
       gradientUnits="userSpaceOnUse"
       x1="25"
       x2="30"
       y1="25"
       y2="30">
      <stop
         offset="0"
         stop-color="#292c2f"
         id="stop174" />
      <stop
         offset="1"
         stop-opacity="0"
         id="stop176" />
    </linearGradient>
  </defs>
  <path
     d="m 2.9999985,10.25 c 0,-4.0041748 3.245938,-7.25 7.2500005,-7.25 h 43.500003 c 4.004173,0 7.249999,3.2458252 7.249999,7.25 v 43.5 c 0,4.004173 -3.245827,7.25 -7.25,7.25 H 10.249999 C 6.2459365,61 2.9999985,57.754173 2.9999985,53.75 Z"
     id="path736"
     style="fill:#606c86;fill-opacity:1;stroke-width:3.625" />
  <path
     d="M 2.9999985,9.796875 C 2.9999985,6.0431877 6.2459365,3 10.249999,3 h 43.500003 c 4.004173,0 7.249999,3.0431877 7.249999,6.796875 v 40.781249 c 0,3.753693 -3.245827,6.796876 -7.25,6.796876 H 10.249999 c -4.0040625,0 -7.2500005,-3.043183 -7.2500005,-6.796876 z"
     id="path738"
     style="fill:#3b4252;fill-opacity:1;stroke-width:3.625" />
  <g
     fill-rule="evenodd"
     id="g208"
     transform="matrix(1.6071429,0,0,1.6071429,6.2860025,6.2857136)">
    <path
       d="M 26,4 V 6 H 25 V 27.5 A 2.5,2.5 0 0 0 27.5,30 2.5,2.5 0 0 0 30,27.5 V 6 A 2,2 0 0 0 28,4 Z"

       id="path194"
       style="fill:url(#a)" />
    <path
       d="M 26.001,2 V 29 A 1,1 0 0 0 26.708,29.955 6,6 0 0 1 26.001,30 h -22 c -1.105,0 -2.042,-0.896 -2,-2 V 2 Z"

       id="path196"
       style="fill:url(#b-6)" />
    <path
       d="m 4.002,4 v 5 h 5 V 4 Z M 5,5 H 6 V 6 H 7 V 5 H 8 V 6 H 7 V 7 H 8 V 8 H 7 V 7 H 6 V 8 H 5 Z m 6,0 V 6 H 24 V 5 Z m 0,3 V 9 H 24 V 8 Z m -6.998,3 v 1 h 8 v -1 z m 10,0 v 10 h 10 V 11 Z m -10,3 v 1 h 8 v -1 z m 0,3 v 1 h 8 v -1 z m 0,3 v 1 h 8 v -1 z m 0,4 v 1 h 20 v -1 z m 0,3 v 1 h 20 v -1 z"

       id="path198"
       style="fill:url(#c-7)" />
    <path
       d="m 15.001,12 h 8 v 8 h -8 z"

       id="path200"
       style="fill:url(#d-53)" />
    <path
       d="m 2.002,2 v 26 c -0.029,0.742 0.39,1.38 1,1.727 v 0.003 a 2,2 0 0 0 1,0.27 h 1 a 2,2 0 0 1 -2,-2 V 3 H 25 V 2 H 3.002 Z"
       fill="#bdc3c7"
       id="path202" />
    <path
       d="m 25,2 v 25.5 a 2.5,2.5 0 1 0 5,0 v -22 a 1.5,1.5 0 0 0 -3,0 v 22 a 0.5,0.5 0 0 0 1,0 v -22 a 0.5,0.5 0 0 1 1,0 v 22 a 1.5,1.5 0 0 1 -3,0 V 2 Z"

       id="path204"
       style="fill:url(#e)" />
    <path
       d="m 26,2 v 26 a 2,2 0 0 0 2,2 2,2 0 0 0 2,-2 V 6 Z"

       opacity="0.2"
       id="path206"
       style="fill:url(#f)" />
  </g>
</svg>
