<?xml version="1.0" encoding="UTF-8" standalone="no"?>
<svg
   width="64"
   height="64"
   viewBox="0 0 64 64"
   version="1.1"
   id="svg52"
   sodipodi:docname="preferences-devices-drive-optical-check.svg"
   inkscape:version="1.2.1 (9c6d41e410, 2022-07-14)"
   xmlns:inkscape="http://www.inkscape.org/namespaces/inkscape"
   xmlns:sodipodi="http://sodipodi.sourceforge.net/DTD/sodipodi-0.dtd"
   xmlns:xlink="http://www.w3.org/1999/xlink"
   xmlns="http://www.w3.org/2000/svg"
   xmlns:svg="http://www.w3.org/2000/svg">
  <sodipodi:namedview
     id="namedview54"
     pagecolor="#a4a4a4"
     bordercolor="#eeeeee"
     borderopacity="1"
     inkscape:pageshadow="0"
     inkscape:pageopacity="0"
     inkscape:pagecheckerboard="0"
     showgrid="false"
     inkscape:zoom="5.2604167"
     inkscape:cx="36.40396"
     inkscape:cy="10.930693"
     inkscape:window-width="1920"
     inkscape:window-height="1002"
     inkscape:window-x="0"
     inkscape:window-y="0"
     inkscape:window-maximized="1"
     inkscape:current-layer="svg52"
     inkscape:showpageshadow="2"
     inkscape:deskcolor="#c9c9c9"
     showguides="false" />
  <defs
     id="defs32">
    <linearGradient
       xlink:href="#linearGradient4393"
       id="linearGradient4399"
       x1="424.44101"
       y1="502.85001"
       x2="440.87799"
       y2="529.57599"
       gradientUnits="userSpaceOnUse"
       gradientTransform="matrix(0.69224711,0,0,0.69224711,-215.22899,-357.13539)" />
    <linearGradient
       id="linearGradient4393">
      <stop
         style="stop-color:#000000;stop-opacity:1;"
         offset="0"
         id="stop3" />
      <stop
         style="stop-color:#000000;stop-opacity:0;"
         offset="1"
         id="stop5" />
    </linearGradient>
    <linearGradient
       xlink:href="#linearGradient4274"
       id="linearGradient4217"
       gradientUnits="userSpaceOnUse"
       gradientTransform="matrix(0.69224711,0,0,0.69224711,-199.3073,1639.8968)"
       x1="390.57101"
       y1="498.298"
       x2="442.57101"
       y2="498.298" />
    <linearGradient
       id="linearGradient4274">
      <stop
         offset="0"
         style="stop-color:#ffffff;stop-opacity:1;"
         id="stop9" />
      <stop
         offset="1"
         style="stop-color:#ffffff;stop-opacity:0.48760331"
         id="stop11" />
    </linearGradient>
    <linearGradient
       xlink:href="#linearGradient4227"
       id="linearGradient4225"
       gradientUnits="userSpaceOnUse"
       x1="396.57101"
       y1="498.798"
       x2="426.57101"
       y2="511.798"
       gradientTransform="matrix(0.69224711,0,0,0.69224711,-199.3073,-360.21214)" />
    <linearGradient
       id="linearGradient4227">
      <stop
         offset="0"
         style="stop-color:#f5f5f5;stop-opacity:1"
         id="stop21" />
      <stop
         offset="1"
         style="stop-color:#f9f9f9;stop-opacity:1"
         id="stop23" />
    </linearGradient>
    <style
       id="current-color-scheme"
       type="text/css">      .ColorScheme-Highlight {
        color:#3593e6;
      }
</style>
    <linearGradient
       id="d"
       gradientUnits="userSpaceOnUse"
       x1="4"
       x2="18.999998"
       xlink:href="#c"
       y1="5"
       y2="20"
       gradientTransform="matrix(2.7999616,0,0,2.7999616,1.095156,-2.3992319)" />
    <linearGradient
       id="c">
      <stop
         offset="0"
         stop-color="#292c2f"
         id="stop265" />
      <stop
         offset="1"
         stop-opacity="0"
         id="stop267" />
    </linearGradient>
    <linearGradient
       id="b"
       gradientUnits="userSpaceOnUse"
       x1="13.280776"
       x2="28.280775"
       xlink:href="#c"
       y1="5.088388"
       y2="20.088388"
       gradientTransform="matrix(2.7999616,0,0,2.7999616,1.095156,-2.3992319)" />
    <linearGradient
       id="c-3"
       gradientUnits="userSpaceOnUse"
       x1="5"
       x2="5"
       y1="20"
       y2="7"
       gradientTransform="matrix(3.4390082,0,0,3.4390082,-5.8290972,-4.015561)">
      <stop
         offset="0"
         stop-color="#999a9c"
         id="stop164" />
      <stop
         offset="1"
         stop-color="#f4f5f5"
         id="stop166" />
    </linearGradient>
    <linearGradient
       id="b-3"
       y1="34"
       y2="14"
       x2="0"
       gradientUnits="userSpaceOnUse"
       gradientTransform="matrix(1.6928952,0,0,1.6928952,-16.633171,-7.4066154)">
      <stop
         stop-color="#b40000"
         id="stop157" />
      <stop
         offset="1"
         stop-color="#b40000"
         id="stop159" />
    </linearGradient>
    <linearGradient
       id="c-6"
       y1="523.79999"
       x1="403.57001"
       y2="536.79999"
       x2="416.57001"
       gradientUnits="userSpaceOnUse"
       gradientTransform="matrix(1.6928952,0,0,1.6928952,-659.20537,-853.51564)">
      <stop
         stop-color="#292c2f"
         id="stop162" />
      <stop
         offset="1"
         stop-opacity="0"
         id="stop164-7" />
    </linearGradient>
    <linearGradient
       id="d-5"
       y1="34"
       y2="14"
       gradientUnits="userSpaceOnUse"
       x2="0"
       gradientTransform="matrix(1.6928952,0,0,1.6928952,-16.633171,-7.4066154)">
      <stop
         stop-color="#ec0000"
         id="stop167" />
      <stop
         offset="1"
         stop-color="#ff2020"
         id="stop169" />
    </linearGradient>
    <linearGradient
       id="c-36"
       y1="534.79999"
       y2="510.79999"
       gradientUnits="userSpaceOnUse"
       x2="0"
       gradientTransform="matrix(1.4548677,0,0,1.4548677,-561.68779,-727.40436)">
      <stop
         stop-color="#8cbdf8"
         id="stop2517" />
      <stop
         offset="1"
         stop-color="#d5e8ff"
         id="stop2519" />
    </linearGradient>
    <linearGradient
       id="a"
       gradientUnits="userSpaceOnUse"
       x1="24.063999"
       x2="24.063999"
       y1="17.504"
       y2="-0.49599999"
       gradientTransform="matrix(2.25,0,0,2.25,7.000005,5.938)">
      <stop
         offset="0"
         stop-color="#bdc3c7"
         id="stop164-3" />
      <stop
         offset="1"
         stop-color="#dadfe1"
         id="stop166-6" />
    </linearGradient>
    <linearGradient
       id="b-7"
       gradientUnits="userSpaceOnUse"
       x1="29.063999"
       x2="29.063999"
       y1="12.504"
       y2="4.5040002"
       gradientTransform="matrix(2.25,0,0,2.25,7.000005,5.938)">
      <stop
         offset="0"
         stop-color="#566472"
         id="stop169-5" />
      <stop
         offset="1"
         stop-color="#6c7a89"
         id="stop171" />
    </linearGradient>
    <linearGradient
       id="c-35"
       gradientUnits="userSpaceOnUse"
       x1="8"
       x2="16.714844"
       xlink:href="#c"
       y1="8"
       y2="16.714844"
       gradientTransform="matrix(2.25,0,0,2.25,7.000005,5.938)" />
    <linearGradient
       id="e"
       gradientUnits="userSpaceOnUse"
       x1="16.086"
       x2="16.086"
       y1="21.086"
       y2="11.086">
      <stop
         offset="0"
         stop-color="#27ae60"
         id="stop180" />
      <stop
         offset="1"
         stop-color="#2ecc71"
         id="stop182" />
    </linearGradient>
    <linearGradient
       id="f"
       gradientUnits="userSpaceOnUse"
       x1="17.086"
       x2="19.086"
       xlink:href="#c"
       y1="17.086"
       y2="19.086" />
  </defs>
  <path
     d="m 2.9999985,10.25 c 0,-4.0041748 3.245938,-7.25 7.2500005,-7.25 h 43.500003 c 4.004173,0 7.249999,3.2458252 7.249999,7.25 v 43.5 c 0,4.004173 -3.245827,7.25 -7.25,7.25 H 10.249999 C 6.2459365,61 2.9999985,57.754173 2.9999985,53.75 Z"
     id="path736"
     style="fill:#606c86;fill-opacity:1;stroke-width:3.625" />
  <path
     d="M 2.9999985,9.796875 C 2.9999985,6.0431877 6.2459365,3 10.249999,3 h 43.500003 c 4.004173,0 7.249999,3.0431877 7.249999,6.796875 v 40.781249 c 0,3.753693 -3.245827,6.796876 -7.25,6.796876 H 10.249999 c -4.0040625,0 -7.2500005,-3.043183 -7.2500005,-6.796876 z"
     id="path738"
     style="fill:#3b4252;fill-opacity:1;stroke-width:3.625" />
  <path
     d="m 31.750003,10.438 a 20.25,20.25 0 0 0 -20.249994,20.25 20.25,20.25 0 0 0 20.249994,20.25 20.25,20.25 0 0 0 20.25,-20.25 20.25,20.25 0 0 0 -20.25,-20.25 z m 0,15.75 a 4.5,4.5 0 0 1 4.5,4.5 4.5,4.5 0 0 1 -4.5,4.5 4.5,4.5 0 0 1 -4.5,-4.5 4.5,4.5 0 0 1 4.5,-4.5 z"
     fill="url(#a)"
     stroke-width="4.5"
     id="path186"
     style="fill:url(#a)" />
  <path
     d="M 51.942883,29.246594 A 20.25,20.25 0 0 1 31.750003,48.688 20.25,20.25 0 0 1 11.57911,29.563 20.25,20.25 0 0 0 11.5,30.688 a 20.25,20.25 0 0 0 20.249993,20.25 20.25,20.25 0 0 0 20.25,-20.25 20.25,20.25 0 0 0 -0.0572,-1.441406 z"
     fill="#9fa5a8"
     stroke-width="4.5"
     id="path188" />
  <path
     d="m 31.750003,21.688 a 9,9 0 0 0 -9,9 9,9 0 0 0 9,9 9,9 0 0 0 9,-9 9,9 0 0 0 -9,-9 z m 0,2.25 a 6.75,6.75 0 0 1 6.75,6.75 6.75,6.75 0 0 1 -6.75,6.75 6.75,6.75 0 0 1 -6.75,-6.75 6.75,6.75 0 0 1 6.75,-6.75 z m 0,2.25 a 4.5,4.5 0 0 0 -4.5,4.5 4.5,4.5 0 0 0 0.1449,1.133788 4.5,4.5 0 0 1 4.35499,-3.383788 4.5,4.5 0 0 1 4.35499,3.366211 4.5,4.5 0 0 0 0.1449,-1.116211 4.5,4.5 0 0 0 -4.5,-4.5 z"
     fill="url(#b)"
     stroke-width="6.00001"
     id="path190"
     style="fill:url(#b-7)" />
  <path
     d="m 38.113303,24.324719 c 3.5147,3.514718 3.5147,9.211844 0,12.726562 -3.51473,3.514719 -9.21186,3.514719 -12.72657,0 L 43.773443,55.438 h 12.72656 V 42.711438 Z"
     fill="url(#c)"
     opacity="0.2"
     id="path192"
     style="fill:url(#c-35);stroke-width:2.25" />
  <g
     transform="matrix(2.25,0,0,2.25,6.806509,5.7445)"
     id="g200">
    <path
       d="m 16.086,11.086 c -2.77,0 -5,2.23 -5,5 0,2.77 2.23,5 5,5 2.77,0 5,-2.23 5,-5 0,-2.77 -2.23,-5 -5,-5 z"
       fill="url(#e)"
       id="path194"
       style="fill:url(#e)" />
    <path
       d="m 18.586,13.586 0.5,0.5 0.5,0.5 -4.5,4.5 -2.5,-2.5 0.5,-0.5 0.5,-0.5 1.5,1.5 z"
       fill="#fcfcfc"
       id="path196" />
    <path
       d="m 19.586,14.586 -4.5,4.5 L 17,21 a 4.987,4.987 0 0 0 4.086,-4.914 z"
       fill="url(#f)"
       opacity="0.2"
       id="path198"
       style="fill:url(#f)" />
  </g>
</svg>
