<?xml version="1.0" encoding="UTF-8" standalone="no"?>
<!-- Created with Inkscape (http://www.inkscape.org/) -->

<svg
   width="64"
   version="1.1"
   height="64"
   id="svg3307"
   sodipodi:docname="yast-sw_source.svg"
   inkscape:version="1.2.1 (9c6d41e410, 2022-07-14)"
   xmlns:inkscape="http://www.inkscape.org/namespaces/inkscape"
   xmlns:sodipodi="http://sodipodi.sourceforge.net/DTD/sodipodi-0.dtd"
   xmlns:xlink="http://www.w3.org/1999/xlink"
   xmlns="http://www.w3.org/2000/svg"
   xmlns:svg="http://www.w3.org/2000/svg">
  <sodipodi:namedview
     id="namedview3309"
     pagecolor="#ffffff"
     bordercolor="#666666"
     borderopacity="1.0"
     inkscape:showpageshadow="2"
     inkscape:pageopacity="0.0"
     inkscape:pagecheckerboard="0"
     inkscape:deskcolor="#d1d1d1"
     showgrid="false"
     inkscape:zoom="5.2149125"
     inkscape:cx="47.460048"
     inkscape:cy="18.121109"
     inkscape:window-width="1920"
     inkscape:window-height="1002"
     inkscape:window-x="0"
     inkscape:window-y="0"
     inkscape:window-maximized="1"
     inkscape:current-layer="layer1" />
  <defs
     id="defs5455">
    <linearGradient
       inkscape:collect="always"
       id="linearGradient1037">
      <stop
         style="stop-color:#2e3440;stop-opacity:1;"
         offset="0"
         id="stop1033" />
      <stop
         style="stop-color:#4c566a;stop-opacity:1;"
         offset="1"
         id="stop1035" />
    </linearGradient>
    <linearGradient
       id="linearGradient1641"
       gradientUnits="userSpaceOnUse"
       x2="0"
       y1="30"
       y2="8">
      <stop
         offset="0"
         stop-color="#cea476"
         id="stop1637"
         style="stop-color:#4c566a;stop-opacity:1;" />
      <stop
         offset="1"
         stop-color="#dab58b"
         id="stop1639"
         style="stop-color:#2e3440;stop-opacity:1;" />
    </linearGradient>
    <linearGradient
       inkscape:collect="always"
       xlink:href="#linearGradient22063-0"
       id="linearGradient22065-6"
       x1="-22"
       y1="5.1111121"
       x2="-6.4444442"
       y2="-9.1111107"
       gradientUnits="userSpaceOnUse"
       gradientTransform="matrix(3.6250002,0,0,3.6250002,467.32143,555.048)" />
    <linearGradient
       inkscape:collect="always"
       id="linearGradient22063-0">
      <stop
         style="stop-color:#5faac0;stop-opacity:1;"
         offset="0"
         id="stop22059-6" />
      <stop
         style="stop-color:#8fbcbb;stop-opacity:1;"
         offset="1"
         id="stop22061-2" />
    </linearGradient>
    <linearGradient
       id="b"
       gradientTransform="matrix(1.0062171,0,0,0.92307428,-418.26514,-495.31942)"
       gradientUnits="userSpaceOnUse"
       x1="388.423"
       x2="388.423"
       y1="557.79797"
       y2="505.798">
      <stop
         offset="0"
         stop-color="#7f8c8d"
         id="stop13" />
      <stop
         offset="1"
         stop-color="#afb0b3"
         id="stop15" />
    </linearGradient>
    <linearGradient
       id="d"
       gradientTransform="matrix(0.89441142,0,0,0.92307428,-28.621713,-33.965714)"
       gradientUnits="userSpaceOnUse"
       x1="1.3329999"
       x2="1.3329999"
       y1="48.714001"
       y2="9.7139997">
      <stop
         offset="0"
         stop-color="#eef1f2"
         id="stop19" />
      <stop
         offset="1"
         stop-color="#f9fafb"
         id="stop21" />
    </linearGradient>
    <linearGradient
       id="f"
       gradientUnits="userSpaceOnUse"
       x1="-11.306"
       x2="-11.306"
       y1="23.620001"
       y2="7.6199999"
       gradientTransform="matrix(1.7142857,0,0,1.7142857,-27.42857,-31.857142)">
      <stop
         offset="0"
         stop-color="#3e3e3e"
         id="stop2" />
      <stop
         offset="1"
         stop-color="#5c5c5c"
         id="stop4" />
    </linearGradient>
    <linearGradient
       id="a"
       gradientTransform="matrix(0.57142824,0,0,0.57142824,-222.46924,732.04922)"
       gradientUnits="userSpaceOnUse"
       x2="0"
       xlink:href="#b-3"
       y1="543.79797"
       y2="503.798" />
    <linearGradient
       id="b-3">
      <stop
         offset="0"
         stop-color="#2f3943"
         id="stop2771" />
      <stop
         offset="1"
         stop-color="#808c9b"
         id="stop2773" />
    </linearGradient>
    <linearGradient
       id="c"
       gradientTransform="matrix(0.63636312,0,0,0.63636312,-248.99977,698.03648)"
       gradientUnits="userSpaceOnUse"
       x2="0"
       xlink:href="#b-3"
       y1="499.798"
       y2="547.79797" />
    <linearGradient
       id="e"
       gradientUnits="userSpaceOnUse"
       x1="8"
       x2="20"
       y1="6"
       y2="20">
      <stop
         offset="0"
         id="stop2782" />
      <stop
         offset="1"
         stop-opacity="0"
         id="stop2784" />
    </linearGradient>
    <linearGradient
       id="d-6"
       gradientUnits="userSpaceOnUse"
       x1="11"
       x2="11"
       y1="17"
       y2="6">
      <stop
         offset="0"
         stop-color="#ffd42a"
         id="stop2777" />
      <stop
         offset="1"
         stop-color="#ffdf62"
         id="stop2779" />
    </linearGradient>
    <filter
       id="filter6437"
       x="-0.10795185"
       y="-0.10804809"
       width="1.2159037"
       height="1.2160962"
       color-interpolation-filters="sRGB">
      <feGaussianBlur
         stdDeviation="0.41036932"
         id="feGaussianBlur438" />
    </filter>
    <linearGradient
       id="linearGradient6207"
       x1="7.6350002"
       x2="8.7609997"
       y1="5.7037001"
       y2="14.001"
       gradientUnits="userSpaceOnUse"
       gradientTransform="matrix(4.3479357,0,0,4.3479357,436.80937,445.11776)">
      <stop
         stop-color="#2e3440"
         offset="0"
         id="stop433" />
      <stop
         stop-color="#4c566a"
         offset="1"
         id="stop435" />
    </linearGradient>
    <linearGradient
       id="c-3"
       gradientUnits="userSpaceOnUse"
       x2="0"
       xlink:href="#linearGradient1641"
       y1="8"
       y2="2"
       gradientTransform="matrix(1.5714286,0,0,1.5714286,391.42858,522.21129)" />
    <linearGradient
       id="b-6"
       gradientUnits="userSpaceOnUse"
       x2="0"
       y1="30"
       y2="8">
      <stop
         offset="0"
         stop-color="#cea476"
         id="stop164" />
      <stop
         offset="1"
         stop-color="#dab58b"
         id="stop166" />
    </linearGradient>
    <linearGradient
       id="d-7"
       gradientUnits="userSpaceOnUse"
       x2="0"
       xlink:href="#linearGradient1641"
       y1="30"
       y2="8"
       gradientTransform="matrix(1.5714286,0,0,1.5714286,391.42858,522.21129)" />
    <linearGradient
       id="linearGradient331"
       gradientUnits="userSpaceOnUse"
       x2="0"
       y1="30"
       y2="8">
      <stop
         offset="0"
         stop-color="#cea476"
         id="stop327" />
      <stop
         offset="1"
         stop-color="#dab58b"
         id="stop329" />
    </linearGradient>
    <linearGradient
       id="e-5"
       gradientUnits="userSpaceOnUse"
       x1="16"
       x2="16"
       xlink:href="#linearGradient22063-0"
       y1="8"
       y2="2" />
    <linearGradient
       id="a-3"
       gradientTransform="matrix(0.66667,0,0,0.66667,-256.38,-333.867)"
       gradientUnits="userSpaceOnUse"
       x2="0"
       y1="512.79999"
       y2="503.79999">
      <stop
         offset="0"
         stop-color="#ebc69a"
         id="stop172" />
      <stop
         offset="1"
         stop-color="#f4e0c8"
         stop-opacity="0"
         id="stop174" />
    </linearGradient>
    <linearGradient
       id="f-5"
       gradientUnits="userSpaceOnUse"
       x1="16"
       x2="16.000002"
       xlink:href="#linearGradient22063-0"
       y1="11"
       y2="8.000001" />
    <linearGradient
       id="linearGradient342"
       gradientTransform="matrix(0.66667,0,0,0.66667,-256.38,-333.867)"
       gradientUnits="userSpaceOnUse"
       x2="0"
       y1="512.79999"
       y2="503.79999">
      <stop
         offset="0"
         stop-color="#ebc69a"
         id="stop338" />
      <stop
         offset="1"
         stop-color="#f4e0c8"
         stop-opacity="0"
         id="stop340" />
    </linearGradient>
    <linearGradient
       inkscape:collect="always"
       xlink:href="#linearGradient1037"
       id="linearGradient1039"
       x1="416.57144"
       y1="569.35413"
       x2="413.42856"
       y2="534.78271"
       gradientUnits="userSpaceOnUse" />
    <linearGradient
       inkscape:collect="always"
       xlink:href="#linearGradient1037"
       id="linearGradient1637"
       x1="413.42856"
       y1="534.78271"
       x2="413.42856"
       y2="525.35413"
       gradientUnits="userSpaceOnUse" />
    <linearGradient
       inkscape:collect="always"
       xlink:href="#linearGradient22063-0"
       id="linearGradient1646"
       x1="12.904835"
       y1="8.000001"
       x2="12.588023"
       y2="2.0000017"
       gradientUnits="userSpaceOnUse" />
    <linearGradient
       inkscape:collect="always"
       xlink:href="#linearGradient22063-0"
       id="linearGradient1654"
       x1="16"
       y1="11"
       x2="16.000002"
       y2="8.000001"
       gradientUnits="userSpaceOnUse" />
    <linearGradient
       id="g"
       gradientUnits="userSpaceOnUse"
       x1="34"
       x2="48"
       y1="16"
       y2="30"
       gradientTransform="matrix(1.7428574,0,0,1.7428574,386.08571,515.12533)">
      <stop
         offset="0"
         stop-color="#292c2f"
         id="stop196" />
      <stop
         offset="1"
         stop-opacity="0"
         id="stop198" />
    </linearGradient>
    <linearGradient
       id="h"
       gradientUnits="userSpaceOnUse"
       x1="30"
       x2="30"
       xlink:href="#a-36"
       y1="30"
       y2="8"
       gradientTransform="matrix(1.7428574,0,0,1.7428574,386.08571,515.12533)" />
    <linearGradient
       id="a-36"
       gradientUnits="userSpaceOnUse"
       x2="0"
       y1="30"
       y2="8">
      <stop
         offset="0"
         stop-color="#cfd2d5"
         id="stop222" />
      <stop
         offset="1"
         stop-color="#eff0f1"
         id="stop224" />
    </linearGradient>
    <linearGradient
       id="m"
       x1="18"
       x2="30"
       y1="18"
       y2="30"
       gradientUnits="userSpaceOnUse"
       gradientTransform="matrix(1.9142778,0,0,1.9142778,382.5431,511.58296)">
      <stop
         stop-color="#292c2f"
         offset="0"
         id="stop205" />
      <stop
         stop-opacity="0"
         offset="1"
         id="stop207" />
    </linearGradient>
    <linearGradient
       id="l"
       x1="22"
       x2="22"
       y1="30"
       y2="8"
       gradientTransform="matrix(0,-1.9142778,-1.9142778,0,466.7713,595.81119)"
       gradientUnits="userSpaceOnUse"
       xlink:href="#k" />
    <linearGradient
       id="k"
       x2="0"
       y1="30"
       y2="8"
       gradientUnits="userSpaceOnUse">
      <stop
         stop-color="#cfd2d5"
         offset="0"
         id="stop231" />
      <stop
         stop-color="#eff0f1"
         offset="1"
         id="stop233" />
    </linearGradient>
    <linearGradient
       id="g-3"
       gradientUnits="userSpaceOnUse"
       x1="18"
       x2="30"
       y1="18"
       y2="30">
      <stop
         offset="0"
         stop-color="#292c2f"
         id="stop294" />
      <stop
         offset="1"
         stop-opacity="0"
         id="stop296" />
    </linearGradient>
    <linearGradient
       id="h-6"
       gradientUnits="userSpaceOnUse"
       x1="22"
       x2="22"
       xlink:href="#b-7"
       y1="30"
       y2="8" />
    <linearGradient
       id="b-7"
       gradientUnits="userSpaceOnUse"
       x2="0"
       y1="30"
       y2="8">
      <stop
         offset="0"
         stop-color="#cfd2d5"
         id="stop320" />
      <stop
         offset="1"
         stop-color="#eff0f1"
         id="stop322" />
    </linearGradient>
  </defs>
  <metadata
     id="metadata5458" />
  <g
     inkscape:label="Capa 1"
     inkscape:groupmode="layer"
     id="layer1"
     transform="translate(-384.57143,-515.798)">
    <path
       d="m 387.57143,526.048 c 0,-4.00417 3.24594,-7.25 7.25,-7.25 h 43.5 c 4.00418,0 7.25,3.24583 7.25,7.25 v 43.5 c 0,4.00417 -3.24582,7.25 -7.25,7.25 h -43.5 c -4.00406,0 -7.25,-3.24583 -7.25,-7.25 z"
       id="path736-7"
       style="fill:#606c86;fill-opacity:1;stroke-width:3.625" />
    <path
       d="m 387.57143,525.59488 c 0,-3.75369 3.24594,-6.79688 7.25,-6.79688 h 43.5 c 4.00418,0 7.25,3.04319 7.25,6.79688 v 40.78124 c 0,3.7537 -3.24582,6.79688 -7.25,6.79688 h -43.5 c -4.00406,0 -7.25,-3.04318 -7.25,-6.79688 z"
       id="path738-9"
       style="fill:url(#linearGradient22065-6);fill-opacity:1;stroke-width:3.625" />
    <path
       d="m 400.85714,525.35413 -6.28571,9.42857 h 44 l -6.28571,-9.42857 h -29.85715 z"
       fill-rule="evenodd"
       id="path177"
       style="fill:url(#linearGradient1637);stroke-width:1.57143;fill-opacity:1.0" />
    <path
       d="m 394.57143,534.7827 h 44 v 34.57143 h -44 z"
       id="path179"
       style="fill:url(#linearGradient1039);stroke-width:1.57143;fill-opacity:1" />
    <path
       d="m 396.14286,559.92556 v 7.85714 H 404 v -7.85714 z m 1.57143,1.57143 h 1.57143 v 1.57143 h 1.57142 v -1.57143 h 1.57143 v 3.14285 h -1.57143 v 1.57143 h -1.57142 v -1.57143 h -1.57143 z"
       id="path181"
       style="stroke-width:1.57143;fill:#5faac0;fill-opacity:1" />
    <g
       stroke-opacity="0.55"
       stroke-width="1.867"
       id="g189"
       transform="matrix(1.5714286,0,0,1.5714286,391.42857,522.21127)"
       style="fill:#000000;fill-opacity:1">
      <path
         d="m 14,2 v 9 l 1,-1 1,1 1,-1 c 0,0 1,1 1,0.972 V 2 Z"
         id="path183"
         style="fill:#000000;fill-opacity:1" />
      <path
         d="m 14,2 h 4 v 6 h -4 z"
         id="path185"
         style="fill:url(#linearGradient1646);fill-opacity:1" />
      <path
         d="m 14,8 v 3 l 1,-1 1,1 1,-1 c 0,0 1,1 1,0.973 V 8 Z"
         id="path187"
         style="fill:url(#linearGradient1654);fill-opacity:1" />
    </g>
    <path
       d="m 394.57143,567.7827 h 44 v 1.57143 h -44 z"
       opacity="0.2"
       id="path191"
       style="stroke-width:1.57143" />
    <g
       id="g487"
       transform="matrix(1.9642858,0,0,1.9642858,382,510.42556)">
      <path
         d="M 26.243,17.757 30,21.515 V 30 H 21.515 L 17.757,26.243 17,25 l -1,-3 1,-3 2,-2 3,-1 3,1 z"
         fill="url(#g)"
         opacity="0.2"
         id="path343"
         style="fill:url(#g-3)" />
      <path
         d="m 22,16 a 6,6 0 1 0 0,12 6,6 0 0 0 0,-12 z m 0,1 c 0.173,0 0.332,0.014 0.5,0.031 0.04,0.004 0.085,-0.005 0.125,0 0.053,0.007 0.104,0.023 0.156,0.032 0.144,0.022 0.267,0.059 0.407,0.093 0.256,0.064 0.51,0.149 0.75,0.25 0.131,0.056 0.249,0.121 0.375,0.188 v 0.031 c 0.028,0.013 0.044,0.067 0.093,0.094 0.018,0.01 0.015,0.022 0.032,0.031 0.028,0.016 0.068,0.034 0.062,0.063 -0.008,0.04 -0.066,0.031 -0.094,0.062 0.004,0.058 -0.047,0.055 -0.062,0.094 0.009,0.025 0.058,0.032 0.062,0.062 -0.005,0.032 -0.074,0.03 -0.062,0.063 0.054,0.042 0.105,0.01 0.156,0 0.112,-0.014 0.212,-0.006 0.281,-0.063 -0.009,-0.053 0.1,-0.045 0.094,-0.093 0.029,0.02 0.065,0.04 0.094,0.062 -0.011,0.01 -0.02,0.026 -0.032,0.031 -0.02,0.01 -0.043,0.02 -0.062,0.032 l -0.094,0.062 c -0.023,0.016 -0.07,0.094 -0.093,0.094 -0.03,0 -0.073,-0.038 -0.094,-0.032 -0.03,0.01 -0.029,0.051 -0.063,0.063 -0.066,0.024 -0.196,-0.036 -0.218,0.063 0.028,0.057 0.137,0.03 0.187,0.062 a 0.31,0.31 0 0 1 0.094,0.125 0.59,0.59 0 0 1 0,0.188 c -0.031,0.08 -0.127,0.063 -0.219,0.062 h -0.063 c -0.154,-0.01 -0.305,-0.08 -0.375,0.031 0.005,0.085 0.02,0.145 0,0.219 -0.013,0.054 -0.096,0.11 -0.093,0.156 0,0.024 0.056,0.06 0.062,0.094 0.004,0.018 -0.008,0.045 0,0.063 0.026,0.049 0.08,-0.01 0.125,0 0.044,0.01 0.094,0.075 0.094,0.125 a 0.26,0.26 0 0 1 -0.031,0.125 c -0.044,0.066 -0.125,0.057 -0.188,0.093 -0.052,0.03 -0.062,0.105 -0.093,0.157 -0.033,0.056 -0.076,0.076 -0.063,0.156 a 0.365,0.365 0 0 1 -0.188,0.187 c -0.027,0.012 -0.068,0.014 -0.093,0.032 -0.02,0.014 -0.035,0.061 -0.063,0.093 -0.035,0.04 -0.074,0.064 -0.093,0.094 -0.015,0.023 -0.017,0.062 -0.032,0.094 -0.022,0.042 -0.066,0.051 -0.093,0.093 -0.013,0.02 -0.018,0.068 -0.032,0.094 -0.032,0.058 -0.068,0.106 -0.062,0.157 0.005,0.048 0.06,0.05 0.062,0.093 0.003,0.024 -0.032,0.036 -0.031,0.063 0.001,0.038 0.028,0.063 0.031,0.093 0.007,0.074 -0.048,0.106 -0.062,0.157 -0.007,0.024 0.006,0.042 0,0.062 -0.012,0.037 -0.062,0.081 -0.063,0.125 0,0.031 0.06,0.05 0.063,0.094 0.002,0.029 -0.037,0.066 -0.032,0.094 0.011,0.054 0.115,0.114 0.157,0.156 0.057,0.057 0.131,0.096 0.156,0.156 0.021,0.051 0.024,0.15 0.063,0.188 0.028,0.028 0.088,0.032 0.125,0.062 0.034,0.027 0.056,0.033 0.093,0.063 0.061,0.048 0.153,0.163 0.25,0.156 0.051,-0.01 0.1,-0.052 0.157,-0.063 0.059,-0.01 0.127,-0.036 0.187,-0.03 0.046,0.01 0.108,0.033 0.156,0.03 0.05,-0.01 0.1,-0.006 0.157,-0.03 0.099,-0.044 0.262,-0.115 0.406,-0.095 0.11,0.016 0.11,0.139 0.187,0.188 0.088,0.01 0.149,-0.017 0.219,0 0.053,0.013 0.12,0.083 0.125,0.125 0.005,0.043 -0.057,0.098 -0.063,0.125 -0.013,0.058 0.01,0.12 0,0.156 -0.008,0.03 -0.032,0.065 -0.03,0.094 0,0.026 0.035,0.09 0.062,0.125 0.033,0.042 0.085,0.08 0.125,0.125 0.073,0.084 0.105,0.17 0.156,0.281 0.013,0.028 -0.012,0.058 0,0.094 -0.022,0.168 -0.078,0.283 -0.188,0.469 -0.051,0.06 -0.126,0.112 -0.125,0.187 -0.003,0.18 0.102,0.295 0.094,0.469 -0.018,0.234 0.018,0.25 0,0.375 0.08,0.04 0.023,0.167 0,0.25 -0.034,0.099 -0.074,0.121 -0.093,0.188 0.053,0.023 0.128,0.013 0.187,0 l -0.094,0.093 a 5.203,5.203 0 0 1 -0.75,0.625 4.94,4.94 0 0 1 -1.718,0.75 A 4.985,4.985 0 0 1 22,27 C 21.81,27 21.622,26.99 21.437,26.969 21.291,26.952 21.143,26.935 21,26.906 c -0.283,-0.058 -0.549,-0.177 -0.813,-0.281 -0.009,-0.017 -0.033,-0.042 -0.03,-0.063 0.051,-0.022 0.149,0.074 0.187,0 0.019,-0.035 -0.025,-0.12 0,-0.156 0.018,-0.024 0.119,-0.024 0.156,-0.031 0.053,-0.01 0.126,-0.017 0.156,-0.031 0.033,-0.021 0.069,-0.095 0.063,-0.157 -0.003,-0.029 -0.04,-0.036 -0.063,-0.062 -0.019,-0.022 0.013,-0.042 0,-0.063 -0.024,-0.035 -0.083,-0.042 -0.093,-0.093 0.072,-0.014 0.177,0.06 0.28,0.031 0.05,-0.014 0.134,-0.11 0.157,-0.156 0.007,-0.014 -0.008,-0.045 0,-0.063 0.009,-0.018 0.028,-0.052 0.031,-0.062 0.007,-0.027 -0.006,-0.014 0,-0.032 0.018,-0.05 0.064,-0.088 0.094,-0.125 0.023,-0.028 0.073,-0.064 0.094,-0.093 0.024,-0.031 0.015,-0.035 0.031,-0.063 0.015,-0.09 -0.053,-0.17 -0.031,-0.25 0.024,-0.09 0.163,-0.146 0.25,-0.187 0.03,-0.014 0.068,-0.023 0.093,-0.032 0.06,-0.02 0.132,-0.042 0.188,-0.062 0.094,-0.034 0.11,-0.102 0.156,-0.188 0.022,-0.04 0.059,-0.095 0.063,-0.125 0.004,-0.026 -0.005,-0.031 0,-0.062 0.005,-0.029 -0.008,-0.06 0,-0.094 0.01,-0.043 0.031,-0.14 0.031,-0.187 0,-0.04 -0.03,-0.058 -0.031,-0.094 -0.007,-0.13 0.046,-0.117 0.093,-0.188 0.024,-0.035 0.046,-0.1 0.063,-0.125 0.081,-0.12 0.229,-0.161 0.219,-0.343 -0.004,-0.06 -0.05,-0.2 -0.094,-0.219 -0.025,-0.011 -0.057,-0.018 -0.094,-0.031 -0.118,-0.044 -0.22,-0.178 -0.343,-0.188 H 21.75 c -0.048,0 -0.102,-0.024 -0.156,-0.031 -0.034,-0.01 -0.105,0.01 -0.125,0 -0.031,-0.015 -0.038,-0.077 -0.063,-0.094 -0.02,-0.014 -0.063,-0.02 -0.093,-0.031 -0.05,-0.018 -0.068,-0.059 -0.125,-0.063 -0.018,0 -0.043,0.01 -0.063,0 -0.031,-0.01 -0.065,-0.013 -0.094,-0.03 -0.036,-0.023 -0.078,-0.032 -0.093,-0.063 0.033,-0.108 -0.072,-0.125 -0.094,-0.188 -0.01,-0.029 0.01,-0.099 0,-0.125 -0.013,-0.037 -0.053,-0.062 -0.094,-0.093 a 0.374,0.374 0 0 0 -0.219,-0.094 c -0.046,-0.01 -0.101,0.01 -0.156,0 A 0.356,0.356 0 0 1 20.187,22.125 C 20.145,22.076 20.131,22.023 20.094,22 20.059,21.978 20.024,21.96 20,21.937 c -0.011,-0.01 -0.021,-0.008 -0.031,-0.03 -0.018,-0.038 -0.054,-0.05 -0.032,-0.095 -0.04,-0.02 -0.019,0.039 -0.062,0.032 -0.039,-0.055 -0.068,-0.11 -0.156,-0.094 -0.04,0.01 -0.078,0.093 -0.125,0.094 -0.04,0 -0.074,-0.086 -0.125,-0.094 -0.04,-0.01 -0.098,0.036 -0.125,0.031 -0.043,-0.01 -0.055,-0.036 -0.094,-0.062 -0.029,-0.02 -0.078,-0.064 -0.094,-0.063 -0.05,0 -0.087,0.1 -0.156,0.063 -0.034,-0.043 0.071,-0.054 0.031,-0.094 -0.03,-0.029 -0.038,0.017 -0.062,0.031 -0.028,0.018 -0.063,0.02 -0.094,0.032 -0.069,0.026 -0.134,0.033 -0.188,0.062 a 0.185,0.185 0 0 0 -0.093,0.094 c -0.023,0.042 -0.059,0.123 -0.094,0.125 -0.042,0 -0.056,-0.046 -0.094,-0.063 -0.115,-0.05 -0.186,0.03 -0.281,0.032 -0.088,0 -0.223,-0.136 -0.219,-0.22 0.003,-0.05 0.026,-0.124 0.032,-0.187 0.005,-0.05 0.061,-0.11 0.062,-0.156 0.001,-0.062 -0.116,-0.087 -0.156,-0.094 -0.094,-0.017 -0.206,0.042 -0.313,0 -0.02,-0.034 0.02,-0.06 0.032,-0.093 0.007,-0.018 -0.007,-0.042 0,-0.063 0.011,-0.032 0.078,-0.06 0.093,-0.094 0.011,-0.026 -0.01,-0.06 0,-0.093 0.013,-0.036 0.06,-0.068 0.063,-0.094 0.004,-0.034 -0.036,-0.072 -0.063,-0.094 -0.083,0.01 -0.14,0.007 -0.187,0.031 -0.108,0.05 -0.079,0.185 -0.188,0.219 a 0.914,0.914 0 0 1 -0.125,0.031 c -0.018,0.01 -0.042,-0.002 -0.062,0 0.002,-0.01 -0.002,-0.02 0,-0.031 0.004,-0.023 0.026,-0.04 0.031,-0.063 A 4.91,4.91 0 0 1 17.438,20 h 0.03 c 0.039,0.01 0.062,0.06 0.095,0.063 0.091,0.01 0.111,-0.085 0.187,-0.125 0.078,0.01 0.117,-0.01 0.188,0 0.048,0.01 0.118,0.058 0.156,0.062 0.032,0 0.032,-0.035 0.062,-0.031 0.03,0.01 0.089,0.057 0.094,0.093 0.005,0.045 -0.044,0.107 -0.031,0.157 0.047,0.048 0.152,0.065 0.218,0.093 0.044,-0.037 0.007,-0.104 0,-0.156 0,-0.023 0.003,-0.072 0,-0.093 -0.004,-0.036 -0.03,-0.063 -0.03,-0.094 0,-0.143 0.122,-0.194 0.218,-0.25 0.041,-0.024 0.089,-0.076 0.125,-0.094 0.051,-0.025 0.083,-0.007 0.125,-0.031 0.076,-0.043 0.129,-0.108 0.188,-0.157 0.027,-0.065 -0.003,-0.154 0,-0.218 0.027,-0.017 0.064,0 0.093,0 0.046,-0.01 0.068,-0.068 0.094,-0.094 0.015,-0.015 0.044,-0.016 0.063,-0.031 0.045,-0.036 0.053,-0.078 0.093,-0.094 a 0.26,0.26 0 0 1 0.063,-0.031 c 0.03,-0.01 0.077,-0.014 0.125,-0.032 0.03,-0.01 0.113,-0.018 0.125,-0.03 0.015,-0.016 -0.004,-0.072 0,-0.095 0.024,-0.112 0.18,-0.118 0.281,-0.156 0.07,-0.026 0.14,-0.107 0.219,-0.093 -0.015,0.054 -0.076,0.06 -0.063,0.125 0.017,0.09 0.125,-0.019 0.157,-0.032 0.06,-0.026 0.17,-0.063 0.25,-0.093 0.07,-0.025 0.19,-0.045 0.125,-0.125 -0.055,-0.01 -0.078,0.042 -0.125,0.062 -0.033,0.01 -0.035,-0.028 -0.063,-0.031 -0.027,0 -0.035,0.036 -0.063,0.031 -0.027,-0.01 -0.058,-0.06 -0.062,-0.094 -0.011,-0.084 0.06,-0.094 0.094,-0.156 -0.023,-0.076 -0.124,-0.033 -0.188,-0.063 a 0.113,0.113 0 0 1 0.094,-0.093 c 0.043,-0.01 0.162,0.008 0.188,0.031 0.015,0.013 -0.023,0.042 0,0.063 0.026,0.023 0.06,0.01 0.093,0 0.012,-0.057 -0.072,-0.026 -0.062,-0.063 0.068,-0.044 0.198,-0.02 0.281,-0.031 a 0.68,0.68 0 0 0 0.156,-0.063 c 0.04,-0.023 0.052,-0.069 0.094,-0.031 0.012,0.041 -0.008,0.072 -0.031,0.094 -0.077,0.068 -0.159,0.14 -0.219,0.218 0.037,0.036 0.094,0.025 0.156,0.032 0.024,0.01 0.069,-0.005 0.094,0 0.03,0.01 0.07,-0.01 0.094,0 0.042,0.01 0.052,0.093 0.093,0.093 0.068,0 0.04,-0.08 0,-0.125 0.012,-0.047 0.049,-0.091 0.032,-0.125 -0.031,-0.062 -0.15,0.019 -0.157,-0.062 -0.003,-0.05 0.045,-0.056 0.063,-0.094 -0.008,-0.096 0.072,-0.1 0.063,-0.187 -0.005,-0.036 -0.038,-0.029 -0.063,-0.063 -0.013,-0.018 -0.016,-0.08 -0.031,-0.093 -0.052,-0.044 -0.15,-0.01 -0.157,-0.094 -0.002,-0.05 0.007,-0.103 0,-0.157 -0.007,-0.05 -0.05,-0.208 -0.093,-0.218 -0.056,-0.012 -0.09,0.093 -0.157,0.125 a 0.376,0.376 0 0 1 -0.156,0.031 c -0.024,-0.01 -0.06,-0.015 -0.062,-0.063 -0.004,-0.042 0.047,-0.06 0.062,-0.093 0.004,-0.008 -0.002,-0.02 0,-0.032 0.073,-0.02 0.145,-0.045 0.219,-0.062 0.042,-0.01 0.083,-0.023 0.125,-0.031 0.03,-0.006 0.064,0.005 0.094,0 A 5.01,5.01 0 0 1 22,17 Z m -2.031,0.469 c -0.032,0.182 -0.203,0.255 -0.407,0.25 -0.045,0.044 -0.006,0.126 -0.03,0.187 -0.022,0.051 -0.106,0.098 -0.157,0.094 -0.037,0 -0.094,-0.059 -0.094,-0.094 0,-0.043 0.069,-0.044 0.032,-0.093 0.001,-0.01 0.02,-0.022 0.03,-0.032 0.021,-0.012 0.043,-0.019 0.063,-0.031 0.181,-0.112 0.367,-0.193 0.563,-0.281 z m 4.187,0.187 c -0.018,0.01 -0.015,0.022 -0.031,0.032 -0.038,0.023 -0.065,0.051 -0.094,0.062 -0.04,0.015 -0.087,0.025 -0.093,0.063 -0.005,0.03 0.032,0.033 0.03,0.062 -0.014,0.037 -0.022,0.049 -0.03,0.094 0.05,0.083 0.155,-0.019 0.218,-0.032 0.028,-0.01 0.048,-0.007 0.063,-0.03 0.017,-0.028 0.018,-0.056 0.031,-0.095 0.014,-0.042 0.068,-0.056 0.063,-0.093 -0.004,-0.037 -0.095,-0.068 -0.157,-0.063 z m -5.468,0.625 c 0.047,0.038 0.114,0.12 0.03,0.157 a 0.516,0.516 0 0 1 -0.155,0.03 c -0.01,0 -0.023,-0.023 -0.032,-0.03 0.052,-0.05 0.103,-0.109 0.157,-0.157 z m 0.187,0.188 c 0.024,0 0.034,0.06 0.063,0.062 0.027,0 0.046,-0.035 0.062,-0.031 0.042,0.011 0.071,0.094 0.031,0.125 -0.033,0.01 -0.038,-0.035 -0.062,-0.031 -0.068,0.012 -0.106,0.16 -0.157,0.156 -0.048,-0.01 -0.08,-0.121 -0.03,-0.156 0,-0.03 -0.003,-0.032 0,-0.063 0.014,-0.018 0.053,-0.065 0.093,-0.062 z m -0.25,0.031 c 0.014,0 0.026,-0.01 0.031,0 -0.007,0.053 -0.021,0.069 -0.062,0.094 -0.071,0.043 -0.133,0.096 -0.157,0.187 -0.007,0.027 -0.09,0.1 -0.125,0.094 -0.079,-0.017 0.045,-0.165 0.063,-0.188 0.02,-0.025 0.04,-0.033 0.063,-0.062 0.022,-0.028 0.04,-0.078 0.062,-0.094 A 0.246,0.246 0 0 1 18.625,18.5 Z m 6.781,0.156 c 0.08,-0.01 0.12,0.078 0.157,0.125 0.03,0.04 0.107,0.098 0.156,0.125 0.028,0.015 0.062,0.049 0.093,0.063 0.065,0.029 0.185,0.123 0.188,0.187 0.001,0.032 -0.036,0.064 -0.031,0.094 0.049,0.01 0.092,-0.076 0.093,-0.125 0.092,0.13 0.171,0.268 0.25,0.406 0.038,0.066 0.09,0.12 0.125,0.188 -0.044,0.013 -0.055,0.02 -0.062,0.062 -0.01,0.056 0.021,0.147 -0.063,0.157 -0.052,0.01 -0.114,-0.046 -0.187,-0.063 -0.03,-0.01 -0.07,0.01 -0.094,0 -0.055,-0.018 -0.046,-0.092 -0.093,-0.125 a 0.501,0.501 0 0 0 -0.157,-0.063 c -0.027,0 -0.034,0.01 -0.062,0 -0.034,-0.01 -0.097,0.014 -0.125,0 A 0.321,0.321 0 0 1 25.5,19.594 c -0.011,-0.037 0.092,-0.063 0.094,-0.094 0.002,-0.024 -0.027,-0.057 -0.032,-0.094 -0.003,-0.022 0.005,-0.047 0,-0.062 -0.007,-0.026 -0.052,-0.03 -0.093,-0.032 h -0.094 c -0.044,0 -0.133,-0.004 -0.188,0 -0.033,0 -0.062,-0.003 -0.093,0 -0.087,0.01 -0.151,-0.01 -0.219,0 a 0.628,0.628 0 0 0 -0.188,0.063 l -0.062,0.031 a 0.411,0.411 0 0 1 -0.063,0.032 c -0.027,0.013 -0.066,0.054 -0.093,0.062 -0.04,0.01 -0.086,-0.01 -0.157,0 -0.05,0 -0.123,-0.033 -0.125,-0.094 0,-0.093 0.163,-0.045 0.25,-0.062 0.033,-0.01 0.054,-0.039 0.094,-0.063 0.02,-0.01 0.014,-0.019 0.032,-0.031 0.03,-0.021 0.088,-0.07 0.093,-0.094 0.004,-0.022 -0.003,-0.045 0,-0.062 0.004,-0.021 0.036,-0.035 0.063,-0.063 0.042,-0.042 0.073,-0.098 0.125,-0.125 0.035,-0.018 0.077,-0.033 0.093,-0.062 0.004,-0.032 0,-0.033 0,-0.063 A 0.13,0.13 0 0 1 25,18.75 c 0.054,-0.012 0.093,0.003 0.156,0 0.027,0 0.065,0.013 0.094,0 0.024,-0.016 0.038,-0.05 0.063,-0.063 a 0.247,0.247 0 0 1 0.093,-0.03 z m 0.563,0.594 h -0.125 c -0.044,0 -0.1,-0.023 -0.125,0 0.037,0.06 0.104,0.079 0.187,0.094 a 0.193,0.193 0 0 0 0.063,-0.094 z m -6.844,-0.563 h 0.094 c 0.025,0 0.052,-0.01 0.062,0 -0.016,0.066 -0.167,0.056 -0.218,0.032 0.002,-0.025 0.03,-0.028 0.062,-0.032 z m -0.219,0.125 c -0.043,0.032 -0.087,0.073 -0.156,0.094 -0.038,0.012 -0.087,0.011 -0.094,-0.031 -0.008,-0.052 0.06,-0.026 0.094,-0.031 0.044,-0.01 0.105,-0.03 0.156,-0.032 z m 6.5,0 c -0.033,0.011 -0.049,0.084 0,0.094 0.023,-0.014 0.038,-0.05 0.032,-0.093 -0.013,-0.014 -0.022,-0.01 -0.032,0 z m -0.062,0.157 c 0,0.056 0.01,0.107 0,0.156 0.032,0.062 0.109,0.01 0.125,-0.031 0.019,-0.104 -0.015,-0.138 -0.063,-0.125 -0.016,0.01 -0.045,-0.013 -0.062,0 z m -8.282,2.343 c 0.057,0.051 0.09,0.123 0.157,0.157 a 0.469,0.469 0 0 0 0.093,0.031 c 0.027,0.01 0.038,-0.008 0.063,0 0.053,0.018 0.114,0.043 0.156,0.063 0.064,0.028 0.133,0.124 0.188,0.156 0.003,0.032 -0.01,0.07 0,0.093 0.026,0.035 0.051,0.07 0.093,0.094 0.051,0.028 0.078,0.072 0.125,0.094 0.017,0.01 0.037,-0.01 0.063,0 0.066,0.02 0.1,0.11 0.156,0.094 0.037,-0.011 0.026,-0.058 0.032,-0.094 0.025,-0.027 0.054,-0.063 0.093,-0.063 0.062,0 0.071,0.096 0.094,0.157 0.013,0.034 0.054,0.057 0.063,0.093 a 0.943,0.943 0 0 1 0,0.282 c -0.016,0.046 -0.087,0.043 -0.125,0.093 -0.018,0.024 -0.018,0.077 -0.032,0.094 -0.024,0.03 -0.044,0.035 -0.062,0.063 a 0.449,0.449 0 0 0 -0.032,0.062 c -0.03,0.064 -0.087,0.11 -0.062,0.188 0.01,0.03 0.063,0.056 0.063,0.093 0,0.044 -0.087,0.077 -0.094,0.125 -0.005,0.035 0.02,0.079 0.031,0.125 0.008,0.035 0.073,0.071 0.094,0.094 0.035,0.04 0.061,0.107 0.093,0.157 0.063,0.097 0.095,0.217 0.157,0.312 0.033,0.049 0.103,0.073 0.125,0.125 0.01,0.026 -0.01,0.07 0,0.094 0.036,0.08 0.2,0.179 0.281,0.218 0.038,0.02 0.09,0.012 0.125,0.032 0.053,0.03 0.16,0.11 0.188,0.156 0.023,0.042 0.019,0.152 0.03,0.219 0.016,0.088 -0.003,0.155 0,0.25 0.004,0.052 0.032,0.073 0.032,0.125 v 0.093 c -0.001,0.062 0.005,0.125 0,0.188 a 0.598,0.598 0 0 0 0,0.094 c 0.003,0.03 0.03,0.034 0.031,0.062 0.002,0.03 -0.034,0.071 -0.031,0.094 0.007,0.063 0.05,0.098 0.063,0.156 0.01,0.046 0.037,0.164 0.03,0.219 -0.003,0.029 -0.026,0.06 -0.03,0.094 -0.003,0.026 0.003,0.038 0,0.062 -0.003,0.023 0.005,0.044 0,0.063 -0.032,-0.02 -0.063,-0.042 -0.094,-0.063 a 5.203,5.203 0 0 1 -0.75,-0.625 l -0.094,-0.093 a 5.2,5.2 0 0 1 -0.5,-0.625 C 17.861,24.793 17.857,24.77 17.844,24.75 a 4.824,4.824 0 0 1 -0.438,-0.813 c -0.009,-0.02 -0.022,-0.04 -0.031,-0.062 A 5.019,5.019 0 0 1 17.094,22.906 5.01,5.01 0 0 1 17,22 c 0,-0.238 0.03,-0.459 0.063,-0.688 z M 19,21.844 c 0.048,-0.022 0.039,0.055 0,0.062 -0.037,0.01 -0.036,-0.044 0,-0.062 z"
         fill="url(#h)"
         id="path345"
         style="fill:url(#h-6)" />
    </g>
  </g>
</svg>
