<?xml version="1.0" encoding="UTF-8" standalone="no"?>
<svg
   viewBox="0 0 24 24"
   width="24"
   height="24"
   version="1.1"
   id="svg476"
   sodipodi:docname="redshift-status-on.svg"
   inkscape:version="1.2.1 (9c6d41e410, 2022-07-14)"
   xmlns:inkscape="http://www.inkscape.org/namespaces/inkscape"
   xmlns:sodipodi="http://sodipodi.sourceforge.net/DTD/sodipodi-0.dtd"
   xmlns="http://www.w3.org/2000/svg"
   xmlns:svg="http://www.w3.org/2000/svg">
  <defs
     id="defs480" />
  <sodipodi:namedview
     id="namedview478"
     pagecolor="#ffffff"
     bordercolor="#666666"
     borderopacity="1.0"
     inkscape:showpageshadow="2"
     inkscape:pageopacity="0.0"
     inkscape:pagecheckerboard="0"
     inkscape:deskcolor="#d1d1d1"
     showgrid="true"
     inkscape:zoom="9.8333334"
     inkscape:cx="20.59322"
     inkscape:cy="7.9322033"
     inkscape:window-width="1920"
     inkscape:window-height="1002"
     inkscape:window-x="0"
     inkscape:window-y="0"
     inkscape:window-maximized="1"
     inkscape:current-layer="svg476">
    <inkscape:grid
       type="xygrid"
       id="grid852" />
  </sodipodi:namedview>
  <style
     type="text/css"
     id="current-color-scheme">.ColorScheme-Text { color:#eff0f1; }
</style>
  <path
     d="m 10.500696,18.677224 c -0.100493,0 -0.198633,-0.0093 -0.295581,-0.02322 v 1.18446 h 2.955831 v 0.580627 h -2.955831 v 0.290307 c 0,0.15996 0.132716,0.290306 0.295581,0.290306 h 2.955838 c 0.162865,0 0.295581,-0.130346 0.295581,-0.29031 V 18.654 c -0.09694,0.01361 -0.195084,0.0232 -0.295581,0.0232 z"
     id="path14-7"
     style="stroke-width:0.292933;fill-opacity:1;fill:currentColor;"
     class="ColorScheme-Text" />
  <path
     d="M 17.447752,6.6198073 C 16.468137,4.4166882 14.341509,3.0038232 11.999286,3 8.6807291,3.0053 5.9947767,5.7955896 6.0000074,9.232032 c 0.00391,2.425445 1.3680892,4.627629 3.4956205,5.642047 v 1.607404 C 9.4956279,16.767864 9.7198014,17 9.996365,17 h 4.005841 c 0.276553,0 0.500723,-0.232136 0.500723,-0.518517 v -1.607404 c 3.014331,-1.43727 4.332787,-5.132861 2.944823,-8.2542717 z m -0.786203,4.4841507 c -0.508871,1.350491 -1.540465,2.41873 -2.84462,2.945677 h 0.0056 c -0.192653,0.07698 -0.319933,0.26843 -0.320525,0.482221 v 1.431108 H 10.497142 V 14.531856 C 10.496468,14.318065 10.369195,14.126599 10.176601,14.049635 7.6003278,13.008678 6.3267509,10.002127 7.3319992,7.334327 8.3372451,4.6665167 11.240634,3.3476989 13.816918,4.3886554 c 2.576291,1.0409582 3.849857,4.0474843 2.844621,6.7153026 z"
     id="path2-5"
     style="stroke-width:0.0318462;fill-opacity:1;fill:currentColor;"
     class="ColorScheme-Text" />
  <ellipse
     cx="11.993468"
     cy="9.1175661"
     id="circle2-3"
     style="stroke-width:0.135689;fill-opacity:1;fill:currentColor;"
     rx="1.6400632"
     ry="1.698325"
     class="ColorScheme-Text" />
  <path
     d="m 11.340111,7.2673618 0.213339,-0.082857 -0.266674,-0.773221 c -0.02667,-0.069036 -0.09332,-0.096654 -0.146674,-0.069036 -0.05339,0.027618 -0.0933,0.096654 -0.06664,0.1518833 z"
     id="path4-5"
     style="stroke-width:0.135689;fill-opacity:1;fill:currentColor;"
     class="ColorScheme-Text" />
  <path
     d="M 12.046802,5.6242677 C 12.046802,5.5552317 11.993432,5.5 11.926797,5.5 c -0.06663,0 -0.106674,0.055238 -0.106674,0.1242677 v 1.5326351 h 0.240015 V 5.6242677 Z"
     id="path6-6"
     style="stroke-width:0.135689;fill-opacity:1;fill:currentColor;"
     class="ColorScheme-Text" />
  <path
     d="m 11.926797,12.610876 c 0,0.06904 0.05339,0.12427 0.120005,0.12427 0.06666,0 0.120001,-0.05526 0.120001,-0.12427 v -1.53264 h -0.240006 z"
     id="path8-2"
     style="stroke-width:0.135689;fill-opacity:1;fill:currentColor;"
     class="ColorScheme-Text" />
  <path
     d="m 12.64682,10.940158 -0.213337,0.08282 0.280018,0.773221 c 0.02667,0.06904 0.09332,0.09665 0.146665,0.06904 0.06669,-0.02764 0.09333,-0.09665 0.06669,-0.151886 z"
     id="path10-9"
     style="stroke-width:0.135689;fill-opacity:1;fill:currentColor;"
     class="ColorScheme-Text" />
  <path
     d="M 10.526744,7.8610857 10.673416,7.681589 10.073395,7.143095 C 10.020015,7.101672 9.953392,7.101672 9.913394,7.1569 9.873367,7.212138 9.873367,7.2811677 9.926694,7.322592 Z"
     id="path12-1"
     style="stroke-width:0.135689;fill-opacity:1;fill:currentColor;"
     class="ColorScheme-Text" />
  <path
     d="M 10.900086,7.5158985 11.100104,7.3916307 10.353403,6.0523 c -0.02667,-0.055233 -0.106658,-0.082857 -0.160002,-0.041423 -0.05339,0.027617 -0.07997,0.1104588 -0.04004,0.1656915 z"
     id="path14-3-2"
     style="stroke-width:0.135689;fill-opacity:1;fill:currentColor;"
     class="ColorScheme-Text" />
  <path
     d="m 13.086838,10.71924 -0.200005,0.124274 0.746702,1.325521 c 0.02667,0.05521 0.106655,0.08282 0.160007,0.04144 0.05337,-0.02764 0.07997,-0.110466 0.04,-0.165694 z"
     id="path16-7"
     style="stroke-width:0.135689;fill-opacity:1;fill:currentColor;"
     class="ColorScheme-Text" />
  <path
     d="m 13.43352,10.360248 -0.146665,0.179496 0.613351,0.538492 c 0.05338,0.04144 0.120003,0.04144 0.160009,-0.01383 0.04002,-0.05524 0.04002,-0.124271 -0.01329,-0.165695 z"
     id="path18-0"
     style="fill:#eff0f1;fill-opacity:1;stroke-width:0.135689"
     class="ColorScheme-Text" />
  <path
     d="m 9.3667012,8.3995797 c -0.066644,-0.013804 -0.1200068,0.027617 -0.1333409,0.096655 -0.013362,0.069036 0.026673,0.1242659 0.093329,0.1380749 l 0.7866987,0.138074 0.04,-0.2347267 z"
     id="path20-9"
     style="stroke-width:0.135689;fill-opacity:1;fill:currentColor;"
     class="ColorScheme-Text" />
  <path
     d="M 8.9800194,7.5297056 10.260065,8.3029267 10.380074,8.0958134 9.1000217,7.3225923 c -0.053343,-0.027619 -0.1333375,-0.013804 -0.1600053,0.041423 -0.03999,0.055235 -0.013333,0.1242687 0.040003,0.1656903 z"
     id="path22-3"
     style="stroke-width:0.135689;fill-opacity:1;fill:currentColor;"
     class="ColorScheme-Text" />
  <path
     d="m 15.00692,10.705438 -1.280048,-0.773222 -0.120007,0.207112 1.280047,0.773221 c 0.05333,0.02764 0.133342,0.01383 0.16,-0.04144 0.02667,-0.0552 0.01333,-0.138076 -0.04001,-0.165687 z"
     id="path24-6"
     style="stroke-width:0.135689;fill-opacity:1;fill:currentColor;"
     class="ColorScheme-Text" />
  <path
     d="m 14.593563,9.821756 c 0.06668,0.01383 0.120011,-0.02764 0.133345,-0.09665 0.0133,-0.06904 -0.02667,-0.1242624 -0.0933,-0.1380714 l -0.786699,-0.138076 -0.04001,0.2347274 z"
     id="path26-0"
     style="stroke-width:0.135689;fill-opacity:1;fill:currentColor;"
     class="ColorScheme-Text" />
  <path
     d="m 9.3000303,10.001252 c 0.02667,0.06904 0.093336,0.09665 0.1466771,0.06904 L 10.193401,9.780334 10.113431,9.5594136 9.3667397,9.849373 c -0.053339,0.02763 -0.080012,0.09665 -0.066655,0.151882 z"
     id="path28-6"
     style="stroke-width:0.135689;fill-opacity:1;fill:currentColor;"
     class="ColorScheme-Text" />
  <path
     d="M 10.100063,9.0485316 H 8.6200035 C 8.5533485,9.0485316 8.5,9.1037716 8.5,9.1727986 c 0,0.06906 0.053338,0.124272 0.1200035,0.124272 h 1.4800595 z"
     id="path30-2"
     style="stroke-width:0.135689;fill-opacity:1;fill:currentColor;"
     class="ColorScheme-Text" />
  <path
     d="m 15.366937,8.9380726 h -1.480059 v 0.248537 h 1.480059 c 0.06665,0 0.119997,-0.05524 0.119997,-0.124271 0,-0.06905 -0.05336,-0.124266 -0.119997,-0.124266 z"
     id="path32-6"
     style="stroke-width:0.135689;fill-opacity:1;fill:currentColor;"
     class="ColorScheme-Text" />
  <path
     d="m 14.660235,8.2338891 c -0.02668,-0.069036 -0.09331,-0.096654 -0.146672,-0.069036 l -0.746694,0.2899579 0.07997,0.2209196 0.746696,-0.2899563 c 0.05337,-0.027613 0.07997,-0.096654 0.06666,-0.1518838 z"
     id="path34-1"
     style="stroke-width:0.135689;fill-opacity:1;fill:currentColor;"
     class="ColorScheme-Text" />
  <path
     d="m 10.766757,10.622594 -0.173346,-0.151886 -0.520016,0.635152 c -0.04,0.0552 -0.04,0.12426 0.01331,0.16568 0.05338,0.04144 0.120003,0.04144 0.159994,-0.01383 z"
     id="path36-8"
     style="stroke-width:0.135689;fill-opacity:1;fill:currentColor;"
     class="ColorScheme-Text" />
  <path
     d="m 10.326733,10.042677 -1.2800449,0.773222 c -0.053339,0.02764 -0.080005,0.110466 -0.039991,0.165685 0.039991,0.05525 0.1066695,0.08282 0.1600032,0.04144 l 1.2800477,-0.773226 z"
     id="path38-7"
     style="stroke-width:0.135689;fill-opacity:1;fill:currentColor;"
     class="ColorScheme-Text" />
  <path
     d="m 13.660193,8.1924667 1.28005,-0.7732211 c 0.05337,-0.027616 0.07997,-0.110459 0.04004,-0.1656905 -0.04004,-0.055232 -0.106671,-0.082857 -0.160005,-0.041423 l -1.280063,0.7732217 z"
     id="path40-9"
     style="stroke-width:0.135689;fill-opacity:1;fill:currentColor;"
     class="ColorScheme-Text" />
  <path
     d="m 13.193515,7.6125498 0.173337,0.1518836 0.520026,-0.6351454 c 0.04,-0.055239 0.04,-0.1242678 -0.01331,-0.1656905 -0.05336,-0.041423 -0.120005,-0.041423 -0.159998,0.013805 z"
     id="path42-2"
     style="stroke-width:0.135689;fill-opacity:1;fill:currentColor;"
     class="ColorScheme-Text" />
  <path
     d="m 11.300111,11.823841 c -0.01329,0.06903 0.02667,0.124275 0.09334,0.138076 0.06664,0.01383 0.12,-0.02764 0.13333,-0.09665 l 0.133337,-0.814646 -0.226674,-0.04144 z"
     id="path44-0"
     style="stroke-width:0.135689;fill-opacity:1;fill:currentColor;"
     class="ColorScheme-Text" />
  <path
     d="m 10.246728,12.113801 c -0.02667,0.05524 -0.01332,0.138078 0.04004,0.165695 0.05337,0.02764 0.133334,0.01383 0.160003,-0.04144 l 0.7467,-1.325516 -0.200017,-0.124275 z"
     id="path46-2"
     style="stroke-width:0.135689;fill-opacity:1;fill:currentColor;"
     class="ColorScheme-Text" />
  <path
     d="m 13.726872,6.121339 c 0.02667,-0.055239 0.01333,-0.1380756 -0.04003,-0.1656913 -0.05339,-0.027616 -0.133339,-0.013801 -0.160005,0.041423 l -0.746696,1.3255229 0.200009,0.1242677 z"
     id="path48-3"
     style="stroke-width:0.135689;fill-opacity:1;fill:currentColor;"
     class="ColorScheme-Text" />
  <path
     d="m 12.673496,6.4251035 c 0.01329,-0.069036 -0.02667,-0.1242678 -0.09332,-0.1380739 -0.06665,-0.013805 -0.120006,0.027616 -0.133341,0.096654 l -0.133336,0.8146427 0.226672,0.041423 z"
     id="path50-7"
     style="stroke-width:0.135689;fill-opacity:1;fill:currentColor;"
     class="ColorScheme-Text" />
</svg>
