<?xml version="1.0" encoding="UTF-8" standalone="no"?>
<svg
   viewBox="0 0 64 64"
   version="1.1"
   id="svg12"
   sodipodi:docname="preferences-plugin.svg"
   width="64"
   height="64"
   inkscape:version="1.2.1 (9c6d41e410, 2022-07-14)"
   xmlns:inkscape="http://www.inkscape.org/namespaces/inkscape"
   xmlns:sodipodi="http://sodipodi.sourceforge.net/DTD/sodipodi-0.dtd"
   xmlns:xlink="http://www.w3.org/1999/xlink"
   xmlns="http://www.w3.org/2000/svg"
   xmlns:svg="http://www.w3.org/2000/svg">
  <sodipodi:namedview
     id="namedview14"
     pagecolor="#ffffff"
     bordercolor="#666666"
     borderopacity="1.0"
     inkscape:showpageshadow="2"
     inkscape:pageopacity="0.0"
     inkscape:pagecheckerboard="0"
     inkscape:deskcolor="#d1d1d1"
     showgrid="false"
     inkscape:zoom="3.7926636"
     inkscape:cx="5.6688392"
     inkscape:cy="23.861858"
     inkscape:window-width="1920"
     inkscape:window-height="1008"
     inkscape:window-x="0"
     inkscape:window-y="0"
     inkscape:window-maximized="1"
     inkscape:current-layer="svg12" />
  <defs
     id="defs3051">
    <style
       type="text/css"
       id="current-color-scheme">
      .ColorScheme-Text {
        color:#eff0f1;
      }
      </style>
    <linearGradient
       inkscape:collect="always"
       id="linearGradient22063">
      <stop
         style="stop-color:#292f3a;stop-opacity:1;"
         offset="0"
         id="stop22059" />
      <stop
         style="stop-color:#535e75;stop-opacity:1;"
         offset="1"
         id="stop22061" />
    </linearGradient>
    <linearGradient
       inkscape:collect="always"
       xlink:href="#linearGradient22063"
       id="linearGradient6807"
       gradientUnits="userSpaceOnUse"
       gradientTransform="matrix(3.6250002,0,0,3.6250002,82.750005,39.249999)"
       x1="-14"
       y1="6"
       x2="-14"
       y2="-9.999999" />
  </defs>
  <path
     d="M 3,10.25 C 3,6.245825 6.245937,3 10.249999,3 h 43.500006 c 4.00417,0 7.25,3.245825 7.25,7.25 v 43.5 c 0,4.004173 -3.24583,7.25 -7.25,7.25 H 10.249999 C 6.245937,61 3,57.754173 3,53.75 Z"
     id="path736-6"
     style="fill:#606c86;fill-opacity:1;stroke-width:3.625" />
  <path
     d="M 3,9.796875 C 3,6.043188 6.245937,3 10.249999,3 h 43.500006 c 4.00417,0 7.25,3.043188 7.25,6.796875 v 40.781249 c 0,3.753693 -3.24583,6.796876 -7.25,6.796876 H 10.249999 C 6.245937,57.375 3,54.331817 3,50.578124 Z"
     id="path738-0"
     style="fill:url(#linearGradient6807);fill-opacity:1;stroke-width:3.625" />
  <path
     style="color:#eff0f1;fill:currentColor;fill-opacity:1;stroke:none;stroke-width:2.54786"
     d="m 17.125005,11 -0.125004,8 h -4.999999 v 30 h 41 l 0.124975,-30 h -5.124975 v -5 h -10 v 5 h -11 V 14 H 17.000001"
     class="ColorScheme-Text"
     id="path321-3"
     sodipodi:nodetypes="ccccccccccccc" />
</svg>
