<?xml version="1.0" encoding="UTF-8" standalone="no"?>
<svg
   version="1.1"
   viewBox="0 0 64 64"
   id="svg32"
   sodipodi:docname="joplin.svg"
   width="64"
   height="64"
   inkscape:version="1.2.1 (9c6d41e410, 2022-07-14)"
   xmlns:inkscape="http://www.inkscape.org/namespaces/inkscape"
   xmlns:sodipodi="http://sodipodi.sourceforge.net/DTD/sodipodi-0.dtd"
   xmlns:xlink="http://www.w3.org/1999/xlink"
   xmlns="http://www.w3.org/2000/svg"
   xmlns:svg="http://www.w3.org/2000/svg">
  <sodipodi:namedview
     id="namedview34"
     pagecolor="#ffffff"
     bordercolor="#666666"
     borderopacity="1.0"
     inkscape:showpageshadow="2"
     inkscape:pageopacity="0.0"
     inkscape:pagecheckerboard="0"
     inkscape:deskcolor="#d1d1d1"
     showgrid="false"
     inkscape:zoom="7.375"
     inkscape:cx="25.016949"
     inkscape:cy="27.050847"
     inkscape:window-width="1920"
     inkscape:window-height="1002"
     inkscape:window-x="0"
     inkscape:window-y="0"
     inkscape:window-maximized="1"
     inkscape:current-layer="svg32" />
  <defs
     id="defs12">
    <linearGradient
       id="b"
       x1="-41.259998"
       x2="-2.994"
       y1="-0.88300002"
       y2="37.956001"
       gradientTransform="matrix(0.73180945,0,0,0.72091894,416.0252,517.69779)"
       gradientUnits="userSpaceOnUse">
      <stop
         stop-color="#21c9fb"
         offset="0"
         id="stop2" />
      <stop
         stop-color="#1a86f2"
         offset="1"
         id="stop4" />
    </linearGradient>
    <linearGradient
       id="a"
       x1="4"
       x2="44"
       y1="4"
       y2="44"
       gradientTransform="matrix(0.69444447,0,0,0.69444447,384.01587,515.24246)"
       gradientUnits="userSpaceOnUse">
      <stop
         offset="0"
         id="stop7" />
      <stop
         stop-opacity="0"
         offset="1"
         id="stop9" />
    </linearGradient>
    <linearGradient
       inkscape:collect="always"
       xlink:href="#linearGradient22063"
       id="linearGradient22065"
       x1="-22"
       y1="5.1111121"
       x2="-6.4444442"
       y2="-9.1111107"
       gradientUnits="userSpaceOnUse"
       gradientTransform="matrix(3.6250002,0,0,3.6250002,82.750001,39.249999)" />
    <linearGradient
       inkscape:collect="always"
       id="linearGradient22063">
      <stop
         style="stop-color:#88c0d0;stop-opacity:1;"
         offset="0"
         id="stop22059" />
      <stop
         style="stop-color:#5e81ac;stop-opacity:1;"
         offset="1"
         id="stop22061" />
    </linearGradient>
    <linearGradient
       gradientTransform="matrix(0.33944754,0,0,0.33992701,9.6992503,10.420578)"
       xlink:href="#linearGradient3360"
       id="linearGradient3366"
       x1="-1.414"
       y1="88.047997"
       x2="154.149"
       y2="89.816002"
       gradientUnits="userSpaceOnUse" />
    <linearGradient
       id="linearGradient3360">
      <stop
         style="stop-color:#ffcc00;stop-opacity:1;"
         offset="0"
         id="stop158" />
      <stop
         offset=".245"
         style="stop-color:#ffff00;stop-opacity:1"
         id="stop160" />
      <stop
         offset=".586"
         style="stop-color:#ff0000;stop-opacity:1"
         id="stop162" />
      <stop
         style="stop-color:#ffcc00;stop-opacity:0;"
         offset="1"
         id="stop164" />
    </linearGradient>
    <linearGradient
       gradientTransform="matrix(0.33944754,0,0,0.33992701,9.6992503,10.420578)"
       xlink:href="#linearGradient3347"
       id="linearGradient3359"
       x1="-23.688"
       y1="-24.028"
       x2="146.72501"
       y2="140.728"
       gradientUnits="userSpaceOnUse" />
    <linearGradient
       id="linearGradient3347">
      <stop
         style="stop-color:#5e81ac;stop-opacity:1;"
         offset="0"
         id="stop146" />
      <stop
         offset="0.252"
         style="stop-color:#5e81ac;stop-opacity:1;"
         id="stop148" />
      <stop
         style="stop-color:#456285;stop-opacity:1;"
         offset="0.45899999"
         id="stop150" />
      <stop
         offset="0.89899999"
         style="stop-color:#233143;stop-opacity:1;"
         id="stop152" />
      <stop
         style="stop-color:#5e81ac;stop-opacity:0.07962073;"
         offset="1"
         id="stop154" />
    </linearGradient>
    <linearGradient
       id="e"
       y1="45"
       y2="24"
       x2="0"
       gradientUnits="userSpaceOnUse"
       gradientTransform="matrix(1.0774876,0,0,1.0774873,7.17948,4.6902606)">
      <stop
         stop-color="#60c0f4"
         id="stop18" />
      <stop
         offset="1"
         stop-color="#b9e9ff"
         id="stop20" />
    </linearGradient>
    <linearGradient
       id="b-3"
       y1="30"
       x1="24"
       y2="44"
       x2="38"
       gradientUnits="userSpaceOnUse">
      <stop
         id="stop7-6" />
      <stop
         offset="1"
         stop-opacity="0"
         id="stop9-7" />
    </linearGradient>
    <linearGradient
       id="a-5"
       y1="30"
       x1="34"
       y2="28"
       x2="24"
       gradientUnits="userSpaceOnUse"
       gradientTransform="matrix(1.0774876,0,0,1.0774873,7.17948,4.6902606)">
      <stop
         stop-color="#f39c12"
         id="stop2-3" />
      <stop
         offset="1"
         stop-color="#ffc35a"
         id="stop4-5" />
    </linearGradient>
    <linearGradient
       id="f"
       y1="23"
       x1="32"
       y2="22"
       x2="25"
       gradientUnits="userSpaceOnUse"
       gradientTransform="matrix(1.0774876,0,0,1.0774873,6.1019929,4.6902606)">
      <stop
         stop-color="#cea476"
         id="stop23" />
      <stop
         offset="1"
         stop-color="#dab58b"
         id="stop25" />
    </linearGradient>
    <linearGradient
       xlink:href="#b-3"
       id="g"
       y1="24"
       x1="25"
       y2="38"
       x2="39"
       gradientUnits="userSpaceOnUse"
       gradientTransform="matrix(1.0774876,0,0,1.0774873,7.17948,4.6902606)" />
    <linearGradient
       id="c"
       y1="37"
       y2="4"
       x2="0"
       gradientUnits="userSpaceOnUse"
       gradientTransform="matrix(1.0774876,0,0,1.0774873,5.0245048,4.6902606)">
      <stop
         stop-color="#da4453"
         id="stop12" />
      <stop
         offset="1"
         stop-color="#ff7336"
         id="stop14" />
    </linearGradient>
    <linearGradient
       xlink:href="#b-3"
       id="d"
       y1="22.313"
       x1="20.438"
       y2="25.406"
       x2="23.531"
       gradientUnits="userSpaceOnUse"
       gradientTransform="matrix(1.0774876,0,0,1.0774873,5.0245048,4.6902606)" />
    <linearGradient
       id="c-3"
       x2="0"
       y1="532.78998"
       y2="514.79999"
       gradientTransform="matrix(1.7778,0,0,1.7778,-763.38195,-909.21706)"
       gradientUnits="userSpaceOnUse">
      <stop
         stop-color="#7cbaf8"
         offset="0"
         id="stop187" />
      <stop
         stop-color="#f4fcff"
         offset="1"
         id="stop189" />
    </linearGradient>
    <linearGradient
       id="b-6"
       x1="25.792999"
       x2="41.605999"
       y1="26.896"
       y2="43.624001"
       gradientTransform="matrix(1.2575155,0,0,1.2575155,-2.3498115,-4.7646373)"
       gradientUnits="userSpaceOnUse">
      <stop
         stop-color="#292c2f"
         offset="0"
         id="stop192" />
      <stop
         stop-color="#292c2f"
         stop-opacity="0"
         offset="1"
         id="stop194" />
    </linearGradient>
    <linearGradient
       id="c-7"
       x2="0"
       y1="532.78998"
       y2="514.79999"
       gradientTransform="matrix(2.2356108,0,0,2.2356108,-880.44891,-1138.641)"
       gradientUnits="userSpaceOnUse">
      <stop
         stop-color="#7cbaf8"
         offset="0"
         id="stop187-5" />
      <stop
         stop-color="#f4fcff"
         offset="1"
         id="stop189-3" />
    </linearGradient>
    <linearGradient
       id="c-36"
       gradientUnits="userSpaceOnUse"
       x1="15"
       x2="38"
       y1="13"
       y2="36"
       gradientTransform="matrix(1.3333333,0,0,1.3333333,0.2386695,0.333334)">
      <stop
         offset="0"
         stop-color="#194f95"
         id="stop191" />
      <stop
         offset="1"
         stop-color="#194f95"
         stop-opacity="0"
         id="stop193" />
    </linearGradient>
  </defs>
  <path
     d="m 2.9999985,10.25 c 0,-4.004175 3.245938,-7.25 7.2500005,-7.25 h 43.500003 c 4.004173,0 7.25,3.245825 7.25,7.25 v 43.5 c 0,4.004173 -3.245827,7.25 -7.25,7.25 H 10.249999 C 6.2459365,61 2.9999985,57.754173 2.9999985,53.75 Z"
     id="path736"
     style="fill:#606c86;fill-opacity:1;stroke-width:3.625" />
  <path
     d="M 2.9999985,9.796875 C 2.9999985,6.043188 6.2459365,3 10.249999,3 h 43.500003 c 4.004173,0 7.25,3.043188 7.25,6.796875 v 40.781249 c 0,3.753693 -3.245827,6.796876 -7.25,6.796876 H 10.249999 c -4.0040625,0 -7.2500005,-3.043183 -7.2500005,-6.796876 z"
     id="path738"
     style="fill:url(#linearGradient22065);fill-opacity:1;stroke-width:3.625" />
  <path
     d="m 30.905334,15 v 5.333333 l 4,4 v 5.184896 4.148438 L 29.572,28.333333 c -3.182533,0 -6.233841,1.194846 -8.484375,3.320312 -2.2504,2.125467 -3.515625,5.007288 -3.515625,8.013022 0,2.8976 1.175375,5.68058 3.276041,7.78125 L 32.400125,59 H 58.905334 V 28.333333 L 45.572,15 Z"

     id="path200"
     style="fill:url(#c-36);stroke-width:2.66667" />
  <path
     d="m 30.905334,15 v 5.333333 l 0.942708,0.942708 h 3.057292 V 29.518229 39 c 0,1.414533 -0.562233,2.7707 -1.5625,3.770833 -1.000133,1.000267 -2.3563,1.5625 -3.770834,1.5625 -1.190379,0 -2.340437,-0.397566 -3.270833,-1.119792 -0.722224,-0.930394 -1.119792,-2.080454 -1.119792,-3.270833 0,-1.414533 0.562233,-2.7707 1.5625,-3.770833 1.000133,-1.000267 2.3563,-1.5625 3.770834,-1.5625 V 29.276041 L 29.572,28.333333 c -3.182533,0 -6.233841,1.194846 -8.484375,3.320312 -2.2504,2.125467 -3.515625,5.007288 -3.515625,8.013022 0,2.8976 1.175375,5.680582 3.276041,7.78125 l 0.117187,0.117187 c 0.0023,0.0021 0.0056,0.0031 0.0079,0.0052 l 0.622396,0.622396 0.195313,0.197917 c 0.0784,0.0784 0.15865,0.155238 0.239584,0.231771 2.250532,2.125467 5.30184,3.320312 8.484374,3.320312 3.182667,0 6.233843,-1.194845 8.484375,-3.320312 2.250401,-2.125333 3.515625,-5.007288 3.515625,-8.013021 -0.0096,-0.222667 -0.02601,-0.444934 -0.04948,-0.666667 h 0.04948 V 21.276033 h 4 V 15.9427 L 45.572033,15 Z m 0.942708,0.942708 h 13.723959 v 4.390625 h -4 V 39 h -0.04948 c 0.02347,0.221733 0.03988,0.444 0.04948,0.666667 0,3.005733 -1.265225,5.887554 -3.515625,8.013021 C 35.805842,49.805155 32.754534,51 29.572001,51 c -3.069705,0 -6.017424,-1.110263 -8.242188,-3.096355 -1.811072,-2.034229 -2.815104,-4.615789 -2.815104,-7.29427 0,-3.005734 1.265225,-5.887554 3.515625,-8.01302 2.027079,-1.91443 4.70439,-3.072624 7.541667,-3.283855 v 4.354167 c -1.414533,0 -2.7707,0.562233 -3.770833,1.5625 -1.000267,1.000133 -1.5625,2.3563 -1.5625,3.770833 0,1.414533 0.562233,2.7707 1.5625,3.770833 l 0.848958,0.848959 0.09375,0.09375 c 1.000133,1.000266 2.3563,1.5625 3.770833,1.5625 1.414534,0 2.7707,-0.562234 3.770834,-1.5625 1.000266,-1.000134 1.5625,-2.3563 1.5625,-3.770834 v -9.481771 -9.184896 l -0.942706,-0.942708 h -3.057292 z"
     fill="#194f95"
     opacity="0.65"
     id="path202"
     style="stroke-width:2.66667" />
  <path
     d="m 30.905334,15 v 5.333333 h 4 V 29.518229 39 A 5.3333333,5.3333333 0 0 1 29.572,44.333333 5.3333333,5.3333333 0 0 1 24.238668,39 5.3333333,5.3333333 0 0 1 29.572,33.666667 v -5.333334 a 12,11.333333 0 0 0 -12,11.333334 A 12,11.333333 0 0 0 29.572,51 12,11.333333 0 0 0 41.572,39.666667 12,11.333333 0 0 0 41.52252,39 H 41.572 V 20.333333 h 4 V 15 Z"
     fill="#fcfcfc"
     id="path204"
     style="stroke-width:2.66667" />
</svg>
