<?xml version="1.0" encoding="UTF-8" standalone="no"?>
<svg
   width="64"
   height="64"
   version="1.1"
   id="svg3414"
   sodipodi:docname="acroread.svg"
   inkscape:version="1.2.1 (9c6d41e410, 2022-07-14)"
   xmlns:inkscape="http://www.inkscape.org/namespaces/inkscape"
   xmlns:sodipodi="http://sodipodi.sourceforge.net/DTD/sodipodi-0.dtd"
   xmlns:xlink="http://www.w3.org/1999/xlink"
   xmlns="http://www.w3.org/2000/svg"
   xmlns:svg="http://www.w3.org/2000/svg">
  <sodipodi:namedview
     id="namedview3416"
     pagecolor="#ffffff"
     bordercolor="#666666"
     borderopacity="1.0"
     inkscape:showpageshadow="2"
     inkscape:pageopacity="0.0"
     inkscape:pagecheckerboard="0"
     inkscape:deskcolor="#d1d1d1"
     showgrid="false"
     inkscape:zoom="9.8333333"
     inkscape:cx="33.305085"
     inkscape:cy="33.915254"
     inkscape:window-width="1920"
     inkscape:window-height="998"
     inkscape:window-x="0"
     inkscape:window-y="0"
     inkscape:window-maximized="1"
     inkscape:current-layer="svg3414" />
  <defs
     id="defs3392">
    <linearGradient
       id="a"
       y1="527.79999"
       y2="504.79999"
       gradientUnits="userSpaceOnUse"
       x2="0"
       gradientTransform="translate(-415.30068,-554.64541)">
      <stop
         stop-color="#ffffff"
         id="stop3367" />
      <stop
         offset="1"
         stop-color="#ffffff"
         stop-opacity="0"
         id="stop3369" />
    </linearGradient>
    <linearGradient
       id="b"
       y1="4"
       x1="8"
       y2="18"
       gradientUnits="userSpaceOnUse"
       x2="22"
       gradientTransform="translate(-30.73068,-54.845411)">
      <stop
         stop-color="#292c2f"
         id="stop3372" />
      <stop
         offset="1"
         stop-opacity="0"
         id="stop3374" />
    </linearGradient>
    <linearGradient
       id="c"
       y1="520.79999"
       y2="503.79999"
       gradientUnits="userSpaceOnUse"
       x2="0"
       gradientTransform="translate(-415.30068,-554.64541)">
      <stop
         stop-color="#197cf1"
         id="stop3377" />
      <stop
         offset="1"
         stop-color="#20bcfa"
         id="stop3379" />
    </linearGradient>
    <linearGradient
       id="d"
       y1="1050.34"
       y2="1038.36"
       gradientUnits="userSpaceOnUse"
       x2="0"
       gradientTransform="matrix(-2.83522,0,0,2.83875,16.92432,-2992.4854)">
      <stop
         stop-color="#c61423"
         id="stop3382" />
      <stop
         offset="1"
         stop-color="#dc2b41"
         id="stop3384" />
    </linearGradient>
    <linearGradient
       id="e"
       y1="543.79999"
       y2="503.79999"
       gradientUnits="userSpaceOnUse"
       x2="0"
       gradientTransform="matrix(1.125,0,0,1,-330.75575,-541.673)">
      <stop
         stop-color="#1d1e1e"
         id="stop3387" />
      <stop
         offset="1"
         stop-color="#44484c"
         id="stop3389" />
    </linearGradient>
    <linearGradient
       inkscape:collect="always"
       xlink:href="#linearGradient22063-0"
       id="linearGradient22065-6"
       x1="-22"
       y1="5.1111121"
       x2="-6.4444442"
       y2="-9.1111107"
       gradientUnits="userSpaceOnUse"
       gradientTransform="matrix(3.6250002,0,0,3.6250002,82.750001,39.249999)" />
    <linearGradient
       inkscape:collect="always"
       id="linearGradient22063-0">
      <stop
         style="stop-color:#88c0d0;stop-opacity:1;"
         offset="0"
         id="stop22059-6" />
      <stop
         style="stop-color:#ebcb8b;stop-opacity:1;"
         offset="1"
         id="stop22061-2" />
    </linearGradient>
    <linearGradient
       id="d-2"
       y1="1050.34"
       y2="1038.36"
       gradientUnits="userSpaceOnUse"
       x2="0"
       gradientTransform="matrix(-2.83522,0,0,2.83875,54.655,-2929.64)">
      <stop
         stop-color="#c61423"
         id="stop3382-6"
         offset="0"
         style="stop-color:#bf616a;stop-opacity:1;" />
      <stop
         offset="1"
         stop-color="#dc2b41"
         id="stop3384-1"
         style="stop-color:#d18e94;stop-opacity:1;" />
    </linearGradient>
    <linearGradient
       id="c-8"
       y1="520.79999"
       y2="503.79999"
       gradientUnits="userSpaceOnUse"
       x2="0"
       gradientTransform="translate(-377.57,-491.8)">
      <stop
         stop-color="#197cf1"
         id="stop3377-7" />
      <stop
         offset="1"
         stop-color="#20bcfa"
         id="stop3379-9" />
    </linearGradient>
    <linearGradient
       id="a-2"
       y1="527.79999"
       y2="504.79999"
       gradientUnits="userSpaceOnUse"
       x2="0"
       gradientTransform="translate(-377.57,-491.8)">
      <stop
         stop-color="#ffffff"
         id="stop3367-3" />
      <stop
         offset="1"
         stop-color="#ffffff"
         stop-opacity="0"
         id="stop3369-7" />
    </linearGradient>
    <linearGradient
       inkscape:collect="always"
       xlink:href="#b"
       id="linearGradient4872"
       gradientUnits="userSpaceOnUse"
       gradientTransform="translate(7,8.0000001)"
       x1="8"
       y1="4"
       x2="22"
       y2="18" />
  </defs>
  <rect
     width="36"
     x="110.88425"
     y="-37.873016"
     fill="url(#e)"
     rx="0"
     height="40"
     id="rect3394"
     style="fill:url(#e)" />
  <rect
     width="36"
     x="110.88425"
     y="1.1269853"
     fill="#080809"
     height="1"
     id="rect3398" />
  <rect
     width="2"
     x="110.88425"
     opacity="0.6"
     y="-37.873016"
     fill="#080809"
     height="40"
     id="rect3402" />
  <path
     d="m 2.9999985,10.25 c 0,-4.004175 3.245938,-7.25 7.2499995,-7.25 h 43.500003 c 4.004173,0 7.25,3.245825 7.25,7.25 v 43.5 c 0,4.004173 -3.245827,7.25 -7.25,7.25 H 10.249998 C 6.2459365,61 2.9999985,57.754173 2.9999985,53.75 Z"
     id="path736-7"
     style="fill:#606c86;fill-opacity:1;stroke-width:3.625" />
  <path
     d="M 2.9999985,9.796875 C 2.9999985,6.043188 6.2459365,3 10.249998,3 h 43.500003 c 4.004173,0 7.25,3.043188 7.25,6.796875 v 40.781249 c 0,3.753693 -3.245827,6.796876 -7.25,6.796876 H 10.249998 c -4.0040615,0 -7.2499995,-3.043183 -7.2499995,-6.796876 z"
     id="path738-9"
     style="fill:url(#linearGradient22065-6);fill-opacity:1;stroke-width:3.625" />
  <path
     fill="url(#d)"
     d="m 43.721,18 c 0.459,0.028 0.953,0 1.494,0.375 4.831,2.079 1.591,7.782 -4.567,12.12 -0.037,-0.818 -0.377,-2.599 -0.369,-3.383 5.254,-3.602 8.327,-7.108 4.979,-8.498 -3.53,-1.465 -4.626,2.535 -4.688,8.342 -0.329,0.341 -2.607,1.854 -2.953,2.093 0.128,-5.295 2.943,-10.7 5.648,-11.01 0.145,-0.028 0.303,-0.028 0.456,-0.028 m -4.918,9.213 1.099,-0.428 0.911,0.614 0.184,1.932 -1.151,0.883 -0.478,0.641 c -3.544,2.351 -6.563,4.162 -10.536,5.658 l -2.477,0.368 h -1.63 c -1.503,-0.886 -0.607,-1.227 -6.067,-1.908 l 6.153,0.477 c 4.746,-1.84 9.59,-4.483 13.996,-7.366 m -10.83,7.708 c -0.712,0 -6.264,-0.482 -8.473,-0.686 -2.186,-0.341 -4.871,-0.443 -4.363,2.113 -0.578,-1.363 0.74,-3.677 2.614,-4.085 2.898,-0.648 7.496,1.128 9.149,1.673 m -2.664,0.708 c 0.862,0.341 2.831,0.587 3.761,0.894 -1.318,0.682 -7.938,3.126 -10.671,2.614 -0.437,0 -2.282,-1.327 -2.327,-2.282 0.142,1.738 8.234,0.443 9.237,-1.261 m -1.8,0.031 c 0.709,-0.341 4.03,-0.324 4.762,-0.596 4.158,1.455 9.752,4.87 13.755,7.173 l 1.16,0.341 c 0.224,1.591 1.204,2.139 2.098,3.169 L 42.86,46.972 41.8,45.234 C 37.113,42.406 27.848,37.836 22.444,35.642 M 41.8,45.234 c 0.573,0.341 1.12,0.682 1.639,1.022 1.202,3.411 2.603,5.708 3.941,5.609 -2.067,0.988 -6.519,-3.881 -8.02,-8.461 m 8.02,8.461 c 3.153,-1.874 -3.521,-5.29 -5.02,-6.281 -0.337,-0.954 0.585,-2.535 0.284,-3.66 4.707,2.931 7.489,7.17 5.91,9.181 -0.38,0.477 -0.783,0.716 -1.182,0.75 m -4.58,-7.14 c -0.219,-0.878 -3.126,-2.876 -3.651,-3.183 -0.703,-5.537 -0.737,-6.084 -1.334,-10.388 0.357,-0.341 2.556,-2.055 2.896,-2.293 0.422,4.6 1.216,10.834 2.339,14.998"
     id="path3396-5"
     style="fill:url(#d-2)" />
  <path
     fill="url(#c)"
     d="M 15,12 V 29 L 19,26.691 23,29 V 12 Z"
     id="path3400-9"
     style="fill:#5e81ac;fill-opacity:0.96510506" />
  <path
     opacity="0.2"
     fill="url(#b)"
     fill-rule="evenodd"
     d="M 23,12 V 29 L 19,26.691 15,29 38,52 H 49 V 38 Z"
     id="path3404-2"
     style="fill:url(#linearGradient4872);opacity:0.44934937" />
  <path
     opacity="0.15"
     fill="url(#a)"
     d="m 16,12 h 6 v 15 l -3,-2 -3,2 z"
     id="path3410-9"
     style="fill:url(#a-2);opacity:0.17943481" />
</svg>
