<?xml version="1.0" encoding="UTF-8" standalone="no"?>
<svg
   width="64"
   height="64"
   version="1.1"
   id="svg22"
   sodipodi:docname="amazon-store.svg"
   inkscape:version="1.3.2 (091e20ef0f, 2023-11-25)"
   xmlns:inkscape="http://www.inkscape.org/namespaces/inkscape"
   xmlns:sodipodi="http://sodipodi.sourceforge.net/DTD/sodipodi-0.dtd"
   xmlns:xlink="http://www.w3.org/1999/xlink"
   xmlns="http://www.w3.org/2000/svg"
   xmlns:svg="http://www.w3.org/2000/svg"
   xmlns:rdf="http://www.w3.org/1999/02/22-rdf-syntax-ns#"
   xmlns:cc="http://creativecommons.org/ns#"
   xmlns:dc="http://purl.org/dc/elements/1.1/">
  <sodipodi:namedview
     pagecolor="#ffffff"
     bordercolor="#666666"
     borderopacity="1"
     objecttolerance="10"
     gridtolerance="10"
     guidetolerance="10"
     inkscape:pageopacity="0"
     inkscape:pageshadow="2"
     inkscape:window-width="1920"
     inkscape:window-height="994"
     id="namedview24"
     showgrid="false"
     inkscape:zoom="4.5906698"
     inkscape:cx="12.634322"
     inkscape:cy="34.417636"
     inkscape:window-x="0"
     inkscape:window-y="0"
     inkscape:window-maximized="1"
     inkscape:current-layer="svg22"
     inkscape:showpageshadow="2"
     inkscape:pagecheckerboard="0"
     inkscape:deskcolor="#d1d1d1" />
  <metadata
     id="metadata2">
    <rdf:RDF>
      <cc:Work
         rdf:about="">
        <dc:format>image/svg+xml</dc:format>
        <dc:type
           rdf:resource="http://purl.org/dc/dcmitype/StillImage" />
      </cc:Work>
    </rdf:RDF>
  </metadata>
  <defs
     id="defs14">
    <linearGradient
       inkscape:collect="always"
       id="linearGradient1588">
      <stop
         style="stop-color:#292f3a;stop-opacity:1;"
         offset="0"
         id="stop1584" />
      <stop
         style="stop-color:#535e75;stop-opacity:1;"
         offset="1"
         id="stop1586" />
    </linearGradient>
    <filter
       id="filter2761"
       x="-0.024"
       y="-0.024"
       width="1.048"
       height="1.048"
       color-interpolation-filters="sRGB">
      <feGaussianBlur
         stdDeviation="0.14552168"
         id="feGaussianBlur4" />
    </filter>
    <linearGradient
       id="linearGradient4673"
       x1="1.2573"
       x2="15.644"
       y1="15.429"
       y2="1.1082"
       gradientTransform="matrix(3.7796,0,0,3.7796,-98.960821,0.53085)"
       gradientUnits="userSpaceOnUse">
      <stop
         stop-color="#16ff6c"
         offset="0"
         id="stop7" />
      <stop
         stop-color="#28ff61"
         offset=".47728"
         id="stop9" />
      <stop
         stop-color="#9fff1b"
         offset="1"
         id="stop11" />
    </linearGradient>
    <linearGradient
       id="linearGradient3764"
       x1="1"
       x2="47"
       gradientUnits="userSpaceOnUse"
       gradientTransform="rotate(-90,23.999998,24)">
      <stop
         style="stop-color:#43cd50;stop-opacity:1"
         id="stop2" />
      <stop
         offset="1"
         style="stop-color:#54d160;stop-opacity:1"
         id="stop4" />
    </linearGradient>
    <style
       type="text/css"
       id="style876" />
    <style
       type="text/css"
       id="style878" />
    <style
       type="text/css"
       id="style880" />
    <style
       type="text/css"
       id="style882" />
    <filter
       id="filter1057"
       x="-0.026999999"
       y="-0.026999999"
       width="1.054"
       height="1.054"
       color-interpolation-filters="sRGB">
      <feGaussianBlur
         stdDeviation="0.61875"
         id="feGaussianBlur884" />
    </filter>
    <linearGradient
       id="linearGradient1053"
       x1="-127"
       x2="-72"
       y1="60"
       y2="5"
       gradientTransform="translate(131.5,-0.51)"
       gradientUnits="userSpaceOnUse">
      <stop
         stop-color="#02db96"
         offset="0"
         id="stop887"
         style="stop-color:#14ff6e;stop-opacity:1" />
      <stop
         stop-color="#13d39b"
         offset="1"
         id="stop889"
         style="stop-color:#a0ff1e;stop-opacity:1" />
    </linearGradient>
    <style
       type="text/css"
       id="style892" />
    <style
       type="text/css"
       id="style894" />
    <style
       type="text/css"
       id="style896" />
    <linearGradient
       id="a-367"
       gradientUnits="userSpaceOnUse"
       x1="23"
       x2="37"
       y1="20"
       y2="34"
       gradientTransform="matrix(1.9622547,0,0,1.9622547,-116.93982,-48.178796)">
      <stop
         offset="0"
         stop-color="#292c2f"
         id="stop246" />
      <stop
         offset="1"
         stop-opacity="0"
         id="stop248" />
    </linearGradient>
    <linearGradient
       id="c-53"
       gradientTransform="matrix(2.0428665,-6.8308524,5.7819337,2.3633129,25.219113,34.652812)"
       gradientUnits="userSpaceOnUse"
       x1="24"
       x2="24"
       y1="35"
       y2="13">
      <stop
         offset="0"
         stop-color="#23a2cd"
         id="stop256" />
      <stop
         offset=".53"
         stop-color="#00b8f5"
         id="stop258" />
      <stop
         offset="1"
         stop-color="#2ecbff"
         id="stop260" />
    </linearGradient>
    <linearGradient
       inkscape:collect="always"
       xlink:href="#linearGradient1588"
       id="linearGradient1590"
       x1="26.980762"
       y1="61"
       x2="25.094219"
       y2="3"
       gradientUnits="userSpaceOnUse" />
    <linearGradient
       id="paint0_linear"
       x1="32"
       y1="62"
       x2="32"
       y2="2"
       gradientUnits="userSpaceOnUse"
       gradientTransform="matrix(0.59823273,0,0,0.58066307,81.474086,-30.147291)">
      <stop
         stop-color="#FDA700"
         id="stop1" />
      <stop
         offset="1"
         stop-color="#FFDE00"
         id="stop2-9" />
    </linearGradient>
  </defs>
  <circle
     cx="-1330.8"
     cy="-1261.2"
     r="0"
     fill="#5e4aa6"
     id="circle908" />
  <circle
     cx="-1336.4259"
     cy="-1272.89"
     r="0"
     id="circle910"
     style="fill:#5e4aa6" />
  <circle
     cx="-236.87599"
     cy="-7.4350004"
     r="0"
     fill-rule="evenodd"
     id="circle912"
     style="fill:#5e4aa6" />
  <circle
     cx="-1336.4259"
     cy="-1272.89"
     r="0"
     id="circle914"
     style="fill:#5e4aa6" />
  <circle
     cx="-236.87599"
     cy="-7.4350004"
     r="0"
     fill-rule="evenodd"
     id="circle916"
     style="fill:#5e4aa6" />
  <circle
     cx="-1238.626"
     cy="-1287.89"
     r="0"
     id="circle918"
     style="fill:#5e4aa6" />
  <circle
     cx="-139.05299"
     cy="-22.4156"
     r="0"
     fill-rule="evenodd"
     id="circle920"
     style="fill:#5e4aa6" />
  <g
     transform="matrix(3.7796,0,0,3.7796,80.134,-26.68)"
     stroke-width="0.26458"
     id="g950"
     style="fill:#5e4aa6">
    <g
       transform="translate(-0.0272,0.0065001)"
       id="g938">
      <circle
         cx="-330.35001"
         cy="-328.38"
         r="0"
         id="circle922" />
      <circle
         cx="-312.10999"
         cy="-326.25"
         r="0"
         id="circle924" />
      <circle
         cx="-306.01999"
         cy="-333.07001"
         r="0"
         id="circle926" />
      <circle
         cx="-308.84"
         cy="-326.01001"
         r="0"
         id="circle928" />
      <circle
         cx="-330.35001"
         cy="-328.38"
         r="0"
         id="circle930" />
      <circle
         cx="-312.10999"
         cy="-326.25"
         r="0"
         id="circle932" />
      <circle
         cx="-306.01999"
         cy="-333.07001"
         r="0"
         id="circle934" />
      <circle
         cx="-308.84"
         cy="-326.01001"
         r="0"
         id="circle936" />
    </g>
    <g
       transform="translate(-0.02705,0.0064503)"
       id="g948">
      <circle
         cx="-330.35001"
         cy="-328.38"
         r="0"
         id="circle940" />
      <circle
         cx="-312.10999"
         cy="-326.25"
         r="0"
         id="circle942" />
      <circle
         cx="-306.01999"
         cy="-333.07001"
         r="0"
         id="circle944" />
      <circle
         cx="-308.84"
         cy="-326.01001"
         r="0"
         id="circle946" />
    </g>
  </g>
  <path
     d="M 2.9999985,10.25 C 2.9999985,6.245825 6.2459365,3 10.25,3 h 43.500002 c 4.004174,0 7.25,3.245825 7.25,7.25 v 43.5 c 0,4.004173 -3.245827,7.25 -7.25,7.25 H 10.25 C 6.2459365,61 2.9999985,57.754173 2.9999985,53.75 Z"
     id="path736"
     style="fill:#606c86;fill-opacity:1;stroke-width:3.625" />
  <path
     d="M 2.9999985,9.796875 C 2.9999985,6.043188 6.2459365,3 10.25,3 h 43.500002 c 4.004174,0 7.25,3.043188 7.25,6.796875 v 40.781249 c 0,3.753693 -3.245827,6.796876 -7.25,6.796876 H 10.25 c -4.0040635,0 -7.2500015,-3.043183 -7.2500015,-6.796876 z"
     id="path738"
     style="fill:url(#linearGradient1590);fill-opacity:1;stroke-width:3.625" />
  <path
     style="opacity:0.2;fill-rule:evenodd;stroke-width:1.10801"
     d="m 34.580145,28.858577 c 0,1.836501 0.04828,3.363101 -0.866268,4.990089 -0.734639,1.321449 -1.903545,2.135488 -3.206327,2.135488 -1.779793,0 -2.812558,-1.373829 -2.812558,-3.404567 0,-4.008004 3.53821,-4.736924 6.886271,-4.736924 v 1.018094 m 4.672245,11.456579 c -0.302638,0.278265 -0.745892,0.300082 -1.092413,0.115664 -1.535654,-1.295263 -1.812409,-1.898694 -2.66068,-3.137209 -2.542553,2.634168 -4.338096,3.420926 -7.637799,3.420926 -3.899337,0 -6.936909,-2.438838 -6.936909,-7.323085 0,-3.814864 2.03968,-6.416293 4.937738,-7.686464 2.509938,-1.122851 6.025652,-1.321448 8.713325,-1.63244 v -0.607806 c 0,-1.117395 0.08663,-2.438847 -0.556882,-3.404564 -0.568135,-0.866419 -1.6493,-1.222153 -2.601062,-1.222153 -1.768534,0 -3.34358,0.918796 -3.726086,2.822952 -0.08221,0.42448 -0.383639,0.839139 -0.806644,0.860963 l -4.494483,-0.48777 c -0.378003,-0.08839 -0.794265,-0.39829 -0.691887,-0.985359 1.038394,-5.518233 5.960389,-7.187779 10.36261,-7.187779 2.25569,0 5.203252,0.607802 6.978541,2.339548 2.255677,2.135492 2.039662,4.98354 2.039662,8.084753 v 7.323083 c 0,2.204242 0.896655,3.168865 1.747171,4.359373 0.298129,0.421205 0.362251,0.934071 -0.01155,1.24943 -0.94728,0.808595 -2.628062,2.287177 -3.552828,3.12085 l -0.0169,-0.01638"
     id="path3" />
  <path
     style="fill:#ffffff;fill-rule:evenodd;stroke-width:1.10801"
     d="m 34.580145,27.767368 c 0,1.836501 0.04828,3.363095 -0.866268,4.990083 -0.734639,1.321461 -1.903545,2.135494 -3.206327,2.135494 -1.779793,0 -2.812558,-1.373823 -2.812558,-3.404561 0,-4.007995 3.53821,-4.736934 6.886271,-4.736934 v 1.018105 m 4.672245,11.456581 c -0.302638,0.278257 -0.745892,0.300074 -1.092413,0.115662 -1.535654,-1.295264 -1.812409,-1.898701 -2.66068,-3.137223 -2.542553,2.634183 -4.338096,3.420934 -7.637799,3.420934 -3.899337,0 -6.936909,-2.438836 -6.936909,-7.323091 0,-3.814852 2.03968,-6.41629 4.937738,-7.686457 2.509938,-1.122852 6.025652,-1.321449 8.713325,-1.632443 v -0.607802 c 0,-1.117395 0.08663,-2.438847 -0.556882,-3.404566 -0.568135,-0.866418 -1.6493,-1.22215 -2.601062,-1.22215 -1.768534,0 -3.34358,0.918796 -3.726086,2.822951 -0.08221,0.424478 -0.383639,0.839138 -0.806644,0.860962 l -4.494483,-0.48777 c -0.378003,-0.0884 -0.794265,-0.398289 -0.691887,-0.985359 1.038394,-5.518233 5.960389,-7.187779 10.36261,-7.187779 2.25569,0 5.203252,0.607802 6.978541,2.339547 2.255677,2.135492 2.039662,4.983542 2.039662,8.084751 v 7.323091 c 0,2.204235 0.896655,3.168861 1.747171,4.359375 0.298129,0.421206 0.362251,0.934068 -0.01155,1.249427 -0.94728,0.808582 -2.628062,2.287175 -3.552828,3.12085 l -0.0169,-0.01638"
     id="path4" />
  <path
     style="opacity:0.2;stroke-width:1.10801"
     d="m 47.361569,40.71017 c -1.258904,0.0185 -2.747324,0.298999 -3.872348,1.085751 -0.352123,0.242251 -0.29138,0.577246 0.09788,0.530323 1.265654,-0.152758 4.093965,-0.488863 4.596854,0.151679 0.508521,0.639456 -0.562509,3.28453 -1.032772,4.465219 -0.145131,0.356825 0.163127,0.503048 0.487134,0.230245 2.119544,-1.755749 2.661808,-5.439666 2.227546,-5.969994 -0.212628,-0.265152 -1.244268,-0.510673 -2.504292,-0.493223 z m -33.094886,0.708193 c -0.263271,0.03489 -0.379121,0.350277 -0.103528,0.597985 4.698111,4.222977 10.910504,6.755657 17.805795,6.755657 4.920854,0 10.629236,-1.542965 14.57357,-4.428109 l 0.002,-0.004 c 0.654764,-0.483397 0.09682,-1.197053 -0.573767,-0.918796 -4.413474,1.868148 -9.221838,2.765119 -13.585806,2.765119 -6.474521,0 -12.748786,-1.762295 -17.817033,-4.695463 -0.110286,-0.06442 -0.214881,-0.08183 -0.302632,-0.0709 z"
     id="path5" />
  <path
     style="fill:#ff9900;stroke-width:1.10801"
     d="m 47.361569,39.618967 c -1.258904,0.0185 -2.747324,0.298986 -3.872348,1.085752 -0.352123,0.242244 -0.29138,0.577245 0.09788,0.530322 1.265654,-0.152764 4.093965,-0.488862 4.596854,0.15168 0.508521,0.639452 -0.562509,3.284529 -1.032772,4.465222 -0.145131,0.356822 0.163127,0.503038 0.487134,0.230242 2.119544,-1.755755 2.661808,-5.439672 2.227546,-5.969995 -0.212628,-0.265164 -1.244268,-0.510686 -2.504292,-0.493223 z m -33.094886,0.708187 c -0.263271,0.03489 -0.379121,0.350278 -0.103528,0.597979 4.698111,4.222981 10.910504,6.75567 17.805795,6.75567 4.920854,0 10.629236,-1.542966 14.57357,-4.428113 l 0.002,-0.004 c 0.654764,-0.483402 0.09682,-1.197053 -0.573767,-0.918795 -4.413474,1.868145 -9.221838,2.765118 -13.585806,2.765118 -6.474521,0 -12.748786,-1.762291 -17.817033,-4.695463 -0.110286,-0.06442 -0.214881,-0.08181 -0.302632,-0.0709 z"
     id="path6" />
</svg>
