<?xml version="1.0" encoding="UTF-8" standalone="no"?>
<svg
   width="64"
   height="64"
   version="1.1"
   id="svg23117"
   sodipodi:docname="diaspora22.svg"
   inkscape:version="1.2.1 (9c6d41e410, 2022-07-14)"
   xmlns:inkscape="http://www.inkscape.org/namespaces/inkscape"
   xmlns:sodipodi="http://sodipodi.sourceforge.net/DTD/sodipodi-0.dtd"
   xmlns:xlink="http://www.w3.org/1999/xlink"
   xmlns="http://www.w3.org/2000/svg"
   xmlns:svg="http://www.w3.org/2000/svg">
  <sodipodi:namedview
     id="namedview23119"
     pagecolor="#ffffff"
     bordercolor="#666666"
     borderopacity="1.0"
     inkscape:showpageshadow="2"
     inkscape:pageopacity="0.0"
     inkscape:pagecheckerboard="0"
     inkscape:deskcolor="#d1d1d1"
     showgrid="false"
     inkscape:zoom="4.9166667"
     inkscape:cx="24.508474"
     inkscape:cy="24.508474"
     inkscape:window-width="1920"
     inkscape:window-height="998"
     inkscape:window-x="0"
     inkscape:window-y="0"
     inkscape:window-maximized="1"
     inkscape:current-layer="svg23117" />
  <defs
     id="defs23105">
    <linearGradient
       id="a"
       y1="547.63397"
       y2="499.67899"
       x2="388.86499"
       gradientUnits="userSpaceOnUse"
       gradientTransform="translate(-453.04388,-539.81483)"
       x1="428.81601">
      <stop
         stop-color="#2a2c2f"
         id="stop23090" />
      <stop
         offset="1"
         stop-color="#536161"
         id="stop23092" />
    </linearGradient>
    <linearGradient
       id="b"
       y1="44"
       y2="12"
       x2="14"
       gradientUnits="userSpaceOnUse"
       x1="36"
       gradientTransform="translate(-68.473879,-40.014831)">
      <stop
         stop-color="#536161"
         style="stop-color:#bfc9c9;stop-opacity:1"
         id="stop23095" />
      <stop
         offset="1"
         stop-color="#f4f5f5"
         style="stop-color:#fbfbfb;stop-opacity:1"
         id="stop23097" />
    </linearGradient>
    <linearGradient
       id="c"
       y1="527.01398"
       x1="406.50101"
       y2="539.82501"
       x2="419.974"
       gradientUnits="userSpaceOnUse"
       gradientTransform="translate(-453.04388,-539.81483)">
      <stop
         stop-color="#292c2f"
         id="stop23100" />
      <stop
         offset="1"
         stop-opacity="0"
         id="stop23102" />
    </linearGradient>
    <linearGradient
       inkscape:collect="always"
       xlink:href="#linearGradient22063"
       id="linearGradient22065"
       x1="-14"
       y1="6"
       x2="-14"
       y2="-9.999999"
       gradientUnits="userSpaceOnUse"
       gradientTransform="matrix(3.6250002,0,0,3.6250002,82.750005,39.249999)" />
    <linearGradient
       inkscape:collect="always"
       id="linearGradient22063">
      <stop
         style="stop-color:#292f3a;stop-opacity:1;"
         offset="0"
         id="stop22059" />
      <stop
         style="stop-color:#535e75;stop-opacity:1;"
         offset="1"
         id="stop22061" />
    </linearGradient>
    <linearGradient
       gradientTransform="matrix(1.4175135,0,0,1.4175135,-0.97261301,0.3330346)"
       id="b-3"
       y1="23.774559"
       x1="22.540125"
       y2="35.804409"
       x2="35.770538"
       gradientUnits="userSpaceOnUse">
      <stop
         stop-color="#292c2f"
         id="stop12" />
      <stop
         offset="1"
         stop-color="#292c2f"
         stop-opacity="0"
         id="stop14" />
    </linearGradient>
    <linearGradient
       xlink:href="#linearGradient4564"
       id="linearGradient4570"
       x1="18.653"
       y1="20.191"
       x2="7.4320002"
       y2="8.5249996"
       gradientUnits="userSpaceOnUse"
       gradientTransform="matrix(0.99999999,0,0,1.1578948,8.0000025,3.1451316)" />
    <linearGradient
       id="linearGradient4564">
      <stop
         style="stop-color:#ffa92d;stop-opacity:1;"
         offset="0"
         id="stop4566" />
      <stop
         style="stop-color:#ffc169;stop-opacity:1"
         offset="1"
         id="stop4568" />
    </linearGradient>
    <linearGradient
       xlink:href="#linearGradient4574"
       id="linearGradient4580"
       x1="28.615"
       y1="21.502001"
       x2="39.939999"
       y2="10.118"
       gradientUnits="userSpaceOnUse"
       gradientTransform="matrix(0.99999999,0,0,1.1578948,8.0000025,3.1451316)" />
    <linearGradient
       id="linearGradient4574">
      <stop
         style="stop-color:#bf4231;stop-opacity:1;"
         offset="0"
         id="stop4576" />
      <stop
         style="stop-color:#f58273;stop-opacity:1"
         offset="1"
         id="stop4578" />
    </linearGradient>
    <linearGradient
       xlink:href="#linearGradient4590"
       id="linearGradient4596"
       x1="33.241001"
       y1="30.191"
       x2="40.393002"
       y2="37.416"
       gradientUnits="userSpaceOnUse"
       gradientTransform="matrix(0.99999999,0,0,1.1578948,8.0000025,3.1451316)" />
    <linearGradient
       id="linearGradient4590">
      <stop
         id="stop4594"
         offset="0"
         style="stop-color:#54d883;stop-opacity:1" />
      <stop
         id="stop4592"
         offset="1"
         style="stop-color:#3bb566;stop-opacity:1;" />
    </linearGradient>
    <linearGradient
       xlink:href="#linearGradient4582"
       id="linearGradient4588"
       x1="19.830999"
       y1="26.561001"
       x2="9.6899996"
       y2="37.881001"
       gradientUnits="userSpaceOnUse"
       gradientTransform="matrix(0.99999999,0,0,1.1578948,8.0000025,3.1451316)" />
    <linearGradient
       id="linearGradient4582">
      <stop
         id="stop4586"
         offset="0"
         style="stop-color:#7cbcec;stop-opacity:1" />
      <stop
         id="stop4584"
         offset="1"
         style="stop-color:#3b85b5;stop-opacity:1;" />
    </linearGradient>
    <linearGradient
       xlink:href="#linearGradient4626"
       id="linearGradient4632"
       x1="23.693001"
       y1="21.277"
       x2="34.937"
       y2="32.521999"
       gradientUnits="userSpaceOnUse"
       gradientTransform="matrix(1.1,0,0,1.1,5.6000025,4.5346056)" />
    <linearGradient
       id="linearGradient4626">
      <stop
         style="stop-color:#000000;stop-opacity:1;"
         offset="0"
         id="stop4628" />
      <stop
         style="stop-color:#000000;stop-opacity:0;"
         offset="1"
         id="stop4630" />
    </linearGradient>
    <linearGradient
       xlink:href="#linearGradient4598"
       id="linearGradient4604"
       x1="27.197001"
       y1="33.474998"
       x2="21.365999"
       y2="14.901"
       gradientUnits="userSpaceOnUse"
       gradientTransform="matrix(1.1,0,0,1.32,5.6000025,-0.74539444)" />
    <linearGradient
       id="linearGradient4598">
      <stop
         style="stop-color:#172525;stop-opacity:1;"
         offset="0"
         id="stop4600" />
      <stop
         style="stop-color:#334545;stop-opacity:1"
         offset="1"
         id="stop4602" />
    </linearGradient>
    <linearGradient
       xlink:href="#linearGradient4656"
       id="linearGradient4662"
       x1="19.025"
       y1="15.232"
       x2="29.945999"
       y2="31.764999"
       gradientUnits="userSpaceOnUse"
       gradientTransform="matrix(1.1,0,0,1.1,6.7000025,4.5346056)" />
    <linearGradient
       id="linearGradient4656">
      <stop
         style="stop-color:#ffffff;stop-opacity:1;"
         offset="0"
         id="stop4658" />
      <stop
         style="stop-color:#536161;stop-opacity:1"
         offset="1"
         id="stop4660" />
    </linearGradient>
  </defs>
  <path
     d="M 3,10.25 C 3,6.245825 6.245938,3 10.25,3 h 43.500005 c 4.00417,0 7.25,3.245825 7.25,7.25 v 43.5 c 0,4.004173 -3.24583,7.25 -7.25,7.25 H 10.25 C 6.245938,61 3,57.754173 3,53.75 Z"
     id="path736"
     style="fill:#606c86;fill-opacity:1;stroke-width:3.625" />
  <path
     d="M 3,9.796875 C 3,6.043188 6.245938,3 10.25,3 h 43.500005 c 4.00417,0 7.25,3.043188 7.25,6.796875 v 40.781249 c 0,3.753693 -3.24583,6.796876 -7.25,6.796876 H 10.25 C 6.245938,57.375 3,54.331817 3,50.578124 Z"
     id="path738"
     style="fill:url(#linearGradient22065);fill-opacity:1;stroke-width:3.625" />
  <path
     style="fill:url(#linearGradient4570);fill-opacity:1;stroke-width:1.1"
     id="rect4203"
     d="m 32.000002,8.9346056 c -12.188,0 -21.999999,9.8120004 -21.999999,22.0000004 h 22 z" />
  <path
     style="fill:url(#linearGradient4580);fill-opacity:1;stroke-width:1.1"
     id="path4556"
     d="m 32.000002,8.9346056 c 12.188001,0 22,9.8120004 22,22.0000004 h -22 z" />
  <path
     style="fill:url(#linearGradient4596);fill-opacity:1;stroke-width:1.1"
     id="path4564"
     d="m 32.000002,52.934606 c 12.188001,0 22,-9.812 22,-22 h -22 z" />
  <path
     style="fill:url(#linearGradient4588);fill-opacity:1;stroke-width:1.1"
     id="path4566"
     d="m 32.000002,52.934606 c -12.188,0 -21.999999,-9.812 -21.999999,-22 h 22 z" />
  <path
     style="opacity:0.2;fill:url(#linearGradient4632);fill-opacity:1;stroke-width:1.1"
     d="m 33.426565,20.387925 -1.426562,1.89922 v 8.647461 h -6.492578 l -2.857422,3.807032 -0.476953,5.070311 12.905664,12.905664 C 44.766951,51.371934 52.393386,43.767951 53.772269,34.090661 L 40.615237,20.933629 Z"
     id="path4598" />
  <circle
     id="path4181"
     cx="32.000004"
     cy="30.934605"
     style="fill:url(#linearGradient4604);fill-opacity:1;stroke-width:1.1"
     r="13.2" />
  <path
     style="color:#4d4d4d;fill:url(#linearGradient4662);fill-opacity:1;stroke:none;stroke-width:1.1"
     d="M 34.015236,21.780113 30.900002,22.0723 v 12.033399 l 3.080859,-0.421093 v -5.14336 l 4.109961,5.69336 3.21836,-0.971094 -4.210937,-5.465625 4.245312,-5.177735 -3.28711,-0.711132 -4.075586,5.175586 z m -7.5625,3.297852 c -0.03484,0 -0.07685,0.02008 -0.103124,0.03438 l -1.198828,1.164453 c -0.05104,0.0506 -0.07179,0.134399 -0.03437,0.193359 l 1.405077,2.2 c -0.252032,0.40029 -0.43787,0.838399 -0.582227,1.29336 l -2.601757,0.517774 c -0.07256,0.0187 -0.1375,0.06054 -0.1375,0.131054 v 1.615625 c 0,0.0682 0.06767,0.144523 0.1375,0.161133 l 2.533007,0.584375 c 0.134913,0.52745 0.340076,1.027579 0.616602,1.486719 l -1.471679,2.103321 c -0.04084,0.0594 -0.01958,0.143749 0.03437,0.193359 l 1.196679,1.132227 c 0.05104,0.0462 0.143965,0.07178 0.20625,0.03437 l 2.294532,-1.327736 c 0.451088,0.24585 0.923117,0.451107 1.437304,0.582227 l 0.547852,2.427734 c 0.01572,0.0704 0.06361,0.128907 0.1375,0.128907 h 1.712305 c 0.07216,0 0.15462,-0.06192 0.171875,-0.128907 l 0.614453,-2.427734 c 0.530015,-0.13519 1.046129,-0.357273 1.508202,-0.614452 l 2.260157,1.424413 c 0.06219,0.0374 0.151217,0.01732 0.204102,-0.03438 l 1.198827,-1.132227 c 0.05135,-0.0506 0.07201,-0.134619 0.03438,-0.193359 l -0.820702,-1.293359 -0.275,0.09668 c -0.03909,0.0187 -0.08018,7.73e-4 -0.103125,-0.03223 0,0 -0.518297,-0.741067 -1.198829,-1.682227 -0.81355,1.50436 -2.471439,2.522266 -4.382812,2.522266 -2.715594,0 -4.930664,-2.059837 -4.930664,-4.625586 0,-1.887271 1.200522,-3.511768 2.911132,-4.238868 V 26.17796 c -0.311349,0.103405 -0.603573,0.209136 -0.889452,0.356646 h -0.03437 l -2.294532,-1.424415 c -0.0312,-0.0187 -0.0682,-0.03337 -0.103125,-0.03007 v -0.0022 z"
     id="path4653" />
  <path
     style="opacity:0.15;fill:#000000;fill-opacity:1;stroke-width:1.1"
     d="m 10.000003,30.934606 c 0,12.188 9.812,22 22,22 12.188,0 22,-9.812 22,-22 h -0.02793 c -0.570036,11.672399 -10.153411,20.9 -21.972071,20.9 -11.81866,0 -21.402035,-9.227601 -21.97207,-20.9 z"
     id="path4634" />
</svg>
