<?xml version="1.0" encoding="UTF-8" standalone="no"?>
<svg
   width="64"
   height="64"
   version="1.1"
   id="svg23117"
   sodipodi:docname="bluegriffon.svg"
   inkscape:version="1.2.1 (9c6d41e410, 2022-07-14)"
   xmlns:inkscape="http://www.inkscape.org/namespaces/inkscape"
   xmlns:sodipodi="http://sodipodi.sourceforge.net/DTD/sodipodi-0.dtd"
   xmlns:xlink="http://www.w3.org/1999/xlink"
   xmlns="http://www.w3.org/2000/svg"
   xmlns:svg="http://www.w3.org/2000/svg">
  <sodipodi:namedview
     id="namedview23119"
     pagecolor="#ffffff"
     bordercolor="#666666"
     borderopacity="1.0"
     inkscape:showpageshadow="2"
     inkscape:pageopacity="0.0"
     inkscape:pagecheckerboard="0"
     inkscape:deskcolor="#d1d1d1"
     showgrid="false"
     inkscape:zoom="4.9166667"
     inkscape:cx="24.508474"
     inkscape:cy="24.508474"
     inkscape:window-width="1920"
     inkscape:window-height="1002"
     inkscape:window-x="0"
     inkscape:window-y="0"
     inkscape:window-maximized="1"
     inkscape:current-layer="svg23117" />
  <defs
     id="defs23105">
    <linearGradient
       id="a"
       y1="547.63397"
       y2="499.67899"
       x2="388.86499"
       gradientUnits="userSpaceOnUse"
       gradientTransform="translate(-453.04388,-539.81483)"
       x1="428.81601">
      <stop
         stop-color="#2a2c2f"
         id="stop23090" />
      <stop
         offset="1"
         stop-color="#536161"
         id="stop23092" />
    </linearGradient>
    <linearGradient
       id="b"
       y1="44"
       y2="12"
       x2="14"
       gradientUnits="userSpaceOnUse"
       x1="36"
       gradientTransform="translate(-68.473879,-40.014831)">
      <stop
         stop-color="#536161"
         style="stop-color:#bfc9c9;stop-opacity:1"
         id="stop23095" />
      <stop
         offset="1"
         stop-color="#f4f5f5"
         style="stop-color:#fbfbfb;stop-opacity:1"
         id="stop23097" />
    </linearGradient>
    <linearGradient
       id="c"
       y1="527.01398"
       x1="406.50101"
       y2="539.82501"
       x2="419.974"
       gradientUnits="userSpaceOnUse"
       gradientTransform="translate(-453.04388,-539.81483)">
      <stop
         stop-color="#292c2f"
         id="stop23100" />
      <stop
         offset="1"
         stop-opacity="0"
         id="stop23102" />
    </linearGradient>
    <linearGradient
       inkscape:collect="always"
       xlink:href="#linearGradient22063"
       id="linearGradient22065"
       x1="-14"
       y1="6"
       x2="-14"
       y2="-9.999999"
       gradientUnits="userSpaceOnUse"
       gradientTransform="matrix(3.6250002,0,0,3.6250002,82.750005,39.249999)" />
    <linearGradient
       inkscape:collect="always"
       id="linearGradient22063">
      <stop
         style="stop-color:#292f3a;stop-opacity:1;"
         offset="0"
         id="stop22059" />
      <stop
         style="stop-color:#535e75;stop-opacity:1;"
         offset="1"
         id="stop22061" />
    </linearGradient>
    <linearGradient
       gradientTransform="matrix(1.4175135,0,0,1.4175135,-0.97261301,0.3330346)"
       id="b-3"
       y1="23.774559"
       x1="22.540125"
       y2="35.804409"
       x2="35.770538"
       gradientUnits="userSpaceOnUse">
      <stop
         stop-color="#292c2f"
         id="stop12" />
      <stop
         offset="1"
         stop-color="#292c2f"
         stop-opacity="0"
         id="stop14" />
    </linearGradient>
    <linearGradient
       xlink:href="#linearGradient4564"
       id="linearGradient4570"
       x1="18.653"
       y1="20.191"
       x2="7.4320002"
       y2="8.5249996"
       gradientUnits="userSpaceOnUse"
       gradientTransform="matrix(0.99999999,0,0,1.1578948,8.0000025,3.1451316)" />
    <linearGradient
       id="linearGradient4564">
      <stop
         style="stop-color:#ffa92d;stop-opacity:1;"
         offset="0"
         id="stop4566" />
      <stop
         style="stop-color:#ffc169;stop-opacity:1"
         offset="1"
         id="stop4568" />
    </linearGradient>
    <linearGradient
       xlink:href="#linearGradient4574"
       id="linearGradient4580"
       x1="28.615"
       y1="21.502001"
       x2="39.939999"
       y2="10.118"
       gradientUnits="userSpaceOnUse"
       gradientTransform="matrix(0.99999999,0,0,1.1578948,8.0000025,3.1451316)" />
    <linearGradient
       id="linearGradient4574">
      <stop
         style="stop-color:#bf4231;stop-opacity:1;"
         offset="0"
         id="stop4576" />
      <stop
         style="stop-color:#f58273;stop-opacity:1"
         offset="1"
         id="stop4578" />
    </linearGradient>
    <linearGradient
       xlink:href="#linearGradient4590"
       id="linearGradient4596"
       x1="33.241001"
       y1="30.191"
       x2="40.393002"
       y2="37.416"
       gradientUnits="userSpaceOnUse"
       gradientTransform="matrix(0.99999999,0,0,1.1578948,8.0000025,3.1451316)" />
    <linearGradient
       id="linearGradient4590">
      <stop
         id="stop4594"
         offset="0"
         style="stop-color:#54d883;stop-opacity:1" />
      <stop
         id="stop4592"
         offset="1"
         style="stop-color:#3bb566;stop-opacity:1;" />
    </linearGradient>
    <linearGradient
       xlink:href="#linearGradient4582"
       id="linearGradient4588"
       x1="19.830999"
       y1="26.561001"
       x2="9.6899996"
       y2="37.881001"
       gradientUnits="userSpaceOnUse"
       gradientTransform="matrix(0.99999999,0,0,1.1578948,8.0000025,3.1451316)" />
    <linearGradient
       id="linearGradient4582">
      <stop
         id="stop4586"
         offset="0"
         style="stop-color:#7cbcec;stop-opacity:1" />
      <stop
         id="stop4584"
         offset="1"
         style="stop-color:#3b85b5;stop-opacity:1;" />
    </linearGradient>
    <linearGradient
       xlink:href="#linearGradient4626"
       id="linearGradient4632"
       x1="23.693001"
       y1="21.277"
       x2="34.937"
       y2="32.521999"
       gradientUnits="userSpaceOnUse"
       gradientTransform="matrix(1.1,0,0,1.1,5.6000025,4.5346056)" />
    <linearGradient
       id="linearGradient4626">
      <stop
         style="stop-color:#000000;stop-opacity:1;"
         offset="0"
         id="stop4628" />
      <stop
         style="stop-color:#000000;stop-opacity:0;"
         offset="1"
         id="stop4630" />
    </linearGradient>
    <linearGradient
       xlink:href="#linearGradient4598"
       id="linearGradient4604"
       x1="27.197001"
       y1="33.474998"
       x2="21.365999"
       y2="14.901"
       gradientUnits="userSpaceOnUse"
       gradientTransform="matrix(1.1,0,0,1.32,5.6000025,-0.74539444)" />
    <linearGradient
       id="linearGradient4598">
      <stop
         style="stop-color:#172525;stop-opacity:1;"
         offset="0"
         id="stop4600" />
      <stop
         style="stop-color:#334545;stop-opacity:1"
         offset="1"
         id="stop4602" />
    </linearGradient>
    <linearGradient
       xlink:href="#linearGradient4656"
       id="linearGradient4662"
       x1="19.025"
       y1="15.232"
       x2="29.945999"
       y2="31.764999"
       gradientUnits="userSpaceOnUse"
       gradientTransform="matrix(1.1,0,0,1.1,6.7000025,4.5346056)" />
    <linearGradient
       id="linearGradient4656">
      <stop
         style="stop-color:#ffffff;stop-opacity:1;"
         offset="0"
         id="stop4658" />
      <stop
         style="stop-color:#536161;stop-opacity:1"
         offset="1"
         id="stop4660" />
    </linearGradient>
    <linearGradient
       id="d"
       gradientTransform="matrix(2.114694,2.114694,-2.114694,2.114694,3.2088125,-828.15895)"
       gradientUnits="userSpaceOnUse"
       x1="210.5"
       x2="210.5"
       y1="188"
       y2="193.5">
      <stop
         offset="0"
         stop-color="#9b9ea2"
         id="stop17" />
      <stop
         offset="1"
         stop-color="#1a1b1e"
         id="stop19" />
    </linearGradient>
    <linearGradient
       id="a-3"
       gradientTransform="matrix(3.4959872,0,0,3.4959871,1.30074,3.299862)"
       gradientUnits="userSpaceOnUse"
       x1="8.5"
       x2="0.5"
       y1="7.6373668"
       y2="-0.371815">
      <stop
         offset="0"
         stop-color="#4f5356"
         id="stop2" />
      <stop
         offset="1"
         stop-color="#9b9ea2"
         stop-opacity="1"
         id="stop4" />
    </linearGradient>
    <radialGradient
       id="b-6"
       cx="16"
       cy="17"
       gradientUnits="userSpaceOnUse"
       r="11">
      <stop
         offset="0"
         stop-color="#3dd425"
         stop-opacity=".954751"
         id="stop7" />
      <stop
         offset="1"
         stop-color="#59f07c"
         id="stop9" />
    </radialGradient>
    <linearGradient
       id="c-7"
       gradientUnits="userSpaceOnUse"
       x1="14.541744"
       x2="26.541744"
       y1="16"
       y2="28"
       gradientTransform="matrix(1.5,0,0,1.5,8.0000025,7.0414438)">
      <stop
         offset="0"
         id="stop12-5" />
      <stop
         offset="1"
         stop-opacity="0"
         id="stop14-3" />
    </linearGradient>
    <linearGradient
       xlink:href="#linearGradient564"
       id="linearGradient4309"
       x1="7.6230001"
       y1="16.497"
       x2="46"
       y2="40"
       gradientUnits="userSpaceOnUse"
       gradientTransform="matrix(1.1277754,0,0,1.1277754,4.5436767,1.4778)" />
    <linearGradient
       id="linearGradient564">
      <stop
         style="stop-color:#5e98d7;stop-opacity:1"
         offset="0"
         id="stop223" />
      <stop
         style="stop-color:#3363ac;stop-opacity:1"
         offset="1"
         id="stop225" />
    </linearGradient>
    <linearGradient
       xlink:href="#linearGradient4626"
       id="linearGradient4419"
       x1="4"
       y1="29"
       x2="15.409"
       y2="40.409"
       gradientUnits="userSpaceOnUse"
       gradientTransform="matrix(1.1277754,0,0,1.1277754,4.5436767,3.7338968)" />
    <linearGradient
       xlink:href="#linearGradient4626"
       id="linearGradient4407"
       x1="10"
       y1="8"
       x2="33.004002"
       y2="31.004"
       gradientUnits="userSpaceOnUse"
       gradientTransform="matrix(1.1277754,0,0,1.1277754,4.5436767,3.7338968)" />
    <linearGradient
       x1="27.719999"
       y1="14.786"
       x2="27.719999"
       y2="24.357"
       id="linearGradient3432"
       xlink:href="#linearGradient4321"
       gradientUnits="userSpaceOnUse"
       gradientTransform="matrix(1.0609217,0,0,1.4140536,-9.076381,-2.5141373)"
       spreadMethod="pad" />
    <linearGradient
       id="linearGradient4321">
      <stop
         offset="0"
         style="stop-color:#ffffff;stop-opacity:1"
         id="stop213" />
      <stop
         offset="1"
         style="stop-color:#b1b1b1;stop-opacity:1"
         id="stop215" />
    </linearGradient>
    <linearGradient
       xlink:href="#linearGradient4192"
       id="linearGradient4333"
       x1="17"
       y1="18"
       x2="11.574"
       y2="9.3629999"
       gradientUnits="userSpaceOnUse"
       gradientTransform="matrix(1.1277754,0,0,1.1277754,4.5436767,1.4778)" />
    <linearGradient
       id="linearGradient4192">
      <stop
         style="stop-color:#44a3c8;stop-opacity:1"
         offset="0"
         id="stop198" />
      <stop
         style="stop-color:#8dcdda;stop-opacity:1"
         offset="1"
         id="stop200" />
    </linearGradient>
    <linearGradient
       xlink:href="#linearGradient4313"
       id="linearGradient4319"
       x1="12"
       y1="18"
       x2="14"
       y2="20"
       gradientUnits="userSpaceOnUse"
       gradientTransform="matrix(1.1277754,0,0,1.1277754,5.1075644,1.5905776)" />
    <linearGradient
       id="linearGradient4313">
      <stop
         style="stop-color:#ffffff;stop-opacity:1;"
         offset="0"
         id="stop218" />
      <stop
         style="stop-color:#ffffff;stop-opacity:0;"
         offset="1"
         id="stop220" />
    </linearGradient>
    <linearGradient
       xlink:href="#linearGradient4192"
       id="linearGradient4350"
       x1="13"
       y1="38"
       x2="4"
       y2="30"
       gradientUnits="userSpaceOnUse"
       gradientTransform="matrix(1.1277754,0,0,1.1277754,4.5436767,1.4778)" />
    <linearGradient
       gradientTransform="matrix(0.33710364,0,0,0.33162938,257.3899,363.04509)"
       xlink:href="#linearGradient3347"
       id="linearGradient3353"
       x1="376.91901"
       y1="410.05899"
       x2="528.57098"
       y2="561.711"
       gradientUnits="userSpaceOnUse" />
    <linearGradient
       id="linearGradient3347">
      <stop
         style="stop-color:#006680;stop-opacity:1;"
         offset="0"
         id="stop215-3" />
      <stop
         offset=".252"
         style="stop-color:#80b3ff;stop-opacity:1"
         id="stop217" />
      <stop
         style="stop-color:#0066ff;stop-opacity:1"
         offset=".459"
         id="stop219" />
      <stop
         offset=".899"
         style="stop-color:#002255;stop-opacity:1"
         id="stop221" />
      <stop
         style="stop-color:#006680;stop-opacity:0;"
         offset="1"
         id="stop223-6" />
    </linearGradient>
  </defs>
  <path
     d="M 3,10.25 C 3,6.245825 6.245938,3 10.25,3 h 43.500005 c 4.00417,0 7.25,3.245825 7.25,7.25 v 43.5 c 0,4.004173 -3.24583,7.25 -7.25,7.25 H 10.25 C 6.245938,61 3,57.754173 3,53.75 Z"
     id="path736"
     style="fill:#606c86;fill-opacity:1;stroke-width:3.625" />
  <path
     d="M 3,9.796875 C 3,6.043188 6.245938,3 10.25,3 h 43.500005 c 4.00417,0 7.25,3.043188 7.25,6.796875 v 40.781249 c 0,3.753693 -3.24583,6.796876 -7.25,6.796876 H 10.25 C 6.245938,57.375 3,54.331817 3,50.578124 Z"
     id="path738"
     style="fill:url(#linearGradient22065);fill-opacity:1;stroke-width:3.625" />
  <g
     transform="matrix(1.1000009,0,0,1.1000009,-417.42893,-544.17825)"
     id="g230">
    <path
       style="fill:url(#linearGradient3353);fill-opacity:1"
       d="m 428.57117,503.80286 c 0,-0.0562 -0.6399,0.38104 -1.42246,0.97118 -7.36151,5.55155 -16.563,10.40663 -21.7151,11.4582 l -0.97136,0.19856 -0.36828,0.96714 c -1.28309,3.37312 -4.93047,5.7652 -10.64874,6.98326 -0.90345,0.19249 -1.87267,0.46695 -2.1536,0.60977 -0.86789,0.44125 -1.87632,1.45083 -2.33223,2.33539 -0.36832,0.71434 -0.4253,1.02245 -0.36966,1.99078 0.0468,0.81502 0.15926,1.24668 0.38952,1.49682 0.30965,0.33644 1.08152,0.51291 0.88648,0.20258 -0.15336,-0.24405 0.5733,-1.02201 1.29175,-1.3824 1.16332,-0.58348 2.97064,-0.85926 4.86161,-0.83384 0.33764,0.006 0.74383,0.0207 1.024,0.0424 1.41606,0.1002 2.82381,0.36707 3.99226,0.80359 0.6283,0.23474 1.16039,0.51628 1.59225,0.8332 1.61226,0.82581 2.96858,1.90031 4.10792,3.14098 9.7e-4,-0.0412 0.005,-0.0804 0.005,-0.12243 0.007,-0.81564 0.0356,-1.48302 0.0615,-1.48337 0.026,-3.2e-4 0.12875,0.20861 0.22794,0.46506 0.24052,0.62104 0.36584,1.27477 0.3895,1.93224 2.16255,2.68559 3.44138,5.99421 4.19215,9.18813 1.00073,-1.7048 1.94876,-3.95944 1.95299,-4.8801 0.006,-1.36294 0.9667,1.31235 1.26983,3.53741 l 0.20949,1.54055 0.37992,-0.93281 c 0.63507,-1.55978 0.93332,-3.1907 0.9351,-5.11161 9.6e-4,-0.99294 -0.0494,-1.96566 -0.11297,-2.16175 -0.0632,-0.1961 -0.0461,-0.3567 0.0386,-0.3567 0.20796,0 1.86197,1.65707 2.28568,2.28962 0.39983,0.59683 0.43017,0.33618 0.10195,-0.87561 -0.86789,-3.20474 -3.35718,-6.22402 -6.90909,-8.38046 l -1.37251,-0.83319 0.68317,-0.02 c 0.37544,-0.0109 0.91544,-0.0718 1.20003,-0.13525 l 0.51748,-0.11512 -0.69,-0.23085 -0.69,-0.23153 1.10552,-0.22208 c 0.60819,-0.12215 1.65648,-0.47825 2.32883,-0.79148 l 1.22192,-0.56939 -1.55191,0.0605 -1.55253,0.0605 1.20751,-0.40048 c 1.68002,-0.55746 4.90311,-2.22126 4.69668,-2.42423 -0.0291,-0.029 -0.63253,0.0958 -1.34034,0.27662 -2.0809,0.53127 -2.30057,0.4149 -0.67427,-0.35737 1.58318,-0.7518 3.81131,-2.16633 4.90612,-3.11476 l 0.69003,-0.59764 -1.29309,0.57341 c -1.09849,0.48707 -3.60585,1.28747 -4.03335,1.28747 -0.0721,0 0.36979,-0.25649 0.98163,-0.57003 1.75183,-0.89773 3.33493,-2.08665 5.2929,-3.97352 l 1.81131,-1.74583 -1.46561,0.76119 c -1.38619,0.71948 -4.31196,2.01176 -4.31196,1.90468 0,-0.0272 0.36884,-0.30606 0.81941,-0.61919 1.74836,-1.215 4.84355,-4.42526 6.67564,-6.92338 l 0.66542,-0.90659 -1.63129,1.25316 c -1.74161,1.3385 -5.29873,3.60706 -5.43937,3.46879 -0.0463,-0.0456 0.12677,-0.21943 0.38473,-0.38566 0.7616,-0.49062 4.11395,-4.21368 5.95687,-6.61512 0.94006,-1.22498 1.70932,-2.27316 1.70932,-2.32935 z"
       id="path228" />
  </g>
</svg>
