<?xml version="1.0" encoding="UTF-8" standalone="no"?>
<svg
   width="64"
   height="64"
   version="1.1"
   viewBox="0 0 16.933 16.933"
   id="svg392"
   sodipodi:docname="calligraflow.svg"
   inkscape:version="1.2.1 (9c6d41e410, 2022-07-14)"
   xmlns:inkscape="http://www.inkscape.org/namespaces/inkscape"
   xmlns:sodipodi="http://sodipodi.sourceforge.net/DTD/sodipodi-0.dtd"
   xmlns:xlink="http://www.w3.org/1999/xlink"
   xmlns="http://www.w3.org/2000/svg"
   xmlns:svg="http://www.w3.org/2000/svg"
   xmlns:rdf="http://www.w3.org/1999/02/22-rdf-syntax-ns#"
   xmlns:cc="http://creativecommons.org/ns#"
   xmlns:dc="http://purl.org/dc/elements/1.1/">
  <sodipodi:namedview
     id="namedview394"
     pagecolor="#ffffff"
     bordercolor="#666666"
     borderopacity="1.0"
     inkscape:showpageshadow="2"
     inkscape:pageopacity="0.0"
     inkscape:pagecheckerboard="0"
     inkscape:deskcolor="#d1d1d1"
     showgrid="false"
     inkscape:zoom="3.6875"
     inkscape:cx="32.40678"
     inkscape:cy="32.135593"
     inkscape:window-width="1920"
     inkscape:window-height="1008"
     inkscape:window-x="0"
     inkscape:window-y="0"
     inkscape:window-maximized="1"
     inkscape:current-layer="svg392" />
  <defs
     id="defs370">
    <filter
       id="filter1057"
       x="-0.026999999"
       y="-0.026999999"
       width="1.054"
       height="1.054"
       color-interpolation-filters="sRGB">
      <feGaussianBlur
         stdDeviation="0.61875"
         id="feGaussianBlur349" />
    </filter>
    <linearGradient
       id="linearGradient1053"
       x1="-127"
       x2="-72"
       y1="60"
       y2="5"
       gradientTransform="matrix(0.26458,0,0,0.26458,3.748105,-11.86354)"
       gradientUnits="userSpaceOnUse">
      <stop
         stop-color="#323741"
         offset="0"
         id="stop352" />
      <stop
         stop-color="#465064"
         offset="1"
         id="stop354" />
    </linearGradient>
    <filter
       id="filter957"
       x="-0.06244679"
       y="-0.05773772"
       width="1.1248936"
       height="1.1154754"
       color-interpolation-filters="sRGB">
      <feGaussianBlur
         stdDeviation="0.97449244"
         id="feGaussianBlur357" />
    </filter>
    <linearGradient
       id="linearGradient927"
       x1="22.676"
       x2="23.373"
       y1="47.124"
       y2="5.5176"
       gradientTransform="matrix(0.31633,0,0,0.31633,-30.168695,-10.86469)"
       gradientUnits="userSpaceOnUse">
      <stop
         stop-color="#ff9913"
         offset="0"
         id="stop360" />
      <stop
         stop-color="#faee18"
         offset="1"
         id="stop362" />
    </linearGradient>
    <linearGradient
       id="linearGradient935"
       x1="24.677"
       x2="24.989"
       y1="45.614"
       y2="25.619"
       gradientTransform="matrix(0.31633,0,0,0.31633,-30.168795,-10.86469)"
       gradientUnits="userSpaceOnUse">
      <stop
         stop-color="#fade17"
         offset="0"
         id="stop365" />
      <stop
         stop-color="#fade17"
         stop-opacity="0"
         offset="1"
         id="stop367" />
    </linearGradient>
    <linearGradient
       inkscape:collect="always"
       xlink:href="#linearGradient22063"
       id="linearGradient22065"
       x1="-14"
       y1="6"
       x2="-14"
       y2="-9.999999"
       gradientUnits="userSpaceOnUse"
       gradientTransform="matrix(0.95909574,0,0,0.95909574,21.89384,10.384691)" />
    <linearGradient
       inkscape:collect="always"
       id="linearGradient22063">
      <stop
         style="stop-color:#292f3a;stop-opacity:1;"
         offset="0"
         id="stop22059" />
      <stop
         style="stop-color:#535e75;stop-opacity:1;"
         offset="1"
         id="stop22061" />
    </linearGradient>
    <linearGradient
       id="linearGradient3861"
       x1="23"
       x2="23"
       y1="290.01785"
       y2="188.14763"
       gradientTransform="matrix(0.27951231,0,0,0.2728573,25.148704,-79.150047)"
       gradientUnits="userSpaceOnUse">
      <stop
         stop-color="#eff0f1"
         offset="0"
         id="stop253" />
      <stop
         stop-color="#bdc3c7"
         offset="1"
         id="stop255" />
    </linearGradient>
    <linearGradient
       id="linearGradient1066"
       x1="23.064789"
       x2="23.064789"
       y1="2.9331775"
       y2="-9.4093714"
       gradientUnits="userSpaceOnUse"
       gradientTransform="matrix(1.0564245,0,0,1.0564245,25.148704,-11.228547)">
      <stop
         stop-color="#da4453"
         offset="0"
         id="stop258" />
      <stop
         stop-color="#ed1515"
         offset="1"
         id="stop260" />
    </linearGradient>
    <linearGradient
       id="linearGradient4626">
      <stop
         style="stop-color:#000000;stop-opacity:1;"
         offset="0"
         id="stop4628" />
      <stop
         style="stop-color:#000000;stop-opacity:0;"
         offset="1"
         id="stop4630" />
    </linearGradient>
    <radialGradient
       id="radialGradient1353"
       cx="2.6748774"
       cy="4.5400662"
       r="1.7617654"
       gradientTransform="matrix(3.7078548,0,0,3.4702059,28.197438,3.245035)"
       gradientUnits="userSpaceOnUse"
       xlink:href="#linearGradient4626" />
    <radialGradient
       id="radialGradient1341"
       cx="2.6748774"
       cy="4.5400662"
       r="1.7617654"
       gradientTransform="matrix(0.98103659,0,0,0.91815864,0.28626415,0.85858219)"
       gradientUnits="userSpaceOnUse"
       xlink:href="#linearGradient4626" />
    <radialGradient
       id="radialGradient1345"
       cx="2.6748774"
       cy="4.5400662"
       r="1.7617654"
       gradientTransform="matrix(0.98103659,0,0,0.91815864,2.6715797,0.85858219)"
       gradientUnits="userSpaceOnUse"
       xlink:href="#linearGradient4626" />
    <radialGradient
       id="radialGradient1349"
       cx="2.6748774"
       cy="4.5400662"
       r="1.7617654"
       gradientTransform="matrix(0.98103659,0,0,0.91815864,5.0466293,0.85858219)"
       gradientUnits="userSpaceOnUse"
       xlink:href="#linearGradient4626" />
    <radialGradient
       id="radialGradient1385"
       cx="2.6748774"
       cy="4.5400662"
       r="1.7617654"
       gradientTransform="matrix(3.7078548,0,0,3.4702059,28.197438,12.153046)"
       gradientUnits="userSpaceOnUse"
       xlink:href="#linearGradient4626" />
    <radialGradient
       id="radialGradient1405"
       cx="2.6748774"
       cy="4.5400662"
       r="1.7617654"
       gradientTransform="matrix(3.7078548,0,0,3.4702059,1.0819432,21.211459)"
       gradientUnits="userSpaceOnUse"
       xlink:href="#linearGradient4626" />
    <radialGradient
       id="radialGradient1407"
       cx="2.6748774"
       cy="4.5400662"
       r="1.7617654"
       gradientTransform="matrix(3.7078548,0,0,3.4702059,10.097309,21.211459)"
       gradientUnits="userSpaceOnUse"
       xlink:href="#linearGradient4626" />
    <radialGradient
       id="radialGradient1409"
       cx="2.6748774"
       cy="4.5400662"
       r="1.7617654"
       gradientTransform="matrix(3.7078548,0,0,3.4702059,19.073875,21.211459)"
       gradientUnits="userSpaceOnUse"
       xlink:href="#linearGradient4626" />
    <radialGradient
       id="radialGradient1411"
       cx="2.6748774"
       cy="4.5400662"
       r="1.7617654"
       gradientTransform="matrix(3.7078548,0,0,3.4702059,28.197438,21.211459)"
       gradientUnits="userSpaceOnUse"
       xlink:href="#linearGradient4626" />
    <linearGradient
       id="linearGradient1439"
       x1="23.281746"
       x2="23.281746"
       y1="11.251275"
       y2="2.2961013"
       gradientUnits="userSpaceOnUse">
      <stop
         stop-color="#bdc3c7"
         offset="0"
         id="stop272" />
      <stop
         stop-color="#eff0f1"
         offset="1"
         id="stop274" />
    </linearGradient>
    <linearGradient
       id="linearGradient1441"
       x1="22.997158"
       x2="22.997158"
       y1="25.901901"
       y2="4.0953283"
       gradientTransform="matrix(3.7795276,0,0,3.7795276,-64.000003,0)"
       gradientUnits="userSpaceOnUse">
      <stop
         stop-color="#7f8c8d"
         offset="0"
         id="stop277" />
      <stop
         stop-color="#bdc3c7"
         offset="1"
         id="stop279" />
    </linearGradient>
    <linearGradient
       id="linearGradient1501"
       x1="19.511889"
       x2="19.511889"
       y1="5.8208332"
       y2="2.3392355"
       gradientUnits="userSpaceOnUse">
      <stop
         stop-color="#16a085"
         offset="0"
         id="stop282" />
      <stop
         stop-color="#fff"
         offset="1"
         id="stop284" />
    </linearGradient>
    <linearGradient
       id="linearGradient1509"
       x1="19.511889"
       x2="19.511889"
       y1="5.8208332"
       y2="3.0994468"
       gradientTransform="translate(2.3918707,4.7625003)"
       gradientUnits="userSpaceOnUse"
       xlink:href="#linearGradient1515" />
    <linearGradient
       id="linearGradient1515">
      <stop
         stop-color="#f39c1f"
         offset="0"
         id="stop243" />
      <stop
         stop-color="#fff"
         offset="1"
         id="stop245" />
    </linearGradient>
    <linearGradient
       id="linearGradient1505"
       x1="19.511889"
       x2="19.511889"
       y1="5.8208332"
       y2="3.0994468"
       gradientTransform="translate(4.7625,2.38125)"
       gradientUnits="userSpaceOnUse">
      <stop
         stop-color="#16a085"
         offset="0"
         id="stop287" />
      <stop
         stop-color="#d9faf4"
         offset="1"
         id="stop289" />
    </linearGradient>
    <linearGradient
       id="linearGradient1525"
       x1="19.511889"
       x2="19.511889"
       y1="5.8208332"
       y2="3.0994468"
       gradientTransform="translate(7.143749,-0.03049597)"
       gradientUnits="userSpaceOnUse"
       xlink:href="#linearGradient1515" />
    <linearGradient
       inkscape:collect="always"
       xlink:href="#d-3"
       id="linearGradient829"
       gradientUnits="userSpaceOnUse"
       x1="12"
       y1="15"
       x2="24"
       y2="8"
       gradientTransform="matrix(0.29103858,0,0,0.29103858,1.4815405,1.2697854)" />
    <linearGradient
       id="d-3"
       y1="15"
       x1="12"
       y2="8"
       x2="24"
       gradientUnits="userSpaceOnUse">
      <stop
         stop-color="#2e5d89"
         id="stop229" />
      <stop
         offset="1"
         stop-color="#1b92f4"
         id="stop231" />
    </linearGradient>
    <linearGradient
       inkscape:collect="always"
       xlink:href="#e"
       id="linearGradient442"
       gradientUnits="userSpaceOnUse"
       x1="9.4040003"
       y1="10.361"
       x2="14.756"
       y2="15.713"
       gradientTransform="matrix(0.29103858,0,0,0.29103858,1.4815405,1.2697854)" />
    <linearGradient
       id="e"
       y1="10.361"
       x1="9.4040003"
       y2="15.713"
       x2="14.756"
       gradientUnits="userSpaceOnUse">
      <stop
         id="stop234" />
      <stop
         offset="1"
         stop-opacity="0"
         id="stop236" />
    </linearGradient>
    <linearGradient
       id="a-6"
       y1="37"
       x1="13"
       y2="24"
       x2="8"
       gradientUnits="userSpaceOnUse">
      <stop
         stop-color="#ec4c21"
         id="stop214" />
      <stop
         offset="1"
         stop-color="#ec7b0f"
         id="stop216" />
    </linearGradient>
    <linearGradient
       id="b-7"
       y1="33"
       x1="36"
       y2="40"
       x2="23"
       gradientUnits="userSpaceOnUse">
      <stop
         stop-color="#06a370"
         id="stop219-5" />
      <stop
         offset="1"
         stop-color="#22d1b0"
         id="stop221-3" />
    </linearGradient>
    <linearGradient
       id="c-5"
       y1="12"
       x1="33"
       y2="24"
       x2="38"
       gradientUnits="userSpaceOnUse">
      <stop
         stop-color="#faae2a"
         id="stop224" />
      <stop
         offset="1"
         stop-color="#ffc35a"
         id="stop226" />
    </linearGradient>
    <linearGradient
       inkscape:collect="always"
       xlink:href="#d-3"
       id="linearGradient440"
       gradientUnits="userSpaceOnUse"
       x1="12"
       y1="15"
       x2="24"
       y2="8" />
    <linearGradient
       xlink:href="#e"
       id="f"
       y1="30.280001"
       x1="34.209999"
       y2="35.790001"
       x2="39.723999"
       gradientUnits="userSpaceOnUse" />
    <linearGradient
       xlink:href="#e"
       id="g"
       y1="34.209999"
       x1="17.725"
       y2="41.873001"
       x2="25.386999"
       gradientUnits="userSpaceOnUse" />
  </defs>
  <metadata
     id="metadata372">
    <rdf:RDF>
      <cc:Work
         rdf:about="">
        <dc:format>image/svg+xml</dc:format>
        <dc:type
           rdf:resource="http://purl.org/dc/dcmitype/StillImage" />
      </cc:Work>
    </rdf:RDF>
  </metadata>
  <path
     d="m 0.7937335,2.7119263 c 0,-1.059417 0.858805,-1.91819195 1.918192,-1.91819195 H 14.221075 c 1.059415,0 1.918191,0.85877495 1.918191,1.91819195 V 14.221074 c 0,1.059417 -0.858776,1.918192 -1.918191,1.918192 H 2.7119255 c -1.059387,0 -1.918192,-0.858775 -1.918192,-1.918192 z"
     id="path736"
     style="fill:#606c86;fill-opacity:1;stroke-width:0.959096" />
  <path
     d="m 0.7937335,2.5920394 c 0,-0.993144 0.858805,-1.79830505 1.918192,-1.79830505 H 14.221075 c 1.059415,0 1.918191,0.80516095 1.918191,1.79830495 V 13.381865 c 0,0.993145 -0.858776,1.798305 -1.918191,1.798305 H 2.7119255 c -1.059387,0 -1.918192,-0.80516 -1.918192,-1.798305 z"
     id="path738"
     style="fill:url(#linearGradient22065);fill-opacity:1;stroke-width:0.959096" />
  <path
     stroke-linejoin="bevel"
     stroke-width="1.80444"
     d="m 8.4664645,2.4339384 a 5.820771,5.820771 0 0 0 -4.289409,1.8962999 l 0.811498,3.6334333 c 0.15134,-1.8088047 1.662996,-3.2014241 3.477911,-3.2014241 L 9.3395795,3.5980942 9.0892865,2.4691544 a 5.820771,5.820771 0 0 0 -0.622822,-0.03522"
     id="path243"
     style="fill:url(#linearGradient829)" />
  <path
     opacity="0.2"
     fill-rule="evenodd"
     d="m 4.2185535,4.2853325 a 5.820771,5.820771 0 0 0 -0.255797,0.291605 l -0.75594,2.7711875 1.93657,-0.1490117 a 3.4924632,3.4924632 0 0 1 0.722488,-1.26646 z"
     id="path245"
     style="fill:url(#linearGradient442);stroke-width:0.291039" />
  <g
     stroke-linejoin="bevel"
     stroke-width="6.2"
     id="g255"
     transform="matrix(0.29103858,0,0,0.29103858,1.4815375,1.2697864)">
    <path
       d="M 9.40625,10.361328 A 20,20 0 0 0 4,24 20,20 0 0 0 10.443359,38.669922 L 23,35.949 C 16.785,35.43 12,30.24 12,24 h 5.525 l -4.953,-8.32 z"
       id="path247"
       style="fill:url(#a-6)" />
    <path
       d="M 35.949,25 C 35.429,31.215 30.236,35.995 24,36 v -5.525 l -13.639,8.119 a 20,20 0 0 0 13.638672,5.40625 20,20 0 0 0 14.775391,-6.556641 c -0.003,-0.004 -0.005,-0.008 -0.008,-0.012 z"
       id="path249"
       style="fill:url(#b-7)" />
    <path
       d="M 36.451,9.143 25,12.051 c 6.215,0.52 10.995,5.713 11,11.949 h -5.525 l 8.119,13.639 A 20,20 0 0 0 44.00025,24.000328 20,20 0 0 0 37.424078,9.207359 c -0.324,-0.018 -0.649,-0.048 -0.973,-0.064"
       id="path251"
       style="fill:url(#c-5)" />
    <path
       d="m 24.03,4 -0.025,7.998 v 5.525 L 37.644,9.404 A 20,20 0 0 0 24.030719,3.999703"
       id="path253"
       style="fill:url(#linearGradient440)" />
  </g>
  <g
     fill-rule="evenodd"
     id="g261"
     transform="matrix(0.29103858,0,0,0.29103858,1.4815375,1.2697864)">
    <path
       opacity="0.2"
       d="m 34.21,30.28 4.387,7.367 a 20,20 0 0 0 1.357422,-1.623046 z"
       id="path257"
       style="fill:url(#f)" />
    <path
       opacity="0.2"
       d="m 17.725,34.21 -7.371,4.389 a 20,20 0 0 0 13.646484,5.400391 20,20 0 0 0 3.226562,-0.287109 z"
       id="path259"
       style="fill:url(#g)" />
  </g>
  <path
     opacity="0.2"
     stroke-linejoin="bevel"
     fill-opacity="0.314"
     stroke-width="1.80444"
     d="M 14.280984,8.0853167 A 5.820771,5.820771 0 0 1 8.4664645,13.78444 5.820771,5.820771 0 0 1 2.6519455,8.1330648 a 5.820771,5.820771 0 0 0 -0.0062,0.1216451 5.820771,5.820771 0 0 0 5.820771,5.8207691 5.820771,5.820771 0 0 0 5.8207715,-5.8207691 5.820771,5.820771 0 0 0 -0.0062,-0.1693932"
     id="path263" />
</svg>
