<?xml version="1.0" encoding="UTF-8" standalone="no"?>
<svg
   width="64"
   height="64"
   version="1.1"
   id="svg7426"
   sodipodi:docname="catfish.svg"
   inkscape:version="1.3.2 (091e20ef0f, 2023-11-25)"
   xmlns:inkscape="http://www.inkscape.org/namespaces/inkscape"
   xmlns:sodipodi="http://sodipodi.sourceforge.net/DTD/sodipodi-0.dtd"
   xmlns:xlink="http://www.w3.org/1999/xlink"
   xmlns="http://www.w3.org/2000/svg"
   xmlns:svg="http://www.w3.org/2000/svg">
  <sodipodi:namedview
     id="namedview7428"
     pagecolor="#ffffff"
     bordercolor="#666666"
     borderopacity="1.0"
     inkscape:showpageshadow="2"
     inkscape:pageopacity="0.0"
     inkscape:pagecheckerboard="0"
     inkscape:deskcolor="#d1d1d1"
     showgrid="true"
     inkscape:zoom="6.9532167"
     inkscape:cx="26.462572"
     inkscape:cy="26.750209"
     inkscape:window-width="1920"
     inkscape:window-height="996"
     inkscape:window-x="0"
     inkscape:window-y="0"
     inkscape:window-maximized="1"
     inkscape:current-layer="svg7426">
    <inkscape:grid
       id="grid1"
       units="px"
       originx="0"
       originy="0"
       spacingx="1"
       spacingy="1"
       empcolor="#0099e5"
       empopacity="0.30196078"
       color="#0099e5"
       opacity="0.14901961"
       empspacing="5"
       dotted="false"
       gridanglex="30"
       gridanglez="30"
       visible="true" />
  </sodipodi:namedview>
  <defs
     id="defs7410">
    <linearGradient
       id="linearGradient10050">
      <stop
         style="stop-color:#a3be8c;stop-opacity:1;"
         offset="0"
         id="stop10046" />
      <stop
         style="stop-color:#739755;stop-opacity:1;"
         offset="1"
         id="stop10048" />
    </linearGradient>
    <linearGradient
       id="linearGradient4154">
      <stop
         offset="0"
         style="stop-color:#000000;stop-opacity:1"
         id="stop7390" />
      <stop
         offset="1"
         style="stop-color:#000000;stop-opacity:0"
         id="stop7392" />
    </linearGradient>
    <linearGradient
       id="linearGradient4192">
      <stop
         style="stop-color:#272b2d;stop-opacity:1"
         offset="0"
         id="stop7395" />
      <stop
         style="stop-color:#33393e;stop-opacity:1"
         offset="1"
         id="stop7397" />
    </linearGradient>
    <linearGradient
       id="linearGradient4140">
      <stop
         style="stop-color:#279646;stop-opacity:1"
         offset="0"
         id="stop7400" />
      <stop
         style="stop-color:#76ff68;stop-opacity:1"
         offset="1"
         id="stop7402" />
    </linearGradient>
    <linearGradient
       xlink:href="#linearGradient4140"
       id="linearGradient4146"
       x1="24.705"
       y1="43.938999"
       x2="25.061001"
       y2="4.4050002"
       gradientUnits="userSpaceOnUse"
       gradientTransform="translate(107.1821,-36.883996)" />
    <linearGradient
       xlink:href="#linearGradient4192"
       id="linearGradient4166"
       x1="31"
       y1="34"
       x2="31"
       y2="24"
       gradientUnits="userSpaceOnUse"
       gradientTransform="translate(107.1821,-36.883996)" />
    <linearGradient
       xlink:href="#linearGradient4192"
       id="linearGradient4168"
       x1="18"
       y1="34"
       x2="18"
       y2="24"
       gradientUnits="userSpaceOnUse"
       gradientTransform="translate(107.1821,-36.883996)" />
    <linearGradient
       xlink:href="#linearGradient4154"
       id="linearGradient4182"
       x1="13"
       y1="24"
       x2="30"
       y2="41"
       gradientUnits="userSpaceOnUse"
       gradientTransform="translate(107.1821,-36.883996)" />
    <linearGradient
       xlink:href="#linearGradient4154"
       id="linearGradient4190"
       x1="29"
       y1="26"
       x2="36"
       y2="33"
       gradientUnits="userSpaceOnUse"
       gradientTransform="translate(107.1821,-36.883996)" />
    <linearGradient
       inkscape:collect="always"
       xlink:href="#linearGradient22063-0"
       id="linearGradient22065-6"
       x1="-22"
       y1="5.1111121"
       x2="-6.4444442"
       y2="-9.1111107"
       gradientUnits="userSpaceOnUse"
       gradientTransform="matrix(3.6250002,0,0,3.6250002,82.750001,39.249999)" />
    <linearGradient
       inkscape:collect="always"
       id="linearGradient22063-0">
      <stop
         style="stop-color:#489eb7;stop-opacity:1;"
         offset="0"
         id="stop22059-6" />
      <stop
         style="stop-color:#446588;stop-opacity:1;"
         offset="1"
         id="stop22061-2" />
    </linearGradient>
  </defs>
  <path
     d="m 2.9999985,10.25 c 0,-4.004175 3.245938,-7.25 7.2500005,-7.25 h 43.500003 c 4.004173,0 7.25,3.245825 7.25,7.25 v 43.5 c 0,4.004173 -3.245827,7.25 -7.25,7.25 H 10.249999 C 6.2459365,61 2.9999985,57.754173 2.9999985,53.75 Z"
     id="path736-7"
     style="fill:#606c86;fill-opacity:1;stroke-width:3.625" />
  <path
     d="M 2.9999985,9.796875 C 2.9999985,6.043188 6.2459365,3 10.249999,3 h 43.500003 c 4.004173,0 7.25,3.043188 7.25,6.796875 v 40.781249 c 0,3.753693 -3.245827,6.796876 -7.25,6.796876 H 10.249999 c -4.0040625,0 -7.2500005,-3.043183 -7.2500005,-6.796876 z"
     id="path738-9"
     style="fill:url(#linearGradient22065-6);fill-opacity:1;stroke-width:3.625" />
  <path
     style="fill:#d79f87;stroke-width:0.99995"
     d="m 37.714308,21.056125 c 3.478636,-3.012572 8.330106,-5.323822 14.027759,-5.484701 1.081184,6.652524 -1.479687,11.992921 -3.176092,14.285729"
     id="path1" />
  <path
     style="fill:#946e5d;stroke-width:0.99995"
     d="m 39.857169,21.616509 c 3.045466,-2.081997 6.036547,-3.564287 10.000008,-3.902225 -0.239319,6.842038 -1.639775,7.734411 -3.077967,10.000014"
     id="path2" />
  <path
     style="fill:#d79f87;stroke-width:0.99995"
     d="m 14.142865,35.421756 c 0.508958,-3.073073 -0.0495,-14.207867 18.13048,-15.421735 12.307119,1.807197 16.652674,6.591089 17.583832,15.421735 -0.257311,4.7183 -12.585647,16.994778 -17.674944,16.56736 -5.495906,0.314115 -17.956556,-12.254753 -18.039368,-16.56736 z"
     id="path3-3" />
  <path
     style="fill:#d79f87;stroke-width:0.99995"
     d="m 26.285729,21.056125 c -3.478634,-3.012572 -8.330105,-5.323822 -14.027765,-5.484701 -1.081181,6.652524 1.479695,11.992921 3.176103,14.285729"
     id="path4" />
  <path
     style="fill:#946e5d;stroke-width:0.99995"
     d="m 24.142867,21.616509 c -3.045468,-2.081997 -6.03655,-3.564287 -10.000002,-3.902225 0.239317,6.842038 1.639769,7.734411 3.077966,10.000014"
     id="path5" />
  <path
     style="opacity:0.2;fill:#ffffff;stroke-width:0.99995"
     d="m 12.258095,15.571424 c -0.206833,1.272659 -0.277606,2.493649 -0.249727,3.656532 0.01094,-0.947105 0.08462,-1.926765 0.249727,-2.942244 5.616476,0.158588 10.403855,2.410279 13.871384,5.359939 1.765633,-0.44906 3.795789,-0.775135 6.143978,-0.93192 2.103671,0.308907 3.958276,0.712977 5.619423,1.201175 l -0.178572,-0.145093 c 3.478636,-3.012569 8.329981,-5.323223 14.027636,-5.484101 0.167191,1.028728 0.238673,2.021755 0.248326,2.981311 0.03071,-1.175017 -0.03943,-2.410064 -0.248326,-3.695599 -5.697655,0.160879 -10.549,2.471535 -14.027636,5.484102 l 0.178572,0.145092 c -1.661147,-0.488199 -3.515752,-0.892271 -5.619423,-1.201175 -2.34819,0.156788 -4.378345,0.48286 -6.143978,0.931922 -3.467529,-2.949654 -8.254908,-5.201349 -13.871384,-5.359941 z m 2.859934,14.515918 c -0.738064,2.244631 -0.799354,4.273249 -0.975164,5.334824 0.0021,0.123837 0.0182,0.256495 0.04041,0.393416 0.162196,-1.193326 0.254373,-3.215456 1.090955,-5.4841 -0.05031,-0.07129 -0.104883,-0.168041 -0.156249,-0.24414 z m 33.611912,0.237165 c -0.05383,0.07647 -0.112236,0.176157 -0.164624,0.246932 0.618153,1.548738 1.017853,3.285021 1.245818,5.217641 0.0208,-0.125711 0.03969,-0.250127 0.04604,-0.366914 -0.198848,-1.88576 -0.571281,-3.571699 -1.127234,-5.097659 z"
     id="path6" />
  <path
     style="fill:#946e5d;stroke-width:0.99995"
     d="m 35.928595,43.071419 a 3.928575,3.928575 0 1 1 -7.85715,0 3.928575,3.928575 0 1 1 7.85715,0 z"
     id="path7" />
  <path
     style="opacity:0.1;stroke-width:0.99995"
     d="m 31.000015,37.12647 c 0,0 -9.854306,-1.256177 -11.501037,4.149876 -1.104709,3.626615 1.418591,3.718847 1.808835,6.17099 0.390237,2.452127 -2.450663,1.829379 -2.450663,1.829379 l 0.271477,0.544905 c 0,0 2.773029,0.486556 2.857865,-2.140748 0.08475,-2.627322 -2.566775,-3.816134 -0.937936,-6.404526 1.628841,-2.588394 7.689946,-1.070955 7.689946,-1.070955 z"
     id="path8" />
  <path
     style="fill:#4a3025;stroke-width:0.99995"
     d="m 31.000015,36.412181 c 0,0 -9.854306,-1.256176 -11.501037,4.14988 -1.104709,3.62663 1.418591,3.718831 1.808835,6.170975 0.390237,2.452163 -2.450663,1.82936 -2.450663,1.82936 l 0.271477,0.54496 c 0,0 2.773029,0.486537 2.857865,-2.140788 0.08475,-2.627294 -2.566775,-3.816152 -0.937936,-6.404507 1.628841,-2.588403 7.689946,-1.070959 7.689946,-1.070959 z"
     id="path9" />
  <path
     style="opacity:0.1;stroke-width:0.99995"
     d="m 23.785727,22.71429 c -4.140204,0 -7.500544,3.361006 -7.500005,7.500006 -9.92e-4,4.139358 3.359534,7.499993 7.500005,7.499993 4.140205,0 7.500543,-3.360998 7.500005,-7.499993 9.76e-4,-4.13936 -3.359536,-7.500006 -7.500005,-7.500006 z m 0,2.142857 c 2.95748,0 5.357828,2.400457 5.357146,5.357149 3.85e-4,2.956426 -2.399852,5.357149 -5.357146,5.357149 -2.957484,0 -5.357834,-2.400463 -5.357146,-5.357149 -3.86e-4,-2.956431 2.399851,-5.357149 5.357146,-5.357149 z"
     id="path10" />
  <path
     d="m 23.785727,22 c -4.140204,0 -7.500544,3.361015 -7.500005,7.500011 -9.92e-4,4.139356 3.359534,7.500003 7.500005,7.500003 4.140205,0 7.500543,-3.361013 7.500005,-7.500003 C 31.286708,25.360655 27.926196,22 23.785727,22 Z m 0,2.142862 c 2.95748,0 5.357828,2.400458 5.357146,5.357149 3.85e-4,2.956428 -2.399852,5.357145 -5.357146,5.357145 -2.957484,0 -5.357834,-2.400462 -5.357146,-5.357145 -3.86e-4,-2.956435 2.399851,-5.357149 5.357146,-5.357149 z"
     id="path11"
     style="fill:#f2f2f2;stroke-width:1" />
  <path
     style="opacity:0.1;stroke-width:0.99995"
     d="m 33.00002,37.12647 c 0,0 9.854307,-1.256177 11.501038,4.149876 1.104707,3.626615 -1.418589,3.718847 -1.808838,6.17099 -0.390231,2.452127 2.450668,1.829379 2.450668,1.829379 L 44.87141,49.82162 c 0,0 -2.77303,0.486556 -2.857867,-2.140748 -0.08475,-2.627322 2.566776,-3.816134 0.937932,-6.404526 -1.628835,-2.588394 -7.689943,-1.070955 -7.689943,-1.070955 z"
     id="path12" />
  <path
     style="fill:#4a3025;stroke-width:0.99995"
     d="m 33.00002,36.412181 c 0,0 9.854307,-1.256176 11.501038,4.14988 1.104707,3.62663 -1.418589,3.718831 -1.808838,6.170975 -0.390231,2.452163 2.450668,1.82936 2.450668,1.82936 l -0.271478,0.54496 c 0,0 -2.77303,0.486537 -2.857867,-2.140788 -0.08475,-2.627294 2.566776,-3.816152 0.937932,-6.404507 -1.628835,-2.588403 -7.689943,-1.070959 -7.689943,-1.070959 z"
     id="path13" />
  <path
     style="fill:#383838;stroke-width:0.99995"
     d="m 35.928595,38.785731 a 3.928575,3.9285748 0 1 1 -7.85715,0 3.928575,3.9285748 0 1 1 7.85715,0 z"
     id="path14" />
  <path
     style="opacity:0.2;stroke-width:0.99995"
     d="m 40.202659,29.143829 c -1.476253,0.0134 -2.546955,0.170116 -3.406282,0.575051 -1.145765,0.539915 -1.8722,1.515878 -2.635507,3.086559 a 0.18634525,0.1815386 0 0 0 0.05302,0.220518 c 0.881039,0.674462 1.704432,1.025167 2.476109,1.101171 0.771674,0.07601 1.484452,-0.127094 2.124563,-0.527538 1.28021,-0.800974 2.29475,-2.369583 3.167546,-4.166462 A 0.18634525,0.1815386 0 0 0 41.821281,29.17432 C 41.23192,29.15099 40.694655,29.13923 40.202567,29.14368 Z"
     id="path15" />
  <path
     style="fill:#aef766;stroke-width:0.99995"
     d="m 40.202659,28.429542 c -1.476253,0.0134 -2.546955,0.170113 -3.406282,0.575051 -1.145765,0.539914 -1.8722,1.515875 -2.635507,3.08656 a 0.18634525,0.1815386 0 0 0 0.05302,0.220513 c 0.881039,0.674469 1.704432,1.025172 2.476109,1.101178 0.771674,0.07601 1.484452,-0.127093 2.124563,-0.527542 1.28021,-0.800981 2.29475,-2.369584 3.167546,-4.166463 A 0.18634525,0.1815386 0 0 0 41.82126,28.460033 c -0.589359,-0.02335 -1.126625,-0.03508 -1.618712,-0.03064 z"
     id="path16" />
  <path
     style="fill:#263742;stroke-width:0.99995"
     d="m 37.052532,29.571439 c -0.132838,1.423072 -0.07689,2.049297 0.929633,2.857143 -0.06988,-1.313576 -0.106101,-1.950441 -0.929633,-2.857143 z"
     id="path17" />
  <path
     style="opacity:0.1;stroke-width:0.99995"
     d="M 51.961466,28.689276 A 16.87419,3.8541197 18.246416 1 1 19.895728,18.167844 16.87419,3.8541197 18.246416 1 1 51.961466,28.689276 Z"
     id="path18" />
  <path
     style="fill:#3f3f3f;stroke-width:0.99995"
     d="M 51.961466,27.974993 A 16.87419,3.8541206 18.246416 1 1 19.895728,17.453557 16.87419,3.8541206 18.246416 1 1 51.961466,27.974993 Z"
     id="path19" />
  <path
     style="opacity:0.1;stroke-width:0.99995"
     d="m 32.220442,12.714278 c 3.597875,0.119751 9.73078,1.160667 14.779592,4.349489 l -2.585772,7.73221 C 39.08208,25.253373 32.932011,23.042445 29.857158,20.333314 Z"
     id="path20" />
  <path
     style="fill:#484848;stroke-width:0.99995"
     d="m 32.220442,12 c 3.597875,0.119746 9.73078,1.160656 14.779592,4.349483 l -2.585772,7.732208 C 39.08208,24.539089 32.932011,22.32816 29.857158,19.619029 Z"
     id="path21" />
  <path
     style="opacity:0.2;stroke-width:0.99995"
     d="m 32.335838,12.005651 c 4.48829,3.519314 11.660823,4.944733 14.600648,4.532988 l 0.06342,-0.189358 C 42.002882,13.193177 35.947914,12.142995 32.335844,12.005651 Z"
     id="path22" />
  <path
     style="fill:#1b65cf;stroke-width:0.99995"
     d="m 16.328647,28.599624 c -0.941034,0.298632 -1.53111,0.580737 -1.871097,0.896483 -0.169992,0.157872 -0.281726,0.333835 -0.308588,0.525391 -0.02698,0.191556 0.0371,0.378552 0.148436,0.537107 0.222454,0.317113 0.625014,0.569847 1.138675,0.824218 0.513657,0.254377 1.141251,0.50015 1.808588,0.74414 l 0.140627,-0.380857 c -0.661632,-0.241907 -1.278698,-0.48446 -1.767576,-0.726564 -0.48888,-0.2421 -0.847917,-0.493265 -0.988281,-0.69336 -0.07029,-0.10004 -0.08846,-0.175861 -0.07812,-0.25 0.0094,-0.07425 0.05648,-0.167024 0.181639,-0.283202 0.250184,-0.232347 0.803325,-0.516137 1.718749,-0.806638 z"
     id="path23" />
  <path
     style="opacity:0.1;stroke-width:0.99995"
     d="m 32.000021,40.928608 a 3.9285775,3.9285775 0 1 1 -7.857154,0 3.9285775,3.9285775 0 1 1 7.857154,0 z"
     id="path24" />
  <path
     style="fill:#79503c;stroke-width:0.99995"
     d="m 32.000021,40.214288 a 3.9285775,3.9285775 0 1 1 -7.857154,0 3.9285775,3.9285775 0 1 1 7.857154,0 z"
     id="path25" />
  <path
     style="opacity:0.1;stroke-width:0.99995"
     d="m 39.857134,40.928211 a 3.9285759,3.92729 0 1 1 -7.857151,0 3.9285759,3.92729 0 1 1 7.857151,0 z"
     id="path26" />
  <path
     style="fill:#79503c;stroke-width:0.99995"
     d="m 39.857134,40.213928 a 3.9285759,3.92729 0 1 1 -7.857151,0 3.9285759,3.92729 0 1 1 7.857151,0 z"
     id="path27" />
  <path
     style="opacity:0.2;fill:#ffffff;stroke-width:0.99995"
     d="m 30.412571,17.827889 -0.555413,1.790461 c 3.074853,2.709136 9.224686,4.921696 14.556872,4.464304 l 0.52783,-1.580985 c -1.557858,0.126743 -5.38093,-0.367756 -7.826949,-1.053333 -2.62738,-0.7364 -5.488841,-2.297484 -6.70234,-3.620447 z"
     id="path28" />
  <path
     style="opacity:0.3;fill:#1b65cf;stroke-width:0.99995"
     d="m 23.785727,24.142862 c 2.957479,0 5.357828,2.400458 5.357146,5.357149 3.85e-4,2.956427 -2.399853,5.357144 -5.357146,5.357144 -2.957483,0 -5.357833,-2.400461 -5.357146,-5.357144 -3.86e-4,-2.956435 2.399852,-5.357149 5.357146,-5.357149 z"
     id="path29" />
  <path
     style="opacity:0.2;stroke-width:0.99995"
     d="m 21.654517,29.143829 c 1.476258,0.0134 2.546962,0.170116 3.406283,0.575051 1.145767,0.539915 1.872203,1.515878 2.635505,3.086559 a 0.18634525,0.1815386 0 0 1 -0.05301,0.220518 c -0.88104,0.674462 -1.704433,1.025167 -2.476111,1.101171 -0.771673,0.07601 -1.484453,-0.127094 -2.124555,-0.527538 -1.280219,-0.800974 -2.294758,-2.369583 -3.167558,-4.166462 a 0.18634525,0.1815386 0 0 1 0.160851,-0.258808 c 0.589358,-0.02333 1.126623,-0.03509 1.618719,-0.03064 z"
     id="path30" />
  <path
     style="fill:#aef766;stroke-width:0.99995"
     d="m 21.654517,28.429542 c 1.476258,0.0134 2.546962,0.170113 3.406283,0.575051 1.145767,0.539914 1.872203,1.515875 2.635505,3.08656 a 0.18634525,0.1815386 0 0 1 -0.05301,0.220513 c -0.88104,0.674469 -1.704433,1.025172 -2.476111,1.101178 -0.771677,0.07601 -1.484457,-0.127093 -2.124564,-0.527542 -1.280215,-0.800981 -2.294752,-2.369584 -3.167552,-4.166463 a 0.18634525,0.1815386 0 0 1 0.160854,-0.258806 c 0.589357,-0.02335 1.126623,-0.03508 1.618718,-0.03064 z"
     id="path31" />
  <path
     style="fill:#263742;stroke-width:0.99995"
     d="m 24.804647,29.571439 c 0.132839,1.423072 0.07689,2.049297 -0.929632,2.857143 0.06987,-1.313576 0.106079,-1.950441 0.929632,-2.857143 z"
     id="path32" />
</svg>
