<?xml version="1.0" encoding="UTF-8" standalone="no"?>
<svg
   viewBox="0 0 64 64"
   style="display:inline;enable-background:new"
   version="1.0"
   id="svg11300"
   height="64"
   width="64"
   sodipodi:docname="distributor-logo-lubuntu.svg"
   inkscape:version="1.4 (e7c3feb100, 2024-10-09)"
   xmlns:inkscape="http://www.inkscape.org/namespaces/inkscape"
   xmlns:sodipodi="http://sodipodi.sourceforge.net/DTD/sodipodi-0.dtd"
   xmlns:xlink="http://www.w3.org/1999/xlink"
   xmlns="http://www.w3.org/2000/svg"
   xmlns:svg="http://www.w3.org/2000/svg"
   xmlns:rdf="http://www.w3.org/1999/02/22-rdf-syntax-ns#"
   xmlns:cc="http://creativecommons.org/ns#"
   xmlns:dc="http://purl.org/dc/elements/1.1/">
  <sodipodi:namedview
     id="namedview14"
     pagecolor="#ffffff"
     bordercolor="#666666"
     borderopacity="1.0"
     inkscape:showpageshadow="2"
     inkscape:pageopacity="0.0"
     inkscape:pagecheckerboard="0"
     inkscape:deskcolor="#d1d1d1"
     showgrid="false"
     inkscape:zoom="7.3749998"
     inkscape:cx="27.389831"
     inkscape:cy="27.932204"
     inkscape:window-width="1920"
     inkscape:window-height="998"
     inkscape:window-x="0"
     inkscape:window-y="0"
     inkscape:window-maximized="1"
     inkscape:current-layer="svg11300" />
  <title
     id="title4162">Adwaita Icon Template</title>
  <defs
     id="defs3">
    <clipPath
       id="clipPath16-6"
       clipPathUnits="userSpaceOnUse">
      <path
         id="path18-8"
         d="M 0,500 H 500 V 0 H 0 Z" />
    </clipPath>
    <linearGradient
       inkscape:collect="always"
       xlink:href="#linearGradient22063"
       id="linearGradient22065"
       x1="-13.20652"
       y1="-9.999999"
       x2="-13.365215"
       y2="5"
       gradientUnits="userSpaceOnUse"
       gradientTransform="matrix(3.6250002,0,0,3.6250002,82.750004,39.249999)" />
    <linearGradient
       inkscape:collect="always"
       id="linearGradient22063">
      <stop
         style="stop-color:#0082c9;stop-opacity:1;"
         offset="0"
         id="stop22059" />
      <stop
         style="stop-color:#005480;stop-opacity:1;"
         offset="1"
         id="stop22061" />
    </linearGradient>
    <linearGradient
       id="a-3"
       x1="99.036003"
       x2="99.036003"
       y1="-0.50471997"
       y2="199.84"
       gradientTransform="matrix(0.23000011,0,0,0.23000011,9.0002195,6.9999571)"
       gradientUnits="userSpaceOnUse">
      <stop
         stop-color="#4bd2f5"
         offset="0"
         id="stop5318" />
      <stop
         stop-color="#5587ff"
         offset="1"
         id="stop5320" />
    </linearGradient>
    <filter
       id="filter1305"
       x="-0.060002353"
       y="-0.060002353"
       width="1.1200047"
       height="1.1200047"
       color-interpolation-filters="sRGB">
      <feGaussianBlur
         stdDeviation="0.61852427"
         id="feGaussianBlur5323" />
    </filter>
  </defs>
  <metadata
     id="metadata4">
    <rdf:RDF>
      <cc:Work
         rdf:about="">
        <dc:format>image/svg+xml</dc:format>
        <dc:type
           rdf:resource="http://purl.org/dc/dcmitype/StillImage" />
        <dc:creator>
          <cc:Agent>
            <dc:title>GNOME Design Team</dc:title>
          </cc:Agent>
        </dc:creator>
        <dc:source />
        <cc:license
           rdf:resource="http://creativecommons.org/licenses/by-sa/4.0/" />
        <dc:title>Adwaita Icon Template</dc:title>
        <dc:subject>
          <rdf:Bag />
        </dc:subject>
        <dc:date />
        <dc:rights>
          <cc:Agent>
            <dc:title />
          </cc:Agent>
        </dc:rights>
        <dc:publisher>
          <cc:Agent>
            <dc:title />
          </cc:Agent>
        </dc:publisher>
        <dc:identifier />
        <dc:relation />
        <dc:language />
        <dc:coverage />
        <dc:description />
        <dc:contributor>
          <cc:Agent>
            <dc:title />
          </cc:Agent>
        </dc:contributor>
      </cc:Work>
      <cc:License
         rdf:about="http://creativecommons.org/licenses/by-sa/4.0/">
        <cc:permits
           rdf:resource="http://creativecommons.org/ns#Reproduction" />
        <cc:permits
           rdf:resource="http://creativecommons.org/ns#Distribution" />
        <cc:requires
           rdf:resource="http://creativecommons.org/ns#Notice" />
        <cc:requires
           rdf:resource="http://creativecommons.org/ns#Attribution" />
        <cc:permits
           rdf:resource="http://creativecommons.org/ns#DerivativeWorks" />
        <cc:requires
           rdf:resource="http://creativecommons.org/ns#ShareAlike" />
      </cc:License>
    </rdf:RDF>
  </metadata>
  <path
     d="M 3,10.25 C 3,6.245825 6.24594,3 10.25,3 h 43.5 C 57.75417,3 61,6.245825 61,10.25 v 43.5 C 61,57.754173 57.75417,61 53.75,61 H 10.25 C 6.24594,61 3,57.754173 3,53.75 Z"
     id="path736"
     style="fill:#606c86;fill-opacity:1;stroke-width:3.625" />
  <path
     d="M 3,9.796875 C 3,6.043188 6.24594,3 10.25,3 h 43.5 C 57.75417,3 61,6.043188 61,9.796875 V 50.578124 C 61,54.331817 57.75417,57.375 53.75,57.375 H 10.25 C 6.24594,57.375 3,54.331817 3,50.578124 Z"
     id="path738"
     style="fill:url(#linearGradient22065);fill-opacity:1;stroke-width:3.625" />
  <g
     id="g2"
     transform="matrix(1.3139382,0,0,1.3088726,-2.7527123,-84.122785)">
    <path
       style="opacity:0.2;stroke-width:0.736725"
       d="m 28.787246,74.940989 c -0.979498,-0.02051 -1.963812,0.261569 -2.783856,0.801604 -0.817767,0.537756 -1.468781,1.326658 -1.84008,2.233553 -0.371297,0.909172 -0.461938,1.927621 -0.254647,2.886923 0.207288,0.957024 0.708438,1.850626 1.421421,2.522822 -0.362186,-0.597001 -0.549335,-1.303752 -0.526559,-2.00329 0.0205,-0.699539 0.250215,-1.389378 0.648848,-1.965872 0.398632,-0.574213 0.96872,-1.030909 1.615644,-1.29523 0.646924,-0.264319 1.370833,-0.336518 2.05876,-0.204359 0.902428,0.170673 1.726316,0.703269 2.267369,1.444902 h 8.754403 L 33.160852,77.858135 C 32.787275,77.010486 32.167553,76.273993 31.3999,75.761301 30.629969,75.24861 29.712075,74.959219 28.787246,74.940989 Z m -14.28759,1.75 c -1.120728,1.157544 -1.763109,2.76401 -1.749442,4.375 0.01327,1.584922 0.668203,3.151086 1.7739,4.285773 l -0.861773,-0.264803 c -0.302961,1.157544 -0.210284,2.412375 0.258964,3.512953 0.471525,1.098298 1.317364,2.033276 2.365199,2.612047 0.799544,0.442054 1.710725,0.676399 2.624163,0.676399 0.913439,0 1.82318,-0.234345 2.622725,-0.676399 -0.735762,0.06608 -1.48437,-0.05493 -2.160907,-0.351151 -0.676537,-0.293943 -1.278275,-0.76371 -1.7293,-1.347039 -0.519362,-0.674474 -0.840313,-1.501034 -0.906372,-2.348684 l 8.295463,1.421874 -8.327114,-2.563116 c -0.0059,-0.0062 -0.01288,-0.01108 -0.0187,-0.01727 -0.621868,-0.658523 -1.008401,-1.535574 -1.079015,-2.437911 -0.06606,-0.874993 0.163295,-1.768954 0.641654,-2.502672 l 9.621932,5.25 z m 16.03991,5.736431 c -0.496842,0.587575 -0.822038,1.317807 -0.926514,2.079564 -0.09751,0.719955 -4.7e-4,1.457343 0.189907,2.158717 0.19038,0.699052 0.47383,1.372404 0.752433,2.043586 0.278602,0.671183 0.555516,1.344207 0.736607,2.047903 0.178771,0.703696 0.260281,1.444846 0.139552,2.160156 -0.201987,1.198374 -0.966361,2.264475 -1.962367,2.958881 -0.996005,0.694407 -2.210711,1.037815 -3.422634,1.116777 -1.529995,0.09986 -3.082609,-0.211797 -4.457049,-0.89227 l 0.03453,7.135276 1.783971,-3.548927 c 2.356518,0.689757 4.991265,0.350097 7.097038,-0.910979 1.063334,-0.636345 1.997109,-1.501537 2.647182,-2.555921 0.652395,-1.054384 1.011891,-2.297566 0.953849,-3.5331 -0.08358,-1.762725 -0.982493,-3.36915 -1.841518,-4.908923 -0.861347,-1.539771 -1.727763,-3.172658 -1.739372,-4.937705 0,-0.137024 0.0051,-0.276011 0.01439,-0.413035 z"
       id="path2" />
    <path
       style="fill:#ffffff;stroke-width:0.736725"
       d="m 28.787246,74.204435 c -0.979498,-0.02051 -1.963812,0.261569 -2.783856,0.801604 -0.817767,0.537756 -1.468781,1.326658 -1.84008,2.233553 -0.371297,0.909172 -0.461938,1.927621 -0.254647,2.886923 0.207288,0.957024 0.708438,1.850626 1.421421,2.522822 -0.362186,-0.597001 -0.549335,-1.303752 -0.526559,-2.00329 0.0205,-0.699539 0.250215,-1.389378 0.648848,-1.965872 0.398632,-0.574213 0.96872,-1.030909 1.615644,-1.29523 0.646924,-0.264319 1.370833,-0.336518 2.05876,-0.204359 0.902428,0.170673 1.726316,0.703269 2.267369,1.444902 h 8.754403 L 33.160852,77.121581 C 32.787275,76.273932 32.167553,75.537439 31.3999,75.024747 30.629969,74.512056 29.712075,74.222665 28.787246,74.204435 Z m -14.28759,1.75 c -1.120728,1.157544 -1.763109,2.76401 -1.749442,4.375 0.01326,1.584838 0.668269,3.151072 1.7739,4.285773 l -0.861773,-0.264803 c -0.302961,1.157544 -0.210284,2.412375 0.258964,3.512953 0.471525,1.098298 1.317364,2.033276 2.365199,2.612047 0.799544,0.442054 1.710725,0.676399 2.624163,0.676399 0.913439,0 1.82318,-0.234345 2.622725,-0.676399 -0.735762,0.06608 -1.48437,-0.05493 -2.160907,-0.351151 -0.676537,-0.293943 -1.278275,-0.76371 -1.7293,-1.347039 -0.519362,-0.674474 -0.840313,-1.501034 -0.906372,-2.348684 l 8.295463,1.421874 -8.328553,-2.564556 c -0.0054,-0.0057 -0.01191,-0.01014 -0.01727,-0.01583 -0.621866,-0.658527 -1.008399,-1.535578 -1.079013,-2.437914 -0.06606,-0.874994 0.163295,-1.768955 0.641654,-2.502673 l 9.621932,5.25 z m 16.03991,5.736431 c -0.496842,0.587575 -0.822038,1.317807 -0.926514,2.079564 -0.09751,0.719955 -4.7e-4,1.457343 0.189907,2.158717 0.19038,0.699052 0.47383,1.372404 0.752433,2.043586 0.278602,0.671183 0.555516,1.344207 0.736607,2.047903 0.178771,0.703696 0.260281,1.444846 0.139552,2.160156 -0.201987,1.198374 -0.966361,2.264475 -1.962367,2.958881 -0.996005,0.694407 -2.210711,1.037815 -3.422634,1.116777 -1.529995,0.09986 -3.082609,-0.211797 -4.457049,-0.89227 l 0.03452,7.13528 1.783971,-3.548931 c 2.356519,0.689762 4.991265,0.350101 7.097038,-0.910979 1.063335,-0.636345 1.99711,-1.501537 2.647182,-2.555921 0.652395,-1.054384 1.011891,-2.297566 0.953849,-3.5331 -0.08358,-1.762725 -0.982494,-3.36915 -1.841518,-4.908923 -0.861346,-1.539771 -1.727763,-3.172658 -1.739372,-4.937705 0,-0.137024 0.0051,-0.276011 0.01439,-0.413035 z"
       id="path3-6" />
  </g>
</svg>
