<?xml version="1.0" encoding="UTF-8" standalone="no"?>
<svg
   viewBox="0 0 64 64"
   style="display:inline;enable-background:new"
   version="1.0"
   id="svg11300"
   height="64"
   width="64"
   sodipodi:docname="emulationstation.svg"
   inkscape:version="1.4 (unknown)"
   xmlns:inkscape="http://www.inkscape.org/namespaces/inkscape"
   xmlns:sodipodi="http://sodipodi.sourceforge.net/DTD/sodipodi-0.dtd"
   xmlns:xlink="http://www.w3.org/1999/xlink"
   xmlns="http://www.w3.org/2000/svg"
   xmlns:svg="http://www.w3.org/2000/svg"
   xmlns:rdf="http://www.w3.org/1999/02/22-rdf-syntax-ns#"
   xmlns:cc="http://creativecommons.org/ns#"
   xmlns:dc="http://purl.org/dc/elements/1.1/">
  <sodipodi:namedview
     id="namedview14"
     pagecolor="#ffffff"
     bordercolor="#666666"
     borderopacity="1.0"
     inkscape:showpageshadow="2"
     inkscape:pageopacity="0.0"
     inkscape:pagecheckerboard="0"
     inkscape:deskcolor="#d1d1d1"
     showgrid="false"
     inkscape:zoom="7.3749998"
     inkscape:cx="27.322035"
     inkscape:cy="49.559323"
     inkscape:window-width="1920"
     inkscape:window-height="998"
     inkscape:window-x="0"
     inkscape:window-y="0"
     inkscape:window-maximized="1"
     inkscape:current-layer="svg11300" />
  <title
     id="title4162">Adwaita Icon Template</title>
  <defs
     id="defs3">
    <clipPath
       id="clipPath16-6"
       clipPathUnits="userSpaceOnUse">
      <path
         id="path18-8"
         d="M 0,500 H 500 V 0 H 0 Z" />
    </clipPath>
    <linearGradient
       inkscape:collect="always"
       xlink:href="#linearGradient22063"
       id="linearGradient22065"
       x1="-13.20652"
       y1="-9.999999"
       x2="-13.365215"
       y2="5"
       gradientUnits="userSpaceOnUse"
       gradientTransform="matrix(3.6250002,0,0,3.6250002,82.750004,39.249999)" />
    <linearGradient
       inkscape:collect="always"
       id="linearGradient22063">
      <stop
         style="stop-color:#0082c9;stop-opacity:1;"
         offset="0"
         id="stop22059" />
      <stop
         style="stop-color:#33b7ff;stop-opacity:1;"
         offset="1"
         id="stop22061" />
    </linearGradient>
    <linearGradient
       id="a-3"
       x1="99.036003"
       x2="99.036003"
       y1="-0.50471997"
       y2="199.84"
       gradientTransform="matrix(0.23000011,0,0,0.23000011,9.0002195,6.9999571)"
       gradientUnits="userSpaceOnUse">
      <stop
         stop-color="#4bd2f5"
         offset="0"
         id="stop5318" />
      <stop
         stop-color="#5587ff"
         offset="1"
         id="stop5320" />
    </linearGradient>
    <filter
       id="filter1305"
       x="-0.060002353"
       y="-0.060002353"
       width="1.1200047"
       height="1.1200047"
       color-interpolation-filters="sRGB">
      <feGaussianBlur
         stdDeviation="0.61852427"
         id="feGaussianBlur5323" />
    </filter>
  </defs>
  <metadata
     id="metadata4">
    <rdf:RDF>
      <cc:Work
         rdf:about="">
        <dc:format>image/svg+xml</dc:format>
        <dc:type
           rdf:resource="http://purl.org/dc/dcmitype/StillImage" />
        <dc:creator>
          <cc:Agent>
            <dc:title>GNOME Design Team</dc:title>
          </cc:Agent>
        </dc:creator>
        <dc:source />
        <cc:license
           rdf:resource="http://creativecommons.org/licenses/by-sa/4.0/" />
        <dc:title>Adwaita Icon Template</dc:title>
        <dc:subject>
          <rdf:Bag />
        </dc:subject>
        <dc:date />
        <dc:rights>
          <cc:Agent>
            <dc:title />
          </cc:Agent>
        </dc:rights>
        <dc:publisher>
          <cc:Agent>
            <dc:title />
          </cc:Agent>
        </dc:publisher>
        <dc:identifier />
        <dc:relation />
        <dc:language />
        <dc:coverage />
        <dc:description />
        <dc:contributor>
          <cc:Agent>
            <dc:title />
          </cc:Agent>
        </dc:contributor>
      </cc:Work>
      <cc:License
         rdf:about="http://creativecommons.org/licenses/by-sa/4.0/">
        <cc:permits
           rdf:resource="http://creativecommons.org/ns#Reproduction" />
        <cc:permits
           rdf:resource="http://creativecommons.org/ns#Distribution" />
        <cc:requires
           rdf:resource="http://creativecommons.org/ns#Notice" />
        <cc:requires
           rdf:resource="http://creativecommons.org/ns#Attribution" />
        <cc:permits
           rdf:resource="http://creativecommons.org/ns#DerivativeWorks" />
        <cc:requires
           rdf:resource="http://creativecommons.org/ns#ShareAlike" />
      </cc:License>
    </rdf:RDF>
  </metadata>
  <path
     d="M 3,10.25 C 3,6.245825 6.24594,3 10.25,3 h 43.5 C 57.75417,3 61,6.245825 61,10.25 v 43.5 C 61,57.754173 57.75417,61 53.75,61 H 10.25 C 6.24594,61 3,57.754173 3,53.75 Z"
     id="path736"
     style="fill:#606c86;fill-opacity:1;stroke-width:3.625" />
  <path
     d="M 3,9.796875 C 3,6.043188 6.24594,3 10.25,3 h 43.5 C 57.75417,3 61,6.043188 61,9.796875 V 50.578124 C 61,54.331817 57.75417,57.375 53.75,57.375 H 10.25 C 6.24594,57.375 3,54.331817 3,50.578124 Z"
     id="path738"
     style="fill:url(#linearGradient22065);fill-opacity:1;stroke-width:3.625" />
  <g
     id="g1"
     transform="translate(5,-39)">
    <path
       style="opacity:0.2;stroke-width:1.01709"
       d="M 10,57.034488 5,62.206899 V 80.827584 L 10,86 H 27 L 21,79.793101 H 10 v -5.172407 h 11 v -6.2069 H 10 v -5.172416 h 11 l 6,-6.20689 z m 22,0 -5,5.172411 v 7.241378 l 5,5.172417 h 12 v 5.172407 H 27 L 33,86 h 11 l 5,-5.172416 V 73.586206 L 44,68.413794 H 32 v -5.172416 h 11 l 6,-6.20689 z"
       id="path3-6" />
    <path
       style="fill:#ffffff;stroke-width:1.01709"
       d="m 10,56 -5,5.172416 v 18.620685 l 5,5.17242 H 27 L 21,78.758622 H 10 V 73.586206 H 21 V 67.379315 H 10 V 62.206899 H 21 L 27,56 Z m 22,0 -5,5.172416 v 7.241378 l 5,5.172412 h 12 v 5.172416 H 27 l 6,6.206899 h 11 l 5,-5.17242 V 72.551723 L 44,67.379315 H 32 V 62.206899 H 43 L 49,56 Z"
       id="path4-7" />
  </g>
</svg>
