<?xml version="1.0" encoding="UTF-8" standalone="no"?>
<svg
   width="64"
   height="64"
   version="1.1"
   id="svg23117"
   sodipodi:docname="freemind.svg"
   inkscape:version="1.2.1 (9c6d41e410, 2022-07-14)"
   xmlns:inkscape="http://www.inkscape.org/namespaces/inkscape"
   xmlns:sodipodi="http://sodipodi.sourceforge.net/DTD/sodipodi-0.dtd"
   xmlns:xlink="http://www.w3.org/1999/xlink"
   xmlns="http://www.w3.org/2000/svg"
   xmlns:svg="http://www.w3.org/2000/svg">
  <sodipodi:namedview
     id="namedview23119"
     pagecolor="#ffffff"
     bordercolor="#666666"
     borderopacity="1.0"
     inkscape:showpageshadow="2"
     inkscape:pageopacity="0.0"
     inkscape:pagecheckerboard="0"
     inkscape:deskcolor="#d1d1d1"
     showgrid="false"
     inkscape:zoom="4.9166667"
     inkscape:cx="24.508474"
     inkscape:cy="24.508474"
     inkscape:window-width="1920"
     inkscape:window-height="1002"
     inkscape:window-x="0"
     inkscape:window-y="0"
     inkscape:window-maximized="1"
     inkscape:current-layer="svg23117" />
  <defs
     id="defs23105">
    <linearGradient
       id="a"
       y1="547.63397"
       y2="499.67899"
       x2="388.86499"
       gradientUnits="userSpaceOnUse"
       gradientTransform="translate(-453.04388,-539.81483)"
       x1="428.81601">
      <stop
         stop-color="#2a2c2f"
         id="stop23090" />
      <stop
         offset="1"
         stop-color="#536161"
         id="stop23092" />
    </linearGradient>
    <linearGradient
       id="b"
       y1="44"
       y2="12"
       x2="14"
       gradientUnits="userSpaceOnUse"
       x1="36"
       gradientTransform="translate(-68.473879,-40.014831)">
      <stop
         stop-color="#536161"
         style="stop-color:#bfc9c9;stop-opacity:1"
         id="stop23095" />
      <stop
         offset="1"
         stop-color="#f4f5f5"
         style="stop-color:#fbfbfb;stop-opacity:1"
         id="stop23097" />
    </linearGradient>
    <linearGradient
       id="c"
       y1="527.01398"
       x1="406.50101"
       y2="539.82501"
       x2="419.974"
       gradientUnits="userSpaceOnUse"
       gradientTransform="translate(-453.04388,-539.81483)">
      <stop
         stop-color="#292c2f"
         id="stop23100" />
      <stop
         offset="1"
         stop-opacity="0"
         id="stop23102" />
    </linearGradient>
    <linearGradient
       inkscape:collect="always"
       xlink:href="#linearGradient22063"
       id="linearGradient22065"
       x1="-14"
       y1="6"
       x2="-14"
       y2="-9.999999"
       gradientUnits="userSpaceOnUse"
       gradientTransform="matrix(3.6250002,0,0,3.6250002,82.750005,39.249999)" />
    <linearGradient
       inkscape:collect="always"
       id="linearGradient22063">
      <stop
         style="stop-color:#4c566a;stop-opacity:1;"
         offset="0"
         id="stop22059" />
      <stop
         style="stop-color:#65738e;stop-opacity:1;"
         offset="1"
         id="stop22061" />
    </linearGradient>
    <linearGradient
       xlink:href="#linearGradient4308"
       id="linearGradient4314"
       x1="24.065001"
       y1="41.806"
       x2="24.065001"
       y2="5.4660001"
       gradientUnits="userSpaceOnUse"
       gradientTransform="matrix(1.1666664,0,0,1.1666664,3.885338,4.0580003)" />
    <linearGradient
       id="linearGradient4308">
      <stop
         style="stop-color:#884d2c;stop-opacity:1"
         offset="0"
         id="stop157" />
      <stop
         style="stop-color:#ffc169;stop-opacity:1"
         offset="1"
         id="stop159" />
    </linearGradient>
    <linearGradient
       xlink:href="#linearGradient4513"
       id="linearGradient4535"
       x1="32.742001"
       y1="36.405998"
       x2="37.389"
       y2="41.053001"
       gradientUnits="userSpaceOnUse"
       gradientTransform="matrix(1.1666664,0,0,1.1666664,3.885338,4.0580003)" />
    <linearGradient
       id="linearGradient4513">
      <stop
         style="stop-color:#000000;stop-opacity:1;"
         offset="0"
         id="stop147" />
      <stop
         style="stop-color:#000000;stop-opacity:0;"
         offset="1"
         id="stop149" />
    </linearGradient>
    <linearGradient
       xlink:href="#linearGradient4513"
       id="linearGradient4539"
       x1="36.580002"
       y1="19.541"
       x2="41.485001"
       y2="24.445999"
       gradientUnits="userSpaceOnUse"
       gradientTransform="matrix(1.1666664,0,0,1.1666664,3.885338,4.0580003)" />
    <linearGradient
       xlink:href="#linearGradient4513"
       id="linearGradient4519"
       x1="8.3710003"
       y1="9.3699999"
       x2="21.722"
       y2="22.721001"
       gradientUnits="userSpaceOnUse"
       gradientTransform="matrix(1.1666664,0,0,1.1666664,3.885338,4.0580003)" />
    <linearGradient
       xlink:href="#linearGradient4513"
       id="linearGradient4527"
       x1="12.658"
       y1="36.549"
       x2="17.235001"
       y2="41.125999"
       gradientUnits="userSpaceOnUse"
       gradientTransform="matrix(1.1666664,0,0,1.1666664,3.885338,4.0580003)" />
    <linearGradient
       xlink:href="#linearGradient4513"
       id="linearGradient4523"
       x1="8.6639996"
       y1="19.421"
       x2="21.622999"
       y2="32.380001"
       gradientUnits="userSpaceOnUse"
       gradientTransform="matrix(1.1666664,0,0,1.1666664,3.885338,4.0580003)" />
    <linearGradient
       xlink:href="#linearGradient4513"
       id="linearGradient4525"
       x1="10.576"
       y1="30.594999"
       x2="19.143999"
       y2="39.162998"
       gradientUnits="userSpaceOnUse"
       gradientTransform="matrix(1.1666664,0,0,1.1666664,3.885338,4.0580003)" />
    <linearGradient
       xlink:href="#linearGradient4513"
       id="linearGradient4521"
       x1="11.377"
       y1="13.89"
       x2="21.886"
       y2="24.399"
       gradientUnits="userSpaceOnUse"
       gradientTransform="matrix(1.1666664,0,0,1.1666664,3.885338,4.0580003)" />
    <linearGradient
       xlink:href="#linearGradient4513"
       id="linearGradient4541"
       x1="34.643002"
       y1="14.02"
       x2="42.643002"
       y2="22.021"
       gradientUnits="userSpaceOnUse"
       gradientTransform="matrix(1.1666664,0,0,1.1666664,3.885338,4.0580003)" />
    <linearGradient
       xlink:href="#linearGradient4513"
       id="linearGradient4543"
       x1="38.245998"
       y1="9.4200001"
       x2="41.224998"
       y2="12.399"
       gradientUnits="userSpaceOnUse"
       gradientTransform="matrix(1.1666664,0,0,1.1666664,3.885338,4.0580003)" />
    <linearGradient
       xlink:href="#linearGradient4513"
       id="linearGradient4537"
       x1="35.751999"
       y1="30.354"
       x2="40.571999"
       y2="35.174"
       gradientUnits="userSpaceOnUse"
       gradientTransform="matrix(1.1666664,0,0,1.1666664,3.885338,4.0580003)" />
    <linearGradient
       xlink:href="#linearGradient4325"
       id="linearGradient4323"
       x1="24.014999"
       y1="31.940001"
       x2="23.629999"
       y2="19.969"
       gradientUnits="userSpaceOnUse"
       gradientTransform="matrix(1.1666664,0,0,1.1666664,3.885338,4.0580003)" />
    <linearGradient
       id="linearGradient4325">
      <stop
         offset="0"
         style="stop-color:#2a2c2f;stop-opacity:1"
         id="stop152" />
      <stop
         offset="1"
         style="stop-color:#424649;stop-opacity:1"
         id="stop154" />
    </linearGradient>
  </defs>
  <path
     d="M 3,10.25 C 3,6.245825 6.245938,3 10.25,3 h 43.500005 c 4.00417,0 7.25,3.245825 7.25,7.25 v 43.5 c 0,4.004173 -3.24583,7.25 -7.25,7.25 H 10.25 C 6.245938,61 3,57.754173 3,53.75 Z"
     id="path736"
     style="fill:#606c86;fill-opacity:1;stroke-width:3.625" />
  <path
     d="M 3,9.796875 C 3,6.043188 6.245938,3 10.25,3 h 43.500005 c 4.00417,0 7.25,3.043188 7.25,6.796875 v 40.781249 c 0,3.753693 -3.24583,6.796876 -7.25,6.796876 H 10.25 C 6.245938,57.375 3,54.331817 3,50.578124 Z"
     id="path738"
     style="fill:url(#linearGradient22065);fill-opacity:1;stroke-width:3.625" />
  <path
     style="fill:url(#linearGradient4314);fill-opacity:1;stroke-width:1.16663"
     d="m 8.552003,11.058 c 0.3823756,4.209978 3.449451,5.184417 3.61621,9.681966 0.0885,1.899442 -2.4112293,6.265134 -2.3857408,8.791016 0.01261,1.19703 0.5959048,2.320905 1.5813788,3.014649 1.867215,1.313818 5.785147,1.845699 11.010419,1.845699 h 0.312175 c -4.412961,0 -7.72221,1.171383 -9.299158,2.221682 -0.832274,0.554602 -1.324629,1.453871 -1.335284,2.410809 0.193076,6.40615 1.083172,13.835046 8.424151,14.034178 8.44827,-0.09499 10.176938,-13.233912 10.24251,-18.666669 C 30.613367,30.732484 21.385334,11.058 8.552003,11.058 Z m 46.666669,0 c -12.833341,0 -22.061357,19.674484 -22.166667,23.33333 0.06553,5.432757 1.794242,18.57168 10.24251,18.66667 7.340982,-0.199133 8.23108,-7.628029 8.424152,-14.034179 -0.0106,-0.956938 -0.503005,-1.856207 -1.335287,-2.410809 -1.576942,-1.050299 -4.88619,-2.221682 -9.299151,-2.221682 h 0.312174 c 5.225272,0 9.143209,-0.531881 11.010422,-1.845699 0.985467,-0.693744 1.568762,-1.817619 1.581378,-3.014649 0.02553,-2.525882 -2.474248,-6.891574 -2.385742,-8.791016 0.166759,-4.497549 3.233831,-5.471988 3.616211,-9.681966 z"
     id="path176" />
  <path
     style="fill:none;stroke:#272b2d;stroke-width:1.16663px;stroke-linecap:butt;stroke-linejoin:miter;stroke-opacity:1"
     d="m 33.63534,26.224669 c 0,-3.500007 0.744245,-11.147197 5.250001,-11.083331"
     id="path178" />
  <path
     d="m 30.1436,26.224669 c 0,-3.500007 -0.744248,-11.147197 -5.250002,-11.083331"
     style="fill:none;stroke:#272b2d;stroke-width:1.16663px;stroke-linecap:butt;stroke-linejoin:miter;stroke-opacity:1"
     id="path180" />
  <path
     style="opacity:0.2;fill:url(#linearGradient4535);fill-opacity:1;stroke:none;stroke-width:2.33327;stroke-linecap:round;stroke-linejoin:round;stroke-miterlimit:4;stroke-dasharray:none;stroke-opacity:1"
     d="m 45.206303,46.746146 -3.29948,3.299483 2.852856,2.852867 c 1.832601,-0.337724 3.176069,-1.212908 4.165372,-2.433598 z"
     id="path184" />
  <path
     style="opacity:0.2;fill:url(#linearGradient4539);fill-opacity:1;stroke:none;stroke-width:2.33327;stroke-linecap:round;stroke-linejoin:round;stroke-miterlimit:4;stroke-dasharray:none;stroke-opacity:1"
     d="m 49.861575,26.892311 -3.299477,3.297203 3.388342,3.388341 c 1.010721,-0.270054 1.851197,-0.606407 2.456385,-1.032224 0.631073,-0.444264 1.073753,-1.074051 1.330723,-1.777345 z"
     id="path186" />
  <path
     style="opacity:0.2;fill:url(#linearGradient4519);fill-opacity:1;stroke:none;stroke-width:2.33327;stroke-linecap:round;stroke-linejoin:round;stroke-miterlimit:4;stroke-dasharray:none;stroke-opacity:1"
     d="m 15.205649,14.888402 -1.64974,1.64746 17.046552,17.046549 c -0.258974,-1.21592 -0.978172,-3.142556 -2.064457,-5.361651 z"
     id="path188" />
  <path
     style="opacity:0.2;fill:url(#linearGradient4527);fill-opacity:1;stroke:none;stroke-width:2.33327;stroke-linecap:round;stroke-linejoin:round;stroke-miterlimit:4;stroke-dasharray:none;stroke-opacity:1"
     d="m 21.857015,46.718807 -3.299479,3.299476 2.950843,2.950852 c 1.728751,-0.254604 3.140423,-1.096693 4.297531,-2.301437 z"
     id="path190" />
  <path
     style="opacity:0.2;fill:url(#linearGradient4523);fill-opacity:1;stroke:none;stroke-width:2.33327;stroke-linecap:round;stroke-linejoin:round;stroke-miterlimit:4;stroke-dasharray:none;stroke-opacity:1"
     d="m 17.197183,26.899148 -3.299481,3.299476 4.024092,4.024093 c 1.34897,0.110218 2.828699,0.168613 4.452476,0.168613 h 0.312175 c -1.55246,0 -2.959035,0.151428 -4.210937,0.385101 L 28.91398,45.2149 c 0.606488,-1.733189 1.027079,-3.560157 1.305665,-5.293295 z"
     id="path192" />
  <path
     style="opacity:0.2;fill:url(#linearGradient4525);fill-opacity:1;stroke:none;stroke-width:2.33327;stroke-linecap:round;stroke-linejoin:round;stroke-miterlimit:4;stroke-dasharray:none;stroke-opacity:1"
     d="m 18.505125,39.534234 -2.472324,2.472335 9.210281,9.210286 c 0.855766,-0.74763 1.584992,-1.684124 2.203452,-2.741214 z"
     id="path194" />
  <path
     style="opacity:0.2;fill:url(#linearGradient4521);fill-opacity:1;stroke:none;stroke-width:2.33327;stroke-linecap:round;stroke-linejoin:round;stroke-miterlimit:4;stroke-dasharray:none;stroke-opacity:1"
     d="m 19.630781,20.39361 -2.472339,2.472335 13.469077,13.469077 c 0.04761,-0.700545 0.08444,-1.384017 0.09113,-1.943692 -0.02241,-0.777401 -0.478359,-2.300227 -1.271477,-4.181308 z"
     id="path196" />
  <path
     style="opacity:0.2;fill:url(#linearGradient4541);fill-opacity:1;stroke:none;stroke-width:2.33327;stroke-linecap:round;stroke-linejoin:round;stroke-miterlimit:4;stroke-dasharray:none;stroke-opacity:1"
     d="m 46.507405,20.44146 -2.472334,2.472336 9.034834,9.034825 c 0.579087,-0.664532 0.908845,-1.520947 0.918298,-2.417639 0.0061,-0.563086 -0.125803,-1.224942 -0.314456,-1.923176 z"
     id="path198" />
  <path
     style="opacity:0.2;fill:url(#linearGradient4543);fill-opacity:1;stroke:none;stroke-width:2.33327;stroke-linecap:round;stroke-linejoin:round;stroke-miterlimit:4;stroke-dasharray:none;stroke-opacity:1"
     d="m 50.155517,14.845107 -1.649737,1.649737 3.201493,3.201507 c 0.15024,-0.975385 0.45325,-1.764559 0.815756,-2.481449 z"
     id="path200" />
  <circle
     r="1.1666665"
     style="fill:#ffffff;fill-opacity:1;stroke:none;stroke-width:2.33327;stroke-linecap:round;stroke-linejoin:round;stroke-miterlimit:4;stroke-dasharray:none;stroke-opacity:1"
     cx="14.385341"
     cy="15.724667"
     id="circle202" />
  <circle
     cy="21.703836"
     cx="18.468685"
     style="fill:#ffffff;fill-opacity:1;stroke:none;stroke-width:2.33327;stroke-linecap:round;stroke-linejoin:round;stroke-miterlimit:4;stroke-dasharray:none;stroke-opacity:1"
     r="1.7499996"
     id="circle204" />
  <circle
     style="fill:#ffffff;fill-opacity:1;stroke:none;stroke-width:2.33327;stroke-linecap:round;stroke-linejoin:round;stroke-miterlimit:4;stroke-dasharray:none;stroke-opacity:1"
     cx="15.552006"
     cy="28.558008"
     r="2.333333"
     id="circle206" />
  <circle
     r="1.7499996"
     style="fill:#ffffff;fill-opacity:1;stroke:none;stroke-width:2.33327;stroke-linecap:round;stroke-linejoin:round;stroke-miterlimit:4;stroke-dasharray:none;stroke-opacity:1"
     cx="17.302011"
     cy="40.807968"
     id="circle208" />
  <circle
     r="2.333333"
     cy="48.391315"
     cx="20.218678"
     style="fill:#ffffff;fill-opacity:1;stroke:none;stroke-width:2.33327;stroke-linecap:round;stroke-linejoin:round;stroke-miterlimit:4;stroke-dasharray:none;stroke-opacity:1"
     id="circle210" />
  <circle
     r="2.333333"
     cy="28.558008"
     cx="-48.218639"
     style="fill:#ffffff;fill-opacity:1;stroke:none;stroke-width:2.33327;stroke-linecap:round;stroke-linejoin:round;stroke-miterlimit:4;stroke-dasharray:none;stroke-opacity:1"
     transform="scale(-1,1)"
     id="circle212" />
  <circle
     r="1.7499996"
     style="fill:#ffffff;fill-opacity:1;stroke:none;stroke-width:2.33327;stroke-linecap:round;stroke-linejoin:round;stroke-miterlimit:4;stroke-dasharray:none;stroke-opacity:1"
     cx="-45.30196"
     cy="21.703836"
     transform="scale(-1,1)"
     id="circle214" />
  <circle
     cy="15.724667"
     cx="-49.385315"
     style="fill:#ffffff;fill-opacity:1;stroke:none;stroke-width:2.33327;stroke-linecap:round;stroke-linejoin:round;stroke-miterlimit:4;stroke-dasharray:none;stroke-opacity:1"
     r="1.1666665"
     transform="scale(-1,1)"
     id="circle216" />
  <path
     style="opacity:0.2;fill:url(#linearGradient4537);fill-opacity:1;stroke:none;stroke-width:2.33327;stroke-linecap:round;stroke-linejoin:round;stroke-miterlimit:4;stroke-dasharray:none;stroke-opacity:1"
     d="m 47.71281,39.572969 -2.472335,2.472337 5.327477,5.327466 c 0.42605,-1.265307 0.67869,-2.662759 0.849934,-4.094717 z"
     id="path218" />
  <circle
     cy="40.807968"
     cx="-46.468628"
     style="fill:#ffffff;fill-opacity:1;stroke:none;stroke-width:2.33327;stroke-linecap:round;stroke-linejoin:round;stroke-miterlimit:4;stroke-dasharray:none;stroke-opacity:1"
     r="1.7499996"
     transform="scale(-1,1)"
     id="circle220" />
  <circle
     style="fill:#ffffff;fill-opacity:1;stroke:none;stroke-width:2.33327;stroke-linecap:round;stroke-linejoin:round;stroke-miterlimit:4;stroke-dasharray:none;stroke-opacity:1"
     cx="-43.551971"
     cy="48.391315"
     r="2.333333"
     transform="scale(-1,1)"
     id="circle222" />
  <path
     style="opacity:0.15;fill:#000000;fill-opacity:1;stroke-width:1.16663"
     d="m 8.552003,11.058 c 0.3635554,4.002768 3.148938,5.086504 3.56608,9.048503 0.02423,-0.184578 0.05732,-0.378882 0.05013,-0.533207 -0.149931,-4.043641 -2.6381251,-5.246358 -3.41797,-8.506181 -0.06651,-0.0011 -0.1315365,-0.0091 -0.198243,-0.0091 z m 46.666669,0 c -0.06666,0 -0.13173,0.008 -0.198242,0.0091 -0.779848,3.259826 -3.268041,4.462544 -3.417969,8.50619 -0.0073,0.154319 0.0259,0.348623 0.05009,0.533203 0.417151,-3.961986 3.202537,-5.045723 3.566094,-9.048492 z M 9.8462737,28.858778 c -0.02901,0.229306 -0.065891,0.46523 -0.0638,0.672204 0.01261,1.19703 0.5959053,2.320905 1.5813803,3.014649 1.077708,0.7583 2.855486,1.2504 5.156575,1.535805 1.656062,-0.494906 3.734934,-0.856775 6.166012,-0.856775 h -0.312173 c -5.225274,0 -9.143206,-0.531884 -11.010416,-1.845695 -0.846983,-0.596258 -1.3717403,-1.515116 -1.51758,-2.520188 z m 44.0781193,0 c -0.145836,1.005072 -0.670593,1.92393 -1.517568,2.520188 -1.867213,1.313811 -5.78515,1.845695 -11.010422,1.845695 h -0.312174 c 2.431076,0 4.509949,0.361869 6.166014,0.856775 2.30109,-0.285405 4.078871,-0.777505 5.156582,-1.535805 0.985467,-0.693744 1.568763,-1.817619 1.581378,-3.014649 0.0024,-0.206974 -0.0348,-0.442898 -0.06382,-0.672204 z M 30.677658,34.104222 C 30.456834,39.925711 28.5306,51.800768 20.476154,51.891335 13.460806,51.70104 12.347444,44.91394 12.093018,38.72076 c -0.01219,0.10158 -0.03986,0.199774 -0.04102,0.303061 0.193076,6.40615 1.083173,13.835046 8.424151,14.034178 8.448268,-0.09497 10.176935,-13.233912 10.242509,-18.666669 -0.0025,-0.07584 -0.03108,-0.197866 -0.04098,-0.287108 z m 2.41536,0 c -0.01004,0.08924 -0.03886,0.21131 -0.04099,0.287108 0.06553,5.432757 1.79424,18.57168 10.242511,18.666669 7.340977,-0.199132 8.231079,-7.628028 8.424148,-14.034178 -0.0013,-0.103294 -0.02877,-0.201475 -0.04099,-0.303061 -0.254406,6.19318 -1.367774,12.98028 -8.38312,13.170575 -8.0545,-0.09056 -9.980737,-11.965624 -10.201559,-17.787113 z"
     id="path224" />
  <path
     style="fill:url(#linearGradient4323);fill-opacity:1;stroke-width:1.16663"
     d="m 31.885333,22.724662 c -1.932988,0 -3.499993,1.567008 -3.499993,3.500007 0,2.333328 2.333324,2.333328 1.166663,4.666668 v 3.499993 5.83334 c 0,1.292667 1.040661,2.333331 2.33333,2.333331 1.292672,0 2.333341,-1.040664 2.333341,-2.333331 v -5.83334 -3.499993 c -1.166669,-2.33334 1.166658,-2.33334 1.166658,-4.666668 0,-1.932999 -1.567004,-3.500007 -3.499999,-3.500007 z"
     id="path226" />
</svg>
