<?xml version="1.0" encoding="UTF-8" standalone="no"?>
<svg
   width="64"
   height="64"
   version="1.1"
   id="svg6"
   sodipodi:docname="goa-account-lastfm.svg"
   inkscape:version="1.2.2 (b0a8486541, 2022-12-01)"
   xmlns:inkscape="http://www.inkscape.org/namespaces/inkscape"
   xmlns:sodipodi="http://sodipodi.sourceforge.net/DTD/sodipodi-0.dtd"
   xmlns:xlink="http://www.w3.org/1999/xlink"
   xmlns="http://www.w3.org/2000/svg"
   xmlns:svg="http://www.w3.org/2000/svg">
  <defs
     id="defs10">
    <linearGradient
       xlink:href="#c"
       id="linearGradient4151"
       gradientUnits="userSpaceOnUse"
       x1="4.0000024"
       y1="43.999989"
       x2="43.999992"
       y2="3.9999998"
       gradientTransform="matrix(1.0499999,0,0,1.0499999,263.42573,-57.171395)" />
    <linearGradient
       id="c"
       y1="543.79999"
       y2="509.79999"
       gradientUnits="userSpaceOnUse"
       x2="0"
       gradientTransform="matrix(-1,0,0,1,817.14,0)">
      <stop
         stop-color="#c61423"
         id="stop10816" />
      <stop
         offset="1"
         stop-color="#dc2b41"
         id="stop10818" />
    </linearGradient>
    <linearGradient
       id="a-1"
       y1="32"
       y2="16"
       x2="0"
       gradientUnits="userSpaceOnUse"
       gradientTransform="matrix(1.687457,0,0,1.687457,-16.498967,-16.498123)">
      <stop
         stop-color="#f7abb2"
         id="stop10806-8" />
      <stop
         offset="1"
         stop-color="#f9dce0"
         id="stop10808-7" />
    </linearGradient>
    <linearGradient
       inkscape:collect="always"
       xlink:href="#linearGradient22063"
       id="linearGradient22065"
       x1="-14"
       y1="6"
       x2="-14"
       y2="-9.999999"
       gradientUnits="userSpaceOnUse"
       gradientTransform="matrix(3.6250002,0,0,3.6250002,82.750009,39.249999)" />
    <linearGradient
       inkscape:collect="always"
       id="linearGradient22063">
      <stop
         style="stop-color:#b64954;stop-opacity:1;"
         offset="0"
         id="stop22059" />
      <stop
         style="stop-color:#c66c77;stop-opacity:1;"
         offset="1"
         id="stop22061" />
    </linearGradient>
  </defs>
  <sodipodi:namedview
     id="namedview8"
     pagecolor="#ffffff"
     bordercolor="#000000"
     borderopacity="0.25"
     inkscape:showpageshadow="2"
     inkscape:pageopacity="0.0"
     inkscape:pagecheckerboard="0"
     inkscape:deskcolor="#d1d1d1"
     showgrid="false"
     inkscape:zoom="2.6074562"
     inkscape:cx="73.059712"
     inkscape:cy="13.998318"
     inkscape:window-width="1920"
     inkscape:window-height="1000"
     inkscape:window-x="0"
     inkscape:window-y="0"
     inkscape:window-maximized="1"
     inkscape:current-layer="svg6" />
  <path
     d="M 3.0000004,10.25 C 3.0000004,6.2458251 6.2459403,3 10.25,3 h 43.5 C 57.75417,3 61,6.2458251 61,10.25 v 43.5 C 61,57.754173 57.75417,61 53.75,61 H 10.25 C 6.2459403,61 3.0000004,57.754173 3.0000004,53.75 Z"
     id="path736"
     style="fill:#606c86;fill-opacity:1;stroke-width:3.625" />
  <path
     d="M 3.0000004,9.7968751 C 3.0000004,6.0431881 6.2459403,3 10.25,3 h 43.5 C 57.75417,3 61,6.0431881 61,9.7968751 V 50.578124 C 61,54.331817 57.75417,57.375 53.75,57.375 h -43.5 c -4.0040597,0 -7.2499996,-3.043183 -7.2499996,-6.796876 z"
     id="path738"
     style="fill:url(#linearGradient22065);fill-opacity:1;stroke-width:3.625" />
  <path
     d="M 36.564482,37.643742 36.07083,36.500678 31.819746,26.3891 c -1.403436,-3.578891 -4.90327,-5.996945 -8.846794,-5.996945 -5.337322,0 -9.665606,4.519014 -9.665606,10.09789 0,5.572786 4.328284,10.095339 9.66505,10.095339 3.726101,0 6.958356,-2.199873 8.573726,-5.420076 l 1.718556,4.138002 C 30.826797,42.40835 27.118615,44.387 22.972952,44.387 15.621765,44.387 9.665,38.169371 9.665,30.490045 9.665,22.812244 15.621765,16.587 22.972952,16.587 c 5.546934,0 10.025958,3.091815 12.303246,8.575823 0.170598,0.426183 2.405963,5.880237 4.356219,10.521511 1.204981,2.871634 2.233382,4.780307 5.574807,4.89697 3.273974,0.116701 5.529175,-1.96344 5.529175,-4.601689 0,-2.574325 -1.721981,-3.192775 -4.617429,-4.199367 -5.204454,-1.789943 -7.896034,-3.589535 -7.896034,-7.902047 0,-4.205476 2.739261,-7.011653 7.194362,-7.011653 2.896973,0 4.996406,1.347545 6.448472,4.034998 l -2.851352,1.520028 c -1.070506,-1.565696 -2.251632,-2.18567 -3.757971,-2.18567 -2.090299,0 -3.576848,1.517998 -3.576848,3.537272 0,2.868081 2.455614,3.29986 5.885826,4.473335 4.624015,1.570781 6.770164,3.368339 6.770164,7.849293 0,4.709275 -3.866573,8.139502 -8.918307,8.131888 -4.653458,-0.02189 -7.134942,-2.396234 -8.853372,-6.58395"
     fill="#ffffff"
     id="path4-3-3"
     style="stroke-width:0.507355" />
</svg>
