<?xml version="1.0" encoding="UTF-8" standalone="no"?>
<svg
   width="64"
   height="64"
   version="1.1"
   id="svg23117"
   sodipodi:docname="imagewriter.svg"
   inkscape:version="1.2.1 (9c6d41e410, 2022-07-14)"
   xmlns:inkscape="http://www.inkscape.org/namespaces/inkscape"
   xmlns:sodipodi="http://sodipodi.sourceforge.net/DTD/sodipodi-0.dtd"
   xmlns:xlink="http://www.w3.org/1999/xlink"
   xmlns="http://www.w3.org/2000/svg"
   xmlns:svg="http://www.w3.org/2000/svg">
  <sodipodi:namedview
     id="namedview23119"
     pagecolor="#ffffff"
     bordercolor="#666666"
     borderopacity="1.0"
     inkscape:showpageshadow="2"
     inkscape:pageopacity="0.0"
     inkscape:pagecheckerboard="0"
     inkscape:deskcolor="#d1d1d1"
     showgrid="false"
     inkscape:zoom="4.9166667"
     inkscape:cx="24.508474"
     inkscape:cy="24.508474"
     inkscape:window-width="1920"
     inkscape:window-height="1002"
     inkscape:window-x="0"
     inkscape:window-y="0"
     inkscape:window-maximized="1"
     inkscape:current-layer="svg23117" />
  <defs
     id="defs23105">
    <linearGradient
       id="a"
       y1="547.63397"
       y2="499.67899"
       x2="388.86499"
       gradientUnits="userSpaceOnUse"
       gradientTransform="translate(-453.04388,-539.81483)"
       x1="428.81601">
      <stop
         stop-color="#2a2c2f"
         id="stop23090" />
      <stop
         offset="1"
         stop-color="#536161"
         id="stop23092" />
    </linearGradient>
    <linearGradient
       id="b"
       y1="44"
       y2="12"
       x2="14"
       gradientUnits="userSpaceOnUse"
       x1="36"
       gradientTransform="translate(-68.473879,-40.014831)">
      <stop
         stop-color="#536161"
         style="stop-color:#bfc9c9;stop-opacity:1"
         id="stop23095" />
      <stop
         offset="1"
         stop-color="#f4f5f5"
         style="stop-color:#fbfbfb;stop-opacity:1"
         id="stop23097" />
    </linearGradient>
    <linearGradient
       id="c"
       y1="527.01398"
       x1="406.50101"
       y2="539.82501"
       x2="419.974"
       gradientUnits="userSpaceOnUse"
       gradientTransform="translate(-453.04388,-539.81483)">
      <stop
         stop-color="#292c2f"
         id="stop23100" />
      <stop
         offset="1"
         stop-opacity="0"
         id="stop23102" />
    </linearGradient>
    <linearGradient
       inkscape:collect="always"
       xlink:href="#linearGradient22063"
       id="linearGradient22065"
       x1="-14"
       y1="6"
       x2="-14"
       y2="-9.999999"
       gradientUnits="userSpaceOnUse"
       gradientTransform="matrix(3.6250002,0,0,3.6250002,82.750005,39.249999)" />
    <linearGradient
       inkscape:collect="always"
       id="linearGradient22063">
      <stop
         style="stop-color:#292f3a;stop-opacity:1;"
         offset="0"
         id="stop22059" />
      <stop
         style="stop-color:#535e75;stop-opacity:1;"
         offset="1"
         id="stop22061" />
    </linearGradient>
    <linearGradient
       gradientTransform="matrix(1.4175135,0,0,1.4175135,-0.97261301,0.3330346)"
       id="b-3"
       y1="23.774559"
       x1="22.540125"
       y2="35.804409"
       x2="35.770538"
       gradientUnits="userSpaceOnUse">
      <stop
         stop-color="#292c2f"
         id="stop12" />
      <stop
         offset="1"
         stop-color="#292c2f"
         stop-opacity="0"
         id="stop14" />
    </linearGradient>
    <linearGradient
       xlink:href="#linearGradient4564"
       id="linearGradient4570"
       x1="18.653"
       y1="20.191"
       x2="7.4320002"
       y2="8.5249996"
       gradientUnits="userSpaceOnUse"
       gradientTransform="matrix(0.99999999,0,0,1.1578948,8.0000025,3.1451316)" />
    <linearGradient
       id="linearGradient4564">
      <stop
         style="stop-color:#ffa92d;stop-opacity:1;"
         offset="0"
         id="stop4566" />
      <stop
         style="stop-color:#ffc169;stop-opacity:1"
         offset="1"
         id="stop4568" />
    </linearGradient>
    <linearGradient
       xlink:href="#linearGradient4574"
       id="linearGradient4580"
       x1="28.615"
       y1="21.502001"
       x2="39.939999"
       y2="10.118"
       gradientUnits="userSpaceOnUse"
       gradientTransform="matrix(0.99999999,0,0,1.1578948,8.0000025,3.1451316)" />
    <linearGradient
       id="linearGradient4574">
      <stop
         style="stop-color:#bf4231;stop-opacity:1;"
         offset="0"
         id="stop4576" />
      <stop
         style="stop-color:#f58273;stop-opacity:1"
         offset="1"
         id="stop4578" />
    </linearGradient>
    <linearGradient
       xlink:href="#linearGradient4590"
       id="linearGradient4596"
       x1="33.241001"
       y1="30.191"
       x2="40.393002"
       y2="37.416"
       gradientUnits="userSpaceOnUse"
       gradientTransform="matrix(0.99999999,0,0,1.1578948,8.0000025,3.1451316)" />
    <linearGradient
       id="linearGradient4590">
      <stop
         id="stop4594"
         offset="0"
         style="stop-color:#54d883;stop-opacity:1" />
      <stop
         id="stop4592"
         offset="1"
         style="stop-color:#3bb566;stop-opacity:1;" />
    </linearGradient>
    <linearGradient
       xlink:href="#linearGradient4582"
       id="linearGradient4588"
       x1="19.830999"
       y1="26.561001"
       x2="9.6899996"
       y2="37.881001"
       gradientUnits="userSpaceOnUse"
       gradientTransform="matrix(0.99999999,0,0,1.1578948,8.0000025,3.1451316)" />
    <linearGradient
       id="linearGradient4582">
      <stop
         id="stop4586"
         offset="0"
         style="stop-color:#7cbcec;stop-opacity:1" />
      <stop
         id="stop4584"
         offset="1"
         style="stop-color:#3b85b5;stop-opacity:1;" />
    </linearGradient>
    <linearGradient
       xlink:href="#linearGradient4626"
       id="linearGradient4632"
       x1="23.693001"
       y1="21.277"
       x2="34.937"
       y2="32.521999"
       gradientUnits="userSpaceOnUse"
       gradientTransform="matrix(1.1,0,0,1.1,5.6000025,4.5346056)" />
    <linearGradient
       id="linearGradient4626">
      <stop
         style="stop-color:#000000;stop-opacity:1;"
         offset="0"
         id="stop4628" />
      <stop
         style="stop-color:#000000;stop-opacity:0;"
         offset="1"
         id="stop4630" />
    </linearGradient>
    <linearGradient
       xlink:href="#linearGradient4598"
       id="linearGradient4604"
       x1="27.197001"
       y1="33.474998"
       x2="21.365999"
       y2="14.901"
       gradientUnits="userSpaceOnUse"
       gradientTransform="matrix(1.1,0,0,1.32,5.6000025,-0.74539444)" />
    <linearGradient
       id="linearGradient4598">
      <stop
         style="stop-color:#172525;stop-opacity:1;"
         offset="0"
         id="stop4600" />
      <stop
         style="stop-color:#334545;stop-opacity:1"
         offset="1"
         id="stop4602" />
    </linearGradient>
    <linearGradient
       xlink:href="#linearGradient4656"
       id="linearGradient4662"
       x1="19.025"
       y1="15.232"
       x2="29.945999"
       y2="31.764999"
       gradientUnits="userSpaceOnUse"
       gradientTransform="matrix(1.1,0,0,1.1,6.7000025,4.5346056)" />
    <linearGradient
       id="linearGradient4656">
      <stop
         style="stop-color:#ffffff;stop-opacity:1;"
         offset="0"
         id="stop4658" />
      <stop
         style="stop-color:#536161;stop-opacity:1"
         offset="1"
         id="stop4660" />
    </linearGradient>
    <linearGradient
       id="d"
       gradientTransform="matrix(2.114694,2.114694,-2.114694,2.114694,3.2088125,-828.15895)"
       gradientUnits="userSpaceOnUse"
       x1="210.5"
       x2="210.5"
       y1="188"
       y2="193.5">
      <stop
         offset="0"
         stop-color="#9b9ea2"
         id="stop17" />
      <stop
         offset="1"
         stop-color="#1a1b1e"
         id="stop19" />
    </linearGradient>
    <linearGradient
       id="a-3"
       gradientTransform="matrix(3.4959872,0,0,3.4959871,1.30074,3.299862)"
       gradientUnits="userSpaceOnUse"
       x1="8.5"
       x2="0.5"
       y1="7.6373668"
       y2="-0.371815">
      <stop
         offset="0"
         stop-color="#4f5356"
         id="stop2" />
      <stop
         offset="1"
         stop-color="#9b9ea2"
         stop-opacity="1"
         id="stop4" />
    </linearGradient>
    <radialGradient
       id="b-6"
       cx="16"
       cy="17"
       gradientUnits="userSpaceOnUse"
       r="11">
      <stop
         offset="0"
         stop-color="#3dd425"
         stop-opacity=".954751"
         id="stop7" />
      <stop
         offset="1"
         stop-color="#59f07c"
         id="stop9" />
    </radialGradient>
    <linearGradient
       id="c-7"
       gradientUnits="userSpaceOnUse"
       x1="14.541744"
       x2="26.541744"
       y1="16"
       y2="28"
       gradientTransform="matrix(1.5,0,0,1.5,8.0000025,7.0414438)">
      <stop
         offset="0"
         id="stop12-5" />
      <stop
         offset="1"
         stop-opacity="0"
         id="stop14-3" />
    </linearGradient>
    <linearGradient
       xlink:href="#linearGradient564"
       id="linearGradient4309"
       x1="7.6230001"
       y1="16.497"
       x2="46"
       y2="40"
       gradientUnits="userSpaceOnUse"
       gradientTransform="matrix(1.1277754,0,0,1.1277754,4.5436767,1.4778)" />
    <linearGradient
       id="linearGradient564">
      <stop
         style="stop-color:#5e98d7;stop-opacity:1"
         offset="0"
         id="stop223" />
      <stop
         style="stop-color:#3363ac;stop-opacity:1"
         offset="1"
         id="stop225" />
    </linearGradient>
    <linearGradient
       xlink:href="#linearGradient4626"
       id="linearGradient4419"
       x1="4"
       y1="29"
       x2="15.409"
       y2="40.409"
       gradientUnits="userSpaceOnUse"
       gradientTransform="matrix(1.1277754,0,0,1.1277754,4.5436767,3.7338968)" />
    <linearGradient
       xlink:href="#linearGradient4626"
       id="linearGradient4407"
       x1="10"
       y1="8"
       x2="33.004002"
       y2="31.004"
       gradientUnits="userSpaceOnUse"
       gradientTransform="matrix(1.1277754,0,0,1.1277754,4.5436767,3.7338968)" />
    <linearGradient
       x1="27.719999"
       y1="14.786"
       x2="27.719999"
       y2="24.357"
       id="linearGradient3432"
       xlink:href="#linearGradient4321"
       gradientUnits="userSpaceOnUse"
       gradientTransform="matrix(1.0609217,0,0,1.4140536,-9.076381,-2.5141373)"
       spreadMethod="pad" />
    <linearGradient
       id="linearGradient4321">
      <stop
         offset="0"
         style="stop-color:#ffffff;stop-opacity:1"
         id="stop213" />
      <stop
         offset="1"
         style="stop-color:#b1b1b1;stop-opacity:1"
         id="stop215" />
    </linearGradient>
    <linearGradient
       xlink:href="#linearGradient4192"
       id="linearGradient4333"
       x1="17"
       y1="18"
       x2="11.574"
       y2="9.3629999"
       gradientUnits="userSpaceOnUse"
       gradientTransform="matrix(1.1277754,0,0,1.1277754,4.5436767,1.4778)" />
    <linearGradient
       id="linearGradient4192">
      <stop
         style="stop-color:#44a3c8;stop-opacity:1"
         offset="0"
         id="stop198" />
      <stop
         style="stop-color:#8dcdda;stop-opacity:1"
         offset="1"
         id="stop200" />
    </linearGradient>
    <linearGradient
       xlink:href="#linearGradient4313"
       id="linearGradient4319"
       x1="12"
       y1="18"
       x2="14"
       y2="20"
       gradientUnits="userSpaceOnUse"
       gradientTransform="matrix(1.1277754,0,0,1.1277754,5.1075644,1.5905776)" />
    <linearGradient
       id="linearGradient4313">
      <stop
         style="stop-color:#ffffff;stop-opacity:1;"
         offset="0"
         id="stop218" />
      <stop
         style="stop-color:#ffffff;stop-opacity:0;"
         offset="1"
         id="stop220" />
    </linearGradient>
    <linearGradient
       xlink:href="#linearGradient4192"
       id="linearGradient4350"
       x1="13"
       y1="38"
       x2="4"
       y2="30"
       gradientUnits="userSpaceOnUse"
       gradientTransform="matrix(1.1277754,0,0,1.1277754,4.5436767,1.4778)" />
    <linearGradient
       gradientTransform="matrix(0.33710364,0,0,0.33162938,257.3899,363.04509)"
       xlink:href="#linearGradient3347"
       id="linearGradient3353"
       x1="376.91901"
       y1="410.05899"
       x2="528.57098"
       y2="561.711"
       gradientUnits="userSpaceOnUse" />
    <linearGradient
       id="linearGradient3347">
      <stop
         style="stop-color:#006680;stop-opacity:1;"
         offset="0"
         id="stop215-3" />
      <stop
         offset=".252"
         style="stop-color:#80b3ff;stop-opacity:1"
         id="stop217" />
      <stop
         style="stop-color:#0066ff;stop-opacity:1"
         offset=".459"
         id="stop219" />
      <stop
         offset=".899"
         style="stop-color:#002255;stop-opacity:1"
         id="stop221" />
      <stop
         style="stop-color:#006680;stop-opacity:0;"
         offset="1"
         id="stop223-6" />
    </linearGradient>
    <linearGradient
       xlink:href="#linearGradient4772"
       id="linearGradient4778"
       x1="19"
       y1="12"
       x2="27"
       y2="36"
       gradientUnits="userSpaceOnUse" />
    <linearGradient
       id="linearGradient4772">
      <stop
         style="stop-color:#c8cfd3;stop-opacity:1;"
         offset="0"
         id="stop234" />
      <stop
         style="stop-color:#94918a;stop-opacity:1"
         offset="1"
         id="stop236" />
    </linearGradient>
    <linearGradient
       id="e"
       y1="44"
       y2="20"
       x2="0"
       gradientUnits="userSpaceOnUse">
      <stop
         stop-color="#eef1f2"
         id="stop264" />
      <stop
         offset="1"
         stop-color="#f9fafb"
         id="stop266" />
    </linearGradient>
    <linearGradient
       xlink:href="#linearGradient4992"
       id="linearGradient4355"
       x1="19"
       y1="10"
       x2="25"
       y2="36"
       gradientUnits="userSpaceOnUse"
       gradientTransform="matrix(1.0476187,0,0,1.0476187,7.3809875,6.956753)" />
    <linearGradient
       id="linearGradient4992">
      <stop
         offset="0"
         style="stop-color:#009200;stop-opacity:1"
         id="stop214" />
      <stop
         offset="1"
         style="stop-color:#006400;stop-opacity:1"
         id="stop216" />
    </linearGradient>
    <radialGradient
       xlink:href="#linearGradient4986"
       id="radialGradient4984"
       cx="36.651001"
       cy="12.791"
       fx="36.651001"
       fy="12.791"
       r="5.8540001"
       gradientTransform="matrix(0.24144536,-0.07252078,0.38923387,1.2958866,30.219667,5.217339)"
       gradientUnits="userSpaceOnUse" />
    <linearGradient
       gradientUnits="userSpaceOnUse"
       x2="422.57001"
       y2="519.79999"
       x1="414.57001"
       y1="511.79999"
       id="linearGradient4986">
      <stop
         stop-color="#292c2f"
         style="stop-opacity:0.466"
         id="stop219-3" />
      <stop
         stop-opacity="0"
         offset="1"
         id="stop221-6" />
    </linearGradient>
    <radialGradient
       xlink:href="#g"
       id="radialGradient4974"
       cx="18.992001"
       cy="-11.809"
       fx="18.992001"
       fy="-11.809"
       r="8.4259996"
       gradientTransform="matrix(0.29529527,0.49733977,-0.12433493,0.07382381,18.637974,15.145183)"
       gradientUnits="userSpaceOnUse" />
    <linearGradient
       id="g"
       y1="511.79999"
       x1="414.57001"
       y2="519.79999"
       x2="422.57001"
       gradientUnits="userSpaceOnUse">
      <stop
         stop-color="#292c2f"
         id="stop269" />
      <stop
         offset="1"
         stop-opacity="0"
         id="stop271" />
    </linearGradient>
    <radialGradient
       xlink:href="#linearGradient4978"
       id="radialGradient4976"
       cx="28.299999"
       cy="10.776"
       fx="28.299999"
       fy="10.776"
       r="9.4639997"
       gradientTransform="matrix(0.21287501,-0.06082145,0.22139333,0.77487686,27.256587,11.85173)"
       gradientUnits="userSpaceOnUse" />
    <linearGradient
       gradientUnits="userSpaceOnUse"
       x2="422.57001"
       y2="519.79999"
       x1="414.57001"
       y1="511.79999"
       id="linearGradient4978">
      <stop
         stop-color="#292c2f"
         style="stop-opacity:0.572"
         id="stop224" />
      <stop
         stop-opacity="0"
         offset="1"
         id="stop226" />
    </linearGradient>
    <linearGradient
       xlink:href="#linearGradient4357"
       id="linearGradient4363"
       x1="24"
       y1="21"
       x2="32"
       y2="32"
       gradientUnits="userSpaceOnUse"
       gradientTransform="matrix(1.0476187,0,0,1.0476187,7.3809875,6.956753)" />
    <linearGradient
       id="linearGradient4357">
      <stop
         style="stop-color:#00c200;stop-opacity:1;"
         offset="0"
         id="stop244" />
      <stop
         style="stop-color:#007900;stop-opacity:1"
         offset="1"
         id="stop246" />
    </linearGradient>
    <linearGradient
       xlink:href="#linearGradient4574-5"
       id="linearGradient4580-7"
       x1="7"
       y1="13"
       x2="6"
       y2="10"
       gradientUnits="userSpaceOnUse"
       gradientTransform="matrix(1.0476187,0,0,1.0476187,7.3809875,6.956753)" />
    <linearGradient
       id="linearGradient4574-5">
      <stop
         style="stop-color:#f4be00;stop-opacity:1;"
         offset="0"
         id="stop239" />
      <stop
         style="stop-color:#fff4ca;stop-opacity:1"
         offset="1"
         id="stop241" />
    </linearGradient>
    <linearGradient
       xlink:href="#linearGradient4574-5"
       id="linearGradient4588-3"
       x1="16"
       y1="8"
       x2="13"
       y2="4"
       gradientUnits="userSpaceOnUse"
       gradientTransform="matrix(1.0476187,0,0,1.0476187,7.3809875,6.956753)" />
    <linearGradient
       xlink:href="#linearGradient4574-5"
       id="linearGradient4654"
       x1="27"
       y1="6"
       x2="25.660999"
       y2="2"
       gradientUnits="userSpaceOnUse"
       gradientTransform="matrix(1.0476187,0,0,1.0476187,7.3809875,6.956753)" />
    <linearGradient
       xlink:href="#linearGradient4574-5"
       id="linearGradient4796"
       x1="26.43"
       y1="24"
       x2="21.454"
       y2="21.636999"
       gradientUnits="userSpaceOnUse"
       gradientTransform="matrix(1.0476187,0,0,1.0476187,7.3809875,6.956753)" />
    <linearGradient
       id="e-2"
       y1="44"
       y2="20"
       x2="0"
       gradientUnits="userSpaceOnUse"
       gradientTransform="translate(-7.1525574e-6,20.000011)">
      <stop
         stop-color="#eef1f2"
         id="stop276" />
      <stop
         offset="1"
         stop-color="#f9fafb"
         id="stop278" />
    </linearGradient>
    <linearGradient
       id="c-5"
       x1="384.57001"
       x2="414.57001"
       gradientUnits="userSpaceOnUse">
      <stop
         stop-opacity=".275"
         id="stop254" />
      <stop
         offset="1"
         stop-color="#ffffff"
         stop-opacity="0"
         id="stop256" />
    </linearGradient>
    <linearGradient
       id="d-6"
       y1="547.79999"
       x1="432.57001"
       y2="527.79999"
       x2="421.01999"
       gradientUnits="userSpaceOnUse">
      <stop
         stop-opacity=".082"
         id="stop259" />
      <stop
         offset="1"
         stop-opacity="0"
         id="stop261" />
    </linearGradient>
    <linearGradient
       id="b-2"
       y1="547.79999"
       x1="384.57001"
       y2="530.47998"
       x2="394.57001"
       gradientUnits="userSpaceOnUse">
      <stop
         stop-color="#ffffff"
         stop-opacity="0"
         id="stop249" />
      <stop
         offset="1"
         stop-color="#ffffff"
         stop-opacity=".314"
         id="stop251" />
    </linearGradient>
    <linearGradient
       xlink:href="#linearGradient4838"
       id="linearGradient4858"
       x1="33.5"
       y1="7"
       x2="27.568001"
       y2="5"
       gradientUnits="userSpaceOnUse"
       gradientTransform="matrix(1.0476187,0,0,1.0476187,7.3809875,6.956753)" />
    <linearGradient
       id="linearGradient4838">
      <stop
         offset="0"
         style="stop-color:#2e9000;stop-opacity:1"
         id="stop229" />
      <stop
         offset="1"
         style="stop-color:#00ba00;stop-opacity:1"
         id="stop231" />
    </linearGradient>
    <linearGradient
       id="b-36"
       y1="44"
       x1="44"
       y2="4"
       x2="24"
       gradientUnits="userSpaceOnUse">
      <stop
         stop-color="#c61423"
         id="stop299" />
      <stop
         offset="1"
         stop-color="#dc2b41"
         id="stop301" />
    </linearGradient>
    <linearGradient
       id="a-7"
       y1="4"
       x1="24"
       y2="44"
       x2="4"
       gradientUnits="userSpaceOnUse">
      <stop
         stop-color="#197cf1"
         id="stop294" />
      <stop
         offset="1"
         stop-color="#20bcfa"
         id="stop296" />
    </linearGradient>
    <linearGradient
       id="c-53"
       x1="44"
       x2="4"
       gradientUnits="userSpaceOnUse">
      <stop
         stop-color="#42a603"
         id="stop304" />
      <stop
         offset="1"
         stop-color="#78da06"
         id="stop306" />
    </linearGradient>
    <linearGradient
       id="d-5"
       y1="522.79999"
       y2="538.79999"
       x1="400.57001"
       gradientUnits="userSpaceOnUse"
       x2="416.57001">
      <stop
         stop-color="#292c2f"
         id="stop309" />
      <stop
         offset="1"
         stop-opacity="0"
         id="stop311" />
    </linearGradient>
    <linearGradient
       xlink:href="#b-67"
       id="d-3"
       x1="45"
       y1="43"
       x2="5"
       y2="3"
       gradientUnits="userSpaceOnUse"
       gradientTransform="matrix(1.099836,0,0,1.099836,5.589659,5.5732238)" />
    <linearGradient
       id="b-67">
      <stop
         style="stop-color:#197cf1"
         id="stop300" />
      <stop
         offset="1"
         style="stop-color:#20bcfa"
         id="stop302" />
    </linearGradient>
    <linearGradient
       xlink:href="#c-3"
       id="e-5"
       x1="45"
       y1="43"
       x2="5"
       y2="3"
       gradientUnits="userSpaceOnUse"
       gradientTransform="matrix(1.099836,0,0,1.099836,5.589659,5.5732238)" />
    <linearGradient
       id="c-3">
      <stop
         style="stop-color:#7cbaf8"
         id="stop295" />
      <stop
         offset="1"
         style="stop-color:#f4fcff"
         id="stop297" />
    </linearGradient>
    <linearGradient
       id="f"
       x1="15.233"
       x2="39.609001"
       y1="11.995"
       y2="36.369999"
       gradientUnits="userSpaceOnUse"
       gradientTransform="matrix(1.099836,0,0,1.099836,5.589659,5.5732238)">
      <stop
         offset="0"
         id="stop290" />
      <stop
         stop-opacity="0"
         offset="1"
         id="stop292" />
    </linearGradient>
    <linearGradient
       id="g-5"
       y1="37"
       y2="4"
       x2="0"
       gradientUnits="userSpaceOnUse"
       gradientTransform="matrix(-0.84252937,0.462723,-0.48643547,-0.80146149,59.650996,41.420179)">
      <stop
         stop-color="#da4453"
         id="stop284" />
      <stop
         offset="1"
         stop-color="#ff7336"
         id="stop286" />
    </linearGradient>
    <linearGradient
       xlink:href="#a-6"
       id="h"
       y1="22.313"
       x1="20.438"
       y2="25.406"
       x2="23.531"
       gradientUnits="userSpaceOnUse"
       gradientTransform="matrix(-0.84252937,0.462723,-0.48643547,-0.80146149,59.650996,41.420179)" />
    <linearGradient
       id="a-6"
       y1="30"
       x1="24"
       y2="44"
       x2="38"
       gradientUnits="userSpaceOnUse">
      <stop
         id="stop279" />
      <stop
         offset="1"
         stop-opacity="0"
         id="stop281" />
    </linearGradient>
    <linearGradient
       id="c-36"
       y1="20.16"
       x1="25.129999"
       y2="4.7589998"
       x2="7.0700002"
       gradientUnits="userSpaceOnUse"
       gradientTransform="matrix(1.25,0,0,1.26667,388.57,502.26)">
      <stop
         stop-color="#c0392b"
         id="stop307" />
      <stop
         offset="1"
         stop-color="#b677d3"
         id="stop309-7" />
    </linearGradient>
    <linearGradient
       xlink:href="#a-35"
       id="b-5"
       y1="532.42999"
       x1="382.20999"
       y2="526.78998"
       x2="395.45001"
       gradientUnits="userSpaceOnUse"
       gradientTransform="matrix(1.08253,0.63333,0.625,-1.09696,-357.51,852.48)" />
    <linearGradient
       id="a-35"
       y1="534.08002"
       x1="390.07999"
       y2="513.53998"
       x2="389.88"
       gradientUnits="userSpaceOnUse"
       gradientTransform="matrix(-1.08253,0.63333,-0.625,-1.09696,1174.65,852.48)">
      <stop
         stop-color="#fcfcfc"
         id="stop301-6" />
      <stop
         offset="1"
         stop-color="#b677d3"
         id="stop303" />
    </linearGradient>
    <linearGradient
       xlink:href="#d-9"
       id="g-2"
       y1="524.44"
       x1="393.10001"
       y2="522.65997"
       x2="388.89001"
       gradientUnits="userSpaceOnUse"
       gradientTransform="matrix(0.95819,0.56059,0.55321,-0.97096,-270.72,815.18)" />
    <linearGradient
       id="d-9"
       y1="537.59998"
       x1="400.57001"
       y2="546.58002"
       x2="392.89999"
       gradientUnits="userSpaceOnUse"
       gradientTransform="matrix(1.25,0,0,1.26667,-92.14,-151.08)">
      <stop
         stop-color="#ffc35a"
         id="stop312" />
      <stop
         offset="1"
         stop-color="#faae2a"
         id="stop314" />
    </linearGradient>
    <linearGradient
       xlink:href="#d-9"
       id="h-1"
       y1="522.90002"
       x1="392.69"
       y2="521.72998"
       x2="389.45001"
       gradientUnits="userSpaceOnUse"
       gradientTransform="matrix(-0.95819,0.56059,-0.55321,-0.97096,1087.86,815.18)" />
    <linearGradient
       id="f-2"
       y1="535.35999"
       x1="390.57001"
       y2="540.75"
       x2="386.57001"
       gradientUnits="userSpaceOnUse"
       gradientTransform="matrix(1.25,0,0,1.26667,-92.14,-151.08)">
      <stop
         stop-color="#fdbc4b"
         id="stop318" />
      <stop
         offset="1"
         stop-color="#dde341"
         id="stop320" />
    </linearGradient>
    <linearGradient
       xlink:href="#l"
       id="n"
       y1="535.79999"
       x1="396.57001"
       y2="542.79999"
       x2="389.57001"
       gradientUnits="userSpaceOnUse"
       gradientTransform="matrix(-1.25,0,0,1.26667,919.29,-151.08)" />
    <linearGradient
       id="l"
       y1="535.79999"
       x1="396.57001"
       y2="542.79999"
       x2="389.57001"
       gradientUnits="userSpaceOnUse"
       gradientTransform="matrix(-1.25,0,0,1.26667,909.29,-152.35)">
      <stop
         id="stop328" />
      <stop
         offset="1"
         stop-opacity="0"
         id="stop330" />
    </linearGradient>
    <linearGradient
       xlink:href="#d-9"
       id="i"
       y1="535.35999"
       x1="390.57001"
       y2="540.75"
       x2="386.57001"
       gradientUnits="userSpaceOnUse"
       gradientTransform="matrix(-1.25,0,0,1.26667,909.29,-151.08)" />
    <linearGradient
       xlink:href="#l"
       id="m"
       y1="535.79999"
       x1="396.57001"
       y2="542.79999"
       x2="389.57001"
       gradientUnits="userSpaceOnUse"
       gradientTransform="matrix(-1.25,0,0,1.26667,914.29,-151.08)" />
    <linearGradient
       xlink:href="#d-9"
       id="j"
       y1="538.07001"
       x1="393.42999"
       y2="539.31"
       x2="390.56"
       gradientUnits="userSpaceOnUse"
       gradientTransform="matrix(-1.25,0,0,1.26667,909.29,-151.08)" />
    <linearGradient
       xlink:href="#d-9"
       id="k"
       y1="537.59998"
       x1="400.57001"
       y2="546.58002"
       x2="392.89999"
       gradientUnits="userSpaceOnUse"
       gradientTransform="matrix(-1.25,0,0,1.26667,909.29,-151.08)" />
    <linearGradient
       xlink:href="#d-9"
       id="p"
       y1="535.35999"
       x1="390.57001"
       y2="540.75"
       x2="386.57001"
       gradientUnits="userSpaceOnUse"
       gradientTransform="matrix(1.25,0,0,1.26667,-92.14,-151.08)" />
    <linearGradient
       xlink:href="#d-9"
       id="e-7"
       y1="538.07001"
       x1="393.42999"
       y2="539.31"
       x2="390.56"
       gradientUnits="userSpaceOnUse"
       gradientTransform="matrix(1.25,0,0,1.26667,-92.14,-151.08)" />
    <linearGradient
       xlink:href="#l"
       id="o"
       y1="535.79999"
       x1="396.57001"
       y2="547.79999"
       x2="384.57001"
       gradientUnits="userSpaceOnUse"
       gradientTransform="matrix(-1.25,0,0,1.26667,890.54,-167.55)" />
    <linearGradient
       id="b-367"
       y1="23.775"
       x1="22.540001"
       y2="37.804001"
       x2="36.896"
       gradientUnits="userSpaceOnUse"
       gradientTransform="matrix(1.6154137,0,0,1.6154137,-6.7698765,-5.4607465)">
      <stop
         stop-color="#292c2f"
         id="stop349" />
      <stop
         offset="1"
         stop-color="#292c2f"
         stop-opacity="0"
         id="stop351" />
    </linearGradient>
    <linearGradient
       id="a-36"
       y1="543.79999"
       y2="503.79999"
       x2="0"
       gradientUnits="userSpaceOnUse">
      <stop
         stop-color="#faae2a"
         id="stop323" />
      <stop
         offset="1"
         stop-color="#ffc35a"
         id="stop325" />
    </linearGradient>
    <linearGradient
       id="b-7"
       y1="34"
       y2="13"
       x2="0"
       gradientUnits="userSpaceOnUse">
      <stop
         stop-color="#2a2c2f"
         id="stop328-5" />
      <stop
         offset="1"
         stop-color="#424649"
         id="stop330-3" />
    </linearGradient>
    <linearGradient
       id="c-56"
       y1="13"
       x1="13"
       y2="31"
       x2="31"
       gradientUnits="userSpaceOnUse">
      <stop
         stop-color="#383e51"
         id="stop333" />
      <stop
         offset="1"
         stop-color="#655c6f"
         stop-opacity="0"
         id="stop335" />
    </linearGradient>
    <linearGradient
       spreadMethod="reflect"
       id="a-367"
       x1="428.57001"
       x2="408.57001"
       gradientUnits="userSpaceOnUse">
      <stop
         stop-color="#2f3943"
         id="stop336" />
      <stop
         offset="1"
         stop-color="#808c9b"
         id="stop338" />
    </linearGradient>
    <linearGradient
       id="b-53"
       y1="-511.20001"
       x1="-395.07001"
       y2="-535.79999"
       x2="-419.67001"
       gradientUnits="userSpaceOnUse">
      <stop
         stop-color="#18222a"
         id="stop341" />
      <stop
         offset="1"
         stop-color="#566069"
         id="stop343" />
    </linearGradient>
    <linearGradient
       id="c-562"
       y1="-514"
       x1="-398.07001"
       y2="-533.13"
       x2="-417.20001"
       gradientUnits="userSpaceOnUse">
      <stop
         stop-color="#2e5d89"
         id="stop346" />
      <stop
         offset="1"
         stop-color="#1b92f4"
         id="stop348" />
    </linearGradient>
    <linearGradient
       xlink:href="#c-562"
       id="g-9"
       y1="-516.79999"
       x1="-401.07001"
       y2="-541.29999"
       x2="-425.57001"
       gradientUnits="userSpaceOnUse" />
    <linearGradient
       id="d-1"
       y1="536.87"
       x1="421.64001"
       y2="511.82001"
       gradientUnits="userSpaceOnUse"
       x2="396.59"
       gradientTransform="rotate(180,408.57,523.8)">
      <stop
         stop-color="#197cf1"
         id="stop351-2" />
      <stop
         offset="1"
         stop-color="#20bcfa"
         id="stop353" />
    </linearGradient>
    <linearGradient
       xlink:href="#d-1"
       id="e-70"
       y1="532.22998"
       x1="417"
       y2="508.73001"
       gradientUnits="userSpaceOnUse"
       x2="393.5"
       gradientTransform="rotate(180,408.57,523.8)" />
    <linearGradient
       xlink:href="#d-1"
       id="f-9"
       y1="529.62"
       x1="414.39999"
       y2="506.91"
       gradientUnits="userSpaceOnUse"
       x2="391.69"
       gradientTransform="rotate(180,408.57,523.8)" />
    <linearGradient
       id="d-36"
       y1="509.79999"
       x1="394.57001"
       y2="537.95001"
       x2="422.73001"
       gradientUnits="userSpaceOnUse">
      <stop
         stop-color="#e5e7e8"
         id="stop376" />
      <stop
         offset="1"
         stop-color="#dcdee0"
         id="stop378" />
    </linearGradient>
    <linearGradient
       id="e-75"
       x1="389.57001"
       x2="427.57001"
       gradientUnits="userSpaceOnUse"
       gradientTransform="matrix(0.70711,0.70711,-0.70711,0.70711,490.05,-135.49)">
      <stop
         stop-color="#fcfcfc"
         id="stop381" />
      <stop
         offset="1"
         stop-color="#eff0f1"
         id="stop383" />
    </linearGradient>
    <linearGradient
       id="b-35"
       y1="44.09"
       x1="26.362"
       y2="33.75"
       x2="44"
       gradientUnits="userSpaceOnUse">
      <stop
         stop-color="#c0392b"
         id="stop366" />
      <stop
         offset="1"
         stop-color="#c0392b"
         stop-opacity="0"
         id="stop368" />
    </linearGradient>
    <linearGradient
       xlink:href="#d-36"
       id="f-6"
       y1="133.33"
       x1="771.70001"
       y2="160.66"
       gradientUnits="userSpaceOnUse"
       x2="799.03998" />
    <linearGradient
       id="h-2"
       y1="557.79999"
       y2="505.79999"
       gradientUnits="userSpaceOnUse"
       x2="0"
       gradientTransform="matrix(0.61141,0,0,0.76923,146.92,114.72)">
      <stop
         stop-color="#42a603"
         id="stop392" />
      <stop
         offset="1"
         stop-color="#78da06"
         id="stop394" />
    </linearGradient>
    <linearGradient
       id="g-91"
       y1="551.79999"
       y2="528.79999"
       gradientUnits="userSpaceOnUse"
       x2="0"
       gradientTransform="matrix(0.49677,0,0,0.76923,194.57,97.03)">
      <stop
         stop-color="#c6cdd1"
         id="stop387" />
      <stop
         offset="1"
         stop-color="#e0e5e7"
         id="stop389" />
    </linearGradient>
    <linearGradient
       id="i-2"
       x1="398.57001"
       x2="400.57001"
       gradientUnits="userSpaceOnUse"
       gradientTransform="matrix(1.5625,0,0,1.53847,-227.95,-292.82)">
      <stop
         stop-color="#faae2a"
         id="stop397" />
      <stop
         offset="1"
         stop-color="#ffc35a"
         id="stop399" />
    </linearGradient>
    <linearGradient
       xlink:href="#i-2"
       id="j-7"
       x1="398.57001"
       gradientUnits="userSpaceOnUse"
       x2="400.57001"
       gradientTransform="matrix(1.5625,0,0,1.53847,-218.57,-292.82)" />
    <linearGradient
       id="linearGradient722"
       x1="398.57001"
       x2="400.57001"
       gradientUnits="userSpaceOnUse"
       gradientTransform="matrix(1.5625,0,0,1.53847,-227.95,-292.82)">
      <stop
         stop-color="#faae2a"
         id="stop718" />
      <stop
         offset="1"
         stop-color="#ffc35a"
         id="stop720" />
    </linearGradient>
    <linearGradient
       id="a-0"
       y1="525.26001"
       x1="395.91"
       y2="513.95001"
       x2="425.20999"
       gradientUnits="userSpaceOnUse"
       gradientTransform="translate(-384.57,-499.8)">
      <stop
         stop-color="#da4453"
         id="stop361" />
      <stop
         offset="1"
         stop-color="#ff7336"
         id="stop363" />
    </linearGradient>
    <linearGradient
       id="c-9"
       y1="519.84998"
       x1="388.57001"
       y2="528.52002"
       x2="398.82001"
       gradientUnits="userSpaceOnUse">
      <stop
         stop-color="#4d4d4d"
         id="stop371" />
      <stop
         offset="1"
         stop-color="#31363b"
         id="stop373" />
    </linearGradient>
    <linearGradient
       id="k-3"
       y1="539.88"
       x1="410.5"
       y2="529.72998"
       x2="390.64999"
       gradientUnits="userSpaceOnUse">
      <stop
         stop-color="#bcfd93"
         id="stop403" />
      <stop
         offset="1"
         stop-color="#fafff5"
         id="stop405" />
    </linearGradient>
    <linearGradient
       id="l-6"
       y1="34.612"
       x1="14.187"
       y2="54.612"
       x2="34.189999"
       gradientUnits="userSpaceOnUse">
      <stop
         stop-color="#383e51"
         id="stop408" />
      <stop
         offset="1"
         stop-color="#655c6f"
         stop-opacity="0"
         id="stop410" />
    </linearGradient>
    <linearGradient
       inkscape:collect="always"
       xlink:href="#d-36"
       id="linearGradient761"
       gradientUnits="userSpaceOnUse"
       x1="394.57001"
       y1="509.79999"
       x2="422.73001"
       y2="537.95001" />
    <linearGradient
       inkscape:collect="always"
       xlink:href="#i-2"
       id="linearGradient763"
       gradientUnits="userSpaceOnUse"
       gradientTransform="matrix(1.5625,0,0,1.53847,-227.95,-292.82)"
       x1="398.57001"
       x2="400.57001" />
  </defs>
  <path
     d="M 3,10.25 C 3,6.245825 6.245938,3 10.25,3 h 43.500005 c 4.00417,0 7.25,3.245825 7.25,7.25 v 43.5 c 0,4.004173 -3.24583,7.25 -7.25,7.25 H 10.25 C 6.245938,61 3,57.754173 3,53.75 Z"
     id="path736"
     style="fill:#606c86;fill-opacity:1;stroke-width:3.625" />
  <path
     d="M 3,9.796875 C 3,6.043188 6.245938,3 10.25,3 h 43.500005 c 4.00417,0 7.25,3.043188 7.25,6.796875 v 40.781249 c 0,3.753693 -3.24583,6.796876 -7.25,6.796876 H 10.25 C 6.245938,57.375 3,54.331817 3,50.578124 Z"
     id="path738"
     style="fill:url(#linearGradient22065);fill-opacity:1;stroke-width:3.625" />
  <g
     transform="matrix(1.099995,0,0,1.099995,-417.34576,-543.32928)"
     id="g459">
    <g
       stroke-opacity="0.55"
       stroke-width="8.587"
       id="g429">
      <path

         d="m 408.57,503.8 c -11.03,0 -19.913,8.838 -19.996,19.846 l 1.123,0.023 4.684,12.02 10.166,5.922 11.4,-0.707 7.779,-5.48 3.623,-12.02 -2.121,-8.662 -6.189,-7.631 -1.563,-1.156 -0.266,-0.186 c -2.616,-1.251 -5.537,-1.971 -8.641,-1.971 m 0,5 c 8.31,0 15,6.69 15,15 0,8.31 -6.69,15 -15,15 -8.31,0 -15,-6.69 -15,-15 0,-8.31 6.69,-15 15,-15"
         id="path415"
         style="fill:url(#linearGradient761)" />
      <path

         d="m 408.57,504.78 c -4.857,0 -9.714,1.861 -13.436,5.582 -7.443,7.443 -7.443,19.428 0,26.871 7.443,7.443 19.428,7.443 26.871,0 7.443,-7.443 7.443,-19.428 0,-26.871 -3.721,-3.721 -8.579,-5.582 -13.436,-5.582 m 0,13.02 c 1.532,0 3.064,0.588 4.238,1.762 2.348,2.348 2.348,6.128 0,8.477 -2.348,2.348 -6.128,2.348 -8.477,0 -2.348,-2.348 -2.348,-6.128 0,-8.477 1.174,-1.174 2.706,-1.762 4.238,-1.762"
         id="path417"
         style="fill:url(#e-75)" />
      <path

         d="m 4.01,23.5 c -0.004,0.167 -0.012,0.332 -0.012,0.5 0,11.08 8.92,20 20,20 11.08,0 20,-8.92 20,-20 0,-0.168 -0.008,-0.333 -0.012,-0.5 C 43.721,34.346 34.906,43 23.998,43 13.086,43 4.274,34.346 4.01,23.5"
         transform="translate(384.57,499.8)"
         id="path419"
         style="fill:url(#b-35)" />
      <path
         opacity="0.4"
         fill="#f9f9f9"
         d="m 408.57,516.8 c -1.788,0 -3.576,0.685 -4.945,2.055 -2.74,2.74 -2.74,7.151 0,9.891 2.74,2.74 7.151,2.74 9.891,0 2.74,-2.74 2.74,-7.151 0,-9.891 -1.37,-1.37 -3.158,-2.055 -4.945,-2.055 m -0.002,3.95508 a 3.00255,3.00255 0 0 1 3.002,3.0039 3.00255,3.00255 0 0 1 -3.00195,3.00196 3.00255,3.00255 0 0 1 -3.00391,-3.00196 3.00255,3.00255 0 0 1 3.00391,-3.0039"
         id="path421" />
      <path

         d="m 408.75893,512.798 a 11,11 0 0 0 -0.7793,0.0273 11,11 0 0 0 -1.08984,0.13281 11,11 0 0 0 -1.07422,0.24024 11,11 0 0 0 -1.04297,0.34765 11,11 0 0 0 -1.0039,0.44727 11,11 0 0 0 -0.95313,0.54883 11,11 0 0 0 -0.89453,0.63867 11,11 0 0 0 -0.82617,0.72656 11,11 0 0 0 -0.74805,0.80469 11,11 0 0 0 -0.66601,0.875 11,11 0 0 0 -0.57422,0.9375 11,11 0 0 0 -0.47852,0.99023 11,11 0 0 0 -0.37891,1.03321 11,11 0 0 0 -0.27148,1.06445 11,11 0 0 0 -0.16406,1.08594 11,11 0 0 0 -0.0547,1.09961 11,11 0 0 0 0.0273,0.7793 11,11 0 0 0 0.13281,1.08984 11,11 0 0 0 0.24219,1.07422 11,11 0 0 0 0.3457,1.04297 11,11 0 0 0 0.44727,1.0039 11,11 0 0 0 0.54883,0.95313 11,11 0 0 0 0.64062,0.89453 11,11 0 0 0 0.72461,0.82617 11,11 0 0 0 0.80469,0.74805 11,11 0 0 0 0.875,0.66601 11,11 0 0 0 0.9375,0.57422 11,11 0 0 0 0.99023,0.47852 11,11 0 0 0 1.03321,0.37891 11,11 0 0 0 1.06445,0.27148 11,11 0 0 0 1.08594,0.16406 11,11 0 0 0 1.09961,0.0547 11,11 0 0 0 0.7793,-0.0273 11,11 0 0 0 1.08984,-0.13281 11,11 0 0 0 1.07422,-0.24219 11,11 0 0 0 1.04297,-0.3457 11,11 0 0 0 1.0039,-0.44727 11,11 0 0 0 0.95313,-0.54883 11,11 0 0 0 0.89453,-0.64062 11,11 0 0 0 0.82617,-0.72461 11,11 0 0 0 0.74805,-0.80469 11,11 0 0 0 0.66602,-0.875 11,11 0 0 0 0.57421,-0.9375 11,11 0 0 0 0.47852,-0.99023 11,11 0 0 0 0.37891,-1.03321 11,11 0 0 0 0.27148,-1.06445 11,11 0 0 0 0.16406,-1.08594 11,11 0 0 0 0.0547,-1.09961 11,11 0 0 0 -0.0273,-0.7793 11,11 0 0 0 -0.13281,-1.08984 11,11 0 0 0 -0.24219,-1.07422 11,11 0 0 0 -0.3457,-1.04297 11,11 0 0 0 -0.44727,-1.0039 11,11 0 0 0 -0.54883,-0.95313 11,11 0 0 0 -0.63867,-0.89453 11,11 0 0 0 -0.72656,-0.82617 11,11 0 0 0 -0.80469,-0.74805 11,11 0 0 0 -0.875,-0.66602 11,11 0 0 0 -0.9375,-0.57421 11,11 0 0 0 -0.99024,-0.47852 11,11 0 0 0 -1.0332,-0.37891 11,11 0 0 0 -1.06445,-0.27148 11,11 0 0 0 -1.08594,-0.16406 11,11 0 0 0 -1.09961,-0.0547 m -0.191,4.998 c 1.533,0 3.068,0.585 4.242,1.76 2.349,2.349 2.349,6.135 0,8.484 -2.349,2.349 -6.133,2.349 -8.482,0 -2.349,-2.349 -2.349,-6.135 0,-8.484 1.175,-1.175 2.707,-1.76 4.24,-1.76"
         id="path423"
         style="fill:url(#f-6)" />
      <path
         opacity="0.1"
         d="m 408.57,520.75 c -1.659,-10e-4 -3,1.345 -3,3 -10e-4,0.173 0.014,0.345 0.043,0.516 0.237,-1.452 1.49,-2.518 2.961,-2.52 1.46,0 2.709,1.05 2.959,2.488 0.027,-0.16 0.042,-0.322 0.043,-0.484 10e-4,-1.659 -1.343,-3 -3,-3"
         id="path425" />
      <path
         fill="#95a5a6"
         d="m 412.57,523.8 c 0,1.022 -0.391,2.043 -1.174,2.826 -0.783,0.783 -1.804,1.174 -2.826,1.174 v 1 c 1.277,0 2.555,-0.488 3.533,-1.467 0.978,-0.978 1.467,-2.256 1.467,-3.533 z"
         id="path427" />
    </g>
    <rect
       width="25"
       x="388.57001"
       y="521.79999"

       rx="0"
       height="22"
       id="rect431"
       style="fill:url(#h-2)" />
    <rect
       width="25"
       x="388.57001"
       y="542.79999"
       stroke-opacity="0.55"
       fill="#46943b"
       rx="0"
       height="1"
       stroke-width="2.8"
       id="rect433" />
    <rect
       width="21"
       x="390.57001"
       y="503.79999"

       rx="0"
       height="18"
       id="rect435"
       style="fill:url(#g-91)" />
    <g
       fill="#23262c"
       id="g441">
      <rect
         width="6"
         x="393.57001"
         y="506.79999"
         height="6"
         id="rect437" />
      <rect
         width="6"
         x="402.57001"
         y="506.79999"
         height="6"
         id="rect439" />
    </g>
    <rect
       width="4"
       x="394.57001"
       y="506.79999"

       height="6"
       id="rect443"
       style="fill:url(#linearGradient763)" />
    <rect
       width="4"
       x="403.57001"
       y="506.79999"

       height="6"
       id="rect445"
       style="fill:url(#j-7)" />
    <path

       fill-rule="evenodd"
       d="m 32.467,5.887 c 0.626,0.575 1.438,1.404 1.939,2.301 0.875,1.563 0.75,4.281 -1.938,4.781 -2.688,0.5 -2.79,-0.415 -2.781,-1.5 -1.429,0.197 -2.068,3.364 0.438,4.469 2.125,0.938 2.906,0.563 6.906,0.313 4,-0.25 4.469,4.625 2.594,5.375 -1.875,0.75 -2.591,-0.587 -2.469,-1.313 -1.503,0.587 -1.686,2.224 -0.938,3 5.847,6.06 3.043,10.739 1.438,11.219 -1.989,0.594 -3.391,-0.584 -2.375,-2.156 0.828,-1.281 0.113,-3.394 -0.893,-4.143 -1.01,-0.748 -2.96,-0.569 -3.795,-0.014 1.204,0.455 2.969,1.156 2.5,2.719 -0.362,1.207 -1.548,1.967 -3.03,1.938 -0.42,-0.008 -0.77,-0.063 -1.063,-0.152 v 10.627 c 8.64,-2.212 15,-10 15,-19.35 0,-8.05 -4.715,-14.934 -11.533,-18.11"
       transform="translate(384.57,499.8)"
       id="path447"
       style="fill:url(#a-0)" />
    <g
       stroke-linejoin="round"
       color="#000000"
       stroke-width="3"
       id="g453">
      <path
         d="m 388.94,519.85 c -0.241,1.277 -0.373,2.594 -0.373,3.943 0,1.349 0.132,2.666 0.373,3.943 l 11.627,-1.943 c 1.095,-0.168 2,-0.892 2,-2 0,-1.108 -0.905,-1.832 -2,-2 z"
         id="path449"
         style="fill:url(#c-9)" />
      <circle
         fill="#27ae60"
         cx="400.57001"
         cy="523.79999"
         r="1"
         stroke-linecap="round"
         id="circle451" />
    </g>
    <path

       d="m 410.39,533.89 0.087,-0.016 c 0.024,0.019 0.02,0.057 0.013,0.091 -0.016,0.08 -0.055,0.224 -0.081,0.292 l -0.022,0.056 c -0.031,0.084 -0.062,0.163 -0.12,0.211 -0.162,0.148 -0.422,0.266 -0.829,0.443 -0.629,0.275 -1.648,0.448 -2.594,0.443 -0.339,-0.007 -0.667,-0.045 -0.955,-0.078 -0.882,-0.101 -1.519,-0.173 -1.651,0.629 -0.167,1 0.777,2.225 0.787,2.236 v 0.033 l -0.031,0.007 c 0,0 -1.506,-0.694 -1.543,-0.714 l -0.048,-0.034 -0.038,-0.037 c -0.114,-0.109 -0.342,-0.354 -0.805,-0.891 -0.898,-1.038 -1.949,-1.175 -2.758,-0.977 -0.197,0.047 -0.449,0.191 -0.612,0.354 -0.423,0.417 -0.375,1.257 -0.351,1.562 0.028,0.346 0.046,0.372 0.054,0.4 l -0.005,0.035 -0.03,0.004 -0.017,-0.012 -1.235,-0.604 -0.047,-0.202 c -0.032,-0.133 -0.068,-0.281 -0.138,-0.466 -0.442,-1.164 -1.434,-2.04 -2.528,-2.229 -0.739,-0.127 -2.086,-0.142 -2.799,1.205 -0.298,0.562 -0.28,1.294 0.047,1.911 0.333,0.631 0.929,1.036 1.633,1.114 0.699,0.076 1.224,-0.086 1.519,-0.467 0.297,-0.385 0.353,-0.91 0.142,-1.337 -0.226,-0.459 -0.568,-0.702 -1.043,-0.742 -0.361,-0.033 -0.63,0.118 -0.726,0.272 -0.028,0.048 -0.079,0.137 -0.08,0.263 v 0.005 c 0,0.344 0.315,0.438 0.379,0.443 0.02,0 0.114,-0.003 0.24,-0.034 l 0.103,-0.034 0.031,-0.005 c 0.229,-0.042 0.449,0.093 0.513,0.316 0.011,0.041 0.017,0.082 0.017,0.123 0,0.148 -0.075,0.285 -0.2,0.369 l -0.029,0.018 c -0.066,0.042 -0.126,0.065 -0.19,0.085 -0.179,0.059 -0.338,0.086 -0.498,0.086 -0.545,-0.001 -1.304,-0.47 -1.315,-1.351 -0.005,-0.497 0.244,-0.95 0.683,-1.241 0.506,-0.334 1.38,-0.448 2.19,0.049 0.998,0.611 1.258,1.807 0.998,2.623 -0.378,1.181 -1.443,1.813 -2.848,1.687 -0.995,-0.089 -1.92,-0.614 -2.47,-1.405 -0.244,-0.35 -0.425,-0.741 -0.523,-1.13 -0.225,-0.891 0.003,-1.838 0.172,-2.257 0.538,-1.334 1.568,-2.481 3.059,-3.411 l 0.094,-0.059 c 3.171,-1.949 5.415,-1.87 7.06,-1.813 1.938,0.067 4,0.736 4.289,0.83 10e-4,-0.064 0.012,-0.642 0.012,-0.642 l 0.008,-0.02 0.022,-0.005 c 0.13,0.018 2.914,0.431 4.087,1.115 0.145,0.086 0.217,0.174 0.307,0.267 0.324,0.335 0.753,1.73 0.798,2.02 l -0.017,0.029 c -0.017,0.005 -0.057,0.036 -0.111,0.072 -0.273,0.191 -0.913,0.639 -1.733,0.566 -0.737,-0.065 -1.7,-0.488 -2.861,-1.252 0.051,0.12 0.293,0.693 0.334,0.789 l 0.015,0.019 c 0.168,0.087 1.781,0.909 2.582,0.893 0.646,-0.013 1.335,-0.328 1.611,-0.494 z m -0.75,-1.609 c 0.022,-0.656 -0.493,-1.21 -1.15,-1.233 -0.318,-0.011 -0.621,0.102 -0.853,0.319 -0.233,0.217 -0.366,0.512 -0.378,0.829 -0.021,0.656 0.493,1.209 1.149,1.233 0.32,0.011 0.622,-0.102 0.854,-0.319 0.232,-0.217 0.366,-0.511 0.378,-0.829"
       id="path455"
       style="fill:url(#k-3)" />
    <path
       opacity="0.2"

       fill-rule="evenodd"
       d="m 25.19,31.41 0.008,0.039 c 0.002,0.002 0.004,0.004 0.006,0.006 0.324,0.335 0.754,1.73 0.799,2.02 l -0.018,0.029 c -0.017,0.005 -0.057,0.035 -0.111,0.07 -0.081,0.057 -0.202,0.137 -0.344,0.219 l -0.008,0.439 c 0.099,-0.047 0.239,-0.099 0.301,-0.137 v -0.002 l 0.086,-0.018 c 0.024,0.019 0.021,0.058 0.014,0.092 -0.016,0.08 -0.056,0.225 -0.082,0.293 l -0.021,0.057 c -0.031,0.084 -0.062,0.163 -0.121,0.211 -0.162,0.148 -0.421,0.266 -0.828,0.443 -0.629,0.275 -1.647,0.447 -2.594,0.441 -0.339,-0.007 -0.667,-0.044 -0.955,-0.076 -0.882,-0.101 -1.52,-0.174 -1.652,0.627 -0.167,1 0.778,2.225 0.787,2.236 v 0.033 l -0.031,0.008 c 0,0 -1.506,-0.694 -1.543,-0.715 l -0.047,-0.033 -0.039,-0.037 c -0.114,-0.109 -0.342,-0.354 -0.805,-0.891 -0.898,-1.038 -1.95,-1.176 -2.76,-0.979 -0.197,0.047 -0.448,0.191 -0.611,0.354 -0.423,0.417 -0.374,1.257 -0.35,1.563 0.028,0.346 0.045,0.372 0.053,0.4 L 14.32,38.137 14.289,38.141 14.271,38.129 13.037,37.525 12.99,37.322 C 12.958,37.189 12.921,37.043 12.851,36.857 12.409,35.693 11.417,34.815 10.324,34.627 9.585,34.5 8.238,34.486 7.525,35.832 c -0.298,0.562 -0.28,1.295 0.047,1.912 0.333,0.631 0.928,1.036 1.633,1.113 0.699,0.076 1.225,-0.085 1.52,-0.467 0.297,-0.385 0.352,-0.911 0.141,-1.338 C 10.64,36.593 10.298,36.35 9.823,36.31 9.462,36.278 9.193,36.428 9.096,36.581 9.068,36.629 9.017,36.718 9.016,36.845 v 0.004 c 0,0.344 0.315,0.439 0.379,0.443 0.02,0 0.115,-0.002 0.24,-0.033 l 0.061,-0.02 0.043,-0.016 0.029,-0.004 c 0.229,-0.042 0.45,0.093 0.514,0.316 0.011,0.041 0.018,0.08 0.018,0.121 0,0.148 -0.075,0.285 -0.199,0.369 l -0.029,0.02 c -0.066,0.042 -0.127,0.064 -0.191,0.084 -0.179,0.059 -0.338,0.086 -0.498,0.086 -0.545,-0.001 -1.304,-0.469 -1.314,-1.35 -0.005,-0.497 0.244,-0.951 0.684,-1.242 0.506,-0.334 1.381,-0.448 2.191,0.049 0.998,0.611 1.257,1.807 0.996,2.623 -0.378,1.181 -1.442,1.813 -2.848,1.688 C 8.599,39.939 8.126,39.787 7.705,39.549 l 5.316,4.449 h 15.984 v -8.777 z"
       transform="translate(384.57,499.8)"
       id="path457"
       style="fill:url(#l-6)" />
  </g>
</svg>
