<?xml version="1.0" encoding="UTF-8" standalone="no"?>
<svg
   width="64"
   height="64"
   version="1.1"
   id="svg22"
   sodipodi:docname="java.svg"
   inkscape:version="1.3.2 (091e20ef0f, 2023-11-25)"
   xmlns:inkscape="http://www.inkscape.org/namespaces/inkscape"
   xmlns:sodipodi="http://sodipodi.sourceforge.net/DTD/sodipodi-0.dtd"
   xmlns:xlink="http://www.w3.org/1999/xlink"
   xmlns="http://www.w3.org/2000/svg"
   xmlns:svg="http://www.w3.org/2000/svg"
   xmlns:rdf="http://www.w3.org/1999/02/22-rdf-syntax-ns#"
   xmlns:cc="http://creativecommons.org/ns#"
   xmlns:dc="http://purl.org/dc/elements/1.1/">
  <sodipodi:namedview
     pagecolor="#ffffff"
     bordercolor="#666666"
     borderopacity="1"
     objecttolerance="10"
     gridtolerance="10"
     guidetolerance="10"
     inkscape:pageopacity="0"
     inkscape:pageshadow="2"
     inkscape:window-width="1920"
     inkscape:window-height="994"
     id="namedview24"
     showgrid="false"
     inkscape:zoom="4.5906698"
     inkscape:cx="12.634322"
     inkscape:cy="16.990985"
     inkscape:window-x="0"
     inkscape:window-y="0"
     inkscape:window-maximized="1"
     inkscape:current-layer="svg22"
     inkscape:showpageshadow="2"
     inkscape:pagecheckerboard="0"
     inkscape:deskcolor="#d1d1d1" />
  <metadata
     id="metadata2">
    <rdf:RDF>
      <cc:Work
         rdf:about="">
        <dc:format>image/svg+xml</dc:format>
        <dc:type
           rdf:resource="http://purl.org/dc/dcmitype/StillImage" />
      </cc:Work>
    </rdf:RDF>
  </metadata>
  <defs
     id="defs14">
    <linearGradient
       inkscape:collect="always"
       id="linearGradient1588">
      <stop
         style="stop-color:#292f3a;stop-opacity:1;"
         offset="0"
         id="stop1584" />
      <stop
         style="stop-color:#535e75;stop-opacity:1;"
         offset="1"
         id="stop1586" />
    </linearGradient>
    <filter
       id="filter2761"
       x="-0.024"
       y="-0.024"
       width="1.048"
       height="1.048"
       color-interpolation-filters="sRGB">
      <feGaussianBlur
         stdDeviation="0.14552168"
         id="feGaussianBlur4" />
    </filter>
    <linearGradient
       id="linearGradient4673"
       x1="1.2573"
       x2="15.644"
       y1="15.429"
       y2="1.1082"
       gradientTransform="matrix(3.7796,0,0,3.7796,-98.960821,0.53085)"
       gradientUnits="userSpaceOnUse">
      <stop
         stop-color="#16ff6c"
         offset="0"
         id="stop7" />
      <stop
         stop-color="#28ff61"
         offset=".47728"
         id="stop9" />
      <stop
         stop-color="#9fff1b"
         offset="1"
         id="stop11" />
    </linearGradient>
    <linearGradient
       id="linearGradient3764"
       x1="1"
       x2="47"
       gradientUnits="userSpaceOnUse"
       gradientTransform="rotate(-90,23.999998,24)">
      <stop
         style="stop-color:#43cd50;stop-opacity:1"
         id="stop2" />
      <stop
         offset="1"
         style="stop-color:#54d160;stop-opacity:1"
         id="stop4" />
    </linearGradient>
    <style
       type="text/css"
       id="style876" />
    <style
       type="text/css"
       id="style878" />
    <style
       type="text/css"
       id="style880" />
    <style
       type="text/css"
       id="style882" />
    <filter
       id="filter1057"
       x="-0.026999999"
       y="-0.026999999"
       width="1.054"
       height="1.054"
       color-interpolation-filters="sRGB">
      <feGaussianBlur
         stdDeviation="0.61875"
         id="feGaussianBlur884" />
    </filter>
    <linearGradient
       id="linearGradient1053"
       x1="-127"
       x2="-72"
       y1="60"
       y2="5"
       gradientTransform="translate(131.5,-0.51)"
       gradientUnits="userSpaceOnUse">
      <stop
         stop-color="#02db96"
         offset="0"
         id="stop887"
         style="stop-color:#14ff6e;stop-opacity:1" />
      <stop
         stop-color="#13d39b"
         offset="1"
         id="stop889"
         style="stop-color:#a0ff1e;stop-opacity:1" />
    </linearGradient>
    <style
       type="text/css"
       id="style892" />
    <style
       type="text/css"
       id="style894" />
    <style
       type="text/css"
       id="style896" />
    <linearGradient
       id="a-367"
       gradientUnits="userSpaceOnUse"
       x1="23"
       x2="37"
       y1="20"
       y2="34"
       gradientTransform="matrix(1.9622547,0,0,1.9622547,-116.93982,-48.178796)">
      <stop
         offset="0"
         stop-color="#292c2f"
         id="stop246" />
      <stop
         offset="1"
         stop-opacity="0"
         id="stop248" />
    </linearGradient>
    <linearGradient
       id="c-53"
       gradientTransform="matrix(2.0428665,-6.8308524,5.7819337,2.3633129,25.219113,34.652812)"
       gradientUnits="userSpaceOnUse"
       x1="24"
       x2="24"
       y1="35"
       y2="13">
      <stop
         offset="0"
         stop-color="#23a2cd"
         id="stop256" />
      <stop
         offset=".53"
         stop-color="#00b8f5"
         id="stop258" />
      <stop
         offset="1"
         stop-color="#2ecbff"
         id="stop260" />
    </linearGradient>
    <linearGradient
       inkscape:collect="always"
       xlink:href="#linearGradient1588"
       id="linearGradient1590"
       x1="26.980762"
       y1="61"
       x2="25.094219"
       y2="3"
       gradientUnits="userSpaceOnUse" />
    <linearGradient
       id="paint0_linear"
       x1="32"
       y1="62"
       x2="32"
       y2="2"
       gradientUnits="userSpaceOnUse"
       gradientTransform="matrix(0.59823273,0,0,0.58066307,12.856648,13.419336)">
      <stop
         stop-color="#FDA700"
         id="stop1" />
      <stop
         offset="1"
         stop-color="#FFDE00"
         id="stop2-9" />
    </linearGradient>
    <linearGradient
       id="paint0_linear-3"
       x1="94.083099"
       y1="102.397"
       x2="94.083099"
       y2="5"
       gradientUnits="userSpaceOnUse"
       gradientTransform="matrix(0.23591573,0,0,0.23068723,8.2097021,8.3782593)">
      <stop
         stop-color="#FD2E00"
         id="stop14" />
      <stop
         offset="1"
         stop-color="#FF9900"
         id="stop16" />
    </linearGradient>
    <linearGradient
       id="paint1_linear"
       x1="109.531"
       y1="116.298"
       x2="109.531"
       y2="51.087502"
       gradientUnits="userSpaceOnUse"
       gradientTransform="matrix(0.23591573,0,0,0.23068723,8.2097021,8.3782593)">
      <stop
         stop-color="#FD2E00"
         id="stop19" />
      <stop
         offset="1"
         stop-color="#FF9900"
         id="stop21" />
    </linearGradient>
    <linearGradient
       id="paint2_linear"
       x1="150.75"
       y1="143.407"
       x2="150.75"
       y2="93.346397"
       gradientUnits="userSpaceOnUse"
       gradientTransform="matrix(0.23591573,0,0,0.23068723,8.2097021,8.3782593)">
      <stop
         stop-color="#FD2E00"
         id="stop24" />
      <stop
         offset="1"
         stop-color="#FF9900"
         id="stop26" />
    </linearGradient>
    <linearGradient
       id="paint3_linear"
       x1="94.984299"
       y1="134.493"
       x2="94.984299"
       y2="107.184"
       gradientUnits="userSpaceOnUse"
       gradientTransform="matrix(0.23591573,0,0,0.23068723,8.2097021,8.3782593)">
      <stop
         stop-color="#FD2E00"
         id="stop29" />
      <stop
         offset="1"
         stop-color="#FF9900"
         id="stop31" />
    </linearGradient>
    <linearGradient
       id="paint4_linear"
       x1="93.553001"
       y1="165.88"
       x2="93.553001"
       y2="139.75101"
       gradientUnits="userSpaceOnUse"
       gradientTransform="matrix(0.23591573,0,0,0.23068723,8.2097021,8.3782593)">
      <stop
         stop-color="#FD2E00"
         id="stop34" />
      <stop
         offset="1"
         stop-color="#FF9900"
         id="stop36" />
    </linearGradient>
    <linearGradient
       id="paint5_linear"
       x1="88.528297"
       y1="187.064"
       x2="88.528297"
       y2="160.548"
       gradientUnits="userSpaceOnUse"
       gradientTransform="matrix(0.23591573,0,0,0.23068723,8.2097021,8.3782593)">
      <stop
         stop-color="#FD2E00"
         id="stop39" />
      <stop
         offset="1"
         stop-color="#FF9900"
         id="stop41" />
    </linearGradient>
  </defs>
  <circle
     cx="-1330.8"
     cy="-1261.2"
     r="0"
     fill="#5e4aa6"
     id="circle908" />
  <circle
     cx="-1336.4259"
     cy="-1272.89"
     r="0"
     id="circle910"
     style="fill:#5e4aa6" />
  <circle
     cx="-236.87599"
     cy="-7.4350004"
     r="0"
     fill-rule="evenodd"
     id="circle912"
     style="fill:#5e4aa6" />
  <circle
     cx="-1336.4259"
     cy="-1272.89"
     r="0"
     id="circle914"
     style="fill:#5e4aa6" />
  <circle
     cx="-236.87599"
     cy="-7.4350004"
     r="0"
     fill-rule="evenodd"
     id="circle916"
     style="fill:#5e4aa6" />
  <circle
     cx="-1238.626"
     cy="-1287.89"
     r="0"
     id="circle918"
     style="fill:#5e4aa6" />
  <circle
     cx="-139.05299"
     cy="-22.4156"
     r="0"
     fill-rule="evenodd"
     id="circle920"
     style="fill:#5e4aa6" />
  <g
     transform="matrix(3.7796,0,0,3.7796,80.134,-26.68)"
     stroke-width="0.26458"
     id="g950"
     style="fill:#5e4aa6">
    <g
       transform="translate(-0.0272,0.0065001)"
       id="g938">
      <circle
         cx="-330.35001"
         cy="-328.38"
         r="0"
         id="circle922" />
      <circle
         cx="-312.10999"
         cy="-326.25"
         r="0"
         id="circle924" />
      <circle
         cx="-306.01999"
         cy="-333.07001"
         r="0"
         id="circle926" />
      <circle
         cx="-308.84"
         cy="-326.01001"
         r="0"
         id="circle928" />
      <circle
         cx="-330.35001"
         cy="-328.38"
         r="0"
         id="circle930" />
      <circle
         cx="-312.10999"
         cy="-326.25"
         r="0"
         id="circle932" />
      <circle
         cx="-306.01999"
         cy="-333.07001"
         r="0"
         id="circle934" />
      <circle
         cx="-308.84"
         cy="-326.01001"
         r="0"
         id="circle936" />
    </g>
    <g
       transform="translate(-0.02705,0.0064503)"
       id="g948">
      <circle
         cx="-330.35001"
         cy="-328.38"
         r="0"
         id="circle940" />
      <circle
         cx="-312.10999"
         cy="-326.25"
         r="0"
         id="circle942" />
      <circle
         cx="-306.01999"
         cy="-333.07001"
         r="0"
         id="circle944" />
      <circle
         cx="-308.84"
         cy="-326.01001"
         r="0"
         id="circle946" />
    </g>
  </g>
  <path
     d="M 2.9999985,10.25 C 2.9999985,6.245825 6.2459365,3 10.25,3 h 43.500002 c 4.004174,0 7.25,3.245825 7.25,7.25 v 43.5 c 0,4.004173 -3.245827,7.25 -7.25,7.25 H 10.25 C 6.2459365,61 2.9999985,57.754173 2.9999985,53.75 Z"
     id="path736"
     style="fill:#606c86;fill-opacity:1;stroke-width:3.625" />
  <path
     d="M 2.9999985,9.796875 C 2.9999985,6.043188 6.2459365,3 10.25,3 h 43.500002 c 4.004174,0 7.25,3.043188 7.25,6.796875 v 40.781249 c 0,3.753693 -3.245827,6.796876 -7.25,6.796876 H 10.25 c -4.0040635,0 -7.2500015,-3.043183 -7.2500015,-6.796876 z"
     id="path738"
     style="fill:url(#linearGradient1590);fill-opacity:1;stroke-width:3.625" />
  <path
     d="m 34.03894,9.6168296 c 0.7705,-0.272532 1.710862,0.13355 1.999859,0.8721144 1.294472,3.733774 -0.81297,8.18431 -4.597506,9.680543 -1.300221,0.444249 -2.518287,1.23187 -3.169813,2.431061 -1.138736,1.885962 -0.725153,4.485968 0.960301,5.946773 0.478713,0.457863 1.198235,0.765834 1.362531,1.45262 0.393742,1.11468 -0.852647,2.292056 -2.011235,1.934954 -1.269029,-0.596791 -2.266151,-1.648796 -3.005494,-2.790722 -2.181176,-3.341313 -1.271864,-8.140697 2.016891,-10.506328 1.203907,-1.030204 2.957349,-1.185541 4.067753,-2.332935 1.254933,-1.180082 1.778906,-2.987003 1.362515,-4.622245 -0.283334,-0.814896 0.110414,-1.8259954 1.014198,-2.0658354 z"
     id="path2-6"
     inkscape:connector-curvature="0"
     style="fill:#ff9955;fill-opacity:1" />
  <path
     d="m 34.676143,20.354826 c 0.711052,-0.155345 1.541001,-0.35975 2.203934,0.0463 0.946016,0.602315 0.909213,2.199392 -0.12174,2.703581 -0.57516,0.228935 -1.23525,0.185334 -1.787532,0.474223 -0.906384,0.384282 -1.266161,1.452612 -1.144427,2.338359 0.07934,0.803993 0.77333,1.32726 1.249174,1.924121 1.634656,2.144879 1.206713,5.494419 -0.977159,7.140599 -0.934936,0.602096 -2.32569,-0.08192 -2.416344,-1.147438 -0.189799,-1.098304 1.147347,-1.673406 1.12753,-2.739068 0.226477,-1.534373 -1.546781,-2.245688 -1.895199,-3.60294 -1.22089,-2.848019 0.65436,-6.40464 3.761763,-7.137767 z"
     id="path4-7"
     inkscape:connector-curvature="0"
     style="fill:#ff7f2a" />
  <path
     d="m 40.876958,30.065359 c 1.390953,-0.406081 2.948946,0.04357 4.147155,0.776722 3.022559,1.915904 3.467264,6.5518 0.940363,9.0183 -0.912039,0.899453 -2.161219,1.499007 -3.470083,1.599815 -1.158581,0.0192 -1.988535,-1.272696 -1.467163,-2.262119 0.456033,-1.030243 1.892291,-0.793092 2.571959,-1.599817 1.181227,-1.139124 0.968905,-3.311283 -0.521138,-4.112456 -0.793146,-0.577871 -1.965887,-0.226301 -2.682596,-0.918599 -0.779002,-0.708676 -0.518308,-2.114852 0.481503,-2.501846 z"
     id="path6-5"
     inkscape:connector-curvature="0"
     style="fill:#ffcc00" />
  <path
     d="m 20.583512,34.793803 c 0.991427,-0.836706 2.271821,-1.269937 3.506884,-1.651488 0.753491,-0.207158 1.56648,0.463218 1.507007,1.201872 0.04242,0.713981 -0.688358,1.063008 -1.226573,1.37352 2.302986,0.585946 4.710785,0.648682 7.073265,0.463441 2.53539,-0.217996 5.073378,-0.700359 7.39903,-1.719773 1.164249,-0.591483 2.671276,0.588715 2.266211,1.806978 -0.314477,1.065543 -1.594795,1.280772 -2.512738,1.665098 -4.379303,1.428189 -9.149548,1.858875 -13.715884,1.103841 -1.529652,-0.313502 -3.178278,-0.725054 -4.297202,-1.850572 -0.657193,-0.643156 -0.739342,-1.776989 0,-2.392917 z"
     id="path8-3"
     inkscape:connector-curvature="0"
     style="fill:#ffd42a" />
  <path
     d="m 23.668342,42.108896 c 1.37952,-0.875002 3.050812,-1.191038 4.654127,-1.460946 1.073605,-0.253524 1.858252,1.111913 1.198237,1.902243 -0.464571,0.425393 -1.152918,0.493444 -1.719447,0.738665 2.736391,0.482367 5.571923,0.166324 8.21206,-0.632313 1.702363,-0.277974 2.433232,2.327635 0.872412,2.965254 -3.104651,1.057469 -6.515209,1.275471 -9.755823,0.743963 -1.427686,-0.29689 -3.008351,-0.692058 -3.960128,-1.839496 -0.654361,-0.760348 -0.351255,-1.926936 0.498562,-2.41737 z"
     id="path10"
     inkscape:connector-curvature="0"
     style="fill:#ff9955" />
  <path
     d="m 14.75099,46.89727 c 1.538148,-0.855847 3.300085,-1.458174 5.084689,-1.482628 l 0.11615,0.378786 c -0.62603,0.441535 -1.388016,0.733128 -1.827102,1.381824 4.600331,1.210186 9.418754,1.302679 14.157823,1.191034 2.611821,-0.05998 5.271771,0.07634 7.81542,-0.599557 1.101963,-0.229076 2.152966,-0.637854 3.243601,-0.904989 0.886573,-0.106114 1.376572,1.196576 0.560775,1.616191 -3.756259,2.570095 -8.540621,2.916125 -13.002098,3.044387 -4.433186,0.05998 -8.925872,-0.14718 -13.2344,-1.221032 -1.266224,-0.373479 -2.671249,-0.730347 -3.569214,-1.72784 -0.56938,-0.621471 0.05095,-1.365447 0.65436,-1.676176 z"
     id="path12"
     inkscape:connector-curvature="0"
     style="fill:#ff7f2a" />
</svg>
