<?xml version="1.0" encoding="UTF-8" standalone="no"?>
<svg
   version="1.1"
   viewBox="0 0 64 64"
   id="svg32"
   sodipodi:docname="ksirk.svg"
   width="64"
   height="64"
   inkscape:version="1.2.1 (9c6d41e410, 2022-07-14)"
   xmlns:inkscape="http://www.inkscape.org/namespaces/inkscape"
   xmlns:sodipodi="http://sodipodi.sourceforge.net/DTD/sodipodi-0.dtd"
   xmlns:xlink="http://www.w3.org/1999/xlink"
   xmlns="http://www.w3.org/2000/svg"
   xmlns:svg="http://www.w3.org/2000/svg">
  <sodipodi:namedview
     id="namedview34"
     pagecolor="#ffffff"
     bordercolor="#666666"
     borderopacity="1.0"
     inkscape:showpageshadow="2"
     inkscape:pageopacity="0.0"
     inkscape:pagecheckerboard="0"
     inkscape:deskcolor="#d1d1d1"
     showgrid="false"
     inkscape:zoom="7.375"
     inkscape:cx="25.016949"
     inkscape:cy="27.050847"
     inkscape:window-width="1920"
     inkscape:window-height="1002"
     inkscape:window-x="0"
     inkscape:window-y="0"
     inkscape:window-maximized="1"
     inkscape:current-layer="svg32" />
  <defs
     id="defs12">
    <linearGradient
       id="b"
       x1="-41.259998"
       x2="-2.994"
       y1="-0.88300002"
       y2="37.956001"
       gradientTransform="matrix(0.73180945,0,0,0.72091894,416.0252,517.69779)"
       gradientUnits="userSpaceOnUse">
      <stop
         stop-color="#21c9fb"
         offset="0"
         id="stop2" />
      <stop
         stop-color="#1a86f2"
         offset="1"
         id="stop4" />
    </linearGradient>
    <linearGradient
       id="a"
       x1="4"
       x2="44"
       y1="4"
       y2="44"
       gradientTransform="matrix(0.69444447,0,0,0.69444447,384.01587,515.24246)"
       gradientUnits="userSpaceOnUse">
      <stop
         offset="0"
         id="stop7" />
      <stop
         stop-opacity="0"
         offset="1"
         id="stop9" />
    </linearGradient>
    <linearGradient
       inkscape:collect="always"
       xlink:href="#linearGradient22063"
       id="linearGradient22065"
       x1="-22"
       y1="5.1111121"
       x2="-6.4444442"
       y2="-9.1111107"
       gradientUnits="userSpaceOnUse"
       gradientTransform="matrix(3.6250002,0,0,3.6250002,82.750001,39.249999)" />
    <linearGradient
       inkscape:collect="always"
       id="linearGradient22063">
      <stop
         style="stop-color:#88c0d0;stop-opacity:1;"
         offset="0"
         id="stop22059" />
      <stop
         style="stop-color:#5e81ac;stop-opacity:1;"
         offset="1"
         id="stop22061" />
    </linearGradient>
    <linearGradient
       gradientTransform="matrix(0.33944754,0,0,0.33992701,9.6992503,10.420578)"
       xlink:href="#linearGradient3360"
       id="linearGradient3366"
       x1="-1.414"
       y1="88.047997"
       x2="154.149"
       y2="89.816002"
       gradientUnits="userSpaceOnUse" />
    <linearGradient
       id="linearGradient3360">
      <stop
         style="stop-color:#ffcc00;stop-opacity:1;"
         offset="0"
         id="stop158" />
      <stop
         offset=".245"
         style="stop-color:#ffff00;stop-opacity:1"
         id="stop160" />
      <stop
         offset=".586"
         style="stop-color:#ff0000;stop-opacity:1"
         id="stop162" />
      <stop
         style="stop-color:#ffcc00;stop-opacity:0;"
         offset="1"
         id="stop164" />
    </linearGradient>
    <linearGradient
       gradientTransform="matrix(0.33944754,0,0,0.33992701,9.6992503,10.420578)"
       xlink:href="#linearGradient3347"
       id="linearGradient3359"
       x1="-23.688"
       y1="-24.028"
       x2="146.72501"
       y2="140.728"
       gradientUnits="userSpaceOnUse" />
    <linearGradient
       id="linearGradient3347">
      <stop
         style="stop-color:#5e81ac;stop-opacity:1;"
         offset="0"
         id="stop146" />
      <stop
         offset="0.252"
         style="stop-color:#5e81ac;stop-opacity:1;"
         id="stop148" />
      <stop
         style="stop-color:#456285;stop-opacity:1;"
         offset="0.45899999"
         id="stop150" />
      <stop
         offset="0.89899999"
         style="stop-color:#233143;stop-opacity:1;"
         id="stop152" />
      <stop
         style="stop-color:#5e81ac;stop-opacity:0.07962073;"
         offset="1"
         id="stop154" />
    </linearGradient>
    <linearGradient
       id="e"
       y1="45"
       y2="24"
       x2="0"
       gradientUnits="userSpaceOnUse"
       gradientTransform="matrix(1.0774876,0,0,1.0774873,7.17948,4.6902606)">
      <stop
         stop-color="#60c0f4"
         id="stop18" />
      <stop
         offset="1"
         stop-color="#b9e9ff"
         id="stop20" />
    </linearGradient>
    <linearGradient
       id="b-3"
       y1="30"
       x1="24"
       y2="44"
       x2="38"
       gradientUnits="userSpaceOnUse">
      <stop
         id="stop7-6" />
      <stop
         offset="1"
         stop-opacity="0"
         id="stop9-7" />
    </linearGradient>
    <linearGradient
       id="a-5"
       y1="30"
       x1="34"
       y2="28"
       x2="24"
       gradientUnits="userSpaceOnUse"
       gradientTransform="matrix(1.0774876,0,0,1.0774873,7.17948,4.6902606)">
      <stop
         stop-color="#f39c12"
         id="stop2-3" />
      <stop
         offset="1"
         stop-color="#ffc35a"
         id="stop4-5" />
    </linearGradient>
    <linearGradient
       id="f"
       y1="23"
       x1="32"
       y2="22"
       x2="25"
       gradientUnits="userSpaceOnUse"
       gradientTransform="matrix(1.0774876,0,0,1.0774873,6.1019929,4.6902606)">
      <stop
         stop-color="#cea476"
         id="stop23" />
      <stop
         offset="1"
         stop-color="#dab58b"
         id="stop25" />
    </linearGradient>
    <linearGradient
       xlink:href="#b-3"
       id="g"
       y1="24"
       x1="25"
       y2="38"
       x2="39"
       gradientUnits="userSpaceOnUse"
       gradientTransform="matrix(1.0774876,0,0,1.0774873,7.17948,4.6902606)" />
    <linearGradient
       id="c"
       y1="37"
       y2="4"
       x2="0"
       gradientUnits="userSpaceOnUse"
       gradientTransform="matrix(1.0774876,0,0,1.0774873,5.0245048,4.6902606)">
      <stop
         stop-color="#da4453"
         id="stop12" />
      <stop
         offset="1"
         stop-color="#ff7336"
         id="stop14" />
    </linearGradient>
    <linearGradient
       xlink:href="#b-3"
       id="d"
       y1="22.313"
       x1="20.438"
       y2="25.406"
       x2="23.531"
       gradientUnits="userSpaceOnUse"
       gradientTransform="matrix(1.0774876,0,0,1.0774873,5.0245048,4.6902606)" />
    <linearGradient
       id="c-3"
       x2="0"
       y1="532.78998"
       y2="514.79999"
       gradientTransform="matrix(1.7778,0,0,1.7778,-763.38195,-909.21706)"
       gradientUnits="userSpaceOnUse">
      <stop
         stop-color="#7cbaf8"
         offset="0"
         id="stop187" />
      <stop
         stop-color="#f4fcff"
         offset="1"
         id="stop189" />
    </linearGradient>
    <linearGradient
       id="b-6"
       x1="25.792999"
       x2="41.605999"
       y1="26.896"
       y2="43.624001"
       gradientTransform="matrix(1.2575155,0,0,1.2575155,-2.3498115,-4.7646373)"
       gradientUnits="userSpaceOnUse">
      <stop
         stop-color="#292c2f"
         offset="0"
         id="stop192" />
      <stop
         stop-color="#292c2f"
         stop-opacity="0"
         offset="1"
         id="stop194" />
    </linearGradient>
    <linearGradient
       id="c-7"
       x2="0"
       y1="532.78998"
       y2="514.79999"
       gradientTransform="matrix(2.2356108,0,0,2.2356108,-880.44891,-1138.641)"
       gradientUnits="userSpaceOnUse">
      <stop
         stop-color="#7cbaf8"
         offset="0"
         id="stop187-5" />
      <stop
         stop-color="#f4fcff"
         offset="1"
         id="stop189-3" />
    </linearGradient>
    <radialGradient
       inkscape:collect="always"
       xlink:href="#linearGradient4755"
       id="radialGradient5079"
       gradientUnits="userSpaceOnUse"
       gradientTransform="matrix(1,0,0,0.1555556,0,45.793436)"
       cx="56.954239"
       cy="54.229069"
       fx="53.997246"
       fy="52.576092"
       r="5.785419" />
    <linearGradient
       inkscape:collect="always"
       id="linearGradient4755">
      <stop
         style="stop-color:#181005;stop-opacity:1;"
         offset="0"
         id="stop4757" />
      <stop
         style="stop-color:#181005;stop-opacity:0;"
         offset="1"
         id="stop4759" />
    </linearGradient>
    <filter
       inkscape:collect="always"
       id="filter5051"
       x="-0.059007094"
       width="1.1180142"
       y="-0.37933131"
       height="1.7586626">
      <feGaussianBlur
         inkscape:collect="always"
         stdDeviation="0.28448396"
         id="feGaussianBlur5053" />
    </filter>
    <radialGradient
       inkscape:collect="always"
       xlink:href="#linearGradient4372"
       id="radialGradient5081"
       gradientUnits="userSpaceOnUse"
       gradientTransform="matrix(1.5609279,-0.5954795,0.5632366,1.4764099,-55.978542,7.0350873)"
       cx="48.187668"
       cy="44.478054"
       fx="48.187668"
       fy="44.478054"
       r="6.1068311" />
    <linearGradient
       inkscape:collect="always"
       id="linearGradient4372">
      <stop
         style="stop-color:#eeeeec;stop-opacity:1;"
         offset="0"
         id="stop4374" />
      <stop
         style="stop-color:#eeeeec;stop-opacity:0;"
         offset="1"
         id="stop4376" />
    </linearGradient>
    <radialGradient
       inkscape:collect="always"
       xlink:href="#linearGradient4451"
       id="radialGradient5083"
       gradientUnits="userSpaceOnUse"
       gradientTransform="matrix(1.4602855,-0.3831325,0.2947367,1.1233703,-39.186469,12.505103)"
       cx="50.204582"
       cy="54.550476"
       fx="50.204582"
       fy="54.550476"
       r="6.1068311" />
    <linearGradient
       id="linearGradient4451">
      <stop
         style="stop-color:#000000;stop-opacity:1;"
         offset="0"
         id="stop4453" />
      <stop
         style="stop-color:#000000;stop-opacity:0;"
         offset="1"
         id="stop4455" />
    </linearGradient>
    <filter
       inkscape:collect="always"
       id="filter4925"
       x="-0.19163721"
       width="1.3860008"
       y="-0.19376033"
       height="1.3873311">
      <feGaussianBlur
         inkscape:collect="always"
         stdDeviation="0.64246107"
         id="feGaussianBlur4927" />
    </filter>
    <radialGradient
       inkscape:collect="always"
       xlink:href="#linearGradient4755"
       id="radialGradient4777"
       cx="22.820265"
       cy="44.008163"
       fx="36.062447"
       fy="48.138309"
       r="16.520586"
       gradientTransform="matrix(1,0,0,0.09727627,0,39.727214)"
       gradientUnits="userSpaceOnUse" />
    <filter
       inkscape:collect="always"
       id="filter4831"
       x="-0.066797745"
       width="1.1335955"
       y="-0.68668081"
       height="2.3733616">
      <feGaussianBlur
         inkscape:collect="always"
         stdDeviation="0.91961494"
         id="feGaussianBlur4833" />
    </filter>
    <radialGradient
       inkscape:collect="always"
       xlink:href="#linearGradient4755"
       id="radialGradient4769"
       cx="22.820265"
       cy="44.008163"
       fx="22.820265"
       fy="44.008163"
       r="16.520586"
       gradientTransform="matrix(1,0,0,0.09727627,0.84525039,36.353663)"
       gradientUnits="userSpaceOnUse" />
    <filter
       inkscape:collect="always"
       id="filter4827"
       x="-0.053438199"
       width="1.1068764"
       y="-0.54934468"
       height="2.0986894">
      <feGaussianBlur
         inkscape:collect="always"
         stdDeviation="0.73569195"
         id="feGaussianBlur4829" />
    </filter>
    <radialGradient
       inkscape:collect="always"
       xlink:href="#linearGradient4755"
       id="radialGradient4761"
       cx="29.184225"
       cy="47.286568"
       fx="29.184225"
       fy="47.286568"
       r="10.28519"
       gradientTransform="matrix(1,0,0,0.425,0,27.189778)"
       gradientUnits="userSpaceOnUse" />
    <filter
       inkscape:collect="always"
       id="filter4835"
       x="-0.085501763"
       width="1.1710035"
       y="-0.20118063"
       height="1.4023613">
      <feGaussianBlur
         inkscape:collect="always"
         stdDeviation="0.73283488"
         id="feGaussianBlur4837" />
    </filter>
    <filter
       inkscape:collect="always"
       id="filter4520"
       x="-0.038444853"
       width="1.0768897"
       y="-0.50893046"
       height="2.0178609">
      <feGaussianBlur
         inkscape:collect="always"
         stdDeviation="0.53676258"
         id="feGaussianBlur4522" />
    </filter>
    <linearGradient
       inkscape:collect="always"
       xlink:href="#linearGradient4372"
       id="linearGradient4380"
       x1="22.413515"
       y1="11.253362"
       x2="21.388376"
       y2="26.344269"
       gradientUnits="userSpaceOnUse"
       gradientTransform="matrix(0.91406366,0,0,1.0013699,1.9270354,-3.6779027)" />
    <radialGradient
       inkscape:collect="always"
       xlink:href="#linearGradient4451"
       id="radialGradient4457"
       cx="31.686243"
       cy="41.32288"
       fx="31.686243"
       fy="41.32288"
       r="19.156679"
       gradientTransform="matrix(1.30446,0.08748413,-0.02237302,0.40037039,-9.5186507,9.3941731)"
       gradientUnits="userSpaceOnUse" />
    <linearGradient
       inkscape:collect="always"
       xlink:href="#linearGradient4531"
       id="linearGradient4537"
       x1="52.909092"
       y1="38.363636"
       x2="30.181818"
       y2="34.909092"
       gradientUnits="userSpaceOnUse"
       gradientTransform="matrix(0.91406366,0,0,1.0013699,1.9270354,-3.6779027)" />
    <linearGradient
       inkscape:collect="always"
       id="linearGradient4531">
      <stop
         style="stop-color:#7c5e31;stop-opacity:1"
         offset="0"
         id="stop4533" />
      <stop
         style="stop-color:#312410;stop-opacity:1"
         offset="1"
         id="stop4535" />
    </linearGradient>
    <radialGradient
       inkscape:collect="always"
       xlink:href="#linearGradient4451"
       id="radialGradient4541"
       cx="54.890537"
       cy="89.020721"
       fx="54.890537"
       fy="89.020721"
       r="18.691753"
       gradientTransform="matrix(0.52284769,0.35065749,-0.04436554,0.07939138,27.082258,11.729642)"
       gradientUnits="userSpaceOnUse" />
    <radialGradient
       inkscape:collect="always"
       xlink:href="#linearGradient4451"
       id="radialGradient4553"
       gradientUnits="userSpaceOnUse"
       gradientTransform="matrix(0.60286913,0.18506887,-0.02292717,0.08963471,21.280055,15.460649)"
       cx="31.906689"
       cy="151.55035"
       fx="31.906689"
       fy="151.55035"
       r="18.691753" />
    <radialGradient
       inkscape:collect="always"
       xlink:href="#linearGradient4372"
       id="radialGradient4395"
       cx="4.4252796"
       cy="24.143772"
       fx="4.4252796"
       fy="24.143772"
       r="1.1684703"
       gradientTransform="matrix(1,0,-6.8269758e-8,7.2139093,0.58812239,-157.64592)"
       gradientUnits="userSpaceOnUse" />
    <filter
       inkscape:collect="always"
       id="filter4445"
       x="-0.29023117"
       width="1.5804623"
       y="-0.065766604"
       height="1.1315332">
      <feGaussianBlur
         inkscape:collect="always"
         stdDeviation="0.28260542"
         id="feGaussianBlur4447" />
    </filter>
    <filter
       inkscape:collect="always"
       id="filter4590"
       x="-0.033967592"
       y="-0.037717991"
       width="1.0679352"
       height="1.075436">
      <feGaussianBlur
         inkscape:collect="always"
         stdDeviation="0.28350203"
         id="feGaussianBlur4592" />
    </filter>
    <linearGradient
       inkscape:collect="always"
       xlink:href="#linearGradient4451"
       id="linearGradient4602"
       x1="24.727272"
       y1="6.2727199"
       x2="24.727272"
       y2="45.090912"
       gradientUnits="userSpaceOnUse" />
    <filter
       inkscape:collect="always"
       id="filter4709"
       x="-0.046013125"
       y="-0.046013125"
       width="1.0920262"
       height="1.0920262">
      <feGaussianBlur
         inkscape:collect="always"
         stdDeviation="0.3904144"
         id="feGaussianBlur4711" />
    </filter>
    <filter
       inkscape:collect="always"
       id="filter4645"
       x="-0.076318223"
       width="1.1526364"
       y="-0.15431377"
       height="1.3086275">
      <feGaussianBlur
         inkscape:collect="always"
         stdDeviation="0.18284574"
         id="feGaussianBlur4647" />
    </filter>
    <radialGradient
       inkscape:collect="always"
       xlink:href="#linearGradient4451"
       id="radialGradient4725"
       gradientUnits="userSpaceOnUse"
       gradientTransform="matrix(1.2784862,-1.0522733,1.1800275,2.8542035,-48.872809,-41.392441)"
       cx="24.868185"
       cy="35.445454"
       fx="24.868185"
       fy="35.445454"
       r="1.2727273" />
    <radialGradient
       inkscape:collect="always"
       xlink:href="#linearGradient4531"
       id="radialGradient4721"
       cx="24.868185"
       cy="35.445454"
       fx="24.868185"
       fy="35.445454"
       r="1.2727273"
       gradientUnits="userSpaceOnUse"
       gradientTransform="matrix(1.5277881,-0.26467849,0.2306479,1.5978289,-21.978925,-18.319526)" />
    <radialGradient
       inkscape:collect="always"
       xlink:href="#linearGradient4372"
       id="radialGradient4743"
       cx="32.843872"
       cy="19.984375"
       fx="32.843872"
       fy="19.984375"
       r="0.84387165"
       gradientTransform="matrix(0.91406366,0,0,1.3640841,2.279585,-10.990889)"
       gradientUnits="userSpaceOnUse" />
    <radialGradient
       inkscape:collect="always"
       xlink:href="#linearGradient4755"
       id="radialGradient4969"
       cx="56.954239"
       cy="54.229069"
       fx="53.997246"
       fy="52.576092"
       r="5.785419"
       gradientTransform="matrix(1,0,0,0.1555556,0,45.793436)"
       gradientUnits="userSpaceOnUse" />
    <radialGradient
       inkscape:collect="always"
       xlink:href="#linearGradient4372"
       id="radialGradient4881"
       gradientUnits="userSpaceOnUse"
       gradientTransform="matrix(1.5609279,-0.5954795,0.5632366,1.4764099,-55.978542,7.0350873)"
       cx="48.187668"
       cy="44.478054"
       fx="48.187668"
       fy="44.478054"
       r="6.1068311" />
    <radialGradient
       inkscape:collect="always"
       xlink:href="#linearGradient4451"
       id="radialGradient4877"
       cx="50.204582"
       cy="54.550476"
       fx="50.204582"
       fy="54.550476"
       r="6.1068311"
       gradientUnits="userSpaceOnUse"
       gradientTransform="matrix(1.4602855,-0.3831325,0.2947367,1.1233703,-39.186469,12.505103)" />
    <filter
       inkscape:collect="always"
       id="filter4957"
       x="-0.16154331"
       width="1.3230866"
       y="-0.16154331"
       height="1.3230866">
      <feGaussianBlur
         inkscape:collect="always"
         stdDeviation="0.60483974"
         id="feGaussianBlur4959" />
    </filter>
    <radialGradient
       inkscape:collect="always"
       xlink:href="#linearGradient4755"
       id="radialGradient5099"
       gradientUnits="userSpaceOnUse"
       gradientTransform="matrix(1,0,0,0.1555556,0,45.793436)"
       cx="56.954239"
       cy="54.229069"
       fx="53.997246"
       fy="52.576092"
       r="5.785419" />
    <radialGradient
       inkscape:collect="always"
       xlink:href="#linearGradient4372"
       id="radialGradient5101"
       gradientUnits="userSpaceOnUse"
       gradientTransform="matrix(0.95279377,-0.3981997,0.3438008,0.98728159,-19.750705,20.788894)"
       cx="48.187668"
       cy="44.478054"
       fx="48.187668"
       fy="44.478054"
       r="6.1068311" />
    <radialGradient
       inkscape:collect="always"
       xlink:href="#linearGradient4451"
       id="radialGradient5103"
       gradientUnits="userSpaceOnUse"
       gradientTransform="matrix(0.89136137,-0.25620233,0.17990794,0.75120252,-9.5007907,24.446717)"
       cx="50.204582"
       cy="54.550476"
       fx="50.204582"
       fy="54.550476"
       r="6.1068311" />
  </defs>
  <path
     d="m 2.9999985,10.25 c 0,-4.004175 3.245938,-7.25 7.2500005,-7.25 h 43.500003 c 4.004173,0 7.25,3.245825 7.25,7.25 v 43.5 c 0,4.004173 -3.245827,7.25 -7.25,7.25 H 10.249999 C 6.2459365,61 2.9999985,57.754173 2.9999985,53.75 Z"
     id="path736"
     style="fill:#606c86;fill-opacity:1;stroke-width:3.625" />
  <path
     d="M 2.9999985,9.796875 C 2.9999985,6.043188 6.2459365,3 10.249999,3 h 43.500003 c 4.004173,0 7.25,3.043188 7.25,6.796875 v 40.781249 c 0,3.753693 -3.245827,6.796876 -7.25,6.796876 H 10.249999 c -4.0040625,0 -7.2500005,-3.043183 -7.2500005,-6.796876 z"
     id="path738"
     style="fill:url(#linearGradient22065);fill-opacity:1;stroke-width:3.625" />
  <g
     id="g5065"
     transform="matrix(0.72587398,0,0,0.79520551,8.5425238,-3.1795135)">
    <ellipse
       style="opacity:1;fill:url(#radialGradient5079);fill-opacity:1;fill-rule:nonzero;stroke:none;stroke-width:0.526;stroke-linecap:round;stroke-linejoin:round;stroke-miterlimit:4;stroke-dasharray:0.526, 1.052;stroke-dashoffset:0;stroke-opacity:1;filter:url(#filter5051)"
       id="path5067"
       transform="translate(0.2571298,-0.2571297)"
       cx="56.954239"
       cy="54.229069"
       rx="5.785419"
       ry="0.89995408" />
    <circle
       style="opacity:1;fill:#2e3436;fill-opacity:1;fill-rule:nonzero;stroke:none;stroke-width:1;stroke-linecap:round;stroke-linejoin:round;stroke-miterlimit:4;stroke-dasharray:none;stroke-dashoffset:0;stroke-opacity:1"
       id="path5069"
       transform="matrix(0.6421053,0,0,0.6421053,22.980633,18.490751)"
       cx="48.404675"
       cy="49.150757"
       r="6.1068311" />
    <circle
       style="opacity:0.800866;fill:url(#radialGradient5081);fill-opacity:1;fill-rule:nonzero;stroke:none;stroke-width:1;stroke-linecap:round;stroke-linejoin:round;stroke-miterlimit:4;stroke-dasharray:none;stroke-dashoffset:0;stroke-opacity:1"
       id="path5071"
       transform="matrix(0.6421053,0,0,0.6421053,22.980633,18.490751)"
       cx="48.404675"
       cy="49.150757"
       r="6.1068311" />
    <circle
       id="path5073"
       style="opacity:0.593074;fill:url(#radialGradient5083);fill-opacity:1;fill-rule:nonzero;stroke:none;stroke-width:1;stroke-linecap:round;stroke-linejoin:round;stroke-miterlimit:4;stroke-dasharray:none;stroke-dashoffset:0;stroke-opacity:1"
       transform="matrix(0.6421053,0,0,0.6421053,22.980633,18.490751)"
       cx="48.404675"
       cy="49.150757"
       r="6.1068311" />
    <circle
       id="path5077"
       style="opacity:0.593074;fill:none;fill-opacity:1;fill-rule:nonzero;stroke:#424242;stroke-width:1.66397;stroke-linecap:round;stroke-linejoin:round;stroke-miterlimit:4;stroke-dasharray:1.66397, 3.32795;stroke-dashoffset:0;stroke-opacity:1;filter:url(#filter4925)"
       transform="matrix(-0.3103164,0.05875263,0.1139082,-0.5321936,63.547904,73.428708)"
       cx="48.404675"
       cy="49.150757"
       r="6.1068311" />
  </g>
  <ellipse
     transform="matrix(0.91406359,0,0,0.64087676,23.432547,12.894814)"
     id="path4753"
     style="opacity:0.714286;fill:url(#radialGradient4777);fill-opacity:1;fill-rule:nonzero;stroke:none;stroke-width:1;stroke-linecap:round;stroke-linejoin:round;stroke-miterlimit:4;stroke-dasharray:none;stroke-dashoffset:0;stroke-opacity:1;filter:url(#filter4831)"
     cx="22.820265"
     cy="44.008163"
     rx="16.520586"
     ry="1.6070609" />
  <ellipse
     style="opacity:0.714286;fill:url(#radialGradient4769);fill-opacity:1;fill-rule:nonzero;stroke:none;stroke-width:1;stroke-linecap:round;stroke-linejoin:round;stroke-miterlimit:4;stroke-dasharray:none;stroke-dashoffset:0;stroke-opacity:1;filter:url(#filter4827)"
     id="path4749"
     cx="23.665514"
     cy="40.634613"
     rx="16.520586"
     ry="1.6070609"
     transform="matrix(0.91406359,0,0,1.0013701,1.3894559,-0.04224849)" />
  <ellipse
     style="opacity:0.714286;fill:url(#radialGradient4761);fill-opacity:1;fill-rule:nonzero;stroke:none;stroke-width:1;stroke-linecap:round;stroke-linejoin:round;stroke-miterlimit:4;stroke-dasharray:none;stroke-dashoffset:0;stroke-opacity:1;filter:url(#filter4835)"
     id="path4751"
     transform="matrix(1.2282727,0,0,0.75102748,-6.3615481,5.2632622)"
     cx="29.184225"
     cy="47.286568"
     rx="10.28519"
     ry="4.3712053" />
  <path
     id="path4747"
     d="m 24.994966,19.766317 c 5.000632,-0.792808 9.649422,3.105331 10.359934,8.686769 0.710165,5.581453 -2.782185,10.77033 -7.782982,11.5631 -5.00045,0.79277 -9.649073,-3.105369 -10.359586,-8.686807 -0.710333,-5.581459 2.782361,-10.77035 7.782634,-11.563062 z m 1.285841,3.136134 0.385716,3.031414 c 0.342879,0.04203 0.667851,0.133235 0.977548,0.277987 l 1.631002,-2.423375 C 28.378812,23.22786 27.35667,22.903216 26.280807,22.902451 Z m -1.738269,0.275577 c -1.020564,0.330679 -1.930519,0.980632 -2.6549,1.781632 l 2.171395,1.820568 c 0.258955,-0.223822 0.558996,-0.429872 0.869219,-0.570785 z m 6.159354,1.806812 -1.631177,2.423415 c 0.210855,0.291529 0.379924,0.614662 0.511598,0.970382 l 2.661396,-0.421954 C 31.95104,26.819909 31.408545,25.793344 30.701892,24.98484 Z m -9.885903,1.567333 C 20.328265,27.55154 20.022431,28.70787 20.022083,29.8943 l 2.66157,-0.421959 c 0.04145,-0.393015 0.163449,-0.745579 0.303373,-1.099581 z m 11.674743,3.344636 -2.661572,0.421958 c -0.03773,0.382547 -0.119387,0.745442 -0.249132,1.090976 l 2.109244,1.768542 c 0.488423,-0.994957 0.803558,-2.088289 0.80146,-3.281476 z m -9.560231,1.515639 -2.661574,0.421954 c 0.300393,1.152978 0.864307,2.158444 1.596238,2.96322 l 1.631007,-2.423373 c -0.22262,-0.296524 -0.427684,-0.597222 -0.565671,-0.961801 z m 5.577703,1.589786 c -0.261236,0.235268 -0.550745,0.423896 -0.869575,0.570827 l 0.378168,2.970782 c 1.027407,-0.330111 1.880303,-0.972418 2.600473,-1.773028 z m -3.585042,0.568376 -1.631175,2.423417 c 0.892397,0.53226 1.927003,0.82804 2.986539,0.825396 l -0.377993,-2.970805 c -0.333223,-0.0389 -0.672761,-0.143519 -0.977371,-0.278008 z"
     style="fill:#181005;fill-opacity:1;fill-rule:nonzero;stroke:none;stroke-width:0.478362;stroke-linecap:round;stroke-linejoin:round;stroke-miterlimit:4;stroke-dasharray:none;stroke-dashoffset:0;stroke-opacity:1" />
  <path
     style="fill:none;fill-rule:evenodd;stroke:#2e3436;stroke-width:0.95672px;stroke-linecap:round;stroke-linejoin:miter;stroke-opacity:1"
     d="m 33.421444,17.410281 c 0.705101,-2.832301 3.290464,-2.446079 3.290464,-2.446079"
     id="path4730" />
  <path
     style="fill:#2e3436;fill-opacity:1;fill-rule:nonzero;stroke:none;stroke-width:0.95672;stroke-linecap:round;stroke-linejoin:round;stroke-miterlimit:4;stroke-dashoffset:0;stroke-opacity:1"
     d="M 34.514326,17.379176 C 33.062903,17.27172 33.46087,15.097585 32.641044,15.018329 L 30.974226,17.253216 8.5146907,16.454118 C 5.2907857,16.192199 5.2370623,17.780521 5.0130411,21.215392 4.7890196,24.650246 4.597654,26.82097 7.8215589,27.082889 L 33.667225,30.36985 c 3.223907,0.261941 6.019084,-2.587667 6.2431,-6.022536 0.224023,-3.434855 -2.171916,-6.70622 -5.395999,-6.968138 z"
     id="path4129"
     sodipodi:nodetypes="ccccsccsc" />
  <path
     style="fill:#eeeeec;fill-opacity:1;fill-rule:evenodd;stroke:none;stroke-width:1px;stroke-linecap:butt;stroke-linejoin:miter;stroke-opacity:1;filter:url(#filter4520)"
     d="m 6.2386884,17.463069 v 2 l 33.5085226,0.53125 c -0.25637,-0.358444 -0.553333,-0.701489 -0.873088,-1 z"
     id="path4459"
     transform="matrix(0.91406359,0,0,1.0013701,1.3894559,-0.04224849)" />
  <path
     sodipodi:nodetypes="ccccsccsc"
     id="path4370"
     d="M 34.514326,17.379176 C 33.345541,17.188579 33.248353,15.824032 32.641044,15.018329 L 30.974226,17.253216 8.5146907,16.454118 C 5.2907857,16.192199 5.2370623,17.780521 5.0130411,21.215392 4.7890196,24.650246 4.597654,26.82097 7.8215589,27.082889 L 33.667225,30.36985 c 3.223907,0.261941 6.019084,-2.587667 6.2431,-6.022536 0.224023,-3.434855 -2.171916,-6.70622 -5.395999,-6.968138 z"
     style="fill:url(#linearGradient4380);fill-opacity:1;fill-rule:nonzero;stroke:none;stroke-width:0.95672;stroke-linecap:round;stroke-linejoin:round;stroke-miterlimit:4;stroke-dashoffset:0;stroke-opacity:1" />
  <path
     style="fill:url(#radialGradient4457);fill-opacity:1;fill-rule:nonzero;stroke:none;stroke-width:0.95672;stroke-linecap:round;stroke-linejoin:round;stroke-miterlimit:4;stroke-dashoffset:0;stroke-opacity:1"
     d="m 34.514326,17.379176 c -2.712853,0.647921 -1.385188,-1.48437 -1.873282,-2.360847 L 30.974226,17.253216 8.5146907,16.454118 C 5.2907857,16.192199 5.2370623,17.780521 5.0130411,21.215392 4.7890196,24.650246 4.597654,26.82097 7.8215589,27.082889 L 33.667225,30.36985 c 3.223907,0.261941 6.019084,-2.587667 6.2431,-6.022536 0.224023,-3.434855 -2.171916,-6.70622 -5.395999,-6.968138 z"
     id="path4449"
     sodipodi:nodetypes="ccccsccsc" />
  <path
     style="fill:url(#linearGradient4537);fill-opacity:1;fill-rule:evenodd;stroke:none;stroke-width:0.95672;stroke-linecap:butt;stroke-linejoin:miter;stroke-miterlimit:4;stroke-dasharray:none;stroke-opacity:1"
     d="m 23.777986,24.652636 17.504384,3.55227 0.795659,-1.480111 4.77397,2.072159 c 0,0 9.547769,6.808565 10.873816,10.952905 1.326217,4.144339 -3.658429,0.257706 -4.508696,-1.184117 -0.872735,-1.480107 -7.983827,-5.032402 -9.282485,-5.62445 -1.787607,-0.814911 -1.326221,4.144343 -5.039252,2.664227 -3.713029,-1.480131 -12.995517,-2.960243 -12.995517,-2.960243 z"
     id="path4131"
     sodipodi:nodetypes="ccccsssscc" />
  <path
     style="fill:#75511a;fill-opacity:1;fill-rule:evenodd;stroke:none;stroke-width:0.95672px;stroke-linecap:butt;stroke-linejoin:miter;stroke-opacity:1"
     d="m 25.85888,27.637667 c 0,0 10.470184,2.184809 12.298312,2.548942 1.828126,0.364136 4.985804,2.002743 4.985804,2.002743 l -0.498583,0.910333 c 0,0 -2.659095,-1.820672 -5.484382,-2.366873 C 34.334744,30.186609 25.85888,27.637667 25.85888,27.637667 Z"
     id="path4529" />
  <path
     sodipodi:nodetypes="ccccsssscc"
     id="path4539"
     d="m 23.777986,24.652636 17.504384,3.55227 0.795659,-1.480111 4.77397,2.072159 c 0,0 9.547769,6.808565 10.873816,10.952905 1.326217,4.144339 -3.658429,0.257706 -4.508696,-1.184117 -0.872735,-1.480107 -7.983827,-5.032402 -9.282485,-5.62445 -1.787607,-0.814911 -1.326221,4.144343 -5.039252,2.664227 -3.713029,-1.480131 -12.995517,-2.960243 -12.995517,-2.960243 z"
     style="fill:url(#radialGradient4541);fill-opacity:1;fill-rule:evenodd;stroke:none;stroke-width:0.95672;stroke-linecap:butt;stroke-linejoin:miter;stroke-miterlimit:4;stroke-dasharray:none;stroke-opacity:1" />
  <path
     style="fill:url(#radialGradient4553);fill-opacity:1;fill-rule:evenodd;stroke:none;stroke-width:0.95672;stroke-linecap:butt;stroke-linejoin:miter;stroke-miterlimit:4;stroke-dasharray:none;stroke-opacity:1"
     d="m 23.777986,24.652636 17.504384,3.55227 0.795659,-1.480111 4.77397,2.072159 c 0,0 9.547769,6.808565 10.873816,10.952905 1.326217,4.144339 -3.658429,0.257706 -4.508696,-1.184117 -0.872735,-1.480107 -7.983827,-5.032402 -9.282485,-5.62445 -1.787607,-0.814911 -1.326221,4.144343 -5.039252,2.664227 -3.713029,-1.480131 -12.995517,-2.960243 -12.995517,-2.960243 z"
     id="path4551"
     sodipodi:nodetypes="ccccsssscc" />
  <ellipse
     style="fill:none;fill-opacity:0.5;fill-rule:nonzero;stroke:#4d2600;stroke-width:0.95672;stroke-linecap:round;stroke-linejoin:round;stroke-miterlimit:4;stroke-dasharray:none;stroke-dashoffset:0;stroke-opacity:1"
     id="path4555"
     cx="24.529337"
     cy="31.643139"
     rx="9.3068304"
     ry="10.195767" />
  <path
     style="fill:#75511a;fill-opacity:1;fill-rule:nonzero;stroke:none;stroke-width:0.478362;stroke-linecap:round;stroke-linejoin:round;stroke-miterlimit:4;stroke-dasharray:none;stroke-dashoffset:0;stroke-opacity:1"
     d="m 23.166838,21.254094 c 5.000626,-0.792811 9.649423,3.105327 10.359936,8.686767 0.71016,5.581455 -2.782184,10.770334 -7.782989,11.563102 -5.000448,0.792767 -9.649066,-3.105372 -10.359578,-8.686809 -0.710341,-5.581456 2.782363,-10.770351 7.782631,-11.56306 z m 1.285844,3.136131 0.385714,3.031418 c 0.342882,0.04202 0.667853,0.133231 0.977551,0.277987 l 1.630999,-2.423376 c -0.896263,-0.560621 -1.918402,-0.885263 -2.994264,-0.886029 z m -1.738272,0.275578 c -1.020561,0.330678 -1.930519,0.980633 -2.654898,1.781633 l 2.17139,1.820567 c 0.258959,-0.223822 0.559,-0.429871 0.869221,-0.570785 z m 6.159357,1.806813 -1.631178,2.423416 c 0.210854,0.291526 0.37992,0.614662 0.511599,0.97038 l 2.661386,-0.421952 c -0.292658,-1.136772 -0.835157,-2.163342 -1.541807,-2.971844 z m -9.885905,1.567335 c -0.48772,0.999364 -0.793556,2.155695 -0.793907,3.342124 l 2.66157,-0.421958 c 0.04145,-0.393013 0.163448,-0.745581 0.303376,-1.09958 z m 11.674741,3.344633 -2.661573,0.421955 c -0.03774,0.382552 -0.119383,0.745445 -0.249127,1.090974 l 2.109243,1.768544 c 0.488424,-0.994957 0.803559,-2.088285 0.801457,-3.281473 z m -9.560239,1.515636 -2.661566,0.421956 c 0.300394,1.152982 0.864309,2.158441 1.596244,2.963221 l 1.630996,-2.423373 C 21.445423,33.565498 21.240362,33.264803 21.102364,32.90022 Z m 5.577712,1.58979 c -0.261237,0.235269 -0.550751,0.423899 -0.869575,0.570825 l 0.378169,2.970786 c 1.02741,-0.330111 1.880301,-0.972421 2.600472,-1.773029 z m -3.585044,0.568374 -1.631175,2.423418 c 0.892397,0.532262 1.927005,0.828037 2.986542,0.825395 l -0.377991,-2.970803 c -0.333229,-0.03886 -0.672767,-0.143522 -0.977376,-0.27801 z"
     id="path4133" />
  <path
     style="fill:url(#radialGradient4395);fill-opacity:1;fill-rule:nonzero;stroke:none;stroke-width:1;stroke-linecap:round;stroke-linejoin:round;stroke-miterlimit:4;stroke-dashoffset:0;stroke-opacity:1;filter:url(#filter4445)"
     d="m 6.1506204,16.525569 c -1.913354,0.350351 -1.98837,1.900484 -2.1875,4.6875 -0.207932,2.910199 -0.384722,4.925342 1.71875,5.625 -0.241871,-1.71202 -0.33471,-3.685338 -0.1875,-5.8125 0.111884,-1.61671 0.376823,-3.130011 0.6875,-4.5 -0.0097,0.0017 -0.02161,-0.0018 -0.03125,0 z"
     id="path4382"
     sodipodi:nodetypes="cscscc"
     transform="matrix(0.91406359,0,0,1.0013701,1.3894559,-0.04224849)" />
  <path
     style="fill:#8e672c;fill-opacity:1;fill-rule:evenodd;stroke:none;stroke-width:0.95672;stroke-linecap:butt;stroke-linejoin:miter;stroke-miterlimit:4;stroke-dasharray:none;stroke-opacity:1"
     d="m 42.088704,26.738711 -0.485597,0.876198 4.427496,1.908861 c 2.723633,1.48969 10.826772,9.165028 11.682874,10.23275 C 56.387431,35.612179 46.858973,28.804038 46.858973,28.804037 Z"
     id="path4524"
     sodipodi:nodetypes="cccccc" />
  <path
     style="fill:#c48e3e;fill-opacity:1;fill-rule:nonzero;stroke:none;stroke-width:0.5;stroke-linecap:round;stroke-linejoin:round;stroke-miterlimit:4;stroke-dasharray:none;stroke-dashoffset:0;stroke-opacity:1;filter:url(#filter4590)"
     d="m 24.83812,21.363637 c -0.337958,0.01362 -0.658077,0.04427 -1,0.09375 -5.201344,0.752693 -8.909395,5.464908 -8.59375,10.71875 0.133478,-4.881056 3.693307,-9.103351 8.59375,-9.8125 5.470763,-0.791724 10.535188,3.082448 11.3125,8.65625 0.04856,0.348364 0.08039,0.718175 0.09375,1.0625 0.03297,-0.646178 -0.0012,-1.304681 -0.09375,-1.96875 -0.72873,-5.225439 -5.243135,-8.954272 -10.3125,-8.75 z m 0.40625,4.125 0.40625,3.03125 c 0.375116,0.042 0.723687,0.136693 1.0625,0.28125 l 1.78125,-2.4375 c -0.163421,-0.09331 -0.329294,-0.17019 -0.5,-0.25 l -1.28125,1.78125 c -0.338813,-0.144557 -0.687384,-0.239254 -1.0625,-0.28125 l -0.28125,-2.125 c -0.04319,-9.01e-4 -0.08165,2.8e-5 -0.125,0 z m -4.28125,1.5625 c -0.190109,0.15756 -0.359399,0.32654 -0.53125,0.5 l 2.375,1.8125 c 0.283305,-0.223519 0.59811,-0.42178 0.9375,-0.5625 l -0.125,-0.84375 c -0.294067,0.136713 -0.564608,0.304422 -0.8125,0.5 z m 7.625,2.5 -0.3125,0.4375 c 0.230676,0.291128 0.418447,0.613514 0.5625,0.96875 l 2.90625,-0.40625 c -0.0865,-0.306686 -0.187953,-0.617753 -0.3125,-0.90625 l -2.59375,0.40625 c -0.07203,-0.177618 -0.156918,-0.338531 -0.25,-0.5 z m -7.1875,1.21875 c -0.03244,0.12409 -0.07855,0.243405 -0.09375,0.375 l -2.875,0.40625 c -0.04253,0.300432 -0.0624,0.599594 -0.0625,0.90625 l 2.9375,-0.40625 c 0.04533,-0.392475 0.159419,-0.740236 0.3125,-1.09375 z m 10.53125,1.71875 c -0.126646,0.831108 -0.39097,1.618035 -0.78125,2.34375 l -2.09375,-1.59375 c -0.04935,0.256817 -0.120286,0.510634 -0.21875,0.75 l 2.3125,1.75 c 0.534343,-0.993598 0.877304,-2.058443 0.875,-3.25 z m -12.96875,1.875 -0.3125,0.03125 c 0.328634,1.151403 0.949255,2.165071 1.75,2.96875 l 1.78125,-2.40625 c -0.121773,-0.148059 -0.238351,-0.311153 -0.34375,-0.46875 l -1.4375,1.96875 c -0.594051,-0.596227 -1.088444,-1.298603 -1.4375,-2.09375 z m 7.875,1.71875 c -0.0426,0.01965 -0.0814,0.04416 -0.125,0.0625 l 0.40625,2.96875 c 1.124002,-0.329661 2.055874,-0.981739 2.84375,-1.78125 l -0.53125,-0.40625 c -0.66427,0.560508 -1.439142,1.025102 -2.3125,1.28125 z m -4.375,1.8125 -0.5,0.65625 c 0.976297,0.531533 2.1221,0.846392 3.28125,0.84375 l -0.125,-0.90625 c -0.923095,-0.01473 -1.83883,-0.233865 -2.65625,-0.59375 z"
     id="path4557"
     transform="matrix(0.91406359,0,0,1.0013701,1.3894559,-0.04224849)" />
  <circle
     transform="matrix(0.26116092,0,0,0.2592832,18.071533,22.682838)"
     id="path4594"
     style="fill:url(#linearGradient4602);fill-opacity:1;fill-rule:nonzero;stroke:none;stroke-width:3.5;stroke-linecap:round;stroke-linejoin:round;stroke-miterlimit:4;stroke-dasharray:none;stroke-dashoffset:0;stroke-opacity:1;filter:url(#filter4709)"
     cx="24.727272"
     cy="34.909092"
     r="10.181818" />
  <path
     style="fill:#8d662b;fill-opacity:1;fill-rule:nonzero;stroke:none;stroke-width:3.5;stroke-linecap:round;stroke-linejoin:round;stroke-miterlimit:4;stroke-dasharray:none;stroke-dashoffset:0;stroke-opacity:1;filter:url(#filter4645)"
     d="m 22.43187,31.525569 c -0.0068,0.07354 -0.03125,0.143627 -0.03125,0.21875 0,1.455272 1.300433,2.624999 2.90625,2.625 1.451676,0 2.625901,-0.958308 2.84375,-2.21875 -0.593204,0.672788 -1.554575,1.125 -2.65625,1.125 -1.424505,1e-6 -2.613219,-0.725905 -3.0625,-1.75 z"
     id="path4604"
     transform="matrix(0.91406359,0,0,1.0013701,1.3894559,-0.04224849)" />
  <path
     style="opacity:0.4329;fill:url(#radialGradient4725);fill-opacity:1;fill-rule:nonzero;stroke:none;stroke-width:0.95672;stroke-linecap:round;stroke-linejoin:round;stroke-miterlimit:4;stroke-dasharray:none;stroke-dashoffset:0;stroke-opacity:1"
     d="m 24.435848,30.587723 c -0.11642,-0.0046 -0.234838,0.02013 -0.342769,0.06258 -0.863472,0.33947 -1.091272,2.125254 -0.485596,3.974186 0.07574,0.231118 0.164823,0.447366 0.257078,0.657151 0.06956,0.01345 0.130572,0.05446 0.199949,0.06256 l 0.05711,0.438101 c 0.576949,1.055863 1.338411,1.677687 1.970953,1.595934 l -0.28565,-2.315654 c 0.318827,-0.146929 0.624256,-0.328005 0.885506,-0.563271 l 0.371336,0.312927 c -0.04956,-0.450584 -0.155242,-0.954174 -0.314213,-1.43946 -0.52996,-1.617822 -1.498759,-2.752712 -2.313721,-2.785066 z"
     id="path4723" />
  <ellipse
     style="fill:url(#radialGradient4721);fill-opacity:1;fill-rule:nonzero;stroke:none;stroke-width:1.36676;stroke-linecap:round;stroke-linejoin:round;stroke-miterlimit:4;stroke-dasharray:none;stroke-dashoffset:0;stroke-opacity:1"
     id="path4713"
     cx="24.480663"
     cy="32.007275"
     rx="1.6619341"
     ry="1.8206726" />
  <path
     style="opacity:0.714286;fill:url(#radialGradient4743);fill-opacity:1;fill-rule:nonzero;stroke:none;stroke-width:0.95672;stroke-linecap:round;stroke-linejoin:round;stroke-miterlimit:4;stroke-dasharray:none;stroke-dashoffset:0;stroke-opacity:1"
     d="m 32.61507,15.118368 -1.085453,2.041591 c 0.157192,0.129207 0.340787,0.26063 0.542722,0.26063 0.528065,0 0.964085,-0.522798 0.999762,-1.172826 8.37e-4,-0.02877 -0.0011,-0.05789 0,-0.08687 0,-0.440719 -0.18179,-0.819663 -0.457031,-1.042517 z"
     id="path4732" />
  <g
     id="g5055"
     transform="matrix(0.91406359,0,0,1.0013701,1.9270353,-3.6779032)">
    <ellipse
       transform="translate(0.2571298,-0.2571297)"
       id="path4961"
       style="opacity:1;fill:url(#radialGradient4969);fill-opacity:1;fill-rule:nonzero;stroke:none;stroke-width:0.526;stroke-linecap:round;stroke-linejoin:round;stroke-miterlimit:4;stroke-dasharray:0.526, 1.052;stroke-dashoffset:0;stroke-opacity:1;filter:url(#filter5051)"
       cx="56.954239"
       cy="54.229069"
       rx="5.785419"
       ry="0.89995408" />
    <circle
       transform="matrix(0.6421053,0,0,0.6421053,22.980633,18.490751)"
       id="path4859"
       style="opacity:1;fill:#2e3436;fill-opacity:1;fill-rule:nonzero;stroke:none;stroke-width:1;stroke-linecap:round;stroke-linejoin:round;stroke-miterlimit:4;stroke-dasharray:none;stroke-dashoffset:0;stroke-opacity:1"
       cx="48.404675"
       cy="49.150757"
       r="6.1068311" />
    <circle
       transform="matrix(0.6421053,0,0,0.6421053,22.980633,18.490751)"
       id="path4879"
       style="opacity:0.800866;fill:url(#radialGradient4881);fill-opacity:1;fill-rule:nonzero;stroke:none;stroke-width:1;stroke-linecap:round;stroke-linejoin:round;stroke-miterlimit:4;stroke-dasharray:none;stroke-dashoffset:0;stroke-opacity:1"
       cx="48.404675"
       cy="49.150757"
       r="6.1068311" />
    <circle
       transform="matrix(0.6421053,0,0,0.6421053,22.980633,18.490751)"
       style="opacity:0.593074;fill:url(#radialGradient4877);fill-opacity:1;fill-rule:nonzero;stroke:none;stroke-width:1;stroke-linecap:round;stroke-linejoin:round;stroke-miterlimit:4;stroke-dasharray:none;stroke-dashoffset:0;stroke-opacity:1"
       id="path4869"
       cx="48.404675"
       cy="49.150757"
       r="6.1068311" />
    <circle
       id="path4883"
       style="opacity:0.593074;fill:none;fill-opacity:1;fill-rule:nonzero;stroke:#888888;stroke-width:1.04284;stroke-linecap:round;stroke-linejoin:round;stroke-miterlimit:4;stroke-dasharray:1.04284, 2.08568;stroke-dashoffset:0;stroke-opacity:1;filter:url(#filter4957)"
       transform="matrix(0.2508392,0.3511981,-0.4796992,0.3426197,65.49732,16.146678)"
       cx="48.404675"
       cy="49.150757"
       r="6.1068311" />
    <circle
       transform="matrix(-0.2341564,0.2119408,-0.1803029,-0.5135133,74.322102,65.095536)"
       style="opacity:0.593074;fill:none;fill-opacity:1;fill-rule:nonzero;stroke:#424242;stroke-width:1.32139;stroke-linecap:round;stroke-linejoin:round;stroke-miterlimit:4;stroke-dasharray:1.32139, 2.64278;stroke-dashoffset:0;stroke-opacity:1;filter:url(#filter4925)"
       id="path4887"
       cx="48.404675"
       cy="49.150757"
       r="6.1068311" />
  </g>
  <ellipse
     style="fill:url(#radialGradient5099);fill-opacity:1;fill-rule:nonzero;stroke:none;stroke-width:0.526;stroke-linecap:round;stroke-linejoin:round;stroke-miterlimit:4;stroke-dasharray:0.526, 1.052;stroke-dashoffset:0;stroke-opacity:1;filter:url(#filter5051)"
     id="path5087"
     transform="matrix(0.95062629,0,0,1.0414246,-7.1828403,-3.4400058)"
     cx="56.954239"
     cy="54.229069"
     rx="5.785419"
     ry="0.89995408" />
  <ellipse
     style="fill:#2e3436;fill-opacity:1;fill-rule:nonzero;stroke:none;stroke-width:0.63889;stroke-linecap:round;stroke-linejoin:round;stroke-miterlimit:4;stroke-dasharray:none;stroke-dashoffset:0;stroke-opacity:1"
     id="path5089"
     cx="43.965012"
     cy="48.951832"
     rx="3.7276237"
     ry="4.0836635" />
  <ellipse
     style="opacity:0.800866;fill:url(#radialGradient5101);fill-opacity:1;fill-rule:nonzero;stroke:none;stroke-width:0.63889;stroke-linecap:round;stroke-linejoin:round;stroke-miterlimit:4;stroke-dasharray:none;stroke-dashoffset:0;stroke-opacity:1"
     id="path5091"
     cx="43.965012"
     cy="48.951832"
     rx="3.7276237"
     ry="4.0836635" />
  <ellipse
     id="path5093"
     style="opacity:0.593074;fill:url(#radialGradient5103);fill-opacity:1;fill-rule:nonzero;stroke:none;stroke-width:0.63889;stroke-linecap:round;stroke-linejoin:round;stroke-miterlimit:4;stroke-dasharray:none;stroke-dashoffset:0;stroke-opacity:1"
     cx="43.965012"
     cy="48.951832"
     rx="3.7276237"
     ry="4.0836635" />
  <circle
     transform="matrix(-0.2526771,0.35410034,-0.44149425,-0.37809488,77.89556,50.328313)"
     style="opacity:0.593074;fill:none;fill-opacity:1;fill-rule:nonzero;stroke:#888888;stroke-width:1.04284;stroke-linecap:round;stroke-linejoin:round;stroke-miterlimit:4;stroke-dasharray:1.04284, 2.08568;stroke-dashoffset:0;stroke-opacity:1;filter:url(#filter4957)"
     id="path5095"
     cx="48.404675"
     cy="49.150757"
     r="6.1068311" />
  <circle
     id="path5097"
     style="opacity:0.593074;fill:none;fill-opacity:1;fill-rule:nonzero;stroke:#424242;stroke-width:1.32139;stroke-linecap:round;stroke-linejoin:round;stroke-miterlimit:4;stroke-dasharray:1.32139, 2.64278;stroke-dashoffset:0;stroke-opacity:1;filter:url(#filter4925)"
     transform="matrix(-0.14444024,0.28834811,-0.32165947,-0.44393719,66.827523,56.881122)"
     cx="48.404675"
     cy="49.150757"
     r="6.1068311" />
</svg>
