<?xml version="1.0" encoding="UTF-8" standalone="no"?>
<svg
   width="64"
   height="64"
   version="1.1"
   id="svg47131"
   sodipodi:docname="ksnapshot.svg"
   inkscape:version="1.2.1 (9c6d41e410, 2022-07-14)"
   xmlns:inkscape="http://www.inkscape.org/namespaces/inkscape"
   xmlns:sodipodi="http://sodipodi.sourceforge.net/DTD/sodipodi-0.dtd"
   xmlns:xlink="http://www.w3.org/1999/xlink"
   xmlns="http://www.w3.org/2000/svg"
   xmlns:svg="http://www.w3.org/2000/svg">
  <sodipodi:namedview
     id="namedview47133"
     pagecolor="#ffffff"
     bordercolor="#666666"
     borderopacity="1.0"
     inkscape:showpageshadow="2"
     inkscape:pageopacity="0.0"
     inkscape:pagecheckerboard="0"
     inkscape:deskcolor="#d1d1d1"
     showgrid="true"
     inkscape:zoom="4.9166667"
     inkscape:cx="-25.525424"
     inkscape:cy="7.0169491"
     inkscape:window-width="1920"
     inkscape:window-height="1002"
     inkscape:window-x="0"
     inkscape:window-y="0"
     inkscape:window-maximized="1"
     inkscape:current-layer="svg47131">
    <inkscape:grid
       type="xygrid"
       id="grid48746" />
  </sodipodi:namedview>
  <defs
     id="defs47095">
    <linearGradient
       id="a"
       y1="536.79999"
       y2="503.79999"
       x2="0"
       gradientUnits="userSpaceOnUse"
       gradientTransform="translate(-300.44932,-546.60937)">
      <stop
         stop-color="#2a2c2f"
         id="stop47065" />
      <stop
         offset="1"
         stop-color="#424649"
         id="stop47067" />
    </linearGradient>
    <linearGradient
       id="b"
       y1="547.79999"
       y2="536.79999"
       x2="0"
       gradientUnits="userSpaceOnUse"
       gradientTransform="matrix(1,0,0,0.54545,-300.44932,-302.60937)">
      <stop
         stop-color="#c6cdd1"
         id="stop47070" />
      <stop
         offset="1"
         stop-color="#e0e5e7"
         id="stop47072" />
    </linearGradient>
    <linearGradient
       id="c"
       y1="5.342"
       x1="42.799"
       y2="31.357"
       x2="11.999"
       gradientUnits="userSpaceOnUse"
       gradientTransform="matrix(1.0000045,0,0,1.0000045,-87.744911,-25.812225)">
      <stop
         stop-color="#4ce0c6"
         id="stop47075" />
      <stop
         offset="1"
         stop-color="#3b85b5"
         id="stop47077"
         style="stop-color:#a3be8c;stop-opacity:1;" />
    </linearGradient>
    <linearGradient
       id="d"
       y1="22.346001"
       x1="29.855"
       y2="28.506001"
       x2="54.32"
       gradientUnits="userSpaceOnUse"
       gradientTransform="matrix(1.0000045,0,0,1.0000045,-87.744911,-25.812225)">
      <stop
         stop-color="#cc4a5e"
         id="stop47080"
         offset="0"
         style="stop-color:#b48ead;stop-opacity:1;" />
      <stop
         offset="1"
         stop-color="#aa478a"
         id="stop47082"
         style="stop-color:#bf616a;stop-opacity:1;" />
    </linearGradient>
    <linearGradient
       id="e"
       y1="41.220001"
       x1="24.392"
       y2="25.343"
       x2="20.643"
       gradientUnits="userSpaceOnUse">
      <stop
         stop-color="#334545"
         id="stop47085" />
      <stop
         offset="1"
         stop-color="#536161"
         id="stop47087" />
    </linearGradient>
    <linearGradient
       xlink:href="#e"
       id="f"
       y1="568.79999"
       x1="431.57001"
       y2="562.79999"
       x2="439.57001"
       gradientUnits="userSpaceOnUse"
       gradientTransform="matrix(-0.91667,0,0,0.91667,340.94498,-518.29318)" />
    <linearGradient
       xlink:href="#e"
       id="g"
       y1="40.898998"
       x1="56.029999"
       y2="32.474998"
       x2="40.646999"
       gradientUnits="userSpaceOnUse"
       gradientTransform="matrix(1.0000045,0,0,1.0000045,-87.744911,-25.812225)" />
    <linearGradient
       xlink:href="#e"
       id="h"
       y1="32.150002"
       x1="60.895"
       y2="27.059999"
       x2="53.41"
       gradientUnits="userSpaceOnUse"
       gradientTransform="matrix(1.0000045,0,0,1.0000045,-107.74665,-25.812225)" />
    <linearGradient
       xlink:href="#e"
       id="i"
       y1="36.527"
       x1="33.32"
       y2="31.348"
       x2="24.780001"
       gradientUnits="userSpaceOnUse"
       gradientTransform="matrix(1.0000045,0,0,1.0000045,-87.744911,-25.812225)" />
    <linearGradient
       xlink:href="#e"
       id="j"
       y1="36.764999"
       x1="34"
       y2="49.570999"
       x2="40.25"
       gradientUnits="userSpaceOnUse"
       gradientTransform="matrix(1.0000045,0,0,1.0000045,-87.744911,-25.812225)" />
    <linearGradient
       inkscape:collect="always"
       xlink:href="#linearGradient22063"
       id="linearGradient22065"
       x1="-22"
       y1="5.1111121"
       x2="-6.4444442"
       y2="-9.1111107"
       gradientUnits="userSpaceOnUse"
       gradientTransform="matrix(3.6250002,0,0,3.6250002,82.750002,39.249999)" />
    <linearGradient
       inkscape:collect="always"
       id="linearGradient22063">
      <stop
         style="stop-color:#4fa2ba;stop-opacity:1;"
         offset="0"
         id="stop22059" />
      <stop
         style="stop-color:#9b6891;stop-opacity:1;"
         offset="0.27685094"
         id="stop3521" />
      <stop
         style="stop-color:#e4b963;stop-opacity:1;"
         offset="0.82974136"
         id="stop3519" />
      <stop
         style="stop-color:#6082ab;stop-opacity:1;"
         offset="1"
         id="stop22061" />
    </linearGradient>
    <linearGradient
       id="linearGradient7048"
       x1="8.8413"
       x2="8.8413"
       y1="5.5542002"
       y2="11.401"
       gradientUnits="userSpaceOnUse"
       gradientTransform="matrix(3.779602,0,0,3.779602,-0.36823357,-0.68683506)">
      <stop
         stop-color="#eceff4"
         offset="0"
         id="stop25" />
      <stop
         stop-color="#d8dee9"
         offset="1"
         id="stop27" />
    </linearGradient>
  </defs>
  <path
     d="m 2.9999985,10.25 c 0,-4.004175 3.245938,-7.25 7.2500005,-7.25 h 43.500003 c 4.004173,0 7.25,3.245825 7.25,7.25 v 43.5 c 0,4.004173 -3.245827,7.25 -7.25,7.25 H 10.249999 C 6.2459365,61 2.9999985,57.754173 2.9999985,53.75 Z"
     id="path736"
     style="fill:#606c86;fill-opacity:1;stroke-width:3.625" />
  <path
     d="M 2.9999985,9.7968747 C 2.9999985,6.043188 6.2459365,3 10.249999,3 h 43.500003 c 4.004173,0 7.25,3.043188 7.25,6.7968747 V 50.578124 c 0,3.753693 -3.245827,6.796876 -7.25,6.796876 H 10.249999 c -4.0040625,0 -7.2500005,-3.043183 -7.2500005,-6.796876 z"
     id="path738"
     style="fill:url(#linearGradient22065);fill-opacity:1;stroke-width:3.625" />
  <g
     fill="none"
     stroke="#d8dee9"
     stroke-linecap="round"
     stroke-width="0.26458px"
     id="g66"
     transform="matrix(3.779602,0,0,3.779602,-0.36823357,-1.3868351)">
    <path
       d="M 2.1278,4.6452 C 2.52566,2.4594 4.125,2.2748 4.125,2.2748"
       opacity="0.85"
       id="path58" />
    <path
       d="m 2.1278,12.432 c 0.39786,2.1858 1.9972,2.3704 1.9972,2.3704"
       opacity="0.85"
       id="path60" />
    <path
       d="M 14.981,4.6452 C 14.58314,2.4594 12.9838,2.2748 12.9838,2.2748"
       opacity="0.85"
       id="path62" />
    <path
       d="m 14.981,12.394 c -0.39786,2.1858 -1.9972,2.3704 -1.9972,2.3704"
       opacity="0.85"
       id="path64" />
  </g>
  <path
     d="m 28.19951,20.150111 v 4.574075 h -3.399299 v 17.7509 h 21.937566 v -17.7509 h -3.141265 v -4.574075 z m 1.610677,1.644052 H 41.72765 v 2.929909 H 29.810187 Z m -13.285679,2.929909 v 17.750901 h 6.774181 V 24.724072 Z m 19.348161,1.708569 a 7.1071636,7.1071636 0 0 1 0.618456,0.02668 7.1071636,7.1071636 0 0 1 0.616226,0.08009 7.1071636,7.1071636 0 0 1 0.605115,0.133481 7.1071636,7.1071636 0 0 1 0.591772,0.186871 7.1071636,7.1071636 0 0 1 0.57174,0.238043 7.1071636,7.1071636 0 0 1 0.549479,0.286981 7.1071636,7.1071636 0 0 1 0.522794,0.331475 7.1071636,7.1071636 0 0 1 0.491651,0.378187 7.1071636,7.1071636 0 0 1 0.458277,0.418251 7.1071636,7.1071636 0 0 1 0.418251,0.458277 7.1071636,7.1071636 0 0 1 0.378186,0.49165 7.1071636,7.1071636 0 0 1 0.333702,0.522794 7.1071636,7.1071636 0 0 1 0.284793,0.549479 7.1071636,7.1071636 0 0 1 0.238039,0.57397 7.1071636,7.1071636 0 0 1 0.186901,0.589543 7.1071636,7.1071636 0 0 1 0.133496,0.607344 7.1071636,7.1071636 0 0 1 0.08009,0.613996 7.1071636,7.1071636 0 0 1 0.02873,0.618456 7.1071636,7.1071636 0 0 1 -0.02873,0.620687 7.1071636,7.1071636 0 0 1 -0.08009,0.613996 7.1071636,7.1071636 0 0 1 -0.133496,0.605114 7.1071636,7.1071636 0 0 1 -0.186901,0.591773 7.1071636,7.1071636 0 0 1 -0.238039,0.57174 7.1071636,7.1071636 0 0 1 -0.284793,0.551709 7.1071636,7.1071636 0 0 1 -0.333702,0.522794 7.1071636,7.1071636 0 0 1 -0.378186,0.491651 7.1071636,7.1071636 0 0 1 -0.418251,0.456046 7.1071636,7.1071636 0 0 1 -0.458277,0.420481 7.1071636,7.1071636 0 0 1 -0.491651,0.375957 7.1071636,7.1071636 0 0 1 -0.522794,0.333701 7.1071636,7.1071636 0 0 1 -0.549479,0.286985 7.1071636,7.1071636 0 0 1 -0.57174,0.235848 7.1071636,7.1071636 0 0 1 -0.591772,0.186901 7.1071636,7.1071636 0 0 1 -0.605115,0.133495 7.1071636,7.1071636 0 0 1 -0.616226,0.08232 7.1071636,7.1071636 0 0 1 -0.618456,0.02683 7.1071636,7.1071636 0 0 1 -0.620686,-0.02683 7.1071636,7.1071636 0 0 1 -0.613997,-0.08232 7.1071636,7.1071636 0 0 1 -0.605114,-0.133495 7.1071636,7.1071636 0 0 1 -0.591772,-0.186901 7.1071636,7.1071636 0 0 1 -0.571741,-0.235848 7.1071636,7.1071636 0 0 1 -0.549478,-0.286977 7.1071636,7.1071636 0 0 1 -0.525025,-0.33369 7.1071636,7.1071636 0 0 1 -0.49165,-0.375964 7.1071636,7.1071636 0 0 1 -0.456047,-0.420481 7.1071636,7.1071636 0 0 1 -0.418251,-0.456047 7.1071636,7.1071636 0 0 1 -0.378187,-0.491651 7.1071636,7.1071636 0 0 1 -0.333701,-0.522794 7.1071636,7.1071636 0 0 1 -0.284763,-0.551709 7.1071636,7.1071636 0 0 1 -0.238043,-0.57174 7.1071636,7.1071636 0 0 1 -0.186871,-0.591772 7.1071636,7.1071636 0 0 1 -0.13348,-0.605115 7.1071636,7.1071636 0 0 1 -0.08231,-0.613996 7.1071636,7.1071636 0 0 1 -0.02669,-0.620686 7.1071636,7.1071636 0 0 1 0.02669,-0.618456 7.1071636,7.1071636 0 0 1 0.08231,-0.613997 7.1071636,7.1071636 0 0 1 0.13348,-0.607344 7.1071636,7.1071636 0 0 1 0.186871,-0.589542 7.1071636,7.1071636 0 0 1 0.238043,-0.573971 7.1071636,7.1071636 0 0 1 0.284763,-0.549478 7.1071636,7.1071636 0 0 1 0.333701,-0.522795 7.1071636,7.1071636 0 0 1 0.378187,-0.49165 7.1071636,7.1071636 0 0 1 0.418251,-0.458277 7.1071636,7.1071636 0 0 1 0.456047,-0.418251 7.1071636,7.1071636 0 0 1 0.49165,-0.378186 7.1071636,7.1071636 0 0 1 0.525025,-0.331475 7.1071636,7.1071636 0 0 1 0.549478,-0.286982 7.1071636,7.1071636 0 0 1 0.571741,-0.238043 7.1071636,7.1071636 0 0 1 0.591772,-0.186871 7.1071636,7.1071636 0 0 1 0.605114,-0.13348 7.1071636,7.1071636 0 0 1 0.613997,-0.08009 7.1071636,7.1071636 0 0 1 0.620686,-0.02668 z m 0,1.608448 a 5.4974311,5.4974311 0 0 0 -5.497053,5.497052 5.4974311,5.4974311 0 0 0 5.497053,5.497054 5.4974311,5.4974311 0 0 0 5.497053,-5.497054 5.4974311,5.4974311 0 0 0 -5.497053,-5.497052 z"
     stroke-linecap="round"
     stroke-linejoin="round"
     stroke-width="0.238712"
     id="path68"
     style="fill:#ffffff;fill-opacity:1" />
</svg>
