<?xml version="1.0" encoding="UTF-8" standalone="no"?>
<svg
   width="64"
   height="64"
   version="1.1"
   id="svg23117"
   sodipodi:docname="ktimetracker.svg"
   inkscape:version="1.2.1 (9c6d41e410, 2022-07-14)"
   xmlns:inkscape="http://www.inkscape.org/namespaces/inkscape"
   xmlns:sodipodi="http://sodipodi.sourceforge.net/DTD/sodipodi-0.dtd"
   xmlns:xlink="http://www.w3.org/1999/xlink"
   xmlns="http://www.w3.org/2000/svg"
   xmlns:svg="http://www.w3.org/2000/svg">
  <sodipodi:namedview
     id="namedview23119"
     pagecolor="#ffffff"
     bordercolor="#666666"
     borderopacity="1.0"
     inkscape:showpageshadow="2"
     inkscape:pageopacity="0.0"
     inkscape:pagecheckerboard="0"
     inkscape:deskcolor="#d1d1d1"
     showgrid="false"
     inkscape:zoom="4.9166667"
     inkscape:cx="24.508474"
     inkscape:cy="24.508474"
     inkscape:window-width="1920"
     inkscape:window-height="1002"
     inkscape:window-x="0"
     inkscape:window-y="0"
     inkscape:window-maximized="1"
     inkscape:current-layer="svg23117" />
  <defs
     id="defs23105">
    <linearGradient
       id="a"
       y1="547.63397"
       y2="499.67899"
       x2="388.86499"
       gradientUnits="userSpaceOnUse"
       gradientTransform="translate(-453.04388,-539.81483)"
       x1="428.81601">
      <stop
         stop-color="#2a2c2f"
         id="stop23090" />
      <stop
         offset="1"
         stop-color="#536161"
         id="stop23092" />
    </linearGradient>
    <linearGradient
       id="b"
       y1="44"
       y2="12"
       x2="14"
       gradientUnits="userSpaceOnUse"
       x1="36"
       gradientTransform="translate(-68.473879,-40.014831)">
      <stop
         stop-color="#536161"
         style="stop-color:#bfc9c9;stop-opacity:1"
         id="stop23095" />
      <stop
         offset="1"
         stop-color="#f4f5f5"
         style="stop-color:#fbfbfb;stop-opacity:1"
         id="stop23097" />
    </linearGradient>
    <linearGradient
       id="c"
       y1="527.01398"
       x1="406.50101"
       y2="539.82501"
       x2="419.974"
       gradientUnits="userSpaceOnUse"
       gradientTransform="translate(-453.04388,-539.81483)">
      <stop
         stop-color="#292c2f"
         id="stop23100" />
      <stop
         offset="1"
         stop-opacity="0"
         id="stop23102" />
    </linearGradient>
    <linearGradient
       inkscape:collect="always"
       xlink:href="#linearGradient22063"
       id="linearGradient22065"
       x1="-14"
       y1="6"
       x2="-14"
       y2="-9.999999"
       gradientUnits="userSpaceOnUse"
       gradientTransform="matrix(3.6250002,0,0,3.6250002,82.750005,39.249999)" />
    <linearGradient
       inkscape:collect="always"
       id="linearGradient22063">
      <stop
         style="stop-color:#292f3a;stop-opacity:1;"
         offset="0"
         id="stop22059" />
      <stop
         style="stop-color:#535e75;stop-opacity:1;"
         offset="1"
         id="stop22061" />
    </linearGradient>
    <linearGradient
       gradientTransform="matrix(1.4175135,0,0,1.4175135,-0.97261301,0.3330346)"
       id="b-3"
       y1="23.774559"
       x1="22.540125"
       y2="35.804409"
       x2="35.770538"
       gradientUnits="userSpaceOnUse">
      <stop
         stop-color="#292c2f"
         id="stop12" />
      <stop
         offset="1"
         stop-color="#292c2f"
         stop-opacity="0"
         id="stop14" />
    </linearGradient>
    <linearGradient
       xlink:href="#linearGradient4564"
       id="linearGradient4570"
       x1="18.653"
       y1="20.191"
       x2="7.4320002"
       y2="8.5249996"
       gradientUnits="userSpaceOnUse"
       gradientTransform="matrix(0.99999999,0,0,1.1578948,8.0000025,3.1451316)" />
    <linearGradient
       id="linearGradient4564">
      <stop
         style="stop-color:#ffa92d;stop-opacity:1;"
         offset="0"
         id="stop4566" />
      <stop
         style="stop-color:#ffc169;stop-opacity:1"
         offset="1"
         id="stop4568" />
    </linearGradient>
    <linearGradient
       xlink:href="#linearGradient4574"
       id="linearGradient4580"
       x1="28.615"
       y1="21.502001"
       x2="39.939999"
       y2="10.118"
       gradientUnits="userSpaceOnUse"
       gradientTransform="matrix(0.99999999,0,0,1.1578948,8.0000025,3.1451316)" />
    <linearGradient
       id="linearGradient4574">
      <stop
         style="stop-color:#bf4231;stop-opacity:1;"
         offset="0"
         id="stop4576" />
      <stop
         style="stop-color:#f58273;stop-opacity:1"
         offset="1"
         id="stop4578" />
    </linearGradient>
    <linearGradient
       xlink:href="#linearGradient4590"
       id="linearGradient4596"
       x1="33.241001"
       y1="30.191"
       x2="40.393002"
       y2="37.416"
       gradientUnits="userSpaceOnUse"
       gradientTransform="matrix(0.99999999,0,0,1.1578948,8.0000025,3.1451316)" />
    <linearGradient
       id="linearGradient4590">
      <stop
         id="stop4594"
         offset="0"
         style="stop-color:#54d883;stop-opacity:1" />
      <stop
         id="stop4592"
         offset="1"
         style="stop-color:#3bb566;stop-opacity:1;" />
    </linearGradient>
    <linearGradient
       xlink:href="#linearGradient4582"
       id="linearGradient4588"
       x1="19.830999"
       y1="26.561001"
       x2="9.6899996"
       y2="37.881001"
       gradientUnits="userSpaceOnUse"
       gradientTransform="matrix(0.99999999,0,0,1.1578948,8.0000025,3.1451316)" />
    <linearGradient
       id="linearGradient4582">
      <stop
         id="stop4586"
         offset="0"
         style="stop-color:#7cbcec;stop-opacity:1" />
      <stop
         id="stop4584"
         offset="1"
         style="stop-color:#3b85b5;stop-opacity:1;" />
    </linearGradient>
    <linearGradient
       xlink:href="#linearGradient4626"
       id="linearGradient4632"
       x1="23.693001"
       y1="21.277"
       x2="34.937"
       y2="32.521999"
       gradientUnits="userSpaceOnUse"
       gradientTransform="matrix(1.1,0,0,1.1,5.6000025,4.5346056)" />
    <linearGradient
       id="linearGradient4626">
      <stop
         style="stop-color:#000000;stop-opacity:1;"
         offset="0"
         id="stop4628" />
      <stop
         style="stop-color:#000000;stop-opacity:0;"
         offset="1"
         id="stop4630" />
    </linearGradient>
    <linearGradient
       xlink:href="#linearGradient4598"
       id="linearGradient4604"
       x1="27.197001"
       y1="33.474998"
       x2="21.365999"
       y2="14.901"
       gradientUnits="userSpaceOnUse"
       gradientTransform="matrix(1.1,0,0,1.32,5.6000025,-0.74539444)" />
    <linearGradient
       id="linearGradient4598">
      <stop
         style="stop-color:#172525;stop-opacity:1;"
         offset="0"
         id="stop4600" />
      <stop
         style="stop-color:#334545;stop-opacity:1"
         offset="1"
         id="stop4602" />
    </linearGradient>
    <linearGradient
       xlink:href="#linearGradient4656"
       id="linearGradient4662"
       x1="19.025"
       y1="15.232"
       x2="29.945999"
       y2="31.764999"
       gradientUnits="userSpaceOnUse"
       gradientTransform="matrix(1.1,0,0,1.1,6.7000025,4.5346056)" />
    <linearGradient
       id="linearGradient4656">
      <stop
         style="stop-color:#ffffff;stop-opacity:1;"
         offset="0"
         id="stop4658" />
      <stop
         style="stop-color:#536161;stop-opacity:1"
         offset="1"
         id="stop4660" />
    </linearGradient>
    <linearGradient
       id="d"
       gradientTransform="matrix(2.114694,2.114694,-2.114694,2.114694,3.2088125,-828.15895)"
       gradientUnits="userSpaceOnUse"
       x1="210.5"
       x2="210.5"
       y1="188"
       y2="193.5">
      <stop
         offset="0"
         stop-color="#9b9ea2"
         id="stop17" />
      <stop
         offset="1"
         stop-color="#1a1b1e"
         id="stop19" />
    </linearGradient>
    <linearGradient
       id="a-3"
       gradientTransform="matrix(3.4959872,0,0,3.4959871,1.30074,3.299862)"
       gradientUnits="userSpaceOnUse"
       x1="8.5"
       x2="0.5"
       y1="7.6373668"
       y2="-0.371815">
      <stop
         offset="0"
         stop-color="#4f5356"
         id="stop2" />
      <stop
         offset="1"
         stop-color="#9b9ea2"
         stop-opacity="1"
         id="stop4" />
    </linearGradient>
    <radialGradient
       id="b-6"
       cx="16"
       cy="17"
       gradientUnits="userSpaceOnUse"
       r="11">
      <stop
         offset="0"
         stop-color="#3dd425"
         stop-opacity=".954751"
         id="stop7" />
      <stop
         offset="1"
         stop-color="#59f07c"
         id="stop9" />
    </radialGradient>
    <linearGradient
       id="c-7"
       gradientUnits="userSpaceOnUse"
       x1="14.541744"
       x2="26.541744"
       y1="16"
       y2="28"
       gradientTransform="matrix(1.5,0,0,1.5,8.0000025,7.0414438)">
      <stop
         offset="0"
         id="stop12-5" />
      <stop
         offset="1"
         stop-opacity="0"
         id="stop14-3" />
    </linearGradient>
  </defs>
  <path
     d="M 3,10.25 C 3,6.245825 6.245938,3 10.25,3 h 43.500005 c 4.00417,0 7.25,3.245825 7.25,7.25 v 43.5 c 0,4.004173 -3.24583,7.25 -7.25,7.25 H 10.25 C 6.245938,61 3,57.754173 3,53.75 Z"
     id="path736"
     style="fill:#606c86;fill-opacity:1;stroke-width:3.625" />
  <path
     d="M 3,9.796875 C 3,6.043188 6.245938,3 10.25,3 h 43.500005 c 4.00417,0 7.25,3.043188 7.25,6.796875 v 40.781249 c 0,3.753693 -3.24583,6.796876 -7.25,6.796876 H 10.25 C 6.245938,57.375 3,54.331817 3,50.578124 Z"
     id="path738"
     style="fill:url(#linearGradient22065);fill-opacity:1;stroke-width:3.625" />
  <path
     d="m 46.250003,13.791444 -3.75,3.75 h -10.5 v 15 h 16.5 v -9 l 3.75,-3.75 z"
     id="path22"
     style="fill:url(#d);stroke-width:1.5" />
  <g
     id="g34"
     transform="matrix(1.5,0,0,1.5,8.0000025,7.0414438)">
    <path
       d="m 10,2 v 2 h 6 6 V 2 Z m 6,2 A 13,13 0 0 0 3,17 13,13 0 0 0 16,30 13,13 0 0 0 29,17 13,13 0 0 0 16,4 Z"
       id="path24"
       style="fill:url(#a-3)" />
    <circle
       cx="16"
       cy="17"
       r="11"
       id="circle26"
       style="fill:#cecece;fill-opacity:1" />
    <path
       d="M 16,6 A 11,11 0 0 0 5,17 11,11 0 0 0 16,28 11,11 0 0 0 27,17 11,11 0 0 0 16,6 Z m 0,1 A 10,10 0 0 1 26,17 10,10 0 0 1 16,27 10,10 0 0 1 6,17 10,10 0 0 1 16,7 Z"
       opacity="0.15"
       id="path28" />
    <path
       d="M 28.978516,16.294922 C 28.818409,23.350847 23.057735,28.990153 16,29 9.0247366,28.986297 3.3034226,23.470116 3.0351562,16.5 3.0202252,16.666425 3.0085043,16.833123 3,17 c 0,7.179702 5.8202983,13 13,13 7.179702,0 13,-5.820298 13,-13 -7.82e-4,-0.235177 -0.0079,-0.47029 -0.02148,-0.705078 z"
       opacity="0.3"
       id="path30" />
    <path
       d="M 16,6 V 17 H 27 A 11,11 0 0 0 16,6 Z"
       id="path32"
       style="fill:url(#b-6)" />
  </g>
  <path
     d="m 29.87891,34.662537 14.378907,14.378907 h 4.242185 v -18 z"
     opacity="0.2"
     id="path36"
     style="fill:url(#c-7);stroke-width:1.5" />
  <g
     id="g44"
     transform="matrix(1.5,0,0,1.5,8.0000025,7.0414438)">
    <path
       d="m 16,16 h 11 v 2 H 16 Z"
       id="path38" />
    <path
       d="m 1.2928932,23.334524 c 0,1.104569 -0.89543048,2 -1.99999997,2 -1.10456953,0 -1.99969803,-0.895431 -1.99969803,-2 0,-1.10457 0.8951285,-2 1.99969803,-2 1.10456949,0 1.99999997,0.895431 1.99999997,2 z"
       transform="rotate(-45)"
       id="path40" />
    <circle
       cx="16"
       cy="17"
       r="1"
       id="circle42" />
  </g>
</svg>
