<?xml version="1.0" encoding="UTF-8" standalone="no"?>
<svg
   height="64"
   width="64"
   version="1.1"
   id="svg1886"
   sodipodi:docname="lftp-icon.svg"
   inkscape:version="1.3 (0e150ed6c4, 2023-07-21)"
   xmlns:inkscape="http://www.inkscape.org/namespaces/inkscape"
   xmlns:sodipodi="http://sodipodi.sourceforge.net/DTD/sodipodi-0.dtd"
   xmlns:xlink="http://www.w3.org/1999/xlink"
   xmlns="http://www.w3.org/2000/svg"
   xmlns:svg="http://www.w3.org/2000/svg">
  <defs
     id="defs1890">
    <linearGradient
       id="m"
       x1="68.210472"
       x2="148.52051"
       y1="177.75131"
       y2="258.06134"
       gradientUnits="userSpaceOnUse"
       gradientTransform="matrix(0.37626177,0,0,0.37626188,-16.518336,-57.726176)">
      <stop
         stop-color="#59f"
         offset="0"
         id="stop3371" />
      <stop
         stop-color="#06f"
         offset="1"
         id="stop3373" />
    </linearGradient>
    <linearGradient
       id="l"
       x1="220.30621"
       x2="54.439178"
       y1="207.9187"
       y2="42.051666"
       gradientTransform="matrix(0.16799417,0,0,0.1635966,5.9313038,-1.9414957)"
       gradientUnits="userSpaceOnUse"
       xlink:href="#a-3" />
    <linearGradient
       id="a-3">
      <stop
         stop-color="#2a7fff"
         offset="0"
         id="stop3327" />
      <stop
         stop-color="#0cf"
         offset="1"
         id="stop3329" />
    </linearGradient>
    <linearGradient
       id="linearGradient2356">
      <stop
         offset="0"
         id="stop2" />
      <stop
         offset="1"
         stop-opacity="0"
         id="stop4" />
    </linearGradient>
    <linearGradient
       inkscape:collect="always"
       xlink:href="#linearGradient22063"
       id="linearGradient22065"
       x1="-14"
       y1="6"
       x2="-14"
       y2="-9.999999"
       gradientUnits="userSpaceOnUse"
       gradientTransform="matrix(3.6250002,0,0,3.6250002,82.750002,39.249999)" />
    <linearGradient
       inkscape:collect="always"
       id="linearGradient22063">
      <stop
         style="stop-color:#292f3a;stop-opacity:1;"
         offset="0"
         id="stop22059" />
      <stop
         style="stop-color:#535e75;stop-opacity:1;"
         offset="1"
         id="stop22061" />
    </linearGradient>
    <linearGradient
       id="a-36"
       y1="543.79999"
       y2="503.79999"
       x2="0"
       gradientUnits="userSpaceOnUse">
      <stop
         stop-color="#faae2a"
         id="stop323" />
      <stop
         offset="1"
         stop-color="#ffc35a"
         id="stop325" />
    </linearGradient>
    <linearGradient
       id="b-7"
       y1="34"
       y2="13"
       x2="0"
       gradientUnits="userSpaceOnUse">
      <stop
         stop-color="#2a2c2f"
         id="stop328-5" />
      <stop
         offset="1"
         stop-color="#424649"
         id="stop330-3" />
    </linearGradient>
    <linearGradient
       id="c-56"
       y1="13"
       x1="13"
       y2="31"
       x2="31"
       gradientUnits="userSpaceOnUse">
      <stop
         stop-color="#383e51"
         id="stop333" />
      <stop
         offset="1"
         stop-color="#655c6f"
         stop-opacity="0"
         id="stop335" />
    </linearGradient>
  </defs>
  <sodipodi:namedview
     id="namedview1888"
     pagecolor="#ffffff"
     bordercolor="#666666"
     borderopacity="1.0"
     inkscape:showpageshadow="2"
     inkscape:pageopacity="0.0"
     inkscape:pagecheckerboard="0"
     inkscape:deskcolor="#d1d1d1"
     showgrid="false"
     inkscape:zoom="4.9166667"
     inkscape:cx="24.101695"
     inkscape:cy="24.101695"
     inkscape:window-width="1920"
     inkscape:window-height="994"
     inkscape:window-x="0"
     inkscape:window-y="0"
     inkscape:window-maximized="1"
     inkscape:current-layer="svg1886" />
  <linearGradient
     id="a">
    <stop
       offset="0"
       id="stop1845" />
    <stop
       offset="1"
       stop-opacity="0"
       id="stop1847" />
  </linearGradient>
  <linearGradient
     id="b"
     gradientUnits="userSpaceOnUse"
     x1="16"
     x2="34.942001"
     xlink:href="#a"
     y1="11"
     y2="29.941999" />
  <linearGradient
     id="c"
     gradientTransform="rotate(45)"
     gradientUnits="userSpaceOnUse"
     x1="31.021"
     x2="43.104"
     xlink:href="#a"
     y1="-9.8959999"
     y2="-9.8959999" />
  <linearGradient
     id="d"
     gradientUnits="userSpaceOnUse"
     x1="23.716"
     x2="26.348"
     xlink:href="#a"
     y1="13.219"
     y2="15.851" />
  <linearGradient
     id="e"
     gradientTransform="matrix(1.0454421,0,0,1.0298842,46.076843,3.856842)"
     gradientUnits="userSpaceOnUse"
     x1="-45.221867"
     x2="0.69172603"
     y1="-4.91011"
     y2="41.697075">
    <stop
       offset="0"
       stop-color="#2bc0ff"
       id="stop1853" />
    <stop
       offset="1"
       stop-color="#1d99f3"
       id="stop1855" />
  </linearGradient>
  <path
     d="m 2.999998,10.25 c 0,-4.004175 3.245938,-7.25 7.25,-7.25 h 43.500004 c 4.00417,0 7.25,3.245825 7.25,7.25 v 43.5 c 0,4.004173 -3.24583,7.25 -7.25,7.25 H 10.249998 c -4.004062,0 -7.25,-3.245827 -7.25,-7.25 z"
     id="path736"
     style="fill:#606c86;fill-opacity:1;stroke-width:3.625" />
  <path
     d="M 2.999998,9.7968746 C 2.999998,6.043188 6.245936,3 10.249998,3 h 43.500004 c 4.00417,0 7.25,3.043188 7.25,6.7968746 V 50.578124 c 0,3.753693 -3.24583,6.796876 -7.25,6.796876 H 10.249998 c -4.004062,0 -7.25,-3.043183 -7.25,-6.796876 z"
     id="path738"
     style="fill:url(#linearGradient22065);fill-opacity:1;stroke-width:3.625" />
  <rect
     style="fill:#3f92f7;stroke-width:0.701202"
     width="34.905663"
     height="4.2259159"
     x="13.95"
     y="17.921671"
     rx="1.939356"
     ry="2.112958"
     id="rect3" />
  <path
     style="fill:#3f92f7;stroke-width:0.701202"
     d="m 42.009269,14.400395 a 1.4960587,1.4497659 0 0 0 -1.530984,1.449638 v 8.369284 a 1.4960587,1.4497659 0 0 0 2.243869,1.255681 l 3.739784,-2.0923 3.739776,-2.092343 a 1.4960587,1.4497659 0 0 0 0,-2.511355 l -3.739776,-2.092296 -3.739784,-2.092356 a 1.4960587,1.4497659 0 0 0 -0.712885,-0.193953 z"
     id="path4" />
  <rect
     style="fill:#c83771;stroke-width:0.703417"
     width="34.905663"
     height="4.2524872"
     x="-50.949966"
     y="38.603745"
     rx="1.939356"
     ry="2.1262436"
     transform="scale(-1,1)"
     id="rect4" />
  <path
     style="fill:#c83771;stroke-width:0.703417"
     d="m 22.890728,35.060435 a 1.4960586,1.4588846 0 0 1 1.530966,1.458718 v 8.421953 a 1.4960586,1.4588846 0 0 1 -2.24385,1.263572 L 18.43805,44.099195 14.698296,41.993706 a 1.4960586,1.4588846 0 0 1 0,-2.52715 l 3.739754,-2.105487 3.739794,-2.10548 a 1.4960586,1.4588846 0 0 1 0.712884,-0.195154 z"
     id="path5" />
</svg>
