<?xml version="1.0" encoding="UTF-8" standalone="no"?>
<svg
   version="1.1"
   viewBox="0 0 64 64"
   id="svg32"
   sodipodi:docname="luabackend.svg"
   width="64"
   height="64"
   inkscape:version="1.2.1 (9c6d41e410, 2022-07-14)"
   xmlns:inkscape="http://www.inkscape.org/namespaces/inkscape"
   xmlns:sodipodi="http://sodipodi.sourceforge.net/DTD/sodipodi-0.dtd"
   xmlns:xlink="http://www.w3.org/1999/xlink"
   xmlns="http://www.w3.org/2000/svg"
   xmlns:svg="http://www.w3.org/2000/svg">
  <sodipodi:namedview
     id="namedview34"
     pagecolor="#ffffff"
     bordercolor="#666666"
     borderopacity="1.0"
     inkscape:showpageshadow="2"
     inkscape:pageopacity="0.0"
     inkscape:pagecheckerboard="0"
     inkscape:deskcolor="#d1d1d1"
     showgrid="false"
     inkscape:zoom="7.375"
     inkscape:cx="25.016949"
     inkscape:cy="16.20339"
     inkscape:window-width="1920"
     inkscape:window-height="1002"
     inkscape:window-x="0"
     inkscape:window-y="0"
     inkscape:window-maximized="1"
     inkscape:current-layer="svg32" />
  <defs
     id="defs12">
    <linearGradient
       id="b"
       x1="-41.259998"
       x2="-2.994"
       y1="-0.88300002"
       y2="37.956001"
       gradientTransform="matrix(0.73180945,0,0,0.72091894,416.0252,517.69779)"
       gradientUnits="userSpaceOnUse">
      <stop
         stop-color="#21c9fb"
         offset="0"
         id="stop2" />
      <stop
         stop-color="#1a86f2"
         offset="1"
         id="stop4" />
    </linearGradient>
    <linearGradient
       id="a"
       x1="4"
       x2="44"
       y1="4"
       y2="44"
       gradientTransform="matrix(0.69444447,0,0,0.69444447,384.01587,515.24246)"
       gradientUnits="userSpaceOnUse">
      <stop
         offset="0"
         id="stop7" />
      <stop
         stop-opacity="0"
         offset="1"
         id="stop9" />
    </linearGradient>
    <linearGradient
       inkscape:collect="always"
       xlink:href="#linearGradient22063"
       id="linearGradient22065"
       x1="-22"
       y1="5.1111121"
       x2="-6.4444442"
       y2="-9.1111107"
       gradientUnits="userSpaceOnUse"
       gradientTransform="matrix(3.6250002,0,0,3.6250002,82.750001,39.249999)" />
    <linearGradient
       inkscape:collect="always"
       id="linearGradient22063">
      <stop
         style="stop-color:#88c0d0;stop-opacity:1;"
         offset="0"
         id="stop22059" />
      <stop
         style="stop-color:#5e81ac;stop-opacity:1;"
         offset="1"
         id="stop22061" />
    </linearGradient>
    <linearGradient
       gradientTransform="matrix(0.33944754,0,0,0.33992701,9.6992503,10.420578)"
       xlink:href="#linearGradient3360"
       id="linearGradient3366"
       x1="-1.414"
       y1="88.047997"
       x2="154.149"
       y2="89.816002"
       gradientUnits="userSpaceOnUse" />
    <linearGradient
       id="linearGradient3360">
      <stop
         style="stop-color:#ffcc00;stop-opacity:1;"
         offset="0"
         id="stop158" />
      <stop
         offset=".245"
         style="stop-color:#ffff00;stop-opacity:1"
         id="stop160" />
      <stop
         offset=".586"
         style="stop-color:#ff0000;stop-opacity:1"
         id="stop162" />
      <stop
         style="stop-color:#ffcc00;stop-opacity:0;"
         offset="1"
         id="stop164" />
    </linearGradient>
    <linearGradient
       gradientTransform="matrix(0.33944754,0,0,0.33992701,9.6992503,10.420578)"
       xlink:href="#linearGradient3347"
       id="linearGradient3359"
       x1="-23.688"
       y1="-24.028"
       x2="146.72501"
       y2="140.728"
       gradientUnits="userSpaceOnUse" />
    <linearGradient
       id="linearGradient3347">
      <stop
         style="stop-color:#5e81ac;stop-opacity:1;"
         offset="0"
         id="stop146" />
      <stop
         offset="0.252"
         style="stop-color:#5e81ac;stop-opacity:1;"
         id="stop148" />
      <stop
         style="stop-color:#456285;stop-opacity:1;"
         offset="0.45899999"
         id="stop150" />
      <stop
         offset="0.89899999"
         style="stop-color:#233143;stop-opacity:1;"
         id="stop152" />
      <stop
         style="stop-color:#5e81ac;stop-opacity:0.07962073;"
         offset="1"
         id="stop154" />
    </linearGradient>
    <linearGradient
       id="e"
       y1="45"
       y2="24"
       x2="0"
       gradientUnits="userSpaceOnUse"
       gradientTransform="matrix(1.0774876,0,0,1.0774873,7.17948,4.6902606)">
      <stop
         stop-color="#60c0f4"
         id="stop18" />
      <stop
         offset="1"
         stop-color="#b9e9ff"
         id="stop20" />
    </linearGradient>
    <linearGradient
       id="b-3"
       y1="30"
       x1="24"
       y2="44"
       x2="38"
       gradientUnits="userSpaceOnUse">
      <stop
         id="stop7-6" />
      <stop
         offset="1"
         stop-opacity="0"
         id="stop9-7" />
    </linearGradient>
    <linearGradient
       id="a-5"
       y1="30"
       x1="34"
       y2="28"
       x2="24"
       gradientUnits="userSpaceOnUse"
       gradientTransform="matrix(1.0774876,0,0,1.0774873,7.17948,4.6902606)">
      <stop
         stop-color="#f39c12"
         id="stop2-3" />
      <stop
         offset="1"
         stop-color="#ffc35a"
         id="stop4-5" />
    </linearGradient>
    <linearGradient
       id="f"
       y1="23"
       x1="32"
       y2="22"
       x2="25"
       gradientUnits="userSpaceOnUse"
       gradientTransform="matrix(1.0774876,0,0,1.0774873,6.1019929,4.6902606)">
      <stop
         stop-color="#cea476"
         id="stop23" />
      <stop
         offset="1"
         stop-color="#dab58b"
         id="stop25" />
    </linearGradient>
    <linearGradient
       xlink:href="#b-3"
       id="g"
       y1="24"
       x1="25"
       y2="38"
       x2="39"
       gradientUnits="userSpaceOnUse"
       gradientTransform="matrix(1.0774876,0,0,1.0774873,7.17948,4.6902606)" />
    <linearGradient
       id="c"
       y1="37"
       y2="4"
       x2="0"
       gradientUnits="userSpaceOnUse"
       gradientTransform="matrix(1.0774876,0,0,1.0774873,5.0245048,4.6902606)">
      <stop
         stop-color="#da4453"
         id="stop12" />
      <stop
         offset="1"
         stop-color="#ff7336"
         id="stop14" />
    </linearGradient>
    <linearGradient
       xlink:href="#b-3"
       id="d"
       y1="22.313"
       x1="20.438"
       y2="25.406"
       x2="23.531"
       gradientUnits="userSpaceOnUse"
       gradientTransform="matrix(1.0774876,0,0,1.0774873,5.0245048,4.6902606)" />
    <linearGradient
       id="c-3"
       x2="0"
       y1="532.78998"
       y2="514.79999"
       gradientTransform="matrix(1.7778,0,0,1.7778,-763.38195,-909.21706)"
       gradientUnits="userSpaceOnUse">
      <stop
         stop-color="#7cbaf8"
         offset="0"
         id="stop187" />
      <stop
         stop-color="#f4fcff"
         offset="1"
         id="stop189" />
    </linearGradient>
    <linearGradient
       id="b-6"
       x1="25.792999"
       x2="41.605999"
       y1="26.896"
       y2="43.624001"
       gradientTransform="matrix(1.2575155,0,0,1.2575155,-2.3498115,-4.7646373)"
       gradientUnits="userSpaceOnUse">
      <stop
         stop-color="#292c2f"
         offset="0"
         id="stop192" />
      <stop
         stop-color="#292c2f"
         stop-opacity="0"
         offset="1"
         id="stop194" />
    </linearGradient>
    <linearGradient
       id="c-7"
       x2="0"
       y1="532.78998"
       y2="514.79999"
       gradientTransform="matrix(2.2356108,0,0,2.2356108,-880.44891,-1138.641)"
       gradientUnits="userSpaceOnUse">
      <stop
         stop-color="#7cbaf8"
         offset="0"
         id="stop187-5" />
      <stop
         stop-color="#f4fcff"
         offset="1"
         id="stop189-3" />
    </linearGradient>
    <linearGradient
       id="b-36"
       gradientUnits="userSpaceOnUse"
       x1="19"
       x2="37"
       y1="1021.362"
       y2="1039.3621"
       gradientTransform="matrix(1.125,0,0,1.125,4.617992,-1125.2176)">
      <stop
         offset="0"
         stop-color="#292c2f"
         id="stop7-7" />
      <stop
         offset="1"
         stop-opacity="0"
         id="stop9-5" />
    </linearGradient>
    <linearGradient
       inkscape:collect="always"
       xlink:href="#b-6-3"
       id="linearGradient977"
       x1="-31"
       y1="9"
       x2="-1"
       y2="39"
       gradientUnits="userSpaceOnUse"
       gradientTransform="matrix(1.125,0,0,1.125,49.617999,4.689996)" />
    <linearGradient
       x2="0"
       gradientUnits="userSpaceOnUse"
       y2="4"
       y1="44"
       id="b-6-3">
      <stop
         id="stop856"
         stop-color="#0d4687" />
      <stop
         id="stop858"
         stop-color="#0b60c2"
         offset=".051" />
      <stop
         id="stop860"
         stop-color="#1b88f4"
         offset=".275" />
      <stop
         id="stop862"
         stop-color="#1b90f4"
         offset=".725" />
      <stop
         id="stop864"
         stop-color="#0d6ad6"
         offset=".962" />
      <stop
         id="stop866"
         stop-color="#115fbc"
         offset="1" />
    </linearGradient>
  </defs>
  <path
     d="m 2.9999985,10.25 c 0,-4.004175 3.245938,-7.25 7.2500005,-7.25 h 43.500003 c 4.004173,0 7.25,3.245825 7.25,7.25 v 43.5 c 0,4.004173 -3.245827,7.25 -7.25,7.25 H 10.249999 C 6.2459365,61 2.9999985,57.754173 2.9999985,53.75 Z"
     id="path736"
     style="fill:#606c86;fill-opacity:1;stroke-width:3.625" />
  <path
     d="M 2.9999985,9.796875 C 2.9999985,6.043188 6.2459365,3 10.249999,3 h 43.500003 c 4.004173,0 7.25,3.043188 7.25,6.796875 v 40.781249 c 0,3.753693 -3.245827,6.796876 -7.25,6.796876 H 10.249999 c -4.0040625,0 -7.2500005,-3.043183 -7.2500005,-6.796876 z"
     id="path738"
     style="fill:url(#linearGradient22065);fill-opacity:1;stroke-width:3.625" />
  <path
     inkscape:connector-curvature="0"
     style="fill:#eaeaea;fill-opacity:0.298039;stroke-width:1.125"
     d="m 31.618,10.315 c 11.80509,0 21.375,9.56991 21.375,21.375 0,11.805085 -9.56991,21.375 -21.375,21.375 -11.80509,0 -21.375,-9.569915 -21.375,-21.375 0,-11.80509 9.56991,-21.375 21.375,-21.375 z"
     id="circle12-2-6"
     sodipodi:nodetypes="sssss" />
  <path
     style="fill:#000000;fill-opacity:0.298039;stroke-width:1.125"
     d="m 31.618,9.19 a 22.5,22.5 0 0 0 -22.5,22.5 22.5,22.5 0 0 0 22.5,22.5 22.5,22.5 0 0 0 22.5,-22.5 22.5,22.5 0 0 0 -22.5,-22.5 z m 0,1.125 A 21.375,21.375 0 0 1 52.993,31.69 21.375,21.375 0 0 1 31.618,53.065 21.375,21.375 0 0 1 10.243,31.69 21.375,21.375 0 0 1 31.618,10.315 Z"
     id="circle12-2" />
  <path
     inkscape:connector-curvature="0"
     style="opacity:0.2;fill:url(#b-36);stroke-width:1.125"
     id="path16"
     d="m 45.118,21.565 c -1.125,15.75 -24.75,22.5 -24.75,22.5 L 30.493,54.19 C 41.177728,52.936643 53.292969,41.291301 54.118,30.565 Z"
     sodipodi:nodetypes="ccccc" />
  <path
     style="fill:url(#linearGradient977);fill-opacity:1;stroke-width:1.16381"
     d="m 48.097493,10.317203 a 5.0625,5.0625 0 0 0 -0.505372,0.0088 5.0625,5.0625 0 0 0 -4.719723,5.277835 5.0625,5.0625 0 0 0 5.170162,4.833984 5.0625,5.0625 0 0 0 4.95044,-5.060301 L 52.97322,14.927037 A 5.0625,5.0625 0 0 0 48.097491,10.31708 Z m -15.921389,4.50659 a 16.875,16.875 0 0 0 -1.6875,0.02855 A 16.875,16.875 0 0 0 14.760575,32.443658 16.875,16.875 0 0 0 31.993734,48.5606 16.875,16.875 0 0 0 48.493,31.689996 L 48.42488,30.184868 A 16.875,16.875 0 0 0 32.176104,14.823793 Z m 5.796384,5.61841 a 5.0625,5.0625 0 0 1 4.875735,4.609857 l 0.01975,0.45044 a 5.0625,5.0625 0 0 1 -4.950442,5.060303 5.0625,5.0625 0 0 1 -5.170169,-4.833984 5.0625,5.0625 0 0 1 4.719729,-5.277833 5.0625,5.0625 0 0 1 0.505369,-0.0088 z"
     id="path969" />
</svg>
