<?xml version="1.0" encoding="UTF-8" standalone="no"?>
<svg
   height="64"
   width="64"
   version="1.1"
   id="svg10"
   sodipodi:docname="portal-stories-mel.svg"
   inkscape:version="1.4 (unknown)"
   xmlns:inkscape="http://www.inkscape.org/namespaces/inkscape"
   xmlns:sodipodi="http://sodipodi.sourceforge.net/DTD/sodipodi-0.dtd"
   xmlns:xlink="http://www.w3.org/1999/xlink"
   xmlns="http://www.w3.org/2000/svg"
   xmlns:svg="http://www.w3.org/2000/svg"
   xmlns:rdf="http://www.w3.org/1999/02/22-rdf-syntax-ns#"
   xmlns:cc="http://creativecommons.org/ns#"
   xmlns:dc="http://purl.org/dc/elements/1.1/">
  <metadata
     id="metadata16">
    <rdf:RDF>
      <cc:Work
         rdf:about="">
        <dc:format>image/svg+xml</dc:format>
        <dc:type
           rdf:resource="http://purl.org/dc/dcmitype/StillImage" />
      </cc:Work>
    </rdf:RDF>
  </metadata>
  <defs
     id="defs14">
    <linearGradient
       id="c"
       x1="31.458"
       x2="31.458"
       y1="51.726002"
       y2="62.897999"
       gradientTransform="matrix(0.36079,0,0,0.36079,-2.8832,-9.4399)"
       gradientUnits="userSpaceOnUse">
      <stop
         stop-color="#1776ff"
         offset="0"
         id="stop292" />
      <stop
         stop-color="#2fceff"
         offset="1"
         id="stop294" />
    </linearGradient>
    <linearGradient
       id="d"
       x1="31.458"
       x2="31.458"
       y1="36.897999"
       y2="59.897999"
       gradientTransform="matrix(0.36079,0,0,0.36079,-2.8832,-9.4399)"
       gradientUnits="userSpaceOnUse">
      <stop
         stop-color="#ff5514"
         offset="0"
         id="stop297" />
      <stop
         stop-color="#ff9014"
         offset="1"
         id="stop299" />
    </linearGradient>
    <linearGradient
       id="a"
       x1="31.458"
       x2="31.458"
       y1="46.897999"
       y2="56.897999"
       gradientTransform="matrix(0.36079,0,0,0.36079,-2.8832,-9.4399)"
       gradientUnits="userSpaceOnUse">
      <stop
         stop-color="#c0e5fb"
         offset="0"
         id="stop302" />
      <stop
         stop-color="#c3faff"
         offset="1"
         id="stop304" />
    </linearGradient>
    <linearGradient
       gradientTransform="matrix(1.0394952,0,0,1.0394363,-448.49881,-520.66414)"
       gradientUnits="userSpaceOnUse"
       x2="426.69501"
       y2="499.92099"
       y1="547.67499"
       id="a-6"
       x1="389.32001">
      <stop
         stop-color="#18222a"
         style="stop-color:#436077;stop-opacity:1;"
         id="stop216"
         offset="0" />
      <stop
         stop-color="#566069"
         offset="1"
         style="stop-color:#6d7983;stop-opacity:1"
         id="stop218" />
    </linearGradient>
    <linearGradient
       id="e"
       x1="8.4461002"
       x2="24.603001"
       y1="6.2688999"
       y2="24.570999"
       gradientUnits="userSpaceOnUse"
       gradientTransform="translate(0.254427,-38.49298)">
      <stop
         stop-opacity=".2088"
         offset="0"
         id="stop4" />
      <stop
         stop-opacity="0"
         offset="1"
         id="stop6" />
    </linearGradient>
    <linearGradient
       id="d-3"
       x1="7.8488002"
       x2="14.108"
       y1="3.5121"
       y2="14.183"
       gradientUnits="userSpaceOnUse"
       gradientTransform="translate(0.254427,-38.49298)">
      <stop
         stop-opacity=".2088"
         offset="0"
         id="stop14" />
      <stop
         stop-opacity="0"
         offset="1"
         id="stop16" />
    </linearGradient>
    <linearGradient
       id="c-6"
       x1="31.458"
       x2="31.458"
       y1="51.726002"
       y2="62.897999"
       gradientTransform="matrix(0.36079,0,0,0.36079,-2.8832,-9.4399)"
       gradientUnits="userSpaceOnUse">
      <stop
         stop-color="#1776ff"
         offset="0"
         id="stop292-7"
         style="stop-color:#55ddff;stop-opacity:1" />
      <stop
         stop-color="#2fceff"
         offset="1"
         id="stop294-5"
         style="stop-color:#00ccff;stop-opacity:1" />
    </linearGradient>
    <linearGradient
       id="d-35"
       x1="31.458"
       x2="31.458"
       y1="36.897999"
       y2="59.897999"
       gradientTransform="matrix(0.36079,0,0,0.36079,-2.8832,-9.4399)"
       gradientUnits="userSpaceOnUse">
      <stop
         stop-color="#ff5514"
         offset="0"
         id="stop297-6"
         style="stop-color:#ffccaa;stop-opacity:1" />
      <stop
         stop-color="#ff9014"
         offset="1"
         id="stop299-2"
         style="stop-color:#ff9955;stop-opacity:1" />
    </linearGradient>
    <linearGradient
       id="a-9"
       x1="31.458"
       x2="31.458"
       y1="46.897999"
       y2="56.897999"
       gradientTransform="matrix(0.36079,0,0,0.36079,-2.8832,-9.4399)"
       gradientUnits="userSpaceOnUse">
      <stop
         stop-color="#c0e5fb"
         offset="0"
         id="stop302-1"
         style="stop-color:#e3d7f4;stop-opacity:1" />
      <stop
         stop-color="#c3faff"
         offset="1"
         id="stop304-2"
         style="stop-color:#aa87de;stop-opacity:1" />
    </linearGradient>
    <linearGradient
       inkscape:collect="always"
       xlink:href="#linearGradient22063"
       id="linearGradient22065"
       x1="-14"
       y1="6"
       x2="-14"
       y2="-9.999999"
       gradientUnits="userSpaceOnUse"
       gradientTransform="matrix(3.6250002,0,0,3.6250002,82.750002,39.249998)" />
    <linearGradient
       inkscape:collect="always"
       id="linearGradient22063">
      <stop
         style="stop-color:#292f3a;stop-opacity:1;"
         offset="0"
         id="stop22059" />
      <stop
         style="stop-color:#535e75;stop-opacity:1;"
         offset="1"
         id="stop22061" />
    </linearGradient>
    <clipPath
       id="a-3">
      <circle
         cx="8.467"
         cy="288.53"
         r="6.8790002"
         fill="#d86eb0"
         stroke-opacity="0.039"
         stroke-width="0.491"
         style="paint-order:stroke markers fill"
         id="circle2-6" />
    </clipPath>
    <linearGradient
       inkscape:collect="always"
       xlink:href="#linearGradient1"
       id="linearGradient2"
       x1="28.998468"
       y1="50.928097"
       x2="28.545103"
       y2="11.066361"
       gradientUnits="userSpaceOnUse"
       gradientTransform="translate(3.000002,57.999999)" />
    <linearGradient
       id="linearGradient1"
       inkscape:collect="always">
      <stop
         style="stop-color:#3498cb;stop-opacity:1;"
         offset="0"
         id="stop1" />
      <stop
         style="stop-color:#f37b21;stop-opacity:1;"
         offset="1"
         id="stop2" />
    </linearGradient>
    <linearGradient
       inkscape:collect="always"
       xlink:href="#linearGradient4"
       id="linearGradient23"
       gradientUnits="userSpaceOnUse"
       gradientTransform="matrix(0.47857143,0,0,0.47857143,18.078575,10.670677)"
       x1="18.5"
       y1="30.479174"
       x2="18.5"
       y2="26.479174" />
    <linearGradient
       id="linearGradient4"
       inkscape:collect="always">
      <stop
         style="stop-color:#80e5ff;stop-opacity:1"
         offset="0"
         id="stop3" />
      <stop
         style="stop-color:#f37b21;stop-opacity:1;"
         offset="1"
         id="stop4-3" />
    </linearGradient>
    <linearGradient
       inkscape:collect="always"
       xlink:href="#linearGradient4"
       id="linearGradient24"
       gradientUnits="userSpaceOnUse"
       gradientTransform="matrix(0.47857143,0,0,0.47857143,18.078575,10.670677)"
       x1="27"
       y1="38.479176"
       x2="27"
       y2="34.479176" />
    <linearGradient
       inkscape:collect="always"
       xlink:href="#linearGradient4"
       id="linearGradient25"
       gradientUnits="userSpaceOnUse"
       gradientTransform="matrix(0.47857143,0,0,0.47857143,18.078575,10.670677)"
       x1="27"
       y1="46.479176"
       x2="27"
       y2="42.479176" />
    <linearGradient
       inkscape:collect="always"
       xlink:href="#linearGradient4"
       id="linearGradient26"
       gradientUnits="userSpaceOnUse"
       gradientTransform="matrix(0.47857143,0,0,0.47857143,18.078575,10.670677)"
       x1="22.5"
       y1="54.479176"
       x2="22.5"
       y2="50.479176" />
  </defs>
  <sodipodi:namedview
     pagecolor="#ffffff"
     bordercolor="#666666"
     borderopacity="1"
     objecttolerance="10"
     gridtolerance="10"
     guidetolerance="10"
     inkscape:pageopacity="0"
     inkscape:pageshadow="2"
     inkscape:window-width="1920"
     inkscape:window-height="998"
     id="namedview12"
     showgrid="false"
     inkscape:zoom="8"
     inkscape:cx="34.1875"
     inkscape:cy="38.9375"
     inkscape:window-x="0"
     inkscape:window-y="0"
     inkscape:window-maximized="1"
     inkscape:current-layer="svg10"
     inkscape:document-rotation="0"
     inkscape:showpageshadow="2"
     inkscape:pagecheckerboard="0"
     inkscape:deskcolor="#d1d1d1">
    <inkscape:grid
       type="xygrid"
       id="grid801"
       originx="0"
       originy="0"
       spacingy="1"
       spacingx="1"
       units="px"
       visible="false" />
  </sodipodi:namedview>
  <path
     d="M 2.999999,10.25 C 2.999999,6.245825 6.245933,3 10.249993,3 h 43.500009 c 4.00417,0 7.25,3.245825 7.25,7.25 v 43.499999 c 0,4.004173 -3.24583,7.25 -7.25,7.25 H 10.249993 c -4.00406,0 -7.249994,-3.245827 -7.249994,-7.25 z"
     id="path736"
     style="fill:#606c86;fill-opacity:1;stroke-width:3.625" />
  <path
     d="M 2.999999,9.7968747 C 2.999999,6.043188 6.245933,3 10.249993,3 h 43.500009 c 4.00417,0 7.25,3.043188 7.25,6.7968747 V 50.578123 c 0,3.753693 -3.24583,6.796876 -7.25,6.796876 H 10.249993 c -4.00406,0 -7.249995,-3.043183 -7.249995,-6.796876 z"
     id="path738"
     style="fill:url(#linearGradient22065);fill-opacity:1;stroke-width:3.625" />
  <g
     id="g1"
     transform="matrix(1.0499994,0,0,1.0499994,-3.6999854,-61.449959)">
    <path
       d="m 31.998471,108.92812 c -1.85772,-0.18442 -3.685949,-0.59385 -4.894942,-1.10287 a 11.057841,11.065526 0 0 1 -0.549208,-0.23606 29.48758,29.508074 0 0 1 -0.21747,-1.16557 l -0.372277,-2.07663 c -0.58238,-3.1463 -1.208994,-6.897512 -1.164759,-6.941771 0.02209,-0.02587 3.604853,2.375398 7.747862,5.186041 3.792839,2.57458 4.530029,3.07621 6.258737,4.23441 1.732396,1.16556 1.629187,1.08442 1.54441,1.13237 a 14.743791,14.754038 0 0 1 -1.783999,0.57909 22.115682,22.131052 0 0 1 -2.639134,0.41681 33.173529,33.196584 0 0 1 -3.92922,-0.0258 m 9.111662,-1.99181 a 77.404895,77.458691 0 0 1 -3.844447,-2.64834 70.033002,70.081674 0 0 0 -2.458526,-1.70041 7.3718951,7.3770185 0 0 1 -1.172132,-0.81147 c -0.250646,-0.21393 -0.36122,-0.38361 -0.250646,-0.38361 0.06631,0 3.391076,-0.61966 5.823802,-1.08441 2.819744,-0.538528 8.002188,-1.556558 11.503838,-2.253684 0.641359,-0.129098 1.179503,-0.221309 1.201619,-0.199182 0.03688,0.03691 -0.250643,0.601229 -0.729814,1.40532 a 19.53552,19.549097 0 0 1 -4.799105,5.470066 29.48758,29.508074 0 0 1 -2.506448,1.68564 22.115682,22.131052 0 0 1 -1.975666,0.98852 c -0.03687,0 -0.394392,-0.21024 -0.792475,-0.46475 z M 24.372241,106.5121 A 16.955356,16.96714 0 0 1 19.90119,103.22196 20.641306,20.655652 0 0 1 16.723901,99.13509 25.801632,25.819564 0 0 1 15.67341,97.180176 c 0,-0.05532 1.573896,-2.415975 2.904522,-4.356126 1.102099,-1.611877 2.204199,-3.260644 2.786579,-4.179083 0.07003,-0.103275 0.136382,-0.17705 0.151123,-0.162295 0.07371,0.07381 1.017323,4.647524 1.809799,8.774963 0.70033,3.644245 0.840399,4.370895 1.113155,5.735635 0.313311,1.58237 0.715073,3.54466 0.77405,3.77334 q 0.0332,0.13648 -0.02209,0.13648 c -0.02952,0 -0.398083,-0.17705 -0.818282,-0.39099 m 17.858416,-8.09627 c -0.0184,-0.05162 0.03687,-0.15861 0.15481,-0.291389 0.09952,-0.118042 0.685589,-0.966393 1.297453,-1.892216 0.987836,-1.490156 1.691854,-2.508176 3.206779,-4.658579 a 254.33035,254.50711 0 0 0 5.610009,-8.177426 7.3718951,7.3770185 0 0 1 0.434942,-0.638115 c 0.06264,-0.008 0.409138,0.999584 0.597126,1.72622 0.361219,1.401641 0.471801,2.452863 0.468114,4.359827 q -0.01472,4.116369 -1.231107,7.299558 l -0.147437,0.3836 -0.258019,0.05162 -1.039439,0.202867 -4.482109,0.85573 a 320.67743,320.9003 0 0 1 -4.441562,0.829924 q -0.143751,0.03691 -0.169555,-0.05162 M 14.910426,94.944943 C 14.272762,93.325684 14.003687,91.606838 14,89.14292 c 0,-1.991802 0.12532,-3.18319 0.527088,-4.983175 0.158499,-0.722951 0.619241,-2.172539 0.718761,-2.272125 0.03688,-0.03691 0.486546,-0.136479 1.006266,-0.225 0.939915,-0.16229 2.701801,-0.486881 4.681153,-0.863115 3.30998,-0.627042 4.769613,-0.874172 4.883881,-0.829911 0.03687,0.01473 0.07371,0.07006 0.07371,0.121722 0,0.10696 0.01472,0.07749 -0.932545,1.412704 l -1.150017,1.626624 -1.607069,2.279506 a 409.14017,409.42452 0 0 0 -6.1666,8.881925 A 22.115682,22.131052 0 0 1 15.1758,95.53141 3.6859473,3.688509 0 0 1 14.91041,94.941252 Z M 46.296257,89.655618 A 33.173529,33.196584 0 0 0 46.111958,88.567512 L 45.761794,86.586781 44.434855,78.722879 C 44.221072,77.413456 43.524428,73.459376 43.281153,72.18684 a 5.1603263,5.1639127 0 0 1 -0.132695,-0.962698 c 0.05895,-0.05899 1.091044,0.520075 2.016215,1.136056 a 19.53552,19.549097 0 0 1 5.643182,5.735632 c 0.589754,0.922128 1.356431,2.342202 1.62182,3.009824 l 0.09583,0.250821 -0.309617,0.486887 c -0.335422,0.531143 -0.803538,1.187695 -2.174712,3.072521 -0.490229,0.678694 -1.197933,1.681962 -1.57021,2.231543 -0.939918,1.37951 -1.9941,2.773769 -2.108365,2.773769 -0.0184,0 -0.04792,-0.118034 -0.06631,-0.265577 M 43.111609,80.884346 A 40.545421,40.5736 0 0 0 41.158057,79.519595 575.00778,575.40741 0 0 1 28.607403,70.858977 11.057841,11.065526 0 0 1 27.542165,69.973736 c 0,-0.0369 1.065238,-0.36885 1.599701,-0.494264 0.534463,-0.125405 1.717653,-0.331965 2.403239,-0.413112 C 31.891588,69.02209 32.70987,69 33.948344,69 c 1.647623,0 1.975671,0.01841 2.679689,0.110653 1.253217,0.173364 2.137845,0.346725 3.004043,0.597544 0.774051,0.221307 2.027275,0.697128 2.027275,0.767205 l 0.202722,1.180327 c 0.110582,0.627044 0.368596,2.183597 0.578699,3.452445 0.368596,2.279497 0.597122,3.614738 0.855136,5.045876 0.121637,0.682379 0.129011,0.896309 0.02953,0.896309 A 0.73718951,0.73770185 0 0 1 43.111612,80.884357 M 15.975657,80.320003 a 19.314367,19.32779 0 0 1 7.733119,-8.513074 c 0.836711,-0.501638 2.182081,-1.180328 2.340579,-1.180328 0.117951,0 0.40177,0.195495 4.0914,2.788514 2.185767,1.530731 2.823438,1.969665 3.55694,2.438106 0.63398,0.405739 1.25322,0.892617 1.25322,0.988523 0,0.02209 -0.06264,0.05531 -0.136377,0.07004 a 1017.3212,1018.0282 0 0 1 -11.455926,2.154133 l -7.346095,1.364752 c -0.07744,0.02215 -0.08112,0.008 -0.03687,-0.110653"
       style="fill:url(#linearGradient2);fill-opacity:1;stroke-width:0.0500901"
       id="path1" />
    <g
       id="g2"
       transform="translate(3.0000055,58.465917)">
      <path
         d="m 23.342856,24.3 c 0,-0.528818 0.428326,-0.957144 0.957144,-0.957144 h 5.26428 c 0.528826,0 0.957152,0.428326 0.957152,0.957144 0,0.528825 -0.428326,0.957137 -0.957152,0.957137 H 24.3 c -0.528818,0 -0.957144,-0.428312 -0.957144,-0.957137 z"
         id="path527-8"
         style="fill:url(#linearGradient23);stroke-width:0.478576" />
      <path
         d="m 23.342856,28.128575 c 0,-0.528825 0.428326,-0.957143 0.957144,-0.957143 h 13.4 c 0.528825,0 0.957137,0.428318 0.957137,0.957143 0,0.528812 -0.428312,0.957137 -0.957137,0.957137 H 24.3 c -0.528818,0 -0.957144,-0.428325 -0.957144,-0.957137 z"
         id="path528-97"
         style="fill:url(#linearGradient24);stroke-width:0.478576"
         sodipodi:nodetypes="sssssss" />
      <path
         d="M 23.342856,31.957137 C 23.342856,31.428325 23.771182,31 24.3,31 h 13.4 c 0.528825,0 0.957137,0.428325 0.957137,0.957137 0,0.528825 -0.428312,0.957143 -0.957137,0.957143 H 24.3 c -0.528818,0 -0.957144,-0.428318 -0.957144,-0.957143 z"
         id="path529-3"
         style="fill:url(#linearGradient25);stroke-width:0.478576"
         sodipodi:nodetypes="sssssss" />
      <path
         d="m 23.342856,35.7857 c 0,-0.528813 0.428326,-0.957125 0.957144,-0.957125 h 9.092856 c 0.528826,0 0.957144,0.428312 0.957144,0.957125 0,0.528848 -0.428318,0.957156 -0.957144,0.957156 H 24.3 c -0.528818,0 -0.957144,-0.428308 -0.957144,-0.957156 z"
         id="path530-6"
         style="fill:url(#linearGradient26);stroke-width:0.478576" />
    </g>
  </g>
</svg>
