<?xml version="1.0" encoding="UTF-8" standalone="no"?>
<svg
   width="64"
   height="64"
   version="1.1"
   id="svg239"
   sodipodi:docname="microsoft-edge-stable.svg"
   inkscape:version="1.2.1 (9c6d41e410, 2022-07-14)"
   xmlns:inkscape="http://www.inkscape.org/namespaces/inkscape"
   xmlns:sodipodi="http://sodipodi.sourceforge.net/DTD/sodipodi-0.dtd"
   xmlns:xlink="http://www.w3.org/1999/xlink"
   xmlns="http://www.w3.org/2000/svg"
   xmlns:svg="http://www.w3.org/2000/svg">
  <sodipodi:namedview
     id="namedview241"
     pagecolor="#ffffff"
     bordercolor="#666666"
     borderopacity="1.0"
     inkscape:showpageshadow="2"
     inkscape:pageopacity="0.0"
     inkscape:pagecheckerboard="0"
     inkscape:deskcolor="#d1d1d1"
     showgrid="false"
     inkscape:zoom="3.6875"
     inkscape:cx="32"
     inkscape:cy="32.135593"
     inkscape:window-width="1920"
     inkscape:window-height="1008"
     inkscape:window-x="0"
     inkscape:window-y="0"
     inkscape:window-maximized="1"
     inkscape:current-layer="svg239" />
  <defs
     id="defs221">
    <filter
       id="filter1057-9-3"
       x="-0.026999999"
       y="-0.026999999"
       width="1.054"
       height="1.054"
       color-interpolation-filters="sRGB">
      <feGaussianBlur
         stdDeviation="0.61875"
         id="feGaussianBlur187" />
    </filter>
    <linearGradient
       id="linearGradient4339-6"
       x1="59.5"
       x2="4.5"
       y1="4.5"
       y2="59.5"
       gradientTransform="translate(-101.11035,-24.951627)"
       gradientUnits="userSpaceOnUse">
      <stop
         stop-color="#0a4988"
         offset="0"
         id="stop190"
         style="stop-color:#1073d6;stop-opacity:1;" />
      <stop
         stop-color="#41c0f9"
         offset="1"
         id="stop192" />
    </linearGradient>
    <filter
       id="filter908-7"
       x="-0.10799862"
       y="-0.10800084"
       width="1.2159972"
       height="1.2160017"
       color-interpolation-filters="sRGB">
      <feGaussianBlur
         stdDeviation="1.8805192"
         id="feGaussianBlur195" />
    </filter>
    <linearGradient
       id="linearGradient948-5"
       x1="21.182"
       x2="49.712"
       y1="40.243"
       y2="40.243"
       gradientTransform="matrix(1.0202,0,0,1.0202,-102.03172,-25.615177)"
       gradientUnits="userSpaceOnUse">
      <stop
         stop-color="#0b4e90"
         offset="0"
         id="stop198" />
      <stop
         stop-color="#0d559d"
         offset="1"
         id="stop200" />
    </linearGradient>
    <linearGradient
       id="linearGradient940-3"
       x1="11.804"
       x2="30.743"
       y1="36.254"
       y2="36.254"
       gradientTransform="matrix(1.0202,0,0,1.0202,-102.03172,-25.615177)"
       gradientUnits="userSpaceOnUse">
      <stop
         stop-color="#0078d4"
         offset="0"
         id="stop203" />
      <stop
         stop-color="#108ddc"
         offset="1"
         id="stop205" />
    </linearGradient>
    <filter
       id="filter969-5"
       x="-0.079421168"
       y="-0.16870291"
       width="1.1588423"
       height="1.3374058"
       color-interpolation-filters="sRGB">
      <feGaussianBlur
         stdDeviation="0.86053247"
         id="feGaussianBlur208" />
    </filter>
    <filter
       id="filter980-6"
       x="-0.15716941"
       y="-0.08226451"
       width="1.3143388"
       height="1.164529"
       color-interpolation-filters="sRGB">
      <feGaussianBlur
         stdDeviation="1.1515148"
         id="feGaussianBlur211" />
    </filter>
    <linearGradient
       id="linearGradient932-2"
       x1="13.978"
       x2="51.089"
       y1="13.892"
       y2="33.48"
       gradientTransform="matrix(1.0202,0,0,1.0202,-102.03172,-25.615177)"
       gradientUnits="userSpaceOnUse">
      <stop
         stop-color="#40bfff"
         offset="0"
         id="stop214" />
      <stop
         stop-color="#43c2ef"
         offset=".46856"
         id="stop216" />
      <stop
         stop-color="#5fde56"
         offset="1"
         id="stop218" />
    </linearGradient>
    <linearGradient
       inkscape:collect="always"
       xlink:href="#linearGradient4339-6"
       id="linearGradient22065"
       x1="-22"
       y1="5.1111121"
       x2="-6.4444442"
       y2="-9.1111107"
       gradientUnits="userSpaceOnUse"
       gradientTransform="matrix(3.6250002,0,0,3.6250002,82.750001,39.249999)" />
    <linearGradient
       id="linearGradient4098"
       x1="25"
       x2="53"
       y1="47"
       y2="47"
       gradientUnits="userSpaceOnUse"
       gradientTransform="translate(3.3703934,1.2169996)">
      <stop
         stop-color="#0cf3eb"
         offset="0"
         id="stop240" />
      <stop
         stop-color="#3df5b1"
         offset="1"
         id="stop242" />
    </linearGradient>
  </defs>
  <path
     d="M 2.9999986,10.250001 C 2.9999986,6.245825 6.2459386,3 10.250001,3 h 43.5 c 4.00417,0 7.25,3.245825 7.25,7.250001 V 53.75 c 0,4.004173 -3.24583,7.25 -7.25,7.25 h -43.5 C 6.2459386,61 2.9999986,57.754173 2.9999986,53.75 Z"
     id="path736"
     style="fill:#606c86;fill-opacity:1;stroke-width:3.625" />
  <path
     d="M 2.9999986,9.796876 C 2.9999986,6.043188 6.2459386,3 10.250001,3 h 43.5 c 4.00417,0 7.25,3.043188 7.25,6.796876 v 40.781248 c 0,3.753693 -3.24583,6.796876 -7.25,6.796876 h -43.5 c -4.0040624,0 -7.2500024,-3.043183 -7.2500024,-6.796876 z"
     id="path738"
     style="fill:url(#linearGradient22065);fill-opacity:1;stroke-width:3.625" />
  <path
     class="cls-1"
     d="m 48.907561,41.254314 c -2.01206,1.979903 -5.13468,2.450254 -7.6181,2.462316 -7.76383,0 -14.52665,-5.969857 -14.52665,-12.821124 a 5.1638261,5.1638261 0 0 1 2.69548,-4.479402 c -7.02112,0.294472 -8.82615,7.611066 -8.82615,11.897504 0,12.118608 11.17087,13.34675 13.57791,13.34675 1.29649,0 3.25428,-0.376885 4.42915,-0.74774 l 0.21407,-0.07136 a 21.05229,21.05229 0 0 0 10.92565,-8.661319 c 0.36482,-0.57387 -0.27739,-1.256283 -0.87237,-0.924624 z"
     fill="#0c5399"
     id="path6-3"
     style="stroke-width:1.00502" />
  <path
     class="cls-3"
     d="m 27.715571,49.600053 a 12.992983,12.992983 0 0 1 -3.73066,-3.500506 c -4.84825,-6.642221 -1.90352,-16.050273 5.47438,-19.683444 0.51257,-0.241206 1.38694,-0.677387 2.54975,-0.656282 a 5.3075448,5.3075448 0 0 1 4.21408,2.132666 5.2291527,5.2291527 0 0 1 1.04422,3.060306 c 0,-0.03417 4.01207,-13.057305 -13.12564,-13.057305 -7.20102,0 -13.12364,6.834181 -13.12364,12.829164 a 21.345757,21.345757 0 0 0 1.98593,9.185943 c 4.52162,9.645237 15.54877,14.376902 25.65431,11.008054 -3.4593,1.090453 -7.85328,0.611055 -10.92966,-1.31156 z"
     fill="#0680d7"
     id="path8-6"
     style="stroke-width:1.00502;fill:#38a9f9;fill-opacity:1" />
  <path
     class="cls-5"
     d="m 35.989951,33.488475 c -0.13266,0.171859 -0.54171,0.410052 -0.54171,0.928644 0,0.428141 0.2794,0.839197 0.77388,1.185931 2.3598,1.640204 6.80704,1.423118 6.8191,1.423118 a 9.7728774,9.7728774 0 0 0 4.96483,-1.368846 c 3.08543,-1.802013 4.98493,-4.17287 4.99297,-7.744734 0.0432,-3.676387 -1.31256,-6.120611 -1.8603,-7.203025 C 47.662331,13.910558 40.158801,10 31.998991,10 c -11.48343,0 -20.83721,9.221119 -20.99902,20.700531 0.0784,-5.992973 6.03719,-11.554789 13.12464,-11.554789 0.57387,0 3.84925,0.05628 6.89046,1.652263 2.68041,1.407037 4.08443,3.827141 5.06132,5.511566 1.41809,2.676385 1.47939,5.135685 -0.0854,7.178905 z"
     fill="#4fe3b2"
     id="path10-7"
     style="stroke-width:1.00502" />
</svg>
