<?xml version="1.0" encoding="UTF-8" standalone="no"?>
<svg
   width="64"
   height="64"
   version="1.1"
   id="svg15515"
   sodipodi:docname="amarok.svg"
   inkscape:version="1.3.2 (091e20ef0f, 2023-11-25)"
   xmlns:inkscape="http://www.inkscape.org/namespaces/inkscape"
   xmlns:sodipodi="http://sodipodi.sourceforge.net/DTD/sodipodi-0.dtd"
   xmlns:xlink="http://www.w3.org/1999/xlink"
   xmlns="http://www.w3.org/2000/svg"
   xmlns:svg="http://www.w3.org/2000/svg">
  <sodipodi:namedview
     id="namedview15517"
     pagecolor="#ffffff"
     bordercolor="#666666"
     borderopacity="1.0"
     inkscape:showpageshadow="2"
     inkscape:pageopacity="0.0"
     inkscape:pagecheckerboard="0"
     inkscape:deskcolor="#d1d1d1"
     showgrid="false"
     inkscape:zoom="4.9166667"
     inkscape:cx="45.661017"
     inkscape:cy="73.016949"
     inkscape:window-width="1920"
     inkscape:window-height="994"
     inkscape:window-x="0"
     inkscape:window-y="0"
     inkscape:window-maximized="1"
     inkscape:current-layer="svg15515" />
  <defs
     id="defs15483">
    <linearGradient
       id="linearGradient17391"
       y1="37.110001"
       x1="26.424999"
       y2="24"
       x2="44"
       gradientUnits="userSpaceOnUse">
      <stop
         stop-color="#2980b9"
         id="stop17387" />
      <stop
         offset="1"
         stop-color="#1d99f3"
         id="stop17389"
         style="stop-color:#5e81ac;stop-opacity:1;" />
    </linearGradient>
    <linearGradient
       id="linearGradient17385"
       y1="27.6"
       x1="31.537001"
       y2="31"
       x2="35.973"
       gradientUnits="userSpaceOnUse">
      <stop
         id="stop17381" />
      <stop
         offset="1"
         stop-opacity="0"
         id="stop17383"
         style="stop-color:#5e81ac;stop-opacity:0;" />
    </linearGradient>
    <linearGradient
       id="a"
       y1="37.110001"
       x1="26.424999"
       y2="24"
       x2="44"
       gradientUnits="userSpaceOnUse">
      <stop
         stop-color="#2980b9"
         id="stop15456" />
      <stop
         offset="1"
         stop-color="#1d99f3"
         id="stop15458" />
    </linearGradient>
    <linearGradient
       xlink:href="#a"
       id="b"
       y1="39.240002"
       x1="25.868999"
       y2="10.624"
       x2="24.539"
       gradientUnits="userSpaceOnUse" />
    <linearGradient
       id="c"
       y1="9.3859997"
       x1="8.8400002"
       y2="39.34"
       x2="37.922001"
       gradientUnits="userSpaceOnUse">
      <stop
         stop-color="#faf8f8"
         id="stop15462" />
      <stop
         offset="1"
         stop-color="#bfd2d2"
         id="stop15464" />
    </linearGradient>
    <linearGradient
       id="d"
       y1="16.621"
       x1="27.040001"
       y2="17.990999"
       x2="24.839001"
       gradientUnits="userSpaceOnUse">
      <stop
         stop-color="#fcfcfc"
         id="stop15467" />
      <stop
         offset="1"
         stop-color="#c7c7c7"
         id="stop15469" />
    </linearGradient>
    <linearGradient
       id="e"
       y1="27.6"
       x1="31.537001"
       y2="31"
       x2="35.973"
       gradientUnits="userSpaceOnUse">
      <stop
         id="stop15472" />
      <stop
         offset="1"
         stop-opacity="0"
         id="stop15474" />
    </linearGradient>
    <linearGradient
       xlink:href="#e"
       id="f"
       y1="19"
       x1="26"
       y2="30"
       x2="37"
       gradientUnits="userSpaceOnUse"
       gradientTransform="translate(-10,5)" />
    <linearGradient
       id="g"
       y1="23.643999"
       x1="3.783"
       y2="22.495001"
       x2="19.573999"
       gradientUnits="userSpaceOnUse">
      <stop
         stop-color="#2980b9"
         id="stop15478" />
      <stop
         offset="1"
         stop-color="#34495e"
         id="stop15480" />
    </linearGradient>
    <linearGradient
       inkscape:collect="always"
       xlink:href="#linearGradient22063-0"
       id="linearGradient22065-6"
       x1="-22"
       y1="5.1111121"
       x2="-6.4444442"
       y2="-9.1111107"
       gradientUnits="userSpaceOnUse"
       gradientTransform="matrix(3.6250002,0,0,3.6250002,82.750001,39.249999)" />
    <linearGradient
       inkscape:collect="always"
       id="linearGradient22063-0">
      <stop
         style="stop-color:#88c0d0;stop-opacity:1;"
         offset="0"
         id="stop22059-6" />
      <stop
         style="stop-color:#e1e7ef;stop-opacity:1;"
         offset="1"
         id="stop22061-2" />
    </linearGradient>
    <linearGradient
       xlink:href="#linearGradient17391"
       id="b-6"
       y1="39.240002"
       x1="25.868999"
       y2="10.624"
       x2="24.539"
       gradientUnits="userSpaceOnUse" />
    <linearGradient
       xlink:href="#linearGradient17385"
       id="f-6"
       y1="19"
       x1="26"
       y2="30"
       x2="37"
       gradientUnits="userSpaceOnUse"
       gradientTransform="translate(-10,5)" />
    <linearGradient
       id="d-9"
       y1="16.621"
       x1="27.040001"
       y2="17.990999"
       x2="24.839001"
       gradientUnits="userSpaceOnUse">
      <stop
         stop-color="#fcfcfc"
         id="stop15467-4" />
      <stop
         offset="1"
         stop-color="#c7c7c7"
         id="stop15469-9" />
    </linearGradient>
    <linearGradient
       id="g-0"
       y1="23.643999"
       x1="3.783"
       y2="22.495001"
       x2="19.573999"
       gradientUnits="userSpaceOnUse">
      <stop
         stop-color="#2980b9"
         id="stop15478-9" />
      <stop
         offset="1"
         stop-color="#34495e"
         id="stop15480-1" />
    </linearGradient>
    <linearGradient
       id="paint0_linear_614_91"
       x1="64"
       y1="100"
       x2="64.002296"
       y2="28"
       gradientUnits="userSpaceOnUse"
       gradientTransform="matrix(0.11818182,0,0,0.11818182,0.4363636,0.4363636)">
      <stop
         stop-color="#5558FF"
         id="stop9" />
      <stop
         offset="1"
         stop-color="#00FFFF"
         id="stop10" />
    </linearGradient>
    <linearGradient
       id="paint4_linear_614_91"
       x1="64"
       y1="100"
       x2="64"
       y2="28"
       gradientUnits="userSpaceOnUse"
       gradientTransform="matrix(0.11818182,0,0,0.11818182,0.4363636,0.4363636)">
      <stop
         stop-color="#5558FF"
         id="stop17" />
      <stop
         offset="1"
         stop-color="#00FFFF"
         id="stop18" />
    </linearGradient>
  </defs>
  <path
     d="M 2.9999985,10.250001 C 2.9999985,6.245825 6.2459365,3 10.249999,3 h 43.500003 c 4.004173,0 7.25,3.245825 7.25,7.250001 v 43.5 c 0,4.004173 -3.245827,7.25 -7.25,7.25 H 10.249999 c -4.0040625,0 -7.2500005,-3.245827 -7.2500005,-7.25 z"
     id="path736-7"
     style="fill:#606c86;fill-opacity:1;stroke-width:3.625" />
  <path
     d="M 2.9999985,9.7968755 C 2.9999985,6.043188 6.2459365,3 10.249999,3 h 43.500003 c 4.004173,0 7.25,3.043188 7.25,6.7968755 V 50.578125 c 0,3.753693 -3.245827,6.796876 -7.25,6.796876 H 10.249999 c -4.0040625,0 -7.2500005,-3.043183 -7.2500005,-6.796876 z"
     id="path738-9"
     style="fill:url(#linearGradient22065-6);fill-opacity:1;stroke-width:3.625" />
  <path
     style="opacity:0.2;stroke-width:0.842106"
     d="m 10.779608,8.418378 c -1.3062723,0 -2.3585517,1.052274 -2.3585517,2.358555 v 7.072365 c 0,1.306269 1.0522794,2.358524 2.3585517,2.358524 h 7.072365 c 1.306279,0 2.358557,-1.052255 2.358557,-2.358524 v -7.072365 c 0,-1.306281 -1.052278,-2.358555 -2.358557,-2.358555 z m 35.368417,0 c -1.306268,0 -2.358551,1.052274 -2.358551,2.358555 v 7.072365 c 0,1.306269 1.052283,2.358524 2.358551,2.358524 h 7.072363 c 1.306281,0 2.358556,-1.052255 2.358556,-2.358524 v -7.072365 c 0,-1.306281 -1.052275,-2.358555 -2.358556,-2.358555 z M 10.779608,43.786786 c -1.3062723,0 -2.3585517,1.05236 -2.3585517,2.35856 v 7.07233 c 0,1.30629 1.0522794,2.3586 2.3585517,2.3586 h 7.072365 c 1.306279,0 2.358557,-1.05231 2.358557,-2.3586 v -7.07233 c 0,-1.3062 -1.052278,-2.35856 -2.358557,-2.35856 z m 35.368417,0 c -1.306268,0 -2.358551,1.05236 -2.358551,2.35856 v 7.07233 c 0,1.30629 1.052283,2.3586 2.358551,2.3586 h 7.072363 c 1.306281,0 2.358556,-1.05231 2.358556,-2.3586 v -7.07233 c 0,-1.3062 -1.052275,-2.35856 -2.358556,-2.35856 z"
     id="path1" />
  <rect
     style="fill:#006699;stroke-width:0.842106"
     width="11.789472"
     height="11.789472"
     x="8.4210567"
     y="42.944599"
     rx="2.3578947"
     ry="2.3578947"
     id="rect1" />
  <rect
     style="fill:#006699;stroke-width:0.842106"
     width="11.789472"
     height="11.789472"
     x="43.789467"
     y="42.944599"
     rx="2.3578947"
     ry="2.3578947"
     id="rect2" />
  <rect
     style="fill:#006699;stroke-width:0.842106"
     width="11.789472"
     height="11.789472"
     x="8.4210567"
     y="7.5762734"
     rx="2.3578947"
     ry="2.3578947"
     id="rect3" />
  <rect
     style="fill:#006699;stroke-width:0.842106"
     width="11.789472"
     height="11.789472"
     x="43.789467"
     y="7.5762734"
     rx="2.3578947"
     ry="2.3578947"
     id="rect4" />
  <path
     style="opacity:0.1;fill:#ffffff;stroke-width:0.842106"
     d="m 10.779608,7.576272 c -1.3062723,0 -2.3585517,1.052281 -2.3585517,2.35855 v 0.842111 c 0,-1.306281 1.0522794,-2.358555 2.3585517,-2.358555 h 7.072365 c 1.306279,0 2.358557,1.052274 2.358557,2.358555 V 9.934822 c 0,-1.306269 -1.052278,-2.35855 -2.358557,-2.35855 z m 35.368416,0 c -1.306267,0 -2.35855,1.052281 -2.35855,2.35855 v 0.842111 c 0,-1.306281 1.052283,-2.358555 2.35855,-2.358555 h 7.072365 c 1.30628,0 2.358555,1.052274 2.358555,2.358555 V 9.934822 c 0,-1.306269 -1.052275,-2.35855 -2.358555,-2.35855 z M 10.779608,42.944696 c -1.3062723,0 -2.3585517,1.05224 -2.3585517,2.35853 v 0.84212 c 0,-1.3062 1.0522794,-2.35856 2.3585517,-2.35856 h 7.072365 c 1.306279,0 2.358557,1.05236 2.358557,2.35856 v -0.84212 c 0,-1.30629 -1.052278,-2.35853 -2.358557,-2.35853 z m 35.368416,0 c -1.306267,0 -2.35855,1.05224 -2.35855,2.35853 v 0.84212 c 0,-1.3062 1.052283,-2.35856 2.35855,-2.35856 h 7.072365 c 1.30628,0 2.358555,1.05236 2.358555,2.35856 v -0.84212 c 0,-1.30629 -1.052275,-2.35853 -2.358555,-2.35853 z"
     id="path4" />
  <rect
     style="fill:#e4e4e4;stroke-width:0.842106"
     class="st0"
     width="40.421055"
     height="40.421055"
     x="11.789477"
     y="10.944689"
     id="rect5" />
  <path
     style="opacity:0.1;stroke-width:0.842106"
     d="m 42.072362,15.138603 a 1.6843789,1.6843789 0 0 0 -1.15789,0.509875 l -4.559209,4.559169 H 18.095396 l 12.220397,13.496759 v 11.76642 h -5.052635 a 1.6843789,1.6843789 0 1 0 0,3.36847 h 13.473681 a 1.6843789,1.6843789 0 1 0 0,-3.36847 H 33.684208 V 33.704406 L 45.904603,20.207647 h -4.78619 l 2.177638,-2.177601 a 1.6843789,1.6843789 0 0 0 -1.223689,-2.891443 z"
     id="path5" />
  <path
     style="fill:none;stroke:#006699;stroke-width:3.36842;stroke-linecap:round;stroke-linejoin:round"
     d="M 25.263158,46.313096 H 38.736839"
     id="path6" />
  <rect
     style="fill:#006699;stroke-width:0.842106"
     width="3.3684201"
     height="18.137257"
     x="30.315783"
     y="28.132143"
     id="rect6-3" />
  <path
     style="fill:none;stroke:#006699;stroke-width:3.36842;stroke-linecap:round"
     d="m 42.105267,15.997321 -9.068826,9.068815"
     id="path7" />
  <path
     style="fill:#006699;stroke-width:0.842106"
     d="M 18.094464,19.365752 H 45.90553 L 32,34.722296 Z"
     id="path8" />
  <rect
     style="opacity:0.2;stroke-width:0.842106"
     width="40.421055"
     height="0.84210503"
     x="11.789477"
     y="51.365734"
     id="rect8" />
  <rect
     style="opacity:0.2;fill:#ffffff;stroke-width:0.842106"
     width="40.421055"
     height="0.84210503"
     x="11.789477"
     y="10.944689"
     id="rect9" />
</svg>
