<?xml version="1.0" encoding="UTF-8" standalone="no"?>
<svg
   width="64"
   height="64"
   version="1"
   id="svg53"
   sodipodi:docname="photoflare.svg"
   inkscape:version="1.2.1 (9c6d41e410, 2022-07-14)"
   xmlns:inkscape="http://www.inkscape.org/namespaces/inkscape"
   xmlns:sodipodi="http://sodipodi.sourceforge.net/DTD/sodipodi-0.dtd"
   xmlns:xlink="http://www.w3.org/1999/xlink"
   xmlns="http://www.w3.org/2000/svg"
   xmlns:svg="http://www.w3.org/2000/svg">
  <sodipodi:namedview
     id="namedview55"
     pagecolor="#ffffff"
     bordercolor="#666666"
     borderopacity="1.0"
     inkscape:showpageshadow="2"
     inkscape:pageopacity="0.0"
     inkscape:pagecheckerboard="0"
     inkscape:deskcolor="#d1d1d1"
     showgrid="false"
     inkscape:zoom="3.6875"
     inkscape:cx="32"
     inkscape:cy="32.135593"
     inkscape:window-width="1920"
     inkscape:window-height="1008"
     inkscape:window-x="0"
     inkscape:window-y="0"
     inkscape:window-maximized="1"
     inkscape:current-layer="svg53" />
  <defs
     id="defs35">
    <linearGradient
       id="f"
       x1="26.678"
       x2="26.678"
       y1="35.381"
       y2="17.782"
       gradientUnits="userSpaceOnUse"
       gradientTransform="translate(-99.214103,-19.8125)">
      <stop
         stop-color="#e14664"
         offset="0"
         id="stop2" />
      <stop
         stop-color="#ff5c7b"
         offset="1"
         id="stop4" />
    </linearGradient>
    <linearGradient
       id="e"
       x1="37.2"
       x2="37.2"
       y1="36.124"
       y2="18.096"
       gradientUnits="userSpaceOnUse"
       gradientTransform="translate(-99.214103,-19.8125)">
      <stop
         stop-color="#aad22d"
         offset="0"
         id="stop7" />
      <stop
         stop-color="#dbf97c"
         offset="1"
         id="stop9" />
    </linearGradient>
    <linearGradient
       id="d"
       x1="23.688"
       x2="23.688"
       y1="45.978"
       y2="31.186"
       gradientUnits="userSpaceOnUse"
       gradientTransform="translate(-99.214103,-19.8125)">
      <stop
         stop-color="#0077c2"
         offset="0"
         id="stop12" />
      <stop
         stop-color="#1ba7ff"
         offset="1"
         id="stop14" />
    </linearGradient>
    <linearGradient
       id="g"
       x1="34.38"
       x2="34.38"
       y1="46.935"
       y2="30.814"
       gradientUnits="userSpaceOnUse"
       gradientTransform="translate(-99.214103,-19.8125)">
      <stop
         stop-color="#1abda2"
         offset="0"
         id="stop17" />
      <stop
         stop-color="#27f1d1"
         stop-opacity=".996"
         offset="1"
         id="stop19" />
    </linearGradient>
    <linearGradient
       id="c"
       x1="33.19"
       x2="33.19"
       y1="50.47"
       y2="11.676"
       gradientUnits="userSpaceOnUse"
       gradientTransform="translate(-99.214103,-19.8125)">
      <stop
         stop-color="#ccc"
         offset="0"
         id="stop22" />
      <stop
         stop-color="#fff"
         stop-opacity=".995"
         offset="1"
         id="stop24" />
    </linearGradient>
    <linearGradient
       id="a"
       x1="7.937"
       x2="7.937"
       y1="15.081"
       y2="1.852"
       gradientTransform="scale(3.7796)"
       gradientUnits="userSpaceOnUse">
      <stop
         stop-color="#2e2e2e"
         offset="0"
         id="stop27" />
      <stop
         stop-color="#505050"
         offset="1"
         id="stop29" />
    </linearGradient>
    <filter
       id="b"
       x="-0.048639999"
       y="-0.047376623"
       width="1.09728"
       height="1.0947532"
       color-interpolation-filters="sRGB">
      <feGaussianBlur
         stdDeviation=".76"
         id="feGaussianBlur32" />
    </filter>
    <linearGradient
       inkscape:collect="always"
       xlink:href="#linearGradient22063"
       id="linearGradient22065"
       x1="-14"
       y1="6"
       x2="-14"
       y2="-9.999999"
       gradientUnits="userSpaceOnUse"
       gradientTransform="matrix(3.6250002,0,0,3.6250002,82.750002,39.249999)" />
    <linearGradient
       inkscape:collect="always"
       id="linearGradient22063">
      <stop
         style="stop-color:#292f3a;stop-opacity:1;"
         offset="0"
         id="stop22059" />
      <stop
         style="stop-color:#535e75;stop-opacity:1;"
         offset="1"
         id="stop22061" />
    </linearGradient>
    <linearGradient
       id="e-3"
       y1="543.79999"
       y2="503.79999"
       x2="0"
       gradientUnits="userSpaceOnUse"
       gradientTransform="matrix(1.4687506,0,0,1.4687506,-568.08743,-738.87136)">
      <stop
         stop-color="#2f3943"
         id="stop218" />
      <stop
         offset="1"
         stop-color="#808c9b"
         id="stop220" />
    </linearGradient>
    <linearGradient
       id="b-6"
       y1="540.79999"
       y2="536.79999"
       gradientUnits="userSpaceOnUse"
       x2="0">
      <stop
         stop-color="#2f3943"
         id="stop207" />
      <stop
         offset="1"
         stop-color="#4d5662"
         id="stop209" />
    </linearGradient>
    <linearGradient
       id="c-7"
       y1="537.79999"
       y2="538.79999"
       x2="0"
       gradientUnits="userSpaceOnUse">
      <stop
         stop-color="#197cf1"
         id="stop212" />
      <stop
         offset="1"
         stop-color="#21c9fb"
         id="stop214" />
    </linearGradient>
    <linearGradient
       id="linearGradient523"
       y1="540.79999"
       y2="536.79999"
       gradientUnits="userSpaceOnUse"
       x2="0">
      <stop
         stop-color="#2f3943"
         id="stop519" />
      <stop
         offset="1"
         stop-color="#4d5662"
         id="stop521" />
    </linearGradient>
    <linearGradient
       xlink:href="#c-7"
       id="d-5"
       y1="539.79999"
       y2="538.79999"
       gradientUnits="userSpaceOnUse"
       x2="0"
       gradientTransform="matrix(1.4687506,0,0,1.4687506,-568.08743,-845.32305)" />
    <linearGradient
       id="linearGradient530"
       y1="537.79999"
       y2="538.79999"
       x2="0"
       gradientUnits="userSpaceOnUse">
      <stop
         stop-color="#197cf1"
         id="stop526" />
      <stop
         offset="1"
         stop-color="#21c9fb"
         id="stop528" />
    </linearGradient>
    <filter
       id="b-3"
       x="-0.048639995"
       y="-0.047376623"
       width="1.09728"
       height="1.0947532"
       color-interpolation-filters="sRGB">
      <feGaussianBlur
         stdDeviation=".76"
         id="feGaussianBlur32-6" />
    </filter>
    <linearGradient
       inkscape:collect="always"
       xlink:href="#c"
       id="linearGradient1121"
       gradientUnits="userSpaceOnUse"
       gradientTransform="translate(-0.83582901,-1.0112199)"
       x1="33.19"
       y1="50.47"
       x2="33.19"
       y2="11.676" />
    <linearGradient
       inkscape:collect="always"
       xlink:href="#d"
       id="linearGradient1123"
       gradientUnits="userSpaceOnUse"
       gradientTransform="translate(-0.83582901,-1.0112199)"
       x1="23.688"
       y1="45.978"
       x2="23.688"
       y2="31.186" />
    <linearGradient
       inkscape:collect="always"
       xlink:href="#e"
       id="linearGradient1125"
       gradientUnits="userSpaceOnUse"
       gradientTransform="translate(-0.83582901,-1.0112199)"
       x1="37.2"
       y1="36.124"
       x2="37.2"
       y2="18.096" />
    <linearGradient
       inkscape:collect="always"
       xlink:href="#f"
       id="linearGradient1127"
       gradientUnits="userSpaceOnUse"
       gradientTransform="translate(-0.83582901,-1.0112199)"
       x1="26.678"
       y1="35.381"
       x2="26.678"
       y2="17.782" />
    <linearGradient
       inkscape:collect="always"
       xlink:href="#g"
       id="linearGradient1129"
       gradientUnits="userSpaceOnUse"
       gradientTransform="translate(-0.83582901,-1.0112199)"
       x1="34.38"
       y1="46.935"
       x2="34.38"
       y2="30.814" />
  </defs>
  <path
     d="m 2.9999975,10.25 c 0,-4.004175 3.245938,-7.25 7.2499995,-7.25 h 43.500005 c 4.00417,0 7.25,3.245825 7.25,7.25 v 43.5 c 0,4.004173 -3.24583,7.25 -7.25,7.25 H 10.249997 C 6.2459355,61 2.9999975,57.754173 2.9999975,53.75 Z"
     id="path736"
     style="fill:#606c86;fill-opacity:1;stroke-width:3.625" />
  <path
     d="M 2.9999975,9.796875 C 2.9999975,6.043188 6.2459355,3 10.249997,3 h 43.500005 c 4.00417,0 7.25,3.043188 7.25,6.796875 v 40.781249 c 0,3.753693 -3.24583,6.796876 -7.25,6.796876 H 10.249997 c -4.0040615,0 -7.2499995,-3.043183 -7.2499995,-6.796876 z"
     id="path738"
     style="fill:url(#linearGradient22065);fill-opacity:1;stroke-width:3.625" />
  <path
     d="m 42.664174,11.48878 -1.414003,2.586 -2.586,1.414 2.586,1.414 1.414003,2.586 1.414,-2.586 2.586,-1.414 -2.586,-1.414 z m -6.504003,1 -0.523,0.969 -0.973,0.531 0.973,0.531 0.523,0.969 0.531,-0.969 0.973,-0.531 -0.973,-0.531 z m -4.996,1.5 c -9.925,0 -18,8.075 -18,18 0,9.925 8.075,18 18,18 9.925,0 18.000003,-8.075 18.000003,-18 h -1.543 c 0,9.075 -7.381003,16.457 -16.457003,16.457 -9.076,0 -16.457,-7.381 -16.457,-16.457 0,-9.076 7.381,-16.457 16.457,-16.457 z m 0,4 c -0.224,0 -0.449,0.007 -0.67,0.018 -7.175,0.338 -12.937,6.076 -13.31,13.242 -0.014,0.245 -0.02,0.491 -0.02,0.74 0,7.732 6.267,14 14,14 0.1,0 0.201,-0.006 0.302,-0.008 7.592,-0.161 13.698003,-6.362 13.698003,-13.992 0,-0.37 -0.018,-0.735 -0.047,-1.098 -0.561,-7.218 -6.591003,-12.902 -13.953003,-12.902 z m 16.504003,0.5 -1.066,1.941 -1.938,1.059 1.938,1.059 1.066,1.941 1.059,-1.941 1.937,-1.059 -1.937,-1.059 z m 0.996,8 -0.707,1.293 -1.293,0.707 1.293,0.707 0.707,1.293 0.707,-1.293 1.293,-0.707 -1.293,-0.707 z m -30.764003,4.885 c 0.449,0.103 0.831,0.241 1.104,0.4 -0.273,-0.159 -0.655,-0.297 -1.104,-0.4 z m 1.525,1.156 z m 9.135,8.662 c 0,0 -0.275,0.15 -0.619,0.223 0.343,-0.073 0.62,-0.223 0.62,-0.223 z"
     filter="url(#b)"
     opacity="0.35"
     id="path41-0"
     style="filter:url(#b-3)" />
  <path
     d="m 42.664174,10.48878 -1.414003,2.586 -2.586,1.414 2.586,1.414 1.414003,2.586 1.414,-2.586 2.586,-1.414 -2.586,-1.414 z m -6.504003,1 -0.523,0.969 -0.973,0.531 0.973,0.531 0.523,0.969 0.531,-0.969 0.973,-0.531 -0.973,-0.531 -0.53,-0.969 z m -4.996,1.5 c -9.925,0 -18,8.075 -18,18 0,9.925 8.075,18 18,18 9.925,0 18.000003,-8.075 18.000003,-18 h -1.543 c 0,9.075 -7.381003,16.457 -16.457003,16.457 -9.076,0 -16.457,-7.381 -16.457,-16.457 0,-9.076 7.381,-16.457 16.457,-16.457 z m 16.504003,4.5 -1.066,1.941 -1.938,1.059 1.938,1.059 1.066,1.941 1.059,-1.941 1.937,-1.059 -1.937,-1.059 z m 0.996,8 -0.707,1.293 -1.293,0.707 1.293,0.707 0.707,1.293 0.707,-1.293 1.293,-0.707 -1.293,-0.707 z"
     fill="url(#c)"
     id="path43-9"
     style="fill:url(#linearGradient1121)" />
  <path
     d="m 31.074171,30.89378 c 0,0 -1.993,-0.367 -3.75,-0.63 -1.757,-0.262 -3.678,0.19 -4.17,0.761 -0.492,0.57 0.649,1.652 0.905,2.085 0.255,0.433 0.118,0.492 -0.335,0.905 -0.377,0.345 -1.911,0.534 -2.407,0.587 v 0.016 l -0.078,-0.008 -0.078,0.008 v -0.016 c -0.496,-0.053 -2.03,-0.242 -2.408,-0.587 -0.452,-0.413 -0.59,-0.472 -0.334,-0.905 0.256,-0.433 1.396,-1.514 0.905,-2.085 -0.3,-0.348 -1.136,-0.652 -2.14,-0.776 -0.013,0.245 -0.02,0.492 -0.02,0.74 0,7.732 6.268,14 14,14 0.101,0 0.201,-0.005 0.302,-0.007 0.415,-1.55 0.956,-4.21 0.005,-4.868 -1.364,-0.944 -2.911,0.079 -2.911,0.079 0,0 -1.101,0.603 -1.652,-0.026 -0.551,-0.63 -0.656,-1.626 -0.604,-2.308 0.053,-0.682 0.63,-2.544 1.679,-2.072 1.049,0.472 3.142,0.836 3.593,0.262 1.154,-1.468 -0.502,-5.155 -0.502,-5.155"
     fill="url(#d)"
     id="path45-3"
     style="fill:url(#linearGradient1123)" />
  <path
     d="m 31.074171,30.89378 c 0,0 7.347,-2.188 7.766,-0.09 0.42,2.098 -2.203,2.203 -0.63,3.252 1.249,0.832 2.296,0.806 2.677,0.76 v -0.026 c 0,0 0.029,0.007 0.078,0.015 0.05,-0.008 0.078,-0.015 0.078,-0.015 v 0.026 c 0.381,0.046 1.428003,0.072 2.676003,-0.76 1.574,-1.049 -1.049,-1.154 -0.63,-3.252 0.136,-0.674 0.965,-0.907 2.028,-0.912 -0.56,-7.218 -6.590003,-12.903 -13.953003,-12.903 -0.224,0 -0.447,0.007 -0.669,0.017 -0.31,1.21 -0.568,2.925 0.133,3.818 0.45,0.573 2.544,0.21 3.593,-0.263 1.05,-0.472 1.626,1.39 1.679,2.072 0.052,0.682 -0.053,1.679 -0.604,2.308 -0.55,0.63 -1.652,0.026 -1.652,0.026 0,0 -1.547,-1.023 -2.91,-0.079 -1.365,0.945 0.34,6.006 0.34,6.006"
     fill="url(#e)"
     id="path47-6"
     style="fill:url(#linearGradient1125)" />
  <path
     d="m 18.419171,33.10978 c -0.256,0.433 -0.118,0.492 0.334,0.905 0.378,0.345 1.912,0.534 2.408,0.587 v 0.016 l 0.078,-0.008 0.078,0.008 v -0.016 c 0.496,-0.053 2.03,-0.242 2.407,-0.587 0.453,-0.413 0.59,-0.472 0.335,-0.905 -0.256,-0.433 -1.397,-1.515 -0.905,-2.085 0.492,-0.57 2.413,-1.023 4.17,-0.76 1.757,0.262 3.75,0.629 3.75,0.629 0,0 -1.705,-5.062 -0.341,-6.006 1.364,-0.944 2.911,0.079 2.911,0.079 0,0 1.102,0.603 1.652,-0.026 0.551,-0.63 0.656,-1.626 0.604,-2.308 -0.053,-0.682 -0.63,-2.544 -1.679,-2.072 -1.049,0.472 -3.142,0.836 -3.593,0.262 -0.701,-0.892 -0.443,-2.608 -0.133,-3.817 -7.175,0.338 -12.938,6.076 -13.31,13.243 1.004,0.124 1.839,0.428 2.14,0.776 0.491,0.57 -0.65,1.653 -0.906,2.085"
     fill="url(#f)"
     id="path49-0"
     style="fill:url(#linearGradient1127)" />
  <path
     d="m 45.164174,30.98878 c 0,-0.37 -0.019,-0.735 -0.047,-1.097 -1.063,0.005 -1.892,0.237 -2.027,0.912 -0.42,2.098 2.203,2.203 0.63,3.252 -1.249,0.832 -2.296003,0.806 -2.677003,0.76 v -0.025 l -0.078,0.014 -0.078,-0.014 v 0.025 c -0.381,0.046 -1.429,0.072 -2.676,-0.76 -1.574,-1.05 1.049,-1.154 0.63,-3.252 -0.42,-2.098 -7.767,0.09 -7.767,0.09 0,0 1.656,3.687 0.502,5.155 -0.45,0.574 -2.544,0.21 -3.593,-0.262 -1.049,-0.472 -1.626,1.39 -1.679,2.072 -0.052,0.682 0.053,1.678 0.604,2.307 0.55,0.63 1.652,0.027 1.652,0.027 0,0 1.547,-1.023 2.91,-0.079 0.952,0.659 0.411,3.317 -0.004,4.867 7.592,-0.161 13.698003,-6.361 13.698003,-13.992"
     fill="url(#g)"
     id="path51-6"
     style="fill:url(#linearGradient1129)" />
</svg>
