<?xml version="1.0" encoding="UTF-8" standalone="no"?>
<svg
   width="64"
   height="64"
   viewBox="0 0 64 64"
   version="1.1"
   id="svg52"
   sodipodi:docname="planetkde.svg"
   inkscape:version="1.2.1 (9c6d41e410, 2022-07-14)"
   xmlns:inkscape="http://www.inkscape.org/namespaces/inkscape"
   xmlns:sodipodi="http://sodipodi.sourceforge.net/DTD/sodipodi-0.dtd"
   xmlns:xlink="http://www.w3.org/1999/xlink"
   xmlns="http://www.w3.org/2000/svg"
   xmlns:svg="http://www.w3.org/2000/svg">
  <sodipodi:namedview
     id="namedview54"
     pagecolor="#a4a4a4"
     bordercolor="#eeeeee"
     borderopacity="1"
     inkscape:pageshadow="0"
     inkscape:pageopacity="0"
     inkscape:pagecheckerboard="0"
     showgrid="false"
     inkscape:zoom="5.2604167"
     inkscape:cx="36.40396"
     inkscape:cy="10.930693"
     inkscape:window-width="1920"
     inkscape:window-height="1002"
     inkscape:window-x="0"
     inkscape:window-y="0"
     inkscape:window-maximized="1"
     inkscape:current-layer="svg52"
     inkscape:showpageshadow="2"
     inkscape:deskcolor="#c9c9c9" />
  <defs
     id="defs32">
    <linearGradient
       xlink:href="#linearGradient4393"
       id="linearGradient4399"
       x1="424.44101"
       y1="502.85001"
       x2="440.87799"
       y2="529.57599"
       gradientUnits="userSpaceOnUse"
       gradientTransform="matrix(0.69224711,0,0,0.69224711,-215.22899,-357.13539)" />
    <linearGradient
       id="linearGradient4393">
      <stop
         style="stop-color:#000000;stop-opacity:1;"
         offset="0"
         id="stop3" />
      <stop
         style="stop-color:#000000;stop-opacity:0;"
         offset="1"
         id="stop5" />
    </linearGradient>
    <linearGradient
       xlink:href="#linearGradient4274"
       id="linearGradient4217"
       gradientUnits="userSpaceOnUse"
       gradientTransform="matrix(0.69224711,0,0,0.69224711,-199.3073,1639.8968)"
       x1="390.57101"
       y1="498.298"
       x2="442.57101"
       y2="498.298" />
    <linearGradient
       id="linearGradient4274">
      <stop
         offset="0"
         style="stop-color:#ffffff;stop-opacity:1;"
         id="stop9" />
      <stop
         offset="1"
         style="stop-color:#ffffff;stop-opacity:0.48760331"
         id="stop11" />
    </linearGradient>
    <linearGradient
       xlink:href="#linearGradient4227"
       id="linearGradient4225"
       gradientUnits="userSpaceOnUse"
       x1="396.57101"
       y1="498.798"
       x2="426.57101"
       y2="511.798"
       gradientTransform="matrix(0.69224711,0,0,0.69224711,-199.3073,-360.21214)" />
    <linearGradient
       id="linearGradient4227">
      <stop
         offset="0"
         style="stop-color:#f5f5f5;stop-opacity:1"
         id="stop21" />
      <stop
         offset="1"
         style="stop-color:#f9f9f9;stop-opacity:1"
         id="stop23" />
    </linearGradient>
    <style
       id="current-color-scheme"
       type="text/css">      .ColorScheme-Highlight {
        color:#3593e6;
      }
</style>
    <linearGradient
       id="d"
       gradientUnits="userSpaceOnUse"
       x1="4"
       x2="18.999998"
       xlink:href="#c"
       y1="5"
       y2="20"
       gradientTransform="matrix(2.7999616,0,0,2.7999616,1.095156,-2.3992319)" />
    <linearGradient
       id="c">
      <stop
         offset="0"
         stop-color="#292c2f"
         id="stop265" />
      <stop
         offset="1"
         stop-opacity="0"
         id="stop267" />
    </linearGradient>
    <linearGradient
       id="b"
       gradientUnits="userSpaceOnUse"
       x1="13.280776"
       x2="28.280775"
       xlink:href="#c"
       y1="5.088388"
       y2="20.088388"
       gradientTransform="matrix(2.7999616,0,0,2.7999616,1.095156,-2.3992319)" />
    <linearGradient
       id="c-3"
       gradientUnits="userSpaceOnUse"
       x1="5"
       x2="5"
       y1="20"
       y2="7"
       gradientTransform="matrix(3.4390082,0,0,3.4390082,-5.8290972,-4.015561)">
      <stop
         offset="0"
         stop-color="#999a9c"
         id="stop164" />
      <stop
         offset="1"
         stop-color="#f4f5f5"
         id="stop166" />
    </linearGradient>
    <linearGradient
       id="b-3"
       y1="537.21997"
       y2="505.82999"
       x1="423.04001"
       gradientUnits="userSpaceOnUse"
       x2="398.97"
       gradientTransform="matrix(1.1274961,0,0,1.1274961,-428.66541,-558.57443)">
      <stop
         stop-color="#197cf1"
         id="stop157" />
      <stop
         offset="1"
         stop-color="#20bcfa"
         id="stop159" />
    </linearGradient>
    <linearGradient
       id="c-6"
       y1="506.87"
       y2="536.29999"
       x1="398.45999"
       x2="427.88"
       gradientUnits="userSpaceOnUse"
       gradientTransform="matrix(1.1274961,0,0,1.1274961,-428.66427,-558.57327)">
      <stop
         stop-color="#abdaf9"
         id="stop162" />
      <stop
         offset="1"
         stop-color="#7cbcec"
         id="stop164-7" />
    </linearGradient>
    <linearGradient
       id="a"
       y1="16.316999"
       x1="17.900999"
       y2="38"
       x2="39.584"
       gradientUnits="userSpaceOnUse"
       gradientTransform="matrix(1.1274961,0,0,1.1274961,4.9357835,4.948168)">
      <stop
         stop-color="#172525"
         id="stop152" />
      <stop
         offset="1"
         stop-color="#172525"
         stop-opacity="0"
         id="stop154" />
    </linearGradient>
  </defs>
  <path
     d="m 2.9999985,10.25 c 0,-4.0041748 3.245938,-7.25 7.2500005,-7.25 h 43.500003 c 4.004173,0 7.249999,3.2458252 7.249999,7.25 v 43.5 c 0,4.004173 -3.245827,7.25 -7.25,7.25 H 10.249999 C 6.2459365,61 2.9999985,57.754173 2.9999985,53.75 Z"
     id="path736"
     style="fill:#606c86;fill-opacity:1;stroke-width:3.625" />
  <path
     d="M 2.9999985,9.796875 C 2.9999985,6.0431877 6.2459365,3 10.249999,3 h 43.500003 c 4.004173,0 7.249999,3.0431877 7.249999,6.796875 v 40.781249 c 0,3.753693 -3.245827,6.796876 -7.25,6.796876 H 10.249999 c -4.0040625,0 -7.2500005,-3.043183 -7.2500005,-6.796876 z"
     id="path738"
     style="fill:#3b4252;fill-opacity:1;stroke-width:3.625" />
  <rect
     width="45.099842"
     x="9.445776"
     y="9.4581366"

     rx="22.549921"
     height="45.099842"
     id="rect169"
     style="fill:url(#b-3);stroke-width:1.1275" />
  <path

     fill-rule="evenodd"
     d="m 31.995692,9.458149 c -1.637125,0 -3.229149,0.1804 -4.765922,0.508505 l -1.999065,4.001483 -3.021682,-2.266264 c -5.418747,2.605639 -9.616415,7.297145 -11.561343,13.060912 l 4.435566,-1.774678 3.382482,2.254987 1.1275,-3.382487 14.657453,-7.89247 -0.894104,-4.4660119 c -0.450996,-0.02706 -0.903126,-0.04396 -1.360884,-0.04396 m 16.698214,7.4054009 -0.914401,2.742062 1.127499,1.127499 -4.50998,6.764977 2.254986,7.892474 7.478684,0.935821 c 0.26947,-1.396967 0.41379,-2.840162 0.41379,-4.318309 0,-3.861681 -0.966262,-7.487704 -2.662018,-10.658216 l -1.847969,-0.616747 0.671988,-1.345103 C 50.103281,18.49279 49.416635,17.661831 48.693907,16.86468 M 9.8922545,27.499231 c -0.249181,1.235729 -0.390115,2.51093 -0.429581,3.812061 l 7.8744365,2.952912 -1.1275,-3.382489 -2.254988,-3.382484 z m 7.4448555,6.764973 5.637487,13.529956 v 4.891072 c 2.761228,1.200792 5.807732,1.873907 9.019964,1.873907 0.22437,0 0.44536,-0.0091 0.66748,-0.01577 L 39.887037,42.156684 21.847097,32.009218 Z"
     id="path171"
     style="fill:url(#c-6);stroke-width:1.1275" />
  <path
     opacity="0.2"
     stroke-opacity="0.55"
     fill="#2b3c4d"
     stroke-width="3.157"
     d="m 9.4570395,31.444326 c -0.004,0.188292 -0.01353,0.374329 -0.01353,0.563749 0,12.492658 10.0572625,22.549928 22.5499275,22.549928 12.49265,0 22.549917,-10.05727 22.549917,-22.549928 0,-0.18942 -0.0089,-0.375457 -0.01353,-0.563749 -0.297655,12.229952 -10.237665,21.986177 -22.536386,21.986177 -12.303246,0 -22.2387385,-9.756225 -22.5363985,-21.986177"
     id="path173-5" />
  <path
     opacity="0.4"

     d="m 33.924829,20.314813 -4.135653,6.0445 -0.771204,-0.662969 -4.71744,5.570965 -3.978939,2.516572 4.237127,4.732102 -0.173635,2.790553 12.783552,12.635852 C 47.018453,51.643425 54.347171,42.942533 54.534333,32.418483 l -10.926558,-11.02353 -6.612774,2.063319 z"
     id="path175"
     style="fill:url(#a);stroke-width:1.1275" />
  <path
     fill="#fcfcfc"
     color-rendering="auto"
     shape-rendering="auto"
     color-interpolation-filters="linearRGB"
     image-rendering="auto"
     text-rendering="auto"
     color-interpolation="sRGB"
     color="#000000"
     d="m 33.958747,20.287649 -4.147373,0.387955 v 16.015629 l 4.101994,-0.55923 v -6.845437 l 5.467861,7.577413 4.283526,-1.291205 -5.605478,-7.275841 5.650864,-6.887904 -4.374292,-0.947172 -5.422482,6.887889 z m -9.341476,3.917537 c -0.04684,0 -0.102476,0.0249 -0.136153,0.04391 l -1.594237,1.55032 c -0.06738,0.06738 -0.09511,0.18007 -0.04535,0.259124 l 1.868001,2.9279 c -0.335245,0.532884 -0.582646,1.115535 -0.774431,1.721611 l -3.463715,0.689522 c -0.09663,0.02489 -0.181529,0.07906 -0.181529,0.172746 v 2.15201 c 0,0.09077 0.08929,0.191778 0.181529,0.215201 l 3.37149,0.77443 c 0.180058,0.701234 0.452362,1.368796 0.819814,1.980728 l -1.960236,2.799077 c -0.05416,0.07905 -0.02638,0.191778 0.04535,0.259119 l 1.595706,1.506407 c 0.06738,0.06149 0.190315,0.09369 0.27376,0.04392 l 3.053802,-1.765518 c 0.600224,0.327925 1.229719,0.60022 1.91338,0.774431 l 0.729057,3.229481 c 0.02049,0.09369 0.08347,0.172746 0.181522,0.172746 h 2.27791 c 0.09661,0 0.20496,-0.08344 0.228374,-0.172746 l 0.819817,-3.229477 c 0.705631,-0.180066 1.390761,-0.475784 2.005611,-0.818349 l 3.006959,1.894349 c 0.08346,0.04978 0.203498,0.02489 0.27376,-0.04392 L 40.7017,39.8358 c 0.06882,-0.06734 0.09511,-0.180066 0.04535,-0.257655 l -1.093576,-1.721608 -0.364518,0.128827 c -0.05269,0.02488 -0.106864,0 -0.136147,-0.04392 0,0 -0.689531,-0.986703 -1.59425,-2.238383 -1.083325,2.002687 -3.289507,3.358307 -5.832384,3.358307 -3.614499,0 -6.561435,-2.741983 -6.561435,-6.157384 0,-2.512142 1.59717,-4.67148 3.873616,-5.639141 v -1.592785 c -0.414301,0.137609 -0.803711,0.278146 -1.184337,0.474319 0,0 -0.04388,0 -0.04535,0 l -3.053804,-1.894353 c -0.04095,-0.02487 -0.0907,-0.04685 -0.136143,-0.04242"
     id="path179"
     style="stroke-width:1.46394" />
</svg>
