<?xml version="1.0" encoding="UTF-8" standalone="no"?>
<svg
   height="64"
   width="64"
   version="1.1"
   id="svg10"
   sodipodi:docname="portal-revolution.svg"
   inkscape:version="1.4 (unknown)"
   xmlns:inkscape="http://www.inkscape.org/namespaces/inkscape"
   xmlns:sodipodi="http://sodipodi.sourceforge.net/DTD/sodipodi-0.dtd"
   xmlns:xlink="http://www.w3.org/1999/xlink"
   xmlns="http://www.w3.org/2000/svg"
   xmlns:svg="http://www.w3.org/2000/svg"
   xmlns:rdf="http://www.w3.org/1999/02/22-rdf-syntax-ns#"
   xmlns:cc="http://creativecommons.org/ns#"
   xmlns:dc="http://purl.org/dc/elements/1.1/">
  <metadata
     id="metadata16">
    <rdf:RDF>
      <cc:Work
         rdf:about="">
        <dc:format>image/svg+xml</dc:format>
        <dc:type
           rdf:resource="http://purl.org/dc/dcmitype/StillImage" />
      </cc:Work>
    </rdf:RDF>
  </metadata>
  <defs
     id="defs14">
    <linearGradient
       id="c"
       x1="31.458"
       x2="31.458"
       y1="51.726002"
       y2="62.897999"
       gradientTransform="matrix(0.36079,0,0,0.36079,-2.8832,-9.4399)"
       gradientUnits="userSpaceOnUse">
      <stop
         stop-color="#1776ff"
         offset="0"
         id="stop292" />
      <stop
         stop-color="#2fceff"
         offset="1"
         id="stop294" />
    </linearGradient>
    <linearGradient
       id="d"
       x1="31.458"
       x2="31.458"
       y1="36.897999"
       y2="59.897999"
       gradientTransform="matrix(0.36079,0,0,0.36079,-2.8832,-9.4399)"
       gradientUnits="userSpaceOnUse">
      <stop
         stop-color="#ff5514"
         offset="0"
         id="stop297" />
      <stop
         stop-color="#ff9014"
         offset="1"
         id="stop299" />
    </linearGradient>
    <linearGradient
       id="a"
       x1="31.458"
       x2="31.458"
       y1="46.897999"
       y2="56.897999"
       gradientTransform="matrix(0.36079,0,0,0.36079,-2.8832,-9.4399)"
       gradientUnits="userSpaceOnUse">
      <stop
         stop-color="#c0e5fb"
         offset="0"
         id="stop302" />
      <stop
         stop-color="#c3faff"
         offset="1"
         id="stop304" />
    </linearGradient>
    <linearGradient
       gradientTransform="matrix(1.0394952,0,0,1.0394363,-448.49881,-520.66414)"
       gradientUnits="userSpaceOnUse"
       x2="426.69501"
       y2="499.92099"
       y1="547.67499"
       id="a-6"
       x1="389.32001">
      <stop
         stop-color="#18222a"
         style="stop-color:#436077;stop-opacity:1;"
         id="stop216"
         offset="0" />
      <stop
         stop-color="#566069"
         offset="1"
         style="stop-color:#6d7983;stop-opacity:1"
         id="stop218" />
    </linearGradient>
    <linearGradient
       id="e"
       x1="8.4461002"
       x2="24.603001"
       y1="6.2688999"
       y2="24.570999"
       gradientUnits="userSpaceOnUse"
       gradientTransform="translate(0.254427,-38.49298)">
      <stop
         stop-opacity=".2088"
         offset="0"
         id="stop4" />
      <stop
         stop-opacity="0"
         offset="1"
         id="stop6" />
    </linearGradient>
    <linearGradient
       id="d-3"
       x1="7.8488002"
       x2="14.108"
       y1="3.5121"
       y2="14.183"
       gradientUnits="userSpaceOnUse"
       gradientTransform="translate(0.254427,-38.49298)">
      <stop
         stop-opacity=".2088"
         offset="0"
         id="stop14" />
      <stop
         stop-opacity="0"
         offset="1"
         id="stop16" />
    </linearGradient>
    <linearGradient
       id="c-6"
       x1="31.458"
       x2="31.458"
       y1="51.726002"
       y2="62.897999"
       gradientTransform="matrix(0.36079,0,0,0.36079,-2.8832,-9.4399)"
       gradientUnits="userSpaceOnUse">
      <stop
         stop-color="#1776ff"
         offset="0"
         id="stop292-7"
         style="stop-color:#55ddff;stop-opacity:1" />
      <stop
         stop-color="#2fceff"
         offset="1"
         id="stop294-5"
         style="stop-color:#00ccff;stop-opacity:1" />
    </linearGradient>
    <linearGradient
       id="d-35"
       x1="31.458"
       x2="31.458"
       y1="36.897999"
       y2="59.897999"
       gradientTransform="matrix(0.36079,0,0,0.36079,-2.8832,-9.4399)"
       gradientUnits="userSpaceOnUse">
      <stop
         stop-color="#ff5514"
         offset="0"
         id="stop297-6"
         style="stop-color:#ffccaa;stop-opacity:1" />
      <stop
         stop-color="#ff9014"
         offset="1"
         id="stop299-2"
         style="stop-color:#ff9955;stop-opacity:1" />
    </linearGradient>
    <linearGradient
       id="a-9"
       x1="31.458"
       x2="31.458"
       y1="46.897999"
       y2="56.897999"
       gradientTransform="matrix(0.36079,0,0,0.36079,-2.8832,-9.4399)"
       gradientUnits="userSpaceOnUse">
      <stop
         stop-color="#c0e5fb"
         offset="0"
         id="stop302-1"
         style="stop-color:#e3d7f4;stop-opacity:1" />
      <stop
         stop-color="#c3faff"
         offset="1"
         id="stop304-2"
         style="stop-color:#aa87de;stop-opacity:1" />
    </linearGradient>
    <linearGradient
       inkscape:collect="always"
       xlink:href="#linearGradient22063"
       id="linearGradient22065"
       x1="-14"
       y1="6"
       x2="-14"
       y2="-9.999999"
       gradientUnits="userSpaceOnUse"
       gradientTransform="matrix(3.6250002,0,0,3.6250002,82.750002,39.249998)" />
    <linearGradient
       inkscape:collect="always"
       id="linearGradient22063">
      <stop
         style="stop-color:#292f3a;stop-opacity:1;"
         offset="0"
         id="stop22059" />
      <stop
         style="stop-color:#535e75;stop-opacity:1;"
         offset="1"
         id="stop22061" />
    </linearGradient>
    <clipPath
       id="a-3">
      <circle
         cx="8.467"
         cy="288.53"
         r="6.8790002"
         fill="#d86eb0"
         stroke-opacity="0.039"
         stroke-width="0.491"
         style="paint-order:stroke markers fill"
         id="circle2-6" />
    </clipPath>
  </defs>
  <sodipodi:namedview
     pagecolor="#ffffff"
     bordercolor="#666666"
     borderopacity="1"
     objecttolerance="10"
     gridtolerance="10"
     guidetolerance="10"
     inkscape:pageopacity="0"
     inkscape:pageshadow="2"
     inkscape:window-width="1920"
     inkscape:window-height="998"
     id="namedview12"
     showgrid="false"
     inkscape:zoom="8"
     inkscape:cx="34.25"
     inkscape:cy="48.9375"
     inkscape:window-x="0"
     inkscape:window-y="0"
     inkscape:window-maximized="1"
     inkscape:current-layer="svg10"
     inkscape:document-rotation="0"
     inkscape:showpageshadow="2"
     inkscape:pagecheckerboard="0"
     inkscape:deskcolor="#d1d1d1">
    <inkscape:grid
       type="xygrid"
       id="grid801"
       originx="0"
       originy="0"
       spacingy="1"
       spacingx="1"
       units="px"
       visible="false" />
  </sodipodi:namedview>
  <path
     d="M 2.999999,10.25 C 2.999999,6.245825 6.245933,3 10.249993,3 h 43.500009 c 4.00417,0 7.25,3.245825 7.25,7.25 v 43.499999 c 0,4.004173 -3.24583,7.25 -7.25,7.25 H 10.249993 c -4.00406,0 -7.249994,-3.245827 -7.249994,-7.25 z"
     id="path736"
     style="fill:#606c86;fill-opacity:1;stroke-width:3.625" />
  <path
     d="M 2.999999,9.7968747 C 2.999999,6.043188 6.245933,3 10.249993,3 h 43.500009 c 4.00417,0 7.25,3.043188 7.25,6.7968747 V 50.578123 c 0,3.753693 -3.24583,6.796876 -7.25,6.796876 H 10.249993 c -4.00406,0 -7.249995,-3.043183 -7.249995,-6.796876 z"
     id="path738"
     style="fill:url(#linearGradient22065);fill-opacity:1;stroke-width:3.625" />
  <path
     d="m 29.898397,52.924538 c -1.950602,-0.193649 -3.87024,-0.623539 -5.139674,-1.158006 a 11.610712,11.618782 0 0 1 -0.576666,-0.24787 30.961905,30.983422 0 0 1 -0.228348,-1.223839 l -0.390893,-2.180459 c -0.611497,-3.303603 -1.26944,-7.242369 -1.222983,-7.288855 0.02323,-0.02717 3.785083,2.494173 8.135233,5.445331 3.98247,2.703316 4.75652,3.230023 6.571663,4.446123 1.819014,1.223856 1.710641,1.138649 1.621626,1.188996 a 15.480951,15.491714 0 0 1 -1.873196,0.608049 23.221427,23.237568 0 0 1 -2.771087,0.43764 34.832145,34.856347 0 0 1 -4.125672,-0.02716 m 9.567226,-2.091379 a 81.274993,81.331486 0 0 1 -4.036659,-2.780756 73.534524,73.585628 0 0 0 -2.581445,-1.785428 7.740476,7.7458557 0 0 1 -1.230734,-0.85204 c -0.263182,-0.224618 -0.379281,-0.402779 -0.263182,-0.402779 0.06967,0 3.560627,-0.650647 6.114972,-1.138646 2.960734,-0.565442 8.402291,-1.634369 12.079016,-2.366357 0.673424,-0.135494 1.238479,-0.232371 1.261698,-0.209131 0.03866,0.03872 -0.263171,0.631282 -0.766297,1.475581 a 20.51226,20.52652 0 0 1 -5.039054,5.743541 30.961905,30.983422 0 0 1 -2.631765,1.769943 23.221427,23.237568 0 0 1 -2.074446,1.03794 c -0.03865,0 -0.414112,-0.220758 -0.832103,-0.487987 z M 21.890875,50.387733 A 17.803092,17.815468 0 0 1 17.19628,46.933093 21.67333,21.688396 0 0 1 13.86013,42.64189 27.091664,27.110495 0 0 1 12.75712,40.589216 c 0,-0.05812 1.652583,-2.536755 3.049741,-4.573911 1.157202,-1.692472 2.314396,-3.423666 2.9259,-4.388036 0.07358,-0.10846 0.143196,-0.185894 0.15868,-0.170401 0.07736,0.07745 1.068184,4.879895 1.900287,9.213698 0.73534,3.826443 0.882419,4.589413 1.168806,6.02241 0.328982,1.661476 0.750823,3.721865 0.812759,3.962003 q 0.0348,0.1433 -0.02326,0.1433 c -0.03094,0 -0.417986,-0.185912 -0.859185,-0.410546 m 18.75135,-8.501072 c -0.0194,-0.0542 0.03865,-0.166536 0.162549,-0.305958 0.104533,-0.12389 0.71987,-1.014709 1.362319,-1.986819 1.037229,-1.564669 1.776448,-2.633586 3.367113,-4.891512 a 267.04644,267.23203 0 0 0 5.890497,-8.586272 7.740476,7.7458557 0 0 1 0.456697,-0.670026 c 0.0658,-0.008 0.429593,1.049561 0.626978,1.812533 0.379283,1.471718 0.49539,2.575502 0.491522,4.577805 q -0.01554,4.32218 -1.292664,7.664522 l -0.154812,0.402779 -0.27092,0.0542 -1.091402,0.213013 -4.706204,0.898524 a 336.71067,336.9447 0 0 1 -4.663633,0.871409 q -0.15094,0.03876 -0.178034,-0.0542 M 11.955982,38.242235 c -0.669545,-1.700226 -0.952081,-3.505004 -0.955946,-6.09212 0,-2.091381 0.131541,-3.342341 0.553445,-5.232322 0.166422,-0.759095 0.6502,-2.281161 0.754697,-2.385722 0.03866,-0.03871 0.510871,-0.143305 1.056572,-0.23625 0.986912,-0.170407 2.836893,-0.511227 4.915205,-0.906269 3.475472,-0.658395 5.008081,-0.917881 5.128063,-0.871409 0.03865,0.01555 0.07736,0.07361 0.07736,0.127766 0,0.112322 0.01554,0.08132 -0.979165,1.48334 l -1.207517,1.707956 -1.687419,2.393469 a 429.59642,429.89497 0 0 0 -6.474915,9.326014 23.221427,23.237568 0 0 1 -0.901774,1.301305 3.8702383,3.8729281 0 0 1 -0.278653,-0.619676 z m 32.95507,-5.55379 a 34.832145,34.856347 0 0 0 -0.193516,-1.142502 l -0.367673,-2.079771 -1.393281,-8.257083 c -0.22447,-1.374884 -0.95595,-5.526666 -1.211387,-6.862826 a 5.4183329,5.4220988 0 0 1 -0.139326,-1.010836 c 0.06193,-0.06196 1.145599,0.546086 2.117026,1.192867 a 20.51226,20.52652 0 0 1 5.925332,6.022401 c 0.619234,0.968231 1.424247,2.459303 1.702901,3.160305 l 0.10065,0.26336 -0.325098,0.51123 c -0.352199,0.5577 -0.843717,1.247082 -2.283445,3.226148 -0.514741,0.712624 -1.257827,1.766057 -1.648723,2.343115 -0.986902,1.44848 -2.093801,2.912453 -2.213775,2.912453 -0.0194,0 -0.05034,-0.123951 -0.06964,-0.278861 M 41.567171,23.47863 a 42.572621,42.602205 0 0 0 -2.051236,-1.432987 603.75713,604.17675 0 0 1 -13.178163,-9.093633 11.610712,11.618782 0 0 1 -1.1185,-0.929506 c 0,-0.03868 1.1185,-0.38729 1.679691,-0.518968 0.561179,-0.131636 1.803529,-0.348563 2.523396,-0.43377 0.363804,-0.04648 1.223003,-0.06977 2.523397,-0.06977 1.729998,0 2.074447,0.01941 2.813664,0.116204 1.315874,0.182025 2.24474,0.364052 3.154239,0.627418 0.81275,0.232372 2.128634,0.731976 2.128634,0.805561 l 0.212861,1.239337 c 0.116142,0.658399 0.387024,2.292775 0.607631,3.625058 0.387021,2.393472 0.62698,3.795473 0.897894,5.298163 0.127672,0.716497 0.135439,0.941127 0.03095,0.941127 A 0.7740476,0.77458557 0 0 1 41.567166,23.478631 M 13.074457,22.886063 a 20.280052,20.294142 0 0 1 8.119765,-8.938713 c 0.878547,-0.526718 2.291177,-1.239336 2.457602,-1.239336 0.123807,0 0.421857,0.205263 4.295962,2.927933 2.29505,1.607264 2.964601,2.068144 3.73478,2.560005 0.665676,0.426019 1.315876,0.937251 1.315876,1.037942 0,0.02325 -0.0658,0.05808 -0.143195,0.07362 A 1068.1853,1068.9277 0 0 1 20.82655,21.569349 l -7.71339,1.432981 c -0.08126,0.02325 -0.08514,0.008 -0.03865,-0.116201"
     style="fill:#c83771;fill-opacity:1;stroke-width:0.0525944"
     id="path1-3" />
</svg>
