<?xml version="1.0" encoding="UTF-8" standalone="no"?>
<svg
   inkscape:version="1.4 (unknown)"
   sodipodi:docname="qreator.svg"
   id="svg29"
   viewBox="0 0 16.933 16.933"
   version="1.1"
   height="64"
   width="64"
   xmlns:inkscape="http://www.inkscape.org/namespaces/inkscape"
   xmlns:sodipodi="http://sodipodi.sourceforge.net/DTD/sodipodi-0.dtd"
   xmlns:xlink="http://www.w3.org/1999/xlink"
   xmlns="http://www.w3.org/2000/svg"
   xmlns:svg="http://www.w3.org/2000/svg"
   xmlns:rdf="http://www.w3.org/1999/02/22-rdf-syntax-ns#"
   xmlns:cc="http://creativecommons.org/ns#"
   xmlns:dc="http://purl.org/dc/elements/1.1/">
  <sodipodi:namedview
     inkscape:current-layer="svg29"
     inkscape:window-maximized="1"
     inkscape:window-y="0"
     inkscape:window-x="0"
     inkscape:cy="32.562128"
     inkscape:cx="14.056875"
     inkscape:zoom="8.4300386"
     showgrid="false"
     id="namedview31"
     inkscape:window-height="998"
     inkscape:window-width="1920"
     inkscape:pageshadow="2"
     inkscape:pageopacity="0"
     guidetolerance="10"
     gridtolerance="10"
     objecttolerance="10"
     borderopacity="1"
     bordercolor="#666666"
     pagecolor="#ffffff"
     inkscape:showpageshadow="2"
     inkscape:pagecheckerboard="0"
     inkscape:deskcolor="#d1d1d1" />
  <metadata
     id="metadata2">
    <rdf:RDF>
      <cc:Work
         rdf:about="">
        <dc:format>image/svg+xml</dc:format>
        <dc:type
           rdf:resource="http://purl.org/dc/dcmitype/StillImage" />
      </cc:Work>
    </rdf:RDF>
  </metadata>
  <defs
     id="defs15">
    <filter
       color-interpolation-filters="sRGB"
       height="1.048"
       width="1.048"
       y="-.024"
       x="-.024"
       id="filter2761">
      <feGaussianBlur
         id="feGaussianBlur4"
         stdDeviation="0.14552168" />
    </filter>
    <linearGradient
       gradientUnits="userSpaceOnUse"
       gradientTransform="translate(23.198642,0.14045)"
       y2="1.1082"
       y1="15.601"
       x2="15.644"
       x1="1.4377"
       id="linearGradient4673">
      <stop
         id="stop7"
         offset="0"
         stop-color="#dc2828" />
      <stop
         id="stop9"
         offset="1"
         stop-color="#fa4141" />
    </linearGradient>
    <filter
       color-interpolation-filters="sRGB"
       height="1.168"
       width="1.168"
       y="-.084"
       x="-.084"
       id="filter909">
      <feGaussianBlur
         id="feGaussianBlur12"
         stdDeviation="0.27781045" />
    </filter>
    <filter
       color-interpolation-filters="sRGB"
       height="1.048"
       width="1.048"
       y="-.024"
       x="-.024"
       id="filter2761-675">
      <feGaussianBlur
         id="feGaussianBlur4-3"
         stdDeviation="0.14552168" />
    </filter>
    <linearGradient
       gradientUnits="userSpaceOnUse"
       gradientTransform="translate(31.146088,0.14045)"
       y2="1.1082"
       y1="14.536"
       x2="15.644"
       x1="2.2495"
       id="linearGradient4673-562">
      <stop
         id="stop7-9"
         offset="0"
         stop-color="#ff5050" />
      <stop
         id="stop9-1"
         offset=".47728"
         stop-color="#fa4b5a" />
      <stop
         id="stop11"
         offset="1"
         stop-color="#ff7864" />
    </linearGradient>
    <linearGradient
       gradientUnits="userSpaceOnUse"
       gradientTransform="matrix(0.32664815,0,0,0.32664815,0.63054332,0.95372475)"
       y2="4"
       y1="44"
       x2="0"
       id="linearGradient890">
      <stop
         id="stop4"
         offset="0"
         stop-color="#FFB900" />
      <stop
         id="stop6"
         offset="1"
         stop-color="#ff0" />
    </linearGradient>
    <filter
       color-interpolation-filters="sRGB"
       height="1.048"
       width="1.048"
       y="-.024"
       x="-.024"
       id="filter2761-67">
      <feGaussianBlur
         id="feGaussianBlur9"
         stdDeviation="0.14552168" />
    </filter>
    <linearGradient
       gradientUnits="userSpaceOnUse"
       gradientTransform="matrix(3.7796,0,0,3.7796,66.443573,0.53068)"
       y2="1.1082"
       y1="15.601"
       x2="15.644"
       x1="1.4377"
       id="linearGradient4673-5">
      <stop
         id="stop12"
         offset="0"
         stop-color="#dc2828" />
      <stop
         id="stop14"
         offset="1"
         stop-color="#fa4141" />
    </linearGradient>
    <linearGradient
       gradientTransform="scale(0.26457812)"
       gradientUnits="userSpaceOnUse"
       y2="9.67"
       y1="54.592"
       x2="34.134"
       x1="34.134"
       id="linearGradient915">
      <stop
         id="stop17"
         offset="0"
         stop-color="#ffb900" />
      <stop
         id="stop19"
         offset="1"
         stop-color="#ff0" />
    </linearGradient>
    <linearGradient
       id="linearGradient890-3"
       x2="0"
       y1="44"
       y2="4"
       gradientTransform="matrix(1.2346,0,0,1.2346,3.1419,3.6047)"
       gradientUnits="userSpaceOnUse">
      <stop
         stop-color="#FFB900"
         offset="0"
         id="stop861" />
      <stop
         stop-color="#ff0"
         offset="1"
         id="stop863" />
    </linearGradient>
    <filter
       id="filter2761-6"
       x="-.024"
       y="-.024"
       width="1.048"
       height="1.048"
       color-interpolation-filters="sRGB">
      <feGaussianBlur
         stdDeviation="0.14552168"
         id="feGaussianBlur866" />
    </filter>
    <filter
       id="filter2761-3"
       x="-.024"
       y="-.024"
       width="1.048"
       height="1.048"
       color-interpolation-filters="sRGB">
      <feGaussianBlur
         stdDeviation="0.14552168"
         id="feGaussianBlur935" />
    </filter>
    <filter
       id="filter909-2"
       x="-.084"
       y="-.084"
       width="1.168"
       height="1.168"
       color-interpolation-filters="sRGB">
      <feGaussianBlur
         stdDeviation="0.27781045"
         id="feGaussianBlur943" />
    </filter>
    <linearGradient
       inkscape:collect="always"
       xlink:href="#linearGradient22063"
       id="linearGradient22065"
       x1="-14"
       y1="6"
       x2="-14"
       y2="-9.999999"
       gradientUnits="userSpaceOnUse"
       gradientTransform="matrix(0.95777462,0,0,0.95722393,21.865563,10.365973)" />
    <linearGradient
       inkscape:collect="always"
       id="linearGradient22063">
      <stop
         style="stop-color:#292f3a;stop-opacity:1;"
         offset="0"
         id="stop22059" />
      <stop
         style="stop-color:#535e75;stop-opacity:1;"
         offset="1"
         id="stop22061" />
    </linearGradient>
    <filter
       inkscape:collect="always"
       style="color-interpolation-filters:sRGB"
       id="filter1057-3"
       x="-0.026999999"
       width="1.054"
       y="-0.026999999"
       height="1.054">
      <feGaussianBlur
         inkscape:collect="always"
         stdDeviation="0.61875"
         id="feGaussianBlur1059-6" />
    </filter>
    <linearGradient
       inkscape:collect="always"
       xlink:href="#linearGradient949"
       id="linearGradient1105"
       gradientUnits="userSpaceOnUse"
       gradientTransform="matrix(0.26884897,0,0,0.251901,-0.14723894,-0.08791863)"
       x1="3"
       y1="60"
       x2="60"
       y2="4" />
    <linearGradient
       inkscape:collect="always"
       id="linearGradient949">
      <stop
         style="stop-color:#bf616a;stop-opacity:1;"
         offset="0"
         id="stop945" />
      <stop
         style="stop-color:#bf616a;stop-opacity:1;"
         offset="1"
         id="stop947" />
    </linearGradient>
  </defs>
  <circle
     id="circle21"
     stroke-width=".26458"
     fill="#5e4aa6"
     r="0"
     cy="-335.4"
     cx="-306.19" />
  <circle
     id="circle23"
     stroke-width=".26458"
     fill-rule="evenodd"
     fill="#5e4aa6"
     r="0"
     cy="-.5775"
     cx="-15.281" />
  <g
     id="g30"
     fill="#5e4aa6"
     transform="scale(0.26457812)">
    <circle
       id="circle24"
       r="0"
       cy="-1241.6"
       cx="-1248.7" />
    <circle
       id="circle26"
       r="0"
       cy="-1301.8"
       cx="-1140.3" />
    <circle
       id="circle28"
       r="0"
       cy="-1246"
       cx="-1158.1" />
  </g>
  <circle
     id="circle36"
     fill="#5e4aa6"
     r="0"
     cy="-335.40567"
     cx="-306.19626"
     style="stroke-width:0.264578" />
  <circle
     id="circle38"
     fill-rule="evenodd"
     fill="#5e4aa6"
     r="0"
     cy="-0.57754755"
     cx="-15.280974"
     style="stroke-width:0.264578" />
  <path
     d="m 0.81487106,2.7081824 c 0,-1.057349 0.85762104,-1.91444803 1.91555004,-1.91444803 H 14.223715 c 1.057956,0 1.91555,0.85709903 1.91555,1.91444803 V 14.194867 c 0,1.057349 -0.857594,1.914447 -1.91555,1.914447 H 2.7304211 c -1.057929,0 -1.91555004,-0.857098 -1.91555004,-1.914447 z"
     id="path736"
     style="fill:#606c86;fill-opacity:1;stroke-width:0.9575" />
  <path
     d="m 0.79452206,2.5885294 c 0,-0.991205 0.85762104,-1.79479503 1.91555004,-1.79479503 H 14.203367 c 1.057956,0 1.915549,0.80359003 1.915549,1.79479503 V 13.357296 c 0,0.991206 -0.857593,1.794794 -1.915549,1.794794 H 2.7100721 c -1.057929,0 -1.91555004,-0.803588 -1.91555004,-1.794794 z"
     id="path738"
     style="fill:url(#linearGradient22065);fill-opacity:1;stroke-width:0.9575" />
  <rect
     style="opacity:0.3;fill:#141414;fill-opacity:1;stroke-width:2.74436;stroke-linecap:round;filter:url(#filter1057-3)"
     id="rect1055-3"
     width="55"
     height="55"
     x="4.4850001"
     y="4.6285"
     ry="15"
     transform="matrix(0.26421363,0,0,0.26406173,0.00188106,0.00154937)" />
  <rect
     ry="1.701614"
     y="0.79373497"
     x="0.79373437"
     height="14.358357"
     width="15.324391"
     id="rect1045-5"
     style="fill:url(#linearGradient1105);fill-opacity:1;stroke-width:0.740157;stroke-linecap:round"
     rx="1.7234654" />
  <g
     id="g1"
     transform="matrix(0.23150585,0,0,0.22678125,15.784109,4.4252184)"
     style="fill:#233143;fill-opacity:1">
    <path
       style="opacity:0.2;fill:#233143;fill-opacity:1"
       d="m -55.608745,-3.763158 v 13.5 h 16 v -16 H -53.32303 Z m 20,-2.5 v 8 h 4 v -4 h 4 v -4 h -4 z m 4,8 v 8 h 4 v -8 z m 0,8 h -4 v 4 h 4 z m 0,4 v 4 h 4 v -4 z m 4,4 v 4 h 8 v -8 h -4 v 4 z m 8,4 v 4 h 4 v 4 h 4 v -8 z m 8,0 h 4.0000004 v -4 -4 h -8.0000004 v 4 h 4 z m -8,4 h -4 v 4 h 4 z m -4,4 h -4 v 4 h 4 z m 0,4 v 4 h 4 v -4 z m 4,4 v 4 h 4 v -4 z m 4,0 h 8.0000004 v -4 h -8.0000004 z m -12,-4 h -8 v 4 h 4 v 4 h 4 v -4 z m 0,-4 v -8 h -8 v 4 h 4 v 4 z m -8,-8 v -8 h -4 v 4 h -4 v 4 z m -8,-4 v -4 h -4 -8 v 8 h 8 v -4 z m 20,-24 v 16 h 16.0000004 l 5e-7,-13.5 -3.4285719,-2.5 z m -28,4 h 8 v 8 h -8 z m 32,0 h 8 v 8 h -8 z m -30,2 v 4 h 4 v -4 z m 32,0 v 4 h 4 v -4 z m -38,26 v 12.5 c 0,2.333333 1.142858,3.5 3.428572,3.5 h 12.571428 v -16 z m 4,4 h 8 v 8 h -8 z m 2,2 v 4 h 4 v -4 z"
       id="path3-3"
       sodipodi:nodetypes="cccccccccccccccccccccccccccccccccccccccccccccccccccccccccccccccccccccccccccccccccccccccccccccccccccccccccccccccccccccccccccccccccccccccccccccccccccc" />
    <path
       style="fill:#233143;fill-opacity:1"
       d="m -55.608745,-3.763158 v 12.5 h 16 v -16 h -12.571428 c -2.285714,0 -3.428572,1.1666667 -3.428572,3.5 z m 20,-3.5 v 8 h 4 v -4 h 4 v -4 h -4 z m 4,8 v 8 h 4 v -8 z m 0,8 h -4 v 4 h 4 z m 0,4 v 4 h 4 v -4 z m 4,4 v 4 h 8 v -8 h -4 v 4 z m 8,4 v 4 h 4 v 4 h 4 v -8 z m 8,0 h 4.0000004 v -8 h -8.0000004 v 4 h 4 z m -8,4 h -4 v 4 h 4 z m -4,4 h -4 v 4 h 4 z m 0,4 v 4 h 4 v -4 z m 4,4 v 4 h 4 v -4 z m 4,0 h 8.0000004 v -4 h -8.0000004 z m -12,-4 h -8 v 4 h 4 v 4 h 4 v -4 z m 0,-4 v -8 h -8 v 4 h 4 v 4 z m -8,-8 v -8 h -4 v 4 h -4 v 4 z m -8,-4 v -4 h -12 v 8 h 8 v -4 z m 20,-24 v 16 h 16.0000004 v -12.5 c 5e-7,-2.3333333 -1.1428566,-3.5 -3.4285714,-3.5 z m -28,4 h 8 v 8 h -8 z m 32,0 h 8 v 8 h -8 z m -30,2 v 4 h 4 v -4 z m 32,0 v 4 h 4 v -4 z m -38,26 v 12.333333 c 0,2.333334 1.142858,3.5 3.428572,3.666667 h 12.571428 v -16 z m 4,4 h 8 v 8 h -8 z m 2,2 v 4 h 4 v -4 z"
       id="path4-6"
       sodipodi:nodetypes="cccccccccccccccccccccccccccccccccccccccccccccccccccccccccccccccccccccccccccccccccccccccccccccccccccccccccccccccccccccccccccccccccccccccccccccccccc" />
  </g>
</svg>
