<?xml version="1.0" encoding="UTF-8" standalone="no"?>
<svg
   width="64"
   height="64"
   version="1.1"
   id="svg324"
   sodipodi:docname="RealTimeSync.svg"
   inkscape:version="1.4 (unknown)"
   xmlns:inkscape="http://www.inkscape.org/namespaces/inkscape"
   xmlns:sodipodi="http://sodipodi.sourceforge.net/DTD/sodipodi-0.dtd"
   xmlns:xlink="http://www.w3.org/1999/xlink"
   xmlns="http://www.w3.org/2000/svg"
   xmlns:svg="http://www.w3.org/2000/svg">
  <defs
     id="defs328">
    <linearGradient
       inkscape:collect="always"
       xlink:href="#linearGradient22063"
       id="linearGradient22065"
       x1="-14"
       y1="6"
       x2="-14"
       y2="-9.999999"
       gradientUnits="userSpaceOnUse"
       gradientTransform="matrix(3.6250002,0,0,3.6250002,82.750004,39.249999)" />
    <linearGradient
       inkscape:collect="always"
       id="linearGradient22063">
      <stop
         style="stop-color:#b64954;stop-opacity:1;"
         offset="0"
         id="stop22059" />
      <stop
         style="stop-color:#b90000;stop-opacity:1;"
         offset="1"
         id="stop22061" />
    </linearGradient>
    <linearGradient
       xlink:href="#linearGradient4801"
       id="linearGradient4809"
       x1="21.974001"
       y1="13.094"
       x2="39.379002"
       y2="30.499001"
       gradientUnits="userSpaceOnUse"
       gradientTransform="matrix(1.512535,0,0,1.512535,0.23675899,-4.728635)" />
    <linearGradient
       id="linearGradient4801">
      <stop
         style="stop-color:#000000;stop-opacity:1;"
         offset="0"
         id="stop176-3" />
      <stop
         style="stop-color:#000000;stop-opacity:0;"
         offset="1"
         id="stop178" />
    </linearGradient>
    <linearGradient
       xlink:href="#linearGradient4801"
       id="linearGradient4811"
       x1="21.948999"
       y1="22.740999"
       x2="34.498001"
       y2="35.291"
       gradientUnits="userSpaceOnUse"
       gradientTransform="matrix(1.512535,0,0,1.512535,0.23675899,-4.728635)" />
    <linearGradient
       inkscape:collect="always"
       xlink:href="#linearGradient1"
       id="linearGradient3"
       x1="27.924057"
       y1="43.999931"
       x2="28.032005"
       y2="12.000811"
       gradientUnits="userSpaceOnUse"
       gradientTransform="matrix(1.187299,0,0,1.1875004,-1.2443644,-1.2500068)" />
    <linearGradient
       id="linearGradient1"
       inkscape:collect="always">
      <stop
         style="stop-color:#cccccc;stop-opacity:1"
         offset="0"
         id="stop1" />
      <stop
         style="stop-color:#f9f9f9;stop-opacity:1"
         offset="1"
         id="stop3" />
    </linearGradient>
  </defs>
  <sodipodi:namedview
     id="namedview326"
     pagecolor="#ffffff"
     bordercolor="#666666"
     borderopacity="1.0"
     inkscape:showpageshadow="2"
     inkscape:pageopacity="0.0"
     inkscape:pagecheckerboard="0"
     inkscape:deskcolor="#d1d1d1"
     showgrid="false"
     inkscape:zoom="3.6875"
     inkscape:cx="47.864407"
     inkscape:cy="99.118644"
     inkscape:window-width="1920"
     inkscape:window-height="996"
     inkscape:window-x="0"
     inkscape:window-y="0"
     inkscape:window-maximized="1"
     inkscape:current-layer="svg324" />
  <path
     d="m 2.999999,10.25 c 0,-4.004175 3.24594,-7.25 7.25,-7.25 h 43.500005 c 4.00417,0 7.25,3.245825 7.25,7.25 v 43.5 c 0,4.004173 -3.24583,7.25 -7.25,7.25 H 10.249999 c -4.00406,0 -7.25,-3.245827 -7.25,-7.25 z"
     id="path736"
     style="fill:#606c86;fill-opacity:1;stroke-width:3.625" />
  <path
     d="M 2.999999,9.796875 C 2.999999,6.043188 6.245939,3 10.249999,3 h 43.500005 c 4.00417,0 7.25,3.043188 7.25,6.796875 v 40.781249 c 0,3.753693 -3.24583,6.796876 -7.25,6.796876 H 10.249999 c -4.00406,0 -7.25,-3.043183 -7.25,-6.796876 z"
     id="path738"
     style="fill:url(#linearGradient22065);fill-opacity:1;stroke-width:3.625" />
  <path
     d="m 32.038,13.000963 c 3.997306,0.0084 8.050596,1.254785 11.216727,3.721118 2.225772,2.564563 -2.015314,5.311113 -3.925401,2.810433 C 33.579195,16.052582 25.4697,17.277859 21.1434,22.480503 c -2.301777,2.581804 -3.598599,6.027083 -3.583399,9.485676 h 3.799995 L 15.280002,41.087727 9.2,31.966179 h 3.800003 C 12.878688,23.708542 18.816924,15.852907 26.789612,13.71431 28.499617,13.245076 30.262231,12.98196 32.038,13.000963 Z M 48.720006,22.882635 54.8,32.004184 h -3.799993 c 0.107675,8.356889 -5.982075,16.300386 -14.094054,18.326409 -5.473755,1.528891 -11.663231,0.413256 -16.161694,-3.084507 -2.295353,-2.607388 2.004644,-5.327472 3.932554,-2.803848 5.571242,3.380664 13.372933,2.308456 17.770856,-2.520125 2.545995,-2.623901 4.010455,-6.260836 3.991456,-9.918224 h -3.799996 l 6.079995,-9.121545 z"
     id="path318"
     style="fill:url(#linearGradient3);fill-opacity:1;stroke-width:1.18745" />
</svg>
