<?xml version="1.0" encoding="UTF-8" standalone="no"?>
<svg
   width="64"
   height="64"
   version="1.1"
   id="svg23117"
   sodipodi:docname="sage-notebook.svg"
   inkscape:version="1.2.1 (9c6d41e410, 2022-07-14)"
   xmlns:inkscape="http://www.inkscape.org/namespaces/inkscape"
   xmlns:sodipodi="http://sodipodi.sourceforge.net/DTD/sodipodi-0.dtd"
   xmlns:xlink="http://www.w3.org/1999/xlink"
   xmlns="http://www.w3.org/2000/svg"
   xmlns:svg="http://www.w3.org/2000/svg">
  <sodipodi:namedview
     id="namedview23119"
     pagecolor="#ffffff"
     bordercolor="#666666"
     borderopacity="1.0"
     inkscape:showpageshadow="2"
     inkscape:pageopacity="0.0"
     inkscape:pagecheckerboard="0"
     inkscape:deskcolor="#d1d1d1"
     showgrid="false"
     inkscape:zoom="4.9166667"
     inkscape:cx="24.508474"
     inkscape:cy="24.508474"
     inkscape:window-width="1920"
     inkscape:window-height="1002"
     inkscape:window-x="0"
     inkscape:window-y="0"
     inkscape:window-maximized="1"
     inkscape:current-layer="svg23117" />
  <defs
     id="defs23105">
    <linearGradient
       id="a"
       y1="547.63397"
       y2="499.67899"
       x2="388.86499"
       gradientUnits="userSpaceOnUse"
       gradientTransform="translate(-453.04388,-539.81483)"
       x1="428.81601">
      <stop
         stop-color="#2a2c2f"
         id="stop23090" />
      <stop
         offset="1"
         stop-color="#536161"
         id="stop23092" />
    </linearGradient>
    <linearGradient
       id="b"
       y1="44"
       y2="12"
       x2="14"
       gradientUnits="userSpaceOnUse"
       x1="36"
       gradientTransform="translate(-68.473879,-40.014831)">
      <stop
         stop-color="#536161"
         style="stop-color:#bfc9c9;stop-opacity:1"
         id="stop23095" />
      <stop
         offset="1"
         stop-color="#f4f5f5"
         style="stop-color:#fbfbfb;stop-opacity:1"
         id="stop23097" />
    </linearGradient>
    <linearGradient
       id="c"
       y1="527.01398"
       x1="406.50101"
       y2="539.82501"
       x2="419.974"
       gradientUnits="userSpaceOnUse"
       gradientTransform="translate(-453.04388,-539.81483)">
      <stop
         stop-color="#292c2f"
         id="stop23100" />
      <stop
         offset="1"
         stop-opacity="0"
         id="stop23102" />
    </linearGradient>
    <linearGradient
       inkscape:collect="always"
       xlink:href="#linearGradient22063"
       id="linearGradient22065"
       x1="-14"
       y1="6"
       x2="-14"
       y2="-9.999999"
       gradientUnits="userSpaceOnUse"
       gradientTransform="matrix(3.6250002,0,0,3.6250002,82.750005,39.249999)" />
    <linearGradient
       inkscape:collect="always"
       id="linearGradient22063">
      <stop
         style="stop-color:#5e3f59;stop-opacity:1;"
         offset="0"
         id="stop22059" />
      <stop
         style="stop-color:#bd9bb7;stop-opacity:1;"
         offset="1"
         id="stop22061" />
    </linearGradient>
    <linearGradient
       gradientUnits="userSpaceOnUse"
       y2="44"
       x2="-16"
       y1="4"
       x1="-56"
       id="linearGradient4702"
       xlink:href="#m"
       gradientTransform="matrix(1.4,0,0,1.4,82.5,-3.1779996)" />
    <linearGradient
       gradientUnits="userSpaceOnUse"
       x2="35"
       y2="32"
       x1="10"
       y1="7"
       id="m"
       gradientTransform="translate(85,55)">
      <stop
         id="stop27"
         stop-color="#383e51" />
      <stop
         id="stop29"
         stop-opacity="0"
         stop-color="#655c6f"
         offset="1" />
    </linearGradient>
    <linearGradient
       id="b-3"
       y1="13.1"
       x1="19"
       y2="44"
       x2="44"
       gradientUnits="userSpaceOnUse"
       gradientTransform="matrix(1.3750215,0,0,1.3750215,-1.002483,-0.9970788)">
      <stop
         stop-color="#292c2f"
         id="stop154" />
      <stop
         offset="1"
         stop-color="#292c2f"
         stop-opacity="0"
         id="stop156" />
    </linearGradient>
  </defs>
  <path
     d="M 3,10.25 C 3,6.245825 6.245938,3 10.25,3 h 43.500005 c 4.00417,0 7.25,3.245825 7.25,7.25 v 43.5 c 0,4.004173 -3.24583,7.25 -7.25,7.25 H 10.25 C 6.245938,61 3,57.754173 3,53.75 Z"
     id="path736"
     style="fill:#606c86;fill-opacity:1;stroke-width:3.625" />
  <path
     d="M 3,9.796875 C 3,6.043188 6.245938,3 10.25,3 h 43.500005 c 4.00417,0 7.25,3.043188 7.25,6.796875 v 40.781249 c 0,3.753693 -3.24583,6.796876 -7.25,6.796876 H 10.25 C 6.245938,57.375 3,54.331817 3,50.578124 Z"
     id="path738"
     style="fill:url(#linearGradient22065);fill-opacity:1;stroke-width:3.625" />
  <path
     style="opacity:0.99;fill:#ecf0f1;fill-opacity:1;stroke:none;stroke-width:1.73086"
     d="m 24.650714,9.487267 c -0.937884,0 -1.695976,0.753899 -1.695976,1.684756 0,0.366217 0.139367,0.701833 0.339196,0.978267 l -4.239941,4.836959 c -0.169483,-0.0448 -0.325192,-0.108645 -0.508791,-0.108645 -1.140563,0 -2.091708,0.933146 -2.091708,2.065188 0,0.04302 0.054,0.06675 0.05676,0.108682 l -3.731157,2.445627 c -0.275017,-0.190348 -0.600357,-0.326068 -0.961032,-0.326068 -0.937886,0 -1.695972,0.753881 -1.695972,1.684775 0,0.56748 0.301831,1.053214 0.734888,1.358681 L 10.17862,36.824136 c -0.4133201,0.224208 -0.6784061,0.695217 -0.6784061,1.19564 0,0.729722 0.6215861,1.304354 1.3567671,1.304354 0.03903,0 0.07514,0.002 0.112922,0 l 9.271337,9.402134 c -8.31e-4,0.01902 0,0.03514 0,0.05424 0,0.729708 0.565055,1.358672 1.300233,1.358672 0.260812,0 0.529559,-0.08879 0.73494,-0.217403 l 5.087925,2.663051 c -0.009,0.07585 -0.05667,0.138788 -0.05667,0.217391 0,0.930896 0.758095,1.684781 1.695963,1.684781 0.8781,0 1.550957,-0.673386 1.63944,-1.521756 l 13.567806,-3.967351 c 0.308156,0.426259 0.844388,0.70651 1.413308,0.70651 0.937874,0 1.695976,-0.753871 1.695976,-1.684783 0,-0.393558 -0.167844,-0.745745 -0.395703,-1.032604 l 5.87936,-12.880385 c 0.937847,0 1.695973,-0.753867 1.695973,-1.684776 0,-0.816785 -0.579722,-1.475753 -1.356777,-1.630436 l -1.865596,-6.141261 c 0.292681,-0.242382 0.508815,-0.570365 0.508815,-0.978277 0,-0.729698 -0.621628,-1.304347 -1.356786,-1.304347 -0.0628,0 -0.109144,0.04592 -0.169642,0.0542 L 41.7234,12.095665 c 0.01219,-0.07053 0.05656,-0.143853 0.05656,-0.217368 0,-0.729738 -0.621588,-1.304375 -1.356769,-1.304375 -0.437821,0 -0.774965,0.21971 -1.017596,0.543483 L 26.233527,10.628288 C 26.001977,9.970829 25.392028,9.487 24.650639,9.487 Z m 1.58291,2.282593 12.945938,0.489118 c 0.0853,0.295146 0.261436,0.534942 0.508795,0.706525 L 39.349154,14.4329 c -0.605812,0.140493 -1.086801,0.546454 -1.356783,1.086956 l -14.472316,1.739109 0.961059,-4.456495 c 0.06352,0.0058 0.103705,0.0542 0.169639,0.0542 0.722404,0 1.337529,-0.455818 1.582921,-1.086966 z m 14.754974,1.304339 8.310277,10.054301 c -0.08697,0.175687 -0.169643,0.334421 -0.169643,0.543473 0,0.364885 0.154685,0.684819 0.395733,0.923933 l -0.678388,1.902159 -7.236153,-9.130388 c 0.158888,-0.290474 0.282662,-0.624502 0.282662,-0.978272 0,-0.886087 -0.563652,-1.616043 -1.356773,-1.902158 l 0.282642,-1.358683 c 0.0584,-0.01877 0.115366,-0.02776 0.169643,-0.0542 z m -17.185881,0.271739 -0.90452,3.967384 -2.770074,0.326082 c -0.01529,-0.01994 -0.03934,-0.0351 -0.05658,-0.0542 l 3.731133,-4.239125 z m 14.246207,4.510868 -4.183409,16.195574 c -0.130914,0.02975 -0.273139,0.05997 -0.395732,0.108668 L 22.728607,22.041541 27.76,21.49808 c 0.225918,0.410187 0.682971,0.706512 1.187192,0.706512 0.735158,0 1.300236,-0.628981 1.300236,-1.358696 0,-0.100634 -0.0351,-0.177299 -0.05665,-0.271764 l 7.236181,-2.66299 0.621839,-0.0542 z m -3.109307,0.326059 -5.03139,1.847832 c -0.244151,-0.290492 -0.550097,-0.489135 -0.961035,-0.489135 -0.735209,0 -1.356785,0.574635 -1.356785,1.304342 0,0.018 -6.85e-4,0.03674 0,0.0542 l -4.974859,0.59786 0.395735,-1.956542 11.928334,-1.358679 z m 5.370591,0.271746 7.858019,9.99997 -1.639441,4.56519 -9.836637,2.282631 c -0.145213,-0.265435 -0.33869,-0.454162 -0.565353,-0.6522 z m -17.977338,1.195646 -0.339194,1.576087 -1.243712,-1.413037 1.582906,-0.163016 z m -5.370581,0.543492 c 0.100336,0.120822 0.213891,0.230904 0.339212,0.326081 l -0.282679,1.57608 -3.561533,0.434788 c -0.002,-0.018 0.002,-0.03658 0,-0.0542 z m 1.469847,0.76087 c 0.03855,10e-4 0.07394,0 0.112928,0 0.03903,0 0.07491,10e-4 0.11286,0 l 0.791454,0.869549 -1.187198,0.162961 0.169643,-1.032611 z m 1.526386,1.413039 1.469836,1.630407 -0.678394,2.98912 c -0.707252,0.0314 -1.243708,0.59467 -1.243708,1.304364 0,0.411685 0.211413,0.735929 0.508778,0.978244 l -4.466049,6.739122 2.600499,-13.423877 z m -3.052765,0.326091 -2.826607,14.619502 c -0.50117,0.09956 -0.894581,0.436672 -1.130679,0.869537 l -0.791435,-0.162971 c 0,-0.547288 -0.313672,-1.049419 -0.791458,-1.250005 l 0.678376,-12.28255 c 0.751049,-0.102575 1.31005,-0.667588 1.413335,-1.413044 z m 4.974864,1.902157 10.062791,11.249944 c -0.01935,0.07041 -0.04339,0.144805 -0.05676,0.217385 L 15.605281,37.802376 C 15.50027,37.698101 15.395847,37.604883 15.266085,37.530633 l 5.200998,-7.989099 c 0.11152,0.03017 0.218115,0.0542 0.339198,0.0542 0.735182,0 1.356783,-0.574619 1.356783,-1.304327 0,-0.521752 -0.349064,-0.9809 -0.791461,-1.195661 l 0.508793,-2.499975 z m 28.153173,0.326084 c 0.03539,0.009 0.0766,-0.008 0.112939,0 l 1.526396,5.217358 -2.374389,-3.097823 0.734918,-2.119535 z m -1.469841,4.076072 2.374369,2.989099 -3.731151,0.869572 z m 2.543957,4.67388 -5.370598,11.684745 0.112922,-7.28257 c 0.56757,-0.115347 1.017586,-0.598206 1.017586,-1.195647 0,-0.484426 -0.326178,-0.884189 -0.73492,-1.086958 l 0.39572,-1.032623 4.579136,-1.086947 z m -5.200991,1.250017 -0.28266,0.706513 c -0.687921,0 -1.243726,0.56723 -1.243726,1.249998 0,0.57031 0.375454,1.052961 0.904514,1.195647 l -0.169641,8.31519 c -0.414794,0.126792 -0.749134,0.448213 -0.961046,0.815212 l -7.405744,-1.630448 c 0,-0.729686 -0.621617,-1.304335 -1.356797,-1.304335 -0.715709,0 -1.326359,0.547049 -1.356777,1.250008 l -1.809046,0.434769 2.261295,-6.847788 c 1.23703,-0.0272 2.272631,-0.946669 2.48745,-2.119583 l 8.932101,-2.065183 z m -13.737391,2.826047 c 0.155209,0.283582 0.374564,0.555053 0.621851,0.76089 l -2.600492,7.934754 -5.427123,1.358683 -8.762529,-8.206479 c 0.0122,-0.03297 0.04554,-0.07473 0.0567,-0.108598 l 16.111767,-1.739143 z m -19.616757,1.413049 0.226107,0.0542 c 0.009,0.06717 -0.0182,0.153319 0,0.217399 l -0.226107,-0.271769 z m 1.356767,1.358708 c 0.160784,0.04984 0.331343,0.108644 0.508801,0.108644 0.03782,0 0.07575,10e-4 0.112873,0 l 7.40574,6.902145 c -0.116562,-0.03302 -0.268478,-0.05424 -0.395715,-0.05424 -0.260817,0 -0.473006,0.08877 -0.678371,0.217395 l -6.953525,-7.17389 z M 34.148149,46.0632 c 0.190452,0.498583 0.674695,0.815239 1.243741,0.815239 0.551386,0 1.041626,-0.286649 1.243701,-0.76089 l 6.444715,1.413048 -12.550228,3.641295 1.526384,-4.619559 z m -4.126829,1.032621 -1.356804,4.076071 c -0.07491,0.01374 -0.155216,0.02978 -0.226128,0.05426 L 25.21603,48.237039 Z m -6.783933,1.630422 0.848001,0.815222 -1.187191,-0.652181 c 0.001,-0.03448 0,-0.07352 0,-0.108667 z"
     id="path167" />
</svg>
