<?xml version="1.0" encoding="UTF-8" standalone="no"?>
<svg
   width="64"
   height="64"
   viewBox="0 0 64 64"
   version="1.1"
   id="svg52"
   sodipodi:docname="steam.svg"
   inkscape:version="1.2.1 (9c6d41e410, 2022-07-14)"
   xmlns:inkscape="http://www.inkscape.org/namespaces/inkscape"
   xmlns:sodipodi="http://sodipodi.sourceforge.net/DTD/sodipodi-0.dtd"
   xmlns:xlink="http://www.w3.org/1999/xlink"
   xmlns="http://www.w3.org/2000/svg"
   xmlns:svg="http://www.w3.org/2000/svg">
  <sodipodi:namedview
     id="namedview54"
     pagecolor="#a4a4a4"
     bordercolor="#eeeeee"
     borderopacity="1"
     inkscape:pageshadow="0"
     inkscape:pageopacity="0"
     inkscape:pagecheckerboard="0"
     showgrid="false"
     inkscape:zoom="5.2604167"
     inkscape:cx="36.40396"
     inkscape:cy="10.930693"
     inkscape:window-width="1920"
     inkscape:window-height="1002"
     inkscape:window-x="0"
     inkscape:window-y="0"
     inkscape:window-maximized="1"
     inkscape:current-layer="svg52"
     inkscape:showpageshadow="2"
     inkscape:deskcolor="#c9c9c9" />
  <defs
     id="defs32">
    <linearGradient
       xlink:href="#linearGradient4393"
       id="linearGradient4399"
       x1="424.44101"
       y1="502.85001"
       x2="440.87799"
       y2="529.57599"
       gradientUnits="userSpaceOnUse"
       gradientTransform="matrix(0.69224711,0,0,0.69224711,-215.22899,-357.13539)" />
    <linearGradient
       id="linearGradient4393">
      <stop
         style="stop-color:#000000;stop-opacity:1;"
         offset="0"
         id="stop3" />
      <stop
         style="stop-color:#000000;stop-opacity:0;"
         offset="1"
         id="stop5" />
    </linearGradient>
    <linearGradient
       xlink:href="#linearGradient4274"
       id="linearGradient4217"
       gradientUnits="userSpaceOnUse"
       gradientTransform="matrix(0.69224711,0,0,0.69224711,-199.3073,1639.8968)"
       x1="390.57101"
       y1="498.298"
       x2="442.57101"
       y2="498.298" />
    <linearGradient
       id="linearGradient4274">
      <stop
         offset="0"
         style="stop-color:#ffffff;stop-opacity:1;"
         id="stop9" />
      <stop
         offset="1"
         style="stop-color:#ffffff;stop-opacity:0.48760331"
         id="stop11" />
    </linearGradient>
    <linearGradient
       xlink:href="#linearGradient4227"
       id="linearGradient4225"
       gradientUnits="userSpaceOnUse"
       x1="396.57101"
       y1="498.798"
       x2="426.57101"
       y2="511.798"
       gradientTransform="matrix(0.69224711,0,0,0.69224711,-199.3073,-360.21214)" />
    <linearGradient
       id="linearGradient4227">
      <stop
         offset="0"
         style="stop-color:#f5f5f5;stop-opacity:1"
         id="stop21" />
      <stop
         offset="1"
         style="stop-color:#f9f9f9;stop-opacity:1"
         id="stop23" />
    </linearGradient>
    <style
       id="current-color-scheme"
       type="text/css">      .ColorScheme-Highlight {
        color:#3593e6;
      }
</style>
    <linearGradient
       id="d"
       gradientUnits="userSpaceOnUse"
       x1="4"
       x2="18.999998"
       xlink:href="#c"
       y1="5"
       y2="20"
       gradientTransform="matrix(2.7999616,0,0,2.7999616,1.095156,-2.3992319)" />
    <linearGradient
       id="c">
      <stop
         offset="0"
         stop-color="#292c2f"
         id="stop265" />
      <stop
         offset="1"
         stop-opacity="0"
         id="stop267" />
    </linearGradient>
    <linearGradient
       id="b"
       gradientUnits="userSpaceOnUse"
       x1="13.280776"
       x2="28.280775"
       xlink:href="#c"
       y1="5.088388"
       y2="20.088388"
       gradientTransform="matrix(2.7999616,0,0,2.7999616,1.095156,-2.3992319)" />
    <linearGradient
       id="c-3"
       gradientUnits="userSpaceOnUse"
       x1="5"
       x2="5"
       y1="20"
       y2="7"
       gradientTransform="matrix(3.4390082,0,0,3.4390082,-5.8290972,-4.015561)">
      <stop
         offset="0"
         stop-color="#999a9c"
         id="stop164" />
      <stop
         offset="1"
         stop-color="#f4f5f5"
         id="stop166" />
    </linearGradient>
    <linearGradient
       id="a"
       y1="44"
       y2="4"
       x2="0"
       gradientUnits="userSpaceOnUse">
      <stop
         stop-color="#7cbaf8"
         id="stop152" />
      <stop
         offset="1"
         stop-color="#f4fcff"
         id="stop154" />
    </linearGradient>
    <linearGradient
       id="b-3"
       y1="39"
       y2="9"
       gradientUnits="userSpaceOnUse"
       x2="0"
       gradientTransform="matrix(1.02857,0,0,1.2,-5.314,-2013.52)">
      <stop
         stop-color="#197cf1"
         id="stop157" />
      <stop
         offset="1"
         stop-color="#20bcfa"
         id="stop159" />
    </linearGradient>
    <linearGradient
       xlink:href="#c-7"
       id="d-6"
       y1="18.26"
       x1="14.59"
       y2="40.439999"
       x2="36.060001"
       gradientUnits="userSpaceOnUse" />
    <linearGradient
       id="c-7"
       y1="13.01"
       x1="25.040001"
       y2="30.26"
       x2="42.990002"
       gradientUnits="userSpaceOnUse">
      <stop
         stop-color="#292c2f"
         id="stop162" />
      <stop
         offset="1"
         stop-color="#292c2f"
         stop-opacity="0"
         id="stop164-5" />
    </linearGradient>
    <linearGradient
       id="a-3"
       y1="61.200001"
       x1="-162.28999"
       y2="505.06"
       gradientUnits="userSpaceOnUse"
       x2="737.63"
       gradientTransform="matrix(0.07988963,0.02495102,-0.02223702,0.07119775,13.078816,2.4457071)">
      <stop
         stop-color="#fafafa"
         id="stop272" />
      <stop
         offset="1"
         stop-color="#939393"
         id="stop274" />
    </linearGradient>
    <linearGradient
       id="b-6"
       y1="41"
       x1="41"
       y2="18.25"
       x2="21.129999"
       gradientUnits="userSpaceOnUse"
       gradientTransform="matrix(1.2224895,0,0,1.2224895,2.7878998,4.0691761)">
      <stop
         stop-color="#502ae3"
         id="stop277" />
      <stop
         offset="1"
         stop-color="#4db4f6"
         id="stop279" />
    </linearGradient>
    <linearGradient
       spreadMethod="reflect"
       id="a-36"
       x1="428.57001"
       x2="408.57001"
       gradientUnits="userSpaceOnUse"
       gradientTransform="matrix(1.1250004,0,0,1.1250004,-427.64144,-557.27525)">
      <stop
         stop-color="#2f3943"
         id="stop172" />
      <stop
         offset="1"
         stop-color="#808c9b"
         id="stop174" />
    </linearGradient>
    <linearGradient
       id="b-7"
       y1="-511.20001"
       x1="-395.07001"
       y2="-535.79999"
       x2="-419.67001"
       gradientUnits="userSpaceOnUse"
       gradientTransform="matrix(1.1250004,0,0,1.1250004,427.64142,557.27525)">
      <stop
         stop-color="#18222a"
         id="stop177" />
      <stop
         offset="1"
         stop-color="#566069"
         id="stop179" />
    </linearGradient>
    <linearGradient
       id="c-5"
       y1="-514"
       x1="-398.07001"
       y2="-533.13"
       x2="-417.20001"
       gradientUnits="userSpaceOnUse">
      <stop
         stop-color="#b97c1b"
         id="stop182" />
      <stop
         offset="1"
         stop-color="#dc8f16"
         id="stop184" />
    </linearGradient>
    <linearGradient
       xlink:href="#c-5"
       id="g"
       y1="-516.79999"
       x1="-401.07001"
       y2="-541.29999"
       x2="-425.57001"
       gradientUnits="userSpaceOnUse"
       gradientTransform="matrix(1.1250004,0,0,1.1250004,427.64142,557.27525)" />
    <linearGradient
       id="d-3"
       y1="536.87"
       x1="421.64001"
       y2="511.82001"
       gradientUnits="userSpaceOnUse"
       x2="396.59"
       gradientTransform="rotate(180,408.57,523.8)">
      <stop
         stop-color="#f39c12"
         id="stop187" />
      <stop
         offset="1"
         stop-color="#f5ab35"
         id="stop189" />
    </linearGradient>
    <linearGradient
       xlink:href="#d-3"
       id="e"
       y1="532.22998"
       x1="417"
       y2="508.73001"
       gradientUnits="userSpaceOnUse"
       x2="393.5"
       gradientTransform="matrix(-1.1250004,0,0,-1.1250004,491.64142,621.27527)" />
    <linearGradient
       xlink:href="#d-3"
       id="f"
       y1="529.62"
       x1="414.39999"
       y2="506.91"
       gradientUnits="userSpaceOnUse"
       x2="391.69"
       gradientTransform="matrix(-1.1250004,0,0,-1.1250004,491.64142,621.27527)" />
    <linearGradient
       id="b-67"
       y1="42"
       x1="42"
       y2="6"
       x2="6"
       gradientUnits="userSpaceOnUse"
       gradientTransform="matrix(1.0714267,0,0,1.0714267,5.985306,6.0733032)">
      <stop
         stop-color="#989a9b"
         id="stop2404" />
      <stop
         offset="1"
         stop-color="#f6f6f7"
         id="stop2406" />
    </linearGradient>
    <linearGradient
       id="a-5"
       y1="542.79999"
       y2="503.79999"
       x2="0"
       gradientUnits="userSpaceOnUse">
      <stop
         stop-color="#2a2c2f"
         id="stop2399" />
      <stop
         offset="1"
         stop-color="#424649"
         id="stop2401" />
    </linearGradient>
    <linearGradient
       xlink:href="#a-5"
       id="f-3"
       x1="391.57001"
       x2="461.20001"
       gradientUnits="userSpaceOnUse"
       gradientTransform="matrix(1.0714268,0,0,1.0714268,-392.86616,-561.15098)" />
    <linearGradient
       id="linearGradient2623"
       y1="542.79999"
       y2="503.79999"
       x2="0"
       gradientUnits="userSpaceOnUse">
      <stop
         stop-color="#2a2c2f"
         id="stop2619" />
      <stop
         offset="1"
         stop-color="#424649"
         id="stop2621" />
    </linearGradient>
    <linearGradient
       id="c-56"
       y1="523.79999"
       y2="549.79999"
       x2="0"
       gradientUnits="userSpaceOnUse"
       gradientTransform="matrix(0.70711,-0.70711,0.70711,0.70711,-635.28,-57.48)">
      <stop
         id="stop2409" />
      <stop
         offset="1"
         stop-opacity="0"
         id="stop2411" />
    </linearGradient>
    <linearGradient
       xlink:href="#a-5"
       id="e-2"
       y1="543.79999"
       x1="428.57001"
       y2="503.79999"
       x2="388.57001"
       gradientUnits="userSpaceOnUse"
       gradientTransform="matrix(1.0714267,0,0,1.0714267,-406.05328,-529.42577)" />
    <linearGradient
       id="linearGradient2634"
       y1="542.79999"
       y2="503.79999"
       x2="0"
       gradientUnits="userSpaceOnUse">
      <stop
         stop-color="#2a2c2f"
         id="stop2630" />
      <stop
         offset="1"
         stop-color="#424649"
         id="stop2632" />
    </linearGradient>
    <linearGradient
       xlink:href="#c-56"
       id="d-9"
       y1="520.94"
       x1="410.88"
       y2="532.63"
       x2="422.57001"
       gradientUnits="userSpaceOnUse"
       gradientTransform="matrix(1.0714267,0,0,1.0714267,-406.05328,-529.42577)" />
    <linearGradient
       id="linearGradient2641"
       y1="523.79999"
       y2="549.79999"
       x2="0"
       gradientUnits="userSpaceOnUse"
       gradientTransform="matrix(0.70711,-0.70711,0.70711,0.70711,-635.28,-57.48)">
      <stop
         id="stop2637" />
      <stop
         offset="1"
         stop-opacity="0"
         id="stop2639" />
    </linearGradient>
    <linearGradient
       id="b-36"
       y1="55.41"
       x1="41.528"
       y2="25.511"
       x2="24.264999"
       gradientUnits="userSpaceOnUse"
       gradientTransform="matrix(1.1476153,0,0,1.1476153,4.2035556,4.7445357)">
      <stop
         stop-color="#f7bb5d"
         id="stop217" />
      <stop
         offset="1"
         stop-color="#fce3bc"
         id="stop219" />
    </linearGradient>
    <linearGradient
       id="a-7"
       y1="542.79999"
       y2="503.79999"
       x2="0"
       gradientUnits="userSpaceOnUse">
      <stop
         stop-color="#f39c12"
         id="stop212" />
      <stop
         offset="1"
         stop-color="#f5ab35"
         id="stop214" />
    </linearGradient>
    <linearGradient
       xlink:href="#a-7"
       id="f-5"
       x1="391.57001"
       x2="461.20001"
       gradientUnits="userSpaceOnUse"
       gradientTransform="matrix(1.1476155,0,0,1.1476155,-423.60847,-600.73822)" />
    <linearGradient
       id="linearGradient544"
       y1="542.79999"
       y2="503.79999"
       x2="0"
       gradientUnits="userSpaceOnUse">
      <stop
         stop-color="#f39c12"
         id="stop540" />
      <stop
         offset="1"
         stop-color="#f5ab35"
         id="stop542" />
    </linearGradient>
    <linearGradient
       id="c-35"
       y1="523.79999"
       y2="549.79999"
       x2="0"
       gradientUnits="userSpaceOnUse"
       gradientTransform="matrix(0.70711,-0.70711,0.70711,0.70711,-635.28,-57.48)">
      <stop
         id="stop222" />
      <stop
         offset="1"
         stop-opacity="0"
         id="stop224" />
    </linearGradient>
    <linearGradient
       id="e-6"
       y1="543.79999"
       x1="428.57001"
       y2="503.79999"
       x2="388.57001"
       gradientUnits="userSpaceOnUse"
       gradientTransform="matrix(1.1476153,0,0,1.1476153,-437.13484,-568.83357)">
      <stop
         stop-color="#f39c12"
         id="stop228" />
      <stop
         offset="1"
         stop-color="#ffc35a"
         id="stop230" />
    </linearGradient>
    <linearGradient
       xlink:href="#c-35"
       id="d-2"
       y1="520.94"
       x1="410.88"
       y2="532.63"
       x2="422.57001"
       gradientUnits="userSpaceOnUse"
       gradientTransform="matrix(1.1476153,0,0,1.1476153,-437.13484,-568.83357)" />
    <linearGradient
       id="linearGradient558"
       y1="523.79999"
       y2="549.79999"
       x2="0"
       gradientUnits="userSpaceOnUse"
       gradientTransform="matrix(0.70711,-0.70711,0.70711,0.70711,-635.28,-57.48)">
      <stop
         id="stop554" />
      <stop
         offset="1"
         stop-opacity="0"
         id="stop556" />
    </linearGradient>
    <linearGradient
       xlink:href="#shadow-3"
       id="linearGradient4227-3"
       gradientUnits="userSpaceOnUse"
       gradientTransform="matrix(1.125,0,0,1.125,-13.26575,-1126.5888)"
       x1="21.475"
       y1="1035.158"
       x2="34.474998"
       y2="1048.158" />
    <linearGradient
       id="shadow-3">
      <stop
         style="stop-color:#31363b;stop-opacity:0.208"
         offset="0"
         id="stop237" />
      <stop
         style="stop-color:#31363b;stop-opacity:0;"
         offset="1"
         id="stop239" />
    </linearGradient>
    <linearGradient
       xlink:href="#shadow-3"
       id="linearGradient4381"
       gradientUnits="userSpaceOnUse"
       gradientTransform="matrix(1.125,0,0,1.125,1.2239067,-1126.2178)"
       x1="21.969"
       y1="1035.3621"
       x2="35.969002"
       y2="1049.3621" />
    <linearGradient
       xlink:href="#shadow-3"
       id="linearGradient4377"
       gradientUnits="userSpaceOnUse"
       gradientTransform="matrix(1.125,0,0,1.125,-2.6679633,-1130.3599)"
       x1="21.084999"
       y1="1036.975"
       x2="35.969002"
       y2="1049.3621" />
    <linearGradient
       xlink:href="#shadow-3"
       id="linearGradient4203"
       gradientUnits="userSpaceOnUse"
       x1="23"
       y1="1035.3621"
       x2="36"
       y2="1048.3621"
       gradientTransform="matrix(1.125,0,0,1.125,19.078005,-1144.0262)" />
    <linearGradient
       xlink:href="#shadow-3"
       id="linearGradient4199"
       x1="21.969"
       y1="1035.3621"
       x2="35.969002"
       y2="1049.3621"
       gradientUnits="userSpaceOnUse"
       gradientTransform="matrix(1.125,0,0,1.125,15.703003,-1140.6512)" />
    <linearGradient
       xlink:href="#shadow-3"
       id="linearGradient4373"
       gradientUnits="userSpaceOnUse"
       gradientTransform="matrix(1.125,0,0,1.125,11.178623,-1144.604)"
       x1="21.084999"
       y1="1036.975"
       x2="35.969002"
       y2="1049.3621" />
    <linearGradient
       xlink:href="#blue-gradient-5"
       id="linearGradient4351"
       x1="24"
       y1="1008.362"
       x2="24"
       y2="1048.3621"
       gradientUnits="userSpaceOnUse"
       gradientTransform="matrix(1.125,0,0,1.125,4.4530007,-1124.9012)" />
    <linearGradient
       id="blue-gradient-5">
      <stop
         style="stop-color:#054e87;stop-opacity:1"
         offset="0"
         id="stop232" />
      <stop
         style="stop-color:#1d99f3;stop-opacity:1"
         offset="1"
         id="stop234" />
    </linearGradient>
    <linearGradient
       id="d-36"
       gradientTransform="matrix(1.1249951,0,0,1.125,11.710267,9.6268047)"
       gradientUnits="userSpaceOnUse"
       x1="4"
       x2="4"
       y1="44"
       y2="-20">
      <stop
         offset="0"
         stop-color="#2980b9"
         id="stop966" />
      <stop
         offset=".453125"
         stop-color="#3daee9"
         id="stop968" />
      <stop
         offset="1"
         stop-color="#fff"
         id="stop970" />
    </linearGradient>
    <linearGradient
       id="a-75"
       gradientUnits="userSpaceOnUse"
       x1="4"
       x2="4"
       xlink:href="#e-3"
       y1="44"
       y2="9"
       gradientTransform="matrix(1.125,0,0,1.125,5.0000225,4.0546447)" />
    <linearGradient
       id="e-3"
       gradientUnits="userSpaceOnUse"
       x1="8"
       x2="8"
       y1="41"
       y2="9">
      <stop
         offset="0"
         stop-color="#216694"
         id="stop973" />
      <stop
         offset="1"
         stop-color="#216694"
         stop-opacity=".35"
         id="stop975" />
    </linearGradient>
    <linearGradient
       id="c-562"
       gradientUnits="userSpaceOnUse"
       x1="6"
       x2="6"
       xlink:href="#e-3"
       y1="39"
       y2="14"
       gradientTransform="matrix(1.125,0,0,1.125,5.0000225,4.0546447)" />
    <linearGradient
       id="b-9"
       gradientUnits="userSpaceOnUse"
       x1="24"
       x2="44"
       y1="4"
       y2="44"
       gradientTransform="matrix(1.125,0,0,1.125,5.0000225,4.0546447)">
      <stop
         offset="0"
         stop-color="#000010"
         id="stop960" />
      <stop
         offset="1"
         stop-color="#000010"
         stop-opacity="0"
         id="stop962" />
    </linearGradient>
  </defs>
  <path
     d="m 2.9999985,10.25 c 0,-4.0041748 3.245938,-7.25 7.2500005,-7.25 h 43.500003 c 4.004173,0 7.249999,3.2458252 7.249999,7.25 v 43.5 c 0,4.004173 -3.245827,7.25 -7.25,7.25 H 10.249999 C 6.2459365,61 2.9999985,57.754173 2.9999985,53.75 Z"
     id="path736"
     style="fill:#606c86;fill-opacity:1;stroke-width:3.625" />
  <path
     d="M 2.9999985,9.796875 C 2.9999985,6.0431877 6.2459365,3 10.249999,3 h 43.500003 c 4.004173,0 7.249999,3.0431877 7.249999,6.796875 v 40.781249 c 0,3.753693 -3.245827,6.796876 -7.25,6.796876 H 10.249999 c -4.0040625,0 -7.2500005,-3.043183 -7.2500005,-6.796876 z"
     id="path738"
     style="fill:#3b4252;fill-opacity:1;stroke-width:3.625" />
  <path
     d="M 32.000006,8.5546547 A 22.5,22.5 0 0 0 9.5000065,31.054655 a 22.5,22.5 0 0 0 22.4999995,22.5 22.5,22.5 0 0 0 22.500001,-22.5 A 22.5,22.5 0 0 0 32.000006,8.5546547 Z"

     stroke-width="1.40618"
     id="path978"
     style="fill:url(#d-36)" />
  <path
     d="m 32.000006,14.179655 a 18,18 0 0 0 -18,18 18,18 0 0 0 18,18 18,18 0 0 0 18.000001,-18 18,18 0 0 0 -18.000001,-18 z m 0,2.25 a 15.75,15.75 0 0 1 13.493461,7.637697 L 34.91139,33.339805 16.500497,34.875698 a 15.75,15.75 0 0 1 -0.250491,-2.696043 15.75,15.75 0 0 1 15.75,-15.75 z m 14.543731,9.707521 a 15.75,15.75 0 0 1 1.20627,6.042479 15.75,15.75 0 0 1 -4.71972,11.230222 l -6.15453,-8.800048 z m 7.93651,4.073729 a 22.5,22.5 0 0 1 -22.480241,22.21875 22.5,22.5 0 0 1 -22.4604435,-21.9375 22.5,22.5 0 0 0 -0.03957,0.5625 22.5,22.5 0 0 0 22.4999995,22.5 22.5,22.5 0 0 0 22.500015,-22.5 22.5,22.5 0 0 0 -0.0195,-0.84375 z M 34.8213,35.605192 41.309867,44.875461 A 15.75,15.75 0 0 1 32.000006,47.929655 15.75,15.75 0 0 1 17.038828,37.090539 Z"

     id="path980"
     style="fill:url(#a-75);stroke-width:1.125" />
  <path
     d="m 32.000006,13.054655 a 18,18 0 0 0 -18,18 18,18 0 0 0 18,18 18,18 0 0 0 18.000001,-18 18,18 0 0 0 -18.000001,-18 z m 0,2.25 a 15.75,15.75 0 0 1 13.495591,7.6355 l -10.584207,9.27465 -18.410893,1.535893 a 15.75,15.75 0 0 1 -0.250491,-2.696043 15.75,15.75 0 0 1 15.75,-15.75 z m 14.539331,9.711912 a 15.75,15.75 0 0 1 1.21067,6.038088 15.75,15.75 0 0 1 -4.71972,11.230222 l -6.15453,-8.800048 z M 34.8213,34.480192 41.309867,43.750461 A 15.75,15.75 0 0 1 32.000006,46.804655 15.75,15.75 0 0 1 17.038828,35.965539 Z"
     fill="#eff0f1"
     stroke-width="1.45164"
     id="path982" />
  <path
     d="m 46.974407,19.804655 c -0.8951,0 -1.75335,0.355847 -2.3863,0.988771 -0.6329,0.632926 -0.9887,1.491179 -0.9887,2.386229 0,0.89505 0.3558,1.753303 0.9887,2.386229 l 9.50542,9.507572 a 22.5,22.5 0 0 0 0.40648,-4.018801 22.5,22.5 0 0 0 -0.79979,-5.921631 l -4.33957,-4.339598 c -0.63295,-0.632924 -1.49107,-0.988771 -2.38624,-0.988771 z m -11.599401,10.125 c -0.89505,0 -1.753297,0.355847 -2.386229,0.988771 -0.632918,0.632926 -0.988771,1.491179 -0.988771,2.386229 0,0.89505 0.355853,1.753303 0.988771,2.386229 l 6.85107,6.853271 c -0.20995,0.445749 -0.32515,0.934882 -0.32515,1.437016 0,0.895165 0.3558,1.753194 0.98875,2.386228 l 3.62986,3.629883 a 22.5,22.5 0 0 0 6.42266,-6.284174 L 37.761257,30.918426 c -0.63292,-0.632924 -1.49119,-0.988771 -2.386251,-0.988771 z m -19.755612,1.654544 c -0.895103,0 -1.753298,0.355847 -2.386229,0.988765 -0.632942,0.632932 -0.988771,1.491185 -0.988771,2.386235 0,0.895159 0.355829,1.753303 0.988771,2.386221 L 29.24684,53.359098 a 22.5,22.5 0 0 0 2.753166,0.195557 22.5,22.5 0 0 0 6.123811,-0.865723 L 18.005621,32.572964 c -0.610759,-0.610759 -1.454216,-0.988765 -2.386227,-0.988765 z"

     opacity="0.1"
     id="path984"
     style="fill:url(#b-9);stroke-width:1.40618" />
  <path
     d="m 46.890837,19.804655 c -0.86461,0.02144 -1.68951,0.375622 -2.30273,0.988771 -0.6329,0.632926 -0.9887,1.491179 -0.9887,2.386229 0,0.89505 0.3558,1.753303 0.9887,2.386229 l 0.73615,0.73608 0.0592,0.05932 c 0.63297,0.632928 1.49107,0.988776 2.38627,0.988776 0.89504,0 1.75332,-0.355848 2.38627,-0.988776 0.6329,-0.632922 0.98873,-1.491064 0.98873,-2.386224 0,-0.89505 -0.35583,-1.753308 -0.98873,-2.386232 l -0.0592,-0.05929 -0.73604,-0.736088 c -0.63295,-0.632907 -1.49107,-0.988756 -2.38624,-0.988756 -0.0282,0 -0.0553,-6.93e-4 -0.0841,0 z m 0.87893,0.795413 c 0.7056,0 1.38808,0.220387 1.9556,0.624021 0.40361,0.567557 0.62404,1.249977 0.62404,1.955566 0,0.89505 -0.35584,1.753303 -0.98876,2.386229 -0.63295,0.632924 -1.49107,0.988771 -2.38624,0.988771 -0.70557,0 -1.38806,-0.220394 -1.95564,-0.624023 -0.40357,-0.567532 -0.624,-1.249887 -0.624,-1.955564 0,-0.89505 0.3558,-1.75331 0.98872,-2.386228 0.63301,-0.632932 1.49108,-0.988772 2.38628,-0.988772 z m -12.478256,9.329587 c -0.864685,0.02145 -1.689583,0.375622 -2.302734,0.988771 -0.632918,0.632926 -0.988771,1.491179 -0.988771,2.386229 0,0.89505 0.355853,1.753303 0.988771,2.386229 l 0.736082,0.73608 0.05932,0.05932 c 0.632918,0.632928 1.491178,0.988776 2.386218,0.988776 0.89515,0 1.75332,-0.355848 2.38623,-0.988776 0.63295,-0.632922 0.98881,-1.491064 0.98881,-2.386224 0,-0.89505 -0.35586,-1.753309 -0.98881,-2.386232 l -0.0593,-0.05929 -0.73613,-0.736082 c -0.63297,-0.632925 -1.4912,-0.988772 -2.386242,-0.988772 -0.02796,0 -0.05557,-6.97e-4 -0.08351,0 z m 0.878906,0.795413 c 0.70568,0 1.38806,0.220387 1.95558,0.624021 0.40361,0.567557 0.62401,1.249977 0.62401,1.955566 0,0.89505 -0.35581,1.753303 -0.98875,2.386229 -0.63292,0.632924 -1.49119,0.988771 -2.386251,0.988771 -0.705589,0 -1.388009,-0.220394 -1.955566,-0.624023 -0.403632,-0.567532 -0.624018,-1.249887 -0.624018,-1.955564 0,-0.89505 0.35584,-1.75331 0.988772,-2.386228 0.632917,-0.632932 1.491178,-0.988772 2.386223,-0.988772 z m -20.634522,0.859131 c -0.864735,0.02145 -1.689575,0.375615 -2.30273,0.988765 -0.632942,0.632932 -0.988771,1.491185 -0.988771,2.386235 0,0.895159 0.355829,1.753303 0.988771,2.386221 l 0.736082,0.736088 0.05931,0.05928 c 0.632942,0.632926 1.491086,0.988769 2.386235,0.988769 1.8639,0 3.375,-1.510987 3.375,-3.375 0,-0.93195 -0.378006,-1.775465 -0.988765,-2.386229 l -0.05713,-0.05713 -0.738282,-0.738282 c -0.610765,-0.610765 -1.454224,-0.988771 -2.386227,-0.988771 -0.02795,0 -0.05557,-7e-4 -0.08354,0 z m 0.87891,0.795405 c 0.728085,0 1.404186,0.231915 1.955567,0.624023 0,0 0.002,0.002 0.002,0.002 0.392102,0.551375 0.621822,1.225288 0.621822,1.953372 0,1.86401 -1.511038,3.375 -3.375,3.375 -0.705629,0 -1.388023,-0.220393 -1.955566,-0.624025 -0.403629,-0.567524 -0.624027,-1.249886 -0.624027,-1.955569 0,-0.89505 0.355838,-1.753304 0.988778,-2.386227 0.632932,-0.632927 1.491075,-0.988773 2.386222,-0.988773 z m 26.391322,8.226567 c -0.86476,0.02148 -1.68951,0.375621 -2.30268,0.988772 -0.63295,0.632918 -0.98875,1.491178 -0.98875,2.386228 0,0.895165 0.3558,1.753194 0.98875,2.386228 l 0.73604,0.736082 0.0592,0.05928 c 0.63292,0.632921 1.491061,0.988766 2.38626,0.988766 0.89507,0 1.75327,-0.355845 2.38625,-0.988766 0.63292,-0.632927 0.98875,-1.49107 0.98875,-2.386235 0,-0.89505 -0.35583,-1.753302 -0.98875,-2.386229 l -0.0592,-0.05929 -0.73612,-0.736082 c -0.63287,-0.632932 -1.49117,-0.988772 -2.38618,-0.988772 -0.0282,0 -0.0556,-6.97e-4 -0.084,0 z m 0.79538,0.795403 c 0.0283,-6.84e-4 0.0556,0 0.0841,0 0.70558,0 1.38803,0.2204 1.95559,0.624034 0.40362,0.567541 0.62403,1.249975 0.62403,1.955563 0,0.895165 -0.35581,1.753194 -0.98882,2.386228 -0.63284,0.632927 -1.49108,0.988772 -2.38618,0.988772 -0.70568,0 -1.38808,-0.220419 -1.9556,-0.624022 -0.40362,-0.567558 -0.62402,-1.249896 -0.62402,-1.955575 0,-0.89505 0.35595,-1.753297 0.98874,-2.386229 0.61318,-0.613137 1.43799,-0.967304 2.30278,-0.988771 z"

     opacity="0.35"
     id="path986"
     style="fill:url(#c-562);stroke-width:1.40618" />
  <path
     d="m 46.974407,19.804655 a 3.375,3.375 0 0 0 -3.375,3.375 3.375,3.375 0 0 0 3.375,3.375 3.375,3.375 0 0 0 3.375,-3.375 3.375,3.375 0 0 0 -3.375,-3.375 z m -11.599401,10.125 a 3.375,3.375 0 0 0 -3.375,3.375 3.375,3.375 0 0 0 3.375,3.375 3.375,3.375 0 0 0 3.375001,-3.375 3.375,3.375 0 0 0 -3.375001,-3.375 z m -19.755612,1.654544 a 3.375,3.375 0 0 0 -3.375,3.375 3.375,3.375 0 0 0 3.375,3.375 3.375,3.375 0 0 0 3.375,-3.375 3.375,3.375 0 0 0 -3.375,-3.375 z m 27.270303,9.021972 a 3.375,3.375 0 0 0 -3.375,3.375 3.375,3.375 0 0 0 3.375,3.375 3.375,3.375 0 0 0 3.375,-3.375 3.375,3.375 0 0 0 -3.375,-3.375 z"
     fill="#fcfcfc"
     id="path988"
     style="stroke-width:1.40618" />
</svg>
