<?xml version="1.0" encoding="UTF-8" standalone="no"?>
<svg
   viewBox="0 0 64 64"
   style="display:inline;enable-background:new"
   version="1.0"
   id="svg11300"
   height="64"
   width="64"
   sodipodi:docname="wine.svg"
   inkscape:version="1.4 (unknown)"
   xmlns:inkscape="http://www.inkscape.org/namespaces/inkscape"
   xmlns:sodipodi="http://sodipodi.sourceforge.net/DTD/sodipodi-0.dtd"
   xmlns:xlink="http://www.w3.org/1999/xlink"
   xmlns="http://www.w3.org/2000/svg"
   xmlns:svg="http://www.w3.org/2000/svg"
   xmlns:rdf="http://www.w3.org/1999/02/22-rdf-syntax-ns#"
   xmlns:cc="http://creativecommons.org/ns#"
   xmlns:dc="http://purl.org/dc/elements/1.1/">
  <sodipodi:namedview
     id="namedview14"
     pagecolor="#ffffff"
     bordercolor="#666666"
     borderopacity="1.0"
     inkscape:showpageshadow="2"
     inkscape:pageopacity="0.0"
     inkscape:pagecheckerboard="0"
     inkscape:deskcolor="#d1d1d1"
     showgrid="false"
     inkscape:zoom="5.2149124"
     inkscape:cx="64.814128"
     inkscape:cy="41.707316"
     inkscape:window-width="1920"
     inkscape:window-height="996"
     inkscape:window-x="0"
     inkscape:window-y="0"
     inkscape:window-maximized="1"
     inkscape:current-layer="svg11300" />
  <title
     id="title4162">Adwaita Icon Template</title>
  <defs
     id="defs3">
    <clipPath
       id="clipPath16-6"
       clipPathUnits="userSpaceOnUse">
      <path
         id="path18-8"
         d="M 0,500 H 500 V 0 H 0 Z" />
    </clipPath>
    <linearGradient
       inkscape:collect="always"
       xlink:href="#linearGradient22063"
       id="linearGradient22065"
       x1="-13.20652"
       y1="-9.999999"
       x2="-13.365215"
       y2="5"
       gradientUnits="userSpaceOnUse"
       gradientTransform="matrix(3.6250002,0,0,3.6250002,82.750004,39.249999)" />
    <linearGradient
       inkscape:collect="always"
       id="linearGradient22063">
      <stop
         style="stop-color:#0082c9;stop-opacity:1;"
         offset="0"
         id="stop22059" />
      <stop
         style="stop-color:#33b7ff;stop-opacity:1;"
         offset="1"
         id="stop22061" />
    </linearGradient>
    <linearGradient
       id="a-3"
       x1="99.036003"
       x2="99.036003"
       y1="-0.50471997"
       y2="199.84"
       gradientTransform="matrix(0.23000011,0,0,0.23000011,9.0002195,6.9999571)"
       gradientUnits="userSpaceOnUse">
      <stop
         stop-color="#4bd2f5"
         offset="0"
         id="stop5318" />
      <stop
         stop-color="#5587ff"
         offset="1"
         id="stop5320" />
    </linearGradient>
    <filter
       id="filter1305"
       x="-0.060002353"
       y="-0.060002353"
       width="1.1200047"
       height="1.1200047"
       color-interpolation-filters="sRGB">
      <feGaussianBlur
         stdDeviation="0.61852427"
         id="feGaussianBlur5323" />
    </filter>
    <linearGradient
       id="b"
       x2="1"
       gradientTransform="matrix(-2e-8,-18.2209,18.2209,-2e-8,612.69436,54.227282)"
       gradientUnits="userSpaceOnUse">
      <stop
         stop-color="#566069"
         offset="0"
         id="stop3" />
      <stop
         stop-color="#6c7884"
         offset="1"
         id="stop4" />
    </linearGradient>
  </defs>
  <metadata
     id="metadata4">
    <rdf:RDF>
      <cc:Work
         rdf:about="">
        <dc:format>image/svg+xml</dc:format>
        <dc:type
           rdf:resource="http://purl.org/dc/dcmitype/StillImage" />
        <dc:creator>
          <cc:Agent>
            <dc:title>GNOME Design Team</dc:title>
          </cc:Agent>
        </dc:creator>
        <dc:source />
        <cc:license
           rdf:resource="http://creativecommons.org/licenses/by-sa/4.0/" />
        <dc:title>Adwaita Icon Template</dc:title>
        <dc:subject>
          <rdf:Bag />
        </dc:subject>
        <dc:date />
        <dc:rights>
          <cc:Agent>
            <dc:title />
          </cc:Agent>
        </dc:rights>
        <dc:publisher>
          <cc:Agent>
            <dc:title />
          </cc:Agent>
        </dc:publisher>
        <dc:identifier />
        <dc:relation />
        <dc:language />
        <dc:coverage />
        <dc:description />
        <dc:contributor>
          <cc:Agent>
            <dc:title />
          </cc:Agent>
        </dc:contributor>
      </cc:Work>
      <cc:License
         rdf:about="http://creativecommons.org/licenses/by-sa/4.0/">
        <cc:permits
           rdf:resource="http://creativecommons.org/ns#Reproduction" />
        <cc:permits
           rdf:resource="http://creativecommons.org/ns#Distribution" />
        <cc:requires
           rdf:resource="http://creativecommons.org/ns#Notice" />
        <cc:requires
           rdf:resource="http://creativecommons.org/ns#Attribution" />
        <cc:permits
           rdf:resource="http://creativecommons.org/ns#DerivativeWorks" />
        <cc:requires
           rdf:resource="http://creativecommons.org/ns#ShareAlike" />
      </cc:License>
    </rdf:RDF>
  </metadata>
  <path
     d="M 3,10.25 C 3,6.245825 6.24594,3 10.25,3 h 43.5 C 57.75417,3 61,6.245825 61,10.25 v 43.5 C 61,57.754173 57.75417,61 53.75,61 H 10.25 C 6.24594,61 3,57.754173 3,53.75 Z"
     id="path736"
     style="fill:#606c86;fill-opacity:1;stroke-width:3.625" />
  <path
     d="M 3,9.796875 C 3,6.043188 6.24594,3 10.25,3 h 43.5 C 57.75417,3 61,6.043188 61,9.796875 V 50.578124 C 61,54.331817 57.75417,57.375 53.75,57.375 H 10.25 C 6.24594,57.375 3,54.331817 3,50.578124 Z"
     id="path738"
     style="fill:url(#linearGradient22065);fill-opacity:1;stroke-width:3.625" />
  <path
     d="M 50.661804,11.088 30.66718,14.192164 v 15.562402 h 19.994624 z m -22.661512,3.531261 -14.666888,2.132805 0.01568,13.002853 H 28.000345 Z M 13.349027,32.416163 v 13.143454 l 14.651265,2.153671 V 32.416466 Z m 17.31765,0.0051 v 15.666719 l 19.99462,3 0.0053,-18.666719 z"
     fill="#ffffff"
     stroke-width="5.09944"
     id="path286" />
  <g
     id="g1"
     transform="translate(-54.977562,0.9785)">
    <path
       d="m 113.05936,39.277982 c 0,-0.867 -0.344,-1.7 -0.958,-2.313 -0.613,-0.614 -1.446,-0.958 -2.313,-0.958 H 98.111359 c -0.868,0 -1.7,0.344 -2.314,0.958 -0.614,0.613 -0.958,1.446 -0.958,2.313 v 11.677 c 0,0.868 0.344,1.7 0.958,2.314 0.614,0.614 1.446,0.958 2.314,0.958 h 11.677001 c 0.867,0 1.7,-0.344 2.313,-0.958 0.614,-0.614 0.958,-1.446 0.958,-2.314 z"
       id="path6"
       style="fill:#606c86;fill-opacity:1" />
    <path
       d="m 110.21036,43.773982 c 0,-0.186 -0.14,-0.301 -0.421,-0.346 l -3.778,-0.55 -1.693,-3.424 c -0.095,-0.206 -0.219,-0.309 -0.369,-0.309 -0.15,0 -0.273,0.103 -0.368,0.309 l -1.693,3.424 -3.779001,0.55 c -0.28,0.045 -0.421,0.16 -0.421,0.346 0,0.105 0.063,0.225 0.189,0.361 l 2.739001,2.663 -0.648001,3.763 c -0.01,0.07 -0.014,0.121 -0.014,0.151 0,0.105 0.026,0.194 0.078,0.267 0.054,0.073 0.132,0.109 0.238,0.109 0.09,0 0.19,-0.03 0.3,-0.09 l 3.379,-1.777 3.379,1.777 c 0.105,0.06 0.206,0.09 0.301,0.09 0.101,0 0.177,-0.036 0.229,-0.109 0.053,-0.073 0.079,-0.162 0.079,-0.267 0,-0.066 -0.002,-0.115 -0.007,-0.151 l -0.647,-3.763 2.731,-2.663 c 0.131,-0.13 0.196,-0.251 0.196,-0.361 z"
       fill="#eff9fe"
       fill-opacity="0.8"
       fill-rule="nonzero"
       id="path7" />
  </g>
</svg>
