<?xml version="1.0" encoding="UTF-8" standalone="no"?>
<svg
   viewBox="0 0 64 64"
   version="1.1"
   id="svg34"
   sodipodi:docname="yast-remote.svg"
   width="64"
   height="64"
   inkscape:version="1.2.1 (9c6d41e410, 2022-07-14)"
   xmlns:inkscape="http://www.inkscape.org/namespaces/inkscape"
   xmlns:sodipodi="http://sodipodi.sourceforge.net/DTD/sodipodi-0.dtd"
   xmlns:xlink="http://www.w3.org/1999/xlink"
   xmlns="http://www.w3.org/2000/svg"
   xmlns:svg="http://www.w3.org/2000/svg">
  <defs
     id="defs38">
    <linearGradient
       inkscape:collect="always"
       xlink:href="#linearGradient22063"
       id="linearGradient22065"
       x1="-14"
       y1="6"
       x2="-14"
       y2="-9.999999"
       gradientUnits="userSpaceOnUse"
       gradientTransform="matrix(3.6250002,0,0,3.6250002,82.75,39.249999)" />
    <linearGradient
       inkscape:collect="always"
       id="linearGradient22063">
      <stop
         style="stop-color:#292f3a;stop-opacity:1;"
         offset="0"
         id="stop22059" />
      <stop
         style="stop-color:#535e75;stop-opacity:1;"
         offset="1"
         id="stop22061" />
    </linearGradient>
    <filter
       id="c-3"
       x="-0.071890907"
       y="-0.093035291"
       width="1.1437818"
       height="1.1860706"
       color-interpolation-filters="sRGB">
      <feGaussianBlur
         stdDeviation="1.318"
         id="feGaussianBlur639-6" />
    </filter>
    <linearGradient
       inkscape:collect="always"
       xlink:href="#d"
       id="linearGradient1256"
       gradientUnits="userSpaceOnUse"
       gradientTransform="matrix(0.9106019,0,0,0.9106019,-50.629911,7.2274062)"
       x1="90"
       y1="43"
       x2="90"
       y2="13" />
    <linearGradient
       id="d"
       x1="90"
       x2="90"
       y1="43"
       y2="13"
       gradientTransform="translate(-58,8)"
       gradientUnits="userSpaceOnUse">
      <stop
         stop-color="#3e9e9b"
         offset="0"
         id="stop619" />
      <stop
         stop-color="#5e91a8"
         offset=".464"
         id="stop621" />
      <stop
         stop-color="#d9d1a1"
         offset="1"
         id="stop623" />
    </linearGradient>
    <filter
       id="e-5"
       x="-0.071890907"
       y="-0.093035291"
       width="1.1437818"
       height="1.1860706"
       color-interpolation-filters="sRGB">
      <feGaussianBlur
         stdDeviation="1.318"
         id="feGaussianBlur642-6" />
    </filter>
    <linearGradient
       inkscape:collect="always"
       xlink:href="#f"
       id="linearGradient1258"
       gradientUnits="userSpaceOnUse"
       gradientTransform="matrix(0.9106019,0,0,0.9106019,-53.361717,0.8531929)"
       x1="90"
       y1="43"
       x2="90"
       y2="13" />
    <linearGradient
       id="f"
       x1="90"
       x2="90"
       y1="43"
       y2="13"
       gradientTransform="translate(-61,1)"
       gradientUnits="userSpaceOnUse">
      <stop
         stop-color="#3cd1fb"
         offset="0"
         id="stop626" />
      <stop
         stop-color="#87e2fd"
         offset="1"
         id="stop628" />
    </linearGradient>
    <filter
       id="g-1"
       x="-0.059999999"
       y="-0.059999999"
       width="1.12"
       height="1.12"
       color-interpolation-filters="sRGB">
      <feGaussianBlur
         stdDeviation=".7"
         id="feGaussianBlur636-2" />
    </filter>
    <linearGradient
       id="h-7"
       x1="386.57001"
       x2="414.57001"
       y1="531.79999"
       y2="531.79999"
       gradientUnits="userSpaceOnUse"
       gradientTransform="matrix(0.78046457,0,0,0.78055563,-263.17091,-375.47496)">
      <stop
         stop-color="#fff"
         offset="0"
         id="stop604-0" />
      <stop
         stop-color="#ebebeb"
         offset="1"
         id="stop606-9" />
    </linearGradient>
    <linearGradient
       id="i-3"
       x1="-86.388"
       x2="-94.071999"
       y1="734.34003"
       y2="939.72998"
       gradientTransform="matrix(0.15688683,0,0,0.15503307,-96.00226,-133.47081)"
       gradientUnits="userSpaceOnUse">
      <stop
         stop-color="#1769cc"
         offset="0"
         id="stop609-6" />
      <stop
         stop-color="#5ee6fb"
         offset="1"
         id="stop611-0" />
    </linearGradient>
    <filter
       id="g-1-3"
       x="-0.059999999"
       y="-0.059999999"
       width="1.12"
       height="1.12"
       color-interpolation-filters="sRGB">
      <feGaussianBlur
         stdDeviation=".7"
         id="feGaussianBlur636-2-6" />
    </filter>
    <linearGradient
       inkscape:collect="always"
       xlink:href="#i-3"
       id="linearGradient854"
       gradientUnits="userSpaceOnUse"
       gradientTransform="matrix(0.15688683,0,0,0.15503307,-7.0316554,-96.397878)"
       x1="-86.388"
       y1="734.34003"
       x2="-94.071999"
       y2="939.72998" />
  </defs>
  <sodipodi:namedview
     id="namedview36"
     pagecolor="#ffffff"
     bordercolor="#666666"
     borderopacity="1.0"
     inkscape:showpageshadow="2"
     inkscape:pageopacity="0.0"
     inkscape:pagecheckerboard="0"
     inkscape:deskcolor="#d1d1d1"
     showgrid="false"
     inkscape:zoom="7.375"
     inkscape:cx="1.7627119"
     inkscape:cy="26.915254"
     inkscape:window-width="1920"
     inkscape:window-height="1008"
     inkscape:window-x="0"
     inkscape:window-y="0"
     inkscape:window-maximized="1"
     inkscape:current-layer="svg34" />
  <path
     d="M 3.0000002,10.25 C 3.0000002,6.245825 6.2459402,3 10.25,3 h 43.5 C 57.75417,3 61,6.245825 61,10.25 v 43.5 C 61,57.754173 57.75417,61 53.75,61 H 10.25 C 6.2459402,61 3.0000002,57.754173 3.0000002,53.75 Z"
     id="path736"
     style="fill:#606c86;fill-opacity:1;stroke-width:3.625" />
  <path
     d="M 3.0000002,9.796875 C 3.0000002,6.043188 6.2459402,3 10.25,3 h 43.5 C 57.75417,3 61,6.043188 61,9.796875 V 50.578124 C 61,54.331817 57.75417,57.375 53.75,57.375 h -43.5 c -4.0040598,0 -7.2499998,-3.043183 -7.2499998,-6.796876 z"
     id="path738"
     style="fill:url(#linearGradient22065);fill-opacity:1;stroke-width:3.625" />
  <rect
     x="12"
     y="20"
     width="44"
     height="34"
     rx="4"
     ry="4"
     filter="url(#c)"
     opacity="0.35"
     id="rect653-2"
     style="stroke-width:2;stroke-linecap:round;stroke-linejoin:round;filter:url(#c-3)"
     transform="matrix(0.9106019,0,0,0.9106019,2.1849992,-0.057409)" />
  <rect
     x="13.112222"
     y="17.244026"
     width="40.066483"
     height="30.960464"
     rx="3.6424077"
     ry="3.6424077"
     fill="url(#d)"
     id="rect655-6"
     style="fill:url(#linearGradient1256);stroke-width:1.8212;stroke-linecap:round;stroke-linejoin:round" />
  <rect
     x="9"
     y="13"
     width="44"
     height="34"
     rx="4"
     ry="4"
     filter="url(#e)"
     opacity="0.35"
     id="rect657-1"
     style="stroke-width:2;stroke-linecap:round;stroke-linejoin:round;filter:url(#e-5)"
     transform="matrix(0.9106019,0,0,0.9106019,2.1849992,-0.057409)" />
  <rect
     x="10.380416"
     y="10.869814"
     width="40.066483"
     height="30.960464"
     rx="3.6424077"
     ry="3.6424077"
     fill="url(#f)"
     id="rect659-8"
     style="fill:url(#linearGradient1258);stroke-width:1.8212;stroke-linecap:round;stroke-linejoin:round" />
  <path
     d="m 14.022824,10.869814 c -2.017894,0 -3.642408,1.624514 -3.642408,3.642407 v 2.731806 H 50.4469 v -2.731806 c 0,-2.017893 -1.624514,-3.642407 -3.642408,-3.642407 z"
     fill="#ffffff"
     opacity="0.25"
     id="path661-7"
     style="stroke-width:1.8212;stroke-linecap:round;stroke-linejoin:round" />
  <circle
     transform="matrix(0.77766201,0.06608132,-0.06631285,0.77773369,-230.32706,-396.39998)"
     cx="400.57001"
     cy="531.79999"
     r="14"
     filter="url(#g)"
     opacity="0.25"
     id="circle667-2"
     style="fill-opacity:1;stroke:none;stroke-width:0.662;stroke-opacity:0.8;filter:url(#g-1)" />
  <ellipse
     transform="matrix(0.99640912,0.08466921,-0.08495596,0.99638471,0,0)"
     cx="49.459785"
     cy="39.624516"
     id="circle669-0"
     style="fill:url(#h-7);fill-opacity:1;stroke:none;stroke-width:0.516698;stroke-opacity:0.8"
     rx="10.926504"
     ry="10.927779" />
  <path
     d="m 48.53018,47.937198 c -0.259684,0 -0.518783,-0.111415 -0.707232,-0.330121 -0.483055,-0.562356 -1.171105,-0.883722 -1.88844,-0.883722 -0.729488,0 -1.399675,0.312034 -1.887269,0.87902 -0.353909,0.412669 -0.957325,0.444212 -1.348792,0.06974 -0.390808,-0.373746 -0.420752,-1.009896 -0.06618,-1.421263 0.841503,-0.979004 2.045115,-1.540708 3.302245,-1.540708 1.255226,0 2.458838,0.563007 3.30283,1.544036 0.354568,0.412018 0.324624,1.048168 -0.06618,1.421914 -0.182006,0.175153 -0.411819,0.26103 -0.640974,0.26103 z m 2.118327,-2.518338 c -0.243797,0 -0.487594,-0.09796 -0.673407,-0.293224 -1.080762,-1.133393 -2.515578,-1.757388 -4.040592,-1.757388 -1.528236,0 -2.963638,0.622693 -4.042495,1.753409 -0.373677,0.391833 -0.978338,0.38988 -1.350037,-0.0041 -0.371772,-0.393859 -0.370455,-1.031384 0.004,-1.423217 1.438477,-1.508441 3.352542,-2.339206 5.388724,-2.339206 2.033035,0 3.946368,0.832067 5.387407,2.343185 0.374262,0.391906 0.37558,1.029358 0.004,1.42394 -0.186545,0.19664 -0.432246,0.296624 -0.677215,0.296624 z m 2.113862,-2.514359 c -0.237428,0 -0.475442,-0.09333 -0.660669,-0.279839 -1.667046,-1.684173 -3.856609,-2.611666 -6.167192,-2.611666 -2.314976,0 -4.505857,0.926046 -6.168437,2.608917 -0.379972,0.384526 -0.984706,0.371793 -1.350036,-0.02945 -0.36533,-0.40131 -0.352664,-1.038763 0.02731,-1.423216 C 40.463641,39.12529 43.123593,38 45.934437,38 c 2.805132,0 5.464426,1.126665 7.488895,3.171273 0.380631,0.384453 0.39337,1.021978 0.0287,1.423216 -0.18779,0.205973 -0.438542,0.310008 -0.689368,0.310008 z m -6.94749,7.467691 c 0.636948,0 1.153388,-0.516488 1.153388,-1.153578 0,-0.637091 -0.516367,-1.153578 -1.153388,-1.153578 -0.636948,0 -1.153388,0.516487 -1.153388,1.153578 0,0.63709 0.516367,1.153578 1.153388,1.153578 z"
     id="path671-2-2"
     style="fill:url(#linearGradient854);fill-opacity:1;stroke:none;stroke-width:0.0481794;stroke-opacity:0.8" />
</svg>
