<?xml version="1.0" encoding="UTF-8" standalone="no"?>
<svg
   version="1.1"
   viewBox="0 0 64 64"
   id="svg33"
   sodipodi:docname="yast-license.svg"
   width="64"
   height="64"
   inkscape:version="1.2.1 (9c6d41e410, 2022-07-14)"
   xmlns:inkscape="http://www.inkscape.org/namespaces/inkscape"
   xmlns:sodipodi="http://sodipodi.sourceforge.net/DTD/sodipodi-0.dtd"
   xmlns:xlink="http://www.w3.org/1999/xlink"
   xmlns="http://www.w3.org/2000/svg"
   xmlns:svg="http://www.w3.org/2000/svg">
  <defs
     id="defs37">
    <linearGradient
       inkscape:collect="always"
       xlink:href="#linearGradient22063"
       id="linearGradient22065"
       x1="-14"
       y1="6"
       x2="-14"
       y2="-9.999999"
       gradientUnits="userSpaceOnUse"
       gradientTransform="matrix(3.6250002,0,0,3.6250002,82.75,39.249999)" />
    <linearGradient
       inkscape:collect="always"
       id="linearGradient22063">
      <stop
         style="stop-color:#292f3a;stop-opacity:1;"
         offset="0"
         id="stop22059" />
      <stop
         style="stop-color:#535e75;stop-opacity:1;"
         offset="1"
         id="stop22061" />
    </linearGradient>
    <linearGradient
       id="linearGradient822"
       x1="24"
       x2="104"
       y1="20"
       y2="20"
       gradientUnits="userSpaceOnUse"
       gradientTransform="matrix(0.47224107,0,0,0.47224107,-146.47405,-118.89253)">
      <stop
         stop-color="#8ff0a4"
         offset="0"
         id="stop2-3" />
      <stop
         stop-color="#81dffe"
         offset="1"
         id="stop4-6" />
    </linearGradient>
    <linearGradient
       inkscape:collect="always"
       xlink:href="#a"
       id="linearGradient838"
       gradientUnits="userSpaceOnUse"
       gradientTransform="matrix(0.39285713,0,0,0.39285713,6.8928679,5.3571503)"
       x1="24"
       y1="20"
       x2="104"
       y2="20" />
  </defs>
  <sodipodi:namedview
     id="namedview35"
     pagecolor="#ffffff"
     bordercolor="#666666"
     borderopacity="1.0"
     inkscape:showpageshadow="2"
     inkscape:pageopacity="0.0"
     inkscape:pagecheckerboard="0"
     inkscape:deskcolor="#d1d1d1"
     showgrid="false"
     inkscape:zoom="1.84375"
     inkscape:cx="64"
     inkscape:cy="64.271186"
     inkscape:window-width="1920"
     inkscape:window-height="1008"
     inkscape:window-x="0"
     inkscape:window-y="0"
     inkscape:window-maximized="1"
     inkscape:current-layer="svg33" />
  <linearGradient
     id="a"
     x1="24"
     x2="104"
     y1="20"
     y2="20"
     gradientUnits="userSpaceOnUse"
     gradientTransform="matrix(0.47224107,0,0,0.47224107,-146.47405,-118.89253)">
    <stop
       stop-color="#8ff0a4"
       offset="0"
       id="stop2" />
    <stop
       stop-color="#81dffe"
       offset="1"
       id="stop4" />
  </linearGradient>
  <path
     d="M 3,10.25 C 3,6.245825 6.24594,3 10.25,3 h 43.5 C 57.75417,3 61,6.245825 61,10.25 v 43.5 C 61,57.754173 57.75417,61 53.75,61 H 10.25 C 6.24594,61 3,57.754173 3,53.75 Z"
     id="path736"
     style="fill:#606c86;fill-opacity:1;stroke-width:3.625" />
  <path
     d="M 3,9.796875 C 3,6.043188 6.24594,3 10.25,3 h 43.5 C 57.75417,3 61,6.043188 61,9.796875 V 50.578124 C 61,54.331817 57.75417,57.375 53.75,57.375 H 10.25 C 6.24594,57.375 3,54.331817 3,50.578124 Z"
     id="path738"
     style="fill:url(#linearGradient22065);fill-opacity:1;stroke-width:3.625" />
  <path
     d="M 14.75,8.5 H 49.321434 V 50.928566 H 14.75 Z"
     fill="#f6f5f4"
     id="path7-7"
     style="stroke-width:0.392855" />
  <path
     d="M 14.75,50.928566 H 49.321435 V 52.5 H 14.75 Z"
     fill="#deddda"
     id="path9-5"
     style="stroke-width:0.392855" />
  <path
     d="m 30.464308,46.214289 h 17.285679 v 1.571423 H 30.464308 Z"
     fill="#5e5c64"
     id="path11-3"
     style="stroke-width:0.392855" />
  <path
     d="m 16.321446,11.642858 h 31.428541 v 3.142858 H 16.321446 Z"
     fill="url(#a)"
     id="path13-5"
     style="fill:url(#linearGradient838);stroke-width:0.392855" />
  <path
     d="m 16.321446,17.928572 h 31.428541 v 1.571427 H 16.321446 Z m 0,3.142864 h 31.428541 v 1.571421 H 16.321446 Z m 0,3.142855 h 20.428552 v 1.571423 H 16.321446 Z m 0,4.714277 h 31.428541 v 1.571434 H 16.321446 Z m 0,3.142868 h 31.428541 v 1.57142 H 16.321446 Z m 0,3.142854 h 23.571419 v 1.571423 H 16.321446 Z"
     fill="#deddda"
     id="path15-6"
     style="stroke-width:0.392855" />
  <path
     d="m 30.464308,41.500001 h 1.571381 v 4.714288 h -1.571381 z m 1.571381,0 h 14.142852 v 1.571434 H 32.035689 Z m 14.142852,0 h 1.571446 v 4.714288 h -1.571446 z"
     fill="#5e5c64"
     id="path17-2"
     style="stroke-width:0.392855" />
  <path
     d="m 16.321446,43.071435 h 12.57142 v 3.142854 h -12.57142 z"
     fill="#deddda"
     id="path19-9"
     style="stroke-width:0.392855" />
  <path
     d="M 46.110987,16.424716 30.464308,32.071436 33.607133,35.21429 49.250752,19.570718 A 3.9285708,3.9285708 0 0 0 46.110987,16.424716 Z"
     fill="#f6d32d"
     id="path21-1"
     style="stroke-width:0.392855" />
  <path
     d="m 30.464308,32.071436 -3.142863,6.285711 6.285688,-3.142857 z"
     fill="#ffe2c0"
     id="path23-2"
     style="stroke-width:0.392855" />
  <path
     d="M 48.170309,17.508217 32.035689,33.642856 33.607133,35.21429 49.250752,19.570718 A 3.9285708,3.9285708 0 0 0 48.170309,17.508217 Z"
     fill="#f5c211"
     id="path25-7"
     style="stroke-width:0.392855" />
  <path
     d="m 32.035689,33.642856 -4.714244,4.714291 6.285688,-3.142857 z"
     fill="#ffc993"
     id="path27-0"
     style="stroke-width:0.392855" />
  <path
     d="m 28.892866,35.21429 1.571442,1.571423 -3.142863,1.571434 z"
     fill="#3d3846"
     id="path29-9"
     style="stroke-width:0.392855" />
  <path
     d="m 29.678547,36.000001 -2.357102,2.357146 3.142863,-1.571434 z"
     id="path31-3"
     style="stroke-width:0.392855" />
</svg>
