<?xml version="1.0" encoding="UTF-8" standalone="no"?>
<svg
   width="64"
   height="64"
   viewBox="0 0 64 64"
   version="1.1"
   id="svg22024"
   sodipodi:docname="audio-card.svg"
   inkscape:version="1.2.1 (9c6d41e410, 2022-07-14)"
   xmlns:inkscape="http://www.inkscape.org/namespaces/inkscape"
   xmlns:sodipodi="http://sodipodi.sourceforge.net/DTD/sodipodi-0.dtd"
   xmlns:xlink="http://www.w3.org/1999/xlink"
   xmlns="http://www.w3.org/2000/svg"
   xmlns:svg="http://www.w3.org/2000/svg">
  <sodipodi:namedview
     id="namedview22026"
     pagecolor="#ffffff"
     bordercolor="#666666"
     borderopacity="1.0"
     inkscape:showpageshadow="2"
     inkscape:pageopacity="0.0"
     inkscape:pagecheckerboard="0"
     inkscape:deskcolor="#d1d1d1"
     showgrid="false"
     inkscape:zoom="4.9166667"
     inkscape:cx="24.508474"
     inkscape:cy="24.508474"
     inkscape:window-width="1920"
     inkscape:window-height="1002"
     inkscape:window-x="0"
     inkscape:window-y="0"
     inkscape:window-maximized="1"
     inkscape:current-layer="svg22024" />
  <defs
     id="defs22004">
    <linearGradient
       id="linearGradient4212">
      <stop
         style="stop-color:#000000;stop-opacity:1;"
         offset="0"
         id="stop21980" />
      <stop
         style="stop-color:#000000;stop-opacity:0;"
         offset="1"
         id="stop21982" />
    </linearGradient>
    <linearGradient
       id="linearGradient4198">
      <stop
         style="stop-color:#272b2d;stop-opacity:1;"
         offset="0"
         id="stop21985" />
      <stop
         style="stop-color:#3e4447;stop-opacity:1"
         offset="1"
         id="stop21987" />
    </linearGradient>
    <linearGradient
       id="linearGradient4185">
      <stop
         style="stop-color:#acacac;stop-opacity:1"
         offset="0"
         id="stop21990" />
      <stop
         style="stop-color:#cbcbcb;stop-opacity:1"
         offset="1"
         id="stop21992" />
    </linearGradient>
    <linearGradient
       id="linearGradient4144">
      <stop
         style="stop-color:#3b962d;stop-opacity:1"
         offset="0"
         id="stop21995" />
      <stop
         style="stop-color:#93d169;stop-opacity:1"
         offset="1"
         id="stop21997" />
    </linearGradient>
    <linearGradient
       xlink:href="#linearGradient4144"
       id="linearGradient4150"
       x1="25"
       y1="1046.3621"
       x2="25"
       y2="1010.362"
       gradientUnits="userSpaceOnUse"
       gradientTransform="translate(86.850772,-1045.9604)" />
    <radialGradient
       xlink:href="#linearGradient4185"
       id="radialGradient4191"
       cx="24"
       cy="1025.3621"
       fx="24"
       fy="1025.3621"
       r="2"
       gradientTransform="matrix(1,0,0,0.9998745,86.850772,-1045.8317)"
       gradientUnits="userSpaceOnUse" />
    <linearGradient
       xlink:href="#linearGradient4198"
       id="linearGradient4204"
       x1="24"
       y1="1032.3621"
       x2="24"
       y2="1018.362"
       gradientUnits="userSpaceOnUse"
       gradientTransform="translate(86.850772,-1045.9604)" />
    <linearGradient
       xlink:href="#linearGradient4212"
       id="linearGradient4218"
       x1="20"
       y1="17"
       x2="38"
       y2="35"
       gradientUnits="userSpaceOnUse"
       gradientTransform="translate(86.850772,-41.5982)" />
    <linearGradient
       inkscape:collect="always"
       xlink:href="#linearGradient22063-0"
       id="linearGradient22065-6"
       x1="-13.999999"
       y1="6"
       x2="-13.999999"
       y2="-9.999999"
       gradientUnits="userSpaceOnUse"
       gradientTransform="matrix(3.6250002,0,0,3.6250002,82.750001,39.249999)" />
    <linearGradient
       inkscape:collect="always"
       id="linearGradient22063-0">
      <stop
         style="stop-color:#a3be8c;stop-opacity:1;"
         offset="0"
         id="stop22059-6" />
      <stop
         style="stop-color:#8fbcbb;stop-opacity:1;"
         offset="1"
         id="stop22061-2" />
    </linearGradient>
    <radialGradient
       xlink:href="#linearGradient4185"
       id="radialGradient4191-8"
       cx="24"
       cy="1025.3621"
       fx="24"
       fy="1025.3621"
       r="2"
       gradientTransform="matrix(1.3333244,0,0,1.3331571,-53.621395,-1399.2795)"
       gradientUnits="userSpaceOnUse" />
    <radialGradient
       xlink:href="#linearGradient4185"
       id="radialGradient4191-8-3"
       cx="24"
       cy="1025.3621"
       fx="24"
       fy="1025.3621"
       r="2"
       gradientTransform="matrix(1.3999917,0,0,1.3998155,-2.0999057,-1415.0207)"
       gradientUnits="userSpaceOnUse" />
    <linearGradient
       id="linearGradient882"
       x1="43.455002"
       x2="43.455002"
       y1="140.14999"
       y2="153.38"
       gradientTransform="matrix(0.94488,0,0,0.94488,-30.559,-127.93)"
       gradientUnits="userSpaceOnUse"
       xlink:href="#linearGradient880" />
    <linearGradient
       id="linearGradient880">
      <stop
         stop-color="#333"
         offset="0"
         id="stop1767" />
      <stop
         offset="1"
         id="stop1769" />
    </linearGradient>
    <linearGradient
       id="linearGradient990"
       x1="30"
       x2="30"
       y1="33"
       y2="5.7823"
       gradientTransform="matrix(0.25926,0,0,0.29412,2.7037,4.2941)"
       gradientUnits="userSpaceOnUse">
      <stop
         stop-color="#2ca0b9"
         offset="0"
         id="stop1777" />
      <stop
         stop-color="#87deaa"
         offset="1"
         id="stop1779" />
    </linearGradient>
    <linearGradient
       id="linearGradient899"
       x1="42.924999"
       x2="42.924999"
       y1="149.41"
       y2="151.78999"
       gradientTransform="matrix(0.41176,0,0,0.33333,-14.329,245.08)"
       gradientUnits="userSpaceOnUse">
      <stop
         stop-color="#4d4d4d"
         offset="0"
         id="stop1772" />
      <stop
         stop-color="#1a1a1a"
         offset="1"
         id="stop1774" />
    </linearGradient>
    <linearGradient
       id="linearGradient982"
       x1="35"
       x2="35"
       y1="-2"
       y2="48"
       gradientTransform="matrix(0.29412,0,0,0.40004,1.5883,1.8003)"
       gradientUnits="userSpaceOnUse"
       xlink:href="#linearGradient880" />
    <linearGradient
       xlink:href="#c"
       id="d"
       y1="9.2679996"
       x1="-28.756001"
       y2="27.436001"
       x2="-10.858"
       gradientUnits="userSpaceOnUse"
       gradientTransform="translate(0,-1.022)" />
    <linearGradient
       id="c"
       y1="9.1780005"
       x1="-14.65"
       y2="17.521999"
       x2="-6.4299998"
       gradientUnits="userSpaceOnUse"
       gradientTransform="translate(1.01,-1.022)">
      <stop
         id="stop178" />
      <stop
         offset="1"
         stop-opacity="0"
         id="stop180" />
    </linearGradient>
    <linearGradient
       id="a"
       y1="38"
       y2="13"
       x2="0"
       gradientUnits="userSpaceOnUse"
       gradientTransform="matrix(1.0000229,0,0,1.0000026,-81.711479,-28.168932)">
      <stop
         stop-color="#8e44ad"
         id="stop168" />
      <stop
         offset="1"
         stop-color="#9b59b6"
         id="stop170" />
    </linearGradient>
    <linearGradient
       xlink:href="#c"
       id="d-3"
       y1="9.2679996"
       x1="-28.756001"
       y2="27.436001"
       x2="-10.858"
       gradientUnits="userSpaceOnUse"
       gradientTransform="translate(0,-1.022)" />
    <linearGradient
       id="b"
       y1="37.956001"
       x1="-2.994"
       y2="-0.88300002"
       x2="-41.259998"
       gradientUnits="userSpaceOnUse"
       gradientTransform="translate(0,-1.022)">
      <stop
         stop-color="#34495e"
         id="stop173" />
      <stop
         offset="1"
         stop-color="#1c7865"
         id="stop175" />
    </linearGradient>
    <linearGradient
       id="a-3"
       y1="38"
       y2="13"
       x2="0"
       gradientUnits="userSpaceOnUse"
       gradientTransform="matrix(1.2000629,0,0,1.2000385,9.42864,13.136998)">
      <stop
         stop-color="#8e44ad"
         id="stop168-5" />
      <stop
         offset="1"
         stop-color="#9b59b6"
         id="stop170-6" />
    </linearGradient>
    <linearGradient
       id="c-3"
       x1="32"
       x2="32"
       y1="11"
       y2="53"
       gradientTransform="matrix(1.2705937,0,0,1.2705937,-8.6594384,-8.6472853)"
       gradientUnits="userSpaceOnUse">
      <stop
         stop-color="#eac57b"
         offset="0"
         id="stop190" />
      <stop
         stop-color="#ebcb8b"
         offset="1"
         id="stop192" />
    </linearGradient>
    <filter
       id="f-6"
       x="-0.060000271"
       y="-0.060000271"
       width="1.1200005"
       height="1.1200005"
       color-interpolation-filters="sRGB">
      <feGaussianBlur
         stdDeviation="0.18520833"
         id="feGaussianBlur195" />
    </filter>
    <linearGradient
       id="b-7"
       x1="8.4666004"
       x2="8.4666004"
       y1="284.82999"
       y2="292.23999"
       gradientTransform="translate(-7.495e-8,-280.1)"
       gradientUnits="userSpaceOnUse">
      <stop
         stop-color="#4c566a"
         offset="0"
         id="stop198" />
      <stop
         stop-color="#3b4252"
         offset="1"
         id="stop200" />
    </linearGradient>
  </defs>
  <path
     d="m 2.9999985,10.25 c 0,-4.004175 3.245938,-7.25 7.2500005,-7.25 h 43.500003 c 4.004173,0 7.25,3.245825 7.25,7.25 v 43.5 c 0,4.004173 -3.245827,7.25 -7.25,7.25 H 10.249999 C 6.2459365,61 2.9999985,57.754173 2.9999985,53.75 Z"
     id="path736-7"
     style="fill:#606c86;fill-opacity:1;stroke-width:3.625" />
  <path
     d="M 2.9999985,9.796875 C 2.9999985,6.043188 6.2459365,3 10.249999,3 h 43.500003 c 4.004173,0 7.25,3.043188 7.25,6.796875 v 40.781249 c 0,3.753693 -3.245827,6.796876 -7.25,6.796876 H 10.249999 c -4.0040625,0 -7.2500005,-3.043183 -7.2500005,-6.796876 z"
     id="path738-9"
     style="fill:url(#linearGradient22065-6);fill-opacity:1;stroke-width:3.625" />
  <path
     d="m 15.481768,10.453744 v 5.040022 h -5.082286 v 2.541177 h 5.082286 v 2.541189 h -5.082286 v 2.541196 h 5.082286 v 2.541184 h -5.082286 v 2.54119 h 5.082286 v 2.541188 h -5.082286 v 2.541185 h 5.082286 v 2.54119 h -5.082286 v 2.541188 h 5.082286 v 2.541188 h -5.082286 v 2.541188 h 5.082286 v 2.541187 h -5.082286 v 2.541188 h 5.082286 v 5.12454 h 2.541189 v -5.12454 h 2.541178 v 5.12454 h 2.54119 v -5.12454 h 2.541183 v 5.12454 h 2.541189 v -5.12454 h 2.54119 v 5.12454 h 2.54119 v -5.12454 h 2.54119 v 5.12454 h 2.541189 v -5.12454 h 2.541183 v 5.12454 h 2.54119 v -5.12454 h 2.541178 v 5.12454 h 2.54119 v -5.12454 h 5.081815 v -2.541188 h -5.081815 v -2.541187 h 5.081815 v -2.541188 h -5.081815 v -2.541188 h 5.081815 v -2.541188 h -5.081815 v -2.54119 h 5.081815 V 30.74089 h -5.081815 v -2.541188 h 5.081815 v -2.54119 h -5.081815 v -2.541184 h 5.081815 v -2.541196 h -5.081815 v -2.541189 h 5.081815 v -2.541177 h -5.081815 v -5.040022 h -2.54119 v 5.040022 h -2.541178 v -5.040022 h -2.54119 v 5.040022 h -2.541183 v -5.040022 h -2.541189 v 5.040022 h -2.54119 v -5.040022 h -2.54119 v 5.040022 h -2.54119 v -5.040022 h -2.541189 v 5.040022 h -2.541183 v -5.040022 h -2.54119 v 5.040022 h -2.541178 v -5.040022 z m 2.541189,7.580917 h 2.541178 v 2.54119 h -2.541178 z m 5.082267,0 h 2.541196 v 2.54119 h -2.541196 z m 5.082286,0 h 2.541183 v 2.54119 H 28.18751 Z m 5.082286,0 h 2.541189 v 2.54119 h -2.541189 z m 5.082266,0 h 2.541189 v 2.54119 h -2.541189 z m 5.082285,0 h 2.54119 v 2.54119 h -2.54119 z m -25.411878,5.082285 h 2.54119 v 2.541183 h -2.54119 z m 5.082279,0 h 2.54119 v 2.541183 h -2.54119 z m 5.082286,0 h 2.541177 v 2.541183 h -2.541177 z m 5.082272,0 h 2.54119 v 2.541183 h -2.54119 z m 5.082286,0 h 2.541183 v 2.541183 h -2.541183 z m 5.082266,0 h 2.541203 v 2.541183 h -2.541203 z m -25.41187,5.082267 h 2.541183 v 2.541204 h -2.541183 z m 5.082278,0 h 2.541191 v 2.541204 h -2.541191 z m 5.082285,0 h 2.541184 v 2.541204 h -2.541184 z m 5.082273,0 h 2.54119 v 2.541204 h -2.54119 z m 5.082286,0 h 2.541183 v 2.541204 H 38.35111 Z m 5.082273,0 h 2.541196 v 2.541204 h -2.541196 z m -25.411871,5.082288 h 2.541189 v 2.541187 h -2.541189 z m 5.082265,0 h 2.541191 v 2.541187 h -2.541191 z m 5.082292,0 h 2.541183 v 2.541187 h -2.541183 z m 5.082279,0 h 2.54119 v 2.541187 h -2.54119 z m 5.08228,0 h 2.541177 v 2.541187 h -2.541177 z m 5.082279,0 h 2.54119 v 2.541187 h -2.54119 z m -25.411885,5.08228 h 2.541197 v 2.541187 h -2.541197 z m 5.082285,0 h 2.54119 v 2.541187 h -2.54119 z m 5.082286,0 h 2.541189 v 2.541187 h -2.541189 z m 5.082267,0 h 2.541189 v 2.541187 H 33.26786 Z m 5.082286,0 h 2.541189 v 2.541187 h -2.541189 z m 5.082279,0 h 2.541196 v 2.541187 H 43.432425 Z M 18.020546,43.44606 h 2.54119 v 2.541188 h -2.54119 z m 5.082291,0 h 2.541178 v 2.541188 h -2.541178 z m 5.082267,0 h 2.54119 v 2.541188 h -2.54119 z m 5.082286,0 h 2.541183 v 2.541188 H 33.26739 Z m 5.082286,0 h 2.541183 v 2.541188 h -2.541183 z m 5.082267,0 h 2.541189 v 2.541188 h -2.541189 z"
     fill="url(#c-3)"
     stroke-width="3.93834"
     id="path221"
     style="fill:url(#c-3)" />
  <g
     fill-rule="evenodd"
     id="g237"
     transform="matrix(4.8023044,0,0,4.8023044,-8.6594284,-8.5086373)">
    <rect
       x="4.7624998"
       y="4.7311001"
       width="7.4082999"
       height="7.4082999"
       rx="0.52916998"
       ry="0.52915001"
       filter="url(#f-6)"
       opacity="0.5"
       id="rect223" />
    <rect
       x="4.7624998"
       y="4.7311001"
       width="7.4082999"
       height="7.4082999"
       rx="0.52916998"
       ry="0.52915001"
       fill="url(#b-7)"
       id="rect225"
       style="fill:url(#b-7)" />
    <g
       transform="translate(-7.495e-8,-280.09)"
       fill="#2e3440"
       id="g235">
      <circle
         cx="5.4239998"
         cy="285.48999"
         r="0.13229001"
         opacity="0.35"
         style="paint-order:stroke fill markers"
         id="circle227" />
      <circle
         cx="11.509"
         cy="285.48999"
         r="0.13229001"
         opacity="0.35"
         style="paint-order:stroke fill markers"
         id="circle229" />
      <circle
         cx="5.4239998"
         cy="291.57999"
         r="0.13229001"
         opacity="0.35"
         style="paint-order:stroke fill markers"
         id="circle231" />
      <circle
         cx="11.509"
         cy="291.57999"
         r="0.13229001"
         opacity="0.35"
         style="paint-order:stroke fill markers"
         id="circle233" />
    </g>
  </g>
  <path
     d="m 31.99977,19.440779 1.905943,0.635248 c 0,0 0.789053,2.428151 1.424407,3.063486 1.004401,1.004402 4.928611,3.28962 4.928611,8.372339 0,3.811829 -2.54129,6.352969 -5.718109,8.259004 3.176574,-3.176533 4.447226,-4.447222 4.447226,-8.259004 0,-5.082287 -5.082286,-5.718105 -5.082286,-5.718105 v 13.834 c 0,1.413559 -1.33225,3.759821 -3.506246,4.662655 -2.756005,1.141651 -5.643676,0.489882 -6.448544,-1.455484 -0.804924,-1.944693 0.775099,-4.446549 3.530453,-5.587482 1.646087,-0.682359 3.18927,-0.838626 4.519027,-0.265087 z"
     fill="#eceff4"
     stroke-width="1.27055"
     id="path239" />
</svg>
