<?xml version="1.0" encoding="UTF-8" standalone="no"?>
<svg
   inkscape:version="1.2.1 (9c6d41e410, 2022-07-14)"
   sodipodi:docname="edit.svg"
   viewBox="0 0 32 32"
   version="1.1"
   height="32"
   width="32"
   id="svg"
   xmlns:inkscape="http://www.inkscape.org/namespaces/inkscape"
   xmlns:sodipodi="http://sodipodi.sourceforge.net/DTD/sodipodi-0.dtd"
   xmlns="http://www.w3.org/2000/svg"
   xmlns:svg="http://www.w3.org/2000/svg"
   xmlns:rdf="http://www.w3.org/1999/02/22-rdf-syntax-ns#"
   xmlns:cc="http://creativecommons.org/ns#"
   xmlns:dc="http://purl.org/dc/elements/1.1/">
  <metadata
     id="metadata60">
    <rdf:RDF>
      <cc:Work
         rdf:about="">
        <dc:format>image/svg+xml</dc:format>
        <dc:type
           rdf:resource="http://purl.org/dc/dcmitype/StillImage" />
      </cc:Work>
    </rdf:RDF>
  </metadata>
  <sodipodi:namedview
     inkscape:document-rotation="0"
     inkscape:lockguides="false"
     inkscape:current-layer="svg"
     inkscape:window-maximized="1"
     inkscape:window-y="0"
     inkscape:window-x="0"
     inkscape:cy="18.504625"
     inkscape:cx="30.15391"
     inkscape:zoom="10.429825"
     showgrid="false"
     id="namedview58"
     inkscape:window-height="1002"
     inkscape:window-width="1920"
     inkscape:pageshadow="2"
     inkscape:pageopacity="0"
     guidetolerance="10"
     gridtolerance="10"
     objecttolerance="10"
     borderopacity="1"
     bordercolor="#000000"
     pagecolor="#cccccc"
     inkscape:pagecheckerboard="0"
     inkscape:showpageshadow="2"
     inkscape:deskcolor="#7f7f7f">
    <inkscape:grid
       type="xygrid"
       id="grid1098"
       originx="32"
       originy="10" />
  </sodipodi:namedview>
  <defs
     id="defs4">
    <linearGradient
       id="linearGradient5606"
       inkscape:swatch="solid">
      <stop
         style="stop-color:#000000"
         offset="0"
         id="stop5608" />
    </linearGradient>
  </defs>
  <g
     transform="matrix(0.72727273,0,0,0.72727273,54,16)"
     id="16-16-edit-delete"
     style="fill:#d1d5e9;fill-opacity:1">
    <rect
       id="rect18"
       y="0"
       x="0"
       height="22"
       width="22"
       style="opacity:0.00100002;fill:#d1d5e9;fill-opacity:1" />
    <g
       id="g24"
       transform="matrix(1.7493122,0,0,1.7499488,-107.95048,-909.47286)"
       style="fill:#d1d5e9;fill-opacity:1">
      <g
         id="g22"
         transform="translate(19,-242)"
         style="fill:#d1d5e9;fill-opacity:1">
        <path
           id="path20"
           d="m 44.285947,763.28567 h 1.178565 c 0.01218,-1.2e-4 0.02443,-4.2e-4 0.03689,0 0.300482,0.0133 0.600924,0.15169 0.810278,0.36831 l 2.688624,2.68871 2.725453,-2.68871 c 0.313054,-0.27154 0.526435,-0.36003 0.810262,-0.36831 h 1.178573 v 1.1786 c 0,0.33774 -0.04053,0.64896 -0.294644,0.88397 l -2.688618,2.68856 2.651788,2.65183 c 0.221793,0.22175 0.331465,0.53448 0.331474,0.84705 v 1.17862 h -1.17857 c -0.312679,-10e-6 -0.625331,-0.1094 -0.847094,-0.33149 l -2.688622,-2.68854 -2.688624,2.68854 c -0.221782,0.22184 -0.534443,0.33149 -0.847114,0.33149 h -1.178571 v -1.17862 c -3e-6,-0.31256 0.109664,-0.6253 0.331464,-0.84705 l 2.688626,-2.65183 -2.688626,-2.68856 c -0.248375,-0.22934 -0.357288,-0.55309 -0.331464,-0.88397 z"
           style="fill:#d1d5e9;fill-opacity:1;stroke-width:1.37506" />
      </g>
    </g>
  </g>
  <g
     transform="translate(32,32)"
     id="22-22-edit-delete"
     style="fill:#d1d5e9;fill-opacity:1">
    <rect
       id="rect27"
       y="-22"
       x="0"
       height="22"
       width="22"
       style="opacity:0.00100002;fill:#d1d5e9;fill-opacity:1;stroke-width:1.375" />
    <g
       id="g33"
       transform="matrix(1.2495087,0,0,1.2499635,-76.964626,-665.48065)"
       style="fill:#d1d5e9;fill-opacity:1">
      <g
         id="g31"
         transform="translate(19,-242)"
         style="fill:#d1d5e9;fill-opacity:1">
        <path
           inkscape:connector-curvature="0"
           id="path29"
           d="m 45.002014,759.19983 h 1.600025 c 0.01633,-1.1e-4 0.03343,-4.1e-4 0.04983,0 0.407903,0.009 0.815815,0.20602 1.10001,0.50036 l 3.650063,3.64989 3.700044,-3.64989 c 0.425,-0.36916 0.714669,-0.48916 1.100012,-0.50036 h 1.600019 v 1.60002 c 0,0.45834 -0.05472,0.88128 -0.400003,1.20004 l -3.650061,3.64992 3.600046,3.60005 c 0.301111,0.30114 0.450003,0.72581 0.450018,1.15011 v 1.60002 h -1.60001 c -0.424487,-10e-6 -0.848947,-0.14813 -1.150024,-0.44983 l -3.650032,-3.6499 -3.650065,3.6499 c -0.301079,0.30097 -0.72556,0.44983 -1.150035,0.44983 h -1.599967 v -1.60002 c -3e-6,-0.42428 0.148895,-0.84897 0.450034,-1.15011 l 3.650064,-3.60005 -3.650064,-3.64992 c -0.337164,-0.31157 -0.485082,-0.75065 -0.450034,-1.20004 z"
           style="fill:#d1d5e9;fill-opacity:1;stroke-width:2.00002" />
      </g>
    </g>
  </g>
  <g
     id="edit-delete"
     style="fill:#d1d5e9;fill-opacity:1">
    <rect
       id="rect36"
       style="opacity:0.00100002;fill:#d1d5e9;fill-opacity:1"
       y="0"
       x="0"
       height="32"
       width="32" />
    <g
       id="g46"
       transform="matrix(1.7493122,0,0,1.7499488,-102.95048,-903.47286)"
       style="opacity:0.2;fill:#d1d5e9;fill-opacity:1">
      <g
         id="g44"
         transform="translate(19,-242)"
         style="fill:#d1d5e9;fill-opacity:1" />
    </g>
    <g
       id="g52"
       style="fill:#d1d5e9;fill-opacity:1"
       transform="matrix(1.7493122,0,0,1.7499488,-102.95048,-904.47286)">
      <g
         id="g50"
         style="fill:#d1d5e9;fill-opacity:1"
         transform="translate(19,-242)">
        <path
           id="path48"
           style="fill:#d1d5e9;fill-opacity:1;stroke-width:2"
           d="m 42.143982,761.14295 h 1.714284 c 0.0178,-2.2e-4 0.03564,-8e-4 0.05358,0 0.43706,0.02 0.874064,0.22042 1.178572,0.5357 l 3.910713,3.91072 3.964285,-3.91072 c 0.455356,-0.39514 0.765722,-0.5237 1.17857,-0.5357 h 1.714286 v 1.71428 c 0,0.4911 -0.05886,0.94398 -0.42857,1.28572 l -3.910714,3.9107 3.857142,3.85716 c 0.322608,0.32256 0.482128,0.77734 0.482142,1.23214 v 1.71428 h -1.714286 c -0.4548,-2e-5 -0.909576,-0.1596 -1.232142,-0.48214 l -3.910713,-3.91072 -3.910713,3.91072 c -0.322576,0.3226 -0.777368,0.48214 -1.232152,0.48214 h -1.714284 v -1.71428 c -6e-6,-0.45478 0.15954,-0.90958 0.482142,-1.23214 l 3.910713,-3.85716 -3.910713,-3.9107 c -0.361272,-0.33366 -0.519702,-0.80444 -0.482142,-1.28572 z" />
      </g>
    </g>
  </g>
</svg>
