<?xml version="1.0" encoding="UTF-8" standalone="no"?>
<svg
   version="1.1"
   viewBox="0 0 32 32"
   id="svg895"
   sodipodi:docname="list.svg"
   inkscape:version="1.2.1 (9c6d41e410, 2022-07-14)"
   width="32"
   height="32"
   xmlns:inkscape="http://www.inkscape.org/namespaces/inkscape"
   xmlns:sodipodi="http://sodipodi.sourceforge.net/DTD/sodipodi-0.dtd"
   xmlns="http://www.w3.org/2000/svg"
   xmlns:svg="http://www.w3.org/2000/svg">
  <sodipodi:namedview
     id="namedview897"
     pagecolor="#cccccc"
     bordercolor="#000000"
     borderopacity="1"
     inkscape:showpageshadow="2"
     inkscape:pageopacity="0"
     inkscape:pagecheckerboard="0"
     inkscape:deskcolor="#808080"
     showgrid="false"
     inkscape:zoom="10.727273"
     inkscape:cx="25.682203"
     inkscape:cy="18.597457"
     inkscape:window-width="1920"
     inkscape:window-height="1002"
     inkscape:window-x="0"
     inkscape:window-y="0"
     inkscape:window-maximized="1"
     inkscape:current-layer="svg895"
     inkscape:lockguides="false">
    <inkscape:grid
       type="xygrid"
       id="grid7080"
       originx="-36"
       originy="19" />
  </sodipodi:namedview>
  <defs
     id="rounded">
    <style
       type="text/css"
       id="current-color-scheme">
        .ColorScheme-Text {
        color:#eff0f1;
        }
        .ColorScheme-NegativeText {
        color:#da4453;
        }
        .ColorScheme-Highlight {
        color:#3daee9;
        }
        .ColorScheme-Background {
        color:#31363b;
      }
      .ColorScheme-ButtonBackground {
        color:#444c53;
      }
    </style>
  </defs>
  <g
     id="list-add">
    <rect
       id="rect36"
       style="opacity:0.00100002;fill:#d1d5e9;fill-opacity:1"
       y="0"
       x="0"
       height="32"
       width="32" />
    <path
       id="path48-3"
       style="fill:#d1d5e9;fill-opacity:1;stroke-width:2.47488"
       d="m 4,16.002196 1.49918,-1.500275 c 0.01538,-0.01577 0.030468,-0.03189 0.046863,-0.04689 C 5.9457712,14.09003 6.4576796,13.990674 7,14 h 7 V 7.000402 C 14.05227,6.2562027 14.14373,5.8721118 14.49427,5.500305 L 15.993455,4 17.494272,5.4997221 C 17.924225,5.9293621 18.024135,6.3770768 18,6.9995899 V 14 h 7 c 0.564524,-1.46e-4 1.100994,0.100245 1.499175,0.49811 l 1.500817,1.499723 -1.499181,1.500276 C 26.103066,17.896121 25.564461,17.999869 25,18 h -7 v 6.999604 c 3.31e-4,0.56453 -0.09661,1.102113 -0.494333,1.500122 L 16.006553,28 14.505736,26.500279 C 14.107533,26.102433 14.000272,25.564928 14,25.000409 V 18 H 7 C 6.3920234,18.02433 5.8893272,17.95583 5.5008233,17.501912 Z"
       sodipodi:nodetypes="ccccccccsccccccccccccccccc" />
  </g>
  <g
     id="list-remove"
     transform="translate(32)">
    <path
       id="path48-3-3"
       style="fill:#d1d5e9;fill-opacity:1;stroke-width:2.47188"
       d="M 4,16.000354 5.4973611,14.5019 c 0.015361,-0.01575 0.030433,-0.03185 0.046803,-0.04683 0.399246,-0.364559 0.9105339,-0.463794 1.452196,-0.454479 h 6.9915079 v 0 0 h 1.997573 1.997574 v 0 0 h 6.991507 c 0.563839,-1.46e-4 1.099658,0.100123 1.497356,0.497505 l 1.498996,1.497904 -1.497362,1.498456 c -0.397263,0.397529 -0.935214,0.501151 -1.49899,0.501282 h -6.991507 v 0 0 h -1.997574 -1.997573 v 0 0 H 6.9963603 c -0.6072394,0.0243 -1.1093255,-0.04412 -1.4973582,-0.497484 z"
       sodipodi:nodetypes="cccccccccccccccccccccccccc" />
    <rect
       id="rect36-7"
       style="opacity:0.00100002;fill:#d1d5e9;fill-opacity:1"
       y="0"
       x="0"
       height="32"
       width="32" />
  </g>
</svg>
