<?xml version="1.0" encoding="UTF-8" standalone="no"?>
<svg
   id="svg2"
   sodipodi:version="0.32"
   inkscape:version="1.2.1 (9c6d41e410, 2022-07-14)"
   width="200"
   height="200"
   sodipodi:docname="clock.svg"
   inkscape:output_extension="org.inkscape.output.svg.inkscape"
   inkscape:export-xdpi="90"
   inkscape:export-ydpi="90"
   version="1.0"
   xmlns:inkscape="http://www.inkscape.org/namespaces/inkscape"
   xmlns:sodipodi="http://sodipodi.sourceforge.net/DTD/sodipodi-0.dtd"
   xmlns:xlink="http://www.w3.org/1999/xlink"
   xmlns="http://www.w3.org/2000/svg"
   xmlns:svg="http://www.w3.org/2000/svg"
   xmlns:rdf="http://www.w3.org/1999/02/22-rdf-syntax-ns#"
   xmlns:cc="http://creativecommons.org/ns#"
   xmlns:dc="http://purl.org/dc/elements/1.1/">
  <sodipodi:namedview
     inkscape:window-height="1002"
     inkscape:window-width="1920"
     inkscape:pageshadow="2"
     inkscape:pageopacity="1"
     guidetolerance="3"
     gridtolerance="4"
     objecttolerance="6"
     borderopacity="1"
     bordercolor="#000000"
     pagecolor="#cccccc"
     id="base"
     inkscape:zoom="1.4142136"
     inkscape:cx="108.18734"
     inkscape:cy="99.702055"
     inkscape:window-x="0"
     inkscape:window-y="0"
     inkscape:current-layer="svg2"
     showgrid="false"
     showguides="true"
     inkscape:guide-bbox="true"
     inkscape:window-maximized="1"
     inkscape:document-rotation="0"
     inkscape:lockguides="false"
     inkscape:pagecheckerboard="0"
     inkscape:showpageshadow="true"
     inkscape:deskcolor="#808080">
    <inkscape:grid
       empspacing="5"
       enabled="true"
       visible="true"
       id="grid5592"
       type="xygrid"
       snapvisiblegridlinesonly="true"
       color="#0000ff"
       opacity="0.03921569"
       empcolor="#0000ff"
       empopacity="0.07843137" />
    <sodipodi:guide
       id="guide4454"
       position="1296.8644,-784.48024"
       orientation="1,0"
       inkscape:locked="false" />
    <sodipodi:guide
       id="guide7371"
       position="820.86441,-843.48024"
       orientation="0,1"
       inkscape:locked="false" />
  </sodipodi:namedview>
  <metadata
     id="metadata7">
    <rdf:RDF>
      <cc:Work
         rdf:about="">
        <dc:format>image/svg+xml</dc:format>
        <dc:type
           rdf:resource="http://purl.org/dc/dcmitype/StillImage" />
      </cc:Work>
    </rdf:RDF>
  </metadata>
  <defs
     id="defs5">
    <linearGradient
       inkscape:collect="always"
       id="linearGradient1783">
      <stop
         style="stop-color:#7580bc;stop-opacity:0;"
         offset="0"
         id="stop1779" />
      <stop
         style="stop-color:#7580bc;stop-opacity:0;"
         offset="0.10837922"
         id="stop1789" />
      <stop
         style="stop-color:#7580bc;stop-opacity:1;"
         offset="0.10850529"
         id="stop3322" />
      <stop
         style="stop-color:#7580bc;stop-opacity:1;"
         offset="0.11608429"
         id="stop1787" />
      <stop
         style="stop-color:#7580bc;stop-opacity:1;"
         offset="0.1195989"
         id="stop3320" />
      <stop
         style="stop-color:#7580bc;stop-opacity:1;"
         offset="1"
         id="stop1781" />
    </linearGradient>
    <linearGradient
       id="linearGradient1085">
      <stop
         style="stop-color:#24273a;stop-opacity:1;"
         offset="0"
         id="stop1077" />
      <stop
         id="stop1079"
         offset="0.89999998"
         style="stop-color:#24273a;stop-opacity:0.52156866;" />
      <stop
         style="stop-color:#24273a;stop-opacity:0.10588235;"
         offset="0.95999998"
         id="stop1081" />
      <stop
         style="stop-color:#24273a;stop-opacity:0;"
         offset="1"
         id="stop1083" />
    </linearGradient>
    <linearGradient
       id="linearGradient4011">
      <stop
         style="stop-color:#232629;stop-opacity:1;"
         offset="0"
         id="stop4013" />
      <stop
         id="stop4019"
         offset="0.89999998"
         style="stop-color:#232629;stop-opacity:0.52348995;" />
      <stop
         style="stop-color:#232629;stop-opacity:0.10738255;"
         offset="0.95999998"
         id="stop4021" />
      <stop
         style="stop-color:#232629;stop-opacity:0;"
         offset="1"
         id="stop4015" />
    </linearGradient>
    <linearGradient
       id="linearGradient3264">
      <stop
         style="stop-color:#000000;stop-opacity:1;"
         offset="0"
         id="stop3266" />
      <stop
         id="stop3272"
         offset="0.68343294"
         style="stop-color:#000000;stop-opacity:0.49803922;" />
      <stop
         style="stop-color:#000000;stop-opacity:0.14117648;"
         offset="0.79985917"
         id="stop3274" />
      <stop
         id="stop3276"
         offset="0.89750695"
         style="stop-color:#000000;stop-opacity:0.03137255;" />
      <stop
         style="stop-color:#000000;stop-opacity:0;"
         offset="1"
         id="stop3268" />
    </linearGradient>
    <linearGradient
       id="linearGradient6617">
      <stop
         style="stop-color:#e7e7e7;stop-opacity:0;"
         offset="0"
         id="stop6619" />
      <stop
         id="stop6625"
         offset="0.89623755"
         style="stop-color:#f3f3f3;stop-opacity:1" />
      <stop
         style="stop-color:#e3e3e3;stop-opacity:0.99861372"
         offset="1"
         id="stop6621" />
    </linearGradient>
    <linearGradient
       id="linearGradient5995">
      <stop
         id="stop5997"
         offset="0"
         style="stop-color:#d7d7d7;stop-opacity:1;" />
      <stop
         id="stop5999"
         offset="1"
         style="stop-color:#ffffff;stop-opacity:1" />
    </linearGradient>
    <linearGradient
       id="linearGradient6876"
       inkscape:collect="always">
      <stop
         id="stop6878"
         offset="0"
         style="stop-color:#ffffff;stop-opacity:1;" />
      <stop
         id="stop6880"
         offset="1"
         style="stop-color:#ffffff;stop-opacity:0;" />
    </linearGradient>
    <linearGradient
       id="linearGradient6608">
      <stop
         id="stop6610"
         offset="0"
         style="stop-color:#ffffff;stop-opacity:1;" />
      <stop
         style="stop-color:#f0f0f0;stop-opacity:1;"
         offset="0.79710144"
         id="stop6617" />
      <stop
         id="stop6612"
         offset="1"
         style="stop-color:#e2e2e2;stop-opacity:1;" />
    </linearGradient>
    <linearGradient
       id="linearGradient6195"
       inkscape:collect="always">
      <stop
         id="stop6197"
         offset="0"
         style="stop-color:#ffffff;stop-opacity:1;" />
      <stop
         id="stop6199"
         offset="1"
         style="stop-color:#ffffff;stop-opacity:0;" />
    </linearGradient>
    <linearGradient
       id="linearGradient8518">
      <stop
         id="stop8520"
         offset="0"
         style="stop-color:#bd0000;stop-opacity:1;" />
      <stop
         style="stop-color:#ff4747;stop-opacity:1"
         offset="0.15470119"
         id="stop8522" />
      <stop
         id="stop8524"
         offset="0.94668281"
         style="stop-color:#9c0000;stop-opacity:1;" />
      <stop
         id="stop8526"
         offset="1"
         style="stop-color:#db0000;stop-opacity:1;" />
    </linearGradient>
    <linearGradient
       gradientUnits="userSpaceOnUse"
       y2="117.86208"
       x2="1155.6477"
       y1="283.88474"
       x1="1155.6477"
       id="linearGradient6203"
       xlink:href="#linearGradient6195"
       inkscape:collect="always" />
    <linearGradient
       gradientTransform="translate(-1027.6356,-20.896313)"
       y2="53.696342"
       x2="1133.3816"
       y1="21.651564"
       x1="1133.3816"
       gradientUnits="userSpaceOnUse"
       id="linearGradient6890"
       xlink:href="#linearGradient6876"
       inkscape:collect="always" />
    <filter
       color-interpolation-filters="sRGB"
       inkscape:collect="always"
       id="filter5354-4"
       x="-0.21153671"
       width="1.4230734"
       y="-0.061348539"
       height="1.1226971">
      <feGaussianBlur
         inkscape:collect="always"
         stdDeviation="0.87589417"
         id="feGaussianBlur5356-7" />
    </filter>
    <filter
       color-interpolation-filters="sRGB"
       inkscape:collect="always"
       id="filter5358-1"
       x="-0.085071997"
       width="1.170144"
       y="-0.082163223"
       height="1.1643264">
      <feGaussianBlur
         inkscape:collect="always"
         stdDeviation="0.87589417"
         id="feGaussianBlur5360-0" />
    </filter>
    <filter
       color-interpolation-filters="sRGB"
       inkscape:collect="always"
       id="filter5590"
       x="-0.061314347"
       width="1.1226287"
       y="-0.4526684"
       height="1.9053368">
      <feGaussianBlur
         inkscape:collect="always"
         stdDeviation="0.51095291"
         id="feGaussianBlur5592" />
    </filter>
    <filter
       color-interpolation-filters="sRGB"
       inkscape:collect="always"
       id="filter5574"
       x="-0.061314347"
       width="1.1226287"
       y="-0.4526684"
       height="1.9053368">
      <feGaussianBlur
         inkscape:collect="always"
         stdDeviation="0.51095291"
         id="feGaussianBlur5576" />
    </filter>
    <filter
       color-interpolation-filters="sRGB"
       inkscape:collect="always"
       id="filter5578"
       x="-0.061314347"
       width="1.1226287"
       y="-0.4526684"
       height="1.9053368">
      <feGaussianBlur
         inkscape:collect="always"
         stdDeviation="0.51095291"
         id="feGaussianBlur5580" />
    </filter>
    <radialGradient
       inkscape:collect="always"
       xlink:href="#linearGradient4011"
       id="radialGradient4471"
       gradientUnits="userSpaceOnUse"
       cx="1255.8716"
       cy="382.72916"
       fx="1255.8716"
       fy="382.72916"
       r="96.605507" />
    <radialGradient
       inkscape:collect="always"
       xlink:href="#linearGradient1085"
       id="radialGradient4671"
       gradientUnits="userSpaceOnUse"
       cx="1255.8716"
       cy="382.72916"
       fx="1255.8716"
       fy="382.72916"
       r="96.605507"
       gradientTransform="matrix(1.0765432,0,0,1.0765432,-334.53758,167.99246)" />
    <linearGradient
       inkscape:collect="always"
       xlink:href="#linearGradient1783"
       id="linearGradient1785"
       x1="83.641693"
       y1="76.548164"
       x2="168.99756"
       y2="76.554298"
       gradientUnits="userSpaceOnUse"
       gradientTransform="matrix(0.9991728,0,0,0.85993439,-1.8725639,11.773591)" />
  </defs>
  <g
     inkscape:groupmode="layer"
     id="layer1"
     style="display:none"
     inkscape:label="layer1"
     transform="translate(-1798.1356,76.7415)" />
  <g
     inkscape:groupmode="layer"
     id="layer2"
     style="display:inline"
     inkscape:label="glow"
     transform="translate(-1798.1356,76.7415)" />
  <g
     transform="translate(-1028.03,408.47464)"
     style="display:inline"
     inkscape:label="box"
     id="layer4" />
  <g
     transform="translate(-1028.03,408.47464)"
     style="display:inline"
     inkscape:label="zip_app"
     id="layer5" />
  <g
     inkscape:label="#g4535"
     id="ClockFace"
     transform="translate(-917.46243,-480.01699)">
    <g
       id="g4323"
       inkscape:label="#g4323">
      <rect
         y="473.017"
         x="910.4624"
         height="214"
         width="214"
         id="rect4069"
         style="opacity:0.00499998;fill:#717171;fill-opacity:1;stroke:none" />
      <circle
         style="opacity:1;fill:url(#radialGradient4671);fill-opacity:1;stroke:none;stroke-width:1.07654"
         id="path4329"
         inkscape:export-xdpi="90"
         inkscape:export-ydpi="90"
         cx="1017.4624"
         cy="580.01697"
         r="104" />
      <g
         id="clockBase">
        <circle
           inkscape:export-ydpi="90"
           inkscape:export-xdpi="90"
           style="opacity:0.65;fill:#24273a;fill-opacity:1;stroke:none"
           id="path5099"
           cx="1017.468"
           cy="580.02252"
           r="96.605507" />
        <g
           id="g6149"
           transform="translate(-0.50849973,-0.41219339)">
          <path
             inkscape:connector-curvature="0"
             style="color:#000000;font-style:normal;font-variant:normal;font-weight:normal;font-stretch:normal;font-size:medium;line-height:normal;font-family:Sans;-inkscape-font-specification:Sans;text-indent:0;text-align:start;text-decoration:none;text-decoration-line:none;letter-spacing:normal;word-spacing:normal;text-transform:none;writing-mode:lr-tb;direction:ltr;baseline-shift:baseline;text-anchor:start;display:inline;overflow:visible;visibility:visible;opacity:1;fill:#d1d5e9;fill-opacity:1;stroke:none;stroke-width:0.995338px;marker:none;enable-background:accumulate"
             d="m 974.53556,503.97918 -0.83938,0.4979 2.083,3.57856 c 0.27626,-0.16275 0.56112,-0.30714 0.83938,-0.46679 z m 87.42714,0 -2.0213,3.51634 c 0.2908,0.16611 0.582,0.3284 0.8705,0.49788 l 2.0213,-3.51632 z m -95.19978,5.00997 -0.80836,0.56012 2.45609,3.39184 c 0.26747,-0.19804 0.53842,-0.39631 0.80847,-0.59123 z m 102.97188,0 -2.3624,3.26739 c 0.265,0.1909 0.5454,0.36619 0.808,0.56012 l 2.3633,-3.26739 z m -110.18499,5.78792 -0.71512,0.65348 2.76717,3.08069 c 0.23855,-0.21855 0.505,-0.40657 0.74614,-0.62238 z m 117.39809,0 -2.7044,2.98733 c 0.2465,0.22012 0.5018,0.43051 0.7456,0.65346 l 2.7052,-2.98731 z m -123.95825,6.50366 -0.65287,0.74679 3.10907,2.80062 c 0.21812,-0.24627 0.43204,-0.50314 0.65287,-0.74681 z m 130.51875,0 -2.9847,2.6761 c 0.2317,0.25441 0.4553,0.52076 0.6838,0.77796 l 2.9847,-2.70727 z m -136.3638,7.15711 -0.59065,0.77791 3.41997,2.48945 c 0.19121,-0.26718 0.36541,-0.54422 0.55962,-0.80907 z m 142.2091,0 -3.2338,2.36494 c 0.1896,0.25775 0.373,0.51797 0.5597,0.77794 l 3.2643,-2.36497 z m -147.30792,7.7172 -0.49748,0.87133 3.66879,2.11598 c 0.16479,-0.29045 0.32919,-0.58297 0.49748,-0.8713 z m 152.40682,0 -3.4828,2.02268 c 0.1691,0.28917 0.3315,0.57994 0.4981,0.87129 l 3.482,-2.02264 z m -156.63522,8.21512 -0.40414,0.90243 3.8553,1.7115 c 0.13258,-0.30405 0.26815,-0.60029 0.40413,-0.90244 z m 160.86282,0 -3.6687,1.61814 c 0.1362,0.30014 0.2725,0.60045 0.4045,0.90242 l 3.6686,-1.61813 z m -164.22056,8.61966 -0.31086,0.93355 4.0417,1.30693 c 0.0975,-0.3071 0.1795,-0.62794 0.27987,-0.93354 z m 167.57846,0 -3.824,1.24472 c 0.102,0.30836 0.213,0.6236 0.3107,0.93353 l 3.8247,-1.2447 z m -170.03457,8.93084 -0.18659,0.96465 4.13505,0.87129 c 0.066,-0.32271 0.1484,-0.64329 0.21764,-0.96465 z m 172.46017,0 -3.9175,0.84018 c 0.069,0.31929 0.1209,0.644 0.1865,0.96464 l 3.9481,-0.84017 z m -173.9214,9.11753 -0.12437,0.96464 4.25935,0.43567 c 0.031,-0.32063 0.059,-0.64511 0.0933,-0.96467 l -4.22832,-0.43564 z m 175.4447,0 -4.0418,0.43564 c 0.035,0.31956 0.063,0.64404 0.094,0.96467 l 4.0417,-0.43567 -0.094,-0.96464 z m -171.27862,18.01723 -4.29045,0.43564 0.12437,0.99579 4.25935,-0.43566 c -0.037,-0.33123 -0.061,-0.66335 -0.0931,-0.99577 z m 167.29922,0 c -0.033,0.33242 -0.057,0.66454 -0.094,0.99577 l 4.073,0.43566 0.094,-0.99579 z m -165.99336,8.68188 -4.1973,0.90243 0.18659,0.96465 4.22832,-0.90242 c -0.071,-0.32098 -0.15117,-0.64232 -0.21761,-0.96466 z m 164.68726,0.0625 c -0.067,0.32225 -0.1471,0.64374 -0.2179,0.96465 l 3.9801,0.84018 0.2171,-0.96465 z m -162.44869,8.43293 -4.10403,1.33808 0.31086,0.96463 4.10395,-1.33804 c -0.10696,-0.32192 -0.20762,-0.64105 -0.31078,-0.96467 z m 160.17919,0.0625 c -0.1041,0.32351 -0.2038,0.64285 -0.3109,0.96466 l 3.917,1.27581 0.3114,-0.96463 z m -157.07011,8.18401 -3.94865,1.77369 0.40414,0.90244 3.94864,-1.77373 c -0.13696,-0.30182 -0.27075,-0.59875 -0.40413,-0.9024 z m 153.96121,0.093 c -0.1338,0.30207 -0.268,0.60227 -0.4044,0.90241 l 3.7615,1.68039 0.4044,-0.90244 z m -149.98164,7.74835 -3.79316,2.17825 0.49748,0.8713 3.79316,-2.17826 c -0.16909,-0.28774 -0.33187,-0.58135 -0.49748,-0.87129 z m 146.00154,0.0933 c -0.1667,0.29083 -0.3274,0.58265 -0.4973,0.87129 l 3.6069,2.08489 0.4973,-0.8713 z m -141.27574,7.31269 -3.51331,2.55166 0.59065,0.80907 3.51331,-2.55166 c -0.19851,-0.26916 -0.39534,-0.53747 -0.59065,-0.80907 z m 136.48824,0.093 c -0.1922,0.2664 -0.3644,0.54501 -0.5597,0.80906 l 3.3579,2.45832 0.5902,-0.80907 z m -130.95425,6.7526 -3.26447,2.92505 0.65287,0.74685 3.26457,-2.92507 c -0.22304,-0.24468 -0.43266,-0.49955 -0.65297,-0.74683 z m 125.45095,0.093 c -0.2255,0.25222 -0.4562,0.49739 -0.6839,0.74685 l 3.1401,2.83172 0.6838,-0.74685 z m -119.32605,6.16136 -2.89146,3.23623 0.71512,0.68462 2.92256,-3.26738 c -0.24694,-0.22012 -0.50179,-0.43052 -0.74622,-0.65347 z m 113.13875,0.0931 c -0.2492,0.22711 -0.4934,0.46045 -0.7464,0.68457 l 2.8294,3.14293 0.7464,-0.68462 z m -106.36098,5.47675 -2.54936,3.51628 0.80836,0.59127 2.54936,-3.51632 c -0.27016,-0.1945 -0.54051,-0.3936 -0.80836,-0.59123 z m 99.55238,0.0931 c -0.2687,0.19707 -0.5377,0.3973 -0.8081,0.59123 l 2.4866,3.42298 0.8089,-0.59127 z m -92.18387,4.76102 -2.17625,3.76529 0.83938,0.49788 2.17635,-3.79639 c -0.27856,-0.15929 -0.56292,-0.30439 -0.83948,-0.46678 z m 84.81537,0.0625 c -0.2819,0.1645 -0.5561,0.33662 -0.8393,0.4979 l 2.1142,3.70304 0.8705,-0.49788 z m -77.04262,3.98312 -1.74109,3.95194 0.90161,0.40456 1.77211,-3.952 c -0.31166,-0.13706 -0.62305,-0.26379 -0.93263,-0.4045 z m 69.26992,0.093 c -0.3062,0.13829 -0.6243,0.26985 -0.9331,0.40455 l 1.7106,3.85862 0.9322,-0.40455 z m -61.06201,3.1118 -1.33697,4.13865 0.93274,0.31121 1.33685,-4.13867 c -0.31247,-0.0996 -0.62176,-0.20794 -0.93262,-0.31119 z m 52.82291,0.0625 c -0.3204,0.10562 -0.6412,0.20929 -0.9633,0.31117 l 1.3365,4.07645 0.9634,-0.31121 z m -44.3662,2.24048 -0.90171,4.23201 0.99461,0.21784 0.9018,-4.23201 c -0.332,-0.0688 -0.6642,-0.14543 -0.9947,-0.21784 z m 35.8781,0.0625 c -0.3247,0.0705 -0.6372,0.1514 -0.9633,0.21783 l 0.9018,4.16979 0.9633,-0.21784 z m -27.173,1.36919 -0.4661,4.3254 0.9946,0.093 0.4357,-4.29428 c -0.3231,-0.0321 -0.6421,-0.0885 -0.9642,-0.12445 z m 18.4993,0.0313 c -0.3213,0.035 -0.6412,0.0624 -0.9642,0.093 l 0.4356,4.29428 0.9634,-0.093 z"
             id="path5480"
             sodipodi:nodetypes="cccccccccccccccccccccccccccccccccccccccccccccccccccccccccccccccccccccccccccccccccccccccccccccccccccccccccccccccccccccccccccccccccccccccccccccccccccccccccccccccccccccccccccccccccccccccccccccccccccccccccccccccccccccccccccccccccccccccccccccccccccc" />
        </g>
        <g
           inkscape:export-ydpi="90"
           inkscape:export-xdpi="90"
           transform="translate(-283.73228,123.31062)"
           id="g5157">
          <g
             style="font-style:normal;font-variant:normal;font-weight:normal;font-stretch:normal;font-size:40px;line-height:125%;font-family:Oxygen;-inkscape-font-specification:Oxygen;text-align:start;letter-spacing:0px;word-spacing:0px;writing-mode:lr-tb;text-anchor:start;fill:#232629;fill-opacity:0.442708;stroke:none;filter:url(#filter5354-4)"
             id="text4522" />
          <g
             style="font-style:normal;font-variant:normal;font-weight:normal;font-stretch:normal;font-size:40px;line-height:125%;font-family:Oxygen;-inkscape-font-specification:Oxygen;text-align:start;letter-spacing:0px;word-spacing:0px;writing-mode:lr-tb;text-anchor:start;fill:#1abc9c;fill-opacity:1;stroke:none"
             id="text5149" />
          <g
             style="font-style:normal;font-variant:normal;font-weight:normal;font-stretch:normal;font-size:40px;line-height:125%;font-family:Oxygen;-inkscape-font-specification:Oxygen;text-align:start;letter-spacing:0px;word-spacing:0px;writing-mode:lr-tb;text-anchor:start;fill:#232629;fill-opacity:0.442708;stroke:none;filter:url(#filter5358-1)"
             id="text4526">
            <path
               id="path6204"
               d="m 1306.013,368.67137 c 2.3604,2e-5 4.2502,0.62076 5.6701,1.8622 1.4321,1.2304 2.1478,2.91369 2.1478,5.04992 0,1.45403 -0.3746,2.82423 -1.1244,4.11041 -0.7493,1.27502 -1.9014,2.74588 -3.4558,4.41234 l -7.0962,7.56647 h 11.1898 v 2.58366 h -14.1262 v -3.17087 l 8.0701,-9.17707 c 1.0955,-1.25262 1.9181,-2.34318 2.4664,-3.27146 0.5588,-0.93957 0.8382,-1.86785 0.8382,-2.78507 0,-1.43157 -0.4082,-2.52211 -1.2244,-3.27152 -0.8161,-0.74932 -1.9631,-1.12405 -3.4396,-1.12408 -2.1922,3e-5 -3.9868,0.70469 -5.3847,2.11397 l -0.9732,-2.634 c 1.6438,-1.50988 3.7911,-2.26488 6.4421,-2.2649 m -12.7821,1.05698 h 3.0034 v 24.52802 h -3.0034 V 372.5301 c -1.3759,0.91716 -2.7456,1.68335 -4.1102,2.2984 v -2.63393 c 1.0736,-0.46971 2.4434,-1.29178 4.1102,-2.46622"
               inkscape:connector-curvature="0"
               style="stroke-width:0.858987" />
          </g>
          <g
             style="font-style:normal;font-variant:normal;font-weight:normal;font-stretch:normal;font-size:40px;line-height:125%;font-family:Oxygen;-inkscape-font-specification:Oxygen;text-align:start;letter-spacing:0px;word-spacing:0px;writing-mode:lr-tb;text-anchor:start;fill:#16a085;fill-opacity:1;stroke:none"
             id="text5153"
             transform="translate(0,6)">
            <path
               id="path6197"
               d="m 1305.8906,363.0712 c 2.2036,3e-5 3.9681,0.57951 5.2934,1.73848 1.3369,1.14863 2.005,2.72005 2.005,4.71435 0,1.35742 -0.3498,2.63661 -1.0496,3.83731 -0.6997,1.19028 -1.7753,2.56345 -3.2263,4.11915 l -6.6245,7.06371 h 10.4461 v 2.412 h -13.1878 v -2.96021 l 7.5343,-8.56727 c 1.0224,-1.1694 1.7906,-2.18749 2.3026,-3.05407 0.5217,-0.87715 0.7823,-1.74375 0.7823,-2.60005 0,-1.33643 -0.3809,-2.35452 -1.143,-3.05412 -0.7617,-0.69954 -1.833,-1.04939 -3.2112,-1.0494 -2.0463,10e-6 -3.7218,0.65786 -5.0266,1.97352 l -0.9086,-2.459 c 1.5342,-1.40953 3.539,-2.11437 6.0139,-2.1144 m -11.9331,0.98675 h 2.8042 v 22.89825 h -2.8042 v -20.28265 c -1.2841,0.85618 -2.5626,1.57148 -3.8368,2.14566 v -2.4589 c 1.0022,-0.43849 2.281,-1.20596 3.8368,-2.30236"
               inkscape:connector-curvature="0"
               style="fill:#7580bc;fill-opacity:1;stroke-width:0.801912" />
          </g>
        </g>
        <rect
           inkscape:export-ydpi="90"
           inkscape:export-xdpi="90"
           y="580.17072"
           x="927.4787"
           height="2.7090182"
           width="20"
           id="rect5549"
           style="fill:#212121;fill-opacity:0.413462;stroke:none;filter:url(#filter5590)"
           transform="matrix(0.74918656,0,0,1,232.62412,0)" />
        <rect
           inkscape:export-ydpi="90"
           inkscape:export-xdpi="90"
           style="fill:#7580bc;fill-opacity:1;stroke:none;stroke-width:0.866025"
           id="rect5442"
           width="15"
           height="2.7090182"
           x="927.37054"
           y="578.95905" />
        <rect
           inkscape:export-ydpi="90"
           inkscape:export-xdpi="90"
           style="fill:#1c1c1c;fill-opacity:0.360577;stroke:none;filter:url(#filter5574)"
           id="rect5531"
           width="20"
           height="2.7090182"
           x="1088.5787"
           y="580.17169"
           transform="matrix(0.75581565,0,0,1,270.69759,0)" />
        <rect
           inkscape:export-ydpi="90"
           inkscape:export-xdpi="90"
           y="-1323.934"
           x="349.02609"
           height="2.7090182"
           width="20"
           id="rect5571"
           style="fill:#2a2a2a;fill-opacity:0.524038;stroke:none;filter:url(#filter5578)"
           transform="matrix(0,0.64048563,-1,0,-304.79922,436.47079)" />
        <rect
           inkscape:export-ydpi="90"
           inkscape:export-xdpi="90"
           transform="rotate(90)"
           style="fill:#7580bc;fill-opacity:1;stroke:none;stroke-width:0.866025"
           id="rect5448"
           width="15"
           height="2.7090182"
           x="656.61395"
           y="-1019.2259" />
        <circle
           inkscape:export-ydpi="90"
           inkscape:export-xdpi="90"
           id="path5627"
           style="fill:none;stroke:#1f252f;stroke-opacity:1"
           transform="translate(-238.40858,197.28733)"
           cx="1255.8716"
           cy="382.72916"
           r="96.605507" />
        <g
           id="g6073"
           transform="translate(-0.50849973,-0.41219339)">
          <path
             id="path6063"
             style="fill:#7580bc;fill-opacity:1;stroke:none"
             d="m 1090.3075,537.57714 4.0274,-2.3252 1.3545,2.34607 -4.0274,2.3252 z m -149.43492,86.2763 4.0273,-2.32515 1.3545,2.34607 -4.0273,2.32515 z"
             inkscape:connector-curvature="0" />
          <path
             inkscape:connector-curvature="0"
             d="m 1059.0835,507.3447 2.3252,-4.02738 2.3461,1.35451 -2.3252,4.02738 z m -86.27632,149.43492 2.3252,-4.02729 2.3461,1.35451 -2.3252,4.02729 z"
             style="fill:#7580bc;fill-opacity:1;stroke:none"
             id="path6065" />
          <path
             id="path6067"
             style="fill:#7580bc;fill-opacity:1;stroke:none"
             d="m 944.89998,539.92325 -4.0274,-2.32521 1.3545,-2.34608 4.0274,2.3252 z m 149.43492,86.27629 -4.0273,-2.3252 1.3545,-2.34614 4.0273,2.32526 z"
             inkscape:connector-curvature="0" />
          <path
             inkscape:connector-curvature="0"
             d="m 975.13238,508.69925 -2.3252,-4.02739 2.3461,-1.35452 2.3252,4.02738 z m 86.27632,149.43491 -2.3251,-4.02733 2.3461,-1.35457 2.3251,4.02738 z"
             style="fill:#7580bc;fill-opacity:1;stroke:none"
             id="path6069" />
        </g>
        <g
           transform="matrix(0.52607717,0,0,0.52607717,844.56775,68.836175)"
           id="g4410"
           style="fill:#f2891e;fill-opacity:1">
          <path
             inkscape:connector-curvature="0"
             id="path4338"
             style="font-style:normal;font-variant:normal;font-weight:normal;font-stretch:normal;font-size:medium;line-height:125%;font-family:Quicksand;-inkscape-font-specification:'Quicksand, Normal';text-align:start;letter-spacing:0px;word-spacing:0px;writing-mode:lr-tb;text-anchor:start;fill:#d1d5e9;fill-opacity:1;stroke:none;stroke-width:1px;stroke-linecap:butt;stroke-linejoin:miter;stroke-opacity:1"
             d="m 435.76454,916.07074 c 0.12571,0.15714 0.34571,0.22 0.56571,0.22 h 0.12572 12.25714 c 0.40857,0 0.75429,-0.34571 0.75429,-0.75429 0,-0.44 -0.34572,-0.78571 -0.75429,-0.78571 h -10.40286 l 8.8,-7.95143 c 1.57143,-1.44571 2.35715,-3.39428 2.35715,-5.34286 0,-1.69714 -0.59715,-3.42571 -1.88572,-4.80857 -1.41428,-1.60286 -3.36285,-2.35714 -5.28,-2.35714 -1.72857,0 -3.48857,0.62857 -4.87143,1.85428 l -1.06857,1.00572 c -0.31428,0.25143 -0.34571,0.75428 -0.0314,1.06857 0.25143,0.31429 0.75429,0.34571 1.06857,0.0314 l 1.06858,-0.97429 c 1.1,-0.97428 2.45143,-1.44571 3.83428,-1.44571 1.54,0 3.08,0.62857 4.18,1.85428 0.97429,1.06858 1.47715,2.42001 1.47715,3.77143 0,1.57143 -0.66,3.08 -1.88572,4.21143 l -10.27714,9.27143 c -0.31429,0.31429 -0.31429,0.78572 -0.0314,1.13143 z" />
          <path
             inkscape:connector-curvature="0"
             id="path4340"
             style="font-style:normal;font-variant:normal;font-weight:normal;font-stretch:normal;font-size:medium;line-height:125%;font-family:Quicksand;-inkscape-font-specification:'Quicksand, Normal';text-align:start;letter-spacing:0px;word-spacing:0px;writing-mode:lr-tb;text-anchor:start;fill:#7580bc;fill-opacity:1;stroke:none;stroke-width:1.55525px;stroke-linecap:butt;stroke-linejoin:miter;stroke-opacity:1"
             d="m 466.99913,956.89971 c 0.0978,-0.14666 0.14666,-0.34215 0.14666,-0.53768 0,-0.68431 -0.53769,-1.22197 -1.222,-1.22197 h -15.98352 c -0.68431,0 -1.22199,0.53766 -1.22199,1.22197 0,0.68431 0.53768,1.22199 1.22199,1.22199 h 13.09964 l -8.505,8.74939 c -0.48878,0.4888 -0.48878,1.27088 0,1.75966 0,0 0.0488,0 0.0488,0 0.24439,0.29327 0.58654,0.4888 0.97758,0.4888 2.34621,0 4.69243,0.87982 6.45207,2.68836 1.80854,1.75966 2.68837,4.10586 2.68837,6.45207 0,2.3462 -0.87983,4.6924 -2.68837,6.50094 -1.80853,1.75966 -4.15473,2.63948 -6.50095,2.63948 -2.3462,0 -4.64353,-0.87982 -6.45207,-2.63948 -0.48878,-0.4888 -1.27085,-0.4888 -1.71077,0 -0.48879,0.4888 -0.48879,1.27086 0,1.71078 2.24845,2.29732 5.23009,3.42155 8.16284,3.42155 0,0 0,0 0,0 2.98165,0 5.96328,-1.17311 8.21172,-3.42155 2.29734,-2.24844 3.42157,-5.23009 3.42157,-8.21172 0,-2.98164 -1.12423,-5.96329 -3.37269,-8.21173 -1.66189,-1.66189 -3.71482,-2.68836 -5.86551,-3.12827 l 8.84716,-9.09155 c 0.0977,-0.0978 0.19551,-0.24441 0.24439,-0.39104 z" />
          <path
             inkscape:connector-curvature="0"
             id="path4342"
             style="font-style:normal;font-variant:normal;font-weight:normal;font-stretch:normal;font-size:medium;line-height:125%;font-family:Quicksand;-inkscape-font-specification:'Quicksand, Normal';text-align:start;letter-spacing:0px;word-spacing:0px;writing-mode:lr-tb;text-anchor:start;fill:#d1d5e9;fill-opacity:1;stroke:none;stroke-width:1px;stroke-linecap:butt;stroke-linejoin:miter;stroke-opacity:1"
             d="m 446.99155,1046.4905 c 0,0.4085 0.34571,0.7542 0.75429,0.7542 0.44,0 0.78571,-0.3457 0.78571,-0.7542 v -3.7715 h 1.47714 c 0.44,0 0.78572,-0.3457 0.78572,-0.7543 0,-0.4085 -0.34572,-0.7542 -0.78572,-0.7542 h -1.47714 v -15.0858 -0.094 c 0,-0.031 -0.0314,-0.063 -0.0314,-0.1257 -0.0629,-0.1257 -0.12571,-0.2828 -0.25143,-0.3771 -0.34571,-0.2829 -0.78571,-0.2514 -1.06857,0.094 l -0.0314,0.031 -12.72857,15.84 c -0.28286,0.3143 -0.25143,0.8171 0.0943,1.0686 0.12571,0.1257 0.31428,0.1571 0.47142,0.1571 h 0.0629 0.0314 11.91143 v 3.7714 z m -10.40286,-5.28 10.40286,-12.8858 v 12.8858 z" />
          <path
             inkscape:connector-curvature="0"
             id="path4344"
             style="font-style:normal;font-variant:normal;font-weight:normal;font-stretch:normal;font-size:medium;line-height:125%;font-family:Quicksand;-inkscape-font-specification:'Quicksand, Normal';text-align:start;letter-spacing:0px;word-spacing:0px;writing-mode:lr-tb;text-anchor:start;fill:#d1d5e9;fill-opacity:1;stroke:none;stroke-width:1px;stroke-linecap:butt;stroke-linejoin:miter;stroke-opacity:1"
             d="m 393.5961,1095.2401 c 1.88571,0 3.83429,-0.7543 5.28,-2.1685 1.47714,-1.4458 2.16857,-3.3943 2.16857,-5.28 0,-1.9486 -0.69143,-3.8343 -2.16857,-5.28 -1.44571,-1.4772 -3.33143,-2.1686 -5.24857,-2.1686 -1.32,0 -2.60857,0.3457 -3.74,1.0057 l 0.78571,-6.5371 h 9.58572 c 0.44,0 0.78571,-0.3143 0.78571,-0.7858 0,-0.44 -0.34571,-0.7857 -0.78571,-0.7857 h -10.24572 c -0.18857,0 -0.37714,0.063 -0.50285,0.1886 -0.18858,0.1257 -0.31429,0.3143 -0.31429,0.5657 l -1.06857,8.8629 c 0,0.063 -0.0314,0.1257 -0.0314,0.1571 0,0.094 0,0.1886 0.0314,0.2514 0,0.031 0,0.063 0.0314,0.094 v 0.031 c 0.0314,0.094 0.0943,0.1886 0.18857,0.2515 0.28286,0.3142 0.78571,0.3142 1.1,0 1.16286,-1.1629 2.64,-1.7286 4.18,-1.7286 1.50857,0 3.01714,0.5657 4.14857,1.6971 1.13143,1.1315 1.69714,2.64 1.69714,4.18 0,1.5086 -0.56571,2.9857 -1.72857,4.1486 -1.16286,1.1629 -2.64,1.7286 -4.14857,1.7286 -1.50857,0 -2.98571,-0.5657 -4.14857,-1.6972 -0.31429,-0.3143 -0.81714,-0.3143 -1.13143,0 -0.31429,0.2829 -0.31429,0.7857 0,1.1 1.44571,1.4457 3.36286,2.1686 5.28,2.1686 z" />
          <path
             inkscape:connector-curvature="0"
             id="path4346"
             style="font-style:normal;font-variant:normal;font-weight:normal;font-stretch:normal;font-size:medium;line-height:125%;font-family:Quicksand;-inkscape-font-specification:'Quicksand, Normal';text-align:start;letter-spacing:0px;word-spacing:0px;writing-mode:lr-tb;text-anchor:start;fill:#7580bc;fill-opacity:1;stroke:none;stroke-width:1.55733px;stroke-linecap:butt;stroke-linejoin:miter;stroke-opacity:1"
             d="m 318.0467,1096.3097 c 0,0.7829 0,1.5172 0.0978,2.2514 0.19579,6.0691 5.18814,10.9147 11.30622,10.9147 6.31388,0 11.35517,-5.0414 11.35517,-11.3062 0,-6.2161 -5.04129,-11.3062 -11.35517,-11.3062 -3.37718,0 -6.41175,1.5173 -8.46742,3.8665 0.48945,-2.4472 1.27256,-4.8455 2.44724,-6.8523 2.15356,-3.573 5.18814,-6.0202 9.98472,-6.2159 0.63627,-0.049 1.17466,-0.5873 1.17466,-1.2725 -0.0489,-0.6364 -0.58733,-1.1747 -1.22361,-1.1258 -5.6776,0.1957 -9.64211,3.2792 -11.99145,7.4395 -2.34935,4.0624 -3.2793,9.0549 -3.32823,13.6068 z m 2.49617,1.8599 c 0,-4.8946 4.01347,-8.9079 8.90793,-8.9079 4.99237,0 9.00583,4.0133 9.00583,8.9079 0,4.8944 -4.01346,8.9079 -9.00583,8.9079 -4.50291,0 -8.27165,-3.3773 -8.85898,-7.7332 0.0489,-0.099 0.0489,-0.196 0.0489,-0.3427 -0.0489,-0.1958 -0.0979,-0.3916 -0.0979,-0.6362 v -0.1958 z" />
          <path
             inkscape:connector-curvature="0"
             id="path4348"
             style="font-style:normal;font-variant:normal;font-weight:normal;font-stretch:normal;font-size:medium;line-height:125%;font-family:Quicksand;-inkscape-font-specification:'Quicksand, Normal';text-align:start;letter-spacing:0px;word-spacing:0px;writing-mode:lr-tb;text-anchor:start;fill:#d1d5e9;fill-opacity:1;stroke:none;stroke-width:1px;stroke-linecap:butt;stroke-linejoin:miter;stroke-opacity:1"
             d="m 260.57686,1095.1247 c 0.12571,0.063 0.18857,0.063 0.31428,0.063 0.28286,0 0.56572,-0.1886 0.69143,-0.4715 l 8.51714,-20.24 c 0.0943,-0.1257 0.12572,-0.2514 0.12572,-0.4085 0,-0.094 -0.0314,-0.1572 -0.0629,-0.2515 -0.0629,-0.1885 -0.22,-0.3771 -0.40857,-0.4714 -0.15714,-0.063 -0.31429,-0.063 -0.47143,-0.031 h -11.62857 c -0.40857,0 -0.75429,0.3457 -0.75429,0.7543 0,0.4086 0.34572,0.7543 0.75429,0.7543 h 10.62286 l -8.14,19.2971 c -0.12572,0.3772 0.0628,0.8486 0.44,1.0057 z" />
          <path
             inkscape:connector-curvature="0"
             id="path4350"
             style="font-style:normal;font-variant:normal;font-weight:normal;font-stretch:normal;font-size:medium;line-height:125%;font-family:Quicksand;-inkscape-font-specification:'Quicksand, Normal';text-align:start;letter-spacing:0px;word-spacing:0px;writing-mode:lr-tb;text-anchor:start;fill:#d1d5e9;fill-opacity:1;stroke:none;stroke-width:1px;stroke-linecap:butt;stroke-linejoin:miter;stroke-opacity:1"
             d="m 211.056,1029.8478 c 0,1.54 0.72285,2.86 1.82285,3.7086 -2.57714,1.0686 -4.4,3.6457 -4.4,6.6 0,3.96 3.20572,7.1343 7.13429,7.1343 3.96,0 7.13429,-3.1743 7.13429,-7.1343 0,-2.9543 -1.82286,-5.5314 -4.43143,-6.6 1.13143,-0.8486 1.88571,-2.1686 1.88571,-3.7086 0,-2.5142 -2.07428,-4.5571 -4.58857,-4.5571 -2.54571,0 -4.55714,2.0429 -4.55714,4.5571 z m -1.06858,10.3086 c 0,-3.08 2.51429,-5.6257 5.62572,-5.6257 3.14286,0 5.62571,2.5457 5.62571,5.6257 0,3.1114 -2.48285,5.6257 -5.62571,5.6257 -3.11143,0 -5.62572,-2.5143 -5.62572,-5.6257 z m 2.57715,-10.3086 c 0,-1.6971 1.35143,-3.0485 3.04857,-3.0485 1.69714,0 3.08,1.3514 3.08,3.0485 0,1.6972 -1.38286,3.08 -3.08,3.1115 -1.69714,-0.031 -3.04857,-1.4143 -3.04857,-3.1115 z" />
          <path
             inkscape:connector-curvature="0"
             id="path4352"
             style="font-style:normal;font-variant:normal;font-weight:normal;font-stretch:normal;font-size:medium;line-height:125%;font-family:Quicksand;-inkscape-font-specification:'Quicksand, Normal';text-align:start;letter-spacing:0px;word-spacing:0px;writing-mode:lr-tb;text-anchor:start;fill:#7580bc;fill-opacity:1;stroke:none;stroke-width:1.55525px;stroke-linecap:butt;stroke-linejoin:miter;stroke-opacity:1"
             d="m 190.75548,966.3823 c 0,6.30543 5.08346,11.29111 11.29112,11.29111 3.42155,0 6.45208,-1.4175 8.50501,-3.7637 -0.43992,2.44397 -1.27088,4.79017 -2.44397,6.8431 -2.10181,3.5682 -5.23009,6.01216 -9.97138,6.20767 -0.68431,0.0488 -1.17311,0.58655 -1.17311,1.27086 0,0.63543 0.53768,1.12423 1.22199,1.12423 h 0.0488 c 5.62111,-0.19551 9.62921,-3.37267 11.97543,-7.42965 2.29732,-4.05698 3.2749,-9.09156 3.2749,-13.63732 0,-1.02647 -0.0488,-2.00407 -0.0978,-2.93277 -0.0488,-0.0978 -0.0488,-0.14666 -0.0978,-0.24439 -0.63544,-5.62113 -5.37673,-9.97138 -11.24225,-9.97138 -6.20766,0 -11.29112,5.03456 -11.29112,11.24224 z m 11.29112,8.89603 c -4.88792,0 -8.89604,-3.91034 -8.89604,-8.89603 0,-4.88794 4.00812,-8.84716 8.89604,-8.84716 4.98569,0 8.94491,3.95922 8.94491,8.84716 0,4.98569 -3.95922,8.89603 -8.94491,8.89603 z" />
          <g
             id="g4385"
             transform="translate(-200.10579,212.50001)"
             style="fill:#f2891e;fill-opacity:1">
            <path
               d="m 406.5812,703.03642 c 0,0.40858 0.34572,0.75429 0.75429,0.75429 0.44,0 0.75429,-0.34571 0.75429,-0.75429 v -20.20857 c 0.0314,-0.18857 0,-0.37714 -0.0943,-0.56571 -0.18857,-0.34572 -0.69143,-0.47143 -1.03714,-0.28286 l -4.24286,2.57714 c -0.37714,0.18857 -0.50286,0.62857 -0.28286,1.03715 0.12572,0.22 0.37715,0.37714 0.66,0.37714 0.12572,0 0.28286,-0.0629 0.37715,-0.12572 l 3.11142,-1.82285 v 19.01428 z"
               style="font-style:normal;font-variant:normal;font-weight:normal;font-stretch:normal;font-size:medium;line-height:125%;font-family:Quicksand;-inkscape-font-specification:'Quicksand, Normal';text-align:start;letter-spacing:0px;word-spacing:0px;writing-mode:lr-tb;text-anchor:start;fill:#d1d5e9;fill-opacity:1;stroke:none;stroke-width:1px;stroke-linecap:butt;stroke-linejoin:miter;stroke-opacity:1"
               id="path4354"
               inkscape:connector-curvature="0" />
            <path
               d="m 415.97638,700.45928 c 1.35142,1.98 3.26857,3.33143 5.5,3.33143 2.23143,0 4.14857,-1.35143 5.5,-3.33143 1.32,-2.01143 2.13714,-4.71428 2.13714,-7.66857 0,-2.95429 -0.81714,-5.65714 -2.13714,-7.7 -1.35143,-1.94857 -3.26857,-3.3 -5.5,-3.3 -2.23143,0 -4.14858,1.35143 -5.5,3.3 -1.35143,2.04286 -2.10572,4.74571 -2.10572,7.7 0,2.95429 0.75429,5.65714 2.10572,7.66857 z m 1.28857,-14.48857 c 1.13143,-1.72857 2.64,-2.64 4.21143,-2.64 0,0 0,0 0,0 1.57143,0 3.04857,0.91143 4.21143,2.64 1.13142,1.69714 1.88571,4.11714 1.88571,6.82 0,2.70286 -0.75429,5.12286 -1.88571,6.82 -1.16286,1.66571 -2.64,2.64 -4.21143,2.64 -1.57143,0 -3.08,-0.97429 -4.21143,-2.64 -1.13143,-1.69714 -1.85429,-4.11714 -1.85429,-6.82 0,-2.70286 0.72286,-5.12286 1.85429,-6.82 z"
               style="font-style:normal;font-variant:normal;font-weight:normal;font-stretch:normal;font-size:medium;line-height:125%;font-family:Quicksand;-inkscape-font-specification:'Quicksand, Normal';text-align:start;letter-spacing:0px;word-spacing:0px;writing-mode:lr-tb;text-anchor:start;fill:#d1d5e9;fill-opacity:1;stroke:none;stroke-width:1px;stroke-linecap:butt;stroke-linejoin:miter;stroke-opacity:1"
               id="path4356"
               inkscape:connector-curvature="0" />
          </g>
          <g
             id="g4389"
             transform="translate(-190.28436,164.50027)"
             style="fill:#f2891e;fill-opacity:1">
            <path
               d="m 448.93611,703.03642 c 0,0.40858 0.34571,0.75429 0.75428,0.75429 0.44,0 0.75429,-0.34571 0.75429,-0.75429 v -20.20857 c 0.0314,-0.18857 0,-0.37714 -0.0943,-0.56571 -0.18857,-0.34572 -0.69142,-0.47143 -1.03714,-0.28286 l -4.24286,2.57714 c -0.37714,0.18857 -0.50285,0.62857 -0.28285,1.03715 0.12571,0.22 0.37714,0.37714 0.66,0.37714 0.12571,0 0.28285,-0.0629 0.37714,-0.12572 l 3.11143,-1.82285 v 19.01428 z"
               style="font-style:normal;font-variant:normal;font-weight:normal;font-stretch:normal;font-size:medium;line-height:125%;font-family:Quicksand;-inkscape-font-specification:'Quicksand, Normal';text-align:start;letter-spacing:0px;word-spacing:0px;writing-mode:lr-tb;text-anchor:start;fill:#d1d5e9;fill-opacity:1;stroke:none;stroke-width:1px;stroke-linecap:butt;stroke-linejoin:miter;stroke-opacity:1"
               id="path4358"
               inkscape:connector-curvature="0" />
            <path
               d="m 461.49415,703.03642 c 0,0.40858 0.34572,0.75429 0.75429,0.75429 0.44,0 0.75428,-0.34571 0.75428,-0.75429 v -20.20857 c 0.0314,-0.18857 0,-0.37714 -0.0943,-0.56571 -0.18857,-0.34572 -0.69143,-0.47143 -1.03714,-0.28286 l -4.24286,2.57714 c -0.37714,0.18857 -0.50286,0.62857 -0.28286,1.03715 0.12572,0.22 0.37714,0.37714 0.66,0.37714 0.12572,0 0.28286,-0.0629 0.37714,-0.12572 l 3.11143,-1.82285 v 19.01428 z"
               style="font-style:normal;font-variant:normal;font-weight:normal;font-stretch:normal;font-size:medium;line-height:125%;font-family:Quicksand;-inkscape-font-specification:'Quicksand, Normal';text-align:start;letter-spacing:0px;word-spacing:0px;writing-mode:lr-tb;text-anchor:start;fill:#d1d5e9;fill-opacity:1;stroke:none;stroke-width:1px;stroke-linecap:butt;stroke-linejoin:miter;stroke-opacity:1"
               id="path4360"
               inkscape:connector-curvature="0" />
          </g>
          <path
             inkscape:connector-curvature="0"
             id="path4336"
             style="font-style:normal;font-variant:normal;font-weight:normal;font-stretch:normal;font-size:medium;line-height:125%;font-family:Quicksand;-inkscape-font-specification:'Quicksand, Normal';text-align:start;letter-spacing:0px;word-spacing:0px;writing-mode:lr-tb;text-anchor:start;fill:#d1d5e9;fill-opacity:1;stroke:none;stroke-width:1px;stroke-linecap:butt;stroke-linejoin:miter;stroke-opacity:1"
             d="m 395.93074,867.53664 c 0,0.40858 0.34572,0.75429 0.75429,0.75429 0.44,0 0.75428,-0.34571 0.75428,-0.75429 v -20.20857 c 0.0314,-0.18857 0,-0.37714 -0.0943,-0.56571 -0.18857,-0.34572 -0.69143,-0.47143 -1.03715,-0.28286 l -4.24285,2.57714 c -0.37715,0.18857 -0.50286,0.62857 -0.28286,1.03715 0.12571,0.22 0.37714,0.37714 0.66,0.37714 0.12571,0 0.28286,-0.0629 0.37714,-0.12572 l 3.11143,-1.82285 v 19.01428 z" />
        </g>
        <rect
           style="fill:#7580bc;fill-opacity:1;stroke:none;stroke-width:0.866025"
           id="rect952"
           width="15"
           height="2.7090182"
           x="1093.5704"
           y="578.46698"
           inkscape:export-xdpi="90"
           inkscape:export-ydpi="90" />
      </g>
    </g>
  </g>
  <path
     sodipodi:type="arc"
     style="opacity:0.001;fill:#1f252f;fill-opacity:1;stroke:none"
     id="HandCenterScrew"
     sodipodi:cx="-50"
     sodipodi:cy="100"
     sodipodi:rx="5"
     sodipodi:ry="5"
     d="m -45,100 a 5,5 0 1 1 -10,0 5,5 0 1 1 10,0 z"
     inkscape:label="#path4580" />
  <path
     sodipodi:type="arc"
     style="opacity:0.00100002;fill:#232629;fill-opacity:1;stroke:none"
     id="Glass"
     sodipodi:cx="-195"
     sodipodi:cy="100"
     sodipodi:rx="45"
     sodipodi:ry="45"
     d="m -150,100 a 45,45 0 1 1 -90,0 45,45 0 1 1 90,0 z"
     transform="matrix(1.5739209,0,0,1.5739209,111.91458,-57.39209)"
     inkscape:label="#path4584" />
  <rect
     id="hint-hands-shadow-offset-to-south"
     style="opacity:0.01;fill:#008080;fill-opacity:1;stroke:none"
     width="4"
     height="2"
     x="100"
     y="70" />
  <g
     id="SecondHand"
     transform="rotate(90,244.14998,116.45002)">
    <rect
       x="247"
       y="64"
       width="81"
       height="8"
       rx="0"
       ry="0"
       fill="none"
       style="paint-order:fill markers stroke"
       id="rect164" />
    <g
       transform="translate(161,-9)"
       fill="#5657f5"
       id="g170">
      <rect
         x="81.699959"
         y="76.599998"
         width="85.5"
         height="2"
         rx="1.5338267"
         ry="1"
         style="fill:url(#linearGradient1785);fill-opacity:1;stroke-width:0.910435;paint-order:fill markers stroke"
         id="rect166" />
      <circle
         cx="89.853874"
         cy="81"
         style="fill:#7580bc;fill-opacity:0.01;stroke-width:1;paint-order:fill markers stroke"
         id="circle168"
         r="2" />
    </g>
  </g>
  <g
     id="MinuteHand"
     transform="translate(145,20.000008)">
    <g
       transform="translate(23,2)"
       fill="#ffffff"
       id="g177">
      <path
         d="m 100,96 a 4,4 0 0 0 -4,4 4,4 0 0 0 4,4 4,4 0 0 0 4,-4 4,4 0 0 0 -4,-4 z m 0,1 a 3,3 0 0 1 3,3 3,3 0 0 1 -3,3 3,3 0 0 1 -3,-3 3,3 0 0 1 3,-3 z"
         stroke-linecap="round"
         stroke-linejoin="round"
         stroke-width="1.3333"
         style="fill:#d1d5e9;fill-opacity:1;paint-order:fill markers stroke"
         id="path173" />
      <path
         transform="translate(-23,-2)"
         d="m 123,105 -2,7 1,63 a 1,1 0 0 0 1,1 1,1 0 0 0 1,-1 l 1,-63 z"
         id="path175"
         style="fill:#d1d5e9;fill-opacity:1" />
    </g>
    <rect
       x="117"
       y="96"
       width="12"
       height="85"
       rx="0"
       ry="0"
       fill="none"
       stroke-linecap="round"
       stroke-linejoin="round"
       stroke-width="1.8439"
       style="paint-order:fill markers stroke"
       id="rect179" />
  </g>
  <g
     id="HourHand"
     transform="translate(89,47.000008)">
    <g
       transform="rotate(90,126.5,99.5)"
       fill="#ffffff"
       id="g186">
      <path
         transform="rotate(-90,85,85)"
         d="m 93,103 -2,7 1,44 a 1,1 0 0 0 1,1 1,1 0 0 0 1,-1 l 1,-44 z"
         id="path182"
         style="fill:#d1d5e9;fill-opacity:1" />
      <path
         d="m 100,73 a 4,4 0 0 0 -4,4 4,4 0 0 0 4,4 4,4 0 0 0 4,-4 4,4 0 0 0 -4,-4 z m 0,1 a 3,3 0 0 1 3,3 3,3 0 0 1 -3,3 3,3 0 0 1 -3,-3 3,3 0 0 1 3,-3 z"
         stroke-linecap="round"
         stroke-linejoin="round"
         stroke-width="1.3333"
         style="fill:#d1d5e9;fill-opacity:1;paint-order:fill markers stroke"
         id="path184" />
    </g>
    <rect
       x="140"
       y="64"
       width="18"
       height="64"
       rx="0"
       ry="0"
       fill="none"
       stroke-linecap="round"
       stroke-linejoin="round"
       stroke-width="2.043"
       style="paint-order:fill markers stroke"
       id="rect188" />
  </g>
</svg>
