<?xml version="1.0" encoding="UTF-8" standalone="no"?>
<svg
   viewBox="0 0 64 64"
   version="1.1"
   id="svg6"
   sodipodi:docname="bookmark-add-folder.svg"
   inkscape:version="1.2.1 (9c6d41e410, 2022-07-14)"
   width="64"
   height="64"
   xmlns:inkscape="http://www.inkscape.org/namespaces/inkscape"
   xmlns:sodipodi="http://sodipodi.sourceforge.net/DTD/sodipodi-0.dtd"
   xmlns:xlink="http://www.w3.org/1999/xlink"
   xmlns="http://www.w3.org/2000/svg"
   xmlns:svg="http://www.w3.org/2000/svg"
   xmlns:rdf="http://www.w3.org/1999/02/22-rdf-syntax-ns#"
   xmlns:cc="http://creativecommons.org/ns#"
   xmlns:dc="http://purl.org/dc/elements/1.1/">
  <metadata
     id="metadata10">
    <rdf:RDF>
      <cc:Work
         rdf:about="">
        <dc:format>image/svg+xml</dc:format>
        <dc:type
           rdf:resource="http://purl.org/dc/dcmitype/StillImage" />
      </cc:Work>
    </rdf:RDF>
  </metadata>
  <sodipodi:namedview
     pagecolor="#ffffff"
     bordercolor="#666666"
     borderopacity="1"
     objecttolerance="10"
     gridtolerance="10"
     guidetolerance="10"
     inkscape:pageopacity="0"
     inkscape:pageshadow="2"
     inkscape:window-width="1920"
     inkscape:window-height="1002"
     id="namedview8"
     showgrid="false"
     inkscape:zoom="5.046171"
     inkscape:cx="77.385407"
     inkscape:cy="9.0167376"
     inkscape:window-x="0"
     inkscape:window-y="0"
     inkscape:window-maximized="1"
     inkscape:current-layer="svg6"
     inkscape:lockguides="false"
     inkscape:document-rotation="0"
     inkscape:pagecheckerboard="0"
     inkscape:showpageshadow="2"
     inkscape:deskcolor="#d1d1d1">
    <inkscape:grid
       type="xygrid"
       id="grid858"
       originx="0"
       originy="0" />
  </sodipodi:namedview>
  <defs
     id="defs3051">
    <style
       type="text/css"
       id="current-color-scheme" />
    <linearGradient
       inkscape:collect="always"
       xlink:href="#linearGradient22063-0"
       id="linearGradient22065-6"
       x1="-22"
       y1="5.1111121"
       x2="-6.4444442"
       y2="-9.1111107"
       gradientUnits="userSpaceOnUse"
       gradientTransform="matrix(3.6250002,0,0,3.6250002,82.750005,39.249999)" />
    <linearGradient
       inkscape:collect="always"
       id="linearGradient22063-0">
      <stop
         style="stop-color:#88c0d0;stop-opacity:1;"
         offset="0"
         id="stop22059-6" />
      <stop
         style="stop-color:#5e81ac;stop-opacity:1;"
         offset="1"
         id="stop22061-2" />
    </linearGradient>
  </defs>
  <path
     d="m 2.999995,10.25 c 0,-4.004175 3.24594,-7.25 7.25,-7.25 h 43.50001 c 4.00417,0 7.25,3.245825 7.25,7.25 v 43.5 c 0,4.004173 -3.24583,7.25 -7.25,7.25 h -43.50001 c -4.00406,0 -7.25,-3.245827 -7.25,-7.25 z"
     id="path736-7"
     style="fill:#606c86;fill-opacity:1;stroke-width:3.625" />
  <path
     d="M 2.999995,9.796875 C 2.999995,6.043188 6.245935,3 10.249995,3 h 43.50001 c 4.00417,0 7.25,3.043188 7.25,6.796875 v 40.781249 c 0,3.753693 -3.24583,6.796876 -7.25,6.796876 h -43.50001 c -4.00406,0 -7.25,-3.043183 -7.25,-6.796876 z"
     id="path738-9"
     style="fill:url(#linearGradient22065-6);fill-opacity:1;stroke-width:3.625" />
  <path
     d="m 40.539385,20.037549 c 3.1196,3.183051 3.11647,8.305533 0,11.491928 L 26.732605,45.65 c -4.60756,-4.701479 -9.21521,-9.402831 -13.8227,-14.104194 -3.11988,-3.183015 -3.11988,-8.30888 0,-11.491952 3.1198,-3.183373 8.14301,-3.183416 11.26279,0 l 2.54391,2.595736 2.55975,-2.612042 c 3.11987,-3.183398 8.14303,-3.183398 11.26303,10e-7 z"
     style="color:#000000;fill:#d8dee9;fill-opacity:1;stroke-width:0.538448;enable-background:accumulate"
     stroke="none"
     marker="none"
     visibility="visible"
     display="inline"
     overflow="visible"
     id="path2-3" />
  <path
     d="m 48.855015,25.775823 h 6.28997 c 1.31165,0 2.35501,1.04336 2.35501,2.355014 v 6.289972 c 0,1.311653 -1.04336,2.355014 -2.35501,2.355014 h -6.28997 c -1.31166,0 -2.35502,-1.043361 -2.35502,-2.355014 v -6.289972 c 0,-1.311654 1.07318,-2.355014 2.35502,-2.355014 z"
     id="path14"
     style="fill:#d8dee9;fill-opacity:1;stroke-width:0.298103" />
  <path
     d="m 48.855015,7.701648 h 6.28997 c 1.31165,0 2.35501,1.04336 2.35501,2.355014 v 6.289972 c 0,1.311653 -1.04336,2.355014 -2.35501,2.355014 h -6.28997 c -1.31166,0 -2.35502,-1.043361 -2.35502,-2.355014 v -6.289972 c 0,-1.311654 1.07317,-2.355014 2.35502,-2.355014 z"
     id="path14-5"
     style="fill:#d8dee9;fill-opacity:1;stroke-width:0.298103" />
  <path
     d="m 48.855015,43.849998 h 6.28997 c 1.31165,0 2.35501,1.04336 2.35501,2.355013 v 6.289973 c 0,1.311653 -1.04336,2.355014 -2.35501,2.355014 h -6.28997 c -1.31166,0 -2.35502,-1.043361 -2.35502,-2.355014 v -6.289973 c 0,-1.311653 1.07317,-2.355013 2.35502,-2.355013 z"
     id="path14-9"
     style="fill:#d8dee9;fill-opacity:1;stroke-width:0.298103" />
  <path
     d="m 36.338935,41.349998 c -1.03964,0 -1.88229,0.842665 -1.88229,1.882295 v 4.235411 h -4.23541 c -1.03963,0 -1.8823,0.842645 -1.8823,1.882295 0,1.039671 0.84267,1.882292 1.8823,1.882292 h 4.23541 v 4.235412 c 0,1.039629 0.84265,1.882295 1.88229,1.882295 1.03961,0 1.88235,-0.842666 1.88235,-1.882295 v -4.235412 h 4.2353 c 1.0397,0 1.88235,-0.842621 1.88235,-1.882292 0,-1.03965 -0.84265,-1.882295 -1.88235,-1.882295 h -4.2353 v -4.235411 c 0,-1.03963 -0.84274,-1.882295 -1.88235,-1.882295 z"
     id="path76-3"
     style="fill:#24283b;fill-opacity:1;stroke-width:0.0840388" />
</svg>
