<?xml version="1.0" encoding="UTF-8" standalone="no"?>
<svg
   width="64"
   height="64"
   version="1.1"
   viewBox="0 0 64 64"
   id="svg420"
   sodipodi:docname="flameshot.svg"
   inkscape:version="1.2.1 (9c6d41e410, 2022-07-14)"
   xmlns:inkscape="http://www.inkscape.org/namespaces/inkscape"
   xmlns:sodipodi="http://sodipodi.sourceforge.net/DTD/sodipodi-0.dtd"
   xmlns:xlink="http://www.w3.org/1999/xlink"
   xmlns="http://www.w3.org/2000/svg"
   xmlns:svg="http://www.w3.org/2000/svg">
  <sodipodi:namedview
     id="namedview422"
     pagecolor="#ffffff"
     bordercolor="#666666"
     borderopacity="1.0"
     inkscape:showpageshadow="2"
     inkscape:pageopacity="0.0"
     inkscape:pagecheckerboard="0"
     inkscape:deskcolor="#d1d1d1"
     showgrid="true"
     inkscape:zoom="2.6074563"
     inkscape:cx="43.145499"
     inkscape:cy="-16.682926"
     inkscape:window-width="1920"
     inkscape:window-height="1002"
     inkscape:window-x="0"
     inkscape:window-y="0"
     inkscape:window-maximized="1"
     inkscape:current-layer="svg420">
    <inkscape:grid
       type="xygrid"
       id="grid2438" />
  </sodipodi:namedview>
  <defs
     id="defs388">
    <filter
       id="filter1178"
       x="-0.047999482"
       y="-0.047999482"
       width="1.095999"
       height="1.095999"
       color-interpolation-filters="sRGB">
      <feGaussianBlur
         stdDeviation="0.30691668"
         id="feGaussianBlur377" />
    </filter>
    <linearGradient
       id="linearGradient1340"
       x1="8.6644"
       x2="8.6644"
       y1="15.931"
       y2=".79375"
       gradientTransform="matrix(3.7796,0,0,3.7796,-0.02891356,-0.01140457)"
       gradientUnits="userSpaceOnUse">
      <stop
         stop-color="#b48ead"
         offset="0"
         id="stop380" />
      <stop
         stop-color="#b48ead"
         stop-opacity=".5"
         offset="1"
         id="stop382" />
    </linearGradient>
    <filter
       id="filter1233"
       x="-0.21788195"
       y="-0.087357099"
       width="1.4357639"
       height="1.1747142"
       color-interpolation-filters="sRGB">
      <feGaussianBlur
         stdDeviation="1.2350037"
         id="feGaussianBlur385" />
    </filter>
    <filter
       id="filter1233-7"
       x="-0.21788194"
       y="-0.087357099"
       width="1.4357639"
       height="1.1747142"
       color-interpolation-filters="sRGB">
      <feGaussianBlur
         stdDeviation="1.2350037"
         id="feGaussianBlur385-5" />
    </filter>
    <filter
       id="filter725"
       x="-0.21788195"
       y="-0.087357096"
       width="1.435764"
       height="1.1747142"
       color-interpolation-filters="sRGB">
      <feGaussianBlur
         stdDeviation="1.2350037"
         id="feGaussianBlur723" />
    </filter>
    <filter
       id="filter729"
       x="-0.21788195"
       y="-0.087357096"
       width="1.435764"
       height="1.1747142"
       color-interpolation-filters="sRGB">
      <feGaussianBlur
         stdDeviation="1.2350037"
         id="feGaussianBlur727" />
    </filter>
    <linearGradient
       inkscape:collect="always"
       xlink:href="#linearGradient22063"
       id="linearGradient22065"
       x1="-14"
       y1="6"
       x2="-14"
       y2="-9.999999"
       gradientUnits="userSpaceOnUse"
       gradientTransform="matrix(3.6250002,0,0,3.6250002,82.750003,39.249999)" />
    <linearGradient
       inkscape:collect="always"
       id="linearGradient22063">
      <stop
         style="stop-color:#333a49;stop-opacity:1;"
         offset="0"
         id="stop22059" />
      <stop
         style="stop-color:#434f60;stop-opacity:1;"
         offset="1"
         id="stop22061" />
    </linearGradient>
    <linearGradient
       xlink:href="#1"
       id="2"
       y1="536.75201"
       x2="0"
       y2="526.91602"
       gradientUnits="userSpaceOnUse"
       gradientTransform="matrix(1.4263583,0,0,1.4263583,-174.08983,-225.25085)" />
    <linearGradient
       id="1">
      <stop
         stop-color="#1482cf"
         id="stop377-3" />
      <stop
         offset="1"
         stop-color="#74bef2"
         id="stop379-6" />
    </linearGradient>
    <linearGradient
       xlink:href="#1"
       id="0"
       y1="15.024"
       x2="0"
       y2="8.6000004"
       gradientUnits="userSpaceOnUse"
       gradientTransform="matrix(1.4263583,0,0,1.4263583,374.44681,487.64015)" />
    <filter
       id="filter1233-7-3"
       x="-0.21788194"
       y="-0.087357099"
       width="1.4357639"
       height="1.1747142"
       color-interpolation-filters="sRGB">
      <feGaussianBlur
         stdDeviation="1.2350037"
         id="feGaussianBlur385-5-6" />
    </filter>
    <filter
       id="filter2454"
       x="-0.21788193"
       y="-0.087357096"
       width="1.435764"
       height="1.1747142"
       color-interpolation-filters="sRGB">
      <feGaussianBlur
         stdDeviation="1.2350037"
         id="feGaussianBlur2452" />
    </filter>
    <filter
       id="filter2458"
       x="-0.21788193"
       y="-0.087357096"
       width="1.435764"
       height="1.1747142"
       color-interpolation-filters="sRGB">
      <feGaussianBlur
         stdDeviation="1.2350037"
         id="feGaussianBlur2456" />
    </filter>
    <linearGradient
       inkscape:collect="always"
       xlink:href="#linearGradient1340"
       id="linearGradient2651"
       gradientUnits="userSpaceOnUse"
       gradientTransform="matrix(3.8458981,0,0,3.60553,-0.56147062,-0.33885663)"
       x1="8.6644"
       y1="15.931"
       x2="8.6644"
       y2=".79375" />
  </defs>
  <filter
     x="-.069933"
     y="-.054406"
     width="1.1399"
     height="1.1088"
     color-interpolation-filters="sRGB"
     id="filter392">
    <feGaussianBlur
       stdDeviation="1.9764485"
       id="feGaussianBlur390" />
  </filter>
  <path
     d="m 2.9999975,10.25 c 0,-4.004175 3.245938,-7.25 7.2500005,-7.25 h 43.500005 c 4.00417,0 7.25,3.245825 7.25,7.25 v 43.5 c 0,4.004173 -3.24583,7.25 -7.25,7.25 H 10.249998 C 6.2459355,61 2.9999975,57.754173 2.9999975,53.75 Z"
     id="path736"
     style="fill:#606c86;fill-opacity:1;stroke-width:3.625" />
  <path
     d="M 2.9999975,9.796875 C 2.9999975,6.043188 6.2459355,3 10.249998,3 h 43.500005 c 4.00417,0 7.25,3.043188 7.25,6.796875 v 40.781249 c 0,3.753693 -3.24583,6.796876 -7.25,6.796876 H 10.249998 c -4.0040625,0 -7.2500005,-3.043183 -7.2500005,-6.796876 z"
     id="path738"
     style="fill:url(#linearGradient22065);fill-opacity:1;stroke-width:3.625" />
  <rect
     x="3"
     y="3"
     width="58"
     height="54.375"
     rx="7"
     ry="7"
     fill="url(#linearGradient1340)"
     stroke-width="4.57057"
     id="rect398-5-0"
     style="fill:url(#linearGradient2651);stroke-linecap:round;stroke-linejoin:round" />
  <path
     d="m 33.105014,29.598254 c 17.393999,-3.3575 18.062999,-10.944 18.062999,-10.944 0,0 -1.3698,23.51 -14.082,24.754 -16.108999,1.5763 -18.516,9.1758 -18.516,9.1758 0,0 4.308001,-21.012 14.535001,-22.986 z"
     id="path404-6-6"
     style="opacity:0.25;fill:#2e3440;stroke-width:0.9375;filter:url(#filter1233-7-3)" />
  <path
     d="m 22.609014,28.561254 c 14.738999,-6.2421 13.388999,-16.425 13.388999,-16.425 0,0 8.1374,20.773 -4.061599,25.616 -13.628001,5.4101 -13.021001,14.651 -13.021001,14.651 0,0 -4.9624,-20.177 3.693901,-23.843 z"
     id="path406-2-2"
     style="opacity:0.25;fill:#2e3440;stroke-width:0.9375;filter:url(#filter1233-7-3)" />
  <path
     d="m 13.927013,34.083254 c 8.280801,-10.919 6.418201,-18.578 6.418201,-18.578 0,0 10.609,13.303 3.39,21.543 -8.064801,9.2046 -4.552601,15.608 -4.552601,15.608 0,0 -10.0049994,-12.311 -5.2557,-18.574 z"
     id="path408-9-6"
     style="opacity:0.25;fill:#2e3440;stroke-width:0.9375;filter:url(#filter1233-7-3)" />
  <path
     d="m 32.346554,27.828554 c 17.393999,-3.3575 18.062999,-10.944 18.062999,-10.944 0,0 -1.3698,23.51 -14.082,24.754 -16.108999,1.5763 -18.516,9.1758 -18.516,9.1758 0,0 4.308001,-21.012 14.535001,-22.986 z"
     fill="#bf616a"
     id="path412-1-1"
     style="stroke-width:0.9375" />
  <path
     d="m 21.850554,26.791554 c 14.738999,-6.2421 13.388999,-16.425 13.388999,-16.425 0,0 8.1374,20.773 -4.061599,25.616 -13.628001,5.4101 -13.021001,14.651 -13.021001,14.651 0,0 -4.9624,-20.177 3.693901,-23.843 z"
     fill="#d08770"
     id="path414-2-8"
     style="stroke-width:0.9375" />
  <path
     d="m 13.168553,32.313554 c 8.280801,-10.919 6.418201,-18.578 6.418201,-18.578 0,0 10.609,13.303 3.39,21.543 -8.064801,9.2046 -4.552601,15.608 -4.552601,15.608 0,0 -10.0049994,-12.311 -5.2557,-18.574 z"
     fill="#ebcb8b"
     id="path416-7-7"
     style="stroke-width:0.9375" />
</svg>
