<?xml version="1.0" encoding="UTF-8" standalone="no"?>
<!-- Created with Inkscape (http://www.inkscape.org/) -->

<svg
   width="64"
   version="1.1"
   height="64"
   id="svg3307"
   sodipodi:docname="applications-other-1.svg"
   inkscape:version="1.2.1 (9c6d41e410, 2022-07-14)"
   xmlns:inkscape="http://www.inkscape.org/namespaces/inkscape"
   xmlns:sodipodi="http://sodipodi.sourceforge.net/DTD/sodipodi-0.dtd"
   xmlns:xlink="http://www.w3.org/1999/xlink"
   xmlns="http://www.w3.org/2000/svg"
   xmlns:svg="http://www.w3.org/2000/svg">
  <sodipodi:namedview
     id="namedview3309"
     pagecolor="#ffffff"
     bordercolor="#666666"
     borderopacity="1.0"
     inkscape:showpageshadow="2"
     inkscape:pageopacity="0.0"
     inkscape:pagecheckerboard="0"
     inkscape:deskcolor="#d1d1d1"
     showgrid="false"
     inkscape:zoom="7.375"
     inkscape:cx="16.338983"
     inkscape:cy="16.338983"
     inkscape:window-width="1920"
     inkscape:window-height="998"
     inkscape:window-x="0"
     inkscape:window-y="0"
     inkscape:window-maximized="1"
     inkscape:current-layer="layer1" />
  <defs
     id="defs5455">
    <linearGradient
       inkscape:collect="always"
       xlink:href="#linearGradient22063-0"
       id="linearGradient22065-6"
       x1="-22"
       y1="5.1111121"
       x2="-6.4444442"
       y2="-9.1111107"
       gradientUnits="userSpaceOnUse"
       gradientTransform="matrix(3.6250002,0,0,3.6250002,467.32143,555.048)" />
    <linearGradient
       inkscape:collect="always"
       id="linearGradient22063-0">
      <stop
         style="stop-color:#88c0d0;stop-opacity:1;"
         offset="0"
         id="stop22059-6" />
      <stop
         style="stop-color:#5e81ac;stop-opacity:1;"
         offset="1"
         id="stop22061-2" />
    </linearGradient>
    <linearGradient
       id="b"
       gradientTransform="matrix(1.0062171,0,0,0.92307428,-418.26514,-495.31942)"
       gradientUnits="userSpaceOnUse"
       x1="388.423"
       x2="388.423"
       y1="557.79797"
       y2="505.798">
      <stop
         offset="0"
         stop-color="#7f8c8d"
         id="stop13" />
      <stop
         offset="1"
         stop-color="#afb0b3"
         id="stop15" />
    </linearGradient>
    <linearGradient
       id="d"
       gradientTransform="matrix(0.89441142,0,0,0.92307428,-28.621713,-33.965714)"
       gradientUnits="userSpaceOnUse"
       x1="1.3329999"
       x2="1.3329999"
       y1="48.714001"
       y2="9.7139997">
      <stop
         offset="0"
         stop-color="#eef1f2"
         id="stop19" />
      <stop
         offset="1"
         stop-color="#f9fafb"
         id="stop21" />
    </linearGradient>
    <linearGradient
       id="f"
       gradientUnits="userSpaceOnUse"
       x1="-11.306"
       x2="-11.306"
       y1="23.620001"
       y2="7.6199999"
       gradientTransform="matrix(1.7142857,0,0,1.7142857,-27.42857,-31.857142)">
      <stop
         offset="0"
         stop-color="#3e3e3e"
         id="stop2" />
      <stop
         offset="1"
         stop-color="#5c5c5c"
         id="stop4" />
    </linearGradient>
    <linearGradient
       id="a"
       gradientTransform="matrix(0.57142824,0,0,0.57142824,-222.46924,732.04922)"
       gradientUnits="userSpaceOnUse"
       x2="0"
       xlink:href="#b-3"
       y1="543.79797"
       y2="503.798" />
    <linearGradient
       id="b-3">
      <stop
         offset="0"
         stop-color="#2f3943"
         id="stop2771" />
      <stop
         offset="1"
         stop-color="#808c9b"
         id="stop2773" />
    </linearGradient>
    <linearGradient
       id="c"
       gradientTransform="matrix(0.63636312,0,0,0.63636312,-248.99977,698.03648)"
       gradientUnits="userSpaceOnUse"
       x2="0"
       xlink:href="#b-3"
       y1="499.798"
       y2="547.79797" />
    <linearGradient
       id="e"
       gradientUnits="userSpaceOnUse"
       x1="8"
       x2="20"
       y1="6"
       y2="20">
      <stop
         offset="0"
         id="stop2782" />
      <stop
         offset="1"
         stop-opacity="0"
         id="stop2784" />
    </linearGradient>
    <linearGradient
       id="d-6"
       gradientUnits="userSpaceOnUse"
       x1="11"
       x2="11"
       y1="17"
       y2="6">
      <stop
         offset="0"
         stop-color="#ffd42a"
         id="stop2777" />
      <stop
         offset="1"
         stop-color="#ffdf62"
         id="stop2779" />
    </linearGradient>
  </defs>
  <metadata
     id="metadata5458" />
  <g
     inkscape:label="Capa 1"
     inkscape:groupmode="layer"
     id="layer1"
     transform="translate(-384.57143,-515.798)">
    <path
       d="m 387.57143,526.048 c 0,-4.00417 3.24594,-7.25 7.25,-7.25 h 43.5 c 4.00418,0 7.25,3.24583 7.25,7.25 v 43.5 c 0,4.00417 -3.24582,7.25 -7.25,7.25 h -43.5 c -4.00406,0 -7.25,-3.24583 -7.25,-7.25 z"
       id="path736-7"
       style="fill:#606c86;fill-opacity:1;stroke-width:3.625" />
    <path
       d="m 387.57143,525.59488 c 0,-3.75369 3.24594,-6.79688 7.25,-6.79688 h 43.5 c 4.00418,0 7.25,3.04319 7.25,6.79688 v 40.78124 c 0,3.7537 -3.24582,6.79688 -7.25,6.79688 h -43.5 c -4.00406,0 -7.25,-3.04318 -7.25,-6.79688 z"
       id="path738-9"
       style="fill:url(#linearGradient22065-6);fill-opacity:1;stroke-width:3.625" />
    <g
       transform="matrix(2.3333311,0,0,2.3333311,390.90479,-1858.7115)"
       id="g2797">
      <rect
         fill="#26333a"
         height="18"
         rx="9"
         stroke-width="0.060268"
         width="18"
         x="1.999995"
         y="1022.3622"
         id="rect2787" />
      <path
         d="m 11,1023.3622 c 4.432,0 8,3.568 8,8 0,4.432 -3.568,8 -8,8 -4.432,0 -8,-3.568 -8,-8 0,-4.432 3.568,-8 8,-8 z"
         fill="url(#a)"
         stroke-width="0.057143"
         id="path2789"
         style="fill:url(#a)" />
      <path
         d="m 11,1024.3622 c 3.878,0 7,3.122 7,7 0,3.878 -3.122,7 -7,7 -3.878,0 -7,-3.122 -7,-7 0,-3.878 3.122,-7 7,-7 z"
         fill="url(#c)"
         stroke-width="0.057692"
         id="path2791"
         style="fill:url(#c)" />
      <path
         d="M 12.414062,6.5859375 9.2675781,7 10,7.7324219 V 8 l -1,1 1,1 -1,1 1,1 L 9.5859375,12.414062 11.171875,14 H 10.175781 L 8.1757812,12 8,13 10,14.869141 V 16 l -1,1 3,3 h 8 v -5.8281 z"
         fill="url(#e)"
         opacity="0.2"
         transform="translate(0,1020.3622)"
         id="path2793"
         style="fill:url(#e)" />
      <path
         d="M 11,6 A 2,2 0 0 0 9.2675781,7 H 10 V 8 H 9 v 1 h 1 v 1 H 9 v 1 h 1 v 1 H 9.2675781 A 2,2 0 0 0 11,13 2,2 0 0 0 12.732422,12 H 12 v -1 h 1 V 10 H 12 V 9 h 1 V 8 H 12 V 7 h 0.732422 A 2,2 0 0 0 11,6 Z M 7.1347656,12 A 4,4 0 0 0 10,14.869141 V 16 l -1,1 h 4 L 12,16 V 14.869141 A 4,4 0 0 0 14.865234,12 H 13.824219 A 3,3 0 0 1 11,14 3,3 0 0 1 8.1757812,12 Z"
         stroke-width="2"
         transform="translate(0,1020.3622)"
         id="path2795"
         style="fill:#ebcb8b;fill-opacity:1" />
    </g>
  </g>
</svg>
