<?xml version="1.0" encoding="UTF-8" standalone="no"?>
<svg
   width="64"
   height="64"
   viewBox="0 0 64 64"
   version="1.1"
   id="svg52"
   sodipodi:docname="preferences-git.svg"
   inkscape:version="1.2.1 (9c6d41e410, 2022-07-14)"
   xmlns:inkscape="http://www.inkscape.org/namespaces/inkscape"
   xmlns:sodipodi="http://sodipodi.sourceforge.net/DTD/sodipodi-0.dtd"
   xmlns:xlink="http://www.w3.org/1999/xlink"
   xmlns="http://www.w3.org/2000/svg"
   xmlns:svg="http://www.w3.org/2000/svg">
  <sodipodi:namedview
     id="namedview54"
     pagecolor="#a4a4a4"
     bordercolor="#eeeeee"
     borderopacity="1"
     inkscape:pageshadow="0"
     inkscape:pageopacity="0"
     inkscape:pagecheckerboard="0"
     showgrid="false"
     inkscape:zoom="5.2604167"
     inkscape:cx="36.40396"
     inkscape:cy="10.930693"
     inkscape:window-width="1920"
     inkscape:window-height="1002"
     inkscape:window-x="0"
     inkscape:window-y="0"
     inkscape:window-maximized="1"
     inkscape:current-layer="svg52"
     inkscape:showpageshadow="2"
     inkscape:deskcolor="#c9c9c9" />
  <defs
     id="defs32">
    <linearGradient
       xlink:href="#linearGradient4393"
       id="linearGradient4399"
       x1="424.44101"
       y1="502.85001"
       x2="440.87799"
       y2="529.57599"
       gradientUnits="userSpaceOnUse"
       gradientTransform="matrix(0.69224711,0,0,0.69224711,-215.22899,-357.13539)" />
    <linearGradient
       id="linearGradient4393">
      <stop
         style="stop-color:#000000;stop-opacity:1;"
         offset="0"
         id="stop3" />
      <stop
         style="stop-color:#000000;stop-opacity:0;"
         offset="1"
         id="stop5" />
    </linearGradient>
    <linearGradient
       xlink:href="#linearGradient4274"
       id="linearGradient4217"
       gradientUnits="userSpaceOnUse"
       gradientTransform="matrix(0.69224711,0,0,0.69224711,-199.3073,1639.8968)"
       x1="390.57101"
       y1="498.298"
       x2="442.57101"
       y2="498.298" />
    <linearGradient
       id="linearGradient4274">
      <stop
         offset="0"
         style="stop-color:#ffffff;stop-opacity:1;"
         id="stop9" />
      <stop
         offset="1"
         style="stop-color:#ffffff;stop-opacity:0.48760331"
         id="stop11" />
    </linearGradient>
    <linearGradient
       xlink:href="#linearGradient4227"
       id="linearGradient4225"
       gradientUnits="userSpaceOnUse"
       x1="396.57101"
       y1="498.798"
       x2="426.57101"
       y2="511.798"
       gradientTransform="matrix(0.69224711,0,0,0.69224711,-199.3073,-360.21214)" />
    <linearGradient
       id="linearGradient4227">
      <stop
         offset="0"
         style="stop-color:#f5f5f5;stop-opacity:1"
         id="stop21" />
      <stop
         offset="1"
         style="stop-color:#f9f9f9;stop-opacity:1"
         id="stop23" />
    </linearGradient>
    <style
       id="current-color-scheme"
       type="text/css">      .ColorScheme-Highlight {
        color:#3593e6;
      }
</style>
    <linearGradient
       id="d"
       gradientUnits="userSpaceOnUse"
       x1="4"
       x2="18.999998"
       xlink:href="#c"
       y1="5"
       y2="20"
       gradientTransform="matrix(2.7999616,0,0,2.7999616,1.095156,-2.3992319)" />
    <linearGradient
       id="c">
      <stop
         offset="0"
         stop-color="#292c2f"
         id="stop265" />
      <stop
         offset="1"
         stop-opacity="0"
         id="stop267" />
    </linearGradient>
    <linearGradient
       id="b"
       gradientUnits="userSpaceOnUse"
       x1="13.280776"
       x2="28.280775"
       xlink:href="#c"
       y1="5.088388"
       y2="20.088388"
       gradientTransform="matrix(2.7999616,0,0,2.7999616,1.095156,-2.3992319)" />
    <linearGradient
       id="c-3"
       gradientUnits="userSpaceOnUse"
       x1="5"
       x2="5"
       y1="20"
       y2="7"
       gradientTransform="matrix(3.4390082,0,0,3.4390082,-5.8290972,-4.015561)">
      <stop
         offset="0"
         stop-color="#999a9c"
         id="stop164" />
      <stop
         offset="1"
         stop-color="#f4f5f5"
         id="stop166" />
    </linearGradient>
    <linearGradient
       xlink:href="#a"
       id="c-36"
       x1="759.14398"
       y1="712.84497"
       x2="727.19702"
       y2="705.48199"
       gradientUnits="userSpaceOnUse"
       gradientTransform="matrix(0.79549294,0.79549294,-0.79549294,0.79549294,5.000052,-1124.9035)" />
    <linearGradient
       id="a">
      <stop
         style="stop-color:#ef4728;stop-opacity:1"
         offset="0"
         id="stop157" />
      <stop
         style="stop-color:#f37760;stop-opacity:1"
         offset="1"
         id="stop159" />
    </linearGradient>
    <linearGradient
       xlink:href="#linearGradient4393"
       id="d-7"
       x1="21.974001"
       y1="13.094"
       x2="39.379002"
       y2="30.499001"
       gradientUnits="userSpaceOnUse"
       gradientTransform="matrix(1.1249965,0,0,1.1249965,3.875118,11.750055)" />
    <linearGradient
       xlink:href="#linearGradient4393"
       id="e"
       x1="21.948999"
       y1="22.740999"
       x2="34.498001"
       y2="35.291"
       gradientUnits="userSpaceOnUse"
       gradientTransform="matrix(1.1249965,0,0,1.1249965,3.875118,11.750055)" />
  </defs>
  <path
     d="m 2.9999985,10.25 c 0,-4.0041748 3.245938,-7.25 7.2500005,-7.25 h 43.500003 c 4.004173,0 7.249999,3.2458252 7.249999,7.25 v 43.5 c 0,4.004173 -3.245827,7.25 -7.25,7.25 H 10.249999 C 6.2459365,61 2.9999985,57.754173 2.9999985,53.75 Z"
     id="path736"
     style="fill:#606c86;fill-opacity:1;stroke-width:3.625" />
  <path
     d="M 2.9999985,9.796875 C 2.9999985,6.0431877 6.2459365,3 10.249999,3 h 43.500003 c 4.004173,0 7.249999,3.0431877 7.249999,6.796875 v 40.781249 c 0,3.753693 -3.245827,6.796876 -7.25,6.796876 H 10.249999 c -4.0040625,0 -7.2500005,-3.043183 -7.2500005,-6.796876 z"
     id="path738"
     style="fill:#3b4252;fill-opacity:1;stroke-width:3.625" />
  <path
     d="m 35.698992,11.036813 17.26418,17.264197 a 5.2199841,5.2199841 0 0 1 0,7.397981 l -17.26418,17.264196 a 5.2199841,5.2199841 0 0 1 -7.397967,0 L 11.036828,35.698991 a 5.2199841,5.2199841 0 0 1 0,-7.397981 L 28.301025,11.036813 a 5.2199841,5.2199841 0 0 1 7.397967,0 z"
     style="fill:url(#c-36);fill-opacity:1;stroke:none;stroke-width:2.24999;stroke-linecap:round;stroke-linejoin:round;stroke-miterlimit:4;stroke-dasharray:none;stroke-opacity:1"
     id="path167" />
  <path
     d="m 24.125036,21.875028 14.624956,13.499964 m -7.87498,4.499986 V 28.625009"
     style="opacity:0.5;fill:none;stroke:#ffffff;stroke-width:2.24999;stroke-linecap:butt;stroke-linejoin:miter;stroke-miterlimit:4;stroke-dasharray:none;stroke-opacity:1"
     id="path169" />
  <path
     d="m 33.096882,26.063393 -4.776728,4.776738 17.562318,17.564571 0.558,-0.557999 4.22099,-4.220987 0.55799,-0.557999 -10.19247,-10.19247 -0.558,0.556871 z"
     style="opacity:0.2;fill:url(#d-7);fill-opacity:1;stroke:none;stroke-width:2.24999;stroke-linecap:round;stroke-linejoin:round;stroke-miterlimit:4;stroke-dasharray:none;stroke-opacity:1"
     id="path171" />
  <path
     d="m 33.162132,37.369607 -4.778978,4.778988 11.878828,11.876589 4.77672,-4.776735 z"
     style="opacity:0.2;fill:url(#e);fill-opacity:1;stroke:none;stroke-width:2.24999;stroke-linecap:round;stroke-linejoin:round;stroke-miterlimit:4;stroke-dasharray:none;stroke-opacity:1"
     id="path173-3" />
  <path
     d="m 9.555208,31.437502 a 5.1952341,5.1952341 0 0 0 1.482746,4.263739 l 17.26195,17.260821 a 5.2222341,5.2222341 0 0 0 7.400218,0 l 17.26196,-17.26195 a 5.1952341,5.1952341 0 0 0 1.48159,-4.26261 5.1907341,5.1907341 0 0 1 -1.48272,3.138741 l -17.26083,17.259698 a 5.2222341,5.2222341 0 0 1 -7.400218,0 L 11.037954,34.575115 A 5.1907341,5.1907341 0 0 1 9.556332,31.437502 Z"
     style="opacity:0.15;fill:#000000;fill-opacity:1;stroke:none;stroke-width:2.24999;stroke-linecap:round;stroke-linejoin:round;stroke-miterlimit:4;stroke-dasharray:none;stroke-opacity:1"
     id="path175" />
  <circle
     r="3.3749907"
     cy="28.62501"
     cx="30.875059"
     style="fill:#ffffff;fill-opacity:1;stroke:none;stroke-width:2.24999;stroke-linecap:round;stroke-linejoin:round;stroke-miterlimit:4;stroke-dasharray:none;stroke-opacity:1"
     id="circle177" />
  <circle
     style="fill:#ffffff;fill-opacity:1;stroke:none;stroke-width:2.24999;stroke-linecap:round;stroke-linejoin:round;stroke-miterlimit:4;stroke-dasharray:none;stroke-opacity:1"
     cx="38.749973"
     cy="35.374989"
     r="3.3749907"
     id="circle179" />
  <circle
     style="fill:#ffffff;fill-opacity:1;stroke:none;stroke-width:2.24999;stroke-linecap:round;stroke-linejoin:round;stroke-miterlimit:4;stroke-dasharray:none;stroke-opacity:1"
     cx="30.875059"
     cy="39.874977"
     r="3.3749907"
     id="circle181" />
</svg>
