<?xml version="1.0" encoding="UTF-8" standalone="no"?>
<!-- Created with Inkscape (http://www.inkscape.org/) -->

<svg
   width="64"
   version="1.1"
   height="64"
   id="svg20"
   sodipodi:docname="preferences-online-accounts.svg"
   inkscape:version="1.2.1 (9c6d41e410, 2022-07-14)"
   xmlns:inkscape="http://www.inkscape.org/namespaces/inkscape"
   xmlns:sodipodi="http://sodipodi.sourceforge.net/DTD/sodipodi-0.dtd"
   xmlns="http://www.w3.org/2000/svg"
   xmlns:svg="http://www.w3.org/2000/svg">
  <sodipodi:namedview
     id="namedview22"
     pagecolor="#ffffff"
     bordercolor="#666666"
     borderopacity="1.0"
     inkscape:showpageshadow="2"
     inkscape:pageopacity="0.0"
     inkscape:pagecheckerboard="0"
     inkscape:deskcolor="#d1d1d1"
     showgrid="false"
     inkscape:zoom="7.375"
     inkscape:cx="16.338983"
     inkscape:cy="16.338983"
     inkscape:window-width="1920"
     inkscape:window-height="1002"
     inkscape:window-x="0"
     inkscape:window-y="0"
     inkscape:window-maximized="1"
     inkscape:current-layer="layer1" />
  <defs
     id="defs5455">
    <linearGradient
       id="c-3"
       gradientUnits="userSpaceOnUse"
       x1="5"
       x2="5"
       y1="20"
       y2="7"
       gradientTransform="matrix(3.4390082,0,0,3.4390082,378.74233,511.78244)">
      <stop
         offset="0"
         stop-color="#999a9c"
         id="stop164" />
      <stop
         offset="1"
         stop-color="#f4f5f5"
         id="stop166" />
    </linearGradient>
    <linearGradient
       id="a"
       gradientTransform="matrix(1.6071411,0,0,1.6071411,-227.20342,-307.9251)"
       gradientUnits="userSpaceOnUse"
       x2="0"
       y1="545.79797"
       y2="517.79797">
      <stop
         offset="0"
         stop-color="#197cf1"
         id="stop150" />
      <stop
         offset="1"
         stop-color="#20bcfa"
         id="stop152" />
    </linearGradient>
    <linearGradient
       id="c"
       gradientUnits="userSpaceOnUse"
       x1="19.999998"
       x2="6.000001"
       y1="19"
       y2="5"
       gradientTransform="matrix(2.4999989,0,0,2.4999989,389.07144,519.24929)">
      <stop
         offset="0"
         stop-color="#292c2f"
         id="stop160" />
      <stop
         offset="1"
         stop-opacity="0"
         id="stop162" />
    </linearGradient>
    <linearGradient
       id="b"
       gradientUnits="userSpaceOnUse"
       x1="11"
       x2="11"
       y1="19"
       y2="1"
       gradientTransform="matrix(2.4999989,0,0,2.4999989,389.07144,519.24929)">
      <stop
         offset="0"
         stop-color="#7cbaf8"
         id="stop155" />
      <stop
         offset="1"
         stop-color="#f4fcff"
         id="stop157" />
    </linearGradient>
    <linearGradient
       id="a-3"
       gradientTransform="matrix(1.607149,0,0,1.607149,-227.20315,-307.72042)"
       gradientUnits="userSpaceOnUse"
       x2="0"
       y1="545.79797"
       y2="517.79797">
      <stop
         offset="0"
         stop-color="#197cf1"
         id="stop1730" />
      <stop
         offset="1"
         stop-color="#20bcfa"
         id="stop1732" />
    </linearGradient>
    <linearGradient
       id="b-6"
       gradientUnits="userSpaceOnUse"
       x1="20"
       x2="6"
       y1="19"
       y2="5"
       gradientTransform="matrix(2.4999984,0,0,2.4999984,389.07146,519.45405)">
      <stop
         offset="0"
         stop-color="#292c2f"
         id="stop1742" />
      <stop
         offset="1"
         stop-opacity="0"
         id="stop1744" />
    </linearGradient>
    <linearGradient
       id="c-7"
       gradientUnits="userSpaceOnUse"
       x1="11"
       x2="11"
       y1="19"
       y2="1"
       gradientTransform="matrix(2.4999984,0,0,2.4999984,389.07146,519.45405)">
      <stop
         offset="0"
         stop-color="#7cbaf8"
         id="stop1737" />
      <stop
         offset="1"
         stop-color="#f4fcff"
         id="stop1739" />
    </linearGradient>
  </defs>
  <metadata
     id="metadata5458" />
  <g
     inkscape:label="Capa 1"
     inkscape:groupmode="layer"
     id="layer1"
     transform="translate(-384.57143,-515.798)">
    <path
       d="m 387.57143,526.048 c 0,-4.00417 3.24594,-7.25 7.25,-7.25 h 43.5 c 4.00417,0 7.25,3.24583 7.25,7.25 v 43.5 c 0,4.00417 -3.24583,7.25 -7.25,7.25 h -43.5 c -4.00406,0 -7.25,-3.24583 -7.25,-7.25 z"
       id="path736"
       style="fill:#606c86;fill-opacity:1;stroke-width:3.625" />
    <path
       d="m 387.57143,525.59487 c 0,-3.75368 3.24594,-6.79687 7.25,-6.79687 h 43.5 c 4.00418,0 7.25,3.04319 7.25,6.79687 v 40.78125 c 0,3.7537 -3.24583,6.79688 -7.25,6.79688 h -43.5 c -4.00406,0 -7.25,-3.04318 -7.25,-6.79688 z"
       id="path738"
       style="fill:#3b4252;fill-opacity:1;stroke-width:3.625" />
    <rect
       style="fill:url(#a-3);stroke-width:1.60714"
       height="44.999969"
       rx="22.499985"
       width="44.999969"
       x="394.07144"
       y="524.45404"
       id="rect1747" />
    <path
       style="fill:#5edc8b;fill-opacity:1;stroke-width:5;stroke-linejoin:round"
       d="m 416.57143,524.45402 a 22.499985,22.499985 0 0 0 -20.13749,12.49999 h 2.6375 l 2.5,2.5 v -2.5 h 2.49999 v -2.5 l 5,-4.99999 v 2.5 l 2.5,-2.5 v -2.5 h 2.5 v 2.5 h 2.5 l 2.49999,-2.5 v -2.3575 a 22.499985,22.499985 0 0 0 -2.49999,-0.1425 z m 15.90248,6.5975 -0.90249,0.9025 v 2.49999 h 2.49999 l 0.7075,-0.7075 a 22.499985,22.499985 0 0 0 -2.305,-2.69499 z m 3.3075,4.19249 -1.71,1.71 -4.99999,2.5 -2.5,7.5 h 2.5 v 2.49999 l 4.99999,2.5 4.795,-2.3975 a 22.499985,22.499985 0 0 0 0.205,-2.60249 22.499985,22.499985 0 0 0 -3.29,-11.71 z m -39.20997,6.71 v 2.5 h -2.305 a 22.499985,22.499985 0 0 0 -0.195,2.5 h 2.5 l 5,4.99999 h 2.49999 v 2.5 h -2.49999 v 2.5 l 4.99999,5 v 5.13749 a 22.499985,22.499985 0 0 0 10,2.3625 l 2.49999,-2.5 v -2.5 h 2.5 l 2.5,-2.49999 v -2.5 l 2.5,-2.5 -2.5,-2.5 h -5 l -2.49999,-2.5 h -2.5 l -2.5,-2.5 h -5 v -2.49999 l -2.5,2.49999 h -2.49999 v -2.49999 l -2.5,-2.5 v -2.5 z"
       id="path1749" />
    <path
       d="m 411.57143,554.454 c -2.115,0.005 -3.9975,1.005 -4.7,2.5 h 9.4125 c -0.7075,-1.5 -2.595,-2.5 -4.7125,-2.5 z"
       fill="#292c2f"
       id="path1751"
       style="stroke-width:2.5" />
    <path
       d="m 411.57143,536.95401 a 4.9999967,4.9999967 0 0 0 -3.535,8.535 l 3.995,3.97999 -0.46,-0.015 c -4.1425,0 -7.5,2.8 -7.5,6.25 0.005,0.42 0.0625,0.84 0.17,1.25 l 12.49,12.48999 a 22.499985,22.499985 0 0 0 21.56748,-16.79749 l -12.45999,-12.45999 -3.535,3.535 3.2325,3.2325 h -1.895 l -8.53499,-8.535 z"

       opacity="0.2"
       id="path1753"
       style="fill:url(#b-6);stroke-width:2.5" />
    <path
       d="m 411.57143,536.95401 a 5,5 0 1 0 0,10 5,5 0 0 0 0,-10 z m 0,2.5 a 2.5,2.5 0 1 1 0,5 2.5,2.5 0 0 1 0,-5 z m 12.49999,0 a 2.4999984,2.4999984 0 0 0 -2.5,2.5 2.4999984,2.4999984 0 0 0 2.5,2.5 2.4999984,2.4999984 0 0 0 2.5,-2.5 2.4999984,2.4999984 0 0 0 -2.5,-2.5 z m -2.5,7.5 v 9.99999 h 5 v -9.99999 z m -9.99999,2.49999 c -4.1425,0 -7.5,2.8 -7.5,6.25 0.005,0.42 0.0625,0.84 0.17,1.25 h 14.65999 c 0.1075,-0.41 0.1625,-0.83 0.17,-1.25 0,-3.45 -3.35749,-6.25 -7.49999,-6.25 z m 0,2.5 c 2.1175,0 4.005,1 4.7125,2.5 h -9.415 c 0.705,-1.495 2.5875,-2.495 4.7025,-2.5 z"

       id="path1755"
       style="fill:url(#c-7);stroke-width:2.5" />
    <path
       style="opacity:0.3;fill:#292c2f;stroke-width:5;stroke-linejoin:round"
       d="m 439.00891,545.35401 a 22.499985,22.499985 0 0 1 -22.43748,21.59998 22.499985,22.499985 0 0 1 -22.41249,-21.24998 22.499985,22.499985 0 0 0 -0.0875,1.25 22.499985,22.499985 0 0 0 22.49999,22.49998 22.499985,22.499985 0 0 0 22.49998,-22.49998 22.499985,22.499985 0 0 0 -0.0625,-1.6 z"
       id="path1757" />
  </g>
</svg>
