<?xml version="1.0" encoding="UTF-8" standalone="no"?>
<!-- Created with Inkscape (http://www.inkscape.org/) -->

<svg
   width="64"
   height="64"
   viewBox="0 0 64 64"
   version="1.1"
   id="SVGRoot"
   sodipodi:docname="preferences-desktop-launch-feedback.svg"
   inkscape:version="1.2.1 (9c6d41e410, 2022-07-14)"
   xmlns:inkscape="http://www.inkscape.org/namespaces/inkscape"
   xmlns:sodipodi="http://sodipodi.sourceforge.net/DTD/sodipodi-0.dtd"
   xmlns:xlink="http://www.w3.org/1999/xlink"
   xmlns="http://www.w3.org/2000/svg"
   xmlns:svg="http://www.w3.org/2000/svg">
  <sodipodi:namedview
     id="namedview6863"
     pagecolor="#ffffff"
     bordercolor="#666666"
     borderopacity="1.0"
     inkscape:showpageshadow="2"
     inkscape:pageopacity="0.0"
     inkscape:pagecheckerboard="0"
     inkscape:deskcolor="#d1d1d1"
     inkscape:document-units="px"
     showgrid="true"
     inkscape:zoom="4.7572176"
     inkscape:cx="23.227863"
     inkscape:cy="4.0990347"
     inkscape:window-width="1920"
     inkscape:window-height="1002"
     inkscape:window-x="0"
     inkscape:window-y="0"
     inkscape:window-maximized="1"
     inkscape:current-layer="layer1">
    <inkscape:grid
       type="xygrid"
       id="grid6986"
       originx="0"
       originy="0" />
  </sodipodi:namedview>
  <defs
     id="defs6858">
    <filter
       id="filter1057-6"
       x="-0.026999999"
       y="-0.026999999"
       width="1.054"
       height="1.054"
       color-interpolation-filters="sRGB">
      <feGaussianBlur
         stdDeviation="0.61875"
         id="feGaussianBlur995" />
    </filter>
    <linearGradient
       id="linearGradient1053"
       x1="-127"
       x2="-73.5"
       y1="60"
       y2="4.5100002"
       gradientTransform="matrix(1.036364,0,0,1.036364,135.21421,-0.93364301)"
       gradientUnits="userSpaceOnUse">
      <stop
         stop-color="#32d7ff"
         offset="0"
         id="stop998" />
      <stop
         stop-color="#329bff"
         offset="1"
         id="stop1000" />
    </linearGradient>
    <filter
       id="f-3"
       x="-0.099686645"
       y="-0.1178261"
       width="1.1993732"
       height="1.2356522"
       color-interpolation-filters="sRGB">
      <feGaussianBlur
         stdDeviation="1.4085099"
         id="feGaussianBlur12-6" />
    </filter>
    <filter
       id="g-7"
       x="-0.059999898"
       y="-0.059999898"
       width="1.1199998"
       height="1.1199998"
       color-interpolation-filters="sRGB">
      <feGaussianBlur
         stdDeviation="0.26086955"
         id="feGaussianBlur15-5" />
    </filter>
    <filter
       id="filter1057-6-3"
       x="-0.026999999"
       y="-0.026999999"
       width="1.054"
       height="1.054"
       color-interpolation-filters="sRGB">
      <feGaussianBlur
         stdDeviation="0.61875"
         id="feGaussianBlur995-6" />
    </filter>
    <linearGradient
       inkscape:collect="always"
       id="linearGradient950">
      <stop
         style="stop-color:#cae3ea;stop-opacity:1;"
         offset="0"
         id="stop946" />
      <stop
         style="stop-color:#8ba5c3;stop-opacity:1;"
         offset="1"
         id="stop948" />
    </linearGradient>
    <linearGradient
       id="e"
       gradientTransform="matrix(0.41666692,0,0,0.40833269,-214.23827,-208.25094)"
       gradientUnits="userSpaceOnUse"
       x2="0"
       y1="543.79797"
       y2="502.65509">
      <stop
         offset="0"
         stop-color="#c6cdd1"
         id="stop14" />
      <stop
         offset="1"
         stop-color="#e0e5e7"
         id="stop16" />
    </linearGradient>
    <linearGradient
       id="f"
       gradientUnits="userSpaceOnUse"
       x1="5.3750029"
       x2="14.75002"
       y1="7.0000119"
       y2="16.37501"
       gradientTransform="translate(-55,-5)">
      <stop
         offset="0"
         id="stop19" />
      <stop
         offset="1"
         stop-opacity="0"
         id="stop21" />
    </linearGradient>
    <linearGradient
       id="c"
       gradientUnits="userSpaceOnUse"
       x1="2"
       x2="2"
       y1="16"
       y2="7"
       gradientTransform="translate(-55,-5)">
      <stop
         offset="0"
         stop-color="#21c9fb"
         id="stop8" />
      <stop
         offset="1"
         stop-color="#197cf1"
         id="stop10" />
    </linearGradient>
    <linearGradient
       id="b"
       gradientUnits="userSpaceOnUse"
       x1="2"
       x2="2"
       xlink:href="#a"
       y1="18"
       y2="16"
       gradientTransform="translate(-55,-5)" />
    <linearGradient
       id="a">
      <stop
         offset="0"
         stop-color="#2a2c2f"
         id="stop2" />
      <stop
         offset="1"
         stop-color="#424649"
         id="stop4" />
    </linearGradient>
    <linearGradient
       id="d"
       gradientUnits="userSpaceOnUse"
       x1="8"
       x2="8"
       xlink:href="#a"
       y1="15"
       y2="8"
       gradientTransform="translate(14,-43)" />
    <linearGradient
       inkscape:collect="always"
       xlink:href="#linearGradient950"
       id="linearGradient22065"
       x1="-22"
       y1="5.1111121"
       x2="-6.4444442"
       y2="-9.1111107"
       gradientUnits="userSpaceOnUse"
       gradientTransform="matrix(3.6250002,0,0,3.6250002,82.750002,39.249999)" />
    <linearGradient
       id="linearGradient1313"
       x1="8.2363997"
       x2="8.2399998"
       y1="1.1605999"
       y2="3.5817001"
       gradientUnits="userSpaceOnUse"
       gradientTransform="matrix(3.779602,0,0,2.3333333,-0.49991,0.83923998)">
      <stop
         stop-color="#2e3440"
         offset="0"
         id="stop10-0" />
      <stop
         stop-color="#4c566a"
         offset="1"
         id="stop12" />
    </linearGradient>
    <linearGradient
       id="f-36"
       gradientUnits="userSpaceOnUse"
       x1="5.3750029"
       x2="14.75002"
       y1="7.0000119"
       y2="16.37501"
       gradientTransform="translate(-5,-35)">
      <stop
         offset="0"
         id="stop19-7" />
      <stop
         offset="1"
         stop-opacity="0"
         id="stop21-5" />
    </linearGradient>
    <linearGradient
       id="c-3"
       gradientUnits="userSpaceOnUse"
       x1="2"
       x2="2"
       y1="16"
       y2="7"
       gradientTransform="translate(-5,-35)">
      <stop
         offset="0"
         stop-color="#21c9fb"
         id="stop8-5" />
      <stop
         offset="1"
         stop-color="#197cf1"
         id="stop10-6" />
    </linearGradient>
    <linearGradient
       id="b-2"
       gradientUnits="userSpaceOnUse"
       x1="2"
       x2="2"
       xlink:href="#a"
       y1="18"
       y2="16"
       gradientTransform="translate(-5,-35)" />
    <linearGradient
       id="d-2"
       gradientUnits="userSpaceOnUse"
       x1="8"
       x2="8"
       xlink:href="#a"
       y1="15"
       y2="8"
       gradientTransform="translate(-5,-35)" />
    <linearGradient
       id="c-36"
       gradientUnits="userSpaceOnUse"
       x1="7"
       x2="17"
       xlink:href="#e-7"
       y1="8"
       y2="18"
       gradientTransform="matrix(3.9998601,0,0,3.9998601,-12.482572,-11.982478)" />
    <linearGradient
       id="e-7"
       gradientUnits="userSpaceOnUse"
       x1="5.3750029"
       x2="14.75002"
       y1="7.0000119"
       y2="16.37501">
      <stop
         offset="0"
         id="stop903" />
      <stop
         offset="1"
         stop-opacity="0"
         id="stop905" />
    </linearGradient>
    <linearGradient
       id="b-5"
       gradientUnits="userSpaceOnUse"
       x1="13.820312"
       x2="11"
       y1="14.820312"
       y2="12">
      <stop
         offset="0"
         stop-color="#197cf1"
         id="stop892" />
      <stop
         offset="1"
         stop-color="#20bcfa"
         stop-opacity="0"
         id="stop894" />
    </linearGradient>
    <linearGradient
       id="a-3"
       gradientUnits="userSpaceOnUse"
       x1="7"
       x2="9"
       y1="16"
       y2="8">
      <stop
         offset="0"
         stop-color="#197cf1"
         id="stop887" />
      <stop
         offset="1"
         stop-color="#20bcfa"
         id="stop889" />
    </linearGradient>
  </defs>
  <g
     inkscape:label="Layer 1"
     inkscape:groupmode="layer"
     id="layer1">
    <path
       d="m 3.000002,10.25 c 0,-4.004175 3.245938,-7.25 7.25,-7.25 h 43.500003 c 4.004173,0 7.25,3.245825 7.25,7.25 v 43.5 c 0,4.004173 -3.245827,7.25 -7.25,7.25 H 10.250002 c -4.004062,0 -7.25,-3.245827 -7.25,-7.25 z"
       id="path736"
       style="fill:#606c86;fill-opacity:1;stroke-width:3.625" />
    <path
       d="M 3,9.796875 C 3,6.043188 6.245939,3 10.250001,3 h 43.500003 c 4.004173,0 7.25,3.043188 7.25,6.796875 v 40.781249 c 0,3.753693 -3.245827,6.796876 -7.25,6.796876 H 10.250001 c -4.004062,0 -7.25,-3.043183 -7.25,-6.796876 z"
       id="path738"
       style="fill:url(#linearGradient22065);fill-opacity:1;stroke-width:3.625" />
    <path
       d="m 10.000002,3 h 44.4 c 3.6,0 6.6,3.122 6.6,7 h -58 c 0,-3.878 3,-7 7,-7 z"
       stroke-linecap="round"
       stroke-linejoin="round"
       stroke-width="3.645"
       id="path65"
       style="fill:#556177;fill-opacity:1"
       sodipodi:nodetypes="ssccs" />
    <ellipse
       cx="55.649883"
       cy="6.9274979"
       rx="2.0290365"
       ry="1.9275"
       id="ellipse71"
       style="fill:#e7e7e7;fill-opacity:1;stroke-width:4.15365" />
    <path
       d="m 30.37528,20.055439 a 15.999445,15.999445 0 0 0 -10.171491,4.648299 15.999445,15.999445 0 0 0 0,22.624199 15.999445,15.999445 0 0 0 0.460937,0.398423 L 32.953335,60.015 h 34.56138 V 49.390369 L 42.828027,24.703738 A 15.999445,15.999445 0 0 0 30.37528,20.055439 Z"
       opacity="0.2"
       id="path920"
       style="fill:url(#c-36);stroke-width:3.99997" />
    <g
       stroke-width="1.77778"
       id="g926"
       transform="matrix(3.9998624,0,0,3.9998624,-12.482571,-11.982504)">
      <path
         d="M 13.828125,9.171875 13.121094,9.8789062 C 13.663987,10.4218 14,11.171573 14,12 c 0,1.656854 -1.343146,3 -3,3 -0.795604,-1.2e-4 -1.5585768,-0.316269 -2.1210938,-0.878906 L 8.1796875,14.820312 C 8.9265155,15.57145 9.940783,15.9957 11,16 c 2.209139,0 4,-1.790861 4,-4 0,-1.10457 -0.448017,-2.1042674 -1.171875,-2.828125 z"
         id="path922"
         style="fill:url(#b-5)" />
      <path
         d="m 11,8 c -2.209139,0 -4,1.790861 -4,4 0,2.209139 1.790861,4 4,4 1.059217,-0.0043 2.073484,-0.428551 2.820312,-1.179688 L 13.121094,14.121094 C 12.558577,14.683731 11.795604,14.99988 11,15 9.3431458,15 8,13.656854 8,12 8,10.343146 9.3431458,9 11,9 Z"
         id="path924"
         style="fill:url(#a-3)" />
    </g>
  </g>
</svg>
