<?xml version="1.0" encoding="UTF-8" standalone="no"?>
<svg
   width="64"
   height="64"
   viewBox="0 0 64 64"
   version="1.1"
   id="svg52"
   sodipodi:docname="preferences-web-browser-cookies.svg"
   inkscape:version="1.2.1 (9c6d41e410, 2022-07-14)"
   xmlns:inkscape="http://www.inkscape.org/namespaces/inkscape"
   xmlns:sodipodi="http://sodipodi.sourceforge.net/DTD/sodipodi-0.dtd"
   xmlns:xlink="http://www.w3.org/1999/xlink"
   xmlns="http://www.w3.org/2000/svg"
   xmlns:svg="http://www.w3.org/2000/svg">
  <sodipodi:namedview
     id="namedview54"
     pagecolor="#a4a4a4"
     bordercolor="#eeeeee"
     borderopacity="1"
     inkscape:pageshadow="0"
     inkscape:pageopacity="0"
     inkscape:pagecheckerboard="0"
     showgrid="false"
     inkscape:zoom="5.2604167"
     inkscape:cx="52.752475"
     inkscape:cy="10.930693"
     inkscape:window-width="1920"
     inkscape:window-height="1002"
     inkscape:window-x="0"
     inkscape:window-y="0"
     inkscape:window-maximized="1"
     inkscape:current-layer="svg52"
     inkscape:showpageshadow="2"
     inkscape:deskcolor="#c9c9c9" />
  <defs
     id="defs32">
    <linearGradient
       xlink:href="#linearGradient4393"
       id="linearGradient4399"
       x1="424.44101"
       y1="502.85001"
       x2="440.87799"
       y2="529.57599"
       gradientUnits="userSpaceOnUse"
       gradientTransform="matrix(0.69224711,0,0,0.69224711,-215.22899,-357.13539)" />
    <linearGradient
       id="linearGradient4393">
      <stop
         style="stop-color:#000000;stop-opacity:1;"
         offset="0"
         id="stop3" />
      <stop
         style="stop-color:#000000;stop-opacity:0;"
         offset="1"
         id="stop5" />
    </linearGradient>
    <linearGradient
       xlink:href="#linearGradient4274"
       id="linearGradient4217"
       gradientUnits="userSpaceOnUse"
       gradientTransform="matrix(0.69224711,0,0,0.69224711,-199.3073,1639.8968)"
       x1="390.57101"
       y1="498.298"
       x2="442.57101"
       y2="498.298" />
    <linearGradient
       id="linearGradient4274">
      <stop
         offset="0"
         style="stop-color:#ffffff;stop-opacity:1;"
         id="stop9" />
      <stop
         offset="1"
         style="stop-color:#ffffff;stop-opacity:0.48760331"
         id="stop11" />
    </linearGradient>
    <linearGradient
       xlink:href="#linearGradient4227"
       id="linearGradient4225"
       gradientUnits="userSpaceOnUse"
       x1="396.57101"
       y1="498.798"
       x2="426.57101"
       y2="511.798"
       gradientTransform="matrix(0.69224711,0,0,0.69224711,-199.3073,-360.21214)" />
    <linearGradient
       id="linearGradient4227">
      <stop
         offset="0"
         style="stop-color:#f5f5f5;stop-opacity:1"
         id="stop21" />
      <stop
         offset="1"
         style="stop-color:#f9f9f9;stop-opacity:1"
         id="stop23" />
    </linearGradient>
    <style
       id="current-color-scheme"
       type="text/css">      .ColorScheme-Highlight {
        color:#3593e6;
      }
</style>
    <linearGradient
       id="d"
       gradientUnits="userSpaceOnUse"
       x1="4"
       x2="18.999998"
       xlink:href="#c"
       y1="5"
       y2="20"
       gradientTransform="matrix(2.7999616,0,0,2.7999616,1.095156,-2.3992319)" />
    <linearGradient
       id="c">
      <stop
         offset="0"
         stop-color="#292c2f"
         id="stop265" />
      <stop
         offset="1"
         stop-opacity="0"
         id="stop267" />
    </linearGradient>
    <linearGradient
       id="b"
       gradientUnits="userSpaceOnUse"
       x1="13.280776"
       x2="28.280775"
       xlink:href="#c"
       y1="5.088388"
       y2="20.088388"
       gradientTransform="matrix(2.7999616,0,0,2.7999616,1.095156,-2.3992319)" />
    <linearGradient
       id="c-3"
       gradientUnits="userSpaceOnUse"
       x1="5"
       x2="5"
       y1="20"
       y2="7"
       gradientTransform="matrix(3.4390082,0,0,3.4390082,-5.8290972,-4.015561)">
      <stop
         offset="0"
         stop-color="#999a9c"
         id="stop164" />
      <stop
         offset="1"
         stop-color="#f4f5f5"
         id="stop166" />
    </linearGradient>
    <linearGradient
       id="a"
       y1="44"
       y2="4"
       x2="0"
       gradientUnits="userSpaceOnUse">
      <stop
         stop-color="#7cbaf8"
         id="stop152" />
      <stop
         offset="1"
         stop-color="#f4fcff"
         id="stop154" />
    </linearGradient>
    <linearGradient
       id="b-3"
       y1="39"
       y2="9"
       gradientUnits="userSpaceOnUse"
       x2="0"
       gradientTransform="matrix(1.02857,0,0,1.2,-5.314,-2013.52)">
      <stop
         stop-color="#197cf1"
         id="stop157" />
      <stop
         offset="1"
         stop-color="#20bcfa"
         id="stop159" />
    </linearGradient>
    <linearGradient
       xlink:href="#c-7"
       id="d-6"
       y1="18.26"
       x1="14.59"
       y2="40.439999"
       x2="36.060001"
       gradientUnits="userSpaceOnUse" />
    <linearGradient
       id="c-7"
       y1="13.01"
       x1="25.040001"
       y2="30.26"
       x2="42.990002"
       gradientUnits="userSpaceOnUse">
      <stop
         stop-color="#292c2f"
         id="stop162" />
      <stop
         offset="1"
         stop-color="#292c2f"
         stop-opacity="0"
         id="stop164-5" />
    </linearGradient>
    <linearGradient
       id="a-3"
       y1="61.200001"
       x1="-162.28999"
       y2="505.06"
       gradientUnits="userSpaceOnUse"
       x2="737.63"
       gradientTransform="matrix(0.07988963,0.02495102,-0.02223702,0.07119775,13.078816,2.4457071)">
      <stop
         stop-color="#fafafa"
         id="stop272" />
      <stop
         offset="1"
         stop-color="#939393"
         id="stop274" />
    </linearGradient>
    <linearGradient
       id="b-6"
       y1="41"
       x1="41"
       y2="18.25"
       x2="21.129999"
       gradientUnits="userSpaceOnUse"
       gradientTransform="matrix(1.2224895,0,0,1.2224895,2.7878998,4.0691761)">
      <stop
         stop-color="#502ae3"
         id="stop277" />
      <stop
         offset="1"
         stop-color="#4db4f6"
         id="stop279" />
    </linearGradient>
    <linearGradient
       spreadMethod="reflect"
       id="a-36"
       x1="428.57001"
       x2="408.57001"
       gradientUnits="userSpaceOnUse"
       gradientTransform="matrix(1.1250004,0,0,1.1250004,-427.64144,-557.27525)">
      <stop
         stop-color="#2f3943"
         id="stop172" />
      <stop
         offset="1"
         stop-color="#808c9b"
         id="stop174" />
    </linearGradient>
    <linearGradient
       id="b-7"
       y1="-511.20001"
       x1="-395.07001"
       y2="-535.79999"
       x2="-419.67001"
       gradientUnits="userSpaceOnUse"
       gradientTransform="matrix(1.1250004,0,0,1.1250004,427.64142,557.27525)">
      <stop
         stop-color="#18222a"
         id="stop177" />
      <stop
         offset="1"
         stop-color="#566069"
         id="stop179" />
    </linearGradient>
    <linearGradient
       id="c-5"
       y1="-514"
       x1="-398.07001"
       y2="-533.13"
       x2="-417.20001"
       gradientUnits="userSpaceOnUse">
      <stop
         stop-color="#b97c1b"
         id="stop182" />
      <stop
         offset="1"
         stop-color="#dc8f16"
         id="stop184" />
    </linearGradient>
    <linearGradient
       xlink:href="#c-5"
       id="g"
       y1="-516.79999"
       x1="-401.07001"
       y2="-541.29999"
       x2="-425.57001"
       gradientUnits="userSpaceOnUse"
       gradientTransform="matrix(1.1250004,0,0,1.1250004,427.64142,557.27525)" />
    <linearGradient
       id="d-3"
       y1="536.87"
       x1="421.64001"
       y2="511.82001"
       gradientUnits="userSpaceOnUse"
       x2="396.59"
       gradientTransform="rotate(180,408.57,523.8)">
      <stop
         stop-color="#f39c12"
         id="stop187" />
      <stop
         offset="1"
         stop-color="#f5ab35"
         id="stop189" />
    </linearGradient>
    <linearGradient
       xlink:href="#d-3"
       id="e"
       y1="532.22998"
       x1="417"
       y2="508.73001"
       gradientUnits="userSpaceOnUse"
       x2="393.5"
       gradientTransform="matrix(-1.1250004,0,0,-1.1250004,491.64142,621.27527)" />
    <linearGradient
       xlink:href="#d-3"
       id="f"
       y1="529.62"
       x1="414.39999"
       y2="506.91"
       gradientUnits="userSpaceOnUse"
       x2="391.69"
       gradientTransform="matrix(-1.1250004,0,0,-1.1250004,491.64142,621.27527)" />
    <linearGradient
       id="a-367"
       y1="524.83002"
       y2="506.25"
       x1="411.48999"
       x2="413.94"
       gradientUnits="userSpaceOnUse"
       gradientTransform="matrix(0.92373695,0,0,0.92373695,-345.72888,-456.42693)">
      <stop
         stop-color="#ebc69a"
         id="stop2" />
      <stop
         offset="1"
         stop-color="#f4e0c8"
         id="stop4" />
    </linearGradient>
    <linearGradient
       id="c-53"
       y1="30"
       y2="2"
       x2="0"
       gradientUnits="userSpaceOnUse"
       gradientTransform="matrix(1.3196229,0,0,1.3196229,10.570467,6.3157676)">
      <stop
         stop-color="#7cbaf8"
         id="stop12" />
      <stop
         offset="1"
         stop-color="#f4fcff"
         id="stop14" />
    </linearGradient>
    <linearGradient
       id="d-5"
       y1="-2.9809999"
       x1="0.043000001"
       y2="19.040001"
       x2="22.059999"
       gradientUnits="userSpaceOnUse"
       gradientTransform="matrix(1.3196229,0,0,1.3196229,10.570467,6.3157676)">
      <stop
         stop-color="#292c2f"
         id="stop17" />
      <stop
         offset="1"
         stop-opacity="0"
         id="stop19" />
    </linearGradient>
    <linearGradient
       id="b-62"
       y1="545.52002"
       x1="414.78"
       y2="521.46997"
       x2="390.67001"
       gradientUnits="userSpaceOnUse"
       gradientTransform="matrix(1.3196229,0,0,1.3196229,-496.91691,-674.34571)">
      <stop
         stop-color="#197cf1"
         id="stop7" />
      <stop
         offset="1"
         stop-color="#86dbfc"
         id="stop9-9" />
    </linearGradient>
    <linearGradient
       gradientTransform="matrix(1.1249109,0,0,1.1249109,-427.60646,-557.98756)"
       xlink:href="#1"
       id="0"
       x1="417.634"
       y1="540.79901"
       x2="399.646"
       y2="500.89301"
       gradientUnits="userSpaceOnUse" />
    <linearGradient
       id="1">
      <stop
         stop-color="#105be2"
         style="stop-color:#2579b0;stop-opacity:1"
         id="stop226" />
      <stop
         offset="1"
         stop-color="#26dbfc"
         style="stop-color:#7cbfec;stop-opacity:1"
         id="stop228" />
    </linearGradient>
    <linearGradient
       xlink:href="#linearGradient4393"
       id="linearGradient4185"
       x1="20"
       y1="16"
       x2="36"
       y2="32"
       gradientUnits="userSpaceOnUse"
       gradientTransform="matrix(1.1249109,0,0,1.1249109,5.0021475,4.2406124)" />
    <linearGradient
       xlink:href="#linearGradient4165"
       id="linearGradient4171"
       x1="19"
       y1="12"
       x2="29"
       y2="36"
       gradientUnits="userSpaceOnUse"
       gradientTransform="matrix(1.1249109,0,0,1.1249109,5.0021475,4.2406124)" />
    <linearGradient
       id="linearGradient4165">
      <stop
         style="stop-color:#ffffff;stop-opacity:1;"
         offset="0"
         id="stop220" />
      <stop
         style="stop-color:#7cafec;stop-opacity:1"
         offset="1"
         id="stop222" />
    </linearGradient>
    <linearGradient
       gradientTransform="matrix(1.124997,0,0,1.124997,-427.64768,-557.26597)"
       xlink:href="#d-36"
       id="linearGradient4205"
       x1="388.57101"
       y1="523.79797"
       x2="428.57101"
       y2="523.79797"
       gradientUnits="userSpaceOnUse" />
    <linearGradient
       gradientTransform="matrix(1.25,0,0,1.26667,-92.14,-151.08)"
       gradientUnits="userSpaceOnUse"
       x2="392.89999"
       y2="546.58002"
       x1="400.57001"
       y1="537.59998"
       id="d-36">
      <stop
         stop-color="#ffc35a"
         id="stop3-7" />
      <stop
         stop-color="#faae2a"
         offset="1"
         id="stop5-5" />
    </linearGradient>
    <linearGradient
       id="c-5-3"
       y1="13"
       x1="13"
       y2="31"
       x2="31"
       gradientUnits="userSpaceOnUse"
       gradientTransform="matrix(1.124997,0,0,1.124997,16.99637,-0.64616065)"
       xlink:href="#f-5">
      <stop
         stop-color="#383e51"
         id="stop13" />
      <stop
         offset="1"
         stop-color="#655c6f"
         stop-opacity="0"
         id="stop15" />
    </linearGradient>
    <linearGradient
       gradientTransform="matrix(1.25,0,0,1.26667,-92.14,-151.08)"
       gradientUnits="userSpaceOnUse"
       x2="386.57001"
       y2="540.75"
       x1="390.57001"
       y1="535.35999"
       id="f-5">
      <stop
         stop-color="#fdbc4b"
         id="stop8" />
      <stop
         stop-color="#dde341"
         offset="1"
         id="stop10" />
    </linearGradient>
    <linearGradient
       id="a-3675"
       gradientTransform="matrix(1.6071411,0,0,1.6071411,-611.77486,-822.67436)"
       gradientUnits="userSpaceOnUse"
       x2="0"
       y1="545.79797"
       y2="517.79797">
      <stop
         offset="0"
         stop-color="#197cf1"
         id="stop217" />
      <stop
         offset="1"
         stop-color="#20bcfa"
         id="stop219" />
    </linearGradient>
    <linearGradient
       id="c-35"
       gradientUnits="userSpaceOnUse"
       x1="19.999998"
       x2="6.000001"
       y1="20"
       y2="6"
       gradientTransform="matrix(2.4999989,0,0,2.4999989,4.4999976,4.5000197)">
      <stop
         offset="0"
         stop-color="#292c2f"
         id="stop227" />
      <stop
         offset="1"
         stop-opacity="0"
         id="stop229" />
    </linearGradient>
    <linearGradient
       id="b-629"
       gradientUnits="userSpaceOnUse"
       x1="11"
       x2="11"
       y1="20"
       y2="2"
       gradientTransform="matrix(2.4999989,0,0,2.4999989,4.4999976,4.5000197)">
      <stop
         offset="0"
         stop-color="#7cbaf8"
         id="stop222-1" />
      <stop
         offset="1"
         stop-color="#f4fcff"
         id="stop224" />
    </linearGradient>
    <linearGradient
       id="a-36753"
       gradientTransform="matrix(1.6071411,0,0,1.6071411,-611.77484,-822.6744)"
       gradientUnits="userSpaceOnUse"
       x2="0"
       y1="545.79797"
       y2="517.79797">
      <stop
         offset="0"
         stop-color="#42a603"
         id="stop226-5" />
      <stop
         offset="1"
         stop-color="#78da06"
         id="stop228-6" />
    </linearGradient>
    <linearGradient
       id="b-2"
       gradientUnits="userSpaceOnUse"
       x1="6.4999962"
       x2="15.500013"
       y1="6.5000162"
       y2="15.500014"
       gradientTransform="matrix(2.4999979,0,0,2.4999979,4.5000247,4.5000047)">
      <stop
         offset="0"
         stop-color="#292c2f"
         id="stop231" />
      <stop
         offset="1"
         stop-opacity="0"
         id="stop233" />
    </linearGradient>
    <linearGradient
       id="c-9"
       gradientUnits="userSpaceOnUse"
       x1="11"
       x2="11"
       y1="17"
       y2="5"
       gradientTransform="matrix(2.4999979,0,0,2.4999979,4.5000247,4.5000047)">
      <stop
         offset="0"
         stop-color="#bcfd93"
         id="stop236" />
      <stop
         offset="1"
         stop-color="#fafff5"
         id="stop238" />
    </linearGradient>
    <linearGradient
       id="a-367535"
       gradientUnits="userSpaceOnUse"
       x1="24.018"
       x2="24.018"
       y1="18.382999"
       y2="0.38299999">
      <stop
         offset="0"
         stop-color="#a5a5a5"
         id="stop234" />
      <stop
         offset="1"
         stop-color="#f5f2f5"
         id="stop236-6" />
    </linearGradient>
    <linearGradient
       id="c-2"
       gradientUnits="userSpaceOnUse"
       x1="7"
       x2="18"
       y1="7"
       y2="18"
       gradientTransform="matrix(2.5,0,0,2.5,4.5000048,4.287)">
      <stop
         offset="0"
         stop-color="#292c2f"
         id="stop244" />
      <stop
         offset="1"
         stop-opacity="0"
         id="stop246" />
    </linearGradient>
    <linearGradient
       id="b-9"
       gradientUnits="userSpaceOnUse"
       x1="5"
       x2="5"
       y1="17"
       y2="5"
       gradientTransform="matrix(2.5,0,0,2.5,4.5000048,4.287)">
      <stop
         offset="0"
         stop-color="#ffd42a"
         id="stop239" />
      <stop
         offset="1"
         stop-color="#ffdf62"
         id="stop241" />
    </linearGradient>
    <linearGradient
       id="b-29"
       gradientUnits="userSpaceOnUse"
       x1="5"
       x2="18"
       y1="5"
       y2="18"
       gradientTransform="matrix(2.5,0,0,2.5,4.5000004,4.5)">
      <stop
         offset="0"
         stop-color="#292c2f"
         id="stop252" />
      <stop
         offset="1"
         stop-opacity="0"
         id="stop254" />
    </linearGradient>
    <linearGradient
       id="c-1"
       gradientUnits="userSpaceOnUse"
       x1="6"
       x2="6"
       y1="16"
       y2="6">
      <stop
         offset="0"
         stop-color="#ffd42a"
         id="stop257" />
      <stop
         offset="1"
         stop-color="#ffdf62"
         id="stop259" />
    </linearGradient>
    <linearGradient
       id="c-91"
       gradientUnits="userSpaceOnUse"
       x1="6"
       x2="19"
       y1="5"
       y2="18"
       gradientTransform="matrix(2.4999993,0,0,2.4999993,4.5000087,4.5000087)">
      <stop
         offset="0"
         stop-color="#292c2f"
         id="stop264" />
      <stop
         offset="1"
         stop-opacity="0"
         id="stop266" />
    </linearGradient>
    <linearGradient
       id="b-27"
       gradientUnits="userSpaceOnUse"
       x1="7"
       x2="7"
       y1="16"
       y2="6"
       gradientTransform="matrix(2.4999993,0,0,2.4999993,4.5000087,4.5000087)">
      <stop
         offset="0"
         stop-color="#ffd42a"
         id="stop259-0" />
      <stop
         offset="1"
         stop-color="#ffdf62"
         id="stop261" />
    </linearGradient>
    <linearGradient
       inkscape:collect="always"
       xlink:href="#a-367535"
       id="linearGradient708"
       gradientUnits="userSpaceOnUse"
       x1="24.018"
       y1="18.382999"
       x2="24.018"
       y2="0.38299999" />
  </defs>
  <path
     d="m 2.9999985,10.25 c 0,-4.0041748 3.245938,-7.25 7.2500005,-7.25 h 43.500003 c 4.004173,0 7.249999,3.2458252 7.249999,7.25 v 43.5 c 0,4.004173 -3.245827,7.25 -7.25,7.25 H 10.249999 C 6.2459365,61 2.9999985,57.754173 2.9999985,53.75 Z"
     id="path736"
     style="fill:#606c86;fill-opacity:1;stroke-width:3.625" />
  <path
     d="M 2.9999985,9.796875 C 2.9999985,6.0431877 6.2459365,3 10.249999,3 h 43.500003 c 4.004173,0 7.249999,3.0431877 7.249999,6.796875 v 40.781249 c 0,3.753693 -3.245827,6.796876 -7.25,6.796876 H 10.249999 c -4.0040625,0 -7.2500005,-3.043183 -7.2500005,-6.796876 z"
     id="path738"
     style="fill:#3b4252;fill-opacity:1;stroke-width:3.625" />
  <g
     stroke-linejoin="round"
     stroke-width="2"
     id="g275"
     transform="matrix(2.4999993,0,0,2.4999993,4.5000077,4.5000077)">
    <circle
       cx="11"
       cy="11"

       r="9"
       id="circle269"
       style="fill:#5c656e;fill-opacity:1" />
    <path
       d="M 11,2 A 9,9 0 0 0 2.9453125,7 H 4 L 5,8 V 7 H 6 V 6 L 8,4 V 5 L 9,4 V 3 h 1 v 1 h 1 L 12,3 V 2.0566406 A 9,9 0 0 0 11,2 Z M 17.361328,4.6386719 17,5 v 1 h 1 L 18.283203,5.7167969 A 9,9 0 0 0 17.361328,4.6386719 Z M 18.683594,6.3164062 18,7 16,8 15,11 h 1 v 1 l 2,1 1.917969,-0.958984 A 9,9 0 0 0 20,11 9,9 0 0 0 18.683594,6.3164062 Z M 3,9 v 1 H 2.078125 A 9,9 0 0 0 2,11 h 1 l 2,2 h 1 v 1 H 5 v 1 l 2,2 v 2.054688 A 9,9 0 0 0 11,20 l 1,-1 v -1 h 1 l 1,-1 v -1 l 1,-1 -1,-1 H 12 L 11,13 H 10 L 9,12 H 7 V 11 L 6,12 H 5 V 11 L 4,10 V 9 Z"

       id="path271"
       style="fill:url(#linearGradient708)" />
    <path
       d="M 19.974609,10.359375 A 9,9 0 0 1 11,19 9,9 0 0 1 2.0351562,10.5 9,9 0 0 0 2,11 a 9,9 0 0 0 9,9 9,9 0 0 0 9,-9 9,9 0 0 0 -0.02539,-0.640625 z"
       fill="#292c2f"
       opacity="0.3"
       id="path273" />
  </g>
  <path
     d="m 31.999995,17.000005 c -1.989,0 -3.8962,0.79074 -5.30272,2.197264 -1.40653,1.406525 -2.19728,3.313609 -2.19728,5.302734 0.002,0.013 0.002,0.02605 0.005,0.03908 -3.1384,2.351424 -4.99145,6.039435 -5.00487,9.960934 0,3.315249 1.3179,6.493889 3.66212,8.837888 l 11.1621,11.162107 h 20.17577 V 34.587902 L 44.456165,24.54396 c -0.7955,-0.795424 -1.8878,-1.293944 -3.08105,-1.293944 -0.007,0 -0.0125,-3e-5 -0.02,0 l -4.05275,-4.052734 c -1.363,-1.363075 -3.24374,-2.196815 -5.30274,-2.197265 z"

     opacity="0.2"
     id="path277"
     style="fill:url(#c-91);stroke-width:2.5" />
  <path
     d="m 31.999995,17.000005 a 7.4999979,7.4999979 0 0 0 -7.5,7.499998 7.4999979,7.4999979 0 0 0 0.005,0.03908 12.499997,12.499997 0 0 0 -5.0049,9.960934 12.499997,12.499997 0 0 0 12.5,12.499997 12.499997,12.499997 0 0 0 12.5,-12.499997 12.499997,12.499997 0 0 0 -0.4785,-3.413084 c 1.04422,-0.80515 1.7285,-2.064437 1.7285,-3.461914 0,-2.386631 -1.98835,-4.374998 -4.375,-4.374998 -0.68523,0 -1.337,0.163925 -1.91895,0.454102 a 7.4999979,7.4999979 0 0 0 -7.45605,-6.704101 z"
     fill="#484f56"
     id="path279"
     style="stroke-width:2.5" />
  <path
     d="m 31.999995,19.500004 a 4.9999986,4.9999986 0 0 0 -5,4.999999 4.9999986,4.9999986 0 0 0 0.171,1.269532 9.9999972,9.9999972 0 0 0 -5.1709,8.730465 9.9999972,9.9999972 0 0 0 10,9.999997 9.9999972,9.9999972 0 0 0 10,-9.999997 9.9999972,9.9999972 0 0 0 -1.50878,-5.224609 1.8749995,1.8749995 0 0 0 0.88378,0.2246 1.8749995,1.8749995 0 0 0 1.875,-1.874999 1.8749995,1.8749995 0 0 0 -1.875,-1.875 1.8749995,1.8749995 0 0 0 -1.875,1.875 1.8749995,1.8749995 0 0 0 0.0343,0.341797 9.9999972,9.9999972 0 0 0 -2.70018,-2.216797 4.9999986,4.9999986 0 0 0 0.166,-1.249999 4.9999986,4.9999986 0 0 0 -4.99999,-4.999999 z m 0,2.5 a 2.4999993,2.4999993 0 0 1 2.5,2.499999 2.4999993,2.4999993 0 0 1 -0.0293,0.307617 9.9999972,9.9999972 0 0 0 -2.4707,-0.307617 9.9999972,9.9999972 0 0 0 -2.46582,0.327147 2.4999993,2.4999993 0 0 1 -0.0343,-0.327147 2.4999993,2.4999993 0 0 1 2.5,-2.499999 z m 0,4.999998 a 7.4999979,7.4999979 0 0 1 7.5,7.499998 7.4999979,7.4999979 0 0 1 -7.5,7.499998 7.4999979,7.4999979 0 0 1 -7.5,-7.499998 7.4999979,7.4999979 0 0 1 7.5,-7.499998 z m 0,2.499999 V 34.5 h 5 a 4.9999986,4.9999986 0 0 0 -5,-4.999999 z"

     stroke-width="5"
     id="path281"
     style="fill:url(#b-27)" />
</svg>
