<?xml version="1.0" encoding="UTF-8" standalone="no"?>
<svg
   width="64"
   height="64"
   version="1.1"
   id="svg57"
   sodipodi:docname="bitcoin128-1.svg"
   inkscape:version="1.2.1 (9c6d41e410, 2022-07-14)"
   xmlns:inkscape="http://www.inkscape.org/namespaces/inkscape"
   xmlns:sodipodi="http://sodipodi.sourceforge.net/DTD/sodipodi-0.dtd"
   xmlns:xlink="http://www.w3.org/1999/xlink"
   xmlns="http://www.w3.org/2000/svg"
   xmlns:svg="http://www.w3.org/2000/svg">
  <sodipodi:namedview
     id="namedview59"
     pagecolor="#ffffff"
     bordercolor="#666666"
     borderopacity="1.0"
     inkscape:showpageshadow="2"
     inkscape:pageopacity="0.0"
     inkscape:pagecheckerboard="0"
     inkscape:deskcolor="#d1d1d1"
     showgrid="true"
     inkscape:zoom="5.7040876"
     inkscape:cx="14.638625"
     inkscape:cy="15.690502"
     inkscape:window-width="1920"
     inkscape:window-height="998"
     inkscape:window-x="0"
     inkscape:window-y="0"
     inkscape:window-maximized="1"
     inkscape:current-layer="svg57">
    <inkscape:grid
       type="xygrid"
       id="grid788"
       originx="0"
       originy="0" />
  </sodipodi:namedview>
  <defs
     id="defs31">
    <linearGradient
       id="a"
       y1="543.79999"
       y2="513.79999"
       x2="0"
       gradientUnits="userSpaceOnUse"
       gradientTransform="matrix(1.125,0,0,1,-51.07,0)">
      <stop
         stop-color="#197cf1"
         id="stop2" />
      <stop
         offset="1"
         stop-color="#20bcfa"
         id="stop4" />
    </linearGradient>
    <linearGradient
       xlink:href="#a"
       id="b"
       y1="44"
       y2="11"
       x2="0"
       gradientUnits="userSpaceOnUse" />
    <linearGradient
       id="c"
       y1="10"
       y2="14"
       x2="0"
       gradientUnits="userSpaceOnUse">
      <stop
         stop-color="#1d1e1e"
         id="stop8" />
      <stop
         offset="1"
         stop-color="#44484c"
         id="stop10" />
    </linearGradient>
    <linearGradient
       xlink:href="#a"
       id="d"
       y1="14"
       y2="10"
       gradientUnits="userSpaceOnUse"
       x2="0" />
    <linearGradient
       xlink:href="#a"
       id="e"
       y1="516.79999"
       y2="503.79999"
       x2="0"
       gradientUnits="userSpaceOnUse" />
    <linearGradient
       id="f"
       y1="18"
       y2="15"
       x2="0"
       gradientUnits="userSpaceOnUse">
      <stop
         stop-color="#c6cdd1"
         id="stop15" />
      <stop
         offset="1"
         stop-color="#e0e5e7"
         id="stop17" />
    </linearGradient>
    <linearGradient
       xlink:href="#f"
       id="g"
       y1="517.79999"
       y2="514.79999"
       x2="0"
       gradientUnits="userSpaceOnUse" />
    <linearGradient
       id="h"
       y1="19"
       y2="3"
       x2="0"
       gradientUnits="userSpaceOnUse"
       gradientTransform="translate(0,-2)">
      <stop
         stop-color="#7cbaf8"
         id="stop21" />
      <stop
         offset="1"
         stop-color="#f4fcff"
         id="stop23" />
    </linearGradient>
    <linearGradient
       id="i"
       y1="23"
       x1="16"
       y2="39"
       x2="32"
       gradientUnits="userSpaceOnUse">
      <stop
         stop-color="#292c2f"
         id="stop26" />
      <stop
         offset="1"
         stop-opacity="0"
         id="stop28" />
    </linearGradient>
    <linearGradient
       id="d-7"
       x2="0"
       y1="44"
       y2="4"
       gradientTransform="matrix(-0.67500012,0,0,0.67500013,40.200007,7.6593637)"
       gradientUnits="userSpaceOnUse">
      <stop
         stop-color="#2f74c8"
         offset="0"
         id="stop13-4" />
      <stop
         stop-color="#4699d7"
         offset="1"
         id="stop15-4" />
    </linearGradient>
    <linearGradient
       id="b-3"
       x1="405.57001"
       x2="427.57001"
       y1="509.79999"
       y2="533.79999"
       gradientUnits="userSpaceOnUse">
      <stop
         stop-opacity=".286"
         offset="0"
         id="stop7" />
      <stop
         stop-opacity="0"
         offset="1"
         id="stop9" />
    </linearGradient>
    <linearGradient
       id="a-7"
       x2="0"
       y1="34"
       y2="4"
       gradientUnits="userSpaceOnUse"
       gradientTransform="matrix(0.67500012,0,0,0.67500013,7.799999,7.6593637)">
      <stop
         stop-color="#7cbaf8"
         offset="0"
         id="stop2-8" />
      <stop
         stop-color="#f4fcff"
         offset="1"
         id="stop4-6" />
    </linearGradient>
    <filter
       id="filter875"
       x="-0.033881954"
       y="-0.038400668"
       width="1.0677639"
       height="1.0768013"
       color-interpolation-filters="sRGB">
      <feGaussianBlur
         stdDeviation="0.23999689"
         id="feGaussianBlur2646" />
    </filter>
    <linearGradient
       id="a-9"
       x1="32.351002"
       x2="32.351002"
       y1="2.0801001"
       y2="61.924"
       gradientTransform="matrix(0.74518357,0,0,0.74518357,8.0974286,7.2796845)"
       gradientUnits="userSpaceOnUse">
      <stop
         stop-color="#eceff4"
         stop-opacity=".78"
         offset="0"
         id="stop1096" />
      <stop
         stop-color="#eceff4"
         stop-opacity=".24"
         offset="1"
         id="stop1098" />
    </linearGradient>
    <radialGradient
       id="radialGradient991"
       cx="4.1410999"
       cy="6.4320002"
       r="2.1166"
       gradientTransform="matrix(2.816327,0,0,2.816327,7.2698656,6.8262445)"
       gradientUnits="userSpaceOnUse">
      <stop
         stop-color="#eceff4"
         offset="0"
         id="stop1101" />
      <stop
         stop-color="#fff"
         stop-opacity="0"
         offset="1"
         id="stop1103" />
    </radialGradient>
    <radialGradient
       id="radialGradient1003"
       cx="4.1410999"
       cy="6.4320002"
       r="2.1166"
       gradientTransform="matrix(0.56172,0,0,0.56172,10.291,-0.5379)"
       gradientUnits="userSpaceOnUse">
      <stop
         stop-color="#eceff4"
         offset="0"
         id="stop1106" />
      <stop
         stop-color="#fff"
         stop-opacity="0"
         offset="1"
         id="stop1108" />
    </radialGradient>
    <radialGradient
       id="radialGradient1007"
       cx="4.1410999"
       cy="6.4320002"
       r="2.1166"
       gradientTransform="matrix(0.56172,0,0,0.56172,11.348,0.92917)"
       gradientUnits="userSpaceOnUse">
      <stop
         stop-color="#eceff4"
         offset="0"
         id="stop1111" />
      <stop
         stop-color="#fff"
         stop-opacity="0"
         offset="1"
         id="stop1113" />
    </radialGradient>
    <radialGradient
       id="radialGradient1011"
       cx="4.1410999"
       cy="6.4320002"
       r="2.1166"
       gradientTransform="matrix(1.2657242,0,0,1.2657242,44.050258,27.318352)"
       gradientUnits="userSpaceOnUse">
      <stop
         stop-color="#eceff4"
         offset="0"
         id="stop1116" />
      <stop
         stop-color="#fff"
         stop-opacity="0"
         offset="1"
         id="stop1118" />
    </radialGradient>
    <radialGradient
       id="radialGradient1015"
       cx="4.1410999"
       cy="6.4320002"
       r="2.1166"
       gradientTransform="matrix(1.2657242,0,0,1.2657242,43.694685,30.883912)"
       gradientUnits="userSpaceOnUse">
      <stop
         stop-color="#eceff4"
         offset="0"
         id="stop1121" />
      <stop
         stop-color="#fff"
         stop-opacity="0"
         offset="1"
         id="stop1123" />
    </radialGradient>
    <radialGradient
       id="radialGradient1019"
       cx="4.1410999"
       cy="6.4320002"
       r="2.1166"
       gradientTransform="matrix(2.2931812,0,0,2.2931812,31.323308,22.660383)"
       gradientUnits="userSpaceOnUse">
      <stop
         stop-color="#eceff4"
         offset="0"
         id="stop1126" />
      <stop
         stop-color="#fff"
         stop-opacity="0"
         offset="1"
         id="stop1128" />
    </radialGradient>
    <radialGradient
       id="radialGradient1027"
       cx="4.1410999"
       cy="6.4320002"
       r="2.1166"
       gradientTransform="matrix(1.4231608,0,0,1.4231608,15.237454,24.81035)"
       gradientUnits="userSpaceOnUse">
      <stop
         stop-color="#eceff4"
         offset="0"
         id="stop1131" />
      <stop
         stop-color="#fff"
         stop-opacity="0"
         offset="1"
         id="stop1133" />
    </radialGradient>
    <radialGradient
       id="radialGradient1031"
       cx="4.1410999"
       cy="6.4320002"
       r="2.1166"
       gradientTransform="matrix(0.86424678,0,0,0.86424678,34.199906,44.361076)"
       gradientUnits="userSpaceOnUse">
      <stop
         stop-color="#eceff4"
         offset="0"
         id="stop1136" />
      <stop
         stop-color="#fff"
         stop-opacity="0"
         offset="1"
         id="stop1138" />
    </radialGradient>
    <radialGradient
       id="radialGradient1035"
       cx="4.1410999"
       cy="6.4320002"
       r="2.1166"
       gradientTransform="matrix(1.3194118,0,0,1.3194118,26.772714,28.216783)"
       gradientUnits="userSpaceOnUse">
      <stop
         stop-color="#eceff4"
         offset="0"
         id="stop1141" />
      <stop
         stop-color="#fff"
         stop-opacity="0"
         offset="1"
         id="stop1143" />
    </radialGradient>
    <radialGradient
       id="radialGradient1039"
       cx="4.1410999"
       cy="6.4320002"
       r="2.1166"
       gradientTransform="matrix(0.63228123,0,0,0.63228123,45.373962,40.118877)"
       gradientUnits="userSpaceOnUse">
      <stop
         stop-color="#eceff4"
         offset="0"
         id="stop1146" />
      <stop
         stop-color="#fff"
         stop-opacity="0"
         offset="1"
         id="stop1148" />
    </radialGradient>
    <radialGradient
       id="radialGradient1043"
       cx="4.1410999"
       cy="6.4320002"
       r="2.1166"
       gradientTransform="matrix(0.63228123,0,0,0.63228123,42.191435,37.731983)"
       gradientUnits="userSpaceOnUse">
      <stop
         stop-color="#eceff4"
         offset="0"
         id="stop1151" />
      <stop
         stop-color="#fff"
         stop-opacity="0"
         offset="1"
         id="stop1153" />
    </radialGradient>
    <linearGradient
       inkscape:collect="always"
       xlink:href="#linearGradient22063-0"
       id="linearGradient22065-6"
       x1="-22"
       y1="5.1111121"
       x2="-6.4444442"
       y2="-9.1111107"
       gradientUnits="userSpaceOnUse"
       gradientTransform="matrix(3.6250002,0,0,3.6250002,82.750003,39.249999)" />
    <linearGradient
       inkscape:collect="always"
       id="linearGradient22063-0">
      <stop
         style="stop-color:#ebcb8b;stop-opacity:1;"
         offset="0"
         id="stop22059-6" />
      <stop
         style="stop-color:#b48ead;stop-opacity:1;"
         offset="1"
         id="stop22061-2" />
    </linearGradient>
    <radialGradient
       id="radialGradient1039-6"
       cx="4.1410999"
       cy="6.4320002"
       r="2.1166"
       gradientTransform="matrix(0.63228123,0,0,0.63228123,-48.693835,-20.050615)"
       gradientUnits="userSpaceOnUse">
      <stop
         stop-color="#eceff4"
         offset="0"
         id="stop1146-1" />
      <stop
         stop-color="#fff"
         stop-opacity="0"
         offset="1"
         id="stop1148-8" />
    </radialGradient>
    <filter
       id="d-5"
       x="-0.014479607"
       y="-0.01731424"
       width="1.0289592"
       height="1.0346285"
       color-interpolation-filters="sRGB">
      <feGaussianBlur
         stdDeviation=".74992302"
         id="feGaussianBlur4220" />
    </filter>
    <radialGradient
       id="c-0"
       cx="199.22"
       cy="60.978001"
       r="62.147999"
       gradientTransform="matrix(0.42756467,-1.2850931e-8,3.2631128e-8,1.1614085,-52.999546,-41.915919)"
       gradientUnits="userSpaceOnUse">
      <stop
         stop-color="#eceff4"
         offset="0"
         id="stop4215" />
      <stop
         stop-color="#cbccce"
         stop-opacity="0"
         offset="1"
         id="stop4217" />
    </radialGradient>
    <linearGradient
       id="j"
       x1="23.844"
       x2="23.816"
       y1="17.573999"
       y2="85.151001"
       gradientTransform="matrix(0.32631128,0,0,0.3212666,10.216708,9.788885)"
       gradientUnits="userSpaceOnUse">
      <stop
         stop-color="#88c0d0"
         offset="0"
         id="stop4244" />
      <stop
         stop-color="#5e81ac"
         offset="1"
         id="stop4246" />
    </linearGradient>
    <filter
       id="h-3"
       x="-0.080466691"
       y="-0.24545603"
       width="1.1609334"
       height="1.4909121"
       color-interpolation-filters="sRGB">
      <feGaussianBlur
         stdDeviation="1.4789442"
         id="feGaussianBlur4236" />
    </filter>
    <linearGradient
       id="e-6"
       x1="174.78999"
       x2="174.86"
       y1="109.47"
       y2="118.12"
       gradientTransform="matrix(0.32631128,0,0,0.3212666,-26.160806,9.3153392)"
       gradientUnits="userSpaceOnUse">
      <stop
         stop-color="#909090"
         offset="0"
         id="stop4223" />
      <stop
         stop-color="#727272"
         stop-opacity="0"
         offset="1"
         id="stop4225" />
    </linearGradient>
    <radialGradient
       id="f-1"
       cx="178.78999"
       cy="120.7"
       r="22.055"
       gradientTransform="matrix(1.2592366,-7.3890852e-8,0,0.04459174,-192.95901,42.711365)"
       gradientUnits="userSpaceOnUse">
      <stop
         stop-color="#a6aebf"
         offset="0"
         id="stop4228" />
      <stop
         stop-color="#eceff4"
         offset="1"
         id="stop4230" />
    </radialGradient>
    <filter
       id="g-0"
       x="-0.024991525"
       y="-0.5039996"
       width="1.0499831"
       height="2.0079992"
       color-interpolation-filters="sRGB">
      <feGaussianBlur
         stdDeviation=".32830532"
         id="feGaussianBlur4233" />
    </filter>
    <linearGradient
       id="i-6"
       x1="183.06"
       x2="183.06"
       y1="129.42"
       y2="127.06"
       gradientTransform="matrix(0.32631128,0,0,0.3212666,-26.160806,9.3153392)"
       gradientUnits="userSpaceOnUse">
      <stop
         stop-color="#a6aebf"
         offset="0"
         id="stop4239" />
      <stop
         stop-color="#636363"
         stop-opacity="0"
         offset="1"
         id="stop4241" />
    </linearGradient>
    <linearGradient
       id="a-3"
       y1="542.79999"
       y2="503.79999"
       x2="0"
       gradientUnits="userSpaceOnUse"
       gradientTransform="translate(-384.57,504.56)">
      <stop
         stop-color="#f39c12"
         id="stop226" />
      <stop
         offset="1"
         stop-color="#f5ab35"
         id="stop228" />
    </linearGradient>
    <linearGradient
       id="d-6"
       y1="23.23"
       x1="23.701"
       y2="37.955002"
       x2="37.995998"
       gradientUnits="userSpaceOnUse">
      <stop
         id="stop241" />
      <stop
         offset="1"
         stop-opacity="0"
         id="stop243" />
    </linearGradient>
    <linearGradient
       id="b-7"
       y1="505.79999"
       y2="541.79999"
       x2="0"
       gradientUnits="userSpaceOnUse"
       gradientTransform="translate(-384.57,504.56)">
      <stop
         stop-color="#fffcde"
         id="stop231" />
      <stop
         offset="1"
         stop-color="#fafac5"
         id="stop233" />
    </linearGradient>
    <radialGradient
       cx="24"
       cy="1028.36"
       id="c-5"
       r="16"
       gradientUnits="userSpaceOnUse"
       gradientTransform="matrix(1.23105,0.00334,-0.00334,1.23128,-2.11,-237.92)">
      <stop
         stop-color="#f47750"
         id="stop236" />
      <stop
         offset="1"
         stop-color="#fdbc4b"
         id="stop238" />
    </radialGradient>
    <linearGradient
       xlink:href="#linearGradient4177"
       id="linearGradient4183"
       x1="16"
       y1="1018.362"
       x2="44"
       y2="1046.3621"
       gradientUnits="userSpaceOnUse"
       gradientTransform="matrix(1.2727795,0,0,1.2727795,1.153434,-1275.515)" />
    <linearGradient
       id="linearGradient4177">
      <stop
         style="stop-color:#000000;stop-opacity:1;"
         offset="0"
         id="stop3566" />
      <stop
         style="stop-color:#000000;stop-opacity:0;"
         offset="1"
         id="stop3568" />
    </linearGradient>
    <linearGradient
       xlink:href="#linearGradient4177"
       id="linearGradient4225"
       x1="15.233"
       y1="11.995"
       x2="39.609001"
       y2="36.369999"
       gradientUnits="userSpaceOnUse"
       gradientTransform="matrix(1.3804767,0,0,1.3804767,-0.370485,-0.950846)" />
  </defs>
  <path
     d="M 3,10.25 C 3,6.245825 6.245938,3 10.25,3 h 43.500003 c 4.004173,0 7.25,3.245825 7.25,7.25 v 43.5 c 0,4.004173 -3.245827,7.25 -7.25,7.25 H 10.25 C 6.245938,61 3,57.754173 3,53.75 Z"
     id="path736-7"
     style="fill:#606c86;fill-opacity:1;stroke-width:3.625" />
  <path
     d="M 3,9.796875 C 3,6.043188 6.245938,3 10.25,3 h 43.500003 c 4.004173,0 7.25,3.043188 7.25,6.796875 v 40.781249 c 0,3.753693 -3.245827,6.796876 -7.25,6.796876 H 10.25 C 6.245938,57.375 3,54.331817 3,50.578124 Z"
     id="path738-9"
     style="fill:url(#linearGradient22065-6);fill-opacity:1;stroke-width:3.625" />
  <path
     d="M 23.8745,8.325 V 26.7 h 15.75 V 13.575 l -5.25,-5.25 z m 2.625,2.625 h 5.25 v 5.25 h 5.25 v 7.875 h -10.5 z m 5.25,21 A 9.1875,9.1875 0 0 0 22.562,41.1375 9.1875,9.1875 0 0 0 31.7495,50.325 9.1875,9.1875 0 0 0 40.937,41.1375 9.1875,9.1875 0 0 0 31.7495,31.95 Z m 0,2.625 a 6.5625,6.5625 0 0 1 3.896484,1.281738 v 0.0053 a 0.61549477,0.61549477 0 0 1 0,0.23583 c -0.04657,0.119778 -0.167868,0.105892 -0.307616,0.102532 -0.03827,0 -0.07274,0.0034 -0.107677,0 -0.234544,-0.01496 -0.462627,-0.09109 -0.569092,0.07691 0.0066,0.1281 0.02827,0.199631 0,0.312742 -0.02126,0.08151 -0.110985,0.13356 -0.107678,0.205091 0.0017,0.03494 0.07374,0.109043 0.08203,0.158944 0.0066,0.02827 -0.01155,0.07757 0,0.102533 0.03993,0.07319 0.13524,-0.01155 0.205091,0 0.06654,0.01 0.128179,0.109698 0.128179,0.184563 a 0.44914485,0.44914485 0 0 1 -0.04615,0.205092 c -0.06654,0.0998 -0.190627,0.07494 -0.287109,0.128178 -0.0782,0.04657 -0.11235,0.157658 -0.158944,0.23583 -0.0499,0.08319 -0.09857,0.110933 -0.07691,0.230712 a 0.5605993,0.5605993 0 0 1 -0.287084,0.29211 0.66207275,0.66207275 0 0 0 -0.230711,0.179445 c -0.05486,0.05657 -0.130672,0.08326 -0.158944,0.128178 -0.02126,0.03326 -0.0024,0.112377 -0.02572,0.158944 -0.03326,0.06321 -0.08663,0.112928 -0.128178,0.179445 -0.01995,0.02827 -0.05533,0.06775 -0.07691,0.107678 -0.0499,0.08649 -0.11592,0.154192 -0.107651,0.230711 0.0066,0.07487 0.10269,0.09408 0.107651,0.158944 0.0034,0.03659 -0.03239,0.06261 -0.03076,0.102532 0.0017,0.05657 0.02546,0.08161 0.03076,0.128179 0.01,0.111457 -0.06043,0.159285 -0.08203,0.23583 -0.01,0.03659 0.0084,0.07426 0,0.102532 -0.01654,0.05486 -0.102533,0.09237 -0.102533,0.158944 -0.0017,0.04657 0.07358,0.08725 0.07691,0.153799 0.0034,0.04491 -0.03397,0.0866 -0.02573,0.128179 0.01654,0.08319 0.17262,0.196612 0.23583,0.261476 0.08649,0.08487 0.168499,0.140884 0.205091,0.230711 0.03326,0.07817 0.0478,0.203254 0.107678,0.261476 0.04323,0.04158 0.127968,0.06442 0.184563,0.107678 0.05158,0.04158 0.122877,0.05759 0.179445,0.102532 0.09151,0.07153 0.217613,0.218532 0.364012,0.21021 0.07817,-0.0066 0.145871,-0.04142 0.230711,-0.05641 0.0898,-0.01496 0.195615,-0.05956 0.287109,-0.05127 0.06988,0.0084 0.137025,0.05625 0.21021,0.05127 a 0.86834669,0.86834669 0 0 0 0.256358,-0.07691 c 0.149704,-0.06486 0.381937,-0.185403 0.599854,-0.153798 0.166347,0.02336 0.170678,0.212257 0.28711,0.287109 0.133087,0.01155 0.231919,-0.02664 0.338378,0 0.07985,0.01837 0.171124,0.167501 0.179445,0.230711 0.0084,0.06654 -0.04295,0.113873 -0.05127,0.153799 -0.02126,0.08817 -0.03628,0.206588 -0.05127,0.261476 -0.01155,0.04491 -0.02727,0.08492 -0.02573,0.128179 0,0.03993 0.06261,0.132982 0.102532,0.184564 0.0499,0.06321 0.123034,0.109567 0.184564,0.179445 0.109804,0.12642 0.154192,0.303668 0.230711,0.471681 0.01995,0.04323 -0.01654,0.0493 0,0.102532 -0.03326,0.25284 -0.115631,0.421263 -0.281983,0.702395 -0.07985,0.0898 -0.160623,0.199631 -0.158943,0.312743 -0.0053,0.215276 0.08502,0.347513 0.117915,0.52295 A 6.5625,6.5625 0 0 1 31.7495,47.7 6.5625,6.5625 0 0 1 29.714099,47.361622 c -0.01339,-0.02979 3.02e-4,-0.06534 -0.01549,-0.0923 -0.03659,-0.05155 -0.09269,-0.07725 -0.107677,-0.153799 0.109777,-0.02126 0.258903,0.120173 0.415285,0.07691 0.07486,-0.02126 0.202571,-0.162513 0.23583,-0.230711 0.01155,-0.02126 -0.01,-0.108307 0,-0.133297 0.01496,-0.02827 0.04796,-0.03628 0.05127,-0.05127 0.01,-0.04158 -0.0084,-0.05198 0,-0.07691 0.02662,-0.07817 0.11403,-0.128021 0.158944,-0.184564 0.03326,-0.04158 0.07093,-0.08327 0.102533,-0.128178 0.03659,-0.04659 0.0536,-0.06263 0.07691,-0.102533 0.02336,-0.138075 -0.08453,-0.242602 -0.05127,-0.364014 0.03662,-0.136395 0.232601,-0.225566 0.364011,-0.287109 0.04491,-0.02126 0.08991,-0.06363 0.128179,-0.07691 0.08983,-0.03161 0.200602,-0.021 0.287107,-0.05127 0.141408,-0.0499 0.191598,-0.208609 0.261476,-0.338378 0.03326,-0.05988 0.07027,-0.115658 0.07691,-0.158944 0.005,-0.03827 -0.0084,-0.08159 0,-0.128179 0.0084,-0.04489 0.01417,-0.07825 0.02572,-0.128179 a 1.3174916,1.3174916 0 0 0 0.02566,-0.261459 c 0,-0.06156 -0.02389,-0.07841 -0.02573,-0.133298 -0.01,-0.196297 0.05499,-0.201153 0.128179,-0.307615 0.03494,-0.05326 0.05197,-0.146292 0.07691,-0.184564 0.123113,-0.179655 0.327716,-0.267312 0.312745,-0.543457 -0.0066,-0.0898 -0.03602,-0.284463 -0.102532,-0.312742 -0.03659,-0.01654 -0.127995,-0.0039 -0.184564,-0.02573 -0.178001,-0.06654 -0.305873,-0.270475 -0.492187,-0.287109 h -0.102533 c -0.07319,0 -0.150859,-0.06859 -0.230711,-0.07691 -0.05324,-0.0066 -0.154639,0.01496 -0.184564,0 -0.04657,-0.02336 -0.03864,-0.10668 -0.07691,-0.133298 -0.02995,-0.01995 -0.08673,-0.02951 -0.133298,-0.04615 a 0.62048527,0.62048527 0 0 0 -0.205091,-0.05641 c -0.02827,-0.0017 -0.103373,0.005 -0.133298,0 -0.04825,-0.0084 -0.08489,-0.04864 -0.128178,-0.07691 -0.05489,-0.03326 -0.0809,-0.05597 -0.102533,-0.102532 0.0499,-0.164693 -0.125685,-0.192308 -0.158944,-0.28711 -0.01496,-0.04491 0.01654,-0.113872 0,-0.153799 -0.01837,-0.05654 -0.06497,-0.08673 -0.128178,-0.133297 a 0.71031424,0.71031424 0 0 0 -0.364012,-0.179445 c -0.0682,-0.0084 -0.15267,0.005 -0.23583,0 a 0.40922086,0.40922086 0 0 1 -0.256357,-0.133298 c -0.06479,-0.07313 -0.07668,-0.144453 -0.133245,-0.179366 -0.05158,-0.03326 -0.142853,-0.04197 -0.179445,-0.07691 -0.0168,-0.01496 -0.01207,-0.04712 -0.02573,-0.08203 -0.0283,-0.05486 -0.08455,-0.06164 -0.05127,-0.128179 -0.05988,-0.02995 -0.04279,0.03728 -0.107678,0.02573 -0.0599,-0.08319 -0.09762,-0.127496 -0.230711,-0.102532 -0.06156,0.01155 -0.114713,0.100879 -0.184564,0.102532 -0.05988,0 -0.101246,-0.0909 -0.179445,-0.102532 -0.05822,-0.0084 -0.142984,0.06124 -0.184564,0.05127 -0.06486,-0.01155 -0.06996,-0.08823 -0.128178,-0.128179 -0.04326,-0.02827 -0.135634,-0.104212 -0.158944,-0.102532 -0.07486,0 -0.127575,0.159101 -0.230711,0.102532 -0.05158,-0.06489 0.0872,-0.07171 0.02572,-0.133297 -0.04491,-0.04491 -0.06594,0.0058 -0.102533,0.03076 -0.04326,0.02827 -0.08673,0.0603 -0.133297,0.07691 -0.10479,0.03827 -0.174852,0.03365 -0.256358,0.07691 -0.07486,0.03827 -0.08838,0.102926 -0.133297,0.179445 -0.03326,0.06321 -0.102244,0.15561 -0.153799,0.158943 -0.06486,0.0034 -0.126341,-0.08271 -0.184564,-0.107677 -0.173014,-0.07487 -0.270559,0.0547 -0.415283,0.05641 -0.133087,0.0017 -0.312608,-0.211943 -0.307616,-0.338381 0.0034,-0.07652 0.03948,-0.190627 0.04615,-0.287109 0.01,-0.07486 0.08035,-0.140359 0.08203,-0.21021 0,-0.09151 -0.150307,-0.169418 -0.21021,-0.179445 -0.06111,-0.01181 -0.129071,-0.0074 -0.199946,0 A 6.5625,6.5625 0 0 1 25.961152,38.0768 c 0.04552,0.0147 0.116682,0.09613 0.123034,0.14868 0.0066,0.06652 -0.04562,0.135371 -0.02572,0.21021 0.06988,0.07318 0.21126,0.110538 0.312745,0.153799 0.06654,-0.05486 0.01,-0.179839 0,-0.256358 -0.0017,-0.03494 0.0034,-0.0761 0,-0.107677 -0.0084,-0.05489 -0.03076,-0.107232 -0.03076,-0.153799 0,-0.216248 0.166346,-0.30481 0.312743,-0.389647 0.06156,-0.03659 0.129675,-0.10668 0.184563,-0.133298 0.07652,-0.03827 0.1197,-0.04035 0.184564,-0.07691 0.114791,-0.06652 0.21945,-0.130252 0.307619,-0.205091 0.04158,-0.0998 -0.0034,-0.216248 0,-0.312745 0.04158,-0.02494 0.06276,0.0034 0.107677,0 0.0682,-0.01496 0.08825,-0.120645 0.128179,-0.158944 0.02153,-0.02336 0.09988,-0.02798 0.128179,-0.05127 0.06988,-0.05324 0.07342,-0.130515 0.133297,-0.153799 0.02153,-0.0084 0.06927,-0.01549 0.102533,-0.02573 0.04657,-0.01155 0.10626,-0.05709 0.179445,-0.08203 0.04657,-0.01654 0.164613,-0.0039 0.184563,-0.02047 0.02153,-0.02336 -0.0084,-0.124005 0,-0.158944 0.03494,-0.171307 0.287874,-0.174142 0.440919,-0.230711 0.10479,-0.04158 0.220264,-0.130961 0.338378,-0.107651 -0.02336,0.08151 -0.125973,0.05562 -0.107677,0.153799 0.02662,0.138075 0.187609,-0.02948 0.23583,-0.04615 0.09316,-0.03993 0.269876,-0.06442 0.389647,-0.107651 0.10647,-0.03825 0.284406,-0.107625 0.184564,-0.230711 -0.08321,-0.005 -0.111405,0.07095 -0.184564,0.102532 -0.04993,0.0084 -0.06095,-0.02231 -0.102533,-0.02573 -0.04158,-0.0017 -0.06093,0.03226 -0.102532,0.02573 -0.0399,-0.0084 -0.10101,-0.08508 -0.107651,-0.133297 -0.01654,-0.12642 0.131355,-0.163197 0.184563,-0.256358 -0.03659,-0.114791 -0.188947,-0.0063 -0.287109,-0.05127 0.01,-0.0682 0.05179,-0.145635 0.133298,-0.158944 a 0.5223388,0.5223388 0 0 1 0.256357,0.05127 c 0.02126,0.01995 -0.0076,0.07605 0.02573,0.107678 0.03993,0.03326 0.107363,0.0084 0.158944,0 0.01837,-0.08649 -0.122666,-0.05111 -0.107651,-0.107678 0.101482,-0.06654 0.293984,-0.03462 0.420409,-0.05127 0.07153,-0.01155 0.140228,-0.06762 0.205091,-0.102532 0.05988,-0.03494 0.119674,-0.08221 0.184564,-0.02572 0.01654,0.06156 -0.04712,0.09823 -0.08203,0.128178 -0.116445,0.103137 -0.21777,0.21861 -0.307616,0.338379 0.05489,0.05489 0.13755,0.01549 0.230711,0.02573 0.03659,0.005 0.09159,0.0189 0.128179,0.02573 0.04657,0.0084 0.09836,-0.0084 0.133297,0 0.06486,0.01496 0.06329,0.107651 0.128179,0.107651 0.101483,0 0.111143,-0.08907 0.05127,-0.158944 0.01995,-0.07153 0.05229,-0.134662 0.02573,-0.184564 -0.04657,-0.09151 -0.22239,0.01706 -0.230711,-0.102532 -0.0066,-0.07487 0.07591,-0.09723 0.102533,-0.153799 -0.01155,-0.146396 0.117521,-0.155715 0.102532,-0.287109 -0.0084,-0.05486 -0.06429,-0.05095 -0.102532,-0.102533 -0.01208,-0.01628 -0.02126,-0.04326 -0.03077,-0.06665 A 6.5625,6.5625 0 0 1 31.7495,34.575 Z m 4.470703,1.763672 a 6.5625,6.5625 0 0 1 0.681886,0.733154 c -0.02021,0.005 -0.03801,0.01024 -0.05641,0.01024 -0.06654,0 -0.203937,-0.03226 -0.28711,-0.02573 -0.0499,0.0034 -0.08161,0.02231 -0.128178,0.02573 -0.133088,0.01 -0.209607,-0.0084 -0.312746,0 a 1.0945826,1.0945826 0 0 0 -0.287106,0.07691 c -0.03326,0.01654 -0.05762,0.05528 -0.102533,0.07691 -0.02126,0.01 -0.04867,0.01759 -0.07691,0.03077 -0.04326,0.01995 -0.119018,0.06526 -0.158944,0.07691 -0.05822,0.01496 -0.124241,-0.005 -0.230711,0 -0.07817,0.0034 -0.208557,-0.01444 -0.21021,-0.107677 0,-0.139729 0.256567,-0.07925 0.389649,-0.102533 0.04993,-0.01 0.0683,-0.06762 0.128179,-0.102532 0.02827,-0.01654 0.05376,-0.03297 0.08203,-0.05127 0.04491,-0.03326 0.119858,-0.09159 0.128179,-0.128179 0.005,-0.03326 -0.02898,-0.08274 -0.02572,-0.107677 0.0066,-0.0316 0.06093,-0.06261 0.102533,-0.102533 0.06321,-0.06321 0.104737,-0.142984 0.184563,-0.184563 0.05156,-0.02827 0.154508,-0.03533 0.179445,-0.07691 0.0026,-0.01995 5.28e-4,-0.02882 0,-0.04103 z m -10.997314,4.357909 c 0.0097,0.0081 0.021,0.01995 0.03076,0.02573 0.0034,0.0499 -0.01654,0.09159 0,0.128179 0.03827,0.05326 0.112901,0.07274 0.179445,0.107678 0.07486,0.04158 0.107914,0.14616 0.179445,0.179445 0.02662,0.01 0.0694,-0.01155 0.107677,0 0.0998,0.02995 0.118572,0.180442 0.205092,0.153798 0.05657,-0.01654 0.07206,-0.09894 0.08203,-0.153798 0.03827,-0.03993 0.0683,-0.102533 0.128179,-0.102533 0.09316,-0.0017 0.11886,0.11361 0.153798,0.205065 0.01837,0.0499 0.06707,0.104055 0.08203,0.158944 a 1.365733,1.365733 0 0 1 0,0.415283 c -0.02494,0.06988 -0.126342,0.102952 -0.184564,0.179445 -0.02662,0.03494 -0.05528,0.08437 -0.07691,0.107677 -0.03494,0.04491 -0.07591,0.06095 -0.102532,0.102533 -0.01654,0.02126 -0.01575,0.07093 -0.03076,0.102532 -0.04491,0.09649 -0.115159,0.170704 -0.07691,0.287112 0.01654,0.04657 0.07691,0.09726 0.07691,0.153799 0,0.06654 -0.143824,0.08576 -0.153799,0.158944 -0.0084,0.05158 0.06027,0.15918 0.07691,0.230711 0.01155,0.05324 0.09823,0.09836 0.128178,0.133298 0.05324,0.05988 0.110697,0.1302 0.158944,0.205091 0.09649,0.146396 0.13923,0.326954 0.230711,0.471678 0.0499,0.07319 0.151305,0.125265 0.184564,0.205091 0.01654,0.03827 -0.01496,0.11886 0,0.153799 0.05489,0.123086 0.317819,0.251186 0.440919,0.312745 0.05657,0.02827 0.105709,0.05211 0.158944,0.08203 0.07985,0.04491 0.242051,0.133534 0.281982,0.205091 0.03659,0.06321 0.06373,0.211287 0.08203,0.312746 0.02336,0.133087 -0.0066,0.244912 0,0.389647 0.0034,0.07817 0.02573,0.130357 0.02573,0.21021 v 0.102532 c -0.0017,0.09316 0.0084,0.192282 0,0.28711 A 6.5625,6.5625 0 0 1 25.187,41.1375 6.5625,6.5625 0 0 1 25.22288,40.696581 Z"
     fill="#eff0f1"
     id="path383"
     style="stroke-width:2.625" />
</svg>
