<?xml version="1.0" encoding="UTF-8" standalone="no"?>
<!-- Created with Inkscape (http://www.inkscape.org/) -->

<svg
   width="64"
   version="1.1"
   height="64"
   id="svg3307"
   sodipodi:docname="yast-sw_source.svg"
   inkscape:version="1.2.1 (9c6d41e410, 2022-07-14)"
   xmlns:inkscape="http://www.inkscape.org/namespaces/inkscape"
   xmlns:sodipodi="http://sodipodi.sourceforge.net/DTD/sodipodi-0.dtd"
   xmlns:xlink="http://www.w3.org/1999/xlink"
   xmlns="http://www.w3.org/2000/svg"
   xmlns:svg="http://www.w3.org/2000/svg">
  <sodipodi:namedview
     id="namedview3309"
     pagecolor="#ffffff"
     bordercolor="#666666"
     borderopacity="1.0"
     inkscape:showpageshadow="2"
     inkscape:pageopacity="0.0"
     inkscape:pagecheckerboard="0"
     inkscape:deskcolor="#d1d1d1"
     showgrid="false"
     inkscape:zoom="5.2149125"
     inkscape:cx="47.460048"
     inkscape:cy="18.121109"
     inkscape:window-width="1920"
     inkscape:window-height="1002"
     inkscape:window-x="0"
     inkscape:window-y="0"
     inkscape:window-maximized="1"
     inkscape:current-layer="layer1" />
  <defs
     id="defs5455">
    <linearGradient
       inkscape:collect="always"
       id="linearGradient1037">
      <stop
         style="stop-color:#2e3440;stop-opacity:1;"
         offset="0"
         id="stop1033" />
      <stop
         style="stop-color:#4c566a;stop-opacity:1;"
         offset="1"
         id="stop1035" />
    </linearGradient>
    <linearGradient
       id="linearGradient1641"
       gradientUnits="userSpaceOnUse"
       x2="0"
       y1="30"
       y2="8">
      <stop
         offset="0"
         stop-color="#cea476"
         id="stop1637"
         style="stop-color:#4c566a;stop-opacity:1;" />
      <stop
         offset="1"
         stop-color="#dab58b"
         id="stop1639"
         style="stop-color:#2e3440;stop-opacity:1;" />
    </linearGradient>
    <linearGradient
       inkscape:collect="always"
       xlink:href="#linearGradient22063-0"
       id="linearGradient22065-6"
       x1="-22"
       y1="5.1111121"
       x2="-6.4444442"
       y2="-9.1111107"
       gradientUnits="userSpaceOnUse"
       gradientTransform="matrix(3.6250002,0,0,3.6250002,467.32143,555.048)" />
    <linearGradient
       inkscape:collect="always"
       id="linearGradient22063-0">
      <stop
         style="stop-color:#5faac0;stop-opacity:1;"
         offset="0"
         id="stop22059-6" />
      <stop
         style="stop-color:#8fbcbb;stop-opacity:1;"
         offset="1"
         id="stop22061-2" />
    </linearGradient>
    <linearGradient
       id="b"
       gradientTransform="matrix(1.0062171,0,0,0.92307428,-418.26514,-495.31942)"
       gradientUnits="userSpaceOnUse"
       x1="388.423"
       x2="388.423"
       y1="557.79797"
       y2="505.798">
      <stop
         offset="0"
         stop-color="#7f8c8d"
         id="stop13" />
      <stop
         offset="1"
         stop-color="#afb0b3"
         id="stop15" />
    </linearGradient>
    <linearGradient
       id="d"
       gradientTransform="matrix(0.89441142,0,0,0.92307428,-28.621713,-33.965714)"
       gradientUnits="userSpaceOnUse"
       x1="1.3329999"
       x2="1.3329999"
       y1="48.714001"
       y2="9.7139997">
      <stop
         offset="0"
         stop-color="#eef1f2"
         id="stop19" />
      <stop
         offset="1"
         stop-color="#f9fafb"
         id="stop21" />
    </linearGradient>
    <linearGradient
       id="f"
       gradientUnits="userSpaceOnUse"
       x1="-11.306"
       x2="-11.306"
       y1="23.620001"
       y2="7.6199999"
       gradientTransform="matrix(1.7142857,0,0,1.7142857,-27.42857,-31.857142)">
      <stop
         offset="0"
         stop-color="#3e3e3e"
         id="stop2" />
      <stop
         offset="1"
         stop-color="#5c5c5c"
         id="stop4" />
    </linearGradient>
    <linearGradient
       id="a"
       gradientTransform="matrix(0.57142824,0,0,0.57142824,-222.46924,732.04922)"
       gradientUnits="userSpaceOnUse"
       x2="0"
       xlink:href="#b-3"
       y1="543.79797"
       y2="503.798" />
    <linearGradient
       id="b-3">
      <stop
         offset="0"
         stop-color="#2f3943"
         id="stop2771" />
      <stop
         offset="1"
         stop-color="#808c9b"
         id="stop2773" />
    </linearGradient>
    <linearGradient
       id="c"
       gradientTransform="matrix(0.63636312,0,0,0.63636312,-248.99977,698.03648)"
       gradientUnits="userSpaceOnUse"
       x2="0"
       xlink:href="#b-3"
       y1="499.798"
       y2="547.79797" />
    <linearGradient
       id="e"
       gradientUnits="userSpaceOnUse"
       x1="8"
       x2="20"
       y1="6"
       y2="20">
      <stop
         offset="0"
         id="stop2782" />
      <stop
         offset="1"
         stop-opacity="0"
         id="stop2784" />
    </linearGradient>
    <linearGradient
       id="d-6"
       gradientUnits="userSpaceOnUse"
       x1="11"
       x2="11"
       y1="17"
       y2="6">
      <stop
         offset="0"
         stop-color="#ffd42a"
         id="stop2777" />
      <stop
         offset="1"
         stop-color="#ffdf62"
         id="stop2779" />
    </linearGradient>
    <filter
       id="filter6437"
       x="-0.10795185"
       y="-0.10804809"
       width="1.2159037"
       height="1.2160962"
       color-interpolation-filters="sRGB">
      <feGaussianBlur
         stdDeviation="0.41036932"
         id="feGaussianBlur438" />
    </filter>
    <linearGradient
       id="linearGradient6207"
       x1="7.6350002"
       x2="8.7609997"
       y1="5.7037001"
       y2="14.001"
       gradientUnits="userSpaceOnUse"
       gradientTransform="matrix(4.3479357,0,0,4.3479357,436.80937,445.11776)">
      <stop
         stop-color="#2e3440"
         offset="0"
         id="stop433" />
      <stop
         stop-color="#4c566a"
         offset="1"
         id="stop435" />
    </linearGradient>
    <linearGradient
       id="c-3"
       gradientUnits="userSpaceOnUse"
       x2="0"
       xlink:href="#linearGradient1641"
       y1="8"
       y2="2"
       gradientTransform="matrix(1.5714286,0,0,1.5714286,391.42858,522.21129)" />
    <linearGradient
       id="b-6"
       gradientUnits="userSpaceOnUse"
       x2="0"
       y1="30"
       y2="8">
      <stop
         offset="0"
         stop-color="#cea476"
         id="stop164" />
      <stop
         offset="1"
         stop-color="#dab58b"
         id="stop166" />
    </linearGradient>
    <linearGradient
       id="d-7"
       gradientUnits="userSpaceOnUse"
       x2="0"
       xlink:href="#linearGradient1641"
       y1="30"
       y2="8"
       gradientTransform="matrix(1.5714286,0,0,1.5714286,391.42858,522.21129)" />
    <linearGradient
       id="linearGradient331"
       gradientUnits="userSpaceOnUse"
       x2="0"
       y1="30"
       y2="8">
      <stop
         offset="0"
         stop-color="#cea476"
         id="stop327" />
      <stop
         offset="1"
         stop-color="#dab58b"
         id="stop329" />
    </linearGradient>
    <linearGradient
       id="e-5"
       gradientUnits="userSpaceOnUse"
       x1="16"
       x2="16"
       xlink:href="#linearGradient22063-0"
       y1="8"
       y2="2" />
    <linearGradient
       id="a-3"
       gradientTransform="matrix(0.66667,0,0,0.66667,-256.38,-333.867)"
       gradientUnits="userSpaceOnUse"
       x2="0"
       y1="512.79999"
       y2="503.79999">
      <stop
         offset="0"
         stop-color="#ebc69a"
         id="stop172" />
      <stop
         offset="1"
         stop-color="#f4e0c8"
         stop-opacity="0"
         id="stop174" />
    </linearGradient>
    <linearGradient
       id="f-5"
       gradientUnits="userSpaceOnUse"
       x1="16"
       x2="16.000002"
       xlink:href="#linearGradient22063-0"
       y1="11"
       y2="8.000001" />
    <linearGradient
       id="linearGradient342"
       gradientTransform="matrix(0.66667,0,0,0.66667,-256.38,-333.867)"
       gradientUnits="userSpaceOnUse"
       x2="0"
       y1="512.79999"
       y2="503.79999">
      <stop
         offset="0"
         stop-color="#ebc69a"
         id="stop338" />
      <stop
         offset="1"
         stop-color="#f4e0c8"
         stop-opacity="0"
         id="stop340" />
    </linearGradient>
    <linearGradient
       inkscape:collect="always"
       xlink:href="#linearGradient1037"
       id="linearGradient1039"
       x1="416.57144"
       y1="569.35413"
       x2="413.42856"
       y2="534.78271"
       gradientUnits="userSpaceOnUse" />
    <linearGradient
       inkscape:collect="always"
       xlink:href="#linearGradient1037"
       id="linearGradient1637"
       x1="413.42856"
       y1="534.78271"
       x2="413.42856"
       y2="525.35413"
       gradientUnits="userSpaceOnUse" />
    <linearGradient
       inkscape:collect="always"
       xlink:href="#linearGradient22063-0"
       id="linearGradient1646"
       x1="12.904835"
       y1="8.000001"
       x2="12.588023"
       y2="2.0000017"
       gradientUnits="userSpaceOnUse" />
    <linearGradient
       inkscape:collect="always"
       xlink:href="#linearGradient22063-0"
       id="linearGradient1654"
       x1="16"
       y1="11"
       x2="16.000002"
       y2="8.000001"
       gradientUnits="userSpaceOnUse" />
    <linearGradient
       id="g"
       gradientUnits="userSpaceOnUse"
       x1="34"
       x2="48"
       y1="16"
       y2="30"
       gradientTransform="matrix(1.7428574,0,0,1.7428574,386.08571,515.12533)">
      <stop
         offset="0"
         stop-color="#292c2f"
         id="stop196" />
      <stop
         offset="1"
         stop-opacity="0"
         id="stop198" />
    </linearGradient>
    <linearGradient
       id="h"
       gradientUnits="userSpaceOnUse"
       x1="30"
       x2="30"
       xlink:href="#a-36"
       y1="30"
       y2="8"
       gradientTransform="matrix(1.7428574,0,0,1.7428574,386.08571,515.12533)" />
    <linearGradient
       id="a-36"
       gradientUnits="userSpaceOnUse"
       x2="0"
       y1="30"
       y2="8">
      <stop
         offset="0"
         stop-color="#cfd2d5"
         id="stop222" />
      <stop
         offset="1"
         stop-color="#eff0f1"
         id="stop224" />
    </linearGradient>
    <linearGradient
       id="m"
       x1="18"
       x2="30"
       y1="18"
       y2="30"
       gradientUnits="userSpaceOnUse"
       gradientTransform="matrix(1.9142778,0,0,1.9142778,382.5431,511.58296)">
      <stop
         stop-color="#292c2f"
         offset="0"
         id="stop205" />
      <stop
         stop-opacity="0"
         offset="1"
         id="stop207" />
    </linearGradient>
    <linearGradient
       id="l"
       x1="22"
       x2="22"
       y1="30"
       y2="8"
       gradientTransform="matrix(0,-1.9142778,-1.9142778,0,466.7713,595.81119)"
       gradientUnits="userSpaceOnUse"
       xlink:href="#k" />
    <linearGradient
       id="k"
       x2="0"
       y1="30"
       y2="8"
       gradientUnits="userSpaceOnUse">
      <stop
         stop-color="#cfd2d5"
         offset="0"
         id="stop231" />
      <stop
         stop-color="#eff0f1"
         offset="1"
         id="stop233" />
    </linearGradient>
  </defs>
  <metadata
     id="metadata5458" />
  <g
     inkscape:label="Capa 1"
     inkscape:groupmode="layer"
     id="layer1"
     transform="translate(-384.57143,-515.798)">
    <path
       d="m 387.57143,526.048 c 0,-4.00417 3.24594,-7.25 7.25,-7.25 h 43.5 c 4.00418,0 7.25,3.24583 7.25,7.25 v 43.5 c 0,4.00417 -3.24582,7.25 -7.25,7.25 h -43.5 c -4.00406,0 -7.25,-3.24583 -7.25,-7.25 z"
       id="path736-7"
       style="fill:#606c86;fill-opacity:1;stroke-width:3.625" />
    <path
       d="m 387.57143,525.59488 c 0,-3.75369 3.24594,-6.79688 7.25,-6.79688 h 43.5 c 4.00418,0 7.25,3.04319 7.25,6.79688 v 40.78124 c 0,3.7537 -3.24582,6.79688 -7.25,6.79688 h -43.5 c -4.00406,0 -7.25,-3.04318 -7.25,-6.79688 z"
       id="path738-9"
       style="fill:url(#linearGradient22065-6);fill-opacity:1;stroke-width:3.625" />
    <path
       d="m 400.85714,525.35413 -6.28571,9.42857 h 44 l -6.28571,-9.42857 h -29.85715 z"
       fill-rule="evenodd"
       id="path177"
       style="fill:url(#linearGradient1637);stroke-width:1.57143;fill-opacity:1.0" />
    <path
       d="m 394.57143,534.7827 h 44 v 34.57143 h -44 z"
       id="path179"
       style="fill:url(#linearGradient1039);stroke-width:1.57143;fill-opacity:1" />
    <path
       d="m 396.14286,559.92556 v 7.85714 H 404 v -7.85714 z m 1.57143,1.57143 h 1.57143 v 1.57143 h 1.57142 v -1.57143 h 1.57143 v 3.14285 h -1.57143 v 1.57143 h -1.57142 v -1.57143 h -1.57143 z"
       id="path181"
       style="stroke-width:1.57143;fill:#5faac0;fill-opacity:1" />
    <g
       stroke-opacity="0.55"
       stroke-width="1.867"
       id="g189"
       transform="matrix(1.5714286,0,0,1.5714286,391.42857,522.21127)"
       style="fill:#000000;fill-opacity:1">
      <path
         d="m 14,2 v 9 l 1,-1 1,1 1,-1 c 0,0 1,1 1,0.972 V 2 Z"
         id="path183"
         style="fill:#000000;fill-opacity:1" />
      <path
         d="m 14,2 h 4 v 6 h -4 z"
         id="path185"
         style="fill:url(#linearGradient1646);fill-opacity:1" />
      <path
         d="m 14,8 v 3 l 1,-1 1,1 1,-1 c 0,0 1,1 1,0.973 V 8 Z"
         id="path187"
         style="fill:url(#linearGradient1654);fill-opacity:1" />
    </g>
    <path
       d="m 394.57143,567.7827 h 44 v 1.57143 h -44 z"
       opacity="0.2"
       id="path191"
       style="stroke-width:1.57143" />
    <path
       d="m 418.85495,543.82699 21.11643,21.11618 v -12.17472 l -7.19204,-7.19388 -8.1222,-3.36337 z m -4.06774,4.06784 21.11618,21.11632 h -12.1748 l -7.19376,-7.19198 -3.3634,-8.12218 z"
       fill="url(#m)"
       opacity="0.2"
       id="path254"
       style="fill:url(#m);stroke-width:1.91428" />
    <path
       d="m 436.14274,553.69699 a 11.409096,11.409096 0 0 1 -1.61558,5.8022 l -5.14377,-5.14382 1.3744,-1.37618 3.11084,3.11063 c 0.0996,-0.37338 0.1876,-0.74667 0.23916,-1.13717 0.008,-0.0999 0.0515,-0.19705 0.0613,-0.29845 0.0322,-0.3216 0.059,-0.62614 0.059,-0.9572 a 9.5713885,9.5713885 0 0 0 -9.5714,-9.57154 c -0.46514,0 -0.93039,0.0536 -1.37633,0.12091 -0.26051,0.0387 -0.52467,0.059 -0.7772,0.11891 a 9.0679331,9.0679331 0 0 0 -1.55647,0.53779 c -0.0559,0.0268 -0.12075,0.0335 -0.17838,0.0605 -0.17675,0.0781 -0.31398,0.20692 -0.4787,0.29882 -0.008,0.004 -0.0444,-0.005 -0.0613,0 l -1.37432,-1.4356 a 11.409096,11.409096 0 0 1 5.80216,-1.61579 11.485665,11.485665 0 0 1 11.48561,11.48571 z m -5.68341,9.87 a 11.409096,11.409096 0 0 1 -5.80219,1.61558 11.485665,11.485665 0 0 1 -11.48571,-11.48558 11.409096,11.409096 0 0 1 1.61578,-5.80216 l 1.4356,1.43556 3.64862,3.70796 -1.31702,1.31702 -3.1106,-3.05118 c -0.0961,0.37316 -0.18584,0.74638 -0.2394,1.13696 -0.007,0.10025 -0.0484,0.19724 -0.0563,0.29868 -0.0343,0.3216 -0.0611,0.62592 -0.0611,0.95716 0,0.33106 0.0268,0.6356 0.0586,0.9572 0.0322,0.3216 0.0567,0.64503 0.1206,0.95696 a 9.6039307,9.6039307 0 0 0 9.39146,7.65714 c 0.47478,0 0.91889,-0.0536 1.37629,-0.12094 0.26041,-0.0376 0.52461,-0.0587 0.77719,-0.11832 0.5494,-0.12838 1.04912,-0.31958 1.5564,-0.53788 0.0567,-0.0258 0.12091,-0.0344 0.17846,-0.0612 0.17195,-0.0778 0.31583,-0.20669 0.47853,-0.29857 h 0.0616 z"
       fill="url(#l)"
       id="path256"
       style="fill:url(#l);stroke-width:1.91428" />
  </g>
</svg>
