<?xml version="1.0" encoding="UTF-8" standalone="no"?>
<!-- Created with Inkscape (http://www.inkscape.org/) -->

<svg
   width="64"
   version="1.1"
   height="64"
   id="svg20"
   sodipodi:docname="preferences-plugin.svg"
   inkscape:version="1.2.1 (9c6d41e410, 2022-07-14)"
   xmlns:inkscape="http://www.inkscape.org/namespaces/inkscape"
   xmlns:sodipodi="http://sodipodi.sourceforge.net/DTD/sodipodi-0.dtd"
   xmlns="http://www.w3.org/2000/svg"
   xmlns:svg="http://www.w3.org/2000/svg">
  <sodipodi:namedview
     id="namedview22"
     pagecolor="#ffffff"
     bordercolor="#666666"
     borderopacity="1.0"
     inkscape:showpageshadow="2"
     inkscape:pageopacity="0.0"
     inkscape:pagecheckerboard="0"
     inkscape:deskcolor="#d1d1d1"
     showgrid="false"
     inkscape:zoom="7.375"
     inkscape:cx="16.20339"
     inkscape:cy="16.20339"
     inkscape:window-width="1920"
     inkscape:window-height="1002"
     inkscape:window-x="0"
     inkscape:window-y="0"
     inkscape:window-maximized="1"
     inkscape:current-layer="layer1" />
  <defs
     id="defs5455">
    <linearGradient
       id="c-3"
       gradientUnits="userSpaceOnUse"
       x1="5"
       x2="5"
       y1="20"
       y2="7"
       gradientTransform="matrix(3.4390082,0,0,3.4390082,378.74233,511.78244)">
      <stop
         offset="0"
         stop-color="#999a9c"
         id="stop164" />
      <stop
         offset="1"
         stop-color="#f4f5f5"
         id="stop166" />
    </linearGradient>
    <linearGradient
       id="a"
       gradientUnits="userSpaceOnUse"
       x1="-2.75001"
       x2="12.874999"
       y1="18.874969"
       y2="6.9999781"
       gradientTransform="matrix(2.5,0,0,2.5,388.98036,519.49801)">
      <stop
         offset="0"
         stop-color="#197cf1"
         id="stop2672" />
      <stop
         offset="1"
         stop-color="#21c9fb"
         id="stop2674" />
    </linearGradient>
    <linearGradient
       id="b"
       gradientUnits="userSpaceOnUse"
       x1="24.749971"
       x2="12.249979"
       y1="18.249971"
       y2="-4.2499962"
       gradientTransform="matrix(2.5,0,0,2.5,388.98036,519.49801)">
      <stop
         offset="0"
         stop-color="#c6cdd1"
         id="stop2677" />
      <stop
         offset="1"
         stop-color="#e0e5e7"
         id="stop2679" />
    </linearGradient>
    <linearGradient
       id="c"
       gradientTransform="matrix(2.4999985,0,0,1.4999991,377.29287,505.43555)"
       gradientUnits="userSpaceOnUse"
       x1="9"
       x2="3.7460971"
       y1="34"
       y2="22.724428">
      <stop
         offset="0"
         stop-color="#7cbaf8"
         id="stop2682" />
      <stop
         offset="1"
         stop-color="#f4fcff"
         id="stop2684" />
    </linearGradient>
  </defs>
  <metadata
     id="metadata5458" />
  <g
     inkscape:label="Capa 1"
     inkscape:groupmode="layer"
     id="layer1"
     transform="translate(-384.57143,-515.798)">
    <path
       d="m 387.57143,526.048 c 0,-4.00417 3.24594,-7.25 7.25,-7.25 h 43.5 c 4.00417,0 7.25,3.24583 7.25,7.25 v 43.5 c 0,4.00417 -3.24583,7.25 -7.25,7.25 h -43.5 c -4.00406,0 -7.25,-3.24583 -7.25,-7.25 z"
       id="path736"
       style="fill:#606c86;fill-opacity:1;stroke-width:3.625" />
    <path
       d="m 387.57143,525.59487 c 0,-3.75368 3.24594,-6.79687 7.25,-6.79687 h 43.5 c 4.00418,0 7.25,3.04319 7.25,6.79687 v 40.78125 c 0,3.7537 -3.24583,6.79688 -7.25,6.79688 h -43.5 c -4.00406,0 -7.25,-3.04318 -7.25,-6.79688 z"
       id="path738"
       style="fill:#3b4252;fill-opacity:1;stroke-width:3.625" />
    <path
       d="m 391.48036,524.498 v 45 h 20 v -16.25 l 8.75,-8.75 -8.75,-8.75 v -11.25 z"
       fill="url(#a)"
       fill-rule="evenodd"
       stroke-width="1.5625"
       id="path2687"
       style="fill:url(#a)" />
    <path
       d="M 441.48028,566.68547 H 421.48036 V 553.248 l 8.75,-8.75 -8.75,-8.75 v -11.25 h 19.99992 z"
       fill="url(#b)"
       fill-rule="evenodd"
       stroke-width="1.5625"
       id="path2689"
       style="fill:url(#b)" />
    <path
       d="m 393.98036,549.498 v 7.5 h 2.5 v -7.5 z m 5,0 v 2.5 h 2.5 v -2.5 z m 0,5 v 2.5 h 2.5 v -2.5 z"
       fill="url(#c)"
       stroke-linejoin="round"
       stroke-width="0.968245"
       id="path2691"
       style="fill:url(#c)" />
    <g
       fill-rule="evenodd"
       stroke-width="0.625"
       id="g2699"
       transform="matrix(2.5,0,0,2.5,388.98036,519.498)">
      <path
         d="M 7,3 V 5 H 9 V 3 Z m 5.5,7 -3.5,3.5 v 1 L 12.5,11 Z M 7,15 v 2 h 2 v -2 z m -6,3 v 1 h 8 v -1 z"
         fill="#2980b9"
         id="path2693" />
      <path
         d="m 13,7.5 v 1 L 15.5,11 16,10.5 Z M 12.5,11 9,14.5 v 1 L 12.5,12 Z M 1,19 v 1 h 8 v -1 z m 12,0 v 1 h 8 v -1 z"
         fill="#289769"
         id="path2695" />
      <path
         d="m 13,6.5 v 1 l 3,3 0.5,-0.5 z M 13,18 v 1 h 8 v -1 z"
         fill="#99a1a7"
         id="path2697" />
    </g>
    <path
       d="m 421.48036,526.998 v 5 h 5 v -5 z m 12.5,2.5 v 2.5 h 5 v -2.5 z m 0,5 v 2.5 h 5 v -2.5 z m 0,5 v 2.5 h 5 v -2.5 z m -12.5,17.5 v 5 h 5 v -5 z"
       fill="#4c5154"
       stroke-linejoin="round"
       stroke-width="1.25001"
       id="path2701" />
  </g>
</svg>
