<?xml version="1.0" encoding="UTF-8" standalone="no"?>
<!-- Created with Inkscape (http://www.inkscape.org/) -->

<svg
   width="64"
   version="1.1"
   height="64"
   id="svg20"
   sodipodi:docname="preferences-security.svg"
   inkscape:version="1.2.1 (9c6d41e410, 2022-07-14)"
   xmlns:inkscape="http://www.inkscape.org/namespaces/inkscape"
   xmlns:sodipodi="http://sodipodi.sourceforge.net/DTD/sodipodi-0.dtd"
   xmlns="http://www.w3.org/2000/svg"
   xmlns:svg="http://www.w3.org/2000/svg">
  <sodipodi:namedview
     id="namedview22"
     pagecolor="#ffffff"
     bordercolor="#666666"
     borderopacity="1.0"
     inkscape:showpageshadow="2"
     inkscape:pageopacity="0.0"
     inkscape:pagecheckerboard="0"
     inkscape:deskcolor="#d1d1d1"
     showgrid="false"
     inkscape:zoom="7.375"
     inkscape:cx="16.20339"
     inkscape:cy="16.20339"
     inkscape:window-width="1920"
     inkscape:window-height="1002"
     inkscape:window-x="0"
     inkscape:window-y="0"
     inkscape:window-maximized="1"
     inkscape:current-layer="layer1" />
  <defs
     id="defs5455">
    <linearGradient
       id="c-3"
       gradientUnits="userSpaceOnUse"
       x1="5"
       x2="5"
       y1="20"
       y2="7"
       gradientTransform="matrix(3.4390082,0,0,3.4390082,378.74233,511.78244)">
      <stop
         offset="0"
         stop-color="#999a9c"
         id="stop164" />
      <stop
         offset="1"
         stop-color="#f4f5f5"
         id="stop166" />
    </linearGradient>
    <linearGradient
       id="b"
       gradientTransform="matrix(1.710655,0,0,1.6071429,389.20096,521.34718)"
       gradientUnits="userSpaceOnUse"
       x1="16"
       x2="16"
       y1="30"
       y2="2">
      <stop
         offset="0"
         stop-color="#197cf1"
         id="stop2168" />
      <stop
         offset="1"
         stop-color="#20bcfa"
         id="stop2170" />
    </linearGradient>
    <linearGradient
       id="c"
       gradientUnits="userSpaceOnUse"
       x1="9.7101107"
       x2="16.78154"
       y1="7.142858"
       y2="14.214287"
       gradientTransform="matrix(2.5,0,0,2.5,389.07143,519.56146)">
      <stop
         offset="0"
         stop-color="#292c2f"
         id="stop2173" />
      <stop
         offset="1"
         stop-opacity="0"
         id="stop2175" />
    </linearGradient>
    <linearGradient
       id="a"
       gradientUnits="userSpaceOnUse"
       x1="8"
       x2="8"
       y1="14"
       y2="6"
       gradientTransform="matrix(2.5,0,0,2.5,389.07143,519.56146)">
      <stop
         offset="0"
         stop-color="#7cbaf8"
         id="stop2163" />
      <stop
         offset="1"
         stop-color="#f4fcff"
         id="stop2165" />
    </linearGradient>
  </defs>
  <metadata
     id="metadata5458" />
  <g
     inkscape:label="Capa 1"
     inkscape:groupmode="layer"
     id="layer1"
     transform="translate(-384.57143,-515.798)">
    <path
       d="m 387.57143,526.048 c 0,-4.00417 3.24594,-7.25 7.25,-7.25 h 43.5 c 4.00417,0 7.25,3.24583 7.25,7.25 v 43.5 c 0,4.00417 -3.24583,7.25 -7.25,7.25 h -43.5 c -4.00406,0 -7.25,-3.24583 -7.25,-7.25 z"
       id="path736"
       style="fill:#606c86;fill-opacity:1;stroke-width:3.625" />
    <path
       d="m 387.57143,525.59487 c 0,-3.75368 3.24594,-6.79687 7.25,-6.79687 h 43.5 c 4.00418,0 7.25,3.04319 7.25,6.79687 v 40.78125 c 0,3.7537 -3.24583,6.79688 -7.25,6.79688 h -43.5 c -4.00406,0 -7.25,-3.04318 -7.25,-6.79688 z"
       id="path738"
       style="fill:#3b4252;fill-opacity:1;stroke-width:3.625" />
    <path
       d="m 416.57143,524.56146 c -7.5,5 -10,5 -17.5,5 v 21.82617 c 0,6.05893 9.45307,14.33435 17.5,18.17383 8.04692,-3.83948 17.5,-12.1149 17.5,-18.17383 v -21.82617 c -7.5,0 -10,0 -17.5,-5 z"
       fill="url(#b)"
       stroke-width="1.65809"
       id="path2178"
       style="fill:url(#b)" />
    <path
       d="m 419.07143,535.05951 -5,2.00195 -2.5,7.5 h -2.5 v 10 l 13.91602,15 h 11.08398 v -19.50195 z"
       fill="url(#c)"
       opacity="0.2"
       stroke-width="1.60714"
       id="path2180"
       style="fill:url(#c)" />
    <path
       d="m 416.57143,534.56146 a 5,5 0 0 0 -5,5 v 5 h -2.5 v 10 h 15 v -10 h -2.5 v -5 a 5,5 0 0 0 -5,-5 z m 0,2.5 a 2.5,2.5 0 0 1 2.5,2.5 v 5 h -5 v -5 a 2.5,2.5 0 0 1 2.5,-2.5 z"
       fill="url(#a)"
       id="path2182"
       style="fill:url(#a);stroke-width:2.5" />
    <path
       d="m 399.07143,548.88763 v 2.5 c 0,6.05893 9.45307,14.33435 17.5,18.17383 8.04692,-3.83948 17.5,-12.1149 17.5,-18.17383 v -2.5 c 0,6.05893 -9.45308,14.33435 -17.5,18.17383 -8.04693,-3.83948 -17.5,-12.1149 -17.5,-18.17383 z"
       fill="#282d2d"
       fill-opacity="0.2"
       stroke-width="1.65809"
       id="path2184" />
  </g>
</svg>
