<?xml version="1.0" encoding="UTF-8" standalone="no"?>
<svg
   viewBox="0 0 64 64"
   version="1.1"
   id="svg12"
   sodipodi:docname="plasma-browser-integration.svg"
   width="64"
   height="64"
   inkscape:version="1.2.1 (9c6d41e410, 2022-07-14)"
   xmlns:inkscape="http://www.inkscape.org/namespaces/inkscape"
   xmlns:sodipodi="http://sodipodi.sourceforge.net/DTD/sodipodi-0.dtd"
   xmlns:xlink="http://www.w3.org/1999/xlink"
   xmlns="http://www.w3.org/2000/svg"
   xmlns:svg="http://www.w3.org/2000/svg">
  <sodipodi:namedview
     id="namedview14"
     pagecolor="#ffffff"
     bordercolor="#666666"
     borderopacity="1.0"
     inkscape:showpageshadow="2"
     inkscape:pageopacity="0.0"
     inkscape:pagecheckerboard="0"
     inkscape:deskcolor="#d1d1d1"
     showgrid="false"
     inkscape:zoom="3.7926636"
     inkscape:cx="5.2733387"
     inkscape:cy="23.598191"
     inkscape:window-width="1920"
     inkscape:window-height="1008"
     inkscape:window-x="0"
     inkscape:window-y="0"
     inkscape:window-maximized="1"
     inkscape:current-layer="svg12" />
  <defs
     id="defs3051">
    <style
       type="text/css"
       id="current-color-scheme">
      .ColorScheme-Text {
        color:#eff0f1;
      }
      </style>
    <linearGradient
       inkscape:collect="always"
       xlink:href="#linearGradient22063"
       id="linearGradient22065"
       x1="-14"
       y1="6"
       x2="-14"
       y2="-9.999999"
       gradientUnits="userSpaceOnUse"
       gradientTransform="matrix(3.6250002,0,0,3.6250002,82.750002,39.249999)" />
    <linearGradient
       inkscape:collect="always"
       id="linearGradient22063">
      <stop
         style="stop-color:#292f3a;stop-opacity:1;"
         offset="0"
         id="stop22059" />
      <stop
         style="stop-color:#535e75;stop-opacity:1;"
         offset="1"
         id="stop22061" />
    </linearGradient>
  </defs>
  <path
     d="m 2.9999975,10.25 c 0,-4.004175 3.245938,-7.25 7.2499995,-7.25 h 43.500005 c 4.004171,0 7.25,3.245825 7.25,7.25 v 43.5 c 0,4.004173 -3.245829,7.25 -7.25,7.25 H 10.249997 C 6.2459355,61 2.9999975,57.754173 2.9999975,53.75 Z"
     id="path736"
     style="fill:#606c86;fill-opacity:1;stroke-width:3.625" />
  <path
     d="M 2.9999975,9.796875 C 2.9999975,6.043188 6.2459355,3 10.249997,3 h 43.500005 c 4.004171,0 7.25,3.043188 7.25,6.796875 v 40.781249 c 0,3.753693 -3.245829,6.796876 -7.25,6.796876 H 10.249997 c -4.0040615,0 -7.2499995,-3.043183 -7.2499995,-6.796876 z"
     id="path738"
     style="fill:url(#linearGradient22065);fill-opacity:1;stroke-width:3.625" />
  <path
     style="color:#eff0f1;fill:currentColor;fill-opacity:1;stroke:none;stroke-width:2.47059"
     d="M 22.352948,27.294119 C 15.530613,27.294119 10,32.824706 10,39.647059 10,46.469403 15.530613,52 22.352948,52 c 6.822358,0 12.352933,-5.530597 12.352933,-12.352941 0,-6.822353 -5.530575,-12.35294 -12.352933,-12.35294 z m 4.955647,3.860286 c 0.0068,0.119401 -0.09958,0.112709 -0.1302,0.193028 0.01736,0.05143 0.122046,0.0685 0.1302,0.130272 -0.0097,0.0659 -0.154898,0.05752 -0.1302,0.125464 0.11118,0.08649 0.2184,0.02049 0.323309,0 0.230497,-0.02885 0.436987,-0.008 0.57903,-0.125464 0.836557,-0.382612 0,0.109378 0,0.19298 -0.04713,0.03293 -0.143543,0.193028 -0.192959,0.193028 -0.05973,0 -0.149709,-0.07991 -0.192954,-0.0676 -0.06179,0.02049 -0.06058,0.105567 -0.1302,0.130275 -0.135876,0.04943 -0.401413,-0.07353 -0.448746,0.130271 0.05759,0.117357 0.283102,0.05958 0.386016,0.125463 0.06394,0.0412 0.176657,0.190554 0.19296,0.260566 0.01733,0.05765 0.02463,0.324268 0,0.386031 -0.0637,0.164711 -0.26418,0.127503 -0.453576,0.125452 h -0.125502 c -0.319076,-0.0205 -0.627949,-0.160988 -0.772062,0.06759 0.0097,0.174984 0.03926,0.296404 0,0.448755 -0.0287,0.111173 -0.199125,0.22737 -0.19296,0.323298 0.003,0.04943 0.11316,0.123011 0.125514,0.193029 0.0067,0.03708 -0.01737,0.09047 0,0.125453 0.05367,0.10088 0.165779,-0.02049 0.260549,0 0.09071,0.02045 0.192954,0.159276 0.192954,0.260572 0,0.07207 -0.02221,0.18596 -0.0675,0.255746 -0.09071,0.135883 -0.256346,0.11891 -0.386029,0.193023 -0.10698,0.06178 -0.129211,0.217068 -0.192954,0.323297 -0.06797,0.115308 -0.152194,0.153578 -0.125503,0.31848 -0.09267,0.183238 -0.194691,0.297498 -0.386028,0.386029 -0.05557,0.02468 -0.141569,0.03047 -0.192963,0.0676 -0.0413,0.02884 -0.07262,0.127133 -0.1302,0.19303 -0.07208,0.08031 -0.153909,0.131257 -0.192949,0.193022 -0.02886,0.04737 -0.03186,0.127139 -0.0627,0.193028 -0.04526,0.08649 -0.135385,0.106139 -0.192953,0.193029 -0.0267,0.0412 -0.03873,0.13949 -0.0675,0.193027 -0.06599,0.11941 -0.137861,0.21349 -0.125519,0.318475 0.0098,0.09885 0.119341,0.102429 0.125519,0.193029 0.0053,0.04943 -0.06474,0.07469 -0.0627,0.130272 0.003,0.07825 0.05658,0.131239 0.0627,0.193029 0.01475,0.152361 -0.0966,0.219123 -0.125519,0.3233 -0.01473,0.04943 0.0123,0.08434 0,0.125455 -0.02466,0.07618 -0.12822,0.169553 -0.1302,0.260566 -0.003,0.0638 0.124273,0.102435 0.1302,0.193029 0.0053,0.05966 -0.0798,0.135366 -0.0675,0.193027 0.02221,0.111179 0.236924,0.232013 0.323308,0.318475 0.117344,0.117359 0.271832,0.199777 0.323292,0.323293 0.04321,0.105 0.04527,0.307594 0.125503,0.386034 0.05977,0.05766 0.184309,0.0685 0.260585,0.130276 0.07211,0.05555 0.116852,0.06368 0.192944,0.12545 0.125508,0.09882 0.311788,0.337712 0.511488,0.323303 0.105,-0.02048 0.20604,-0.109687 0.323308,-0.130267 0.121544,-0.02049 0.262517,-0.073 0.386019,-0.06269 0.09463,0.02049 0.224573,0.06889 0.323297,0.06269 0.103031,-0.02049 0.201109,-0.01138 0.318491,-0.06269 0.203827,-0.08856 0.543187,-0.235647 0.839605,-0.193024 0.226553,0.03295 0.227548,0.285152 0.386023,0.386025 0.181102,0.02049 0.304677,-0.03501 0.448757,0 0.1092,0.02673 0.245585,0.1701 0.25576,0.255745 0.0097,0.08856 -0.113157,0.204564 -0.125507,0.260567 -0.02873,0.119406 0.01979,0.242286 0,0.318478 -0.01736,0.0597 -0.06963,0.133313 -0.0675,0.193023 0,0.05357 0.07467,0.190162 0.1302,0.260573 0.06787,0.08648 0.173442,0.162684 0.255737,0.255745 0.150208,0.172936 0.2184,0.350517 0.323298,0.579039 0.0267,0.05766 -0.02465,0.118883 0,0.193037 -0.04526,0.34568 -0.1596,0.582329 -0.38603,0.965067 -0.106975,0.123526 -0.25781,0.231817 -0.25573,0.386026 -0.0067,0.370594 0.209504,0.606842 0.192952,0.96508 -0.03703,0.481561 0.03709,0.514912 0,0.772054 0.162568,0.08237 0.0474,0.345224 0,0.516319 -0.821463,2.843304 -8.160822,4.00364 -10.683372,2.37886 0.03703,-0.04942 0.247162,-0.04837 0.323308,-0.06269 0.1092,-0.02047 0.261554,-0.03872 0.323294,-0.06759 0.06797,-0.04322 0.137866,-0.191651 0.125509,-0.318485 -0.0053,-0.05971 -0.07832,-0.0768 -0.125509,-0.130273 -0.039,-0.04529 0.02668,-0.08705 0,-0.130277 -0.04947,-0.07207 -0.172447,-0.08797 -0.192954,-0.193023 0.148238,-0.02882 0.364958,0.12726 0.57904,0.0676 0.1008,-0.02884 0.271117,-0.228379 0.318478,-0.323296 0.01483,-0.02883 -0.01734,-0.09318 0,-0.130278 0.01979,-0.03705 0.06129,-0.10487 0.0675,-0.12545 0.01477,-0.05555 -0.0123,-0.03048 0,-0.06759 0.03703,-0.105 0.131178,-0.18102 0.192941,-0.255742 0.04741,-0.05766 0.14972,-0.133318 0.192963,-0.193028 0.04947,-0.0638 0.02994,-0.07262 0.06271,-0.130278 0.0309,-0.187348 -0.107966,-0.346986 -0.06271,-0.511488 0.04947,-0.185297 0.332391,-0.301618 0.511485,-0.38603 0.06179,-0.02882 0.141567,-0.04902 0.192957,-0.06759 0.123529,-0.04322 0.27075,-0.08431 0.386029,-0.125458 0.193447,-0.06999 0.228525,-0.209186 0.3233,-0.386031 0.04524,-0.08237 0.122055,-0.20024 0.1302,-0.260572 0.0067,-0.05355 -0.0098,-0.06165 0,-0.125452 0.0098,-0.05971 -0.01735,-0.12301 0,-0.193025 0.02221,-0.08861 0.0627,-0.287467 0.0627,-0.386086 0,-0.08236 -0.06084,-0.118907 -0.0627,-0.193024 -0.01478,-0.267646 0.09408,-0.239841 0.192947,-0.386029 0.04947,-0.07206 0.09071,-0.20889 0.125513,-0.260572 0.16676,-0.247053 0.47418,-0.329793 0.45357,-0.704507 -0.0067,-0.123519 -0.102521,-0.414458 -0.192949,-0.453583 -0.0516,-0.02272 -0.116861,-0.03597 -0.192956,-0.06269 -0.242849,-0.09063 -0.456115,-0.365438 -0.709327,-0.386027 h -0.1302 c -0.09881,0 -0.207279,-0.04841 -0.31848,-0.06269 -0.0699,-0.02047 -0.219383,0.02047 -0.260571,0 -0.06394,-0.03089 -0.07411,-0.158024 -0.125508,-0.193027 -0.04123,-0.02881 -0.129211,-0.04493 -0.192951,-0.06759 -0.1008,-0.03708 -0.143298,-0.117231 -0.260576,-0.125459 -0.03701,0 -0.0843,0.02049 -0.125509,0 -0.0637,-0.02048 -0.133411,-0.03047 -0.192947,-0.06759 -0.07412,-0.04532 -0.162073,-0.06165 -0.192963,-0.125461 0.068,-0.222155 -0.147736,-0.256319 -0.19294,-0.38603 -0.0198,-0.05967 0.01979,-0.207032 0,-0.260569 -0.0267,-0.07617 -0.10871,-0.129186 -0.192961,-0.193026 -0.148235,-0.115301 -0.241625,-0.166469 -0.4536,-0.193023 -0.09466,-0.02045 -0.205302,0.02047 -0.318462,0 -0.119327,-0.02045 -0.295456,-0.09011 -0.386027,-0.193027 -0.0865,-0.10085 -0.11685,-0.20815 -0.192947,-0.255718 -0.07217,-0.04528 -0.143543,-0.08294 -0.192963,-0.130268 -0.0222,-0.02049 -0.04697,-0.01533 -0.0675,-0.06269 -0.0371,-0.07619 -0.107965,-0.100378 -0.0627,-0.19303 -0.08223,-0.0412 -0.0417,0.07713 -0.1302,0.06269 -0.08034,-0.113229 -0.137363,-0.22596 -0.31848,-0.193029 -0.08229,0.02049 -0.1638,0.190957 -0.26057,0.193029 -0.08036,0 -0.150709,-0.17655 -0.255727,-0.193029 -0.08033,-0.02045 -0.200126,0.07784 -0.255762,0.0676 -0.08848,-0.02047 -0.112657,-0.07674 -0.192951,-0.130272 -0.05977,-0.0391 -0.160096,-0.132347 -0.19295,-0.130266 -0.103023,0 -0.181346,0.205225 -0.323306,0.130266 -0.06993,-0.08856 0.145025,-0.110659 0.0627,-0.193026 -0.06178,-0.05972 -0.07613,0.03394 -0.125509,0.06269 -0.05759,0.03704 -0.129216,0.04493 -0.192955,0.06759 -0.142061,0.05355 -0.27487,0.06576 -0.386026,0.125453 -0.103015,0.05354 -0.13341,0.0874 -0.192952,0.193032 -0.04714,0.08651 -0.121058,0.256452 -0.192953,0.260563 -0.08642,0 -0.114879,-0.0953 -0.192947,-0.130268 -0.236693,-0.102954 -0.38346,0.05857 -0.579042,0.06269 -0.181091,0 -0.461825,-0.277873 -0.4536,-0.448762 0.0053,-0.105 0.05515,-0.256327 0.0675,-0.386022 0.0098,-0.102961 0.123528,-0.229431 0.125499,-0.323304 0.003,-0.127658 -0.236176,-0.178407 -0.31848,-0.193029 -0.193441,-0.03501 -0.426316,0.08648 -0.646599,0 -0.0413,-0.06999 0.04293,-0.123016 0.0675,-0.193029 0.01481,-0.03705 -0.01475,-0.08223 0,-0.125456 0.02464,-0.0659 0.162077,-0.123013 0.192954,-0.193031 0.02222,-0.05355 -0.02221,-0.12505 0,-0.193023 0.0267,-0.07411 0.119336,-0.13949 0.125509,-0.193024 0.0067,-0.06999 -0.06992,-0.147723 -0.125509,-0.193023 -0.170964,0.02046 -0.287208,0.01332 -0.386025,0.06269 -0.222352,0.10087 -0.161583,0.37876 -0.386026,0.448756 -0.435449,-0.954417 0.51435,-1.568093 0.965077,-2.18589 0.16059,0.02272 0.239903,-0.02047 0.386033,0 0.09881,0.02049 0.240144,0.122049 0.318481,0.130271 0.06599,0 0.06841,-0.07583 0.1302,-0.06759 0.0618,0.02047 0.182819,0.118886 0.192959,0.193026 0.0098,0.09266 -0.08965,0.221188 -0.0627,0.323291 0.09685,0.09885 0.310823,0.135365 0.448763,0.193032 0.09071,-0.07618 0.01476,-0.216245 0,-0.323304 -0.003,-0.04734 0.0053,-0.149791 0,-0.193019 -0.0098,-0.07415 -0.0627,-0.129186 -0.0627,-0.193026 0,-0.294412 0.251125,-0.396409 0.448742,-0.5115 0.0843,-0.0494 0.18159,-0.15594 0.25576,-0.193018 0.105,-0.05145 0.174176,-0.01802 0.26057,-0.06759 0.15639,-0.08856 0.264557,-0.218206 0.386033,-0.318483 0.05556,-0.133826 -0.0053,-0.321815 0,-0.453582 0.05556,-0.03501 0.133416,0 0.192957,0 0.09464,-0.02047 0.139587,-0.139485 0.192947,-0.193019 0.0309,-0.03088 0.08848,-0.03185 0.125512,-0.06269 0.09464,-0.07413 0.110677,-0.16008 0.192959,-0.193027 0.02886,-0.02049 0.08495,-0.04832 0.1302,-0.06269 0.06179,-0.02047 0.156872,-0.03045 0.255715,-0.06759 0.06377,-0.02272 0.23595,-0.03597 0.260584,-0.06269 0.03089,-0.03089 -0.0068,-0.145667 0,-0.193029 0.04944,-0.232431 0.371126,-0.24486 0.579061,-0.323304 0.144025,-0.05354 0.288158,-0.221825 0.448742,-0.193016 -0.03088,0.111173 -0.15712,0.126536 -0.1302,0.260565 0.0351,0.187348 0.25744,-0.04081 0.323309,-0.06759 0.125507,-0.05356 0.351611,-0.131262 0.51633,-0.193037 0.144031,-0.05145 0.391584,-0.08976 0.255721,-0.255734 -0.113144,-0.02047 -0.156877,0.08906 -0.255721,0.13027 -0.06791,0.02047 -0.0726,-0.0614 -0.1302,-0.0676 -0.05554,0 -0.07466,0.07789 -0.1302,0.0676 -0.05554,-0.02048 -0.117112,-0.125059 -0.125512,-0.193032 -0.02222,-0.172942 0.12304,-0.195864 0.192953,-0.323299 -0.04716,-0.156457 -0.254273,-0.0685 -0.386024,-0.130272 0.01482,-0.09267 0.084,-0.17242 0.192944,-0.193025 0.08848,-0.02048 0.332496,0.02025 0.386039,0.0676 0.03089,0.02676 -0.04714,0.08225 0,0.125453 0.05365,0.04737 0.123031,0.02047 0.192959,0 0.02465,-0.117351 -0.150959,-0.04929 -0.1302,-0.125453 0.140072,-0.09063 0.408151,-0.04492 0.579049,-0.0676 0.09886,-0.02048 0.234703,-0.07814 0.323273,-0.125456 0.08226,-0.04736 0.106483,-0.145789 0.192949,-0.06759 0.02464,0.08447 -0.01976,0.147714 -0.0675,0.193026 -0.158613,0.140012 -0.325256,0.291141 -0.44876,0.453576 0.07616,0.07411 0.195677,0.04837 0.323274,0.06269 0.04946,0.02048 0.141563,-0.01041 0.192953,0 0.06179,0.02048 0.14355,-0.0205 0.19296,0 0.08648,0.02048 0.106481,0.193018 0.192959,0.193018 0.140076,0 0.08035,-0.162683 0,-0.255745 0.02467,-0.09678 0.09782,-0.192203 0.0627,-0.260562 -0.06393,-0.127659 -0.310943,0.04131 -0.323293,-0.125461 -0.0067,-0.102947 0.09311,-0.114779 0.130205,-0.19302 -0.01733,-0.197655 0.15095,-0.206918 0.1302,-0.386032 -0.0098,-0.07411 -0.07883,-0.06028 -0.1302,-0.130281 -0.02668,-0.03707 -0.03188,-0.164192 -0.0627,-0.193016 -0.106973,-0.09063 -0.310913,-0.01978 -0.323297,-0.193034 -0.0053,-0.102952 0.0148,-0.21294 0,-0.323301 2.693957,-1.141285 5.450393,0.145269 6.885827,0.90249 z m -0.5163,-0.448757 c -0.0381,0.02048 -0.0294,0.04217 -0.0627,0.06269 -0.07834,0.04734 -0.133164,0.107649 -0.192949,0.130282 -0.0843,0.03089 -0.1806,0.04929 -0.192947,0.125456 -0.0098,0.0638 0.065,0.0706 0.0627,0.130266 -0.0309,0.07618 -0.0462,0.100378 -0.0627,0.19304 0.105,0.170884 0.319073,-0.036 0.448747,-0.06269 0.0576,-0.02049 0.09935,-0.01801 0.1302,-0.06759 0.0351,-0.05557 0.03606,-0.114359 0.0627,-0.193022 0.358086,-0.240069 -0.139088,-0.229718 -0.192954,-0.318457 z M 15.92074,32.375231 c 0.04948,0 0.06775,0.126172 0.125513,0.130272 0.05557,0 0.09731,-0.07094 0.1302,-0.06269 0.08646,0.02272 0.14502,0.19152 0.0627,0.255746 -0.0679,0.02049 -0.07613,-0.0709 -0.125501,-0.06269 -0.140086,0.02468 -0.2184,0.326714 -0.323303,0.318476 -0.09885,-0.02047 -0.163556,-0.246412 -0.0627,-0.318476 0.003,-0.06177 -0.0053,-0.06647 0,-0.130274 0.0309,-0.03706 0.110686,-0.136444 0.192953,-0.130293 z m 13.443461,0.386031 c 0.562674,0.193962 0.813645,0.861086 1.158114,1.225643 0.737451,-0.632671 0.576318,0.98236 0.709356,1.413823 -0.10896,0.02047 -0.235693,-0.0953 -0.386025,-0.13027 -0.06179,-0.02047 -0.143542,0.02049 -0.192952,0 -0.113159,-0.03708 -0.09635,-0.187194 -0.192959,-0.255745 -0.05557,-0.0391 -0.234702,-0.119996 -0.323307,-0.130274 -0.05555,0 -0.06787,0.02047 -0.125494,0 -0.06994,-0.02045 -0.202837,0.02882 -0.26055,0 -0.05557,-0.03501 -0.178626,-0.145666 -0.19296,-0.193023 -0.02221,-0.07619 0.189,-0.128577 0.19296,-0.19303 0.0053,-0.04943 -0.05241,-0.116837 -0.0627,-0.193033 -0.0067,-0.04528 0.0098,-0.09456 0,-0.125454 -0.01475,-0.05356 -0.108697,-0.06551 -0.192953,-0.06759 H 29.30178 c -0.09071,0 -0.272806,-0.008 -0.386026,0 -0.06799,0 -0.129217,-0.0064 -0.19296,0 -0.179114,0.02048 -0.308775,-0.02048 -0.448754,0 -0.1008,0 -0.291336,0.08706 -0.386026,0.130268 -0.04741,0.02276 -0.06841,0.0319 -0.1302,0.06269 -0.02872,0.0205 -0.09312,0.05109 -0.1302,0.06759 -0.0576,0.02675 -0.137377,0.108999 -0.19296,0.125457 -0.08036,0.02047 -0.1722,-0.02049 -0.318481,0 -0.105,0 -0.258504,-0.06745 -0.26058,-0.193028 -0.003,-0.191473 0.33516,-0.09049 0.51633,-0.125453 0.06797,-0.02049 0.110687,-0.08088 0.192958,-0.13028 0.03928,-0.02272 0.02574,-0.03805 0.0627,-0.06269 0.06179,-0.04322 0.182826,-0.143591 0.192956,-0.19303 0.0067,-0.0453 -0.0067,-0.0953 0,-0.13027 0.0067,-0.04321 0.07466,-0.07261 0.1302,-0.130278 0.08646,-0.08648 0.148721,-0.199743 0.255754,-0.255741 0.07196,-0.03708 0.160087,-0.07061 0.192943,-0.130278 0.0068,-0.0659 -0.003,-0.06369 0,-0.125458 0.04523,-0.04119 0.09336,-0.05934 0.1302,-0.06759 0.11118,-0.02467 0.193703,0.0064 0.323304,0 0.05554,0 0.133416,0.02677 0.192959,0 0.04947,-0.03295 0.07613,-0.10074 0.125497,-0.125458 0.05363,-0.02882 0.12699,-0.06345 0.19296,-0.06759 z m 1.15809,1.22564 h -0.255727 c -0.09071,0 -0.202349,-0.04737 -0.255756,0 0.07615,0.123529 0.215189,0.162147 0.38602,0.193022 0.06179,-0.04528 0.0966,-0.114162 0.125516,-0.193022 z M 16.432233,32.828811 h 0.192944 c 0.0516,0 0.109696,-0.02049 0.1302,0 -0.03289,0.135883 -0.341707,0.11214 -0.448754,0.06269 0.0053,-0.05143 0.05949,-0.05449 0.125503,-0.06269 z m -0.448763,0.255748 c -0.08989,0.06543 -0.1806,0.148409 -0.323304,0.193029 -0.07834,0.02471 -0.178625,0.02371 -0.192959,-0.06269 -0.01732,-0.107059 0.123046,-0.0573 0.192959,-0.06759 0.09072,-0.02049 0.2184,-0.05857 0.323304,-0.06272 z m 13.380731,0 c -0.0679,0.02272 -0.1008,0.172421 0,0.193029 0.0474,-0.02885 0.0801,-0.104481 0.0675,-0.193029 -0.02668,-0.02882 -0.04697,-0.02045 -0.0675,0 z m -0.125503,0.323297 c 0.003,0.115301 0.0222,0.218428 0,0.318474 0.06599,0.127658 0.222847,0.02371 0.255756,-0.06269 0.03925,-0.214123 -0.03141,-0.282508 -0.1302,-0.255742 -0.03289,0.02049 -0.0907,-0.02674 -0.125513,-2e-6 z m -16.729551,5.143846 c 0.05135,0.02677 0.127246,0.05109 0.192959,0.06759 0.05363,0.0205 0.07883,-0.01652 0.1302,0 0.1092,0.03704 0.231984,0.08635 0.318467,0.125459 0.131677,0.05766 0.272797,0.257416 0.386017,0.323297 0.0053,0.0659 -0.01979,0.14362 0,0.193026 0.05368,0.07207 0.106493,0.143616 0.19296,0.193033 0.105,0.0576 0.16182,0.147321 0.260573,0.193019 0.0351,0.02049 0.07196,-0.0205 0.125503,0 0.135887,0.0412 0.206041,0.227594 0.323304,0.193026 0.07613,-0.02272 0.0504,-0.118903 0.0627,-0.193026 0.05161,-0.05558 0.112652,-0.130272 0.19295,-0.130272 0.127726,0 0.145763,0.19853 0.192944,0.323295 0.0267,0.06999 0.111926,0.118915 0.1302,0.193036 0.0309,0.127658 0.0267,0.502866 0,0.579038 -0.03293,0.09474 -0.177381,0.08943 -0.255718,0.193033 -0.03703,0.0494 -0.03877,0.158015 -0.0675,0.193018 -0.04943,0.05972 -0.08848,0.07261 -0.125501,0.130283 -0.0198,0.03087 -0.0492,0.08223 -0.0675,0.125453 -0.06179,0.131753 -0.176895,0.227485 -0.125502,0.386024 0.01979,0.0638 0.125502,0.116843 0.125502,0.193029 0,0.09063 -0.178617,0.161334 -0.192946,0.260568 -0.0098,0.07207 0.045,0.1596 0.0675,0.255748 0.01735,0.07206 0.149718,0.145667 0.19296,0.193021 0.07219,0.08034 0.127236,0.221394 0.192946,0.323304 0.129709,0.1997 0.19074,0.446184 0.318463,0.641775 0.06797,0.10088 0.215191,0.14952 0.260569,0.255747 0.02224,0.05355 -0.01978,0.143619 0,0.193027 0.0741,0.166764 0.412295,0.371441 0.579061,0.453582 0.07832,0.0391 0.183567,0.02153 0.25573,0.06269 0.1092,0.06178 0.330473,0.22737 0.38603,0.323299 0.04943,0.08648 0.0381,0.311028 0.0627,0.448762 0.0309,0.181169 -0.0067,0.32052 0,0.516312 0.0053,0.10705 0.0675,0.14952 0.0675,0.255741 0,0.03708 0.003,0.153897 0,0.193041 -0.003,0.127646 0.0098,0.256315 0,0.386024 -0.0053,0.06999 -0.0053,0.133311 0,0.193022 0.0053,0.0638 0.0585,0.07262 0.0627,0.130273 0.0053,0.05972 -0.06894,0.145667 -0.0627,0.193027 0.01479,0.129709 0.1008,0.19886 0.125501,0.31848 0.01979,0.09474 0.0798,0.34035 0.0675,0.45358 -2.222117,0.434509 -4.406933,-7.040214 -4.376602,-9.332376 z m 3.667276,0.77206 c 0.09881,-0.04529 0.08036,0.115869 0,0.130271 -0.07616,0.02049 -0.0741,-0.09318 0,-0.130271 z"
     class="ColorScheme-Text"
     id="path4-3" />
  <path
     style="color:#eff0f1;fill:currentColor;fill-opacity:1;stroke:none;stroke-width:2.47059"
     d="m 39.647061,10 -4.94118,4.941178 7.41177,7.411762 -7.41177,7.411768 4.94118,4.941172 7.411763,-7.411761 4.94118,-4.941179 z"
     class="ColorScheme-Text"
     id="path6-6" />
  <path
     style="color:#eff0f1;fill:currentColor;fill-opacity:1;stroke:none;stroke-width:2.47059"
     d="m 21.117651,10 c -2.053062,0 -3.705881,1.652822 -3.705881,3.70588 0,2.05306 1.652819,3.705888 3.705881,3.705888 2.053062,0 3.705887,-1.652828 3.705887,-3.705888 C 24.823538,11.652822 23.170713,10 21.117651,10 Z"
     class="ColorScheme-Text"
     id="path8-7" />
  <path
     style="color:#eff0f1;fill:currentColor;fill-opacity:1;stroke:none;stroke-width:2.47059"
     d="M 12.47059,22.35294 C 11.101873,22.35294 10,23.454821 10,24.823531 c 0,1.368701 1.101873,2.470588 2.47059,2.470588 1.368697,0 2.470589,-1.101887 2.470589,-2.470588 0,-1.36871 -1.101892,-2.470591 -2.470589,-2.470591 z"
     class="ColorScheme-Text"
     id="path10-5" />
</svg>
