<?xml version="1.0" encoding="UTF-8" standalone="no"?>
<svg
   viewBox="0 0 32 32"
   version="1.1"
   id="svg14"
   sodipodi:docname="certificate-server.svg"
   inkscape:version="1.2.1 (9c6d41e410, 2022-07-14)"
   xmlns:inkscape="http://www.inkscape.org/namespaces/inkscape"
   xmlns:sodipodi="http://sodipodi.sourceforge.net/DTD/sodipodi-0.dtd"
   xmlns:xlink="http://www.w3.org/1999/xlink"
   xmlns="http://www.w3.org/2000/svg"
   xmlns:svg="http://www.w3.org/2000/svg"
   xmlns:rdf="http://www.w3.org/1999/02/22-rdf-syntax-ns#"
   xmlns:cc="http://creativecommons.org/ns#"
   xmlns:dc="http://purl.org/dc/elements/1.1/">
  <metadata
     id="metadata18">
    <rdf:RDF>
      <cc:Work
         rdf:about="">
        <dc:format>image/svg+xml</dc:format>
        <dc:type
           rdf:resource="http://purl.org/dc/dcmitype/StillImage" />
      </cc:Work>
    </rdf:RDF>
  </metadata>
  <sodipodi:namedview
     pagecolor="#ffffff"
     bordercolor="#666666"
     borderopacity="1"
     objecttolerance="10"
     gridtolerance="10"
     guidetolerance="10"
     inkscape:pageopacity="0"
     inkscape:pageshadow="2"
     inkscape:window-width="1920"
     inkscape:window-height="1000"
     id="namedview16"
     showgrid="true"
     inkscape:zoom="14.75"
     inkscape:cx="16.338983"
     inkscape:cy="24.576271"
     inkscape:window-x="0"
     inkscape:window-y="0"
     inkscape:window-maximized="1"
     inkscape:current-layer="svg14"
     inkscape:showpageshadow="2"
     inkscape:pagecheckerboard="0"
     inkscape:deskcolor="#d1d1d1">
    <inkscape:grid
       type="xygrid"
       id="grid998" />
  </sodipodi:namedview>
  <defs
     id="defs3051">
    <style
       type="text/css"
       id="current-color-scheme">.ColorScheme-Text { color:#31363b; }
.ColorScheme-Background { color:#eff0f1; }
.ColorScheme-Highlight { color:#3daee9; }
.ColorScheme-ViewText { color:#31363b; }
.ColorScheme-ViewBackground { color:#fcfcfc; }
.ColorScheme-ViewHover { color:#93cee9; }
.ColorScheme-ViewFocus { color:#3daee9; }
.ColorScheme-ButtonText { color:#31363b; }
.ColorScheme-ButtonBackground { color:#eff0f1; }
.ColorScheme-ButtonHover { color:#93cee9; }
.ColorScheme-ButtonFocus { color:#3daee9; }
</style>
    <linearGradient
       inkscape:collect="always"
       xlink:href="#linearGradient4393"
       id="linearGradient668"
       gradientUnits="userSpaceOnUse"
       gradientTransform="matrix(1.8102342,0,0,1.7335427,1.50002,-1795.3113)"
       x1="5"
       y1="1037.3622"
       x2="8"
       y2="1051.3622" />
    <linearGradient
       inkscape:collect="always"
       id="linearGradient4393">
      <stop
         style="stop-color:#000000;stop-opacity:1;"
         offset="0"
         id="stop4395" />
      <stop
         style="stop-color:#000000;stop-opacity:0;"
         offset="1"
         id="stop4397" />
    </linearGradient>
  </defs>
  <path
     style="fill:#002d3c;fill-opacity:1;stroke:none"
     d="m 67.284809,1.5 c -1.662003,0 -3,1.337997 -3,3 v 2 h -1 v 5 h 8 v -5 h -1 v -2 c 0,-1.662003 -1.337997,-3 -3,-3 z m 0,1 c 1.108,0 2,0.892 2,2 v 2 h -4 v -2 c 0,-1.108 0.892,-2 2,-2 z m -3,5 h 1 4 1 v 3 h -6 z"
     class="ColorScheme-Background"
     id="path12" />
  <path
     inkscape:connector-curvature="0"
     style="fill:currentColor;fill-opacity:1;stroke-width:1.77147"
     id="rect4180-6-7"
     d="m 2,16 h 27.99979 l 2.05e-4,-9.2999995 c 0,-1 -1.05,-1.95 -2.05,-1.95 L 15.999893,4.7333305 14.187402,2.9999955 H 3.999985 c -0.999992,0 -1.999985,1 -1.999985,2 z"
     sodipodi:nodetypes="ccccccccc"
     class="ColorScheme-Highlight" />
  <path
     inkscape:connector-curvature="0"
     style="fill:#a1b4ba;fill-opacity:1;stroke-width:1.77147"
     d="m 1.5,11.5 c 0,-5.6310055 0,1.476803 0,1.965206 v 13.534793 c 0,1 1,2 2,2 h 24.999996 c 1,0 2,-1 2,-2 V 10 c 0,-0.4999995 -0.5,-0.9999995 -1,-0.9999995 H 12.499998 L 9.9999985,11 H 2 c -0.5,0 -0.5,0.5 -0.5,0.5 z"
     id="rect4113-2-5"
     sodipodi:nodetypes="cccscccccccc" />
  <path
     inkscape:connector-curvature="0"
     style="opacity:0.3;fill:#0f608a;fill-opacity:1;fill-rule:evenodd;stroke-width:0.885733"
     id="path4224-9-3"
     d="m 2,11 v 0 H 3 9.9999985 L 12.499998,9.0000005 v 0 L 9.699999,10.5 H 2.509051 C 2,10.5 2,11 2,11 Z"
     sodipodi:nodetypes="ccccccccc" />
  <path
     inkscape:connector-curvature="0"
     style="color:#31363b;opacity:0.3;fill:#ffffff;fill-opacity:1;fill-rule:evenodd;stroke-width:1.77147"
     id="path4196-3-5"
     d="m 14.187479,3.0000005 1.812527,2.75 h 13.674989 c -0.164999,-0.250001 -0.674998,-1 -1.874998,-1 l -11.800015,-0.01613 z"
     sodipodi:nodetypes="cccccc"
     class="ColorScheme-Text" />
  <path
     style="color:#000000;clip-rule:nonzero;display:inline;overflow:visible;visibility:visible;opacity:0.2;isolation:auto;mix-blend-mode:normal;color-interpolation:sRGB;color-interpolation-filters:linearRGB;solid-color:#000000;solid-opacity:1;fill:#000000;fill-opacity:1;fill-rule:nonzero;stroke:none;stroke-width:1.77147;stroke-linecap:butt;stroke-linejoin:miter;stroke-miterlimit:4;stroke-dasharray:none;stroke-dashoffset:0;stroke-opacity:1;marker:none;color-rendering:auto;image-rendering:auto;shape-rendering:auto;text-rendering:auto;enable-background:accumulate"
     d="m 1.5,25.556454 v 1.443545 c 0,1 1,2 2,2 h 24.999996 c 1,0 2,-1 2,-2 l -0.0045,-1.412885 c -0.012,0.893715 -0.941355,1.69662 -1.84913,1.679266 H 3.321025 c -0.902375,0 -1.820735,-0.83427 -1.820735,-1.709925 z"
     id="path9304-6"
     inkscape:connector-curvature="0"
     sodipodi:nodetypes="cssccccscc" />
  <path
     style="opacity:0.181;fill:url(#linearGradient668);fill-opacity:1;fill-rule:evenodd;stroke:none;stroke-width:1.77147px;stroke-linecap:butt;stroke-linejoin:miter;stroke-opacity:1"
     d="M 1.5,13.500001 15.981868,27.269859 H 30.463736 L 30.499986,13.5 Z"
     id="path4152-2"
     inkscape:connector-curvature="0"
     sodipodi:nodetypes="ccccc" />
  <path
     style="color:#eff0f1;fill:#002d3c;fill-opacity:1;stroke:none"
     d="m 16,13.5 c -1.662003,0 -3,1.337997 -3,3 v 2 h -1 v 5 h 8 v -5 h -1 v -2 c 0,-1.662003 -1.337997,-3 -3,-3 z m 0,1 c 1.108,0 2,0.892 2,2 v 2 h -4 v -2 c 0,-1.108 0.892,-2 2,-2 z m -3,5 h 1 4 1 v 3 h -6 z"
     class="ColorScheme-Background"
     id="path12-6" />
</svg>
