<?xml version="1.0" encoding="UTF-8" standalone="no"?>
<svg
   viewBox="0 0 32 32"
   version="1.1"
   id="svg12"
   sodipodi:docname="folder-IOTA.svg"
   inkscape:version="1.2.1 (9c6d41e410, 2022-07-14)"
   xmlns:inkscape="http://www.inkscape.org/namespaces/inkscape"
   xmlns:sodipodi="http://sodipodi.sourceforge.net/DTD/sodipodi-0.dtd"
   xmlns:xlink="http://www.w3.org/1999/xlink"
   xmlns="http://www.w3.org/2000/svg"
   xmlns:svg="http://www.w3.org/2000/svg"
   xmlns:rdf="http://www.w3.org/1999/02/22-rdf-syntax-ns#"
   xmlns:cc="http://creativecommons.org/ns#"
   xmlns:dc="http://purl.org/dc/elements/1.1/">
  <metadata
     id="metadata16">
    <rdf:RDF>
      <cc:Work
         rdf:about="">
        <dc:format>image/svg+xml</dc:format>
        <dc:type
           rdf:resource="http://purl.org/dc/dcmitype/StillImage" />
      </cc:Work>
    </rdf:RDF>
  </metadata>
  <sodipodi:namedview
     pagecolor="#ffffff"
     bordercolor="#666666"
     borderopacity="1"
     objecttolerance="10"
     gridtolerance="10"
     guidetolerance="10"
     inkscape:pageopacity="0"
     inkscape:pageshadow="2"
     inkscape:window-width="1920"
     inkscape:window-height="1004"
     id="namedview14"
     showgrid="true"
     inkscape:zoom="20.85965"
     inkscape:cx="7.4066439"
     inkscape:cy="14.309924"
     inkscape:window-x="0"
     inkscape:window-y="0"
     inkscape:window-maximized="1"
     inkscape:current-layer="svg12"
     inkscape:showpageshadow="2"
     inkscape:pagecheckerboard="0"
     inkscape:deskcolor="#d1d1d1">
    <inkscape:grid
       type="xygrid"
       id="grid18219" />
  </sodipodi:namedview>
  <defs
     id="defs3051">
    <style
       type="text/css"
       id="current-color-scheme">.ColorScheme-Text { color:#31363b; }
.ColorScheme-Background { color:#eff0f1; }
.ColorScheme-Highlight { color:#3daee9; }
.ColorScheme-ViewText { color:#31363b; }
.ColorScheme-ViewBackground { color:#fcfcfc; }
.ColorScheme-ViewHover { color:#93cee9; }
.ColorScheme-ViewFocus { color:#3daee9; }
.ColorScheme-ButtonText { color:#31363b; }
.ColorScheme-ButtonBackground { color:#eff0f1; }
.ColorScheme-ButtonHover { color:#93cee9; }
.ColorScheme-ButtonFocus { color:#3daee9; }
</style>
    <linearGradient
       inkscape:collect="always"
       xlink:href="#linearGradient4393"
       id="linearGradient668"
       gradientUnits="userSpaceOnUse"
       gradientTransform="matrix(1.8102342,0,0,1.7335427,1.50002,-1795.3113)"
       x1="5"
       y1="1037.3622"
       x2="8"
       y2="1051.3622" />
    <linearGradient
       inkscape:collect="always"
       id="linearGradient4393">
      <stop
         style="stop-color:#000000;stop-opacity:1;"
         offset="0"
         id="stop4395" />
      <stop
         style="stop-color:#000000;stop-opacity:0;"
         offset="1"
         id="stop4397" />
    </linearGradient>
  </defs>
  <path
     inkscape:connector-curvature="0"
     style="fill:currentColor;fill-opacity:1;stroke-width:1.77147"
     id="rect4180-6-7"
     d="m 2,16.000004 h 27.999791 l 2.05e-4,-9.299999 c 0,-1 -1.05,-1.95 -2.05,-1.95 L 15.999893,4.733335 14.187402,3 H 3.999985 C 2.999993,3 2,4 2,5 Z"
     sodipodi:nodetypes="ccccccccc"
     class="ColorScheme-Highlight" />
  <path
     inkscape:connector-curvature="0"
     style="fill:#a1b4ba;fill-opacity:1;stroke-width:1.77147"
     d="m 1.5,11.500004 c 0,-5.631005 0,1.476804 0,1.965206 v 13.534794 c 0,1 1,2 2,2 h 24.999997 c 1,0 2,-1 2,-2 V 10.000005 c 0,-0.5 -0.5,-1 -1,-1 H 12.499998 L 9.9999995,11.000004 H 2 c -0.5,0 -0.5,0.5 -0.5,0.5 z"
     id="rect4113-2-5"
     sodipodi:nodetypes="cccscccccccc" />
  <path
     inkscape:connector-curvature="0"
     style="opacity:0.3;fill:#0f608a;fill-opacity:1;fill-rule:evenodd;stroke-width:0.885733"
     id="path4224-9-3"
     d="m 2,11.000004 v 0 H 3 9.9999995 L 12.499998,9.000005 v 0 L 9.699999,10.500004 H 2.509051 C 2,10.500004 2,11.000004 2,11.000004 Z"
     sodipodi:nodetypes="ccccccccc" />
  <path
     inkscape:connector-curvature="0"
     style="color:#31363b;opacity:0.3;fill:#ffffff;fill-opacity:1;fill-rule:evenodd;stroke-width:1.77147"
     id="path4196-3-5"
     d="m 14.187479,3.000005 1.812528,2.75 h 13.674989 c -0.164999,-0.250001 -0.674998,-1 -1.874998,-1 L 15.999983,4.733875 Z"
     sodipodi:nodetypes="cccccc"
     class="ColorScheme-Text" />
  <path
     style="color:#000000;clip-rule:nonzero;display:inline;overflow:visible;visibility:visible;opacity:0.2;isolation:auto;mix-blend-mode:normal;color-interpolation:sRGB;color-interpolation-filters:linearRGB;solid-color:#000000;solid-opacity:1;fill:#000000;fill-opacity:1;fill-rule:nonzero;stroke:none;stroke-width:1.77147;stroke-linecap:butt;stroke-linejoin:miter;stroke-miterlimit:4;stroke-dasharray:none;stroke-dashoffset:0;stroke-opacity:1;marker:none;color-rendering:auto;image-rendering:auto;shape-rendering:auto;text-rendering:auto;enable-background:accumulate"
     d="m 1.5,25.556459 v 1.443545 c 0,1 1,2 2,2 h 24.999997 c 1,0 2,-1 2,-2 l -0.0045,-1.412885 c -0.012,0.893715 -0.941355,1.69662 -1.84913,1.679265 H 3.321025 c -0.902375,0 -1.820735,-0.83427 -1.820735,-1.709925 z"
     id="path9304-6"
     inkscape:connector-curvature="0"
     sodipodi:nodetypes="cssccccscc" />
  <path
     style="opacity:0.181;fill:url(#linearGradient668);fill-opacity:1;fill-rule:evenodd;stroke:none;stroke-width:1.77147px;stroke-linecap:butt;stroke-linejoin:miter;stroke-opacity:1"
     d="m 1.5,13.500005 14.481869,13.769859 h 14.481868 l 0.03625,-13.769859 z"
     id="path4152-2"
     inkscape:connector-curvature="0"
     sodipodi:nodetypes="ccccc" />
  <path
     style="color:#eff0f1;isolation:isolate;fill:#002d3c;fill-opacity:1;stroke-width:0.653876"
     class="ColorScheme-Text"
     d="m 13.896575,23.503476 c 0.21014,-0.01 0.401273,-0.12544 0.505961,-0.307662 0.08219,-0.141739 0.104681,-0.309509 0.06264,-0.46757 -0.0431,-0.158101 -0.145974,-0.292633 -0.287995,-0.374971 -0.14204,-0.082 -0.310882,-0.10382 -0.469257,-0.0618 -0.15776,0.04274 -0.293219,0.145614 -0.375059,0.287396 -0.08221,0.141688 -0.104059,0.309559 -0.06199,0.467607 0.04255,0.158031 0.145953,0.292661 0.287998,0.37422 0.102092,0.05909 0.219892,0.08799 0.337737,0.08269 z m 3.975562,-0.963412 c 0.103424,0 0.202892,-0.04184 0.276212,-0.114289 0.07359,-0.07338 0.113879,-0.171777 0.113879,-0.274961 0,-0.214886 -0.174776,-0.388617 -0.390091,-0.388617 -0.214689,0 -0.388806,0.174386 -0.388806,0.388617 0,0.214189 0.174117,0.38861 0.388806,0.38925 z m -0.981132,-0.0993 c 0.09041,0 0.1774,-0.03536 0.240866,-0.0992 0.06452,-0.0646 0.100152,-0.150287 0.0995,-0.240358 0,-0.187512 -0.152488,-0.339019 -0.340339,-0.339019 -0.187201,0 -0.339033,0.152198 -0.339667,0.339019 0,0.187392 0.151826,0.339579 0.339667,0.339579 z m 2.121307,-0.03835 c 0.121777,0 0.23894,-0.04774 0.32464,-0.133881 0.0861,-0.08592 0.134802,-0.203136 0.134802,-0.324597 0,-0.121538 -0.0479,-0.23776 -0.134802,-0.324003 -0.0854,-0.08539 -0.202863,-0.133871 -0.32464,-0.133871 -0.121764,0 -0.238232,0.04772 -0.324674,0.133865 -0.086,0.08592 -0.134165,0.202464 -0.134165,0.324002 0,0.121462 0.04719,0.238366 0.134165,0.324597 0.08611,0.08518 0.20291,0.133883 0.324674,0.133883 z m -2.928939,-0.237802 c 0.16359,0 0.295805,-0.131936 0.295805,-0.294527 5.01e-4,-0.07808 -0.03159,-0.153523 -0.0861,-0.208998 -0.055,-0.05515 -0.13088,-0.08663 -0.209371,-0.08583 -0.16302,0 -0.295212,0.131935 -0.295212,0.29522 4.92e-4,0.162582 0.132192,0.293891 0.295212,0.294513 z M 13.7264,21.844571 c 0.179365,-0.01 0.343002,-0.107721 0.432641,-0.26321 0.145943,-0.252729 0.05834,-0.574739 -0.193725,-0.720391 -0.252647,-0.145648 -0.575324,-0.05908 -0.72195,0.1927 -0.07,0.121483 -0.08891,0.265174 -0.0533,0.40037 0.036,0.135215 0.125044,0.250808 0.246099,0.320685 0.08811,0.05063 0.18848,0.07493 0.289966,0.0698 z m 1.742342,-0.05538 c 0.0675,0 0.133508,-0.02619 0.181939,-0.0747 0.04742,-0.04716 0.07523,-0.112991 0.07523,-0.18089 0,-0.06729 -0.02633,-0.133277 -0.07523,-0.180898 -0.048,-0.04781 -0.113231,-0.07509 -0.181939,-0.07509 -0.06714,0 -0.132853,0.02707 -0.180629,0.07509 -0.04783,0.04772 -0.075,0.112987 -0.075,0.180898 0,0.141093 0.11454,0.255368 0.255235,0.255368 z m -3.086054,-0.133949 c 0.17937,-0.01 0.342367,-0.107764 0.432648,-0.263199 0.145266,-0.252123 0.0582,-0.574143 -0.193793,-0.720381 -0.121112,-0.0698 -0.265665,-0.0887 -0.401225,-0.05329 -0.135397,0.0358 -0.25061,0.12472 -0.320645,0.246228 -0.145959,0.252064 -0.05819,0.574095 0.193677,0.719727 0.08749,0.05172 0.187859,0.07484 0.289338,0.07083 z m 5.31209,-0.242292 c 0.214655,0 0.389415,-0.174392 0.388758,-0.389285 0,-0.21423 -0.174103,-0.387925 -0.388758,-0.387925 -0.215353,0 -0.390077,0.173695 -0.390077,0.387925 0,0.103861 0.04133,0.202472 0.113882,0.275634 0.07357,0.0734 0.172737,0.113651 0.276195,0.113651 z m -2.681603,-0.06894 c 0.05745,4.63e-4 0.112575,-0.02272 0.153173,-0.063 0.04125,-0.041 0.06427,-0.0951 0.06427,-0.152812 0,-0.05708 -0.02324,-0.112314 -0.06427,-0.152791 -0.04136,-0.041 -0.0954,-0.064 -0.153173,-0.064 -0.05653,0 -0.11258,0.02316 -0.15312,0.064 -0.04124,0.041 -0.06333,0.0952 -0.06333,0.152791 0,0.05717 0.0229,0.112348 0.06333,0.152812 0.04127,0.041 0.0961,0.064 0.15312,0.063 z m 1.700443,-0.02872 c 0.187191,-5e-4 0.339722,-0.152176 0.339722,-0.33968 -5e-4,-0.187411 -0.152531,-0.338984 -0.339722,-0.338984 -0.187833,0 -0.340306,0.151573 -0.340306,0.338982 -5e-4,0.0902 0.03485,0.176371 0.0994,0.240394 0.06426,0.06394 0.15056,0.09929 0.240854,0.09929 z m 2.119991,-0.03836 c 0.121755,0 0.238899,-0.04773 0.325315,-0.134562 0.08562,-0.08519 0.134213,-0.202476 0.134213,-0.323939 0,-0.121468 -0.0479,-0.237748 -0.134213,-0.323949 -0.08611,-0.08599 -0.20356,-0.134545 -0.325315,-0.134545 -0.121708,0 -0.238222,0.0478 -0.32459,0.13456 -0.08542,0.0858 -0.134218,0.20248 -0.134218,0.323948 0,0.121463 0.04768,0.238373 0.134218,0.32394 0.086,0.08591 0.202882,0.134563 0.32459,0.134563 z m -2.927637,-0.237797 c 0.162959,-4.49e-4 0.294529,-0.132528 0.295197,-0.29517 0,-0.162667 -0.132238,-0.29458 -0.295197,-0.295219 -0.07824,0 -0.153797,0.032 -0.209472,0.0866 -0.05546,0.055 -0.08688,0.130629 -0.08688,0.20838 5e-4,0.163241 0.132891,0.295162 0.296521,0.295162 z m 4.176506,-0.217486 c 0.291926,0 0.528853,-0.236469 0.528853,-0.527719 0,-0.2913 -0.236927,-0.527092 -0.528853,-0.527092 -0.291927,0 -0.528188,0.235792 -0.528188,0.527092 0,0.29125 0.236261,0.527719 0.528188,0.527719 z m -4.79114,-0.158041 c 0.141394,0 0.255954,-0.114332 0.255954,-0.255398 0,-0.141074 -0.11456,-0.255331 -0.255954,-0.255331 -0.141306,0 -0.255909,0.114257 -0.255909,0.255331 0,0.141066 0.114603,0.255398 0.255909,0.255398 z M 13.89267,20.435671 c 0.155779,-0.01 0.297791,-0.0937 0.375685,-0.227931 0.06145,-0.105809 0.07754,-0.23059 0.04545,-0.34814 -0.0319,-0.117598 -0.108641,-0.217538 -0.214024,-0.278239 -0.219947,-0.126688 -0.500064,-0.05174 -0.62705,0.167839 -0.126251,0.218807 -0.05252,0.498973 0.167528,0.625724 0.07621,0.04445 0.163639,0.06508 0.251976,0.06118 z m -1.343675,-0.188764 c 0.155699,-0.01 0.297122,-0.0937 0.375616,-0.228619 0.06144,-0.105159 0.0769,-0.23052 0.04557,-0.347439 -0.0321,-0.117581 -0.107985,-0.218122 -0.214028,-0.2789 -0.105356,-0.0612 -0.231021,-0.0767 -0.348211,-0.04517 -0.117833,0.032 -0.218673,0.108437 -0.279504,0.213566 -0.126334,0.219429 -0.0519,0.49966 0.168834,0.625734 0.07563,0.0448 0.163672,0.06519 0.25137,0.06179 z m 4.637195,-0.0879 c 0.215383,0 0.390074,-0.173746 0.390074,-0.388666 0,-0.103156 -0.04121,-0.201803 -0.113862,-0.27495 -0.07358,-0.0734 -0.172771,-0.11428 -0.276212,-0.11428 -0.103374,0 -0.202245,0.04183 -0.275544,0.11428 -0.07356,0.07339 -0.114548,0.171794 -0.113878,0.27495 0,0.21492 0.174775,0.388666 0.389422,0.388666 z m -0.981113,-0.0979 c 0.09043,0 0.177396,-0.03564 0.240849,-0.0999 0.06475,-0.064 0.09949,-0.15026 0.09949,-0.239757 0,-0.0901 -0.03521,-0.176997 -0.09949,-0.240341 -0.06427,-0.06459 -0.150517,-0.0999 -0.240849,-0.0999 -0.187812,4.86e-4 -0.339694,0.152839 -0.339694,0.34026 0,0.186849 0.151882,0.338976 0.339694,0.339676 z m 2.121282,-0.04094 c 0.121766,0 0.238939,-0.04774 0.324689,-0.13388 0.086,-0.0859 0.134808,-0.202478 0.134808,-0.323951 0,-0.121478 -0.04782,-0.238417 -0.134808,-0.323985 -0.08543,-0.0859 -0.202923,-0.134529 -0.324689,-0.134529 -0.121736,0 -0.238207,0.04785 -0.324601,0.13453 -0.08544,0.08539 -0.134211,0.202507 -0.134211,0.323985 0,0.121486 0.0478,0.237724 0.134211,0.323952 0.08599,0.0854 0.202865,0.13388 0.324601,0.133878 z m -6.845555,-0.182839 c 0.156351,-0.01 0.29838,-0.0936 0.376299,-0.228622 0.06148,-0.10514 0.0775,-0.230578 0.04561,-0.348091 -0.0321,-0.11761 -0.108694,-0.21755 -0.214013,-0.278279 -0.21999,-0.126037 -0.5001,-0.0516 -0.627126,0.167857 -0.126237,0.219483 -0.05252,0.499 0.167595,0.625714 0.0761,0.0445 0.163545,0.06521 0.251319,0.0619 z m 3.916567,-0.05483 c 0.07834,0 0.15385,-0.03138 0.209456,-0.0858 0.05546,-0.05518 0.08688,-0.13066 0.08688,-0.209 -5e-4,-0.162651 -0.132835,-0.294555 -0.296543,-0.294555 -0.162961,0 -0.294475,0.131904 -0.29517,0.294555 0,0.16326 0.132209,0.295191 0.29517,0.295191 z m 4.177845,-0.217444 c 0.291896,0 0.528195,-0.235776 0.528195,-0.527103 0,-0.291282 -0.236299,-0.527734 -0.528195,-0.527734 -0.291893,0 -0.528183,0.236452 -0.528183,0.527734 0,0.291327 0.23629,0.527103 0.528183,0.527103 z M 14.278861,19.27705 c 0.132176,-0.01 0.25263,-0.07879 0.319357,-0.193979 0.107363,-0.186151 0.04366,-0.423862 -0.143303,-0.530982 -0.185932,-0.107121 -0.424126,-0.04365 -0.532139,0.14235 -0.107343,0.186152 -0.04429,0.4239 0.142051,0.530983 0.06488,0.03694 0.139388,0.05538 0.214034,0.05208 z m -1.343724,-0.18871 c 0.132845,-0.01 0.2526,-0.07969 0.31869,-0.194706 0.107387,-0.185461 0.04457,-0.423218 -0.142005,-0.530982 -0.08961,-0.0523 -0.196378,-0.06519 -0.295798,-0.03794 -0.100205,0.02618 -0.185295,0.0922 -0.236954,0.181541 -0.107372,0.185542 -0.0446,0.42328 0.142639,0.531003 0.06501,0.03694 0.138747,0.05484 0.213428,0.05208 z m 4.201986,-0.30902 c 0.04952,-4.47e-4 0.09819,-0.015 0.141368,-0.03974 0.141392,-0.08189 0.189177,-0.261913 0.108,-0.402972 -0.08223,-0.141096 -0.263122,-0.188745 -0.403836,-0.107748 -0.141386,0.0819 -0.189858,0.262511 -0.108015,0.402979 0.05434,0.0937 0.154455,0.150204 0.262483,0.147586 z m 3.718325,-0.05438 c 0.163622,0 0.320713,-0.06519 0.436532,-0.180921 0.115867,-0.11565 0.180677,-0.272388 0.180677,-0.43568 0,-0.340268 -0.276216,-0.616531 -0.617209,-0.616531 -0.16428,0 -0.321388,0.0649 -0.43722,0.18026 -0.115807,0.115604 -0.181348,0.272321 -0.181348,0.436271 0,0.163292 0.065,0.32003 0.181348,0.436302 0.115832,0.115566 0.27294,0.180276 0.43722,0.180276 z m -8.98787,-0.04572 c 0.132251,-0.01 0.252612,-0.0796 0.31943,-0.194632 0.107285,-0.185472 0.04366,-0.423262 -0.143349,-0.531011 -0.186556,-0.107107 -0.424163,-0.04365 -0.532154,0.143022 -0.107371,0.185542 -0.04444,0.423232 0.142069,0.53102 0.06457,0.03694 0.139442,0.05509 0.214004,0.052 z m 2.942707,-0.273681 c 0.115202,-0.01 0.220639,-0.0689 0.278154,-0.169818 0.04544,-0.0774 0.05735,-0.170432 0.03466,-0.257323 -0.02324,-0.0873 -0.08061,-0.1613 -0.15838,-0.206366 -0.07824,-0.04484 -0.171511,-0.05709 -0.25855,-0.03483 -0.0869,0.02316 -0.16169,0.08039 -0.206845,0.158087 -0.0451,0.0782 -0.05724,0.171144 -0.0345,0.257999 0.0243,0.0866 0.08068,0.161319 0.159054,0.206409 0.05564,0.03308 0.121123,0.04783 0.186507,0.04484 z m 3.177027,-0.03308 c 0.04366,-0.0017 0.08557,-0.01349 0.122418,-0.03494 0.05852,-0.03437 0.102129,-0.0894 0.119787,-0.15477 0.01666,-0.0655 0.01,-0.135216 -0.02561,-0.193979 -0.03481,-0.05818 -0.08961,-0.10124 -0.155761,-0.118887 -0.06546,-0.01708 -0.135493,-0.01 -0.194428,0.02518 -0.121706,0.07159 -0.163619,0.226617 -0.09311,0.348785 0.0458,0.0812 0.133518,0.12998 0.22712,0.128032 z m -4.521414,-0.157392 c 0.115861,-0.01 0.22056,-0.0681 0.278207,-0.168542 0.04551,-0.07739 0.05728,-0.170448 0.0349,-0.257989 -0.02334,-0.0866 -0.08057,-0.161339 -0.158395,-0.206379 -0.07758,-0.04483 -0.17085,-0.0563 -0.258498,-0.03447 -0.08681,0.02429 -0.161012,0.08039 -0.206212,0.158729 -0.0938,0.161991 -0.03734,0.369689 0.124405,0.46308 0.05557,0.033 0.121062,0.04793 0.185862,0.04483 z m 5.286555,-0.0061 c 0.03568,-0.0017 0.07178,-0.012 0.102783,-0.02883 0.103399,-0.059 0.138787,-0.191419 0.079,-0.29458 -0.02818,-0.04929 -0.07569,-0.0859 -0.131539,-0.1006 -0.055,-0.01508 -0.114519,-0.01 -0.164303,0.02229 -0.04951,0.028 -0.08544,0.0754 -0.100796,0.13128 -0.01512,0.05518 -0.01,0.1143 0.02288,0.163958 0.03852,0.0674 0.113201,0.10968 0.192437,0.107739 z m -1.81691,-0.202536 c 0.05723,-0.0017 0.11323,-0.01564 0.162976,-0.04484 0.07752,-0.04518 0.134792,-0.119479 0.158352,-0.206357 0.02432,-0.0866 0.01178,-0.179652 -0.03452,-0.258032 -0.04514,-0.07759 -0.119801,-0.134528 -0.20684,-0.157339 -0.08678,-0.02428 -0.180013,-0.012 -0.257875,0.03448 -0.16297,0.09421 -0.218631,0.301082 -0.125011,0.463692 0.06265,0.10704 0.178023,0.17241 0.302333,0.169092 z m -4.536463,-0.20369 c 0.11517,-0.01 0.219933,-0.0681 0.278162,-0.16855 0.0449,-0.078 0.05719,-0.1711 0.03448,-0.258011 -0.02444,-0.0866 -0.08059,-0.161259 -0.158318,-0.206347 -0.07831,-0.04483 -0.171569,-0.05629 -0.258617,-0.03448 -0.08681,0.02417 -0.161609,0.08039 -0.206773,0.158689 -0.09379,0.162 -0.03734,0.369669 0.124403,0.463079 0.05653,0.033 0.121698,0.04772 0.187107,0.04484 z m 3.014656,-0.02618 c 0.100826,-0.008 0.19179,-0.06119 0.242225,-0.147638 0.038,-0.0674 0.0495,-0.148259 0.02878,-0.224012 -0.02176,-0.0754 -0.07099,-0.139777 -0.13809,-0.178918 -0.06754,-0.03827 -0.148578,-0.04927 -0.224508,-0.02872 -0.07546,0.02037 -0.140069,0.0698 -0.179319,0.137831 -0.03852,0.0674 -0.04951,0.148269 -0.02877,0.224019 0.02053,0.0751 0.06999,0.13979 0.13808,0.178932 0.04844,0.02751 0.104687,0.04237 0.16162,0.03837 z m 2.559211,-0.06559 c 0.04948,-0.0017 0.09819,-0.015 0.141347,-0.03837 0.141384,-0.082 0.189832,-0.262553 0.107994,-0.40302 -0.08224,-0.141069 -0.262413,-0.189389 -0.403815,-0.107718 -0.141398,0.0819 -0.189817,0.261878 -0.108004,0.402938 0.05486,0.0929 0.154461,0.14892 0.262478,0.146967 z m 0.903865,-0.0576 c 0.04369,-0.0017 0.08488,-0.01351 0.121748,-0.03494 0.0582,-0.03437 0.102099,-0.0894 0.119786,-0.154779 0.01737,-0.0655 0.01,-0.13522 -0.02511,-0.193981 -0.03469,-0.05819 -0.09041,-0.101881 -0.155815,-0.118871 -0.065,-0.017 -0.135479,-0.01 -0.194362,0.02518 -0.05833,0.03437 -0.1015,0.0901 -0.119151,0.155369 -0.01719,0.0651 -0.01,0.135232 0.02563,0.19399 0.04582,0.0805 0.133587,0.129351 0.227133,0.127422 z m -4.80741,-0.0648 c 0.100784,-0.01 0.191762,-0.0612 0.242132,-0.148221 0.08219,-0.141049 0.0341,-0.321319 -0.108025,-0.403041 -0.0675,-0.03784 -0.148553,-0.04929 -0.224473,-0.028 -0.07511,0.02037 -0.140053,0.0699 -0.179312,0.137118 -0.08221,0.141092 -0.0341,0.32136 0.108012,0.40301 0.04834,0.028 0.105345,0.04294 0.161666,0.03972 z m 2.420374,-0.403539 c 0.06527,-0.0017 0.128951,-0.01929 0.18591,-0.0527 0.185872,-0.107128 0.249354,-0.344858 0.142053,-0.530957 -0.107359,-0.185509 -0.345628,-0.249518 -0.532156,-0.142408 -0.08958,0.05209 -0.155122,0.13649 -0.181964,0.236437 -0.02643,0.0999 -0.01357,0.205721 0.03849,0.295262 0.07177,0.123409 0.204161,0.19782 0.346832,0.193939 z m -1.823497,0 c 0.0875,-0.007 0.166269,-0.05229 0.210106,-0.12674 0.03466,-0.05828 0.04366,-0.128709 0.02558,-0.194008 -0.017,-0.0656 -0.06147,-0.121441 -0.119803,-0.155412 -0.122382,-0.0698 -0.27815,-0.02764 -0.348927,0.0943 -0.03434,0.05762 -0.04366,0.128021 -0.02534,0.193313 0.01729,0.0658 0.06145,0.121478 0.119121,0.155427 0.043,0.02493 0.09172,0.03537 0.140076,0.034 z m -1.66443,-0.01 c 0.100795,-0.008 0.19244,-0.06019 0.242817,-0.14765 0.0379,-0.0669 0.04827,-0.148271 0.028,-0.223348 -0.02051,-0.0755 -0.06999,-0.140389 -0.137416,-0.179631 -0.06757,-0.03784 -0.149232,-0.04928 -0.224492,-0.02872 -0.07557,0.02164 -0.140693,0.0708 -0.179363,0.137833 -0.03844,0.06729 -0.04956,0.148247 -0.02878,0.224038 0.02047,0.0752 0.07001,0.140381 0.137451,0.17896 0.04844,0.02764 0.10474,0.04249 0.161644,0.03837 z m 5.860577,-0.184943 c 0.04832,-0.0017 0.09751,-0.015 0.140764,-0.03984 0.06759,-0.038 0.117126,-0.103181 0.138099,-0.17895 0.02047,-0.0751 0.01,-0.156121 -0.02884,-0.224034 -0.08221,-0.140468 -0.262443,-0.188766 -0.403835,-0.107757 -0.0675,0.03829 -0.11782,0.103831 -0.138129,0.179602 -0.0205,0.07489 -0.01,0.15608 0.02883,0.224009 0.0544,0.0929 0.155107,0.14964 0.263109,0.14694 z m -1.089775,-0.0526 c 0.05653,-0.0017 0.112572,-0.01553 0.161662,-0.04483 0.07824,-0.04483 0.135515,-0.118851 0.159045,-0.2057 0.02319,-0.0873 0.01181,-0.180321 -0.03441,-0.257999 -0.04507,-0.0781 -0.119849,-0.135195 -0.206886,-0.158722 -0.08753,-0.02318 -0.180609,-0.012 -0.258473,0.03448 -0.07824,0.04509 -0.135556,0.11955 -0.159065,0.206398 -0.0234,0.0866 -0.01086,0.179603 0.03461,0.257982 0.06324,0.107777 0.179342,0.17247 0.303709,0.169169 z m -4.173238,-0.165225 c 0.08681,-0.008 0.165601,-0.0527 0.209451,-0.127359 0.035,-0.05818 0.04366,-0.12866 0.02556,-0.193996 -0.01723,-0.0655 -0.06045,-0.121525 -0.119126,-0.155482 -0.05834,-0.03437 -0.128926,-0.04364 -0.19443,-0.02517 -0.06521,0.01737 -0.121664,0.06119 -0.155709,0.119558 -0.03477,0.05828 -0.04366,0.128002 -0.02544,0.193971 0.01723,0.06509 0.06029,0.120841 0.119124,0.15479 0.043,0.02508 0.0918,0.03564 0.14079,0.03464 z m 0.577974,-0.231218 c 0.0735,-0.0061 0.140059,-0.04437 0.177405,-0.107141 0.05926,-0.103182 0.02427,-0.235073 -0.07981,-0.294562 -0.0495,-0.02872 -0.108646,-0.03672 -0.164302,-0.02248 -0.05529,0.01528 -0.102727,0.0517 -0.131569,0.100631 -0.028,0.04928 -0.036,0.108361 -0.02224,0.163851 0.015,0.05539 0.05178,0.10258 0.100781,0.131319 0.036,0.02172 0.07747,0.03137 0.119156,0.02749 z m 1.56368,-0.171154 c 0.07611,-0.0028 0.151793,-0.02417 0.21857,-0.0624 0.219234,-0.126699 0.295143,-0.406271 0.168188,-0.625697 -0.06145,-0.105174 -0.16099,-0.182221 -0.278784,-0.21358 -0.117823,-0.03264 -0.24284,-0.01518 -0.348861,0.04528 -0.10544,0.0612 -0.181979,0.160657 -0.21341,0.278229 -0.032,0.117585 -0.01466,0.243 0.04542,0.348101 0.08432,0.144999 0.240203,0.232577 0.408433,0.229297 z m 2.919756,-0.150178 c 0.05752,-0.0017 0.113257,-0.01563 0.16296,-0.04485 0.07756,-0.04484 0.135507,-0.118923 0.158453,-0.206472 0.02437,-0.0866 0.01169,-0.179561 -0.03482,-0.257291 -0.04483,-0.078 -0.119136,-0.135219 -0.206841,-0.158729 -0.08677,-0.02437 -0.179982,-0.012 -0.257889,0.03463 -0.07823,0.04483 -0.135485,0.119462 -0.159035,0.206403 -0.02433,0.0866 -0.01194,0.179598 0.03462,0.257979 0.06256,0.107108 0.178041,0.172329 0.302378,0.16916 z M 17.325627,16.11455 c 0.06525,-0.0017 0.129539,-0.01927 0.185873,-0.05218 0.08959,-0.05269 0.155133,-0.137138 0.181321,-0.236391 0.02634,-0.0999 0.0136,-0.206419 -0.03851,-0.295898 -0.107322,-0.185467 -0.345542,-0.248799 -0.532113,-0.141729 -0.185903,0.107798 -0.25003,0.34553 -0.142729,0.530991 0.07177,0.123539 0.204284,0.197931 0.346931,0.194679 z m -2.661981,-0.492471 c 0.0882,-0.0037 0.174793,-0.02629 0.251401,-0.0707 0.121682,-0.0699 0.210076,-0.185521 0.246699,-0.320699 0.036,-0.135205 0.01724,-0.27891 -0.05333,-0.40033 -0.07,-0.121534 -0.1852,-0.20971 -0.320702,-0.245621 -0.135502,-0.03583 -0.280103,-0.017 -0.401185,0.05318 -0.252666,0.145702 -0.339057,0.46766 -0.193091,0.719768 0.0961,0.167183 0.276821,0.268445 0.469917,0.26451 z m 3.551462,-0.224682 c 0.065,-0.0029 0.12896,-0.01927 0.185896,-0.05309 0.18588,-0.107165 0.249367,-0.344889 0.142038,-0.531001 -0.107376,-0.185568 -0.345605,-0.249579 -0.53212,-0.142461 -0.186588,0.107131 -0.250033,0.344831 -0.142708,0.531032 0.07099,0.123439 0.204173,0.198549 0.346894,0.195288 z m -1.638287,-0.09474 c 0.07686,-0.0029 0.15255,-0.02317 0.219277,-0.0621 0.219288,-0.126031 0.294538,-0.40626 0.168237,-0.62573 -0.06145,-0.105139 -0.161685,-0.182231 -0.278834,-0.213541 -0.117815,-0.03201 -0.24352,-0.015 -0.348872,0.04517 -0.105342,0.0612 -0.182606,0.161311 -0.214033,0.278891 -0.032,0.116958 -0.01466,0.242318 0.04577,0.347449 0.08422,0.14501 0.240155,0.232571 0.407744,0.228617 z m -3.357022,-0.233824 c 0.102764,-0.0037 0.204237,-0.03201 0.293255,-0.0833 0.295177,-0.169841 0.396651,-0.546654 0.226442,-0.841243 -0.170846,-0.294542 -0.548442,-0.395848 -0.843684,-0.225299 -0.295201,0.169782 -0.395949,0.546609 -0.225735,0.841201 0.112499,0.195289 0.323266,0.313521 0.549722,0.308299 z m 4.246508,-0.483999 c 0.07626,-0.0029 0.151877,-0.02327 0.218625,-0.0618 0.219989,-0.126064 0.295216,-0.406309 0.168213,-0.625743 -0.06143,-0.105161 -0.161018,-0.182215 -0.278834,-0.213588 -0.117776,-0.03193 -0.242799,-0.01472 -0.348824,0.04527 -0.10539,0.0612 -0.18195,0.160669 -0.213401,0.278252 -0.03234,0.117561 -0.01485,0.242978 0.0455,0.34815 0.08453,0.144989 0.24085,0.23248 0.40838,0.228556 z m -1.966821,-0.03009 c 0.08811,-0.0029 0.175438,-0.02628 0.251324,-0.0707 0.253352,-0.145619 0.339691,-0.467632 0.19443,-0.720448 -0.06999,-0.120751 -0.185912,-0.209573 -0.321381,-0.246184 -0.135508,-0.03528 -0.279501,-0.01664 -0.401203,0.05309 -0.121716,0.0699 -0.210119,0.185469 -0.246102,0.320699 -0.036,0.135228 -0.01666,0.278875 0.05324,0.400379 0.09681,0.166569 0.276864,0.267801 0.469959,0.2632 z"
     id="start-here-kde-9-7" />
</svg>
