<?xml version="1.0" encoding="UTF-8" standalone="no"?>
<svg
   viewBox="0 0 32 32"
   version="1.1"
   id="svg14"
   sodipodi:docname="folder-KDE.svg"
   inkscape:version="1.2.1 (9c6d41e410, 2022-07-14)"
   xmlns:inkscape="http://www.inkscape.org/namespaces/inkscape"
   xmlns:sodipodi="http://sodipodi.sourceforge.net/DTD/sodipodi-0.dtd"
   xmlns:xlink="http://www.w3.org/1999/xlink"
   xmlns="http://www.w3.org/2000/svg"
   xmlns:svg="http://www.w3.org/2000/svg"
   xmlns:rdf="http://www.w3.org/1999/02/22-rdf-syntax-ns#"
   xmlns:cc="http://creativecommons.org/ns#"
   xmlns:dc="http://purl.org/dc/elements/1.1/">
  <metadata
     id="metadata18">
    <rdf:RDF>
      <cc:Work
         rdf:about="">
        <dc:format>image/svg+xml</dc:format>
        <dc:type
           rdf:resource="http://purl.org/dc/dcmitype/StillImage" />
      </cc:Work>
    </rdf:RDF>
  </metadata>
  <sodipodi:namedview
     pagecolor="#ffffff"
     bordercolor="#666666"
     borderopacity="1"
     objecttolerance="10"
     gridtolerance="10"
     guidetolerance="10"
     inkscape:pageopacity="0"
     inkscape:pageshadow="2"
     inkscape:window-width="1920"
     inkscape:window-height="1000"
     id="namedview16"
     showgrid="false"
     inkscape:zoom="7.375"
     inkscape:cx="16"
     inkscape:cy="16.20339"
     inkscape:window-x="0"
     inkscape:window-y="0"
     inkscape:window-maximized="1"
     inkscape:current-layer="svg14"
     inkscape:document-rotation="0"
     inkscape:showpageshadow="2"
     inkscape:pagecheckerboard="0"
     inkscape:deskcolor="#d1d1d1" />
  <defs
     id="defs3051">
    <style
       type="text/css"
       id="current-color-scheme">.ColorScheme-Text { color:#31363b; }
.ColorScheme-Background { color:#eff0f1; }
.ColorScheme-Highlight { color:#3daee9; }
.ColorScheme-ViewText { color:#31363b; }
.ColorScheme-ViewBackground { color:#fcfcfc; }
.ColorScheme-ViewHover { color:#93cee9; }
.ColorScheme-ViewFocus { color:#3daee9; }
.ColorScheme-ButtonText { color:#31363b; }
.ColorScheme-ButtonBackground { color:#eff0f1; }
.ColorScheme-ButtonHover { color:#93cee9; }
.ColorScheme-ButtonFocus { color:#3daee9; }
</style>
    <linearGradient
       inkscape:collect="always"
       xlink:href="#linearGradient4393"
       id="linearGradient668"
       gradientUnits="userSpaceOnUse"
       gradientTransform="matrix(1.8102342,0,0,1.7335427,1.5000215,-1795.3113)"
       x1="5"
       y1="1037.3622"
       x2="8"
       y2="1051.3622" />
    <linearGradient
       inkscape:collect="always"
       id="linearGradient4393">
      <stop
         style="stop-color:#000000;stop-opacity:1;"
         offset="0"
         id="stop4395" />
      <stop
         style="stop-color:#000000;stop-opacity:0;"
         offset="1"
         id="stop4397" />
    </linearGradient>
  </defs>
  <path
     inkscape:connector-curvature="0"
     style="fill:currentColor;fill-opacity:1;stroke-width:1.77147"
     id="rect4180-6-7"
     d="M 2.0000015,16.000004 H 29.999792 l 2.05e-4,-9.299999 c 0,-1 -1.049999,-1.95 -2.049999,-1.95 L 15.999895,4.733335 14.187404,3 H 3.9999865 c -0.999992,0 -1.999985,1 -1.999985,2 z"
     sodipodi:nodetypes="ccccccccc"
     class="ColorScheme-Highlight" />
  <path
     inkscape:connector-curvature="0"
     style="fill:#a1b4ba;fill-opacity:1;stroke-width:1.77147"
     d="m 1.5000015,11.500004 c 0,-5.631005 0,1.476804 0,1.965206 v 13.534793 c 0,1 1,2 2,2 H 28.499998 c 1,0 2,-1 2,-2 V 10.000005 c 0,-0.5 -0.5,-1 -1,-1 H 12.5 l -2.499999,1.999999 H 2.0000015 c -0.5,0 -0.5,0.5 -0.5,0.5 z"
     id="rect4113-2-5"
     sodipodi:nodetypes="cccscccccccc" />
  <path
     inkscape:connector-curvature="0"
     style="opacity:0.3;fill:#0f608a;fill-opacity:1;fill-rule:evenodd;stroke-width:0.885733"
     id="path4224-9-3"
     d="m 2.0000015,11.000004 v 0 h 1 H 10 l 2.499999,-1.999999 v 0 l -2.7999985,1.499999 h -7.190948 c -0.509051,0 -0.509051,0.5 -0.509051,0.5 z"
     sodipodi:nodetypes="ccccccccc" />
  <path
     inkscape:connector-curvature="0"
     style="color:#31363b;opacity:0.3;fill:#ffffff;fill-opacity:1;fill-rule:evenodd;stroke-width:1.77147"
     id="path4196-3-5"
     d="m 14.187481,3.000005 1.812527,2.75 h 13.674989 c -0.164998,-0.250001 -0.674997,-1 -1.874998,-1 L 15.999985,4.733875 Z"
     sodipodi:nodetypes="cccccc"
     class="ColorScheme-Text" />
  <path
     style="color:#000000;clip-rule:nonzero;display:inline;overflow:visible;visibility:visible;opacity:0.2;isolation:auto;mix-blend-mode:normal;color-interpolation:sRGB;color-interpolation-filters:linearRGB;solid-color:#000000;solid-opacity:1;fill:#000000;fill-opacity:1;fill-rule:nonzero;stroke:none;stroke-width:1.77147;stroke-linecap:butt;stroke-linejoin:miter;stroke-miterlimit:4;stroke-dasharray:none;stroke-dashoffset:0;stroke-opacity:1;marker:none;color-rendering:auto;image-rendering:auto;shape-rendering:auto;text-rendering:auto;enable-background:accumulate"
     d="m 1.5000015,25.556458 v 1.443545 c 0,1 1,2 2,2 H 28.499998 c 1,0 2,-1 2,-2 l -0.0045,-1.412884 c -0.012,0.893715 -0.941354,1.696619 -1.84913,1.679265 H 3.3210265 c -0.902375,0 -1.820735,-0.834271 -1.820735,-1.709925 z"
     id="path9304-6"
     inkscape:connector-curvature="0"
     sodipodi:nodetypes="cssccccscc" />
  <path
     style="opacity:0.181;fill:url(#linearGradient668);fill-opacity:1;fill-rule:evenodd;stroke:none;stroke-width:1.77147px;stroke-linecap:butt;stroke-linejoin:miter;stroke-opacity:1"
     d="M 1.5000015,13.500005 15.98187,27.269863 h 14.481868 l 0.03625,-13.769858 z"
     id="path4152-2"
     inkscape:connector-curvature="0"
     sodipodi:nodetypes="ccccc" />
  <path
     style="color:#d3dae3;fill:#002d3c;fill-opacity:1;stroke-width:0.480943"
     d="m 16.960725,13.5 -1.9238,0.291206 v 6.95874 l 1.9238,-0.516641 v -2.688434 l 1.923801,3.169385 1.923801,-0.721431 -2.404751,-2.885695 2.405693,-3.125234 -1.8665,-0.481896 -1.982044,3.154362 z m -3.917114,1.887163 c -0.04554,0 -0.091,0.0177 -0.125871,0.05268 l -0.756183,0.756181 c -0.06981,0.0698 -0.05299,0.169442 0,0.252681 l 0.78248,1.228685 c -0.05802,0.120336 -0.108173,0.244275 -0.150295,0.371042 -0.0024,0.0051 -0.005,0.01057 -0.0059,0.0159 l -1.419356,0.315623 C 11.272156,18.401415 11.19,18.459775 11.19,18.558436 v 0.472495 0.472507 c 0,0.09866 0.08223,0.157076 0.178486,0.17848 l 1.419356,0.315624 c 0.0038,0.0093 0.0076,0.01789 0.01134,0.02721 0.04093,0.123153 0.08959,0.243612 0.145596,0.360724 l -0.782485,1.227737 c -0.05303,0.08329 -0.0698,0.182915 0,0.252682 l 0.756184,0.75618 c 0.0698,0.06981 0.181973,0.06981 0.251744,0 l 1.226807,-0.781549 c 0.120599,0.0587 0.244846,0.109482 0.371985,0.152179 0.008,0.0034 0.01598,0.0071 0.02448,0.01039 l 0.314685,1.418421 c 0,0.09867 0.07981,0.178486 0.178479,0.178486 h 1.068044 c 0.09867,0 0.157075,-0.08223 0.17848,-0.178486 l 0.314647,-1.461629 c 0.14458,-0.05431 0.284924,-0.119353 0.419895,-0.194455 l 1.197683,0.856707 c 0.06981,0.0698 0.181973,0.0698 0.251737,0 l 0.756199,-0.756181 c 0.06981,-0.06981 0.05301,-0.169448 0,-0.252688 l -0.455577,-0.691367 -0.048,0.01776 c -0.108338,0.04074 -0.230293,-0.002 -0.290265,-0.100504 l -0.479133,-0.789056 c -0.399158,0.954787 -1.341816,1.62603 -2.441383,1.62603 -1.46092,0 -2.64523,-1.184309 -2.64523,-2.645238 0,-1.121046 0.698719,-2.076902 1.683327,-2.462044 v -0.526978 l -0.0048,0.01687 c -0.01062,0.0048 -0.02047,0.0094 -0.03093,0.01317 -0.125444,0.04171 -0.24812,0.09126 -0.367288,0.148417 l -1.224927,-0.78061 c -0.03486,-0.03482 -0.08034,-0.05268 -0.125873,-0.05268 z"
     class="ColorScheme-Text"
     id="path10-7-0" />
</svg>
