<?xml version="1.0" encoding="UTF-8" standalone="no"?>
<svg
   viewBox="0 0 32 32"
   version="1.1"
   id="svg12"
   sodipodi:docname="folder-comic.svg"
   inkscape:version="1.2.1 (9c6d41e410, 2022-07-14)"
   xmlns:inkscape="http://www.inkscape.org/namespaces/inkscape"
   xmlns:sodipodi="http://sodipodi.sourceforge.net/DTD/sodipodi-0.dtd"
   xmlns:xlink="http://www.w3.org/1999/xlink"
   xmlns="http://www.w3.org/2000/svg"
   xmlns:svg="http://www.w3.org/2000/svg"
   xmlns:rdf="http://www.w3.org/1999/02/22-rdf-syntax-ns#"
   xmlns:cc="http://creativecommons.org/ns#"
   xmlns:dc="http://purl.org/dc/elements/1.1/">
  <metadata
     id="metadata16">
    <rdf:RDF>
      <cc:Work
         rdf:about="">
        <dc:format>image/svg+xml</dc:format>
        <dc:type
           rdf:resource="http://purl.org/dc/dcmitype/StillImage" />
      </cc:Work>
    </rdf:RDF>
  </metadata>
  <sodipodi:namedview
     pagecolor="#ffffff"
     bordercolor="#666666"
     borderopacity="1"
     objecttolerance="10"
     gridtolerance="10"
     guidetolerance="10"
     inkscape:pageopacity="0"
     inkscape:pageshadow="2"
     inkscape:window-width="1920"
     inkscape:window-height="1004"
     id="namedview14"
     showgrid="true"
     inkscape:zoom="20.85965"
     inkscape:cx="9.8275858"
     inkscape:cy="14.261984"
     inkscape:window-x="0"
     inkscape:window-y="0"
     inkscape:window-maximized="1"
     inkscape:current-layer="svg12"
     inkscape:showpageshadow="2"
     inkscape:pagecheckerboard="0"
     inkscape:deskcolor="#d1d1d1">
    <inkscape:grid
       type="xygrid"
       id="grid18219" />
  </sodipodi:namedview>
  <defs
     id="defs3051">
    <style
       type="text/css"
       id="current-color-scheme">.ColorScheme-Text { color:#31363b; }
.ColorScheme-Background { color:#eff0f1; }
.ColorScheme-Highlight { color:#3daee9; }
.ColorScheme-ViewText { color:#31363b; }
.ColorScheme-ViewBackground { color:#fcfcfc; }
.ColorScheme-ViewHover { color:#93cee9; }
.ColorScheme-ViewFocus { color:#3daee9; }
.ColorScheme-ButtonText { color:#31363b; }
.ColorScheme-ButtonBackground { color:#eff0f1; }
.ColorScheme-ButtonHover { color:#93cee9; }
.ColorScheme-ButtonFocus { color:#3daee9; }
</style>
    <linearGradient
       inkscape:collect="always"
       xlink:href="#linearGradient4393"
       id="linearGradient668"
       gradientUnits="userSpaceOnUse"
       gradientTransform="matrix(1.8102342,0,0,1.7335427,1.50002,-1795.3113)"
       x1="5"
       y1="1037.3622"
       x2="8"
       y2="1051.3622" />
    <linearGradient
       inkscape:collect="always"
       id="linearGradient4393">
      <stop
         style="stop-color:#000000;stop-opacity:1;"
         offset="0"
         id="stop4395" />
      <stop
         style="stop-color:#000000;stop-opacity:0;"
         offset="1"
         id="stop4397" />
    </linearGradient>
  </defs>
  <path
     inkscape:connector-curvature="0"
     style="fill:currentColor;fill-opacity:1;stroke-width:1.77147"
     id="rect4180-6-7"
     d="m 2,16.000004 h 27.999791 l 2.05e-4,-9.299999 c 0,-1 -1.05,-1.95 -2.05,-1.95 L 15.999893,4.733335 14.187402,3 H 3.999985 C 2.999993,3 2,4 2,5 Z"
     sodipodi:nodetypes="ccccccccc"
     class="ColorScheme-Highlight" />
  <path
     inkscape:connector-curvature="0"
     style="fill:#a1b4ba;fill-opacity:1;stroke-width:1.77147"
     d="m 1.5,11.500004 c 0,-5.631005 0,1.476804 0,1.965206 v 13.534794 c 0,1 1,2 2,2 h 24.999997 c 1,0 2,-1 2,-2 V 10.000005 c 0,-0.5 -0.5,-1 -1,-1 H 12.499998 L 9.9999995,11.000004 H 2 c -0.5,0 -0.5,0.5 -0.5,0.5 z"
     id="rect4113-2-5"
     sodipodi:nodetypes="cccscccccccc" />
  <path
     inkscape:connector-curvature="0"
     style="opacity:0.3;fill:#0f608a;fill-opacity:1;fill-rule:evenodd;stroke-width:0.885733"
     id="path4224-9-3"
     d="m 2,11.000004 v 0 H 3 9.9999995 L 12.499998,9.000005 v 0 L 9.699999,10.500004 H 2.509051 C 2,10.500004 2,11.000004 2,11.000004 Z"
     sodipodi:nodetypes="ccccccccc" />
  <path
     inkscape:connector-curvature="0"
     style="color:#31363b;opacity:0.3;fill:#ffffff;fill-opacity:1;fill-rule:evenodd;stroke-width:1.77147"
     id="path4196-3-5"
     d="m 14.187479,3.000005 1.812528,2.75 h 13.674989 c -0.164999,-0.250001 -0.674998,-1 -1.874998,-1 L 15.999983,4.733875 Z"
     sodipodi:nodetypes="cccccc"
     class="ColorScheme-Text" />
  <path
     style="color:#000000;clip-rule:nonzero;display:inline;overflow:visible;visibility:visible;opacity:0.2;isolation:auto;mix-blend-mode:normal;color-interpolation:sRGB;color-interpolation-filters:linearRGB;solid-color:#000000;solid-opacity:1;fill:#000000;fill-opacity:1;fill-rule:nonzero;stroke:none;stroke-width:1.77147;stroke-linecap:butt;stroke-linejoin:miter;stroke-miterlimit:4;stroke-dasharray:none;stroke-dashoffset:0;stroke-opacity:1;marker:none;color-rendering:auto;image-rendering:auto;shape-rendering:auto;text-rendering:auto;enable-background:accumulate"
     d="m 1.5,25.556459 v 1.443545 c 0,1 1,2 2,2 h 24.999997 c 1,0 2,-1 2,-2 l -0.0045,-1.412885 c -0.012,0.893715 -0.941355,1.69662 -1.84913,1.679265 H 3.321025 c -0.902375,0 -1.820735,-0.83427 -1.820735,-1.709925 z"
     id="path9304-6"
     inkscape:connector-curvature="0"
     sodipodi:nodetypes="cssccccscc" />
  <path
     style="opacity:0.181;fill:url(#linearGradient668);fill-opacity:1;fill-rule:evenodd;stroke:none;stroke-width:1.77147px;stroke-linecap:butt;stroke-linejoin:miter;stroke-opacity:1"
     d="m 1.5,13.500005 14.481869,13.769859 h 14.481868 l 0.03625,-13.769859 z"
     id="path4152-2"
     inkscape:connector-curvature="0"
     sodipodi:nodetypes="ccccc" />
  <path
     fill-rule="evenodd"
     clip-rule="evenodd"
     d="m 20.60741,19.21442 c -0.19722,0 -0.3573,0.15991 -0.3573,0.35677 v 0.17877 c 0,0.49314 -0.39988,0.89287 -0.8927,0.89287 -0.19514,0 -0.37542,-0.0625 -0.52226,-0.16868 -3.2e-4,0 0,0 -3.2e-4,0 L 17.9852,19.83713 c -0.01,-0.008 -0.018,-0.0135 -0.0278,-0.0212 -0.34319,-0.26055 -0.56447,-0.6731 -0.56447,-1.13752 v -0.71393 c 0,-0.49315 -0.39971,-0.89319 -0.89286,-0.89319 h -4.64266 c -0.49316,0 -0.89319,0.40004 -0.89319,0.89319 v 2.49997 c 0,0.39097 0.25303,0.71939 0.60339,0.84055 0.0138,0.0328 0.0487,0.0522 0.11101,0.0522 0.26445,0 0.71444,0.39955 0.71444,0.89269 v 0.35729 c 0,0.0984 0.0799,0.17842 0.17838,0.17842 0.038,0 0.0727,-0.0117 0.10182,-0.0317 5e-4,0 0,3.3e-4 0,3.3e-4 l 1.50191,-1.12631 c 0.22425,-0.16986 0.50381,-0.2705 0.80723,-0.2705 h 1.3391 c 0.19725,0 0.35718,0.15974 0.35718,0.35712 0,0.19688 -0.15993,0.3568 -0.35718,0.3568 h -1.25007 c -0.20419,0 -0.39278,0.0686 -0.54284,0.18454 l -1.43442,1.07576 h -3e-4 c -0.14701,0.10603 -0.32736,0.16844 -0.52241,0.16844 -0.49316,0 -0.89281,-0.39954 -0.89281,-0.89268 v -0.17894 c 0,-0.19682 -0.15982,-0.35712 -0.35716,-0.35712 -0.0394,0 -0.048,-0.0229 -0.0377,-0.0569 C 10.68709,21.84321 10.25,21.2948 10.25,20.64297 v -2.8571 c 0,-0.7891 0.63938,-1.42842 1.42837,-1.42842 h 5.00007 c 0.7889,0 1.42871,0.63934 1.42871,1.42842 v 0.89263 c 0,0.23422 0.11252,0.44209 0.28639,0.57237 l 0.8616,0.64624 c 4.8e-4,0 -3.4e-4,-3.3e-4 0,-3.3e-4 0.029,0.02 0.0642,0.0315 0.102,0.0315 0.0986,0 0.17843,-0.0798 0.17843,-0.17837 v -0.35712 c 0,-0.49317 0.44989,-0.89287 0.71428,-0.89287 0.3444,0 0.71409,-0.39952 0.71409,-0.89266 v -2.49998 c 0,-0.49332 -0.39949,-0.89285 -0.8927,-0.89285 h -4.64289 c -0.49318,0 -0.89275,0.39953 -0.89275,0.89285 v 0.17842 c 0,0.19722 -0.15982,0.35714 -0.35727,0.35714 -0.1973,0 -0.35713,-0.15992 -0.35713,-0.35714 v -0.35735 c 0,-0.78892 0.63976,-1.42835 1.42876,-1.42835 h 4.99989 c 0.78909,0 1.42855,0.63943 1.42855,1.42835 v 2.85731 c 0,0.78892 -0.56518,1.4287 -1.07126,1.4287 z m -2.85729,1.42841 c 0.19705,0 0.35731,0.15991 0.35731,0.35713 0,0.19737 -0.16026,0.35729 -0.35731,0.35729 -0.19719,0 -0.35714,-0.15992 -0.35714,-0.35729 0,-0.19722 0.15995,-0.35713 0.35714,-0.35713 z"
     id="path1947-1"
     style="fill:#002d3c;fill-opacity:1;stroke-width:0.0223209" />
</svg>
