<?xml version="1.0" encoding="UTF-8" standalone="no"?>
<svg
   viewBox="0 0 32 32"
   version="1.1"
   id="svg12"
   sodipodi:docname="folder-open.svg"
   inkscape:version="1.2.1 (9c6d41e410, 2022-07-14)"
   xmlns:inkscape="http://www.inkscape.org/namespaces/inkscape"
   xmlns:sodipodi="http://sodipodi.sourceforge.net/DTD/sodipodi-0.dtd"
   xmlns:xlink="http://www.w3.org/1999/xlink"
   xmlns="http://www.w3.org/2000/svg"
   xmlns:svg="http://www.w3.org/2000/svg"
   xmlns:rdf="http://www.w3.org/1999/02/22-rdf-syntax-ns#"
   xmlns:cc="http://creativecommons.org/ns#"
   xmlns:dc="http://purl.org/dc/elements/1.1/">
  <metadata
     id="metadata16">
    <rdf:RDF>
      <cc:Work
         rdf:about="">
        <dc:format>image/svg+xml</dc:format>
        <dc:type
           rdf:resource="http://purl.org/dc/dcmitype/StillImage" />
      </cc:Work>
    </rdf:RDF>
  </metadata>
  <sodipodi:namedview
     pagecolor="#ffffff"
     bordercolor="#666666"
     borderopacity="1"
     objecttolerance="10"
     gridtolerance="10"
     guidetolerance="10"
     inkscape:pageopacity="0"
     inkscape:pageshadow="2"
     inkscape:window-width="1920"
     inkscape:window-height="1000"
     id="namedview14"
     showgrid="false"
     inkscape:zoom="20.85965"
     inkscape:cx="18.360807"
     inkscape:cy="16.658956"
     inkscape:window-x="0"
     inkscape:window-y="0"
     inkscape:window-maximized="1"
     inkscape:current-layer="svg12"
     inkscape:showpageshadow="2"
     inkscape:pagecheckerboard="0"
     inkscape:deskcolor="#d1d1d1" />
  <defs
     id="defs3051">
    <style
       type="text/css"
       id="current-color-scheme">.ColorScheme-Text { color:#4d4d4d; }
.ColorScheme-Highlight { color:#3daee9; }
</style>
    <linearGradient
       inkscape:collect="always"
       xlink:href="#linearGradient4393"
       id="linearGradient668"
       gradientUnits="userSpaceOnUse"
       gradientTransform="matrix(1.8102342,0,0,1.7335427,1.5000215,-1795.3114)"
       x1="5"
       y1="1037.3622"
       x2="8"
       y2="1051.3622" />
    <linearGradient
       inkscape:collect="always"
       id="linearGradient4393">
      <stop
         style="stop-color:#000000;stop-opacity:1;"
         offset="0"
         id="stop4395" />
      <stop
         style="stop-color:#000000;stop-opacity:0;"
         offset="1"
         id="stop4397" />
    </linearGradient>
  </defs>
  <path
     inkscape:connector-curvature="0"
     style="fill:currentColor;fill-opacity:1;stroke-width:1.77147"
     id="rect4180-6-7"
     d="M 2.0000015,16.000003 H 29.999793 l 2.05e-4,-9.299998 c 0,-1 -1.05,-1.95 -2.05,-1.95 L 15.999895,4.733335 14.187404,3 H 3.9999865 c -0.999992,0 -1.999985,1 -1.999985,2 z"
     sodipodi:nodetypes="ccccccccc"
     class="ColorScheme-Highlight" />
  <path
     inkscape:connector-curvature="0"
     style="fill:#a1b4ba;fill-opacity:1;stroke-width:1.77147"
     d="m 1.5000015,11.500004 c 0,-5.631005 0,1.476803 0,1.965205 v 13.534795 c 0,1 1,2 2,2 H 28.499999 c 1,0 2,-1 2,-2 v -17 c 0,-0.4999995 -0.5,-0.999999 -1,-0.999999 H 12.5 l -2.499999,1.999999 H 2.0000015 c -0.5,0 -0.5,0.5 -0.5,0.5 z"
     id="rect4113-2-5"
     sodipodi:nodetypes="cccscccccccc" />
  <path
     inkscape:connector-curvature="0"
     style="opacity:0.3;fill:#0f608a;fill-opacity:1;fill-rule:evenodd;stroke-width:0.885733"
     id="path4224-9-3"
     d="m 2.0000015,11.000004 v 0 h 1 6.9999995 L 12.5,9.000005 v 0 l -2.7999995,1.499999 h -7.190948 c -0.509051,0 -0.509051,0.5 -0.509051,0.5 z"
     sodipodi:nodetypes="ccccccccc" />
  <path
     inkscape:connector-curvature="0"
     style="color:#31363b;opacity:0.3;fill:#ffffff;fill-opacity:1;fill-rule:evenodd;stroke-width:1.77147"
     id="path4196-3-5"
     d="m 14.187481,3.000005 1.812528,2.75 H 29.674998 C 29.509999,5.500004 29,4.750005 27.8,4.750005 L 15.999985,4.733875 Z"
     sodipodi:nodetypes="cccccc"
     class="ColorScheme-Text" />
  <path
     style="color:#000000;clip-rule:nonzero;display:inline;overflow:visible;visibility:visible;opacity:0.2;isolation:auto;mix-blend-mode:normal;color-interpolation:sRGB;color-interpolation-filters:linearRGB;solid-color:#000000;solid-opacity:1;fill:#000000;fill-opacity:1;fill-rule:nonzero;stroke:none;stroke-width:1.77147;stroke-linecap:butt;stroke-linejoin:miter;stroke-miterlimit:4;stroke-dasharray:none;stroke-dashoffset:0;stroke-opacity:1;marker:none;color-rendering:auto;image-rendering:auto;shape-rendering:auto;text-rendering:auto;enable-background:accumulate"
     d="m 1.5000015,25.556459 v 1.443545 c 0,1 1,2 2,2 H 28.499999 c 1,0 2,-1 2,-2 l -0.0045,-1.412885 c -0.012,0.893715 -0.941355,1.69662 -1.84913,1.679265 H 3.3210265 c -0.902375,0 -1.820735,-0.83427 -1.820735,-1.709924 z"
     id="path9304-6"
     inkscape:connector-curvature="0"
     sodipodi:nodetypes="cssccccscc" />
  <path
     style="opacity:0.181;fill:url(#linearGradient668);fill-opacity:1;fill-rule:evenodd;stroke:none;stroke-width:1.77147px;stroke-linecap:butt;stroke-linejoin:miter;stroke-opacity:1"
     d="m 1.5000015,13.500004 14.4818695,13.76986 h 14.481868 l 0.03625,-13.769859 z"
     id="path4152-2"
     inkscape:connector-curvature="0"
     sodipodi:nodetypes="ccccc" />
  <path
     inkscape:connector-curvature="0"
     style="fill:#000000;fill-opacity:1;stroke-width:0.707106"
     id="path4151-2-6"
     d="m 1.5,12.5 v 1 H 2.0000012 30.000004 30.5 v -1 H 30.000004 2.0000012 Z" />
</svg>
