<?xml version="1.0" encoding="UTF-8" standalone="no"?>
<svg
   viewBox="0 0 32 32"
   version="1.1"
   id="svg12"
   sodipodi:docname="folder-Relax.svg"
   inkscape:version="1.2.1 (9c6d41e410, 2022-07-14)"
   xmlns:inkscape="http://www.inkscape.org/namespaces/inkscape"
   xmlns:sodipodi="http://sodipodi.sourceforge.net/DTD/sodipodi-0.dtd"
   xmlns:xlink="http://www.w3.org/1999/xlink"
   xmlns="http://www.w3.org/2000/svg"
   xmlns:svg="http://www.w3.org/2000/svg"
   xmlns:rdf="http://www.w3.org/1999/02/22-rdf-syntax-ns#"
   xmlns:cc="http://creativecommons.org/ns#"
   xmlns:dc="http://purl.org/dc/elements/1.1/">
  <metadata
     id="metadata16">
    <rdf:RDF>
      <cc:Work
         rdf:about="">
        <dc:format>image/svg+xml</dc:format>
        <dc:type
           rdf:resource="http://purl.org/dc/dcmitype/StillImage" />
      </cc:Work>
    </rdf:RDF>
  </metadata>
  <sodipodi:namedview
     pagecolor="#ffffff"
     bordercolor="#666666"
     borderopacity="1"
     objecttolerance="10"
     gridtolerance="10"
     guidetolerance="10"
     inkscape:pageopacity="0"
     inkscape:pageshadow="2"
     inkscape:window-width="1920"
     inkscape:window-height="1004"
     id="namedview14"
     showgrid="true"
     inkscape:zoom="20.85965"
     inkscape:cx="9.8275858"
     inkscape:cy="14.261984"
     inkscape:window-x="0"
     inkscape:window-y="0"
     inkscape:window-maximized="1"
     inkscape:current-layer="svg12"
     inkscape:showpageshadow="2"
     inkscape:pagecheckerboard="0"
     inkscape:deskcolor="#d1d1d1">
    <inkscape:grid
       type="xygrid"
       id="grid18219" />
  </sodipodi:namedview>
  <defs
     id="defs3051">
    <style
       type="text/css"
       id="current-color-scheme">.ColorScheme-Text { color:#31363b; }
.ColorScheme-Background { color:#eff0f1; }
.ColorScheme-Highlight { color:#3daee9; }
.ColorScheme-ViewText { color:#31363b; }
.ColorScheme-ViewBackground { color:#fcfcfc; }
.ColorScheme-ViewHover { color:#93cee9; }
.ColorScheme-ViewFocus { color:#3daee9; }
.ColorScheme-ButtonText { color:#31363b; }
.ColorScheme-ButtonBackground { color:#eff0f1; }
.ColorScheme-ButtonHover { color:#93cee9; }
.ColorScheme-ButtonFocus { color:#3daee9; }
</style>
    <linearGradient
       inkscape:collect="always"
       xlink:href="#linearGradient4393"
       id="linearGradient668"
       gradientUnits="userSpaceOnUse"
       gradientTransform="matrix(1.8102342,0,0,1.7335427,1.50002,-1795.3113)"
       x1="5"
       y1="1037.3622"
       x2="8"
       y2="1051.3622" />
    <linearGradient
       inkscape:collect="always"
       id="linearGradient4393">
      <stop
         style="stop-color:#000000;stop-opacity:1;"
         offset="0"
         id="stop4395" />
      <stop
         style="stop-color:#000000;stop-opacity:0;"
         offset="1"
         id="stop4397" />
    </linearGradient>
  </defs>
  <path
     inkscape:connector-curvature="0"
     style="fill:currentColor;fill-opacity:1;stroke-width:1.77147"
     id="rect4180-6-7"
     d="m 2,16.000004 h 27.999791 l 2.05e-4,-9.299999 c 0,-1 -1.05,-1.95 -2.05,-1.95 L 15.999893,4.733335 14.187402,3 H 3.999985 C 2.999993,3 2,4 2,5 Z"
     sodipodi:nodetypes="ccccccccc"
     class="ColorScheme-Highlight" />
  <path
     inkscape:connector-curvature="0"
     style="fill:#a1b4ba;fill-opacity:1;stroke-width:1.77147"
     d="m 1.5,11.500004 c 0,-5.631005 0,1.476804 0,1.965206 v 13.534794 c 0,1 1,2 2,2 h 24.999997 c 1,0 2,-1 2,-2 V 10.000005 c 0,-0.5 -0.5,-1 -1,-1 H 12.499998 L 9.9999995,11.000004 H 2 c -0.5,0 -0.5,0.5 -0.5,0.5 z"
     id="rect4113-2-5"
     sodipodi:nodetypes="cccscccccccc" />
  <path
     inkscape:connector-curvature="0"
     style="opacity:0.3;fill:#0f608a;fill-opacity:1;fill-rule:evenodd;stroke-width:0.885733"
     id="path4224-9-3"
     d="m 2,11.000004 v 0 H 3 9.9999995 L 12.499998,9.000005 v 0 L 9.699999,10.500004 H 2.509051 C 2,10.500004 2,11.000004 2,11.000004 Z"
     sodipodi:nodetypes="ccccccccc" />
  <path
     inkscape:connector-curvature="0"
     style="color:#31363b;opacity:0.3;fill:#ffffff;fill-opacity:1;fill-rule:evenodd;stroke-width:1.77147"
     id="path4196-3-5"
     d="m 14.187479,3.000005 1.812528,2.75 h 13.674989 c -0.164999,-0.250001 -0.674998,-1 -1.874998,-1 L 15.999983,4.733875 Z"
     sodipodi:nodetypes="cccccc"
     class="ColorScheme-Text" />
  <path
     style="color:#000000;clip-rule:nonzero;display:inline;overflow:visible;visibility:visible;opacity:0.2;isolation:auto;mix-blend-mode:normal;color-interpolation:sRGB;color-interpolation-filters:linearRGB;solid-color:#000000;solid-opacity:1;fill:#000000;fill-opacity:1;fill-rule:nonzero;stroke:none;stroke-width:1.77147;stroke-linecap:butt;stroke-linejoin:miter;stroke-miterlimit:4;stroke-dasharray:none;stroke-dashoffset:0;stroke-opacity:1;marker:none;color-rendering:auto;image-rendering:auto;shape-rendering:auto;text-rendering:auto;enable-background:accumulate"
     d="m 1.5,25.556459 v 1.443545 c 0,1 1,2 2,2 h 24.999997 c 1,0 2,-1 2,-2 l -0.0045,-1.412885 c -0.012,0.893715 -0.941355,1.69662 -1.84913,1.679265 H 3.321025 c -0.902375,0 -1.820735,-0.83427 -1.820735,-1.709925 z"
     id="path9304-6"
     inkscape:connector-curvature="0"
     sodipodi:nodetypes="cssccccscc" />
  <path
     style="opacity:0.181;fill:url(#linearGradient668);fill-opacity:1;fill-rule:evenodd;stroke:none;stroke-width:1.77147px;stroke-linecap:butt;stroke-linejoin:miter;stroke-opacity:1"
     d="m 1.5,13.500005 14.481869,13.769859 h 14.481868 l 0.03625,-13.769859 z"
     id="path4152-2"
     inkscape:connector-curvature="0"
     sodipodi:nodetypes="ccccc" />
  <path
     d="m 16.327852,20.076365 -5.11169,4.46575 c -0.112,0.0978 -0.1248,0.27023 -0.0287,0.38416 l 0.71564,0.84771 c 0.0962,0.11401 0.2657,0.12703 0.37761,0.0292 l 5.11169,-4.4658 c 0.11206,-0.0978 0.12488,-0.27027 0.0287,-0.38418 l -0.71566,-0.84771 c -0.0962,-0.11407 -0.26561,-0.12709 -0.37767,-0.0291 z"
     id="path1170-2"
     style="fill:#002d3c;fill-opacity:1;stroke-width:0.024247" />
  <path
     d="m 17.179182,19.332595 -0.40587,0.35459 c -0.088,0.0767 -0.0981,0.21187 -0.0226,0.30142 l 0.79095,0.93694 c 0.0755,0.0896 0.20823,0.0996 0.29619,0.0231 l 0.40586,-0.35461 c 0.088,-0.0767 0.0981,-0.21182 0.0228,-0.30126 l -0.79099,-0.93692 c -0.0757,-0.0898 -0.20832,-0.0997 -0.29627,-0.0231 z"
     id="path1172-0"
     style="fill:#002d3c;fill-opacity:1;stroke-width:0.024247" />
  <path
     d="m 17.994772,18.620085 -0.40587,0.35458 c -0.088,0.0768 -0.098,0.21186 -0.0226,0.30142 l 0.79095,0.93692 c 0.0755,0.0896 0.20819,0.0996 0.29617,0.023 l 0.40586,-0.35461 c 0.0881,-0.0768 0.0981,-0.21182 0.0228,-0.30126 l -0.79099,-0.93692 c -0.0757,-0.0899 -0.20824,-0.0998 -0.29627,-0.0231 z"
     id="path1174-6"
     style="fill:#002d3c;fill-opacity:1;stroke-width:0.024247" />
  <path
     d="m 18.573672,16.510765 c -1.33801,-1.34009 -0.55796,-2.18801 -0.55796,-2.18801 0,0 -1.88795,1.50367 -0.0547,2.78497 1.59404,1.11429 0.80709,2.03839 0.80709,2.03839 0,1.6e-4 1.47626,-0.96286 -0.19434,-2.63535 z"
     id="path1401-1"
     style="fill:#002d3c;fill-opacity:1;stroke-width:0.0517266" />
  <path
     d="m 20.210642,18.315865 c 0,0 1.47576,-0.96265 -0.19489,-2.63506 -1.33801,-1.33958 -0.55796,-2.18749 -0.55796,-2.18749 0,0 -1.8879,1.50367 -0.0544,2.78495 1.59371,1.11361 0.80727,2.0376 0.80727,2.0376 z"
     id="path1403-5"
     style="fill:#002d3c;fill-opacity:1;stroke-width:0.0517266" />
</svg>
