<?xml version="1.0" encoding="UTF-8" standalone="no"?>
<svg
   viewBox="0 0 32 32"
   version="1.1"
   id="svg12"
   sodipodi:docname="folder-docker.svg"
   inkscape:version="1.2.1 (9c6d41e410, 2022-07-14)"
   xmlns:inkscape="http://www.inkscape.org/namespaces/inkscape"
   xmlns:sodipodi="http://sodipodi.sourceforge.net/DTD/sodipodi-0.dtd"
   xmlns:xlink="http://www.w3.org/1999/xlink"
   xmlns="http://www.w3.org/2000/svg"
   xmlns:svg="http://www.w3.org/2000/svg"
   xmlns:rdf="http://www.w3.org/1999/02/22-rdf-syntax-ns#"
   xmlns:cc="http://creativecommons.org/ns#"
   xmlns:dc="http://purl.org/dc/elements/1.1/">
  <metadata
     id="metadata16">
    <rdf:RDF>
      <cc:Work
         rdf:about="">
        <dc:format>image/svg+xml</dc:format>
        <dc:type
           rdf:resource="http://purl.org/dc/dcmitype/StillImage" />
      </cc:Work>
    </rdf:RDF>
  </metadata>
  <sodipodi:namedview
     pagecolor="#ffffff"
     bordercolor="#666666"
     borderopacity="1"
     objecttolerance="10"
     gridtolerance="10"
     guidetolerance="10"
     inkscape:pageopacity="0"
     inkscape:pageshadow="2"
     inkscape:window-width="1920"
     inkscape:window-height="1004"
     id="namedview14"
     showgrid="true"
     inkscape:zoom="20.85965"
     inkscape:cx="9.8275858"
     inkscape:cy="14.261984"
     inkscape:window-x="0"
     inkscape:window-y="0"
     inkscape:window-maximized="1"
     inkscape:current-layer="svg12"
     inkscape:showpageshadow="2"
     inkscape:pagecheckerboard="0"
     inkscape:deskcolor="#d1d1d1">
    <inkscape:grid
       type="xygrid"
       id="grid18219" />
  </sodipodi:namedview>
  <defs
     id="defs3051">
    <style
       type="text/css"
       id="current-color-scheme">.ColorScheme-Text { color:#31363b; }
.ColorScheme-Background { color:#eff0f1; }
.ColorScheme-Highlight { color:#3daee9; }
.ColorScheme-ViewText { color:#31363b; }
.ColorScheme-ViewBackground { color:#fcfcfc; }
.ColorScheme-ViewHover { color:#93cee9; }
.ColorScheme-ViewFocus { color:#3daee9; }
.ColorScheme-ButtonText { color:#31363b; }
.ColorScheme-ButtonBackground { color:#eff0f1; }
.ColorScheme-ButtonHover { color:#93cee9; }
.ColorScheme-ButtonFocus { color:#3daee9; }
</style>
    <linearGradient
       inkscape:collect="always"
       xlink:href="#linearGradient4393"
       id="linearGradient668"
       gradientUnits="userSpaceOnUse"
       gradientTransform="matrix(1.8102342,0,0,1.7335427,1.50002,-1795.3113)"
       x1="5"
       y1="1037.3622"
       x2="8"
       y2="1051.3622" />
    <linearGradient
       inkscape:collect="always"
       id="linearGradient4393">
      <stop
         style="stop-color:#000000;stop-opacity:1;"
         offset="0"
         id="stop4395" />
      <stop
         style="stop-color:#000000;stop-opacity:0;"
         offset="1"
         id="stop4397" />
    </linearGradient>
  </defs>
  <path
     inkscape:connector-curvature="0"
     style="fill:currentColor;fill-opacity:1;stroke-width:1.77147"
     id="rect4180-6-7"
     d="m 2,16.000004 h 27.999791 l 2.05e-4,-9.299999 c 0,-1 -1.05,-1.95 -2.05,-1.95 L 15.999893,4.733335 14.187402,3 H 3.999985 C 2.999993,3 2,4 2,5 Z"
     sodipodi:nodetypes="ccccccccc"
     class="ColorScheme-Highlight" />
  <path
     inkscape:connector-curvature="0"
     style="fill:#a1b4ba;fill-opacity:1;stroke-width:1.77147"
     d="m 1.5,11.500004 c 0,-5.631005 0,1.476804 0,1.965206 v 13.534794 c 0,1 1,2 2,2 h 24.999997 c 1,0 2,-1 2,-2 V 10.000005 c 0,-0.5 -0.5,-1 -1,-1 H 12.499998 L 9.9999995,11.000004 H 2 c -0.5,0 -0.5,0.5 -0.5,0.5 z"
     id="rect4113-2-5"
     sodipodi:nodetypes="cccscccccccc" />
  <path
     inkscape:connector-curvature="0"
     style="opacity:0.3;fill:#0f608a;fill-opacity:1;fill-rule:evenodd;stroke-width:0.885733"
     id="path4224-9-3"
     d="m 2,11.000004 v 0 H 3 9.9999995 L 12.499998,9.000005 v 0 L 9.699999,10.500004 H 2.509051 C 2,10.500004 2,11.000004 2,11.000004 Z"
     sodipodi:nodetypes="ccccccccc" />
  <path
     inkscape:connector-curvature="0"
     style="color:#31363b;opacity:0.3;fill:#ffffff;fill-opacity:1;fill-rule:evenodd;stroke-width:1.77147"
     id="path4196-3-5"
     d="m 14.187479,3.000005 1.812528,2.75 h 13.674989 c -0.164999,-0.250001 -0.674998,-1 -1.874998,-1 L 15.999983,4.733875 Z"
     sodipodi:nodetypes="cccccc"
     class="ColorScheme-Text" />
  <path
     style="color:#000000;clip-rule:nonzero;display:inline;overflow:visible;visibility:visible;opacity:0.2;isolation:auto;mix-blend-mode:normal;color-interpolation:sRGB;color-interpolation-filters:linearRGB;solid-color:#000000;solid-opacity:1;fill:#000000;fill-opacity:1;fill-rule:nonzero;stroke:none;stroke-width:1.77147;stroke-linecap:butt;stroke-linejoin:miter;stroke-miterlimit:4;stroke-dasharray:none;stroke-dashoffset:0;stroke-opacity:1;marker:none;color-rendering:auto;image-rendering:auto;shape-rendering:auto;text-rendering:auto;enable-background:accumulate"
     d="m 1.5,25.556459 v 1.443545 c 0,1 1,2 2,2 h 24.999997 c 1,0 2,-1 2,-2 l -0.0045,-1.412885 c -0.012,0.893715 -0.941355,1.69662 -1.84913,1.679265 H 3.321025 c -0.902375,0 -1.820735,-0.83427 -1.820735,-1.709925 z"
     id="path9304-6"
     inkscape:connector-curvature="0"
     sodipodi:nodetypes="cssccccscc" />
  <path
     style="opacity:0.181;fill:url(#linearGradient668);fill-opacity:1;fill-rule:evenodd;stroke:none;stroke-width:1.77147px;stroke-linecap:butt;stroke-linejoin:miter;stroke-opacity:1"
     d="m 1.5,13.500005 14.481869,13.769859 h 14.481868 l 0.03625,-13.769859 z"
     id="path4152-2"
     inkscape:connector-curvature="0"
     sodipodi:nodetypes="ccccc" />
  <path
     d="m 13.9,23.5 c -2.31304,0 -3.75,-1.75615 -3.75,-4.58332 0,-0.23007 0.1866,-0.41668 0.41668,-0.41668 h 6.72564 c -0.0395,-0.16011 -0.059,-0.31918 -0.059,-0.47628 0,-1.06144 0.90372,-1.88291 0.9424,-1.91757 0.15789,-0.14155 0.39796,-0.14155 0.55585,0 0.0388,0.0347 0.94236,0.85613 0.94236,1.91757 0,0.0408 -10e-4,0.082 -0.004,0.12309 1.10596,-0.0674 2.00481,0.89842 2.04066,0.9383 0.14157,0.15828 0.14157,0.39757 0,0.55585 -0.0348,0.0386 -0.85574,0.94236 -1.91774,0.94236 -0.27058,0 -0.54483,-0.0575 -0.81992,-0.17168 C 18.16281,22.15157 15.99955,23.5 13.90012,23.5 Z m -2.90219,-4.16668 c 0.0779,1.13957 0.53608,3.33336 2.90219,3.33336 1.9106,0 3.95139,-1.35725 4.45635,-2.96368 0.0392,-0.12347 0.13305,-0.22196 0.25437,-0.26647 0.12288,-0.0446 0.25671,-0.0297 0.3666,0.0397 0.28645,0.1817 0.56072,0.27385 0.81545,0.27385 0.38087,0 0.73851,-0.20488 0.98142,-0.38736 -0.24211,-0.18207 -0.59934,-0.38656 -0.98142,-0.38656 -0.16362,0 -0.33609,0.0402 -0.52738,0.12307 -0.15661,0.0682 -0.33935,0.0328 -0.4602,-0.0876 -0.12083,-0.12085 -0.15584,-0.30318 -0.0879,-0.46025 0.083,-0.19143 0.12332,-0.36396 0.12332,-0.52751 0,-0.3807 -0.20507,-0.73838 -0.38741,-0.98125 -0.1823,0.24229 -0.38655,0.59933 -0.38655,0.98122 0,0.21607 0.0675,0.44918 0.201,0.69271 0.0707,0.12923 0.068,0.28583 -0.007,0.41258 -0.0749,0.12661 -0.21118,0.20429 -0.35849,0.20429 z"
     id="path2-3"
     style="fill:#002d3c;fill-opacity:1;stroke-width:0.416668" />
  <path
     d="m 16.4,18.08332 h -1.25 c -0.23007,0 -0.41668,-0.18654 -0.41668,-0.41664 v -1.25 C 14.73332,16.18661 14.91993,16 15.15,16 h 1.25 c 0.23028,0 0.41668,0.18661 0.41668,0.41668 v 1.25 c 0,0.2301 -0.1864,0.41664 -0.41668,0.41664 z M 15.56668,17.25 h 0.41664 v -0.41668 h -0.41664 z"
     id="path4"
     style="fill:#002d3c;fill-opacity:1;stroke-width:0.416668" />
  <path
     d="M 12.65,18.08332 H 11.4 c -0.23007,0 -0.41668,-0.18654 -0.41668,-0.41664 v -1.25 C 10.98332,16.18661 11.16993,16 11.4,16 h 1.25 c 0.23008,0 0.41668,0.18661 0.41668,0.41668 v 1.25 c 0,0.2301 -0.1866,0.41664 -0.41668,0.41664 z M 11.81668,17.25 h 0.41664 v -0.41668 h -0.41664 z"
     id="path6"
     style="fill:#002d3c;fill-opacity:1;stroke-width:0.416668" />
  <path
     d="m 13.9,16.83332 h -1.25 c -0.23007,0 -0.41668,-0.18654 -0.41668,-0.41664 v -1.25 c 0,-0.23007 0.18661,-0.41668 0.41668,-0.41668 h 1.25 c 0.23008,0 0.41668,0.18661 0.41668,0.41668 v 1.25 c 0,0.2301 -0.1866,0.41664 -0.41668,0.41664 z M 13.06668,16 h 0.41664 v -0.41668 h -0.41664 z"
     id="path8"
     style="fill:#002d3c;fill-opacity:1;stroke-width:0.416668" />
  <path
     d="m 13.9,18.08332 h -1.25 c -0.23007,0 -0.41668,-0.18654 -0.41668,-0.41664 v -1.25 C 12.23332,16.18661 12.41993,16 12.65,16 h 1.25 c 0.23008,0 0.41668,0.18661 0.41668,0.41668 v 1.25 c 0,0.2301 -0.1866,0.41664 -0.41668,0.41664 z M 13.06668,17.25 h 0.41664 v -0.41668 h -0.41664 z"
     id="path10-5"
     style="fill:#002d3c;fill-opacity:1;stroke-width:0.416668" />
  <path
     d="M 15.15,15.58332 H 13.9 c -0.23007,0 -0.41668,-0.18654 -0.41668,-0.41664 v -1.25 C 13.48332,13.68661 13.66993,13.5 13.9,13.5 h 1.25 c 0.23008,0 0.41668,0.18661 0.41668,0.41668 v 1.25 c 0,0.2301 -0.1866,0.41664 -0.41668,0.41664 z M 14.31668,14.75 h 0.41664 v -0.41668 h -0.41664 z"
     id="path12"
     style="fill:#002d3c;fill-opacity:1;stroke-width:0.416668" />
  <path
     d="M 15.15,16.83332 H 13.9 c -0.23007,0 -0.41668,-0.18654 -0.41668,-0.41664 v -1.25 C 13.48332,14.93661 13.66993,14.75 13.9,14.75 h 1.25 c 0.23008,0 0.41668,0.18661 0.41668,0.41668 v 1.25 c 0,0.2301 -0.1866,0.41664 -0.41668,0.41664 z M 14.31668,16 h 0.41664 v -0.41668 h -0.41664 z"
     id="path14"
     style="fill:#002d3c;fill-opacity:1;stroke-width:0.416668" />
  <path
     d="M 15.15,18.08332 H 13.9 c -0.23007,0 -0.41668,-0.18654 -0.41668,-0.41664 v -1.25 C 13.48332,16.18661 13.66993,16 13.9,16 h 1.25 c 0.23008,0 0.41668,0.18661 0.41668,0.41668 v 1.25 c 0,0.2301 -0.1866,0.41664 -0.41668,0.41664 z M 14.31668,17.25 h 0.41664 v -0.41668 h -0.41664 z"
     id="path16"
     style="fill:#002d3c;fill-opacity:1;stroke-width:0.416668" />
  <circle
     cx="12.441623"
     cy="20.375217"
     id="circle18"
     style="fill:#002d3c;fill-opacity:1;stroke-width:0.416668"
     r="0.62500024" />
</svg>
