<?xml version="1.0" encoding="UTF-8" standalone="no"?>
<svg
   viewBox="0 0 32 32"
   version="1.1"
   id="svg12"
   sodipodi:docname="folder-sign.svg"
   inkscape:version="1.2.1 (9c6d41e410, 2022-07-14)"
   xmlns:inkscape="http://www.inkscape.org/namespaces/inkscape"
   xmlns:sodipodi="http://sodipodi.sourceforge.net/DTD/sodipodi-0.dtd"
   xmlns:xlink="http://www.w3.org/1999/xlink"
   xmlns="http://www.w3.org/2000/svg"
   xmlns:svg="http://www.w3.org/2000/svg"
   xmlns:rdf="http://www.w3.org/1999/02/22-rdf-syntax-ns#"
   xmlns:cc="http://creativecommons.org/ns#"
   xmlns:dc="http://purl.org/dc/elements/1.1/">
  <metadata
     id="metadata16">
    <rdf:RDF>
      <cc:Work
         rdf:about="">
        <dc:format>image/svg+xml</dc:format>
        <dc:type
           rdf:resource="http://purl.org/dc/dcmitype/StillImage" />
      </cc:Work>
    </rdf:RDF>
  </metadata>
  <sodipodi:namedview
     pagecolor="#ffffff"
     bordercolor="#666666"
     borderopacity="1"
     objecttolerance="10"
     gridtolerance="10"
     guidetolerance="10"
     inkscape:pageopacity="0"
     inkscape:pageshadow="2"
     inkscape:window-width="1920"
     inkscape:window-height="1004"
     id="namedview14"
     showgrid="true"
     inkscape:zoom="20.85965"
     inkscape:cx="9.8275858"
     inkscape:cy="14.261984"
     inkscape:window-x="0"
     inkscape:window-y="0"
     inkscape:window-maximized="1"
     inkscape:current-layer="svg12"
     inkscape:showpageshadow="2"
     inkscape:pagecheckerboard="0"
     inkscape:deskcolor="#d1d1d1">
    <inkscape:grid
       type="xygrid"
       id="grid18219" />
  </sodipodi:namedview>
  <defs
     id="defs3051">
    <style
       type="text/css"
       id="current-color-scheme">.ColorScheme-Text { color:#31363b; }
.ColorScheme-Background { color:#eff0f1; }
.ColorScheme-Highlight { color:#3daee9; }
.ColorScheme-ViewText { color:#31363b; }
.ColorScheme-ViewBackground { color:#fcfcfc; }
.ColorScheme-ViewHover { color:#93cee9; }
.ColorScheme-ViewFocus { color:#3daee9; }
.ColorScheme-ButtonText { color:#31363b; }
.ColorScheme-ButtonBackground { color:#eff0f1; }
.ColorScheme-ButtonHover { color:#93cee9; }
.ColorScheme-ButtonFocus { color:#3daee9; }
</style>
    <linearGradient
       inkscape:collect="always"
       xlink:href="#linearGradient4393"
       id="linearGradient668"
       gradientUnits="userSpaceOnUse"
       gradientTransform="matrix(1.8102342,0,0,1.7335427,1.50002,-1795.3113)"
       x1="5"
       y1="1037.3622"
       x2="8"
       y2="1051.3622" />
    <linearGradient
       inkscape:collect="always"
       id="linearGradient4393">
      <stop
         style="stop-color:#000000;stop-opacity:1;"
         offset="0"
         id="stop4395" />
      <stop
         style="stop-color:#000000;stop-opacity:0;"
         offset="1"
         id="stop4397" />
    </linearGradient>
  </defs>
  <path
     inkscape:connector-curvature="0"
     style="fill:currentColor;fill-opacity:1;stroke-width:1.77147"
     id="rect4180-6-7"
     d="m 2,16.000004 h 27.999791 l 2.05e-4,-9.299999 c 0,-1 -1.05,-1.95 -2.05,-1.95 L 15.999893,4.733335 14.187402,3 H 3.999985 C 2.999993,3 2,4 2,5 Z"
     sodipodi:nodetypes="ccccccccc"
     class="ColorScheme-Highlight" />
  <path
     inkscape:connector-curvature="0"
     style="fill:#a1b4ba;fill-opacity:1;stroke-width:1.77147"
     d="m 1.5,11.500004 c 0,-5.631005 0,1.476804 0,1.965206 v 13.534794 c 0,1 1,2 2,2 h 24.999997 c 1,0 2,-1 2,-2 V 10.000005 c 0,-0.5 -0.5,-1 -1,-1 H 12.499998 L 9.9999995,11.000004 H 2 c -0.5,0 -0.5,0.5 -0.5,0.5 z"
     id="rect4113-2-5"
     sodipodi:nodetypes="cccscccccccc" />
  <path
     inkscape:connector-curvature="0"
     style="opacity:0.3;fill:#0f608a;fill-opacity:1;fill-rule:evenodd;stroke-width:0.885733"
     id="path4224-9-3"
     d="m 2,11.000004 v 0 H 3 9.9999995 L 12.499998,9.000005 v 0 L 9.699999,10.500004 H 2.509051 C 2,10.500004 2,11.000004 2,11.000004 Z"
     sodipodi:nodetypes="ccccccccc" />
  <path
     inkscape:connector-curvature="0"
     style="color:#31363b;opacity:0.3;fill:#ffffff;fill-opacity:1;fill-rule:evenodd;stroke-width:1.77147"
     id="path4196-3-5"
     d="m 14.187479,3.000005 1.812528,2.75 h 13.674989 c -0.164999,-0.250001 -0.674998,-1 -1.874998,-1 L 15.999983,4.733875 Z"
     sodipodi:nodetypes="cccccc"
     class="ColorScheme-Text" />
  <path
     style="color:#000000;clip-rule:nonzero;display:inline;overflow:visible;visibility:visible;opacity:0.2;isolation:auto;mix-blend-mode:normal;color-interpolation:sRGB;color-interpolation-filters:linearRGB;solid-color:#000000;solid-opacity:1;fill:#000000;fill-opacity:1;fill-rule:nonzero;stroke:none;stroke-width:1.77147;stroke-linecap:butt;stroke-linejoin:miter;stroke-miterlimit:4;stroke-dasharray:none;stroke-dashoffset:0;stroke-opacity:1;marker:none;color-rendering:auto;image-rendering:auto;shape-rendering:auto;text-rendering:auto;enable-background:accumulate"
     d="m 1.5,25.556459 v 1.443545 c 0,1 1,2 2,2 h 24.999997 c 1,0 2,-1 2,-2 l -0.0045,-1.412885 c -0.012,0.893715 -0.941355,1.69662 -1.84913,1.679265 H 3.321025 c -0.902375,0 -1.820735,-0.83427 -1.820735,-1.709925 z"
     id="path9304-6"
     inkscape:connector-curvature="0"
     sodipodi:nodetypes="cssccccscc" />
  <path
     style="opacity:0.181;fill:url(#linearGradient668);fill-opacity:1;fill-rule:evenodd;stroke:none;stroke-width:1.77147px;stroke-linecap:butt;stroke-linejoin:miter;stroke-opacity:1"
     d="m 1.5,13.500005 14.481869,13.769859 h 14.481868 l 0.03625,-13.769859 z"
     id="path4152-2"
     inkscape:connector-curvature="0"
     sodipodi:nodetypes="ccccc" />
  <path
     style="color:#232629;fill:#002d3c;fill-opacity:1;stroke:none;stroke-width:0.342763"
     d="m 18.937544,13.42546 c -0.0475,-9.9e-4 -0.0961,0.0129 -0.14201,0.0423 -0.0247,0.0171 -0.13102,0.14716 -0.23564,0.28901 l -0.19053,0.26062 -0.069,-0.048 c -0.0966,-0.065 -0.18982,-0.079 -0.27678,-0.0392 -0.0601,0.0275 -0.20097,0.21251 -1.12505,1.46254 -0.58323,0.788 -1.05744,1.43894 -1.05601,1.44901 0.001,0.008 0.23792,0.19648 0.52434,0.41526 l 0.52367,0.40039 0.689,-0.93383 c 0.37919,-0.51371 0.69466,-0.92948 0.70223,-0.9237 0.0247,0.0185 0.0692,0.42197 0.0604,0.55167 -0.005,0.0707 -0.0293,0.19786 -0.0564,0.28222 -0.048,0.15082 -0.0532,0.15965 -0.90731,1.32074 -0.47243,0.64183 -0.86579,1.18709 -0.87283,1.20862 -0.0199,0.0594 0.003,0.17056 0.0466,0.2343 0.0739,0.10746 0.25668,0.1414 0.3604,0.0649 0.0717,-0.0531 1.76356,-2.37001 1.81734,-2.49084 0.15717,-0.34463 0.18972,-0.78593 0.0903,-1.22016 -0.0389,-0.17228 -0.0906,-0.33797 -0.1407,-0.45572 -0.015,-0.0316 0.009,-0.0733 0.16794,-0.28963 0.1495,-0.20653 0.18381,-0.2646 0.18648,-0.31801 0.006,-0.11385 -0.0279,-0.17725 -0.13805,-0.26401 l -0.10219,-0.0809 0.20311,-0.27754 c 0.16645,-0.22948 0.20249,-0.28947 0.20509,-0.34299 0.007,-0.17051 -0.12181,-0.2955 -0.2642,-0.29706 z m -3.42159,3.84871 c -0.005,9.8e-4 -0.62641,0.84069 -1.38191,1.86423 -1.2152,1.64829 -1.38801,1.89228 -1.5001,2.10194 -0.2226,0.41746 -0.46492,1.05392 -0.62586,1.63536 -0.10436,0.37297 -0.10958,0.33922 0.036,0.25996 0.4485,-0.24643 1.03433,-0.64644 1.37521,-0.94058 0.33334,-0.28789 0.39009,-0.36113 1.8021,-2.27411 l 1.35802,-1.84194 -0.52768,-0.40311 c -0.29022,-0.22169 -0.53064,-0.40251 -0.53564,-0.40175 z m 0.15268,4.26598 c -0.0667,-0.005 -0.1354,-0.002 -0.17992,0.007 v 9.9e-4 c -0.21101,0.0454 -0.44603,0.23131 -0.5595,0.44563 -0.0303,0.0556 -0.0793,0.18179 -0.10953,0.27685 -0.028,0.0967 -0.055,0.17753 -0.0571,0.17957 -0.0162,0.0204 -0.41989,0.11925 -0.65709,0.16072 -0.55763,0.0991 -0.70993,0.1362 -0.76465,0.1877 -0.10739,0.1009 -0.0244,0.20265 0.12811,0.15735 0.0402,-0.0127 0.21283,-0.0474 0.379,-0.0762 0.16651,-0.0286 0.41978,-0.0824 0.56354,-0.11543 0.14409,-0.0352 0.26603,-0.058 0.27212,-0.0519 0.006,0.006 -0.0176,0.12367 -0.0564,0.26195 l -0.069,0.24781 -0.15264,0.0682 c -0.0833,0.0376 -0.20262,0.10089 -0.2655,0.1445 -0.19067,0.12792 -0.22748,0.28863 -0.0936,0.39163 0.0731,0.0555 0.27583,0.0535 0.40154,-0.003 0.11147,-0.0515 0.17418,-0.12355 0.26153,-0.31126 0.0466,-0.0971 0.0833,-0.1484 0.1115,-0.15464 0.0227,-0.006 0.22378,-0.0476 0.44671,-0.0952 0.22327,-0.0454 0.42586,-0.0892 0.45202,-0.0952 0.0424,-0.01 0.0468,-0.006 0.0347,0.0329 -0.008,0.025 -0.045,0.0974 -0.0836,0.16136 -0.0385,0.0641 -0.069,0.14002 -0.069,0.1708 0,0.0642 0.0531,0.12802 0.0956,0.11143 0.0163,-0.006 0.0381,-0.0127 0.0485,-0.0127 0.01,0 0.055,-0.033 0.0995,-0.0742 0.0833,-0.0763 0.28411,-0.4502 0.28411,-0.52869 0,-0.039 0.0302,-0.049 0.0484,-0.018 0.006,0.01 0.0523,0.0287 0.10288,0.041 0.0711,0.0185 0.0916,0.0323 0.0916,0.0657 0,0.0642 0.10371,0.15721 0.19514,0.17555 0.071,0.0131 0.16231,-0.003 0.25952,-0.0432 0.0347,-0.0149 0.0367,-0.01 0.0248,0.0432 -0.008,0.033 -0.0672,0.13854 -0.13008,0.23565 -0.13388,0.20223 -0.29602,0.52401 -0.33851,0.66644 -0.0346,0.12168 -0.0201,0.21266 0.0424,0.25592 0.0567,0.0375 0.14987,0.0198 0.19847,-0.0339 0.0423,-0.0475 0.27409,-0.54434 0.35907,-0.77109 0.0608,-0.15902 0.089,-0.20245 0.22699,-0.35114 0.11354,-0.12167 0.15058,-0.15066 0.12612,-0.1033 -0.0403,0.0891 -0.0385,0.15669 0.006,0.19784 0.0952,0.089 0.23314,0.003 0.35311,-0.2208 0.071,-0.13205 0.1239,-0.1709 0.38762,-0.29712 l 0.1374,-0.0643 -0.0142,0.0762 c -0.008,0.0411 -0.055,0.15906 -0.10355,0.26 -0.0955,0.20428 -0.11319,0.3343 -0.0564,0.44563 0.0383,0.0763 0.0789,0.0788 0.26549,0.0132 0.25964,-0.089 0.59829,-0.29365 0.68632,-0.41117 0.1196,-0.16527 0.15635,-0.32388 0.0836,-0.37749 -0.0751,-0.0555 -0.11756,-0.0329 -0.21304,0.1094 -0.12783,0.19399 -0.28583,0.34495 -0.43811,0.42136 -0.071,0.0374 -0.13391,0.0618 -0.14006,0.0552 -0.008,-0.008 0.15395,-0.45192 0.24094,-0.66039 0.0181,-0.0431 0.0335,-0.097 0.0335,-0.1195 0,-0.0576 -0.0712,-0.12353 -0.13208,-0.12353 -0.0282,0 -0.16279,0.0553 -0.29669,0.12555 -0.27798,0.14038 -0.25953,0.15276 -0.1885,-0.1114 0.0424,-0.16284 0.0282,-0.20634 -0.069,-0.21676 -0.0934,-0.01 -0.12977,0.0207 -0.21502,0.17558 -0.0547,0.10511 -0.12753,0.19202 -0.26753,0.32413 -0.18451,0.17316 -0.1928,0.17928 -0.23562,0.14851 -0.0649,-0.0475 -0.10151,-0.041 -0.25953,0.0394 -0.15429,0.0783 -0.20518,0.0891 -0.24359,0.0411 -0.0326,-0.0393 0.0184,-0.0598 0.30067,-0.11545 0.27389,-0.0535 0.30798,-0.0686 0.30798,-0.12627 0,-0.0931 -0.0752,-0.18124 -0.20909,-0.24106 -0.23143,-0.10508 -0.25714,-0.11167 -0.35841,-0.0849 -0.10944,0.0286 -0.27193,0.18774 -0.29405,0.28698 -0.0227,0.10333 -0.0916,0.0722 -0.0916,-0.0411 0,-0.0475 -0.057,-0.16698 -0.0897,-0.1877 -0.0689,-0.0474 -0.18021,0.0558 -0.26545,0.24577 l -0.0671,0.1465 -0.14999,0.0329 c -0.19474,0.0432 -0.76058,0.15867 -0.8357,0.17354 -0.0485,0.008 -0.0566,0.005 -0.0466,-0.0252 0.008,-0.0203 0.0322,-0.1109 0.0564,-0.20392 0.0628,-0.25583 0.0815,-0.28923 0.17256,-0.32206 0.10943,-0.0393 0.47902,-0.20042 0.57414,-0.24982 0.0446,-0.0231 0.13551,-0.0928 0.20246,-0.15464 0.20488,-0.19396 0.23706,-0.37369 0.0909,-0.50571 -0.0403,-0.0351 -0.0934,-0.072 -0.11748,-0.0822 -0.0375,-0.0149 -0.10189,-0.0248 -0.16855,-0.0279 z m -0.20444,0.24105 c 0.028,-0.002 0.0615,-9.8e-4 0.10354,0.003 0.10739,0.006 0.15028,0.0168 0.1805,0.0492 0.0403,0.0411 0.0402,0.043 0.005,0.12157 -0.0247,0.0494 -0.0809,0.10751 -0.15198,0.1573 -0.12369,0.087 -0.51147,0.24542 -0.52366,0.21672 -0.0162,-0.0475 0.10797,-0.33039 0.18715,-0.42134 0.079,-0.0914 0.11595,-0.12074 0.20048,-0.12555 z m -1.04146,1.72785 c 0.0159,0.001 0.016,0.0153 0.004,0.0404 -0.027,0.0515 -0.0957,0.089 -0.13412,0.0742 -0.0446,-0.0185 -0.0325,-0.0429 0.0386,-0.0801 0.0468,-0.024 0.0774,-0.0358 0.0929,-0.0349 z"
     class="ColorScheme-Text"
     id="path14466-5" />
</svg>
