<?xml version="1.0" encoding="UTF-8" standalone="no"?>
<svg
   sodipodi:docname="restart_primary.svg"
   inkscape:version="1.1.1 (3bf5ae0d25, 2021-09-20)"
   id="svg1699"
   version="1.1"
   viewBox="0 0 8.4666662 8.4666662"
   height="8.4666662mm"
   width="8.4666662mm"
   xmlns:inkscape="http://www.inkscape.org/namespaces/inkscape"
   xmlns:sodipodi="http://sodipodi.sourceforge.net/DTD/sodipodi-0.dtd"
   xmlns:xlink="http://www.w3.org/1999/xlink"
   xmlns="http://www.w3.org/2000/svg"
   xmlns:svg="http://www.w3.org/2000/svg"
   xmlns:rdf="http://www.w3.org/1999/02/22-rdf-syntax-ns#"
   xmlns:cc="http://creativecommons.org/ns#"
   xmlns:dc="http://purl.org/dc/elements/1.1/">
  <defs
     id="defs1693">
    <linearGradient
       inkscape:collect="always"
       xlink:href="#linearGradient4197"
       id="linearGradient4199"
       x1="0.34999999"
       y1="16"
       x2="31.688475"
       y2="16"
       gradientUnits="userSpaceOnUse"
       gradientTransform="matrix(0.27000023,0,0,0.27000023,98.634651,81.838991)" />
    <linearGradient
       inkscape:collect="always"
       id="linearGradient4197">
      <stop
         style="stop-color:#5fd3bd;stop-opacity:1;"
         offset="0"
         id="stop4193" />
      <stop
         style="stop-color:#c299ff;stop-opacity:1"
         offset="1"
         id="stop4195" />
    </linearGradient>
  </defs>
  <sodipodi:namedview
     inkscape:document-rotation="0"
     inkscape:window-maximized="1"
     inkscape:window-y="0"
     inkscape:window-x="0"
     inkscape:window-height="1005"
     inkscape:window-width="1920"
     showgrid="true"
     inkscape:current-layer="layer1"
     inkscape:document-units="mm"
     inkscape:cy="14.55251"
     inkscape:cx="5.9977807"
     inkscape:zoom="15.839192"
     inkscape:pageshadow="2"
     inkscape:pageopacity="0.0"
     borderopacity="1.0"
     bordercolor="#666666"
     pagecolor="#ffffff"
     id="base"
     inkscape:pagecheckerboard="0">
    <inkscape:grid
       type="xygrid"
       id="grid844" />
  </sodipodi:namedview>
  <metadata
     id="metadata1696">
    <rdf:RDF>
      <cc:Work
         rdf:about="">
        <dc:format>image/svg+xml</dc:format>
        <dc:type
           rdf:resource="http://purl.org/dc/dcmitype/StillImage" />
      </cc:Work>
    </rdf:RDF>
  </metadata>
  <g
     transform="translate(-98.729144,-81.918987)"
     id="layer1"
     inkscape:groupmode="layer"
     inkscape:label="Layer 1">
    <g
       id="system-switch-user"
       transform="matrix(0.26458333,0,0,0.26458333,23.852062,81.918987)">
      <g
         id="g1729">
        <circle
           style="opacity:0;fill:none;fill-opacity:1;stroke-width:1.06667"
           id="circle955"
           r="16"
           cy="-16"
           cx="299"
           transform="scale(1,-1)" />
      </g>
    </g>
    <path
       d="m 102.68144,82.918987 c -0.39529,0.0011 -0.78766,0.06981 -1.15967,0.203633 -0.0762,0.0274 -0.12212,0.105442 -0.10873,0.185441 0.0133,0.08 0.0819,0.138896 0.16309,0.140021 1.58166,0.02291 2.84018,1.227248 3.02196,2.760102 h -0.82964 c -0.0679,7.9e-5 -0.12886,0.04086 -0.15483,0.1035 -0.0259,0.06262 -0.0115,0.134703 0.0363,0.182677 l 1.62723,1.627247 c 0.0655,0.0654 0.17162,0.0654 0.2371,0 l 1.62722,-1.627247 c 0.048,-0.04797 0.062,-0.120041 0.0363,-0.182677 -0.026,-0.06262 -0.0871,-0.103424 -0.15485,-0.1035 h -0.91799 c -0.0927,-1.824883 -1.57515,-3.289057 -3.42279,-3.289057 h -8.1e-4 z m 8.3e-4,0.335265 c 1.72584,0 3.12142,1.395628 3.12142,3.121423 8e-5,0.09256 0.0748,0.167632 0.16762,0.167632 h 0.64698 l -1.22255,1.222518 -1.22249,-1.222518 h 0.63717 c 0.0462,7.9e-5 0.0904,-0.01896 0.1221,-0.05254 0.0317,-0.0336 0.0483,-0.07878 0.0455,-0.124903 -0.0872,-1.488943 -1.13691,-2.678107 -2.52434,-3.071804 0.0774,-0.006 0.15066,-0.03975 0.22859,-0.03995 z m -2.16093,0.89317 c -0.0434,7.54e-4 -0.0851,0.01836 -0.11592,0.04909 l -1.627237,1.627245 c -0.04789,0.04797 -0.06219,0.120041 -0.0363,0.182677 0.02597,0.06262 0.08705,0.103424 0.154835,0.103499 h 0.918019 c 0.0924,1.824961 1.575073,3.289249 3.422783,3.289057 0.39611,0 0.78879,-0.07065 1.16031,-0.2043 h 8e-5 c 0.0762,-0.0274 0.12216,-0.105446 0.10874,-0.185446 -0.0133,-0.07994 -0.0819,-0.138894 -0.16306,-0.140023 -1.58172,-0.02297 -2.84019,-1.22663 -3.02201,-2.759329 h 0.82965 c 0.0679,-7.8e-5 0.12886,-0.04086 0.15483,-0.103499 0.0259,-0.06262 0.0115,-0.134703 -0.0361,-0.182677 l -1.62728,-1.627253 c -0.0321,-0.03208 -0.0757,-0.04976 -0.12116,-0.04909 z m 0.003,0.404637 v 5.6e-5 3e-6 0 0 0 0 0 0 0 0 0 z"
       id="path2-36"
       sodipodi:nodetypes="ccccccccccccccsccccsccccscccccccccccccccccccsccccccccccccccc"
       style="fill:url(#linearGradient4199);fill-opacity:1;stroke:none;stroke-width:0.0191583;stroke-opacity:1" />
  </g>
</svg>
