<?xml version="1.0" encoding="UTF-8" standalone="no"?>
<svg
   sodipodi:docname="shutdown_primary.svg"
   inkscape:version="1.1.1 (3bf5ae0d25, 2021-09-20)"
   id="svg1073"
   version="1.1"
   viewBox="0 0 8.4666662 8.4666662"
   height="8.4666662mm"
   width="8.4666662mm"
   xmlns:inkscape="http://www.inkscape.org/namespaces/inkscape"
   xmlns:sodipodi="http://sodipodi.sourceforge.net/DTD/sodipodi-0.dtd"
   xmlns:xlink="http://www.w3.org/1999/xlink"
   xmlns="http://www.w3.org/2000/svg"
   xmlns:svg="http://www.w3.org/2000/svg"
   xmlns:rdf="http://www.w3.org/1999/02/22-rdf-syntax-ns#"
   xmlns:cc="http://creativecommons.org/ns#"
   xmlns:dc="http://purl.org/dc/elements/1.1/">
  <defs
     id="defs1067">
    <linearGradient
       inkscape:collect="always"
       xlink:href="#linearGradient3166"
       id="linearGradient3066"
       gradientUnits="userSpaceOnUse"
       x1="4"
       y1="16"
       x2="27.649616"
       y2="16"
       gradientTransform="matrix(0.28958332,0,0,0.28958332,-9.6409827,135.01497)" />
    <linearGradient
       inkscape:collect="always"
       id="linearGradient3166">
      <stop
         style="stop-color:#ff80b3;stop-opacity:1"
         offset="0"
         id="stop3162" />
      <stop
         style="stop-color:#ffc299;stop-opacity:1"
         offset="1"
         id="stop3164" />
    </linearGradient>
  </defs>
  <sodipodi:namedview
     inkscape:document-rotation="0"
     inkscape:window-maximized="1"
     inkscape:window-y="0"
     inkscape:window-x="0"
     inkscape:window-height="1005"
     inkscape:window-width="1920"
     showgrid="true"
     inkscape:current-layer="layer1"
     inkscape:document-units="mm"
     inkscape:cy="12.782893"
     inkscape:cx="4.4668845"
     inkscape:zoom="10.521875"
     inkscape:pageshadow="2"
     inkscape:pageopacity="0.0"
     borderopacity="1.0"
     bordercolor="#666666"
     pagecolor="#ffffff"
     id="base"
     inkscape:pagecheckerboard="0">
    <inkscape:grid
       type="xygrid"
       id="grid873" />
  </sodipodi:namedview>
  <metadata
     id="metadata1070">
    <rdf:RDF>
      <cc:Work
         rdf:about="">
        <dc:format>image/svg+xml</dc:format>
        <dc:type
           rdf:resource="http://purl.org/dc/dcmitype/StillImage" />
      </cc:Work>
    </rdf:RDF>
  </metadata>
  <g
     transform="translate(9.28265,-135.4233)"
     id="layer1"
     inkscape:groupmode="layer"
     inkscape:label="Layer 1">
    <g
       id="system-shutdown"
       transform="matrix(0.26458333,0,0,0.26458333,-34.153483,135.4233)">
      <g
         id="g1662">
        <path
           style="color:#000000;overflow:visible;opacity:0;fill:none;fill-opacity:1;stroke-width:1.06667"
           id="path945"
           overflow="visible"
           d="m 110,0 c -8.82859,0 -16,7.1714133 -16,16 0,8.828587 7.17141,16 16,16 8.82859,0 16,-7.171413 16,-16 0,-8.8285867 -7.17141,-16 -16,-16 z"
           inkscape:connector-curvature="0" />
      </g>
    </g>
    <path
       d="m -4.2179606,136.39917 c 1.5253886,0.37353 2.5838452,1.74332 2.5838452,3.29987 0,1.8989 -1.5565662,3.42426 -3.424265,3.42426 -1.8989186,0 -3.4242696,-1.5254 -3.4242696,-3.42426 0,-1.55659 1.058415,-2.92634 2.5527426,-3.29987 0.3424666,-0.0312 0.4669928,0.46699 0,0.65377 -1.1518428,0.37354 -1.9302002,1.43194 -1.9302002,2.64603 0,1.55658 1.2451976,2.80171 2.8017272,2.80171 1.525386,0 2.801719,-1.24516 2.801719,-2.80171 0,-1.2141 -0.8093798,-2.27249 -1.9612992,-2.64603 -0.4669882,-0.18679 -0.342461,-0.68489 0,-0.65377 z m -0.8404198,6.72413 z m 0,0 z m -0.3424676,-6.59975 v 3.11307 c 0,0.467 0.6537586,0.467 0.6537586,0 v -3.11307 c 0,-0.467 -0.6537586,-0.467 -0.6537586,0 z"
       id="path67-36-5"
       sodipodi:nodetypes="csssccsssccccccccccccccccccccsssss"
       style="fill:url(#linearGradient3066);fill-opacity:1;fill-rule:nonzero;stroke-width:0.0185118" />
  </g>
</svg>
