<?xml version="1.0" encoding="UTF-8" standalone="no"?>
<svg
   sodipodi:docname="system-user-prompt.svg"
   inkscape:version="1.2.1 (9c6d41e410, 2022-07-14)"
   id="svg1699"
   version="1.1"
   viewBox="0 0 8.4666662 8.4666662"
   height="8.4666662mm"
   width="8.4666662mm"
   xmlns:inkscape="http://www.inkscape.org/namespaces/inkscape"
   xmlns:sodipodi="http://sodipodi.sourceforge.net/DTD/sodipodi-0.dtd"
   xmlns:xlink="http://www.w3.org/1999/xlink"
   xmlns="http://www.w3.org/2000/svg"
   xmlns:svg="http://www.w3.org/2000/svg"
   xmlns:rdf="http://www.w3.org/1999/02/22-rdf-syntax-ns#"
   xmlns:cc="http://creativecommons.org/ns#"
   xmlns:dc="http://purl.org/dc/elements/1.1/">
  <defs
     id="defs1693">
    <linearGradient
       inkscape:collect="always"
       id="linearGradient840">
      <stop
         style="stop-color:#008080;stop-opacity:1"
         offset="0"
         id="stop836" />
      <stop
         style="stop-color:#c6afe9;stop-opacity:1"
         offset="1"
         id="stop838" />
    </linearGradient>
    <linearGradient
       id="linearGradient1028"
       x1="16"
       x2="16"
       y1="1091.5"
       y2="1121.5"
       gradientUnits="userSpaceOnUse">
      <stop
         stop-color="#9575cd"
         offset="0"
         id="stop1024"
         style="stop-color:#7d56c3;stop-opacity:1" />
      <stop
         stop-color="#cd75bc"
         offset="1"
         id="stop1026"
         style="stop-color:#963683;stop-opacity:1" />
    </linearGradient>
    <linearGradient
       id="a-9"
       x1="16"
       x2="16"
       y1="1091.5"
       y2="1121.5"
       gradientUnits="userSpaceOnUse">
      <stop
         stop-color="#9575cd"
         offset="0"
         id="stop1052" />
      <stop
         stop-color="#cd75bc"
         offset="1"
         id="stop1054" />
    </linearGradient>
    <linearGradient
       inkscape:collect="always"
       xlink:href="#linearGradient840"
       id="linearGradient842"
       x1="99.429144"
       y1="86.165862"
       x2="106.5669"
       y2="86.165862"
       gradientUnits="userSpaceOnUse" />
  </defs>
  <sodipodi:namedview
     inkscape:document-rotation="0"
     inkscape:window-maximized="1"
     inkscape:window-y="0"
     inkscape:window-x="0"
     inkscape:window-height="1008"
     inkscape:window-width="1920"
     showgrid="true"
     inkscape:current-layer="layer1"
     inkscape:document-units="mm"
     inkscape:cy="14.843749"
     inkscape:cx="1.8749999"
     inkscape:zoom="16.000001"
     inkscape:pageshadow="2"
     inkscape:pageopacity="0.0"
     borderopacity="1.0"
     bordercolor="#666666"
     pagecolor="#ffffff"
     id="base"
     inkscape:pagecheckerboard="0"
     inkscape:showpageshadow="2"
     inkscape:deskcolor="#d1d1d1">
    <inkscape:grid
       type="xygrid"
       id="grid844" />
  </sodipodi:namedview>
  <metadata
     id="metadata1696">
    <rdf:RDF>
      <cc:Work
         rdf:about="">
        <dc:format>image/svg+xml</dc:format>
        <dc:type
           rdf:resource="http://purl.org/dc/dcmitype/StillImage" />
      </cc:Work>
    </rdf:RDF>
  </metadata>
  <g
     transform="translate(-98.729144,-81.918987)"
     id="layer1"
     inkscape:groupmode="layer"
     inkscape:label="Layer 1">
    <g
       id="system-switch-user"
       transform="matrix(0.26458333,0,0,0.26458333,23.852062,81.918987)">
      <g
         id="g1729">
        <circle
           style="opacity:0;fill:none;fill-opacity:1;stroke-width:1.06667"
           id="circle955"
           r="16"
           cy="-16"
           cx="299"
           transform="scale(1,-1)" />
      </g>
    </g>
    <path
       id="path340-1-2"
       d="m 105.29463,84.192648 c -0.13127,0 -0.25252,0.03514 -0.36046,0.09153 6e-5,6.46e-4 -0.0334,0.01982 -0.0333,0.02051 0.0403,0.492663 -0.0875,0.806106 -0.23313,1.050879 0.13881,0.19111 0.36749,0.316992 0.62688,0.316992 0.35956,0 0.66111,-0.240109 0.74286,-0.563637 0.0143,-0.05651 0.0219,-0.11554 0.0219,-0.176322 -1e-5,-0.408665 -0.3424,-0.739955 -0.76477,-0.739955 z m -4.59087,0 c 0.13128,0 0.25252,0.03514 0.36047,0.09153 -6e-5,6.46e-4 0.0334,0.01982 0.0333,0.02051 -0.0403,0.492663 0.0875,0.806106 0.23313,1.050879 -0.13882,0.19111 -0.36749,0.316992 -0.62688,0.316992 -0.35957,0 -0.66112,-0.240109 -0.74287,-0.563637 -0.0143,-0.05651 -0.0219,-0.11554 -0.0219,-0.176322 1e-5,-0.408665 0.3424,-0.739955 0.76477,-0.739955 z m -2e-5,1.973209 c 0.4299,0 0.80696,0.191795 1.0376,0.501013 -0.12942,0.06639 -0.26113,0.147945 -0.37539,0.213887 -0.12561,-0.14334 -0.35927,-0.221595 -0.66221,-0.221595 -0.45898,0 -0.76476,0.32585 -0.76476,0.986612 h 0.6373 l -0.25492,0.493302 h -0.892216 v -0.749594 c 2e-6,-0.70985 0.568536,-1.223625 1.274596,-1.223625 z m 4.58856,6e-6 c -0.42989,0 -0.80696,0.191792 -1.03761,0.501011 0.12944,0.06639 0.26114,0.147944 0.3754,0.213886 0.12562,-0.14334 0.35928,-0.221594 0.66221,-0.221594 0.45899,0 0.76476,0.337073 0.76476,0.986608 h -0.63729 l 0.25491,0.493302 h 0.89222 v -0.749588 c 0,-0.70985 -0.56853,-1.223625 -1.2746,-1.223625 z m -2.29428,0.986606 c 1.01968,0 2.03936,0.493305 2.03936,1.973215 h -4.07872 c 0,-1.47991 1.01968,-1.973215 2.03936,-1.973215 z m 0,-0.493303 c -1.48276,0 -2.54516,1.008731 -2.54818,2.466518 l -10e-4,0.493303 h 5.09839 l -0.001,-0.493303 c -0.003,-1.465556 -1.06543,-2.466518 -2.54819,-2.466518 z m 3e-5,-3.946429 c -0.98554,0 -1.78446,0.773007 -1.78446,1.726562 0,0.953557 0.79892,1.726564 1.78446,1.726564 0.83897,0 1.54271,-0.560201 1.73347,-1.315095 0.0333,-0.131873 0.051,-0.269668 0.051,-0.411469 0,-0.953555 -0.79893,-1.726562 -1.78446,-1.726562 z"
       style="fill-opacity:1;fill:url(#linearGradient842)" />
  </g>
</svg>
