<?xml version="1.0" encoding="UTF-8" standalone="no"?>
<svg
   height="64"
   width="64"
   version="1.1"
   id="svg32519"
   sodipodi:docname="libreoffice-calc.svg"
   inkscape:version="1.2.1 (9c6d41e410, 2022-07-14)"
   xmlns:inkscape="http://www.inkscape.org/namespaces/inkscape"
   xmlns:sodipodi="http://sodipodi.sourceforge.net/DTD/sodipodi-0.dtd"
   xmlns:xlink="http://www.w3.org/1999/xlink"
   xmlns="http://www.w3.org/2000/svg"
   xmlns:svg="http://www.w3.org/2000/svg">
  <defs
     id="defs32523">
    <linearGradient
       inkscape:collect="always"
       xlink:href="#linearGradient22063-0"
       id="linearGradient22065-6"
       x1="-22"
       y1="5.1111121"
       x2="-6.4444442"
       y2="-9.1111107"
       gradientUnits="userSpaceOnUse"
       gradientTransform="matrix(3.6250002,0,0,3.6250002,82.750002,39.251999)" />
    <linearGradient
       inkscape:collect="always"
       id="linearGradient22063-0">
      <stop
         style="stop-color:#749755;stop-opacity:1;"
         offset="0"
         id="stop22059-6" />
      <stop
         style="stop-color:#a3be8c;stop-opacity:1;"
         offset="1"
         id="stop22061-2" />
    </linearGradient>
    <linearGradient
       id="linearGradient32999"
       gradientUnits="userSpaceOnUse"
       x1="4.00001"
       x2="14.00001"
       y1="4.99999"
       y2="14.99999"
       gradientTransform="translate(75.31599,-29.08393)">
      <stop
         offset="0"
         stop-color="#383e51"
         id="stop32492-1" />
      <stop
         offset="1"
         stop-color="#655c6f"
         stop-opacity="0"
         id="stop32494-8" />
    </linearGradient>
    <linearGradient
       id="c-9"
       gradientTransform="matrix(3.8,0,0,3.8,-1461.45,-1994.3671)"
       gradientUnits="userSpaceOnUse"
       x2="0"
       y1="531.79999"
       y2="515.79999">
      <stop
         offset="0"
         stop-color="#70e4b3"
         id="stop32502-6" />
      <stop
         offset="1"
         stop-color="#c8f0dc"
         id="stop32504-4" />
    </linearGradient>
    <linearGradient
       id="c-9-0"
       gradientTransform="matrix(5.3148141,0,0,4.6857134,-2133.5584,-2443.434)"
       gradientUnits="userSpaceOnUse"
       x2="0"
       y1="531.79999"
       y2="515.79999">
      <stop
         offset="0"
         stop-color="#70e4b3"
         id="stop32502-6-4"
         style="stop-color:#eceff4;stop-opacity:1;" />
      <stop
         offset="1"
         stop-color="#c8f0dc"
         id="stop32504-4-8" />
    </linearGradient>
    <linearGradient
       inkscape:collect="always"
       xlink:href="#a"
       id="linearGradient33508"
       gradientUnits="userSpaceOnUse"
       gradientTransform="matrix(4.3999999,0,0,3.8,-2.5999999,-1)"
       x1="5.1363635"
       y1="5"
       x2="14.00001"
       y2="14.99999" />
  </defs>
  <sodipodi:namedview
     id="namedview32521"
     pagecolor="#ffffff"
     bordercolor="#666666"
     borderopacity="1.0"
     inkscape:showpageshadow="2"
     inkscape:pageopacity="0.0"
     inkscape:pagecheckerboard="0"
     inkscape:deskcolor="#d1d1d1"
     showgrid="true"
     inkscape:zoom="4.3034071"
     inkscape:cx="82.028028"
     inkscape:cy="29.627687"
     inkscape:window-width="1920"
     inkscape:window-height="998"
     inkscape:window-x="0"
     inkscape:window-y="0"
     inkscape:window-maximized="1"
     inkscape:current-layer="svg32519">
    <inkscape:grid
       type="xygrid"
       id="grid34470" />
  </sodipodi:namedview>
  <linearGradient
     id="a"
     gradientUnits="userSpaceOnUse"
     x1="4.00001"
     x2="14.00001"
     y1="4.99999"
     y2="14.99999"
     gradientTransform="translate(75.31599,-29.08393)">
    <stop
       offset="0"
       stop-color="#383e51"
       id="stop32492" />
    <stop
       offset="1"
       stop-color="#655c6f"
       stop-opacity="0"
       id="stop32494" />
  </linearGradient>
  <linearGradient
     id="b"
     gradientTransform="matrix(0.72727,0,0,0.68966,-308.52701,-526.95293)"
     gradientUnits="userSpaceOnUse"
     x2="0"
     y1="785.71002"
     y2="727.71002">
    <stop
       offset="0"
       stop-color="#26c281"
       id="stop32497" />
    <stop
       offset="1"
       stop-color="#3fc380"
       id="stop32499" />
  </linearGradient>
  <linearGradient
     id="c"
     gradientTransform="translate(-324.25401,-548.88393)"
     gradientUnits="userSpaceOnUse"
     x2="0"
     y1="531.79999"
     y2="515.79999">
    <stop
       offset="0"
       stop-color="#70e4b3"
       id="stop32502" />
    <stop
       offset="1"
       stop-color="#c8f0dc"
       id="stop32504" />
  </linearGradient>
  <path
     d="m 2.9999985,10.252 c 0,-4.004175 3.245938,-7.25 7.2500005,-7.25 h 43.500003 c 4.004173,0 7.25,3.245825 7.25,7.25 v 43.5 c 0,4.004173 -3.245827,7.25 -7.25,7.25 H 10.249999 c -4.0040625,0 -7.2500005,-3.245827 -7.2500005,-7.25 z"
     id="path736-7"
     style="fill:#606c86;fill-opacity:1;stroke-width:3.625" />
  <path
     d="m 2.9999985,9.798875 c 0,-3.753687 3.245938,-6.796875 7.2500005,-6.796875 h 43.500003 c 4.004173,0 7.25,3.043188 7.25,6.796875 v 40.781249 c 0,3.753693 -3.245827,6.796876 -7.25,6.796876 H 10.249999 c -4.0040625,0 -7.2500005,-3.043183 -7.2500005,-6.796876 z"
     id="path738-9"
     style="fill:url(#linearGradient22065-6);fill-opacity:1;stroke-width:3.625" />
  <path
     d="m 20,18 c -2,0 -5,3 -5,4 v 18 l 25,15 19,1 V 28 L 45,18 Z"
     fill="url(#a)"
     fill-rule="evenodd"
     opacity="0.2"
     id="path32511-3-8"
     style="fill:url(#linearGradient33508);stroke-width:4.08901"
     sodipodi:nodetypes="cccccccc" />
  <path
     d="m 17.41508,15.628576 c -3.644452,0 -6.07408,2.466167 -6.07408,6.145992 v 19.748739 c 0,4.475641 2.429628,6.905269 6.045953,6.905269 h 30.591646 c 3.451288,0 5.880924,-2.429628 5.880924,-6.07408 V 21.873548 c 0,-3.778805 -2.429636,-6.244972 -6.074085,-6.244972 z m -0.759265,4.685715 H 48.544708 V 25 H 16.655815 Z m 0,9.371419 h 10.629623 v 4.685732 H 16.655815 Z m 21.259265,0 h 10.629628 v 4.685732 H 37.91508 Z m -21.259265,9.371442 h 10.629623 v 4.685709 H 16.655815 Z m 21.259265,0 h 10.629628 v 4.685709 H 37.91508 Z"
     id="path32513-3-8"
     style="fill:#eceff4;stroke-width:4.99032;fill-opacity:1"
     sodipodi:nodetypes="cccccccccccccccccccccccccccccccccc" />
  <path
     d="M 61,17 47,3 h 4 l 10,10 z"
     fill-opacity="1.0"
     id="path28942-8-8"
     style="fill:#000000;fill-opacity:1;stroke-width:1.34206"
     sodipodi:nodetypes="ccccc" />
</svg>
