<?xml version="1.0" encoding="UTF-8" standalone="no"?>
<!-- Created with Inkscape (http://www.inkscape.org/) -->

<svg
   width="64"
   height="64"
   version="1.1"
   viewBox="0 0 64 64"
   id="svg22"
   sodipodi:docname="brave.svg"
   inkscape:version="1.2.1 (9c6d41e410, 2022-07-14)"
   xmlns:inkscape="http://www.inkscape.org/namespaces/inkscape"
   xmlns:sodipodi="http://sodipodi.sourceforge.net/DTD/sodipodi-0.dtd"
   xmlns:xlink="http://www.w3.org/1999/xlink"
   xmlns="http://www.w3.org/2000/svg"
   xmlns:svg="http://www.w3.org/2000/svg">
  <sodipodi:namedview
     id="namedview24"
     pagecolor="#ffffff"
     bordercolor="#666666"
     borderopacity="1.0"
     inkscape:showpageshadow="2"
     inkscape:pageopacity="0.0"
     inkscape:pagecheckerboard="0"
     inkscape:deskcolor="#d1d1d1"
     showgrid="false"
     inkscape:zoom="3.6875"
     inkscape:cx="19.525424"
     inkscape:cy="-11.254237"
     inkscape:window-width="1920"
     inkscape:window-height="1000"
     inkscape:window-x="0"
     inkscape:window-y="0"
     inkscape:window-maximized="1"
     inkscape:current-layer="svg22" />
  <defs
     id="defs12">
    <linearGradient
       id="linearGradient1005-3-3"
       x1="5.2535"
       x2="9.3823996"
       y1="15.383"
       y2="2.9421"
       gradientTransform="matrix(0.99999,0,0,0.99999,1.632,-0.61743)"
       gradientUnits="userSpaceOnUse">
      <stop
         stop-color="#fa8200"
         offset="0"
         id="stop2" />
      <stop
         stop-color="#ff9600"
         offset=".36953"
         id="stop4" />
      <stop
         stop-color="#ffb400"
         offset="1"
         id="stop6" />
    </linearGradient>
    <filter
       id="filter4014"
       x="-0.062499932"
       y="-0.057692992"
       width="1.1249999"
       height="1.115386"
       color-interpolation-filters="sRGB">
      <feGaussianBlur
         stdDeviation="1.093751"
         id="feGaussianBlur9" />
    </filter>
    <linearGradient
       id="SVGID_1_"
       gradientUnits="userSpaceOnUse"
       x1="24.837999"
       y1="33.653999"
       x2="46.732201"
       y2="55.548199"
       gradientTransform="translate(2,-0.98431902)">
      <stop
         offset="0.3569"
         style="stop-color:#EF6B2E"
         id="stop366" />
      <stop
         offset="0.6328"
         style="stop-color:#F19F00"
         id="stop368" />
    </linearGradient>
    <linearGradient
       id="SVGID_2_"
       gradientUnits="userSpaceOnUse"
       x1="24.858801"
       y1="30.3876"
       x2="46.752998"
       y2="8.4933004"
       gradientTransform="translate(2,-0.98431902)">
      <stop
         offset="0.3707"
         style="stop-color:#16B8C3"
         id="stop375" />
      <stop
         offset="0.7422"
         style="stop-color:#02AEF0"
         id="stop377" />
    </linearGradient>
    <linearGradient
       inkscape:collect="always"
       xlink:href="#linearGradient1005-3-3"
       id="linearGradient2385"
       x1="2.9999981"
       y1="61"
       x2="61.000004"
       y2="3"
       gradientUnits="userSpaceOnUse" />
    <filter
       id="filter4273"
       x="-0.062499932"
       y="-0.057692992"
       width="1.1249999"
       height="1.115386"
       color-interpolation-filters="sRGB">
      <feGaussianBlur
         stdDeviation="1.093751"
         id="feGaussianBlur7" />
    </filter>
    <linearGradient
       id="b"
       x2="0"
       y1="33"
       y2="7.3098998"
       gradientTransform="matrix(1.5594809,0,0,1.5594809,49.860034,-93.132387)"
       gradientUnits="userSpaceOnUse">
      <stop
         stop-color="#ace6fb"
         offset="0"
         id="stop10" />
      <stop
         stop-color="#fff"
         offset="1"
         id="stop12" />
    </linearGradient>
    <filter
       id="filter4014-2"
       x="-0.062499932"
       y="-0.057692992"
       width="1.1249999"
       height="1.115386"
       color-interpolation-filters="sRGB">
      <feGaussianBlur
         stdDeviation="1.093751"
         id="feGaussianBlur9-9" />
    </filter>
  </defs>
  <path
     d="M 2.999998,10.25 C 2.999998,6.245825 6.245937,3 10.249999,3 h 43.500003 c 4.004173,0 7.25,3.245825 7.25,7.25 v 43.5 c 0,4.004173 -3.245827,7.25 -7.25,7.25 H 10.249999 C 6.245937,61 2.999998,57.754173 2.999998,53.75 Z"
     id="path736"
     style="fill:#606c86;fill-opacity:1;stroke-width:3.625" />
  <path
     d="M 2.999998,9.796875 C 2.999998,6.043188 6.245937,3 10.249999,3 h 43.500003 c 4.004173,0 7.25,3.043188 7.25,6.796875 v 40.781249 c 0,3.753693 -3.245827,6.796876 -7.25,6.796876 H 10.249999 c -4.004062,0 -7.25,-3.043183 -7.25,-6.796876 z"
     id="path738"
     style="fill:url(#linearGradient2385);fill-opacity:1;stroke-width:3.625" />
  <path
     transform="matrix(0.99358603,0,0,0.99358603,0.20478924,-1.6073625)"
     d="m 25,9.25 c -0.875,0 -3.9375,3.5 -4.375,3.5 h -2.1875 c -0.875,0 -3.9375,3.0625 -3.9375,3.9375 v 2.625 c 0,0.4375 -3.4808,3.5 -3.5,4.375 -0.0192,0.875 6.125,21.438 7,22.312 0.875,0.874 10.5,8.75 13.125,8.75 h 1.75 c 2.625,0 12.25,-7.875 13.125,-8.75 0.875,-0.875 7.0175,-21.438 7,-22.312 -0.01925,-0.86975 -3.5,-3.9375 -3.5,-4.375 v -2.625 C 49.5,15.8125 46.4375,12.75 45.5625,12.75 H 43.375 c -0.4375,0 -3.5,-3.5 -4.375,-3.5 z m 7,6.1113 c 0.875,0 1.7395,0.29892 2.625,0.88867 2.625,1.75 6.125,-0.875 7,-0.875 0.875,0 6.125,6.3752 6.125,8.75 0,1.75 -6.5625,5.775 -6.5625,7 0,0.875 1.3125,1.2973 1.3125,3.1523 0,1.2232 -1.75,3.4102 -3.5,3.4102 -1.75,0 -6.1285,-3.4347 -6.125,-4.2852 v -0.52734 c 0,-1.05 3.9375,-2.373 3.9375,-4.375 0,-1.75 -1.3125,-2.3975 -1.3125,-4.375 0,-1.701 3.5,-2.1875 6.125,-2.625 0.875,0 -2.625,-2.8791 -7.4375,0.23242 -1.218,0.7875 1.3125,3.9011 0.875,6.7676 -0.65625,0.6125 -1.8585,0.91992 -3.0625,0.91992 -1.2022,0 -2.4062,-0.30742 -3.0625,-0.91992 -0.4375,-2.8665 2.093,-5.9801 0.875,-6.7676 C 25,18.62085 21.5,21.49993 22.375,21.49993 c 2.625,0.4375 6.125,0.924 6.125,2.625 0,1.9775 -1.3125,2.625 -1.3125,4.375 0,2.002 3.9375,3.325 3.9375,4.375 v 0.52734 c 0.0035,0.8505 -4.375,4.2852 -6.125,4.2852 -1.75,0 -3.5,-2.1869 -3.5,-3.4102 0,-1.8568 1.3125,-2.2773 1.3125,-3.1523 0,-1.225 -6.5625,-5.25 -6.5625,-7 0,-2.3748 5.25,-8.75 6.125,-8.75 0.875,0 4.375,2.625 7,0.875 C 30.2605,15.66022 31.1285,15.3613 32,15.3613 Z m 0,20.84 c 1.75,0 5.6875,2.7113 5.6875,3.2363 0,0.525 -3.9375,4.8125 -5.6875,4.8125 -1.75,0 -5.6875,-4.2875 -5.6875,-4.8125 0,-0.525 3.9375,-3.2363 5.6875,-3.2363 z"
     fill="#f04b00"
     filter="url(#filter4014)"
     id="path16-1"
     style="filter:url(#filter4014-2)" />
  <path
     d="m 25.04485,7.5832585 c -0.869337,0 -3.912316,3.4775945 -4.347169,3.4775945 h -2.173549 c -0.869366,0 -3.912292,3.04295 -3.912292,3.912333 v 2.608155 c 0,0.434764 -3.458532,3.477596 -3.477564,4.347206 -0.01919,0.869554 6.085872,21.300619 6.955218,22.169222 0.869399,0.868431 10.432823,8.693972 13.041255,8.693972 h 1.738706 c 2.608185,0 12.171577,-7.824615 13.041089,-8.693972 0.869243,-0.869401 6.972664,-21.300627 6.955187,-22.169222 -0.01813,-0.864165 -3.477438,-3.912294 -3.477438,-4.347206 v -2.608155 c 0,-0.869383 -3.042959,-3.912333 -3.912202,-3.912333 h -2.173548 c -0.434689,0 -3.477831,-3.4775945 -4.347187,-3.4775945 z m 6.955132,6.0720115 c 0.869668,0 1.728369,0.297004 2.608443,0.882977 2.608186,1.738839 6.085944,-0.869376 6.955187,-0.869376 0.869193,0 6.085932,6.3345 6.085932,8.693973 0,1.738782 -6.520364,5.738167 -6.520364,6.955276 0,0.869379 1.303863,1.288972 1.303863,3.132093 0,1.215376 -1.738531,3.388395 -3.477461,3.388395 -1.738715,0 -6.089408,-3.412693 -6.08579,-4.257795 v -0.523995 c 0,-1.04327 3.912284,-2.357824 3.912284,-4.347146 0,-1.738842 -1.304263,-2.382212 -1.304263,-4.347218 0,-1.690131 3.477676,-2.173474 6.085965,-2.608175 0.869265,0 -2.608196,-2.860634 -7.389959,0.230936 -1.210202,0.782431 1.30419,3.876246 0.869717,6.724272 -0.652012,0.608598 -1.84663,0.914079 -3.043182,0.914079 -1.194145,0 -2.390687,-0.305476 -3.042709,-0.914079 -0.434761,-2.848116 2.079393,-5.941642 0.869203,-6.724272 -4.781549,-3.091556 -8.258989,-0.230905 -7.389632,-0.230905 2.608188,0.434709 6.086036,0.918102 6.086036,2.60815 0,1.964859 -1.304344,2.608224 -1.304344,4.347215 0,1.989149 3.912375,3.303675 3.912375,4.347146 v 0.523995 c 0.002,0.845065 -4.347064,4.257795 -6.085879,4.257795 -1.738747,0 -3.477565,-2.172907 -3.477565,-3.388393 0,-1.844911 1.30414,-2.262716 1.30414,-3.132095 0,-1.217161 -6.520429,-5.216576 -6.520429,-6.955276 0,-2.35956 5.21657,-8.693974 6.085936,-8.693974 0.869336,0 4.347134,2.608215 6.955072,0.869376 0.880013,-0.58597 1.742594,-0.882976 2.608134,-0.882976 z m 0,20.706525 c 1.738758,0 5.651091,2.693944 5.651091,3.21558 0,0.521683 -3.912396,4.78167 -5.651091,4.78167 -1.73891,0 -5.650789,-4.260036 -5.650789,-4.78167 0,-0.521636 3.912396,-3.21558 5.650789,-3.21558 z"
     fill="#ffffff"
     stroke-width="0.993557"
     id="path18-2" />
</svg>
