<?xml version="1.0" encoding="UTF-8" standalone="no"?>
<svg
   width="64"
   height="64"
   version="1.1"
   id="svg23"
   sodipodi:docname="brave-nightly.svg"
   inkscape:version="1.2.1 (9c6d41e410, 2022-07-14)"
   xmlns:inkscape="http://www.inkscape.org/namespaces/inkscape"
   xmlns:sodipodi="http://sodipodi.sourceforge.net/DTD/sodipodi-0.dtd"
   xmlns:xlink="http://www.w3.org/1999/xlink"
   xmlns="http://www.w3.org/2000/svg"
   xmlns:svg="http://www.w3.org/2000/svg">
  <sodipodi:namedview
     id="namedview25"
     pagecolor="#ffffff"
     bordercolor="#666666"
     borderopacity="1.0"
     inkscape:showpageshadow="2"
     inkscape:pageopacity="0.0"
     inkscape:pagecheckerboard="0"
     inkscape:deskcolor="#d1d1d1"
     showgrid="false"
     inkscape:zoom="3.6875"
     inkscape:cx="19.79661"
     inkscape:cy="32.135593"
     inkscape:window-width="1920"
     inkscape:window-height="1000"
     inkscape:window-x="0"
     inkscape:window-y="0"
     inkscape:window-maximized="1"
     inkscape:current-layer="svg23" />
  <defs
     id="defs15">
    <filter
       id="filter4014"
       x="-0.062499932"
       y="-0.057692992"
       width="1.1249999"
       height="1.115386"
       color-interpolation-filters="sRGB">
      <feGaussianBlur
         stdDeviation="1.093751"
         id="feGaussianBlur2" />
    </filter>
    <linearGradient
       id="linearGradient2614"
       x1="32.063999"
       x2="32.063999"
       y1="60.09"
       y2="5.2599001"
       gradientTransform="matrix(0.6999767,0,0,0.6999767,103.91422,-43.399525)"
       gradientUnits="userSpaceOnUse">
      <stop
         stop-color="#5a00a0"
         offset="0"
         id="stop5" />
      <stop
         stop-color="#8c05eb"
         offset="1"
         id="stop7" />
    </linearGradient>
    <linearGradient
       id="linearGradient4202"
       x1="32.198002"
       x2="32.198002"
       y1="10.2"
       y2="51.834"
       gradientUnits="userSpaceOnUse"
       gradientTransform="matrix(0.99356591,0,0,0.99356591,-89.992191,-71.943195)">
      <stop
         stop-color="#fff"
         offset="0"
         id="stop10" />
      <stop
         stop-color="#dfb4fe"
         offset="1"
         id="stop12" />
    </linearGradient>
    <linearGradient
       id="SVGID_1_"
       gradientUnits="userSpaceOnUse"
       x1="24.837999"
       y1="33.653999"
       x2="46.732201"
       y2="55.548199"
       gradientTransform="translate(2,-0.98431896)">
      <stop
         offset="0.3569"
         style="stop-color:#EF6B2E"
         id="stop366" />
      <stop
         offset="0.6328"
         style="stop-color:#F19F00"
         id="stop368" />
    </linearGradient>
    <linearGradient
       id="SVGID_2_"
       gradientUnits="userSpaceOnUse"
       x1="24.858801"
       y1="30.3876"
       x2="46.752998"
       y2="8.4933004"
       gradientTransform="translate(2,-0.98431896)">
      <stop
         offset="0.3707"
         style="stop-color:#16B8C3"
         id="stop375" />
      <stop
         offset="0.7422"
         style="stop-color:#02AEF0"
         id="stop377" />
    </linearGradient>
    <linearGradient
       inkscape:collect="always"
       xlink:href="#linearGradient2614"
       id="linearGradient4277"
       x1="5.4567461"
       y1="55.677647"
       x2="58.859821"
       y2="5.1067433"
       gradientUnits="userSpaceOnUse" />
    <filter
       id="filter4014-2"
       x="-0.062499932"
       y="-0.057692992"
       width="1.1249999"
       height="1.115386"
       color-interpolation-filters="sRGB">
      <feGaussianBlur
         stdDeviation="1.093751"
         id="feGaussianBlur2-6" />
    </filter>
    <linearGradient
       inkscape:collect="always"
       xlink:href="#linearGradient4202"
       id="linearGradient4343"
       gradientUnits="userSpaceOnUse"
       gradientTransform="matrix(0.99356591,0,0,0.99356591,0.20726844,-1.0933138)"
       x1="32.198002"
       y1="10.2"
       x2="32.198002"
       y2="51.834" />
  </defs>
  <path
     d="M 2.999998,10.25 C 2.999998,6.245825 6.245936,3 10.249999,3 h 43.500003 c 4.004173,0 7.25,3.245825 7.25,7.25 v 43.5 c 0,4.004173 -3.245827,7.25 -7.25,7.25 H 10.249999 C 6.245936,61 2.999998,57.754173 2.999998,53.75 Z"
     id="path736"
     style="fill:#606c86;fill-opacity:1;stroke-width:3.625" />
  <path
     d="M 2.999998,9.796875 C 2.999998,6.043188 6.245936,3 10.249999,3 h 43.500003 c 4.004173,0 7.25,3.043188 7.25,6.796875 v 40.781249 c 0,3.753693 -3.245827,6.796876 -7.25,6.796876 H 10.249999 c -4.004063,0 -7.25,-3.043183 -7.25,-6.796876 z"
     id="path738"
     style="fill:url(#linearGradient4277);fill-opacity:1;stroke-width:3.625" />
  <path
     d="m 25.000283,9.2479209 c -0.875,0 -3.9375,3.5000001 -4.375,3.5000001 h -2.1875 c -0.875,0 -3.9375,3.0625 -3.9375,3.9375 v 2.625 c 0,0.4375 -3.4808,3.5 -3.5,4.375 -0.0192,0.875 6.125,21.438 7,22.312 0.875,0.874 10.5,8.75 13.125,8.75 h 1.75 c 2.625,0 12.25,-7.875 13.125,-8.75 0.875,-0.875 7.0175,-21.438 7,-22.312 -0.01925,-0.86975 -3.5,-3.9375 -3.5,-4.375 v -2.625 c 0,-0.875 -3.0625,-3.9375 -3.9375,-3.9375 h -2.1875 c -0.4375,0 -3.5,-3.5000001 -4.375,-3.5000001 z m 7,6.1113001 c 0.875,0 1.7395,0.29892 2.625,0.88867 2.625,1.75 6.125,-0.875 7,-0.875 0.875,0 6.125,6.3752 6.125,8.75 0,1.75 -6.5625,5.775 -6.5625,7 0,0.875 1.3125,1.2973 1.3125,3.1523 0,1.2232 -1.75,3.4102 -3.5,3.4102 -1.75,0 -6.1285,-3.4347 -6.125,-4.2852 v -0.52734 c 0,-1.05 3.9375,-2.373 3.9375,-4.375 0,-1.75 -1.3125,-2.3975 -1.3125,-4.375 0,-1.701 3.5,-2.1875 6.125,-2.625 0.875,0 -2.625,-2.8791 -7.4375,0.23242 -1.218,0.7875 1.3125,3.9011 0.875,6.7676 -0.65625,0.6125 -1.8585,0.91992 -3.0625,0.91992 -1.2022,0 -2.4062,-0.30742 -3.0625,-0.91992 -0.4375,-2.8665 2.093,-5.9801 0.875,-6.7676 -4.8125,-3.1115 -8.3125,-0.23242 -7.4375,-0.23242 2.625,0.4375 6.125,0.924 6.125,2.625 0,1.9775 -1.3125,2.625 -1.3125,4.375 0,2.002 3.9375,3.325 3.9375,4.375 v 0.52734 c 0.0035,0.8505 -4.375,4.2852 -6.125,4.2852 -1.75,0 -3.5,-2.1869 -3.5,-3.4102 0,-1.8568 1.3125,-2.2773 1.3125,-3.1523 0,-1.225 -6.5625,-5.25 -6.5625,-7 0,-2.3748 5.25,-8.75 6.125,-8.75 0.875,0 4.375,2.625 7,0.875 0.8855,-0.58975 1.7535,-0.88867 2.625,-0.88867 z m 0,20.84 c 1.75,0 5.6875,2.7113 5.6875,3.2363 0,0.525 -3.9375,4.8125 -5.6875,4.8125 -1.75,0 -5.6875,-4.2875 -5.6875,-4.8125 0,-0.525 3.9375,-3.2363 5.6875,-3.2363 z"
     fill="#390066"
     filter="url(#filter4014)"
     id="path19-7"
     transform="matrix(0.99356632,0,0,0.99356632,0.20728244,-1.0933088)"
     style="filter:url(#filter4014-2)" />
  <path
     d="m 25.045453,8.0952862 c -0.869405,0 -3.912285,3.4775848 -4.347193,3.4775848 h -2.173495 c -0.869404,0 -3.912267,3.04288 -3.912267,3.912274 v 2.608097 c 0,0.434695 -3.458509,3.477585 -3.47757,4.347143 -0.01928,0.869409 6.085779,21.300056 6.955122,22.169449 0.869379,0.86861 10.432465,8.693896 13.040587,8.693896 h 1.73872 c 2.608136,0 12.171201,-7.824538 13.040559,-8.693896 0.869412,-0.869408 6.972457,-21.300053 6.955164,-22.169449 -0.01925,-0.864143 -3.477589,-3.912277 -3.477589,-4.347143 v -2.608097 c 0,-0.869408 -3.04286,-3.912274 -3.912256,-3.912274 h -2.173511 c -0.434719,0 -3.477588,-3.4775848 -4.34716,-3.4775848 z m 6.955134,6.0718758 c 0.869396,0 1.728333,0.296995 2.608127,0.882996 2.608099,1.738711 6.085767,-0.869402 6.955139,-0.869402 0.869399,0 6.085801,6.334366 6.085801,8.693907 0,1.738751 -6.520261,5.738029 -6.520261,6.955146 0,0.869392 1.304052,1.288983 1.304052,3.132141 0,1.215305 -1.738768,3.388354 -3.477579,3.388354 -1.738859,0 -6.089167,-3.412704 -6.085776,-4.257724 v -0.523952 c 0,-1.043247 3.912243,-2.357821 3.912243,-4.347147 0,-1.738741 -1.304066,-2.382164 -1.304066,-4.347144 0,-1.69008 3.477599,-2.17354 6.085799,-2.608138 0.869412,0 -2.608114,-2.860675 -7.389643,0.230929 -1.21016,0.782454 1.304068,3.876217 0.869405,6.724257 -0.652052,0.60858 -1.846571,0.914071 -3.042904,0.914071 -1.194459,0 -2.39074,-0.305483 -3.042913,-0.914071 -0.434697,-2.848135 2.079539,-5.941604 0.86939,-6.724257 -4.781642,-3.091583 -8.258998,-0.230929 -7.389627,-0.230929 2.60809,0.434742 6.085775,0.918119 6.085775,2.608138 0,1.964784 -1.304067,2.608095 -1.304067,4.347144 0,1.989215 3.912278,3.303708 3.912278,4.347147 v 0.523952 c 0.002,0.845034 -4.347148,4.257724 -6.085779,4.257724 -1.738667,0 -3.477578,-2.17294 -3.477578,-3.388354 0,-1.844881 1.304044,-2.262763 1.304044,-3.132141 0,-1.217117 -6.52028,-5.216395 -6.52028,-6.955146 0,-2.359541 5.216405,-8.693907 6.085792,-8.693907 0.869355,0 4.347152,2.608094 6.955175,0.869402 0.879812,-0.585994 1.742196,-0.882996 2.608096,-0.882996 z m 0,20.705907 c 1.73874,0 5.650908,2.693872 5.650908,3.215587 0,0.521663 -3.912264,4.781637 -5.650908,4.781637 -1.738713,0 -5.650918,-4.259996 -5.650918,-4.781637 0,-0.521592 3.912284,-3.215587 5.650918,-3.215587 z"
     fill="url(#linearGradient4202)"
     id="path21-9"
     style="fill:url(#linearGradient4343);stroke-width:0.99355" />
</svg>
