<?xml version="1.0" encoding="UTF-8" standalone="no"?>
<svg
   width="64"
   height="64"
   version="1.1"
   id="svg22"
   sodipodi:docname="distributor-logo-Tumbleweed.svg"
   inkscape:version="1.2.2 (b0a8486541, 2022-12-01)"
   xmlns:inkscape="http://www.inkscape.org/namespaces/inkscape"
   xmlns:sodipodi="http://sodipodi.sourceforge.net/DTD/sodipodi-0.dtd"
   xmlns="http://www.w3.org/2000/svg"
   xmlns:svg="http://www.w3.org/2000/svg"
   xmlns:rdf="http://www.w3.org/1999/02/22-rdf-syntax-ns#"
   xmlns:cc="http://creativecommons.org/ns#"
   xmlns:dc="http://purl.org/dc/elements/1.1/">
  <sodipodi:namedview
     pagecolor="#ffffff"
     bordercolor="#666666"
     borderopacity="1"
     objecttolerance="10"
     gridtolerance="10"
     guidetolerance="10"
     inkscape:pageopacity="0"
     inkscape:pageshadow="2"
     inkscape:window-width="1920"
     inkscape:window-height="1000"
     id="namedview24"
     showgrid="false"
     inkscape:zoom="4.5906698"
     inkscape:cx="-16.010736"
     inkscape:cy="34.526552"
     inkscape:window-x="0"
     inkscape:window-y="0"
     inkscape:window-maximized="1"
     inkscape:current-layer="svg22"
     inkscape:showpageshadow="2"
     inkscape:pagecheckerboard="0"
     inkscape:deskcolor="#d1d1d1" />
  <metadata
     id="metadata2">
    <rdf:RDF>
      <cc:Work
         rdf:about="">
        <dc:format>image/svg+xml</dc:format>
        <dc:type
           rdf:resource="http://purl.org/dc/dcmitype/StillImage" />
      </cc:Work>
    </rdf:RDF>
  </metadata>
  <defs
     id="defs14">
    <filter
       id="filter2761"
       x="-.024"
       y="-.024"
       width="1.048"
       height="1.048"
       color-interpolation-filters="sRGB">
      <feGaussianBlur
         stdDeviation="0.14552168"
         id="feGaussianBlur4" />
    </filter>
    <linearGradient
       id="linearGradient4673"
       x1="1.2573"
       x2="15.644"
       y1="15.429"
       y2="1.1082"
       gradientTransform="matrix(3.7796,0,0,3.7796,-98.960821,0.53085)"
       gradientUnits="userSpaceOnUse">
      <stop
         stop-color="#16ff6c"
         offset="0"
         id="stop7" />
      <stop
         stop-color="#28ff61"
         offset=".47728"
         id="stop9" />
      <stop
         stop-color="#9fff1b"
         offset="1"
         id="stop11" />
    </linearGradient>
    <linearGradient
       id="linearGradient3764"
       x1="1"
       x2="47"
       gradientUnits="userSpaceOnUse"
       gradientTransform="rotate(-90,23.999998,24)">
      <stop
         style="stop-color:#43cd50;stop-opacity:1"
         id="stop2" />
      <stop
         offset="1"
         style="stop-color:#54d160;stop-opacity:1"
         id="stop4" />
    </linearGradient>
    <style
       type="text/css"
       id="style876" />
    <style
       type="text/css"
       id="style878" />
    <style
       type="text/css"
       id="style880" />
    <style
       type="text/css"
       id="style882" />
    <filter
       id="filter1057"
       x="-0.026999999"
       y="-0.026999999"
       width="1.054"
       height="1.054"
       color-interpolation-filters="sRGB">
      <feGaussianBlur
         stdDeviation="0.61875"
         id="feGaussianBlur884" />
    </filter>
    <linearGradient
       id="linearGradient1053"
       x1="-127"
       x2="-72"
       y1="60"
       y2="5"
       gradientTransform="translate(131.5,-0.51)"
       gradientUnits="userSpaceOnUse">
      <stop
         stop-color="#02db96"
         offset="0"
         id="stop887"
         style="stop-color:#14ff6e;stop-opacity:1" />
      <stop
         stop-color="#13d39b"
         offset="1"
         id="stop889"
         style="stop-color:#a0ff1e;stop-opacity:1" />
    </linearGradient>
    <style
       type="text/css"
       id="style892" />
    <style
       type="text/css"
       id="style894" />
    <style
       type="text/css"
       id="style896" />
    <linearGradient
       id="a-367"
       gradientUnits="userSpaceOnUse"
       x1="23"
       x2="37"
       y1="20"
       y2="34"
       gradientTransform="matrix(1.9622547,0,0,1.9622547,-116.93982,-48.178796)">
      <stop
         offset="0"
         stop-color="#292c2f"
         id="stop246" />
      <stop
         offset="1"
         stop-opacity="0"
         id="stop248" />
    </linearGradient>
    <linearGradient
       id="c-53"
       gradientTransform="matrix(2.0428665,-6.8308524,5.7819337,2.3633129,25.219113,34.652812)"
       gradientUnits="userSpaceOnUse"
       x1="24"
       x2="24"
       y1="35"
       y2="13">
      <stop
         offset="0"
         stop-color="#23a2cd"
         id="stop256" />
      <stop
         offset=".53"
         stop-color="#00b8f5"
         id="stop258" />
      <stop
         offset="1"
         stop-color="#2ecbff"
         id="stop260" />
    </linearGradient>
  </defs>
  <circle
     cx="-1330.8"
     cy="-1261.2"
     r="0"
     fill="#5e4aa6"
     id="circle908" />
  <circle
     cx="-1336.4259"
     cy="-1272.89"
     r="0"
     id="circle910"
     style="fill:#5e4aa6" />
  <circle
     cx="-236.87599"
     cy="-7.4350004"
     r="0"
     fill-rule="evenodd"
     id="circle912"
     style="fill:#5e4aa6" />
  <circle
     cx="-1336.4259"
     cy="-1272.89"
     r="0"
     id="circle914"
     style="fill:#5e4aa6" />
  <circle
     cx="-236.87599"
     cy="-7.4350004"
     r="0"
     fill-rule="evenodd"
     id="circle916"
     style="fill:#5e4aa6" />
  <circle
     cx="-1238.626"
     cy="-1287.89"
     r="0"
     id="circle918"
     style="fill:#5e4aa6" />
  <circle
     cx="-139.05299"
     cy="-22.4156"
     r="0"
     fill-rule="evenodd"
     id="circle920"
     style="fill:#5e4aa6" />
  <g
     transform="matrix(3.7796,0,0,3.7796,80.134,-26.68)"
     stroke-width="0.26458"
     id="g950"
     style="fill:#5e4aa6">
    <g
       transform="translate(-0.0272,0.0065001)"
       id="g938">
      <circle
         cx="-330.35001"
         cy="-328.38"
         r="0"
         id="circle922" />
      <circle
         cx="-312.10999"
         cy="-326.25"
         r="0"
         id="circle924" />
      <circle
         cx="-306.01999"
         cy="-333.07001"
         r="0"
         id="circle926" />
      <circle
         cx="-308.84"
         cy="-326.01001"
         r="0"
         id="circle928" />
      <circle
         cx="-330.35001"
         cy="-328.38"
         r="0"
         id="circle930" />
      <circle
         cx="-312.10999"
         cy="-326.25"
         r="0"
         id="circle932" />
      <circle
         cx="-306.01999"
         cy="-333.07001"
         r="0"
         id="circle934" />
      <circle
         cx="-308.84"
         cy="-326.01001"
         r="0"
         id="circle936" />
    </g>
    <g
       transform="translate(-0.02705,0.0064503)"
       id="g948">
      <circle
         cx="-330.35001"
         cy="-328.38"
         r="0"
         id="circle940" />
      <circle
         cx="-312.10999"
         cy="-326.25"
         r="0"
         id="circle942" />
      <circle
         cx="-306.01999"
         cy="-333.07001"
         r="0"
         id="circle944" />
      <circle
         cx="-308.84"
         cy="-326.01001"
         r="0"
         id="circle946" />
    </g>
  </g>
  <path
     d="M 2.9999985,10.25 C 2.9999985,6.245825 6.2459365,3 10.25,3 h 43.500002 c 4.004174,0 7.25,3.245825 7.25,7.25 v 43.5 c 0,4.004173 -3.245827,7.25 -7.25,7.25 H 10.25 C 6.2459365,61 2.9999985,57.754173 2.9999985,53.75 Z"
     id="path736"
     style="fill:#606c86;fill-opacity:1;stroke-width:3.625" />
  <path
     d="M 2.9999985,9.796875 C 2.9999985,6.043188 6.2459365,3 10.25,3 h 43.500002 c 4.004174,0 7.25,3.043188 7.25,6.796875 v 40.781249 c 0,3.753693 -3.245827,6.796876 -7.25,6.796876 H 10.25 c -4.0040635,0 -7.2500015,-3.043183 -7.2500015,-6.796876 z"
     id="path738"
     style="fill:#3b4252;fill-opacity:1;stroke-width:3.625" />
  <path
     fill="#35b9ab"
     d="m 45.993786,18.594 c -2.394077,0 -4.7216,0.691846 -6.794393,1.873198 -2.016057,1.148274 -3.773016,2.7061 -5.337975,4.407606 a 38.085321,38.085319 0 0 0 -1.783692,2.092964 60.389112,60.389112 0 0 0 -1.599862,2.120129 c -0.26456,0.364473 -0.527469,0.729986 -0.79093,1.095852 -0.52529,0.729811 -1.05985,1.460147 -1.67133,2.121346 a 46.770269,46.770269 0 0 1 -1.74224,1.785269 c -1.48586,1.44395 -3.07154,2.816501 -4.82304,3.930114 -1.38495,0.880438 -3.005,1.719432 -4.68667,1.719432 -4.50941,0 -8.5518695,-3.575566 -8.5518695,-9.017729 0,-5.441634 3.8870205,-8.395883 8.5518695,-8.395883 2.70277,0 5.09255,1.153137 7.41132,3.148418 l -1.24097,1.276428 3.035,0.767073 3.03446,0.766732 -0.85313,-3.011545 -0.85313,-3.011532 -1.35765,1.396934 c -2.37225,-2.121876 -5.32052,-3.820418 -9.02047,-3.820418 -6.06452,0 -11.0397695,4.353448 -11.0397695,11.039299 0,6.374843 4.9752495,11.038601 10.5734095,11.038601 2.31604,0 4.55854,-0.689934 6.54672,-1.860666 1.78263,-1.050913 3.33884,-2.437059 4.76743,-3.924191 0.4822,-0.501347 0.95077,-1.01557 1.41603,-1.532068 0.60276,-0.670253 1.16896,-1.335289 1.67406,-2.096274 l 0.66602,-1.002512 c 0.408559,-0.614704 0.786025,-1.224015 1.224042,-1.821829 0.806751,-1.101944 1.652225,-2.176549 2.562068,-3.194907 1.526235,-1.708987 3.255371,-3.299048 5.292709,-4.377829 1.616225,-0.855888 3.40482,-1.335294 5.236518,-1.335294 6.375464,0 9.95102,4.431296 9.95102,10.106274 0,5.286648 -3.420647,9.640101 -9.329184,9.640101 -3.377003,0 -6.337823,-0.915792 -9.456829,-3.61249 l 1.444958,-1.757056 -3.087366,-0.513182 -3.087911,-0.513362 1.099121,2.930744 1.100216,2.93074 1.227856,-1.49236 c 3.022449,2.719858 6.317636,4.514873 10.604495,4.514873 7.151668,0 11.815989,-5.442156 11.815989,-12.283341 0,-7.152368 -4.819234,-12.127659 -12.126907,-12.127659"
     id="path233"
     style="stroke-width:0.408139" />
</svg>
