<?xml version="1.0" encoding="UTF-8" standalone="no"?>
<svg
   width="64"
   height="64"
   viewBox="0 0 64 64"
   version="1.1"
   id="svg3164"
   sodipodi:docname="distributor-logo-deepin.svg"
   inkscape:version="1.2.2 (b0a8486541, 2022-12-01)"
   xmlns:inkscape="http://www.inkscape.org/namespaces/inkscape"
   xmlns:sodipodi="http://sodipodi.sourceforge.net/DTD/sodipodi-0.dtd"
   xmlns:xlink="http://www.w3.org/1999/xlink"
   xmlns="http://www.w3.org/2000/svg"
   xmlns:svg="http://www.w3.org/2000/svg">
  <defs
     id="defs3168">
    <linearGradient
       inkscape:collect="always"
       xlink:href="#linearGradient22063"
       id="linearGradient22065"
       x1="-14.665316"
       y1="5"
       x2="-14.767903"
       y2="-9.999999"
       gradientUnits="userSpaceOnUse"
       gradientTransform="matrix(3.6250002,0,0,3.6250002,82.750004,39.249999)" />
    <linearGradient
       inkscape:collect="always"
       id="linearGradient22063">
      <stop
         style="stop-color:#292f3a;stop-opacity:1;"
         offset="0"
         id="stop22059" />
      <stop
         style="stop-color:#8e98af;stop-opacity:1;"
         offset="1"
         id="stop22061" />
    </linearGradient>
  </defs>
  <sodipodi:namedview
     id="namedview3166"
     pagecolor="#ffffff"
     bordercolor="#000000"
     borderopacity="0.25"
     inkscape:showpageshadow="2"
     inkscape:pageopacity="0.0"
     inkscape:pagecheckerboard="0"
     inkscape:deskcolor="#d1d1d1"
     showgrid="false"
     inkscape:zoom="4.9166667"
     inkscape:cx="-18.508474"
     inkscape:cy="73.322033"
     inkscape:window-width="1920"
     inkscape:window-height="1000"
     inkscape:window-x="0"
     inkscape:window-y="0"
     inkscape:window-maximized="1"
     inkscape:current-layer="svg3164" />
  <path
     d="M 3,10.25 C 3,6.245825 6.24594,3 10.25,3 h 43.5 C 57.75417,3 61,6.245825 61,10.25 v 43.5 C 61,57.754173 57.75417,61 53.75,61 H 10.25 C 6.24594,61 3,57.754173 3,53.75 Z"
     id="path736"
     style="display:inline;fill:#606c86;fill-opacity:1;stroke-width:3.625;enable-background:new" />
  <path
     d="M 3,9.796875 C 3,6.043188 6.24594,3 10.25,3 h 43.5 C 57.75417,3 61,6.043188 61,9.796875 V 50.578124 C 61,54.331817 57.75417,57.375 53.75,57.375 H 10.25 C 6.24594,57.375 3,54.331817 3,50.578124 Z"
     id="path738"
     style="display:inline;fill:url(#linearGradient22065);fill-opacity:1;stroke-width:3.625;enable-background:new" />
  <g
     id="g1511"
     transform="matrix(1.0952381,0,0,1.0952381,-3.0476192,-2.8750002)">
    <path
       style="fill:#3485fd;fill-opacity:1;fill-rule:nonzero;stroke:none;stroke-width:0.961941"
       d="M 42.498683,12.004561 C 52.542701,17.80251 55.980888,30.642167 50.182939,40.686183 44.38499,50.730201 31.545333,54.168388 21.501317,48.370439 11.457299,42.57249 8.0191118,29.732833 13.817061,19.688817 19.61501,9.6447995 32.454667,6.2066118 42.498683,12.004561 Z m 0,0"
       id="path3159" />
    <path
       style="fill:#f5f5f5;fill-opacity:1;fill-rule:evenodd;stroke:none;stroke-width:0.961941"
       d="m 25.683505,47.205588 c -1.131033,-0.417092 -2.186913,-0.943152 -3.182672,-1.544365 4.948735,0.383273 11.404261,-0.759032 15.759298,-4.836008 0,0 8.300499,-6.632133 2.295883,-17.517848 0,0 0.969456,4.388856 -0.266788,7.996135 0,0 -1.176124,5.076493 -6.410435,6.500617 -7.703043,2.100487 -16.484512,-3.460734 -20.155669,-6.076011 -0.278061,-2.682913 -0.03382,-5.459766 0.954426,-8.168982 1.457941,-4.013098 4.452734,-7.143163 7.804497,-9.243652 -0.837941,5.861828 -0.176606,11.257715 0.774062,13.51978 1.281336,3.032368 3.250308,6.733587 7.5828,7.188254 4.332492,0.454667 6.722314,-3.768855 6.722314,-3.768855 2.224489,-3.378066 2.570186,-8.229104 2.536368,-8.345589 -0.03382,-0.116485 -0.58994,-0.439638 -0.58994,-0.439638 -1.499275,6.053465 -3.964249,8.078802 -3.964249,8.078802 -3.889097,3.753824 -6.977829,1.067153 -6.977829,1.067153 -2.960976,-3.182672 -0.890548,-8.349346 -0.890548,-8.349346 1.161094,-3.520855 4.873584,-8.59359 8.706318,-11.212625 0.635031,0.157818 1.277577,0.255515 1.908851,0.484728 2.318428,0.845456 4.347523,2.119276 6.064737,3.68243 -2.803155,1.02582 -7.323527,3.18643 -7.323527,3.18643 -7.165708,3.017338 -7.650436,7.5828 -7.650436,7.5828 -0.740245,4.704492 2.991035,2.712974 2.991035,2.712974 3.844005,-1.871276 5.730312,-7.703043 5.730312,-7.703043 -1.198669,-0.229212 -2.141821,0.135273 -2.141821,0.135273 -1.533094,3.783885 -4.66316,5.343282 -4.66316,5.343282 -1.232487,0.650061 -1.518063,-0.499759 -1.518063,-0.499759 -0.206667,-0.864244 0.890548,-1.01079 0.890548,-1.01079 1.705941,-0.661334 2.79564,-2.4537 3.04364,-3.186429 0.244243,-0.732729 0.702668,-0.79285 0.702668,-0.79285 4.264855,-2.776852 10.945836,-0.868001 14.609479,0.890547 1.627033,4.065704 1.882548,8.864136 0.270546,13.30184 -3.475763,9.570562 -14.049599,14.508024 -23.612645,11.024745 z m 0,0"
       id="path3161" />
  </g>
</svg>
