<?xml version="1.0" encoding="UTF-8" standalone="no"?>
<svg
   width="64"
   height="64"
   viewBox="0 0 64 64"
   version="1.1"
   id="svg22024"
   sodipodi:docname="keepassxc-monochrome-dark.svg"
   inkscape:version="1.2.2 (b0a8486541, 2022-12-01)"
   xmlns:inkscape="http://www.inkscape.org/namespaces/inkscape"
   xmlns:sodipodi="http://sodipodi.sourceforge.net/DTD/sodipodi-0.dtd"
   xmlns:xlink="http://www.w3.org/1999/xlink"
   xmlns="http://www.w3.org/2000/svg"
   xmlns:svg="http://www.w3.org/2000/svg">
  <sodipodi:namedview
     id="namedview22026"
     pagecolor="#ffffff"
     bordercolor="#666666"
     borderopacity="1.0"
     inkscape:showpageshadow="2"
     inkscape:pageopacity="0.0"
     inkscape:pagecheckerboard="0"
     inkscape:deskcolor="#d1d1d1"
     showgrid="false"
     inkscape:zoom="4.9166665"
     inkscape:cx="-23.491526"
     inkscape:cy="35.694916"
     inkscape:window-width="1920"
     inkscape:window-height="994"
     inkscape:window-x="0"
     inkscape:window-y="0"
     inkscape:window-maximized="1"
     inkscape:current-layer="svg22024" />
  <defs
     id="defs22004">
    <linearGradient
       inkscape:collect="always"
       id="linearGradient1301">
      <stop
         style="stop-color:#b7bfc7;stop-opacity:1;"
         offset="0"
         id="stop1297" />
      <stop
         style="stop-color:#c5c9d3;stop-opacity:1;"
         offset="1"
         id="stop1299" />
    </linearGradient>
    <linearGradient
       id="linearGradient4212">
      <stop
         style="stop-color:#000000;stop-opacity:1;"
         offset="0"
         id="stop21980" />
      <stop
         style="stop-color:#000000;stop-opacity:0;"
         offset="1"
         id="stop21982" />
    </linearGradient>
    <linearGradient
       id="linearGradient4198">
      <stop
         style="stop-color:#272b2d;stop-opacity:1;"
         offset="0"
         id="stop21985" />
      <stop
         style="stop-color:#3e4447;stop-opacity:1"
         offset="1"
         id="stop21987" />
    </linearGradient>
    <linearGradient
       id="linearGradient4185">
      <stop
         style="stop-color:#acacac;stop-opacity:1"
         offset="0"
         id="stop21990" />
      <stop
         style="stop-color:#cbcbcb;stop-opacity:1"
         offset="1"
         id="stop21992" />
    </linearGradient>
    <linearGradient
       id="linearGradient4144">
      <stop
         style="stop-color:#3b962d;stop-opacity:1"
         offset="0"
         id="stop21995" />
      <stop
         style="stop-color:#93d169;stop-opacity:1"
         offset="1"
         id="stop21997" />
    </linearGradient>
    <linearGradient
       xlink:href="#linearGradient4144"
       id="linearGradient4150"
       x1="25"
       y1="1046.3621"
       x2="25"
       y2="1010.362"
       gradientUnits="userSpaceOnUse"
       gradientTransform="translate(86.850772,-1045.9604)" />
    <radialGradient
       xlink:href="#linearGradient4185"
       id="radialGradient4191"
       cx="24"
       cy="1025.3621"
       fx="24"
       fy="1025.3621"
       r="2"
       gradientTransform="matrix(1,0,0,0.9998745,86.850772,-1045.8317)"
       gradientUnits="userSpaceOnUse" />
    <linearGradient
       xlink:href="#linearGradient4198"
       id="linearGradient4204"
       x1="24"
       y1="1032.3621"
       x2="24"
       y2="1018.362"
       gradientUnits="userSpaceOnUse"
       gradientTransform="translate(86.850772,-1045.9604)" />
    <linearGradient
       xlink:href="#linearGradient4212"
       id="linearGradient4218"
       x1="20"
       y1="17"
       x2="38"
       y2="35"
       gradientUnits="userSpaceOnUse"
       gradientTransform="translate(86.850772,-41.5982)" />
    <radialGradient
       xlink:href="#linearGradient4185"
       id="radialGradient4191-8"
       cx="24"
       cy="1025.3621"
       fx="24"
       fy="1025.3621"
       r="2"
       gradientTransform="matrix(1.3333244,0,0,1.3331571,-53.621395,-1399.2795)"
       gradientUnits="userSpaceOnUse" />
    <radialGradient
       xlink:href="#linearGradient4185"
       id="radialGradient4191-8-3"
       cx="24"
       cy="1025.3621"
       fx="24"
       fy="1025.3621"
       r="2"
       gradientTransform="matrix(1.3999917,0,0,1.3998155,-2.0999057,-1415.0207)"
       gradientUnits="userSpaceOnUse" />
    <linearGradient
       xlink:href="#linearGradient4167"
       id="linearGradient4161"
       x1="-44"
       y1="-24"
       x2="-4"
       y2="-24"
       gradientUnits="userSpaceOnUse"
       gradientTransform="translate(-7.193816,-7.9352386)" />
    <linearGradient
       id="linearGradient4167">
      <stop
         style="stop-color:#009467;stop-opacity:1"
         offset="0"
         id="stop477" />
      <stop
         style="stop-color:#87d770;stop-opacity:1"
         offset="1"
         id="stop479" />
    </linearGradient>
    <linearGradient
       id="b"
       y1="10"
       x1="1"
       y2="44"
       x2="35"
       gradientUnits="userSpaceOnUse"
       gradientTransform="translate(8.0537511,6.644)">
      <stop
         stop-color="#2980b9"
         id="stop7" />
      <stop
         offset="1"
         stop-color="#1a7459"
         id="stop9" />
    </linearGradient>
    <linearGradient
       id="a"
       y1="21"
       x1="27"
       y2="37"
       x2="43"
       gradientUnits="userSpaceOnUse"
       gradientTransform="translate(4.6877511,6.5)">
      <stop
         stop-color="#292c2f"
         id="stop2" />
      <stop
         offset="1"
         stop-opacity="0"
         id="stop4" />
    </linearGradient>
    <linearGradient
       id="c"
       y1="5"
       x1="2"
       y2="43"
       x2="40"
       gradientUnits="userSpaceOnUse"
       gradientTransform="translate(7.6877511,7.5)">
      <stop
         stop-color="#2ecc71"
         id="stop12" />
      <stop
         offset="1"
         stop-color="#55b019"
         id="stop14" />
    </linearGradient>
    <linearGradient
       id="c-3"
       gradientUnits="userSpaceOnUse"
       x1="8"
       x2="21"
       xlink:href="#a-6"
       y1="10"
       y2="23"
       gradientTransform="matrix(2.3344652,0,0,2.3344652,-5.674779,-8.121286)" />
    <linearGradient
       id="a-6"
       gradientTransform="translate(1.01,-1.022)"
       gradientUnits="userSpaceOnUse"
       x1="-14.65"
       x2="-6.4299998"
       y1="9.1780005"
       y2="17.521999">
      <stop
         offset="0"
         stop-color="#292c2f"
         id="stop312" />
      <stop
         offset="1"
         stop-opacity="0"
         id="stop314" />
    </linearGradient>
    <linearGradient
       id="d"
       gradientUnits="userSpaceOnUse"
       x1="20"
       x2="29"
       xlink:href="#a-6"
       y1="12"
       y2="21"
       gradientTransform="matrix(2.3344652,0,0,2.3344652,-5.674779,-8.121286)" />
    <linearGradient
       id="SVGID_1_"
       gradientUnits="userSpaceOnUse"
       x1="50"
       y1="-654.86328"
       x2="50"
       y2="-728.46722"
       gradientTransform="matrix(0.56818624,0,0,-0.56818624,3.6135802,-369.27037)">
      <stop
         offset="0"
         style="stop-color:#64be5a;stop-opacity:1;"
         id="stop4-3" />
      <stop
         offset="1"
         style="stop-color:#00d0d0;stop-opacity:1;"
         id="stop6" />
    </linearGradient>
    <linearGradient
       inkscape:collect="always"
       xlink:href="#linearGradient1301"
       id="linearGradient1303"
       x1="30.457626"
       y1="57.645126"
       x2="31.101698"
       y2="3.3400414"
       gradientUnits="userSpaceOnUse" />
  </defs>
  <path
     d="m 2.9999985,10.25 c 0,-4.004175 3.245938,-7.25 7.2500005,-7.25 h 43.500003 c 4.004173,0 7.25,3.245825 7.25,7.25 v 43.5 c 0,4.004173 -3.245827,7.25 -7.25,7.25 H 10.249999 C 6.2459365,61 2.9999985,57.754173 2.9999985,53.75 Z"
     id="path736-7"
     style="fill:#8893aa;fill-opacity:1;stroke-width:3.625" />
  <path
     d="M 2.9999985,9.796875 C 2.9999985,6.043188 6.2459365,3 10.249999,3 h 43.500003 c 4.004173,0 7.25,3.043188 7.25,6.796875 v 40.781249 c 0,3.753693 -3.245827,6.796876 -7.25,6.796876 H 10.249999 c -4.0040625,0 -7.2500005,-3.043183 -7.2500005,-6.796876 z"
     id="path738-9"
     style="fill:url(#linearGradient1303);fill-opacity:1;stroke-width:3.625" />
  <path
     d="M 32,52 C 20.416841,52 11,42.583159 11,31 11,19.416842 20.416841,10 32,10 c 11.583159,0 21,9.416842 21,21 0,11.583159 -9.416841,21 -21,21 z m 0,-40.585263 c -10.787365,0 -19.585265,8.797895 -19.585265,19.585263 0,10.787365 8.7979,19.585265 19.585265,19.585265 10.787365,0 19.585265,-8.7979 19.585265,-19.585265 0,-10.787368 -8.7979,-19.585263 -19.585265,-19.585263 z m 2.962106,3.536842 c 0.04418,0.221053 0.08841,0.442105 0.08841,0.663158 0,1.679999 -1.370523,3.050527 -3.050523,3.050527 -1.68,0 -3.050523,-1.370528 -3.050523,-3.050527 0,-0.221053 0.0442,-0.442105 0.08841,-0.663158 0.972629,-0.176842 1.989471,-0.265263 2.962106,-0.265263 1.016841,-0.04421 1.989476,0.08842 2.962106,0.265263 z m -11.538947,3.713685 c 0,3.40421 1.989476,6.366315 4.907364,7.736842 V 41.92 L 32,45.589477 35.669477,41.92 l -0.221053,-3.227365 1.724211,-1.724211 -1.724211,-1.724212 2.608417,-2.608424 -2.608417,-2.608423 0.221053,-3.625259 c 2.873682,-1.370527 4.907364,-4.332632 4.907364,-7.736842 0,-0.574737 -0.04418,-1.105264 -0.176841,-1.68 4.907365,2.962104 7.913682,8.267368 7.957894,14.014736 0,9.018947 -7.294735,16.357894 -16.357894,16.357894 -9.018947,0 -16.357894,-7.294735 -16.357894,-16.357894 0,-5.747368 3.006317,-11.052632 7.957894,-14.014736 -0.08841,0.574736 -0.176841,1.105263 -0.176841,1.68 z m 6.145265,9.770526 h 1.237894 v 12.246316 h -1.237894 z"
     id="path1364-3"
     style="stroke-width:0.442106" />
</svg>
