<?xml version="1.0" encoding="UTF-8" standalone="no"?>
<svg
   width="64"
   height="64"
   viewBox="0 0 64 64"
   version="1.1"
   id="svg52"
   sodipodi:docname="pattern-perl-devel.svg"
   inkscape:version="1.2.1 (9c6d41e410, 2022-07-14)"
   xmlns:inkscape="http://www.inkscape.org/namespaces/inkscape"
   xmlns:sodipodi="http://sodipodi.sourceforge.net/DTD/sodipodi-0.dtd"
   xmlns:xlink="http://www.w3.org/1999/xlink"
   xmlns="http://www.w3.org/2000/svg"
   xmlns:svg="http://www.w3.org/2000/svg">
  <sodipodi:namedview
     id="namedview54"
     pagecolor="#a4a4a4"
     bordercolor="#eeeeee"
     borderopacity="1"
     inkscape:pageshadow="0"
     inkscape:pageopacity="0"
     inkscape:pagecheckerboard="0"
     showgrid="false"
     inkscape:zoom="5.2604167"
     inkscape:cx="36.40396"
     inkscape:cy="10.930693"
     inkscape:window-width="1920"
     inkscape:window-height="1002"
     inkscape:window-x="0"
     inkscape:window-y="0"
     inkscape:window-maximized="1"
     inkscape:current-layer="svg52"
     inkscape:showpageshadow="2"
     inkscape:deskcolor="#c9c9c9" />
  <defs
     id="defs32">
    <linearGradient
       xlink:href="#linearGradient4393"
       id="linearGradient4399"
       x1="424.44101"
       y1="502.85001"
       x2="440.87799"
       y2="529.57599"
       gradientUnits="userSpaceOnUse"
       gradientTransform="matrix(0.69224711,0,0,0.69224711,-215.22899,-357.13539)" />
    <linearGradient
       id="linearGradient4393">
      <stop
         style="stop-color:#000000;stop-opacity:1;"
         offset="0"
         id="stop3" />
      <stop
         style="stop-color:#000000;stop-opacity:0;"
         offset="1"
         id="stop5" />
    </linearGradient>
    <linearGradient
       xlink:href="#linearGradient4274"
       id="linearGradient4217"
       gradientUnits="userSpaceOnUse"
       gradientTransform="matrix(0.69224711,0,0,0.69224711,-199.3073,1639.8968)"
       x1="390.57101"
       y1="498.298"
       x2="442.57101"
       y2="498.298" />
    <linearGradient
       id="linearGradient4274">
      <stop
         offset="0"
         style="stop-color:#ffffff;stop-opacity:1;"
         id="stop9" />
      <stop
         offset="1"
         style="stop-color:#ffffff;stop-opacity:0.48760331"
         id="stop11" />
    </linearGradient>
    <linearGradient
       xlink:href="#linearGradient4227"
       id="linearGradient4225"
       gradientUnits="userSpaceOnUse"
       x1="396.57101"
       y1="498.798"
       x2="426.57101"
       y2="511.798"
       gradientTransform="matrix(0.69224711,0,0,0.69224711,-199.3073,-360.21214)" />
    <linearGradient
       id="linearGradient4227">
      <stop
         offset="0"
         style="stop-color:#f5f5f5;stop-opacity:1"
         id="stop21" />
      <stop
         offset="1"
         style="stop-color:#f9f9f9;stop-opacity:1"
         id="stop23" />
    </linearGradient>
    <style
       id="current-color-scheme"
       type="text/css">      .ColorScheme-Highlight {
        color:#3593e6;
      }
</style>
    <linearGradient
       id="d"
       gradientUnits="userSpaceOnUse"
       x1="4"
       x2="18.999998"
       xlink:href="#c"
       y1="5"
       y2="20"
       gradientTransform="matrix(2.7999616,0,0,2.7999616,1.095156,-2.3992319)" />
    <linearGradient
       id="c">
      <stop
         offset="0"
         stop-color="#292c2f"
         id="stop265" />
      <stop
         offset="1"
         stop-opacity="0"
         id="stop267" />
    </linearGradient>
    <linearGradient
       id="b"
       gradientUnits="userSpaceOnUse"
       x1="13.280776"
       x2="28.280775"
       xlink:href="#c"
       y1="5.088388"
       y2="20.088388"
       gradientTransform="matrix(2.7999616,0,0,2.7999616,1.095156,-2.3992319)" />
    <linearGradient
       id="c-3"
       gradientUnits="userSpaceOnUse"
       x1="5"
       x2="5"
       y1="20"
       y2="7"
       gradientTransform="matrix(3.4390082,0,0,3.4390082,-5.8290972,-4.015561)">
      <stop
         offset="0"
         stop-color="#999a9c"
         id="stop164" />
      <stop
         offset="1"
         stop-color="#f4f5f5"
         id="stop166" />
    </linearGradient>
    <linearGradient
       id="c-36"
       gradientTransform="matrix(-1.5178835,-0.40671565,0.40671565,-1.5178835,-118.80345,45.942209)"
       gradientUnits="userSpaceOnUse"
       x1="-80.458"
       x2="-73.210999"
       y1="16.417999"
       y2="43.464001">
      <stop
         offset="0"
         stop-color="#b0b4b8"
         id="stop161" />
      <stop
         offset="1"
         stop-color="#dadcde"
         id="stop163" />
    </linearGradient>
    <linearGradient
       id="d-7"
       gradientUnits="userSpaceOnUse"
       x1="18"
       x2="24"
       xlink:href="#b-5"
       y1="22"
       y2="28"
       gradientTransform="matrix(1.5714286,0,0,1.5714286,6.857142,6.6025957)" />
    <linearGradient
       id="b-5">
      <stop
         offset="0"
         stop-color="#292c2f"
         id="stop174" />
      <stop
         offset="1"
         stop-color="#0b0000"
         stop-opacity="0"
         id="stop176" />
    </linearGradient>
    <linearGradient
       id="e"
       gradientUnits="userSpaceOnUse"
       x1="13.667"
       x2="18.885"
       xlink:href="#b-5"
       y1="8.6660004"
       y2="13.885"
       gradientTransform="matrix(1.5714286,0,0,1.5714286,6.857142,6.6025957)" />
    <linearGradient
       id="f"
       gradientUnits="userSpaceOnUse"
       x1="17.666"
       x2="23"
       xlink:href="#b-5"
       y1="9.3330002"
       y2="14.667"
       gradientTransform="matrix(1.5714286,0,0,1.5714286,6.857142,6.6025957)" />
    <linearGradient
       id="g"
       gradientUnits="userSpaceOnUse"
       x1="21.666"
       x2="21.666"
       xlink:href="#a"
       y1="16"
       y2="6.6669998"
       gradientTransform="matrix(1.5714286,0,0,1.5714286,6.857142,6.6025957)" />
    <linearGradient
       id="a">
      <stop
         offset="0"
         stop-color="#f67400"
         id="stop169" />
      <stop
         offset="1"
         stop-color="#f39c1f"
         id="stop171" />
    </linearGradient>
    <linearGradient
       id="h"
       gradientUnits="userSpaceOnUse"
       x1="11"
       x2="11"
       xlink:href="#a"
       y1="14"
       y2="2"
       gradientTransform="matrix(1.5714286,0,0,1.5714286,6.857142,6.6025957)" />
    <linearGradient
       id="i"
       gradientUnits="userSpaceOnUse"
       x1="15"
       x2="15"
       y1="28"
       y2="15"
       gradientTransform="matrix(1.5714286,0,0,1.5714286,6.857142,6.6025957)">
      <stop
         offset="0"
         stop-color="#375a7d"
         id="stop154" />
      <stop
         offset=".154"
         stop-color="#3b85b5"
         id="stop156" />
      <stop
         offset="1"
         stop-color="#7cbcec"
         id="stop158" />
    </linearGradient>
    <linearGradient
       id="e-3"
       gradientUnits="userSpaceOnUse"
       x1="11"
       x2="19"
       xlink:href="#c"
       y1="9.5"
       y2="17.5"
       gradientTransform="matrix(2.4444444,0,0,2.4444444,-5.914223,-7.75511)" />
    <linearGradient
       id="f-7"
       gradientUnits="userSpaceOnUse"
       x1="15"
       x2="23"
       xlink:href="#c"
       y1="8.5"
       y2="16.5"
       gradientTransform="matrix(2.4444444,0,0,2.4444444,-5.914223,-7.75511)" />
    <linearGradient
       id="g-5"
       gradientUnits="userSpaceOnUse"
       x1="21"
       x2="29"
       xlink:href="#c"
       y1="8"
       y2="16"
       gradientTransform="matrix(2.4444444,0,0,2.4444444,-5.914223,-7.75511)" />
    <linearGradient
       id="h-3"
       gradientTransform="matrix(3.3122466,0,0,3.1111911,-16.88,-17.977776)"
       gradientUnits="userSpaceOnUse"
       x1="20"
       x2="20"
       y1="25"
       y2="7">
      <stop
         offset="0"
         stop-color="#eff0f1"
         id="stop177" />
      <stop
         offset="1"
         stop-color="#fcfcfc"
         id="stop179" />
    </linearGradient>
    <linearGradient
       id="i-5"
       gradientTransform="matrix(3.3122466,0,0,3.1111911,-16.88,-17.977776)"
       gradientUnits="userSpaceOnUse"
       x1="20"
       x2="20"
       y1="25"
       y2="7">
      <stop
         offset="0"
         stop-color="#afb0b3"
         id="stop182" />
      <stop
         offset="1"
         stop-color="#bdc3c7"
         id="stop184" />
    </linearGradient>
    <linearGradient
       id="c-367"
       gradientUnits="userSpaceOnUse"
       x1="10"
       x2="24"
       y1="10"
       y2="24"
       gradientTransform="matrix(1.9179635,0,0,1.9179635,1.267758,0.1772541)">
      <stop
         offset="0"
         stop-color="#292c2f"
         id="stop193" />
      <stop
         offset="1"
         stop-opacity="0"
         id="stop195" />
    </linearGradient>
    <linearGradient
       id="d-5"
       gradientUnits="userSpaceOnUse"
       x1="24"
       x2="24"
       y1="25"
       y2="7"
       gradientTransform="matrix(1.9179635,0,0,1.9179635,1.267758,0.1772541)">
      <stop
         offset="0"
         stop-color="#bb9d71"
         id="stop183" />
      <stop
         offset="1"
         stop-color="#f9f2e7"
         id="stop185" />
    </linearGradient>
  </defs>
  <path
     d="m 2.9999985,10.25 c 0,-4.0041748 3.245938,-7.25 7.2500005,-7.25 h 43.500003 c 4.004173,0 7.249999,3.2458252 7.249999,7.25 v 43.5 c 0,4.004173 -3.245827,7.25 -7.25,7.25 H 10.249999 C 6.2459365,61 2.9999985,57.754173 2.9999985,53.75 Z"
     id="path736"
     style="fill:#606c86;fill-opacity:1;stroke-width:3.625" />
  <path
     d="M 2.9999985,9.796875 C 2.9999985,6.0431877 6.2459365,3 10.249999,3 h 43.500003 c 4.004173,0 7.249999,3.0431877 7.249999,6.796875 v 40.781249 c 0,3.753693 -3.245827,6.796876 -7.25,6.796876 H 10.249999 c -4.0040625,0 -7.2500005,-3.043183 -7.2500005,-6.796876 z"
     id="path738"
     style="fill:#3b4252;fill-opacity:1;stroke-width:3.625" />
  <path
     d="m 40.342416,14.805563 -10.43563,6.599712 -5.270564,-5.274399 -7.510745,2.712 3.321912,3.327667 0.494835,8.199294 7.177022,7.177019 -1.568898,8.661523 -2.40129,1.446145 9.948477,9.948476 a 26.851489,26.851489 0 0 0 3.61152,-0.531276 v -3.949087 a 23.015562,23.015562 0 0 0 5.915,-2.449239 l 2.7868,2.786801 a 26.851489,26.851489 0 0 0 8.15902,-8.120657 l -2.80598,-2.805981 a 23.015562,23.015562 0 0 0 2.45883,-5.914999 h 3.93374 a 26.851489,26.851489 0 0 0 0.51785,-3.486858 z"

     opacity="0.3"
     id="path207"
     style="fill:url(#c-367);stroke-width:1.91796" />
  <path
     d="m 37.948806,13.603 c -1.00118,0.0058 -3.69016,0.866919 -4.66641,1.492176 -0.31646,0.205222 -1.06638,1.143106 -1.66479,2.09058 -0.59457,0.945556 -1.70698,2.086744 -2.47033,2.535547 -0.83624,0.494835 -1.850839,1.779871 -2.570075,3.250949 -1.286954,2.62761 -1.925636,2.353341 -1.006931,-0.431542 0.811298,-2.464583 0.3203,-5.345364 -1.127763,-6.590123 -1.361754,-1.169957 -2.575825,-1.292707 -3.366026,-0.337561 -0.31071,0.370167 -1.108582,0.671287 -1.777952,0.671287 -1.653284,0 -3.049562,1.519027 -2.267033,2.460747 0.310711,0.375921 0.966654,0.680877 1.457653,0.680877 0.757595,0 0.84774,0.191796 0.571553,1.231333 -0.178371,0.675123 -0.421952,2.403208 -0.542784,3.832091 -0.191796,2.330325 -0.08439,2.765703 1.049126,4.259797 2.290049,3.020792 4.309664,4.138965 5.924589,3.273963 0.746088,-0.397018 0.845822,-0.03069 1.288872,4.741206 0.558127,5.985964 0.230155,7.806111 -1.722331,9.628177 -1.133517,1.060633 -1.206399,1.254348 -0.517851,1.432718 l 0.0038,0.0019 c 2.502943,0.648272 2.644872,0.508261 3.224093,-3.168475 1.1642,-7.376488 1.30613,-8.095724 1.78754,-8.995249 0.26852,-0.50826 0.49292,-1.344493 0.49292,-1.854671 0,-0.642518 0.28961,-0.924458 0.94747,-0.924458 1.00118,0 1.00693,0.111242 0.1381,4.422824 -0.27619,1.361754 -0.12659,1.668628 1.54779,3.199163 2.14812,1.963994 2.30156,2.827078 0.69431,3.88004 -0.90145,0.590733 -1.01653,0.834314 -0.52553,1.108583 0.91871,0.514014 2.57966,-0.03836 2.57966,-0.861166 0,-0.54662 0.20714,-0.483327 0.92638,0.285777 0.50826,0.546619 1.11242,0.874591 1.34641,0.732662 0.64443,-0.400855 0.49867,-1.82782 -0.25317,-2.451158 -0.96282,-0.79979 -0.8439,-1.419293 0.6732,-3.515627 1.07406,-1.480668 1.34641,-2.320736 1.34641,-4.129375 0,-2.311146 1.06639,-5.140142 1.77412,-4.702847 0.21673,0.130422 0.5236,1.028029 0.68855,1.990847 0.15919,0.962817 0.57539,2.123185 0.91678,2.577742 0.74801,0.983916 0.88802,7.211543 0.21673,9.551459 -0.44496,1.555468 0.0288,2.453075 1.11434,2.107842 0.42579,-0.134258 0.68663,-5.216861 0.54662,-10.608257 -0.10932,-4.150473 0.14576,-8.270258 0.52936,-8.655769 0.55237,-0.552373 1.00501,3.670982 0.49483,4.622292 -0.2455,0.456476 -0.31454,1.173794 -0.15344,1.593828 0.51018,1.332985 1.90454,-1.971667 1.92756,-4.564753 0.0134,-1.889194 -0.22057,-2.591169 -1.32723,-3.985528 -0.74034,-0.932131 -1.34641,-1.925636 -1.34641,-2.205658 0,-0.281941 -0.69814,-1.597664 -1.551641,-2.919141 -0.84774,-1.321476 -1.67246,-2.978597 -1.8259,-3.68249 -0.32605,-1.484503 -2.157709,-3.080249 -3.52521,-3.070659 z m -1.47683,18.838237 c 0.2244,0.115078 0.36825,1.031865 0.53511,2.802145 0.24934,2.664051 0.16303,3.626869 -0.41812,4.754631 v 0.0038 c -0.87267,1.687808 -1.15077,1.728085 -2.4243,0.372085 -1.19106,-1.265856 -1.21024,-1.680136 -0.14385,-3.049562 0.46031,-0.586897 1.10475,-1.879604 1.43847,-2.863519 0.48333,-1.442309 0.7902,-2.130858 1.01269,-2.019616 z"

     id="path209"
     style="fill:url(#d-5);stroke-width:1.91796" />
</svg>
