<?xml version="1.0" encoding="UTF-8" standalone="no"?>
<svg
   width="64"
   height="64"
   version="1.1"
   id="svg23117"
   sodipodi:docname="pattern-e17.svg"
   inkscape:version="1.2.1 (9c6d41e410, 2022-07-14)"
   xmlns:inkscape="http://www.inkscape.org/namespaces/inkscape"
   xmlns:sodipodi="http://sodipodi.sourceforge.net/DTD/sodipodi-0.dtd"
   xmlns:xlink="http://www.w3.org/1999/xlink"
   xmlns="http://www.w3.org/2000/svg"
   xmlns:svg="http://www.w3.org/2000/svg">
  <sodipodi:namedview
     id="namedview23119"
     pagecolor="#ffffff"
     bordercolor="#666666"
     borderopacity="1.0"
     inkscape:showpageshadow="2"
     inkscape:pageopacity="0.0"
     inkscape:pagecheckerboard="0"
     inkscape:deskcolor="#d1d1d1"
     showgrid="false"
     inkscape:zoom="4.9166667"
     inkscape:cx="24.508474"
     inkscape:cy="24.508474"
     inkscape:window-width="1920"
     inkscape:window-height="1002"
     inkscape:window-x="0"
     inkscape:window-y="0"
     inkscape:window-maximized="1"
     inkscape:current-layer="svg23117" />
  <defs
     id="defs23105">
    <linearGradient
       id="a"
       y1="547.63397"
       y2="499.67899"
       x2="388.86499"
       gradientUnits="userSpaceOnUse"
       gradientTransform="translate(-453.04388,-539.81483)"
       x1="428.81601">
      <stop
         stop-color="#2a2c2f"
         id="stop23090" />
      <stop
         offset="1"
         stop-color="#536161"
         id="stop23092" />
    </linearGradient>
    <linearGradient
       id="b"
       y1="44"
       y2="12"
       x2="14"
       gradientUnits="userSpaceOnUse"
       x1="36"
       gradientTransform="translate(-68.473879,-40.014831)">
      <stop
         stop-color="#536161"
         style="stop-color:#bfc9c9;stop-opacity:1"
         id="stop23095" />
      <stop
         offset="1"
         stop-color="#f4f5f5"
         style="stop-color:#fbfbfb;stop-opacity:1"
         id="stop23097" />
    </linearGradient>
    <linearGradient
       id="c"
       y1="527.01398"
       x1="406.50101"
       y2="539.82501"
       x2="419.974"
       gradientUnits="userSpaceOnUse"
       gradientTransform="translate(-453.04388,-539.81483)">
      <stop
         stop-color="#292c2f"
         id="stop23100" />
      <stop
         offset="1"
         stop-opacity="0"
         id="stop23102" />
    </linearGradient>
    <linearGradient
       inkscape:collect="always"
       xlink:href="#linearGradient22063"
       id="linearGradient22065"
       x1="-14"
       y1="6"
       x2="-14"
       y2="-9.999999"
       gradientUnits="userSpaceOnUse"
       gradientTransform="matrix(3.6250002,0,0,3.6250002,82.750005,39.249999)" />
    <linearGradient
       inkscape:collect="always"
       id="linearGradient22063">
      <stop
         style="stop-color:#292f3a;stop-opacity:1;"
         offset="0"
         id="stop22059" />
      <stop
         style="stop-color:#535e75;stop-opacity:1;"
         offset="1"
         id="stop22061" />
    </linearGradient>
    <linearGradient
       gradientTransform="matrix(1.4175135,0,0,1.4175135,-0.97261301,0.3330346)"
       id="b-3"
       y1="23.774559"
       x1="22.540125"
       y2="35.804409"
       x2="35.770538"
       gradientUnits="userSpaceOnUse">
      <stop
         stop-color="#292c2f"
         id="stop12" />
      <stop
         offset="1"
         stop-color="#292c2f"
         stop-opacity="0"
         id="stop14" />
    </linearGradient>
    <linearGradient
       xlink:href="#linearGradient4564"
       id="linearGradient4570"
       x1="18.653"
       y1="20.191"
       x2="7.4320002"
       y2="8.5249996"
       gradientUnits="userSpaceOnUse"
       gradientTransform="matrix(0.99999999,0,0,1.1578948,8.0000025,3.1451316)" />
    <linearGradient
       id="linearGradient4564">
      <stop
         style="stop-color:#ffa92d;stop-opacity:1;"
         offset="0"
         id="stop4566" />
      <stop
         style="stop-color:#ffc169;stop-opacity:1"
         offset="1"
         id="stop4568" />
    </linearGradient>
    <linearGradient
       xlink:href="#linearGradient4574"
       id="linearGradient4580"
       x1="28.615"
       y1="21.502001"
       x2="39.939999"
       y2="10.118"
       gradientUnits="userSpaceOnUse"
       gradientTransform="matrix(0.99999999,0,0,1.1578948,8.0000025,3.1451316)" />
    <linearGradient
       id="linearGradient4574">
      <stop
         style="stop-color:#bf4231;stop-opacity:1;"
         offset="0"
         id="stop4576" />
      <stop
         style="stop-color:#f58273;stop-opacity:1"
         offset="1"
         id="stop4578" />
    </linearGradient>
    <linearGradient
       xlink:href="#linearGradient4590"
       id="linearGradient4596"
       x1="33.241001"
       y1="30.191"
       x2="40.393002"
       y2="37.416"
       gradientUnits="userSpaceOnUse"
       gradientTransform="matrix(0.99999999,0,0,1.1578948,8.0000025,3.1451316)" />
    <linearGradient
       id="linearGradient4590">
      <stop
         id="stop4594"
         offset="0"
         style="stop-color:#54d883;stop-opacity:1" />
      <stop
         id="stop4592"
         offset="1"
         style="stop-color:#3bb566;stop-opacity:1;" />
    </linearGradient>
    <linearGradient
       xlink:href="#linearGradient4582"
       id="linearGradient4588"
       x1="19.830999"
       y1="26.561001"
       x2="9.6899996"
       y2="37.881001"
       gradientUnits="userSpaceOnUse"
       gradientTransform="matrix(0.99999999,0,0,1.1578948,8.0000025,3.1451316)" />
    <linearGradient
       id="linearGradient4582">
      <stop
         id="stop4586"
         offset="0"
         style="stop-color:#7cbcec;stop-opacity:1" />
      <stop
         id="stop4584"
         offset="1"
         style="stop-color:#3b85b5;stop-opacity:1;" />
    </linearGradient>
    <linearGradient
       xlink:href="#linearGradient4626"
       id="linearGradient4632"
       x1="23.693001"
       y1="21.277"
       x2="34.937"
       y2="32.521999"
       gradientUnits="userSpaceOnUse"
       gradientTransform="matrix(1.1,0,0,1.1,5.6000025,4.5346056)" />
    <linearGradient
       id="linearGradient4626">
      <stop
         style="stop-color:#000000;stop-opacity:1;"
         offset="0"
         id="stop4628" />
      <stop
         style="stop-color:#000000;stop-opacity:0;"
         offset="1"
         id="stop4630" />
    </linearGradient>
    <linearGradient
       xlink:href="#linearGradient4598"
       id="linearGradient4604"
       x1="27.197001"
       y1="33.474998"
       x2="21.365999"
       y2="14.901"
       gradientUnits="userSpaceOnUse"
       gradientTransform="matrix(1.1,0,0,1.32,5.6000025,-0.74539444)" />
    <linearGradient
       id="linearGradient4598">
      <stop
         style="stop-color:#172525;stop-opacity:1;"
         offset="0"
         id="stop4600" />
      <stop
         style="stop-color:#334545;stop-opacity:1"
         offset="1"
         id="stop4602" />
    </linearGradient>
    <linearGradient
       xlink:href="#linearGradient4656"
       id="linearGradient4662"
       x1="19.025"
       y1="15.232"
       x2="29.945999"
       y2="31.764999"
       gradientUnits="userSpaceOnUse"
       gradientTransform="matrix(1.1,0,0,1.1,6.7000025,4.5346056)" />
    <linearGradient
       id="linearGradient4656">
      <stop
         style="stop-color:#ffffff;stop-opacity:1;"
         offset="0"
         id="stop4658" />
      <stop
         style="stop-color:#536161;stop-opacity:1"
         offset="1"
         id="stop4660" />
    </linearGradient>
    <linearGradient
       id="c-3"
       gradientTransform="matrix(-1.5178835,-0.40671565,0.40671565,-1.5178835,-23.044809,75.042763)"
       gradientUnits="userSpaceOnUse"
       x1="-27.382999"
       x2="-20.311001"
       y1="21.552999"
       y2="47.945999">
      <stop
         offset="0"
         stop-color="#afb4b9"
         id="stop204" />
      <stop
         offset="1"
         stop-color="#cfd2d5"
         id="stop206" />
    </linearGradient>
    <linearGradient
       id="d"
       gradientUnits="userSpaceOnUse"
       x1="16"
       x2="16"
       y1="27"
       y2="5"
       gradientTransform="matrix(1.5714286,0,0,1.5714286,6.8571415,6.8571415)">
      <stop
         offset="0"
         stop-color="#1d99f3"
         id="stop193" />
      <stop
         offset="1"
         stop-color="#56b3f6"
         id="stop195" />
    </linearGradient>
    <linearGradient
       id="e"
       gradientUnits="userSpaceOnUse"
       x1="11"
       x2="20.947001"
       xlink:href="#a-6"
       y1="11"
       y2="20.947001"
       gradientTransform="matrix(1.5714286,0,0,1.5714286,6.8571415,6.8571415)" />
    <linearGradient
       id="a-6">
      <stop
         offset="0"
         stop-color="#292c2f"
         id="stop187" />
      <stop
         offset="1"
         stop-color="#0e0f10"
         stop-opacity="0"
         id="stop189" />
    </linearGradient>
    <linearGradient
       id="f"
       gradientUnits="userSpaceOnUse"
       x1="23"
       x2="30"
       xlink:href="#a-6"
       y1="15"
       y2="22"
       gradientTransform="matrix(1.5714286,0,0,1.5714286,6.8571415,6.8571415)" />
    <linearGradient
       id="g"
       gradientUnits="userSpaceOnUse"
       x1="24"
       x2="24"
       xlink:href="#b-7"
       y1="25"
       y2="7"
       gradientTransform="matrix(1.5714286,0,0,1.5714286,6.8571415,6.8571415)" />
    <linearGradient
       id="b-7">
      <stop
         offset="0"
         stop-color="#eff0f1"
         id="stop182" />
      <stop
         offset="1"
         stop-color="#fcfcfc"
         id="stop184" />
    </linearGradient>
    <linearGradient
       id="h"
       gradientUnits="userSpaceOnUse"
       x1="15"
       x2="22"
       xlink:href="#a-6"
       y1="15"
       y2="22"
       gradientTransform="matrix(1.5714286,0,0,1.5714286,6.8571415,6.8571415)" />
    <linearGradient
       id="i"
       gradientUnits="userSpaceOnUse"
       x1="16"
       x2="16"
       xlink:href="#b-7"
       y1="25"
       y2="7"
       gradientTransform="matrix(1.5714286,0,0,1.5714286,6.8571415,6.8571415)" />
    <linearGradient
       id="j"
       gradientUnits="userSpaceOnUse"
       x1="9.6359997"
       x2="17.271999"
       xlink:href="#a-6"
       y1="22.364"
       y2="30"
       gradientTransform="matrix(1.5714286,0,0,1.5714286,6.8571415,6.8571415)" />
    <linearGradient
       id="k"
       gradientUnits="userSpaceOnUse"
       x1="7"
       x2="7"
       xlink:href="#b-7"
       y1="25"
       y2="7"
       gradientTransform="matrix(1.5714286,0,0,1.5714286,6.8571415,6.8571415)" />
    <linearGradient
       id="d-3"
       gradientUnits="userSpaceOnUse"
       x1="10"
       x2="30"
       y1="10"
       y2="30"
       gradientTransform="matrix(1.7777778,0,0,1.7777778,3.7557755,2.2426666)">
      <stop
         offset="0"
         id="stop215" />
      <stop
         offset="1"
         stop-opacity="0"
         id="stop217" />
    </linearGradient>
    <linearGradient
       id="e-6"
       gradientUnits="userSpaceOnUse"
       x1="10"
       x2="22"
       y1="10"
       y2="22"
       gradientTransform="matrix(1.7777778,0,0,1.7777778,3.7557755,2.2426666)">
      <stop
         offset="0"
         stop-color="#171e25"
         id="stop202" />
      <stop
         offset="1"
         stop-opacity="0"
         id="stop204-7" />
    </linearGradient>
    <linearGradient
       id="f-5"
       gradientUnits="userSpaceOnUse"
       x1="16"
       x2="17.993"
       xlink:href="#b-35"
       y1="3"
       y2="4.993"
       gradientTransform="matrix(1.7777778,0,0,1.7777778,3.7557755,2.2426666)" />
    <linearGradient
       id="b-35">
      <stop
         offset="0"
         stop-color="#292c2f"
         id="stop220" />
      <stop
         offset="1"
         stop-opacity="0"
         id="stop222" />
    </linearGradient>
    <linearGradient
       id="g-6"
       gradientUnits="userSpaceOnUse"
       x1="13.277"
       x2="15.44"
       xlink:href="#b-35"
       y1="3.2809999"
       y2="5.4439998"
       gradientTransform="matrix(1.7777778,0,0,1.7777778,3.7557755,2.2426666)" />
    <linearGradient
       id="h-2"
       gradientUnits="userSpaceOnUse"
       x1="18.694"
       x2="20.542999"
       xlink:href="#b-35"
       y1="3.3150001"
       y2="5.1479998"
       gradientTransform="matrix(1.7777778,0,0,1.7777778,3.7557755,2.2426666)" />
    <linearGradient
       id="i-9"
       gradientUnits="userSpaceOnUse"
       x1="10.753"
       x2="13.038"
       xlink:href="#b-35"
       y1="4.0830002"
       y2="6.368"
       gradientTransform="matrix(1.7777778,0,0,1.7777778,3.7557755,2.2426666)" />
    <linearGradient
       id="j-1"
       gradientUnits="userSpaceOnUse"
       x1="21.214001"
       x2="23.052999"
       xlink:href="#b-35"
       y1="4.1149998"
       y2="5.9429998"
       gradientTransform="matrix(1.7777778,0,0,1.7777778,3.7557755,2.2426666)" />
    <linearGradient
       id="k-2"
       gradientUnits="userSpaceOnUse"
       x1="23.558001"
       x2="25.417999"
       xlink:href="#b-35"
       y1="5.454"
       y2="7.3140001"
       gradientTransform="matrix(1.7777778,0,0,1.7777778,3.7557755,2.2426666)" />
    <linearGradient
       id="l"
       gradientUnits="userSpaceOnUse"
       x1="26.400999"
       x2="26.400999"
       xlink:href="#a-7"
       y1="29"
       y2="3"
       gradientTransform="matrix(1.7777778,0,0,1.7777778,3.7557755,2.2426666)" />
    <linearGradient
       id="a-7"
       gradientUnits="userSpaceOnUse"
       x1="567.30701"
       x2="567.30701"
       y1="691.461"
       y2="39.515999">
      <stop
         offset="0"
         stop-color="#73ba25"
         id="stop225" />
      <stop
         offset="1"
         stop-color="#96cb5c"
         id="stop227" />
    </linearGradient>
    <linearGradient
       id="m"
       gradientUnits="userSpaceOnUse"
       x1="26"
       x2="26"
       xlink:href="#a-7"
       y1="29"
       y2="3"
       gradientTransform="matrix(1.7777778,0,0,1.7777778,3.7557755,2.2426666)" />
  </defs>
  <path
     d="M 3,10.25 C 3,6.245825 6.245938,3 10.25,3 h 43.500005 c 4.00417,0 7.25,3.245825 7.25,7.25 v 43.5 c 0,4.004173 -3.24583,7.25 -7.25,7.25 H 10.25 C 6.245938,61 3,57.754173 3,53.75 Z"
     id="path736"
     style="fill:#606c86;fill-opacity:1;stroke-width:3.625" />
  <path
     d="M 3,9.796875 C 3,6.043188 6.245938,3 10.25,3 h 43.500005 c 4.00417,0 7.25,3.043188 7.25,6.796875 v 40.781249 c 0,3.753693 -3.24583,6.796876 -7.25,6.796876 H 10.25 C 6.245938,57.375 3,54.331817 3,50.578124 Z"
     id="path738"
     style="fill:url(#linearGradient22065);fill-opacity:1;stroke-width:3.625" />
  <path
     d="M 32.134444,13.152889 A 17.511111,17.511111 0 0 0 20.714,17.407111 c -0.844444,0.711111 -1.612444,1.507555 -2.291556,2.376889 -0.266666,0.341333 -0.497777,0.622222 -0.517333,0.622222 l 1.125333,1.125333 c 6.88,-10.163555 27.392,-5.066666 27.210667,3.717333 1.959111,10.771556 -1.596445,19.660445 -12.263111,19.660445 -4.298667,0.0053 -9.895111,0.323556 -12.940445,-2.711111 l 4.759112,4.764444 a 17.6,17.6 0 0 0 2.595555,0.839112 c 1.786667,0.4 3.998222,0.508444 5.898667,0.288 a 17.345778,17.345778 0 0 0 9.472,-4.200889 c 1.004444,-0.88 1.539555,-1.44 2.222222,-2.312889 0.263111,-0.337778 0.494222,-0.611556 0.513778,-0.611556 0.01778,0 0.01067,0.07111 -0.01778,0.156445 -0.131556,0.414222 0.01244,1.217778 0.327111,1.836444 0.337778,0.663111 1.210667,1.845333 2.138667,2.897778 0.186666,0.211555 0.339555,0.412444 0.339555,0.446222 0,0.03378 -0.200889,-0.08355 -0.444444,-0.259555 -2.103111,-1.528889 -3.368889,-2.170667 -4.298667,-2.170667 -0.485333,0 -0.615111,0.09067 -0.686222,0.472889 -0.16,0.844444 0.296889,2.199111 1.457778,4.332444 0.238222,0.439111 0.408888,0.796445 0.378666,0.794667 -0.032,0 -0.392889,-0.368 -0.801778,-0.817778 -1.557333,-1.712 -2.791111,-2.584889 -3.660444,-2.584889 -0.200889,0 -0.254222,0.04089 -0.368,0.266667 -0.195556,0.391111 -0.236444,0.613333 -0.231111,1.306667 0.0018,0.753777 0.179555,1.651555 0.609778,3.096888 0.177777,0.599112 0.307555,1.105778 0.291555,1.121778 -0.01778,0.01778 -0.300444,-0.426666 -0.631111,-0.986666 -1.185778,-1.994667 -2.200889,-3.096889 -3.018666,-3.276445 -0.259556,-0.05689 -0.325334,-0.0036 -0.590223,0.492445 -0.241777,0.455111 -0.346666,0.936888 -0.391111,1.822222 -0.03733,0.725333 0.064,2.776889 0.16,3.230222 0.01778,0.08889 0.0071,0.16 -0.02489,0.16 -0.032,0 -0.147555,-0.280889 -0.257777,-0.622222 -0.360889,-1.12 -0.883556,-2.382222 -1.221334,-2.958222 -0.369778,-0.631112 -0.96,-1.253334 -1.297778,-1.370667 -0.209777,-0.07289 -0.245333,-0.05867 -0.545777,0.218667 -0.659556,0.608 -1.070223,1.882666 -1.340445,4.152888 -0.07111,0.592 -0.151111,1.075556 -0.174222,1.075556 -0.02311,0 -0.09778,-0.469333 -0.167111,-1.045333 -0.280889,-2.375111 -0.776889,-3.822223 -1.482667,-4.323556 l -0.218666,-0.154667 -0.280889,0.154667 c -0.721778,0.405333 -1.475556,1.676445 -2.174222,3.667556 l -0.394667,1.125333 c -0.09422,0.263111 -0.08889,-0.07111 0.01422,-1.166222 0.208,-2.236445 -0.01422,-3.848889 -0.604444,-4.382222 -0.131556,-0.119112 -0.183111,-0.124445 -0.426667,-0.05333 -0.803556,0.241778 -1.729778,1.281778 -2.951111,3.324445 -0.311111,0.515555 -0.572445,0.912 -0.584889,0.878222 -0.01067,-0.03556 0.124444,-0.547556 0.298667,-1.136 0.632889,-2.122667 0.764444,-3.495111 0.408889,-4.280889 -0.145778,-0.327111 -0.158223,-0.336 -0.453334,-0.334222 -0.881778,0.0053 -2.019555,0.846222 -3.952,2.924444 -0.245333,0.264889 -0.462222,0.467556 -0.48,0.451556 -0.016,-0.01778 0.152889,-0.360889 0.375111,-0.764445 1.208889,-2.184889 1.674667,-3.605333 1.445334,-4.426666 -0.103111,-0.371556 -0.218667,-0.421334 -0.871111,-0.368 -0.817778,0.06578 -1.936,0.625777 -3.584,1.799111 -0.515556,0.366222 -0.947556,0.650666 -0.968889,0.64 l 9.248,9.248 H 57.089106 V 22.873777 l -7.832889,-7.831111 c 0.01067,0.01778 -0.213333,0.307556 -0.506667,0.648889 -1.824,2.128 -2.440889,3.265778 -2.346666,4.309333 0.03555,0.423112 0.032,0.435556 -0.08178,0.291556 L 45.75577,19.570666 C 45.222437,18.888 43.892659,17.584889 43.030437,16.896889 c -2.476444,-1.973334 -5.877333,-3.338667 -9.093333,-3.655111 -0.604445,-0.06044 -1.203556,-0.08889 -1.802667,-0.08889 z m -16.986665,33.176889 0.04267,-0.05333 -0.04622,0.04978 z m 2.75911,-25.923556 c -0.0036,0 0.0053,-0.02844 0.0036,-0.03556 l -0.01422,0.02489 z m 2.956444,21.605333 v 0.01067 l 0.101334,0.101333 c -0.03556,-0.03556 -0.06578,-0.07644 -0.101334,-0.112 z"

     opacity="0.2"
     id="path239"
     style="fill:url(#d-3);stroke-width:1.77778" />
  <path
     d="m 48.200222,30.687111 a 16,16 0 0 1 -16,16 16,16 0 0 1 -16,-16 16,16 0 0 1 16,-16 16,16 0 0 1 16,16 z"

     opacity="0.2"
     id="path241"
     style="fill:url(#e-6);stroke-width:1.77778" />
  <path
     d="m 32.200222,7.576 v 0.1066667 c 0.0053,0.083556 0.06578,0.592 0.142222,1.1768889 0.264889,1.9875554 0.647111,3.2071104 1.205334,3.8435554 0.360888,0.412444 0.453333,0.435555 0.812444,0.225778 C 34.826,12.655111 35.29,12.025778 35.743333,11.119111 Z"

     opacity="0.2"
     id="path243"
     style="fill:url(#f-5);stroke-width:1.77778" />
  <path
     d="m 27.359334,8.0755556 c 0.03556,0.00711 0.181334,0.3715555 0.334221,0.8248889 0.407112,1.2017775 0.837334,2.2275555 1.173334,2.7946665 0.343111,0.576 0.952889,1.210667 1.265777,1.320889 0.200889,0.07111 0.24,0.05689 0.503112,-0.200889 0.215111,-0.208 0.4,-0.524445 0.568888,-0.894222 z"

     opacity="0.2"
     id="path245"
     style="fill:url(#g-6);stroke-width:1.77778" />
  <path
     d="m 37.007333,8.1253334 a 1.1573333,1.1573333 0 0 1 -0.01422,0.2631111 c -0.332445,2.8444445 -0.147556,4.7075555 0.519111,5.3119995 0.131557,0.119111 0.179556,0.120889 0.426668,0.048 0.661333,-0.197333 1.422221,-0.976 2.337777,-2.353778 z"

     opacity="0.2"
     id="path247"
     style="fill:url(#h-2);stroke-width:1.77778" />
  <path
     d="m 22.872223,9.5013334 0.01422,0.037333 c 0.03378,0.010667 0.293334,0.4106666 0.613334,0.9528886 0.330666,0.558223 0.753777,1.224889 0.942222,1.477334 0.956444,1.299555 2.103111,2.115555 2.414222,1.724444 0.03022,-0.04089 0.04978,-0.08889 0.07822,-0.129778 z"

     opacity="0.2"
     id="path249"
     style="fill:url(#i-9);stroke-width:1.77778" />
  <path
     d="m 41.476666,9.5475556 -0.0071,0.010667 c 0.0089,0.044444 -0.120889,0.5511114 -0.296889,1.1431104 -0.632889,2.133333 -0.764444,3.475556 -0.408889,4.263112 0.145778,0.325333 0.156445,0.335999 0.453334,0.334222 0.814222,-0.0053 1.848889,-0.750222 3.52,-2.488889 z"

     opacity="0.2"
     id="path251"
     style="fill:url(#j-1);stroke-width:1.77778" />
  <path
     d="m 45.636667,11.938666 c 0.0071,0.03378 -0.177777,0.412445 -0.432001,0.881778 -1.173333,2.154667 -1.578665,3.409778 -1.375999,4.254222 0.09956,0.414223 0.199111,0.460445 0.876444,0.405334 0.817779,-0.06578 1.930667,-0.625778 3.580444,-1.797334 0.352001,-0.250666 0.487111,-0.328888 0.657778,-0.437333 z"

     opacity="0.2"
     id="path253"
     style="fill:url(#k-2);stroke-width:1.77778" />
  <path
     d="M 17.919333,20.249777 C 18.05089,19.835555 17.906893,19.032 17.592222,18.413333 17.254444,17.750222 16.383333,16.568 15.455333,15.515555 15.266889,15.302222 15.114,15.101333 15.114,15.067555 c 0,-0.03378 0.248889,0.115556 0.551111,0.332445 2.145778,1.539555 3.260445,2.097778 4.192,2.097778 0.485333,0 0.615111,-0.08889 0.686222,-0.469334 0.16,-0.844444 -0.296889,-2.200889 -1.457777,-4.334222 -0.238223,-0.439111 -0.407112,-0.796444 -0.373334,-0.796444 0.03022,0 0.391111,0.368 0.8,0.817777 1.480889,1.632 2.634667,2.474667 3.511111,2.565334 l 0.373334,0.03733 0.161777,-0.309334 c 0.131556,-0.252444 0.168889,-0.455111 0.192,-1.059555 0.03378,-0.901334 -0.112,-1.720889 -0.592,-3.331556 -0.177777,-0.593777 -0.307555,-1.0933328 -0.289777,-1.1093328 0.01778,-0.017778 0.302222,0.4248889 0.632888,0.9831108 0.330667,0.558222 0.753778,1.223111 0.940445,1.475556 0.956444,1.299555 2.103111,2.120888 2.412444,1.726222 0.408889,-0.519111 0.590223,-1.160889 0.645334,-2.272 0.03555,-0.766222 -0.07111,-2.8977777 -0.165334,-3.2284444 -0.01955,-0.069333 -0.0089,-0.1244444 0.02311,-0.1244444 0.032,0 0.184889,0.3733333 0.337778,0.832 0.407111,1.2017778 0.837334,2.2275558 1.173334,2.7928888 0.343111,0.576 0.952888,1.214222 1.263999,1.322666 0.200889,0.07111 0.238223,0.05689 0.503112,-0.200888 0.664888,-0.645334 1.096888,-2.021334 1.358222,-4.3200002 a 5.671111,5.671111 0 0 1 0.142222,-0.8533333 c 0.05333,-0.088889 0.06044,-0.088889 0.06222,0.010667 0,0.064 0.06756,0.6044445 0.145778,1.2053334 0.263111,1.9875551 0.645333,3.2088891 1.205333,3.8453331 0.360889,0.410667 0.453334,0.437333 0.810667,0.227556 0.739556,-0.433778 1.473778,-1.68 2.172444,-3.6924447 0.412445,-1.1822222 0.526223,-1.392 0.462223,-0.8515555 -0.332445,2.8444442 -0.151111,4.7075552 0.515555,5.3120002 0.131556,0.119111 0.183111,0.124444 0.426667,0.05156 0.808889,-0.241778 1.745778,-1.297778 2.954666,-3.324445 0.309334,-0.517333 0.568889,-0.9119997 0.581334,-0.8764441 0.01244,0.033778 -0.124445,0.5511111 -0.302222,1.1502221 -0.632889,2.133333 -0.760889,3.477333 -0.408889,4.263111 0.147555,0.327111 0.16,0.337778 0.456889,0.336 0.885333,-0.0053 1.994666,-0.826667 3.950222,-2.926222 0.248889,-0.264889 0.462222,-0.467556 0.48,-0.451556 0.01422,0.016 -0.184889,0.421334 -0.444445,0.899556 -1.173333,2.154666 -1.578666,3.409777 -1.376,4.254222 0.09956,0.414222 0.199111,0.462222 0.874667,0.407111 0.817778,-0.06578 1.934222,-0.625778 3.582222,-1.797333 0.52089,-0.371556 0.96,-0.663111 0.974223,-0.647111 0.01422,0.01422 -0.213334,0.307555 -0.510222,0.652444 -1.822222,2.128 -2.442666,3.265778 -2.348444,4.309334 0.03733,0.421333 0.03378,0.433777 -0.08,0.291555 -0.064,-0.08178 -0.320001,-0.405333 -0.563557,-0.72 C 45.22422,18.888001 43.890887,17.581334 43.028664,16.895111 40.55222,14.921778 37.154887,13.556445 33.937109,13.24 a 17.541333,17.541333 0 0 0 -13.221333,4.167111 15.950222,15.950222 0 0 0 -2.293334,2.375112 6.3822222,6.3822222 0 0 1 -0.519112,0.622222 c -0.01778,0 -0.01244,-0.07111 0.016,-0.156444 z M 32.033112,52.752889 C 31.752222,50.376 31.254445,48.930666 30.550445,48.429333 L 30.331779,48.272889 30.05089,48.431111 C 29.329112,48.834666 28.575334,50.104 27.878444,52.096889 L 27.482,53.224 c -0.09422,0.263111 -0.08889,-0.07111 0.01244,-1.168 0.209778,-2.234667 -0.01244,-3.848889 -0.604444,-4.384 -0.131556,-0.119111 -0.181333,-0.124445 -0.426667,-0.05333 -0.803555,0.241778 -1.728,1.285334 -2.951111,3.326223 -0.309333,0.515555 -0.572444,0.912 -0.584889,0.878222 -0.01067,-0.03556 0.124445,-0.545778 0.298667,-1.134222 0.634667,-2.122667 0.766222,-3.495111 0.412444,-4.282667 -0.145777,-0.325333 -0.159999,-0.336 -0.455111,-0.334222 -0.881778,0.0053 -2.019555,0.848 -3.952,2.926222 -0.24711,0.264889 -0.462221,0.467556 -0.479999,0.449778 -0.016,-0.016 0.152889,-0.360889 0.376888,-0.764445 1.208889,-2.184889 1.672889,-3.605333 1.443557,-4.426666 -0.104889,-0.373334 -0.218668,-0.419556 -0.872889,-0.368 -0.817778,0.06578 -1.934222,0.625777 -3.584001,1.797333 -0.520888,0.371556 -0.96,0.663111 -0.972445,0.648889 -0.01422,-0.01422 0.232889,-0.327111 0.549334,-0.693333 1.084444,-1.265778 1.649778,-2.072889 2.058667,-2.938667 0.209778,-0.444444 0.234667,-0.561778 0.234667,-1.12 0,-0.568889 0.01067,-0.613333 0.106667,-0.488889 l 0.552889,0.705778 c 0.533333,0.682667 1.866666,1.987555 2.728888,2.675555 1.893334,1.507556 4.572445,2.778667 7.018667,3.326223 a 18.666666,18.666666 0 0 0 5.900444,0.289777 17.338666,17.338666 0 0 0 9.468445,-4.202666 c 1.006222,-0.88 1.541333,-1.436445 2.224,-2.311111 a 6.2577777,6.2577777 0 0 1 0.512,-0.611556 c 0.01778,0 0.01244,0.06933 -0.01422,0.154667 -0.131556,0.414222 0.01067,1.217778 0.325333,1.836444 0.337778,0.663111 1.210667,1.845333 2.138667,2.897778 0.186666,0.211555 0.339555,0.412444 0.339555,0.446222 0,0.03378 -0.199111,-0.08355 -0.442667,-0.261333 -2.103111,-1.528889 -3.370666,-2.168889 -4.298666,-2.168889 -0.487111,0 -0.616889,0.08889 -0.688,0.471111 -0.16,0.844444 0.296889,2.200889 1.457778,4.334222 0.238222,0.437334 0.408887,0.796445 0.376888,0.796445 -0.03022,0 -0.391111,-0.369778 -0.8,-0.819556 -1.557333,-1.712 -2.791111,-2.583111 -3.662222,-2.583111 -0.200889,0 -0.254222,0.03911 -0.368,0.266667 -0.195555,0.387555 -0.234666,0.611555 -0.231111,1.304889 0.0036,0.753777 0.181333,1.653333 0.611556,3.098666 0.177777,0.599111 0.309333,1.102222 0.293333,1.12 -0.01778,0.01778 -0.302222,-0.426666 -0.634667,-0.984889 -1.184,-1.994666 -2.200888,-3.098666 -3.016888,-3.278222 -0.261334,-0.05689 -0.327112,-0.0036 -0.590224,0.494222 -0.241777,0.453334 -0.346666,0.935111 -0.391111,1.820445 -0.03733,0.725333 0.064,2.778666 0.16,3.230222 0.01778,0.08889 0.0071,0.16 -0.02489,0.16 -0.032,0 -0.147555,-0.279111 -0.257777,-0.622222 -0.362667,-1.118222 -0.883556,-2.382222 -1.221334,-2.958222 -0.369777,-0.631112 -0.96,-1.253334 -1.299555,-1.370667 -0.209778,-0.07289 -0.243555,-0.06045 -0.543999,0.216889 -0.659556,0.608 -1.072,1.884444 -1.342223,4.154666 -0.07111,0.592 -0.147555,1.075556 -0.172444,1.075556 -0.02311,0 -0.09778,-0.471111 -0.167111,-1.045333 z"

     id="path255"
     style="fill:url(#l);stroke-width:1.77778" />
  <path
     d="m 32.200222,14.687111 a 16,16 0 0 0 -16,16 16,16 0 0 0 16,16 16,16 0 0 0 16,-16 16,16 0 0 0 -16,-16 z m 0,2 a 14,14 0 0 1 14,14 14,14 0 0 1 -14,14 14,14 0 0 1 -10.536889,-4.808889 c 1.008001,-0.728889 2.661335,-0.544 4.695111,-0.314667 0.990223,0.115556 2.119111,0.245334 3.287111,0.272 3.260445,0.02133 6.773334,-0.581333 8.936889,-1.528888 1.400889,-0.608 2.293333,-1.013334 2.853333,-1.521778 0.202667,-0.167111 0.307556,-0.439111 0.416,-0.728889 l 0.07644,-0.193778 c 0.08889,-0.236444 0.222222,-0.734222 0.280889,-1.008 0.02489,-0.119111 0.05333,-0.236444 -0.048,-0.314667 -0.08889,-0.06933 -0.298667,0.05689 -0.298667,0.05689 -0.951111,0.572445 -3.328,1.655111 -5.548444,1.701334 -2.759111,0.05511 -8.346667,-2.791111 -8.924445,-3.093334 -0.389333,-0.922666 -0.776888,-1.845333 -1.169777,-2.766222 4,2.634667 7.315555,4.090667 9.852444,4.316445 2.826667,0.250666 5.031111,-1.290667 5.985778,-1.932445 0.124444,-0.08355 0.248889,-0.177778 0.364444,-0.266666 0.02133,-0.016 0.07111,-0.05689 0.064,-0.096 -0.16,-0.990223 -1.635555,-5.795557 -2.752,-6.951112 -0.307555,-0.312889 -0.554666,-0.622222 -1.052444,-0.915556 -4.040889,-2.355555 -13.628445,-3.776 -14.076445,-3.84 0,0 -0.04622,-0.01067 -0.07644,0.01956 -0.02489,0.02489 -0.03022,0.07111 -0.03022,0.07111 0,0 -0.03556,1.985778 -0.04267,2.208 A 58.158222,58.158222 0 0 0 21.177998,22.080892 14,14 0 0 1 32.20022,16.687115 Z m 2.917333,8.120889 0.206224,0.0018 a 4.1155555,4.1155555 0 0 1 3.957332,4.245334 4.0888888,4.0888888 0 0 1 -1.299556,2.855111 c -0.8,0.752 -1.843555,1.137778 -2.945777,1.102222 A 4.1155555,4.1155555 0 0 1 31.082,28.767134 c 0.04089,-1.095111 0.497778,-2.112 1.297778,-2.856889 0.752001,-0.702222 1.717333,-1.084445 2.737777,-1.102222 z m 0.02845,1.208888 a 2.8177777,2.8177777 0 0 0 -1.905777,0.764445 c -0.556444,0.522666 -0.883556,1.226667 -0.906667,1.991111 a 2.8711111,2.8711111 0 0 0 2.75911,2.967112 c 0.764446,0.02311 1.49689,-0.248889 2.055112,-0.769778 a 2.8675555,2.8675555 0 0 0 -2.001778,-4.95289 z m 0.609778,1.436445 c 0.702222,0 1.271111,0.378667 1.271111,0.848 0,0.465778 -0.568889,0.844445 -1.271111,0.844445 -0.700445,0 -1.267556,-0.378667 -1.267556,-0.844445 0,-0.469333 0.567111,-0.848 1.267556,-0.848 z"

     id="path257"
     style="fill:url(#m);stroke-width:1.77778" />
</svg>
