<?xml version="1.0" encoding="UTF-8" standalone="no"?>
<svg
   width="64pt"
   height="64pt"
   viewBox="0 0 64.000003 64.000002"
   version="1.1"
   id="svg2"
   inkscape:version="1.2.1 (9c6d41e410, 2022-07-14)"
   sodipodi:docname="pattern-budgie.svg"
   inkscape:export-filename="/home/yurihenriq/Documentos/budgie2.svg.png"
   inkscape:export-xdpi="751.22449"
   inkscape:export-ydpi="751.22449"
   xmlns:inkscape="http://www.inkscape.org/namespaces/inkscape"
   xmlns:sodipodi="http://sodipodi.sourceforge.net/DTD/sodipodi-0.dtd"
   xmlns:xlink="http://www.w3.org/1999/xlink"
   xmlns="http://www.w3.org/2000/svg"
   xmlns:svg="http://www.w3.org/2000/svg"
   xmlns:rdf="http://www.w3.org/1999/02/22-rdf-syntax-ns#"
   xmlns:cc="http://creativecommons.org/ns#"
   xmlns:dc="http://purl.org/dc/elements/1.1/">
  <metadata
     id="metadata26">
    <rdf:RDF>
      <cc:Work
         rdf:about="">
        <dc:format>image/svg+xml</dc:format>
        <dc:type
           rdf:resource="http://purl.org/dc/dcmitype/StillImage" />
        <dc:creator>
          <cc:Agent>
            <dc:title>Original work by Yuri Henrique, modified by Solus.</dc:title>
          </cc:Agent>
        </dc:creator>
        <dc:source>http://getsol.us/branding/</dc:source>
        <cc:license
           rdf:resource="http://creativecommons.org/licenses/by-sa/4.0/" />
      </cc:Work>
      <cc:License
         rdf:about="http://creativecommons.org/licenses/by-sa/4.0/">
        <cc:permits
           rdf:resource="http://creativecommons.org/ns#Reproduction" />
        <cc:permits
           rdf:resource="http://creativecommons.org/ns#Distribution" />
        <cc:requires
           rdf:resource="http://creativecommons.org/ns#Notice" />
        <cc:requires
           rdf:resource="http://creativecommons.org/ns#Attribution" />
        <cc:permits
           rdf:resource="http://creativecommons.org/ns#DerivativeWorks" />
        <cc:requires
           rdf:resource="http://creativecommons.org/ns#ShareAlike" />
      </cc:License>
    </rdf:RDF>
  </metadata>
  <defs
     id="defs24">
    <linearGradient
       inkscape:collect="always"
       xlink:href="#linearGradient22063"
       id="linearGradient22065"
       x1="-14"
       y1="6"
       x2="-14"
       y2="-9.999999"
       gradientUnits="userSpaceOnUse"
       gradientTransform="matrix(3.6250002,0,0,3.6250002,82.750007,39.249999)" />
    <linearGradient
       inkscape:collect="always"
       id="linearGradient22063">
      <stop
         style="stop-color:#292f3a;stop-opacity:1;"
         offset="0"
         id="stop22059" />
      <stop
         style="stop-color:#535e75;stop-opacity:1;"
         offset="1"
         id="stop22061" />
    </linearGradient>
    <linearGradient
       id="a-0"
       gradientTransform="matrix(1.1785714,0,0,1.1,-449.82956,-544.18)"
       gradientUnits="userSpaceOnUse"
       x1="409.57101"
       x2="409.57101"
       y1="543.79797"
       y2="503.798">
      <stop
         offset="0"
         stop-color="#73ba25"
         id="stop4437" />
      <stop
         offset="1"
         stop-color="#96cb5c"
         id="stop4439" />
    </linearGradient>
    <linearGradient
       id="b-9"
       gradientTransform="matrix(1.5714285,0,0,1.76,6.55728,6.480001)"
       gradientUnits="userSpaceOnUse"
       x1="4"
       x2="4"
       y1="27"
       y2="2">
      <stop
         offset="0"
         stop-color="#173f4f"
         id="stop4422" />
      <stop
         offset="1"
         stop-color="#516f7b"
         id="stop4424" />
    </linearGradient>
    <linearGradient
       id="c-36"
       gradientUnits="userSpaceOnUse"
       x1="17"
       x2="17"
       y1="30"
       y2="27"
       gradientTransform="matrix(1.5714285,0,0,1.5714285,6.55728,6.857143)">
      <stop
         offset="0"
         stop-color="#292c2f"
         stop-opacity=".6"
         id="stop4417" />
      <stop
         offset="1"
         stop-color="#292c2f"
         stop-opacity=".4"
         id="stop4419" />
    </linearGradient>
    <linearGradient
       id="d-0"
       gradientUnits="userSpaceOnUse"
       x1="17"
       x2="28"
       y1="14"
       y2="25"
       gradientTransform="matrix(1.5714285,0,0,1.5714285,6.55728,6.857143)">
      <stop
         offset="0"
         stop-color="#292c2f"
         id="stop4432" />
      <stop
         offset="1"
         stop-opacity="0"
         id="stop4434" />
    </linearGradient>
    <linearGradient
       id="e-62"
       gradientUnits="userSpaceOnUse"
       x1="17"
       x2="17"
       y1="22"
       y2="6"
       gradientTransform="matrix(1.5714285,0,0,1.5714285,6.55728,6.857143)">
      <stop
         offset="0"
         stop-color="#eff0f1"
         id="stop4427" />
      <stop
         offset="1"
         stop-color="#fcfcfc"
         id="stop4429" />
    </linearGradient>
  </defs>
  <sodipodi:namedview
     pagecolor="#ffffff"
     bordercolor="#666666"
     borderopacity="1"
     objecttolerance="10"
     gridtolerance="10"
     guidetolerance="10"
     inkscape:pageopacity="0"
     inkscape:pageshadow="2"
     inkscape:window-width="1920"
     inkscape:window-height="1002"
     id="namedview22"
     showgrid="true"
     inkscape:zoom="4.2080906"
     inkscape:cx="61.548104"
     inkscape:cy="30.06114"
     inkscape:window-x="0"
     inkscape:window-y="0"
     inkscape:window-maximized="1"
     inkscape:current-layer="svg2"
     fit-margin-top="0"
     fit-margin-left="0"
     fit-margin-right="0"
     fit-margin-bottom="0"
     inkscape:showpageshadow="2"
     inkscape:pagecheckerboard="0"
     inkscape:deskcolor="#d1d1d1"
     inkscape:document-units="pt">
    <inkscape:grid
       type="xygrid"
       id="grid4143"
       originx="0"
       originy="-12.332419" />
  </sodipodi:namedview>
  <path
     d="M 0,0 H 83.930139 C 63.921666,0.90257068 44.252774,8.7308073 29.346952,22.153196 11.769165,37.586262 1.0812976,60.356065 0,83.688859 Z"
     id="path4"
     style="opacity:0;fill:#ffffff"
     inkscape:connector-curvature="0" />
  <path
     d="M 92.169448,0 H 175.15234 V 84.046312 C 174.19614,60.391811 163.28487,37.291362 145.37644,21.768933 130.76552,8.7576167 111.65068,1.19747 92.169448,0 Z"
     id="path8"
     style="opacity:0;fill:#ffffff"
     inkscape:connector-curvature="0" />
  <path
     d="m 0,91.651139 c 1.1438519,23.270241 11.813847,45.959621 29.346952,61.356941 14.852203,13.36877 34.422796,21.1702 54.350843,22.14426 H 0 Z"
     id="path18"
     style="opacity:0;fill:#ffffff"
     inkscape:connector-curvature="0" />
  <path
     d="m 153.44596,145.29601 c 12.97557,-14.60199 20.5089,-33.68107 21.70638,-53.126565 V 175.15234 H 91.713695 c 23.475775,-1.1796 46.343875,-12.03725 61.732265,-29.85633 z"
     id="path20"
     style="opacity:0;fill:#ffffff"
     inkscape:connector-curvature="0" />
  <path
     d="M 3,10.25 C 3,6.245825 6.24593,3 10.25,3 h 43.500005 c 4.00417,0 7.25,3.245825 7.25,7.25 v 43.5 c 0,4.004173 -3.24583,7.25 -7.25,7.25 H 10.25 C 6.24593,61 3,57.754173 3,53.75 Z"
     id="path736"
     style="fill:#606c86;fill-opacity:1;stroke-width:3.625" />
  <path
     d="M 3,9.796875 C 3,6.043188 6.24593,3 10.25,3 h 43.500005 c 4.00417,0 7.25,3.043188 7.25,6.796875 v 40.781249 c 0,3.753693 -3.24583,6.796876 -7.25,6.796876 H 10.25 C 6.24593,57.375 3,54.331817 3,50.578124 Z"
     id="path738"
     style="fill:url(#linearGradient22065);fill-opacity:1;stroke-width:3.625" />
  <path
     d="m 30.858079,14.55738 c 3.308108,-2.392437 7.621507,-2.80936 11.57643,-2.439194 4.200402,0.471473 8.467039,2.09631 11.303671,5.342067 1.924857,2.111886 2.918462,4.890081 3.308105,7.683847 0.140276,1.052051 0.276656,2.107993 0.342892,3.16784 0.342891,5.575853 -1.706654,11.112744 -5.096586,15.48849 -3.682173,3.912057 -8.580038,6.61231 -13.774043,7.917633 C 30.92432,53.611757 22.546899,52.450603 15.887826,48.285266 11.683524,45.666841 8.2390425,41.774257 6.353148,37.176416 4.6932487,32.675991 4.712733,27.743053 5.593336,23.078973 c 0.7364334,2.824945 2.9028731,5.244655 5.70834,6.113568 2.579458,0.81047 5.782361,0.522131 7.699431,-1.554695 4.348466,-4.001685 6.962998,-9.643778 11.856972,-13.080466 z"
     id="path10"
     inkscape:connector-curvature="0"
     style="fill:#ffffff;stroke-width:0.436025" />
  <path
     d="m 43.825553,21.621687 c 0.716948,-1.496239 2.696357,-1.554688 3.888677,-0.600058 -0.245475,0.07407 -0.736435,0.226003 -0.981908,0.303933 0.01946,0.292234 0.05059,0.880603 0.07017,1.172836 0.529923,0.05457 1.052051,-0.05461 1.55859,-0.210413 -0.109098,1.098811 -0.522128,2.361263 -1.737824,2.645712 -1.901483,0.736433 -3.795172,-1.554695 -2.797667,-3.31201 z"
     id="path12"
     inkscape:connector-curvature="0"
     style="fill:#404552;stroke-width:0.436025" />
  <path
     d="m 57.046285,25.1441 c 1.219598,0.420825 2.44699,0.818264 3.670482,1.219596 -1.118287,0.635129 -2.232677,1.27415 -3.32759,1.948244 -0.06628,-1.059847 -0.202616,-2.115789 -0.342892,-3.16784 z"
     id="path14"
     inkscape:connector-curvature="0"
     style="fill:#5294e2;stroke-width:0.436025" />
  <path
     d="m 23.178125,31.019993 c 0.810469,-1.441698 2.337888,-2.326203 3.951031,-2.552195 2.976901,-0.327306 5.88757,2.419711 5.486237,5.435585 -0.522128,1.905373 -1.733933,3.873096 -3.756204,4.406908 -5.158936,1.180635 -10.267216,-0.705265 -15.192359,-2.053439 3.627619,-0.51044 7.54358,-1.932654 9.511295,-5.236859 z"
     id="path16"
     inkscape:connector-curvature="0"
     style="fill:#5294e2;stroke-width:0.436025" />
  <circle
     style="fill:#404552;fill-opacity:1;stroke:#404552;stroke-width:0.311715;stroke-opacity:1"
     id="path3362"
     cx="45.989883"
     cy="22.727314"
     r="2.2953882" />
  <ellipse
     style="fill:#ffffff;fill-opacity:1;stroke:#ffffff;stroke-width:0.311715;stroke-opacity:1"
     id="path3370"
     cx="47.241257"
     cy="21.647568"
     rx="0.6721698"
     ry="0.65786833" />
</svg>
