<?xml version="1.0" encoding="UTF-8" standalone="no"?>
<!-- Created with Inkscape (http://www.inkscape.org/) -->

<svg
   width="64"
   version="1.1"
   height="64"
   id="svg3307"
   sodipodi:docname="pattern-rpm-devel.svg"
   inkscape:version="1.2.1 (9c6d41e410, 2022-07-14)"
   xmlns:inkscape="http://www.inkscape.org/namespaces/inkscape"
   xmlns:sodipodi="http://sodipodi.sourceforge.net/DTD/sodipodi-0.dtd"
   xmlns:xlink="http://www.w3.org/1999/xlink"
   xmlns="http://www.w3.org/2000/svg"
   xmlns:svg="http://www.w3.org/2000/svg">
  <sodipodi:namedview
     id="namedview3309"
     pagecolor="#ffffff"
     bordercolor="#666666"
     borderopacity="1.0"
     inkscape:showpageshadow="2"
     inkscape:pageopacity="0.0"
     inkscape:pagecheckerboard="0"
     inkscape:deskcolor="#d1d1d1"
     showgrid="false"
     inkscape:zoom="5.2149125"
     inkscape:cx="47.460048"
     inkscape:cy="18.121109"
     inkscape:window-width="1920"
     inkscape:window-height="1002"
     inkscape:window-x="0"
     inkscape:window-y="0"
     inkscape:window-maximized="1"
     inkscape:current-layer="layer1" />
  <defs
     id="defs5455">
    <linearGradient
       id="linearGradient1641"
       gradientUnits="userSpaceOnUse"
       x2="0"
       y1="30"
       y2="8">
      <stop
         offset="0"
         stop-color="#cea476"
         id="stop1637"
         style="stop-color:#4c566a;stop-opacity:1;" />
      <stop
         offset="1"
         stop-color="#dab58b"
         id="stop1639"
         style="stop-color:#2e3440;stop-opacity:1;" />
    </linearGradient>
    <linearGradient
       inkscape:collect="always"
       xlink:href="#linearGradient22063-0"
       id="linearGradient22065-6"
       x1="-22"
       y1="5.1111121"
       x2="-6.4444442"
       y2="-9.1111107"
       gradientUnits="userSpaceOnUse"
       gradientTransform="matrix(3.6250002,0,0,3.6250002,467.32143,555.048)" />
    <linearGradient
       inkscape:collect="always"
       id="linearGradient22063-0">
      <stop
         style="stop-color:#5faac0;stop-opacity:1;"
         offset="0"
         id="stop22059-6" />
      <stop
         style="stop-color:#8fbcbb;stop-opacity:1;"
         offset="1"
         id="stop22061-2" />
    </linearGradient>
    <linearGradient
       id="b"
       gradientTransform="matrix(1.0062171,0,0,0.92307428,-418.26514,-495.31942)"
       gradientUnits="userSpaceOnUse"
       x1="388.423"
       x2="388.423"
       y1="557.79797"
       y2="505.798">
      <stop
         offset="0"
         stop-color="#7f8c8d"
         id="stop13" />
      <stop
         offset="1"
         stop-color="#afb0b3"
         id="stop15" />
    </linearGradient>
    <linearGradient
       id="d"
       gradientTransform="matrix(0.89441142,0,0,0.92307428,-28.621713,-33.965714)"
       gradientUnits="userSpaceOnUse"
       x1="1.3329999"
       x2="1.3329999"
       y1="48.714001"
       y2="9.7139997">
      <stop
         offset="0"
         stop-color="#eef1f2"
         id="stop19" />
      <stop
         offset="1"
         stop-color="#f9fafb"
         id="stop21" />
    </linearGradient>
    <linearGradient
       id="f"
       gradientUnits="userSpaceOnUse"
       x1="-11.306"
       x2="-11.306"
       y1="23.620001"
       y2="7.6199999"
       gradientTransform="matrix(1.7142857,0,0,1.7142857,-27.42857,-31.857142)">
      <stop
         offset="0"
         stop-color="#3e3e3e"
         id="stop2" />
      <stop
         offset="1"
         stop-color="#5c5c5c"
         id="stop4" />
    </linearGradient>
    <linearGradient
       id="a"
       gradientTransform="matrix(0.57142824,0,0,0.57142824,-222.46924,732.04922)"
       gradientUnits="userSpaceOnUse"
       x2="0"
       xlink:href="#b-3"
       y1="543.79797"
       y2="503.798" />
    <linearGradient
       id="b-3">
      <stop
         offset="0"
         stop-color="#2f3943"
         id="stop2771" />
      <stop
         offset="1"
         stop-color="#808c9b"
         id="stop2773" />
    </linearGradient>
    <linearGradient
       id="c"
       gradientTransform="matrix(0.63636312,0,0,0.63636312,-248.99977,698.03648)"
       gradientUnits="userSpaceOnUse"
       x2="0"
       xlink:href="#b-3"
       y1="499.798"
       y2="547.79797" />
    <linearGradient
       id="e"
       gradientUnits="userSpaceOnUse"
       x1="8"
       x2="20"
       y1="6"
       y2="20">
      <stop
         offset="0"
         id="stop2782" />
      <stop
         offset="1"
         stop-opacity="0"
         id="stop2784" />
    </linearGradient>
    <linearGradient
       id="d-6"
       gradientUnits="userSpaceOnUse"
       x1="11"
       x2="11"
       y1="17"
       y2="6">
      <stop
         offset="0"
         stop-color="#ffd42a"
         id="stop2777" />
      <stop
         offset="1"
         stop-color="#ffdf62"
         id="stop2779" />
    </linearGradient>
    <filter
       id="filter6437"
       x="-0.10795185"
       y="-0.10804809"
       width="1.2159037"
       height="1.2160962"
       color-interpolation-filters="sRGB">
      <feGaussianBlur
         stdDeviation="0.41036932"
         id="feGaussianBlur438" />
    </filter>
    <linearGradient
       id="linearGradient6207"
       x1="7.6350002"
       x2="8.7609997"
       y1="5.7037001"
       y2="14.001"
       gradientUnits="userSpaceOnUse"
       gradientTransform="matrix(4.3479357,0,0,4.3479357,436.80937,445.11776)">
      <stop
         stop-color="#2e3440"
         offset="0"
         id="stop433" />
      <stop
         stop-color="#4c566a"
         offset="1"
         id="stop435" />
    </linearGradient>
    <linearGradient
       id="c-3"
       gradientUnits="userSpaceOnUse"
       x2="0"
       xlink:href="#linearGradient1641"
       y1="8"
       y2="2"
       gradientTransform="matrix(1.5714286,0,0,1.5714286,391.42858,522.21129)" />
    <linearGradient
       id="b-6"
       gradientUnits="userSpaceOnUse"
       x2="0"
       y1="30"
       y2="8">
      <stop
         offset="0"
         stop-color="#cea476"
         id="stop164" />
      <stop
         offset="1"
         stop-color="#dab58b"
         id="stop166" />
    </linearGradient>
    <linearGradient
       id="d-7"
       gradientUnits="userSpaceOnUse"
       x2="0"
       xlink:href="#linearGradient1641"
       y1="30"
       y2="8"
       gradientTransform="matrix(1.5714286,0,0,1.5714286,391.42858,522.21129)" />
    <linearGradient
       id="linearGradient331"
       gradientUnits="userSpaceOnUse"
       x2="0"
       y1="30"
       y2="8">
      <stop
         offset="0"
         stop-color="#cea476"
         id="stop327" />
      <stop
         offset="1"
         stop-color="#dab58b"
         id="stop329" />
    </linearGradient>
    <linearGradient
       id="e-5"
       gradientUnits="userSpaceOnUse"
       x1="16"
       x2="16"
       xlink:href="#linearGradient22063-0"
       y1="8"
       y2="2" />
    <linearGradient
       id="a-3"
       gradientTransform="matrix(0.66667,0,0,0.66667,-256.38,-333.867)"
       gradientUnits="userSpaceOnUse"
       x2="0"
       y1="512.79999"
       y2="503.79999">
      <stop
         offset="0"
         stop-color="#ebc69a"
         id="stop172" />
      <stop
         offset="1"
         stop-color="#f4e0c8"
         stop-opacity="0"
         id="stop174" />
    </linearGradient>
    <linearGradient
       id="f-5"
       gradientUnits="userSpaceOnUse"
       x1="16"
       x2="16.000002"
       xlink:href="#linearGradient22063-0"
       y1="11"
       y2="8.000001" />
    <linearGradient
       id="linearGradient342"
       gradientTransform="matrix(0.66667,0,0,0.66667,-256.38,-333.867)"
       gradientUnits="userSpaceOnUse"
       x2="0"
       y1="512.79999"
       y2="503.79999">
      <stop
         offset="0"
         stop-color="#ebc69a"
         id="stop338" />
      <stop
         offset="1"
         stop-color="#f4e0c8"
         stop-opacity="0"
         id="stop340" />
    </linearGradient>
    <linearGradient
       id="a-36"
       gradientUnits="userSpaceOnUse"
       x1="16"
       x2="16"
       y1="30"
       y2="2"
       gradientTransform="matrix(1.5714286,0,0,1.5714286,391.42858,522.04316)">
      <stop
         offset="0"
         stop-color="#db3636"
         id="stop195" />
      <stop
         offset="1"
         stop-color="#de4646"
         id="stop197" />
    </linearGradient>
    <linearGradient
       id="b-7"
       gradientUnits="userSpaceOnUse"
       x1="-7.1999998"
       x2="-7.1999998"
       y1="-6"
       y2="-28">
      <stop
         offset="0"
         stop-color="#1b1e21"
         id="stop210" />
      <stop
         offset="1"
         stop-color="#363c42"
         id="stop212" />
    </linearGradient>
    <linearGradient
       id="c-5"
       gradientUnits="userSpaceOnUse"
       x1="-4.1999998"
       x2="11.8"
       y1="-25"
       y2="-9">
      <stop
         offset="0"
         stop-color="#292c2f"
         id="stop205" />
      <stop
         offset="1"
         stop-opacity="0"
         id="stop207" />
    </linearGradient>
    <linearGradient
       id="d-3"
       gradientUnits="userSpaceOnUse"
       x1="3.8"
       x2="13.8"
       y1="-17"
       y2="-7">
      <stop
         offset="0"
         id="stop215" />
      <stop
         offset="1"
         stop-opacity="0"
         id="stop217" />
    </linearGradient>
    <linearGradient
       id="e-56"
       gradientUnits="userSpaceOnUse"
       x1="3.8"
       x2="3.8"
       y1="-6"
       y2="-28">
      <stop
         offset="0"
         stop-color="#4d4d4d"
         id="stop200" />
      <stop
         offset="1"
         stop-color="#7f8c8d"
         id="stop202" />
    </linearGradient>
  </defs>
  <metadata
     id="metadata5458" />
  <g
     inkscape:label="Capa 1"
     inkscape:groupmode="layer"
     id="layer1"
     transform="translate(-384.57143,-515.798)">
    <path
       d="m 387.57143,526.048 c 0,-4.00417 3.24594,-7.25 7.25,-7.25 h 43.5 c 4.00418,0 7.25,3.24583 7.25,7.25 v 43.5 c 0,4.00417 -3.24582,7.25 -7.25,7.25 h -43.5 c -4.00406,0 -7.25,-3.24583 -7.25,-7.25 z"
       id="path736-7"
       style="fill:#606c86;fill-opacity:1;stroke-width:3.625" />
    <path
       d="m 387.57143,525.59488 c 0,-3.75369 3.24594,-6.79688 7.25,-6.79688 h 43.5 c 4.00418,0 7.25,3.04319 7.25,6.79688 v 40.78124 c 0,3.7537 -3.24582,6.79688 -7.25,6.79688 h -43.5 c -4.00406,0 -7.25,-3.04318 -7.25,-6.79688 z"
       id="path738-9"
       style="fill:url(#linearGradient22065-6);fill-opacity:1;stroke-width:3.625" />
    <path
       d="m 416.57143,525.186 a 22,22 0 0 0 -4.71429,0.528 v 3.23557 a 18.857143,18.857143 0 0 0 -4.84628,2.00672 l -2.28329,-2.28329 a 22,22 0 0 0 -6.68485,6.65343 l 2.299,2.299 a 18.857143,18.857143 0 0 0 -2.01458,4.84628 h -3.22142 a 22,22 0 0 0 -0.53429,4.71429 22,22 0 0 0 0.528,4.71429 h 3.23557 a 18.857143,18.857143 0 0 0 2.00672,4.84628 l -2.28329,2.28329 a 22,22 0 0 0 6.65343,6.68485 l 2.299,-2.299 a 18.857143,18.857143 0 0 0 4.84628,2.01458 v 3.22142 a 22,22 0 0 0 4.71429,0.53429 22,22 0 0 0 4.71429,-0.528 v -3.23557 a 18.857143,18.857143 0 0 0 4.84628,-2.00672 l 2.28329,2.28329 a 22,22 0 0 0 6.68485,-6.65343 l -2.299,-2.299 a 18.857143,18.857143 0 0 0 2.01458,-4.84628 h 3.22142 a 22,22 0 0 0 0.53429,-4.71429 22,22 0 0 0 -0.528,-4.71429 h -3.23557 a 18.857143,18.857143 0 0 0 -2.00672,-4.84628 l 2.28329,-2.28329 a 22,22 0 0 0 -6.65343,-6.68485 l -2.299,2.299 a 18.857143,18.857143 0 0 0 -4.84628,-2.01458 v -3.22142 a 22,22 0 0 0 -4.71429,-0.53429 z m 11.85957,3.47129 a 22,22 0 0 0 -7.08086,-2.91815 22,22 0 0 1 7.08086,2.91815 z m 9.61243,13.81442 a 22,22 0 0 0 -2.88829,-7.00857 22,22 0 0 1 2.88829,7.00857 z m -2.94329,16.57386 a 22,22 0 0 0 2.91815,-7.08086 22,22 0 0 1 -2.91815,7.08086 z m -13.81442,9.61243 a 22,22 0 0 0 7.00857,-2.88829 22,22 0 0 1 -7.00857,2.88829 z m -16.57386,-2.94329 a 22,22 0 0 0 7.08086,2.91815 22,22 0 0 1 -7.08086,-2.91815 z m -9.61243,-13.81442 a 22,22 0 0 0 2.88829,7.00857 22,22 0 0 1 -2.88829,-7.00857 z m 2.94329,-16.57386 a 22,22 0 0 0 -2.91815,7.08086 22,22 0 0 1 2.91815,-7.08086 z m 13.81442,-9.61243 a 22,22 0 0 0 -7.00857,2.88829 22,22 0 0 1 7.00857,-2.88829 z"

       id="path220"
       style="fill:url(#a-36);stroke-width:1.57143" />
    <g
       transform="matrix(1.5714286,0,0,1.5714286,410.6,573.90029)"
       id="g242">
      <path
         d="m 14.8,-17 a 11,11 0 0 1 -11,11 11,11 0 0 1 -11,-11 11,11 0 0 1 11,-11 11,11 0 0 1 11,11 z"

         id="path222"
         style="fill:url(#b-7)" />
      <path
         d="m 4.331,-25.99 a 8.986,8.986 0 0 0 -2.408,0.191 l 0.184,0.985 a 8.009,8.009 0 0 1 2.166,-0.178 7.99,7.99 0 0 1 6.681,4.416 l 0.893,-0.447 A 8.988,8.988 0 0 0 4.33,-25.99 Z m -5,1.183 a 9,9 0 0 0 -3.68,3.985 l 0.87,0.517 a 8.002,8.002 0 0 1 3.26,-3.607 z m 12.278,6.084 c 0.014,0.066 0.026,0.133 0.039,0.2 -0.013,-0.067 -0.025,-0.134 -0.04,-0.2 z m -16.682,0.274 c -0.052,0.301 -0.09,0.607 -0.111,0.912 -0.018,0.334 -0.017,0.668 0.002,1.002 l 1.01,0.058 a 7.976,7.976 0 0 1 -0.014,-1.002 7.99,7.99 0 0 1 0.076,-0.705 z m 16.83,0.685 c 0.008,0.083 0.016,0.165 0.022,0.248 -0.006,-0.083 -0.014,-0.165 -0.022,-0.248 z"
         fill="#fcfcfc"
         id="path224" />
      <path
         d="m 11.847,-21.023 -0.893,0.447 a 7.951,7.951 0 0 1 0.832,4.04 7.895,7.895 0 0 1 -0.129,0.995 l 1.002,0.06 c 0.06,-0.328 0.102,-0.66 0.125,-0.994 a 8.953,8.953 0 0 0 -0.937,-4.548 z"
         fill="#ed1515"
         id="path226" />
      <path
         d="m 14.8,-17 a 11,11 0 0 1 -11,11 11,11 0 0 1 -11,-11 11,11 0 0 1 11,-11 11,11 0 0 1 11,11 z"

         opacity="0.2"
         id="path228"
         style="fill:url(#c-5)" />
      <path
         d="m 5.895,-16.642 a 1.541,1.541 0 0 1 -0.018,0.098 c 0.007,-0.032 0.012,-0.065 0.018,-0.098 z"
         fill="#fcbcbe"
         id="path230" />
      <path
         d="m 2.386,-15.586 10.414,10.414 4,-5.775 -3.37,-3.37 L 4.8,-17 Z"

         opacity="0.2"
         id="path232"
         style="fill:url(#d-3)" />
      <path
         d="M 4.779,-17.201 A 1,1 0 0 1 4.8,-17 1,1 0 0 1 4.462,-16.252 l 8.18,2.727 0.472,0.158 0.317,-0.95 -0.475,-0.158 z"
         fill="#da4453"
         id="path234" />
      <circle
         cx="3.8"
         cy="-17"
         fill="#eff0f1"
         r="2"
         id="circle236" />
      <path
         d="m 4.8,-17 a 1,1 0 0 1 -1,1 1,1 0 0 1 -1,-1 1,1 0 0 1 1,-1 1,1 0 0 1 1,1 z"
         fill="#31363b"
         id="path238" />
      <path
         d="m 3.8,-28 a 11,11 0 0 0 -11,11 11,11 0 0 0 0.402,2.89 l 0.953,-0.26 A 10,10 0 0 1 -6.2,-17 a 10,10 0 0 1 10,-10 10,10 0 0 1 10,10 10,10 0 0 1 -0.371,2.627 l 0.973,0.264 A 11,11 0 0 0 14.8,-17 11,11 0 0 0 3.8,-28 Z"

         id="path240"
         style="fill:url(#e-56)" />
    </g>
  </g>
</svg>
