<?xml version="1.0" encoding="UTF-8" standalone="no"?>
<!-- Created with Inkscape (http://www.inkscape.org/) -->

<svg
   width="64.0px"
   height="64.0px"
   viewBox="0 0 64.0 64.0"
   version="1.1"
   id="SVGRoot"
   sodipodi:docname="syncplay.svg"
   inkscape:version="1.3 (0e150ed6c4, 2023-07-21)"
   xmlns:inkscape="http://www.inkscape.org/namespaces/inkscape"
   xmlns:sodipodi="http://sodipodi.sourceforge.net/DTD/sodipodi-0.dtd"
   xmlns:xlink="http://www.w3.org/1999/xlink"
   xmlns="http://www.w3.org/2000/svg"
   xmlns:svg="http://www.w3.org/2000/svg">
  <sodipodi:namedview
     id="namedview475"
     pagecolor="#ffffff"
     bordercolor="#666666"
     borderopacity="1.0"
     inkscape:showpageshadow="2"
     inkscape:pageopacity="0.0"
     inkscape:pagecheckerboard="0"
     inkscape:deskcolor="#d1d1d1"
     inkscape:document-units="px"
     showgrid="false"
     inkscape:zoom="4.7572176"
     inkscape:cx="36.365795"
     inkscape:cy="45.509795"
     inkscape:window-width="1920"
     inkscape:window-height="994"
     inkscape:window-x="0"
     inkscape:window-y="0"
     inkscape:window-maximized="1"
     inkscape:current-layer="layer1">
    <inkscape:grid
       type="xygrid"
       id="grid598"
       originx="0"
       originy="0"
       spacingy="1"
       spacingx="1"
       units="px"
       visible="false" />
  </sodipodi:namedview>
  <defs
     id="defs470">
    <linearGradient
       inkscape:collect="always"
       id="linearGradient949">
      <stop
         style="stop-color:#bf616a;stop-opacity:1;"
         offset="0"
         id="stop945" />
      <stop
         style="stop-color:#bf616a;stop-opacity:1;"
         offset="1"
         id="stop947" />
    </linearGradient>
    <linearGradient
       inkscape:collect="always"
       xlink:href="#linearGradient22063"
       id="linearGradient22065"
       x1="-14"
       y1="6"
       x2="-14"
       y2="-9.999999"
       gradientUnits="userSpaceOnUse"
       gradientTransform="matrix(3.6250002,0,0,3.6250002,82.830005,39.249999)" />
    <linearGradient
       inkscape:collect="always"
       id="linearGradient22063">
      <stop
         style="stop-color:#292f3a;stop-opacity:1;"
         offset="0"
         id="stop22059" />
      <stop
         style="stop-color:#535e75;stop-opacity:1;"
         offset="1"
         id="stop22061" />
    </linearGradient>
    <linearGradient
       inkscape:collect="always"
       xlink:href="#linearGradient949"
       id="linearGradient1105"
       gradientUnits="userSpaceOnUse"
       gradientTransform="matrix(1.0175438,0,0,0.95394734,-0.56140906,-0.33881613)"
       x1="3"
       y1="60"
       x2="60"
       y2="4" />
    <linearGradient
       id="a"
       x1="30"
       x2="30"
       y1="8"
       y2="27"
       gradientUnits="userSpaceOnUse"
       gradientTransform="matrix(0.67368419,0,0,0.67368419,8.5788609,8.2380355)">
      <stop
         stop-color="#dbdbdb"
         offset="0"
         id="stop2" />
      <stop
         stop-color="#b2b2b2"
         offset="1"
         id="stop4" />
    </linearGradient>
  </defs>
  <g
     inkscape:label="Layer 1"
     inkscape:groupmode="layer"
     id="layer1">
    <path
       d="M 3.0799997,10.249999 C 3.0799997,6.245825 6.3259377,3 10.33,3 h 43.500005 c 4.00417,0 7.25,3.245825 7.25,7.249999 v 43.5 c 0,4.004173 -3.24583,7.25 -7.25,7.25 H 10.33 c -4.0040623,0 -7.2500003,-3.245827 -7.2500003,-7.25 z"
       id="path736"
       style="fill:#606c86;fill-opacity:1;stroke-width:3.625" />
    <path
       d="M 3.0799997,9.796875 C 3.0799997,6.043188 6.3259377,3 10.33,3 h 43.500005 c 4.00417,0 7.25,3.043188 7.25,6.796875 v 40.781249 c 0,3.753692 -3.24583,6.796875 -7.25,6.796875 H 10.33 c -4.0040623,0 -7.2500003,-3.043183 -7.2500003,-6.796875 z"
       id="path738"
       style="fill:url(#linearGradient22065);fill-opacity:1;stroke-width:3.625" />
    <rect
       ry="6.4440002"
       y="3"
       x="3"
       height="54.375"
       width="58"
       id="rect1045-5"
       style="fill:url(#linearGradient1105);fill-opacity:1;stroke-width:2.80216;stroke-linecap:round"
       rx="6.5229988" />
    <path
       style="opacity:0.2;stroke-width:0.707986"
       d="m 51.257038,11.202273 c -0.84282,-0.0033 -2.43647,0.161515 -4.22421,0.419403 -0.11372,0.01641 -0.219,0.05236 -0.32924,0.07676 -2.0876,0.305079 -4.34684,0.70056 -6.03502,1.126626 -0.49607,0.125209 -0.98772,0.254586 -1.47319,0.389252 -0.36258,0.10061 -0.69553,0.214936 -1.046279,0.320727 -0.32335,0.0958 -0.644235,0.193269 -0.962585,0.293304 -0.208505,0.06773 -0.420808,0.133182 -0.624985,0.202853 -1.515722,0.494621 -2.974322,1.036946 -4.369318,1.625542 v -0.0091 c -0.07523,0.03165 -0.145684,0.06668 -0.220434,0.09865 -0.122954,0.05265 -0.251843,0.100277 -0.373872,0.153513 -0.177331,0.07749 -0.332979,0.160048 -0.505015,0.23849 -9.06486,4.083191 -15.354472,10.153259 -17.834429,17.486261 -0.651699,1.927026 -1.062709,4.234204 -1.191365,6.184157 -0.01061,0.05756 -0.03284,0.116996 -0.03631,0.172688 -0.0069,0.128769 0.0023,0.228731 -0.0023,0.353617 -0.0023,0.06485 -0.01194,0.139152 -0.01394,0.202852 l 0.01394,-0.0063 c -0.02832,1.019187 0.01802,1.926464 0.198098,2.508204 0.629176,2.031614 2.013537,3.58462 4.196328,4.761465 0.0563,0.03304 0.08544,0.06902 0.147888,0.101503 0.63183,0.328898 1.328659,0.627798 2.09537,0.896376 1.866672,0.653871 4.583511,1.169581 7.379869,1.463796 0.120999,0.02013 0.210042,0.05221 0.348765,0.06589 0.564404,0.05565 1.131034,0.102797 1.693599,0.137055 1.836217,0.111677 6.295603,-0.06665 7.764878,-0.309746 5.281957,-0.873725 9.554937,-3.211211 12.248597,-6.702242 1.97208,-2.555795 3.2039,-6.026252 2.41344,-6.800934 -0.28101,-0.275414 -0.59281,-0.166867 -1.08812,0.381025 -1.05435,1.166272 -3.11185,2.468119 -4.98871,3.237364 -1.21457,0.480886 -3.47335,0.860183 -4.73412,0.690785 l 0.36829,-1.260956 0.83146,-1.1047 c 0.2852,-0.01567 1.00936,-0.03777 1.31622,-0.06585 2.33375,-0.213907 5.04857,-2.453489 6.43955,-4.364 1.60977,-2.210925 2.73481,-5.45486 2.7818,-8.015278 0.0211,-1.143075 -0.0243,-1.46524 -0.23723,-1.674884 -0.0618,-0.06089 -0.11183,-0.102969 -0.16176,-0.123342 -0.15012,-0.06104 -0.30105,0.08764 -0.77289,0.616767 -2.37725,2.592813 -5.95351,5.161593 -8.81396,6.683059 l -1.46479,-0.896181 0.50502,-1.288369 c 1.30608,-0.749443 3.01609,-1.79015 4.2326,-2.606886 0.0601,-0.04085 0.11617,-0.08713 0.17578,-0.128876 0.003,-0.0039 0.003,-0.008 0.003,-0.01133 4.03736,-2.832788 6.50777,-7.761048 7.0422,-14.106245 0.09,-1.066161 0.068,-1.282616 -0.13666,-1.359635 -0.0994,-0.03739 -0.28923,-0.05372 -0.55526,-0.05483 z"
       id="path1" />
    <path
       style="fill:#d81b60;stroke-width:0.707986"
       d="m 51.255728,10.500367 c -0.84283,-0.0032 -2.43491,0.162497 -4.22259,0.420381 -2.16204,0.311891 -3.64699,2.13457 -5.40209,2.577521 -14.229254,3.591211 -23.868547,9.728534 -27.147495,19.423953 -1.095526,3.239333 -0.702566,6.875468 -0.1556,8.641579 0.824372,2.66184 4.830601,4.091909 8.365868,5.330259 1.945503,0.681486 0.779813,2.446503 3.700349,2.734589 0.564414,0.05561 1.131009,0.101223 1.69358,0.135395 1.83621,0.111663 6.296346,-0.06597 7.765634,-0.308938 5.281924,-0.87373 9.554364,-3.211533 12.248064,-6.702578 1.97209,-2.555775 3.20447,-6.02574 2.41406,-6.800429 -0.28104,-0.275409 -0.59453,-0.166037 -1.08982,0.381852 -1.05437,1.166274 -3.11087,2.468275 -4.98775,3.23753 -1.21454,0.480887 -3.04382,0.858519 -4.30459,0.689113 l 0.36841,-1.259274 0.83043,-1.104337 c 0.28521,-0.01568 0.58083,-0.03748 0.88769,-0.06561 2.33378,-0.213899 5.04718,-2.453773 6.4382,-4.364278 1.60977,-2.210927 2.73627,-5.454652 2.78322,-8.015071 0.0211,-1.143077 -0.0253,-1.465522 -0.23831,-1.675165 -0.0619,-0.06089 -0.11209,-0.10445 -0.16212,-0.124743 -0.15002,-0.06105 -0.29958,0.08881 -0.77143,0.617879 -2.37727,2.592812 -5.95288,5.160444 -8.81336,6.681915 l -1.46644,-0.896011 0.5072,-1.287126 c 1.30605,-0.749435 3.01505,-1.79197 4.23157,-2.608706 4.14823,-2.810484 6.67803,-7.803143 7.22067,-14.245606 0.09,-1.066173 0.068,-1.281537 -0.13669,-1.358543 -0.0995,-0.03739 -0.29066,-0.05453 -0.55668,-0.05566 z"
       id="path2" />
    <path
       style="fill:#fd5450;stroke-width:0.707986"
       d="m 47.596988,10.857278 c -2.30174,0.312103 -5.00287,0.778243 -6.9296,1.264525 -0.49607,0.125196 -0.98688,0.25517 -1.47234,0.389831 -13.439052,3.727943 -18.657309,11.053183 -21.821886,20.410588 -1.095517,3.239333 -2.453831,7.735766 -1.906886,9.501872 0.645578,2.084548 -1.178795,3.591443 1.102691,4.779084 0.631824,0.328906 1.330085,0.626729 2.096782,0.895293 2.136536,0.748405 5.378954,1.334745 8.58973,1.590739 7.094713,-5.124278 12.256939,-11.717975 15.779529,-19.646818 -0.5314,0.323649 -1.06115,0.633546 -1.58006,0.909549 l -1.46479,-0.896104 0.50583,-1.287561 c 1.30605,-0.749448 3.0154,-1.791372 4.23189,-2.608099 0.0602,-0.04084 0.1163,-0.08682 0.17579,-0.128595 1.70438,-4.887488 2.61332,-10.008542 2.69332,-15.174328 z"
       id="path3" />
    <path
       style="fill:#ff9e21;stroke-width:0.707986"
       d="m 39.823658,12.353978 c -2.939432,0.784045 -5.688048,1.737686 -8.224625,2.845186 -9.34667,4.080878 -11.261031,9.562637 -13.788042,17.034826 -0.667069,1.972447 -5.660268,5.067319 -5.778804,7.046791 -0.07606,1.271397 -0.01966,2.366566 0.194209,3.05728 0.68121,2.199634 2.235433,3.846093 4.744079,5.052356 13.802843,-6.432843 22.670683,-20.028218 22.853183,-35.036439 z"
       id="path4" />
    <path
       style="fill:#fdd835;stroke-width:0.707986"
       d="m 32.192903,14.946356 c -9.66189,4.079285 -16.355369,10.347339 -18.935276,17.975866 -0.73265,2.166379 -1.182368,4.840962 -1.24216,6.913645 A 29.999564,29.473662 0 0 0 32.192903,14.946356 Z"
       id="path5" />
    <path
       style="opacity:0.2;stroke-width:0.707986"
       d="M 30.571125,23.834726 A 11.428317,11.227976 0 0 0 19.142714,35.062798 11.428317,11.227976 0 0 0 30.571125,46.290855 11.428317,11.227976 0 0 0 41.999538,35.062798 11.428317,11.227976 0 0 0 30.571125,23.834726 Z m 0,2.105264 a 9.2855804,9.1228009 0 0 1 9.285593,9.122808 9.2855804,9.1228009 0 0 1 -9.285593,9.122796 9.2855804,9.1228009 0 0 1 -9.285576,-9.122796 9.2855804,9.1228009 0 0 1 9.285576,-9.122808 z"
       id="path6" />
    <path
       style="fill:#ffffff;stroke-width:0.707986"
       d="M 30.571125,23.132977 A 11.428317,11.227976 0 0 0 19.142714,34.361035 11.428317,11.227976 0 0 0 30.571125,45.589097 11.428317,11.227976 0 0 0 41.999538,34.361035 11.428317,11.227976 0 0 0 30.571125,23.132977 Z m 0,2.105259 a 9.2855804,9.1228009 0 0 1 9.285593,9.122799 9.2855804,9.1228009 0 0 1 -9.285593,9.122805 9.2855804,9.1228009 0 0 1 -9.285576,-9.122805 9.2855804,9.1228009 0 0 1 9.285576,-9.122799 z"
       id="path7" />
    <path
       style="opacity:0.2;stroke-width:0.707986"
       d="m 27.200108,29.449097 a 0.89373806,0.89043958 0 0 0 -0.914592,0.888953 v 4.72442 4.724421 a 0.89373806,0.89043958 0 0 0 1.340479,0.770713 l 4.1066,-2.362211 4.10658,-2.36221 a 0.89373806,0.89043958 0 0 0 0,-1.541416 l -4.10658,-2.362211 -4.1066,-2.362215 a 0.89373806,0.89043958 0 0 0 -0.425887,-0.118209 z"
       id="path8" />
    <path
       style="fill:#ffffff;stroke-width:0.707986"
       d="m 27.200108,28.746007 a 0.89373806,0.89043958 0 0 0 -0.914592,0.888961 v 4.724421 4.724424 a 0.89373806,0.89043958 0 0 0 1.340479,0.770709 l 4.1066,-2.36221 4.10658,-2.362217 a 0.89373806,0.89043958 0 0 0 0,-1.541406 l -4.10658,-2.362217 -4.1066,-2.362212 a 0.89373806,0.89043958 0 0 0 -0.425887,-0.118236 z"
       id="path9" />
    <path
       style="opacity:0.2;fill:#ffffff;stroke-width:0.707986"
       d="m 51.255798,10.500045 c -0.84283,-0.0032 -2.43513,0.162885 -4.22285,0.420783 -0.14053,0.02027 -0.2779,0.04724 -0.41295,0.07953 -2.06195,0.303608 -4.28983,0.701466 -5.95275,1.121156 -0.49607,0.125196 -0.98634,0.25596 -1.4718,0.390624 -0.39028,0.10825 -0.75066,0.22974 -1.127217,0.344027 -0.272518,0.08114 -0.54298,0.163928 -0.811923,0.248081 -0.240465,0.07772 -0.485105,0.152747 -0.719861,0.233005 -1.507201,0.492575 -2.956526,1.031762 -4.344236,1.617327 a 29.999564,29.473662 0 0 0 0.003,-0.0088 c -0.07503,0.03165 -0.145817,0.06674 -0.220424,0.09868 -0.122954,0.05265 -0.251846,0.100277 -0.373876,0.15351 -0.175403,0.07664 -0.330623,0.156804 -0.50083,0.234374 -9.068593,4.08306 -15.359655,10.154159 -17.840216,17.488973 -0.652107,1.928205 -1.063019,4.23765 -1.191394,6.188326 -0.01061,0.05677 -0.03156,0.114902 -0.0349,0.169956 -0.02832,0.474403 -0.03201,0.911806 -0.02242,1.325378 0.0047,-0.204471 0.0095,-0.406552 0.02242,-0.622259 0.0035,-0.05497 0.02417,-0.11329 0.0349,-0.169956 0.128326,-1.950506 0.539234,-4.259953 1.191339,-6.188156 2.480547,-7.334813 8.771582,-13.405908 17.840132,-17.489007 0.1702,-0.07768 0.325431,-0.157799 0.500819,-0.234382 0.121998,-0.0533 0.250876,-0.101009 0.373884,-0.15351 0.07464,-0.03183 0.145458,-0.067 0.220424,-0.09865 a 29.999564,29.473662 0 0 1 -0.003,0.0091 c 1.387717,-0.585532 2.837036,-1.124722 4.344238,-1.617305 0.234754,-0.08025 0.479411,-0.155272 0.719857,-0.232996 0.268946,-0.08421 0.539427,-0.166936 0.811923,-0.248084 0.376581,-0.114289 0.736941,-0.235761 1.127231,-0.344032 0.48544,-0.134651 0.97573,-0.265415 1.47179,-0.390616 1.66291,-0.419697 3.8908,-0.817554 5.95275,-1.121162 0.13503,-0.03228 0.27244,-0.05921 0.41293,-0.07953 1.78779,-0.257893 3.38008,-0.42434 4.22291,-0.420776 0.26602,0.002 0.45732,0.01885 0.55666,0.05625 0.09,0.03383 0.13922,0.10881 0.16461,0.256302 0.0461,-0.696248 0.009,-0.894215 -0.16461,-0.959431 -0.0995,-0.03739 -0.29064,-0.05507 -0.55666,-0.05625 z m -0.33197,13.148278 c -0.12757,0.04129 -0.30044,0.225417 -0.6543,0.622268 -1.95684,2.134222 -4.72135,4.240948 -7.23485,5.771655 -0.53141,0.323639 -1.06033,0.634085 -1.57924,0.910084 l -1.24158,-0.760695 -0.22323,0.567437 1.46481,0.896378 c 0.51891,-0.275996 1.04783,-0.586443 1.57924,-0.910092 2.5135,-1.530684 5.27801,-3.637412 7.23485,-5.771643 0.47183,-0.52913 0.62139,-0.679127 0.7714,-0.618152 0.0502,0.02036 0.10005,0.06376 0.16185,0.124756 0.1574,0.155101 0.2231,0.37643 0.2386,0.941608 0.0195,-1.113941 -0.0281,-1.437311 -0.2386,-1.64474 -0.0613,-0.06091 -0.11182,-0.10445 -0.16185,-0.124729 -0.0371,-0.01517 -0.0745,-0.01795 -0.11711,-0.0045 z m -0.74639,12.158716 c -0.2039,0.0132 -0.44235,0.183877 -0.75193,0.526311 -1.05438,1.166277 -3.11052,2.469512 -4.9874,3.238759 -1.15315,0.45657 -2.85549,0.812626 -4.10429,0.703127 l -0.20089,0.688047 c 1.26077,0.169407 3.09064,-0.207165 4.30518,-0.688047 1.87687,-0.769254 3.93302,-2.072489 4.9874,-3.238761 0.49529,-0.54789 0.8085,-0.656436 1.08954,-0.381025 0.1087,0.106476 0.1751,0.268246 0.21064,0.467376 0.059,-0.537961 0.004,-0.959487 -0.21064,-1.170506 -0.10531,-0.103209 -0.21531,-0.152912 -0.33761,-0.145281 z"
       id="path10" />
  </g>
</svg>
