<?xml version="1.0" encoding="UTF-8" standalone="no"?>
<!-- Created with Inkscape (http://www.inkscape.org/) -->

<svg
   width="32"
   version="1.1"
   height="32"
   viewBox="0 0 32 32"
   id="svg12921"
   sodipodi:docname="folder-blender.svg"
   inkscape:version="1.2.1 (9c6d41e410, 2022-07-14)"
   xmlns:inkscape="http://www.inkscape.org/namespaces/inkscape"
   xmlns:sodipodi="http://sodipodi.sourceforge.net/DTD/sodipodi-0.dtd"
   xmlns:xlink="http://www.w3.org/1999/xlink"
   xmlns="http://www.w3.org/2000/svg"
   xmlns:svg="http://www.w3.org/2000/svg">
  <style
     type="text/css"
     id="current-color-scheme">.ColorScheme-Highlight {
    color:#3daee9;
}
</style>
  <sodipodi:namedview
     id="namedview12923"
     pagecolor="#ffffff"
     bordercolor="#666666"
     borderopacity="1.0"
     inkscape:showpageshadow="2"
     inkscape:pageopacity="0.0"
     inkscape:pagecheckerboard="0"
     inkscape:deskcolor="#d1d1d1"
     showgrid="false"
     inkscape:zoom="7.375"
     inkscape:cx="16"
     inkscape:cy="16.338983"
     inkscape:window-width="1920"
     inkscape:window-height="1004"
     inkscape:window-x="0"
     inkscape:window-y="0"
     inkscape:window-maximized="1"
     inkscape:current-layer="layer1" />
  <defs
     id="defs5455">
    <linearGradient
       id="linearGradient4172-0">
      <stop
         style="stop-color:#f89406"
         id="stop4174-4" />
      <stop
         offset="1"
         style="stop-color:#faa938"
         id="stop4176-5" />
    </linearGradient>
    <linearGradient
       inkscape:collect="always"
       xlink:href="#linearGradient4393"
       id="linearGradient668"
       gradientUnits="userSpaceOnUse"
       gradientTransform="matrix(1.8102342,0,0,1.7335427,386.07145,-1279.5132)"
       x1="5"
       y1="1037.3622"
       x2="8"
       y2="1051.3622" />
    <linearGradient
       inkscape:collect="always"
       id="linearGradient4393">
      <stop
         style="stop-color:#000000;stop-opacity:1;"
         offset="0"
         id="stop4395" />
      <stop
         style="stop-color:#000000;stop-opacity:0;"
         offset="1"
         id="stop4397" />
    </linearGradient>
  </defs>
  <metadata
     id="metadata5458" />
  <g
     inkscape:label="Capa 1"
     inkscape:groupmode="layer"
     id="layer1"
     transform="matrix(1 0 0 1 -384.57143 -515.798)">
    <path
       inkscape:connector-curvature="0"
       style="fill:currentColor;fill-opacity:1;stroke-width:1.77147"
       id="rect4180-6-7"
       d="m 386.57143,531.79803 h 27.99979 l 2.1e-4,-9.3 c 0,-1 -1.05,-1.94999 -2.05,-1.94999 l -11.95011,-0.0167 -1.81249,-1.73334 h -10.18742 c -0.99999,0 -1.99998,1 -1.99998,2 z"
       sodipodi:nodetypes="ccccccccc"
       class="ColorScheme-Highlight " />
    <path
       inkscape:connector-curvature="0"
       style="fill:#ffb380;fill-opacity:1;stroke-width:1.77147"
       d="m 386.07143,527.29803 c 0,-5.631 0,1.47681 0,1.96521 v 13.53479 c 0,1 1,2 2,2 h 25 c 1,0 2,-1 2,-2 v -16.99999 c 0,-0.5 -0.5,-1 -1,-1 h -17 l -2.5,1.99999 h -8 c -0.5,0 -0.5,0.5 -0.5,0.5 z"
       id="rect4113-2-5"
       sodipodi:nodetypes="cccscccccccc" />
    <path
       inkscape:connector-curvature="0"
       style="opacity:0.3;fill:#0f608a;fill-opacity:1;fill-rule:evenodd;stroke-width:0.885733"
       id="path4224-9-3"
       d="m 386.57143,526.79803 v 0 h 1 7 l 2.5,-1.99999 v 0 l -2.8,1.49999 h -7.19095 c -0.50905,0 -0.50905,0.5 -0.50905,0.5 z"
       sodipodi:nodetypes="ccccccccc" />
    <path
       inkscape:connector-curvature="0"
       style="color:#31363b;opacity:0.3;fill:#ffffff;fill-opacity:1;fill-rule:evenodd;stroke-width:1.77147"
       id="path4196-3-5"
       d="m 398.75891,518.79804 1.81253,2.75 h 13.67499 c -0.165,-0.25001 -0.675,-1 -1.875,-1 l -11.80002,-0.0161 z"
       sodipodi:nodetypes="cccccc"
       class="ColorScheme-Text" />
    <path
       style="color:#000000;clip-rule:nonzero;display:inline;overflow:visible;visibility:visible;opacity:0.2;isolation:auto;mix-blend-mode:normal;color-interpolation:sRGB;color-interpolation-filters:linearRGB;solid-color:#000000;solid-opacity:1;fill:#000000;fill-opacity:1;fill-rule:nonzero;stroke:none;stroke-width:1.77147;stroke-linecap:butt;stroke-linejoin:miter;stroke-miterlimit:4;stroke-dasharray:none;stroke-dashoffset:0;stroke-opacity:1;marker:none;color-rendering:auto;image-rendering:auto;shape-rendering:auto;text-rendering:auto;enable-background:accumulate"
       d="m 386.07143,541.35449 v 1.44354 c 0,1 1,2 2,2 h 25 c 1,0 2,-1 2,-2 l -0.005,-1.41288 c -0.012,0.89371 -0.94136,1.69662 -1.84913,1.67926 h -25.32534 c -0.90238,0 -1.82074,-0.83427 -1.82074,-1.70992 z"
       id="path9304-6"
       inkscape:connector-curvature="0"
       sodipodi:nodetypes="cssccccscc" />
    <path
       style="opacity:0.181;fill:url(#linearGradient668);fill-opacity:1;fill-rule:evenodd;stroke:none;stroke-width:1.77147px;stroke-linecap:butt;stroke-linejoin:miter;stroke-opacity:1"
       d="m 386.07143,529.29804 14.48187,13.76985 h 14.48187 l 0.0362,-13.76985 z"
       id="path4152-2"
       inkscape:connector-curvature="0"
       sodipodi:nodetypes="ccccc" />
    <path
       style="color:#232629;fill:#002d3c;fill-opacity:1;stroke:none;stroke-width:0.454545"
       d="m 400.40095,529.298 a 0.68181817,0.68181817 0 0 0 -0.68182,0.68182 0.68181817,0.68181817 0 0 0 0.21591,0.45454 h -0.0455 l 1.59091,1.59091 h -5.22727 a 0.68181817,0.68181817 0 0 0 -0.68182,0.68182 0.68181817,0.68181817 0 0 0 0.68182,0.68182 h 2.5 l -2.90909,2.90909 a 0.68181817,0.68181817 0 0 0 -0.27273,0.54545 0.68181817,0.68181817 0 0 0 0.68182,0.68182 0.68181817,0.68181817 0 0 0 0.5,-0.22727 c 0,0 0,0 0,0 l 1.54545,-1.54545 a 3.6363636,3.6363636 0 0 0 3.63637,3.54545 3.6363636,3.6363636 0 0 0 3.63636,-3.63636 3.6363636,3.6363636 0 0 0 -1.36364,-2.86364 l -3.31818,-3.27273 a 0.68181817,0.68181817 0 0 0 -0.48863,-0.22727 z m 1.53409,4.09091 a 2.2727272,2.2727272 0 0 1 1.36363,0.45454 l 0.40909,0.4091 v 0 a 2.2727272,2.2727272 0 0 1 0.5,1.40909 2.2727272,2.2727272 0 0 1 -2.27272,2.27272 2.2727272,2.2727272 0 0 1 -2.27273,-2.27272 2.2727272,2.2727272 0 0 1 2.27273,-2.27273 z m 0,1.36364 a 0.90909089,0.90909089 0 0 0 -0.90909,0.90909 0.90909089,0.90909089 0 0 0 0.90909,0.90909 0.90909089,0.90909089 0 0 0 0.90909,-0.90909 0.90909089,0.90909089 0 0 0 -0.90909,-0.90909 z"
       class="ColorScheme-Text"
       id="path145-3" />
  </g>
</svg>
