<?xml version="1.0" encoding="UTF-8" standalone="no"?>
<svg
   viewBox="0 0 32 32"
   version="1.1"
   id="svg14"
   sodipodi:docname="folder-Reddit.svg"
   inkscape:version="1.2.1 (9c6d41e410, 2022-07-14)"
   xmlns:inkscape="http://www.inkscape.org/namespaces/inkscape"
   xmlns:sodipodi="http://sodipodi.sourceforge.net/DTD/sodipodi-0.dtd"
   xmlns:xlink="http://www.w3.org/1999/xlink"
   xmlns="http://www.w3.org/2000/svg"
   xmlns:svg="http://www.w3.org/2000/svg"
   xmlns:rdf="http://www.w3.org/1999/02/22-rdf-syntax-ns#"
   xmlns:cc="http://creativecommons.org/ns#"
   xmlns:dc="http://purl.org/dc/elements/1.1/">
  <metadata
     id="metadata18">
    <rdf:RDF>
      <cc:Work
         rdf:about="">
        <dc:format>image/svg+xml</dc:format>
        <dc:type
           rdf:resource="http://purl.org/dc/dcmitype/StillImage" />
      </cc:Work>
    </rdf:RDF>
  </metadata>
  <sodipodi:namedview
     pagecolor="#ffffff"
     bordercolor="#666666"
     borderopacity="1"
     objecttolerance="10"
     gridtolerance="10"
     guidetolerance="10"
     inkscape:pageopacity="0"
     inkscape:pageshadow="2"
     inkscape:window-width="1920"
     inkscape:window-height="1004"
     id="namedview16"
     showgrid="false"
     inkscape:zoom="7.375"
     inkscape:cx="16"
     inkscape:cy="16.20339"
     inkscape:window-x="0"
     inkscape:window-y="0"
     inkscape:window-maximized="1"
     inkscape:current-layer="svg14"
     inkscape:document-rotation="0"
     inkscape:showpageshadow="2"
     inkscape:pagecheckerboard="0"
     inkscape:deskcolor="#d1d1d1" />
  <defs
     id="defs3051">
    <style
       type="text/css"
       id="current-color-scheme">.ColorScheme-Text { color:#31363b; }
.ColorScheme-Background { color:#eff0f1; }
.ColorScheme-Highlight { color:#3daee9; }
.ColorScheme-ViewText { color:#31363b; }
.ColorScheme-ViewBackground { color:#fcfcfc; }
.ColorScheme-ViewHover { color:#93cee9; }
.ColorScheme-ViewFocus { color:#3daee9; }
.ColorScheme-ButtonText { color:#31363b; }
.ColorScheme-ButtonBackground { color:#eff0f1; }
.ColorScheme-ButtonHover { color:#93cee9; }
.ColorScheme-ButtonFocus { color:#3daee9; }
</style>
    <linearGradient
       inkscape:collect="always"
       xlink:href="#linearGradient1003"
       id="linearGradient4160"
       x1="6.0765505"
       y1="1039.381"
       x2="14.362771"
       y2="1048.6106"
       gradientUnits="userSpaceOnUse"
       gradientTransform="matrix(1.8726562,0,0,1.7335427,1.000026,-1794.8113)" />
    <linearGradient
       inkscape:collect="always"
       id="linearGradient1003">
      <stop
         style="stop-color:#00171e;stop-opacity:1;"
         offset="0"
         id="stop999" />
      <stop
         style="stop-color:#007599;stop-opacity:0;"
         offset="1"
         id="stop1001" />
    </linearGradient>
  </defs>
  <path
     inkscape:connector-curvature="0"
     style="fill:currentColor;fill-opacity:1;stroke-width:1.80176"
     id="rect4180-6-3"
     d="m 1.51724,16.5 h 28.965305 l 2.15e-4,-9.3 c 0,-1 -1.08621,-1.95 -2.12069,-1.95 L 15.999892,5.233335 14.124905,3.5 H 3.586195 c -1.034482,0 -2.068955,1 -2.068955,2 z"
     sodipodi:nodetypes="ccccccccc"
     class="  ColorScheme-Highlight" />
  <path
     inkscape:connector-curvature="0"
     style="color:#31363b;opacity:0.3;fill:#31363b;fill-opacity:1;fill-rule:evenodd;stroke-width:1.80177"
     id="path4196-3-7"
     d="m 14.12498,3.5 1.875027,2.75 H 30.14655 C 29.97586,6 29.44828,5.25 28.2069,5.25 L 15.999985,5.23387 Z"
     sodipodi:nodetypes="cccccc"
     class="ColorScheme-Text" />
  <path
     inkscape:connector-curvature="0"
     style="fill:#002938;fill-opacity:1;stroke-width:1.80177"
     d="m 1,12 c 0,-5.631006 0,1.476803 0,1.965205 V 27.5 c 0,1 1.03448,2 2.06897,2 H 28.93103 C 29.96552,29.5 31,28.5 31,27.5 v -17 c 0,-0.5 -0.51724,-1 -1.03448,-1 H 12.37931 l -2.58621,2 H 1.51724 C 1,11.5 1,12 1,12 Z"
     id="rect4113-2-2"
     sodipodi:nodetypes="cccscccccccc" />
  <path
     inkscape:connector-curvature="0"
     style="opacity:0.3;fill:#0f608a;fill-opacity:1;fill-rule:evenodd;stroke-width:0.900877"
     id="path4224-9-7"
     d="m 1.51724,11.5 v 0 H 2.55172 9.7931 l 2.58621,-2 v 0 L 9.48276,11 H 2.043841 C 1.51724,11 1.51724,11.5 1.51724,11.5 Z"
     sodipodi:nodetypes="ccccccccc" />
  <path
     style="color:#000000;clip-rule:nonzero;display:inline;overflow:visible;visibility:visible;opacity:0.2;isolation:auto;mix-blend-mode:normal;color-interpolation:sRGB;color-interpolation-filters:linearRGB;solid-color:#000000;solid-opacity:1;fill:#000000;fill-opacity:1;fill-rule:nonzero;stroke:none;stroke-width:1.80177;stroke-linecap:butt;stroke-linejoin:miter;stroke-miterlimit:4;stroke-dasharray:none;stroke-dashoffset:0;stroke-opacity:1;marker:none;color-rendering:auto;image-rendering:auto;shape-rendering:auto;text-rendering:auto;enable-background:accumulate"
     d="M 1,26.056455 V 27.5 c 0,1 1.03448,2 2.06897,2 H 28.93103 C 29.96552,29.5 31,28.5 31,27.5 l -0.0045,-1.412885 c -0.0124,0.893715 -0.973816,1.69662 -1.912896,1.679265 H 2.883815 C 1.95033,27.76638 1.0003,26.93211 1.0003,26.056455 Z"
     id="path9304-0"
     inkscape:connector-curvature="0"
     sodipodi:nodetypes="cssccccscc" />
  <path
     style="fill:url(#linearGradient4160);fill-opacity:1;fill-rule:evenodd;stroke:none;stroke-width:1.80177px;stroke-linecap:butt;stroke-linejoin:miter;stroke-opacity:1"
     d="M 1,14 15.98124,27.76986 H 30.96249 L 31,14 Z"
     id="path4152-9"
     inkscape:connector-curvature="0"
     sodipodi:nodetypes="ccccc" />
  <path
     d="m 22.286418,18.279052 c 0,-0.913976 -0.743572,-1.655204 -1.655134,-1.655204 -0.359145,0 -0.70212,0.1151 -0.985284,0.324614 -0.803461,-0.405192 -1.758814,-0.649148 -2.769362,-0.706714 l 0.660663,-1.82552 1.597662,0.398267 c 0.03453,0.656081 0.580091,1.176283 1.243099,1.176283 0.685935,0 1.245352,-0.559409 1.245352,-1.24534 0,-0.686021 -0.559417,-1.245438 -1.245352,-1.245438 -0.467325,0 -0.874775,0.257814 -1.088881,0.63998 l -2.189263,-0.547904 -0.953005,2.635838 c -1.098065,0.0322 -2.13865,0.280832 -3.006496,0.715962 C 12.857248,16.734348 12.516622,16.621589 12.157462,16.621589 11.243576,16.623989 10.5,17.36742 10.5,18.279048 c 0,0.446573 0.184159,0.877028 0.499524,1.185563 -0.02064,0.131197 -0.03219,0.264734 -0.03219,0.398172 0,1.001387 0.584672,1.931465 1.643613,2.617486 1.012897,0.658328 2.355,1.019731 3.777673,1.019731 1.422672,0 2.762443,-0.361403 3.777577,-1.019731 1.058946,-0.688355 1.643707,-1.618345 1.643707,-2.617486 0,-0.1312 -0.01154,-0.262397 -0.02989,-0.393597 0.319956,-0.306179 0.506456,-0.73898 0.506456,-1.190138 z m -8.485341,0.966865 c 0,-0.531804 0.4328,-0.964606 0.964607,-0.964606 0.531722,0 0.964523,0.432802 0.964523,0.964606 0,0.531713 -0.432801,0.964513 -0.964523,0.964513 -0.531807,0 -0.964607,-0.4328 -0.964607,-0.964513 z m 2.654272,3.052435 c -0.748169,0 -1.4779,-0.211769 -2.10861,-0.612287 l 0.370576,-0.582427 c 0.520293,0.331449 1.12341,0.506443 1.740363,0.506443 0.616971,0 1.217747,-0.174994 1.740285,-0.506443 l 0.370668,0.582427 c -0.635394,0.400518 -1.36512,0.612287 -2.113282,0.612287 z m 1.710426,-2.087922 c -0.531811,0 -0.964526,-0.4328 -0.964526,-0.964513 0,-0.531804 0.432715,-0.964606 0.964526,-0.964606 0.531802,0 0.964512,0.432802 0.964512,0.964606 0,0.531713 -0.43271,0.964513 -0.964512,0.964513 z m 0,0"
     id="path2-3-7-5"
     style="fill:#ffffff;fill-opacity:1;stroke-width:0.0230207" />
</svg>
