<?xml version="1.0" encoding="UTF-8" standalone="no"?>
<svg
   viewBox="0 0 32 32"
   version="1.1"
   id="svg12"
   sodipodi:docname="folder-deb.svg"
   inkscape:version="1.2.1 (9c6d41e410, 2022-07-14)"
   xmlns:inkscape="http://www.inkscape.org/namespaces/inkscape"
   xmlns:sodipodi="http://sodipodi.sourceforge.net/DTD/sodipodi-0.dtd"
   xmlns:xlink="http://www.w3.org/1999/xlink"
   xmlns="http://www.w3.org/2000/svg"
   xmlns:svg="http://www.w3.org/2000/svg"
   xmlns:rdf="http://www.w3.org/1999/02/22-rdf-syntax-ns#"
   xmlns:cc="http://creativecommons.org/ns#"
   xmlns:dc="http://purl.org/dc/elements/1.1/">
  <metadata
     id="metadata16">
    <rdf:RDF>
      <cc:Work
         rdf:about="">
        <dc:format>image/svg+xml</dc:format>
        <dc:type
           rdf:resource="http://purl.org/dc/dcmitype/StillImage" />
      </cc:Work>
    </rdf:RDF>
  </metadata>
  <sodipodi:namedview
     pagecolor="#ffffff"
     bordercolor="#666666"
     borderopacity="1"
     objecttolerance="10"
     gridtolerance="10"
     guidetolerance="10"
     inkscape:pageopacity="0"
     inkscape:pageshadow="2"
     inkscape:window-width="1920"
     inkscape:window-height="1004"
     id="namedview14"
     showgrid="true"
     inkscape:zoom="20.85965"
     inkscape:cx="9.8275858"
     inkscape:cy="14.261984"
     inkscape:window-x="0"
     inkscape:window-y="0"
     inkscape:window-maximized="1"
     inkscape:current-layer="svg12"
     inkscape:showpageshadow="2"
     inkscape:pagecheckerboard="0"
     inkscape:deskcolor="#d1d1d1">
    <inkscape:grid
       type="xygrid"
       id="grid18219" />
  </sodipodi:namedview>
  <defs
     id="defs3051">
    <style
       type="text/css"
       id="current-color-scheme">.ColorScheme-Text { color:#31363b; }
.ColorScheme-Background { color:#eff0f1; }
.ColorScheme-Highlight { color:#3daee9; }
.ColorScheme-ViewText { color:#31363b; }
.ColorScheme-ViewBackground { color:#fcfcfc; }
.ColorScheme-ViewHover { color:#93cee9; }
.ColorScheme-ViewFocus { color:#3daee9; }
.ColorScheme-ButtonText { color:#31363b; }
.ColorScheme-ButtonBackground { color:#eff0f1; }
.ColorScheme-ButtonHover { color:#93cee9; }
.ColorScheme-ButtonFocus { color:#3daee9; }
</style>
    <linearGradient
       inkscape:collect="always"
       xlink:href="#linearGradient4393"
       id="linearGradient668"
       gradientUnits="userSpaceOnUse"
       gradientTransform="matrix(1.8102342,0,0,1.7335427,1.50002,-1795.3113)"
       x1="5"
       y1="1037.3622"
       x2="8"
       y2="1051.3622" />
    <linearGradient
       inkscape:collect="always"
       id="linearGradient4393">
      <stop
         style="stop-color:#000000;stop-opacity:1;"
         offset="0"
         id="stop4395" />
      <stop
         style="stop-color:#000000;stop-opacity:0;"
         offset="1"
         id="stop4397" />
    </linearGradient>
  </defs>
  <path
     inkscape:connector-curvature="0"
     style="fill:currentColor;fill-opacity:1;stroke-width:1.77147"
     id="rect4180-6-7"
     d="m 2,16.000004 h 27.999791 l 2.05e-4,-9.299999 c 0,-1 -1.05,-1.95 -2.05,-1.95 L 15.999893,4.733335 14.187402,3 H 3.999985 C 2.999993,3 2,4 2,5 Z"
     sodipodi:nodetypes="ccccccccc"
     class="ColorScheme-Highlight" />
  <path
     inkscape:connector-curvature="0"
     style="fill:#bf616a;fill-opacity:1;stroke-width:1.77147"
     d="m 1.5,11.500004 c 0,-5.631005 0,1.476804 0,1.965206 v 13.534794 c 0,1 1,2 2,2 h 24.999997 c 1,0 2,-1 2,-2 V 10.000005 c 0,-0.5 -0.5,-1 -1,-1 H 12.499998 L 9.9999995,11.000004 H 2 c -0.5,0 -0.5,0.5 -0.5,0.5 z"
     id="rect4113-2-5"
     sodipodi:nodetypes="cccscccccccc" />
  <path
     inkscape:connector-curvature="0"
     style="opacity:0.3;fill:#0f608a;fill-opacity:1;fill-rule:evenodd;stroke-width:0.885733"
     id="path4224-9-3"
     d="m 2,11.000004 v 0 H 3 9.9999995 L 12.499998,9.000005 v 0 L 9.699999,10.500004 H 2.509051 C 2,10.500004 2,11.000004 2,11.000004 Z"
     sodipodi:nodetypes="ccccccccc" />
  <path
     inkscape:connector-curvature="0"
     style="color:#31363b;opacity:0.3;fill:#ffffff;fill-opacity:1;fill-rule:evenodd;stroke-width:1.77147"
     id="path4196-3-5"
     d="m 14.187479,3.000005 1.812528,2.75 h 13.674989 c -0.164999,-0.250001 -0.674998,-1 -1.874998,-1 L 15.999983,4.733875 Z"
     sodipodi:nodetypes="cccccc"
     class="ColorScheme-Text" />
  <path
     style="color:#000000;clip-rule:nonzero;display:inline;overflow:visible;visibility:visible;opacity:0.2;isolation:auto;mix-blend-mode:normal;color-interpolation:sRGB;color-interpolation-filters:linearRGB;solid-color:#000000;solid-opacity:1;fill:#000000;fill-opacity:1;fill-rule:nonzero;stroke:none;stroke-width:1.77147;stroke-linecap:butt;stroke-linejoin:miter;stroke-miterlimit:4;stroke-dasharray:none;stroke-dashoffset:0;stroke-opacity:1;marker:none;color-rendering:auto;image-rendering:auto;shape-rendering:auto;text-rendering:auto;enable-background:accumulate"
     d="m 1.5,25.556459 v 1.443545 c 0,1 1,2 2,2 h 24.999997 c 1,0 2,-1 2,-2 l -0.0045,-1.412885 c -0.012,0.893715 -0.941355,1.69662 -1.84913,1.679265 H 3.321025 c -0.902375,0 -1.820735,-0.83427 -1.820735,-1.709925 z"
     id="path9304-6"
     inkscape:connector-curvature="0"
     sodipodi:nodetypes="cssccccscc" />
  <path
     style="opacity:0.181;fill:url(#linearGradient668);fill-opacity:1;fill-rule:evenodd;stroke:none;stroke-width:1.77147px;stroke-linecap:butt;stroke-linejoin:miter;stroke-opacity:1"
     d="m 1.5,13.500005 14.481869,13.769859 h 14.481868 l 0.03625,-13.769859 z"
     id="path4152-2"
     inkscape:connector-curvature="0"
     sodipodi:nodetypes="ccccc" />
  <path
     style="color:#232629;fill:#002d3c;fill-opacity:1;stroke:none;stroke-width:0.479741"
     d="m 16.642734,23.99563 c -0.576311,-0.09606 -1.39279,-0.431321 -1.873042,-0.742807 -1.104583,-0.718824 -1.827598,-1.518434 -2.27445,-2.516393 -0.144058,-0.335459 -0.229575,-0.575078 -0.480253,-1.437711 -0.04801,-0.215624 -0.12951,-0.4573 -0.159572,-0.532592 -0.05068,-0.127026 -0.05291,-0.169873 -0.03071,-0.593527 0.02104,-0.383406 0.09626,-0.958464 0.144069,-1.00445 0.0066,-0.011 0.02403,-0.01388 0.03708,-0.0056 0.04537,0.0266 0.0867,-0.09692 0.127937,-0.378869 0.02262,-0.15453 0.05772,-0.316533 0.0784,-0.36006 0.02074,-0.04367 0.05569,-0.139621 0.0778,-0.213503 0.05089,-0.170072 0.120434,-0.300755 0.335261,-0.630669 0.09469,-0.145092 0.19267,-0.303133 0.218236,-0.351163 0.02984,-0.05652 0.06282,-0.0841 0.09328,-0.07845 0.02888,0.0055 0.07694,-0.03094 0.127223,-0.09743 0.218397,-0.287627 1.247078,-1.136266 1.342245,-1.10732 0.02593,0.0076 0.134578,-0.02756 0.241252,-0.0791 0.192966,-0.09329 0.277997,-0.114578 0.277997,-0.07052 0,0.01315 -0.02772,0.0419 -0.06172,0.06416 -0.05974,0.03978 -0.05842,0.04049 0.03434,0.01878 0.05301,-0.01262 0.142347,-0.02958 0.198474,-0.03902 0.0695,-0.01113 0.09767,-0.02766 0.08786,-0.05164 -0.0086,-0.021 0.01168,-0.0419 0.04952,-0.05144 0.095,-0.02438 0.242625,-0.02034 0.242625,0.0066 0,0.03225 -0.08437,0.06489 -0.151538,0.05831 -0.04591,-0.004 -0.04803,-4.78e-4 -0.01381,0.02206 0.03409,0.02257 0.03445,0.02716 0.002,0.02736 -0.02155,2.02e-4 -0.03187,0.0076 -0.02357,0.0157 0.0086,0.0086 0.06632,-0.0096 0.127649,-0.03967 0.06141,-0.02988 0.174331,-0.06774 0.250593,-0.08304 0.09404,-0.01918 0.138636,-0.0419 0.138636,-0.06936 0,-0.03544 0.04391,-0.03861 0.337472,-0.02342 0.185594,0.0096 0.465716,0.0371 0.622384,0.0617 0.284948,0.04486 0.28497,0.04486 0.391145,-0.01398 0.127342,-0.07032 0.332189,-0.0792 0.386009,-0.01716 0.01968,0.02292 0.07395,0.06002 0.120478,0.08314 0.07598,0.03766 0.08088,0.03776 0.04886,4.76e-4 -0.0608,-0.07062 -4.15e-4,-0.0688 0.235014,0.0066 0.759122,0.243436 1.377958,0.677005 1.837109,1.287138 0.108882,0.1447 0.115502,0.209749 0.01254,0.121691 l -0.05888,-0.05038 0.04527,0.0843 c 0.02487,0.04664 0.04517,0.09872 0.04517,0.115966 0,0.01738 0.07299,0.145538 0.162206,0.284882 0.201088,0.314083 0.257331,0.419861 0.243846,0.458625 -0.0056,0.01676 -0.095,-0.09415 -0.197973,-0.24581 -0.102973,-0.151784 -0.25565,-0.356348 -0.339001,-0.454532 -0.124473,-0.146608 -0.157073,-0.171696 -0.182479,-0.140353 -0.017,0.0211 -0.05843,0.0421 -0.09257,0.04664 l -0.06121,0.0086 0.06055,0.114024 c 0.03338,0.06254 0.06546,0.10126 0.07067,0.08556 0.02888,-0.08314 0.163968,0.0263 0.225377,0.182796 0.01988,0.05068 0.07289,0.155336 0.117576,0.232357 0.04497,0.07698 0.07577,0.145462 0.06907,0.152058 -0.0066,0.0066 -0.0478,-0.01484 -0.09085,-0.04685 l -0.0781,-0.05876 0.05321,0.08768 c 0.02924,0.04816 0.0784,0.107198 0.109129,0.131065 0.03834,0.02958 0.05654,0.07678 0.05812,0.150001 0.003,0.135062 0.08383,0.29467 0.127892,0.252585 0.06854,-0.06583 0.08235,-0.02468 0.06556,0.190072 -0.01295,0.158154 -0.0056,0.262395 0.02423,0.373091 0.04589,0.168014 0.03581,0.209452 -0.0308,0.130936 -0.0427,-0.05003 -0.04325,-0.04982 -0.02403,0.002 0.04092,0.111111 0.07153,0.277281 0.06277,0.342533 -0.01614,0.121702 -0.06353,0.07113 -0.07992,-0.0846 l -0.01614,-0.152186 -0.0056,0.161919 c -0.002,0.08905 -0.02443,0.261249 -0.04856,0.382536 -0.02443,0.12253 -0.03667,0.270973 -0.02772,0.334039 0.01679,0.118587 0.0056,0.123166 -0.0986,0.03826 -0.04219,-0.03448 -0.04942,-0.02746 -0.0783,0.07527 -0.02443,0.08642 -0.02423,0.135868 10e-4,0.208381 0.01806,0.05229 0.02838,0.123103 0.02347,0.157456 -0.01199,0.0792 -0.0783,0.103919 -0.0783,0.02906 0,-0.09425 -0.03708,-0.06032 -0.151473,0.135762 -0.308281,0.53009 -0.796067,0.940312 -1.348119,1.133828 -0.325474,0.1141 -0.543775,0.156405 -0.910819,0.176508 l -0.330542,0.01812 0.16331,0.04816 c 0.13171,0.03902 0.209035,0.04486 0.399421,0.02978 0.249435,-0.01928 0.542329,-0.07113 0.675123,-0.119466 0.05291,-0.01928 0.08872,-0.02014 0.107088,-0.003 0.04335,0.04154 -0.340477,0.203952 -0.568193,0.240807 -0.38753,0.06255 -0.906216,-0.0055 -1.364123,-0.178185 -0.310639,-0.117471 -0.771648,-0.42337 -0.701018,-0.465145 0.01351,-0.0076 0.101066,0.032 0.194913,0.08895 0.119893,0.07264 0.170548,0.09202 0.170548,0.06446 0,-0.05164 0.01776,-0.04922 0.113018,0.0158 0.08584,0.05851 0.35069,0.167623 0.541244,0.222833 0.207771,0.06002 0.127184,-0.01282 -0.151504,-0.137214 -0.881267,-0.393436 -1.247109,-0.786938 -1.42944,-1.537507 -0.06718,-0.275246 0.0056,-0.878633 0.126726,-1.06758 0.0307,-0.0478 0.0561,-0.10674 0.0561,-0.130884 0,-0.104439 0.182054,-0.380768 0.368859,-0.55965 0.329161,-0.31521 0.671372,-0.446062 1.115614,-0.426573 0.214761,0.0096 0.306474,0.02736 0.485202,0.09586 0.202692,0.07728 0.457971,0.239142 0.379806,0.240818 -0.01836,3.93e-4 -0.09904,-0.02544 -0.17908,-0.05724 -0.121775,-0.04856 -0.199822,-0.0582 -0.476183,-0.05916 -0.388113,-0.001 -0.577789,0.05122 -0.853999,0.23735 -0.39158,0.263857 -0.609316,0.567719 -0.68644,0.958029 -0.05175,0.261842 -0.05321,0.33441 -0.01295,0.594152 0.02347,0.149704 0.03986,0.193623 0.06905,0.182956 0.02453,-0.0086 0.03834,0.004 0.03834,0.03625 0,0.09298 0.210777,0.46906 0.356991,0.637298 0.351857,0.404931 0.921061,0.663327 1.461106,0.663327 0.280313,0 0.506902,-0.05154 0.71547,-0.162681 0.08361,-0.04498 0.189471,-0.09924 0.234929,-0.121268 0.160388,-0.07784 0.259869,-0.166754 0.376192,-0.336213 0.06493,-0.09435 0.134992,-0.171241 0.156223,-0.171241 0.03126,0 0.02984,0.01378 -0.0076,0.07264 -0.122941,0.194311 0.165629,-0.159036 0.315061,-0.385772 l 0.16738,-0.253974 -0.01826,-0.16682 c -0.01755,-0.160317 -0.01518,-0.170104 0.06535,-0.250592 0.07714,-0.0775 0.08397,-0.100513 0.09318,-0.307764 0.0076,-0.185489 0.002,-0.223999 -0.03156,-0.224221 -0.03167,-1.81e-4 -0.04558,-0.04911 -0.05898,-0.21129 -0.01816,-0.214742 -0.200703,-0.937309 -0.243198,-0.962459 -0.01285,-0.0076 -0.04836,-0.07708 -0.07906,-0.154391 -0.103491,-0.260964 -0.28519,-0.511907 -0.568361,-0.785285 -0.407466,-0.393311 -0.920722,-0.697003 -1.405565,-0.831693 -0.412417,-0.114577 -1.112713,-0.07304 -1.611527,0.09586 -0.243453,0.08218 -0.483313,0.191303 -0.523798,0.238008 -0.01837,0.0213 -0.04517,0.0316 -0.05898,0.02342 -0.0153,-0.0086 -0.01072,-0.03246 0.0096,-0.05608 0.09211,-0.105925 -0.213073,0.08778 -0.409366,0.260484 -0.118672,0.104228 -0.220097,0.192764 -0.225378,0.196677 -0.0056,0.004 0.01786,1.91e-4 0.05134,-0.0076 0.05569,-0.01421 0.05802,-0.0096 0.02772,0.04412 -0.01932,0.03458 -0.12037,0.09712 -0.244173,0.150839 -0.207973,0.09056 -0.342488,0.189678 -0.449374,0.331728 -0.04284,0.05664 -0.04527,0.06914 -0.01128,0.05639 0.0238,-0.0086 0.04335,-0.003 0.04335,0.01222 0,0.07526 -0.07153,0.159427 -0.177359,0.208689 -0.234611,0.109148 -0.64672,0.692115 -0.867493,1.227156 -0.09838,0.23842 -0.09682,0.23016 -0.04345,0.23016 0.0563,0 0.05241,0.06118 -0.02509,0.390628 -0.112793,0.479799 -0.112921,0.464425 0.0096,1.139385 0.149678,0.822384 0.237118,1.097098 0.403375,1.267309 0.0391,0.03978 0.07684,0.124862 0.09403,0.210184 0.02018,0.101912 0.05397,0.169162 0.11747,0.23315 0.05772,0.0582 0.07704,0.09435 0.05483,0.10191 -0.04376,0.0154 0.09307,0.209941 0.217291,0.310215 0.06267,0.05038 0.109002,0.06764 0.159242,0.058 0.110138,-0.02014 0.222276,0.04074 0.394607,0.213779 0.179111,0.179956 0.197047,0.228327 0.07851,0.211679 -0.07638,-0.0106 -0.0781,-0.0086 -0.04059,0.04644 0.0218,0.0315 0.101371,0.107653 0.177359,0.16894 0.106526,0.08587 0.13409,0.123354 0.12068,0.163722 -0.01922,0.058 0.03561,0.112263 0.159846,0.15772 0.07694,0.02798 0.101789,0.08895 0.04421,0.107547 -0.01755,0.0056 0.09115,0.11252 0.241051,0.237561 0.169112,0.140926 0.282873,0.218201 0.299089,0.203092 0.04305,-0.03988 0.09788,-0.02756 0.09872,0.02196 10e-4,0.05396 0.04972,0.11078 0.224623,0.262159 0.1105,0.09586 0.138098,0.107781 0.205849,0.09001 0.06197,-0.01656 0.101064,-0.0056 0.188451,0.05068 0.174308,0.112836 0.280016,0.157858 0.370529,0.157858 0.08914,0 0.101676,0.02458 0.05535,0.107208 -0.02453,0.04402 -0.01922,0.05098 0.03688,0.05098 0.03602,0 0.137585,0.02398 0.225663,0.0527 0.200247,0.06628 0.283778,0.07062 0.233614,0.01262 -0.07416,-0.08536 0.004,-0.06204 0.269379,0.07996 0.370157,0.198786 0.557408,0.221477 1.294501,0.156979 0.109097,-0.0096 0.144609,-0.004 0.144609,0.02292 0,0.02312 -0.09489,0.05714 -0.268595,0.09765 -0.228585,0.0529 -0.350615,0.0634 -0.819529,0.06901 -0.36953,0.004 -0.621928,-0.0056 -0.76642,-0.02904 z m -0.37685,-3.954591 c 0,-0.0056 -0.03409,-0.02978 -0.07577,-0.05428 l -0.07577,-0.04442 0.06515,0.05429 c 0.06333,0.053 0.08629,0.06466 0.08629,0.04442 z m 3.792852,-2.764696 c -0.0086,-0.0211 -0.01563,-0.01504 -0.01669,0.0161 -10e-4,0.02766 0.0056,0.04357 0.01467,0.03458 0.0086,-0.0086 0.0096,-0.0314 0.002,-0.05058 z m -6.251482,-2.766666 c 0.03419,-0.042 0.03327,-0.04296 -0.01062,-0.0096 -0.02645,0.01994 -0.04801,0.04084 -0.04801,0.04634 0,0.02186 0.02273,0.0076 0.05842,-0.03604 z m 0.313306,-0.244018 c 0.02721,-0.02893 0.04391,-0.0527 0.03632,-0.0527 -0.0076,0 -0.03643,0.02388 -0.06373,0.0527 -0.02721,0.02893 -0.04391,0.0527 -0.03612,0.0527 0.0076,0 0.03632,-0.02398 0.06353,-0.0527 z m 0.346769,-0.185449 c 0.09095,-0.02918 0.142419,-0.03458 0.161569,-0.01656 0.01912,0.01845 0.09034,0.0076 0.222466,-0.03402 0.106864,-0.03352 0.189397,-0.06597 0.183424,-0.07148 -0.0066,-0.0056 -0.09424,0.01631 -0.195604,0.04856 -0.139454,0.04486 -0.18962,0.05121 -0.205177,0.02693 -0.02635,-0.04084 -0.276954,0.03943 -0.384713,0.123196 l -0.07365,0.05704 0.07906,-0.04558 c 0.04365,-0.02514 0.139167,-0.06522 0.212529,-0.08874 z m 0.794174,-0.06724 c 0.07992,-0.02292 0.1407,-0.04614 0.134877,-0.05154 -0.01295,-0.01222 -0.297837,0.06608 -0.297837,0.08152 0,0.016 0.002,0.0157 0.16296,-0.02988 z m 0.456846,-0.143808 0.110202,-0.01918 -0.09646,-0.002 c -0.05301,-10e-4 -0.127419,0.016 -0.165299,0.03796 -0.04482,0.0261 -0.04952,0.03382 -0.01391,0.02176 0.03009,-0.0106 0.104561,-0.02736 0.165277,-0.03806 z m 0.218777,-0.04982 c 0.0086,-0.01338 -0.0096,-0.01772 -0.03986,-0.0096 -0.06439,0.01632 -0.07249,0.03402 -0.01573,0.03402 0.022,0 0.04684,-0.0106 0.05503,-0.02408 z m 0.889449,0.0076 c -0.0086,-0.0086 -0.03283,-0.0096 -0.05271,-0.002 -0.0221,0.0086 -0.01573,0.01494 0.01669,0.0161 0.02888,10e-4 0.04537,-0.0056 0.03612,-0.01388 z m -0.164724,-0.02852 c -0.02646,-0.0066 -0.07013,-0.0066 -0.09659,0 -0.02656,0.0066 -0.0056,0.01196 0.04804,0.01196 0.05301,0 0.07471,-0.0056 0.04826,-0.01196 z m -0.274713,-0.02716 c -0.0563,-0.0056 -0.155596,-0.0056 -0.220405,-1.8e-4 -0.06494,0.0056 -0.01861,0.0096 0.102533,0.0106 0.121222,9.6e-5 0.174246,-0.004 0.117843,-0.0096 z m -0.359457,-0.02332 c -0.0086,-0.0086 -0.03283,-0.0096 -0.05271,-0.002 -0.02211,0.0086 -0.01563,0.01494 0.01689,0.016 0.02901,0.001 0.04547,-0.0055 0.03591,-0.01388 z m -0.186453,6.340578 c -0.280613,-0.192531 -0.384557,-0.292135 -0.384557,-0.368393 0,-0.04038 0.0096,-0.0736 0.02124,-0.0736 0.03965,0 0.508824,0.46892 0.498581,0.498374 -0.0056,0.01706 -0.06237,-0.0066 -0.135216,-0.0564 z m -0.144407,-0.488842 c -0.145725,-0.14101 -0.192439,-0.216876 -0.133517,-0.216876 0.03527,0 0.306581,0.29732 0.306581,0.336128 0,0.01832 -0.003,0.03317 -0.0076,0.03317 -0.004,0 -0.07865,-0.0687 -0.165309,-0.152451 z m 1.612387,-0.577274 c -0.07694,-0.02948 -0.02878,-0.0847 0.09646,-0.110548 0.07203,-0.01525 0.186329,-0.05058 0.254155,-0.07975 0.06799,-0.02893 0.128201,-0.04806 0.134184,-0.04274 0.0056,0.0056 -0.02488,0.06436 -0.06844,0.13031 -0.07852,0.119137 -0.07992,0.119847 -0.230563,0.117823 -0.08321,-0.001 -0.167041,-0.0076 -0.185987,-0.0154 z m 0.826478,-0.590093 c -0.07437,-0.02852 -0.07744,-0.07728 -0.01583,-0.243202 0.05321,-0.142474 0.108662,-0.170583 0.0779,-0.03942 -0.01093,0.0471 -0.02595,0.115425 -0.03283,0.151677 l -0.01265,0.06628 0.05493,-0.05992 c 0.03253,-0.03542 0.06247,-0.118923 0.07385,-0.204152 0.01062,-0.0792 0.02954,-0.137584 0.04355,-0.129664 0.03409,0.02014 0.0303,0.228739 -0.0066,0.368976 -0.0322,0.122487 -0.061,0.136759 -0.182661,0.09024 z M 11.616682,18.101078 C 11.608184,18.077937 11.6,17.988062 11.6,17.900991 c 0,-0.114893 0.0096,-0.155313 0.03435,-0.147434 0.04092,0.01292 0.0647,0.389206 0.02499,0.389206 -0.01447,0 -0.03339,-0.01878 -0.04272,-0.0419 z m 6.627176,-0.617044 c -0.04305,-0.05535 -0.05589,-0.09924 -0.04411,-0.145528 0.02509,-0.0952 0.09009,-0.08152 0.138244,0.02852 0.07481,0.171548 0.0096,0.251938 -0.09469,0.116835 z m -6.632816,-0.418706 c -0.002,-0.149599 -2.5e-5,-0.154221 0.06916,-0.151698 0.05857,0.002 0.07279,0.01696 0.07947,0.08304 0.0076,0.07466 -0.07714,0.22278 -0.127554,0.22278 -0.01062,0 -0.01988,-0.06956 -0.02114,-0.154252 z m 7.140633,-3.242987 c 0.004,-0.236058 0.04547,-0.316046 0.0777,-0.150755 0.02275,0.115181 -0.0066,0.318548 -0.04983,0.353304 -0.0238,0.01878 -0.0307,-0.03256 -0.02772,-0.202549 z m -3.61967,-0.141473 C 15.142953,13.649167 15.523097,13.5 15.593141,13.5 c 0.08225,0 -0.06556,0.09682 -0.235746,0.154232 -0.189983,0.06436 -0.240563,0.0702 -0.22539,0.0266 z"
     class="ColorScheme-Text"
     id="path7225-4" />
</svg>
