<?xml version="1.0" encoding="UTF-8" standalone="no"?>
<svg
   viewBox="0 0 32 32"
   version="1.1"
   id="svg12"
   sodipodi:docname="folder-rpm.svg"
   inkscape:version="1.2.1 (9c6d41e410, 2022-07-14)"
   xmlns:inkscape="http://www.inkscape.org/namespaces/inkscape"
   xmlns:sodipodi="http://sodipodi.sourceforge.net/DTD/sodipodi-0.dtd"
   xmlns:xlink="http://www.w3.org/1999/xlink"
   xmlns="http://www.w3.org/2000/svg"
   xmlns:svg="http://www.w3.org/2000/svg"
   xmlns:rdf="http://www.w3.org/1999/02/22-rdf-syntax-ns#"
   xmlns:cc="http://creativecommons.org/ns#"
   xmlns:dc="http://purl.org/dc/elements/1.1/">
  <metadata
     id="metadata16">
    <rdf:RDF>
      <cc:Work
         rdf:about="">
        <dc:format>image/svg+xml</dc:format>
        <dc:type
           rdf:resource="http://purl.org/dc/dcmitype/StillImage" />
      </cc:Work>
    </rdf:RDF>
  </metadata>
  <sodipodi:namedview
     pagecolor="#ffffff"
     bordercolor="#666666"
     borderopacity="1"
     objecttolerance="10"
     gridtolerance="10"
     guidetolerance="10"
     inkscape:pageopacity="0"
     inkscape:pageshadow="2"
     inkscape:window-width="1920"
     inkscape:window-height="1004"
     id="namedview14"
     showgrid="true"
     inkscape:zoom="20.85965"
     inkscape:cx="9.8275858"
     inkscape:cy="14.261984"
     inkscape:window-x="0"
     inkscape:window-y="0"
     inkscape:window-maximized="1"
     inkscape:current-layer="svg12"
     inkscape:showpageshadow="2"
     inkscape:pagecheckerboard="0"
     inkscape:deskcolor="#d1d1d1">
    <inkscape:grid
       type="xygrid"
       id="grid18219" />
  </sodipodi:namedview>
  <defs
     id="defs3051">
    <style
       type="text/css"
       id="current-color-scheme">.ColorScheme-Text { color:#31363b; }
.ColorScheme-Background { color:#eff0f1; }
.ColorScheme-Highlight { color:#3daee9; }
.ColorScheme-ViewText { color:#31363b; }
.ColorScheme-ViewBackground { color:#fcfcfc; }
.ColorScheme-ViewHover { color:#93cee9; }
.ColorScheme-ViewFocus { color:#3daee9; }
.ColorScheme-ButtonText { color:#31363b; }
.ColorScheme-ButtonBackground { color:#eff0f1; }
.ColorScheme-ButtonHover { color:#93cee9; }
.ColorScheme-ButtonFocus { color:#3daee9; }
</style>
    <linearGradient
       inkscape:collect="always"
       xlink:href="#linearGradient4393"
       id="linearGradient668"
       gradientUnits="userSpaceOnUse"
       gradientTransform="matrix(1.8102342,0,0,1.7335427,1.50002,-1795.3113)"
       x1="5"
       y1="1037.3622"
       x2="8"
       y2="1051.3622" />
    <linearGradient
       inkscape:collect="always"
       id="linearGradient4393">
      <stop
         style="stop-color:#000000;stop-opacity:1;"
         offset="0"
         id="stop4395" />
      <stop
         style="stop-color:#000000;stop-opacity:0;"
         offset="1"
         id="stop4397" />
    </linearGradient>
  </defs>
  <path
     inkscape:connector-curvature="0"
     style="fill:currentColor;fill-opacity:1;stroke-width:1.77147"
     id="rect4180-6-7"
     d="m 2,16.000004 h 27.999791 l 2.05e-4,-9.299999 c 0,-1 -1.05,-1.95 -2.05,-1.95 L 15.999893,4.733335 14.187402,3 H 3.999985 C 2.999993,3 2,4 2,5 Z"
     sodipodi:nodetypes="ccccccccc"
     class="ColorScheme-Highlight" />
  <path
     inkscape:connector-curvature="0"
     style="fill:#bf616a;fill-opacity:1;stroke-width:1.77147"
     d="m 1.5,11.500004 c 0,-5.631005 0,1.476804 0,1.965206 v 13.534794 c 0,1 1,2 2,2 h 24.999997 c 1,0 2,-1 2,-2 V 10.000005 c 0,-0.5 -0.5,-1 -1,-1 H 12.499998 L 9.9999995,11.000004 H 2 c -0.5,0 -0.5,0.5 -0.5,0.5 z"
     id="rect4113-2-5"
     sodipodi:nodetypes="cccscccccccc" />
  <path
     inkscape:connector-curvature="0"
     style="opacity:0.3;fill:#0f608a;fill-opacity:1;fill-rule:evenodd;stroke-width:0.885733"
     id="path4224-9-3"
     d="m 2,11.000004 v 0 H 3 9.9999995 L 12.499998,9.000005 v 0 L 9.699999,10.500004 H 2.509051 C 2,10.500004 2,11.000004 2,11.000004 Z"
     sodipodi:nodetypes="ccccccccc" />
  <path
     inkscape:connector-curvature="0"
     style="color:#31363b;opacity:0.3;fill:#ffffff;fill-opacity:1;fill-rule:evenodd;stroke-width:1.77147"
     id="path4196-3-5"
     d="m 14.187479,3.000005 1.812528,2.75 h 13.674989 c -0.164999,-0.250001 -0.674998,-1 -1.874998,-1 L 15.999983,4.733875 Z"
     sodipodi:nodetypes="cccccc"
     class="ColorScheme-Text" />
  <path
     style="color:#000000;clip-rule:nonzero;display:inline;overflow:visible;visibility:visible;opacity:0.2;isolation:auto;mix-blend-mode:normal;color-interpolation:sRGB;color-interpolation-filters:linearRGB;solid-color:#000000;solid-opacity:1;fill:#000000;fill-opacity:1;fill-rule:nonzero;stroke:none;stroke-width:1.77147;stroke-linecap:butt;stroke-linejoin:miter;stroke-miterlimit:4;stroke-dasharray:none;stroke-dashoffset:0;stroke-opacity:1;marker:none;color-rendering:auto;image-rendering:auto;shape-rendering:auto;text-rendering:auto;enable-background:accumulate"
     d="m 1.5,25.556459 v 1.443545 c 0,1 1,2 2,2 h 24.999997 c 1,0 2,-1 2,-2 l -0.0045,-1.412885 c -0.012,0.893715 -0.941355,1.69662 -1.84913,1.679265 H 3.321025 c -0.902375,0 -1.820735,-0.83427 -1.820735,-1.709925 z"
     id="path9304-6"
     inkscape:connector-curvature="0"
     sodipodi:nodetypes="cssccccscc" />
  <path
     style="opacity:0.181;fill:url(#linearGradient668);fill-opacity:1;fill-rule:evenodd;stroke:none;stroke-width:1.77147px;stroke-linecap:butt;stroke-linejoin:miter;stroke-opacity:1"
     d="m 1.5,13.500005 14.481869,13.769859 h 14.481868 l 0.03625,-13.769859 z"
     id="path4152-2"
     inkscape:connector-curvature="0"
     sodipodi:nodetypes="ccccc" />
  <path
     style="color:#232629;fill:#002d3c;fill-opacity:1;stroke:none;stroke-width:0.553818"
     d="m 15.774418,13.514188 c -3.084768,0.132302 -5.630671,2.62211 -5.8151146,5.815112 -0.048856,0.84107 0.072202,1.653209 0.3288066,2.402113 l 0.521337,-0.186984 c -0.232971,-0.680493 -0.340797,-1.417983 -0.296361,-2.182124 0.180525,-3.104673 2.801596,-5.472833 5.854701,-5.289259 3.053106,0.183571 5.381932,2.850008 5.20141,5.954677 -0.01809,0.311296 -0.06681,0.612728 -0.131957,0.907385 l 0.538635,0.12758 c 0.07209,-0.325208 0.126041,-0.65831 0.14602,-1.001979 0.198575,-3.415127 -2.363253,-6.347769 -5.721659,-6.549694 -0.209904,-0.01265 -0.418437,-0.01434 -0.624087,-0.0054 z m 0.559187,1.130663 C 15.88632,14.619611 15.437713,14.655811 15,14.752638 l 0.101665,0.554333 c 0.39323,-0.08889 0.796172,-0.122027 1.198412,-0.100087 2.442486,0.14686 4.305331,2.278691 4.160913,4.762414 -0.01203,0.187969 -0.03607,0.374938 -0.07136,0.559831 l 0.554855,0.0341 c 0.03335,-0.185195 0.05746,-0.372004 0.07031,-0.559832 0.162475,-2.794193 -1.933373,-5.193325 -4.681167,-5.358541 z m -2.769973,0.666519 c -0.889933,0.517204 -1.600579,1.300432 -2.036653,2.243723 l 0.481315,0.291467 c 0.379921,-0.851059 1.010852,-1.561209 1.805181,-2.031449 z m 2.544998,3.388684 c -0.527986,0.01941 -1.057391,0.387757 -1.109711,0.981086 -0.03618,0.620938 0.429872,1.153342 1.040491,1.190047 0.408963,0.02446 0.797175,-0.182018 1.010219,-0.537823 -0.0041,0.0073 -0.0088,0.01455 -0.01294,0.02201 l 4.319909,1.460605 0.174137,-0.53453 -4.32099,-1.460622 v -0.0062 c -0.04695,-0.803689 -0.57308,-1.133549 -1.101072,-1.114211 z m -4.984004,0.191384 c -0.02892,0.169854 -0.04873,0.341652 -0.06055,0.513627 -0.0098,0.187931 -0.01035,0.375241 0,0.563144 l 0.559195,0.0341 c -0.01401,-0.187844 -0.01562,-0.376067 -0.0061,-0.564233 0.0082,-0.132666 0.02221,-0.265655 0.04217,-0.397041 z m 5.012129,0.293655 c 0.305317,0.01841 0.538302,0.284572 0.520254,0.595027 -0.01805,0.310459 -0.27984,0.547402 -0.585153,0.529044 -0.305313,-0.01841 -0.538302,-0.284569 -0.52025,-0.595027 0.01803,-0.31048 0.279836,-0.547404 0.585149,-0.529044 z"
     class="ColorScheme-Text"
     id="path23620" />
</svg>
