<?xml version="1.0" encoding="UTF-8" standalone="no"?>
<svg
   viewBox="0 0 32 32"
   version="1.1"
   id="svg14"
   sodipodi:docname="folder-videos.svg"
   inkscape:version="1.2.1 (9c6d41e410, 2022-07-14)"
   xmlns:inkscape="http://www.inkscape.org/namespaces/inkscape"
   xmlns:sodipodi="http://sodipodi.sourceforge.net/DTD/sodipodi-0.dtd"
   xmlns:xlink="http://www.w3.org/1999/xlink"
   xmlns="http://www.w3.org/2000/svg"
   xmlns:svg="http://www.w3.org/2000/svg"
   xmlns:rdf="http://www.w3.org/1999/02/22-rdf-syntax-ns#"
   xmlns:cc="http://creativecommons.org/ns#"
   xmlns:dc="http://purl.org/dc/elements/1.1/">
  <metadata
     id="metadata18">
    <rdf:RDF>
      <cc:Work
         rdf:about="">
        <dc:format>image/svg+xml</dc:format>
        <dc:type
           rdf:resource="http://purl.org/dc/dcmitype/StillImage" />
      </cc:Work>
    </rdf:RDF>
  </metadata>
  <sodipodi:namedview
     pagecolor="#ffffff"
     bordercolor="#666666"
     borderopacity="1"
     objecttolerance="10"
     gridtolerance="10"
     guidetolerance="10"
     inkscape:pageopacity="0"
     inkscape:pageshadow="2"
     inkscape:window-width="1920"
     inkscape:window-height="1004"
     id="namedview16"
     showgrid="false"
     inkscape:zoom="8.0362615"
     inkscape:cx="-3.8575151"
     inkscape:cy="19.225357"
     inkscape:window-x="0"
     inkscape:window-y="0"
     inkscape:window-maximized="1"
     inkscape:current-layer="svg14"
     inkscape:showpageshadow="2"
     inkscape:pagecheckerboard="0"
     inkscape:deskcolor="#d1d1d1" />
  <defs
     id="defs3051">
    <style
       type="text/css"
       id="current-color-scheme">.ColorScheme-Text { color:#31363b; }
.ColorScheme-Background { color:#eff0f1; }
.ColorScheme-Highlight { color:#3daee9; }
.ColorScheme-ViewText { color:#31363b; }
.ColorScheme-ViewBackground { color:#fcfcfc; }
.ColorScheme-ViewHover { color:#93cee9; }
.ColorScheme-ViewFocus { color:#3daee9; }
.ColorScheme-ButtonText { color:#31363b; }
.ColorScheme-ButtonBackground { color:#eff0f1; }
.ColorScheme-ButtonHover { color:#93cee9; }
.ColorScheme-ButtonFocus { color:#3daee9; }
</style>
    <linearGradient
       inkscape:collect="always"
       xlink:href="#linearGradient1003"
       id="linearGradient4160"
       x1="6.0765505"
       y1="1039.381"
       x2="14.362771"
       y2="1048.6106"
       gradientUnits="userSpaceOnUse"
       gradientTransform="matrix(1.8726562,0,0,1.7335427,1.000026,-1795.3114)" />
    <linearGradient
       inkscape:collect="always"
       id="linearGradient1003">
      <stop
         style="stop-color:#00171e;stop-opacity:1;"
         offset="0"
         id="stop999" />
      <stop
         style="stop-color:#007599;stop-opacity:0;"
         offset="1"
         id="stop1001" />
    </linearGradient>
  </defs>
  <path
     inkscape:connector-curvature="0"
     style="fill:currentColor;fill-opacity:1;stroke-width:1.80176"
     id="rect4180-6-3"
     d="m 1.51724,16 h 28.965305 l 2.15e-4,-9.3 c 0,-1 -1.08621,-1.95 -2.12069,-1.95 L 15.999892,4.733335 14.124905,3 H 3.586195 C 2.551713,3 1.51724,4 1.51724,5 Z"
     sodipodi:nodetypes="ccccccccc"
     class="  ColorScheme-Highlight" />
  <path
     inkscape:connector-curvature="0"
     style="color:#31363b;opacity:0.3;fill:#31363b;fill-opacity:1;fill-rule:evenodd;stroke-width:1.80177"
     id="path4196-3-7"
     d="m 14.12498,3 1.875027,2.75 H 30.14655 c -0.17069,-0.25 -0.69827,-1 -1.93965,-1 L 15.999985,4.73387 Z"
     sodipodi:nodetypes="cccccc"
     class="ColorScheme-Text" />
  <path
     inkscape:connector-curvature="0"
     style="fill:#002938;fill-opacity:1;stroke-width:1.80177"
     d="m 1,11.5 c 0,-5.631006 0,1.476803 0,1.965205 V 27 c 0,1 1.03448,2 2.06897,2 H 28.93103 C 29.96552,29 31,28 31,27 V 10 C 31,9.5 30.48276,9 29.96552,9 H 12.37931 L 9.7931,11 H 1.51724 C 1,11 1,11.5 1,11.5 Z"
     id="rect4113-2-2"
     sodipodi:nodetypes="cccscccccccc" />
  <path
     inkscape:connector-curvature="0"
     style="opacity:0.3;fill:#0f608a;fill-opacity:1;fill-rule:evenodd;stroke-width:0.900877"
     id="path4224-9-7"
     d="m 1.51724,11 v 0 H 2.55172 9.7931 L 12.37931,9 V 9 L 9.48276,10.5 H 2.043841 C 1.51724,10.5 1.51724,11 1.51724,11 Z"
     sodipodi:nodetypes="ccccccccc" />
  <path
     style="color:#000000;clip-rule:nonzero;display:inline;overflow:visible;visibility:visible;opacity:0.2;isolation:auto;mix-blend-mode:normal;color-interpolation:sRGB;color-interpolation-filters:linearRGB;solid-color:#000000;solid-opacity:1;fill:#000000;fill-opacity:1;fill-rule:nonzero;stroke:none;stroke-width:1.80177;stroke-linecap:butt;stroke-linejoin:miter;stroke-miterlimit:4;stroke-dasharray:none;stroke-dashoffset:0;stroke-opacity:1;marker:none;color-rendering:auto;image-rendering:auto;shape-rendering:auto;text-rendering:auto;enable-background:accumulate"
     d="M 1,25.556455 V 27 c 0,1 1.03448,2 2.06897,2 H 28.93103 C 29.96552,29 31,28 31,27 l -0.0045,-1.412885 c -0.0124,0.893715 -0.973816,1.69662 -1.912896,1.679265 H 2.883815 C 1.95033,27.26638 1.0003,26.43211 1.0003,25.556455 Z"
     id="path9304-0"
     inkscape:connector-curvature="0"
     sodipodi:nodetypes="cssccccscc" />
  <path
     style="fill:url(#linearGradient4160);fill-opacity:1;fill-rule:evenodd;stroke:none;stroke-width:1.80177px;stroke-linecap:butt;stroke-linejoin:miter;stroke-opacity:1"
     d="M 1,13.5 15.98124,27.26986 H 30.96249 L 31,13.5 Z"
     id="path4152-9"
     inkscape:connector-curvature="0"
     sodipodi:nodetypes="ccccc" />
  <path
     style="color:#eff0f1;fill:#ffffff;fill-opacity:1;stroke:none"
     d="m 11,13.5 v 10 h 10 v -10 z m 1,1 h 1 v 1 h -1 z m 2,0 h 4 v 3 h -4 z m 5,0 h 1 v 1 h -1 z m -7,2 h 1 v 1 h -1 z m 7,0 h 1 v 1 h -1 z m -7,3 h 1 v 1 h -1 z m 2,0 h 4 v 3 h -4 z m 5,0 h 1 v 1 h -1 z m -7,2 h 1 v 1 h -1 z m 7,0 h 1 v 1 h -1 z"
     class="ColorScheme-Background"
     id="path12-2" />
</svg>
