<?xml version="1.0" encoding="UTF-8" standalone="no"?>
<svg
   viewBox="0 0 32 32"
   version="1.1"
   id="svg12"
   sodipodi:docname="folder-Github.svg"
   inkscape:version="1.2.1 (9c6d41e410, 2022-07-14)"
   xmlns:inkscape="http://www.inkscape.org/namespaces/inkscape"
   xmlns:sodipodi="http://sodipodi.sourceforge.net/DTD/sodipodi-0.dtd"
   xmlns:xlink="http://www.w3.org/1999/xlink"
   xmlns="http://www.w3.org/2000/svg"
   xmlns:svg="http://www.w3.org/2000/svg"
   xmlns:rdf="http://www.w3.org/1999/02/22-rdf-syntax-ns#"
   xmlns:cc="http://creativecommons.org/ns#"
   xmlns:dc="http://purl.org/dc/elements/1.1/">
  <metadata
     id="metadata16">
    <rdf:RDF>
      <cc:Work
         rdf:about="">
        <dc:format>image/svg+xml</dc:format>
        <dc:type
           rdf:resource="http://purl.org/dc/dcmitype/StillImage" />
      </cc:Work>
    </rdf:RDF>
  </metadata>
  <sodipodi:namedview
     pagecolor="#ffffff"
     bordercolor="#666666"
     borderopacity="1"
     objecttolerance="10"
     gridtolerance="10"
     guidetolerance="10"
     inkscape:pageopacity="0"
     inkscape:pageshadow="2"
     inkscape:window-width="1920"
     inkscape:window-height="1004"
     id="namedview14"
     showgrid="false"
     inkscape:zoom="8.0362615"
     inkscape:cx="-7.7150302"
     inkscape:cy="10.888147"
     inkscape:window-x="0"
     inkscape:window-y="0"
     inkscape:window-maximized="1"
     inkscape:current-layer="svg12"
     inkscape:document-rotation="0"
     inkscape:showpageshadow="2"
     inkscape:pagecheckerboard="0"
     inkscape:deskcolor="#d1d1d1" />
  <defs
     id="defs3051">
    <style
       type="text/css"
       id="current-color-scheme">.ColorScheme-Text { color:#31363b; }
.ColorScheme-Background { color:#eff0f1; }
.ColorScheme-Highlight { color:#3daee9; }
.ColorScheme-ViewText { color:#31363b; }
.ColorScheme-ViewBackground { color:#fcfcfc; }
.ColorScheme-ViewHover { color:#93cee9; }
.ColorScheme-ViewFocus { color:#3daee9; }
.ColorScheme-ButtonText { color:#31363b; }
.ColorScheme-ButtonBackground { color:#eff0f1; }
.ColorScheme-ButtonHover { color:#93cee9; }
.ColorScheme-ButtonFocus { color:#3daee9; }
</style>
    <linearGradient
       inkscape:collect="always"
       xlink:href="#linearGradient1003"
       id="linearGradient4160"
       x1="6.0765505"
       y1="1039.381"
       x2="14.362771"
       y2="1048.6106"
       gradientUnits="userSpaceOnUse"
       gradientTransform="matrix(1.8726562,0,0,1.7335427,1.000026,-1795.3112)" />
    <linearGradient
       inkscape:collect="always"
       id="linearGradient1003">
      <stop
         style="stop-color:#00171e;stop-opacity:1;"
         offset="0"
         id="stop999" />
      <stop
         style="stop-color:#007599;stop-opacity:0;"
         offset="1"
         id="stop1001" />
    </linearGradient>
  </defs>
  <path
     inkscape:connector-curvature="0"
     style="fill:currentColor;fill-opacity:1;stroke-width:1.80176"
     id="rect4180-6-3"
     d="m 1.51724,16 h 28.965305 l 2.16e-4,-9.3 c 0,-1 -1.086211,-1.95 -2.12069,-1.95 L 15.999893,4.73334 14.124906,3.000005 H 3.586195 c -1.034482,0 -2.068955,1 -2.068955,2 z"
     sodipodi:nodetypes="ccccccccc"
     class="  ColorScheme-Highlight" />
  <path
     inkscape:connector-curvature="0"
     style="color:#31363b;opacity:0.3;fill:#31363b;fill-opacity:1;fill-rule:evenodd;stroke-width:1.80177"
     id="path4196-3-7"
     d="m 14.124981,3 1.875027,2.75 H 30.14655 c -0.170691,-0.25 -0.69827,-1 -1.939651,-1 L 15.999985,4.73387 Z"
     sodipodi:nodetypes="cccccc"
     class="ColorScheme-Text" />
  <path
     inkscape:connector-curvature="0"
     style="fill:#002938;fill-opacity:1;stroke-width:1.80177"
     d="m 1,11.5 c 0,-5.631006 0,1.476803 0,1.965205 V 27 c 0,1 1.03448,2 2.06897,2 H 28.93103 C 29.96552,29 31,28 31,27 V 10 C 31,9.5 30.48276,9 29.96552,9 H 12.379311 L 9.7931,11 H 1.51724 C 1,11 1,11.5 1,11.5 Z"
     id="rect4113-2-2"
     sodipodi:nodetypes="cccscccccccc" />
  <path
     inkscape:connector-curvature="0"
     style="opacity:0.3;fill:#0f608a;fill-opacity:1;fill-rule:evenodd;stroke-width:0.900877"
     id="path4224-9-7"
     d="m 1.51724,11 v 0 H 2.55172 9.7931 L 12.379311,9 V 9 L 9.48276,10.5 H 2.043841 C 1.51724,10.5 1.51724,11 1.51724,11 Z"
     sodipodi:nodetypes="ccccccccc" />
  <path
     style="color:#000000;clip-rule:nonzero;display:inline;overflow:visible;visibility:visible;opacity:0.2;isolation:auto;mix-blend-mode:normal;color-interpolation:sRGB;color-interpolation-filters:linearRGB;solid-color:#000000;solid-opacity:1;fill:#000000;fill-opacity:1;fill-rule:nonzero;stroke:none;stroke-width:1.80177;stroke-linecap:butt;stroke-linejoin:miter;stroke-miterlimit:4;stroke-dasharray:none;stroke-dashoffset:0;stroke-opacity:1;marker:none;color-rendering:auto;image-rendering:auto;shape-rendering:auto;text-rendering:auto;enable-background:accumulate"
     d="M 1,25.556455 V 27 c 0,1 1.03448,2 2.06897,2 H 28.93103 C 29.96552,29 31,28 31,27 l -0.0045,-1.412885 c -0.0124,0.893715 -0.973816,1.69662 -1.912896,1.679265 H 2.883815 C 1.95033,27.26638 1.0003,26.43211 1.0003,25.556455 Z"
     id="path9304-0"
     inkscape:connector-curvature="0"
     sodipodi:nodetypes="cssccccscc" />
  <path
     style="fill:url(#linearGradient4160);fill-opacity:1;fill-rule:evenodd;stroke:none;stroke-width:1.80177px;stroke-linecap:butt;stroke-linejoin:miter;stroke-opacity:1"
     d="M 1,13.5 15.981241,27.26986 H 30.96249 L 31,13.5 Z"
     id="path4152-9"
     inkscape:connector-curvature="0"
     sodipodi:nodetypes="ccccc" />
  <path
     d="M 16.21733,13.5 C 13.334748,13.5 11,15.795625 11,18.626888 c 0,2.265625 1.494754,4.186904 3.567349,4.864284 0.260873,0.0482 0.356503,-0.11043 0.356503,-0.246516 0,-0.12174 -0.005,-0.444344 -0.0056,-0.871726 -1.451282,0.309131 -1.757368,-0.687822 -1.757368,-0.687822 -0.237391,-0.591731 -0.580425,-0.749995 -0.580425,-0.749995 -0.472602,-0.31782 0.03652,-0.311296 0.03652,-0.311296 0.523906,0.0356 0.799119,0.528257 0.799119,0.528257 0.465214,0.783905 1.221286,0.557391 1.519544,0.426521 0.0469,-0.331737 0.181301,-0.557388 0.330431,-0.685648 -1.158683,-0.128254 -2.376489,-0.569121 -2.376489,-2.533443 0,-0.559557 0.202166,-1.016942 0.536951,-1.375632 -0.05863,-0.129567 -0.234785,-0.650862 0.04555,-1.356934 0,0 0.436954,-0.137389 1.434762,0.525641 0.417394,-0.113914 0.860862,-0.170434 1.304334,-0.173044 0.443471,0.0025 0.886946,0.05913 1.304332,0.173044 0.99129,-0.66303 1.428244,-0.525641 1.428244,-0.525641 0.280429,0.706072 0.104337,1.227367 0.05222,1.356934 0.332605,0.35869 0.534776,0.816075 0.534776,1.375632 0,1.969538 -1.219552,2.403013 -2.380407,2.529099 0.182607,0.15391 0.352172,0.468255 0.352172,0.948682 0,0.68608 -0.0056,1.237377 -0.0056,1.403897 0,0.134345 0.09133,0.294771 0.35869,0.243475 2.08736,-0.673042 3.580822,-2.595624 3.580822,-4.857769 C 21.436425,15.795625 19.100373,13.5 16.219107,13.5 Z"
     id="path2-3-3-3"
     style="fill:#ffffff;fill-opacity:1;stroke-width:0.434771" />
</svg>
