<?xml version="1.0" encoding="UTF-8" standalone="no"?>
<svg
   viewBox="0 0 32 32"
   version="1.1"
   id="svg12"
   sodipodi:docname="folder-comic.svg"
   inkscape:version="1.2.1 (9c6d41e410, 2022-07-14)"
   xmlns:inkscape="http://www.inkscape.org/namespaces/inkscape"
   xmlns:sodipodi="http://sodipodi.sourceforge.net/DTD/sodipodi-0.dtd"
   xmlns:xlink="http://www.w3.org/1999/xlink"
   xmlns="http://www.w3.org/2000/svg"
   xmlns:svg="http://www.w3.org/2000/svg"
   xmlns:rdf="http://www.w3.org/1999/02/22-rdf-syntax-ns#"
   xmlns:cc="http://creativecommons.org/ns#"
   xmlns:dc="http://purl.org/dc/elements/1.1/">
  <metadata
     id="metadata16">
    <rdf:RDF>
      <cc:Work
         rdf:about="">
        <dc:format>image/svg+xml</dc:format>
        <dc:type
           rdf:resource="http://purl.org/dc/dcmitype/StillImage" />
      </cc:Work>
    </rdf:RDF>
  </metadata>
  <sodipodi:namedview
     pagecolor="#ffffff"
     bordercolor="#666666"
     borderopacity="1"
     objecttolerance="10"
     gridtolerance="10"
     guidetolerance="10"
     inkscape:pageopacity="0"
     inkscape:pageshadow="2"
     inkscape:window-width="1920"
     inkscape:window-height="1004"
     id="namedview14"
     showgrid="false"
     inkscape:zoom="8.0362615"
     inkscape:cx="40.317254"
     inkscape:cy="7.5283762"
     inkscape:window-x="0"
     inkscape:window-y="0"
     inkscape:window-maximized="1"
     inkscape:current-layer="svg12"
     inkscape:showpageshadow="2"
     inkscape:pagecheckerboard="0"
     inkscape:deskcolor="#d1d1d1" />
  <defs
     id="defs3051">
    <style
       type="text/css"
       id="current-color-scheme">.ColorScheme-Text { color:#31363b; }
.ColorScheme-Background { color:#eff0f1; }
.ColorScheme-Highlight { color:#3daee9; }
.ColorScheme-ViewText { color:#31363b; }
.ColorScheme-ViewBackground { color:#fcfcfc; }
.ColorScheme-ViewHover { color:#93cee9; }
.ColorScheme-ViewFocus { color:#3daee9; }
.ColorScheme-ButtonText { color:#31363b; }
.ColorScheme-ButtonBackground { color:#eff0f1; }
.ColorScheme-ButtonHover { color:#93cee9; }
.ColorScheme-ButtonFocus { color:#3daee9; }
</style>
    <linearGradient
       inkscape:collect="always"
       xlink:href="#linearGradient1003"
       id="linearGradient4160"
       x1="6.0765505"
       y1="1039.381"
       x2="14.362771"
       y2="1048.6106"
       gradientUnits="userSpaceOnUse"
       gradientTransform="matrix(1.8726562,0,0,1.7335427,1.000026,-1795.3113)" />
    <linearGradient
       inkscape:collect="always"
       id="linearGradient1003">
      <stop
         style="stop-color:#00171e;stop-opacity:1;"
         offset="0"
         id="stop999" />
      <stop
         style="stop-color:#007599;stop-opacity:0;"
         offset="1"
         id="stop1001" />
    </linearGradient>
  </defs>
  <path
     inkscape:connector-curvature="0"
     style="fill:currentColor;fill-opacity:1;stroke-width:1.80176"
     id="rect4180-6-3"
     d="m 1.51724,16 h 28.965305 l 2.15e-4,-9.3 c 0,-1 -1.08621,-1.95 -2.12069,-1.95 L 15.999892,4.733335 14.124905,3 H 3.586195 C 2.551713,3 1.51724,4 1.51724,5 Z"
     sodipodi:nodetypes="ccccccccc"
     class="  ColorScheme-Highlight" />
  <path
     inkscape:connector-curvature="0"
     style="color:#31363b;opacity:0.3;fill:#31363b;fill-opacity:1;fill-rule:evenodd;stroke-width:1.80177"
     id="path4196-3-7"
     d="m 14.12498,3 1.875027,2.75 H 30.14655 c -0.17069,-0.25 -0.69827,-1 -1.93965,-1 L 15.999985,4.73387 Z"
     sodipodi:nodetypes="cccccc"
     class="ColorScheme-Text" />
  <path
     inkscape:connector-curvature="0"
     style="fill:#002938;fill-opacity:1;stroke-width:1.80177"
     d="m 1,11.5 c 0,-5.631006 0,1.476803 0,1.965205 V 27 c 0,1 1.03448,2 2.06897,2 H 28.93103 C 29.96552,29 31,28 31,27 V 10 C 31,9.5 30.48276,9 29.96552,9 H 12.37931 L 9.7931,11 H 1.51724 C 1,11 1,11.5 1,11.5 Z"
     id="rect4113-2-2"
     sodipodi:nodetypes="cccscccccccc" />
  <path
     inkscape:connector-curvature="0"
     style="opacity:0.3;fill:#0f608a;fill-opacity:1;fill-rule:evenodd;stroke-width:0.900877"
     id="path4224-9-7"
     d="m 1.51724,11 v 0 H 2.55172 9.7931 L 12.37931,9 V 9 L 9.48276,10.5 H 2.043841 C 1.51724,10.5 1.51724,11 1.51724,11 Z"
     sodipodi:nodetypes="ccccccccc" />
  <path
     style="color:#000000;clip-rule:nonzero;display:inline;overflow:visible;visibility:visible;opacity:0.2;isolation:auto;mix-blend-mode:normal;color-interpolation:sRGB;color-interpolation-filters:linearRGB;solid-color:#000000;solid-opacity:1;fill:#000000;fill-opacity:1;fill-rule:nonzero;stroke:none;stroke-width:1.80177;stroke-linecap:butt;stroke-linejoin:miter;stroke-miterlimit:4;stroke-dasharray:none;stroke-dashoffset:0;stroke-opacity:1;marker:none;color-rendering:auto;image-rendering:auto;shape-rendering:auto;text-rendering:auto;enable-background:accumulate"
     d="M 1,25.556455 V 27 c 0,1 1.03448,2 2.06897,2 H 28.93103 C 29.96552,29 31,28 31,27 l -0.0045,-1.412885 c -0.0124,0.893715 -0.973816,1.69662 -1.912896,1.679265 H 2.883815 C 1.95033,27.26638 1.0003,26.43211 1.0003,25.556455 Z"
     id="path9304-0"
     inkscape:connector-curvature="0"
     sodipodi:nodetypes="cssccccscc" />
  <path
     style="fill:url(#linearGradient4160);fill-opacity:1;fill-rule:evenodd;stroke:none;stroke-width:1.80177px;stroke-linecap:butt;stroke-linejoin:miter;stroke-opacity:1"
     d="M 1,13.5 15.98124,27.26986 H 30.96249 L 31,13.5 Z"
     id="path4152-9"
     inkscape:connector-curvature="0"
     sodipodi:nodetypes="ccccc" />
  <path
     fill-rule="evenodd"
     clip-rule="evenodd"
     d="m 20.60741,19.214419 c -0.19722,0 -0.3573,0.15991 -0.3573,0.35677 v 0.17877 c 0,0.49314 -0.39988,0.892871 -0.8927,0.892871 -0.19514,0 -0.37542,-0.0625 -0.52226,-0.168681 -3.2e-4,0 0,0 -3.2e-4,0 l -0.84963,-0.63702 c -0.01,-0.008 -0.018,-0.0135 -0.0278,-0.0212 -0.34319,-0.26055 -0.56447,-0.673099 -0.56447,-1.13752 v -0.71393 c 0,-0.49315 -0.39971,-0.89319 -0.89286,-0.89319 h -4.64266 c -0.49316,0 -0.89319,0.40004 -0.89319,0.89319 v 2.49997 c 0,0.39097 0.25303,0.71939 0.60339,0.84055 0.0138,0.0328 0.0487,0.0522 0.11101,0.0522 0.26445,0 0.71444,0.39955 0.71444,0.89269 v 0.35729 c 0,0.0984 0.0799,0.17842 0.17838,0.17842 0.038,0 0.0727,-0.0117 0.10182,-0.0317 5e-4,0 0,3.3e-4 0,3.3e-4 l 1.50191,-1.12631 c 0.22425,-0.16986 0.50381,-0.2705 0.80723,-0.2705 h 1.3391 c 0.19725,0 0.35718,0.15974 0.35718,0.35712 0,0.19688 -0.15993,0.3568 -0.35718,0.3568 h -1.25007 c -0.20419,0 -0.39278,0.0686 -0.54284,0.18454 l -1.43442,1.075761 h -3e-4 c -0.14701,0.106029 -0.32736,0.168439 -0.52241,0.168439 -0.49316,0 -0.89281,-0.39954 -0.89281,-0.89268 v -0.17894 c 0,-0.19682 -0.15982,-0.35712 -0.35716,-0.35712 -0.0394,0 -0.048,-0.0229 -0.0377,-0.0569 -0.5967,-0.17123 -1.03379,-0.71964 -1.03379,-1.37147 v -2.8571 c 0,-0.7891 0.63938,-1.428419 1.42837,-1.428419 h 5.00007 c 0.7889,0 1.42871,0.639339 1.42871,1.428419 v 0.89263 c 0,0.23422 0.11252,0.442091 0.28639,0.57237 l 0.8616,0.64624 c 4.8e-4,0 -3.4e-4,-3.3e-4 0,-3.3e-4 0.029,0.02 0.0642,0.0315 0.102,0.0315 0.0986,0 0.17843,-0.0798 0.17843,-0.17837 v -0.35712 c 0,-0.49317 0.44989,-0.89287 0.71428,-0.89287 0.3444,0 0.71409,-0.39952 0.71409,-0.892659 v -2.49998 c 0,-0.49332 -0.39949,-0.89285 -0.8927,-0.89285 h -4.64289 c -0.49318,0 -0.89275,0.39953 -0.89275,0.89285 v 0.17842 c 0,0.19722 -0.15982,0.35714 -0.35727,0.35714 -0.1973,0 -0.35713,-0.15992 -0.35713,-0.35714 v -0.35735 c 0,-0.78892 0.63976,-1.42835 1.42876,-1.42835 h 4.99989 c 0.78909,0 1.42855,0.639429 1.42855,1.42835 v 2.85731 c 0,0.788919 -0.56518,1.428699 -1.07126,1.428699 z m -2.85729,1.42841 c 0.19705,0 0.35731,0.159911 0.35731,0.35713 0,0.19737 -0.16026,0.35729 -0.35731,0.35729 -0.19719,0 -0.35714,-0.15992 -0.35714,-0.35729 0,-0.197219 0.15995,-0.35713 0.35714,-0.35713 z"
     id="path1947-1"
     style="fill:#ffffff;fill-opacity:1;stroke-width:0.0223209" />
</svg>
