<?xml version="1.0" encoding="UTF-8" standalone="no"?>
<svg
   viewBox="0 0 32 32"
   version="1.1"
   id="svg14"
   sodipodi:docname="folder-openSUSE.svg"
   inkscape:version="1.2.1 (9c6d41e410, 2022-07-14)"
   xmlns:inkscape="http://www.inkscape.org/namespaces/inkscape"
   xmlns:sodipodi="http://sodipodi.sourceforge.net/DTD/sodipodi-0.dtd"
   xmlns:xlink="http://www.w3.org/1999/xlink"
   xmlns="http://www.w3.org/2000/svg"
   xmlns:svg="http://www.w3.org/2000/svg"
   xmlns:rdf="http://www.w3.org/1999/02/22-rdf-syntax-ns#"
   xmlns:cc="http://creativecommons.org/ns#"
   xmlns:dc="http://purl.org/dc/elements/1.1/">
  <metadata
     id="metadata18">
    <rdf:RDF>
      <cc:Work
         rdf:about="">
        <dc:format>image/svg+xml</dc:format>
        <dc:type
           rdf:resource="http://purl.org/dc/dcmitype/StillImage" />
      </cc:Work>
    </rdf:RDF>
  </metadata>
  <sodipodi:namedview
     pagecolor="#ffffff"
     bordercolor="#666666"
     borderopacity="1"
     objecttolerance="10"
     gridtolerance="10"
     guidetolerance="10"
     inkscape:pageopacity="0"
     inkscape:pageshadow="2"
     inkscape:window-width="1920"
     inkscape:window-height="1004"
     id="namedview16"
     showgrid="false"
     inkscape:zoom="7.375"
     inkscape:cx="16"
     inkscape:cy="16.20339"
     inkscape:window-x="0"
     inkscape:window-y="0"
     inkscape:window-maximized="1"
     inkscape:current-layer="svg14"
     inkscape:document-rotation="0"
     inkscape:showpageshadow="2"
     inkscape:pagecheckerboard="0"
     inkscape:deskcolor="#d1d1d1" />
  <defs
     id="defs3051">
    <style
       type="text/css"
       id="current-color-scheme">.ColorScheme-Text { color:#31363b; }
.ColorScheme-Background { color:#eff0f1; }
.ColorScheme-Highlight { color:#3daee9; }
.ColorScheme-ViewText { color:#31363b; }
.ColorScheme-ViewBackground { color:#fcfcfc; }
.ColorScheme-ViewHover { color:#93cee9; }
.ColorScheme-ViewFocus { color:#3daee9; }
.ColorScheme-ButtonText { color:#31363b; }
.ColorScheme-ButtonBackground { color:#eff0f1; }
.ColorScheme-ButtonHover { color:#93cee9; }
.ColorScheme-ButtonFocus { color:#3daee9; }
</style>
    <linearGradient
       inkscape:collect="always"
       xlink:href="#linearGradient1003"
       id="linearGradient4160"
       x1="6.0765505"
       y1="1039.381"
       x2="14.362771"
       y2="1048.6106"
       gradientUnits="userSpaceOnUse"
       gradientTransform="matrix(1.8726562,0,0,1.7335427,1.000026,-1795.3113)" />
    <linearGradient
       inkscape:collect="always"
       id="linearGradient1003">
      <stop
         style="stop-color:#00171e;stop-opacity:1;"
         offset="0"
         id="stop999" />
      <stop
         style="stop-color:#007599;stop-opacity:0;"
         offset="1"
         id="stop1001" />
    </linearGradient>
  </defs>
  <path
     inkscape:connector-curvature="0"
     style="fill:currentColor;fill-opacity:1;stroke-width:1.80176"
     id="rect4180-6-3"
     d="m 1.51724,16 h 28.965305 l 2.15e-4,-9.3 c 0,-1 -1.08621,-1.95 -2.12069,-1.95 L 15.999892,4.733335 14.124905,3 H 3.586195 C 2.551713,3 1.51724,4 1.51724,5 Z"
     sodipodi:nodetypes="ccccccccc"
     class="  ColorScheme-Highlight" />
  <path
     inkscape:connector-curvature="0"
     style="color:#31363b;opacity:0.3;fill:#31363b;fill-opacity:1;fill-rule:evenodd;stroke-width:1.80177"
     id="path4196-3-7"
     d="m 14.12498,3 1.875027,2.75 H 30.14655 c -0.17069,-0.25 -0.69827,-1 -1.93965,-1 L 15.999985,4.73387 Z"
     sodipodi:nodetypes="cccccc"
     class="ColorScheme-Text" />
  <path
     inkscape:connector-curvature="0"
     style="fill:#002938;fill-opacity:1;stroke-width:1.80177"
     d="m 1,11.5 c 0,-5.631006 0,1.476803 0,1.965205 V 27 c 0,1 1.03448,2 2.06897,2 H 28.93103 C 29.96552,29 31,28 31,27 V 10 C 31,9.5 30.48276,9 29.96552,9 H 12.37931 L 9.7931,11 H 1.51724 C 1,11 1,11.5 1,11.5 Z"
     id="rect4113-2-2"
     sodipodi:nodetypes="cccscccccccc" />
  <path
     inkscape:connector-curvature="0"
     style="opacity:0.3;fill:#0f608a;fill-opacity:1;fill-rule:evenodd;stroke-width:0.900877"
     id="path4224-9-7"
     d="m 1.51724,11 v 0 H 2.55172 9.7931 L 12.37931,9 V 9 L 9.48276,10.5 H 2.043841 C 1.51724,10.5 1.51724,11 1.51724,11 Z"
     sodipodi:nodetypes="ccccccccc" />
  <path
     style="color:#000000;clip-rule:nonzero;display:inline;overflow:visible;visibility:visible;opacity:0.2;isolation:auto;mix-blend-mode:normal;color-interpolation:sRGB;color-interpolation-filters:linearRGB;solid-color:#000000;solid-opacity:1;fill:#000000;fill-opacity:1;fill-rule:nonzero;stroke:none;stroke-width:1.80177;stroke-linecap:butt;stroke-linejoin:miter;stroke-miterlimit:4;stroke-dasharray:none;stroke-dashoffset:0;stroke-opacity:1;marker:none;color-rendering:auto;image-rendering:auto;shape-rendering:auto;text-rendering:auto;enable-background:accumulate"
     d="M 1,25.556455 V 27 c 0,1 1.03448,2 2.06897,2 H 28.93103 C 29.96552,29 31,28 31,27 l -0.0045,-1.412885 c -0.0124,0.893715 -0.973816,1.69662 -1.912896,1.679265 H 2.883815 C 1.95033,27.26638 1.0003,26.43211 1.0003,25.556455 Z"
     id="path9304-0"
     inkscape:connector-curvature="0"
     sodipodi:nodetypes="cssccccscc" />
  <path
     style="fill:url(#linearGradient4160);fill-opacity:1;fill-rule:evenodd;stroke:none;stroke-width:1.80177px;stroke-linecap:butt;stroke-linejoin:miter;stroke-opacity:1"
     d="M 1,13.5 15.98124,27.26986 H 30.96249 L 31,13.5 Z"
     id="path4152-9"
     inkscape:connector-curvature="0"
     sodipodi:nodetypes="ccccc" />
  <path
     style="color:#4d4d4d;font-size:20.4884px;font-family:TrebuchetMS-Bold;fill:#ffffff;fill-opacity:1;fill-rule:evenodd;stroke:none;stroke-width:0.0715874;stroke-miterlimit:4"
     d="m 16,13.5 c -2.761217,0 -5,2.238531 -5,5 0,2.761468 2.238783,5 5,5 2.761217,0 4.999999,-2.238532 5,-5 0,-2.761468 -2.238783,-5 -5,-5 z m 0.02389,0.69245 c 2.379129,0 4.309388,1.928674 4.309388,4.30755 0,2.379133 -1.930512,4.30755 -4.309388,4.30755 -1.284645,0 -2.43738,-0.563026 -3.226523,-1.454875 0.324476,-0.251834 0.867346,-0.1904 1.535911,-0.114192 0.320392,0.03647 0.685638,0.07817 1.062621,0.08656 1.0532,0.0059 2.186406,-0.186102 2.885817,-0.491719 0.452174,-0.198305 0.741683,-0.328893 0.92265,-0.493555 0.06529,-0.05352 0.09952,-0.142948 0.134445,-0.235726 l 0.02389,-0.06261 c 0.02928,-0.07492 0.0714,-0.236191 0.09024,-0.324118 0.0083,-0.0385 0.01255,-0.07985 -0.01474,-0.101296 l -0.0976,0.01842 c -0.306891,0.184031 -1.073621,0.53453 -1.791898,0.548802 -0.89008,0.0186 -2.683999,-0.896027 -2.871094,-0.99263 l -0.01841,-0.02218 c -0.04481,-0.107051 -0.313326,-0.744379 -0.370172,-0.878449 1.291273,0.850316 2.361842,1.32095 3.18233,1.394112 0.912242,0.08106 1.623837,-0.417003 1.928165,-0.629842 0.05943,-0.04051 0.104786,-0.07229 0.123391,-0.07921 l 0.02028,-0.03321 C 19.492703,18.62118 19.014102,17.069551 18.65369,16.696898 18.55377,16.594685 18.474326,16.495221 18.31299,16.400395 17.008465,15.64006 13.911055,15.182141 13.766025,15.16098 l -0.02389,0.0076 -0.0092,0.02026 c 0,0 -0.01162,0.643175 -0.01283,0.71455 -0.106291,-0.03521 -0.435866,-0.143082 -0.907917,-0.272562 0.615924,-0.76212 1.559838,-1.438308 3.211785,-1.438308 z m 1.138124,2.279925 c 0.02197,-3.25e-4 0.0442,-0.0013 0.0663,0 0.730765,0.02624 1.304905,0.641749 1.279925,1.372004 -0.013,0.353279 -0.161936,0.679691 -0.419892,0.920809 -0.25871,0.242399 -0.594956,0.368752 -0.950269,0.357282 -0.729497,-0.02729 -1.303636,-0.642774 -1.279932,-1.372011 0.01248,-0.353784 0.162259,-0.682288 0.421733,-0.922644 0.242303,-0.227257 0.552424,-0.350491 0.882137,-0.35544 z m -0.03498,0.390424 c -0.212822,0.01289 -0.413667,0.09935 -0.5709,0.246776 -0.179186,0.16823 -0.284911,0.395999 -0.292813,0.642729 -0.01676,0.509772 0.382073,0.938775 0.891338,0.957645 0.247498,0.0076 0.482275,-0.07908 0.662986,-0.246779 0.180206,-0.168995 0.285175,-0.398852 0.292816,-0.644569 0.01714,-0.510545 -0.383656,-0.937958 -0.893181,-0.955802 -0.03081,-0.0017 -0.05979,-0.0021 -0.09025,0 z m 0.2431,0.462251 c 0.226338,0 0.408837,0.122996 0.408835,0.2744 0,0.150633 -0.182497,0.2744 -0.408835,0.2744 -0.227108,0 -0.410684,-0.124021 -0.410684,-0.2744 0,-0.151403 0.183576,-0.2744 0.410684,-0.2744 z"
     id="path2445-3"
     class="ColorScheme-Text"
     inkscape:connector-curvature="0" />
</svg>
