<?xml version="1.0" encoding="UTF-8" standalone="no"?>
<svg
   viewBox="0 0 32 32"
   version="1.1"
   id="svg12"
   sodipodi:docname="folder-notes.svg"
   inkscape:version="1.2.1 (9c6d41e410, 2022-07-14)"
   xmlns:inkscape="http://www.inkscape.org/namespaces/inkscape"
   xmlns:sodipodi="http://sodipodi.sourceforge.net/DTD/sodipodi-0.dtd"
   xmlns:xlink="http://www.w3.org/1999/xlink"
   xmlns="http://www.w3.org/2000/svg"
   xmlns:svg="http://www.w3.org/2000/svg"
   xmlns:rdf="http://www.w3.org/1999/02/22-rdf-syntax-ns#"
   xmlns:cc="http://creativecommons.org/ns#"
   xmlns:dc="http://purl.org/dc/elements/1.1/">
  <metadata
     id="metadata16">
    <rdf:RDF>
      <cc:Work
         rdf:about="">
        <dc:format>image/svg+xml</dc:format>
        <dc:type
           rdf:resource="http://purl.org/dc/dcmitype/StillImage" />
      </cc:Work>
    </rdf:RDF>
  </metadata>
  <sodipodi:namedview
     pagecolor="#ffffff"
     bordercolor="#666666"
     borderopacity="1"
     objecttolerance="10"
     gridtolerance="10"
     guidetolerance="10"
     inkscape:pageopacity="0"
     inkscape:pageshadow="2"
     inkscape:window-width="1920"
     inkscape:window-height="1004"
     id="namedview14"
     showgrid="false"
     inkscape:zoom="8.0362615"
     inkscape:cx="40.317254"
     inkscape:cy="7.5283762"
     inkscape:window-x="0"
     inkscape:window-y="0"
     inkscape:window-maximized="1"
     inkscape:current-layer="svg12"
     inkscape:showpageshadow="2"
     inkscape:pagecheckerboard="0"
     inkscape:deskcolor="#d1d1d1" />
  <defs
     id="defs3051">
    <style
       type="text/css"
       id="current-color-scheme">.ColorScheme-Text { color:#31363b; }
.ColorScheme-Background { color:#eff0f1; }
.ColorScheme-Highlight { color:#3daee9; }
.ColorScheme-ViewText { color:#31363b; }
.ColorScheme-ViewBackground { color:#fcfcfc; }
.ColorScheme-ViewHover { color:#93cee9; }
.ColorScheme-ViewFocus { color:#3daee9; }
.ColorScheme-ButtonText { color:#31363b; }
.ColorScheme-ButtonBackground { color:#eff0f1; }
.ColorScheme-ButtonHover { color:#93cee9; }
.ColorScheme-ButtonFocus { color:#3daee9; }
</style>
    <linearGradient
       inkscape:collect="always"
       xlink:href="#linearGradient1003"
       id="linearGradient4160"
       x1="6.0765505"
       y1="1039.381"
       x2="14.362771"
       y2="1048.6106"
       gradientUnits="userSpaceOnUse"
       gradientTransform="matrix(1.8726562,0,0,1.7335427,1.000026,-1795.3113)" />
    <linearGradient
       inkscape:collect="always"
       id="linearGradient1003">
      <stop
         style="stop-color:#00171e;stop-opacity:1;"
         offset="0"
         id="stop999" />
      <stop
         style="stop-color:#007599;stop-opacity:0;"
         offset="1"
         id="stop1001" />
    </linearGradient>
  </defs>
  <path
     inkscape:connector-curvature="0"
     style="fill:currentColor;fill-opacity:1;stroke-width:1.80176"
     id="rect4180-6-3"
     d="m 1.51724,16 h 28.965305 l 2.15e-4,-9.3 c 0,-1 -1.08621,-1.95 -2.12069,-1.95 L 15.999892,4.733335 14.124905,3 H 3.586195 C 2.551713,3 1.51724,4 1.51724,5 Z"
     sodipodi:nodetypes="ccccccccc"
     class="  ColorScheme-Highlight" />
  <path
     inkscape:connector-curvature="0"
     style="color:#31363b;opacity:0.3;fill:#31363b;fill-opacity:1;fill-rule:evenodd;stroke-width:1.80177"
     id="path4196-3-7"
     d="m 14.12498,3 1.875027,2.75 H 30.14655 c -0.17069,-0.25 -0.69827,-1 -1.93965,-1 L 15.999985,4.73387 Z"
     sodipodi:nodetypes="cccccc"
     class="ColorScheme-Text" />
  <path
     inkscape:connector-curvature="0"
     style="fill:#002938;fill-opacity:1;stroke-width:1.80177"
     d="m 1,11.5 c 0,-5.631006 0,1.476803 0,1.965205 V 27 c 0,1 1.03448,2 2.06897,2 H 28.93103 C 29.96552,29 31,28 31,27 V 10 C 31,9.5 30.48276,9 29.96552,9 H 12.37931 L 9.7931,11 H 1.51724 C 1,11 1,11.5 1,11.5 Z"
     id="rect4113-2-2"
     sodipodi:nodetypes="cccscccccccc" />
  <path
     inkscape:connector-curvature="0"
     style="opacity:0.3;fill:#0f608a;fill-opacity:1;fill-rule:evenodd;stroke-width:0.900877"
     id="path4224-9-7"
     d="m 1.51724,11 v 0 H 2.55172 9.7931 L 12.37931,9 V 9 L 9.48276,10.5 H 2.043841 C 1.51724,10.5 1.51724,11 1.51724,11 Z"
     sodipodi:nodetypes="ccccccccc" />
  <path
     style="color:#000000;clip-rule:nonzero;display:inline;overflow:visible;visibility:visible;opacity:0.2;isolation:auto;mix-blend-mode:normal;color-interpolation:sRGB;color-interpolation-filters:linearRGB;solid-color:#000000;solid-opacity:1;fill:#000000;fill-opacity:1;fill-rule:nonzero;stroke:none;stroke-width:1.80177;stroke-linecap:butt;stroke-linejoin:miter;stroke-miterlimit:4;stroke-dasharray:none;stroke-dashoffset:0;stroke-opacity:1;marker:none;color-rendering:auto;image-rendering:auto;shape-rendering:auto;text-rendering:auto;enable-background:accumulate"
     d="M 1,25.556455 V 27 c 0,1 1.03448,2 2.06897,2 H 28.93103 C 29.96552,29 31,28 31,27 l -0.0045,-1.412885 c -0.0124,0.893715 -0.973816,1.69662 -1.912896,1.679265 H 2.883815 C 1.95033,27.26638 1.0003,26.43211 1.0003,25.556455 Z"
     id="path9304-0"
     inkscape:connector-curvature="0"
     sodipodi:nodetypes="cssccccscc" />
  <path
     style="fill:url(#linearGradient4160);fill-opacity:1;fill-rule:evenodd;stroke:none;stroke-width:1.80177px;stroke-linecap:butt;stroke-linejoin:miter;stroke-opacity:1"
     d="M 1,13.5 15.98124,27.26986 H 30.96249 L 31,13.5 Z"
     id="path4152-9"
     inkscape:connector-curvature="0"
     sodipodi:nodetypes="ccccc" />
  <path
     fill-rule="evenodd"
     clip-rule="evenodd"
     d="m 16.165101,16.10192 c 0,-0.16922 0.13475,-0.30612 0.30108,-0.30612 0.16618,0 0.30091,0.1369 0.30091,0.30612 0,0.16873 -0.13473,0.30582 -0.30091,0.30582 -0.16633,0 -0.30108,-0.13709 -0.30108,-0.30582 z m 4.31746,0.024 -0.12679,0.12883 c -9.7e-4,9.7e-4 -0.002,9.7e-4 -0.003,0.002 -0.23097,0.23511 -0.60258,0.23767 -0.83842,0.0103 l -0.77553,-0.78941 c -0.11741,-0.11941 -0.11741,-0.31328 0,-0.43272 0.11741,-0.11944 0.308,-0.11944 0.4254,0 l 0.65533,0.6662 c 4.1e-4,9.9e-4 9.7e-4,0 10e-4,9.9e-4 0.0586,0.0597 0.15387,0.0597 0.21246,0 0.002,-0.002 0.003,-4e-4 0.005,-9.9e-4 l 0.0183,-0.0187 c 0.23524,-0.23903 0.23524,-0.62659 0,-0.86592 L 19.52455,14.28555 c -0.23522,-0.23931 -0.61627,-0.23931 -0.85121,0 l -1.0325,1.05036 h -0.85151 -2.580379 -1.65527 c -0.41553,0 -0.75228,0.3429 -0.75228,0.76562 v 5.81624 c 0,0.42273 0.33675,0.76535 0.75228,0.76535 h 5.717469 c 0.41569,0 0.75234,-0.34262 0.75234,-0.76535 v -3.93671 c 0,-0.0843 -0.0673,-0.15292 -0.15034,-0.15292 -0.0415,0 -0.0792,0.0174 -0.10621,0.0449 -4.8e-4,3.9e-4 -3.9e-4,-0.002 -9.7e-4,-0.001 l -1.67212,1.70077 c -0.18121,0.18445 -0.40586,0.2961 -0.64053,0.33826 -0.0444,0.0104 -0.0904,0.0177 -0.13783,0.0177 h -0.0424 c -0.0198,4.2e-4 -0.0402,4.2e-4 -0.0601,0 h -1.10143 c -0.33222,0 -0.601529,-0.27396 -0.601529,-0.61193 v -1.12047 c -3.3e-4,-0.0202 -3.3e-4,-0.041 0,-0.0611 v -0.0432 c 0,-0.0485 0.007,-0.0952 0.0174,-0.14039 0.0416,-0.23856 0.15135,-0.46753 0.33268,-0.65186 l 0.63917,-0.65034 10e-4,0.001 c 0.0543,-0.0555 0.1299,-0.0899 0.21291,-0.0899 0.16635,0 0.30094,0.13706 0.30094,0.30632 0,0.0928 -0.0417,0.17534 -0.10595,0.23135 l -0.62301,0.63378 c -0.1312,0.13322 -0.186301,0.31208 -0.17131,0.48639 -3e-4,0.009 -0.002,0.0175 -0.002,0.026 v 0.45904 c -1.1e-5,0.33793 0.269779,0.6124 0.60201,0.6124 h 0.451239 c 0.009,0 0.017,-0.002 0.0256,-0.002 0.17146,0.0155 0.34719,-0.0411 0.47811,-0.17446 l 1.93253,-1.96591 c 0.10859,-0.10857 0.2579,-0.1532 0.42261,-0.1532 0.3325,0 0.60199,0.27397 0.60199,0.61225 v 4.43865 c 0,0.67638 -0.53882,1.22482 -1.20357,1.22482 H 12.40384 C 11.73896,23.29601 11.2,22.74757 11.2,22.07119 v -6.12233 c 0,-0.67637 0.53896,-1.22434 1.20384,-1.22434 h 4.98766 l 0.85663,-0.87147 C 18.48312,13.6139 18.79118,13.5 19.09927,13.5 c 0.30808,0 0.61617,0.1139 0.85126,0.35305 l 0.53207,0.54126 c 0.23534,0.23942 0.34738,0.55729 0.34706,0.87109 -3.2e-4,0.31298 -0.11235,0.62188 -0.34706,0.86076 z"
     id="path2-1"
     style="fill:#ffffff;fill-opacity:1;stroke-width:0.0189698" />
</svg>
