<?xml version="1.0" encoding="UTF-8" standalone="no"?>
<svg
   viewBox="0 0 32 32"
   version="1.1"
   id="svg12"
   sodipodi:docname="folder-build.svg"
   inkscape:version="1.2.1 (9c6d41e410, 2022-07-14)"
   xmlns:inkscape="http://www.inkscape.org/namespaces/inkscape"
   xmlns:sodipodi="http://sodipodi.sourceforge.net/DTD/sodipodi-0.dtd"
   xmlns:xlink="http://www.w3.org/1999/xlink"
   xmlns="http://www.w3.org/2000/svg"
   xmlns:svg="http://www.w3.org/2000/svg"
   xmlns:rdf="http://www.w3.org/1999/02/22-rdf-syntax-ns#"
   xmlns:cc="http://creativecommons.org/ns#"
   xmlns:dc="http://purl.org/dc/elements/1.1/">
  <metadata
     id="metadata16">
    <rdf:RDF>
      <cc:Work
         rdf:about="">
        <dc:format>image/svg+xml</dc:format>
        <dc:type
           rdf:resource="http://purl.org/dc/dcmitype/StillImage" />
      </cc:Work>
    </rdf:RDF>
  </metadata>
  <sodipodi:namedview
     pagecolor="#ffffff"
     bordercolor="#666666"
     borderopacity="1"
     objecttolerance="10"
     gridtolerance="10"
     guidetolerance="10"
     inkscape:pageopacity="0"
     inkscape:pageshadow="2"
     inkscape:window-width="1920"
     inkscape:window-height="1004"
     id="namedview14"
     showgrid="false"
     inkscape:zoom="8.0362615"
     inkscape:cx="40.317254"
     inkscape:cy="7.5283762"
     inkscape:window-x="0"
     inkscape:window-y="0"
     inkscape:window-maximized="1"
     inkscape:current-layer="svg12"
     inkscape:showpageshadow="2"
     inkscape:pagecheckerboard="0"
     inkscape:deskcolor="#d1d1d1" />
  <defs
     id="defs3051">
    <style
       type="text/css"
       id="current-color-scheme">.ColorScheme-Text { color:#31363b; }
.ColorScheme-Background { color:#eff0f1; }
.ColorScheme-Highlight { color:#3daee9; }
.ColorScheme-ViewText { color:#31363b; }
.ColorScheme-ViewBackground { color:#fcfcfc; }
.ColorScheme-ViewHover { color:#93cee9; }
.ColorScheme-ViewFocus { color:#3daee9; }
.ColorScheme-ButtonText { color:#31363b; }
.ColorScheme-ButtonBackground { color:#eff0f1; }
.ColorScheme-ButtonHover { color:#93cee9; }
.ColorScheme-ButtonFocus { color:#3daee9; }
</style>
    <linearGradient
       inkscape:collect="always"
       xlink:href="#linearGradient1003"
       id="linearGradient4160"
       x1="6.0765505"
       y1="1039.381"
       x2="14.362771"
       y2="1048.6106"
       gradientUnits="userSpaceOnUse"
       gradientTransform="matrix(1.8726562,0,0,1.7335427,1.000026,-1795.3113)" />
    <linearGradient
       inkscape:collect="always"
       id="linearGradient1003">
      <stop
         style="stop-color:#00171e;stop-opacity:1;"
         offset="0"
         id="stop999" />
      <stop
         style="stop-color:#007599;stop-opacity:0;"
         offset="1"
         id="stop1001" />
    </linearGradient>
  </defs>
  <path
     inkscape:connector-curvature="0"
     style="fill:currentColor;fill-opacity:1;stroke-width:1.80176"
     id="rect4180-6-3"
     d="m 1.51724,16 h 28.965305 l 2.15e-4,-9.3 c 0,-1 -1.08621,-1.95 -2.12069,-1.95 L 15.999892,4.733335 14.124905,3 H 3.586195 C 2.551713,3 1.51724,4 1.51724,5 Z"
     sodipodi:nodetypes="ccccccccc"
     class="  ColorScheme-Highlight" />
  <path
     inkscape:connector-curvature="0"
     style="color:#31363b;opacity:0.3;fill:#31363b;fill-opacity:1;fill-rule:evenodd;stroke-width:1.80177"
     id="path4196-3-7"
     d="m 14.12498,3 1.875027,2.75 H 30.14655 c -0.17069,-0.25 -0.69827,-1 -1.93965,-1 L 15.999985,4.73387 Z"
     sodipodi:nodetypes="cccccc"
     class="ColorScheme-Text" />
  <path
     inkscape:connector-curvature="0"
     style="fill:#002938;fill-opacity:1;stroke-width:1.80177"
     d="m 1,11.5 c 0,-5.631006 0,1.476803 0,1.965205 V 27 c 0,1 1.03448,2 2.06897,2 H 28.93103 C 29.96552,29 31,28 31,27 V 10 C 31,9.5 30.48276,9 29.96552,9 H 12.37931 L 9.7931,11 H 1.51724 C 1,11 1,11.5 1,11.5 Z"
     id="rect4113-2-2"
     sodipodi:nodetypes="cccscccccccc" />
  <path
     inkscape:connector-curvature="0"
     style="opacity:0.3;fill:#0f608a;fill-opacity:1;fill-rule:evenodd;stroke-width:0.900877"
     id="path4224-9-7"
     d="m 1.51724,11 v 0 H 2.55172 9.7931 L 12.37931,9 V 9 L 9.48276,10.5 H 2.043841 C 1.51724,10.5 1.51724,11 1.51724,11 Z"
     sodipodi:nodetypes="ccccccccc" />
  <path
     style="color:#000000;clip-rule:nonzero;display:inline;overflow:visible;visibility:visible;opacity:0.2;isolation:auto;mix-blend-mode:normal;color-interpolation:sRGB;color-interpolation-filters:linearRGB;solid-color:#000000;solid-opacity:1;fill:#000000;fill-opacity:1;fill-rule:nonzero;stroke:none;stroke-width:1.80177;stroke-linecap:butt;stroke-linejoin:miter;stroke-miterlimit:4;stroke-dasharray:none;stroke-dashoffset:0;stroke-opacity:1;marker:none;color-rendering:auto;image-rendering:auto;shape-rendering:auto;text-rendering:auto;enable-background:accumulate"
     d="M 1,25.556455 V 27 c 0,1 1.03448,2 2.06897,2 H 28.93103 C 29.96552,29 31,28 31,27 l -0.0045,-1.412885 c -0.0124,0.893715 -0.973816,1.69662 -1.912896,1.679265 H 2.883815 C 1.95033,27.26638 1.0003,26.43211 1.0003,25.556455 Z"
     id="path9304-0"
     inkscape:connector-curvature="0"
     sodipodi:nodetypes="cssccccscc" />
  <path
     style="fill:url(#linearGradient4160);fill-opacity:1;fill-rule:evenodd;stroke:none;stroke-width:1.80177px;stroke-linecap:butt;stroke-linejoin:miter;stroke-opacity:1"
     d="M 1,13.5 15.98124,27.26986 H 30.96249 L 31,13.5 Z"
     id="path4152-9"
     inkscape:connector-curvature="0"
     sodipodi:nodetypes="ccccc" />
  <path
     style="color:#232629;fill:#ffffff;fill-opacity:1;stroke:none;stroke-width:0.435738"
     d="m 19.41199,13.5 -0.13531,0.462121 c -0.27713,-0.0231 -0.55632,0.007 -0.82212,0.0894 l -0.23063,-0.422119 -0.7651,0.41787 0.23064,0.42212 c -0.21308,0.17952 -0.38927,0.397639 -0.52,0.64339 l -0.46041,-0.134461 -0.24511,0.835731 0.46212,0.13531 c -0.0231,0.27713 0.007,0.557169 0.0885,0.822969 l -0.42212,0.23064 0.41786,0.76509 0.42213,-0.23148 c 0.17952,0.213071 0.39849,0.39012 0.64424,0.52084 l -0.13531,0.46042 0.83658,0.2451 0.13532,-0.46212 c 0.27713,0.0231 0.55631,-0.007 0.82211,-0.0894 l 0.23149,0.42212 0.76424,-0.417869 -0.23063,-0.422121 c 0.21307,-0.17952 0.38927,-0.39764 0.51999,-0.64339 l 0.46042,0.13447 0.2451,-0.835739 -0.46212,-0.135311 c 0.0231,-0.277129 -0.007,-0.557169 -0.0885,-0.82297 l 0.42212,-0.230639 -0.41786,-0.76509 -0.42213,0.23148 c -0.17952,-0.21307 -0.39848,-0.39012 -0.64424,-0.52084 l 0.13531,-0.46042 z m -0.43063,0.892751 c 0.0865,-0.006 0.17374,-0.005 0.26042,0.003 0.11557,0.01 0.23086,0.0307 0.34383,0.0638 0.43486,0.127681 0.80327,0.41968 1.02637,0.814461 0.23181,0.409589 0.2882,0.89621 0.15574,1.348069 -0.12767,0.43486 -0.41968,0.80327 -0.81446,1.02636 -0.40959,0.23182 -0.8962,0.28821 -1.34806,0.15575 -0.43487,-0.12768 -0.80412,-0.41968 -1.02722,-0.81446 -0.23181,-0.40959 -0.28821,-0.896199 -0.15574,-1.348069 0.12767,-0.43486 0.41967,-0.80327 0.81445,-1.02636 0.2304,-0.1304 0.48523,-0.20523 0.74467,-0.22213 z m -5.80842,1.27317 -0.86722,0.0851 0.0468,0.47914 c -0.2658,0.0819 -0.51322,0.213759 -0.72935,0.388929 l -0.37276,-0.30552 -0.55318,0.67318 0.37191,0.30552 c -0.13072,0.24619 -0.21207,0.5152 -0.2417,0.79233 l -0.47744,0.0468 0.0851,0.86722 0.47915,-0.0468 c 0.0819,0.2658 0.21376,0.51322 0.38893,0.72935 l -0.30553,0.37275 0.67318,0.553191 0.30553,-0.37191 c 0.24619,0.13072 0.5152,0.21207 0.79233,0.241699 l 0.0468,0.47744 0.86723,-0.0851 -0.0468,-0.47914 c 0.2658,-0.0819 0.51322,-0.213759 0.72935,-0.38893 l 0.37276,0.305531 0.55318,-0.673181 -0.3719,-0.30553 c 0.13072,-0.24619 0.21206,-0.5152 0.24169,-0.79233 l 0.47744,-0.0468 -0.0851,-0.86722 -0.47913,0.0468 c -0.0819,-0.2658 -0.21377,-0.51322 -0.38893,-0.72935 L 14.9908,16.56633 14.31762,16.013151 14.0121,16.38505 c -0.2462,-0.130719 -0.5152,-0.212059 -0.79233,-0.241689 z m -0.0119,0.908929 c 0.33379,0.0321 0.65397,0.16066 0.91999,0.37276 0.3682,0.293691 0.60189,0.72347 0.64765,1.19232 0.0444,0.45143 -0.0891,0.90231 -0.37191,1.257 -0.29369,0.368201 -0.72432,0.6019 -1.19317,0.64765 -0.45143,0.0444 -0.90147,-0.0891 -1.25616,-0.37191 -0.3682,-0.29368 -0.6019,-0.72432 -0.64765,-1.19317 -0.0444,-0.45143 0.0891,-0.90146 0.37191,-1.25615 0.29369,-0.3682 0.72347,-0.6019 1.19233,-0.64765 0.11285,-0.0112 0.22575,-0.0115 0.33701,-8.69e-4 z m 3.75484,1.73529 v 0.4817 c -0.27277,0.0558 -0.532,0.16321 -0.76425,0.31659 l -0.34042,-0.34042 -0.61616,0.61616 0.34042,0.340421 c -0.15381,0.232249 -0.26208,0.49147 -0.31829,0.764239 h -0.47999 v 0.87148 h 0.48169 c 0.0558,0.27277 0.16321,0.532 0.31659,0.764241 l -0.34042,0.340419 0.61616,0.61616 0.34042,-0.34042 c 0.23225,0.153821 0.49148,0.26209 0.76425,0.3183 V 23.539 h 0.87147 v -0.4817 c 0.27278,-0.0558 0.532,-0.16321 0.76425,-0.31659 l 0.34042,0.34042 0.61616,-0.61616 -0.34042,-0.34042 c 0.15382,-0.23224 0.26208,-0.49147 0.31829,-0.76424 h 0.48 v -0.87148 h -0.4817 c -0.0558,-0.272769 -0.16321,-0.53199 -0.31659,-0.764239 l 0.34042,-0.340421 -0.61616,-0.61616 -0.34042,0.34042 c -0.23225,-0.153819 -0.49147,-0.26209 -0.76425,-0.3183 v -0.47999 z m 0.43574,0.871481 c 0.4536,0 0.88895,0.176849 1.21445,0.49276 0.33769,0.328109 0.5285,0.779159 0.5285,1.25019 0,0.453599 -0.17685,0.888949 -0.49276,1.214449 -0.32811,0.3377 -0.77916,0.528501 -1.25019,0.528501 -0.45361,0 -0.88896,-0.176851 -1.21445,-0.49276 -0.3377,-0.328111 -0.52851,-0.779161 -0.52851,-1.25019 0,-0.453601 0.17685,-0.888951 0.49276,-1.214451 0.32811,-0.3377 0.77916,-0.528499 1.2502,-0.528499 z"
     class="ColorScheme-Text"
     id="path1935-0" />
</svg>
