<?xml version="1.0" encoding="UTF-8" standalone="no"?>
<svg
   width="32"
   height="32"
   version="1.1"
   id="svg34"
   sodipodi:docname="gtk-dialog-authentication.svg"
   inkscape:version="1.2.1 (9c6d41e410, 2022-07-14)"
   xmlns:inkscape="http://www.inkscape.org/namespaces/inkscape"
   xmlns:sodipodi="http://sodipodi.sourceforge.net/DTD/sodipodi-0.dtd"
   xmlns:xlink="http://www.w3.org/1999/xlink"
   xmlns="http://www.w3.org/2000/svg"
   xmlns:svg="http://www.w3.org/2000/svg">
  <sodipodi:namedview
     id="namedview36"
     pagecolor="#ffffff"
     bordercolor="#666666"
     borderopacity="1.0"
     inkscape:showpageshadow="2"
     inkscape:pageopacity="0.0"
     inkscape:pagecheckerboard="0"
     inkscape:deskcolor="#d1d1d1"
     showgrid="false"
     inkscape:zoom="7.375"
     inkscape:cx="16.474576"
     inkscape:cy="-5.3559322"
     inkscape:window-width="1920"
     inkscape:window-height="1002"
     inkscape:window-x="0"
     inkscape:window-y="0"
     inkscape:window-maximized="1"
     inkscape:current-layer="svg34" />
  <defs
     id="defs20">
    <linearGradient
       id="c"
       x1="16"
       x2="16"
       y1="1"
       y2="31"
       gradientUnits="userSpaceOnUse">
      <stop
         stop-color="#d4d4d4"
         offset="0"
         id="stop2" />
      <stop
         stop-color="#f1f1f1"
         offset="1"
         id="stop4" />
    </linearGradient>
    <linearGradient
       id="b"
       x1="16"
       x2="16"
       y1="5"
       y2="27"
       gradientUnits="userSpaceOnUse">
      <stop
         stop-color="#b3b3b3"
         offset="0"
         id="stop7" />
      <stop
         stop-color="#d3d3d3"
         offset="1"
         id="stop9" />
    </linearGradient>
    <radialGradient
       id="a"
       cx="16.25"
       cy="16.5"
       r="2.75"
       gradientTransform="matrix(1 0 0 2 0 -16.5)"
       gradientUnits="userSpaceOnUse">
      <stop
         stop-color="#4d4d4d"
         offset="0"
         id="stop12" />
      <stop
         stop-color="#262626"
         offset="1"
         id="stop14" />
    </radialGradient>
    <filter
       id="d"
       x="-0.036000001"
       y="-0.036000001"
       width="1.072"
       height="1.072"
       color-interpolation-filters="sRGB">
      <feGaussianBlur
         stdDeviation="0.45000001"
         id="feGaussianBlur17" />
    </filter>
    <linearGradient
       inkscape:collect="always"
       xlink:href="#linearGradient22063-0"
       id="linearGradient22065-6"
       x1="-22"
       y1="5.1111121"
       x2="-6.4444442"
       y2="-9.1111107"
       gradientUnits="userSpaceOnUse"
       gradientTransform="matrix(1.8750001,0,0,1.8750001,42.250004,19.75)" />
    <linearGradient
       inkscape:collect="always"
       id="linearGradient22063-0">
      <stop
         style="stop-color:#88c0d0;stop-opacity:1;"
         offset="0"
         id="stop22059-6" />
      <stop
         style="stop-color:#5e81ac;stop-opacity:1;"
         offset="1"
         id="stop22061-2" />
    </linearGradient>
    <linearGradient
       id="linearGradient10050">
      <stop
         style="stop-color:#a3be8c;stop-opacity:1;"
         offset="0"
         id="stop10046" />
      <stop
         style="stop-color:#739755;stop-opacity:1;"
         offset="1"
         id="stop10048" />
    </linearGradient>
    <linearGradient
       id="linearGradient4154">
      <stop
         offset="0"
         style="stop-color:#000000;stop-opacity:1"
         id="stop7390" />
      <stop
         offset="1"
         style="stop-color:#000000;stop-opacity:0"
         id="stop7392" />
    </linearGradient>
    <linearGradient
       id="linearGradient4192">
      <stop
         style="stop-color:#272b2d;stop-opacity:1"
         offset="0"
         id="stop7395" />
      <stop
         style="stop-color:#33393e;stop-opacity:1"
         offset="1"
         id="stop7397" />
    </linearGradient>
  </defs>
  <path
     d="M 1,4.75 C 1,2.678875 2.678934,1 4.750001,1 h 22.500001 c 2.071124,0 3.75,1.678875 3.75,3.75 v 22.5 c 0,2.071124 -1.678876,3.75 -3.75,3.75 H 4.750001 C 2.678934,31 1,29.321124 1,27.25 Z"
     id="path736-7"
     style="fill:#606c86;fill-opacity:1;stroke-width:1.875" />
  <path
     d="M 1,4.515625 C 1,2.574063 2.678934,1 4.750001,1 h 22.500001 c 2.071124,0 3.75,1.574063 3.75,3.515625 v 21.093749 c 0,1.941566 -1.678876,3.515626 -3.75,3.515626 H 4.750001 C 2.678934,29.125 1,27.55094 1,25.609374 Z"
     id="path738-9"
     style="fill:url(#linearGradient22065-6);fill-opacity:1;stroke-width:1.875" />
  <path
     d="m 16.000001,26.5 c -6.075,0 -11,-4.925 -11,-11 0,-6.075 4.925,-11 11,-11 6.075,0 11,4.925 11,11 0,6.075 -4.925,11 -11,11 z"
     id="path26-3"
     style="fill:#cccccc;fill-opacity:1" />
  <path
     d="m 16.250001,10.5 a 2.75,2.75 0 0 0 -2.75,2.75 c 0,1.14 0.683,2.112 1.67,2.53 l -1.67,5.72 h 5.5 l -1.67,-5.72 a 2.735,2.735 0 0 0 1.67,-2.53 2.75,2.75 0 0 0 -2.75,-2.75 z"
     overflow="visible"
     stroke-width="1.091"
     id="path28-6"
     style="fill:#7da35c;fill-opacity:1" />
  <path
     d="m 16.000001,10.195 a 2.83,2.83 0 0 0 -2.83,2.83 c 0,1.172 0.703,2.172 1.72,2.601 l -1.72,5.886 h 5.66 l -1.718,-5.886 a 2.814,2.814 0 0 0 1.717,-2.602 2.83,2.83 0 0 0 -2.829,-2.829 z"
     fill="none"
     overflow="visible"
     stroke-width="1.06"
     id="path32-7" />
</svg>
