<?xml version="1.0" encoding="UTF-8" standalone="no"?>
<svg
   viewBox="0 0 64 64"
   version="1.1"
   id="svg12"
   sodipodi:docname="folder-Pop_OS.svg"
   inkscape:version="1.2.1 (9c6d41e410, 2022-07-14)"
   xmlns:inkscape="http://www.inkscape.org/namespaces/inkscape"
   xmlns:sodipodi="http://sodipodi.sourceforge.net/DTD/sodipodi-0.dtd"
   xmlns:xlink="http://www.w3.org/1999/xlink"
   xmlns="http://www.w3.org/2000/svg"
   xmlns:svg="http://www.w3.org/2000/svg"
   xmlns:rdf="http://www.w3.org/1999/02/22-rdf-syntax-ns#"
   xmlns:cc="http://creativecommons.org/ns#"
   xmlns:dc="http://purl.org/dc/elements/1.1/">
  <metadata
     id="metadata16">
    <rdf:RDF>
      <cc:Work
         rdf:about="">
        <dc:format>image/svg+xml</dc:format>
        <dc:type
           rdf:resource="http://purl.org/dc/dcmitype/StillImage" />
      </cc:Work>
    </rdf:RDF>
  </metadata>
  <sodipodi:namedview
     pagecolor="#ffffff"
     bordercolor="#666666"
     borderopacity="1"
     objecttolerance="10"
     gridtolerance="10"
     guidetolerance="10"
     inkscape:pageopacity="0"
     inkscape:pageshadow="2"
     inkscape:window-width="1920"
     inkscape:window-height="1000"
     id="namedview14"
     showgrid="false"
     inkscape:zoom="4.501343"
     inkscape:cx="8.6640809"
     inkscape:cy="19.660799"
     inkscape:window-x="0"
     inkscape:window-y="0"
     inkscape:window-maximized="1"
     inkscape:current-layer="svg12"
     inkscape:document-rotation="0"
     inkscape:showpageshadow="2"
     inkscape:pagecheckerboard="0"
     inkscape:deskcolor="#d1d1d1" />
  <defs
     id="defs3051">
    <style
       type="text/css"
       id="current-color-scheme">.ColorScheme-Text { color:#31363b; }
.ColorScheme-Background { color:#eff0f1; }
.ColorScheme-Highlight { color:#3daee9; }
.ColorScheme-ViewText { color:#31363b; }
.ColorScheme-ViewBackground { color:#fcfcfc; }
.ColorScheme-ViewHover { color:#93cee9; }
.ColorScheme-ViewFocus { color:#3daee9; }
.ColorScheme-ButtonText { color:#31363b; }
.ColorScheme-ButtonBackground { color:#eff0f1; }
.ColorScheme-ButtonHover { color:#93cee9; }
.ColorScheme-ButtonFocus { color:#3daee9; }
</style>
    <linearGradient
       inkscape:collect="always"
       xlink:href="#linearGradient1003"
       id="linearGradient4160"
       x1="6.0765505"
       y1="1039.381"
       x2="14.362771"
       y2="1048.6106"
       gradientUnits="userSpaceOnUse"
       gradientTransform="matrix(3.6204685,0,0,3.4670854,3.00004,-3590.6226)" />
    <linearGradient
       inkscape:collect="always"
       id="linearGradient1003">
      <stop
         style="stop-color:#00171e;stop-opacity:1;"
         offset="0"
         id="stop999" />
      <stop
         style="stop-color:#007599;stop-opacity:0;"
         offset="1"
         id="stop1001" />
    </linearGradient>
  </defs>
  <path
     inkscape:connector-curvature="0"
     style="fill:currentColor;fill-opacity:1;stroke-width:3.54293"
     id="rect4180-6-3"
     d="M 4,32 H 59.999586 L 60,13.4 c 0,-2 -2.1,-3.9 -4.1,-3.9 L 31.999784,9.46667 28.37481,6 H 7.99997 C 5.999985,6 4,8 4,10 Z"
     sodipodi:nodetypes="ccccccccc"
     class="  ColorScheme-Highlight" />
  <path
     inkscape:connector-curvature="0"
     style="color:#31363b;opacity:0.3;fill:#31363b;fill-opacity:1;fill-rule:evenodd;stroke-width:3.54294"
     id="path4196-3-7"
     d="m 28.37496,6 3.625055,5.5 H 59.35 C 59.02,11 58,9.5 55.6,9.5 L 31.99997,9.46774 Z"
     sodipodi:nodetypes="cccccc"
     class="ColorScheme-Text" />
  <path
     inkscape:connector-curvature="0"
     style="fill:#002938;fill-opacity:1;stroke-width:3.54294"
     d="m 3,23 c 0,-11.262012 0,2.953607 0,3.93041 V 54 c 0,2 2,4 4,4 h 50 c 2,0 4,-2 4,-4 V 20 c 0,-1 -1,-2 -2,-2 H 25 l -5,4 H 4 c -1,0 -1,1 -1,1 z"
     id="rect4113-2-2"
     sodipodi:nodetypes="cccscccccccc" />
  <path
     inkscape:connector-curvature="0"
     style="opacity:0.3;fill:#0f608a;fill-opacity:1;fill-rule:evenodd;stroke-width:1.77147"
     id="path4224-9-7"
     d="m 4,22 v 0 h 2 14 l 5,-4 v 0 l -5.6,3 H 5.018103 C 4,21 4,22 4,22 Z"
     sodipodi:nodetypes="ccccccccc" />
  <path
     style="color:#000000;clip-rule:nonzero;display:inline;overflow:visible;visibility:visible;opacity:0.2;isolation:auto;mix-blend-mode:normal;color-interpolation:sRGB;color-interpolation-filters:linearRGB;solid-color:#000000;solid-opacity:1;fill:#000000;fill-opacity:1;fill-rule:nonzero;stroke:none;stroke-width:3.54294;stroke-linecap:butt;stroke-linejoin:miter;stroke-miterlimit:4;stroke-dasharray:none;stroke-dashoffset:0;stroke-opacity:1;marker:none;color-rendering:auto;image-rendering:auto;shape-rendering:auto;text-rendering:auto;enable-background:accumulate"
     d="M 3,51.11291 V 54 c 0,2 2,4 4,4 h 50 c 2,0 4,-2 4,-4 l -0.0088,-2.82577 c -0.024,1.78743 -1.88271,3.39324 -3.69826,3.35853 H 6.64205 c -1.80475,0 -3.64147,-1.66854 -3.64147,-3.41985 z"
     id="path9304-0"
     inkscape:connector-curvature="0"
     sodipodi:nodetypes="cssccccscc" />
  <path
     style="fill:url(#linearGradient4160);fill-opacity:1;fill-rule:evenodd;stroke:none;stroke-width:3.54294px;stroke-linecap:butt;stroke-linejoin:miter;stroke-opacity:1"
     d="M 3,27 31.96374,54.53972 H 60.92748 L 61,27 Z"
     id="path4152-9"
     inkscape:connector-curvature="0"
     sodipodi:nodetypes="ccccc" />
  <path
     style="fill:#ffffff;fill-opacity:1;stroke-width:0.0240037"
     id="path2-3-5"
     d="m 41.997547,36.63219 c -0.04503,0.191666 -0.142486,0.361502 -0.30872,0.468257 -0.26122,0.167404 -0.57943,0.11891 -0.805032,-0.08494 -0.211348,-0.189246 -0.28259,-0.509516 -0.216108,-0.786106 0.06879,-0.288725 0.28735,-0.54348 0.567564,-0.623536 0.624556,-0.177117 0.883426,0.51678 0.762296,1.026296 z m -0.38233,-1.970111 c -0.38709,-0.157705 -0.2541,-2.232127 0.09971,-4.750568 0.09971,-0.703606 0.270723,-1.036007 0.463081,-1.205842 0.27547,-0.2402 0.776546,-0.249902 1.116131,-0.198951 0.38946,0.0582 0.762292,0.242618 1.044895,0.521633 0.249354,0.247476 0.277837,0.499814 0.192355,0.827347 -0.140108,0.521654 -0.379965,1.021457 -0.610315,1.509123 -0.0546,0.118911 -0.531944,1.043285 -0.596064,1.157312 -1.15175,2.072009 -1.3821,2.273392 -1.709831,2.139946 z" />
  <path
     style="fill:#ffffff;fill-opacity:1;stroke-width:0.0240037"
     id="path4-3-4"
     d="m 33.802284,33.727979 c 0.22797,0.994766 0.204213,2.086558 0.01006,2.872665 -0.182859,0.742434 -0.679175,1.407212 -1.467598,1.630425 -0.691051,0.196523 -1.496096,0.05334 -1.990044,-0.431866 -0.812163,-0.795812 -1.287108,-2.664009 -1.07576,-4.020274 0.170982,-1.089375 0.745668,-2.484465 2.006666,-2.545117 0.08072,-0.005 0.161477,-0.0017 0.242227,0.005 1.284739,0.118904 1.985298,1.225249 2.275012,2.48932 z m -2.322519,2.263676 c 0.0713,0.01217 0.14248,0.01217 0.21374,-0.01024 0.239841,-0.07033 0.37758,-0.325121 0.44171,-0.572594 0.09738,-0.37607 0.0832,-0.781249 -0.0427,-1.150038 -0.06416,-0.186819 -0.15912,-0.368789 -0.303986,-0.504658 -0.510555,-0.477966 -1.021142,0.01938 -1.108995,0.584723 -0.06887,0.441579 0.0308,0.953514 0.301593,1.310171 0.125848,0.164983 0.30634,0.30813 0.498693,0.342101 z" />
  <path
     style="fill:#ffffff;fill-opacity:1;stroke-width:0.0240037"
     id="path6-6-7"
     d="m 36.583119,35.83638 c -0.002,1.836666 0.178097,3.241449 -0.612693,3.40887 -0.641181,0.133409 -0.619809,-0.441583 -0.66968,-0.924409 -0.189972,-1.870631 -0.363339,-4.978637 -0.43696,-6.858969 0.05224,-0.807929 0.581828,-1.302894 1.13276,-1.424196 0.85017,-0.186822 1.757328,-0.133427 2.510124,0.342098 1.488967,0.941379 1.607705,2.66885 0.705294,4.078497 -0.493947,0.769118 -1.987668,1.327158 -2.628845,1.278633 z m 0.189972,-4.11733 c -0.09263,0.01462 -0.244605,0.05822 -0.287346,0.150434 -0.102101,0.215929 -0.095,1.586764 0.0832,2.161775 0.02857,0.09463 0.09265,0.184394 0.18524,0.218373 0.337204,0.126127 0.64118,-0.296009 0.778919,-0.55077 0.192351,-0.354228 0.254095,-0.771535 0.13295,-1.159742 -0.114017,-0.361505 -0.467819,-0.885565 -0.892905,-0.82007 z" />
  <path
     style="fill:#ffffff;fill-opacity:1;stroke-width:0.0240037"
     id="path8-7-4"
     d="m 28.067244,32.631318 c -0.558059,1.205848 -1.484208,2.164207 -2.76658,2.637321 0.368091,0.982623 0.743302,1.953123 1.109009,2.933328 0.204231,0.528904 0.398971,1.108776 0.220851,1.630426 -0.18524,0.533764 -0.907151,0.681767 -1.43198,0.114008 -1.009251,-1.096663 -4.421791,-8.045406 -4.673512,-8.56704 -0.213726,-0.448855 -0.53432,-0.929244 -0.524826,-1.448461 0.01667,-0.781254 1.199259,-1.572207 1.766826,-1.977384 0.793171,-0.56531 1.709822,-0.951087 2.690591,-0.953516 0.764671,0 1.41774,0.213512 1.997171,0.591999 0.88817,0.582302 1.5056,1.511557 1.73358,2.562113 0.199465,0.924381 0.15673,1.870627 -0.121069,2.477185 m -2.600371,-1.319872 c -0.19947,-0.740006 -0.650671,-1.421772 -1.218241,-1.899746 -0.123518,-0.104305 -0.256479,-0.201368 -0.410839,-0.254743 -1.063891,-0.356658 -0.603178,1.460592 -0.429828,1.919147 0.239858,0.642949 0.603186,1.455732 1.090018,1.940994 0.106885,0.10683 0.23272,0.201364 0.37758,0.230484 0.220859,0.04604 0.42508,-0.111633 0.53669,-0.296009 0.09266,-0.152847 0.128193,-0.33481 0.149613,-0.511918 0.04047,-0.376075 0.0049,-0.759422 -0.095,-1.128209 z" />
  <path
     style="fill:#ffffff;fill-opacity:1;stroke-width:0.0240037"
     id="path10-5-4"
     d="m 40.789637,41.867313 c -0.0049,1.065111 -0.64118,2.13024 -2.044651,2.13024 -1.403481,0 -2.05654,-1.048143 -2.05654,-2.118115 0,-1.334435 0.909521,-2.159348 2.085026,-2.159348 1.363123,0.01216 2.028055,1.045702 2.016165,2.147223 z m -2.016165,-1.475155 c -0.881026,0 -1.374985,0.625977 -1.379736,1.48 0,0.742425 0.406099,1.43877 1.36311,1.43877 0.957031,0 1.322746,-0.754566 1.322746,-1.446049 0.0121,-0.71816 -0.360955,-1.455736 -1.30612,-1.472721 z m 2.605105,3.059485 c 0,0.157703 0.0049,-0.749705 0,-0.887995 h 0.645941 l 0.0452,0.555598 c 0.211345,0.123787 0.53907,0.21594 0.807414,0.21594 0.498696,0 1.018771,-0.128625 1.018771,-0.625976 -0.01667,-0.451268 -0.596065,-0.543476 -1.063891,-0.591986 -0.795546,-0.08256 -1.436738,-0.281459 -1.436738,-1.193717 0,-0.812784 0.900048,-1.217975 1.569719,-1.217975 0.53907,-0.01215 0.9214,0.07513 1.408225,0.473113 0,0.327541 -0.0049,0.521649 -0.0049,0.84919 h -0.624351 l -0.04047,-0.538634 c -0.251722,-0.123777 -0.510571,-0.157694 -0.710055,-0.152851 -0.429821,0.005 -0.888151,0.211098 -0.888151,0.579871 0,0.361516 0.296845,0.460999 0.824039,0.538621 0.859666,0.116539 1.688451,0.315426 1.688451,1.251952 -0.0049,1.023869 -0.945153,1.293187 -1.752565,1.293187 -0.61506,0.0017 -0.999773,-0.114003 -1.486604,-0.548338 z"
     inkscape:connector-curvature="0" />
  <path
     style="fill:#ffffff;stroke-width:0.0240037"
     id="path12-3"
     d="m 35.816916,43.648167 c 0,0.186823 -0.14723,0.33724 -0.330091,0.33724 h -3.816236 c -0.182845,0 -0.330086,-0.150417 -0.330086,-0.33724 v -0.02905 c 0,-0.186817 0.147241,-0.337245 0.330086,-0.337245 h 3.816236 c 0.182861,0 0.330091,0.150428 0.330091,0.337245 z"
     inkscape:connector-curvature="0" />
</svg>
