<?xml version="1.0" encoding="UTF-8" standalone="no"?>
<svg
   viewBox="0 0 64 64"
   version="1.1"
   id="svg12"
   sodipodi:docname="folder-KDE.svg"
   inkscape:version="1.2.1 (9c6d41e410, 2022-07-14)"
   xmlns:inkscape="http://www.inkscape.org/namespaces/inkscape"
   xmlns:sodipodi="http://sodipodi.sourceforge.net/DTD/sodipodi-0.dtd"
   xmlns:xlink="http://www.w3.org/1999/xlink"
   xmlns="http://www.w3.org/2000/svg"
   xmlns:svg="http://www.w3.org/2000/svg"
   xmlns:rdf="http://www.w3.org/1999/02/22-rdf-syntax-ns#"
   xmlns:cc="http://creativecommons.org/ns#"
   xmlns:dc="http://purl.org/dc/elements/1.1/">
  <metadata
     id="metadata16">
    <rdf:RDF>
      <cc:Work
         rdf:about="">
        <dc:format>image/svg+xml</dc:format>
        <dc:type
           rdf:resource="http://purl.org/dc/dcmitype/StillImage" />
      </cc:Work>
    </rdf:RDF>
  </metadata>
  <sodipodi:namedview
     pagecolor="#ffffff"
     bordercolor="#666666"
     borderopacity="1"
     objecttolerance="10"
     gridtolerance="10"
     guidetolerance="10"
     inkscape:pageopacity="0"
     inkscape:pageshadow="2"
     inkscape:window-width="1920"
     inkscape:window-height="1000"
     id="namedview14"
     showgrid="true"
     inkscape:zoom="5.2149125"
     inkscape:cx="-24.92851"
     inkscape:cy="24.832631"
     inkscape:window-x="0"
     inkscape:window-y="0"
     inkscape:window-maximized="1"
     inkscape:current-layer="svg12"
     inkscape:document-rotation="0"
     inkscape:showpageshadow="2"
     inkscape:pagecheckerboard="0"
     inkscape:deskcolor="#d1d1d1">
    <inkscape:grid
       type="xygrid"
       id="grid852" />
  </sodipodi:namedview>
  <defs
     id="defs3051">
    <style
       type="text/css"
       id="current-color-scheme">.ColorScheme-Text { color:#31363b; }
.ColorScheme-Background { color:#eff0f1; }
.ColorScheme-Highlight { color:#3daee9; }
.ColorScheme-ViewText { color:#31363b; }
.ColorScheme-ViewBackground { color:#fcfcfc; }
.ColorScheme-ViewHover { color:#93cee9; }
.ColorScheme-ViewFocus { color:#3daee9; }
.ColorScheme-ButtonText { color:#31363b; }
.ColorScheme-ButtonBackground { color:#eff0f1; }
.ColorScheme-ButtonHover { color:#93cee9; }
.ColorScheme-ButtonFocus { color:#3daee9; }
</style>
    <linearGradient
       inkscape:collect="always"
       xlink:href="#linearGradient1003"
       id="linearGradient4160"
       x1="6.0765505"
       y1="1039.381"
       x2="14.362771"
       y2="1048.6106"
       gradientUnits="userSpaceOnUse"
       gradientTransform="matrix(3.6204685,0,0,3.4670854,3.00004,-3590.6226)" />
    <linearGradient
       inkscape:collect="always"
       id="linearGradient1003">
      <stop
         style="stop-color:#00171e;stop-opacity:1;"
         offset="0"
         id="stop999" />
      <stop
         style="stop-color:#007599;stop-opacity:0;"
         offset="1"
         id="stop1001" />
    </linearGradient>
  </defs>
  <path
     inkscape:connector-curvature="0"
     style="fill:currentColor;fill-opacity:1;stroke-width:3.54293"
     id="rect4180-6-3"
     d="M 4,32 H 59.999586 L 60,13.4 c 0,-2 -2.1,-3.9 -4.1,-3.9 L 31.999784,9.46667 28.37481,6 H 7.99997 C 5.999985,6 4,8 4,10 Z"
     sodipodi:nodetypes="ccccccccc"
     class="  ColorScheme-Highlight" />
  <path
     inkscape:connector-curvature="0"
     style="color:#31363b;opacity:0.3;fill:#31363b;fill-opacity:1;fill-rule:evenodd;stroke-width:3.54294"
     id="path4196-3-7"
     d="m 28.37496,6 3.625055,5.5 H 59.35 C 59.02,11 58,9.5 55.6,9.5 L 31.99997,9.46774 Z"
     sodipodi:nodetypes="cccccc"
     class="ColorScheme-Text" />
  <path
     inkscape:connector-curvature="0"
     style="fill:#002938;fill-opacity:1;stroke-width:3.54294"
     d="m 3,23 c 0,-11.262012 0,2.953607 0,3.93041 V 54 c 0,2 2,4 4,4 h 50 c 2,0 4,-2 4,-4 V 20 c 0,-1 -1,-2 -2,-2 H 25 l -5,4 H 4 c -1,0 -1,1 -1,1 z"
     id="rect4113-2-2"
     sodipodi:nodetypes="cccscccccccc" />
  <path
     inkscape:connector-curvature="0"
     style="opacity:0.3;fill:#0f608a;fill-opacity:1;fill-rule:evenodd;stroke-width:1.77147"
     id="path4224-9-7"
     d="m 4,22 v 0 h 2 14 l 5,-4 v 0 l -5.6,3 H 5.018103 C 4,21 4,22 4,22 Z"
     sodipodi:nodetypes="ccccccccc" />
  <path
     style="color:#000000;clip-rule:nonzero;display:inline;overflow:visible;visibility:visible;opacity:0.2;isolation:auto;mix-blend-mode:normal;color-interpolation:sRGB;color-interpolation-filters:linearRGB;solid-color:#000000;solid-opacity:1;fill:#000000;fill-opacity:1;fill-rule:nonzero;stroke:none;stroke-width:3.54294;stroke-linecap:butt;stroke-linejoin:miter;stroke-miterlimit:4;stroke-dasharray:none;stroke-dashoffset:0;stroke-opacity:1;marker:none;color-rendering:auto;image-rendering:auto;shape-rendering:auto;text-rendering:auto;enable-background:accumulate"
     d="M 3,51.11291 V 54 c 0,2 2,4 4,4 h 50 c 2,0 4,-2 4,-4 l -0.0088,-2.82577 c -0.024,1.78743 -1.88271,3.39324 -3.69826,3.35853 H 6.64205 c -1.80475,0 -3.64147,-1.66854 -3.64147,-3.41985 z"
     id="path9304-0"
     inkscape:connector-curvature="0"
     sodipodi:nodetypes="cssccccscc" />
  <path
     style="fill:url(#linearGradient4160);fill-opacity:1;fill-rule:evenodd;stroke:none;stroke-width:3.54294px;stroke-linecap:butt;stroke-linejoin:miter;stroke-opacity:1"
     d="M 3,27 31.96374,54.53972 H 60.92748 L 61,27 Z"
     id="path4152-9"
     inkscape:connector-curvature="0"
     sodipodi:nodetypes="ccccc" />
  <path
     style="color:#d3dae3;fill:#ffffff;fill-opacity:1"
     d="m 33.999998,27 -4,0.605468 V 42.07422 l 4,-1.074219 v -5.589844 l 4,6.589844 4,-1.5 -5,-6.000001 5.001953,-6.498046 L 38.121092,27 33.999998,33.558594 Z m -8.144532,3.923829 c -0.09459,0 -0.189185,0.03684 -0.261718,0.109375 l -1.572266,1.572265 c -0.145068,0.145067 -0.110144,0.352307 0,0.525391 l 1.626953,2.554687 c -0.120542,0.250222 -0.224923,0.507911 -0.3125,0.771485 -0.0038,0.01134 -0.0099,0.02184 -0.01367,0.0332 l -2.951172,0.65625 C 22.170823,37.190992 22,37.312424 22,37.517579 v 0.982423 0.982422 c 0,0.205155 0.170823,0.326589 0.371093,0.371094 l 2.951172,0.65625 c 0.0065,0.0194 0.01679,0.03731 0.02344,0.05664 0.08525,0.256043 0.186352,0.506528 0.302735,0.75 l -1.626954,2.552736 c -0.110143,0.173083 -0.145067,0.380323 0,0.525389 l 1.572267,1.572267 c 0.145067,0.145067 0.378367,0.145067 0.523438,0 l 2.550781,-1.625 c 0.250759,0.121948 0.509105,0.227636 0.773437,0.316405 0.01735,0.0061 0.03339,0.01554 0.05078,0.02148 l 0.654296,2.949218 c 0,0.205155 0.16594,0.371094 0.371094,0.371094 h 2.220703 c 0.205155,0 0.32659,-0.170825 0.371094,-0.371094 l 0.654297,-3.039062 c 0.300604,-0.113014 0.592418,-0.248149 0.873047,-0.404297 l 2.490234,1.78125 c 0.145068,0.145066 0.378371,0.145066 0.523438,0 l 1.572265,-1.572266 c 0.145068,-0.145068 0.110144,-0.352307 0,-0.52539 l -0.947265,-1.4375 -0.09961,0.03711 c -0.225251,0.08461 -0.478825,-0.0032 -0.603515,-0.208984 l -0.996092,-1.640621 c -0.829936,1.985195 -2.789933,3.380859 -5.076172,3.380859 -3.037566,0 -5.5,-2.462434 -5.5,-5.5 0,-2.330921 1.452799,-4.318351 3.5,-5.119142 v -1.095703 l -0.0078,0.03516 c -0.02208,0.0075 -0.04245,0.01957 -0.06445,0.02734 -0.260825,0.08662 -0.515895,0.189688 -0.763672,0.308593 l -2.54689,-1.623046 c -0.07254,-0.07253 -0.167127,-0.109375 -0.26172,-0.109375 z"
     class="ColorScheme-Text"
     id="path10-7-5" />
</svg>
