<?xml version="1.0" encoding="UTF-8" standalone="no"?>
<svg
   viewBox="0 0 64 64"
   version="1.1"
   id="svg12"
   sodipodi:docname="folder-paint.svg"
   inkscape:version="1.2.1 (9c6d41e410, 2022-07-14)"
   xmlns:inkscape="http://www.inkscape.org/namespaces/inkscape"
   xmlns:sodipodi="http://sodipodi.sourceforge.net/DTD/sodipodi-0.dtd"
   xmlns:xlink="http://www.w3.org/1999/xlink"
   xmlns="http://www.w3.org/2000/svg"
   xmlns:svg="http://www.w3.org/2000/svg"
   xmlns:rdf="http://www.w3.org/1999/02/22-rdf-syntax-ns#"
   xmlns:cc="http://creativecommons.org/ns#"
   xmlns:dc="http://purl.org/dc/elements/1.1/">
  <metadata
     id="metadata16">
    <rdf:RDF>
      <cc:Work
         rdf:about="">
        <dc:format>image/svg+xml</dc:format>
        <dc:type
           rdf:resource="http://purl.org/dc/dcmitype/StillImage" />
      </cc:Work>
    </rdf:RDF>
  </metadata>
  <sodipodi:namedview
     pagecolor="#ffffff"
     bordercolor="#666666"
     borderopacity="1"
     objecttolerance="10"
     gridtolerance="10"
     guidetolerance="10"
     inkscape:pageopacity="0"
     inkscape:pageshadow="2"
     inkscape:window-width="1920"
     inkscape:window-height="1004"
     id="namedview14"
     showgrid="true"
     inkscape:zoom="9.002686"
     inkscape:cx="33.989856"
     inkscape:cy="30.601978"
     inkscape:window-x="0"
     inkscape:window-y="0"
     inkscape:window-maximized="1"
     inkscape:current-layer="svg12"
     inkscape:showpageshadow="2"
     inkscape:pagecheckerboard="0"
     inkscape:deskcolor="#d1d1d1">
    <inkscape:grid
       type="xygrid"
       id="grid953" />
  </sodipodi:namedview>
  <defs
     id="defs3051">
    <linearGradient
       inkscape:collect="always"
       id="linearGradient1003">
      <stop
         style="stop-color:#00171e;stop-opacity:1;"
         offset="0"
         id="stop999" />
      <stop
         style="stop-color:#007599;stop-opacity:0;"
         offset="1"
         id="stop1001" />
    </linearGradient>
    <style
       type="text/css"
       id="current-color-scheme">.ColorScheme-Text { color:#31363b; }
.ColorScheme-Background { color:#eff0f1; }
.ColorScheme-Highlight { color:#3daee9; }
.ColorScheme-ViewText { color:#31363b; }
.ColorScheme-ViewBackground { color:#fcfcfc; }
.ColorScheme-ViewHover { color:#93cee9; }
.ColorScheme-ViewFocus { color:#3daee9; }
.ColorScheme-ButtonText { color:#31363b; }
.ColorScheme-ButtonBackground { color:#eff0f1; }
.ColorScheme-ButtonHover { color:#93cee9; }
.ColorScheme-ButtonFocus { color:#3daee9; }
</style>
    <linearGradient
       inkscape:collect="always"
       xlink:href="#linearGradient1003"
       id="linearGradient4160"
       x1="6.0765505"
       y1="1039.381"
       x2="14.362771"
       y2="1048.6106"
       gradientUnits="userSpaceOnUse"
       gradientTransform="matrix(3.6204685,0,0,3.4670854,3.00004,-3590.6226)" />
  </defs>
  <path
     inkscape:connector-curvature="0"
     style="fill:currentColor;fill-opacity:1;stroke-width:3.54293"
     id="rect4180-6-3"
     d="M 4,32 H 59.999586 L 60,13.4 c 0,-2 -2.1,-3.9 -4.1,-3.9 L 31.999784,9.46667 28.37481,6 H 7.99997 C 5.999985,6 4,8 4,10 Z"
     sodipodi:nodetypes="ccccccccc"
     class="ColorScheme-Highlight " />
  <path
     inkscape:connector-curvature="0"
     style="color:#31363b;opacity:0.3;fill:#31363b;fill-opacity:1;fill-rule:evenodd;stroke-width:3.54294"
     id="path4196-3-7"
     d="m 28.37496,6 3.625055,5.5 H 59.35 C 59.02,11 58,9.5 55.6,9.5 L 31.99997,9.46774 Z"
     sodipodi:nodetypes="cccccc"
     class="ColorScheme-Text" />
  <path
     inkscape:connector-curvature="0"
     style="fill:#002938;fill-opacity:1;stroke-width:3.54294"
     d="m 3,23 c 0,-11.262012 0,2.953607 0,3.93041 V 54 c 0,2 2,4 4,4 h 50 c 2,0 4,-2 4,-4 V 20 c 0,-1 -1,-2 -2,-2 H 25 l -5,4 H 4 c -1,0 -1,1 -1,1 z"
     id="rect4113-2-2"
     sodipodi:nodetypes="cccscccccccc" />
  <path
     inkscape:connector-curvature="0"
     style="opacity:0.3;fill:#0f608a;fill-opacity:1;fill-rule:evenodd;stroke-width:1.77147"
     id="path4224-9-7"
     d="m 4,22 v 0 h 2 14 l 5,-4 v 0 l -5.6,3 H 5.018103 C 4,21 4,22 4,22 Z"
     sodipodi:nodetypes="ccccccccc" />
  <path
     style="color:#000000;clip-rule:nonzero;display:inline;overflow:visible;visibility:visible;opacity:0.2;isolation:auto;mix-blend-mode:normal;color-interpolation:sRGB;color-interpolation-filters:linearRGB;solid-color:#000000;solid-opacity:1;fill:#000000;fill-opacity:1;fill-rule:nonzero;stroke:none;stroke-width:3.54294;stroke-linecap:butt;stroke-linejoin:miter;stroke-miterlimit:4;stroke-dasharray:none;stroke-dashoffset:0;stroke-opacity:1;marker:none;color-rendering:auto;image-rendering:auto;shape-rendering:auto;text-rendering:auto;enable-background:accumulate"
     d="M 3,51.11291 V 54 c 0,2 2,4 4,4 h 50 c 2,0 4,-2 4,-4 l -0.0088,-2.82577 c -0.024,1.78743 -1.88271,3.39324 -3.69826,3.35853 H 6.64205 c -1.80475,0 -3.64147,-1.66854 -3.64147,-3.41985 z"
     id="path9304-0"
     inkscape:connector-curvature="0"
     sodipodi:nodetypes="cssccccscc" />
  <path
     style="opacity:1;fill:url(#linearGradient4160);fill-opacity:1;fill-rule:evenodd;stroke:none;stroke-width:3.54294px;stroke-linecap:butt;stroke-linejoin:miter;stroke-opacity:1"
     d="M 3,27 31.96374,54.53972 H 60.92748 L 61,27 Z"
     id="path4152-9"
     inkscape:connector-curvature="0"
     sodipodi:nodetypes="ccccc" />
  <path
     style="color:#232629;fill:#ffffff;fill-opacity:1;stroke:none;stroke-width:0.790681"
     d="m 43.145388,27 c -1.42325,0.15807 -12.80899,12.09731 -12.80899,12.09731 l -3.63701,4.03246 c -0.47448,0.15817 -1.38226,0.017 -1.89774,0.23722 -1.2651,0.4744 -2.05574,1.01126 -2.68819,2.76735 -0.55352,1.50232 1.02785,4.07998 2.3719,3.63718 -0.63242,0 -1.42316,-0.86977 -1.0279,-1.50226 0.79072,-1.50231 3.91398,-1.17257 3.79526,-4.50687 l 3.95353,-3.71627 c 0,0 12.88798,-12.09735 12.09734,-12.88805 h -0.0798 z m -4.19062,12.09731 c -0.47432,0 -1.26508,0.79076 -2.84644,3.16282 -1.50228,2.53017 -5.4556,4.26964 -5.21843,1.81844 0.0797,-0.63244 -1.42316,-0.39523 -2.84645,-0.39523 0,4.2696 -2.42646,3.1626 -3.87422,4.98118 -0.15822,1.42331 6.4835,2.27479 10.04159,-0.15809 4.26963,-2.92558 5.13939,-6.87894 5.21838,-8.22311 0,-0.7116 -0.15809,-1.18601 -0.47443,-1.18601 z m -5.6138,3.08375 c 0,0.23719 -0.55341,0.0794 -0.7907,0.23719 -0.55334,0.31626 -0.80955,0.78998 -0.63244,1.10697 0.15804,0.31617 0.71151,0.31617 1.26509,0 0.55344,-0.31632 0.80986,-0.79071 0.63243,-1.10697 -0.0791,-0.15812 -0.23718,-0.23719 -0.47438,-0.23719 z"
     class="ColorScheme-Text"
     id="path10248-1" />
</svg>
