<?xml version="1.0" encoding="UTF-8" standalone="no"?>
<!-- Created with Inkscape (http://www.inkscape.org/) -->

<svg
   width="64"
   version="1.1"
   height="64"
   id="svg3434"
   sodipodi:docname="folder-brown.svg"
   inkscape:version="1.2.1 (9c6d41e410, 2022-07-14)"
   xmlns:inkscape="http://www.inkscape.org/namespaces/inkscape"
   xmlns:sodipodi="http://sodipodi.sourceforge.net/DTD/sodipodi-0.dtd"
   xmlns:xlink="http://www.w3.org/1999/xlink"
   xmlns="http://www.w3.org/2000/svg"
   xmlns:svg="http://www.w3.org/2000/svg">
  <style
     id="current-color-scheme"
     type="text/css">.ColorScheme-Highlight {
    color:#3daee9;
}
</style>
  <sodipodi:namedview
     id="namedview3436"
     pagecolor="#ffffff"
     bordercolor="#666666"
     borderopacity="1.0"
     inkscape:showpageshadow="2"
     inkscape:pageopacity="0.0"
     inkscape:pagecheckerboard="0"
     inkscape:deskcolor="#d1d1d1"
     showgrid="false"
     inkscape:zoom="3.6875"
     inkscape:cx="32"
     inkscape:cy="32.135593"
     inkscape:window-width="1920"
     inkscape:window-height="1000"
     inkscape:window-x="0"
     inkscape:window-y="0"
     inkscape:window-maximized="1"
     inkscape:current-layer="layer1" />
  <defs
     id="defs5455">
    <linearGradient
       inkscape:collect="always"
       xlink:href="#linearGradient1003"
       id="linearGradient4160"
       x1="6.0765505"
       y1="1039.381"
       x2="14.362771"
       y2="1048.6106"
       gradientUnits="userSpaceOnUse"
       gradientTransform="matrix(3.6204685,0,0,3.4670854,387.57147,-3106.8246)" />
    <linearGradient
       inkscape:collect="always"
       id="linearGradient1003">
      <stop
         style="stop-color:#8b6039;stop-opacity:1;"
         offset="0"
         id="stop999" />
      <stop
         style="stop-color:#c3966e;stop-opacity:0;"
         offset="1"
         id="stop1001" />
    </linearGradient>
  </defs>
  <metadata
     id="metadata5458" />
  <g
     inkscape:label="Capa 1"
     inkscape:groupmode="layer"
     id="layer1"
     transform="matrix(1 0 0 1 -384.57143 -483.798)">
    <path
       inkscape:connector-curvature="0"
       style="fill:currentColor;fill-opacity:1;stroke-width:3.54293"
       id="rect4180-6-3"
       d="m 388.57143,515.798 h 55.99959 l 4.1e-4,-18.6 c 0,-2 -2.1,-3.9 -4.1,-3.9 l -23.90022,-0.0333 -3.62497,-3.46667 H 392.5714 c -1.99999,0 -3.99997,2 -3.99997,4 z"
       sodipodi:nodetypes="ccccccccc"
       class="ColorScheme-Highlight " />
    <path
       inkscape:connector-curvature="0"
       style="color:#31363b;opacity:0.3;fill:#31363b;fill-opacity:1;fill-rule:evenodd;stroke-width:3.54294"
       id="path4196-3-7"
       d="m 412.94639,489.798 3.62505,5.5 h 27.34999 c -0.33,-0.5 -1.35,-2 -3.75,-2 l -23.60003,-0.0323 z"
       sodipodi:nodetypes="cccccc"
       class="ColorScheme-Text" />
    <path
       inkscape:connector-curvature="0"
       style="fill:#8b6039;fill-opacity:1;stroke-width:3.54294"
       d="m 387.57143,506.798 c 0,-11.26201 0,2.95361 0,3.93041 V 537.798 c 0,2 2,4 4,4 h 50 c 2,0 4,-2 4,-4 v -34 c 0,-1 -1,-2 -2,-2 h -34 l -5,4 h -16 c -1,0 -1,1 -1,1 z"
       id="rect4113-2-2"
       sodipodi:nodetypes="cccscccccccc" />
    <path
       inkscape:connector-curvature="0"
       style="opacity:0.3;fill:#0f608a;fill-opacity:1;fill-rule:evenodd;stroke-width:1.77147"
       id="path4224-9-7"
       d="m 388.57143,505.798 v 0 h 2 14 l 5,-4 v 0 l -5.6,3 h -14.3819 c -1.0181,0 -1.0181,1 -1.0181,1 z"
       sodipodi:nodetypes="ccccccccc" />
    <path
       style="color:#000000;clip-rule:nonzero;display:inline;overflow:visible;visibility:visible;opacity:0.2;isolation:auto;mix-blend-mode:normal;color-interpolation:sRGB;color-interpolation-filters:linearRGB;solid-color:#000000;solid-opacity:1;fill:#000000;fill-opacity:1;fill-rule:nonzero;stroke:none;stroke-width:3.54294;stroke-linecap:butt;stroke-linejoin:miter;stroke-miterlimit:4;stroke-dasharray:none;stroke-dashoffset:0;stroke-opacity:1;marker:none;color-rendering:auto;image-rendering:auto;shape-rendering:auto;text-rendering:auto;enable-background:accumulate"
       d="m 387.57143,534.91091 v 2.88709 c 0,2 2,4 4,4 h 50 c 2,0 4,-2 4,-4 l -0.009,-2.82577 c -0.024,1.78743 -1.88271,3.39324 -3.69826,3.35853 h -50.65089 c -1.80475,0 -3.64147,-1.66854 -3.64147,-3.41985 z"
       id="path9304-0"
       inkscape:connector-curvature="0"
       sodipodi:nodetypes="cssccccscc" />
    <path
       style="fill:url(#linearGradient4160);fill-opacity:1;fill-rule:evenodd;stroke:none;stroke-width:3.54294px;stroke-linecap:butt;stroke-linejoin:miter;stroke-opacity:1"
       d="m 387.57143,510.798 28.96374,27.53972 h 28.96374 l 0.0725,-27.53972 z"
       id="path4152-9"
       inkscape:connector-curvature="0"
       sodipodi:nodetypes="ccccc" />
  </g>
</svg>
