<?xml version="1.0" encoding="UTF-8" standalone="no"?>
<!-- Created with Inkscape (http://www.inkscape.org/) -->

<svg
   width="64"
   height="64"
   viewBox="0 0 64 64.000002"
   id="svg4320"
   version="1.1"
   inkscape:version="1.2.1 (9c6d41e410, 2022-07-14)"
   sodipodi:docname="applications-system.svg"
   xmlns:inkscape="http://www.inkscape.org/namespaces/inkscape"
   xmlns:sodipodi="http://sodipodi.sourceforge.net/DTD/sodipodi-0.dtd"
   xmlns:xlink="http://www.w3.org/1999/xlink"
   xmlns="http://www.w3.org/2000/svg"
   xmlns:svg="http://www.w3.org/2000/svg"
   xmlns:rdf="http://www.w3.org/1999/02/22-rdf-syntax-ns#"
   xmlns:cc="http://creativecommons.org/ns#"
   xmlns:dc="http://purl.org/dc/elements/1.1/">
  <defs
     id="defs4322">
    <linearGradient
       inkscape:collect="always"
       xlink:href="#linearGradient22063-0"
       id="linearGradient22065-6"
       x1="-22"
       y1="5.1111121"
       x2="-6.4444442"
       y2="-9.1111107"
       gradientUnits="userSpaceOnUse"
       gradientTransform="matrix(3.6250002,0,0,3.6250002,82.750002,1059.6122)" />
    <linearGradient
       inkscape:collect="always"
       id="linearGradient22063-0">
      <stop
         style="stop-color:#88c0d0;stop-opacity:1;"
         offset="0"
         id="stop22059-6" />
      <stop
         style="stop-color:#a3be8c;stop-opacity:1;"
         offset="0.24690595"
         id="stop3334" />
      <stop
         style="stop-color:#b48ead;stop-opacity:1;"
         offset="0.74057811"
         id="stop3336" />
      <stop
         style="stop-color:#5e81ac;stop-opacity:1;"
         offset="1"
         id="stop22061-2" />
    </linearGradient>
    <linearGradient
       id="linearGradient1226"
       x1="4.4077001"
       x2="4.4112"
       y1="13.767"
       y2="14.975"
       gradientTransform="matrix(4.6874624,0,0,5.3420895,29.810291,994.86217)"
       gradientUnits="userSpaceOnUse"
       xlink:href="#linearGradient22063-0" />
    <linearGradient
       id="linearGradient1224">
      <stop
         stop-color="#dbc7c5"
         offset="0"
         id="stop318" />
      <stop
         stop-color="#b48ead"
         offset="1"
         id="stop320" />
    </linearGradient>
    <linearGradient
       id="linearGradient1964"
       x1="4.4077001"
       x2="4.4112"
       y1="13.767"
       y2="14.975"
       gradientTransform="matrix(4.6874624,0,0,5.3420895,-7.3955925,994.86217)"
       gradientUnits="userSpaceOnUse"
       xlink:href="#linearGradient22063-0" />
    <linearGradient
       id="linearGradient1944"
       x1="4.4077001"
       x2="4.4112"
       y1="13.767"
       y2="14.975"
       gradientTransform="matrix(4.6874624,0,0,5.3420895,0.04584148,994.86217)"
       gradientUnits="userSpaceOnUse"
       xlink:href="#linearGradient22063-0" />
    <linearGradient
       id="linearGradient1924"
       x1="4.4077001"
       x2="4.4112"
       y1="13.767"
       y2="14.975"
       gradientTransform="matrix(4.6874624,0,0,5.3420895,7.4867195,994.86217)"
       gradientUnits="userSpaceOnUse"
       xlink:href="#linearGradient22063-0" />
    <linearGradient
       id="linearGradient1904"
       x1="4.4077001"
       x2="4.4112"
       y1="13.767"
       y2="14.975"
       gradientTransform="matrix(4.6874624,0,0,5.3420895,14.928066,994.86217)"
       gradientUnits="userSpaceOnUse"
       xlink:href="#linearGradient22063-0" />
    <linearGradient
       id="linearGradient2004"
       x1="4.4077001"
       x2="4.4112"
       y1="13.767"
       y2="14.975"
       gradientTransform="matrix(4.6874624,0,0,5.3420895,22.369413,994.86217)"
       gradientUnits="userSpaceOnUse"
       xlink:href="#linearGradient22063-0" />
    <linearGradient
       id="linearGradient1128"
       x1="7.1494002"
       x2="7.0999999"
       y1="2.1083"
       y2="11.268"
       gradientTransform="matrix(3.779602,0,0,3.779602,0.75898849,1022.5497)"
       gradientUnits="userSpaceOnUse">
      <stop
         stop-color="#4c566a"
         offset="0"
         id="stop337" />
      <stop
         stop-color="#2e3440"
         offset="1"
         id="stop339" />
    </linearGradient>
  </defs>
  <sodipodi:namedview
     id="base"
     pagecolor="#ffffff"
     bordercolor="#666666"
     borderopacity="1.0"
     inkscape:pageopacity="0.0"
     inkscape:pageshadow="2"
     inkscape:zoom="4.64"
     inkscape:cx="-31.788793"
     inkscape:cy="-0.32327586"
     inkscape:document-units="px"
     inkscape:current-layer="layer1"
     showgrid="false"
     units="px"
     inkscape:window-width="1920"
     inkscape:window-height="998"
     inkscape:window-x="0"
     inkscape:window-y="0"
     inkscape:window-maximized="1"
     inkscape:showpageshadow="2"
     inkscape:pagecheckerboard="0"
     inkscape:deskcolor="#d1d1d1" />
  <metadata
     id="metadata4325">
    <rdf:RDF>
      <cc:Work
         rdf:about="">
        <dc:format>image/svg+xml</dc:format>
        <dc:type
           rdf:resource="http://purl.org/dc/dcmitype/StillImage" />
      </cc:Work>
    </rdf:RDF>
  </metadata>
  <g
     inkscape:label="Layer 1"
     inkscape:groupmode="layer"
     id="layer1"
     transform="translate(0,-1020.3622)">
    <path
       d="m 2.9999985,1030.6122 c 0,-4.0042 3.24594,-7.25 7.2500005,-7.25 h 43.500003 c 4.004173,0 7.25,3.2458 7.25,7.25 v 43.5 c 0,4.0042 -3.245827,7.25 -7.25,7.25 H 10.249999 c -4.0040605,0 -7.2500005,-3.2458 -7.2500005,-7.25 z"
       id="path736-7"
       style="fill:#606c86;fill-opacity:1;stroke-width:3.625" />
    <path
       d="m 2.9999985,1030.1591 c 0,-3.7537 3.24594,-6.7969 7.2500005,-6.7969 h 43.500003 c 4.004173,0 7.25,3.0432 7.25,6.7969 v 40.7812 c 0,3.7537 -3.245827,6.7969 -7.25,6.7969 H 10.249999 c -4.0040605,0 -7.2500005,-3.0432 -7.2500005,-6.7969 z"
       id="path738-9"
       style="fill:url(#linearGradient22065-6);fill-opacity:1;stroke-width:3.625"
       sodipodi:nodetypes="sssssssss" />
    <rect
       x="47.986404"
       y="1068.2437"
       width="5.534955"
       height="6.929224"
       ry="0.84319538"
       fill="url(#linearGradient1226)"
       id="rect352"
       style="fill:url(#linearGradient1226);stroke-width:3.14311;stroke-linecap:round;stroke-linejoin:round;fill-opacity:1.0" />
    <rect
       x="10.782"
       y="1068.2437"
       width="5.534955"
       height="6.929224"
       ry="0.84319538"
       fill="url(#linearGradient1964)"
       id="rect354"
       style="fill:url(#linearGradient1964);stroke-width:3.14311;stroke-linecap:round;stroke-linejoin:round;fill-opacity:1.0" />
    <rect
       x="18.223352"
       y="1068.2437"
       width="5.534955"
       height="6.929224"
       ry="0.84319538"
       fill="url(#linearGradient1944)"
       id="rect356"
       style="fill:url(#linearGradient1944);stroke-width:3.14311;stroke-linecap:round;stroke-linejoin:round;fill-opacity:1.0" />
    <rect
       x="25.664698"
       y="1068.2437"
       width="5.534955"
       height="6.929224"
       ry="0.84319538"
       fill="url(#linearGradient1924)"
       id="rect358"
       style="fill:url(#linearGradient1924);stroke-width:3.14311;stroke-linecap:round;stroke-linejoin:round;fill-opacity:1.0" />
    <rect
       x="33.105591"
       y="1068.2437"
       width="5.534955"
       height="6.929224"
       ry="0.84319538"
       fill="url(#linearGradient1904)"
       id="rect360"
       style="fill:url(#linearGradient1904);stroke-width:3.14311;stroke-linecap:round;stroke-linejoin:round;fill-opacity:1.0" />
    <rect
       x="40.547401"
       y="1068.2437"
       width="5.534955"
       height="6.929224"
       ry="0.84319538"
       fill="url(#linearGradient2004)"
       id="rect362"
       style="fill:url(#linearGradient2004);stroke-width:3.14311;stroke-linecap:round;stroke-linejoin:round;fill-opacity:1.0" />
    <path
       d="m 28.65128,1029.4142 h 0.0048 v 0 c 4.21728,0 8.03619,1.7118 10.799457,4.4758 2.758882,2.7601 4.467867,6.5757 4.470891,10.7896 h 0.0022 v 0.022 h -0.0022 c -0.0015,1.6984 -0.280257,3.3329 -0.792809,4.8572 -0.08587,0.2558 -0.175752,0.5015 -0.26805,0.7362 v 0 c -0.441948,1.1187 -1.01316,2.1761 -1.695302,3.1502 l 8.888112,7.9889 0.0057,0.01 0.048,0.045 h 0.0034 c 0.501855,0.4777 0.775083,1.1174 0.80959,1.7665 0.03364,0.6418 -0.165962,1.2983 -0.604849,1.8249 l -0.0033,0.01 -0.05348,0.062 -0.01058,0.011 -0.04464,0.049 -0.0049,0.01 c -0.478308,0.5019 -1.116759,0.7745 -1.76651,0.8087 -0.640907,0.034 -1.297991,-0.1651 -1.824905,-0.6045 h -0.0045 l -0.06233,-0.053 -0.0091,-0.01 -9.091076,-8.1708 c -0.268953,0.1895 -0.543394,0.3695 -0.821232,0.5395 -0.376838,0.2307 -0.767108,0.448 -1.165365,0.6464 -2.04741,1.0213 -4.360905,1.5959 -6.807063,1.5959 v 0 h -0.0048 v 0 c -4.21728,-10e-4 -8.036568,-1.7118 -10.800213,-4.4758 -2.759827,-2.7601 -4.467867,-6.5761 -4.470891,-10.7889 h -0.0021 v -0.015 h 0.0021 c 0.0012,-4.2172 1.71182,-8.0369 4.475805,-10.8002 2.76013,-2.7585 6.575751,-4.4675 10.78963,-4.4705 v 0 z m 0.0048,3.4261 v 0 h -0.01489 v 0 c -3.265954,0 -6.226138,1.3294 -8.369173,3.4716 -2.142769,2.1421 -3.471299,5.1055 -3.472244,8.3756 h 0.0021 v 0.015 h -0.0021 c 0.0021,3.2659 1.328568,6.2246 3.471602,8.3684 2.142127,2.1431 5.105486,3.4717 8.37522,3.4723 v 0 h 0.01489 v 0 c 3.265916,0 6.225004,-1.3289 8.368794,-3.4717 2.14277,-2.1421 3.4713,-5.1047 3.471943,-8.3741 h -0.0018 v -0.015 h 0.0018 c -0.0017,-3.2659 -1.3294,-6.2261 -3.471225,-8.3691 -2.142127,-2.1431 -5.10473,-3.4716 -8.374464,-3.4726 z"
       fill="url(#linearGradient1128)"
       stroke-width="0.305626"
       id="path370"
       style="fill:url(#linearGradient1128)" />
  </g>
</svg>
