<?xml version="1.0" encoding="UTF-8" standalone="no"?>
<svg
   viewBox="0 0 64 64"
   version="1.1"
   id="svg193"
   sodipodi:docname="homerun.svg"
   width="64"
   height="64"
   inkscape:version="1.2.1 (9c6d41e410, 2022-07-14)"
   xmlns:inkscape="http://www.inkscape.org/namespaces/inkscape"
   xmlns:sodipodi="http://sodipodi.sourceforge.net/DTD/sodipodi-0.dtd"
   xmlns:xlink="http://www.w3.org/1999/xlink"
   xmlns="http://www.w3.org/2000/svg"
   xmlns:svg="http://www.w3.org/2000/svg">
  <sodipodi:namedview
     id="namedview195"
     pagecolor="#ffffff"
     bordercolor="#666666"
     borderopacity="1.0"
     inkscape:showpageshadow="2"
     inkscape:pageopacity="0.0"
     inkscape:pagecheckerboard="0"
     inkscape:deskcolor="#d1d1d1"
     showgrid="false"
     inkscape:zoom="5.3636364"
     inkscape:cx="28.898305"
     inkscape:cy="46.983051"
     inkscape:window-width="1920"
     inkscape:window-height="1008"
     inkscape:window-x="0"
     inkscape:window-y="0"
     inkscape:window-maximized="1"
     inkscape:current-layer="svg193">
    <inkscape:grid
       type="xygrid"
       id="grid451" />
  </sodipodi:namedview>
  <defs
     id="defs3051">
    <style
       type="text/css"
       id="current-color-scheme">
      .ColorScheme-Text {
        color:#eff0f1;
      }
      </style>
    <linearGradient
       inkscape:collect="always"
       xlink:href="#linearGradient22063"
       id="linearGradient22065"
       x1="-14"
       y1="6"
       x2="-14"
       y2="-9.999999"
       gradientUnits="userSpaceOnUse"
       gradientTransform="matrix(3.6250002,0,0,3.6250002,82.750004,39.249999)" />
    <linearGradient
       inkscape:collect="always"
       id="linearGradient22063">
      <stop
         style="stop-color:#292f3a;stop-opacity:1;"
         offset="0"
         id="stop22059" />
      <stop
         style="stop-color:#535e75;stop-opacity:1;"
         offset="1"
         id="stop22061" />
    </linearGradient>
  </defs>
  <path
     d="M 3,10.25 C 3,6.245825 6.245938,3 10.249999,3 h 43.500005 c 4.004171,0 7.25,3.245825 7.25,7.25 v 43.5 c 0,4.004173 -3.245829,7.25 -7.25,7.25 H 10.249999 C 6.245938,61 3,57.754173 3,53.75 Z"
     id="path736"
     style="fill:#606c86;fill-opacity:1;stroke-width:3.625" />
  <path
     d="M 3,9.796875 C 3,6.043188 6.245938,3 10.249999,3 h 43.500005 c 4.004171,0 7.25,3.043188 7.25,6.796875 v 40.781249 c 0,3.753693 -3.245829,6.796876 -7.25,6.796876 H 10.249999 C 6.245938,57.375 3,54.331817 3,50.578124 Z"
     id="path738"
     style="fill:url(#linearGradient22065);fill-opacity:1;stroke-width:3.625" />
  <path
     style="color:#eff0f1;fill:currentColor;fill-opacity:1;stroke:none;stroke-width:3"
     d="M 8,7 V 28 H 29 V 7 Z M 35,7 V 28 H 56 V 7 Z M 11,10 H 26 V 25 H 11 Z m 27,0 H 53 V 25 H 38 Z M 8,34 V 55 H 29 V 34 Z m 27,0 v 21 h 3 15 3 V 52 37 34 H 53 38 Z M 11,37 H 26 V 52 H 11 Z m 27,0 H 53 V 52 H 38 Z"
     class="ColorScheme-Text"
     id="path191-3" />
</svg>
