<?xml version="1.0" encoding="UTF-8" standalone="no"?>
<svg
   viewBox="0 0 64 64"
   version="1.1"
   id="svg12"
   sodipodi:docname="folder-notes.svg"
   inkscape:version="1.2.1 (9c6d41e410, 2022-07-14)"
   xmlns:inkscape="http://www.inkscape.org/namespaces/inkscape"
   xmlns:sodipodi="http://sodipodi.sourceforge.net/DTD/sodipodi-0.dtd"
   xmlns:xlink="http://www.w3.org/1999/xlink"
   xmlns="http://www.w3.org/2000/svg"
   xmlns:svg="http://www.w3.org/2000/svg"
   xmlns:rdf="http://www.w3.org/1999/02/22-rdf-syntax-ns#"
   xmlns:cc="http://creativecommons.org/ns#"
   xmlns:dc="http://purl.org/dc/elements/1.1/">
  <metadata
     id="metadata16">
    <rdf:RDF>
      <cc:Work
         rdf:about="">
        <dc:format>image/svg+xml</dc:format>
        <dc:type
           rdf:resource="http://purl.org/dc/dcmitype/StillImage" />
      </cc:Work>
    </rdf:RDF>
  </metadata>
  <sodipodi:namedview
     pagecolor="#ffffff"
     bordercolor="#666666"
     borderopacity="1"
     objecttolerance="10"
     gridtolerance="10"
     guidetolerance="10"
     inkscape:pageopacity="0"
     inkscape:pageshadow="2"
     inkscape:window-width="1920"
     inkscape:window-height="1000"
     id="namedview14"
     showgrid="false"
     inkscape:zoom="5.2149125"
     inkscape:cx="47.555927"
     inkscape:cy="39.214464"
     inkscape:window-x="0"
     inkscape:window-y="0"
     inkscape:window-maximized="1"
     inkscape:current-layer="svg12"
     inkscape:showpageshadow="2"
     inkscape:pagecheckerboard="0"
     inkscape:deskcolor="#d1d1d1">
    <inkscape:grid
       type="xygrid"
       id="grid2873" />
  </sodipodi:namedview>
  <defs
     id="defs3051">
    <style
       type="text/css"
       id="current-color-scheme">.ColorScheme-Text { color:#31363b; }
.ColorScheme-Background { color:#eff0f1; }
.ColorScheme-Highlight { color:#3daee9; }
.ColorScheme-ViewText { color:#31363b; }
.ColorScheme-ViewBackground { color:#fcfcfc; }
.ColorScheme-ViewHover { color:#93cee9; }
.ColorScheme-ViewFocus { color:#3daee9; }
.ColorScheme-ButtonText { color:#31363b; }
.ColorScheme-ButtonBackground { color:#eff0f1; }
.ColorScheme-ButtonHover { color:#93cee9; }
.ColorScheme-ButtonFocus { color:#3daee9; }
</style>
    <linearGradient
       inkscape:collect="always"
       id="linearGradient4393">
      <stop
         style="stop-color:#000000;stop-opacity:1;"
         offset="0"
         id="stop4395" />
      <stop
         style="stop-color:#000000;stop-opacity:0;"
         offset="1"
         id="stop4397" />
    </linearGradient>
    <linearGradient
       inkscape:collect="always"
       xlink:href="#linearGradient4393"
       id="linearGradient668"
       gradientUnits="userSpaceOnUse"
       gradientTransform="matrix(3.6204685,0,0,3.4670854,3.00004,-3590.6227)"
       x1="5"
       y1="1037.3622"
       x2="8"
       y2="1051.3622" />
  </defs>
  <path
     inkscape:connector-curvature="0"
     style="fill:currentColor;fill-opacity:1;stroke-width:3.54293"
     id="rect4180-6-7"
     d="m 4,32 h 55.999586 l 4.1e-4,-18.6 c 0,-2 -2.1,-3.9 -4.1,-3.9 L 31.999786,9.46667 28.374806,6 H 7.99997 C 5.999985,6 4,8 4,10 Z"
     sodipodi:nodetypes="ccccccccc"
     class="ColorScheme-Highlight" />
  <path
     inkscape:connector-curvature="0"
     style="fill:#a1b4ba;fill-opacity:1;stroke-width:3.54294"
     d="m 3,23 c 0,-11.262012 0,2.953607 0,3.93041 V 54 c 0,2 2,4 4,4 h 49.999996 c 2,0 4,-2 4,-4 V 20 c 0,-1 -1,-2 -2,-2 h -34 L 20,22 H 4 c -1,0 -1,1 -1,1 z"
     id="rect4113-2-5"
     sodipodi:nodetypes="cccscccccccc" />
  <path
     inkscape:connector-curvature="0"
     style="opacity:0.3;fill:#0f608a;fill-opacity:1;fill-rule:evenodd;stroke-width:1.77147"
     id="path4224-9-3"
     d="m 4,22 v 0 h 2 14 l 4.999996,-4 v 0 L 19.4,21 H 5.018103 C 4,21 4,22 4,22 Z"
     sodipodi:nodetypes="ccccccccc" />
  <path
     inkscape:connector-curvature="0"
     style="color:#31363b;opacity:0.3;fill:#ffffff;fill-opacity:1;fill-rule:evenodd;stroke-width:3.54294"
     id="path4196-3-5"
     d="m 28.374956,6 3.62506,5.5 h 27.34998 c -0.33,-0.5 -1.35,-2 -3.75,-2 L 31.999966,9.46774 Z"
     sodipodi:nodetypes="cccccc"
     class="ColorScheme-Text" />
  <path
     style="color:#000000;clip-rule:nonzero;display:inline;overflow:visible;visibility:visible;opacity:0.2;isolation:auto;mix-blend-mode:normal;color-interpolation:sRGB;color-interpolation-filters:linearRGB;solid-color:#000000;solid-opacity:1;fill:#000000;fill-opacity:1;fill-rule:nonzero;stroke:none;stroke-width:3.54294;stroke-linecap:butt;stroke-linejoin:miter;stroke-miterlimit:4;stroke-dasharray:none;stroke-dashoffset:0;stroke-opacity:1;marker:none;color-rendering:auto;image-rendering:auto;shape-rendering:auto;text-rendering:auto;enable-background:accumulate"
     d="M 3,51.11291 V 54 c 0,2 2,4 4,4 h 49.999996 c 2,0 4,-2 4,-4 l -0.009,-2.82577 c -0.024,1.78743 -1.88271,3.39324 -3.69826,3.35853 H 6.64205 c -1.80475,0 -3.64147,-1.66854 -3.64147,-3.41985 z"
     id="path9304-6"
     inkscape:connector-curvature="0"
     sodipodi:nodetypes="cssccccscc" />
  <path
     style="opacity:0.181;fill:url(#linearGradient668);fill-opacity:1;fill-rule:evenodd;stroke:none;stroke-width:3.54294px;stroke-linecap:butt;stroke-linejoin:miter;stroke-opacity:1"
     d="m 3,27 28.963736,27.53972 h 28.96374 L 60.999976,27 Z"
     id="path4152-2"
     inkscape:connector-curvature="0"
     sodipodi:nodetypes="ccccc" />
  <path
     fill-rule="evenodd"
     clip-rule="evenodd"
     d="m 32.31108,32.31115 c 0,-0.34548 0.27987,-0.62499 0.62531,-0.62499 0.34515,0 0.62498,0.27951 0.62498,0.62499 0,0.34452 -0.27983,0.62438 -0.62498,0.62438 -0.34544,0 -0.62531,-0.27986 -0.62531,-0.62438 z m 8.96703,0.0491 -0.26334,0.26304 c -0.002,0.002 -0.004,0.002 -0.007,0.005 -0.4797,0.48003 -1.25151,0.48524 -1.74132,0.0212 l -1.61073,-1.61164 c -0.24384,-0.24382 -0.24384,-0.63966 0,-0.88349 0.24385,-0.24382 0.63969,-0.24382 0.88353,0 l 1.36108,1.36017 c 8.5e-4,0.002 0.002,0 0.003,0.002 0.12178,0.12177 0.31957,0.12177 0.44127,0 0.004,-0.004 0.007,-8.5e-4 0.0113,-0.002 l 0.038,-0.038 c 0.48857,-0.48798 0.48857,-1.27928 0,-1.76788 l -1.10443,-1.10443 c -0.48853,-0.48861 -1.27993,-0.48861 -1.7679,0 l -2.14441,2.14448 h -1.76853 -5.35925 -3.43786 c -0.86303,0 -1.56244,0.70009 -1.56244,1.5631 v 11.87473 c 0,0.86304 0.69941,1.56256 1.56244,1.56256 h 11.87475 c 0.86335,0 1.56255,-0.69952 1.56255,-1.56256 v -8.0374 c 0,-0.1721 -0.13977,-0.31218 -0.31225,-0.31218 -0.0861,0 -0.16446,0.0354 -0.2206,0.0916 -9.8e-4,8.2e-4 -8.1e-4,-0.004 -0.002,-0.003 L 34.2411,39.3979 c -0.37635,0.37657 -0.84294,0.60454 -1.33034,0.69058 -0.0922,0.0217 -0.18765,0.036 -0.28625,0.036 h -0.0881 c -0.0411,8.9e-4 -0.0834,8.9e-4 -0.12476,0 h -2.28759 c -0.69,0 -1.24934,-0.55932 -1.24934,-1.24933 v -2.28759 c -6.7e-4,-0.0411 -6.7e-4,-0.0833 0,-0.1245 v -0.0881 c 0,-0.099 0.0139,-0.19449 0.0361,-0.28663 0.0864,-0.48703 0.31435,-0.95455 0.69095,-1.33085 l 1.3275,-1.32777 0.003,0.003 c 0.11271,-0.11355 0.26979,-0.18316 0.4422,-0.18316 0.3455,0 0.62503,0.27982 0.62503,0.62535 0,0.18943 -0.0867,0.35798 -0.22005,0.47237 l -1.29395,1.29395 c -0.27249,0.27194 -0.38693,0.63714 -0.35579,0.99302 -6.2e-4,0.0182 -0.005,0.0355 -0.005,0.0531 v 0.93723 c -2e-5,0.68994 0.56031,1.25025 1.25031,1.25025 h 0.9372 c 0.0182,0 0.0352,-0.004 0.0531,-0.005 0.35611,0.0314 0.7211,-0.0834 0.993,-0.35612 l 4.01372,-4.01374 c 0.22553,-0.22161 0.53564,-0.3128 0.87773,-0.3128 0.69058,0 1.25029,0.55937 1.25029,1.25 v 9.0622 C 39.50006,45.88027 38.38097,47 37.00033,47 H 24.50029 C 23.11938,47 22,45.88027 22,44.49936 V 31.99974 c 0,-1.38095 1.11938,-2.49973 2.50029,-2.49973 H 34.85927 L 36.63842,27.7208 C 37.12649,27.23256 37.76631,27 38.40618,27 c 0.63986,0 1.27975,0.23256 1.76801,0.7208 l 1.10507,1.10508 c 0.48878,0.48877 0.72148,1.1378 0.72081,1.77843 -6.7e-4,0.63899 -0.23335,1.26969 -0.72081,1.75739 z"
     id="path2-1"
     style="fill:#002d3c;fill-opacity:1;stroke-width:0.0390623" />
</svg>
