<?xml version="1.0" encoding="UTF-8" standalone="no"?>
<svg
   viewBox="0 0 64 64"
   version="1.1"
   id="svg12"
   sodipodi:docname="folder-sign.svg"
   inkscape:version="1.2.1 (9c6d41e410, 2022-07-14)"
   xmlns:inkscape="http://www.inkscape.org/namespaces/inkscape"
   xmlns:sodipodi="http://sodipodi.sourceforge.net/DTD/sodipodi-0.dtd"
   xmlns:xlink="http://www.w3.org/1999/xlink"
   xmlns="http://www.w3.org/2000/svg"
   xmlns:svg="http://www.w3.org/2000/svg"
   xmlns:rdf="http://www.w3.org/1999/02/22-rdf-syntax-ns#"
   xmlns:cc="http://creativecommons.org/ns#"
   xmlns:dc="http://purl.org/dc/elements/1.1/">
  <metadata
     id="metadata16">
    <rdf:RDF>
      <cc:Work
         rdf:about="">
        <dc:format>image/svg+xml</dc:format>
        <dc:type
           rdf:resource="http://purl.org/dc/dcmitype/StillImage" />
      </cc:Work>
    </rdf:RDF>
  </metadata>
  <sodipodi:namedview
     pagecolor="#ffffff"
     bordercolor="#666666"
     borderopacity="1"
     objecttolerance="10"
     gridtolerance="10"
     guidetolerance="10"
     inkscape:pageopacity="0"
     inkscape:pageshadow="2"
     inkscape:window-width="1920"
     inkscape:window-height="1004"
     id="namedview14"
     showgrid="false"
     inkscape:zoom="5.2149125"
     inkscape:cx="47.555927"
     inkscape:cy="39.214464"
     inkscape:window-x="0"
     inkscape:window-y="0"
     inkscape:window-maximized="1"
     inkscape:current-layer="svg12"
     inkscape:showpageshadow="2"
     inkscape:pagecheckerboard="0"
     inkscape:deskcolor="#d1d1d1">
    <inkscape:grid
       type="xygrid"
       id="grid2873" />
  </sodipodi:namedview>
  <defs
     id="defs3051">
    <style
       type="text/css"
       id="current-color-scheme">.ColorScheme-Text { color:#31363b; }
.ColorScheme-Background { color:#eff0f1; }
.ColorScheme-Highlight { color:#3daee9; }
.ColorScheme-ViewText { color:#31363b; }
.ColorScheme-ViewBackground { color:#fcfcfc; }
.ColorScheme-ViewHover { color:#93cee9; }
.ColorScheme-ViewFocus { color:#3daee9; }
.ColorScheme-ButtonText { color:#31363b; }
.ColorScheme-ButtonBackground { color:#eff0f1; }
.ColorScheme-ButtonHover { color:#93cee9; }
.ColorScheme-ButtonFocus { color:#3daee9; }
</style>
    <linearGradient
       inkscape:collect="always"
       id="linearGradient4393">
      <stop
         style="stop-color:#000000;stop-opacity:1;"
         offset="0"
         id="stop4395" />
      <stop
         style="stop-color:#000000;stop-opacity:0;"
         offset="1"
         id="stop4397" />
    </linearGradient>
    <linearGradient
       inkscape:collect="always"
       xlink:href="#linearGradient4393"
       id="linearGradient668"
       gradientUnits="userSpaceOnUse"
       gradientTransform="matrix(3.6204685,0,0,3.4670854,3.00004,-3590.6227)"
       x1="5"
       y1="1037.3622"
       x2="8"
       y2="1051.3622" />
  </defs>
  <path
     inkscape:connector-curvature="0"
     style="fill:currentColor;fill-opacity:1;stroke-width:3.54293"
     id="rect4180-6-7"
     d="m 4,32 h 55.999586 l 4.1e-4,-18.6 c 0,-2 -2.1,-3.9 -4.1,-3.9 L 31.999786,9.46667 28.374806,6 H 7.99997 C 5.999985,6 4,8 4,10 Z"
     sodipodi:nodetypes="ccccccccc"
     class="ColorScheme-Highlight" />
  <path
     inkscape:connector-curvature="0"
     style="fill:#a1b4ba;fill-opacity:1;stroke-width:3.54294"
     d="m 3,23 c 0,-11.262012 0,2.953607 0,3.93041 V 54 c 0,2 2,4 4,4 h 49.999996 c 2,0 4,-2 4,-4 V 20 c 0,-1 -1,-2 -2,-2 h -34 L 20,22 H 4 c -1,0 -1,1 -1,1 z"
     id="rect4113-2-5"
     sodipodi:nodetypes="cccscccccccc" />
  <path
     inkscape:connector-curvature="0"
     style="opacity:0.3;fill:#0f608a;fill-opacity:1;fill-rule:evenodd;stroke-width:1.77147"
     id="path4224-9-3"
     d="m 4,22 v 0 h 2 14 l 4.999996,-4 v 0 L 19.4,21 H 5.018103 C 4,21 4,22 4,22 Z"
     sodipodi:nodetypes="ccccccccc" />
  <path
     inkscape:connector-curvature="0"
     style="color:#31363b;opacity:0.3;fill:#ffffff;fill-opacity:1;fill-rule:evenodd;stroke-width:3.54294"
     id="path4196-3-5"
     d="m 28.374956,6 3.62506,5.5 h 27.34998 c -0.33,-0.5 -1.35,-2 -3.75,-2 L 31.999966,9.46774 Z"
     sodipodi:nodetypes="cccccc"
     class="ColorScheme-Text" />
  <path
     style="color:#000000;clip-rule:nonzero;display:inline;overflow:visible;visibility:visible;opacity:0.2;isolation:auto;mix-blend-mode:normal;color-interpolation:sRGB;color-interpolation-filters:linearRGB;solid-color:#000000;solid-opacity:1;fill:#000000;fill-opacity:1;fill-rule:nonzero;stroke:none;stroke-width:3.54294;stroke-linecap:butt;stroke-linejoin:miter;stroke-miterlimit:4;stroke-dasharray:none;stroke-dashoffset:0;stroke-opacity:1;marker:none;color-rendering:auto;image-rendering:auto;shape-rendering:auto;text-rendering:auto;enable-background:accumulate"
     d="M 3,51.11291 V 54 c 0,2 2,4 4,4 h 49.999996 c 2,0 4,-2 4,-4 l -0.009,-2.82577 c -0.024,1.78743 -1.88271,3.39324 -3.69826,3.35853 H 6.64205 c -1.80475,0 -3.64147,-1.66854 -3.64147,-3.41985 z"
     id="path9304-6"
     inkscape:connector-curvature="0"
     sodipodi:nodetypes="cssccccscc" />
  <path
     style="opacity:0.181;fill:url(#linearGradient668);fill-opacity:1;fill-rule:evenodd;stroke:none;stroke-width:3.54294px;stroke-linecap:butt;stroke-linejoin:miter;stroke-opacity:1"
     d="m 3,27 28.963736,27.53972 h 28.96374 L 60.999976,27 Z"
     id="path4152-2"
     inkscape:connector-curvature="0"
     sodipodi:nodetypes="ccccc" />
  <path
     style="color:#232629;fill:#002d3c;fill-opacity:1;stroke:none;stroke-width:0.705819"
     d="m 38.549976,27.00037 c -0.0986,-0.002 -0.19968,0.0266 -0.29495,0.0863 -0.0513,0.0346 -0.27212,0.30039 -0.4894,0.59002 l -0.39573,0.53212 -0.14328,-0.098 c -0.20066,-0.13235 -0.39424,-0.16159 -0.57485,-0.0797 -0.12481,0.0563 -0.41739,0.43388 -2.33665,2.98597 -1.21131,1.60886 -2.19621,2.93784 -2.19324,2.95834 0.003,0.017 0.49414,0.4012 1.08901,0.84785 l 1.08762,0.81746 1.43101,-1.90657 c 0.78754,-1.0488 1.44275,-1.89765 1.45847,-1.8859 0.0512,0.0376 0.14366,0.86155 0.12544,1.12637 -0.01,0.14442 -0.0608,0.40393 -0.11721,0.57619 -0.0996,0.30789 -0.11044,0.32593 -1.88442,2.69647 -0.9812,1.31043 -1.79817,2.4236 -1.8128,2.46757 -0.0414,0.12128 0.007,0.34822 0.0967,0.47836 0.1535,0.21939 0.53311,0.2887 0.74853,0.1323 0.14885,-0.10861 3.66278,-4.83873 3.77448,-5.08542 0.32642,-0.70359 0.39402,-1.60456 0.18748,-2.49109 -0.0809,-0.35181 -0.18821,-0.69006 -0.29223,-0.93046 -0.0311,-0.0648 0.0194,-0.1497 0.3488,-0.59134 0.31051,-0.42166 0.38176,-0.54018 0.38731,-0.64926 0.0125,-0.23241 -0.058,-0.36186 -0.28673,-0.539 l -0.21223,-0.16555 0.42183,-0.56659 c 0.34572,-0.46855 0.42056,-0.59104 0.42597,-0.70028 0.0152,-0.3481 -0.253,-0.60329 -0.54872,-0.60653 z m -7.10639,7.85771 c -0.011,0.002 -1.301,1.71637 -2.87012,3.80612 -2.52387,3.36517 -2.88278,3.86336 -3.11558,4.29141 -0.46234,0.85229 -0.96562,2.15174 -1.29987,3.33881 -0.21675,0.76145 -0.22758,0.69255 0.0748,0.53072 0.93151,-0.50309 2.14824,-1.31977 2.85622,-1.92031 0.69232,-0.58778 0.81018,-0.73729 3.74282,-4.64294 l 2.82051,-3.76059 -1.09596,-0.823 c -0.60276,-0.4526 -1.1021,-0.82175 -1.11249,-0.82022 z m 0.3171,8.70961 c -0.13861,-0.01 -0.28121,-0.005 -0.37368,0.0145 v 0.002 c -0.43824,0.0926 -0.92635,0.47229 -1.16202,0.90984 -0.063,0.11371 -0.16466,0.37115 -0.22749,0.56522 -0.0582,0.1976 -0.11434,0.36251 -0.11862,0.36666 -0.0337,0.0416 -0.87207,0.24343 -1.36473,0.32813 -1.15814,0.20257 -1.47447,0.27805 -1.58811,0.38323 -0.22305,0.2061 -0.0506,0.41368 0.26608,0.32121 0.0835,-0.0262 0.44202,-0.0967 0.78715,-0.15578 0.34583,-0.0586 0.87185,-0.1687 1.17043,-0.23571 0.29927,-0.0718 0.55252,-0.11887 0.56516,-0.10609 0.012,0.0122 -0.0366,0.25252 -0.11715,0.53479 l -0.14339,0.50595 -0.31703,0.13922 c -0.17289,0.0763 -0.42081,0.20607 -0.55142,0.29499 -0.396,0.26116 -0.47245,0.58927 -0.19436,0.79958 0.15173,0.11368 0.57289,0.10947 0.83398,-0.006 0.23151,-0.10519 0.36176,-0.25223 0.54318,-0.63548 0.0968,-0.19832 0.17299,-0.30296 0.23156,-0.31568 0.0472,-0.0129 0.46479,-0.0972 0.9278,-0.19441 0.4637,-0.0926 0.88446,-0.18172 0.9388,-0.19433 0.088,-0.0206 0.0973,-0.0122 0.0721,0.0675 -0.0164,0.051 -0.0935,0.19889 -0.17372,0.32947 -0.0799,0.13059 -0.14337,0.2859 -0.14337,0.34874 0,0.13058 0.11032,0.26135 0.19852,0.22747 0.0339,-0.0121 0.0792,-0.0255 0.1007,-0.0255 0.0206,0 0.11425,-0.0676 0.20671,-0.15162 0.17292,-0.15596 0.59008,-0.9192 0.59008,-1.07943 0,-0.0793 0.0628,-0.10005 0.1006,-0.0365 0.0122,0.0206 0.10855,0.0587 0.21367,0.0834 0.14759,0.0376 0.19027,0.0663 0.19027,0.13375 0,0.13056 0.2154,0.32103 0.4053,0.35843 0.14751,0.0262 0.33711,-0.006 0.53901,-0.088 0.072,-0.0302 0.0763,-0.0206 0.0515,0.088 -0.0164,0.0678 -0.1396,0.28283 -0.27016,0.48114 -0.27807,0.41286 -0.61481,1.06982 -0.70306,1.3606 -0.0718,0.24843 -0.0417,0.4342 0.088,0.52251 0.11784,0.0763 0.31127,0.0402 0.41219,-0.0695 0.0879,-0.0969 0.56928,-1.11132 0.74576,-1.57427 0.12634,-0.32467 0.18489,-0.41337 0.47145,-0.71693 0.23582,-0.24837 0.31274,-0.30756 0.26195,-0.21088 -0.0837,0.18147 -0.08,0.3199 0.0119,0.40394 0.19765,0.18131 0.4842,0.006 0.73338,-0.45081 0.14754,-0.26959 0.25733,-0.34891 0.80506,-0.60659 l 0.28536,-0.13091 -0.0294,0.15573 c -0.0162,0.0837 -0.11419,0.32467 -0.21508,0.53074 -0.1983,0.41712 -0.23509,0.68257 -0.11716,0.90984 0.0795,0.15604 0.16387,0.16109 0.55141,0.0268 0.53926,-0.18136 1.2426,-0.59955 1.42544,-0.83948 0.24839,-0.33743 0.32472,-0.66124 0.17368,-0.77065 -0.15595,-0.11356 -0.24415,-0.0674 -0.44247,0.22332 -0.26548,0.39604 -0.59364,0.70425 -0.90992,0.86026 -0.14749,0.0762 -0.27811,0.1257 -0.29088,0.11306 -0.0162,-0.0165 0.31973,-0.92266 0.50041,-1.34827 0.0376,-0.0879 0.0695,-0.19809 0.0695,-0.24398 0,-0.11789 -0.14799,-0.25223 -0.27432,-0.25223 -0.0586,0 -0.33812,0.11309 -0.61622,0.25637 -0.57734,0.28656 -0.53901,0.31183 -0.39149,-0.22748 0.088,-0.33246 0.0585,-0.42127 -0.14337,-0.44252 -0.19406,-0.0206 -0.26952,0.0421 -0.44658,0.35843 -0.11372,0.21458 -0.26486,0.39206 -0.55563,0.66177 -0.38323,0.35356 -0.40043,0.366 -0.48938,0.30318 -0.1348,-0.0969 -0.21082,-0.0834 -0.53902,0.0802 -0.32045,0.16021 -0.42614,0.18143 -0.50592,0.0837 -0.0678,-0.0798 0.0382,-0.12209 0.62448,-0.23572 0.56885,-0.10944 0.63964,-0.13994 0.63964,-0.25783 0,-0.18986 -0.15618,-0.37001 -0.43427,-0.49214 -0.48065,-0.21451 -0.53406,-0.228 -0.74439,-0.1737 -0.22729,0.0585 -0.56477,0.38331 -0.6107,0.58594 -0.0472,0.21098 -0.19018,0.14739 -0.19018,-0.0838 0,-0.0969 -0.11843,-0.34091 -0.18619,-0.38322 -0.14321,-0.0969 -0.37428,0.11425 -0.55131,0.50179 l -0.13928,0.29911 -0.31152,0.0675 c -0.40446,0.088 -1.57966,0.32393 -1.73569,0.35432 -0.10079,0.0165 -0.11763,0.0101 -0.0967,-0.0515 0.0163,-0.0414 0.0668,-0.22642 0.11714,-0.4163 0.13052,-0.52231 0.16931,-0.5905 0.3584,-0.65757 0.22726,-0.0797 0.99487,-0.40912 1.19244,-0.51004 0.0926,-0.0472 0.28145,-0.18933 0.42049,-0.31568 0.42553,-0.39601 0.49235,-0.76295 0.1888,-1.0325 -0.0837,-0.0718 -0.1939,-0.14702 -0.244,-0.1683 -0.0778,-0.0302 -0.21163,-0.0506 -0.35007,-0.0571 z m -0.42459,0.49214 c 0.0582,-0.005 0.12762,-0.002 0.21503,0.006 0.22305,0.0124 0.31213,0.034 0.37489,0.10059 0.0837,0.0835 0.0835,0.0876 0.0101,0.24815 -0.0513,0.1009 -0.16812,0.21954 -0.31566,0.32118 -0.25688,0.17717 -1.06228,0.50104 -1.08759,0.44244 -0.0336,-0.0969 0.22423,-0.67452 0.3887,-0.8602 0.16411,-0.1863 0.24081,-0.24653 0.41638,-0.25635 z m -2.16304,3.5277 c 0.033,0.003 0.0333,0.0309 0.008,0.0822 -0.056,0.10523 -0.19874,0.18128 -0.27856,0.15158 -0.0926,-0.0376 -0.0675,-0.0875 0.0801,-0.16395 0.0972,-0.0491 0.16085,-0.073 0.19292,-0.0711 z"
     class="ColorScheme-Text"
     id="path14466-5" />
</svg>
