<?xml version="1.0" encoding="UTF-8" standalone="no"?>
<svg
   viewBox="0 0 64 64"
   version="1.1"
   id="svg12"
   sodipodi:docname="folder-comic.svg"
   inkscape:version="1.2.1 (9c6d41e410, 2022-07-14)"
   xmlns:inkscape="http://www.inkscape.org/namespaces/inkscape"
   xmlns:sodipodi="http://sodipodi.sourceforge.net/DTD/sodipodi-0.dtd"
   xmlns:xlink="http://www.w3.org/1999/xlink"
   xmlns="http://www.w3.org/2000/svg"
   xmlns:svg="http://www.w3.org/2000/svg"
   xmlns:rdf="http://www.w3.org/1999/02/22-rdf-syntax-ns#"
   xmlns:cc="http://creativecommons.org/ns#"
   xmlns:dc="http://purl.org/dc/elements/1.1/">
  <metadata
     id="metadata16">
    <rdf:RDF>
      <cc:Work
         rdf:about="">
        <dc:format>image/svg+xml</dc:format>
        <dc:type
           rdf:resource="http://purl.org/dc/dcmitype/StillImage" />
      </cc:Work>
    </rdf:RDF>
  </metadata>
  <sodipodi:namedview
     pagecolor="#ffffff"
     bordercolor="#666666"
     borderopacity="1"
     objecttolerance="10"
     gridtolerance="10"
     guidetolerance="10"
     inkscape:pageopacity="0"
     inkscape:pageshadow="2"
     inkscape:window-width="1920"
     inkscape:window-height="1000"
     id="namedview14"
     showgrid="false"
     inkscape:zoom="5.2149125"
     inkscape:cx="47.555927"
     inkscape:cy="39.214464"
     inkscape:window-x="0"
     inkscape:window-y="0"
     inkscape:window-maximized="1"
     inkscape:current-layer="svg12"
     inkscape:showpageshadow="2"
     inkscape:pagecheckerboard="0"
     inkscape:deskcolor="#d1d1d1">
    <inkscape:grid
       type="xygrid"
       id="grid2873" />
  </sodipodi:namedview>
  <defs
     id="defs3051">
    <style
       type="text/css"
       id="current-color-scheme">.ColorScheme-Text { color:#31363b; }
.ColorScheme-Background { color:#eff0f1; }
.ColorScheme-Highlight { color:#3daee9; }
.ColorScheme-ViewText { color:#31363b; }
.ColorScheme-ViewBackground { color:#fcfcfc; }
.ColorScheme-ViewHover { color:#93cee9; }
.ColorScheme-ViewFocus { color:#3daee9; }
.ColorScheme-ButtonText { color:#31363b; }
.ColorScheme-ButtonBackground { color:#eff0f1; }
.ColorScheme-ButtonHover { color:#93cee9; }
.ColorScheme-ButtonFocus { color:#3daee9; }
</style>
    <linearGradient
       inkscape:collect="always"
       id="linearGradient4393">
      <stop
         style="stop-color:#000000;stop-opacity:1;"
         offset="0"
         id="stop4395" />
      <stop
         style="stop-color:#000000;stop-opacity:0;"
         offset="1"
         id="stop4397" />
    </linearGradient>
    <linearGradient
       inkscape:collect="always"
       xlink:href="#linearGradient4393"
       id="linearGradient668"
       gradientUnits="userSpaceOnUse"
       gradientTransform="matrix(3.6204685,0,0,3.4670854,3.00004,-3590.6227)"
       x1="5"
       y1="1037.3622"
       x2="8"
       y2="1051.3622" />
  </defs>
  <path
     inkscape:connector-curvature="0"
     style="fill:currentColor;fill-opacity:1;stroke-width:3.54293"
     id="rect4180-6-7"
     d="m 4,32 h 55.999586 l 4.1e-4,-18.6 c 0,-2 -2.1,-3.9 -4.1,-3.9 L 31.999786,9.46667 28.374806,6 H 7.99997 C 5.999985,6 4,8 4,10 Z"
     sodipodi:nodetypes="ccccccccc"
     class="ColorScheme-Highlight" />
  <path
     inkscape:connector-curvature="0"
     style="fill:#a1b4ba;fill-opacity:1;stroke-width:3.54294"
     d="m 3,23 c 0,-11.262012 0,2.953607 0,3.93041 V 54 c 0,2 2,4 4,4 h 49.999996 c 2,0 4,-2 4,-4 V 20 c 0,-1 -1,-2 -2,-2 h -34 L 20,22 H 4 c -1,0 -1,1 -1,1 z"
     id="rect4113-2-5"
     sodipodi:nodetypes="cccscccccccc" />
  <path
     inkscape:connector-curvature="0"
     style="opacity:0.3;fill:#0f608a;fill-opacity:1;fill-rule:evenodd;stroke-width:1.77147"
     id="path4224-9-3"
     d="m 4,22 v 0 h 2 14 l 4.999996,-4 v 0 L 19.4,21 H 5.018103 C 4,21 4,22 4,22 Z"
     sodipodi:nodetypes="ccccccccc" />
  <path
     inkscape:connector-curvature="0"
     style="color:#31363b;opacity:0.3;fill:#ffffff;fill-opacity:1;fill-rule:evenodd;stroke-width:3.54294"
     id="path4196-3-5"
     d="m 28.374956,6 3.62506,5.5 h 27.34998 c -0.33,-0.5 -1.35,-2 -3.75,-2 L 31.999966,9.46774 Z"
     sodipodi:nodetypes="cccccc"
     class="ColorScheme-Text" />
  <path
     style="color:#000000;clip-rule:nonzero;display:inline;overflow:visible;visibility:visible;opacity:0.2;isolation:auto;mix-blend-mode:normal;color-interpolation:sRGB;color-interpolation-filters:linearRGB;solid-color:#000000;solid-opacity:1;fill:#000000;fill-opacity:1;fill-rule:nonzero;stroke:none;stroke-width:3.54294;stroke-linecap:butt;stroke-linejoin:miter;stroke-miterlimit:4;stroke-dasharray:none;stroke-dashoffset:0;stroke-opacity:1;marker:none;color-rendering:auto;image-rendering:auto;shape-rendering:auto;text-rendering:auto;enable-background:accumulate"
     d="M 3,51.11291 V 54 c 0,2 2,4 4,4 h 49.999996 c 2,0 4,-2 4,-4 l -0.009,-2.82577 c -0.024,1.78743 -1.88271,3.39324 -3.69826,3.35853 H 6.64205 c -1.80475,0 -3.64147,-1.66854 -3.64147,-3.41985 z"
     id="path9304-6"
     inkscape:connector-curvature="0"
     sodipodi:nodetypes="cssccccscc" />
  <path
     style="opacity:0.181;fill:url(#linearGradient668);fill-opacity:1;fill-rule:evenodd;stroke:none;stroke-width:3.54294px;stroke-linecap:butt;stroke-linejoin:miter;stroke-opacity:1"
     d="m 3,27 28.963736,27.53972 h 28.96374 L 60.999976,27 Z"
     id="path4152-2"
     inkscape:connector-curvature="0"
     sodipodi:nodetypes="ccccc" />
  <path
     fill-rule="evenodd"
     clip-rule="evenodd"
     d="m 41.2148,38.42866 c -0.39444,0 -0.7146,0.31983 -0.7146,0.71355 v 0.35753 c 0,0.98629 -0.79976,1.78575 -1.7854,1.78575 -0.39027,0 -0.75083,-0.12497 -1.04451,-0.33737 -6.5e-4,0 0,0 -6.5e-4,0 l -1.69926,-1.27403 c -0.0199,-0.0156 -0.036,-0.0269 -0.0556,-0.0423 -0.68638,-0.52111 -1.12894,-1.3462 -1.12894,-2.27504 v -1.42786 c 0,-0.9863 -0.79942,-1.78637 -1.78571,-1.78637 h -9.28531 c -0.98633,0 -1.78639,0.80007 -1.78639,1.78637 v 4.99993 c 0,0.78194 0.50607,1.43879 1.20679,1.68111 0.0277,0.0657 0.0974,0.10439 0.22202,0.10439 0.5289,0 1.42888,0.7991 1.42888,1.78538 v 0.71459 c 0,0.19677 0.15975,0.35684 0.35676,0.35684 0.0761,0 0.14544,-0.0233 0.20363,-0.0635 0.001,0 0,6.5e-4 0,6.5e-4 l 3.00383,-2.25261 c 0.44849,-0.33972 1.00761,-0.54101 1.61445,-0.54101 h 2.67819 c 0.3945,0 0.71437,0.31949 0.71437,0.71425 0,0.39375 -0.31987,0.71359 -0.71437,0.71359 h -2.50013 c -0.40838,0 -0.78556,0.13712 -1.08567,0.36909 l -2.86884,2.15152 h -6e-4 c -0.29402,0.21205 -0.65472,0.33687 -1.04482,0.33687 -0.98633,0 -1.78563,-0.79908 -1.78563,-1.78536 v -0.35787 c 0,-0.39364 -0.31963,-0.71425 -0.71431,-0.71425 -0.0789,0 -0.0959,-0.0458 -0.0754,-0.11374 C 21.37417,43.68631 20.5,42.58949 20.5,41.28583 v -5.71419 c 0,-1.5782 1.27875,-2.85684 2.85674,-2.85684 h 10.00012 c 1.5778,0 2.85743,1.27868 2.85743,2.85684 v 1.78525 c 0,0.46844 0.22503,0.88417 0.57277,1.14474 l 1.7232,1.29248 c 9.7e-4,0 -6.7e-4,-6.7e-4 0,-6.7e-4 0.0581,0.0401 0.12836,0.0631 0.20401,0.0631 0.19711,0 0.35685,-0.15967 0.35685,-0.35673 v -0.71425 c 0,-0.98633 0.89979,-1.78572 1.42857,-1.78572 0.68879,0 1.42816,-0.79904 1.42816,-1.78533 v -4.99995 c 0,-0.98665 -0.79897,-1.7857 -1.78538,-1.7857 h -9.28579 c -0.98634,0 -1.78548,0.79905 -1.78548,1.7857 v 0.35684 c 0,0.39443 -0.31964,0.71428 -0.71454,0.71428 -0.3946,0 -0.71427,-0.31985 -0.71427,-0.71428 V 29.8567 C 27.64239,28.27886 28.92192,27 30.49992,27 h 9.99977 c 1.57816,0 2.85709,1.27886 2.85709,2.8567 v 5.71461 c 0,1.57784 -1.13037,2.8574 -2.14252,2.8574 z m -5.71458,2.85683 c 0.3941,0 0.71462,0.31982 0.71462,0.71425 0,0.39474 -0.32052,0.71458 -0.71462,0.71458 -0.39438,0 -0.71428,-0.31984 -0.71428,-0.71458 0,-0.39443 0.3199,-0.71425 0.71428,-0.71425 z"
     id="path1947-1"
     style="fill:#002d3c;fill-opacity:1;stroke-width:0.0446418" />
</svg>
