<?xml version="1.0" encoding="UTF-8" standalone="no"?>
<svg
   height="64"
   width="64"
   version="1.1"
   id="svg27"
   sodipodi:docname="folder-games.svg"
   inkscape:version="1.2.1 (9c6d41e410, 2022-07-14)"
   xmlns:inkscape="http://www.inkscape.org/namespaces/inkscape"
   xmlns:sodipodi="http://sodipodi.sourceforge.net/DTD/sodipodi-0.dtd"
   xmlns:xlink="http://www.w3.org/1999/xlink"
   xmlns="http://www.w3.org/2000/svg"
   xmlns:svg="http://www.w3.org/2000/svg"
   xmlns:rdf="http://www.w3.org/1999/02/22-rdf-syntax-ns#"
   xmlns:cc="http://creativecommons.org/ns#"
   xmlns:dc="http://purl.org/dc/elements/1.1/">
  <style
     type="text/css"
     id="current-color-scheme">.ColorScheme-Text { color:#31363b; }
.ColorScheme-Background { color:#eff0f1; }
.ColorScheme-Highlight { color:#3daee9; }
.ColorScheme-ViewText { color:#31363b; }
.ColorScheme-ViewBackground { color:#fcfcfc; }
.ColorScheme-ViewHover { color:#93cee9; }
.ColorScheme-ViewFocus { color:#3daee9; }
.ColorScheme-ButtonText { color:#31363b; }
.ColorScheme-ButtonBackground { color:#eff0f1; }
.ColorScheme-ButtonHover { color:#93cee9; }
.ColorScheme-ButtonFocus { color:#3daee9; }
</style>
  <metadata
     id="metadata33">
    <rdf:RDF>
      <cc:Work
         rdf:about="">
        <dc:format>image/svg+xml</dc:format>
        <dc:type
           rdf:resource="http://purl.org/dc/dcmitype/StillImage" />
      </cc:Work>
    </rdf:RDF>
  </metadata>
  <defs
     id="defs31">
    <linearGradient
       inkscape:collect="always"
       xlink:href="#linearGradient4393"
       id="linearGradient4160"
       x1="5"
       y1="1037.3622"
       x2="8"
       y2="1051.3622"
       gradientUnits="userSpaceOnUse"
       gradientTransform="matrix(3.6204685,0,0,3.4670854,3.00004,-3590.6226)" />
    <linearGradient
       inkscape:collect="always"
       id="linearGradient4393">
      <stop
         style="stop-color:#000000;stop-opacity:1;"
         offset="0"
         id="stop4395" />
      <stop
         style="stop-color:#000000;stop-opacity:0;"
         offset="1"
         id="stop4397" />
    </linearGradient>
  </defs>
  <sodipodi:namedview
     pagecolor="#ffffff"
     bordercolor="#666666"
     borderopacity="1"
     objecttolerance="10"
     gridtolerance="10"
     guidetolerance="10"
     inkscape:pageopacity="0"
     inkscape:pageshadow="2"
     inkscape:window-width="1920"
     inkscape:window-height="1000"
     id="namedview29"
     showgrid="true"
     inkscape:zoom="10.429825"
     inkscape:cx="35.187551"
     inkscape:cy="32.742639"
     inkscape:window-x="0"
     inkscape:window-y="0"
     inkscape:window-maximized="1"
     inkscape:current-layer="svg27"
     inkscape:lockguides="true"
     inkscape:showpageshadow="2"
     inkscape:pagecheckerboard="0"
     inkscape:deskcolor="#d1d1d1">
    <inkscape:grid
       type="xygrid"
       id="grid4408" />
  </sodipodi:namedview>
  <linearGradient
     id="a"
     gradientTransform="matrix(1,0,0,0.99967,-482.19812,-481.72369)"
     gradientUnits="userSpaceOnUse"
     x2="0"
     y1="541.798"
     y2="499.784">
    <stop
       offset="0"
       stop-color="#3daee9"
       id="stop2" />
    <stop
       offset="1"
       stop-color="#6cc1ef"
       id="stop4" />
  </linearGradient>
  <path
     inkscape:connector-curvature="0"
     style="fill:currentColor;fill-opacity:1;stroke-width:3.54293"
     id="rect4180-6"
     d="M 4,32 H 59.999586 L 60,13.4 c 0,-2 -2.1,-3.9 -4.1,-3.9 L 31.999784,9.46667 28.37481,6 H 7.99997 C 5.999985,6 4,8 4,10 Z"
     sodipodi:nodetypes="ccccccccc"
     class="ColorScheme-Highlight" />
  <path
     inkscape:connector-curvature="0"
     style="fill:#a1b4ba;fill-opacity:1;stroke-width:3.54294"
     d="m 3,23 c 0,-11.262012 0,2.953607 0,3.93041 V 54 c 0,2 2,4 4,4 h 50 c 2,0 4,-2 4,-4 V 20 c 0,-1 -1,-2 -2,-2 H 25 l -5,4 H 4 c -1,0 -1,1 -1,1 z"
     id="rect4113-2"
     sodipodi:nodetypes="cccscccccccc" />
  <path
     inkscape:connector-curvature="0"
     style="opacity:0.3;fill:#0f608a;fill-opacity:1;fill-rule:evenodd;stroke-width:1.77147"
     id="path4224-9"
     d="m 4,22 v 0 h 2 14 l 5,-4 v 0 l -5.6,3 H 5.018103 C 4,21 4,22 4,22 Z"
     sodipodi:nodetypes="ccccccccc" />
  <path
     inkscape:connector-curvature="0"
     style="color:#31363b;opacity:0.3;fill:#ffffff;fill-opacity:1;fill-rule:evenodd;stroke-width:3.54294"
     id="path4196-3"
     d="m 28.37496,6 3.625055,5.5 H 59.35 C 59.02,11 58,9.5 55.6,9.5 L 31.99997,9.46774 Z"
     sodipodi:nodetypes="cccccc"
     class="ColorScheme-Text" />
  <path
     style="color:#000000;clip-rule:nonzero;display:inline;overflow:visible;visibility:visible;opacity:0.2;isolation:auto;mix-blend-mode:normal;color-interpolation:sRGB;color-interpolation-filters:linearRGB;solid-color:#000000;solid-opacity:1;fill:#000000;fill-opacity:1;fill-rule:nonzero;stroke:none;stroke-width:3.54294;stroke-linecap:butt;stroke-linejoin:miter;stroke-miterlimit:4;stroke-dasharray:none;stroke-dashoffset:0;stroke-opacity:1;marker:none;color-rendering:auto;image-rendering:auto;shape-rendering:auto;text-rendering:auto;enable-background:accumulate"
     d="M 3,51.11291 V 54 c 0,2 2,4 4,4 h 50 c 2,0 4,-2 4,-4 l -0.0088,-2.82577 c -0.024,1.78743 -1.88271,3.39324 -3.69826,3.35853 H 6.64205 c -1.80475,0 -3.64147,-1.66854 -3.64147,-3.41985 z"
     id="path9304"
     inkscape:connector-curvature="0"
     sodipodi:nodetypes="cssccccscc" />
  <path
     style="opacity:0.181;fill:url(#linearGradient4160);fill-opacity:1;fill-rule:evenodd;stroke:none;stroke-width:3.54294px;stroke-linecap:butt;stroke-linejoin:miter;stroke-opacity:1"
     d="M 3,27 31.96374,54.53972 H 60.92748 L 61,27 Z"
     id="path4152"
     inkscape:connector-curvature="0"
     sodipodi:nodetypes="ccccc" />
  <g
     id="g25-2-3"
     transform="translate(0,-3)"
     style="fill:#00303c;fill-opacity:1">
    <path
       d="m 25,30 c -2.21,0 -4,2.685 -4,5.999 v 6.998 c 0,1.78 2.154,2.673 3.414,1.413 l 2.414,-2.413 h 0.676 a 2.5,2.5 0 0 0 1.996,1 2.5,2.5 0 0 0 1.992,-1 h 0.906 a 2.5,2.5 0 0 0 1.997,1 2.5,2.5 0 0 0 1.992,-1 h 0.785 l 2.414,2.413 C 40.846,45.67 43,44.777 43,42.997 V 35.999 C 43,32.685 41.21,30 39,30 Z m 0,1 h 14 c 1.657,0 3,2.238 3,4.999 v 6.998 c 0,0.89 -1.077,1.336 -1.707,0.707 l -2.707,-2.707 h -1.779 a 1.5,1.5 0 0 1 -1.412,1 A 1.5,1.5 0 0 1 33,41.042 v -0.045 h -2.088 a 1.5,1.5 0 0 1 -1.412,1 1.5,1.5 0 0 1 -1.412,-1 h -1.674 l -2.707,2.707 C 23.077,44.334 22,43.888 22,42.997 v -6.998 c 0,-2.76 1.343,-5 3,-5 z"
       id="path21-9-2"
       inkscape:connector-curvature="0"
       style="fill:#00303c;fill-opacity:1" />
    <path
       d="m 25,31.996 v 2 h -2 v 2 h 2 v 2 h 2 v -2 h 2 v -2 h -2 v -2 z m 11,7.5 a 1.5,1.5 0 0 1 -1.5,1.5 1.5,1.5 0 0 1 -1.5,-1.5 1.5,1.5 0 0 1 1.5,-1.5 1.5,1.5 0 0 1 1.5,1.5 z m -5,0 a 1.5,1.5 0 0 1 -1.5,1.5 1.5,1.5 0 0 1 -1.5,-1.5 1.5,1.5 0 0 1 1.5,-1.5 1.5,1.5 0 0 1 1.5,1.5 z m 8,-2.5 a 1,1 0 0 1 -1,1 1,1 0 0 1 -1,-1 1,1 0 0 1 1,-1 1,1 0 0 1 1,1 z m 2,-2 a 1,1 0 0 1 -1,1 1,1 0 0 1 -1,-1 1,1 0 0 1 1,-1 1,1 0 0 1 1,1 z m -2,-2 a 1,1 0 0 1 -1,1 1,1 0 0 1 -1,-1 1,1 0 0 1 1,-1 1,1 0 0 1 1,1 z m -2,2 a 1,1 0 0 1 -1,1 1,1 0 0 1 -1,-1 1,1 0 0 1 1,-1 1,1 0 0 1 1,1 z"
       id="path23-1-0"
       inkscape:connector-curvature="0"
       style="fill:#00303c;fill-opacity:1" />
  </g>
</svg>
