<?xml version="1.0" encoding="UTF-8" standalone="no"?>
<svg
   viewBox="0 0 64 64"
   version="1.1"
   id="svg12"
   sodipodi:docname="folder-Relax.svg"
   inkscape:version="1.2.1 (9c6d41e410, 2022-07-14)"
   xmlns:inkscape="http://www.inkscape.org/namespaces/inkscape"
   xmlns:sodipodi="http://sodipodi.sourceforge.net/DTD/sodipodi-0.dtd"
   xmlns:xlink="http://www.w3.org/1999/xlink"
   xmlns="http://www.w3.org/2000/svg"
   xmlns:svg="http://www.w3.org/2000/svg"
   xmlns:rdf="http://www.w3.org/1999/02/22-rdf-syntax-ns#"
   xmlns:cc="http://creativecommons.org/ns#"
   xmlns:dc="http://purl.org/dc/elements/1.1/">
  <metadata
     id="metadata16">
    <rdf:RDF>
      <cc:Work
         rdf:about="">
        <dc:format>image/svg+xml</dc:format>
        <dc:type
           rdf:resource="http://purl.org/dc/dcmitype/StillImage" />
      </cc:Work>
    </rdf:RDF>
  </metadata>
  <sodipodi:namedview
     pagecolor="#ffffff"
     bordercolor="#666666"
     borderopacity="1"
     objecttolerance="10"
     gridtolerance="10"
     guidetolerance="10"
     inkscape:pageopacity="0"
     inkscape:pageshadow="2"
     inkscape:window-width="1920"
     inkscape:window-height="1000"
     id="namedview14"
     showgrid="true"
     inkscape:zoom="5.2149125"
     inkscape:cx="26.462572"
     inkscape:cy="36.721613"
     inkscape:window-x="0"
     inkscape:window-y="0"
     inkscape:window-maximized="1"
     inkscape:current-layer="svg12"
     inkscape:showpageshadow="2"
     inkscape:pagecheckerboard="0"
     inkscape:deskcolor="#d1d1d1">
    <inkscape:grid
       type="xygrid"
       id="grid2873" />
  </sodipodi:namedview>
  <defs
     id="defs3051">
    <style
       type="text/css"
       id="current-color-scheme">.ColorScheme-Text { color:#31363b; }
.ColorScheme-Background { color:#eff0f1; }
.ColorScheme-Highlight { color:#3daee9; }
.ColorScheme-ViewText { color:#31363b; }
.ColorScheme-ViewBackground { color:#fcfcfc; }
.ColorScheme-ViewHover { color:#93cee9; }
.ColorScheme-ViewFocus { color:#3daee9; }
.ColorScheme-ButtonText { color:#31363b; }
.ColorScheme-ButtonBackground { color:#eff0f1; }
.ColorScheme-ButtonHover { color:#93cee9; }
.ColorScheme-ButtonFocus { color:#3daee9; }
</style>
    <linearGradient
       inkscape:collect="always"
       xlink:href="#linearGradient4393"
       id="linearGradient4160"
       x1="5"
       y1="1037.3622"
       x2="8"
       y2="1051.3622"
       gradientUnits="userSpaceOnUse"
       gradientTransform="matrix(3.6204685,0,0,3.4670854,3.00004,-3590.6226)" />
    <linearGradient
       inkscape:collect="always"
       id="linearGradient4393">
      <stop
         style="stop-color:#000000;stop-opacity:1;"
         offset="0"
         id="stop4395" />
      <stop
         style="stop-color:#000000;stop-opacity:0;"
         offset="1"
         id="stop4397" />
    </linearGradient>
  </defs>
  <path
     inkscape:connector-curvature="0"
     style="fill:currentColor;fill-opacity:1;stroke-width:3.54293"
     id="rect4180-6"
     d="M 4,32 H 59.999586 L 60,13.4 c 0,-2 -2.1,-3.9 -4.1,-3.9 L 31.999784,9.46667 28.37481,6 H 7.9999704 C 5.9999852,6 4,8 4,10 Z"
     sodipodi:nodetypes="ccccccccc"
     class="ColorScheme-Highlight" />
  <path
     inkscape:connector-curvature="0"
     style="fill:#a1b4ba;fill-opacity:1;stroke-width:3.54294"
     d="m 3,23 c 0,-11.262012 0,2.953607 0,3.93041 V 54 c 0,2 2,4 4,4 h 50 c 2,0 4,-2 4,-4 V 20 c 0,-1 -1,-2 -2,-2 H 25 l -5,4 H 4 c -1,0 -1,1 -1,1 z"
     id="rect4113-2"
     sodipodi:nodetypes="cccscccccccc" />
  <path
     inkscape:connector-curvature="0"
     style="opacity:0.3;fill:#0f608a;fill-opacity:1;fill-rule:evenodd;stroke-width:1.77147"
     id="path4224-9"
     d="m 4,22 v 0 h 2 14 l 5,-4 v 0 l -5.6,3 H 5.0181034 C 4,21 4,22 4,22 Z"
     sodipodi:nodetypes="ccccccccc" />
  <path
     inkscape:connector-curvature="0"
     style="color:#31363b;opacity:0.3;fill:#ffffff;fill-opacity:1;fill-rule:evenodd;stroke-width:3.54294"
     id="path4196-3"
     d="m 28.37496,6 3.625055,5.5 H 59.35 C 59.02,11 58,9.5 55.6,9.5 L 31.99997,9.46774 Z"
     sodipodi:nodetypes="cccccc"
     class="ColorScheme-Text" />
  <path
     style="color:#000000;clip-rule:nonzero;display:inline;overflow:visible;visibility:visible;opacity:0.2;isolation:auto;mix-blend-mode:normal;color-interpolation:sRGB;color-interpolation-filters:linearRGB;solid-color:#000000;solid-opacity:1;fill:#000000;fill-opacity:1;fill-rule:nonzero;stroke:none;stroke-width:3.54294;stroke-linecap:butt;stroke-linejoin:miter;stroke-miterlimit:4;stroke-dasharray:none;stroke-dashoffset:0;stroke-opacity:1;marker:none;color-rendering:auto;image-rendering:auto;shape-rendering:auto;text-rendering:auto;enable-background:accumulate"
     d="M 3,51.11291 V 54 c 0,2 2,4 4,4 h 50 c 2,0 4,-2 4,-4 l -0.0088,-2.82577 c -0.024,1.78743 -1.88271,3.39324 -3.69826,3.35853 H 6.64205 c -1.80475,0 -3.64147,-1.66854 -3.64147,-3.41985 z"
     id="path9304"
     inkscape:connector-curvature="0"
     sodipodi:nodetypes="cssccccscc" />
  <path
     style="opacity:0.181;fill:url(#linearGradient4160);fill-opacity:1;fill-rule:evenodd;stroke:none;stroke-width:3.54294px;stroke-linecap:butt;stroke-linejoin:miter;stroke-opacity:1"
     d="M 3,27 31.96374,54.53972 H 60.92748 L 61,27 Z"
     id="path4152"
     inkscape:connector-curvature="0"
     sodipodi:nodetypes="ccccc" />
  <path
     d="m 31.412552,38.702718 -9.244103,7.938792 c -0.202537,0.173999 -0.225686,0.480363 -0.05176,0.682925 l 1.294178,1.506947 c 0.174053,0.202698 0.480512,0.225847 0.682891,0.05206 l 9.244075,-7.938836 c 0.202646,-0.174022 0.225835,-0.480462 0.05188,-0.682963 l -1.294216,-1.507 c -0.173915,-0.202751 -0.480334,-0.22592 -0.682991,-0.05186 z"
     id="path1170-2-1"
     style="fill:#002d3c;fill-opacity:1;stroke-width:0.0434752" />
  <path
     d="m 32.952119,37.380528 -0.733982,0.630362 c -0.159094,0.136616 -0.177333,0.376599 -0.0409,0.535801 l 1.430364,1.665621 c 0.136555,0.158958 0.376556,0.177165 0.535632,0.041 l 0.733968,-0.630358 c 0.159086,-0.136605 0.177329,-0.376596 0.04116,-0.535606 l -1.430434,-1.665523 c -0.136842,-0.15936 -0.376732,-0.177475 -0.53578,-0.04109 z"
     id="path1172-0-4"
     style="fill:#002d3c;fill-opacity:1;stroke-width:0.0434752" />
  <path
     d="m 34.427039,36.113886 -0.733982,0.630321 c -0.159084,0.136617 -0.177303,0.37661 -0.04083,0.535843 l 1.43037,1.665571 c 0.136517,0.158948 0.376491,0.177223 0.535604,0.0409 l 0.733972,-0.630363 c 0.159232,-0.136753 0.177338,-0.37659 0.04118,-0.535614 l -1.430446,-1.665527 c -0.136834,-0.159419 -0.376591,-0.177588 -0.535794,-0.04101 z"
     id="path1174-6-9"
     style="fill:#002d3c;fill-opacity:1;stroke-width:0.0434752" />
  <path
     d="M 35.473932,32.36415 C 33.054242,29.981892 34.4649,28.474506 34.4649,28.474506 c 0,0 -3.414197,2.67309 -0.09893,4.950849 2.882693,1.980904 1.459557,3.623642 1.459557,3.623642 0,2.96e-4 2.669712,-1.711654 -0.351443,-4.684847 z"
     id="path1401-1-2"
     style="fill:#002d3c;fill-opacity:1;stroke-width:0.0927429" />
  <path
     d="m 38.43427,35.57307 c 0,0 2.668798,-1.7113 -0.352451,-4.684379 C 35.662133,28.507319 37.072791,27 37.072791,27 c 0,0 -3.414108,2.673082 -0.09833,4.950799 2.882116,1.979719 1.459888,3.622271 1.459888,3.622271 z"
     id="path1403-5-0"
     style="fill:#002d3c;fill-opacity:1;stroke-width:0.0927429" />
</svg>
