<?xml version="1.0" encoding="UTF-8" standalone="no"?>
<svg
   viewBox="0 0 64 64"
   version="1.1"
   id="svg12"
   sodipodi:docname="folder-deb.svg"
   inkscape:version="1.2.1 (9c6d41e410, 2022-07-14)"
   xmlns:inkscape="http://www.inkscape.org/namespaces/inkscape"
   xmlns:sodipodi="http://sodipodi.sourceforge.net/DTD/sodipodi-0.dtd"
   xmlns:xlink="http://www.w3.org/1999/xlink"
   xmlns="http://www.w3.org/2000/svg"
   xmlns:svg="http://www.w3.org/2000/svg"
   xmlns:rdf="http://www.w3.org/1999/02/22-rdf-syntax-ns#"
   xmlns:cc="http://creativecommons.org/ns#"
   xmlns:dc="http://purl.org/dc/elements/1.1/">
  <metadata
     id="metadata16">
    <rdf:RDF>
      <cc:Work
         rdf:about="">
        <dc:format>image/svg+xml</dc:format>
        <dc:type
           rdf:resource="http://purl.org/dc/dcmitype/StillImage" />
      </cc:Work>
    </rdf:RDF>
  </metadata>
  <sodipodi:namedview
     pagecolor="#ffffff"
     bordercolor="#666666"
     borderopacity="1"
     objecttolerance="10"
     gridtolerance="10"
     guidetolerance="10"
     inkscape:pageopacity="0"
     inkscape:pageshadow="2"
     inkscape:window-width="1920"
     inkscape:window-height="1000"
     id="namedview14"
     showgrid="false"
     inkscape:zoom="5.2149125"
     inkscape:cx="47.555927"
     inkscape:cy="39.214464"
     inkscape:window-x="0"
     inkscape:window-y="0"
     inkscape:window-maximized="1"
     inkscape:current-layer="svg12"
     inkscape:showpageshadow="2"
     inkscape:pagecheckerboard="0"
     inkscape:deskcolor="#d1d1d1">
    <inkscape:grid
       type="xygrid"
       id="grid2873" />
  </sodipodi:namedview>
  <defs
     id="defs3051">
    <style
       type="text/css"
       id="current-color-scheme">.ColorScheme-Text { color:#31363b; }
.ColorScheme-Background { color:#eff0f1; }
.ColorScheme-Highlight { color:#3daee9; }
.ColorScheme-ViewText { color:#31363b; }
.ColorScheme-ViewBackground { color:#fcfcfc; }
.ColorScheme-ViewHover { color:#93cee9; }
.ColorScheme-ViewFocus { color:#3daee9; }
.ColorScheme-ButtonText { color:#31363b; }
.ColorScheme-ButtonBackground { color:#eff0f1; }
.ColorScheme-ButtonHover { color:#93cee9; }
.ColorScheme-ButtonFocus { color:#3daee9; }
</style>
    <linearGradient
       inkscape:collect="always"
       id="linearGradient4393">
      <stop
         style="stop-color:#000000;stop-opacity:1;"
         offset="0"
         id="stop4395" />
      <stop
         style="stop-color:#000000;stop-opacity:0;"
         offset="1"
         id="stop4397" />
    </linearGradient>
    <linearGradient
       inkscape:collect="always"
       xlink:href="#linearGradient4393"
       id="linearGradient668"
       gradientUnits="userSpaceOnUse"
       gradientTransform="matrix(3.6204685,0,0,3.4670854,3.00004,-3590.6227)"
       x1="5"
       y1="1037.3622"
       x2="8"
       y2="1051.3622" />
  </defs>
  <path
     inkscape:connector-curvature="0"
     style="fill:currentColor;fill-opacity:1;stroke-width:3.54293"
     id="rect4180-6-7"
     d="m 4,32 h 55.999586 l 4.1e-4,-18.6 c 0,-2 -2.1,-3.9 -4.1,-3.9 L 31.999786,9.46667 28.374806,6 H 7.99997 C 5.999985,6 4,8 4,10 Z"
     sodipodi:nodetypes="ccccccccc"
     class="ColorScheme-Highlight" />
  <path
     inkscape:connector-curvature="0"
     style="fill:#bf616a;fill-opacity:1;stroke-width:3.54294"
     d="m 3,23 c 0,-11.262012 0,2.953607 0,3.93041 V 54 c 0,2 2,4 4,4 h 49.999996 c 2,0 4,-2 4,-4 V 20 c 0,-1 -1,-2 -2,-2 h -34 L 20,22 H 4 c -1,0 -1,1 -1,1 z"
     id="rect4113-2-5"
     sodipodi:nodetypes="cccscccccccc" />
  <path
     inkscape:connector-curvature="0"
     style="opacity:0.3;fill:#0f608a;fill-opacity:1;fill-rule:evenodd;stroke-width:1.77147"
     id="path4224-9-3"
     d="m 4,22 v 0 h 2 14 l 4.999996,-4 v 0 L 19.4,21 H 5.018103 C 4,21 4,22 4,22 Z"
     sodipodi:nodetypes="ccccccccc" />
  <path
     inkscape:connector-curvature="0"
     style="color:#31363b;opacity:0.3;fill:#ffffff;fill-opacity:1;fill-rule:evenodd;stroke-width:3.54294"
     id="path4196-3-5"
     d="m 28.374956,6 3.62506,5.5 h 27.34998 c -0.33,-0.5 -1.35,-2 -3.75,-2 L 31.999966,9.46774 Z"
     sodipodi:nodetypes="cccccc"
     class="ColorScheme-Text" />
  <path
     style="color:#000000;clip-rule:nonzero;display:inline;overflow:visible;visibility:visible;opacity:0.2;isolation:auto;mix-blend-mode:normal;color-interpolation:sRGB;color-interpolation-filters:linearRGB;solid-color:#000000;solid-opacity:1;fill:#000000;fill-opacity:1;fill-rule:nonzero;stroke:none;stroke-width:3.54294;stroke-linecap:butt;stroke-linejoin:miter;stroke-miterlimit:4;stroke-dasharray:none;stroke-dashoffset:0;stroke-opacity:1;marker:none;color-rendering:auto;image-rendering:auto;shape-rendering:auto;text-rendering:auto;enable-background:accumulate"
     d="M 3,51.11291 V 54 c 0,2 2,4 4,4 h 49.999996 c 2,0 4,-2 4,-4 l -0.009,-2.82577 c -0.024,1.78743 -1.88271,3.39324 -3.69826,3.35853 H 6.64205 c -1.80475,0 -3.64147,-1.66854 -3.64147,-3.41985 z"
     id="path9304-6"
     inkscape:connector-curvature="0"
     sodipodi:nodetypes="cssccccscc" />
  <path
     style="opacity:0.181;fill:url(#linearGradient668);fill-opacity:1;fill-rule:evenodd;stroke:none;stroke-width:3.54294px;stroke-linecap:butt;stroke-linejoin:miter;stroke-opacity:1"
     d="m 3,27 28.963736,27.53972 h 28.96374 L 60.999976,27 Z"
     id="path4152-2"
     inkscape:connector-curvature="0"
     sodipodi:nodetypes="ccccc" />
  <path
     style="color:#232629;fill:#002d3c;fill-opacity:1;stroke:none;stroke-width:0.922759"
     d="m 33.68868,47.20843 c -1.10732,-0.18459 -2.67603,-0.83053 -3.59879,-1.43027 -2.12233,-1.38417 -3.51145,-2.92381 -4.37006,-4.84542 -0.2768,-0.64593 -0.44109,-1.10732 -0.92272,-2.76833 -0.0922,-0.41518 -0.24883,-0.88051 -0.30661,-1.02553 -0.0974,-0.24456 -0.10168,-0.32708 -0.0591,-1.14286 0.0403,-0.73823 0.18457,-1.84553 0.2768,-1.93409 0.0135,-0.0215 0.046,-0.0266 0.0715,-0.0113 0.087,0.0512 0.16698,-0.18656 0.24577,-0.72953 0.0434,-0.29754 0.11107,-0.60948 0.15079,-0.6933 0.0397,-0.084 0.10706,-0.26883 0.1496,-0.4111 0.0979,-0.32745 0.23141,-0.57913 0.64416,-1.21436 0.18153,-0.27936 0.37019,-0.58367 0.41931,-0.67617 0.0575,-0.10893 0.12085,-0.16222 0.17884,-0.15119 0.0556,0.0108 0.14793,-0.0599 0.24444,-0.18732 0.41963,-0.55384 2.39608,-2.18791 2.57898,-2.13217 0.0499,0.015 0.25852,-0.0532 0.4635,-0.1525 0.37074,-0.17918 0.53413,-0.22062 0.53413,-0.1355 0,0.0249 -0.0534,0.0802 -0.11907,0.12389 -0.115,0.0761 -0.11267,0.0775 0.0663,0.0359 0.10191,-0.024 0.27348,-0.0571 0.38132,-0.0748 0.13326,-0.0218 0.18742,-0.0534 0.16903,-0.0996 -0.0158,-0.0403 0.0224,-0.0802 0.0951,-0.099 0.18225,-0.0469 0.46618,-0.039 0.46618,0.0124 0,0.0622 -0.16237,0.12485 -0.29116,0.11259 -0.088,-0.009 -0.0921,-9.3e-4 -0.0266,0.0423 0.0659,0.0434 0.0665,0.0523 0.005,0.0528 -0.0413,4.1e-4 -0.0614,0.0136 -0.0452,0.0299 0.0163,0.0157 0.12697,-0.0183 0.24524,-0.0762 0.11831,-0.0577 0.33497,-0.12997 0.4815,-0.1601 0.18037,-0.0368 0.26638,-0.0801 0.26638,-0.13335 0,-0.0686 0.084,-0.074 0.64841,-0.0451 0.35658,0.0183 0.89477,0.0717 1.19584,0.11917 0.54746,0.0861 0.54751,0.0861 0.75147,-0.0271 0.24473,-0.13513 0.6383,-0.15272 0.74172,-0.0329 0.0376,0.044 0.14197,0.11585 0.23143,0.16025 0.14597,0.0723 0.15563,0.0724 0.0938,8.9e-4 -0.11715,-0.13555 -7.9e-4,-0.13215 0.45159,0.0131 1.45848,0.46875 2.64751,1.3036 3.52973,2.47841 0.20922,0.27863 0.22192,0.40391 0.024,0.23434 l -0.11343,-0.097 0.0868,0.16257 c 0.0478,0.0897 0.0867,0.18992 0.0867,0.22327 0,0.0332 0.14027,0.28026 0.31169,0.54857 0.38635,0.60475 0.49441,0.80845 0.46848,0.88311 -0.011,0.0319 -0.18224,-0.18096 -0.38034,-0.47331 -0.19805,-0.2923 -0.49119,-0.68618 -0.65134,-0.8752 -0.2392,-0.28234 -0.30185,-0.33062 -0.35065,-0.27027 -0.0324,0.0404 -0.11249,0.0807 -0.17736,0.0898 l -0.11796,0.016 0.11667,0.21953 c 0.0644,0.12076 0.12522,0.19502 0.13562,0.16508 0.0557,-0.16034 0.31506,0.0506 0.433,0.35197 0.038,0.0977 0.13991,0.29909 0.22594,0.4474 0.0863,0.14834 0.1456,0.28011 0.13235,0.29279 -0.013,0.0125 -0.0917,-0.0282 -0.17429,-0.0901 l -0.15021,-0.11342 0.10245,0.16879 c 0.0563,0.0927 0.15069,0.20642 0.20966,0.2524 0.0733,0.0571 0.10876,0.14795 0.11202,0.28883 0.007,0.26008 0.16134,0.56735 0.24574,0.48634 0.13153,-0.12623 0.15856,-0.0475 0.12548,0.36599 -0.0247,0.30456 -0.0112,0.50528 0.0465,0.71836 0.088,0.32353 0.0692,0.40332 -0.0594,0.25217 -0.0817,-0.0963 -0.0826,-0.096 -0.046,0.004 0.0782,0.21392 0.137,0.53391 0.12071,0.65952 -0.0305,0.23438 -0.12212,0.13694 -0.15364,-0.16328 l -0.0308,-0.29305 -0.01,0.31181 c -0.005,0.17156 -0.047,0.50301 -0.0932,0.73657 -0.047,0.23594 -0.0707,0.52177 -0.0533,0.64316 0.0319,0.22837 0.01,0.2372 -0.18947,0.0734 -0.0809,-0.0667 -0.095,-0.0529 -0.1505,0.14507 -0.0469,0.16672 -0.0465,0.26162 0.002,0.40126 0.0345,0.10064 0.0546,0.23703 0.045,0.3032 -0.0234,0.1527 -0.15062,0.20026 -0.15062,0.0561 0,-0.18107 -0.0717,-0.11657 -0.29108,0.26141 -0.59231,1.0207 -1.52951,1.8106 -2.5902,2.18322 -0.62537,0.21969 -1.04478,0.30116 -1.74999,0.33989 l -0.63514,0.0347 0.31379,0.0927 c 0.25308,0.0748 0.40164,0.0861 0.76745,0.0575 0.47929,-0.0369 1.04202,-0.13696 1.29717,-0.23004 0.10185,-0.0369 0.17062,-0.0387 0.20582,-0.006 0.0831,0.0795 -0.65415,0.39273 -1.09171,0.46366 -0.74457,0.12075 -1.74117,-0.01 -2.62094,-0.34307 -0.5969,-0.22618 -1.48267,-0.8152 -1.34695,-0.89568 0.0258,-0.015 0.19424,0.0618 0.3745,0.17112 0.23035,0.13982 0.32769,0.17663 0.32769,0.12397 0,-0.0995 0.0339,-0.0948 0.21716,0.0302 0.16528,0.11294 0.67374,0.32272 1.03995,0.42903 0.39916,0.11586 0.24436,-0.0248 -0.29113,-0.26419 -1.69325,-0.75755 -2.39616,-1.51526 -2.74648,-2.96051 -0.12847,-0.52998 0.01,-1.69183 0.24348,-2.05568 0.0593,-0.092 0.10795,-0.20562 0.10795,-0.25199 0,-0.2013 0.3498,-0.73316 0.70869,-1.0776 0.63244,-0.60693 1.28996,-0.85891 2.14352,-0.82139 0.41262,0.018 0.58885,0.0527 0.93225,0.18419 0.38945,0.14885 0.87994,0.46047 0.72973,0.46367 -0.0351,7.7e-4 -0.19016,-0.0491 -0.34406,-0.11055 -0.23398,-0.0935 -0.38397,-0.11229 -0.91496,-0.11427 -0.74566,-0.003 -1.11013,0.0987 -1.64085,0.45707 -0.75232,0.50802 -1.17069,1.09316 -1.31888,1.84466 -0.0994,0.5042 -0.10245,0.64396 -0.0252,1.1441 0.045,0.28824 0.0762,0.37281 0.13234,0.35226 0.0471,-0.017 0.0733,0.009 0.0733,0.07 0,0.17864 0.40501,0.90324 0.68593,1.22715 0.67606,0.7797 1.76968,1.27725 2.80736,1.27725 0.53857,0 0.97392,-0.0992 1.37464,-0.31324 0.16095,-0.0863 0.36407,-0.19103 0.4514,-0.23352 0.30813,-0.14989 0.49929,-0.3211 0.7228,-0.64735 0.12424,-0.18137 0.25935,-0.32976 0.30018,-0.32976 0.0603,0 0.0575,0.0263 -0.0138,0.13972 -0.23622,0.37416 0.31824,-0.3062 0.60532,-0.7428 L 38.9682,36.58751 38.9333,36.2663 c -0.0335,-0.30869 -0.0289,-0.32753 0.12511,-0.48254 0.14823,-0.14929 0.1615,-0.19353 0.17861,-0.59261 0.0151,-0.35717 0.005,-0.43134 -0.0609,-0.43176 -0.0611,-3.4e-4 -0.0874,-0.0944 -0.1136,-0.40682 -0.0347,-0.41347 -0.3856,-1.80479 -0.46727,-1.85323 -0.0248,-0.0145 -0.0928,-0.14842 -0.15201,-0.29729 -0.19895,-0.50249 -0.54793,-0.98568 -1.09199,-1.51205 -0.7829,-0.75736 -1.76905,-1.34216 -2.70062,-1.60151 -0.7924,-0.22061 -2.13792,-0.14054 -3.09633,0.18427 -0.46777,0.1585 -0.92863,0.36835 -1.00641,0.45826 -0.0351,0.0408 -0.0867,0.061 -0.11368,0.0451 -0.029,-0.0167 -0.0208,-0.0627 0.0187,-0.10829 0.17655,-0.20417 -0.40936,0.16948 -0.78653,0.50161 -0.22803,0.20078 -0.42291,0.37117 -0.43307,0.37863 -0.0104,0.008 0.0341,3.8e-4 0.0986,-0.0155 0.1072,-0.027 0.11173,-0.0197 0.0534,0.0848 -0.037,0.0669 -0.23128,0.18694 -0.46913,0.29048 -0.39961,0.17398 -0.65807,0.36517 -0.86344,0.6387 -0.082,0.10923 -0.0868,0.13276 -0.022,0.10885 0.0457,-0.0165 0.0829,-0.007 0.0829,0.0236 0,0.14506 -0.13732,0.30703 -0.34076,0.40187 -0.45074,0.21016 -1.24259,1.3327 -1.66674,2.36292 -0.18901,0.45907 -0.18599,0.44314 -0.0834,0.44314 0.10836,0 0.10082,0.11807 -0.0482,0.75222 -0.21674,0.92384 -0.217,0.89423 0.0189,2.19388 0.28758,1.5835 0.45559,2.11248 0.77504,2.44019 0.0748,0.0766 0.14778,0.24046 0.18025,0.40478 0.0386,0.19621 0.10387,0.32569 0.22569,0.44891 0.1111,0.11235 0.1481,0.18124 0.10543,0.1962 -0.0839,0.0294 0.17838,0.40426 0.41748,0.59733 0.12027,0.097 0.20943,0.12977 0.30594,0.11201 0.21164,-0.0387 0.42712,0.0779 0.75821,0.41162 0.3441,0.3465 0.37858,0.43964 0.15089,0.40759 -0.1469,-0.0207 -0.15024,-0.0166 -0.0777,0.0893 0.0417,0.0609 0.19491,0.20727 0.34078,0.32529 0.20488,0.16579 0.25765,0.2375 0.2319,0.31526 -0.0367,0.11184 0.0687,0.21616 0.30713,0.3037 0.14795,0.0541 0.19566,0.17138 0.0845,0.20702 -0.0335,0.0105 0.17471,0.21663 0.46312,0.45742 0.32495,0.27138 0.54351,0.42012 0.57468,0.39104 0.0824,-0.0764 0.18774,-0.0531 0.18964,0.0421 0.002,0.10402 0.0955,0.21329 0.43158,0.5048 0.21234,0.18418 0.26534,0.20739 0.39551,0.17298 0.11923,-0.0315 0.19421,-0.0113 0.36208,0.0976 0.33491,0.21729 0.538,0.304 0.71193,0.304 0.17107,0 0.19544,0.0473 0.1066,0.20651 -0.0472,0.0846 -0.0367,0.0982 0.0712,0.0982 0.0695,0 0.26436,0.046 0.43358,0.10159 0.38473,0.12703 0.54523,0.13568 0.44884,0.0245 -0.14245,-0.16472 0.009,-0.1197 0.51761,0.15418 0.71119,0.38278 1.07096,0.42646 2.48719,0.30229 0.20964,-0.0182 0.27787,-0.008 0.27787,0.044 0,0.0444 -0.18197,0.11032 -0.51606,0.1879 -0.43923,0.10197 -0.67369,0.1217 -1.57464,0.13251 -0.70998,0.009 -1.19494,-0.0104 -1.47256,-0.0561 z m -0.72405,-7.61466 c 0,-0.0109 -0.0658,-0.0576 -0.14553,-0.10463 l -0.14561,-0.0854 0.125,0.10463 c 0.12193,0.10209 0.16614,0.12467 0.16614,0.0854 z m 7.28746,-5.32349 c -0.0166,-0.0405 -0.0296,-0.0287 -0.0317,0.0308 -0.003,0.0533 0.0104,0.0837 0.028,0.0669 0.0174,-0.0166 0.0194,-0.0607 0.004,-0.0974 z m -12.01135,-5.3273 c 0.066,-0.0805 0.0642,-0.0825 -0.02,-0.0191 -0.051,0.0382 -0.0923,0.0781 -0.0923,0.0891 0,0.0419 0.0437,0.0148 0.11256,-0.0697 z m 0.60195,-0.46986 c 0.0524,-0.0558 0.0841,-0.10159 0.0696,-0.10159 -0.0145,0 -0.0698,0.046 -0.12229,0.10159 -0.0524,0.0558 -0.0841,0.10159 -0.0695,0.10159 0.0145,0 0.0698,-0.046 0.12227,-0.10159 z m 0.66627,-0.35708 c 0.17446,-0.0563 0.27362,-0.0668 0.31038,-0.0316 0.0365,0.0353 0.17333,0.0143 0.42745,-0.0658 0.20536,-0.0649 0.36395,-0.12648 0.35242,-0.13758 -0.012,-0.0108 -0.18067,0.0312 -0.37577,0.0934 -0.26798,0.0861 -0.36438,0.0987 -0.39427,0.052 -0.0506,-0.0782 -0.53211,0.076 -0.73917,0.23725 l -0.14144,0.11008 0.15203,-0.0877 c 0.0838,-0.0484 0.26739,-0.1251 0.40837,-0.1709 z m 1.52591,-0.12896 c 0.1537,-0.0441 0.27031,-0.0887 0.25914,-0.0992 -0.025,-0.024 -0.57231,0.12677 -0.57231,0.1573 0,0.0306 0.005,0.0299 0.31317,-0.0578 z m 0.87773,-0.2769 0.21175,-0.0368 -0.18527,-0.005 c -0.1019,-0.003 -0.24482,0.0306 -0.31759,0.0731 -0.086,0.0503 -0.0951,0.0655 -0.0266,0.0417 0.058,-0.0199 0.20112,-0.0527 0.31758,-0.0731 z m 0.42038,-0.0959 c 0.0161,-0.0255 -0.0178,-0.0339 -0.0761,-0.0194 -0.12363,0.0312 -0.13923,0.0658 -0.0299,0.0658 0.0421,0 0.0899,-0.0208 0.10594,-0.0464 z m 1.70893,0.0151 c -0.0174,-0.0166 -0.0634,-0.0185 -0.10143,-0.004 -0.0424,0.0159 -0.0299,0.0285 0.0317,0.0308 0.0556,0.002 0.0871,-0.01 0.0697,-0.0268 z m -0.31645,-0.055 c -0.0509,-0.0125 -0.13431,-0.0125 -0.18526,0 -0.0511,0.0125 -0.01,0.0235 0.0923,0.0235 0.10191,0 0.14362,-0.0107 0.0926,-0.0235 z m -0.5279,-0.0524 c -0.1084,-0.0109 -0.29894,-0.0111 -0.42345,-3.5e-4 -0.12449,0.0108 -0.0356,0.0196 0.19708,0.0198 0.23289,1.7e-4 0.33474,-0.009 0.22637,-0.0194 z m -0.69063,-0.0449 c -0.0174,-0.0166 -0.0634,-0.0186 -0.10144,-0.004 -0.0424,0.0159 -0.0295,0.0285 0.0321,0.0306 0.0558,0.002 0.0873,-0.01 0.0694,-0.0268 z M 32.1487,39.68601 c -0.53916,-0.37069 -0.7389,-0.56246 -0.7389,-0.7093 0,-0.0776 0.0182,-0.14161 0.0408,-0.14161 0.0761,0 0.97768,0.90291 0.95798,0.95966 -0.0114,0.0326 -0.12019,-0.0124 -0.25983,-0.10875 z m -0.27747,-0.94125 c -0.27998,-0.27157 -0.36972,-0.41762 -0.25651,-0.41762 0.0682,0 0.58902,0.57247 0.58902,0.64723 0,0.0351 -0.007,0.0642 -0.0148,0.0642 -0.009,0 -0.15111,-0.13209 -0.31759,-0.29352 z m 3.09802,-1.11156 c -0.1478,-0.0569 -0.0554,-0.16335 0.18527,-0.21289 0.13828,-0.0288 0.35803,-0.0975 0.48834,-0.15364 0.1303,-0.0558 0.24632,-0.0925 0.2578,-0.0818 0.0112,0.011 -0.0477,0.12393 -0.13108,0.25089 -0.15097,0.2294 -0.1537,0.23076 -0.44301,0.22687 -0.16016,-0.002 -0.32093,-0.015 -0.35732,-0.0292 z m 1.58792,-1.13626 c -0.14289,-0.055 -0.14881,-0.1489 -0.0299,-0.46825 0.10247,-0.27434 0.20878,-0.32848 0.14966,-0.0761 -0.0214,0.0906 -0.0498,0.22226 -0.0633,0.29207 l -0.0248,0.12703 0.10578,-0.11562 c 0.0627,-0.0686 0.12054,-0.22899 0.14189,-0.39311 0.0198,-0.15263 0.0569,-0.26492 0.0832,-0.24966 0.0658,0.0387 0.0583,0.44046 -0.012,0.71047 -0.062,0.23586 -0.11756,0.26336 -0.35098,0.17329 z M 24.0318,35.8594 C 24.0144,35.8149 24,35.64188 24,35.47422 c 0,-0.22126 0.018,-0.29907 0.0663,-0.28388 0.0784,0.0253 0.12476,0.7494 0.0479,0.7494 -0.0275,0 -0.0643,-0.036 -0.0818,-0.0803 z m 12.73325,-1.18809 c -0.0823,-0.1068 -0.10757,-0.19103 -0.0845,-0.28022 0.0481,-0.18317 0.17323,-0.15715 0.26564,0.055 0.1438,0.33028 0.0189,0.48513 -0.18142,0.22498 z M 24.02094,33.86505 c -0.004,-0.28805 -3e-5,-0.29694 0.13281,-0.29209 0.11269,0.004 0.13984,0.0325 0.15285,0.16011 0.0146,0.14381 -0.14829,0.42904 -0.24509,0.42904 -0.02,0 -0.0381,-0.1337 -0.0406,-0.29706 z m 13.71982,-6.24443 c 0.008,-0.45454 0.0873,-0.60854 0.14943,-0.29028 0.0436,0.22175 -0.012,0.61336 -0.0958,0.68031 -0.0458,0.036 -0.0592,-0.0629 -0.0534,-0.39003 z M 30.78601,27.34827 C 30.80741,27.28697 31.53744,27 31.67207,27 c 0.15827,0 -0.12559,0.18605 -0.453,0.29698 -0.36502,0.12362 -0.4622,0.13511 -0.43306,0.0513 z"
     class="ColorScheme-Text"
     id="path7225-4" />
</svg>
