<?xml version="1.0" encoding="UTF-8" standalone="no"?>
<svg
   viewBox="0 0 64 64"
   version="1.1"
   id="svg12"
   sodipodi:docname="folder-design.svg"
   inkscape:version="1.2.1 (9c6d41e410, 2022-07-14)"
   xmlns:inkscape="http://www.inkscape.org/namespaces/inkscape"
   xmlns:sodipodi="http://sodipodi.sourceforge.net/DTD/sodipodi-0.dtd"
   xmlns:xlink="http://www.w3.org/1999/xlink"
   xmlns="http://www.w3.org/2000/svg"
   xmlns:svg="http://www.w3.org/2000/svg"
   xmlns:rdf="http://www.w3.org/1999/02/22-rdf-syntax-ns#"
   xmlns:cc="http://creativecommons.org/ns#"
   xmlns:dc="http://purl.org/dc/elements/1.1/">
  <metadata
     id="metadata16">
    <rdf:RDF>
      <cc:Work
         rdf:about="">
        <dc:format>image/svg+xml</dc:format>
        <dc:type
           rdf:resource="http://purl.org/dc/dcmitype/StillImage" />
      </cc:Work>
    </rdf:RDF>
  </metadata>
  <sodipodi:namedview
     pagecolor="#ffffff"
     bordercolor="#666666"
     borderopacity="1"
     objecttolerance="10"
     gridtolerance="10"
     guidetolerance="10"
     inkscape:pageopacity="0"
     inkscape:pageshadow="2"
     inkscape:window-width="1920"
     inkscape:window-height="1000"
     id="namedview14"
     showgrid="false"
     inkscape:zoom="5.2149125"
     inkscape:cx="47.555927"
     inkscape:cy="39.214464"
     inkscape:window-x="0"
     inkscape:window-y="0"
     inkscape:window-maximized="1"
     inkscape:current-layer="svg12"
     inkscape:showpageshadow="2"
     inkscape:pagecheckerboard="0"
     inkscape:deskcolor="#d1d1d1">
    <inkscape:grid
       type="xygrid"
       id="grid2873" />
  </sodipodi:namedview>
  <defs
     id="defs3051">
    <style
       type="text/css"
       id="current-color-scheme">.ColorScheme-Text { color:#31363b; }
.ColorScheme-Background { color:#eff0f1; }
.ColorScheme-Highlight { color:#3daee9; }
.ColorScheme-ViewText { color:#31363b; }
.ColorScheme-ViewBackground { color:#fcfcfc; }
.ColorScheme-ViewHover { color:#93cee9; }
.ColorScheme-ViewFocus { color:#3daee9; }
.ColorScheme-ButtonText { color:#31363b; }
.ColorScheme-ButtonBackground { color:#eff0f1; }
.ColorScheme-ButtonHover { color:#93cee9; }
.ColorScheme-ButtonFocus { color:#3daee9; }
</style>
    <linearGradient
       inkscape:collect="always"
       id="linearGradient4393">
      <stop
         style="stop-color:#000000;stop-opacity:1;"
         offset="0"
         id="stop4395" />
      <stop
         style="stop-color:#000000;stop-opacity:0;"
         offset="1"
         id="stop4397" />
    </linearGradient>
    <linearGradient
       inkscape:collect="always"
       xlink:href="#linearGradient4393"
       id="linearGradient668"
       gradientUnits="userSpaceOnUse"
       gradientTransform="matrix(3.6204685,0,0,3.4670854,3.00004,-3590.6227)"
       x1="5"
       y1="1037.3622"
       x2="8"
       y2="1051.3622" />
  </defs>
  <path
     inkscape:connector-curvature="0"
     style="fill:currentColor;fill-opacity:1;stroke-width:3.54293"
     id="rect4180-6-7"
     d="m 4,32 h 55.999586 l 4.1e-4,-18.6 c 0,-2 -2.1,-3.9 -4.1,-3.9 L 31.999786,9.46667 28.374806,6 H 7.99997 C 5.999985,6 4,8 4,10 Z"
     sodipodi:nodetypes="ccccccccc"
     class="ColorScheme-Highlight" />
  <path
     inkscape:connector-curvature="0"
     style="fill:#a1b4ba;fill-opacity:1;stroke-width:3.54294"
     d="m 3,23 c 0,-11.262012 0,2.953607 0,3.93041 V 54 c 0,2 2,4 4,4 h 49.999996 c 2,0 4,-2 4,-4 V 20 c 0,-1 -1,-2 -2,-2 h -34 L 20,22 H 4 c -1,0 -1,1 -1,1 z"
     id="rect4113-2-5"
     sodipodi:nodetypes="cccscccccccc" />
  <path
     inkscape:connector-curvature="0"
     style="opacity:0.3;fill:#0f608a;fill-opacity:1;fill-rule:evenodd;stroke-width:1.77147"
     id="path4224-9-3"
     d="m 4,22 v 0 h 2 14 l 4.999996,-4 v 0 L 19.4,21 H 5.018103 C 4,21 4,22 4,22 Z"
     sodipodi:nodetypes="ccccccccc" />
  <path
     inkscape:connector-curvature="0"
     style="color:#31363b;opacity:0.3;fill:#ffffff;fill-opacity:1;fill-rule:evenodd;stroke-width:3.54294"
     id="path4196-3-5"
     d="m 28.374956,6 3.62506,5.5 h 27.34998 c -0.33,-0.5 -1.35,-2 -3.75,-2 L 31.999966,9.46774 Z"
     sodipodi:nodetypes="cccccc"
     class="ColorScheme-Text" />
  <path
     style="color:#000000;clip-rule:nonzero;display:inline;overflow:visible;visibility:visible;opacity:0.2;isolation:auto;mix-blend-mode:normal;color-interpolation:sRGB;color-interpolation-filters:linearRGB;solid-color:#000000;solid-opacity:1;fill:#000000;fill-opacity:1;fill-rule:nonzero;stroke:none;stroke-width:3.54294;stroke-linecap:butt;stroke-linejoin:miter;stroke-miterlimit:4;stroke-dasharray:none;stroke-dashoffset:0;stroke-opacity:1;marker:none;color-rendering:auto;image-rendering:auto;shape-rendering:auto;text-rendering:auto;enable-background:accumulate"
     d="M 3,51.11291 V 54 c 0,2 2,4 4,4 h 49.999996 c 2,0 4,-2 4,-4 l -0.009,-2.82577 c -0.024,1.78743 -1.88271,3.39324 -3.69826,3.35853 H 6.64205 c -1.80475,0 -3.64147,-1.66854 -3.64147,-3.41985 z"
     id="path9304-6"
     inkscape:connector-curvature="0"
     sodipodi:nodetypes="cssccccscc" />
  <path
     style="opacity:0.181;fill:url(#linearGradient668);fill-opacity:1;fill-rule:evenodd;stroke:none;stroke-width:3.54294px;stroke-linecap:butt;stroke-linejoin:miter;stroke-opacity:1"
     d="m 3,27 28.963736,27.53972 h 28.96374 L 60.999976,27 Z"
     id="path4152-2"
     inkscape:connector-curvature="0"
     sodipodi:nodetypes="ccccc" />
  <path
     style="color:#232629;fill:#002d3c;fill-opacity:1;stroke:none;stroke-width:0.766643"
     d="m 32.20552,27 c -0.38852,0 -0.70677,0.31364 -0.70677,0.70228 v 0.64233 c -1.25221,0.32152 -2.15323,1.43218 -2.15323,2.7671 0,0.93439 0.44628,1.76613 1.14246,2.28946 0.0748,0.0876 0.11991,0.19847 0.11991,0.322 0,0.0353 2e-5,0.0714 -0.006,0.10475 l -3.09505,6.55992 h -1.28032 c -0.20893,0 -0.38031,0.1684 -0.38031,0.37724 v 0.002 c 0,0.20884 0.17138,0.37743 0.38031,0.37743 h 0.92395 l -2.38991,5.06542 c -0.15038,0.32129 -0.0756,0.69255 0.16037,0.93296 L 24,49.013 25.45544,47.43627 c 0.38631,0.10103 0.79956,-0.083 0.97477,-0.45373 l 2.75509,-5.83805 h 2.42117 v 0.50156 c 0,0.31897 0.25974,0.57647 0.58104,0.57647 h 0.0321 c 0.32121,0 0.58245,-0.2575 0.58245,-0.57647 v -0.50156 h 2.47667 l 2.75359,5.83804 c 0.17286,0.37294 0.58911,0.55476 0.97326,0.45373 l 1.45544,1.57673 -0.91786,-1.87012 c 0.23352,-0.2404 0.30917,-0.6094 0.15865,-0.93294 l -2.38977,-5.06544 h 0.86698 c 0.21109,0 0.38034,-0.16858 0.38034,-0.37741 0,-0.20888 -0.16925,-0.37667 -0.38034,-0.3789 h -1.22333 l -3.09349,-6.5598 c -0.006,-0.0335 -0.006,-0.0693 -0.006,-0.10486 0,-0.1213 0.0452,-0.23423 0.11681,-0.3218 0.69645,-0.52349 1.14559,-1.35505 1.14559,-2.28949 0,-1.35316 -0.94346,-2.47753 -2.21011,-2.78203 v -0.62741 c 0,-0.3887 -0.3144,-0.70226 -0.70537,-0.70226 z m 0.67238,2.59039 c 0.59576,0.2503 1.01364,0.83681 1.01364,1.52132 0,0.91203 -0.74106,1.65164 -1.65758,1.65164 -0.92091,0 -1.65757,-0.73961 -1.65757,-1.65164 0,-0.66228 0.39364,-1.22985 0.9613,-1.49285 0.0842,0.29286 0.34469,0.51218 0.66783,0.51218 0.33151,0 0.5975,-0.23259 0.67238,-0.54065 z m -0.65748,5.48479 h 0.0128 0.013 c 0.09,0 0.1692,0.0414 0.21862,0.1049 l 2.45717,5.20776 h -2.12022 v -0.60948 c 0,-0.32124 -0.26122,-0.57946 -0.58247,-0.57946 h -0.0317 c -0.32121,0 -0.58098,0.26048 -0.58098,0.57946 v 0.60948 h -2.06479 l 2.45716,-5.20776 c 0.0524,-0.0649 0.13028,-0.1049 0.22011,-0.1049 z"
     class="ColorScheme-Text"
     id="path8133-5" />
</svg>
