<?xml version="1.0" encoding="UTF-8" standalone="no"?>
<svg
   viewBox="0 0 64 64"
   version="1.1"
   id="svg12"
   sodipodi:docname="folder-java.svg"
   inkscape:version="1.2.1 (9c6d41e410, 2022-07-14)"
   xmlns:inkscape="http://www.inkscape.org/namespaces/inkscape"
   xmlns:sodipodi="http://sodipodi.sourceforge.net/DTD/sodipodi-0.dtd"
   xmlns:xlink="http://www.w3.org/1999/xlink"
   xmlns="http://www.w3.org/2000/svg"
   xmlns:svg="http://www.w3.org/2000/svg"
   xmlns:rdf="http://www.w3.org/1999/02/22-rdf-syntax-ns#"
   xmlns:cc="http://creativecommons.org/ns#"
   xmlns:dc="http://purl.org/dc/elements/1.1/">
  <metadata
     id="metadata16">
    <rdf:RDF>
      <cc:Work
         rdf:about="">
        <dc:format>image/svg+xml</dc:format>
        <dc:type
           rdf:resource="http://purl.org/dc/dcmitype/StillImage" />
      </cc:Work>
    </rdf:RDF>
  </metadata>
  <sodipodi:namedview
     pagecolor="#ffffff"
     bordercolor="#666666"
     borderopacity="1"
     objecttolerance="10"
     gridtolerance="10"
     guidetolerance="10"
     inkscape:pageopacity="0"
     inkscape:pageshadow="2"
     inkscape:window-width="1920"
     inkscape:window-height="1000"
     id="namedview14"
     showgrid="false"
     inkscape:zoom="5.2149125"
     inkscape:cx="47.555927"
     inkscape:cy="39.214464"
     inkscape:window-x="0"
     inkscape:window-y="0"
     inkscape:window-maximized="1"
     inkscape:current-layer="svg12"
     inkscape:showpageshadow="2"
     inkscape:pagecheckerboard="0"
     inkscape:deskcolor="#d1d1d1">
    <inkscape:grid
       type="xygrid"
       id="grid2873" />
  </sodipodi:namedview>
  <defs
     id="defs3051">
    <style
       type="text/css"
       id="current-color-scheme">.ColorScheme-Text { color:#31363b; }
.ColorScheme-Background { color:#eff0f1; }
.ColorScheme-Highlight { color:#3daee9; }
.ColorScheme-ViewText { color:#31363b; }
.ColorScheme-ViewBackground { color:#fcfcfc; }
.ColorScheme-ViewHover { color:#93cee9; }
.ColorScheme-ViewFocus { color:#3daee9; }
.ColorScheme-ButtonText { color:#31363b; }
.ColorScheme-ButtonBackground { color:#eff0f1; }
.ColorScheme-ButtonHover { color:#93cee9; }
.ColorScheme-ButtonFocus { color:#3daee9; }
</style>
    <linearGradient
       inkscape:collect="always"
       id="linearGradient4393">
      <stop
         style="stop-color:#000000;stop-opacity:1;"
         offset="0"
         id="stop4395" />
      <stop
         style="stop-color:#000000;stop-opacity:0;"
         offset="1"
         id="stop4397" />
    </linearGradient>
    <linearGradient
       inkscape:collect="always"
       xlink:href="#linearGradient4393"
       id="linearGradient668"
       gradientUnits="userSpaceOnUse"
       gradientTransform="matrix(3.6204685,0,0,3.4670854,3.00004,-3590.6227)"
       x1="5"
       y1="1037.3622"
       x2="8"
       y2="1051.3622" />
  </defs>
  <path
     inkscape:connector-curvature="0"
     style="fill:currentColor;fill-opacity:1;stroke-width:3.54293"
     id="rect4180-6-7"
     d="m 4,32 h 55.999586 l 4.1e-4,-18.6 c 0,-2 -2.1,-3.9 -4.1,-3.9 L 31.999786,9.46667 28.374806,6 H 7.99997 C 5.999985,6 4,8 4,10 Z"
     sodipodi:nodetypes="ccccccccc"
     class="ColorScheme-Highlight" />
  <path
     inkscape:connector-curvature="0"
     style="fill:#ffb380;fill-opacity:1;stroke-width:3.54294"
     d="m 3,23 c 0,-11.262012 0,2.953607 0,3.93041 V 54 c 0,2 2,4 4,4 h 49.999996 c 2,0 4,-2 4,-4 V 20 c 0,-1 -1,-2 -2,-2 h -34 L 20,22 H 4 c -1,0 -1,1 -1,1 z"
     id="rect4113-2-5"
     sodipodi:nodetypes="cccscccccccc" />
  <path
     inkscape:connector-curvature="0"
     style="opacity:0.3;fill:#0f608a;fill-opacity:1;fill-rule:evenodd;stroke-width:1.77147"
     id="path4224-9-3"
     d="m 4,22 v 0 h 2 14 l 4.999996,-4 v 0 L 19.4,21 H 5.018103 C 4,21 4,22 4,22 Z"
     sodipodi:nodetypes="ccccccccc" />
  <path
     inkscape:connector-curvature="0"
     style="color:#31363b;opacity:0.3;fill:#ffffff;fill-opacity:1;fill-rule:evenodd;stroke-width:3.54294"
     id="path4196-3-5"
     d="m 28.374956,6 3.62506,5.5 h 27.34998 c -0.33,-0.5 -1.35,-2 -3.75,-2 L 31.999966,9.46774 Z"
     sodipodi:nodetypes="cccccc"
     class="ColorScheme-Text" />
  <path
     style="color:#000000;clip-rule:nonzero;display:inline;overflow:visible;visibility:visible;opacity:0.2;isolation:auto;mix-blend-mode:normal;color-interpolation:sRGB;color-interpolation-filters:linearRGB;solid-color:#000000;solid-opacity:1;fill:#000000;fill-opacity:1;fill-rule:nonzero;stroke:none;stroke-width:3.54294;stroke-linecap:butt;stroke-linejoin:miter;stroke-miterlimit:4;stroke-dasharray:none;stroke-dashoffset:0;stroke-opacity:1;marker:none;color-rendering:auto;image-rendering:auto;shape-rendering:auto;text-rendering:auto;enable-background:accumulate"
     d="M 3,51.11291 V 54 c 0,2 2,4 4,4 h 49.999996 c 2,0 4,-2 4,-4 l -0.009,-2.82577 c -0.024,1.78743 -1.88271,3.39324 -3.69826,3.35853 H 6.64205 c -1.80475,0 -3.64147,-1.66854 -3.64147,-3.41985 z"
     id="path9304-6"
     inkscape:connector-curvature="0"
     sodipodi:nodetypes="cssccccscc" />
  <path
     style="opacity:0.181;fill:url(#linearGradient668);fill-opacity:1;fill-rule:evenodd;stroke:none;stroke-width:3.54294px;stroke-linecap:butt;stroke-linejoin:miter;stroke-opacity:1"
     d="m 3,27 28.963736,27.53972 h 28.96374 L 60.999976,27 Z"
     id="path4152-2"
     inkscape:connector-curvature="0"
     sodipodi:nodetypes="ccccc" />
  <path
     d="M 40.83055,47 H 20.99588 C 20.7226,47 20.5,46.61205 20.5,46.33877 c 0,-0.27307 0.22262,-0.66102 0.49588,-0.66102 h 19.83467 c 0.27328,0 0.49579,0.38795 0.49579,0.66102 0,0.27328 -0.22251,0.66123 -0.49579,0.66123 z"
     id="path2-3-2"
     style="color:#eff0f1;fill:#002d3c;fill-opacity:1;stroke-width:0.0495865"
     sodipodi:nodetypes="sssssss"
     class="ColorScheme-Text" />
  <path
     d="m 37.85678,43.36371 h -0.002 c -0.26182,0 -0.47888,-0.20494 -0.49442,-0.46659 -0.0171,-0.27288 0.19239,-0.50782 0.46573,-0.52431 h 4.1e-4 c 0.002,-4.9e-4 0.007,-9e-4 0.0171,-10e-4 0.023,-0.002 0.0478,-0.004 0.0761,-0.007 0.0632,-0.006 0.1686,-0.0223 0.30397,-0.0486 0.24254,-0.0475 0.62333,-0.14344 1.06166,-0.32237 1.12671,-0.46117 2.04449,-1.21385 2.72681,-2.23683 0.75967,-1.1291 0.80678,-1.68249 0.80327,-1.82532 -10e-4,-0.13098 -0.0268,-0.19333 -0.0534,-0.23751 -0.0324,-0.0521 -0.0748,-0.0903 -0.14282,-0.12891 -0.14725,-0.086 -0.43094,-0.13984 -0.7413,-0.13984 -0.006,0 -0.0155,0 -0.0219,0 h -0.009 c -0.60992,0 -1.31903,0.17501 -1.43304,0.20919 -0.004,0.001 -0.004,0.001 -0.004,0.001 -0.0438,0.0133 -0.0903,0.0195 -0.13636,0.0195 -0.22016,0 -0.41602,-0.14777 -0.47657,-0.35956 -0.0374,-0.1274 -0.021,-0.26128 0.0425,-0.3773 0.0636,-0.11584 0.1701,-0.19939 0.29749,-0.23604 9.9e-4,0 0.007,-0.002 0.0187,-0.004 0.26918,-0.0733 0.97388,-0.24199 1.70323,-0.24449 0.37142,0.001 0.67053,0.0425 0.94165,0.13243 0.25301,0.0827 0.59953,0.25782 0.81526,0.61782 0.12795,0.21174 0.19532,0.4706 0.19435,0.74781 -0.006,0.63916 -0.30645,1.37152 -0.96997,2.37515 -0.43588,0.65455 -0.96636,1.22283 -1.57632,1.68947 -0.48944,0.37436 -1.0279,0.68231 -1.6006,0.91585 -0.92579,0.37733 -1.63842,0.44328 -1.77173,0.45269 h -0.002 c -0.008,4.7e-4 -0.0195,10e-4 -0.0276,10e-4 z"
     id="path6-6-9"
     style="color:#eff0f1;fill:#002d3c;fill-opacity:1;stroke-width:0.0495865"
     class="ColorScheme-Text" />
  <path
     d="M 40.33467,35.4298 H 29.92159 c -0.27338,0 -0.49589,-0.22261 -0.49589,-0.49589 0,-0.27328 0.22251,-0.4959 0.49589,-0.4959 H 39.4257 V 32.95033 H 22.40076 v 1.48768 h 2.56199 c 0.27328,0 0.49589,0.22262 0.49589,0.4959 0,0.27328 -0.22261,0.49589 -0.49589,0.49589 h -3.47096 c -0.13043,0 -0.25838,-0.0534 -0.35056,-0.14543 -0.0928,-0.0928 -0.14534,-0.22013 -0.14534,-0.35046 v -2.47937 c 0,-0.13044 0.0534,-0.67133 0.14534,-0.76371 0.0928,-0.0928 0.22013,-0.14537 0.35056,-0.14537 h 18.84288 c 0.13053,0 0.25848,0.0536 0.35062,0.14537 0.0928,0.0928 0.14526,0.63327 0.14526,0.76371 v 2.47937 c 0,0.13033 -0.0534,0.25827 -0.14526,0.35046 -0.0927,0.0928 -0.2201,0.14543 -0.35062,0.14543 z m -12.89255,0 c -0.27378,0 -0.49589,-0.22261 -0.49589,-0.49589 0,-0.27328 0.22211,-0.4959 0.49589,-0.4959 0.27328,0 0.49589,0.22262 0.49589,0.4959 0,0.27328 -0.22261,0.49589 -0.49589,0.49589 z"
     id="path10-7-3"
     style="color:#eff0f1;fill:#002d3c;fill-opacity:1;stroke-width:0.0495865"
     sodipodi:nodetypes="ssssccccsssssssssscsscssssss"
     class="ColorScheme-Text" />
  <path
     d="m 29.92158,32.95033 c -0.27337,0 -0.49588,-0.22251 -0.49588,-0.49579 v -0.99179 c 0,-0.39705 0.15456,-0.77096 0.43588,-1.05159 0.28053,-0.28083 0.65404,-0.4359 1.05169,-0.4359 h 5.95043 c 0.27258,-5.9e-4 0.4954,-0.22321 0.49589,-0.49589 -5e-4,-0.27278 -0.22333,-0.4954 -0.49589,-0.49579 h -9.42159 c -0.39724,0 -0.77096,-0.15487 -1.05178,-0.4359 -0.28103,-0.28083 -0.43579,-0.65404 -0.43579,-1.05179 0,-0.27327 0.22271,-0.49589 0.49579,-0.49589 0.27337,0 0.4959,0.22262 0.4959,0.49589 4.9e-4,0.27269 0.22321,0.4954 0.49588,0.4959 h 9.42159 c 0.39765,0 0.77096,0.15457 1.05169,0.43589 0.28112,0.28053 0.43589,0.65444 0.43589,1.05169 0,0.39775 -0.15477,0.77096 -0.43589,1.05179 -0.28073,0.28102 -0.65404,0.43569 -1.05169,0.43569 h -5.95043 c -0.27287,6e-4 -0.4954,0.22322 -0.4959,0.4959 v 0.99179 c 0,0.27328 -0.22271,0.49579 -0.49579,0.49579 z"
     id="path14-5-9"
     style="color:#eff0f1;fill:#002d3c;fill-opacity:1;stroke-width:0.0495865"
     class="ColorScheme-Text" />
  <path
     d="m 32.43959,46.83467 h -3.01351 c -0.0366,0 -0.0636,-0.002 -0.0997,-0.008 -1.12609,-0.23104 -2.20698,-0.6986 -3.21258,-1.38936 -0.97551,-0.6705 -1.75034,-1.38294 -2.49856,-2.40633 -0.22098,-0.3266 -0.0553,-0.71827 0.17819,-0.90588 0.0847,-0.062 0.26488,-0.14357 0.45215,-0.19504 0.1888,-0.0526 0.47271,0.0767 0.56608,0.20328 1.36958,1.87293 2.70637,2.88422 4.6656,3.29831 h 2.91109 c 1.95772,-0.41447 3.37347,-1.26529 4.73563,-3.1451 1.38547,-1.91108 2.19912,-4.34582 2.29179,-6.8549 H 22.40078 c 0.0332,0.86677 0.16046,1.72908 0.36122,2.56308 0.007,0.039 0.0142,0.0787 0.0142,0.11811 -0.0775,0.26346 -0.31738,0.4058 -0.5404,0.45941 -0.0386,0.007 -0.16469,0.0352 -0.20343,0.0352 -0.23008,0 -0.59355,-0.15621 -0.64759,-0.37984 -0.22301,-0.92778 -0.35096,-1.88632 -0.38119,-2.84881 -0.004,-0.16808 -0.006,-0.30888 -0.006,-0.44225 0,-0.13042 0.0535,-0.25835 0.14531,-0.35059 0.0928,-0.0928 0.22012,-0.14531 0.3505,-0.14531 h 18.84299 c 0.13047,0 0.25839,0.0534 0.35057,0.14529 0.0928,0.0928 0.1453,0.22019 0.1453,0.35061 0,0.13431 -0.002,0.27517 -0.006,0.44225 -0.0425,1.39147 -0.28615,2.75404 -0.72248,4.04876 -0.42296,1.25459 -1.01506,2.41238 -1.76032,3.44181 -0.74481,1.02795 -1.61609,1.89025 -2.58947,2.56316 -1.00415,0.69418 -2.08464,1.16328 -3.21169,1.39486 -0.0359,0.006 -0.0632,0.008 -0.0997,0.008 z m -9.76927,-5.88845 c -0.1943,0 -0.37122,-0.11412 -0.45169,-0.29046 v -4.9e-4 c -0.056,-0.12055 -0.0596,-0.2554 -0.0133,-0.37898 0.0463,-0.12398 0.13835,-0.22252 0.25927,-0.27769 0.0644,-0.0284 0.13387,-0.0433 0.20489,-0.0433 0.19384,0 0.37139,0.11415 0.4517,0.29058 v 4.9e-4 c 0.11325,0.24893 0.002,0.54293 -0.24646,0.65599 -0.0641,0.0299 -0.13385,0.0438 -0.20482,0.0438 z"
     id="path22-3-0"
     style="color:#eff0f1;fill:#002d3c;fill-opacity:1;stroke-width:0.0495865"
     sodipodi:nodetypes="ssccccscccccccccsccsssscscccccssccccscccs"
     class="ColorScheme-Text" />
  <path
     d="M 39.09512,37.90917 H 28.18594 c -0.27328,0 -0.49588,-0.22281 -0.49588,-0.49589 0,-0.27328 0.2226,-0.4959 0.49588,-0.4959 h 10.90918 c 0.27308,0 0.4957,0.22262 0.4957,0.4959 0,0.27308 -0.22262,0.49589 -0.4957,0.49589 z"
     id="path26-5-8"
     style="color:#eff0f1;fill:#002d3c;fill-opacity:1;stroke-width:0.0495865"
     class="ColorScheme-Text" />
</svg>
