<?xml version="1.0" encoding="UTF-8" standalone="no"?>
<svg
   viewBox="0 0 64 64"
   version="1.1"
   id="svg12"
   sodipodi:docname="folder-book.svg"
   inkscape:version="1.2.1 (9c6d41e410, 2022-07-14)"
   xmlns:inkscape="http://www.inkscape.org/namespaces/inkscape"
   xmlns:sodipodi="http://sodipodi.sourceforge.net/DTD/sodipodi-0.dtd"
   xmlns:xlink="http://www.w3.org/1999/xlink"
   xmlns="http://www.w3.org/2000/svg"
   xmlns:svg="http://www.w3.org/2000/svg"
   xmlns:rdf="http://www.w3.org/1999/02/22-rdf-syntax-ns#"
   xmlns:cc="http://creativecommons.org/ns#"
   xmlns:dc="http://purl.org/dc/elements/1.1/">
  <metadata
     id="metadata16">
    <rdf:RDF>
      <cc:Work
         rdf:about="">
        <dc:format>image/svg+xml</dc:format>
        <dc:type
           rdf:resource="http://purl.org/dc/dcmitype/StillImage" />
      </cc:Work>
    </rdf:RDF>
  </metadata>
  <sodipodi:namedview
     pagecolor="#ffffff"
     bordercolor="#666666"
     borderopacity="1"
     objecttolerance="10"
     gridtolerance="10"
     guidetolerance="10"
     inkscape:pageopacity="0"
     inkscape:pageshadow="2"
     inkscape:window-width="1920"
     inkscape:window-height="1000"
     id="namedview14"
     showgrid="false"
     inkscape:zoom="5.2149125"
     inkscape:cx="47.555927"
     inkscape:cy="39.214464"
     inkscape:window-x="0"
     inkscape:window-y="0"
     inkscape:window-maximized="1"
     inkscape:current-layer="svg12"
     inkscape:showpageshadow="2"
     inkscape:pagecheckerboard="0"
     inkscape:deskcolor="#d1d1d1">
    <inkscape:grid
       type="xygrid"
       id="grid2873" />
  </sodipodi:namedview>
  <defs
     id="defs3051">
    <style
       type="text/css"
       id="current-color-scheme">.ColorScheme-Text { color:#31363b; }
.ColorScheme-Background { color:#eff0f1; }
.ColorScheme-Highlight { color:#3daee9; }
.ColorScheme-ViewText { color:#31363b; }
.ColorScheme-ViewBackground { color:#fcfcfc; }
.ColorScheme-ViewHover { color:#93cee9; }
.ColorScheme-ViewFocus { color:#3daee9; }
.ColorScheme-ButtonText { color:#31363b; }
.ColorScheme-ButtonBackground { color:#eff0f1; }
.ColorScheme-ButtonHover { color:#93cee9; }
.ColorScheme-ButtonFocus { color:#3daee9; }
</style>
    <linearGradient
       inkscape:collect="always"
       id="linearGradient4393">
      <stop
         style="stop-color:#000000;stop-opacity:1;"
         offset="0"
         id="stop4395" />
      <stop
         style="stop-color:#000000;stop-opacity:0;"
         offset="1"
         id="stop4397" />
    </linearGradient>
    <linearGradient
       inkscape:collect="always"
       xlink:href="#linearGradient4393"
       id="linearGradient668"
       gradientUnits="userSpaceOnUse"
       gradientTransform="matrix(3.6204685,0,0,3.4670854,3.00004,-3590.6227)"
       x1="5"
       y1="1037.3622"
       x2="8"
       y2="1051.3622" />
  </defs>
  <path
     inkscape:connector-curvature="0"
     style="fill:currentColor;fill-opacity:1;stroke-width:3.54293"
     id="rect4180-6-7"
     d="m 4,32 h 55.999586 l 4.1e-4,-18.6 c 0,-2 -2.1,-3.9 -4.1,-3.9 L 31.999786,9.46667 28.374806,6 H 7.99997 C 5.999985,6 4,8 4,10 Z"
     sodipodi:nodetypes="ccccccccc"
     class="ColorScheme-Highlight" />
  <path
     inkscape:connector-curvature="0"
     style="fill:#a1b4ba;fill-opacity:1;stroke-width:3.54294"
     d="m 3,23 c 0,-11.262012 0,2.953607 0,3.93041 V 54 c 0,2 2,4 4,4 h 49.999996 c 2,0 4,-2 4,-4 V 20 c 0,-1 -1,-2 -2,-2 h -34 L 20,22 H 4 c -1,0 -1,1 -1,1 z"
     id="rect4113-2-5"
     sodipodi:nodetypes="cccscccccccc" />
  <path
     inkscape:connector-curvature="0"
     style="opacity:0.3;fill:#0f608a;fill-opacity:1;fill-rule:evenodd;stroke-width:1.77147"
     id="path4224-9-3"
     d="m 4,22 v 0 h 2 14 l 4.999996,-4 v 0 L 19.4,21 H 5.018103 C 4,21 4,22 4,22 Z"
     sodipodi:nodetypes="ccccccccc" />
  <path
     inkscape:connector-curvature="0"
     style="color:#31363b;opacity:0.3;fill:#ffffff;fill-opacity:1;fill-rule:evenodd;stroke-width:3.54294"
     id="path4196-3-5"
     d="m 28.374956,6 3.62506,5.5 h 27.34998 c -0.33,-0.5 -1.35,-2 -3.75,-2 L 31.999966,9.46774 Z"
     sodipodi:nodetypes="cccccc"
     class="ColorScheme-Text" />
  <path
     style="color:#000000;clip-rule:nonzero;display:inline;overflow:visible;visibility:visible;opacity:0.2;isolation:auto;mix-blend-mode:normal;color-interpolation:sRGB;color-interpolation-filters:linearRGB;solid-color:#000000;solid-opacity:1;fill:#000000;fill-opacity:1;fill-rule:nonzero;stroke:none;stroke-width:3.54294;stroke-linecap:butt;stroke-linejoin:miter;stroke-miterlimit:4;stroke-dasharray:none;stroke-dashoffset:0;stroke-opacity:1;marker:none;color-rendering:auto;image-rendering:auto;shape-rendering:auto;text-rendering:auto;enable-background:accumulate"
     d="M 3,51.11291 V 54 c 0,2 2,4 4,4 h 49.999996 c 2,0 4,-2 4,-4 l -0.009,-2.82577 c -0.024,1.78743 -1.88271,3.39324 -3.69826,3.35853 H 6.64205 c -1.80475,0 -3.64147,-1.66854 -3.64147,-3.41985 z"
     id="path9304-6"
     inkscape:connector-curvature="0"
     sodipodi:nodetypes="cssccccscc" />
  <path
     style="opacity:0.181;fill:url(#linearGradient668);fill-opacity:1;fill-rule:evenodd;stroke:none;stroke-width:3.54294px;stroke-linecap:butt;stroke-linejoin:miter;stroke-opacity:1"
     d="m 3,27 28.963736,27.53972 h 28.96374 L 60.999976,27 Z"
     id="path4152-2"
     inkscape:connector-curvature="0"
     sodipodi:nodetypes="ccccc" />
  <path
     fill-rule="evenodd"
     clip-rule="evenodd"
     d="m 42.40552,43.34991 -8.02488,3.25996 c -0.63962,0.25049 -1.33319,0.39018 -2.06045,0.39018 -0.73323,0 -1.433,-0.14119 -2.07606,-0.39608 L 22.23881,43.35244 C 21.50526,42.97773 21,42.21942 21,41.33947 v -8.67782 -1.50969 c 0,-0.41723 0.33861,-0.75473 0.75462,-0.75473 0.4172,0 0.75507,0.3375 0.75507,0.75473 v 0.61349 0.8962 8.57205 c 0,0.27226 0.1488,0.50511 0.36556,0.63784 l 7.70532,3.26036 c 0.0172,0.006 0.032,0.009 0.0481,0.0172 0.51946,0.21998 1.09135,0.34155 1.69128,0.34155 0.59605,0 1.16425,-0.12008 1.6816,-0.33748 0.0172,-0.006 0.0324,-0.0109 0.0478,-0.0179 l 7.71385,-3.26371 c 0.21669,-0.13272 0.3663,-0.36556 0.3663,-0.63783 V 35.67991 34.78375 34.1702 c 0,-0.41638 0.33828,-0.75393 0.75468,-0.75393 0.41713,0 0.75467,0.33755 0.75467,0.75393 v 1.50968 5.65957 c 4e-5,0.87848 -0.50333,1.63394 -1.23439,2.01048 z m 0.47979,-11.443 c -0.41638,0 -0.7547,-0.33861 -0.7547,-0.75495 0,-0.41723 0.33832,-0.75472 0.7547,-0.75472 0.4171,0 0.75461,0.33749 0.75461,0.75472 0,0.41634 -0.33751,0.75495 -0.75461,0.75495 z m -3.65098,9.25675 -3.55958,1.48308 v -9.4e-4 c -0.0968,0.0432 -0.20336,0.0671 -0.31542,0.0671 -0.42747,0 -0.77533,-0.34682 -0.77533,-0.77499 0,-0.33166 0.20858,-0.61172 0.50121,-0.72338 l 3.62588,-1.58665 c 0.235,-0.12672 0.40085,-0.37146 0.40085,-0.65929 v -9.88083 c 0,-0.20816 -0.1687,-0.37739 -0.37732,-0.37739 -0.0549,0 -0.10661,0.0125 -0.15476,0.0334 v -8.3e-4 l -5.10354,2.23376 c -0.23721,0.12686 -0.40085,0.37149 -0.40085,0.65811 v 8.94975 1.5094 c 0,0.83354 -0.67636,1.50972 -1.5099,1.50972 -0.20901,0 -0.40684,-0.0422 -0.58812,-0.11941 L 25.40157,41.16093 C 24.58826,40.81641 24.01906,40.0127 24.01906,39.07615 V 28.51049 c 0,-0.83355 0.67617,-1.5097 1.50922,-1.5097 0.20564,0 0.40017,0.0415 0.57966,0.11686 l 3.46344,1.44263 c 0.28443,0.1194 0.48484,0.40084 0.48484,0.72844 0,0.43669 -0.35374,0.79035 -0.78965,0.79035 -0.13194,0 -0.25458,-0.0361 -0.36362,-0.0932 l -2.84222,-1.24366 c -9.3e-4,0 0,6.9e-4 -9.3e-4,6.9e-4 -0.0466,-0.0209 -0.0989,-0.0334 -0.15369,-0.0334 -0.20939,0 -0.37776,0.16914 -0.37776,0.37736 v 9.8809 c 0,0.28783 0.16518,0.53247 0.40136,0.65929 l 5.10389,2.23299 c 7e-4,0 0,-7.4e-4 7e-4,-7.4e-4 0.0459,0.0209 0.0993,0.0334 0.15405,0.0334 0.20819,0 0.37737,-0.16843 0.37737,-0.37731 v -9.60936 -0.37775 c 0,-0.93817 0.5704,-1.74366 1.38454,-2.08632 l 5.58183,-2.32524 C 38.7119,27.04112 38.90652,27 39.11208,27 c 0.83358,0 1.5101,0.67612 1.5101,1.50969 v 10.56558 c -6e-5,0.93816 -0.57339,1.74369 -1.38778,2.08743 z"
     id="path806-7"
     style="fill:#002d3c;fill-opacity:1;stroke-width:0.0471659" />
</svg>
