<?xml version="1.0" encoding="UTF-8" standalone="no"?>
<svg
   viewBox="0 0 64 64"
   version="1.1"
   id="svg12"
   sodipodi:docname="folder-Arch.svg"
   inkscape:version="1.2.1 (9c6d41e410, 2022-07-14)"
   xmlns:inkscape="http://www.inkscape.org/namespaces/inkscape"
   xmlns:sodipodi="http://sodipodi.sourceforge.net/DTD/sodipodi-0.dtd"
   xmlns:xlink="http://www.w3.org/1999/xlink"
   xmlns="http://www.w3.org/2000/svg"
   xmlns:svg="http://www.w3.org/2000/svg"
   xmlns:rdf="http://www.w3.org/1999/02/22-rdf-syntax-ns#"
   xmlns:cc="http://creativecommons.org/ns#"
   xmlns:dc="http://purl.org/dc/elements/1.1/">
  <metadata
     id="metadata16">
    <rdf:RDF>
      <cc:Work
         rdf:about="">
        <dc:format>image/svg+xml</dc:format>
        <dc:type
           rdf:resource="http://purl.org/dc/dcmitype/StillImage" />
      </cc:Work>
    </rdf:RDF>
  </metadata>
  <sodipodi:namedview
     pagecolor="#ffffff"
     bordercolor="#666666"
     borderopacity="1"
     objecttolerance="10"
     gridtolerance="10"
     guidetolerance="10"
     inkscape:pageopacity="0"
     inkscape:pageshadow="2"
     inkscape:window-width="1920"
     inkscape:window-height="1000"
     id="namedview14"
     showgrid="false"
     inkscape:zoom="5.2149125"
     inkscape:cx="47.555927"
     inkscape:cy="39.214464"
     inkscape:window-x="0"
     inkscape:window-y="0"
     inkscape:window-maximized="1"
     inkscape:current-layer="svg12"
     inkscape:showpageshadow="2"
     inkscape:pagecheckerboard="0"
     inkscape:deskcolor="#d1d1d1">
    <inkscape:grid
       type="xygrid"
       id="grid2873" />
  </sodipodi:namedview>
  <defs
     id="defs3051">
    <style
       type="text/css"
       id="current-color-scheme">.ColorScheme-Text { color:#31363b; }
.ColorScheme-Background { color:#eff0f1; }
.ColorScheme-Highlight { color:#3daee9; }
.ColorScheme-ViewText { color:#31363b; }
.ColorScheme-ViewBackground { color:#fcfcfc; }
.ColorScheme-ViewHover { color:#93cee9; }
.ColorScheme-ViewFocus { color:#3daee9; }
.ColorScheme-ButtonText { color:#31363b; }
.ColorScheme-ButtonBackground { color:#eff0f1; }
.ColorScheme-ButtonHover { color:#93cee9; }
.ColorScheme-ButtonFocus { color:#3daee9; }
</style>
    <linearGradient
       inkscape:collect="always"
       id="linearGradient4393">
      <stop
         style="stop-color:#000000;stop-opacity:1;"
         offset="0"
         id="stop4395" />
      <stop
         style="stop-color:#000000;stop-opacity:0;"
         offset="1"
         id="stop4397" />
    </linearGradient>
    <linearGradient
       inkscape:collect="always"
       xlink:href="#linearGradient4393"
       id="linearGradient668"
       gradientUnits="userSpaceOnUse"
       gradientTransform="matrix(3.6204685,0,0,3.4670854,3.00004,-3590.6227)"
       x1="5"
       y1="1037.3622"
       x2="8"
       y2="1051.3622" />
  </defs>
  <path
     inkscape:connector-curvature="0"
     style="fill:currentColor;fill-opacity:1;stroke-width:3.54293"
     id="rect4180-6-7"
     d="m 4,32 h 55.999586 l 4.1e-4,-18.6 c 0,-2 -2.1,-3.9 -4.1,-3.9 L 31.999786,9.46667 28.374806,6 H 7.99997 C 5.999985,6 4,8 4,10 Z"
     sodipodi:nodetypes="ccccccccc"
     class="ColorScheme-Highlight" />
  <path
     inkscape:connector-curvature="0"
     style="fill:#a1b4ba;fill-opacity:1;stroke-width:3.54294"
     d="m 3,23 c 0,-11.262012 0,2.953607 0,3.93041 V 54 c 0,2 2,4 4,4 h 49.999996 c 2,0 4,-2 4,-4 V 20 c 0,-1 -1,-2 -2,-2 h -34 L 20,22 H 4 c -1,0 -1,1 -1,1 z"
     id="rect4113-2-5"
     sodipodi:nodetypes="cccscccccccc" />
  <path
     inkscape:connector-curvature="0"
     style="opacity:0.3;fill:#0f608a;fill-opacity:1;fill-rule:evenodd;stroke-width:1.77147"
     id="path4224-9-3"
     d="m 4,22 v 0 h 2 14 l 4.999996,-4 v 0 L 19.4,21 H 5.018103 C 4,21 4,22 4,22 Z"
     sodipodi:nodetypes="ccccccccc" />
  <path
     inkscape:connector-curvature="0"
     style="color:#31363b;opacity:0.3;fill:#ffffff;fill-opacity:1;fill-rule:evenodd;stroke-width:3.54294"
     id="path4196-3-5"
     d="m 28.374956,6 3.62506,5.5 h 27.34998 c -0.33,-0.5 -1.35,-2 -3.75,-2 L 31.999966,9.46774 Z"
     sodipodi:nodetypes="cccccc"
     class="ColorScheme-Text" />
  <path
     style="color:#000000;clip-rule:nonzero;display:inline;overflow:visible;visibility:visible;opacity:0.2;isolation:auto;mix-blend-mode:normal;color-interpolation:sRGB;color-interpolation-filters:linearRGB;solid-color:#000000;solid-opacity:1;fill:#000000;fill-opacity:1;fill-rule:nonzero;stroke:none;stroke-width:3.54294;stroke-linecap:butt;stroke-linejoin:miter;stroke-miterlimit:4;stroke-dasharray:none;stroke-dashoffset:0;stroke-opacity:1;marker:none;color-rendering:auto;image-rendering:auto;shape-rendering:auto;text-rendering:auto;enable-background:accumulate"
     d="M 3,51.11291 V 54 c 0,2 2,4 4,4 h 49.999996 c 2,0 4,-2 4,-4 l -0.009,-2.82577 c -0.024,1.78743 -1.88271,3.39324 -3.69826,3.35853 H 6.64205 c -1.80475,0 -3.64147,-1.66854 -3.64147,-3.41985 z"
     id="path9304-6"
     inkscape:connector-curvature="0"
     sodipodi:nodetypes="cssccccscc" />
  <path
     style="opacity:0.181;fill:url(#linearGradient668);fill-opacity:1;fill-rule:evenodd;stroke:none;stroke-width:3.54294px;stroke-linecap:butt;stroke-linejoin:miter;stroke-opacity:1"
     d="m 3,27 28.963736,27.53972 h 28.96374 L 60.999976,27 Z"
     id="path4152-2"
     inkscape:connector-curvature="0"
     sodipodi:nodetypes="ccccc" />
  <g
     id="start-here-kde-5"
     transform="matrix(0.12037189,0,0,0.12034545,21.166521,26.168466)"
     inkscape:label="#start-here-kde"
     style="fill:#002d3c;fill-opacity:1">
    <g
       id="22-22-start-here-kde-3-7-2-3"
       style="fill:#002d3c;fill-opacity:1">
      <g
         transform="translate(-50.6,-139.51)"
         id="g6-5-9-5"
         style="fill:#002d3c;fill-opacity:1">
        <g
           transform="matrix(0.87464,0,0,0.87464,14.731,23.409)"
           id="g4-3-1-6"
           style="fill:#002d3c;fill-opacity:1">
          <path
             transform="matrix(1.1433,0,0,1.1433,22.92,121.64)"
             d="M 105.81,16.625 C 98.4131,34.76 93.952,46.623 85.716,64.219 90.7654,69.5713 96.963,75.804 107.028,82.844 96.207,78.3912 88.825,73.9206 83.309,69.282 c -10.54,21.993 -27.053,53.321 -60.562,113.53 26.338,-15.205 46.754,-24.579 65.781,-28.156 -0.81703,-3.514 -1.2816,-7.3152 -1.25,-11.281 l 0.03125,-0.84375 c 0.41792,-16.874 9.1957,-29.85 19.594,-28.969 10.398,0.88104 18.48,15.282 18.062,32.156 -0.0786,3.1751 -0.43674,6.2296 -1.0625,9.0625 18.821,3.6816 39.019,13.032 65,28.031 -5.123,-9.4318 -9.6957,-17.934 -14.062,-26.031 -6.8784,-5.3312 -14.053,-12.27 -28.688,-19.781 10.059,2.6138 17.261,5.6293 22.875,9 -44.398,-82.662 -47.994,-93.646 -63.219,-129.38 z"
             id="path2-5-2-2"
             style="fill:#002d3c;fill-opacity:1" />
        </g>
      </g>
    </g>
  </g>
</svg>
