<?xml version="1.0" encoding="UTF-8" standalone="no"?>
<svg
   viewBox="0 0 32 32"
   version="1.1"
   id="svg1"
   sodipodi:docname="media-playback-pause.svg"
   width="32"
   height="32"
   inkscape:version="1.4.2 (unknown)"
   xmlns:inkscape="http://www.inkscape.org/namespaces/inkscape"
   xmlns:sodipodi="http://sodipodi.sourceforge.net/DTD/sodipodi-0.dtd"
   xmlns="http://www.w3.org/2000/svg"
   xmlns:svg="http://www.w3.org/2000/svg">
  <sodipodi:namedview
     id="namedview1"
     pagecolor="#ffffff"
     bordercolor="#000000"
     borderopacity="0.25"
     inkscape:showpageshadow="2"
     inkscape:pageopacity="0.0"
     inkscape:pagecheckerboard="0"
     inkscape:deskcolor="#d1d1d1"
     inkscape:zoom="11.984375"
     inkscape:cx="15.645372"
     inkscape:cy="22.571056"
     inkscape:window-width="1920"
     inkscape:window-height="994"
     inkscape:window-x="0"
     inkscape:window-y="0"
     inkscape:window-maximized="1"
     inkscape:current-layer="svg1" />
  <defs
     id="defs1">
    <style
       type="text/css"
       id="style1">.ColorScheme-Text {
        color:#d8dee9;
      }</style>
  </defs>
  <g
     id="media-playback-pause-3"
     style="fill:#d3dae3;fill-opacity:1">
    <path
       inkscape:connector-curvature="0"
       id="path83"
       style="opacity:1;fill:#d3dae3;fill-opacity:1;stroke-width:1.2"
       d="M 16,4 C 9.372584,4 4,9.372584 4,16 4,22.627416 9.372584,28 16,28 22.627416,28 28,22.627416 28,16 28,9.372584 22.627416,4 16,4 Z m -4.2,6 c 0.9972,0 1.8,0.8028 1.8,1.8 v 8.4 C 13.6,21.1972 12.7972,22 11.8,22 10.8028,22 10,21.1972 10,20.2 V 11.8 C 10,10.8028 10.8028,10 11.8,10 Z m 8.4,0 c 0.9972,0 1.8,0.8028 1.8,1.8 v 8.4 c 0,0.9972 -0.8028,1.8 -1.8,1.8 -0.9972,0 -1.8,-0.8028 -1.8,-1.8 v -8.4 c 0,-0.9972 0.8028,-1.8 1.8,-1.8 z" />
  </g>
</svg>
