<?xml version="1.0" encoding="UTF-8" standalone="no"?>
<svg
   viewBox="0 0 32 32"
   version="1.1"
   id="svg1"
   sodipodi:docname="media-playback-start.svg"
   width="32"
   height="32"
   inkscape:version="1.4.2 (unknown)"
   xmlns:inkscape="http://www.inkscape.org/namespaces/inkscape"
   xmlns:sodipodi="http://sodipodi.sourceforge.net/DTD/sodipodi-0.dtd"
   xmlns="http://www.w3.org/2000/svg"
   xmlns:svg="http://www.w3.org/2000/svg">
  <sodipodi:namedview
     id="namedview1"
     pagecolor="#ffffff"
     bordercolor="#000000"
     borderopacity="0.25"
     inkscape:showpageshadow="2"
     inkscape:pageopacity="0.0"
     inkscape:pagecheckerboard="0"
     inkscape:deskcolor="#d1d1d1"
     inkscape:zoom="11.984375"
     inkscape:cx="15.895698"
     inkscape:cy="20.65189"
     inkscape:window-width="1920"
     inkscape:window-height="994"
     inkscape:window-x="0"
     inkscape:window-y="0"
     inkscape:window-maximized="1"
     inkscape:current-layer="svg1" />
  <defs
     id="defs1">
    <style
       type="text/css"
       id="style1">.ColorScheme-Text {
        color:#d8dee9;
      }</style>
  </defs>
  <g
     id="media-playback-playing"
     transform="matrix(1.6,0,0,1.6,0,51.2)"
     style="fill:#d3dae3;fill-opacity:1">
    <path
       inkscape:connector-curvature="0"
       id="path187"
       d="M 10,-29.5 A 7.5,7.5 0 0 0 2.5,-22 7.5,7.5 0 0 0 10,-14.5 7.5,7.5 0 0 0 17.5,-22 7.5,7.5 0 0 0 10,-29.5 Z m -2.02002,3.001475 a 1.0229251,1.0386719 0 0 1 0.5844732,0.156741 l 2.7275328,1.729977 2.72755,1.731437 a 1.0229251,1.0386719 0 0 1 0,1.76074 l -2.72755,1.731437 -2.7275327,1.729977 A 1.0229251,1.0386719 0 0 1 7,-18.538586 v -6.922828 a 1.0229251,1.0386719 0 0 1 0.97998,-1.037111 z"
       style="fill:#d3dae3;fill-opacity:1;stroke-width:0.75" />
  </g>
</svg>
