<?xml version="1.0" encoding="UTF-8" standalone="no"?>
<svg
   viewBox="0 0 32 32"
   version="1.1"
   id="svg1"
   sodipodi:docname="media-playback-stop.svg"
   width="32"
   height="32"
   inkscape:version="1.4.2 (unknown)"
   xmlns:inkscape="http://www.inkscape.org/namespaces/inkscape"
   xmlns:sodipodi="http://sodipodi.sourceforge.net/DTD/sodipodi-0.dtd"
   xmlns="http://www.w3.org/2000/svg"
   xmlns:svg="http://www.w3.org/2000/svg">
  <sodipodi:namedview
     id="namedview1"
     pagecolor="#ffffff"
     bordercolor="#000000"
     borderopacity="0.25"
     inkscape:showpageshadow="2"
     inkscape:pageopacity="0.0"
     inkscape:pagecheckerboard="0"
     inkscape:deskcolor="#d1d1d1"
     inkscape:zoom="11.984375"
     inkscape:cx="15.603651"
     inkscape:cy="22.32073"
     inkscape:window-width="1920"
     inkscape:window-height="994"
     inkscape:window-x="0"
     inkscape:window-y="0"
     inkscape:window-maximized="1"
     inkscape:current-layer="svg1" />
  <defs
     id="defs1">
    <style
       type="text/css"
       id="style1">.ColorScheme-Text {
        color:#d8dee9;
      }</style>
  </defs>
  <g
     id="media-playback-stopped"
     style="fill:#d3dae3;fill-opacity:1"
     transform="matrix(1.6,0,0,1.6,-192,0)">
    <path
       inkscape:connector-curvature="0"
       id="path213"
       d="M 130,2.5 A 7.5,7.5 0 0 0 122.5,10 7.5,7.5 0 0 0 130,17.5 7.5,7.5 0 0 0 137.5,10 7.5,7.5 0 0 0 130,2.5 Z m -3,3.75 h 0.75 5.25 c 0.41552,0 0.75,0.3345 0.75,0.75 v 3 3 c 0,0.4155 -0.33448,0.75 -0.75,0.75 H 127.75 127 c -0.41552,0 -0.75,-0.3345 -0.75,-0.75 V 7 c 0,-0.4155 0.33448,-0.75 0.75,-0.75 z"
       style="fill:#d3dae3;fill-opacity:1;stroke-width:0.75" />
  </g>
</svg>
