<?xml version="1.0" encoding="UTF-8" standalone="no"?>
<svg
   width="32"
   height="32"
   version="1.1"
   id="svg12"
   sodipodi:docname="akregator.svg"
   inkscape:version="1.2.1 (9c6d41e410, 2022-07-14)"
   xmlns:inkscape="http://www.inkscape.org/namespaces/inkscape"
   xmlns:sodipodi="http://sodipodi.sourceforge.net/DTD/sodipodi-0.dtd"
   xmlns:xlink="http://www.w3.org/1999/xlink"
   xmlns="http://www.w3.org/2000/svg"
   xmlns:svg="http://www.w3.org/2000/svg"
   xmlns:rdf="http://www.w3.org/1999/02/22-rdf-syntax-ns#"
   xmlns:cc="http://creativecommons.org/ns#"
   xmlns:dc="http://purl.org/dc/elements/1.1/">
  <style
     id="current-color-scheme"
     type="text/css">.ColorScheme-Text { color:#d1d5e9; }
</style>
  <metadata
     id="metadata18">
    <rdf:RDF>
      <cc:Work
         rdf:about="">
        <dc:format>image/svg+xml</dc:format>
        <dc:type
           rdf:resource="http://purl.org/dc/dcmitype/StillImage" />
      </cc:Work>
    </rdf:RDF>
  </metadata>
  <defs
     id="defs16">
    <linearGradient
       inkscape:collect="always"
       xlink:href="#linearGradient855"
       id="linearGradient873"
       x1="3.0619521"
       y1="16.631489"
       x2="8.1415768"
       y2="16.631489"
       gradientUnits="userSpaceOnUse"
       gradientTransform="matrix(1.3750003,0,0,1.3750003,-31.210187,-9.3848437)" />
    <linearGradient
       inkscape:collect="always"
       id="linearGradient855">
      <stop
         style="stop-color:#00cccc;stop-opacity:1"
         offset="0"
         id="stop851" />
      <stop
         style="stop-color:#008080;stop-opacity:1"
         offset="1"
         id="stop853" />
    </linearGradient>
  </defs>
  <sodipodi:namedview
     pagecolor="#cccccc"
     bordercolor="#000000"
     borderopacity="1"
     objecttolerance="10"
     gridtolerance="10"
     guidetolerance="10"
     inkscape:pageopacity="0"
     inkscape:pageshadow="2"
     inkscape:window-width="1920"
     inkscape:window-height="1008"
     id="namedview14"
     showgrid="false"
     inkscape:zoom="9.8125"
     inkscape:cx="21.299363"
     inkscape:cy="7.0828025"
     inkscape:window-x="0"
     inkscape:window-y="0"
     inkscape:window-maximized="1"
     inkscape:current-layer="svg12"
     inkscape:document-rotation="0"
     inkscape:showpageshadow="2"
     inkscape:pagecheckerboard="0"
     inkscape:deskcolor="#808080">
    <inkscape:grid
       type="xygrid"
       id="grid894"
       originx="0"
       originy="-1.3897705e-07" />
  </sodipodi:namedview>
  <g
     id="akregator"
     style="fill:#d1d5e9;fill-opacity:1">
    <g
       id="g893"
       style="fill:#d1d5e9;fill-opacity:1">
      <g
         id="g884"
         style="fill:#d1d5e9;fill-opacity:1">
        <rect
           style="opacity:0.00100002;fill:#d1d5e9;fill-opacity:1"
           width="32"
           height="32"
           x="0"
           y="1.3897704e-07"
           id="rect7" />
        <path
           style="stroke-width:0.042968;fill-opacity:1;fill:currentColor;"
           id="path2"
           d="M 8.492415,19.990894 C 6.566683,19.990894 5,21.55775 5,23.483739 c 0,1.925642 1.566683,3.492283 3.492415,3.492283 1.925549,0 3.492073,-1.566641 3.492073,-3.492283 4.8e-5,-1.925989 -1.566524,-3.492845 -3.492073,-3.492845 z m 0,6.108609 c -1.44246,0 -2.615938,-1.173434 -2.615938,-2.615808 0,-1.442675 1.173478,-2.616325 2.615938,-2.616325 1.442283,0 2.615595,1.173735 2.615595,2.616325 0,1.442331 -1.173349,2.615808 -2.615595,2.615808 z"
           class="ColorScheme-Text" />
        <path
           style="stroke-width:0.042968;fill-opacity:1;fill:currentColor;"
           id="path8"
           d="m 5.781817,11.945171 c -0.429469,0 -0.778943,0.349416 -0.778943,0.778938 v 3.918617 c 2.16e-4,0.42943 0.349638,0.778809 0.779022,0.778809 2.333081,0 4.527329,0.912657 6.178362,2.569531 1.651962,1.660612 2.561751,3.872043 2.561751,6.226902 0,0.429474 0.34941,0.778937 0.778891,0.778937 h 3.917113 c 0.429469,0 0.778942,-0.34942 0.778942,-0.778937 8.1e-5,-7.870026 -6.376868,-14.272797 -14.215138,-14.272797 z m 9.616242,14.175257 C 15.373229,23.568816 14.375306,21.175886 12.58141,19.372574 10.787371,17.572226 8.410728,16.570496 5.879351,16.545489 v -3.723508 c 7.27831,0.05232 13.188832,5.988734 13.24091,13.298491 h -3.722202 z"
           class="ColorScheme-Text" />
        <path
           style="stroke-width:0.042968;fill-opacity:1;fill:currentColor;"
           id="path14"
           d="m 5.787228,5.0000003 c -0.429554,0 -0.779022,0.349458 -0.778886,0.778943 v 3.917761 c 0,0.4294697 0.34941,0.7789277 0.778938,0.7789277 8.632971,0 15.656423,7.063422 15.656423,15.745431 0,0.429472 0.349428,0.778937 0.778949,0.778937 h 3.916078 c 0.429428,0 0.778902,-0.349465 0.778902,-0.778937 C 26.917586,14.519723 17.438559,5.0000003 5.787228,5.0000003 Z M 22.319797,26.123522 C 22.267707,17.035161 14.92441,9.6518035 5.884683,9.5994145 V 5.8767303 c 11.090448,0.05302 20.103275,9.1067127 20.156167,20.2467917 z"
           class="ColorScheme-Text" />
      </g>
    </g>
  </g>
  <g
     id="22-22-akregator"
     style="fill:#d1d5e9;fill-opacity:1">
    <rect
       style="opacity:0.00100002;fill:#d1d5e9;fill-opacity:1"
       width="22"
       height="22"
       x="32"
       y="10.000006"
       id="rect2" />
    <path
       style="stroke-width:0.0292965;fill-opacity:1;fill:currentColor;"
       id="path2-2"
       d="m 37.881198,23.721064 c -1.313007,0 -2.381198,1.068322 -2.381198,2.381488 0,1.312937 1.068191,2.381103 2.381198,2.381103 1.312867,0 2.380957,-1.068166 2.380957,-2.381103 3e-5,-1.313166 -1.06809,-2.381488 -2.380957,-2.381488 z m 0,4.164969 c -0.983503,0 -1.783601,-0.800071 -1.783601,-1.783508 0,-0.983649 0.800098,-1.783865 1.783601,-1.783865 0.983367,0 1.783359,0.800281 1.783359,1.783865 0,0.983409 -0.800018,1.783508 -1.783359,1.783508 z"
       class="ColorScheme-Text" />
    <path
       style="stroke-width:0.0292965;fill-opacity:1;fill:currentColor;"
       id="path8-9"
       d="m 36.033059,18.235344 c -0.292818,0 -0.531096,0.238239 -0.531096,0.531101 v 2.671775 c 1.47e-4,0.292796 0.238382,0.531 0.53115,0.531 1.590734,0 3.086818,0.622275 4.212504,1.751962 1.12635,1.132236 1.746664,2.640027 1.746664,4.245612 0,0.292825 0.238233,0.531096 0.531057,0.531096 h 2.670758 c 0.292837,0 0.531099,-0.238233 0.531099,-0.531096 5.4e-5,-5.365924 -4.347865,-9.73145 -9.692136,-9.73145 z m 6.556526,9.664947 C 42.572675,26.160562 41.892256,24.52902 40.66914,23.299488 39.445933,22.07197 37.825491,21.388972 36.099561,21.37192 v -2.53875 c 4.962478,0.03572 8.99238,4.083228 9.02789,9.067152 h -2.537866 z"
       class="ColorScheme-Text" />
    <path
       style="stroke-width:0.0292965;fill-opacity:1;fill:currentColor;"
       id="path14-1"
       d="m 36.036741,13.500003 c -0.29287,0 -0.53115,0.238265 -0.531054,0.5311 v 2.671201 c 0,0.29282 0.238232,0.531082 0.531096,0.531082 5.886111,0 10.674832,4.815976 10.674832,10.735517 0,0.292833 0.238243,0.5311 0.531104,0.5311 h 2.67005 c 0.292794,0 0.531076,-0.238267 0.531076,-0.5311 -4.2e-5,-7.978167 -6.46301,-14.4689 -14.407104,-14.4689 z M 47.30895,27.902405 C 47.27342,21.705792 42.26664,16.671689 36.103191,16.635964 v -2.538192 c 7.561667,0.03616 13.706784,6.209122 13.742842,13.804633 z"
       class="ColorScheme-Text" />
  </g>
</svg>
