<?xml version="1.0" encoding="UTF-8" standalone="no"?>
<svg
   width="32"
   height="32"
   version="1.1"
   id="svg78"
   sodipodi:docname="disk.svg"
   inkscape:version="1.2.1 (9c6d41e410, 2022-07-14)"
   xmlns:inkscape="http://www.inkscape.org/namespaces/inkscape"
   xmlns:sodipodi="http://sodipodi.sourceforge.net/DTD/sodipodi-0.dtd"
   xmlns="http://www.w3.org/2000/svg"
   xmlns:svg="http://www.w3.org/2000/svg">
  <sodipodi:namedview
     id="namedview80"
     pagecolor="#ffffff"
     bordercolor="#000000"
     borderopacity="1"
     inkscape:pageshadow="2"
     inkscape:pageopacity="0.0"
     inkscape:pagecheckerboard="0"
     showgrid="false"
     inkscape:zoom="5.6568542"
     inkscape:cx="72.301669"
     inkscape:cy="21.655145"
     inkscape:window-width="1920"
     inkscape:window-height="1008"
     inkscape:window-x="0"
     inkscape:window-y="0"
     inkscape:window-maximized="1"
     inkscape:current-layer="svg78"
     inkscape:lockguides="true"
     inkscape:showpageshadow="2"
     inkscape:deskcolor="#cccccc">
    <inkscape:grid
       type="xygrid"
       id="grid1005"
       originx="0"
       originy="0" />
  </sodipodi:namedview>
  <defs
     id="l4k1">
    <style
       id="current-color-scheme"
       type="text/css">.ColorScheme-Background { color:#181818; }
.ColorScheme-ButtonBackground { color:#343434; }
.ColorScheme-Highlight { color:#4285f4; }
.ColorScheme-Text { 
    color:#d1d5e9;
}
.ColorScheme-ViewBackground { color:#242424; }
.ColorScheme-NegativeText { color:#f44336; }
.ColorScheme-PositiveText { color:#4caf50; }
.ColorScheme-NeutralText { color:#ff9800; }
</style>
  </defs>
  <g
     transform="matrix(1.5,0,0,1.5,132,4.0003)"
     id="g75" />
  <g
     id="disk-quota"
     style="fill:#d6dbf1;fill-opacity:1">
    <rect
       style="opacity:0.00100002;fill:#d6dbf1;fill-opacity:1"
       width="32"
       height="32"
       x="0"
       y="0"
       id="rect41" />
    <path
       id="icon_23_"
       style="stroke-width:1;fill-opacity:1;fill:currentColor;stroke-dasharray:none"
       d="M 23.816159,4 H 8.1853445 C 7.5316442,4 7,4.2820696 7,5.1347403 V 9.6263642 C 7,10.479035 7.5316442,11 8.1853445,11 H 23.816159 c 0.652258,0 1.183842,-0.520965 1.183842,-1.3736358 V 5.1347403 C 25.000001,4.2820696 24.468417,4 23.816159,4 Z M 24,10 H 8 V 5 H 24 Z M 19,8 V 6 6 h 3 v 0 2 0 z m 4.816159,5 H 8.1853445 C 7.5316442,13 7,12.902038 7,13.756675 V 18.24531 C 7,19.096958 7.5316442,19 8.1853445,19 H 23.816159 c 0.652258,0 1.183842,0.097 1.183842,-0.75469 V 13.971 C 25.000001,13.116323 24.468417,13 23.816159,13 Z M 24,18 H 8 V 14 H 24 Z M 18.987798,14.999349 19,15 v 0 l 2.991474,-0.0052 0.01911,1.991578 L 22,17 22.024626,16.971529 19,17 V 15 Z M 23.81616,21 H 8.1853445 C 7.5316442,21 7,21 7,22 v 4.864353 c 0,0.853576 0.5316442,1.135644 1.1853445,1.135644 H 23.816159 c 0.652258,0 1.183842,-0.282029 1.183842,-1.135644 L 25,21.977937 C 25,21 24.468417,21 23.816159,21 Z M 24,27 H 8 V 22 H 24 Z M 19.002979,23.947605 19,23 h 1 1 1 v 2 0 h -3 v 0 z"
       sodipodi:nodetypes="ssssssssscccccccccccccssssssssscccccsccccccccsccssssssscssccssccccccccs"
       class="ColorScheme-Text" />
  </g>
  <g
     id="22-22-disk-quota"
     transform="translate(0,-22)"
     style="fill:#d6dbf1;fill-opacity:1">
    <rect
       style="opacity:0.00100002;fill:#d6dbf1;fill-opacity:1"
       width="22"
       height="22"
       x="0"
       y="0"
       id="rect4" />
    <path
       id="icon_23_-7"
       style="stroke-width:1;fill-opacity:1;fill:currentColor;stroke-dasharray:none"
       d="M 16.210775,3 H 5.79023 C 5.35443,3 5,3.188047 5,3.756493 v 3.2354572 c 0,0.568447 0,1.0413421 1.0115232,1.0383382 L 16.210775,8 C 17,7.9976563 17,7.5751337 17,7.0066867 l 2e-6,-3.2501937 C 17.000002,3.188047 16.645615,3 16.210775,3 Z M 16,7 H 6 V 4 H 16 Z M 13,5 v 0 0 h 2 v 0 0 1 h -2 z m 3.210785,4 H 5.79 C 5.3542,9 5.00001,8.934693 5.00001,9.504451 v 2.992424 c 0,0.567765 0.5645007,0.503138 1.0003007,0.503125 L 16,12.999695 c 0.43484,-1.3e-5 1.000012,0.06497 1.000012,-0.50282 V 9.780631 C 17.000012,9.210846 16.645625,9 16.210785,9 Z M 16,12 H 6 v -2 h 10 z m 0,0 v 0 0 -2 0 z m 0.07962,2 H 5.992089 C 5.201849,14 4.9999956,13.999906 5,14.769701 l 2e-5,3.473203 C 5.0000233,18.811955 5.35444,19 5.79024,19 h 10.420555 c 0.43484,0 0.789231,-0.188019 0.789227,-0.757096 L 17,14.799486 C 16.999995,13.999996 16.514462,14 16.079622,14 Z M 16,18 H 6 v -3 h 10 z m -3,-1 v -1 c 0,0 0.458463,-0.0025 0.59694,0 L 15.029316,16.02619 15,16 v 1 0 h -1 z"
       sodipodi:nodetypes="sssssssssccccccccccccccsssssssssccccccccccccccssssssssscccccccscccccc"
       class="ColorScheme-Text" />
  </g>
  <g
     id="disk-quota-high"
     transform="translate(128)">
    <rect
       style="opacity:0.00100002"
       width="32"
       height="32"
       x="-64"
       y="0"
       id="rect55" />
    <path
       id="icon_23_-2"
       style="fill:#ff9955;fill-opacity:1;stroke-width:1;stroke-dasharray:none"
       d="M -40.183841,4 H -55.814656 C -56.468356,4 -57,4.28207 -57,5.13474 V 9.626364 C -57,10.479035 -56.468356,11 -55.814656,11 h 15.630815 c 0.652258,0 1.183842,-0.520965 1.183842,-1.373636 V 5.13474 C -38.999999,4.28207 -39.531583,4 -40.183841,4 Z M -40,10 H -56 V 5 h 16 z M -45,8 V 6 6 h 3 v 0 2 0 z m 4.816159,5 H -55.814656 C -56.468356,13 -57,12.90204 -57,13.756675 V 18.24531 C -57,19.09696 -56.468356,19 -55.814656,19 h 15.630815 c 0.652258,0 1.183842,0.097 1.183842,-0.75469 V 13.971 c 0,-0.854677 -0.531584,-0.971 -1.183842,-0.971 z M -40,18 h -16 v -4 h 16 z m -5.012202,-3.000651 0.0122,6.51e-4 v 0 l 2.991474,-0.0052 0.01911,1.991578 -0.01058,0.01362 0.02463,-0.02847 -3.024626,0.02847 v -2 z M -40.18384,21 H -55.814656 C -56.468356,21 -57,21 -57,22 v 4.86435 C -57,27.71793 -56.468356,28 -55.814656,28 h 15.630815 c 0.652258,0 1.183842,-0.28203 1.183842,-1.13565 L -39,21.97794 C -39,21 -39.531583,21 -40.183841,21 Z M -40,27 h -16 v -5 h 16 z M -44.997021,23.94761 -45.000021,23 h 1 1 1 v 2 0 h -3 v 0 z"
       sodipodi:nodetypes="ssssssssscccccccccccccssssssssscccccsccccccccsccssssssscssccssccccccccs" />
  </g>
  <g
     id="disk-quota-low"
     transform="translate(128)">
    <rect
       style="opacity:0.00100002"
       width="32"
       height="32"
       x="-96"
       y="0"
       id="rect48" />
    <path
       id="icon_23_-75"
       style="fill:#5f8dd3;fill-opacity:1;stroke-width:1;stroke-dasharray:none"
       d="M -72.183841,4 H -87.814656 C -88.468356,4 -89,4.28207 -89,5.13474 V 9.626364 C -89,10.479035 -88.468356,11 -87.814656,11 h 15.630815 c 0.652258,0 1.183842,-0.520965 1.183842,-1.373636 V 5.13474 C -70.999999,4.28207 -71.531583,4 -72.183841,4 Z M -72,10 H -88 V 5 h 16 z M -77,8 V 6 6 h 3 v 0 2 0 z m 4.816159,5 H -87.814656 C -88.468356,13 -89,12.902038 -89,13.756675 V 18.24531 C -89,19.096958 -88.468356,19 -87.814656,19 h 15.630815 c 0.652258,0 1.183842,0.097 1.183842,-0.75469 V 13.971 c 0,-0.854677 -0.531584,-0.971 -1.183842,-0.971 z M -72,18 h -16 v -4 h 16 z M -77.012202,14.999349 -77,15 v 0 l 2.991474,-0.0052 0.01911,1.991578 L -74,17 -73.975374,16.971529 -77,17 V 15 Z M -72.18384,21 H -87.814656 C -88.468356,21 -89,21 -89,22 v 4.864353 c 0,0.853576 0.531644,1.135644 1.185344,1.135644 h 15.630815 c 0.652258,0 1.183842,-0.282029 1.183842,-1.135644 L -71,21.977937 C -71,21 -71.531583,21 -72.183841,21 Z M -72,27 h -16 v -5 h 16 z M -76.997021,23.947605 -77,23 h 1 1 1 v 2 0 h -3 v 0 z"
       sodipodi:nodetypes="ssssssssscccccccccccccssssssssscccccsccccccccsccssssssscssccssccccccccs" />
  </g>
  <g
     id="disk-quota-critical"
     transform="translate(128)">
    <rect
       style="opacity:0.00100002"
       width="32"
       height="32"
       x="-32"
       y="0"
       id="rect64" />
    <path
       id="icon_23_-27"
       style="fill:#bf616a;fill-opacity:1;stroke-width:1;stroke-dasharray:none"
       d="M -8.18384,4 H -23.81466 C -24.46836,4 -25,4.28207 -25,5.13474 V 9.626364 C -25,10.479035 -24.46836,11 -23.81466,11 H -8.18384 C -7.53158,11 -7,10.479035 -7,9.626364 V 5.13474 C -7,4.28207 -7.53158,4 -8.18384,4 Z M -8,10 H -24 V 5 H -8 Z M -13,8 V 6 6 h 3 v 0 2 0 z m 4.81616,5 H -23.81466 C -24.46836,13 -25,12.902038 -25,13.756675 V 18.24531 C -25,19.096958 -24.46836,19 -23.81466,19 H -8.18384 C -7.53158,19 -7,19.097 -7,18.24531 V 13.971 C -7,13.116323 -7.53158,13 -8.18384,13 Z M -8,18 H -24 V 14 H -8 Z M -13.0122,14.999349 -13,15 v 0 l 2.99147,-0.0052 0.0191,1.991578 L -10,17 -9.97537,16.971529 -13,17 V 15 Z M -8.18384,21 H -23.81466 C -24.46836,21 -25,21 -25,22 v 4.864353 c 0,0.853576 0.53164,1.135644 1.18534,1.135644 H -8.18384 C -7.53158,27.999997 -7,27.717968 -7,26.864353 V 21.977937 C -7,21 -7.53158,21 -8.18384,21 Z M -8,27 H -24 V 22 H -8 Z M -12.99702,23.947605 -13,23 h 1 1 1 v 2 0 h -3 v 0 z"
       sodipodi:nodetypes="ssssssssscccccccccccccssssssssscccccsccccccccsccssssssscssccssccccccccs" />
  </g>
  <g
     id="disk-quota-missing"
     transform="translate(128)"
     style="fill:#d6dbf1;fill-opacity:0.44999999">
    <rect
       style="opacity:0.00100002;fill:#d6dbf1;fill-opacity:0.44999999"
       width="32"
       height="32"
       x="0"
       y="0"
       id="rect71" />
    <path
       id="icon_23_-9"
       style="stroke-width:1;fill-opacity:0.44999999;fill:currentColor;stroke-dasharray:none"
       d="M 23.81616,4 H 8.18534 C 7.53164,4 7,4.28207 7,5.13474 V 9.626364 C 7,10.479035 7.53164,11 8.18534,11 H 23.81616 C 24.46842,11 25,10.479035 25,9.626364 V 5.13474 C 25,4.28207 24.46842,4 23.81616,4 Z M 24,10 H 8 V 5 H 24 Z M 19,8 V 6 6 h 3 v 0 2 0 z m 4.81616,5 H 8.18534 C 7.53164,13 7,12.90204 7,13.756675 V 18.24531 C 7,19.096958 7.53164,19 8.18534,19 H 23.81616 C 24.46842,19 25,19.097 25,18.24531 V 13.971 C 25,13.116323 24.46842,13 23.81616,13 Z M 24,18 H 8 V 14 H 24 Z M 18.9878,14.999349 19,15 v 0 l 2.99147,-0.0052 0.0191,1.991578 L 22,16.999998 22.02463,16.971528 19,16.999998 v -2 z M 23.81616,21 H 8.18534 C 7.53164,21 7,21 7,22 v 4.864353 c 0,0.853576 0.53164,1.135644 1.18534,1.135644 H 23.81616 C 24.46842,27.999997 25,27.717968 25,26.864353 V 21.977937 C 25,21 24.46842,21 23.81616,21 Z M 24,27 H 8 V 22 H 24 Z M 19.00298,23.947605 18.99998,23 h 1 1 1 v 2 0 h -3 v 0 z"
       sodipodi:nodetypes="ssssssssscccccccccccccssssssssscccccsccccccccsccssssssscssccssccccccccs"
       class="ColorScheme-Text" />
  </g>
  <g
     id="22-22-disk-quota-high"
     transform="translate(128,-22)">
    <rect
       style="opacity:0.00100002"
       width="22"
       height="22"
       x="-64"
       y="0"
       id="rect18" />
    <path
       id="icon_23_-7-26"
       style="fill:#ff9955;fill-opacity:1;stroke-width:1;stroke-dasharray:none"
       d="M -47.789225,3 H -58.20977 C -58.64557,3 -59,3.188047 -59,3.756493 V 6.99195 c 0,0.568447 0,1.041342 1.011523,1.038338 L -47.789225,8 C -47,7.997656 -47,7.575134 -47,7.006687 l 2e-6,-3.250194 C -46.999998,3.188047 -47.354385,3 -47.789225,3 Z M -48,7 H -58 V 4 h 10 z m -3,-2 v 0 0 h 2 v 0 0 1 h -2 z m 3.210785,4 H -58.21 c -0.4358,0 -0.78999,-0.06531 -0.78999,0.504451 v 2.992424 c 0,0.567765 0.564501,0.503138 1.000301,0.503125 L -48,12.999695 c 0.43484,-1.3e-5 1.000012,0.06497 1.000012,-0.50282 V 9.780631 C -46.999988,9.210846 -47.354375,9 -47.789215,9 Z M -48,12 h -10 v -2 h 10 z m 0,0 v 0 0 -2 0 z m 0.07962,2 h -10.087531 c -0.79024,0 -0.992093,-9.4e-5 -0.992089,0.769701 l 2e-5,3.473203 C -58.999977,18.811955 -58.64556,19 -58.20976,19 h 10.420555 c 0.43484,0 0.789231,-0.188019 0.789227,-0.757096 L -47,14.799486 C -47.000005,13.999996 -47.485538,14 -47.920378,14 Z M -48,18 h -10 v -3 h 10 z m -3,-1 v -1 c 0,0 0.458463,-0.0025 0.59694,0 l 1.432376,0.02619 L -49,16 v 1 0 h -1 z"
       sodipodi:nodetypes="sssssssssccccccccccccccsssssssssccccccccccccccssssssssscccccccscccccc" />
  </g>
  <g
     id="22-22-disk-quota-low"
     transform="translate(128,-22)">
    <rect
       style="opacity:0.00100002"
       width="22"
       height="22"
       x="-96"
       y="0"
       id="rect11" />
    <path
       id="icon_23_-7-0"
       style="fill:#5f8dd3;fill-opacity:1;stroke-width:1;stroke-dasharray:none"
       d="M -79.789225,3 H -90.20977 C -90.64557,3 -91,3.188047 -91,3.756493 V 6.99195 c 0,0.568447 0,1.041342 1.011523,1.038338 L -79.789225,8 C -79,7.997656 -79,7.575134 -79,7.006687 l 2e-6,-3.250194 C -78.999998,3.188047 -79.354385,3 -79.789225,3 Z M -80,7 H -90 V 4 h 10 z m -3,-2 v 0 0 h 2 v 0 0 1 h -2 z m 3.210785,4 H -90.21 c -0.4358,0 -0.78999,-0.06531 -0.78999,0.504451 v 2.992424 c 0,0.567765 0.564501,0.503138 1.000301,0.503125 L -80,12.999695 c 0.43484,-1.3e-5 1.000012,0.06497 1.000012,-0.50282 V 9.780631 C -78.999988,9.210846 -79.354375,9 -79.789215,9 Z M -80,12 h -10 v -2 h 10 z m 0,0 v 0 0 -2 0 z m 0.07962,2 h -10.087531 c -0.79024,0 -0.992093,-9.4e-5 -0.992089,0.769701 l 2e-5,3.473203 C -90.999977,18.811955 -90.64556,19 -90.20976,19 h 10.420555 c 0.43484,0 0.789231,-0.188019 0.789227,-0.757096 L -79,14.799486 C -79.000005,13.999996 -79.485538,14 -79.920378,14 Z M -80,18 h -10 v -3 h 10 z m -3,-1 v -1 c 0,0 0.458463,-0.0025 0.59694,0 l 1.432376,0.02619 L -81,16 v 1 0 h -1 z"
       sodipodi:nodetypes="sssssssssccccccccccccccsssssssssccccccccccccccssssssssscccccccscccccc" />
  </g>
  <g
     id="22-22-disk-quota-critical"
     transform="translate(128,-22)">
    <rect
       style="opacity:0.00100002"
       width="22"
       height="22"
       x="-32"
       y="0"
       id="rect27" />
    <path
       id="icon_23_-7-8"
       style="fill:#bf616a;fill-opacity:1;stroke-width:1;stroke-dasharray:none"
       d="M -15.78923,3 H -26.20977 C -26.64557,3 -27,3.188047 -27,3.756493 V 6.99195 c 0,0.568447 0,1.041342 1.01152,1.038338 L -15.78923,8 C -15,7.997656 -15,7.575134 -15,7.006687 V 3.756493 C -15,3.188047 -15.35439,3 -15.78923,3 Z M -16,7 H -26 V 4 h 10 z m -3,-2 v 0 0 h 2 v 0 0 1 h -2 z m 3.21079,4 H -26.21 c -0.4358,0 -0.78999,-0.06531 -0.78999,0.504451 v 2.992424 c 0,0.567765 0.5645,0.503138 1.0003,0.503125 L -16,12.999695 c 0.43484,-1.3e-5 1.00001,0.06497 1.00001,-0.50282 V 9.780631 C -14.99999,9.210846 -15.35438,9 -15.78921,9 Z M -16,12 h -10 v -2 h 10 z m 0,0 v 0 0 -2 0 z m 0.0796,2 H -26.00791 C -26.79815,14 -27,13.999906 -27,14.769701 l 2e-5,3.473203 c 0,0.569051 0.35442,0.757096 0.79022,0.757096 h 10.42056 c 0.43484,0 0.78923,-0.188019 0.78922,-0.757096 L -15,14.799486 C -15,13.999996 -15.48554,14 -15.92038,14 Z M -16,18 h -10 v -3 h 10 z m -3,-1 v -1 c 0,0 0.45846,-0.0025 0.59694,0 l 1.43238,0.02619 L -17,16 v 1 0 h -1 z"
       sodipodi:nodetypes="sssssssssccccccccccccccsssssssssccccccccccccccssssssssscccccccscccccc" />
  </g>
  <g
     id="22-22-disk-quota-missing"
     transform="translate(128,-22)"
     style="fill:#d6dbf1;fill-opacity:0.44999999">
    <rect
       style="opacity:0.00100002;fill:#d6dbf1;fill-opacity:0.44999999"
       width="22"
       height="22"
       x="0"
       y="0"
       id="rect34" />
    <path
       id="icon_23_-7-92"
       style="stroke-width:1;fill-opacity:0.44999999;fill:currentColor;stroke-dasharray:none"
       d="M 16.21077,3 H 5.79023 C 5.35443,3 5,3.188047 5,3.756493 V 6.99195 C 5,7.560397 5,8.033292 6.01152,8.030288 L 16.21077,8 C 17,7.997656 17,7.575134 17,7.006687 V 3.756493 C 17,3.188047 16.64561,3 16.21077,3 Z M 16,7 H 6 V 4 H 16 Z M 13,5 v 0 0 h 2 v 0 0 1 h -2 z m 3.21078,4 H 5.79 C 5.3542,9 5.00001,8.93469 5.00001,9.504451 v 2.992424 c 0,0.567765 0.5645,0.503138 1.0003,0.503125 L 16,12.999695 c 0.43484,-1.3e-5 1.00001,0.06497 1.00001,-0.50282 V 9.780631 C 17.00001,9.210846 16.64562,9 16.21078,9 Z M 16,12 H 6 v -2 h 10 z m 0,0 v 0 0 -2 0 z m 0.0796,2 H 5.99209 C 5.20185,14 5,13.999906 5,14.769701 l 2e-5,3.473203 C 5.00002,18.811955 5.35444,19 5.79024,19 h 10.42055 c 0.43484,0 0.78924,-0.188019 0.78923,-0.757096 L 17,14.799486 C 17,13.999996 16.51446,14 16.07962,14 Z M 16,18 H 6 v -3 h 10 z m -3,-1 v -1 c 0,0 0.45846,-0.0025 0.59694,0 L 15.02932,16.02619 15,16 v 1 0 h -1 z"
       sodipodi:nodetypes="sssssssssccccccccccccccsssssssssccccccccccccccssssssssscccccccscccccc"
       class="ColorScheme-Text" />
  </g>
</svg>
