<?xml version="1.0" encoding="UTF-8" standalone="no"?>
<svg
   width="32"
   height="32"
   version="1.1"
   id="svg12"
   sodipodi:docname="drive.svg"
   inkscape:version="1.2.1 (9c6d41e410, 2022-07-14)"
   xmlns:inkscape="http://www.inkscape.org/namespaces/inkscape"
   xmlns:sodipodi="http://sodipodi.sourceforge.net/DTD/sodipodi-0.dtd"
   xmlns="http://www.w3.org/2000/svg"
   xmlns:svg="http://www.w3.org/2000/svg"
   xmlns:rdf="http://www.w3.org/1999/02/22-rdf-syntax-ns#"
   xmlns:cc="http://creativecommons.org/ns#"
   xmlns:dc="http://purl.org/dc/elements/1.1/">
  <style
     id="current-color-scheme"
     type="text/css">
.ColorScheme-Text { 
    color:#d1d5e9;
}
</style>
  <g
     id="22-22-drive-harddisk">
    <rect
       style="opacity:0.00100002"
       width="22"
       height="22"
       x="32"
       y="10.000001"
       id="rect2" />
    <path
       d="m 51,13.997963 c 0,-0.55029 -0.472205,-0.997962 -1.052318,-0.997962 H 36.053214 C 35.471983,13.000001 35,13.447673 35,13.997963 v 2.893588 c 0,0.550079 0.418769,1.10845 1,1.10845 H 49.947682 C 50.527795,18.000001 51,17.44163 51,16.891551 Z m -1,0.002 v 3 H 36 v -3 z"
       id="path2-3"
       style="stroke-width:0.215864;fill-opacity:1;fill:currentColor"
       sodipodi:nodetypes="sssssssssccccc"
       class="ColorScheme-Text" />
    <path
       d="m 46.3533,16.000001 h 2.293392 C 48.842828,16.000001 49,15.861737 49,15.691111 V 15.30889 c 0,-0.171447 -0.157172,-0.308889 -0.353308,-0.308889 H 46.353547 C 46.157429,15.000001 46,15.137443 46,15.30889 v 0.382221 c -2.24e-4,0.170831 0.157194,0.30889 0.3533,0.30889 z"
       id="path4-6"
       style="stroke-width:0.219215;fill-opacity:1;fill:currentColor"
       sodipodi:nodetypes="ssssssscs"
       class="ColorScheme-Text" />
    <path
       d="M 49.947682,19.000001 H 36.053214 c -0.581231,0 -1.053214,0.449711 -1.053214,1 v 2 c 0,0.549867 0.469229,1 1.05046,1 h 13.897222 c 0.580113,0 1.052318,-0.450133 1.052318,-1 v -2 c 0,-0.550289 -0.472205,-1 -1.052318,-1 z m 0.05232,1 v 2 H 36 v -2 z"
       id="path6-7"
       style="stroke-width:0.215864;fill-opacity:1;fill:currentColor"
       sodipodi:nodetypes="sssssssssccccc"
       class="ColorScheme-Text" />
    <path
       d="M 36.053214,29.000001 H 49.947682 C 50.527795,29.000001 51,28.551697 51,28.002249 v -2.893798 c 0,-0.5505 -0.472205,-1.10845 -1.052318,-1.10845 H 36.053214 C 35.471983,24.000001 35,24.557951 35,25.108451 v 2.893798 c 0,0.549448 0.471983,0.997752 1.053214,0.997752 z m -0.05321,-1 v -3 h 14 v 3 z"
       id="path10-3"
       style="stroke-width:0.215864;fill-opacity:1;fill:currentColor"
       sodipodi:nodetypes="sssssssssccccc"
       class="ColorScheme-Text" />
    <path
       d="M 48.646693,26.000001 H 46.353547 C 46.157429,26.000001 46,26.138059 46,26.309096 v 0.38263 c 0,0.171037 0.157429,0.308275 0.353547,0.308275 h 2.293146 C 48.842828,27.000001 49,26.862763 49,26.691726 v -0.38263 c -2.19e-4,-0.17124 -0.157171,-0.309095 -0.353307,-0.309095 z"
       id="path12-5"
       style="stroke-width:0.219217;fill-opacity:1;fill:currentColor"
       sodipodi:nodetypes="ssssssscs"
       class="ColorScheme-Text" />
  </g>
  <metadata
     id="metadata18">
    <rdf:RDF>
      <cc:Work
         rdf:about="">
        <dc:format>image/svg+xml</dc:format>
        <dc:type
           rdf:resource="http://purl.org/dc/dcmitype/StillImage" />
      </cc:Work>
    </rdf:RDF>
  </metadata>
  <defs
     id="defs16" />
  <sodipodi:namedview
     pagecolor="#ffffff"
     bordercolor="#000000"
     borderopacity="1"
     objecttolerance="10"
     gridtolerance="10"
     guidetolerance="10"
     inkscape:pageopacity="0"
     inkscape:pageshadow="2"
     inkscape:window-width="1920"
     inkscape:window-height="1008"
     id="namedview14"
     showgrid="false"
     inkscape:zoom="11.313709"
     inkscape:cx="28.726212"
     inkscape:cy="19.578018"
     inkscape:window-x="0"
     inkscape:window-y="0"
     inkscape:window-maximized="1"
     inkscape:current-layer="svg12"
     inkscape:document-rotation="0"
     inkscape:lockguides="false"
     inkscape:showpageshadow="true"
     inkscape:pagecheckerboard="0"
     inkscape:deskcolor="#cccccc">
    <inkscape:grid
       type="xygrid"
       id="grid296" />
  </sodipodi:namedview>
  <g
     id="drive-harddisk"
     transform="translate(32,10.000001)">
    <rect
       style="opacity:0.00100002"
       width="32"
       height="32"
       x="-32"
       y="-10.000001"
       id="rect7" />
    <path
       d="m -3.925,-5.103001 c 0,-0.825432 -0.610099,-0.897 -1.483,-0.897 h -21.107 c -0.874564,0 -1.485,0.071568 -1.485,0.897 v 5.24000005 c 0,0.825118 0.610437,0.861757 1.485,0.863 l 21.107,0.03 c 0.8729,0.0012 1.483,-0.06788 1.483,-0.89299985 z M -5,-5.000001 V -9.5367432e-7 H -27 V -5.000001 Z"
       id="path2"
       style="stroke-width:0.324291;fill-opacity:1;fill:currentColor"
       sodipodi:nodetypes="sssssssssccccc"
       class="ColorScheme-Text" />
    <path
       d="M -10.528942,-2.000001 H -7.47106 C -7.209573,-2.000001 -7,-2.138264 -7,-2.3088915 v -0.38222 c 0,-0.171446 -0.209573,-0.3088895 -0.47106,-0.3088895 h -3.057562 C -10.79012,-3.000001 -11,-2.8625575 -11,-2.6911115 v 0.38222 c -3.21e-4,0.170832 0.209573,0.3088905 0.471058,0.3088905 z"
       id="path4"
       style="stroke-width:0.253122;fill-opacity:1;fill:currentColor"
       sodipodi:nodetypes="ssssssscs"
       class="ColorScheme-Text" />
    <path
       d="M -5.508417,2.999999 H -26.41525 C -27.289813,2.999999 -28,3.005637 -28,3.83107 v 4.338174 c 0,0.824802 0.710187,0.830755 1.58475,0.830755 h 20.906833 c 0.872901,0 1.583417,-0.006 1.583417,-0.830755 V 3.83107 c 0,-0.825433 -0.710516,-0.831071 -1.583417,-0.831071 z M -5,3.950611 V 8.049072 H -27 V 3.950611 Z"
       id="path6"
       style="stroke-width:0.324291;fill-opacity:1;fill:currentColor"
       sodipodi:nodetypes="sssssssssccccc"
       class="ColorScheme-Text" />
    <path
       d="m -10.528941,5.999999 h 3.057882 C -7.209573,5.999999 -7,5.862472 -7,5.691124 V 5.308874 C -7,5.138962 -7.209573,4.999999 -7.471059,4.999999 h -3.057562 C -10.790119,4.999999 -11,5.138962 -11,5.308874 v 0.38225 c -3.21e-4,0.171348 0.209573,0.308875 0.471059,0.308875 z"
       id="path8"
       style="stroke-width:0.253198;fill-opacity:1;fill:currentColor"
       sodipodi:nodetypes="ssssssscs"
       class="ColorScheme-Text" />
    <path
       d="m -26.515,17.999999 h 21.207 c 0.872901,0 1.383,-0.07283 1.383,-0.897 v -5.24 c 0,-0.825748 -0.710516,-0.863 -1.583417,-0.863 H -26.515 c -0.874564,0 -1.485,0.03725 -1.485,0.863 v 5.24 c 0,0.824171 0.610436,0.897 1.485,0.897 z m -0.485,-1 v -5 h 22 v 5 z"
       id="path10"
       style="stroke-width:0.324291;fill-opacity:1;fill:currentColor"
       sodipodi:nodetypes="sssssssssccccc"
       class="ColorScheme-Text" />
    <path
       d="m -7.471059,13.999999 h -3.057562 C -10.79012,13.999999 -11,14.138056 -11,14.309094 v 0.38263 c 0,0.171037 0.20988,0.308275 0.471379,0.308275 h 3.057562 C -7.209573,14.999999 -7,14.862761 -7,14.691724 v -0.38263 c -3.07e-4,-0.17124 -0.209573,-0.309095 -0.471059,-0.309095 z"
       id="path12"
       style="stroke-width:0.253122;fill-opacity:1;fill:currentColor"
       sodipodi:nodetypes="ssssssscs"
       class="ColorScheme-Text" />
  </g>
</svg>
