<?xml version="1.0" encoding="UTF-8" standalone="no"?>
<svg
   width="32"
   height="32"
   version="1"
   id="svg12"
   sodipodi:docname="kate.svg"
   inkscape:version="1.2.1 (9c6d41e410, 2022-07-14)"
   xmlns:inkscape="http://www.inkscape.org/namespaces/inkscape"
   xmlns:sodipodi="http://sodipodi.sourceforge.net/DTD/sodipodi-0.dtd"
   xmlns="http://www.w3.org/2000/svg"
   xmlns:svg="http://www.w3.org/2000/svg"
   xmlns:rdf="http://www.w3.org/1999/02/22-rdf-syntax-ns#"
   xmlns:cc="http://creativecommons.org/ns#"
   xmlns:dc="http://purl.org/dc/elements/1.1/">
  <style id="current-color-scheme" type="text/css">.ColorScheme-Text { color:#d6dbf1; }
</style>
  <metadata
     id="metadata18">
    <rdf:RDF>
      <cc:Work
         rdf:about="">
        <dc:format>image/svg+xml</dc:format>
        <dc:type
           rdf:resource="http://purl.org/dc/dcmitype/StillImage" />
      </cc:Work>
    </rdf:RDF>
  </metadata>
  <defs
     id="defs16" />
  <sodipodi:namedview
     pagecolor="#cccccc"
     bordercolor="#000000"
     borderopacity="1"
     objecttolerance="10"
     gridtolerance="10"
     guidetolerance="10"
     inkscape:pageopacity="0"
     inkscape:pageshadow="2"
     inkscape:window-width="1920"
     inkscape:window-height="1008"
     id="namedview14"
     showgrid="false"
     inkscape:zoom="9.8125"
     inkscape:cx="27.821656"
     inkscape:cy="17.783439"
     inkscape:window-x="0"
     inkscape:window-y="0"
     inkscape:window-maximized="1"
     inkscape:current-layer="svg12"
     inkscape:document-rotation="0"
     inkscape:showpageshadow="true"
     inkscape:lockguides="false"
     inkscape:pagecheckerboard="0"
     inkscape:deskcolor="#7f7f7f">
    <inkscape:grid
       type="xygrid"
       id="grid2747"
       originx="32"
       originy="10" />
  </sodipodi:namedview>
  <g
     id="kate"
     style="fill:#d1d5e9;fill-opacity:1">
    <rect
       style="opacity:0.00100002;fill:#d1d5e9;fill-opacity:1"
       width="32"
       height="32"
       x="0"
       y="0"
       id="rect7" />
    <path
       style="stroke-opacity:1;stroke-dasharray:none;stroke-miterlimit:4;stroke-linejoin:miter;stroke-linecap:butt;stroke-width:0.0597952;stroke:none;fill-opacity:1;fill:currentColor;"
       d="M 13.276178,11.342603 C 12.621047,8.6929833 8.9188452,9.3358943 8.3,9.2783703 8.9945784,8.8583363 9.6222723,8.5120903 11.054175,7.2484246 13.812649,4.8140089 16.733127,5.3449142 18.195616,6.3116812 14.197371,6.496847 14.959064,9.1505713 15.54796,10.548807 c -0.748905,0.265018 -1.931132,0.665079 -2.271782,0.793796 z"
       id="path905-3-36"
       inkscape:connector-curvature="0"
       class="ColorScheme-Text" />
    <path
       sodipodi:nodetypes="cssscccccsssc"
       inkscape:connector-curvature="0"
       id="path907-6-7"
       d="m 23.145531,7.6965822 c -1.439769,2.3168838 -3.833545,5.4471298 -6.453414,5.8594428 -2.619843,0.412341 -5.117445,-0.04437 -5.69599,2.332546 -0.532788,2.189026 1.341086,4.232825 3.284609,3.74024 2.076294,-0.526237 1.627865,-3.393205 0.492237,-5.345558 0.862615,-0.06039 0.702158,-0.04454 2.164995,-0.13449 2.180436,2.264267 2.90317,2.909828 6.712512,6.213358 -2.935549,-0.374576 -4.003967,-0.718455 -6.109444,-2.252763 0.545422,1.667913 1.711215,5.453403 1.963742,8.390642 -1.214363,-2.125827 -1.674724,-2.907057 -3.556702,-4.440694 -2.410667,-1.964505 -4.36303,-2.031021 -5.493037,-4.925302 -1.1275618,-2.888058 0.364917,-4.968407 3.03559,-5.869343 3.816616,-1.2875167 7.105107,-2.5082094 9.654902,-3.5680806 z"
       style="fill:#d1d5e9;fill-opacity:1;stroke:none;stroke-width:0.0597952;stroke-linecap:butt;stroke-linejoin:miter;stroke-miterlimit:4;stroke-dasharray:none;stroke-opacity:1" />
    <path
       sodipodi:nodetypes="cccc"
       inkscape:connector-curvature="0"
       id="path909-7-5"
       d="m 14.772973,14.283253 c 0.862615,-0.06039 0.702158,-0.04454 2.164995,-0.13449 2.180436,2.264267 2.90317,2.909828 6.712512,6.213358 -3.82891,-0.333692 -6.725967,-1.709423 -8.877507,-6.078874 z"
       style="fill:#d1d5e9;fill-opacity:1;stroke:none;stroke-width:0.0597952;stroke-linecap:butt;stroke-linejoin:miter;stroke-miterlimit:4;stroke-dasharray:none;stroke-opacity:1" />
    <path
       style="stroke-opacity:1;stroke-dasharray:none;stroke-miterlimit:4;stroke-linejoin:miter;stroke-linecap:butt;stroke-width:0.0597952;stroke:none;fill-opacity:1;fill:currentColor;"
       d="m 23.145531,7.6965822 c -1.439769,2.3168838 -3.833545,5.4471298 -6.453414,5.8594428 -2.619843,0.412341 -5.117445,-0.04437 -5.69599,2.332546 -0.532788,2.189026 1.341086,4.232825 3.284609,3.74024 2.076294,-0.526237 1.627865,-3.393205 0.492237,-5.345558 0.862615,-0.06039 0.702158,-0.04454 2.164995,-0.13449 2.180436,2.264267 2.90317,2.909828 6.712512,6.213358 -2.935549,-0.374576 -4.003967,-0.718455 -6.109444,-2.252763 0.545422,1.667913 1.711215,5.453403 1.963742,8.390642 -1.214363,-2.125827 -1.674724,-2.907057 -3.556702,-4.440694 -2.410667,-1.964505 -4.36303,-2.031021 -5.493037,-4.925302 -1.1275618,-2.888058 0.364917,-4.968407 3.03559,-5.869343 3.816616,-1.2875167 7.105107,-2.5082094 9.654902,-3.5680806 z"
       id="path911-53-3"
       inkscape:connector-curvature="0"
       sodipodi:nodetypes="cssscccccsssc"
       class="ColorScheme-Text" />
    <path
       style="stroke-opacity:1;stroke-dasharray:none;stroke-miterlimit:4;stroke-linejoin:miter;stroke-linecap:butt;stroke-width:0.0597952;stroke:none;fill-opacity:1;fill:currentColor;"
       d="m 14.772973,14.283253 c 0.862615,-0.06039 0.702158,-0.04454 2.164995,-0.13449 2.180436,2.264267 2.90317,2.909828 6.712512,6.213358 -3.82891,-0.333692 -6.725967,-1.709423 -8.877507,-6.078874 z"
       id="path913-5-5"
       inkscape:connector-curvature="0"
       sodipodi:nodetypes="cccc"
       class="ColorScheme-Text" />
    <path
       sodipodi:nodetypes="ccccc"
       inkscape:connector-curvature="0"
       id="path915-6-6"
       d="M 8.3,9.2783703 C 8.9945784,8.8583363 9.6222723,8.5120903 11.054175,7.2484246 13.812649,4.8140089 16.733127,5.3449142 18.195616,6.3116812 14.197371,6.496847 14.712528,7.4673624 14.697766,8.2282094 12.04132,7.5460464 11.265688,8.4742091 8.3,9.2783703 Z"
       style="stroke-opacity:1;stroke-dasharray:none;stroke-miterlimit:4;stroke-linejoin:miter;stroke-linecap:butt;stroke-width:0.0597952;stroke:none;fill-opacity:1;fill:currentColor;"
       class="ColorScheme-Text" />
    <path
       inkscape:connector-curvature="0"
       id="path917-2-2"
       d="M 18.195616,6.3116812 C 14.197371,6.496847 14.959064,9.1505713 15.54796,10.548807 15.081383,10.7139 14.575688,10.90201 13.951973,11.103078 11.435357,5.6401452 16.141617,4.9294505 18.195616,6.3116812 Z"
       style="stroke-opacity:1;stroke-dasharray:none;stroke-miterlimit:4;stroke-linejoin:miter;stroke-linecap:butt;stroke-width:0.0597952;stroke:none;fill-opacity:1;fill:currentColor;"
       sodipodi:nodetypes="cccc"
       class="ColorScheme-Text" />
    <path
       sodipodi:nodetypes="cscc"
       style="stroke-opacity:1;stroke-dasharray:none;stroke-miterlimit:4;stroke-linejoin:miter;stroke-linecap:butt;stroke-width:0.0597952;stroke:none;fill-opacity:1;fill:currentColor;"
       d="M 11.175001,18.49497 C 9.2184687,15.425811 9.5797223,12.612663 13.410878,11.151047 17.191613,9.7086413 20.595736,8.7564533 23.145531,7.6965822 16.264605,10.89064 7.6483136,13.024883 11.175001,18.49497 Z"
       id="path919-9-9"
       inkscape:connector-curvature="0"
       class="ColorScheme-Text" />
    <path
       d="M 15.999929,24 H 8.0017547 a 0.65291262,0.5 0 0 0 0,1 h 7.9981743 a 0.65291262,0.5 0 0 0 0,-1 z"
       id="path10-0"
       style="stroke-width:0.285681;fill-opacity:1;fill:currentColor;"
       class="ColorScheme-Text" />
    <path
       d="M 24.755108,4 H 7.244921 C 6.010227,4 5,4.9 5,5.999998 v 19.999998 c 0,1.100003 1.010227,2.000003 2.244921,2.000003 h 17.510187 c 1.234695,0 2.244892,-0.9 2.244892,-2.000003 V 5.999998 C 27,4.9 25.989803,4 24.755108,4 Z M 26,25.999997 c 0,0.549994 -0.627569,0.999994 -1.244892,0.999994 H 7.244921 C 6.627548,26.999991 6,26.549991 6,25.999997 V 5.999998 C 6,5.45 6.627548,5 7.244921,5 H 24.755108 C 25.372431,5 26,5.45 26,5.999998 Z"
       id="path2-3-36-7"
       style="stroke-width:0.529727;fill-opacity:1;fill:currentColor;"
       sodipodi:nodetypes="ssssssssssssssssss"
       class="ColorScheme-Text" />
  </g>
  <g
     id="22-22-kate"
     style="fill:#d1d5e9;fill-opacity:1"
     transform="translate(32,10)">
    <rect
       style="opacity:0.00100002;fill:#d1d5e9;fill-opacity:1"
       width="22"
       height="22"
       x="0"
       y="0"
       id="rect2" />
    <path
       style="stroke-opacity:1;stroke-dasharray:none;stroke-miterlimit:4;stroke-linejoin:miter;stroke-linecap:butt;stroke-width:0.035593;stroke:none;fill-opacity:1;fill:currentColor;"
       d="M 9.4620109,7.9777408 C 9.0720522,6.4005848 6.8683597,6.7832706 6.5,6.7490302 6.9134395,6.4990098 7.2870674,6.2929108 8.1393906,5.5407301 9.7813398,4.0916721 11.519717,4.4076865 12.39025,4.9831441 10.010341,5.0933617 10.463729,6.6729588 10.814264,7.5052436 10.368486,7.6629916 9.6647791,7.9011234 9.4620109,7.9777408 Z"
       id="path905-3-36-7"
       inkscape:connector-curvature="0"
       class="ColorScheme-Text" />
    <path
       sodipodi:nodetypes="cssscccccsssc"
       inkscape:connector-curvature="0"
       id="path907-6-7-5"
       d="m 15.336627,5.8074896 c -0.857006,1.3790981 -2.281872,3.2423398 -3.841313,3.4877648 -1.5594357,0.2454415 -3.0461042,-0.02641 -3.3904764,1.3884236 -0.3171355,1.302991 0.7982666,2.519532 1.9551254,2.226331 1.235888,-0.313235 0.968972,-2.019766 0.292997,-3.1818816 0.513466,-0.035943 0.417955,-0.02651 1.28869,-0.080056 1.297879,1.3477776 1.728074,1.7320416 3.995544,3.6984296 C 13.889838,13.123542 13.253878,12.918846 12.000618,12.005568 12.325275,12.998376 13.019193,15.251645 13.169511,17 12.446681,15.734628 12.172654,15.269608 11.052432,14.356728 9.6175061,13.187384 8.4553848,13.147793 7.7827616,11.425004 7.1115942,9.7059217 7.9999741,8.4676188 9.5896609,7.9313466 11.861452,7.1649677 13.818892,6.4383646 15.336627,5.8074896 Z"
       style="fill:#d1d5e9;fill-opacity:1;stroke:none;stroke-width:0.035593;stroke-linecap:butt;stroke-linejoin:miter;stroke-miterlimit:4;stroke-dasharray:none;stroke-opacity:1" />
    <path
       sodipodi:nodetypes="cccc"
       inkscape:connector-curvature="0"
       id="path909-7-5-3"
       d="m 10.35296,9.7281274 c 0.513466,-0.035943 0.417955,-0.02651 1.28869,-0.080056 1.297879,1.3477776 1.728074,1.7320426 3.995544,3.6984306 -2.27912,-0.198629 -4.003554,-1.017516 -5.284234,-3.6183806 z"
       style="fill:#d1d5e9;fill-opacity:1;stroke:none;stroke-width:0.035593;stroke-linecap:butt;stroke-linejoin:miter;stroke-miterlimit:4;stroke-dasharray:none;stroke-opacity:1" />
    <path
       style="stroke-opacity:1;stroke-dasharray:none;stroke-miterlimit:4;stroke-linejoin:miter;stroke-linecap:butt;stroke-width:0.035593;stroke:none;fill-opacity:1;fill:currentColor;"
       d="m 15.336627,5.8074896 c -0.857006,1.3790981 -2.281872,3.2423398 -3.841313,3.4877648 -1.5594357,0.2454415 -3.0461042,-0.02641 -3.3904764,1.3884236 -0.3171355,1.302991 0.7982666,2.519532 1.9551254,2.226331 1.235888,-0.313235 0.968972,-2.019766 0.292997,-3.1818816 0.513466,-0.035943 0.417955,-0.02651 1.28869,-0.080056 1.297879,1.3477776 1.728074,1.7320416 3.995544,3.6984296 C 13.889838,13.123542 13.253878,12.918846 12.000618,12.005568 12.325275,12.998376 13.019193,15.251645 13.169511,17 12.446681,15.734628 12.172654,15.269608 11.052432,14.356728 9.6175061,13.187384 8.4553848,13.147793 7.7827616,11.425004 7.1115942,9.7059217 7.9999741,8.4676188 9.5896609,7.9313466 11.861452,7.1649677 13.818892,6.4383646 15.336627,5.8074896 Z"
       id="path911-53-3-5"
       inkscape:connector-curvature="0"
       sodipodi:nodetypes="cssscccccsssc"
       class="ColorScheme-Text" />
    <path
       style="stroke-opacity:1;stroke-dasharray:none;stroke-miterlimit:4;stroke-linejoin:miter;stroke-linecap:butt;stroke-width:0.035593;stroke:none;fill-opacity:1;fill:currentColor;"
       d="m 10.35296,9.7281274 c 0.513466,-0.035943 0.417955,-0.02651 1.28869,-0.080056 1.297879,1.3477776 1.728074,1.7320426 3.995544,3.6984306 -2.27912,-0.198629 -4.003554,-1.017516 -5.284234,-3.6183806 z"
       id="path913-5-5-6"
       inkscape:connector-curvature="0"
       sodipodi:nodetypes="cccc"
       class="ColorScheme-Text" />
    <path
       sodipodi:nodetypes="ccccc"
       inkscape:connector-curvature="0"
       id="path915-6-6-2"
       d="M 6.5,6.7490302 C 6.9134395,6.4990098 7.2870674,6.2929108 8.1393906,5.5407301 9.7813398,4.0916721 11.519717,4.4076865 12.39025,4.9831441 10.010341,5.0933617 10.316982,5.6710491 10.308195,6.1239338 8.7269772,5.7178846 8.2652915,6.2703627 6.5,6.7490302 Z"
       style="stroke-opacity:1;stroke-dasharray:none;stroke-miterlimit:4;stroke-linejoin:miter;stroke-linecap:butt;stroke-width:0.035593;stroke:none;fill-opacity:1;fill:currentColor"
       class="ColorScheme-Text " />
    <path
       inkscape:connector-curvature="0"
       id="path917-2-2-9"
       d="M 12.39025,4.9831441 C 10.010341,5.0933617 10.463729,6.6729588 10.814264,7.5052436 10.53654,7.6035129 10.235529,7.715483 9.8642705,7.8351668 8.3662838,4.5834192 11.16763,4.1603875 12.39025,4.9831441 Z"
       style="stroke-opacity:1;stroke-dasharray:none;stroke-miterlimit:4;stroke-linejoin:miter;stroke-linecap:butt;stroke-width:0.035593;stroke:none;fill-opacity:1;fill:currentColor;"
       sodipodi:nodetypes="cccc"
       class="ColorScheme-Text" />
    <path
       sodipodi:nodetypes="cscc"
       style="stroke-opacity:1;stroke-dasharray:none;stroke-miterlimit:4;stroke-linejoin:miter;stroke-linecap:butt;stroke-width:0.035593;stroke:none;fill-opacity:1;fill:currentColor;"
       d="M 8.2113108,12.235101 C 7.0467077,10.408221 7.2617395,8.7337293 9.5421897,7.8637196 11.792627,7.0051447 13.818892,6.4383655 15.336627,5.8074896 11.240834,7.7087148 6.1120923,8.9790975 8.2113108,12.235101 Z"
       id="path919-9-9-1"
       inkscape:connector-curvature="0"
       class="ColorScheme-Text" />
    <path
       d="M 11.079049,15 H 5.9209505 a 0.42106958,0.50000002 0 0 0 0,1 h 5.1580985 a 0.42106958,0.50000002 0 0 0 0,-1 z"
       id="path10-0-2"
       style="stroke-width:0.229421;fill-opacity:1;fill:currentColor;"
       class="ColorScheme-Text" />
    <path
       d="M 16.571433,3 H 5.428586 C 4.6428722,3 4,3.6 4,4.333332 V 17.666665 C 4,18.4 4.6428722,19 5.428586,19 H 16.571433 C 17.357149,19 18,18.4 18,17.666665 V 4.333332 C 18,3.6 17.357149,3 16.571433,3 Z M 17,17.666665 C 17,18.033328 16.964274,18 16.571433,18 H 5.428586 C 5.0357126,18 5,18.033328 5,17.666665 V 4.333332 C 5,3.966667 5.0357126,4 5.428586,4 H 16.571433 C 16.964274,4 17,3.966667 17,4.333332 Z"
       id="path2-3-3-5"
       style="stroke-width:0.345031;fill-opacity:1;fill:currentColor;"
       sodipodi:nodetypes="ssssssssssssssssss"
       class="ColorScheme-Text" />
  </g>
</svg>
