<?xml version="1.0" encoding="UTF-8" standalone="no"?>
<svg
   width="32"
   height="32"
   version="1.1"
   id="svg12"
   sodipodi:docname="kruler.svg"
   inkscape:version="1.1.2 (0a00cf5339, 2022-02-04)"
   xmlns:inkscape="http://www.inkscape.org/namespaces/inkscape"
   xmlns:sodipodi="http://sodipodi.sourceforge.net/DTD/sodipodi-0.dtd"
   xmlns="http://www.w3.org/2000/svg"
   xmlns:svg="http://www.w3.org/2000/svg"
   xmlns:rdf="http://www.w3.org/1999/02/22-rdf-syntax-ns#"
   xmlns:cc="http://creativecommons.org/ns#"
   xmlns:dc="http://purl.org/dc/elements/1.1/">
  <style id="current-color-scheme" type="text/css">.ColorScheme-Text { color:#d6dbf1; }
</style>
  <metadata
     id="metadata18">
    <rdf:RDF>
      <cc:Work
         rdf:about="">
        <dc:format>image/svg+xml</dc:format>
        <dc:type
           rdf:resource="http://purl.org/dc/dcmitype/StillImage" />
      </cc:Work>
    </rdf:RDF>
  </metadata>
  <defs
     id="defs16" />
  <sodipodi:namedview
     pagecolor="#ffffff"
     bordercolor="#666666"
     borderopacity="1"
     objecttolerance="10"
     gridtolerance="10"
     guidetolerance="10"
     inkscape:pageopacity="0"
     inkscape:pageshadow="2"
     inkscape:window-width="1920"
     inkscape:window-height="1015"
     id="namedview14"
     showgrid="false"
     inkscape:zoom="9.8125"
     inkscape:cx="25.987261"
     inkscape:cy="22.369427"
     inkscape:window-x="0"
     inkscape:window-y="0"
     inkscape:window-maximized="1"
     inkscape:current-layer="svg12"
     inkscape:document-rotation="0"
     inkscape:pagecheckerboard="0"
     inkscape:lockguides="false">
    <inkscape:grid
       type="xygrid"
       id="grid843"
       originx="-1e-06"
       originy="0" />
  </sodipodi:namedview>
  <g
     id="kruler">
    <rect
       style="opacity:0.00100002;fill:#d6dbf1;fill-opacity:1"
       width="32"
       height="32"
       x="0"
       y="0"
       id="rect7" />
    <path
       d="M 31,20.469911 V 11.58755 C 31,11.172518 30.846939,10.780371 30.571429,10.486251 30.295919,10.192131 29.928571,10.032 29.539796,10.032 h -2.758164 v 0 c 0,0 -0.003,0 -0.003,0 H 2.457204 c -0.382653,0 -0.759184,0.166669 -1.031633,0.45752 C 1.153061,10.780371 1,11.179057 1,11.590819 V 20.47318 C 1,21.332655 1.655102,22.032 2.457143,22.032 H 29.542858 C 30.332653,22.0255 31,21.313053 31,20.469911 Z M 2.457143,20.760762 c -0.15,0 -0.272449,-0.130774 -0.272449,-0.290851 V 11.58755 c 0,-0.07513 0.02755,-0.153592 0.07959,-0.205875 0.05204,-0.05551 0.12245,-0.085 0.192856,-0.085 h 2.687756 v 5.581691 c 0,0.349673 0.266327,0.633985 0.593877,0.633985 0.327551,0 0.593878,-0.284312 0.593878,-0.633985 v -5.578435 h 2.27449 v 2.627452 c 0,0.349672 0.266327,0.633998 0.593877,0.633998 0.327551,0 0.593878,-0.284326 0.593878,-0.633998 v -2.627452 h 2.277551 v 5.581705 c 0,0.349672 0.266326,0.633984 0.593877,0.633984 0.327552,0 0.593878,-0.284312 0.593878,-0.633984 v -5.581705 h 2.277551 v 2.627452 c 0,0.349672 0.266326,0.633998 0.593877,0.633998 0.327552,0 0.593878,-0.284326 0.593878,-0.633998 v -2.627412 h 2.274495 v 5.581705 c 0,0.349672 0.266326,0.633984 0.593877,0.633984 0.327552,0 0.593878,-0.284312 0.593878,-0.633984 v -5.581705 h 2.271429 v 2.627452 c 0,0.349673 0.266326,0.633998 0.593877,0.633998 0.327551,0 0.593878,-0.284325 0.593878,-0.633998 v -2.627452 h 2.277551 v 5.581705 c 0,0.349672 0.266326,0.633984 0.593877,0.633984 0.327552,0 0.593878,-0.284312 0.593878,-0.633984 v -5.581705 h 2.436735 c 0.09796,0 0.162245,0.05231 0.192856,0.085 0.03061,0.03269 0.07959,0.101284 0.07959,0.205876 v 8.879091 c 0,0.140528 -0.140817,0.29085 -0.272449,0.29085 z"
       id="path6-3"
       style="stroke-width:0.0316291;fill-opacity:1;fill:currentColor;"
       class="ColorScheme-Text" />
  </g>
  <g
     id="22-22-kruler"
     transform="translate(32,10.000001)">
    <rect
       style="opacity:0.00100002;fill:#d6dbf1;fill-opacity:1"
       width="22"
       height="22"
       x="0"
       y="-4.6325681e-08"
       id="rect2" />
    <path
       d="M 21,13.958607 V 8.037033 C 21,7.760345 20.897959,7.498914 20.714286,7.302834 20.530613,7.106754 20.285714,7 20.026531,7 h -1.838776 v 0 c 0,0 -0.002,0 -0.002,0 H 1.9714693 C 1.7163673,7 1.4653467,7.111113 1.283714,7.305013 1.1020407,7.498914 1,7.764705 1,8.039213 v 5.921574 C 1,14.53377 1.4367347,15 1.9714287,15 H 20.028572 C 20.555102,14.9957 21,14.520702 21,13.958607 Z M 1.9714287,14.152508 c -0.1,0 -0.1816327,-0.08718 -0.1816327,-0.193901 V 8.037033 c 0,-0.05009 0.018367,-0.102394 0.05306,-0.13725 0.034693,-0.03701 0.081633,-0.05667 0.1285707,-0.05667 H 3.763264 v 3.721127 c 0,0.233115 0.1775513,0.422657 0.395918,0.422657 0.2183673,0 0.3959187,-0.189542 0.3959187,-0.422657 V 7.845283 h 1.5163266 v 1.751635 c 0,0.233115 0.1775514,0.422665 0.395918,0.422665 0.2183674,0 0.3959187,-0.18955 0.3959187,-0.422665 V 7.845283 h 1.518367 v 3.721137 c 0,0.233115 0.177551,0.422656 0.395918,0.422656 0.218368,0 0.395919,-0.189541 0.395919,-0.422656 V 7.845283 h 1.518367 v 1.751635 c 0,0.233115 0.177551,0.422665 0.395918,0.422665 0.218368,0 0.395919,-0.18955 0.395919,-0.422665 V 7.84531 h 1.51633 v 3.721137 c 0,0.233114 0.177551,0.422656 0.395918,0.422656 0.218368,0 0.395919,-0.189542 0.395919,-0.422656 V 7.84531 h 1.514286 v 1.751635 c 0,0.233115 0.17755,0.422665 0.395918,0.422665 0.218367,0 0.395918,-0.18955 0.395918,-0.422665 V 7.84531 h 1.518368 v 3.721137 c 0,0.233114 0.17755,0.422656 0.395918,0.422656 0.218368,0 0.395918,-0.189542 0.395918,-0.422656 V 7.84531 h 1.62449 c 0.06531,0 0.108164,0.03487 0.128571,0.05667 0.02041,0.02179 0.05306,0.06752 0.05306,0.13725 v 5.919394 c 0,0.09369 -0.09388,0.1939 -0.181633,0.1939 z"
       id="path6-3-6"
       style="stroke-width:0.0210861;fill-opacity:1;fill:currentColor;"
       class="ColorScheme-Text" />
  </g>
</svg>
