<?xml version="1.0" encoding="UTF-8" standalone="no"?>
<svg
   width="5.8208332mm"
   height="5.8208332mm"
   viewBox="0 0 22 22"
   version="1.1"
   id="svg881"
   inkscape:version="1.2.1 (9c6d41e410, 2022-07-14)"
   sodipodi:docname="notification.svg"
   xmlns:inkscape="http://www.inkscape.org/namespaces/inkscape"
   xmlns:sodipodi="http://sodipodi.sourceforge.net/DTD/sodipodi-0.dtd"
   xmlns="http://www.w3.org/2000/svg"
   xmlns:svg="http://www.w3.org/2000/svg"
   xmlns:rdf="http://www.w3.org/1999/02/22-rdf-syntax-ns#"
   xmlns:cc="http://creativecommons.org/ns#"
   xmlns:dc="http://purl.org/dc/elements/1.1/">
  <style
     id="current-color-scheme"
     type="text/css">.ColorScheme-Highlight { color:#7580bc; }
.ColorScheme-Text { color:#d1d5e9; }
</style>
  <defs
     id="defs875" />
  <sodipodi:namedview
     id="base"
     pagecolor="#cccccc"
     bordercolor="#000000"
     borderopacity="1"
     inkscape:pageopacity="0"
     inkscape:pageshadow="2"
     inkscape:zoom="4.0114745"
     inkscape:cx="53.097683"
     inkscape:cy="5.1103403"
     inkscape:document-units="px"
     inkscape:current-layer="layer1"
     showgrid="false"
     inkscape:window-width="1920"
     inkscape:window-height="1008"
     inkscape:window-x="0"
     inkscape:window-y="0"
     inkscape:window-maximized="1"
     inkscape:lockguides="false"
     inkscape:document-rotation="0"
     inkscape:showpageshadow="true"
     inkscape:pagecheckerboard="0"
     inkscape:deskcolor="#808080">
    <inkscape:grid
       type="xygrid"
       id="grid866"
       originx="0"
       originy="0" />
  </sodipodi:namedview>
  <metadata
     id="metadata878">
    <rdf:RDF>
      <cc:Work
         rdf:about="">
        <dc:format>image/svg+xml</dc:format>
        <dc:type
           rdf:resource="http://purl.org/dc/dcmitype/StillImage" />
      </cc:Work>
    </rdf:RDF>
  </metadata>
  <g
     inkscape:label="Layer 1"
     inkscape:groupmode="layer"
     id="layer1"
     transform="translate(-209.82493,-686.24546)">
    <g
       id="notification-progress-active"
       transform="translate(248.82493,685.24546)">
      <path
         style="fill:none"
         inkscape:connector-curvature="0"
         id="empty-rectangle"
         d="M 1,1 H 23 V 23 H 1 Z" />
      <circle
         id="circle-blue"
         cx="12"
         cy="12"
         r="8"
         class="ColorScheme-ButtonFocus  ColorScheme-Highlight"
         style="fill:#7580bc;fill-opacity:1" />
    </g>
    <g
       id="notification-progress-inactive"
       transform="translate(248.82493,725.24546)">
      <path
         style="fill:none"
         inkscape:connector-curvature="0"
         id="path10"
         d="M 1,1 H 23 V 23 H 1 Z" />
      <circle
         id="circle-transparent"
         cx="12"
         cy="12"
         r="8"
         style="fill-opacity:1;fill:currentColor;opacity:0.4;"
         class="ColorScheme-Highlight" />
    </g>
    <path
       inkscape:connector-curvature="0"
       id="expander-bottom"
       d="m 191.82493,709.24546 2,-2 2,2 z"
       class="ColorScheme-Text"
       style="fill-opacity:1;fill:currentColor;" />
    <path
       inkscape:connector-curvature="0"
       id="expander-top"
       d="m 191.82493,703.24546 2,2 2,-2 z"
       class="ColorScheme-Text"
       style="fill-opacity:1;fill:currentColor;" />
    <path
       inkscape:connector-curvature="0"
       id="expander-right"
       d="m 196.82493,704.24546 -2,2 2,2 z"
       class="ColorScheme-Text "
       style="fill-opacity:1;fill:currentColor;" />
    <path
       inkscape:connector-curvature="0"
       id="expander-left"
       d="m 190.82493,704.24546 2,2 -2,2 z"
       class="ColorScheme-Text"
       style="fill-opacity:1;fill:currentColor;" />
    <g
       id="notification-empty"
       transform="translate(248.82493,645.24546)">
      <path
         style="fill:none"
         inkscape:connector-curvature="0"
         id="path31"
         d="M 1,1 H 23 V 23 H 1 Z" />
      <path
         inkscape:connector-curvature="0"
         id="circle-outline"
         d="m 12,4 a 8,8 0 0 0 -8,8 8,8 0 0 0 8,8 8,8 0 0 0 8,-8 8,8 0 0 0 -8,-8 z m 0,1 a 7,7 0 0 1 7,7 7,7 0 0 1 -7,7 7,7 0 0 1 -7,-7 7,7 0 0 1 7,-7 z"
         class="ColorScheme-Text"
         style="fill-opacity:1;fill:currentColor;" />
    </g>
    <g
       id="notification-inactive">
      <path
         style="fill:none"
         inkscape:connector-curvature="0"
         d="m 209.82493,686.24546 h 22 v 22 h -22 z"
         id="path6" />
      <path
         d="m 227.91598,702.25439 c -1.1125,-0.83572 -1.75,-2.11072 -1.75,-3.50179 v -2.91607 c 0,-2.44286 -1.64643,-4.50893 -3.88929,-5.14464 v -0.6875 c 0,-0.80357 -0.65357,-1.45893 -1.45892,-1.45893 -0.80357,0 -1.45893,0.65357 -1.45893,1.45893 v 0.6875 c -2.24286,0.63571 -3.88929,2.70178 -3.88929,5.14464 v 2.91607 c 0,1.38929 -0.6375,2.66429 -1.75,3.50179 -0.16785,0.125 -0.23571,0.34286 -0.16964,0.54286 0.0661,0.19821 0.25179,0.33214 0.46071,0.33214 h 4.42322 c -0.0321,0.15893 -0.05,0.32143 -0.05,0.48571 0,1.33929 1.09107,2.43036 2.43036,2.43036 1.33928,0 2.43035,-1.09107 2.43035,-2.43036 0,-0.1625 -0.0161,-0.32678 -0.0482,-0.48571 h 4.42321 c 0.20893,0 0.39464,-0.13393 0.46072,-0.33214 0.0714,-0.19822 0.002,-0.41786 -0.16429,-0.54286 z m -7.58214,-12.25 c 0,-0.26786 0.21786,-0.48572 0.48571,-0.48572 0.26786,0 0.48572,0.21786 0.48572,0.48572 v 0.50893 c -0.16072,-0.0143 -0.32143,-0.0232 -0.48572,-0.0232 -0.16428,0 -0.325,0.007 -0.48571,0.0232 z m 1.94464,13.60893 c 0,0.80357 -0.65357,1.45893 -1.45893,1.45893 -0.80357,0 -1.45893,-0.65358 -1.45893,-1.45893 0,-0.16607 0.0286,-0.33036 0.0839,-0.48572 h 2.75 c 0.0554,0.15536 0.0839,0.31965 0.0839,0.48572 z m -7.05536,-1.45715 c 0.24822,-0.3 0.46429,-0.62857 0.64108,-0.97321 0.3875,-0.75714 0.58214,-1.57321 0.58214,-2.43036 v -2.91607 c 0,-2.4125 1.9625,-4.375 4.375,-4.375 2.41071,0 4.375,1.9625 4.375,4.375 v 2.91607 c 0,0.85536 0.19643,1.67322 0.58214,2.42857 0.17679,0.34643 0.39286,0.67322 0.63929,0.97322 h -11.19465 z"
         id="path4-3"
         style="stroke-width:0.0178571;fill-opacity:1;fill:currentColor;"
         class="ColorScheme-Text" />
      <path
         d="m 225.78924,700.06346 h -9.91627 c -0.11443,0 -0.20806,-0.18 -0.20806,-0.4 0,-0.22 0.0936,-0.4 0.20806,-0.4 h 9.91627 c 0.11444,0 0.20807,0.18 0.20807,0.4 0,0.22 -0.0936,0.4 -0.20807,0.4 z"
         id="path38"
         style="stroke-width:0.288486;fill-opacity:1;fill:currentColor;"
         class="ColorScheme-Text" />
    </g>
    <g
       id="notification-active">
      <path
         style="fill:none"
         inkscape:connector-curvature="0"
         d="m 209.82493,726.24546 h 22 v 22 h -22 z"
         id="path14" />
      <path
         style="stroke-width:1.336;fill-rule:evenodd;fill-opacity:1;fill:currentColor;"
         id="path16"
         class="ColorScheme-Text"
         d="m 213.25879,728.08946 c -2.00479,2.00299 -3.13204,4.72017 -3.13386,7.5541 h 1.336 c 8.2e-4,-1.12721 0.20512,-2.23328 0.59253,-3.26914 0.46479,-1.24278 1.19317,-2.38447 2.14993,-3.34027 z m 15.10829,0 -0.9446,0.94469 c 1.75421,1.75245 2.74066,4.12981 2.74245,6.60941 h 1.336 c -0.002,-2.83393 -1.12906,-5.55111 -3.13385,-7.5541 z m -1.8918,1.89207 -0.94721,0.94669 c 1.25381,1.2494 1.96049,2.94531 1.96486,4.71534 h 1.336 c -0.001,-0.80062 -0.12214,-1.58872 -0.35289,-2.34036 -0.38162,-1.24305 -1.06354,-2.38635 -2.00076,-3.32167 z m -11.31947,0.004 c -0.5465,0.54436 -1.00643,1.15944 -1.37085,1.82377 -0.63896,1.16481 -0.98434,2.48115 -0.98803,3.83361 h 1.336 c 0.002,-1.77105 0.70649,-3.46896 1.95964,-4.72048 z"
         inkscape:connector-curvature="0"
         sodipodi:nodetypes="cccscccccccccccsccscccc" />
      <path
         d="m 228.01598,742.25439 c -1.1125,-0.83572 -1.75,-2.11072 -1.75,-3.50179 v -2.91607 c 0,-2.44286 -1.64643,-4.50893 -3.88929,-5.14464 v -0.6875 c 0,-0.80357 -0.65357,-1.45893 -1.45892,-1.45893 -0.80357,0 -1.45893,0.65357 -1.45893,1.45893 v 0.6875 c -2.24286,0.63571 -3.88929,2.70178 -3.88929,5.14464 v 2.91607 c 0,1.38929 -0.6375,2.66429 -1.75,3.50179 -0.16785,0.125 -0.23571,0.34286 -0.16964,0.54286 0.0661,0.19821 0.25179,0.33214 0.46071,0.33214 h 4.42322 c -0.0321,0.15893 -0.05,0.32143 -0.05,0.48571 0,1.33929 1.09107,2.43036 2.43036,2.43036 1.33928,0 2.43035,-1.09107 2.43035,-2.43036 0,-0.1625 -0.0161,-0.32678 -0.0482,-0.48571 h 4.42321 c 0.20893,0 0.39464,-0.13393 0.46072,-0.33214 0.0714,-0.19822 0.002,-0.41786 -0.16429,-0.54286 z m -7.58214,-12.25 c 0,-0.26786 0.21786,-0.48572 0.48571,-0.48572 0.26786,0 0.48572,0.21786 0.48572,0.48572 v 0.50893 c -0.16072,-0.0143 -0.32143,-0.0232 -0.48572,-0.0232 -0.16428,0 -0.325,0.007 -0.48571,0.0232 z m 1.94464,13.60893 c 0,0.80357 -0.65357,1.45893 -1.45893,1.45893 -0.80357,0 -1.45893,-0.65358 -1.45893,-1.45893 0,-0.16607 0.0286,-0.33036 0.0839,-0.48572 h 2.75 c 0.0554,0.15536 0.0839,0.31965 0.0839,0.48572 z m -7.05536,-1.45715 c 0.24822,-0.3 0.46429,-0.62857 0.64108,-0.97321 0.3875,-0.75714 0.58214,-1.57321 0.58214,-2.43036 v -2.91607 c 0,-2.4125 1.9625,-4.375 4.375,-4.375 2.41071,0 4.375,1.9625 4.375,4.375 v 2.91607 c 0,0.85536 0.19643,1.67322 0.58214,2.42857 0.17679,0.34643 0.39286,0.67322 0.63929,0.97322 h -11.19465 z"
         id="path4-3-36"
         style="stroke-width:0.0178571;fill-opacity:1;fill:currentColor;"
         class="ColorScheme-Text" />
      <path
         d="m 225.82526,740.04546 h -9.91627 c -0.11443,0 -0.20806,-0.18 -0.20806,-0.4 0,-0.22 0.0936,-0.4 0.20806,-0.4 h 9.91627 c 0.11444,0 0.20807,0.18 0.20807,0.4 0,0.22 -0.0936,0.4 -0.20807,0.4 z"
         id="path38-3"
         style="stroke-width:0.288486;fill-opacity:1;fill:currentColor;"
         class="ColorScheme-Text" />
    </g>
    <g
       id="notification-disabled">
      <path
         style="fill:none"
         inkscape:connector-curvature="0"
         d="m 209.82493,646.24546 h 22 v 22 h -22 z"
         id="path25" />
      <path
         d="m 227.91598,662.25439 c -1.1125,-0.83572 -1.75,-2.11072 -1.75,-3.50179 v -2.91607 c 0,-2.44286 -1.64643,-4.50893 -3.88929,-5.14464 v -0.6875 c 0,-0.80357 -0.65357,-1.45893 -1.45892,-1.45893 -0.80357,0 -1.45893,0.65357 -1.45893,1.45893 v 0.6875 c -2.24286,0.63571 -3.88929,2.70178 -3.88929,5.14464 v 2.91607 c 0,1.38929 -0.6375,2.66429 -1.75,3.50179 -0.16785,0.125 -0.23571,0.34286 -0.16964,0.54286 0.0661,0.19821 0.25179,0.33214 0.46071,0.33214 h 4.42322 c -0.0321,0.15893 -0.05,0.32143 -0.05,0.48571 0,1.33929 1.09107,2.43036 2.43036,2.43036 1.33928,0 2.43035,-1.09107 2.43035,-2.43036 0,-0.1625 -0.0161,-0.32678 -0.0482,-0.48571 h 4.42321 c 0.20893,0 0.39464,-0.13393 0.46072,-0.33214 0.0714,-0.19822 0.002,-0.41786 -0.16429,-0.54286 z m -7.58214,-12.25 c 0,-0.26786 0.21786,-0.48572 0.48571,-0.48572 0.26786,0 0.48572,0.21786 0.48572,0.48572 v 0.50893 c -0.16072,-0.0143 -0.32143,-0.0232 -0.48572,-0.0232 -0.16428,0 -0.325,0.007 -0.48571,0.0232 z m 1.94464,13.60893 c 0,0.80357 -0.65357,1.45893 -1.45893,1.45893 -0.80357,0 -1.45893,-0.65358 -1.45893,-1.45893 0,-0.16607 0.0286,-0.33036 0.0839,-0.48572 h 2.75 c 0.0554,0.15536 0.0839,0.31965 0.0839,0.48572 z m -7.05536,-1.45715 c 0.24822,-0.3 0.46429,-0.62857 0.64108,-0.97321 0.3875,-0.75714 0.58214,-1.57321 0.58214,-2.43036 v -2.91607 c 0,-2.4125 1.9625,-4.375 4.375,-4.375 2.41071,0 4.375,1.9625 4.375,4.375 v 2.91607 c 0,0.85536 0.19643,1.67322 0.58214,2.42857 0.17679,0.34643 0.39286,0.67322 0.63929,0.97322 h -11.19465 z"
         id="path4-3-3"
         style="fill:#d35f5f;fill-opacity:1;stroke-width:0.0178571" />
      <path
         d="m 225.72526,660.04546 h -9.91627 c -0.11443,0 -0.20806,-0.18 -0.20806,-0.4 0,-0.22 0.0936,-0.4 0.20806,-0.4 h 9.91627 c 0.11444,0 0.20807,0.18 0.20807,0.4 0,0.22 -0.0936,0.4 -0.20807,0.4 z"
         id="path38-6"
         style="fill:#d35f5f;fill-opacity:1;stroke-width:0.288486" />
    </g>
  </g>
</svg>
