<?xml version="1.0" encoding="UTF-8" standalone="no"?>
<svg
   sodipodi:docname="phone.svg"
   inkscape:version="1.2.1 (9c6d41e410, 2022-07-14)"
   id="svg"
   viewBox="0 0 32.000015 31.999973"
   height="31.999973"
   width="32.000015"
   version="1.1"
   xmlns:inkscape="http://www.inkscape.org/namespaces/inkscape"
   xmlns:sodipodi="http://sodipodi.sourceforge.net/DTD/sodipodi-0.dtd"
   xmlns="http://www.w3.org/2000/svg"
   xmlns:svg="http://www.w3.org/2000/svg"
   xmlns:rdf="http://www.w3.org/1999/02/22-rdf-syntax-ns#"
   xmlns:cc="http://creativecommons.org/ns#"
   xmlns:dc="http://purl.org/dc/elements/1.1/">
    <style
       id="current-color-scheme"
       type="text/css">.ColorScheme-Text { color:#d1d5e9; }
</style>
  <sodipodi:namedview
     inkscape:document-rotation="0"
     fit-margin-bottom="0"
     fit-margin-right="0"
     fit-margin-left="0"
     fit-margin-top="0"
     inkscape:snap-bbox-midpoints="true"
     inkscape:snap-bbox="true"
     inkscape:current-layer="svg"
     inkscape:window-maximized="1"
     inkscape:window-y="0"
     inkscape:window-x="0"
     inkscape:cy="23.599689"
     inkscape:cx="-2.4748737"
     inkscape:zoom="5.6568543"
     showgrid="false"
     id="namedview10"
     inkscape:window-height="1008"
     inkscape:window-width="1920"
     inkscape:pageshadow="2"
     inkscape:pageopacity="0"
     guidetolerance="10"
     gridtolerance="10"
     objecttolerance="10"
     borderopacity="1"
     bordercolor="#000000"
     pagecolor="#cbcbcb"
     showguides="true"
     inkscape:lockguides="false"
     inkscape:pagecheckerboard="0"
     inkscape:showpageshadow="2"
     inkscape:deskcolor="#808080">
    <inkscape:grid
       type="xygrid"
       id="grid6368"
       originx="3.4344482e-07"
       originy="-1.4697265e-07" />
  </sodipodi:namedview>
  <defs
     id="defs81">
    <style
       id="current-color-scheme"
       type="text/css" />
  </defs>
  <metadata
     id="metadata34">
    <rdf:RDF>
      <cc:Work
         rdf:about="">
        <dc:format>image/svg+xml</dc:format>
        <dc:type
           rdf:resource="http://purl.org/dc/dcmitype/StillImage" />
      </cc:Work>
    </rdf:RDF>
  </metadata>
  <g
     id="phone"
     transform="translate(-52.000001)"
     style="fill:#d1d5e9;fill-opacity:1">
    <rect
       width="32.000015"
       height="31.999973"
       rx="0"
       ry="0"
       x="-2.9711913e-07"
       y="-3.8330079e-08"
       id="rect3860"
       style="opacity:0.01;fill:#d1d5e9;fill-opacity:1;stroke:none" />
    <path
       d="M 21.068,4.0000028 H 10.932 C 9.868,4.0000028 9,4.7839859 9,5.7449975 V 26.255008 c 0,0.961012 0.868,1.744995 1.932,1.744995 h 10.136 c 1.063999,0 1.932,-0.783983 1.932,-1.744995 V 5.7449975 C 23,4.7839859 22.131999,4.0000028 21.068,4.0000028 Z m -7.644,1.3909378 h 5.096 c 0.195999,0 0.336,0.1264489 0.336,0.3034774 0,0.1770284 -0.140001,0.3034773 -0.336,0.3034773 h -5.096 c -0.196,0 -0.336,-0.1264489 -0.336,-0.3034773 0,-0.1517387 0.14,-0.3034774 0.336,-0.3034774 z m 2.548,21.0916754 c -0.560001,0 -1.008,-0.404636 -1.008,-0.910432 0,-0.505795 0.447999,-0.910432 1.008,-0.910432 0.56,0 1.008,0.404637 1.008,0.910432 -0.028,0.505796 -0.476,0.910432 -1.008,0.910432 z M 22,23 H 10 V 7 h 12 z"
       id="path10"
       style="stroke-width:0.266104;fill-opacity:1;fill:currentColor;"
       sodipodi:nodetypes="ssssssssssssssssssscsccccc"
       class="ColorScheme-Text" />
  </g>
  <g
     id="phone-battery"
     transform="translate(7.5624723,73.281212)"
     style="fill:#d1d5e9;fill-opacity:1">
    <rect
       style="opacity:0.01;fill:#d1d5e9;fill-opacity:1;stroke:none"
       id="rect3038"
       y="-73.281212"
       x="-7.5624723"
       ry="0"
       rx="0"
       height="31.999973"
       width="32.000015" />
    <path
       sodipodi:nodetypes="ccccccc"
       inkscape:connector-curvature="0"
       id="path4444"
       d="m 9.4375625,-64.281212 -4.0000348,6.5454 h 1.9999621 v 5.4546 l 4.0000382,-6.54552 H 9.4375625 Z"
       style="stroke-width:0.95744;stroke:none;fill-rule:evenodd;fill-opacity:1;fill:currentColor;"
       class="ColorScheme-Text" />
    <path
       d="M 13.505528,-69.281207 H 3.3695277 c -1.0640001,0 -1.932,0.783983 -1.932,1.744995 v 20.51001 c 0,0.961012 0.8679999,1.744995 1.932,1.744995 H 13.505528 c 1.063999,0 1.932,-0.783983 1.932,-1.744995 v -20.51001 c 0,-0.961012 -0.868001,-1.744995 -1.932,-1.744995 z m -7.6440004,1.390938 h 5.0960004 c 0.195999,0 0.336,0.126449 0.336,0.303477 0,0.177028 -0.140001,0.303477 -0.336,0.303477 H 5.8615276 c -0.1960001,0 -0.3360001,-0.126449 -0.3360001,-0.303477 0,-0.151739 0.14,-0.303477 0.3360001,-0.303477 z m 2.548,21.091675 c -0.5600001,0 -1.0080001,-0.404636 -1.0080001,-0.910432 0,-0.505795 0.448,-0.910432 1.0080001,-0.910432 0.5600013,0 1.0080014,0.404637 1.0080014,0.910432 -0.028,0.505796 -0.4760001,0.910432 -1.0080014,0.910432 z m 6.0280004,-3.482618 H 2.4375277 v -16 H 14.437528 Z"
       id="path10-2"
       style="stroke-width:0.266104;fill-opacity:1;fill:currentColor;"
       sodipodi:nodetypes="ssssssssssssssssssscsccccc"
       class="ColorScheme-Text" />
  </g>
  <g
     id="22-22-phone-battery"
     transform="translate(7.9999943,73.5)">
    <rect
       y="-34.5"
       x="-2.999994"
       height="22"
       width="22"
       id="rect3054"
       style="fill:#000000;fill-opacity:0;stroke:none" />
    <path
       class="ColorScheme-Text"
       style="stroke-width:0.716483;stroke:none;fill-rule:evenodd;fill-opacity:1;fill:currentColor;"
       d="M 8.6666971,-27.5 6.000006,-23.681851 H 7.3333138 V -20.5 l 2.6666922,-3.81822 H 8.6666971 Z"
       id="path3072"
       inkscape:connector-curvature="0"
       sodipodi:nodetypes="ccccccc" />
    <path
       d="M 11.620005,-31.5 H 4.3800051 c -0.7599991,0 -1.3799991,0.522655 -1.3799991,1.16333 v 13.67334 c 0,0.640674 0.62,1.163329 1.3799991,1.163329 h 7.2399999 c 0.76,0 1.380001,-0.522655 1.380001,-1.163329 v -13.67334 c 0,-0.640675 -0.620001,-1.16333 -1.380001,-1.16333 z m -5.46,0.927292 h 3.639998 c 0.140001,0 0.240001,0.0843 0.240001,0.202318 0,0.118019 -0.1,0.202318 -0.240001,0.202318 H 6.160005 c -0.1400001,0 -0.24,-0.0843 -0.24,-0.202318 0,-0.101159 0.1,-0.202318 0.24,-0.202318 z m 1.8199989,14.061116 c -0.3999999,0 -0.7199999,-0.269757 -0.7199999,-0.606954 0,-0.337197 0.32,-0.606955 0.7199999,-0.606955 0.4,0 0.72,0.269758 0.72,0.606955 -0.02,0.337197 -0.34,0.606954 -0.72,0.606954 z m 4.0200021,-1.925408 -8,-0.063 v -11 h 8 z"
       id="path10-2-6"
       style="stroke-width:0.18363;fill-opacity:1;fill:currentColor;"
       sodipodi:nodetypes="ssssssssssssssssssscsccccc"
       class="ColorScheme-Text" />
  </g>
  <g
     id="22-22-phone"
     transform="translate(7.9999963,73.5)">
    <rect
       style="fill:#000000;fill-opacity:0;stroke:none"
       id="rect3841"
       width="22"
       height="22"
       x="-54.999996"
       y="-34.5" />
    <path
       d="m -40.379996,-31.5 h -7.240001 c -0.759999,0 -1.379999,0.522655 -1.379999,1.16333 v 13.67334 c 0,0.640674 0.62,1.163329 1.379999,1.163329 h 7.240001 c 0.759999,0 1.38,-0.522655 1.38,-1.163329 v -13.67334 c 0,-0.640675 -0.620001,-1.16333 -1.38,-1.16333 z m -5.460001,0.927292 h 3.64 c 0.14,0 0.24,0.0843 0.24,0.202318 0,0.118019 -0.1,0.202318 -0.24,0.202318 h -3.64 c -0.14,0 -0.239999,-0.0843 -0.239999,-0.202318 0,-0.101159 0.1,-0.202318 0.239999,-0.202318 z m 1.820001,14.061116 c -0.4,0 -0.72,-0.269757 -0.72,-0.606954 0,-0.337197 0.32,-0.606955 0.72,-0.606955 0.4,0 0.719999,0.269758 0.719999,0.606955 -0.02,0.337197 -0.339999,0.606954 -0.719999,0.606954 z m 4.02,-1.988408 h -8 v -11 h 8 z"
       id="path10-2-6-9"
       style="stroke-width:0.183631;fill-opacity:1;fill:currentColor;"
       sodipodi:nodetypes="ssssssssssssssssssscsccccc"
       class="ColorScheme-Text" />
  </g>
</svg>
