<?xml version="1.0" encoding="UTF-8" standalone="no"?>
<svg
   width="32"
   height="32"
   version="1.1"
   id="svg12"
   sodipodi:docname="plasmavault.svg"
   inkscape:version="1.2.1 (9c6d41e410, 2022-07-14)"
   xmlns:inkscape="http://www.inkscape.org/namespaces/inkscape"
   xmlns:sodipodi="http://sodipodi.sourceforge.net/DTD/sodipodi-0.dtd"
   xmlns:xlink="http://www.w3.org/1999/xlink"
   xmlns="http://www.w3.org/2000/svg"
   xmlns:svg="http://www.w3.org/2000/svg"
   xmlns:rdf="http://www.w3.org/1999/02/22-rdf-syntax-ns#"
   xmlns:cc="http://creativecommons.org/ns#"
   xmlns:dc="http://purl.org/dc/elements/1.1/">
    <style
       id="current-color-scheme"
       type="text/css">.ColorScheme-Text { color:#d1d5e9; }
</style>
  <metadata
     id="metadata18">
    <rdf:RDF>
      <cc:Work
         rdf:about="">
        <dc:format>image/svg+xml</dc:format>
        <dc:type
           rdf:resource="http://purl.org/dc/dcmitype/StillImage" />
      </cc:Work>
    </rdf:RDF>
  </metadata>
  <defs
     id="defs16">
    <linearGradient
       inkscape:collect="always"
       id="linearGradient848">
      <stop
         style="stop-color:#660029;stop-opacity:1"
         offset="0"
         id="stop844" />
      <stop
         style="stop-color:#b20048;stop-opacity:1"
         offset="1"
         id="stop846" />
    </linearGradient>
    <linearGradient
       inkscape:collect="always"
       xlink:href="#linearGradient848"
       id="linearGradient895"
       gradientUnits="userSpaceOnUse"
       gradientTransform="matrix(0.03232332,0,0,0.02930411,3.000002,3.713925)"
       x1="5.575531"
       y1="471.67694"
       x2="237.70486"
       y2="271.28119" />
  </defs>
  <sodipodi:namedview
     pagecolor="#cccccc"
     bordercolor="#000000"
     borderopacity="1"
     objecttolerance="10"
     gridtolerance="10"
     guidetolerance="10"
     inkscape:pageopacity="0"
     inkscape:pageshadow="2"
     inkscape:window-width="1920"
     inkscape:window-height="1008"
     id="namedview14"
     showgrid="false"
     inkscape:zoom="9.8125"
     inkscape:cx="38.828025"
     inkscape:cy="18.394904"
     inkscape:window-x="0"
     inkscape:window-y="0"
     inkscape:window-maximized="1"
     inkscape:current-layer="svg12"
     inkscape:document-rotation="0"
     inkscape:lockguides="false"
     inkscape:pagecheckerboard="0"
     inkscape:showpageshadow="2"
     inkscape:deskcolor="#808080"
     showguides="true">
    <inkscape:grid
       type="xygrid"
       id="grid868"
       originx="16.197452"
       originy="47.490446" />
  </sodipodi:namedview>
  <g
     id="plasmavault"
     style="fill:#d1d5e9;fill-opacity:1">
    <rect
       style="opacity:0.00100002;fill:#d1d5e9;fill-opacity:1"
       width="32"
       height="32"
       x="0"
       y="0"
       id="rect7-3" />
    <path
       d="M 27.448027,7 H 14.617579 C 14.334011,7 13.977259,6.379391 13.8,6.1096 L 12.951757,4.809131 C 12.632818,4.269813 12.101049,4 11.534159,4 H 4.9771664 C 3.3466512,4 2,5.4639628 2,7.235896 V 25.5868 C 2,27.089215 3.0343988,28 4.452,28 h 11.122736 v 0 0 0 0 0 0 0 h 0.850528 v 0 0 0 0 0 0 0 0 0 H 27.648 C 29.199921,28 30,27 30,25.5868 V 9.288 C 30,7.3407012 28.733257,7 27.348,7 Z M 16.425264,28 v 0 h -0.850528 v 0 0 z M 29,25.426 C 29,26.427531 28.504791,27 27.548,27 H 4.452 C 3.5305382,27 3,26.227925 3,25.226394 V 19.024147 14.618 C 3,13.616461 4.0305414,13 4.952,13 H 17.849168 C 18.41632,13 18.799607,12.638183 19.15,12.16 L 20,11 h 1 6 2 v 7 z m -1.97741,-15.416343 -6.592449,-0.009 C 20,10 19.382394,10.235771 19.01255,10.699057 L 17.974,12 c 0,0 -0.690439,10e-4 -0.974,10e-4 L 5,12 c -0.6378488,-5.3e-5 -1.538136,0.08154 -2,0.789 V 9.539 C 3,8.615948 3.750004,8.001 4.625004,8.001 h 7.000004 0.01873 1.293744 1.895823 L 27.683,8 C 28.604461,7.9999283 29,8.499894 29,9.047 v 0.953102 l -2.444024,0.0087 z"
       id="path64-7-6"
       sodipodi:nodetypes="csccsssssccccccccccccccccccsssccccccccccssccsssccscscccsccscccccccssccc"
       style="stroke-width:0.0659837;fill-opacity:1;fill:currentColor;"
       class="ColorScheme-Text" />
    <path
       style="stroke-width:0.909406;fill-opacity:1;fill:currentColor;"
       class="ColorScheme-Text"
       d="m 25.904625,20.917587 c 0.379693,-0.282491 0.660533,-0.545504 0.848034,-0.847896 0.18744,-0.302313 0.260262,-0.658897 0.208402,-0.987446 -0.103747,-0.657106 -0.544451,-1.184737 -1.094816,-1.941696 l -0.0024,-0.0029 -1.779051,-2.391215 -0.0024,-0.0029 C 23.51515,13.999151 23.136775,13.425072 22.537352,13.136778 22.23765,12.992633 21.875109,12.95996 21.53167,13.052588 c -0.343518,0.09268 -0.676147,0.286089 -1.055842,0.56858 l -2.270067,1.688903 c -0.379694,0.282491 -0.660607,0.545555 -0.848033,0.847889 -0.187516,0.30237 -0.258877,0.657868 -0.207016,0.986421 0.09015,0.571211 0.457453,1.066888 0.907547,1.6781 l -1.417167,1.058892 -0.142174,0.665879 -0.636228,-0.09338 -0.09338,0.63623 -0.636226,-0.09338 -0.09338,0.636225 L 13.767048,21.4459 13.3,24.626937 l 2.544907,0.373574 4.382333,-3.262697 c 0.45307,0.608972 0.828639,1.09854 1.346486,1.351536 0.299714,0.144147 0.662251,0.176811 1.005688,0.08419 0.343589,-0.09261 0.67483,-0.284952 1.054525,-0.567443 z m -0.542835,-0.729622 -2.270072,1.688917 c -0.329644,0.245252 -0.580074,0.372404 -0.749428,0.418096 -0.169379,0.04566 -0.250546,0.03512 -0.37464,-0.02455 -0.248264,-0.119341 -0.645333,-0.590268 -1.215111,-1.338586 l -0.343513,-0.461714 -4.804126,3.576505 -1.272454,-0.18678 0.202813,-1.381791 1.272453,0.18679 0.09338,-0.636228 0.636225,0.09338 0.09338,-0.636229 0.579083,0.08497 0.24962,-1.164235 1.864992,-1.394229 -0.342452,-0.460288 c -0.553334,-0.760497 -0.889738,-1.276642 -0.932891,-1.548548 -0.02173,-0.13584 -0.0084,-0.216744 0.08416,-0.365889 0.09248,-0.14917 0.286195,-0.352404 0.615835,-0.597661 l 2.270074,-1.688905 c 0.32964,-0.245253 0.581459,-0.373434 0.750813,-0.419129 0.169384,-0.04566 0.249162,-0.03411 0.373255,0.0256 0.247465,0.119027 0.646179,0.588815 1.213318,1.33328 l 0.0032,0.0044 1.770571,2.379819 0.0032,0.0044 c 0.549832,0.75731 0.885524,1.274028 0.928331,1.545313 0.02173,0.135831 0.0096,0.215768 -0.08276,0.364855 -0.09251,0.149172 -0.287612,0.353439 -0.617255,0.598691 z M 23.328569,18.30021 a 0.90940374,0.90940377 0 0 0 0.186786,-1.272455 0.90940374,0.90940377 0 0 0 -1.272452,-0.186788 0.90940374,0.90940377 0 0 0 -0.18679,1.272456 0.90940374,0.90940377 0 0 0 1.272456,0.186787 z"
       id="path58-7" />
  </g>
  <g
     id="22-22-plasmavault"
     style="fill:#d1d5e9;fill-opacity:1">
    <rect
       style="opacity:0.00100002;fill:#d1d5e9;fill-opacity:1"
       width="22"
       height="22"
       x="32"
       y="10"
       id="rect2-5" />
    <path
       d="m 50,15 h -7.888704 c -0.182289,0 -0.341695,-0.27257 -0.455653,-0.4505 L 41.040412,13.533521 C 40.83538,13.177907 40.493539,13 40.129101,13 H 35.913897 C 34.865713,13 34,13.965319 34,15.133703 V 27.296 C 34,28.286672 34.788687,29 35.7,29 H 43 v 0 0 0 0 0 0 0 0 0 0 0 0 0 0 0 0 0 h 7.3 C 51.188613,29 52,28.311981 52,27.296 V 16.28 C 52,15.561079 51.511473,15 50.6,15 Z m 1,11.8 c 0,0 0.2,1.2 -0.8,1.2 H 35.8 C 34.787511,28 35,26.8 35,26.8 V 23 20 20 h 9 v 0 h 7 v -1 0 0 4 z M 51,18 V 18 18.651868 19 h -7 -9 v 0 -2.348019 C 35,16.043321 35.125005,16 35.687497,16 H 40 v 0 h 1 1 8 c 0.592366,0 1,0 1,0.8 z"
       id="path64-6-3"
       sodipodi:nodetypes="csccsssssccccccccccccccccccsssccscccccccccccccsccccscccsccccccc"
       style="stroke-width:1.12763;fill-opacity:1;fill:currentColor;"
       class="ColorScheme-Text" />
    <path
       style="stroke-width:0.460031;fill-opacity:1;fill:currentColor;"
       class="ColorScheme-Text"
       d="m 49.451949,24.958462 c 0.19434,-0.14123 0.338078,-0.272726 0.434046,-0.423904 0.09599,-0.151142 0.133211,-0.329413 0.106679,-0.493668 -0.05313,-0.32852 -0.278666,-0.592309 -0.560362,-0.970746 l -0.0019,-0.0019 -0.910521,-1.195438 -0.0019,-0.0019 c -0.289822,-0.371656 -0.483482,-0.658665 -0.79028,-0.802799 -0.153397,-0.07205 -0.338956,-0.08836 -0.514735,-0.0421 -0.175825,0.04634 -0.346072,0.143033 -0.540415,0.284266 l -1.161815,0.844423 c -0.194338,0.141227 -0.338124,0.272743 -0.434053,0.423901 -0.09605,0.151162 -0.1325,0.328898 -0.10601,0.493156 0.04623,0.285573 0.234138,0.533384 0.464512,0.838958 l -0.725348,0.529386 -0.07277,0.332905 -0.325633,-0.04664 -0.04767,0.318092 -0.325638,-0.04664 -0.04768,0.318072 -0.65043,-0.09304 L 43.001,26.813233 44.30355,27 46.546552,25.368825 c 0.231888,0.304457 0.424118,0.549212 0.68916,0.675696 0.153406,0.07209 0.33896,0.08844 0.514742,0.04213 0.175862,-0.04634 0.345396,-0.142457 0.539735,-0.283687 z m -0.277839,-0.364774 -1.161883,0.844369 c -0.168716,0.122613 -0.296897,0.186181 -0.383576,0.209025 -0.08674,0.02284 -0.12823,0.01761 -0.191745,-0.01228 -0.127074,-0.05964 -0.330306,-0.295103 -0.621938,-0.66922 l -0.175815,-0.230836 -2.458878,1.788063 -0.65128,-0.09337 0.103789,-0.690817 0.651278,0.09338 0.04767,-0.318082 0.325632,0.04664 0.04769,-0.318083 0.296393,0.04245 0.127766,-0.582054 0.954551,-0.697038 -0.17528,-0.23012 c -0.283211,-0.380207 -0.455385,-0.638249 -0.477477,-0.77419 -0.01117,-0.06794 -0.0025,-0.10837 0.04316,-0.182927 0.04742,-0.07461 0.146478,-0.17618 0.315198,-0.298797 l 1.161871,-0.844353 c 0.168715,-0.122615 0.297606,-0.1867 0.384289,-0.209547 0.08674,-0.02285 0.127522,-0.0171 0.191038,0.01284 0.126663,0.05954 0.330731,0.294377 0.621012,0.666572 l 0.0022,0.0025 0.906227,1.189784 0.0022,0.0025 c 0.28142,0.378613 0.453233,0.636946 0.475148,0.772577 0.01117,0.06793 0.0043,0.10787 -0.04235,0.18241 -0.04744,0.07461 -0.147205,0.176695 -0.315925,0.299315 z m -1.040655,-0.943776 a 0.4654574,0.45465305 0 0 0 0.09558,-0.63616 0.4654574,0.45465305 0 0 0 -0.651275,-0.09337 0.4654574,0.45465305 0 0 0 -0.09559,0.636161 0.4654574,0.45465305 0 0 0 0.65128,0.09339 z"
       id="path58-3-5" />
  </g>
</svg>
