<?xml version="1.0" encoding="UTF-8" standalone="no"?>
<svg
   width="32"
   height="32"
   version="1.1"
   id="svg12"
   sodipodi:docname="video.svg"
   inkscape:version="1.2.1 (9c6d41e410, 2022-07-14)"
   xmlns:inkscape="http://www.inkscape.org/namespaces/inkscape"
   xmlns:sodipodi="http://sodipodi.sourceforge.net/DTD/sodipodi-0.dtd"
   xmlns="http://www.w3.org/2000/svg"
   xmlns:svg="http://www.w3.org/2000/svg"
   xmlns:rdf="http://www.w3.org/1999/02/22-rdf-syntax-ns#"
   xmlns:cc="http://creativecommons.org/ns#"
   xmlns:dc="http://purl.org/dc/elements/1.1/">
  <style
     id="current-color-scheme"
     type="text/css">.ColorScheme-Highlight { color:#ffeeaa; }
.ColorScheme-Text { color:#d6dbf1; }
</style>
  <metadata
     id="metadata18">
    <rdf:RDF>
      <cc:Work
         rdf:about="">
        <dc:format>image/svg+xml</dc:format>
        <dc:type
           rdf:resource="http://purl.org/dc/dcmitype/StillImage" />
      </cc:Work>
    </rdf:RDF>
  </metadata>
  <defs
     id="defs16" />
  <sodipodi:namedview
     pagecolor="#ffffff"
     bordercolor="#000000"
     borderopacity="1"
     objecttolerance="10"
     gridtolerance="10"
     guidetolerance="10"
     inkscape:pageopacity="0"
     inkscape:pageshadow="2"
     inkscape:window-width="1920"
     inkscape:window-height="1008"
     id="namedview14"
     showgrid="false"
     inkscape:zoom="11.313709"
     inkscape:cx="19.091882"
     inkscape:cy="12.860504"
     inkscape:window-x="0"
     inkscape:window-y="0"
     inkscape:window-maximized="1"
     inkscape:current-layer="svg12"
     inkscape:document-rotation="0"
     inkscape:lockguides="false"
     inkscape:showpageshadow="false"
     inkscape:pagecheckerboard="0"
     inkscape:deskcolor="#d1d1d1">
    <inkscape:grid
       type="xygrid"
       id="grid988"
       originx="0"
       originy="-1.3897704e-07" />
  </sodipodi:namedview>
  <g
     id="video-display-brightness">
    <rect
       style="opacity:0.00100002;fill:#d6dbf1;fill-opacity:1"
       width="32"
       height="32"
       x="0"
       y="1.3897704e-07"
       id="rect7" />
    <path
       d="m 19.127173,12.979133 a 0.76693863,0.76693863 0 0 1 0,-0.905293 l 0.683208,-0.929231 A 0.76693863,0.76693863 0 0 0 19.10837,9.928439 l -1.144437,0.12478 A 0.76693863,0.76693863 0 0 1 17.176515,9.597157 l -0.464599,-1.0539 a 0.76693863,0.76693863 0 0 0 -1.40407,0 l -0.464599,1.0539 a 0.76693863,0.76693863 0 0 1 -0.784049,0.45265 L 12.914773,9.925011 a 0.76693863,0.76693863 0 0 0 -0.702022,1.21617 l 0.683256,0.929221 a 0.76693863,0.76693863 0 0 1 0,0.905287 l -0.683256,0.929209 a 0.76693863,0.76693863 0 0 0 0.702022,1.21617 l 1.144425,-0.12463 a 0.76693863,0.76693863 0 0 1 0.784049,0.452655 l 0.464599,1.0539 a 0.76693863,0.76693863 0 0 0 1.40407,0 l 0.464599,-1.0539 a 0.76693863,0.76693863 0 0 1 0.784,-0.452655 l 1.144436,0.12463 a 0.76693863,0.76693863 0 0 0 0.702011,-1.21617 z m -3.113898,1.525337 a 1.9779843,1.9779843 0 1 1 1.97288,-1.978002 1.9779843,1.9779843 0 0 1 -1.97288,1.978002 z m 2.133441,-5.078212 -0.536371,-0.309167 0.635453,-1.103419 0.536323,0.30916 z m -5.872487,2.750069 v 0.618326 L 11,12.783973 v -0.618471 z m 7.471255,0.717405 0.0094,-0.61836 1.274247,0.02125 -0.0094,0.618335 z M 14.450354,9.110254 13.910603,9.414321 13.280326,8.304032 13.820067,8 Z M 13.849126,15.587388 14.383738,15.9017 13.738077,17 13.205174,16.685713 Z m 3.839828,0.288684 0.529495,-0.321121 0.661046,1.088037 -0.529543,0.321129 z"
       id="path4-3"
       style="stroke-width:0.170814;fill-opacity:1;fill:currentColor;"
       class="ColorScheme-Text" />
    <path
       d="M 28.348059,4 H 3.651942 C 2.741172,4 2,4.622088 2,5.51 V 23.153 C 2,24.099836 2.489162,25 3.651942,25 h 9.089644 c -0.283623,0.895651 -0.950823,2.014291 -2.295686,2.014291 V 28 h 11.108201 v -0.985709 c -1.344863,0 -2.012063,-1.11864 -2.295686,-2.014291 H 28.248 C 29.661091,25 30,24.099836 30,23.153 V 5.610132 C 30,4.72222 29.258829,4 28.348059,4 Z M 29.039,23.052812 C 29.04197,23.208978 28.900302,24 28.248,24 H 3.651942 C 3,24 3,23.209006 3,23.052812 V 21 H 29 Z M 29,20 H 3 V 5.91 C 3,5 3.591428,5.027177 3.752,5.027 L 28.248,5 C 28.408215,4.999823 29,5 29,6.01 Z"
       id="path2-6"
       style="fill:currentColor;fill-opacity:1;stroke-width:0.356287"
       sodipodi:nodetypes="sssssccccccsssssscsccscccsssc"
       class="ColorScheme-Text" />
  </g>
  <g
     id="22-22-video-display-brightness"
     transform="translate(32,10.000003)">
    <rect
       style="opacity:0.00100002;fill:#d6dbf1;fill-opacity:1"
       width="22"
       height="22"
       x="0"
       y="-1.3897704e-07"
       id="rect2" />
    <path
       d="m 13.418116,8.986089 a 0.51129242,0.51129242 0 0 1 0,-0.603529 l 0.455472,-0.619487 a 0.51129242,0.51129242 0 0 0 -0.468007,-0.81078 l -0.762958,0.08319 A 0.51129242,0.51129242 0 0 1 12.117678,6.731442 l -0.309733,-0.7026 a 0.51129242,0.51129242 0 0 0 -0.936047,0 l -0.309732,0.7026 a 0.51129242,0.51129242 0 0 1 -0.522701,0.301767 l -0.7629496,-0.0832 a 0.51129242,0.51129242 0 0 0 -0.468014,0.81078 l 0.455504,0.619481 a 0.51129242,0.51129242 0 0 1 0,0.603525 l -0.455504,0.619472 a 0.51129242,0.51129242 0 0 0 0.468014,0.81078 l 0.7629496,-0.08309 a 0.51129242,0.51129242 0 0 1 0.522701,0.30177 l 0.309732,0.7026 a 0.51129242,0.51129242 0 0 0 0.936047,0 l 0.309733,-0.7026 a 0.51129242,0.51129242 0 0 1 0.522666,-0.30177 l 0.762958,0.08309 a 0.51129242,0.51129242 0 0 0 0.468007,-0.81078 z m -2.075932,1.016891 a 1.3186562,1.3186562 0 1 1 1.315254,-1.318668 1.3186562,1.3186562 0 0 1 -1.315254,1.318668 z m 1.422294,-3.385475 -0.35758,-0.206111 0.423635,-0.735613 0.357549,0.206107 z m -3.9149916,1.83338 v 0.412217 l -0.849486,-0.0071 V 8.443688 Z m 4.9808376,0.47827 0.0063,-0.41224 0.849498,0.01417 -0.0063,0.412224 z M 10.300236,6.406836 9.940402,6.609547 9.5202174,5.869355 9.8800454,5.666667 Z m -0.4008186,4.318089 0.3564076,0.209542 -0.4304396,0.7322 -0.355269,-0.209525 z m 2.5598866,0.192456 0.352996,-0.21408 0.440698,0.725358 -0.353029,0.214086 z"
       id="path4-3-7-3"
       style="stroke-width:0.113876;fill-opacity:1;fill:currentColor;"
       class="ColorScheme-Text" />
    <path
       d="M 19.565374,3 H 3.101295 C 2.494115,3 2,3.414725 2,4.006667 v 11.762 C 2,16.399891 2.326108,17 3.101295,17 h 6.0597624 c -0.189082,0.597101 -0.633882,1.342861 -1.530457,1.342861 V 19 h 7.4054676 v -0.657139 c -0.896575,0 -1.341375,-0.74576 -1.530457,-1.342861 h 5.993057 c 0.94206,0 1.168,-0.600109 1.168,-1.231333 V 4.073421 C 20.666668,3.48148 20.172554,3 19.565374,3 Z m 0.460627,12.701875 c 0.0039,0.104058 -0.09247,0.631458 -0.527333,0.631458 H 3.101295 c -0.434628,0 -0.434628,-0.527329 -0.434628,-0.631458 V 15 H 20.000001 Z M 20.000001,14 H 2.666667 V 4.273333 c 0,-0.606666 0.394285,-0.588548 0.501333,-0.588666 l 16.330668,-0.018 c 0.10681,-1.18e-4 0.501333,0 0.501333,0.673333 z"
       id="path2-6-5-5"
       style="fill:currentColor;fill-opacity:1;stroke-width:0.237525"
       sodipodi:nodetypes="sssssccccccsssssscsccscccsssc"
       class="ColorScheme-Text " />
  </g>
</svg>
