<?xml version="1.0" encoding="UTF-8" standalone="no"?>
<svg
   id="svg"
   width="32"
   height="32"
   version="1.1"
   viewBox="0 0 32 32"
   sodipodi:docname="window.svg"
   inkscape:version="1.2.1 (9c6d41e410, 2022-07-14)"
   xmlns:inkscape="http://www.inkscape.org/namespaces/inkscape"
   xmlns:sodipodi="http://sodipodi.sourceforge.net/DTD/sodipodi-0.dtd"
   xmlns="http://www.w3.org/2000/svg"
   xmlns:svg="http://www.w3.org/2000/svg"
   xmlns:rdf="http://www.w3.org/1999/02/22-rdf-syntax-ns#"
   xmlns:cc="http://creativecommons.org/ns#"
   xmlns:dc="http://purl.org/dc/elements/1.1/">
  <style
     id="current-color-scheme"
     type="text/css">.ColorScheme-Highlight {
    color:#7580bc;
}
.ColorScheme-Text { color:#d1d5e9; }
</style>
  <metadata
     id="metadata60">
    <rdf:RDF>
      <cc:Work
         rdf:about="">
        <dc:format>image/svg+xml</dc:format>
        <dc:type
           rdf:resource="http://purl.org/dc/dcmitype/StillImage" />
      </cc:Work>
    </rdf:RDF>
  </metadata>
  <sodipodi:namedview
     pagecolor="#cccccc"
     bordercolor="#000000"
     borderopacity="1"
     objecttolerance="10"
     gridtolerance="10"
     guidetolerance="10"
     inkscape:pageopacity="0"
     inkscape:pageshadow="2"
     inkscape:window-width="1920"
     inkscape:window-height="1010"
     id="namedview58"
     showgrid="false"
     inkscape:zoom="7.7307006"
     inkscape:cx="29.492799"
     inkscape:cy="14.423014"
     inkscape:window-x="0"
     inkscape:window-y="0"
     inkscape:window-maximized="1"
     inkscape:current-layer="svg"
     inkscape:lockguides="true"
     inkscape:document-rotation="0"
     inkscape:pagecheckerboard="0"
     inkscape:showpageshadow="true"
     inkscape:deskcolor="#808080">
    <inkscape:grid
       type="xygrid"
       id="grid855" />
  </sodipodi:namedview>
  <defs
     id="defs4">
    <linearGradient
       id="linearGradient5606"
       inkscape:swatch="solid">
      <stop
         id="stop5608"
         offset="0"
         style="stop-color:#000000" />
    </linearGradient>
  </defs>
  <g
     id="22-22-window-close"
     transform="translate(32,10)">
    <rect
       style="opacity:0.00100002"
       width="22"
       height="22"
       x="0"
       y="0"
       id="rect18" />
    <g
       style="fill:#ffffff"
       transform="matrix(1.7493122,0,0,1.7499488,-107.95048,-909.47286)"
       id="g24">
      <g
         style="fill:#ffffff"
         transform="translate(19,-242)"
         id="g22">
        <path
           style="fill-opacity:1;fill:currentColor;"
           d="m 45.571203,764.57141 h 0.857142 c 0.0089,-1.1e-4 0.01782,-4e-4 0.02679,0 0.21853,0.01 0.437032,0.11021 0.589286,0.26785 l 1.955357,1.95536 1.982143,-1.95536 c 0.227678,-0.19757 0.382861,-0.26185 0.589285,-0.26785 h 0.857143 v 0.85714 c 0,0.24555 -0.02943,0.47199 -0.214285,0.64286 l -1.955357,1.95535 1.928571,1.92858 c 0.161304,0.16128 0.241064,0.38867 0.241071,0.61607 v 0.85714 h -0.857143 c -0.2274,-10e-6 -0.454788,-0.0798 -0.616071,-0.24107 l -1.955357,-1.95536 -1.955357,1.95536 c -0.161288,0.1613 -0.388684,0.24107 -0.616076,0.24107 h -0.857142 v -0.85714 c -3e-6,-0.22739 0.07977,-0.45479 0.241071,-0.61607 l 1.955357,-1.92858 -1.955357,-1.95535 c -0.180636,-0.16683 -0.259851,-0.40222 -0.241071,-0.64286 z"
           id="path20"
           class="ColorScheme-Text" />
      </g>
    </g>
  </g>
  <g
     id="16-16-window-close"
     transform="translate(54,32)">
    <rect
       style="opacity:0.00100002"
       width="16"
       height="16"
       x="0"
       y="-16"
       id="rect27" />
    <g
       style="fill:#ffffff"
       transform="matrix(1.2495087,0,0,1.2499635,-76.964626,-665.48065)"
       id="g33">
      <g
         style="fill:#ffffff"
         transform="translate(19,-242)"
         id="g31">
        <path
           style="fill-opacity:1;fill:currentColor;"
           d="m 45.799685,764.79997 h 0.8 c 0.0083,-10e-5 0.01663,-3.7e-4 0.025,0 0.203961,0.009 0.407896,0.10286 0.55,0.25 l 1.825,1.825 1.85,-1.825 c 0.2125,-0.1844 0.357337,-0.2444 0.55,-0.25 h 0.8 v 0.8 c 0,0.22918 -0.02747,0.44052 -0.2,0.6 l -1.825,1.825 1.8,1.8 c 0.15055,0.15054 0.224993,0.36276 0.225,0.575 v 0.8 h -0.8 c -0.212241,-10e-6 -0.424469,-0.0745 -0.575,-0.225 l -1.825,-1.825 -1.825,1.825 c -0.150531,0.15055 -0.362768,0.225 -0.575,0.225 h -0.8 v -0.8 c -3e-6,-0.21223 0.07445,-0.42446 0.225,-0.575 l 1.825,-1.8 -1.825,-1.825 c -0.168594,-0.1557 -0.242528,-0.3754 -0.225,-0.6 z"
           id="path29"
           class="ColorScheme-Text" />
      </g>
    </g>
  </g>
  <g
     id="window-close">
    <rect
       width="32"
       height="32"
       x="0"
       y="0"
       style="opacity:0.00100002"
       id="rect36" />
    <g
       style="opacity:0.2"
       transform="matrix(1.7493122,0,0,1.7499488,-102.95048,-903.47286)"
       id="g46">
      <g
         transform="translate(19,-242)"
         id="g44" />
    </g>
    <g
       transform="matrix(1.7493122,0,0,1.7499488,-102.95048,-904.47286)"
       style="fill:#ffffff"
       id="g52">
      <g
         transform="translate(19,-242)"
         style="fill:#ffffff"
         id="g50">
        <path
           d="m 43.857606,762.85708 h 1.28572 c 0.01372,-1.1e-4 0.02682,-4e-4 0.04018,0 0.327793,0.016 0.655556,0.16541 0.883933,0.40185 l 2.933059,2.93318 2.97325,-2.93318 c 0.341509,-0.29624 0.574295,-0.39285 0.883939,-0.40185 h 1.285728 v 1.28574 c 0,0.36837 -0.04422,0.70817 -0.321425,0.96427 l -2.933078,2.9332 2.892893,2.89293 c 0.241962,0.2418 0.361599,0.58301 0.36161,0.92392 v 1.28575 h -1.285733 c -0.341103,-10e-6 -0.682193,-0.11975 -0.924118,-0.36146 l -2.933069,-2.93318 -2.933061,2.93318 c -0.241942,0.2419 -0.58304,0.36146 -0.924122,0.36146 h -1.285721 v -1.28575 c -3e-6,-0.34091 0.119646,-0.68212 0.361614,-0.92392 l 2.93307,-2.89293 -2.93307,-2.9332 c -0.270957,-0.25023 -0.389773,-0.60322 -0.361614,-0.96427 z"
           style="stroke-width:1.5;fill-opacity:1;fill:currentColor;"
           id="path48"
           class="ColorScheme-Text" />
      </g>
    </g>
  </g>
  <g
     id="g1397"
     transform="translate(10,-22)">
    <path
       id="rect838-6"
       d="M 0,0 H 22 V 22 H 0 Z"
       fill="none" />
    <g
       id="g1405"
       transform="translate(-32,31.999995)">
      <path
         id="rect838"
         d="M 0,0 H 22 V 22 H 0 Z"
         fill="none" />
    </g>
  </g>
  <g
     id="window-pin">
    <path
       id="path1140"
       d="m -7.5,12.792964 -0.707031,0.707031 0.5,1.5 -4.705078,4.705078 c -0.890397,-0.461194 -1.878113,-0.702933 -2.88086,-0.705078 H -16 l -0.353516,0.353516 3.146485,3.146484 L -19,28.292964 v 0.707031 h 0.707031 L -12.5,23.207026 -9.353516,26.353511 -9,25.999995 v -0.707031 c -0.0021,-1.002747 -0.243884,-1.990463 -0.705078,-2.88086 L -5,17.707026 l 1.5,0.5 0.707031,-0.707031 z"
       class="ColorScheme-Text"
       stroke-linecap="square"
       stroke-miterlimit="0"
       style="fill-opacity:1;fill:currentColor;" />
    <path
       id="rect838-67"
       d="M -22,9.999995 H 0 v 22 h -22 z"
       fill="none" />
  </g>
  <g
     id="window-unpin">
    <path
       id="path1140-0"
       d="M 24.5,-19.207031 23.792969,-18.5 l 0.5,1.5 -4.705078,4.705078 C 18.697494,-12.756116 17.709778,-12.997855 16.707031,-13 H 16 L 15.646484,-12.646484 18.792969,-9.5 13,-3.707031 V -3 h 0.707031 L 19.5,-8.792969 22.646484,-5.646484 23,-6 v -0.707031 c -0.0021,-1.002747 -0.243884,-1.990463 -0.705078,-2.88086 L 27,-14.292969 l 1.5,0.5 L 29.207031,-14.5 Z"
       class="ColorScheme-ButtonFocus  ColorScheme-Highlight"
       stroke-linecap="square"
       stroke-miterlimit="0"
       style="fill-opacity:1;fill:currentColor;" />
    <path
       id="rect838-6-3"
       d="M 10,-22 H 32 V 0 H 10 Z"
       fill="none" />
  </g>
</svg>
