<?xml version="1.0" encoding="UTF-8" standalone="no"?>
<svg
   width="64"
   height="64"
   version="1.1"
   id="svg27"
   sodipodi:docname="brave-beta.svg"
   inkscape:version="1.2.1 (9c6d41e410, 2022-07-14)"
   xmlns:inkscape="http://www.inkscape.org/namespaces/inkscape"
   xmlns:sodipodi="http://sodipodi.sourceforge.net/DTD/sodipodi-0.dtd"
   xmlns:xlink="http://www.w3.org/1999/xlink"
   xmlns="http://www.w3.org/2000/svg"
   xmlns:svg="http://www.w3.org/2000/svg"
   xmlns:rdf="http://www.w3.org/1999/02/22-rdf-syntax-ns#"
   xmlns:cc="http://creativecommons.org/ns#"
   xmlns:dc="http://purl.org/dc/elements/1.1/">
  <sodipodi:namedview
     id="namedview29"
     pagecolor="#ffffff"
     bordercolor="#666666"
     borderopacity="1.0"
     inkscape:showpageshadow="2"
     inkscape:pageopacity="0.0"
     inkscape:pagecheckerboard="0"
     inkscape:deskcolor="#d1d1d1"
     showgrid="false"
     inkscape:zoom="3.6875"
     inkscape:cx="19.79661"
     inkscape:cy="32.135593"
     inkscape:window-width="1920"
     inkscape:window-height="1000"
     inkscape:window-x="0"
     inkscape:window-y="0"
     inkscape:window-maximized="1"
     inkscape:current-layer="svg27" />
  <metadata
     id="metadata2">
    <rdf:RDF>
      <cc:Work
         rdf:about="">
        <dc:format>image/svg+xml</dc:format>
        <dc:type
           rdf:resource="http://purl.org/dc/dcmitype/StillImage" />
      </cc:Work>
    </rdf:RDF>
  </metadata>
  <defs
     id="defs17">
    <linearGradient
       id="a"
       x1="99.036003"
       x2="99.036003"
       y1="11.64"
       y2="199.84"
       gradientTransform="matrix(0.21,0,0,0.21,144.26061,-57.035478)"
       gradientUnits="userSpaceOnUse">
      <stop
         stop-color="#ff4b00"
         offset="0"
         id="stop4" />
      <stop
         stop-color="#f50f2d"
         offset="1"
         id="stop6" />
    </linearGradient>
    <linearGradient
       id="b"
       x2="0"
       y1="33"
       y2="7.3098998"
       gradientTransform="matrix(1.7388102,0,0,1.7388102,33.738776,-76.07588)"
       gradientUnits="userSpaceOnUse">
      <stop
         stop-color="#fcdbd4"
         offset="0"
         id="stop9" />
      <stop
         stop-color="#fff"
         offset="1"
         id="stop11" />
    </linearGradient>
    <filter
       id="filter4273"
       x="-0.062499932"
       y="-0.057692992"
       width="1.1249999"
       height="1.115386"
       color-interpolation-filters="sRGB">
      <feGaussianBlur
         stdDeviation="1.093751"
         id="feGaussianBlur14" />
    </filter>
    <linearGradient
       id="SVGID_1_"
       gradientUnits="userSpaceOnUse"
       x1="24.837999"
       y1="33.653999"
       x2="46.732201"
       y2="55.548199"
       gradientTransform="translate(1.9999995,-0.984319)">
      <stop
         offset="0.3569"
         style="stop-color:#EF6B2E"
         id="stop366" />
      <stop
         offset="0.6328"
         style="stop-color:#F19F00"
         id="stop368" />
    </linearGradient>
    <linearGradient
       id="SVGID_2_"
       gradientUnits="userSpaceOnUse"
       x1="24.858801"
       y1="30.3876"
       x2="46.752998"
       y2="8.4933004"
       gradientTransform="translate(1.9999995,-0.984319)">
      <stop
         offset="0.3707"
         style="stop-color:#16B8C3"
         id="stop375" />
      <stop
         offset="0.7422"
         style="stop-color:#02AEF0"
         id="stop377" />
    </linearGradient>
    <linearGradient
       inkscape:collect="always"
       xlink:href="#a"
       id="linearGradient3448"
       x1="7.3432522"
       y1="57.375"
       x2="56.521687"
       y2="9.1437597"
       gradientUnits="userSpaceOnUse" />
    <filter
       id="filter4273-7"
       x="-0.062499932"
       y="-0.057692992"
       width="1.1249999"
       height="1.115386"
       color-interpolation-filters="sRGB">
      <feGaussianBlur
         stdDeviation="1.093751"
         id="feGaussianBlur14-0" />
    </filter>
    <linearGradient
       id="b-9"
       x2="0"
       y1="33"
       y2="7.3098998"
       gradientTransform="matrix(1.7388102,0,0,1.7388102,54.604579,-3.8552537)"
       gradientUnits="userSpaceOnUse">
      <stop
         stop-color="#fcdbd4"
         offset="0"
         id="stop9-3" />
      <stop
         stop-color="#fff"
         offset="1"
         id="stop11-6" />
    </linearGradient>
  </defs>
  <style
     type="text/css"
     id="style25">.st0{opacity:0.15;fill:#45413C;}
	.st1{fill:#FFE500;}
	.st2{fill:#EBCB00;}
	.st3{fill:none;stroke:#45413C;stroke-linecap:round;stroke-linejoin:round;stroke-miterlimit:10;}
	.st4{fill:#FFAA54;}
	.st5{fill:#FF8A14;}
	.st6{fill:#FFB0CA;stroke:#45413C;stroke-linecap:round;stroke-linejoin:round;stroke-miterlimit:10;}
	.st7{fill:#FF87AF;stroke:#45413C;stroke-linecap:round;stroke-linejoin:round;stroke-miterlimit:10;}
	.st8{fill:#FFCC99;}
	.st9{fill:#FFFFFF;}
	.st10{fill:#F0F0F0;}
	.st11{fill:#BF8256;}
	.st12{fill:#915E3A;}
	.st13{fill:#DEA47A;}
	.st14{fill:#F0D5A8;}
	.st15{fill:#DEBB7E;}
	.st16{fill:#F7E5C6;}
	.st17{fill:#FF8A14;stroke:#45413C;stroke-linecap:round;stroke-linejoin:round;stroke-miterlimit:10;}
	.st18{fill:#FFF5E3;}
	.st19{fill:#FFF48C;}
	.st20{fill:#FFFACF;}
	.st21{fill:#FFFCE5;}
	.st22{fill:#FF87AF;}
	.st23{fill:#FFB0CA;}
	.st24{fill:#FFE500;stroke:#45413C;stroke-linecap:round;stroke-linejoin:round;stroke-miterlimit:10;}
	.st25{fill:#9CEB60;stroke:#45413C;stroke-linecap:round;stroke-linejoin:round;stroke-miterlimit:10;}
	.st26{fill:#FFFACF;stroke:#45413C;stroke-linecap:round;stroke-linejoin:round;stroke-miterlimit:10;}
	.st27{fill:#00F5BC;stroke:#45413C;stroke-linecap:round;stroke-linejoin:round;stroke-miterlimit:10;}
	.st28{fill:#BF8256;stroke:#45413C;stroke-linecap:round;stroke-linejoin:round;stroke-miterlimit:10;}
	.st29{fill:#FFE3CF;stroke:#45413C;stroke-linecap:round;stroke-linejoin:round;stroke-miterlimit:10;}
	.st30{fill:#FF6242;}
	.st31{fill:#FF866E;}
	.st32{fill:none;stroke:#E04122;stroke-linecap:round;stroke-linejoin:round;stroke-miterlimit:10;}
	.st33{fill:#FFFEF2;stroke:#45413C;stroke-linecap:round;stroke-linejoin:round;stroke-miterlimit:10;}
	.st34{fill:#FF6242;stroke:#45413C;stroke-linecap:round;stroke-linejoin:round;stroke-miterlimit:10;}
	.st35{fill:#FFA694;}
	.st36{fill:#FFFFFF;stroke:#45413C;stroke-linecap:round;stroke-linejoin:round;stroke-miterlimit:10;}
	.st37{fill:#FFFEF2;}
	.st38{fill:#FF6196;}
	.st39{fill:#B89558;}
	.st40{fill:none;stroke:#915E3A;stroke-linecap:round;stroke-linejoin:round;stroke-miterlimit:10;}
	.st41{fill:#DEBB7E;stroke:#45413C;stroke-linecap:round;stroke-linejoin:round;stroke-miterlimit:10;}
	.st42{fill:#6DD627;stroke:#45413C;stroke-linecap:round;stroke-linejoin:round;stroke-miterlimit:10;}
	.st43{fill:#E5F8FF;}
	.st44{fill:#E8F4FA;}
	.st45{fill:#E8F4FA;stroke:#45413C;stroke-linecap:round;stroke-linejoin:round;stroke-miterlimit:10;}
	.st46{fill:#FFCCDD;}
	.st47{fill:#E5F8FF;stroke:#45413C;stroke-linecap:round;stroke-linejoin:round;stroke-miterlimit:10;}
	.st48{fill:#00B8F0;stroke:#45413C;stroke-linecap:round;stroke-linejoin:round;stroke-miterlimit:10;}
	.st49{fill:#00B8F0;}
	.st50{fill:#4ACFFF;}
	.st51{fill:#E04122;}
	.st52{fill:#E04122;stroke:#45413C;stroke-linecap:round;stroke-linejoin:round;stroke-miterlimit:10;}
	.st53{fill:#87898C;}
	.st54{fill:#BDBEC0;}
	.st55{fill:#656769;}
	.st56{fill:#525252;}
	.st57{fill:#FFF48C;stroke:#45413C;stroke-linecap:round;stroke-linejoin:round;stroke-miterlimit:10;}
	.st58{fill:#6DD627;}
	.st59{fill:#EB6D00;}
	.st60{fill:#46B000;}
	.st61{fill:#80DDFF;}
	.st62{fill:#DAEDF7;}
	.st63{fill:#BF8DF2;stroke:#45413C;stroke-linecap:round;stroke-linejoin:round;stroke-miterlimit:10;}
	.st64{fill:#9F5AE5;stroke:#45413C;stroke-linecap:round;stroke-linejoin:round;stroke-miterlimit:10;}
	.st65{fill:#C8FFA1;}
	.st66{fill:#E4FFD1;}
	.st67{fill:#9CEB60;}
	.st68{fill:#E5FEFF;}
	.st69{fill:#B8ECFF;}
	.st70{fill:#E0E0E0;stroke:#45413C;stroke-linecap:round;stroke-linejoin:round;stroke-miterlimit:10;}
	.st71{fill:#E0E0E0;}
	.st72{fill:none;stroke:#4F4B45;stroke-linejoin:round;stroke-miterlimit:10;}
	.st73{fill:none;stroke:#4F4B45;stroke-linecap:round;stroke-linejoin:round;stroke-miterlimit:10;}
	.st74{fill:#E0366F;stroke:#45413C;stroke-linecap:round;stroke-linejoin:round;stroke-miterlimit:10;}
	.st75{fill:none;stroke:#45413C;stroke-miterlimit:10;}
	.st76{fill:#FF866E;stroke:#45413C;stroke-linecap:round;stroke-linejoin:round;stroke-miterlimit:10;}
	.st77{fill:#45413C;stroke:#45413C;stroke-linecap:round;stroke-linejoin:round;stroke-miterlimit:10;}
	.st78{fill:#9F5AE5;}
	.st79{fill:#803EC2;}
	.st80{fill:#803EC2;stroke:#45413C;stroke-linecap:round;stroke-linejoin:round;stroke-miterlimit:10;}
	.st81{fill:#BF8DF2;}
	.st82{fill:#FFAA54;stroke:#45413C;stroke-linecap:round;stroke-linejoin:round;stroke-miterlimit:10;}
	.st83{fill:none;stroke:#45413C;stroke-linejoin:round;stroke-miterlimit:10;}
	.st84{fill:#FFCCDD;stroke:#45413C;stroke-linecap:round;stroke-linejoin:round;stroke-miterlimit:10;}
	.st85{fill:#FF6196;stroke:#45413C;stroke-linecap:round;stroke-linejoin:round;stroke-miterlimit:10;}
	.st86{fill:#FFE5EE;}
	.st87{fill:#F7E5C6;stroke:#45413C;stroke-linecap:round;stroke-linejoin:round;stroke-miterlimit:10;}
	.st88{fill:#E5FFF9;}
	.st89{fill:none;stroke:#45413C;stroke-width:1.0064;stroke-linecap:round;stroke-linejoin:round;stroke-miterlimit:10;}
	.st90{fill:#4AEFF7;}
	.st91{fill:#A6FBFF;}
	.st92{fill:#E5FEFF;stroke:#45413C;stroke-linecap:round;stroke-linejoin:round;stroke-miterlimit:10;}
	.st93{fill:#46B000;stroke:#45413C;stroke-linecap:round;stroke-linejoin:round;stroke-miterlimit:10;}
	.st94{fill:#FFFFFF;stroke:#45413C;stroke-linejoin:round;stroke-miterlimit:10;}
	.st95{fill:#FFFFFF;stroke:#45413C;stroke-miterlimit:10;}
	.st96{fill:#009FD9;}
	.st97{fill:#00DFEB;}
	.st98{fill:#C0DCEB;stroke:#45413C;stroke-linecap:round;stroke-linejoin:round;stroke-miterlimit:10;}
	.st99{fill:#00DFEB;stroke:#45413C;stroke-linecap:round;stroke-linejoin:round;stroke-miterlimit:10;}
	.st100{fill:#FFE5EE;stroke:#45413C;stroke-linecap:round;stroke-linejoin:round;stroke-miterlimit:10;}
	.st101{fill:#8CA4B8;}
	.st102{fill:#ADC4D9;}
	.st103{fill:#656769;stroke:#45413C;stroke-linecap:round;stroke-linejoin:round;stroke-miterlimit:10;}
	.st104{fill:#F0F0F0;stroke:#45413C;stroke-linecap:round;stroke-linejoin:round;stroke-miterlimit:10;}
	.st105{fill:#C0DCEB;}
	.st106{fill:#45413C;}
	.st107{fill:#FFCABF;}
	.st108{fill:#87898C;stroke:#45413C;stroke-linecap:round;stroke-linejoin:round;stroke-miterlimit:10;}
	.st109{fill:#EBCB00;stroke:#45413C;stroke-linecap:round;stroke-linejoin:round;stroke-miterlimit:10;}</style>
  <path
     d="m 2.9999985,10.25 c 0,-4.004175 3.245938,-7.25 7.2500005,-7.25 h 43.500003 c 4.004173,0 7.25,3.245825 7.25,7.25 v 43.5 c 0,4.004172 -3.245827,7.25 -7.25,7.25 H 10.249999 C 6.2459365,61 2.9999985,57.754172 2.9999985,53.75 Z"
     id="path736"
     style="fill:#606c86;fill-opacity:1;stroke-width:3.625" />
  <path
     d="M 2.9999985,9.796875 C 2.9999985,6.043188 6.2459365,3 10.249999,3 h 43.500003 c 4.004173,0 7.25,3.043188 7.25,6.796875 v 40.781248 c 0,3.753693 -3.245827,6.796876 -7.25,6.796876 H 10.249999 c -4.0040625,0 -7.2500005,-3.043183 -7.2500005,-6.796876 z"
     id="path738"
     style="fill:url(#linearGradient3448);fill-opacity:1;stroke-width:3.625" />
  <path
     d="m 25,9.25 c -0.875,0 -3.9375,3.5 -4.375,3.5 h -2.1875 c -0.875,0 -3.9375,3.0625 -3.9375,3.9375 v 2.625 c 0,0.4375 -3.4808,3.5 -3.5,4.375 -0.0192,0.875 6.125,21.438 7,22.312 0.875,0.874 10.5,8.75 13.125,8.75 h 1.75 c 2.625,0 12.25,-7.875 13.125,-8.75 0.875,-0.875 7.0175,-21.438 7,-22.312 -0.01925,-0.86975 -3.5,-3.9375 -3.5,-4.375 v -2.625 C 49.5,15.8125 46.4375,12.75 45.5625,12.75 H 43.375 c -0.4375,0 -3.5,-3.5 -4.375,-3.5 z m 7,6.1113 c 0.875,0 1.7395,0.29892 2.625,0.88867 2.625,1.75 6.125,-0.875 7,-0.875 0.875,0 6.125,6.3752 6.125,8.75 0,1.75 -6.5625,5.775 -6.5625,7 0,0.875 1.3125,1.2973 1.3125,3.1523 0,1.2232 -1.75,3.4102 -3.5,3.4102 -1.75,0 -6.1285,-3.4347 -6.125,-4.2852 v -0.52734 c 0,-1.05 3.9375,-2.373 3.9375,-4.375 0,-1.75 -1.3125,-2.3975 -1.3125,-4.375 0,-1.701 3.5,-2.1875 6.125,-2.625 0.875,0 -2.625,-2.8791 -7.4375,0.23242 -1.218,0.7875 1.3125,3.9011 0.875,6.7676 -0.65625,0.6125 -1.8585,0.91992 -3.0625,0.91992 -1.2022,0 -2.4062,-0.30742 -3.0625,-0.91992 -0.4375,-2.8665 2.093,-5.9801 0.875,-6.7676 C 25,18.62085 21.5,21.49993 22.375,21.49993 c 2.625,0.4375 6.125,0.924 6.125,2.625 0,1.9775 -1.3125,2.625 -1.3125,4.375 0,2.002 3.9375,3.325 3.9375,4.375 v 0.52734 c 0.0035,0.8505 -4.375,4.2852 -6.125,4.2852 -1.75,0 -3.5,-2.1869 -3.5,-3.4102 0,-1.8568 1.3125,-2.2773 1.3125,-3.1523 0,-1.225 -6.5625,-5.25 -6.5625,-7 0,-2.3748 5.25,-8.75 6.125,-8.75 0.875,0 4.375,2.625 7,0.875 C 30.2605,15.66022 31.1285,15.3613 32,15.3613 Z m 0,20.84 c 1.75,0 5.6875,2.7113 5.6875,3.2363 0,0.525 -3.9375,4.8125 -5.6875,4.8125 -1.75,0 -5.6875,-4.2875 -5.6875,-4.8125 0,-0.525 3.9375,-3.2363 5.6875,-3.2363 z"
     fill="#f50f2d"
     filter="url(#filter4273)"
     id="path21-0"
     transform="matrix(0.99360574,0,0,0.99360574,0.2046001,-0.87463569)"
     style="filter:url(#filter4273-7)" />
  <path
     d="m 25.044801,8.3162103 c -0.869383,0 -3.912312,3.4776177 -4.347016,3.4776177 h -2.173498 c -0.869416,0 -3.912224,3.042934 -3.912224,3.912339 v 2.608201 c 0,0.434713 -3.458714,3.477637 -3.477844,4.34703 -0.0187,0.86941 6.085947,21.300925 6.955359,22.169336 0.869401,0.868404 10.432853,8.694053 13.041065,8.694053 h 1.738806 c 2.608233,0 12.17168,-7.824658 13.041085,-8.694053 0.869409,-0.869399 6.972626,-21.300924 6.955232,-22.169336 -0.01919,-0.864188 -3.47762,-3.912317 -3.47762,-4.34703 v -2.608201 c 0,-0.869405 -3.042902,-3.912339 -3.912318,-3.912339 h -2.173513 c -0.434707,0 -3.477618,-3.4776177 -4.347023,-3.4776177 z m 6.955249,6.0722367 c 0.869399,0 1.728389,0.297007 2.608222,0.882985 2.608202,1.738815 6.08584,-0.86942 6.955231,-0.86942 0.869405,0 6.085825,6.334454 6.085825,8.694056 0,1.738815 -6.520515,5.738071 -6.520515,6.955247 0,0.8694 1.304095,1.289009 1.304095,3.13215 0,1.215365 -1.738796,3.388381 -3.477616,3.388381 -1.738818,0 -6.089309,-3.412745 -6.085843,-4.257792 v -0.523957 c 0,-1.043288 3.912326,-2.357836 3.912326,-4.347042 0,-1.738807 -1.304093,-2.382159 -1.304093,-4.347015 0,-1.690131 3.47761,-2.17351 6.085821,-2.608233 0.869405,0 -2.608211,-2.860678 -7.389939,0.230937 -1.210213,0.782471 1.304118,3.87616 0.869416,6.724342 -0.652073,0.608574 -1.846626,0.914026 -3.04293,0.914026 -1.194517,0 -2.39081,-0.305452 -3.042912,-0.914026 -0.434707,-2.848182 2.07962,-5.941871 0.869412,-6.724342 -4.781749,-3.091601 -8.259364,-0.230937 -7.389945,-0.230937 2.608196,0.434723 6.085826,0.918102 6.085826,2.608233 0,1.964856 -1.304112,2.608208 -1.304112,4.347015 0,1.989206 3.912324,3.303754 3.912324,4.347042 v 0.523957 c 0.002,0.845047 -4.347022,4.257792 -6.085842,4.257792 -1.738798,0 -3.477615,-2.17292 -3.477615,-3.388381 0,-1.844936 1.304113,-2.26275 1.304113,-3.13215 0,-1.217176 -6.520568,-5.216432 -6.520568,-6.955247 0,-2.359602 5.216455,-8.694056 6.085874,-8.694056 0.869398,0 4.347016,2.608235 6.955243,0.86942 0.879826,-0.585978 1.742268,-0.882985 2.608202,-0.882985 z m 0,20.706738 c 1.738818,0 5.651132,2.693976 5.651132,3.215605 0,0.521629 -3.912314,4.781732 -5.651132,4.781732 -1.738809,0 -5.651132,-4.260103 -5.651132,-4.781732 0,-0.521629 3.912323,-3.215605 5.651132,-3.215605 z"
     fill="url(#b)"
     id="path23-6"
     style="fill:url(#b-9);stroke-width:0.9936" />
</svg>
