<?xml version="1.0" encoding="UTF-8" standalone="no"?>
<!-- Generator: Adobe Illustrator 18.0.0, SVG Export Plug-In . SVG Version: 6.00 Build 0)  -->

<svg
   version="1.1"
   id="图层_1"
   x="0px"
   y="0px"
   viewBox="0 0 64 64"
   enable-background="new 0 0 48 48"
   xml:space="preserve"
   sodipodi:docname="krita.svg"
   width="64"
   height="64"
   inkscape:version="1.2.1 (9c6d41e410, 2022-07-14)"
   xmlns:inkscape="http://www.inkscape.org/namespaces/inkscape"
   xmlns:sodipodi="http://sodipodi.sourceforge.net/DTD/sodipodi-0.dtd"
   xmlns:xlink="http://www.w3.org/1999/xlink"
   xmlns="http://www.w3.org/2000/svg"
   xmlns:svg="http://www.w3.org/2000/svg"><defs
   id="defs68"><linearGradient
   xlink:href="#linearGradient4303"
   id="linearGradient4982"
   y1="500.798"
   y2="503.798"
   x2="0"
   gradientUnits="userSpaceOnUse" /><linearGradient
   id="linearGradient4303"><stop
     style="stop-color:#c6cdd1"
     id="stop388" /><stop
     offset="1"
     style="stop-color:#e0e5e7"
     id="stop390" /></linearGradient><linearGradient
   xlink:href="#linearGradient4303"
   id="linearGradient4990"
   x1="411.57101"
   x2="405.57101"
   gradientUnits="userSpaceOnUse" /><linearGradient
   xlink:href="#linearGradient4303"
   id="linearGradient4174-5"
   y1="543.79797"
   y2="503.798"
   x2="0"
   gradientUnits="userSpaceOnUse"
   gradientTransform="translate(-817.14285)" /><linearGradient
   xlink:href="#linearGradient4909"
   id="linearGradient4915"
   y1="509.548"
   x1="-398.634"
   y2="539.17297"
   x2="-416.57101"
   gradientUnits="userSpaceOnUse" /><linearGradient
   id="linearGradient4909"><stop
     style="stop-color:#2c3e50"
     id="stop383" /><stop
     offset="1"
     style="stop-color:#0d352d"
     id="stop385" /></linearGradient><linearGradient
   xlink:href="#linearGradient4918"
   id="linearGradient4924"
   y1="12.42"
   x1="9.2679996"
   y2="38.819"
   x2="35.667"
   gradientUnits="userSpaceOnUse" /><linearGradient
   id="linearGradient4918"><stop
     style="stop-color:#3daefd"
     id="stop378-3" /><stop
     offset="1"
     style="stop-color:#24a058"
     id="stop380" /></linearGradient><linearGradient
   xlink:href="#linearGradient4626"
   id="linearGradient5038"
   y1="10"
   x1="10"
   y2="22"
   x2="22"
   gradientUnits="userSpaceOnUse" /><linearGradient
   id="linearGradient4626"><stop
     style="stop-color:#000000;stop-opacity:1;"
     offset="0"
     id="stop4628" /><stop
     style="stop-color:#000000;stop-opacity:0;"
     offset="1"
     id="stop4630" /></linearGradient>
	
		
	

		
	
			
			
				<linearGradient
   id="SVGID_1_"
   gradientUnits="userSpaceOnUse"
   x1="45"
   y1="26"
   x2="7"
   y2="26"
   gradientTransform="matrix(0.7569,-0.6535,0.6535,0.7569,-178.77076,-95.671322)">
				<stop
   offset="0"
   style="stop-color:#FFFFFF;stop-opacity:0"
   id="stop6" />
				<stop
   offset="0.1387"
   style="stop-color:#E8FFFC;stop-opacity:0.1387"
   id="stop8" />
				<stop
   offset="0.43"
   style="stop-color:#ADFFF3;stop-opacity:0.43"
   id="stop10" />
				<stop
   offset="0.8463"
   style="stop-color:#4FFFE5;stop-opacity:0.8463"
   id="stop12" />
				<stop
   offset="1"
   style="stop-color:#2BFFE0"
   id="stop14" />
			</linearGradient>
			
			
				<linearGradient
   id="SVGID_2_"
   gradientUnits="userSpaceOnUse"
   x1="7"
   y1="26"
   x2="45"
   y2="26"
   gradientTransform="matrix(0.6851,0.7284,-0.7284,0.6851,27.125,-10.7523)">
				<stop
   offset="0"
   style="stop-color:#FFFFFF;stop-opacity:0"
   id="stop19" />
				<stop
   offset="0.0883"
   style="stop-color:#FFFFF8;stop-opacity:0.0883"
   id="stop21" />
				<stop
   offset="0.2164"
   style="stop-color:#FFFEE5;stop-opacity:0.2164"
   id="stop23" />
				<stop
   offset="0.3689"
   style="stop-color:#FFFCC5;stop-opacity:0.3689"
   id="stop25" />
				<stop
   offset="0.5402"
   style="stop-color:#FFF999;stop-opacity:0.5402"
   id="stop27" />
				<stop
   offset="0.7272"
   style="stop-color:#FFF660;stop-opacity:0.7272"
   id="stop29" />
				<stop
   offset="0.9242"
   style="stop-color:#FFF31C;stop-opacity:0.9242"
   id="stop31" />
				<stop
   offset="1"
   style="stop-color:#FFF100"
   id="stop33" />
			</linearGradient>
			
			<linearGradient
   id="SVGID_3_"
   gradientUnits="userSpaceOnUse"
   x1="16.636499"
   y1="32.6502"
   x2="36.970001"
   y2="32.6502"
   gradientTransform="translate(-82.75317,-40.692488)">
				<stop
   offset="0"
   style="stop-color:#A3D8F1;stop-opacity:0.4382"
   id="stop38" />
				<stop
   offset="0.3612"
   style="stop-color:#77C6EB;stop-opacity:0.6411"
   id="stop40" />
				<stop
   offset="1"
   style="stop-color:#2EA7E0"
   id="stop42" />
			</linearGradient>
			
			
		
				
				
				
			
					
				
					
				<linearGradient
   inkscape:collect="always"
   xlink:href="#SVGID_1_"
   id="linearGradient2131"
   x1="30.627119"
   y1="-11.119703"
   x2="-24.973677"
   y2="41.509865"
   gradientUnits="userSpaceOnUse"
   gradientTransform="translate(30.372883,14.119703)" /><linearGradient
   inkscape:collect="always"
   xlink:href="#SVGID_2_"
   id="linearGradient2205"
   gradientUnits="userSpaceOnUse"
   gradientTransform="translate(30.372883,14.119703)"
   x1="-27.372887"
   y1="-11.119703"
   x2="30.627119"
   y2="43.255299" /><linearGradient
   inkscape:collect="always"
   xlink:href="#SVGID_3_"
   id="linearGradient2483"
   gradientUnits="userSpaceOnUse"
   gradientTransform="matrix(1.0876967,0,0,1.100171,11.576291,8.5269769)"
   x1="16.636499"
   y1="32.6502"
   x2="36.970001"
   y2="32.6502" /></defs><sodipodi:namedview
   id="namedview66"
   pagecolor="#ffffff"
   bordercolor="#666666"
   borderopacity="1.0"
   inkscape:showpageshadow="2"
   inkscape:pageopacity="0.0"
   inkscape:pagecheckerboard="0"
   inkscape:deskcolor="#d1d1d1"
   showgrid="true"
   inkscape:zoom="6.9532166"
   inkscape:cx="39.981496"
   inkscape:cy="35.163582"
   inkscape:window-width="1920"
   inkscape:window-height="1008"
   inkscape:window-x="0"
   inkscape:window-y="0"
   inkscape:window-maximized="1"
   inkscape:current-layer="图层_1"><inkscape:grid
     type="xygrid"
     id="grid2490" /></sodipodi:namedview>

<path
   d="m 2.999997,10.25 c 0,-4.004175 3.245938,-7.25 7.25,-7.25 h 43.500006 c 4.00417,0 7.25,3.245825 7.25,7.25 v 43.500001 c 0,4.004173 -3.24583,7.25 -7.25,7.25 H 10.249997 c -4.004062,0 -7.25,-3.245827 -7.25,-7.25 z"
   id="path736"
   style="fill:#606c86;fill-opacity:1;stroke-width:3.625" /><path
   d="M 2.999996,9.796875 C 2.999996,6.043188 6.245934,3 10.249996,3 h 43.500007 c 4.00417,0 7.25,3.043188 7.25,6.796875 v 40.781249 c 0,3.753693 -3.24583,6.796876 -7.25,6.796876 H 10.249996 c -4.004062,0 -7.25,-3.043183 -7.25,-6.796876 z"
   id="path738"
   style="fill:#ff57ec;fill-opacity:1;stroke-width:3.625" /><path
   d="M 2.999997,9.796875 C 2.999997,6.043188 6.245934,3 10.249997,3 h 43.500006 c 4.00417,0 7.25,3.043188 7.25,6.796875 v 40.781249 c 0,3.753693 -3.24583,6.796876 -7.25,6.796876 H 10.249997 c -4.004063,0 -7.25,-3.043183 -7.25,-6.796876 z"
   id="path738-3"
   style="fill:url(#linearGradient2131);fill-opacity:1;stroke-width:3.625" /><path
   d="M 2.999997,9.796875 C 2.999997,6.043188 6.245933,3 10.249997,3 h 43.500006 c 4.00417,0 7.25,3.043188 7.25,6.796875 v 40.781249 c 0,3.753693 -3.24583,6.796876 -7.25,6.796876 H 10.249997 c -4.004064,0 -7.25,-3.043183 -7.25,-6.796876 z"
   id="path738-3-6"
   style="fill:url(#linearGradient2205);fill-opacity:1;stroke-width:3.625" /><path
   d="m 51.788438,44.396952 c 0,-2.920954 -2.366828,-5.288522 -5.286206,-5.288522 -1.768595,0 -3.324001,0.876836 -4.284437,2.211344 l -0.0065,-0.0077 c 0,0 -1.481443,2.402773 -3.854797,2.454481 -2.472335,0.05391 -6.776351,-0.763519 -8.511227,-5.909018 0,0 -1.654387,6.906873 5.264452,11.052318 7.658472,4.589913 13.521158,0.32785 13.541824,0.317949 l -0.0044,-0.0055 c 1.665264,-1.169482 3.141268,-2.670115 3.141268,-4.82535 z"
   id="path45-0"
   style="fill:url(#linearGradient2483);stroke-width:1.09392" /><path
   style="opacity:0.1;stroke-width:1.21047"
   d="M 41.595038,36.056914 C 37.930599,39.431606 30.880601,34.078656 27.904922,30.716743 24.844252,27.258902 13.416184,15.596533 12.580911,14.84016 c -0.835227,-0.756347 -1.50047,-1.690395 -0.761826,-2.619719 0.768874,-0.905043 1.832166,-0.455391 2.754308,0.195181 0.922399,0.650594 14.842601,9.280363 18.902389,11.522475 3.946917,2.179913 10.70865,7.88355 8.119256,12.118817 z"
   id="path14" /><path
   style="fill:#1e2431;stroke-width:1.21047;fill-opacity:1"
   d="M 41.595038,34.846142 C 37.930599,38.22083 30.880601,32.867884 27.904922,29.50598 24.844252,26.048136 13.416184,14.385761 12.580911,13.629391 c -0.835227,-0.756348 -1.50047,-1.690395 -0.761826,-2.619722 0.768874,-0.905047 1.832166,-0.455387 2.754308,0.195185 0.922399,0.650593 14.842601,9.280356 18.902389,11.522477 3.946917,2.179903 10.70865,7.883547 8.119256,12.118811 z"
   id="path16" /><path
   style="opacity:0.1;stroke-width:1.21047"
   d="m 47.414367,40.459187 c -1.168209,0.526006 -1.042002,0.906192 -2.079193,0.742189 -0.715382,-0.113139 -6.913374,-4.731797 -6.913374,-4.731797 -0.314004,-0.741166 0.06278,-1.760056 0.770548,-2.566475 0.656551,-0.847339 1.592925,-1.420094 2.395486,-1.270859 0,0 5.875966,5.008838 6.136122,5.673706 0.377304,0.963985 -0.0272,0.920913 -0.309589,2.153236 z"
   id="path22" /><path
   style="fill:#9b9b9b;stroke-width:1.21047"
   d="m 47.414367,39.248413 c -1.168209,0.526004 -1.042002,0.906191 -2.079193,0.742188 -0.715382,-0.113066 -6.913374,-4.731798 -6.913374,-4.731798 -0.314004,-0.741159 0.06278,-1.760052 0.770548,-2.566467 0.656551,-0.847341 1.592925,-1.420095 2.395486,-1.270862 0,0 5.875966,5.008844 6.136122,5.673712 0.377304,0.963988 -0.0272,0.920907 -0.309589,2.153227 z"
   id="path24" /><path
   style="opacity:0.1;stroke-width:1.21047"
   d="m 48.079372,50.5 c 4.39333,-2.436874 5.565997,-6.734874 3.831287,-9.840722 -1.34805,-2.413524 -3.561546,-2.86984 -5.090464,-1.702827 -1.516435,1.157698 -1.650328,2.5372 -1.197805,3.907291 0.922526,2.794357 4.739141,4.754251 2.456982,7.636258 z"
   id="path26" /><path
   style="fill:#1e2431;stroke-width:1.21047;fill-opacity:1"
   d="m 48.079372,49.289234 c 4.39333,-2.436879 5.565997,-6.734874 3.831287,-9.840721 -1.34805,-2.413528 -3.561546,-2.869846 -5.090464,-1.702835 -1.516435,1.157704 -1.650328,2.537204 -1.197805,3.907291 0.922526,2.794361 4.739141,4.754257 2.456982,7.636265 z"
   id="path28" /></svg>
