<?xml version="1.0" encoding="UTF-8" standalone="no"?>
<svg
   width="64"
   height="64"
   viewBox="0 0 64 64"
   version="1.1"
   id="svg52"
   sodipodi:docname="pattern-tcltk-devel.svg"
   inkscape:version="1.2.1 (9c6d41e410, 2022-07-14)"
   xmlns:inkscape="http://www.inkscape.org/namespaces/inkscape"
   xmlns:sodipodi="http://sodipodi.sourceforge.net/DTD/sodipodi-0.dtd"
   xmlns:xlink="http://www.w3.org/1999/xlink"
   xmlns="http://www.w3.org/2000/svg"
   xmlns:svg="http://www.w3.org/2000/svg">
  <sodipodi:namedview
     id="namedview54"
     pagecolor="#a4a4a4"
     bordercolor="#eeeeee"
     borderopacity="1"
     inkscape:pageshadow="0"
     inkscape:pageopacity="0"
     inkscape:pagecheckerboard="0"
     showgrid="false"
     inkscape:zoom="5.2604167"
     inkscape:cx="36.40396"
     inkscape:cy="10.930693"
     inkscape:window-width="1920"
     inkscape:window-height="1002"
     inkscape:window-x="0"
     inkscape:window-y="0"
     inkscape:window-maximized="1"
     inkscape:current-layer="svg52"
     inkscape:showpageshadow="2"
     inkscape:deskcolor="#c9c9c9" />
  <defs
     id="defs32">
    <linearGradient
       xlink:href="#linearGradient4393"
       id="linearGradient4399"
       x1="424.44101"
       y1="502.85001"
       x2="440.87799"
       y2="529.57599"
       gradientUnits="userSpaceOnUse"
       gradientTransform="matrix(0.69224711,0,0,0.69224711,-215.22899,-357.13539)" />
    <linearGradient
       id="linearGradient4393">
      <stop
         style="stop-color:#000000;stop-opacity:1;"
         offset="0"
         id="stop3" />
      <stop
         style="stop-color:#000000;stop-opacity:0;"
         offset="1"
         id="stop5" />
    </linearGradient>
    <linearGradient
       xlink:href="#linearGradient4274"
       id="linearGradient4217"
       gradientUnits="userSpaceOnUse"
       gradientTransform="matrix(0.69224711,0,0,0.69224711,-199.3073,1639.8968)"
       x1="390.57101"
       y1="498.298"
       x2="442.57101"
       y2="498.298" />
    <linearGradient
       id="linearGradient4274">
      <stop
         offset="0"
         style="stop-color:#ffffff;stop-opacity:1;"
         id="stop9" />
      <stop
         offset="1"
         style="stop-color:#ffffff;stop-opacity:0.48760331"
         id="stop11" />
    </linearGradient>
    <linearGradient
       xlink:href="#linearGradient4227"
       id="linearGradient4225"
       gradientUnits="userSpaceOnUse"
       x1="396.57101"
       y1="498.798"
       x2="426.57101"
       y2="511.798"
       gradientTransform="matrix(0.69224711,0,0,0.69224711,-199.3073,-360.21214)" />
    <linearGradient
       id="linearGradient4227">
      <stop
         offset="0"
         style="stop-color:#f5f5f5;stop-opacity:1"
         id="stop21" />
      <stop
         offset="1"
         style="stop-color:#f9f9f9;stop-opacity:1"
         id="stop23" />
    </linearGradient>
    <style
       id="current-color-scheme"
       type="text/css">      .ColorScheme-Highlight {
        color:#3593e6;
      }
</style>
    <linearGradient
       id="d"
       gradientUnits="userSpaceOnUse"
       x1="4"
       x2="18.999998"
       xlink:href="#c"
       y1="5"
       y2="20"
       gradientTransform="matrix(2.7999616,0,0,2.7999616,1.095156,-2.3992319)" />
    <linearGradient
       id="c">
      <stop
         offset="0"
         stop-color="#292c2f"
         id="stop265" />
      <stop
         offset="1"
         stop-opacity="0"
         id="stop267" />
    </linearGradient>
    <linearGradient
       id="b"
       gradientUnits="userSpaceOnUse"
       x1="13.280776"
       x2="28.280775"
       xlink:href="#c"
       y1="5.088388"
       y2="20.088388"
       gradientTransform="matrix(2.7999616,0,0,2.7999616,1.095156,-2.3992319)" />
    <linearGradient
       id="c-3"
       gradientUnits="userSpaceOnUse"
       x1="5"
       x2="5"
       y1="20"
       y2="7"
       gradientTransform="matrix(3.4390082,0,0,3.4390082,-5.8290972,-4.015561)">
      <stop
         offset="0"
         stop-color="#999a9c"
         id="stop164" />
      <stop
         offset="1"
         stop-color="#f4f5f5"
         id="stop166" />
    </linearGradient>
    <linearGradient
       id="c-36"
       gradientTransform="matrix(-1.5178835,-0.40671565,0.40671565,-1.5178835,-118.80345,45.942209)"
       gradientUnits="userSpaceOnUse"
       x1="-80.458"
       x2="-73.210999"
       y1="16.417999"
       y2="43.464001">
      <stop
         offset="0"
         stop-color="#b0b4b8"
         id="stop161" />
      <stop
         offset="1"
         stop-color="#dadcde"
         id="stop163" />
    </linearGradient>
    <linearGradient
       id="d-7"
       gradientUnits="userSpaceOnUse"
       x1="18"
       x2="24"
       xlink:href="#b-5"
       y1="22"
       y2="28"
       gradientTransform="matrix(1.5714286,0,0,1.5714286,6.857142,6.6025957)" />
    <linearGradient
       id="b-5">
      <stop
         offset="0"
         stop-color="#292c2f"
         id="stop174" />
      <stop
         offset="1"
         stop-color="#0b0000"
         stop-opacity="0"
         id="stop176" />
    </linearGradient>
    <linearGradient
       id="e"
       gradientUnits="userSpaceOnUse"
       x1="13.667"
       x2="18.885"
       xlink:href="#b-5"
       y1="8.6660004"
       y2="13.885"
       gradientTransform="matrix(1.5714286,0,0,1.5714286,6.857142,6.6025957)" />
    <linearGradient
       id="f"
       gradientUnits="userSpaceOnUse"
       x1="17.666"
       x2="23"
       xlink:href="#b-5"
       y1="9.3330002"
       y2="14.667"
       gradientTransform="matrix(1.5714286,0,0,1.5714286,6.857142,6.6025957)" />
    <linearGradient
       id="g"
       gradientUnits="userSpaceOnUse"
       x1="21.666"
       x2="21.666"
       xlink:href="#a"
       y1="16"
       y2="6.6669998"
       gradientTransform="matrix(1.5714286,0,0,1.5714286,6.857142,6.6025957)" />
    <linearGradient
       id="a">
      <stop
         offset="0"
         stop-color="#f67400"
         id="stop169" />
      <stop
         offset="1"
         stop-color="#f39c1f"
         id="stop171" />
    </linearGradient>
    <linearGradient
       id="h"
       gradientUnits="userSpaceOnUse"
       x1="11"
       x2="11"
       xlink:href="#a"
       y1="14"
       y2="2"
       gradientTransform="matrix(1.5714286,0,0,1.5714286,6.857142,6.6025957)" />
    <linearGradient
       id="i"
       gradientUnits="userSpaceOnUse"
       x1="15"
       x2="15"
       y1="28"
       y2="15"
       gradientTransform="matrix(1.5714286,0,0,1.5714286,6.857142,6.6025957)">
      <stop
         offset="0"
         stop-color="#375a7d"
         id="stop154" />
      <stop
         offset=".154"
         stop-color="#3b85b5"
         id="stop156" />
      <stop
         offset="1"
         stop-color="#7cbcec"
         id="stop158" />
    </linearGradient>
    <linearGradient
       id="d-3"
       gradientUnits="userSpaceOnUse"
       x1="16"
       x2="0"
       xlink:href="#a-6"
       y1="28"
       y2="12"
       gradientTransform="matrix(1.6363635,0,0,1.6363635,5.8,3.800818)" />
    <linearGradient
       id="a-6">
      <stop
         offset="0"
         stop-color="#f58273"
         id="stop188" />
      <stop
         offset="1"
         stop-color="#ffafa5"
         id="stop190" />
    </linearGradient>
    <linearGradient
       id="e-7"
       gradientUnits="userSpaceOnUse"
       x1="12"
       x2="6"
       xlink:href="#a-6"
       y1="12"
       y2="6"
       gradientTransform="matrix(1.6363635,0,0,1.6363635,5.8,3.800818)" />
    <linearGradient
       id="f-5"
       gradientUnits="userSpaceOnUse"
       x1="12"
       x2="6"
       xlink:href="#b-3"
       y1="12"
       y2="6"
       gradientTransform="matrix(1.6363635,0,0,1.6363635,5.8,3.800818)" />
    <linearGradient
       id="b-3">
      <stop
         offset="0"
         stop-color="#ffafa5"
         id="stop183" />
      <stop
         offset="1"
         stop-color="#ffe5e1"
         id="stop185" />
    </linearGradient>
    <linearGradient
       id="g-5"
       gradientUnits="userSpaceOnUse"
       x1="22"
       x2="16"
       xlink:href="#b-3"
       y1="12"
       y2="6"
       gradientTransform="matrix(1.6363635,0,0,1.6363635,5.8,3.800818)" />
    <linearGradient
       id="h-6"
       gradientUnits="userSpaceOnUse"
       x1="32"
       x2="26"
       y1="12"
       y2="6"
       gradientTransform="matrix(1.6363635,0,0,1.6363635,5.8,3.800818)">
      <stop
         offset="0"
         stop-color="#f36957"
         id="stop197" />
      <stop
         offset="1"
         stop-color="#ff9487"
         id="stop199" />
    </linearGradient>
    <linearGradient
       id="i-2"
       gradientUnits="userSpaceOnUse"
       x1="27"
       x2="23"
       xlink:href="#c-9"
       y1="16"
       y2="12"
       gradientTransform="matrix(1.6363635,0,0,1.6363635,5.8,3.800818)" />
    <linearGradient
       id="c-9">
      <stop
         offset="0"
         stop-color="#bf4231"
         id="stop178" />
      <stop
         offset="1"
         stop-color="#e05e4c"
         id="stop180" />
    </linearGradient>
    <linearGradient
       id="j"
       gradientUnits="userSpaceOnUse"
       x1="16"
       x2="16"
       y1="28"
       y2="12"
       gradientTransform="matrix(1.6363635,0,0,1.6363635,5.8,3.800818)">
      <stop
         offset="0"
         stop-color="#dc4732"
         id="stop204" />
      <stop
         offset="1"
         stop-color="#f36957"
         id="stop206" />
    </linearGradient>
    <linearGradient
       id="k"
       gradientUnits="userSpaceOnUse"
       x1="16"
       x2="0"
       xlink:href="#c-9"
       y1="28"
       y2="12"
       gradientTransform="matrix(1.6363635,0,0,1.6363635,5.8,3.800818)" />
    <linearGradient
       id="l"
       gradientUnits="userSpaceOnUse"
       x1="16"
       x2="16"
       xlink:href="#a-6"
       y1="12"
       y2="6"
       gradientTransform="matrix(1.6363635,0,0,1.6363635,5.8,3.800818)" />
    <linearGradient
       id="a-3"
       gradientTransform="matrix(-1.5178835,-0.40671565,0.40671565,-1.5178835,-23.044805,74.362762)"
       gradientUnits="userSpaceOnUse"
       x1="-27.382999"
       x2="-20.311001"
       y1="21.552999"
       y2="47.945999">
      <stop
         offset="0"
         stop-color="#afb4b9"
         id="stop200" />
      <stop
         offset="1"
         stop-color="#cfd2d5"
         id="stop202" />
    </linearGradient>
    <linearGradient
       id="b-6"
       gradientUnits="userSpaceOnUse"
       x1="24"
       x2="8"
       y1="24"
       y2="8"
       gradientTransform="matrix(1.5714286,0,0,1.5714286,6.85715,6.177143)">
      <stop
         offset="0"
         stop-color="#bf4231"
         id="stop210" />
      <stop
         offset="1"
         stop-color="#f58273"
         id="stop212" />
    </linearGradient>
    <linearGradient
       id="c-7"
       gradientUnits="userSpaceOnUse"
       x1="106.079"
       x2="106.079"
       y1="196.506"
       y2="29.136"
       gradientTransform="matrix(0.1408294,-0.1408294,0.1408294,0.1408294,0.38541398,28.012714)">
      <stop
         offset="0"
         stop-color="#375a7d"
         id="stop205" />
      <stop
         offset="1"
         stop-color="#54a3d8"
         id="stop207" />
    </linearGradient>
  </defs>
  <path
     d="m 2.9999985,10.25 c 0,-4.0041748 3.245938,-7.25 7.2500005,-7.25 h 43.500003 c 4.004173,0 7.249999,3.2458252 7.249999,7.25 v 43.5 c 0,4.004173 -3.245827,7.25 -7.25,7.25 H 10.249999 C 6.2459365,61 2.9999985,57.754173 2.9999985,53.75 Z"
     id="path736"
     style="fill:#606c86;fill-opacity:1;stroke-width:3.625" />
  <path
     d="M 2.9999985,9.796875 C 2.9999985,6.0431877 6.2459365,3 10.249999,3 h 43.500003 c 4.004173,0 7.249999,3.0431877 7.249999,6.796875 v 40.781249 c 0,3.753693 -3.245827,6.796876 -7.25,6.796876 H 10.249999 c -4.0040625,0 -7.2500005,-3.043183 -7.2500005,-6.796876 z"
     id="path738"
     style="fill:#3b4252;fill-opacity:1;stroke-width:3.625" />
  <path
     d="m 32,9.32 a 22,22 0 0 0 -4.71429,0.528 v 3.235571 a 18.857143,18.857143 0 0 0 -4.84628,2.006715 l -2.28329,-2.283287 a 22,22 0 0 0 -6.68485,6.65343 l 2.299,2.299 a 18.857143,18.857143 0 0 0 -2.01458,4.846286 H 10.53429 A 22,22 0 0 0 10,31.32 a 22,22 0 0 0 0.528,4.714285 h 3.23557 a 18.857143,18.857143 0 0 0 2.00672,4.846286 L 13.487,43.163857 a 22,22 0 0 0 6.65343,6.684857 l 2.299,-2.299 a 18.857143,18.857143 0 0 0 4.84628,2.014572 v 3.221428 A 22,22 0 0 0 32,53.32 21.995286,21.995286 0 0 0 36.71429,52.792 v -3.235571 a 18.857143,18.857143 0 0 0 4.84628,-2.006715 L 43.84386,49.833 a 22,22 0 0 0 6.68485,-6.65343 l -2.299,-2.298999 a 18.857143,18.857143 0 0 0 2.01458,-4.846286 h 3.22142 A 22,22 0 0 0 54,31.32 21.995286,21.995286 0 0 0 53.472,26.605715 H 50.23643 A 18.857143,18.857143 0 0 0 48.22971,21.759429 L 50.513,19.476142 a 22,22 0 0 0 -6.65343,-6.684857 l -2.299,2.299 A 18.857143,18.857143 0 0 0 36.71429,13.075714 V 9.8542857 A 22,22 0 0 0 32,9.32 Z"

     id="path215-5"
     style="fill:url(#a-3);stroke-width:1.57143" />
  <circle
     cx="31.999996"
     cy="31.320005"

     r="17.285715"
     id="circle217"
     style="fill:url(#b-6);stroke-width:1.57143" />
  <path
     d="m 38.01447,36.168989 -1.04186,1.823459 -1.10721,-2.670127 -4.49372,-6.056931 -1.17227,0.781886 -0.45571,-2.800252 -4.02802,-6.948805 -2.02877,3.106133 c 0,0 -1.12482,-3.83239 -1.30269,-6.883459 l -3.32116,0.436148 c 0,0 -3.38681,8.718889 6.90317,15.752332 l -1.46997,1.032279 10.27968,7.879968 -0.75384,1.27493 c 0,0 3.15978,1.081429 5.62035,0.63162 0.22349,-0.04098 -8.92197,-5.275048 -14.00168,-14.522751 l 0.65105,0.260394 c 0,0 5.97526,9.296571 13.80649,13.806492 0,0 0.22308,0.07013 0.95596,-0.857933 0,0 -1.33027,-4.335856 -3.0398,-6.045384"

     id="path219-3"
     style="fill:url(#c-7);stroke-width:0.199163" />
  <g
     fill="#fcfcfc"
     id="g225"
     transform="matrix(1.5714286,0,0,1.5714286,6.85714,6.177143)">
    <path
       d="m 11.95,13.71 c 0,0 1.935,3.053 6.139,6.935 a 37.27,37.27 0 0 0 3.637,2.952 v -0.001 c 0.955,0.743 1.333,0.98 2.63,1.728 L 25,26 c 0,0 -9.222,-4.823 -13.05,-12.29"
       id="path221-5" />
    <path
       d="m 9.822,6.742 c 0,0 -3.005,-2.285 -2.582,2.642 0.337,3.923 2.359,5.518 3.478,6.417 0.286,0.23 -3.028,-2.36 -3.007,-6.269 0.021,-3.907 1.956,-2.86 2.11,-2.79 m 7.294,15.363 c 0,0 -3.398,-1.477 -6.487,-4.977 0,0 0.822,0.372 1.752,-0.14 0,0 -0.27,0.41 -0.5,0.578 0,0 0.889,1.893 5.235,4.54 m 0.793,0.338 c 0,0 0.028,0.502 -1.267,0.628 0,0 1.717,1.264 3.805,0.54 0,0 -1.697,0.239 -2.745,-0.288 0,0 0.242,-0.442 0.207,-0.88 m 1.141,-2.988 c 0,0 0.646,-0.822 0.353,-1.27 0,0 2.307,2.128 2.202,4.062 0,0 -0.436,-1.992 -1.814,-3.125 z m -3.88,-4.76 c 0,0 0.546,-0.34 0.587,-0.727 0,0 1.22,2.06 2.232,2.852 1.012,0.792 0.794,2.164 0.794,2.164 0,0 -0.18,-1.533 -1.09,-2.019 -0.63,-0.336 -1.704,-1.738 -1.91,-2.317 0,0 -0.199,0.15 -0.614,0.048 m -4.03,-4.5 c 0,0 0.248,-0.74 0.868,-1.54 0,0 2.196,0.646 2.714,4.98 0,0 -1.403,-3.679 -2.467,-4.206 0,0 -0.487,0.114 -1.115,0.767"
       id="path223-6" />
  </g>
</svg>
