<?xml version="1.0" encoding="UTF-8" standalone="no"?>
<svg
   height="64"
   width="64"
   version="1.1"
   id="svg24"
   sodipodi:docname="pattern-sway-openSUSE.svg"
   inkscape:version="1.2.1 (9c6d41e410, 2022-07-14)"
   xmlns:inkscape="http://www.inkscape.org/namespaces/inkscape"
   xmlns:sodipodi="http://sodipodi.sourceforge.net/DTD/sodipodi-0.dtd"
   xmlns:xlink="http://www.w3.org/1999/xlink"
   xmlns="http://www.w3.org/2000/svg"
   xmlns:svg="http://www.w3.org/2000/svg">
  <defs
     id="defs28">
    <linearGradient
       inkscape:collect="always"
       xlink:href="#linearGradient22063"
       id="linearGradient22065"
       x1="-22"
       y1="5.1111121"
       x2="-6.4444442"
       y2="-9.1111107"
       gradientUnits="userSpaceOnUse"
       gradientTransform="matrix(3.6250002,0,0,3.6250002,82.750001,39.25)" />
    <linearGradient
       inkscape:collect="always"
       id="linearGradient22063">
      <stop
         style="stop-color:#88c0d0;stop-opacity:1;"
         offset="0"
         id="stop22059" />
      <stop
         style="stop-color:#adc596;stop-opacity:1;"
         offset="1"
         id="stop22061" />
    </linearGradient>
    <linearGradient
       id="c-5"
       x1="61.163261"
       x2="64.927658"
       y1="105.1096"
       y2="109.0449"
       gradientUnits="userSpaceOnUse">
      <stop
         stop-color="#e6e6e6"
         offset="0"
         id="stop26493-4" />
      <stop
         stop-color="#b3b3b3"
         offset="1"
         id="stop26495-7" />
    </linearGradient>
    <linearGradient
       id="d-6"
       x1="77.166962"
       x2="64.371704"
       y1="115.71481"
       y2="112.00438"
       gradientUnits="userSpaceOnUse">
      <stop
         stop-color="#0cf"
         offset="0"
         id="stop26498-5" />
      <stop
         stop-color="#2a7fff"
         offset="1"
         id="stop26500-6" />
    </linearGradient>
    <linearGradient
       id="e-9"
       x1="68.7071"
       x2="75.81916"
       y1="113.06454"
       y2="117.91264"
       gradientUnits="userSpaceOnUse"
       xlink:href="#a-3" />
    <linearGradient
       id="a-3">
      <stop
         stop-color="#2a7fff"
         offset="0"
         id="stop26483" />
      <stop
         stop-color="#0cf"
         offset="1"
         id="stop26485" />
    </linearGradient>
    <linearGradient
       id="g-4"
       x1="77.401382"
       x2="68.670082"
       y1="106.36805"
       y2="120.35797"
       gradientUnits="userSpaceOnUse"
       xlink:href="#f" />
    <linearGradient
       id="f">
      <stop
         stop-color="#fff"
         offset="0"
         id="stop26504" />
      <stop
         stop-color="#b3b3b3"
         offset="1"
         id="stop26506" />
    </linearGradient>
    <linearGradient
       id="h-5"
       x1="68.228661"
       x2="68.16433"
       y1="112.73174"
       y2="118.55463"
       gradientUnits="userSpaceOnUse">
      <stop
         stop-color="#b3b3b3"
         offset="0"
         id="stop26510-4" />
      <stop
         stop-color="#fff"
         offset="1"
         id="stop26512-7" />
    </linearGradient>
    <linearGradient
       id="i-4"
       x1="63.36673"
       x2="71.135635"
       y1="106.86487"
       y2="104.88973"
       gradientUnits="userSpaceOnUse"
       xlink:href="#f" />
    <linearGradient
       id="j-4"
       x1="66.951469"
       x2="66.335762"
       y1="104.46095"
       y2="109.66759"
       gradientUnits="userSpaceOnUse">
      <stop
         stop-color="#ccc"
         offset="0"
         id="stop26516-3" />
      <stop
         stop-color="#b3b3b3"
         offset="1"
         id="stop26518-0" />
    </linearGradient>
    <linearGradient
       id="k-7"
       x1="62.960659"
       x2="77.488457"
       y1="115.88342"
       y2="107.31376"
       gradientUnits="userSpaceOnUse">
      <stop
         stop-color="#e6e6e6"
         offset="0"
         id="stop26521-8" />
      <stop
         stop-color="#fff"
         offset="1"
         id="stop26523-6" />
    </linearGradient>
  </defs>
  <sodipodi:namedview
     id="namedview26"
     pagecolor="#ffffff"
     bordercolor="#666666"
     borderopacity="1.0"
     inkscape:showpageshadow="2"
     inkscape:pageopacity="0.0"
     inkscape:pagecheckerboard="0"
     inkscape:deskcolor="#d1d1d1"
     showgrid="false"
     inkscape:zoom="4.9166667"
     inkscape:cx="22.576271"
     inkscape:cy="24.508474"
     inkscape:window-width="1920"
     inkscape:window-height="1002"
     inkscape:window-x="0"
     inkscape:window-y="0"
     inkscape:window-maximized="1"
     inkscape:current-layer="svg24" />
  <linearGradient
     id="a"
     gradientUnits="userSpaceOnUse"
     x1="44"
     x2="4"
     y1="1048.3621"
     y2="1008.362"
     gradientTransform="translate(88.679145,-1051.648)">
    <stop
       offset="0"
       stop-color="#73ba25"
       id="stop2" />
    <stop
       offset="1"
       stop-color="#35b9ab"
       id="stop4" />
  </linearGradient>
  <linearGradient
     id="b"
     gradientUnits="userSpaceOnUse"
     x1="19"
     x2="37"
     y1="1021.362"
     y2="1039.3621"
     gradientTransform="translate(88.679145,-1051.648)">
    <stop
       offset="0"
       stop-color="#292c2f"
       id="stop7" />
    <stop
       offset="1"
       stop-opacity="0"
       id="stop9" />
  </linearGradient>
  <path
     d="M 2.999999,10.25 C 2.999999,6.245825 6.245936,3 10.249998,3 h 43.500003 c 4.004173,0 7.25,3.245825 7.25,7.25 v 43.5 c 0,4.004173 -3.245827,7.25 -7.25,7.25 H 10.249998 C 6.245936,61 2.999999,57.754173 2.999999,53.75 Z"
     id="path736"
     style="fill:#606c86;fill-opacity:1;stroke-width:3.625" />
  <path
     d="M 2.999999,9.796875 C 2.999999,6.043188 6.245936,3 10.249998,3 h 43.500003 c 4.004173,0 7.25,3.043188 7.25,6.796875 v 40.78125 c 0,3.753692 -3.245827,6.796875 -7.25,6.796875 H 10.249998 c -4.004062,0 -7.249999,-3.043183 -7.249999,-6.796875 z"
     id="path738"
     style="fill:url(#linearGradient22065);fill-opacity:1;stroke-width:3.625" />
  <g
     fill="#070c0f"
     stroke-width="0.075822"
     id="g45"
     transform="matrix(1.6562174,0,0,1.6562178,-7.2395218,15.576994)"
     style="fill:#006060;fill-opacity:1">
    <path
       d="m 23.151,19.503 -7.568,0.67584 -7.5663,-0.6753 7.5663,2.881 z M 7,19.70987 v 1.0148 l 8.5828,3.2758 8.5758,-3.2758 v -1.0116 l -8.4772,3.227 a 0.27729,0.27729 0 0 1 -0.19712,0 z"
       id="path21"
       style="fill:#006060;fill-opacity:1" />
    <path
       d="M 15.583,22.681 7,19.4131 c 0,0 0.56866,-0.21988 0.67481,-0.25779 0.508,-0.18956 1.0463,-0.34878 1.5392,-0.56108 1.0236,-0.45493 2.1458,-0.74305 3.2679,-0.75822 0.64448,-0.0075 1.2435,0.18955 1.8728,0.09098 0.72789,-0.12131 1.4254,-0.39427 2.1533,-0.53833 1.3193,-0.25021 2.6007,0.09098 3.8214,0.57624 1.2511,0.49284 2.4718,0.93261 3.7304,1.4103 0.03791,0.01516 0.06824,0.02274 0.10615,0.03791 z"
       id="path23"
       style="fill:#006060;fill-opacity:1" />
    <path
       d="m 9.813,19.58 c -0.10615,-2.3808 2.305,-3.6622 4.0868,-4.6403 1.5543,-0.8492 3.4954,-1.9562 3.0935,-4.0261 -0.08341,-0.43218 -0.74305,-0.25021 -0.65965,0.18197 0.18197,0.94777 -0.35636,1.6681 -1.0767,2.214 -0.8492,0.64448 -1.8273,1.0994 -2.7523,1.6226 -1.706,0.97052 -3.4726,2.5021 -3.3816,4.6479 0.022748,0.43976 0.70514,0.43976 0.68998,0 z"
       id="path25"
       style="fill:#006060;fill-opacity:1" />
    <path
       d="m 12.8,15.675 c 2.3656,0.49284 4.8602,-0.2123 6.6116,-1.8804 0.31845,-0.30328 -0.16681,-0.78855 -0.48526,-0.48526 -1.5619,1.5013 -3.8214,2.1533 -5.9444,1.706 -0.4246,-0.08341 -0.61416,0.56866 -0.18197,0.65965 z"
       id="path27"
       style="fill:#006060;fill-opacity:1" />
    <path
       d="m 12.8,10.708 c 0.62174,0.15164 1.6757,-0.56866 2.1458,-0.79613 0.60657,-0.2957 1.2359,-0.52317 1.85,-0.79613 0.23505,-0.10615 1.0008,-0.34878 1.0084,-0.68998 0.01516,-0.4246 -0.79613,-0.44735 -1.0615,-0.41702 -0.53833,0.053073 -1.0615,0.21988 -1.5771,0.37153 -0.53075,0.15923 -1.0463,0.37153 -1.5392,0.6369 -0.37153,0.19714 -0.87953,0.54592 -1.0994,0.90986 -0.13648,0.21988 -0.1289,0.54592 0.08341,0.69756 0.05307,0.03791 0.11373,0.06823 0.18955,0.0834 z"
       id="path29"
       style="fill:#006060;fill-opacity:1" />
    <path
       d="m 16.607,9.5559 c 0.10615,-0.060659 0.2123,-0.11373 0.31845,-0.16681 0.87953,-0.41702 1.8955,-0.75822 2.8964,-0.83404 0.87195,-0.068235 1.8349,-0.22746 2.6993,0.00753 0.44735,0.12131 0.94019,0.5535 0.70514,0.97052 -0.17439,0.31087 -0.88711,0.72789 -1.198,0.95535 -1.1449,0.81129 -2.7447,1.1677 -4.2081,1.2435 -1.0615,0.06066 -2.8054,-0.54592 -1.8349,-1.6908 0.15922,-0.19714 0.38669,-0.34878 0.62174,-0.48526 z"
       id="path31-3"
       style="fill:#006060;fill-opacity:1" />
    <path
       d="m 22.445,10.511 c 0.24263,0.0076 0.52317,0.06823 0.6369,0.28812 0.09098,0.18197 0.02274,0.40185 -0.10615,0.5535 -0.13648,0.15164 -0.31845,0.23505 -0.508,0.31087 -0.94019,0.39427 -1.9486,0.62932 -2.9646,0.69756 -0.28054,0.01516 -0.57624,0.02274 -0.8492,-0.06824 -0.27296,-0.09098 -0.51559,-0.2957 -0.59141,-0.56866 -0.16681,-0.62932 1.2131,-0.83404 1.5847,-0.90228 0.37153,-0.06825 0.74305,-0.11373 1.1146,-0.1289 0.56108,-0.03791 1.107,-0.20472 1.6832,-0.18197 z"
       id="path33"
       style="fill:#006060;fill-opacity:1" />
    <path
       d="m 22.316,14.636 c -0.37152,-0.91744 -2.6083,0.09099 -3.1163,0.41702 -0.18955,0.12132 -0.38669,0.30329 -0.34878,0.52317 0.03791,0.23505 0.31845,0.3412 0.56108,0.37153 0.58383,0.07582 3.3362,-0.22746 2.904,-1.3117 z"
       id="path35"
       style="fill:#006060;fill-opacity:1" />
    <path
       d="m 15.287,11.664 c -0.09098,0.60657 -0.90986,1.2738 -1.4558,1.4634 -0.53075,0.18956 -1.4179,-0.20472 -1.0918,-0.8492 0.28812,-0.56108 1.7136,-1.5619 2.3353,-1.1525 0.18197,0.11373 0.24263,0.3412 0.2123,0.53834 z"
       id="path37"
       style="fill:#006060;fill-opacity:1" />
    <path
       d="m 16.864,14.681 c 0.87195,0.10615 1.7666,-0.0075 2.5855,-0.31845 0.18197,-0.06824 0.37153,-0.15923 0.44735,-0.3412 0.05307,-0.13648 0.01516,-0.30329 -0.09098,-0.40186 -0.10615,-0.09857 -0.27296,-0.1289 -0.40186,-0.06824 -0.24263,-0.26538 -0.66723,-0.24263 -1.0236,-0.17439 -0.56108,0.11374 -1.1146,0.31845 -1.6226,0.58383 -0.18197,0.09857 -0.38669,0.26538 -0.33362,0.46251 0.05307,0.17439 0.25779,0.23505 0.43977,0.2578 z"
       id="path39"
       style="fill:#006060;fill-opacity:1" />
    <path
       d="m 17.873,13.976 c 1.1525,0.25779 2.4187,-0.07582 3.4044,-0.71272 0.1289,-0.08341 0.27296,-0.2123 0.25021,-0.37153 -0.03033,-0.18955 -0.27296,-0.25021 -0.4701,-0.24263 -1.1222,0.01516 -2.2595,0.2957 -3.2376,0.86436 -0.11373,0.06066 -0.23505,0.16681 -0.20472,0.28812 0.03791,0.10615 0.15923,0.15164 0.25779,0.17439 z"
       id="path41"
       style="fill:#006060;fill-opacity:1" />
    <path
       d="m 12.103,12.445 c 0.10615,-0.1289 0.19714,-0.28812 0.15164,-0.43977 -0.2123,-0.84162 -1.3572,0.25021 -1.6302,0.50042 -0.34878,0.31845 -0.33362,0.59899 0.23505,0.59899 0.46251,-0.0075 0.95535,-0.31845 1.2435,-0.65965 z"
       id="path43"
       style="fill:#006060;fill-opacity:1" />
  </g>
  <path
     fill="#ffffff"
     d="m 36.527992,10.556583 a 20.939614,19.630945 0 0 0 -16.484865,7.56339 c 2.554056,0.639722 4.361782,1.189511 4.903193,1.360034 0.0083,-0.311412 0.06361,-3.096635 0.06361,-3.096635 0,0 0.0056,-0.06376 0.04328,-0.09699 0.04684,-0.04292 0.114292,-0.02996 0.114292,-0.02996 0.671749,0.09107 15.010241,2.083745 21.053976,5.385511 0.746367,0.409338 1.114788,0.844583 1.575115,1.285805 1.670661,1.619891 3.878199,8.355521 4.115308,9.744485 0.0081,0.05472 -0.06268,0.113905 -0.09326,0.136337 h -6.76e-4 c -0.171648,0.125562 -0.358558,0.256124 -0.545781,0.372779 -1.430086,0.899507 -4.72466,3.061621 -8.951534,2.708617 -3.796841,-0.314901 -8.7573,-2.356677 -14.737339,-6.050621 0.587962,1.2906 1.167284,2.585167 1.746884,3.879027 0.86601,0.421701 9.224806,4.414823 13.350225,4.336825 3.322775,-0.06488 6.876529,-1.584324 8.298242,-2.386524 0,0 0.312422,-0.176472 0.448385,-0.07802 0.148717,0.107719 0.107566,0.27275 0.07237,0.441295 -0.08753,0.382603 -0.286592,1.080633 -0.422024,1.411999 l -0.11427,0.270082 c -0.162747,0.40878 -0.318953,0.788718 -0.620177,1.022705 -0.83753,0.713953 -2.174273,1.281968 -4.268826,2.135434 -3.23763,1.327733 -8.490342,2.172095 -13.367182,2.14305 -1.746701,-0.03654 -3.434227,-0.218132 -4.916035,-0.38041 -3.041024,-0.321766 -5.515346,-0.582899 -7.024101,0.440111 A 20.939614,19.630945 0 0 0 36.527928,49.8185 20.939614,19.630945 0 0 0 57.467622,30.187515 20.939614,19.630945 0 0 0 36.527922,10.5565 Z m 4.670558,11.390455 c -1.638982,-0.04905 -3.201829,0.493242 -4.400017,1.541971 -1.197625,1.045266 -1.882985,2.47032 -1.943695,4.005859 -0.113223,3.167736 2.539613,5.836866 5.915613,5.953574 1.646434,0.05175 3.205892,-0.490769 4.404098,-1.545766 1.194573,-1.042024 1.879942,-2.467138 1.943676,-4.002686 0.115937,-3.164909 -2.540045,-5.83967 -5.919675,-5.952952 z m -0.05134,1.694145 c 2.361886,0.0785 4.211074,1.93868 4.131544,4.152306 -0.03649,1.067527 -0.516849,2.057129 -1.351261,2.790994 -0.835652,0.730486 -1.927823,1.110323 -3.073809,1.077874 -2.356393,-0.08159 -4.20566,-1.943772 -4.126119,-4.157991 0.03464,-1.071514 0.52451,-2.061202 1.355318,-2.791674 0.830768,-0.73048 1.917744,-1.110222 3.064327,-1.071509 z m 0.699966,2.013069 c -1.049431,0 -1.897022,0.529438 -1.897022,1.188165 0,0.652515 0.847591,1.185023 1.897022,1.185023 1.048818,0 1.899741,-0.532532 1.899741,-1.185023 0,-0.658727 -0.850341,-1.188165 -1.899741,-1.188165 z"
     id="path3794-5"
     style="stroke-width:0.6336" />
</svg>
