<?xml version="1.0" encoding="UTF-8" standalone="no"?>
<svg
   version="1.1"
   viewBox="0 0 64 64"
   id="svg32"
   sodipodi:docname="pattern-deepin.svg"
   width="64"
   height="64"
   inkscape:version="1.2.1 (9c6d41e410, 2022-07-14)"
   xmlns:inkscape="http://www.inkscape.org/namespaces/inkscape"
   xmlns:sodipodi="http://sodipodi.sourceforge.net/DTD/sodipodi-0.dtd"
   xmlns:xlink="http://www.w3.org/1999/xlink"
   xmlns="http://www.w3.org/2000/svg"
   xmlns:svg="http://www.w3.org/2000/svg">
  <sodipodi:namedview
     id="namedview34"
     pagecolor="#ffffff"
     bordercolor="#666666"
     borderopacity="1.0"
     inkscape:showpageshadow="2"
     inkscape:pageopacity="0.0"
     inkscape:pagecheckerboard="0"
     inkscape:deskcolor="#d1d1d1"
     showgrid="false"
     inkscape:zoom="7.375"
     inkscape:cx="-1.8305085"
     inkscape:cy="28"
     inkscape:window-width="1920"
     inkscape:window-height="998"
     inkscape:window-x="0"
     inkscape:window-y="0"
     inkscape:window-maximized="1"
     inkscape:current-layer="svg32" />
  <defs
     id="defs12">
    <linearGradient
       id="b"
       x1="-41.259998"
       x2="-2.994"
       y1="-0.88300002"
       y2="37.956001"
       gradientTransform="matrix(0.73180945,0,0,0.72091894,416.0252,517.69779)"
       gradientUnits="userSpaceOnUse">
      <stop
         stop-color="#21c9fb"
         offset="0"
         id="stop2" />
      <stop
         stop-color="#1a86f2"
         offset="1"
         id="stop4" />
    </linearGradient>
    <linearGradient
       id="a"
       x1="4"
       x2="44"
       y1="4"
       y2="44"
       gradientTransform="matrix(0.69444447,0,0,0.69444447,384.01587,515.24246)"
       gradientUnits="userSpaceOnUse">
      <stop
         offset="0"
         id="stop7" />
      <stop
         stop-opacity="0"
         offset="1"
         id="stop9" />
    </linearGradient>
    <linearGradient
       inkscape:collect="always"
       id="linearGradient22063">
      <stop
         style="stop-color:#88c0d0;stop-opacity:1;"
         offset="0"
         id="stop22059" />
      <stop
         style="stop-color:#7996bb;stop-opacity:1;"
         offset="1"
         id="stop22061" />
    </linearGradient>
    <linearGradient
       gradientTransform="matrix(0.33944754,0,0,0.33992701,9.6992503,10.420578)"
       xlink:href="#linearGradient3360"
       id="linearGradient3366"
       x1="-1.414"
       y1="88.047997"
       x2="154.149"
       y2="89.816002"
       gradientUnits="userSpaceOnUse" />
    <linearGradient
       id="linearGradient3360">
      <stop
         style="stop-color:#ffcc00;stop-opacity:1;"
         offset="0"
         id="stop158" />
      <stop
         offset=".245"
         style="stop-color:#ffff00;stop-opacity:1"
         id="stop160" />
      <stop
         offset=".586"
         style="stop-color:#ff0000;stop-opacity:1"
         id="stop162" />
      <stop
         style="stop-color:#ffcc00;stop-opacity:0;"
         offset="1"
         id="stop164" />
    </linearGradient>
    <linearGradient
       gradientTransform="matrix(0.33944754,0,0,0.33992701,9.6992503,10.420578)"
       xlink:href="#linearGradient3347"
       id="linearGradient3359"
       x1="-23.688"
       y1="-24.028"
       x2="146.72501"
       y2="140.728"
       gradientUnits="userSpaceOnUse" />
    <linearGradient
       id="linearGradient3347">
      <stop
         style="stop-color:#5e81ac;stop-opacity:1;"
         offset="0"
         id="stop146" />
      <stop
         offset="0.252"
         style="stop-color:#5e81ac;stop-opacity:1;"
         id="stop148" />
      <stop
         style="stop-color:#456285;stop-opacity:1;"
         offset="0.45899999"
         id="stop150" />
      <stop
         offset="0.89899999"
         style="stop-color:#233143;stop-opacity:1;"
         id="stop152" />
      <stop
         style="stop-color:#5e81ac;stop-opacity:0.07962073;"
         offset="1"
         id="stop154" />
    </linearGradient>
    <linearGradient
       id="e"
       y1="45"
       y2="24"
       x2="0"
       gradientUnits="userSpaceOnUse"
       gradientTransform="matrix(1.0774876,0,0,1.0774873,7.17948,4.6902606)">
      <stop
         stop-color="#60c0f4"
         id="stop18" />
      <stop
         offset="1"
         stop-color="#b9e9ff"
         id="stop20" />
    </linearGradient>
    <linearGradient
       id="b-3"
       y1="30"
       x1="24"
       y2="44"
       x2="38"
       gradientUnits="userSpaceOnUse">
      <stop
         id="stop7-6" />
      <stop
         offset="1"
         stop-opacity="0"
         id="stop9-7" />
    </linearGradient>
    <linearGradient
       id="a-5"
       y1="30"
       x1="34"
       y2="28"
       x2="24"
       gradientUnits="userSpaceOnUse"
       gradientTransform="matrix(1.0774876,0,0,1.0774873,7.17948,4.6902606)">
      <stop
         stop-color="#f39c12"
         id="stop2-3" />
      <stop
         offset="1"
         stop-color="#ffc35a"
         id="stop4-5" />
    </linearGradient>
    <linearGradient
       id="f"
       y1="23"
       x1="32"
       y2="22"
       x2="25"
       gradientUnits="userSpaceOnUse"
       gradientTransform="matrix(1.0774876,0,0,1.0774873,6.1019929,4.6902606)">
      <stop
         stop-color="#cea476"
         id="stop23" />
      <stop
         offset="1"
         stop-color="#dab58b"
         id="stop25" />
    </linearGradient>
    <linearGradient
       xlink:href="#b-3"
       id="g"
       y1="24"
       x1="25"
       y2="38"
       x2="39"
       gradientUnits="userSpaceOnUse"
       gradientTransform="matrix(1.0774876,0,0,1.0774873,7.17948,4.6902606)" />
    <linearGradient
       id="c"
       y1="37"
       y2="4"
       x2="0"
       gradientUnits="userSpaceOnUse"
       gradientTransform="matrix(1.0774876,0,0,1.0774873,5.0245048,4.6902606)">
      <stop
         stop-color="#da4453"
         id="stop12" />
      <stop
         offset="1"
         stop-color="#ff7336"
         id="stop14" />
    </linearGradient>
    <linearGradient
       xlink:href="#b-3"
       id="d"
       y1="22.313"
       x1="20.438"
       y2="25.406"
       x2="23.531"
       gradientUnits="userSpaceOnUse"
       gradientTransform="matrix(1.0774876,0,0,1.0774873,5.0245048,4.6902606)" />
    <linearGradient
       id="c-3"
       x2="0"
       y1="532.78998"
       y2="514.79999"
       gradientTransform="matrix(1.7778,0,0,1.7778,-763.38195,-909.21706)"
       gradientUnits="userSpaceOnUse">
      <stop
         stop-color="#7cbaf8"
         offset="0"
         id="stop187" />
      <stop
         stop-color="#f4fcff"
         offset="1"
         id="stop189" />
    </linearGradient>
    <linearGradient
       id="b-6"
       x1="25.792999"
       x2="41.605999"
       y1="26.896"
       y2="43.624001"
       gradientTransform="matrix(1.2575155,0,0,1.2575155,-2.3498115,-4.7646373)"
       gradientUnits="userSpaceOnUse">
      <stop
         stop-color="#292c2f"
         offset="0"
         id="stop192" />
      <stop
         stop-color="#292c2f"
         stop-opacity="0"
         offset="1"
         id="stop194" />
    </linearGradient>
    <linearGradient
       id="c-7"
       x2="0"
       y1="532.78998"
       y2="514.79999"
       gradientTransform="matrix(2.2356108,0,0,2.2356108,-880.44891,-1138.641)"
       gradientUnits="userSpaceOnUse">
      <stop
         stop-color="#7cbaf8"
         offset="0"
         id="stop187-5" />
      <stop
         stop-color="#f4fcff"
         offset="1"
         id="stop189-3" />
    </linearGradient>
    <linearGradient
       xlink:href="#linearGradient4717"
       id="linearGradient4723"
       x1="24"
       y1="1048.3621"
       x2="24"
       y2="1008.362"
       gradientUnits="userSpaceOnUse"
       gradientTransform="matrix(1.0500003,0,0,1.0500003,6.5374892,-1048.6685)" />
    <linearGradient
       id="linearGradient4717">
      <stop
         style="stop-color:#12375a;stop-opacity:1"
         offset="0"
         id="stop7-3" />
      <stop
         style="stop-color:#537596;stop-opacity:1"
         offset="1"
         id="stop9-6" />
    </linearGradient>
    <linearGradient
       xlink:href="#linearGradient4176"
       id="linearGradient4182"
       x1="16"
       y1="11"
       x2="40"
       y2="35"
       gradientUnits="userSpaceOnUse"
       gradientTransform="matrix(1.0500003,0,0,1.0500003,6.5374892,5.9123058)" />
    <linearGradient
       id="linearGradient4176">
      <stop
         style="stop-color:#000000;stop-opacity:1;"
         offset="0"
         id="stop2-7" />
      <stop
         style="stop-color:#000000;stop-opacity:0;"
         offset="1"
         id="stop4-53" />
    </linearGradient>
    <radialGradient
       inkscape:collect="always"
       xlink:href="#linearGradient22063"
       id="radialGradient1354"
       cx="32"
       cy="30.1875"
       fx="32"
       fy="30.1875"
       r="29.000002"
       gradientTransform="matrix(1,0,0,0.93749994,0,1.8867205)"
       gradientUnits="userSpaceOnUse" />
    <filter
       id="filter11742"
       x="-0.11404526"
       y="-0.055872058"
       width="1.2280905"
       height="1.1117441"
       color-interpolation-filters="sRGB">
      <feGaussianBlur
         stdDeviation="0.800066"
         id="feGaussianBlur195" />
    </filter>
  </defs>
  <path
     d="m 2.9999985,10.25 c 0,-4.004175 3.245938,-7.25 7.2500005,-7.25 h 43.500003 c 4.004173,0 7.25,3.245825 7.25,7.25 v 43.5 c 0,4.004173 -3.245827,7.25 -7.25,7.25 H 10.249999 C 6.2459365,61 2.9999985,57.754173 2.9999985,53.75 Z"
     id="path736"
     style="fill:#606c86;fill-opacity:1;stroke-width:3.625" />
  <path
     d="M 2.9999985,9.796875 C 2.9999985,6.043188 6.2459365,3 10.249999,3 h 43.500003 c 4.004173,0 7.25,3.043188 7.25,6.796875 v 40.781249 c 0,3.753693 -3.245827,6.796876 -7.25,6.796876 H 10.249999 c -4.0040625,0 -7.2500005,-3.043183 -7.2500005,-6.796876 z"
     id="path738"
     style="fill:url(#radialGradient1354);fill-opacity:1;stroke-width:3.625" />
  <g
     id="g200"
     transform="matrix(0.09333615,0,0,0.09333615,8.1059459,7.4905573)"
     style="fill:#2e3440;fill-opacity:1">
    <title
       id="title194">deepin</title>
    <g
       id="g198"
       style="fill:#2e3440;fill-opacity:1">
      <path
         d="M 333,44.1 C 300.6,32.3 267.5,29.1 235.4,32.1 198.1,35.1 180,46.6 181.1,44.5 120,66.3 68.5,113 44.7,178.7 2.2,295.6 62.4,424.8 179,467.4 295.7,509.9 424.8,449.7 467.3,332.8 509.8,215.9 449.6,86.6 333,44.1 Z M 186.8,446.2 c -12.2,-4.5 -23.9,-10.2 -35,-16.9 54.4,4.2 125.4,-8.4 173.2,-53.2 0,0 91.3,-72.9 25.3,-192.5 0,0 10.6,48.3 -2.9,87.9 0,0 -13,54 -70.4,69.6 -84.7,23.1 -181.2,-36.2 -221.5,-64.9 -3,-29.5 -0.4,-60 10.5,-89.8 16,-44.1 46.2,-78.5 83,-101.6 -9.2,64.4 -1.9,123.7 8.5,148.5 14.1,33.3 38.4,72.2 86.1,77.2 47.7,5 73.9,-39.6 73.9,-39.6 24.5,-37.1 28.3,-90.4 27.9,-91.8 -0.4,-1.3 -6.5,-4.8 -6.5,-4.8 -16.4,66.5 -43.5,88.8 -43.5,88.8 -42.8,41.2 -73.1,12.6 -73.1,12.6 -32.5,-34.9 -9.7,-91.8 -9.7,-91.8 12.7,-38.7 49.9,-95.3 92,-124.1 7,1.8 14.1,2.9 21,5.3 24.6,9 47.2,22.8 66.6,40.5 -30.8,11.3 -80.4,35 -80.4,35 -78.7,33.2 -84.1,83.3 -84.1,83.3 -8.2,51.7 32.9,29.8 32.9,29.8 42.2,-20.6 63,-84.7 63,-84.7 -13.2,-2.6 -23.6,1.5 -23.6,1.5 -16.8,41.7 -51.3,58.7 -51.3,58.7 -13.6,7.2 -16.7,-5.5 -16.7,-5.5 -2.3,-9.5 9.8,-11.1 9.8,-11.1 18.7,-7.3 30.8,-27 33.5,-35 2.7,-8.1 7.7,-8.7 7.7,-8.7 16,-5 32.4,-8.4 49.1,-10 31.9,-3.9 80.6,11.3 80.6,11.3 11,4.4 21.5,7.7 30.8,10.3 17.9,44.7 20.7,95.6 3,144.3 C 408,430.2 291.8,484.5 186.8,446.2 Z"
         id="path196"
         style="fill:#2e3440;fill-opacity:1" />
    </g>
  </g>
</svg>
