<?xml version="1.0" encoding="UTF-8" standalone="no"?>
<svg
   width="64"
   height="64"
   version="1.1"
   id="svg27"
   sodipodi:docname="reddit.svg"
   inkscape:version="1.3 (0e150ed6c4, 2023-07-21)"
   xmlns:inkscape="http://www.inkscape.org/namespaces/inkscape"
   xmlns:sodipodi="http://sodipodi.sourceforge.net/DTD/sodipodi-0.dtd"
   xmlns:xlink="http://www.w3.org/1999/xlink"
   xmlns="http://www.w3.org/2000/svg"
   xmlns:svg="http://www.w3.org/2000/svg"
   xmlns:rdf="http://www.w3.org/1999/02/22-rdf-syntax-ns#"
   xmlns:cc="http://creativecommons.org/ns#"
   xmlns:dc="http://purl.org/dc/elements/1.1/">
  <sodipodi:namedview
     id="namedview29"
     pagecolor="#ffffff"
     bordercolor="#666666"
     borderopacity="1.0"
     inkscape:showpageshadow="2"
     inkscape:pageopacity="0.0"
     inkscape:pagecheckerboard="0"
     inkscape:deskcolor="#d1d1d1"
     showgrid="false"
     inkscape:zoom="3.6875"
     inkscape:cx="19.932203"
     inkscape:cy="32.135593"
     inkscape:window-width="1920"
     inkscape:window-height="994"
     inkscape:window-x="0"
     inkscape:window-y="0"
     inkscape:window-maximized="1"
     inkscape:current-layer="svg27" />
  <metadata
     id="metadata2">
    <rdf:RDF>
      <cc:Work
         rdf:about="">
        <dc:format>image/svg+xml</dc:format>
        <dc:type
           rdf:resource="http://purl.org/dc/dcmitype/StillImage" />
      </cc:Work>
    </rdf:RDF>
  </metadata>
  <defs
     id="defs17">
    <linearGradient
       id="a"
       x1="99.036003"
       x2="99.036003"
       y1="11.64"
       y2="199.84"
       gradientTransform="matrix(0.21,0,0,0.21,144.26061,-57.035478)"
       gradientUnits="userSpaceOnUse">
      <stop
         stop-color="#ff4b00"
         offset="0"
         id="stop4" />
      <stop
         stop-color="#f50f2d"
         offset="1"
         id="stop6" />
    </linearGradient>
    <linearGradient
       id="b"
       x2="0"
       y1="33"
       y2="7.3098998"
       gradientTransform="matrix(1.7388102,0,0,1.7388102,33.738776,-76.07588)"
       gradientUnits="userSpaceOnUse">
      <stop
         stop-color="#fcdbd4"
         offset="0"
         id="stop9" />
      <stop
         stop-color="#fff"
         offset="1"
         id="stop11" />
    </linearGradient>
    <filter
       id="filter4273"
       x="-0.062499932"
       y="-0.057692992"
       width="1.1249999"
       height="1.115386"
       color-interpolation-filters="sRGB">
      <feGaussianBlur
         stdDeviation="1.093751"
         id="feGaussianBlur14" />
    </filter>
    <linearGradient
       id="SVGID_1_"
       gradientUnits="userSpaceOnUse"
       x1="24.837999"
       y1="33.653999"
       x2="46.732201"
       y2="55.548199"
       gradientTransform="translate(1.9999995,-0.984319)">
      <stop
         offset="0.3569"
         style="stop-color:#EF6B2E"
         id="stop366" />
      <stop
         offset="0.6328"
         style="stop-color:#F19F00"
         id="stop368" />
    </linearGradient>
    <linearGradient
       id="SVGID_2_"
       gradientUnits="userSpaceOnUse"
       x1="24.858801"
       y1="30.3876"
       x2="46.752998"
       y2="8.4933004"
       gradientTransform="translate(1.9999995,-0.984319)">
      <stop
         offset="0.3707"
         style="stop-color:#16B8C3"
         id="stop375" />
      <stop
         offset="0.7422"
         style="stop-color:#02AEF0"
         id="stop377" />
    </linearGradient>
    <linearGradient
       inkscape:collect="always"
       xlink:href="#a"
       id="linearGradient3448"
       x1="7.3432522"
       y1="57.375"
       x2="56.521687"
       y2="9.1437597"
       gradientUnits="userSpaceOnUse" />
    <filter
       id="filter4273-7"
       x="-0.062499932"
       y="-0.057692992"
       width="1.1249999"
       height="1.115386"
       color-interpolation-filters="sRGB">
      <feGaussianBlur
         stdDeviation="1.093751"
         id="feGaussianBlur14-0" />
    </filter>
    <linearGradient
       id="b-9"
       x2="0"
       y1="33"
       y2="7.3098998"
       gradientTransform="matrix(1.7388102,0,0,1.7388102,54.604579,-3.8552537)"
       gradientUnits="userSpaceOnUse">
      <stop
         stop-color="#fcdbd4"
         offset="0"
         id="stop9-3" />
      <stop
         stop-color="#fff"
         offset="1"
         id="stop11-6" />
    </linearGradient>
  </defs>
  <style
     type="text/css"
     id="style25">.st0{opacity:0.15;fill:#45413C;}&#10;	.st1{fill:#FFE500;}&#10;	.st2{fill:#EBCB00;}&#10;	.st3{fill:none;stroke:#45413C;stroke-linecap:round;stroke-linejoin:round;stroke-miterlimit:10;}&#10;	.st4{fill:#FFAA54;}&#10;	.st5{fill:#FF8A14;}&#10;	.st6{fill:#FFB0CA;stroke:#45413C;stroke-linecap:round;stroke-linejoin:round;stroke-miterlimit:10;}&#10;	.st7{fill:#FF87AF;stroke:#45413C;stroke-linecap:round;stroke-linejoin:round;stroke-miterlimit:10;}&#10;	.st8{fill:#FFCC99;}&#10;	.st9{fill:#FFFFFF;}&#10;	.st10{fill:#F0F0F0;}&#10;	.st11{fill:#BF8256;}&#10;	.st12{fill:#915E3A;}&#10;	.st13{fill:#DEA47A;}&#10;	.st14{fill:#F0D5A8;}&#10;	.st15{fill:#DEBB7E;}&#10;	.st16{fill:#F7E5C6;}&#10;	.st17{fill:#FF8A14;stroke:#45413C;stroke-linecap:round;stroke-linejoin:round;stroke-miterlimit:10;}&#10;	.st18{fill:#FFF5E3;}&#10;	.st19{fill:#FFF48C;}&#10;	.st20{fill:#FFFACF;}&#10;	.st21{fill:#FFFCE5;}&#10;	.st22{fill:#FF87AF;}&#10;	.st23{fill:#FFB0CA;}&#10;	.st24{fill:#FFE500;stroke:#45413C;stroke-linecap:round;stroke-linejoin:round;stroke-miterlimit:10;}&#10;	.st25{fill:#9CEB60;stroke:#45413C;stroke-linecap:round;stroke-linejoin:round;stroke-miterlimit:10;}&#10;	.st26{fill:#FFFACF;stroke:#45413C;stroke-linecap:round;stroke-linejoin:round;stroke-miterlimit:10;}&#10;	.st27{fill:#00F5BC;stroke:#45413C;stroke-linecap:round;stroke-linejoin:round;stroke-miterlimit:10;}&#10;	.st28{fill:#BF8256;stroke:#45413C;stroke-linecap:round;stroke-linejoin:round;stroke-miterlimit:10;}&#10;	.st29{fill:#FFE3CF;stroke:#45413C;stroke-linecap:round;stroke-linejoin:round;stroke-miterlimit:10;}&#10;	.st30{fill:#FF6242;}&#10;	.st31{fill:#FF866E;}&#10;	.st32{fill:none;stroke:#E04122;stroke-linecap:round;stroke-linejoin:round;stroke-miterlimit:10;}&#10;	.st33{fill:#FFFEF2;stroke:#45413C;stroke-linecap:round;stroke-linejoin:round;stroke-miterlimit:10;}&#10;	.st34{fill:#FF6242;stroke:#45413C;stroke-linecap:round;stroke-linejoin:round;stroke-miterlimit:10;}&#10;	.st35{fill:#FFA694;}&#10;	.st36{fill:#FFFFFF;stroke:#45413C;stroke-linecap:round;stroke-linejoin:round;stroke-miterlimit:10;}&#10;	.st37{fill:#FFFEF2;}&#10;	.st38{fill:#FF6196;}&#10;	.st39{fill:#B89558;}&#10;	.st40{fill:none;stroke:#915E3A;stroke-linecap:round;stroke-linejoin:round;stroke-miterlimit:10;}&#10;	.st41{fill:#DEBB7E;stroke:#45413C;stroke-linecap:round;stroke-linejoin:round;stroke-miterlimit:10;}&#10;	.st42{fill:#6DD627;stroke:#45413C;stroke-linecap:round;stroke-linejoin:round;stroke-miterlimit:10;}&#10;	.st43{fill:#E5F8FF;}&#10;	.st44{fill:#E8F4FA;}&#10;	.st45{fill:#E8F4FA;stroke:#45413C;stroke-linecap:round;stroke-linejoin:round;stroke-miterlimit:10;}&#10;	.st46{fill:#FFCCDD;}&#10;	.st47{fill:#E5F8FF;stroke:#45413C;stroke-linecap:round;stroke-linejoin:round;stroke-miterlimit:10;}&#10;	.st48{fill:#00B8F0;stroke:#45413C;stroke-linecap:round;stroke-linejoin:round;stroke-miterlimit:10;}&#10;	.st49{fill:#00B8F0;}&#10;	.st50{fill:#4ACFFF;}&#10;	.st51{fill:#E04122;}&#10;	.st52{fill:#E04122;stroke:#45413C;stroke-linecap:round;stroke-linejoin:round;stroke-miterlimit:10;}&#10;	.st53{fill:#87898C;}&#10;	.st54{fill:#BDBEC0;}&#10;	.st55{fill:#656769;}&#10;	.st56{fill:#525252;}&#10;	.st57{fill:#FFF48C;stroke:#45413C;stroke-linecap:round;stroke-linejoin:round;stroke-miterlimit:10;}&#10;	.st58{fill:#6DD627;}&#10;	.st59{fill:#EB6D00;}&#10;	.st60{fill:#46B000;}&#10;	.st61{fill:#80DDFF;}&#10;	.st62{fill:#DAEDF7;}&#10;	.st63{fill:#BF8DF2;stroke:#45413C;stroke-linecap:round;stroke-linejoin:round;stroke-miterlimit:10;}&#10;	.st64{fill:#9F5AE5;stroke:#45413C;stroke-linecap:round;stroke-linejoin:round;stroke-miterlimit:10;}&#10;	.st65{fill:#C8FFA1;}&#10;	.st66{fill:#E4FFD1;}&#10;	.st67{fill:#9CEB60;}&#10;	.st68{fill:#E5FEFF;}&#10;	.st69{fill:#B8ECFF;}&#10;	.st70{fill:#E0E0E0;stroke:#45413C;stroke-linecap:round;stroke-linejoin:round;stroke-miterlimit:10;}&#10;	.st71{fill:#E0E0E0;}&#10;	.st72{fill:none;stroke:#4F4B45;stroke-linejoin:round;stroke-miterlimit:10;}&#10;	.st73{fill:none;stroke:#4F4B45;stroke-linecap:round;stroke-linejoin:round;stroke-miterlimit:10;}&#10;	.st74{fill:#E0366F;stroke:#45413C;stroke-linecap:round;stroke-linejoin:round;stroke-miterlimit:10;}&#10;	.st75{fill:none;stroke:#45413C;stroke-miterlimit:10;}&#10;	.st76{fill:#FF866E;stroke:#45413C;stroke-linecap:round;stroke-linejoin:round;stroke-miterlimit:10;}&#10;	.st77{fill:#45413C;stroke:#45413C;stroke-linecap:round;stroke-linejoin:round;stroke-miterlimit:10;}&#10;	.st78{fill:#9F5AE5;}&#10;	.st79{fill:#803EC2;}&#10;	.st80{fill:#803EC2;stroke:#45413C;stroke-linecap:round;stroke-linejoin:round;stroke-miterlimit:10;}&#10;	.st81{fill:#BF8DF2;}&#10;	.st82{fill:#FFAA54;stroke:#45413C;stroke-linecap:round;stroke-linejoin:round;stroke-miterlimit:10;}&#10;	.st83{fill:none;stroke:#45413C;stroke-linejoin:round;stroke-miterlimit:10;}&#10;	.st84{fill:#FFCCDD;stroke:#45413C;stroke-linecap:round;stroke-linejoin:round;stroke-miterlimit:10;}&#10;	.st85{fill:#FF6196;stroke:#45413C;stroke-linecap:round;stroke-linejoin:round;stroke-miterlimit:10;}&#10;	.st86{fill:#FFE5EE;}&#10;	.st87{fill:#F7E5C6;stroke:#45413C;stroke-linecap:round;stroke-linejoin:round;stroke-miterlimit:10;}&#10;	.st88{fill:#E5FFF9;}&#10;	.st89{fill:none;stroke:#45413C;stroke-width:1.0064;stroke-linecap:round;stroke-linejoin:round;stroke-miterlimit:10;}&#10;	.st90{fill:#4AEFF7;}&#10;	.st91{fill:#A6FBFF;}&#10;	.st92{fill:#E5FEFF;stroke:#45413C;stroke-linecap:round;stroke-linejoin:round;stroke-miterlimit:10;}&#10;	.st93{fill:#46B000;stroke:#45413C;stroke-linecap:round;stroke-linejoin:round;stroke-miterlimit:10;}&#10;	.st94{fill:#FFFFFF;stroke:#45413C;stroke-linejoin:round;stroke-miterlimit:10;}&#10;	.st95{fill:#FFFFFF;stroke:#45413C;stroke-miterlimit:10;}&#10;	.st96{fill:#009FD9;}&#10;	.st97{fill:#00DFEB;}&#10;	.st98{fill:#C0DCEB;stroke:#45413C;stroke-linecap:round;stroke-linejoin:round;stroke-miterlimit:10;}&#10;	.st99{fill:#00DFEB;stroke:#45413C;stroke-linecap:round;stroke-linejoin:round;stroke-miterlimit:10;}&#10;	.st100{fill:#FFE5EE;stroke:#45413C;stroke-linecap:round;stroke-linejoin:round;stroke-miterlimit:10;}&#10;	.st101{fill:#8CA4B8;}&#10;	.st102{fill:#ADC4D9;}&#10;	.st103{fill:#656769;stroke:#45413C;stroke-linecap:round;stroke-linejoin:round;stroke-miterlimit:10;}&#10;	.st104{fill:#F0F0F0;stroke:#45413C;stroke-linecap:round;stroke-linejoin:round;stroke-miterlimit:10;}&#10;	.st105{fill:#C0DCEB;}&#10;	.st106{fill:#45413C;}&#10;	.st107{fill:#FFCABF;}&#10;	.st108{fill:#87898C;stroke:#45413C;stroke-linecap:round;stroke-linejoin:round;stroke-miterlimit:10;}&#10;	.st109{fill:#EBCB00;stroke:#45413C;stroke-linecap:round;stroke-linejoin:round;stroke-miterlimit:10;}</style>
  <path
     d="m 2.9999985,10.25 c 0,-4.004175 3.245938,-7.25 7.2500005,-7.25 h 43.500003 c 4.004173,0 7.25,3.245825 7.25,7.25 v 43.5 c 0,4.004172 -3.245827,7.25 -7.25,7.25 H 10.249999 C 6.2459365,61 2.9999985,57.754172 2.9999985,53.75 Z"
     id="path736"
     style="fill:#606c86;fill-opacity:1;stroke-width:3.625" />
  <path
     d="M 2.9999985,9.796875 C 2.9999985,6.043188 6.2459365,3 10.249999,3 h 43.500003 c 4.004173,0 7.25,3.043188 7.25,6.796875 v 40.781248 c 0,3.753693 -3.245827,6.796876 -7.25,6.796876 H 10.249999 c -4.0040625,0 -7.2500005,-3.043183 -7.2500005,-6.796876 z"
     id="path738"
     style="fill:url(#linearGradient3448);fill-opacity:1;stroke-width:3.625" />
  <path
     style="opacity:0.2;stroke-width:4.13944"
     d="m 34.227173,12.630807 c -0.554583,-0.0079 -1.029148,0.389368 -1.109272,0.928716 l -1.89483,12.128025 c -4.352702,0.126756 -8.482731,1.335046 -11.597714,3.392449 -0.825504,-0.797834 -1.936754,-1.245518 -3.09475,-1.246736 -2.441,0 -4.419817,1.944156 -4.419807,4.34237 9.95e-4,1.619579 0.919655,3.10392 2.382573,3.850428 -0.109187,0.52268 -0.166791,1.049664 -0.172658,1.577465 -8e-6,6.595104 7.915267,11.941477 17.67928,11.941477 9.764,0 17.679292,-5.346373 17.679278,-11.941477 -0.0073,-0.52648 -0.06676,-1.052034 -0.176954,-1.573237 1.465945,-0.746054 2.386479,-2.232653 2.386882,-3.854656 1.1e-5,-2.398214 -1.978809,-4.34237 -4.41982,-4.34237 -1.161598,1.17e-4 -2.276431,0.449524 -3.103391,1.25097 -2.944478,-1.952908 -6.807602,-3.148529 -10.92005,-3.379732 l 1.679017,-10.669283 5.744908,1.255225 c 0.204619,1.630176 1.612809,2.855532 3.284651,2.858149 1.830742,0 3.314865,-1.458083 3.314865,-3.25676 0,-1.798665 -1.484123,-3.256748 -3.314865,-3.256748 -1.140194,9.36e-4 -2.199829,0.577581 -2.80555,1.526598 L 34.45594,12.660519 c -0.075,-0.01642 -0.151683,-0.02879 -0.228757,-0.02879 z m -7.751968,19.544824 c 1.83076,0 3.314871,1.458083 3.314871,3.256764 0,1.798681 -1.484111,3.256758 -3.314871,3.256758 -1.830739,0 -3.314848,-1.458077 -3.314848,-3.256758 0,-1.798681 1.484109,-3.256764 3.314848,-3.256764 z m 11.049563,0 c 1.83075,0 3.314867,1.458083 3.314867,3.256764 0,1.798681 -1.484117,3.256758 -3.314867,3.256758 -1.830761,0 -3.314861,-1.458077 -3.314861,-3.256758 0,-1.798681 1.4841,-3.256764 3.314861,-3.256764 z m 2.149472,9.731784 c 1.028061,-0.0853 1.607374,1.133799 0.880528,1.853138 0,0 -0.723919,0.754533 -2.102005,1.378195 -1.378111,0.623814 -3.495098,1.202677 -6.478665,1.153438 -2.966381,-0.04957 -5.045676,-0.626241 -6.409606,-1.217083 -1.363937,-0.590425 -2.089046,-1.284893 -2.089046,-1.284893 -0.676638,-0.652037 -0.258559,-1.783531 0.686281,-1.857356 0.03575,-0.0021 0.07199,-0.0028 0.10796,-0.0028 0.299179,0.0023 0.584185,0.125899 0.789874,0.339323 0,0 0.315015,0.347527 1.40277,0.818428 1.08777,0.471027 2.867424,0.977005 5.563615,1.026244 2.679001,0.04522 4.420967,-0.459866 5.494578,-0.945665 1.073611,-0.485549 1.389825,-0.865072 1.389825,-0.865072 0.190006,-0.227308 0.465567,-0.369681 0.763973,-0.3943 z"
     id="path2" />
  <path
     style="fill:#ffffff;stroke-width:4.13944"
     d="m 34.227173,11.545116 c -0.554583,-0.0079 -1.029148,0.389376 -1.109272,0.928716 l -1.89483,12.128022 c -4.352702,0.126762 -8.482731,1.335035 -11.597714,3.392452 -0.825504,-0.797844 -1.936754,-1.24551 -3.09475,-1.246735 -2.441,0 -4.419817,1.944162 -4.419807,4.342359 9.95e-4,1.619573 0.919655,3.103931 2.382573,3.85044 -0.109187,0.522667 -0.166791,1.049657 -0.172658,1.57747 -8e-6,6.595077 7.915267,11.941477 17.67928,11.941477 9.764,0 17.679292,-5.3464 17.679278,-11.941477 -0.0073,-0.526506 -0.06676,-1.052054 -0.176954,-1.573249 1.465945,-0.746053 2.386479,-2.232662 2.386882,-3.854661 1.1e-5,-2.398197 -1.978809,-4.342359 -4.41982,-4.342359 -1.161598,1.06e-4 -2.276431,0.449518 -3.103391,1.250964 -2.944478,-1.952908 -6.807602,-3.148534 -10.92005,-3.379725 l 1.679017,-10.669296 5.744908,1.255242 c 0.204619,1.630154 1.612809,2.855511 3.284651,2.858136 1.830742,0 3.314865,-1.458075 3.314865,-3.256747 0,-1.798676 -1.484123,-3.256758 -3.314865,-3.256758 -1.140194,9.35e-4 -2.199829,0.577579 -2.80555,1.526608 L 34.45594,11.574823 c -0.075,-0.01641 -0.151683,-0.02877 -0.228757,-0.02877 z M 26.475205,31.08993 c 1.83076,0 3.314871,1.458077 3.314871,3.256761 0,1.798679 -1.484111,3.256773 -3.314871,3.256773 -1.830739,0 -3.314848,-1.458094 -3.314848,-3.256773 0,-1.798684 1.484109,-3.256761 3.314848,-3.256761 z m 11.049563,0 c 1.83075,0 3.314867,1.458077 3.314867,3.256761 0,1.798679 -1.484117,3.256773 -3.314867,3.256773 -1.830761,0 -3.314861,-1.458094 -3.314861,-3.256773 0,-1.798684 1.4841,-3.256761 3.314861,-3.256761 z m 2.149472,9.731794 c 1.028061,-0.08531 1.607374,1.133789 0.880528,1.853127 0,0 -0.723919,0.754546 -2.102005,1.378186 -1.378111,0.623828 -3.495098,1.202684 -6.478665,1.153448 -2.966381,-0.04957 -5.045676,-0.626241 -6.409606,-1.217077 -1.363937,-0.59042 -2.089046,-1.284894 -2.089046,-1.284894 -0.676638,-0.652048 -0.258559,-1.783536 0.686281,-1.857344 0.03575,-0.0021 0.07199,-0.0028 0.10796,-0.0028 0.299179,0.0023 0.584185,0.125899 0.789874,0.339318 0,0 0.315015,0.34753 1.40277,0.818428 1.08777,0.471025 2.867424,0.977009 5.563615,1.026247 2.679001,0.04521 4.420967,-0.459866 5.494578,-0.94566 1.073611,-0.485556 1.389825,-0.865079 1.389825,-0.865079 0.190006,-0.227312 0.465567,-0.369679 0.763973,-0.394297 z"
     id="path3" />
</svg>
